<?xml version="1.0" encoding="UTF-8"?>
<!DOCTYPE X3D PUBLIC "ISO//Web3D//DTD X3D 3.0//EN" "http://www.web3d.org/specifications/x3d-3.0.dtd">
<X3D version="3.0" profile="Immersive" xmlns:xsd="http://www.w3.org/2001/XMLSchema-instance" xsd:noNamespaceSchemaLocation="http://www.web3d.org/specifications/x3d-3.0.xsd">
	<head>
		<meta name="filename" content="applin.x3d" />
		<meta name="generator" content="Blender 2.93.18" />
	</head>
	<Scene>
		<NavigationInfo headlight="true"
		                visibilityLimit="0.0"
		                type='"EXAMINE", "ANY"'
		                avatarSize="0.25, 1.75, 0.75"
		                />
		<Background DEF="WO_World"
		            groundColor="0.051 0.051 0.051"
		            skyColor="0.051 0.051 0.051"
		            />
		<Transform DEF="body_TRANSFORM"
		           translation="0.000000 0.000000 0.000000"
		           scale="1.000000 1.000000 1.000000"
		           rotation="0.000000 0.000000 1.000000 3.141593"
		           >
			<Transform DEF="body_ifs_TRANSFORM"
			           translation="0.000000 0.000000 0.000000"
			           scale="1.000000 1.000000 1.000000"
			           rotation="0.000000 1.000000 0.000000 0.000000"
			           >
				<Group DEF="group_ME_body">
					<Shape>
						<Appearance>
							<Material DEF="MA_Body"
							          diffuseColor="0.800 0.800 0.800"
							          specularColor="0.401 0.401 0.401"
							          emissiveColor="0.000 0.000 0.000"
							          ambientIntensity="0.000"
							          shininess="0.500"
							          transparency="0.0"
							          />
						</Appearance>
						<IndexedTriangleSet solid="false"
						                    normalPerVertex="true"
						                    index="0 1 2 0 2 3 4 5 6 4 6 7 8 9 10 8 10 11 12 13 14 12 14 15 4 16 17 4 17 15 18 5 14 18 14 19 "
						                    >
							<Coordinate point="-0.697449 -0.697449 0.000000 -0.697449 -0.697449 0.325406 -0.697449 0.697449 0.325406 -0.697449 0.697449 0.000000 -0.697449 0.697449 0.000000 -0.697449 0.697449 0.325406 0.697449 0.697449 0.325406 0.697449 0.697449 0.000000 0.697449 0.697449 0.000000 0.697449 0.697449 0.325406 0.697449 -0.697449 0.325406 0.697449 -0.697449 0.000000 0.697449 -0.697449 0.000000 0.697449 -0.697449 0.325406 -0.697449 -0.697449 0.325406 -0.697449 -0.697449 0.000000 0.697449 0.697449 0.000000 0.697449 -0.697449 0.000000 0.697449 0.697449 0.325406 0.697449 -0.697449 0.325406 " />
							<Normal vector="-0.577349 -0.577349 -0.577349 -0.577349 -0.577349 0.577349 -0.577349 0.577349 0.577349 -0.577349 0.577349 -0.577349 -0.577349 0.577349 -0.577349 -0.577349 0.577349 0.577349 0.577349 0.577349 0.577349 0.577349 0.577349 -0.577349 0.577349 0.577349 -0.577349 0.577349 0.577349 0.577349 0.577349 -0.577349 0.577349 0.577349 -0.577349 -0.577349 0.577349 -0.577349 -0.577349 0.577349 -0.577349 0.577349 -0.577349 -0.577349 0.577349 -0.577349 -0.577349 -0.577349 0.577349 0.577349 -0.577349 0.577349 -0.577349 -0.577349 0.577349 0.577349 0.577349 0.577349 -0.577349 0.577349 " />
							<TextureCoordinate point="0.0229 0.0147 0.2115 0.0147 0.2115 0.2275 0.0229 0.2275 0.0229 0.0147 0.2115 0.0147 0.2115 0.2275 0.0229 0.2275 0.0229 0.0147 0.2115 0.0147 0.2115 0.2275 0.0229 0.2275 0.0229 0.0147 0.2115 0.0147 0.2115 0.2275 0.0229 0.2275 0.2115 0.0147 0.2115 0.2275 0.0229 0.0147 0.0229 0.2275 " />
						</IndexedTriangleSet>
					</Shape>
				</Group>
			</Transform>
			<Transform DEF="Cube_001_TRANSFORM"
			           translation="0.000000 0.000000 0.157258"
			           scale="1.000000 1.000000 1.000000"
			           rotation="0.000000 1.000000 0.000000 0.000000"
			           >
				<Transform DEF="Cube_001_ifs_TRANSFORM"
				           translation="0.000000 0.000000 0.000000"
				           scale="1.000000 1.000000 1.000000"
				           rotation="0.000000 1.000000 0.000000 0.000000"
				           >
					<Group DEF="group_ME_Cube_001">
						<Shape>
							<Appearance>
								<Material USE="MA_Body" />
							</Appearance>
							<IndexedTriangleSet solid="false"
							                    normalPerVertex="true"
							                    index="0 1 2 0 2 3 4 5 6 4 6 7 8 9 10 8 10 11 12 13 14 12 14 15 4 16 17 4 17 15 18 5 14 18 14 19 "
							                    >
								<Coordinate point="-1.003026 -1.003026 0.000000 -1.003026 -1.003026 0.363133 -1.003026 1.003026 0.363133 -1.003026 1.003026 0.000000 -1.003026 1.003026 0.000000 -1.003026 1.003026 0.363133 1.003026 1.003026 0.363133 1.003026 1.003026 0.000000 1.003026 1.003026 0.000000 1.003026 1.003026 0.363133 1.003026 -1.003026 0.363133 1.003026 -1.003026 0.000000 1.003026 -1.003026 0.000000 1.003026 -1.003026 0.363133 -1.003026 -1.003026 0.363133 -1.003026 -1.003026 0.000000 1.003026 1.003026 0.000000 1.003026 -1.003026 0.000000 1.003026 1.003026 0.363133 1.003026 -1.003026 0.363133 " />
								<Normal vector="-0.577349 -0.577349 -0.577349 -0.577349 -0.577349 0.577349 -0.577349 0.577349 0.577349 -0.577349 0.577349 -0.577349 -0.577349 0.577349 -0.577349 -0.577349 0.577349 0.577349 0.577349 0.577349 0.577349 0.577349 0.577349 -0.577349 0.577349 0.577349 -0.577349 0.577349 0.577349 0.577349 0.577349 -0.577349 0.577349 0.577349 -0.577349 -0.577349 0.577349 -0.577349 -0.577349 0.577349 -0.577349 0.577349 -0.577349 -0.577349 0.577349 -0.577349 -0.577349 -0.577349 0.577349 0.577349 -0.577349 0.577349 -0.577349 -0.577349 0.577349 0.577349 0.577349 0.577349 -0.577349 0.577349 " />
								<TextureCoordinate point="0.0229 0.0147 0.2115 0.0147 0.2115 0.2275 0.0229 0.2275 0.0229 0.0147 0.2115 0.0147 0.2115 0.2275 0.0229 0.2275 0.0229 0.0147 0.2115 0.0147 0.2115 0.2275 0.0229 0.2275 0.0229 0.0147 0.2115 0.0147 0.2115 0.2275 0.0229 0.2275 0.2115 0.0147 0.2115 0.2275 0.0229 0.0147 0.0229 0.2275 " />
							</IndexedTriangleSet>
						</Shape>
					</Group>
				</Transform>
				<Transform DEF="Cube_002_TRANSFORM"
				           translation="0.000000 0.000000 0.330242"
				           scale="1.000000 1.000000 1.000000"
				           rotation="0.000000 1.000000 0.000000 0.000000"
				           >
					<Transform DEF="Cube_002_ifs_TRANSFORM"
					           translation="0.000000 0.000000 0.000000"
					           scale="1.000000 1.000000 1.000000"
					           rotation="0.000000 1.000000 0.000000 0.000000"
					           >
						<Group DEF="group_ME_Cube_002">
							<Shape>
								<Appearance>
									<Material USE="MA_Body" />
								</Appearance>
								<IndexedTriangleSet solid="false"
								                    normalPerVertex="true"
								                    index="0 1 2 0 2 3 4 5 6 4 6 7 8 9 10 8 10 11 12 13 14 12 14 15 16 17 18 16 18 19 20 21 22 20 22 23 24 25 26 24 26 27 28 29 30 28 30 31 11 10 13 11 13 12 3 2 5 3 5 4 32 33 34 32 34 35 36 37 38 36 38 39 40 41 42 40 42 43 44 45 46 44 46 47 7 6 9 7 9 8 15 14 1 15 1 0 48 49 50 48 50 51 52 53 54 52 54 55 56 57 58 56 58 59 60 61 62 60 62 63 63 62 49 63 49 48 55 54 61 55 61 60 59 58 53 59 53 52 51 50 57 51 57 56 64 65 66 64 66 67 68 69 70 68 70 71 72 73 74 72 74 75 76 77 78 76 78 79 79 78 65 79 65 64 71 70 77 71 77 76 75 74 69 75 69 68 67 66 73 67 73 72 "
								                    >
									<Coordinate point="-1.220794 0.000000 1.216488 -1.220794 0.000000 1.637903 -1.220794 1.233668 1.637903 -1.220794 1.233668 1.216488 -0.000000 1.233668 1.216488 -0.000000 1.233668 1.637903 1.220794 1.233668 1.637903 1.220794 1.233668 1.216488 1.220794 0.000000 1.216488 1.220794 0.000000 1.637903 1.220794 -1.233668 1.637903 1.220794 -1.233668 1.216488 -0.000000 -1.233668 1.216488 -0.000000 -1.233668 1.637903 -1.220794 -1.233668 1.637903 -1.220794 -1.233668 1.216488 -0.000000 0.000000 0.000000 1.220794 0.000000 0.000000 1.220794 -1.233668 0.000000 -0.000000 -1.233668 0.000000 -0.000000 0.000000 1.637903 -1.220794 0.000000 1.637903 -1.220794 -1.233668 1.637903 -0.000000 -1.233668 1.637903 1.220794 0.000000 1.637903 -0.000000 0.000000 1.637903 -0.000000 -1.233668 1.637903 1.220794 -1.233668 1.637903 -1.220794 0.000000 0.000000 -0.000000 0.000000 0.000000 -0.000000 -1.233668 0.000000 -1.220794 -1.233668 0.000000 -1.220794 1.233668 0.000000 -0.000000 1.233668 0.000000 -0.000000 0.000000 0.000000 -1.220794 0.000000 0.000000 1.220794 1.233668 1.637903 -0.000000 1.233668 1.637903 -0.000000 0.000000 1.637903 1.220794 0.000000 1.637903 -0.000000 1.233668 1.637903 -1.220794 1.233668 1.637903 -1.220794 0.000000 1.637903 -0.000000 0.000000 1.637903 -0.000000 1.233668 0.000000 1.220794 1.233668 0.000000 1.220794 0.000000 0.000000 -0.000000 0.000000 0.000000 -1.220794 -1.233668 0.000000 -1.220794 -1.233668 0.622088 -1.220794 0.000000 0.622088 -1.220794 0.000000 0.000000 1.220794 1.233668 0.000000 1.220794 1.233668 0.622088 1.220794 0.000000 0.622088 1.220794 0.000000 0.000000 -1.220794 1.233668 0.000000 -1.220794 1.233668 0.622088 -0.000000 1.233668 0.622088 -0.000000 1.233668 0.000000 1.220794 -1.233668 0.000000 1.220794 -1.233668 0.622088 -0.000000 -1.233668 0.622088 -0.000000 -1.233668 0.000000 -1.220794 -1.233668 0.622088 -1.220794 -1.233668 1.216488 -1.220794 0.000000 1.216488 -1.220794 0.000000 0.622088 1.220794 1.233668 0.622088 1.220794 1.233668 1.216488 1.220794 0.000000 1.216488 1.220794 0.000000 0.622088 -1.220794 1.233668 0.622088 -1.220794 1.233668 1.216488 -0.000000 1.233668 1.216488 -0.000000 1.233668 0.622088 1.220794 -1.233668 0.622088 1.220794 -1.233668 1.216488 -0.000000 -1.233668 1.216488 -0.000000 -1.233668 0.622088 " />
									<Normal vector="-1.000000 0.000000 0.000000 -0.707083 0.000000 0.707083 -0.577349 0.577349 0.577349 -0.707083 0.707083 0.000000 0.000000 1.000000 0.000000 0.000000 0.707083 0.707083 0.577349 0.577349 0.577349 0.707083 0.707083 0.000000 1.000000 0.000000 0.000000 0.707083 0.000000 0.707083 0.577349 -0.577349 0.577349 0.707083 -0.707083 0.000000 0.000000 -1.000000 0.000000 0.000000 -0.707083 0.707083 -0.577349 -0.577349 0.577349 -0.707083 -0.707083 0.000000 0.000000 0.000000 -1.000000 0.707083 0.000000 -0.707083 0.577349 -0.577349 -0.577349 0.000000 -0.707083 -0.707083 0.000000 0.000000 1.000000 -0.707083 0.000000 0.707083 -0.577349 -0.577349 0.577349 0.000000 -0.707083 0.707083 0.707083 0.000000 0.707083 0.000000 0.000000 1.000000 0.000000 -0.707083 0.707083 0.577349 -0.577349 0.577349 -0.707083 0.000000 -0.707083 0.000000 0.000000 -1.000000 0.000000 -0.707083 -0.707083 -0.577349 -0.577349 -0.577349 -0.577349 0.577349 -0.577349 0.000000 0.707083 -0.707083 0.000000 0.000000 -1.000000 -0.707083 0.000000 -0.707083 0.577349 0.577349 0.577349 0.000000 0.707083 0.707083 0.000000 0.000000 1.000000 0.707083 0.000000 0.707083 0.000000 0.707083 0.707083 -0.577349 0.577349 0.577349 -0.707083 0.000000 0.707083 0.000000 0.000000 1.000000 0.000000 0.707083 -0.707083 0.577349 0.577349 -0.577349 0.707083 0.000000 -0.707083 0.000000 0.000000 -1.000000 -0.577349 -0.577349 -0.577349 -0.707083 -0.707083 0.000000 -1.000000 0.000000 0.000000 -0.707083 0.000000 -0.707083 0.577349 0.577349 -0.577349 0.707083 0.707083 0.000000 1.000000 0.000000 0.000000 0.707083 0.000000 -0.707083 -0.577349 0.577349 -0.577349 -0.707083 0.707083 0.000000 0.000000 1.000000 0.000000 0.000000 0.707083 -0.707083 0.577349 -0.577349 -0.577349 0.707083 -0.707083 0.000000 0.000000 -1.000000 0.000000 0.000000 -0.707083 -0.707083 -0.707083 -0.707083 0.000000 -0.707083 -0.707083 0.000000 -1.000000 0.000000 0.000000 -1.000000 0.000000 0.000000 0.707083 0.707083 0.000000 0.707083 0.707083 0.000000 1.000000 0.000000 0.000000 1.000000 0.000000 0.000000 -0.707083 0.707083 0.000000 -0.707083 0.707083 0.000000 0.000000 1.000000 0.000000 0.000000 1.000000 0.000000 0.707083 -0.707083 0.000000 0.707083 -0.707083 0.000000 0.000000 -1.000000 0.000000 0.000000 -1.000000 0.000000 " />
									<TextureCoordinate point="0.5104 0.6717 0.5104 0.8714 0.9886 0.8714 0.9886 0.6717 0.5104 0.6717 0.5104 0.8714 0.9886 0.8714 0.9886 0.6717 0.5104 0.6717 0.5104 0.8714 0.9886 0.8714 0.9886 0.6717 0.5104 0.6717 0.5104 0.8714 0.9886 0.8714 0.9886 0.6717 0.0131 0.0112 0.2213 0.0112 0.2213 0.2349 0.0131 0.2349 0.2507 0.0136 0.4837 0.0136 0.4837 0.2364 0.2507 0.2364 0.2507 0.0136 0.4837 0.0136 0.4837 0.2364 0.2507 0.2364 0.0131 0.0112 0.2213 0.0112 0.2213 0.2349 0.0131 0.2349 0.0131 0.0112 0.2213 0.0112 0.2213 0.2349 0.0131 0.2349 0.2507 0.0136 0.4837 0.0136 0.4837 0.2364 0.2507 0.2364 0.2507 0.0136 0.4837 0.0136 0.4837 0.2364 0.2507 0.2364 0.0131 0.0112 0.2213 0.0112 0.2213 0.2349 0.0131 0.2349 0.9886 0.0127 0.9886 0.5188 0.5104 0.5188 0.5104 0.0127 0.9886 0.0127 0.9886 0.5188 0.5104 0.5188 0.5104 0.0127 0.9886 0.0127 0.9886 0.5188 0.5104 0.5188 0.5104 0.0127 0.9886 0.0127 0.9886 0.5188 0.5104 0.5188 0.5104 0.0127 0.4908 0.2656 0.4908 0.5032 0.2493 0.5032 0.2493 0.2656 0.4908 0.2656 0.4908 0.5032 0.2493 0.5032 0.2493 0.2656 0.4908 0.2656 0.4908 0.5032 0.2493 0.5032 0.2493 0.2656 0.4908 0.2656 0.4908 0.5032 0.2493 0.5032 0.2493 0.2656 " />
								</IndexedTriangleSet>
							</Shape>
						</Group>
					</Transform>
					<Transform DEF="Cube_003_TRANSFORM"
					           translation="0.000000 0.000000 1.580444"
					           scale="1.000000 1.000000 1.000000"
					           rotation="0.000000 1.000000 0.000000 0.000000"
					           >
						<Transform DEF="Cube_003_ifs_TRANSFORM"
						           translation="0.000000 0.000000 0.000000"
						           scale="1.000000 1.000000 1.000000"
						           rotation="0.000000 1.000000 0.000000 0.000000"
						           >
							<Group DEF="group_ME_Cube_004">
								<Shape>
									<Appearance>
										<Material USE="MA_Body" />
									</Appearance>
									<IndexedTriangleSet solid="false"
									                    normalPerVertex="true"
									                    index="0 1 2 0 2 3 4 5 6 4 6 7 8 9 10 8 10 11 12 13 14 12 14 15 4 16 17 4 17 15 18 9 19 18 19 20 21 1 22 21 22 23 24 13 25 24 25 26 27 5 28 27 28 29 "
									                    >
										<Coordinate point="-1.015139 -0.972326 0.000000 -1.015139 -0.972326 0.321248 -1.015139 0.972326 0.321248 -1.015139 0.972326 0.000000 -1.015139 0.972326 0.000000 -1.015139 0.972326 0.321248 1.015139 0.972326 0.321248 1.015139 0.972326 0.000000 1.015139 0.972326 0.000000 1.015139 0.972326 0.321248 1.015139 -0.972326 0.321248 1.015139 -0.972326 0.000000 1.015139 -0.972326 0.000000 1.015139 -0.972326 0.321248 -1.015139 -0.972326 0.321248 -1.015139 -0.972326 0.000000 1.015139 0.972326 0.000000 1.015139 -0.972326 0.000000 1.015139 -0.972326 0.321248 0.275806 0.264174 0.321248 0.275806 -0.264174 0.321248 -1.015139 0.972326 0.321248 -0.275806 -0.264174 0.321248 -0.275806 0.264174 0.321248 -1.015139 -0.972326 0.321248 0.275806 -0.264174 0.321248 -0.275806 -0.264174 0.321248 1.015139 0.972326 0.321248 -0.275806 0.264174 0.321248 0.275806 0.264174 0.321248 " />
										<Normal vector="-0.577349 -0.577349 -0.577349 -0.577349 -0.577349 0.577349 -0.577349 0.577349 0.577349 -0.577349 0.577349 -0.577349 -0.577349 0.577349 -0.577349 -0.577349 0.577349 0.577349 0.577349 0.577349 0.577349 0.577349 0.577349 -0.577349 0.577349 0.577349 -0.577349 0.577349 0.577349 0.577349 0.577349 -0.577349 0.577349 0.577349 -0.577349 -0.577349 0.577349 -0.577349 -0.577349 0.577349 -0.577349 0.577349 -0.577349 -0.577349 0.577349 -0.577349 -0.577349 -0.577349 0.577349 0.577349 -0.577349 0.577349 -0.577349 -0.577349 0.577349 -0.577349 0.577349 0.000000 0.000000 1.000000 0.000000 0.000000 1.000000 -0.577349 0.577349 0.577349 0.000000 0.000000 1.000000 0.000000 0.000000 1.000000 -0.577349 -0.577349 0.577349 0.000000 0.000000 1.000000 0.000000 0.000000 1.000000 0.577349 0.577349 0.577349 0.000000 0.000000 1.000000 0.000000 0.000000 1.000000 " />
										<TextureCoordinate point="0.2496 0.0127 0.4847 0.0127 0.4847 0.2373 0.2496 0.2373 0.2496 0.0127 0.4847 0.0127 0.4847 0.2373 0.2496 0.2373 0.2496 0.0127 0.4847 0.0127 0.4847 0.2373 0.2496 0.2373 0.2496 0.0127 0.4847 0.0127 0.4847 0.2373 0.2496 0.2373 0.4847 0.0127 0.4847 0.2373 0.2496 0.0127 0.4847 0.2373 0.2496 0.2373 0.2496 0.0127 0.4847 0.2373 0.2496 0.2373 0.2496 0.0127 0.4847 0.2373 0.2496 0.2373 0.2496 0.0127 0.4847 0.2373 0.2496 0.2373 " />
									</IndexedTriangleSet>
								</Shape>
							</Group>
						</Transform>
					</Transform>
				</Transform>
			</Transform>
			<Transform DEF="tail_TRANSFORM"
			           translation="0.000000 0.671012 0.868196"
			           scale="1.000000 1.000000 1.000000"
			           rotation="0.000000 1.000000 0.000000 0.000000"
			           >
				<Transform DEF="tail_ifs_TRANSFORM"
				           translation="0.000000 0.000000 0.000000"
				           scale="1.000000 1.000000 1.000000"
				           rotation="0.000000 1.000000 0.000000 0.000000"
				           >
					<Group DEF="group_ME_tail">
						<Shape>
							<Appearance>
								<Material USE="MA_Body" />
							</Appearance>
							<IndexedTriangleSet solid="false"
							                    normalPerVertex="true"
							                    index="0 1 2 0 2 3 4 5 6 4 6 7 8 9 10 8 10 11 12 13 14 12 14 15 16 17 18 16 18 19 20 5 14 20 14 21 22 23 24 22 24 19 25 26 27 25 27 28 16 29 30 16 30 31 32 33 34 32 34 35 "
							                    >
								<Coordinate point="-0.404281 0.000000 0.000000 -0.404281 0.000000 0.414344 -0.404281 0.781372 0.414344 -0.404281 0.781372 0.000000 -0.404281 0.781372 0.000000 -0.404281 0.781372 0.414344 0.404281 0.781372 0.414344 0.404281 0.781372 0.000000 0.404281 0.781372 0.000000 0.404281 0.781372 0.414344 0.404281 0.000000 0.414344 0.404281 0.000000 0.000000 0.404281 0.000000 0.000000 0.404281 0.000000 0.414344 -0.404281 0.000000 0.414344 -0.404281 0.000000 0.000000 -0.404281 0.781372 -0.414344 0.404281 0.781372 -0.414344 0.404281 0.000000 -0.414344 -0.404281 0.000000 -0.414344 0.404281 0.781372 0.414344 0.404281 0.000000 0.414344 0.404281 0.000000 -0.414344 0.404281 0.000000 0.000000 -0.404281 0.000000 0.000000 0.404281 0.781372 -0.414344 0.404281 0.781372 0.000000 0.404281 0.000000 0.000000 0.404281 0.000000 -0.414344 -0.404281 0.781372 0.000000 0.404281 0.781372 0.000000 0.404281 0.781372 -0.414344 -0.404281 0.000000 -0.414344 -0.404281 0.000000 0.000000 -0.404281 0.781372 0.000000 -0.404281 0.781372 -0.414344 " />
								<Normal vector="-0.707083 -0.707083 0.000000 -0.577349 -0.577349 0.577349 -0.577349 0.577349 0.577349 -0.707083 0.707083 0.000000 -0.707083 0.707083 0.000000 -0.577349 0.577349 0.577349 0.577349 0.577349 0.577349 0.707083 0.707083 0.000000 0.707083 0.707083 0.000000 0.577349 0.577349 0.577349 0.577349 -0.577349 0.577349 0.707083 -0.707083 0.000000 0.707083 -0.707083 0.000000 0.577349 -0.577349 0.577349 -0.577349 -0.577349 0.577349 -0.707083 -0.707083 0.000000 -0.577349 0.577349 -0.577349 0.577349 0.577349 -0.577349 0.577349 -0.577349 -0.577349 -0.577349 -0.577349 -0.577349 0.577349 0.577349 0.577349 0.577349 -0.577349 0.577349 0.577349 -0.577349 -0.577349 0.707083 -0.707083 0.000000 -0.707083 -0.707083 0.000000 0.577349 0.577349 -0.577349 0.707083 0.707083 0.000000 0.707083 -0.707083 0.000000 0.577349 -0.577349 -0.577349 -0.707083 0.707083 0.000000 0.707083 0.707083 0.000000 0.577349 0.577349 -0.577349 -0.577349 -0.577349 -0.577349 -0.707083 -0.707083 0.000000 -0.707083 0.707083 0.000000 -0.577349 0.577349 -0.577349 " />
								<TextureCoordinate point="0.0143 0.6814 0.4857 0.6814 0.4857 0.9866 0.0143 0.9866 0.0143 0.6814 0.4857 0.6814 0.4857 0.9866 0.0143 0.9866 0.0143 0.6814 0.4857 0.6814 0.4857 0.9866 0.0143 0.9866 0.0143 0.6814 0.4857 0.6814 0.4857 0.9866 0.0143 0.9866 0.0089 0.2614 0.2255 0.2614 0.2255 0.5042 0.0089 0.5042 0.0143 0.6814 0.0143 0.9866 0.0089 0.2614 0.2255 0.2614 0.2255 0.5042 0.0089 0.2614 0.2255 0.2614 0.2255 0.5042 0.0089 0.5042 0.2255 0.2614 0.2255 0.5042 0.0089 0.5042 0.0089 0.2614 0.2255 0.2614 0.2255 0.5042 0.0089 0.5042 " />
							</IndexedTriangleSet>
						</Shape>
					</Group>
				</Transform>
				<Transform DEF="tail1_TRANSFORM"
				           translation="0.000000 0.732233 0.000000"
				           scale="1.000000 1.000000 1.000000"
				           rotation="0.000000 1.000000 0.000000 0.000000"
				           >
					<Transform DEF="tail1_ifs_TRANSFORM"
					           translation="0.000000 0.000000 0.000000"
					           scale="1.000000 1.000000 1.000000"
					           rotation="0.000000 1.000000 0.000000 0.000000"
					           >
						<Group DEF="group_ME_tail1">
							<Shape>
								<Appearance>
									<Material USE="MA_Body" />
								</Appearance>
								<IndexedTriangleSet solid="false"
								                    normalPerVertex="true"
								                    index="0 1 2 0 2 3 4 5 6 4 6 7 8 9 10 8 10 11 12 13 14 12 14 15 16 17 18 16 18 19 20 5 14 20 14 21 22 23 24 22 24 19 25 26 27 25 27 28 16 29 30 16 30 31 32 33 34 32 34 35 "
								                    >
									<Coordinate point="-0.373738 0.000000 0.000000 -0.373738 0.000000 0.383041 -0.373738 0.519798 0.383041 -0.373738 0.519798 0.000000 -0.373738 0.519798 0.000000 -0.373738 0.519798 0.383041 0.373738 0.519798 0.383041 0.373738 0.519798 0.000000 0.373738 0.519798 0.000000 0.373738 0.519798 0.383041 0.373738 0.000000 0.383041 0.373738 0.000000 0.000000 0.373738 0.000000 0.000000 0.373738 0.000000 0.383041 -0.373738 0.000000 0.383041 -0.373738 0.000000 0.000000 -0.373738 0.519798 -0.383041 0.373738 0.519798 -0.383041 0.373738 0.000000 -0.383041 -0.373738 0.000000 -0.383041 0.373738 0.519798 0.383041 0.373738 0.000000 0.383041 0.373738 0.000000 -0.383041 0.373738 0.000000 0.000000 -0.373738 0.000000 0.000000 0.373738 0.519798 -0.383041 0.373738 0.519798 0.000000 0.373738 0.000000 0.000000 0.373738 0.000000 -0.383041 -0.373738 0.519798 0.000000 0.373738 0.519798 0.000000 0.373738 0.519798 -0.383041 -0.373738 0.000000 -0.383041 -0.373738 0.000000 0.000000 -0.373738 0.519798 0.000000 -0.373738 0.519798 -0.383041 " />
									<Normal vector="-0.707083 -0.707083 0.000000 -0.577349 -0.577349 0.577349 -0.577349 0.577349 0.577349 -0.707083 0.707083 0.000000 -0.707083 0.707083 0.000000 -0.577349 0.577349 0.577349 0.577349 0.577349 0.577349 0.707083 0.707083 0.000000 0.707083 0.707083 0.000000 0.577349 0.577349 0.577349 0.577349 -0.577349 0.577349 0.707083 -0.707083 0.000000 0.707083 -0.707083 0.000000 0.577349 -0.577349 0.577349 -0.577349 -0.577349 0.577349 -0.707083 -0.707083 0.000000 -0.577349 0.577349 -0.577349 0.577349 0.577349 -0.577349 0.577349 -0.577349 -0.577349 -0.577349 -0.577349 -0.577349 0.577349 0.577349 0.577349 0.577349 -0.577349 0.577349 0.577349 -0.577349 -0.577349 0.707083 -0.707083 0.000000 -0.707083 -0.707083 0.000000 0.577349 0.577349 -0.577349 0.707083 0.707083 0.000000 0.707083 -0.707083 0.000000 0.577349 -0.577349 -0.577349 -0.707083 0.707083 0.000000 0.707083 0.707083 0.000000 0.577349 0.577349 -0.577349 -0.577349 -0.577349 -0.577349 -0.707083 -0.707083 0.000000 -0.707083 0.707083 0.000000 -0.577349 0.577349 -0.577349 " />
									<TextureCoordinate point="0.0143 0.6814 0.4857 0.6814 0.4857 0.9866 0.0143 0.9866 0.0143 0.6814 0.4857 0.6814 0.4857 0.9866 0.0143 0.9866 0.0143 0.6814 0.4857 0.6814 0.4857 0.9866 0.0143 0.9866 0.0143 0.6814 0.4857 0.6814 0.4857 0.9866 0.0143 0.9866 0.0089 0.2614 0.2255 0.2614 0.2255 0.5042 0.0089 0.5042 0.0143 0.6814 0.0143 0.9866 0.0089 0.2614 0.2255 0.2614 0.2255 0.5042 0.0089 0.2614 0.2255 0.2614 0.2255 0.5042 0.0089 0.5042 0.2255 0.2614 0.2255 0.5042 0.0089 0.5042 0.0089 0.2614 0.2255 0.2614 0.2255 0.5042 0.0089 0.5042 " />
								</IndexedTriangleSet>
							</Shape>
						</Group>
					</Transform>
					<Transform DEF="tail2_TRANSFORM"
					           translation="0.000000 0.477781 0.000000"
					           scale="1.000000 1.000000 1.000000"
					           rotation="0.000000 1.000000 0.000000 0.000000"
					           >
						<Transform DEF="tail2_ifs_TRANSFORM"
						           translation="0.000000 0.000000 0.000000"
						           scale="1.000000 1.000000 1.000000"
						           rotation="0.000000 1.000000 0.000000 0.000000"
						           >
							<Group DEF="group_ME_tail2">
								<Shape>
									<Appearance>
										<Material USE="MA_Body" />
									</Appearance>
									<IndexedTriangleSet solid="false"
									                    normalPerVertex="true"
									                    index="0 1 2 0 2 3 4 5 6 4 6 7 8 9 10 8 10 11 12 13 14 12 14 15 16 17 18 16 18 19 20 5 14 20 14 21 22 23 24 22 24 19 25 26 27 25 27 28 16 29 30 16 30 31 32 33 34 32 34 35 "
									                    >
										<Coordinate point="-0.339387 0.000000 0.000000 -0.339387 0.000000 0.347835 -0.339387 0.473439 0.347835 -0.339387 0.473439 0.000000 -0.339387 0.473439 0.000000 -0.339387 0.473439 0.347835 0.339387 0.473439 0.347835 0.339387 0.473439 0.000000 0.339387 0.473439 0.000000 0.339387 0.473439 0.347835 0.339387 0.000000 0.347835 0.339387 0.000000 0.000000 0.339387 0.000000 0.000000 0.339387 0.000000 0.347835 -0.339387 0.000000 0.347835 -0.339387 0.000000 0.000000 -0.339387 0.473439 -0.347835 0.339387 0.473439 -0.347835 0.339387 0.000000 -0.347835 -0.339387 0.000000 -0.347835 0.339387 0.473439 0.347835 0.339387 0.000000 0.347835 0.339387 0.000000 -0.347835 0.339387 0.000000 0.000000 -0.339387 0.000000 0.000000 0.339387 0.473439 -0.347835 0.339387 0.473439 0.000000 0.339387 0.000000 0.000000 0.339387 0.000000 -0.347835 -0.339387 0.473439 0.000000 0.339387 0.473439 0.000000 0.339387 0.473439 -0.347835 -0.339387 0.000000 -0.347835 -0.339387 0.000000 0.000000 -0.339387 0.473439 0.000000 -0.339387 0.473439 -0.347835 " />
										<Normal vector="-0.707083 -0.707083 0.000000 -0.577349 -0.577349 0.577349 -0.577349 0.577349 0.577349 -0.707083 0.707083 0.000000 -0.707083 0.707083 0.000000 -0.577349 0.577349 0.577349 0.577349 0.577349 0.577349 0.707083 0.707083 0.000000 0.707083 0.707083 0.000000 0.577349 0.577349 0.577349 0.577349 -0.577349 0.577349 0.707083 -0.707083 0.000000 0.707083 -0.707083 0.000000 0.577349 -0.577349 0.577349 -0.577349 -0.577349 0.577349 -0.707083 -0.707083 0.000000 -0.577349 0.577349 -0.577349 0.577349 0.577349 -0.577349 0.577349 -0.577349 -0.577349 -0.577349 -0.577349 -0.577349 0.577349 0.577349 0.577349 0.577349 -0.577349 0.577349 0.577349 -0.577349 -0.577349 0.707083 -0.707083 0.000000 -0.707083 -0.707083 0.000000 0.577349 0.577349 -0.577349 0.707083 0.707083 0.000000 0.707083 -0.707083 0.000000 0.577349 -0.577349 -0.577349 -0.707083 0.707083 0.000000 0.707083 0.707083 0.000000 0.577349 0.577349 -0.577349 -0.577349 -0.577349 -0.577349 -0.707083 -0.707083 0.000000 -0.707083 0.707083 0.000000 -0.577349 0.577349 -0.577349 " />
										<TextureCoordinate point="0.0143 0.6814 0.4857 0.6814 0.4857 0.9866 0.0143 0.9866 0.0143 0.6814 0.4857 0.6814 0.4857 0.9866 0.0143 0.9866 0.0143 0.6814 0.4857 0.6814 0.4857 0.9866 0.0143 0.9866 0.0143 0.6814 0.4857 0.6814 0.4857 0.9866 0.0143 0.9866 0.0089 0.2614 0.2255 0.2614 0.2255 0.5042 0.0089 0.5042 0.0143 0.6814 0.0143 0.9866 0.0089 0.2614 0.2255 0.2614 0.2255 0.5042 0.0089 0.2614 0.2255 0.2614 0.2255 0.5042 0.0089 0.5042 0.2255 0.2614 0.2255 0.5042 0.0089 0.5042 0.0089 0.2614 0.2255 0.2614 0.2255 0.5042 0.0089 0.5042 " />
									</IndexedTriangleSet>
								</Shape>
							</Group>
						</Transform>
						<Transform DEF="tail3_TRANSFORM"
						           translation="0.000000 0.390567 0.000000"
						           scale="1.000000 1.000000 1.000000"
						           rotation="0.000000 1.000000 0.000000 0.000000"
						           >
							<Transform DEF="tail3_ifs_TRANSFORM"
							           translation="0.000000 0.000000 0.000000"
							           scale="1.000000 1.000000 1.000000"
							           rotation="0.000000 1.000000 0.000000 0.000000"
							           >
								<Group DEF="group_ME_tail3">
									<Shape>
										<Appearance>
											<Material USE="MA_Body" />
										</Appearance>
										<IndexedTriangleSet solid="false"
										                    normalPerVertex="true"
										                    index="0 1 2 0 2 3 4 5 6 4 6 7 8 9 10 8 10 11 12 13 14 12 14 15 16 17 18 16 18 19 20 21 14 20 14 22 23 5 24 23 24 25 26 27 28 26 28 29 30 31 32 30 32 33 34 35 36 34 36 37 38 39 40 38 40 29 41 42 43 41 43 44 45 46 47 45 47 19 48 49 50 48 50 51 26 52 53 26 53 54 16 55 56 16 56 57 "
										                    >
											<Coordinate point="-0.275621 0.142036 0.000000 -0.275621 0.142036 0.282482 -0.275621 0.460658 0.282482 -0.275621 0.460658 0.000000 -0.275621 0.460658 0.000000 -0.275621 0.460658 0.282482 0.275621 0.460658 0.282482 0.275621 0.460658 0.000000 0.275621 0.142036 0.000000 0.275621 0.142036 0.282482 0.275621 0.000000 0.282482 0.275621 0.000000 0.000000 0.275621 0.000000 0.000000 0.275621 0.000000 0.282482 -0.275621 0.000000 0.282482 -0.275621 0.000000 0.000000 -0.275621 0.142036 -0.282482 0.275621 0.142036 -0.282482 0.275621 0.000000 -0.282482 -0.275621 0.000000 -0.282482 0.275621 0.142036 0.282482 -0.275621 0.142036 0.282482 0.275621 0.000000 0.282482 0.275621 0.460658 0.282482 -0.275621 0.142036 0.282482 0.275621 0.142036 0.282482 -0.275621 0.460658 -0.282482 0.275621 0.460658 -0.282482 0.275621 0.142036 -0.282482 -0.275621 0.142036 -0.282482 0.275621 0.460658 0.000000 0.275621 0.460658 0.282482 0.275621 0.142036 0.282482 0.275621 0.142036 0.000000 -0.275621 0.000000 0.000000 -0.275621 0.000000 0.282482 -0.275621 0.142036 0.282482 -0.275621 0.142036 0.000000 -0.275621 0.000000 -0.282482 -0.275621 0.000000 0.000000 -0.275621 0.142036 0.000000 0.275621 0.460658 -0.282482 0.275621 0.460658 0.000000 0.275621 0.142036 0.000000 0.275621 0.142036 -0.282482 0.275621 0.000000 -0.282482 0.275621 0.000000 0.000000 -0.275621 0.000000 0.000000 0.275621 0.142036 -0.282482 0.275621 0.142036 0.000000 0.275621 0.000000 0.000000 0.275621 0.000000 -0.282482 -0.275621 0.460658 0.000000 0.275621 0.460658 0.000000 0.275621 0.460658 -0.282482 -0.275621 0.142036 0.000000 -0.275621 0.460658 0.000000 -0.275621 0.460658 -0.282482 " />
											<Normal vector="-1.000000 0.000000 0.000000 -0.707083 0.000000 0.707083 -0.577349 0.577349 0.577349 -0.707083 0.707083 0.000000 -0.707083 0.707083 0.000000 -0.577349 0.577349 0.577349 0.577349 0.577349 0.577349 0.707083 0.707083 0.000000 1.000000 0.000000 0.000000 0.707083 0.000000 0.707083 0.577349 -0.577349 0.577349 0.707083 -0.707083 0.000000 0.707083 -0.707083 0.000000 0.577349 -0.577349 0.577349 -0.577349 -0.577349 0.577349 -0.707083 -0.707083 0.000000 -0.707083 0.000000 -0.707083 0.707083 0.000000 -0.707083 0.577349 -0.577349 -0.577349 -0.577349 -0.577349 -0.577349 0.707083 0.000000 0.707083 -0.707083 0.000000 0.707083 0.577349 -0.577349 0.577349 0.577349 0.577349 0.577349 -0.707083 0.000000 0.707083 0.707083 0.000000 0.707083 -0.577349 0.577349 -0.577349 0.577349 0.577349 -0.577349 0.707083 0.000000 -0.707083 -0.707083 0.000000 -0.707083 0.707083 0.707083 0.000000 0.577349 0.577349 0.577349 0.707083 0.000000 0.707083 1.000000 0.000000 0.000000 -0.707083 -0.707083 0.000000 -0.577349 -0.577349 0.577349 -0.707083 0.000000 0.707083 -1.000000 0.000000 0.000000 -0.577349 -0.577349 -0.577349 -0.707083 -0.707083 0.000000 -1.000000 0.000000 0.000000 0.577349 0.577349 -0.577349 0.707083 0.707083 0.000000 1.000000 0.000000 0.000000 0.707083 0.000000 -0.707083 0.577349 -0.577349 -0.577349 0.707083 -0.707083 0.000000 -0.707083 -0.707083 0.000000 0.707083 0.000000 -0.707083 1.000000 0.000000 0.000000 0.707083 -0.707083 0.000000 0.577349 -0.577349 -0.577349 -0.707083 0.707083 0.000000 0.707083 0.707083 0.000000 0.577349 0.577349 -0.577349 -1.000000 0.000000 0.000000 -0.707083 0.707083 0.000000 -0.577349 0.577349 -0.577349 " />
											<TextureCoordinate point="0.0089 0.2614 0.2255 0.2614 0.2255 0.5042 0.0089 0.5042 0.0089 0.2614 0.2255 0.2614 0.2255 0.5042 0.0089 0.5042 0.0143 0.6814 0.4857 0.6814 0.4857 0.9866 0.0143 0.9866 0.0143 0.6814 0.4857 0.6814 0.4857 0.9866 0.0143 0.9866 0.0089 0.2614 0.2255 0.2614 0.2255 0.5042 0.0089 0.5042 0.0143 0.6814 0.4857 0.6814 0.0143 0.9866 0.0089 0.2614 0.2255 0.5042 0.0089 0.5042 0.0089 0.2614 0.2255 0.2614 0.2255 0.5042 0.0089 0.5042 0.0089 0.2614 0.2255 0.2614 0.2255 0.5042 0.0089 0.5042 0.0143 0.6814 0.4857 0.6814 0.4857 0.9866 0.0143 0.9866 0.0089 0.2614 0.2255 0.2614 0.2255 0.5042 0.0089 0.2614 0.2255 0.2614 0.2255 0.5042 0.0089 0.5042 0.0089 0.2614 0.2255 0.2614 0.2255 0.5042 0.0089 0.2614 0.2255 0.2614 0.2255 0.5042 0.0089 0.5042 0.2255 0.2614 0.2255 0.5042 0.0089 0.5042 0.2255 0.2614 0.2255 0.5042 0.0089 0.5042 " />
										</IndexedTriangleSet>
									</Shape>
								</Group>
							</Transform>
							<Transform DEF="Cube_008_TRANSFORM"
							           translation="0.000000 0.417110 -0.008342"
							           scale="1.000000 1.000000 1.000000"
							           rotation="0.000000 1.000000 0.000000 0.000000"
							           >
								<Transform DEF="Cube_008_ifs_TRANSFORM"
								           translation="0.000000 0.000000 0.000000"
								           scale="1.000000 1.000000 1.000000"
								           rotation="0.000000 1.000000 0.000000 0.000000"
								           >
									<Group DEF="group_ME_Cube_009">
										<Shape>
											<Appearance>
												<Material USE="MA_Body" />
											</Appearance>
											<IndexedTriangleSet solid="false"
											                    normalPerVertex="true"
											                    index="0 1 2 0 2 3 4 5 6 4 6 7 8 9 10 8 10 11 12 13 14 12 14 15 4 16 17 4 17 15 18 5 14 18 14 19 "
											                    >
												<Coordinate point="-0.152315 0.000000 -0.172468 -0.152315 0.000000 0.172468 -0.152315 0.253623 0.172468 -0.152315 0.253623 -0.172468 -0.152315 0.253623 -0.172468 -0.152315 0.253623 0.172468 0.152315 0.253623 0.172468 0.152315 0.253623 -0.172468 0.152315 0.253623 -0.172468 0.152315 0.253623 0.172468 0.152315 0.000000 0.172468 0.152315 0.000000 -0.172468 0.152315 0.000000 -0.172468 0.152315 0.000000 0.172468 -0.152315 0.000000 0.172468 -0.152315 0.000000 -0.172468 0.152315 0.253623 -0.172468 0.152315 0.000000 -0.172468 0.152315 0.253623 0.172468 0.152315 0.000000 0.172468 " />
												<Normal vector="-0.577349 -0.577349 -0.577349 -0.577349 -0.577349 0.577349 -0.577349 0.577349 0.577349 -0.577349 0.577349 -0.577349 -0.577349 0.577349 -0.577349 -0.577349 0.577349 0.577349 0.577349 0.577349 0.577349 0.577349 0.577349 -0.577349 0.577349 0.577349 -0.577349 0.577349 0.577349 0.577349 0.577349 -0.577349 0.577349 0.577349 -0.577349 -0.577349 0.577349 -0.577349 -0.577349 0.577349 -0.577349 0.577349 -0.577349 -0.577349 0.577349 -0.577349 -0.577349 -0.577349 0.577349 0.577349 -0.577349 0.577349 -0.577349 -0.577349 0.577349 0.577349 0.577349 0.577349 -0.577349 0.577349 " />
												<TextureCoordinate point="0.0089 0.2614 0.2255 0.2614 0.2255 0.5042 0.0089 0.5042 0.0089 0.2614 0.2255 0.2614 0.2255 0.5042 0.0089 0.5042 0.0089 0.2614 0.2255 0.2614 0.2255 0.5042 0.0089 0.5042 0.0089 0.2614 0.2255 0.2614 0.2255 0.5042 0.0089 0.5042 0.2255 0.2614 0.2255 0.5042 0.0089 0.2614 0.0089 0.5042 " />
											</IndexedTriangleSet>
										</Shape>
									</Group>
								</Transform>
							</Transform>
							<Transform DEF="Cube_009_TRANSFORM"
							           translation="0.063527 0.233201 0.251035"
							           scale="1.000000 1.000000 1.000000"
							           rotation="0.000000 1.000000 0.000000 0.000000"
							           >
								<Transform DEF="Cube_009_ifs_TRANSFORM"
								           translation="0.000000 0.000000 0.000000"
								           scale="1.000000 1.000000 1.000000"
								           rotation="0.000000 1.000000 0.000000 0.000000"
								           >
									<Group DEF="group_ME_Cube_010">
										<Shape>
											<Appearance>
												<Material USE="MA_Body" />
											</Appearance>
											<IndexedTriangleSet solid="false"
											                    normalPerVertex="true"
											                    index="0 1 2 0 2 3 4 5 6 4 6 7 8 9 10 8 10 11 12 13 14 12 14 15 4 16 17 4 17 15 18 5 14 18 14 19 "
											                    >
												<Coordinate point="-0.023439 0.023530 0.010537 -0.023830 -0.023530 0.009620 0.123730 -0.031503 0.355663 0.124121 0.015557 0.356581 0.124121 0.015557 0.356581 0.123730 -0.031503 0.355663 0.170999 -0.031503 0.335507 0.171390 0.015557 0.336424 0.171390 0.015557 0.336424 0.170999 -0.031503 0.335507 0.023439 -0.023530 -0.010537 0.023830 0.023530 -0.009620 0.023830 0.023530 -0.009620 0.023439 -0.023530 -0.010537 -0.023830 -0.023530 0.009620 -0.023439 0.023530 0.010537 0.171390 0.015557 0.336424 0.023830 0.023530 -0.009620 0.170999 -0.031503 0.335507 0.023439 -0.023530 -0.010537 " />
												<Normal vector="-0.752678 0.589435 -0.293222 -0.762291 -0.564959 -0.315744 -0.309458 -0.589435 0.746147 -0.299844 0.564959 0.768670 -0.299844 0.564959 0.768670 -0.309458 -0.589435 0.746147 0.752678 -0.589435 0.293222 0.762291 0.564959 0.315744 0.762291 0.564959 0.315744 0.752678 -0.589435 0.293222 0.299844 -0.564959 -0.768670 0.309458 0.589435 -0.746147 0.309458 0.589435 -0.746147 0.299844 -0.564959 -0.768670 -0.762291 -0.564959 -0.315744 -0.752678 0.589435 -0.293222 0.762291 0.564959 0.315744 0.309458 0.589435 -0.746147 0.752678 -0.589435 0.293222 0.299844 -0.564959 -0.768670 " />
												<TextureCoordinate point="0.0187 0.5379 0.4813 0.5379 0.4813 0.6496 0.0187 0.6496 0.0187 0.5379 0.4813 0.5379 0.4813 0.6496 0.0187 0.6496 0.0187 0.5379 0.4813 0.5379 0.4813 0.6496 0.0187 0.6496 0.0187 0.5379 0.4813 0.5379 0.4813 0.6496 0.0187 0.6496 0.4813 0.5379 0.4813 0.6496 0.0187 0.5379 0.0187 0.6496 " />
											</IndexedTriangleSet>
										</Shape>
									</Group>
								</Transform>
							</Transform>
							<Transform DEF="Cube_004_TRANSFORM"
							           translation="-0.063527 0.233201 0.251035"
							           scale="1.000000 1.000000 1.000000"
							           rotation="0.000000 1.000000 0.000000 0.000000"
							           >
								<Transform DEF="Cube_004_ifs_TRANSFORM"
								           translation="0.000000 0.000000 0.000000"
								           scale="1.000000 1.000000 1.000000"
								           rotation="0.000000 1.000000 0.000000 0.000000"
								           >
									<Group DEF="group_ME_Cube_020">
										<Shape>
											<Appearance>
												<Material USE="MA_Body" />
											</Appearance>
											<IndexedTriangleSet solid="false"
											                    normalPerVertex="true"
											                    index="0 1 2 0 2 3 4 5 6 4 6 7 8 9 10 8 10 11 12 13 14 12 14 15 4 13 16 4 16 17 18 19 14 18 14 7 "
											                    >
												<Coordinate point="0.023439 0.023530 0.010537 -0.124121 0.015557 0.356581 -0.123730 -0.031503 0.355663 0.023830 -0.023530 0.009620 -0.124121 0.015557 0.356581 -0.171390 0.015557 0.336424 -0.170999 -0.031503 0.335507 -0.123730 -0.031503 0.355663 -0.171390 0.015557 0.336424 -0.023830 0.023530 -0.009620 -0.023439 -0.023530 -0.010537 -0.170999 -0.031503 0.335507 -0.023830 0.023530 -0.009620 0.023439 0.023530 0.010537 0.023830 -0.023530 0.009620 -0.023439 -0.023530 -0.010537 -0.023830 0.023530 -0.009620 -0.171390 0.015557 0.336424 -0.170999 -0.031503 0.335507 -0.023439 -0.023530 -0.010537 " />
												<Normal vector="0.752678 0.589435 -0.293222 0.299844 0.564959 0.768670 0.309458 -0.589435 0.746147 0.762291 -0.564959 -0.315744 0.299844 0.564959 0.768670 -0.762291 0.564959 0.315744 -0.752678 -0.589435 0.293222 0.309458 -0.589435 0.746147 -0.762291 0.564959 0.315744 -0.309458 0.589435 -0.746147 -0.299844 -0.564959 -0.768670 -0.752678 -0.589435 0.293222 -0.309458 0.589435 -0.746147 0.752678 0.589435 -0.293222 0.762291 -0.564959 -0.315744 -0.299844 -0.564959 -0.768670 -0.309458 0.589435 -0.746147 -0.762291 0.564959 0.315744 -0.752678 -0.589435 0.293222 -0.299844 -0.564959 -0.768670 " />
												<TextureCoordinate point="0.0187 0.5379 0.0187 0.6496 0.4813 0.6496 0.4813 0.5379 0.0187 0.5379 0.0187 0.6496 0.4813 0.6496 0.4813 0.5379 0.0187 0.5379 0.0187 0.6496 0.4813 0.6496 0.4813 0.5379 0.0187 0.5379 0.0187 0.6496 0.4813 0.6496 0.4813 0.5379 0.4813 0.6496 0.4813 0.5379 0.0187 0.5379 0.0187 0.6496 " />
											</IndexedTriangleSet>
										</Shape>
									</Group>
								</Transform>
							</Transform>
						</Transform>
					</Transform>
				</Transform>
			</Transform>
			<Transform DEF="head_TRANSFORM"
			           translation="0.000000 0.000000 2.028239"
			           scale="1.000000 1.000000 1.000000"
			           rotation="0.000000 1.000000 0.000000 0.000000"
			           >
				<Transform DEF="head_ifs_TRANSFORM"
				           translation="0.000000 0.000000 0.000000"
				           scale="1.000000 1.000000 1.000000"
				           rotation="0.000000 1.000000 0.000000 0.000000"
				           >
					<Group DEF="group_ME_head">
						<Shape>
							<Appearance>
								<Material USE="MA_Body" />
							</Appearance>
							<IndexedTriangleSet solid="false"
							                    normalPerVertex="true"
							                    index="0 1 2 0 2 3 4 5 6 4 6 7 8 9 10 8 10 11 12 13 14 12 14 15 4 16 17 4 17 15 18 5 14 18 14 19 "
							                    >
								<Coordinate point="-0.164047 -0.164047 0.000000 -0.164047 -0.164047 0.359063 -0.164047 0.164047 0.359063 -0.164047 0.164047 0.000000 -0.164047 0.164047 0.000000 -0.164047 0.164047 0.359063 0.164047 0.164047 0.359063 0.164047 0.164047 0.000000 0.164047 0.164047 0.000000 0.164047 0.164047 0.359063 0.164047 -0.164047 0.359063 0.164047 -0.164047 0.000000 0.164047 -0.164047 0.000000 0.164047 -0.164047 0.359063 -0.164047 -0.164047 0.359063 -0.164047 -0.164047 0.000000 0.164047 0.164047 0.000000 0.164047 -0.164047 0.000000 0.164047 0.164047 0.359063 0.164047 -0.164047 0.359063 " />
								<Normal vector="-0.577349 -0.577349 -0.577349 -0.577349 -0.577349 0.577349 -0.577349 0.577349 0.577349 -0.577349 0.577349 -0.577349 -0.577349 0.577349 -0.577349 -0.577349 0.577349 0.577349 0.577349 0.577349 0.577349 0.577349 0.577349 -0.577349 0.577349 0.577349 -0.577349 0.577349 0.577349 0.577349 0.577349 -0.577349 0.577349 0.577349 -0.577349 -0.577349 0.577349 -0.577349 -0.577349 0.577349 -0.577349 0.577349 -0.577349 -0.577349 0.577349 -0.577349 -0.577349 -0.577349 0.577349 0.577349 -0.577349 0.577349 -0.577349 -0.577349 0.577349 0.577349 0.577349 0.577349 -0.577349 0.577349 " />
								<TextureCoordinate point="0.0187 0.6871 0.4813 0.6871 0.4813 0.9848 0.0187 0.9848 0.0187 0.6871 0.4813 0.6871 0.4813 0.9848 0.0187 0.9848 0.0187 0.6871 0.4813 0.6871 0.4813 0.9848 0.0187 0.9848 0.0187 0.6871 0.4813 0.6871 0.4813 0.9848 0.0187 0.9848 0.4813 0.6871 0.4813 0.9848 0.0187 0.6871 0.0187 0.9848 " />
							</IndexedTriangleSet>
						</Shape>
					</Group>
				</Transform>
				<Transform DEF="eye1_TRANSFORM"
				           translation="0.079510 0.000000 0.289681"
				           scale="1.000000 1.000000 1.000000"
				           rotation="0.000000 1.000000 0.000000 0.000000"
				           >
					<Transform DEF="eye1_ifs_TRANSFORM"
					           translation="0.000000 0.000000 0.000000"
					           scale="1.000000 1.000000 1.000000"
					           rotation="0.000000 1.000000 0.000000 0.000000"
					           >
						<Group DEF="group_ME_eye1">
							<Shape>
								<Appearance>
									<Material USE="MA_Body" />
								</Appearance>
								<IndexedTriangleSet solid="false"
								                    normalPerVertex="true"
								                    index="0 1 2 0 2 3 4 5 6 4 6 7 8 9 10 8 10 11 12 13 14 12 14 15 4 16 17 4 17 15 18 5 14 18 14 19 "
								                    >
									<Coordinate point="-0.116719 -0.087656 0.056934 -0.009078 -0.087656 0.277606 -0.009078 0.087656 0.277606 -0.116719 0.087656 0.056934 -0.116719 0.087656 0.056934 -0.009078 0.087656 0.277606 0.224359 0.087656 0.163738 0.116719 0.087656 -0.056934 0.116719 0.087656 -0.056934 0.224359 0.087656 0.163738 0.224359 -0.087656 0.163738 0.116719 -0.087656 -0.056934 0.116719 -0.087656 -0.056934 0.224359 -0.087656 0.163738 -0.009078 -0.087656 0.277606 -0.116719 -0.087656 0.056934 0.116719 0.087656 -0.056934 0.116719 -0.087656 -0.056934 0.224359 0.087656 0.163738 0.224359 -0.087656 0.163738 " />
									<Normal vector="-0.771996 -0.577349 -0.265786 -0.265786 -0.577349 0.771996 -0.265786 0.577349 0.771996 -0.771996 0.577349 -0.265786 -0.771996 0.577349 -0.265786 -0.265786 0.577349 0.771996 0.771996 0.577349 0.265786 0.265786 0.577349 -0.771996 0.265786 0.577349 -0.771996 0.771996 0.577349 0.265786 0.771996 -0.577349 0.265786 0.265786 -0.577349 -0.771996 0.265786 -0.577349 -0.771996 0.771996 -0.577349 0.265786 -0.265786 -0.577349 0.771996 -0.771996 -0.577349 -0.265786 0.265786 0.577349 -0.771996 0.265786 -0.577349 -0.771996 0.771996 0.577349 0.265786 0.771996 -0.577349 0.265786 " />
									<TextureCoordinate point="0.0187 0.6871 0.4813 0.6871 0.4813 0.9848 0.0187 0.9848 0.0187 0.6871 0.4813 0.6871 0.4813 0.9848 0.0187 0.9848 0.0187 0.6871 0.4813 0.6871 0.4813 0.9848 0.0187 0.9848 0.0187 0.6871 0.4813 0.6871 0.4813 0.9848 0.0187 0.9848 0.4813 0.6871 0.4813 0.9848 0.0187 0.6871 0.0187 0.9848 " />
								</IndexedTriangleSet>
							</Shape>
						</Group>
					</Transform>
					<Transform DEF="Cube_013_TRANSFORM"
					           translation="0.085676 0.000000 0.155021"
					           scale="1.000000 1.000000 1.000000"
					           rotation="0.000000 1.000000 0.000000 0.000000"
					           >
						<Transform DEF="Cube_013_ifs_TRANSFORM"
						           translation="0.000000 0.000000 0.000000"
						           scale="1.000000 1.000000 1.000000"
						           rotation="0.000000 1.000000 0.000000 0.000000"
						           >
							<Group DEF="group_ME_Cube_016">
								<Shape>
									<Appearance>
										<Material USE="MA_Body" />
									</Appearance>
									<IndexedTriangleSet solid="false"
									                    normalPerVertex="true"
									                    index="0 1 2 0 2 3 4 5 6 4 6 7 8 9 10 8 10 11 12 13 14 12 14 15 4 16 17 4 17 15 18 5 14 18 14 19 "
									                    >
										<Coordinate point="-0.175927 -0.103220 0.097230 -0.078005 -0.103220 0.274410 -0.078005 0.103220 0.274410 -0.175927 0.103220 0.097230 -0.175927 0.103220 0.097230 -0.078005 0.103220 0.274410 0.273850 0.103220 0.079949 0.175927 0.103220 -0.097230 0.175927 0.103220 -0.097230 0.273850 0.103220 0.079949 0.273850 -0.103220 0.079949 0.175927 -0.103220 -0.097230 0.175927 -0.103220 -0.097230 0.273850 -0.103220 0.079949 -0.078005 -0.103220 0.274410 -0.175927 -0.103220 0.097230 0.175927 0.103220 -0.097230 0.175927 -0.103220 -0.097230 0.273850 0.103220 0.079949 0.273850 -0.103220 0.079949 " />
										<Normal vector="-0.784570 -0.577349 -0.226020 -0.226020 -0.577349 0.784570 -0.226020 0.577349 0.784570 -0.784570 0.577349 -0.226020 -0.784570 0.577349 -0.226020 -0.226020 0.577349 0.784570 0.784570 0.577349 0.226020 0.226020 0.577349 -0.784570 0.226020 0.577349 -0.784570 0.784570 0.577349 0.226020 0.784570 -0.577349 0.226020 0.226020 -0.577349 -0.784570 0.226020 -0.577349 -0.784570 0.784570 -0.577349 0.226020 -0.226020 -0.577349 0.784570 -0.784570 -0.577349 -0.226020 0.226020 0.577349 -0.784570 0.226020 -0.577349 -0.784570 0.784570 0.577349 0.226020 0.784570 -0.577349 0.226020 " />
										<TextureCoordinate point="0.0187 0.6871 0.4813 0.6871 0.4813 0.9848 0.0187 0.9848 0.0187 0.6871 0.4813 0.6871 0.4813 0.9848 0.0187 0.9848 0.0187 0.6871 0.4813 0.6871 0.4813 0.9848 0.0187 0.9848 0.0187 0.6871 0.4813 0.6871 0.4813 0.9848 0.0187 0.9848 0.4813 0.6871 0.4813 0.9848 0.0187 0.6871 0.0187 0.9848 " />
									</IndexedTriangleSet>
								</Shape>
							</Group>
						</Transform>
						<Transform DEF="Cube_015_TRANSFORM"
						           translation="0.071380 0.000000 0.129154"
						           scale="1.000000 1.000000 1.000000"
						           rotation="0.000000 1.000000 0.000000 0.000000"
						           >
							<Transform DEF="Cube_015_ifs_TRANSFORM"
							           translation="0.000000 0.000000 0.000000"
							           scale="1.000000 1.000000 1.000000"
							           rotation="0.000000 1.000000 0.000000 0.000000"
							           >
								<Group DEF="group_ME_Cube_018">
									<Shape>
										<Appearance>
											<Material USE="MA_Body" />
										</Appearance>
										<IndexedTriangleSet solid="false"
										                    normalPerVertex="true"
										                    index="0 1 2 0 2 3 4 5 6 4 6 7 8 9 10 8 10 11 12 13 14 12 14 15 4 16 17 4 17 15 18 5 14 18 14 19 "
										                    >
											<Coordinate point="-0.249589 -0.112379 0.154474 -0.095002 -0.112379 0.404245 -0.095002 0.112379 0.404245 -0.249589 0.112379 0.154474 -0.249589 0.112379 0.154474 -0.095002 0.112379 0.404245 0.404176 0.112379 0.095297 0.249589 0.112379 -0.154474 0.249589 0.112379 -0.154474 0.404176 0.112379 0.095297 0.404176 -0.112379 0.095297 0.249589 -0.112379 -0.154474 0.249589 -0.112379 -0.154474 0.404176 -0.112379 0.095297 -0.095002 -0.112379 0.404245 -0.249589 -0.112379 0.154474 0.249589 0.112379 -0.154474 0.249589 -0.112379 -0.154474 0.404176 0.112379 0.095297 0.404176 -0.112379 0.095297 " />
											<Normal vector="-0.794763 -0.577349 -0.187078 -0.187078 -0.577349 0.794763 -0.187078 0.577349 0.794763 -0.794763 0.577349 -0.187078 -0.794763 0.577349 -0.187078 -0.187078 0.577349 0.794763 0.794763 0.577349 0.187078 0.187078 0.577349 -0.794763 0.187078 0.577349 -0.794763 0.794763 0.577349 0.187078 0.794763 -0.577349 0.187078 0.187078 -0.577349 -0.794763 0.187078 -0.577349 -0.794763 0.794763 -0.577349 0.187078 -0.187078 -0.577349 0.794763 -0.794763 -0.577349 -0.187078 0.187078 0.577349 -0.794763 0.187078 -0.577349 -0.794763 0.794763 0.577349 0.187078 0.794763 -0.577349 0.187078 " />
											<TextureCoordinate point="0.0187 0.6871 0.4813 0.6871 0.4813 0.9848 0.0187 0.9848 0.0187 0.6871 0.4813 0.6871 0.4813 0.9848 0.0187 0.9848 0.0187 0.6871 0.4813 0.6871 0.4813 0.9848 0.0187 0.9848 0.0187 0.6871 0.4813 0.6871 0.4813 0.9848 0.0187 0.9848 0.4813 0.6871 0.4813 0.9848 0.0187 0.6871 0.0187 0.9848 " />
										</IndexedTriangleSet>
									</Shape>
								</Group>
							</Transform>
							<Transform DEF="Cube_014_TRANSFORM"
							           translation="0.123184 0.000000 0.208026"
							           scale="1.000000 1.000000 1.000000"
							           rotation="0.000000 1.000000 0.000000 0.000000"
							           >
								<Transform DEF="Cube_014_ifs_TRANSFORM"
								           translation="0.000000 0.000000 0.000000"
								           scale="1.000000 1.000000 1.000000"
								           rotation="0.000000 1.000000 0.000000 0.000000"
								           >
									<Group DEF="group_ME_Cube_017">
										<Shape>
											<Appearance>
												<Material USE="MA_Body" />
											</Appearance>
											<IndexedTriangleSet solid="false"
											                    normalPerVertex="true"
											                    index="0 1 2 0 2 3 4 5 6 4 6 7 8 9 10 8 10 11 12 13 14 12 14 15 4 16 17 4 17 15 18 5 14 18 14 19 "
											                    >
												<Coordinate point="-0.359801 -0.128009 0.231403 0.199116 -0.128009 1.100445 0.199116 0.128009 1.100445 -0.359801 0.128009 0.231403 -0.359801 0.128009 0.231403 0.199116 0.128009 1.100445 0.918718 0.128009 0.637640 0.359801 0.128009 -0.231403 0.359801 0.128009 -0.231403 0.918718 0.128009 0.637640 0.918718 -0.128009 0.637640 0.359801 -0.128009 -0.231403 0.359801 -0.128009 -0.231403 0.918718 -0.128009 0.637640 0.199116 -0.128009 1.100445 -0.359801 -0.128009 0.231403 0.359801 0.128009 -0.231403 0.359801 -0.128009 -0.231403 0.918718 0.128009 0.637640 0.918718 -0.128009 0.637640 " />
												<Normal vector="-0.797876 -0.577349 -0.173284 -0.173284 -0.577349 0.797876 -0.173284 0.577349 0.797876 -0.797876 0.577349 -0.173284 -0.797876 0.577349 -0.173284 -0.173284 0.577349 0.797876 0.797876 0.577349 0.173284 0.173284 0.577349 -0.797876 0.173284 0.577349 -0.797876 0.797876 0.577349 0.173284 0.797876 -0.577349 0.173284 0.173284 -0.577349 -0.797876 0.173284 -0.577349 -0.797876 0.797876 -0.577349 0.173284 -0.173284 -0.577349 0.797876 -0.797876 -0.577349 -0.173284 0.173284 0.577349 -0.797876 0.173284 -0.577349 -0.797876 0.797876 0.577349 0.173284 0.797876 -0.577349 0.173284 " />
												<TextureCoordinate point="0.0187 0.6871 0.4813 0.6871 0.4813 0.9848 0.0187 0.9848 0.0187 0.6871 0.4813 0.6871 0.4813 0.9848 0.0187 0.9848 0.0187 0.6871 0.4813 0.6871 0.4813 0.9848 0.0187 0.9848 0.0187 0.6871 0.4813 0.6871 0.4813 0.9848 0.0187 0.9848 0.4813 0.6871 0.4813 0.9848 0.0187 0.6871 0.0187 0.9848 " />
											</IndexedTriangleSet>
										</Shape>
									</Group>
								</Transform>
								<Transform DEF="Cube_016_TRANSFORM"
								           translation="0.508716 0.000000 0.829386"
								           scale="1.000000 1.000000 1.000000"
								           rotation="0.000000 1.000000 0.000000 0.000000"
								           >
									<Transform DEF="Cube_016_ifs_TRANSFORM"
									           translation="0.000000 0.000000 0.000000"
									           scale="1.000000 1.000000 1.000000"
									           rotation="0.000000 1.000000 0.000000 0.000000"
									           >
										<Group DEF="group_ME_Cube_019">
											<Shape>
												<Appearance>
													<Material USE="MA_Body" />
												</Appearance>
												<IndexedTriangleSet solid="false"
												                    normalPerVertex="true"
												                    index="0 1 2 0 2 3 4 5 6 4 6 7 8 9 10 8 10 11 12 13 14 12 14 15 4 16 17 4 17 15 18 5 14 18 14 19 "
												                    >
													<Coordinate point="-0.278495 -0.096777 0.169609 -0.106466 -0.096777 0.452077 -0.106466 0.096777 0.452077 -0.278495 0.096777 0.169609 -0.278495 0.096777 0.169609 -0.106466 0.096777 0.452077 0.450524 0.096777 0.112859 0.278495 0.096777 -0.169609 0.278495 0.096777 -0.169609 0.450524 0.096777 0.112859 0.450524 -0.096777 0.112859 0.278495 -0.096777 -0.169609 0.278495 -0.096777 -0.169609 0.450524 -0.096777 0.112859 -0.106466 -0.096777 0.452077 -0.278495 -0.096777 0.169609 0.278495 0.096777 -0.169609 0.278495 -0.096777 -0.169609 0.450524 0.096777 0.112859 0.450524 -0.096777 0.112859 " />
													<Normal vector="-0.793390 -0.577349 -0.192785 -0.192785 -0.577349 0.793390 -0.192785 0.577349 0.793390 -0.793390 0.577349 -0.192785 -0.793390 0.577349 -0.192785 -0.192785 0.577349 0.793390 0.793390 0.577349 0.192785 0.192785 0.577349 -0.793390 0.192785 0.577349 -0.793390 0.793390 0.577349 0.192785 0.793390 -0.577349 0.192785 0.192785 -0.577349 -0.793390 0.192785 -0.577349 -0.793390 0.793390 -0.577349 0.192785 -0.192785 -0.577349 0.793390 -0.793390 -0.577349 -0.192785 0.192785 0.577349 -0.793390 0.192785 -0.577349 -0.793390 0.793390 0.577349 0.192785 0.793390 -0.577349 0.192785 " />
													<TextureCoordinate point="0.0187 0.6871 0.4813 0.6871 0.4813 0.9848 0.0187 0.9848 0.0187 0.6871 0.4813 0.6871 0.4813 0.9848 0.0187 0.9848 0.0187 0.6871 0.4813 0.6871 0.4813 0.9848 0.0187 0.9848 0.0187 0.6871 0.4813 0.6871 0.4813 0.9848 0.0187 0.9848 0.4813 0.6871 0.4813 0.9848 0.0187 0.6871 0.0187 0.9848 " />
												</IndexedTriangleSet>
											</Shape>
										</Group>
									</Transform>
								</Transform>
							</Transform>
						</Transform>
					</Transform>
					<Transform DEF="Plane_TRANSFORM"
					           translation="0.494104 -0.133341 0.893272"
					           scale="1.000000 1.000000 1.000000"
					           rotation="0.000000 1.000000 0.000000 0.000000"
					           >
						<Transform DEF="Plane_ifs_TRANSFORM"
						           translation="0.000000 0.000000 0.000000"
						           scale="1.000000 1.000000 1.000000"
						           rotation="0.000000 1.000000 0.000000 0.000000"
						           >
							<Group DEF="group_ME_Plane">
								<Shape>
									<Appearance>
										<Material DEF="MA_Eye"
										          diffuseColor="0.800 0.800 0.800"
										          specularColor="0.401 0.401 0.401"
										          emissiveColor="0.000 0.000 0.000"
										          ambientIntensity="0.000"
										          shininess="0.500"
										          transparency="0.0"
										          />
									</Appearance>
									<IndexedTriangleSet solid="false"
									                    normalPerVertex="true"
									                    index="0 1 2 0 2 3 "
									                    >
										<Coordinate point="-0.171016 0.000000 -0.137976 0.094384 0.000000 -0.198432 0.171016 0.000000 0.137976 -0.094384 0.000000 0.198432 " />
										<Normal vector="0.000000 -1.000000 0.000000 0.000000 -1.000000 0.000000 0.000000 -1.000000 0.000000 0.000000 -1.000000 0.000000 " />
										<TextureCoordinate point="0.1090 0.5161 0.8911 0.5161 0.8911 0.9908 0.1090 0.9908 " />
									</IndexedTriangleSet>
								</Shape>
							</Group>
						</Transform>
					</Transform>
				</Transform>
				<Transform DEF="eye2_TRANSFORM"
				           translation="-0.079510 0.000000 0.289681"
				           scale="1.000000 1.000000 1.000000"
				           rotation="0.000000 1.000000 0.000000 0.000000"
				           >
					<Transform DEF="eye2_ifs_TRANSFORM"
					           translation="0.000000 0.000000 0.000000"
					           scale="1.000000 1.000000 1.000000"
					           rotation="0.000000 1.000000 0.000000 0.000000"
					           >
						<Group DEF="group_ME_eye2">
							<Shape>
								<Appearance>
									<Material USE="MA_Body" />
								</Appearance>
								<IndexedTriangleSet solid="false"
								                    normalPerVertex="true"
								                    index="0 1 2 0 2 3 4 5 6 4 6 7 8 9 10 8 10 11 12 13 14 12 14 15 4 13 16 4 16 17 18 19 14 18 14 7 "
								                    >
									<Coordinate point="0.116719 -0.087656 0.056934 0.116719 0.087656 0.056934 0.009078 0.087656 0.277606 0.009078 -0.087656 0.277606 0.116719 0.087656 0.056934 -0.116719 0.087656 -0.056934 -0.224359 0.087656 0.163738 0.009078 0.087656 0.277606 -0.116719 0.087656 -0.056934 -0.116719 -0.087656 -0.056934 -0.224359 -0.087656 0.163738 -0.224359 0.087656 0.163738 -0.116719 -0.087656 -0.056934 0.116719 -0.087656 0.056934 0.009078 -0.087656 0.277606 -0.224359 -0.087656 0.163738 -0.116719 -0.087656 -0.056934 -0.116719 0.087656 -0.056934 -0.224359 0.087656 0.163738 -0.224359 -0.087656 0.163738 " />
									<Normal vector="0.771996 -0.577349 -0.265786 0.771996 0.577349 -0.265786 0.265786 0.577349 0.771996 0.265786 -0.577349 0.771996 0.771996 0.577349 -0.265786 -0.265786 0.577349 -0.771996 -0.771996 0.577349 0.265786 0.265786 0.577349 0.771996 -0.265786 0.577349 -0.771996 -0.265786 -0.577349 -0.771996 -0.771996 -0.577349 0.265786 -0.771996 0.577349 0.265786 -0.265786 -0.577349 -0.771996 0.771996 -0.577349 -0.265786 0.265786 -0.577349 0.771996 -0.771996 -0.577349 0.265786 -0.265786 -0.577349 -0.771996 -0.265786 0.577349 -0.771996 -0.771996 0.577349 0.265786 -0.771996 -0.577349 0.265786 " />
									<TextureCoordinate point="0.0187 0.6871 0.0187 0.9848 0.4813 0.9848 0.4813 0.6871 0.0187 0.6871 0.0187 0.9848 0.4813 0.9848 0.4813 0.6871 0.0187 0.6871 0.0187 0.9848 0.4813 0.9848 0.4813 0.6871 0.0187 0.6871 0.0187 0.9848 0.4813 0.9848 0.4813 0.6871 0.4813 0.9848 0.4813 0.6871 0.0187 0.6871 0.0187 0.9848 " />
								</IndexedTriangleSet>
							</Shape>
						</Group>
					</Transform>
					<Transform DEF="Cube_010_TRANSFORM"
					           translation="-0.085676 0.000000 0.155021"
					           scale="1.000000 1.000000 1.000000"
					           rotation="0.000000 1.000000 0.000000 0.000000"
					           >
						<Transform DEF="Cube_010_ifs_TRANSFORM"
						           translation="0.000000 0.000000 0.000000"
						           scale="1.000000 1.000000 1.000000"
						           rotation="0.000000 1.000000 0.000000 0.000000"
						           >
							<Group DEF="group_ME_Cube_022">
								<Shape>
									<Appearance>
										<Material USE="MA_Body" />
									</Appearance>
									<IndexedTriangleSet solid="false"
									                    normalPerVertex="true"
									                    index="0 1 2 0 2 3 4 5 6 4 6 7 8 9 10 8 10 11 12 13 14 12 14 15 4 13 16 4 16 17 18 19 14 18 14 7 "
									                    >
										<Coordinate point="0.175927 -0.103220 0.097230 0.175927 0.103220 0.097230 0.078005 0.103220 0.274410 0.078005 -0.103220 0.274410 0.175927 0.103220 0.097230 -0.175927 0.103220 -0.097230 -0.273850 0.103220 0.079949 0.078005 0.103220 0.274410 -0.175927 0.103220 -0.097230 -0.175927 -0.103220 -0.097230 -0.273850 -0.103220 0.079949 -0.273850 0.103220 0.079949 -0.175927 -0.103220 -0.097230 0.175927 -0.103220 0.097230 0.078005 -0.103220 0.274410 -0.273850 -0.103220 0.079949 -0.175927 -0.103220 -0.097230 -0.175927 0.103220 -0.097230 -0.273850 0.103220 0.079949 -0.273850 -0.103220 0.079949 " />
										<Normal vector="0.784570 -0.577349 -0.226020 0.784570 0.577349 -0.226020 0.226020 0.577349 0.784570 0.226020 -0.577349 0.784570 0.784570 0.577349 -0.226020 -0.226020 0.577349 -0.784570 -0.784570 0.577349 0.226020 0.226020 0.577349 0.784570 -0.226020 0.577349 -0.784570 -0.226020 -0.577349 -0.784570 -0.784570 -0.577349 0.226020 -0.784570 0.577349 0.226020 -0.226020 -0.577349 -0.784570 0.784570 -0.577349 -0.226020 0.226020 -0.577349 0.784570 -0.784570 -0.577349 0.226020 -0.226020 -0.577349 -0.784570 -0.226020 0.577349 -0.784570 -0.784570 0.577349 0.226020 -0.784570 -0.577349 0.226020 " />
										<TextureCoordinate point="0.0187 0.6871 0.0187 0.9848 0.4813 0.9848 0.4813 0.6871 0.0187 0.6871 0.0187 0.9848 0.4813 0.9848 0.4813 0.6871 0.0187 0.6871 0.0187 0.9848 0.4813 0.9848 0.4813 0.6871 0.0187 0.6871 0.0187 0.9848 0.4813 0.9848 0.4813 0.6871 0.4813 0.9848 0.4813 0.6871 0.0187 0.6871 0.0187 0.9848 " />
									</IndexedTriangleSet>
								</Shape>
							</Group>
						</Transform>
						<Transform DEF="Cube_017_TRANSFORM"
						           translation="-0.071380 0.000000 0.129154"
						           scale="1.000000 1.000000 1.000000"
						           rotation="0.000000 1.000000 0.000000 0.000000"
						           >
							<Transform DEF="Cube_017_ifs_TRANSFORM"
							           translation="0.000000 0.000000 0.000000"
							           scale="1.000000 1.000000 1.000000"
							           rotation="0.000000 1.000000 0.000000 0.000000"
							           >
								<Group DEF="group_ME_Cube_024">
									<Shape>
										<Appearance>
											<Material USE="MA_Body" />
										</Appearance>
										<IndexedTriangleSet solid="false"
										                    normalPerVertex="true"
										                    index="0 1 2 0 2 3 4 5 6 4 6 7 8 9 10 8 10 11 12 13 14 12 14 15 4 13 16 4 16 17 18 19 14 18 14 7 "
										                    >
											<Coordinate point="0.249589 -0.112379 0.154474 0.249589 0.112379 0.154474 0.095002 0.112379 0.404245 0.095002 -0.112379 0.404245 0.249589 0.112379 0.154474 -0.249589 0.112379 -0.154474 -0.404176 0.112379 0.095297 0.095002 0.112379 0.404245 -0.249589 0.112379 -0.154474 -0.249589 -0.112379 -0.154474 -0.404176 -0.112379 0.095297 -0.404176 0.112379 0.095297 -0.249589 -0.112379 -0.154474 0.249589 -0.112379 0.154474 0.095002 -0.112379 0.404245 -0.404176 -0.112379 0.095297 -0.249589 -0.112379 -0.154474 -0.249589 0.112379 -0.154474 -0.404176 0.112379 0.095297 -0.404176 -0.112379 0.095297 " />
											<Normal vector="0.794763 -0.577349 -0.187078 0.794763 0.577349 -0.187078 0.187078 0.577349 0.794763 0.187078 -0.577349 0.794763 0.794763 0.577349 -0.187078 -0.187078 0.577349 -0.794763 -0.794763 0.577349 0.187078 0.187078 0.577349 0.794763 -0.187078 0.577349 -0.794763 -0.187078 -0.577349 -0.794763 -0.794763 -0.577349 0.187078 -0.794763 0.577349 0.187078 -0.187078 -0.577349 -0.794763 0.794763 -0.577349 -0.187078 0.187078 -0.577349 0.794763 -0.794763 -0.577349 0.187078 -0.187078 -0.577349 -0.794763 -0.187078 0.577349 -0.794763 -0.794763 0.577349 0.187078 -0.794763 -0.577349 0.187078 " />
											<TextureCoordinate point="0.0187 0.6871 0.0187 0.9848 0.4813 0.9848 0.4813 0.6871 0.0187 0.6871 0.0187 0.9848 0.4813 0.9848 0.4813 0.6871 0.0187 0.6871 0.0187 0.9848 0.4813 0.9848 0.4813 0.6871 0.0187 0.6871 0.0187 0.9848 0.4813 0.9848 0.4813 0.6871 0.4813 0.9848 0.4813 0.6871 0.0187 0.6871 0.0187 0.9848 " />
										</IndexedTriangleSet>
									</Shape>
								</Group>
							</Transform>
							<Transform DEF="Cube_012_TRANSFORM"
							           translation="-0.123184 0.000000 0.208026"
							           scale="1.000000 1.000000 1.000000"
							           rotation="0.000000 1.000000 0.000000 0.000000"
							           >
								<Transform DEF="Cube_012_ifs_TRANSFORM"
								           translation="0.000000 0.000000 0.000000"
								           scale="1.000000 1.000000 1.000000"
								           rotation="0.000000 1.000000 0.000000 0.000000"
								           >
									<Group DEF="group_ME_Cube_023">
										<Shape>
											<Appearance>
												<Material USE="MA_Body" />
											</Appearance>
											<IndexedTriangleSet solid="false"
											                    normalPerVertex="true"
											                    index="0 1 2 0 2 3 4 5 6 4 6 7 8 9 10 8 10 11 12 13 14 12 14 15 4 13 16 4 16 17 18 19 14 18 14 7 "
											                    >
												<Coordinate point="0.359801 -0.128009 0.231403 0.359801 0.128009 0.231403 -0.199116 0.128009 1.100445 -0.199116 -0.128009 1.100445 0.359801 0.128009 0.231403 -0.359801 0.128009 -0.231403 -0.918718 0.128009 0.637640 -0.199116 0.128009 1.100445 -0.359801 0.128009 -0.231403 -0.359801 -0.128009 -0.231403 -0.918718 -0.128009 0.637640 -0.918718 0.128009 0.637640 -0.359801 -0.128009 -0.231403 0.359801 -0.128009 0.231403 -0.199116 -0.128009 1.100445 -0.918718 -0.128009 0.637640 -0.359801 -0.128009 -0.231403 -0.359801 0.128009 -0.231403 -0.918718 0.128009 0.637640 -0.918718 -0.128009 0.637640 " />
												<Normal vector="0.797876 -0.577349 -0.173284 0.797876 0.577349 -0.173284 0.173284 0.577349 0.797876 0.173284 -0.577349 0.797876 0.797876 0.577349 -0.173284 -0.173284 0.577349 -0.797876 -0.797876 0.577349 0.173284 0.173284 0.577349 0.797876 -0.173284 0.577349 -0.797876 -0.173284 -0.577349 -0.797876 -0.797876 -0.577349 0.173284 -0.797876 0.577349 0.173284 -0.173284 -0.577349 -0.797876 0.797876 -0.577349 -0.173284 0.173284 -0.577349 0.797876 -0.797876 -0.577349 0.173284 -0.173284 -0.577349 -0.797876 -0.173284 0.577349 -0.797876 -0.797876 0.577349 0.173284 -0.797876 -0.577349 0.173284 " />
												<TextureCoordinate point="0.0187 0.6871 0.0187 0.9848 0.4813 0.9848 0.4813 0.6871 0.0187 0.6871 0.0187 0.9848 0.4813 0.9848 0.4813 0.6871 0.0187 0.6871 0.0187 0.9848 0.4813 0.9848 0.4813 0.6871 0.0187 0.6871 0.0187 0.9848 0.4813 0.9848 0.4813 0.6871 0.4813 0.9848 0.4813 0.6871 0.0187 0.6871 0.0187 0.9848 " />
											</IndexedTriangleSet>
										</Shape>
									</Group>
								</Transform>
								<Transform DEF="Cube_018_TRANSFORM"
								           translation="-0.508716 0.000000 0.829386"
								           scale="1.000000 1.000000 1.000000"
								           rotation="0.000000 1.000000 0.000000 0.000000"
								           >
									<Transform DEF="Cube_018_ifs_TRANSFORM"
									           translation="0.000000 0.000000 0.000000"
									           scale="1.000000 1.000000 1.000000"
									           rotation="0.000000 1.000000 0.000000 0.000000"
									           >
										<Group DEF="group_ME_Cube_025">
											<Shape>
												<Appearance>
													<Material USE="MA_Body" />
												</Appearance>
												<IndexedTriangleSet solid="false"
												                    normalPerVertex="true"
												                    index="0 1 2 0 2 3 4 5 6 4 6 7 8 9 10 8 10 11 12 13 14 12 14 15 4 13 16 4 16 17 18 19 14 18 14 7 "
												                    >
													<Coordinate point="0.278495 -0.096777 0.169609 0.278495 0.096777 0.169609 0.106466 0.096777 0.452077 0.106466 -0.096777 0.452077 0.278495 0.096777 0.169609 -0.278495 0.096777 -0.169609 -0.450524 0.096777 0.112859 0.106466 0.096777 0.452077 -0.278495 0.096777 -0.169609 -0.278495 -0.096777 -0.169609 -0.450524 -0.096777 0.112859 -0.450524 0.096777 0.112859 -0.278495 -0.096777 -0.169609 0.278495 -0.096777 0.169609 0.106466 -0.096777 0.452077 -0.450524 -0.096777 0.112859 -0.278495 -0.096777 -0.169609 -0.278495 0.096777 -0.169609 -0.450524 0.096777 0.112859 -0.450524 -0.096777 0.112859 " />
													<Normal vector="0.793390 -0.577349 -0.192785 0.793390 0.577349 -0.192785 0.192785 0.577349 0.793390 0.192785 -0.577349 0.793390 0.793390 0.577349 -0.192785 -0.192785 0.577349 -0.793390 -0.793390 0.577349 0.192785 0.192785 0.577349 0.793390 -0.192785 0.577349 -0.793390 -0.192785 -0.577349 -0.793390 -0.793390 -0.577349 0.192785 -0.793390 0.577349 0.192785 -0.192785 -0.577349 -0.793390 0.793390 -0.577349 -0.192785 0.192785 -0.577349 0.793390 -0.793390 -0.577349 0.192785 -0.192785 -0.577349 -0.793390 -0.192785 0.577349 -0.793390 -0.793390 0.577349 0.192785 -0.793390 -0.577349 0.192785 " />
													<TextureCoordinate point="0.0187 0.6871 0.0187 0.9848 0.4813 0.9848 0.4813 0.6871 0.0187 0.6871 0.0187 0.9848 0.4813 0.9848 0.4813 0.6871 0.0187 0.6871 0.0187 0.9848 0.4813 0.9848 0.4813 0.6871 0.0187 0.6871 0.0187 0.9848 0.4813 0.9848 0.4813 0.6871 0.4813 0.9848 0.4813 0.6871 0.0187 0.6871 0.0187 0.9848 " />
												</IndexedTriangleSet>
											</Shape>
										</Group>
									</Transform>
								</Transform>
							</Transform>
						</Transform>
					</Transform>
					<Transform DEF="Plane_001_TRANSFORM"
					           translation="-0.494104 -0.133341 0.893272"
					           scale="1.000000 1.000000 1.000000"
					           rotation="0.000000 1.000000 0.000000 0.000000"
					           >
						<Transform DEF="Plane_001_ifs_TRANSFORM"
						           translation="0.000000 0.000000 0.000000"
						           scale="1.000000 1.000000 1.000000"
						           rotation="0.000000 1.000000 0.000000 0.000000"
						           >
							<Group DEF="group_ME_Plane_001">
								<Shape>
									<Appearance>
										<Material USE="MA_Eye" />
									</Appearance>
									<IndexedTriangleSet solid="false"
									                    normalPerVertex="true"
									                    index="0 1 2 0 2 3 "
									                    >
										<Coordinate point="0.171016 0.000000 -0.137976 0.094384 -0.000000 0.198432 -0.171016 -0.000000 0.137976 -0.094384 0.000000 -0.198432 " />
										<Normal vector="0.000000 -1.000000 0.000000 0.000000 -1.000000 0.000000 0.000000 -1.000000 0.000000 0.000000 -1.000000 0.000000 " />
										<TextureCoordinate point="0.1090 0.5161 0.1090 0.9908 0.8911 0.9908 0.8911 0.5161 " />
									</IndexedTriangleSet>
								</Shape>
							</Group>
						</Transform>
					</Transform>
				</Transform>
			</Transform>
			<Transform DEF="Cube_011_TRANSFORM"
			           translation="0.000000 0.000000 2.149657"
			           scale="1.000000 1.000000 1.000000"
			           rotation="0.000000 1.000000 0.000000 0.000000"
			           >
				<Transform DEF="Cube_011_ifs_TRANSFORM"
				           translation="0.000000 0.000000 0.000000"
				           scale="1.000000 1.000000 1.000000"
				           rotation="0.000000 1.000000 0.000000 0.000000"
				           >
					<Group DEF="group_ME_Cube_014">
						<Shape>
							<Appearance>
								<Material USE="MA_Body" />
							</Appearance>
							<IndexedTriangleSet solid="false"
							                    normalPerVertex="true"
							                    index="0 1 2 0 2 3 4 5 6 4 6 7 8 9 10 8 10 11 12 13 14 12 14 15 4 16 17 4 17 15 18 5 14 18 14 19 "
							                    >
								<Coordinate point="-0.434898 -0.434898 0.000000 -0.434898 -0.434898 0.204173 -0.434898 0.434898 0.204173 -0.434898 0.434898 0.000000 -0.434898 0.434898 0.000000 -0.434898 0.434898 0.204173 0.434898 0.434898 0.204173 0.434898 0.434898 0.000000 0.434898 0.434898 0.000000 0.434898 0.434898 0.204173 0.434898 -0.434898 0.204173 0.434898 -0.434898 0.000000 0.434898 -0.434898 0.000000 0.434898 -0.434898 0.204173 -0.434898 -0.434898 0.204173 -0.434898 -0.434898 0.000000 0.434898 0.434898 0.000000 0.434898 -0.434898 0.000000 0.434898 0.434898 0.204173 0.434898 -0.434898 0.204173 " />
								<Normal vector="-0.577349 -0.577349 -0.577349 -0.577349 -0.577349 0.577349 -0.577349 0.577349 0.577349 -0.577349 0.577349 -0.577349 -0.577349 0.577349 -0.577349 -0.577349 0.577349 0.577349 0.577349 0.577349 0.577349 0.577349 0.577349 -0.577349 0.577349 0.577349 -0.577349 0.577349 0.577349 0.577349 0.577349 -0.577349 0.577349 0.577349 -0.577349 -0.577349 0.577349 -0.577349 -0.577349 0.577349 -0.577349 0.577349 -0.577349 -0.577349 0.577349 -0.577349 -0.577349 -0.577349 0.577349 0.577349 -0.577349 0.577349 -0.577349 -0.577349 0.577349 0.577349 0.577349 0.577349 -0.577349 0.577349 " />
								<TextureCoordinate point="0.0187 0.5365 0.4813 0.5365 0.4813 0.6549 0.0187 0.6549 0.0187 0.5365 0.4813 0.5365 0.4813 0.6549 0.0187 0.6549 0.0187 0.5365 0.4813 0.5365 0.4813 0.6549 0.0187 0.6549 0.0187 0.5365 0.4813 0.5365 0.4813 0.6549 0.0187 0.6549 0.4813 0.5365 0.4813 0.6549 0.0187 0.5365 0.0187 0.6549 " />
							</IndexedTriangleSet>
						</Shape>
					</Group>
				</Transform>
			</Transform>
		</Transform>
	</Scene>
</X3D>