<?xml version="1.0" encoding="UTF-8"?>
<!DOCTYPE X3D PUBLIC "ISO//Web3D//DTD X3D 3.0//EN" "http://www.web3d.org/specifications/x3d-3.0.dtd">
<X3D version="3.0" profile="Immersive" xmlns:xsd="http://www.w3.org/2001/XMLSchema-instance" xsd:noNamespaceSchemaLocation="http://www.web3d.org/specifications/x3d-3.0.xsd">
	<head>
		<meta name="filename" content="azurmarill.x3d" />
		<meta name="generator" content="Blender 2.93.18" />
	</head>
	<Scene>
		<NavigationInfo headlight="true"
		                visibilityLimit="0.0"
		                type='"EXAMINE", "ANY"'
		                avatarSize="0.25, 1.75, 0.75"
		                />
		<Background DEF="WO_World"
		            groundColor="0.051 0.051 0.051"
		            skyColor="0.051 0.051 0.051"
		            />
		<Transform DEF="body_TRANSFORM"
		           translation="0.000000 0.000000 0.223974"
		           scale="1.000000 1.000000 1.000000"
		           rotation="0.000000 0.000000 1.000000 3.141593"
		           >
			<Transform DEF="body_ifs_TRANSFORM"
			           translation="0.000000 0.000000 0.000000"
			           scale="1.000000 1.000000 1.000000"
			           rotation="0.000000 1.000000 0.000000 0.000000"
			           >
				<Group DEF="group_ME_body">
					<Shape>
						<Appearance>
							<Material DEF="MA_Body"
							          diffuseColor="0.800 0.800 0.800"
							          specularColor="0.401 0.401 0.401"
							          emissiveColor="0.000 0.000 0.000"
							          ambientIntensity="0.000"
							          shininess="0.500"
							          transparency="0.0"
							          />
						</Appearance>
						<IndexedTriangleSet solid="false"
						                    normalPerVertex="true"
						                    index="0 1 2 0 2 3 4 5 6 4 6 7 8 9 10 8 10 11 12 13 14 12 14 15 4 16 17 4 17 15 18 5 14 18 14 19 "
						                    >
							<Coordinate point="-0.857799 -0.873207 0.000000 -0.857799 -0.873207 0.552070 -0.857799 0.873207 0.552070 -0.857799 0.873207 0.000000 -0.857799 0.873207 0.000000 -0.857799 0.873207 0.552070 0.857799 0.873207 0.552070 0.857799 0.873207 0.000000 0.857799 0.873207 0.000000 0.857799 0.873207 0.552070 0.857799 -0.873207 0.552070 0.857799 -0.873207 0.000000 0.857799 -0.873207 0.000000 0.857799 -0.873207 0.552070 -0.857799 -0.873207 0.552070 -0.857799 -0.873207 0.000000 0.857799 0.873207 0.000000 0.857799 -0.873207 0.000000 0.857799 0.873207 0.552070 0.857799 -0.873207 0.552070 " />
							<Normal vector="-0.577349 -0.577349 -0.577349 -0.577349 -0.577349 0.577349 -0.577349 0.577349 0.577349 -0.577349 0.577349 -0.577349 -0.577349 0.577349 -0.577349 -0.577349 0.577349 0.577349 0.577349 0.577349 0.577349 0.577349 0.577349 -0.577349 0.577349 0.577349 -0.577349 0.577349 0.577349 0.577349 0.577349 -0.577349 0.577349 0.577349 -0.577349 -0.577349 0.577349 -0.577349 -0.577349 0.577349 -0.577349 0.577349 -0.577349 -0.577349 0.577349 -0.577349 -0.577349 -0.577349 0.577349 0.577349 -0.577349 0.577349 -0.577349 -0.577349 0.577349 0.577349 0.577349 0.577349 -0.577349 0.577349 " />
							<TextureCoordinate point="0.2523 0.7875 0.4743 0.7875 0.4743 0.9781 0.2523 0.9781 0.2523 0.7875 0.4743 0.7875 0.4743 0.9781 0.2523 0.9781 0.2523 0.7875 0.4743 0.7875 0.4743 0.9781 0.2523 0.9781 0.2523 0.7875 0.4743 0.7875 0.4743 0.9781 0.2523 0.9781 0.4743 0.7875 0.4743 0.9781 0.2523 0.7875 0.2523 0.9781 " />
						</IndexedTriangleSet>
					</Shape>
				</Group>
			</Transform>
			<Transform DEF="Cube_TRANSFORM"
			           translation="0.000000 0.000000 0.463946"
			           scale="1.000000 1.000000 1.000000"
			           rotation="0.000000 1.000000 0.000000 0.000000"
			           >
				<Transform DEF="Cube_ifs_TRANSFORM"
				           translation="0.000000 0.000000 0.000000"
				           scale="1.000000 1.000000 1.000000"
				           rotation="0.000000 1.000000 0.000000 0.000000"
				           >
					<Group DEF="group_ME_Cube">
						<Shape>
							<Appearance>
								<Material USE="MA_Body" />
							</Appearance>
							<IndexedTriangleSet solid="false"
							                    normalPerVertex="true"
							                    index="0 1 2 0 2 3 4 5 6 4 6 7 8 9 10 8 10 11 12 13 14 12 14 15 16 17 18 16 18 19 20 21 22 20 22 23 24 25 21 24 21 20 26 27 17 26 17 16 28 29 30 28 30 31 32 33 34 32 34 35 36 37 38 36 38 39 40 41 42 40 42 43 44 45 37 44 37 46 47 48 49 47 49 50 51 52 41 51 41 53 54 55 56 54 56 57 "
							                    >
								<Coordinate point="-1.011934 0.000000 1.102882 -1.011934 0.000000 1.357393 -1.011934 1.019978 1.357393 -1.011934 1.019978 1.102882 -1.011934 1.019978 1.102882 -1.011934 1.019978 1.357393 1.011934 1.019978 1.357393 1.011934 1.019978 1.102882 1.011934 0.000000 1.102882 1.011934 0.000000 1.357393 1.011934 -1.019978 1.357393 1.011934 -1.019978 1.102882 1.011934 -1.019978 1.102882 1.011934 -1.019978 1.357393 -1.011934 -1.019978 1.357393 -1.011934 -1.019978 1.102882 -1.011934 0.000000 0.000000 1.011934 0.000000 0.000000 1.011934 -1.019978 0.000000 -1.011934 -1.019978 0.000000 1.011934 0.000000 1.357393 -1.011934 0.000000 1.357393 -1.011934 -1.019978 1.357393 1.011934 -1.019978 1.357393 1.011934 1.019978 1.357393 -1.011934 1.019978 1.357393 -1.011934 1.019978 0.000000 1.011934 1.019978 0.000000 1.011934 1.019978 1.102882 1.011934 1.019978 1.357393 1.011934 0.000000 1.357393 1.011934 0.000000 1.102882 -1.011934 -1.019978 1.102882 -1.011934 -1.019978 1.357393 -1.011934 0.000000 1.357393 -1.011934 0.000000 1.102882 -1.011934 -1.019978 0.000000 -1.011934 -1.019978 1.102882 -1.011934 0.000000 1.102882 -1.011934 0.000000 0.000000 1.011934 1.019978 0.000000 1.011934 1.019978 1.102882 1.011934 0.000000 1.102882 1.011934 0.000000 0.000000 1.011934 -1.019978 0.000000 1.011934 -1.019978 1.102882 -1.011934 -1.019978 0.000000 1.011934 0.000000 0.000000 1.011934 0.000000 1.102882 1.011934 -1.019978 1.102882 1.011934 -1.019978 0.000000 -1.011934 1.019978 0.000000 -1.011934 1.019978 1.102882 1.011934 1.019978 0.000000 -1.011934 0.000000 0.000000 -1.011934 0.000000 1.102882 -1.011934 1.019978 1.102882 -1.011934 1.019978 0.000000 " />
								<Normal vector="-1.000000 0.000000 0.000000 -0.707083 0.000000 0.707083 -0.577349 0.577349 0.577349 -0.707083 0.707083 0.000000 -0.707083 0.707083 0.000000 -0.577349 0.577349 0.577349 0.577349 0.577349 0.577349 0.707083 0.707083 0.000000 1.000000 0.000000 0.000000 0.707083 0.000000 0.707083 0.577349 -0.577349 0.577349 0.707083 -0.707083 0.000000 0.707083 -0.707083 0.000000 0.577349 -0.577349 0.577349 -0.577349 -0.577349 0.577349 -0.707083 -0.707083 0.000000 -0.707083 0.000000 -0.707083 0.707083 0.000000 -0.707083 0.577349 -0.577349 -0.577349 -0.577349 -0.577349 -0.577349 0.707083 0.000000 0.707083 -0.707083 0.000000 0.707083 -0.577349 -0.577349 0.577349 0.577349 -0.577349 0.577349 0.577349 0.577349 0.577349 -0.577349 0.577349 0.577349 -0.577349 0.577349 -0.577349 0.577349 0.577349 -0.577349 0.707083 0.707083 0.000000 0.577349 0.577349 0.577349 0.707083 0.000000 0.707083 1.000000 0.000000 0.000000 -0.707083 -0.707083 0.000000 -0.577349 -0.577349 0.577349 -0.707083 0.000000 0.707083 -1.000000 0.000000 0.000000 -0.577349 -0.577349 -0.577349 -0.707083 -0.707083 0.000000 -1.000000 0.000000 0.000000 -0.707083 0.000000 -0.707083 0.577349 0.577349 -0.577349 0.707083 0.707083 0.000000 1.000000 0.000000 0.000000 0.707083 0.000000 -0.707083 0.577349 -0.577349 -0.577349 0.707083 -0.707083 0.000000 -0.577349 -0.577349 -0.577349 0.707083 0.000000 -0.707083 1.000000 0.000000 0.000000 0.707083 -0.707083 0.000000 0.577349 -0.577349 -0.577349 -0.577349 0.577349 -0.577349 -0.707083 0.707083 0.000000 0.577349 0.577349 -0.577349 -0.707083 0.000000 -0.707083 -1.000000 0.000000 0.000000 -0.707083 0.707083 0.000000 -0.577349 0.577349 -0.577349 " />
								<TextureCoordinate point="0.0194 0.7929 0.2071 0.7929 0.2071 0.9806 0.0194 0.9806 0.0194 0.7929 0.2071 0.7929 0.2071 0.9806 0.0194 0.9806 0.0194 0.7929 0.2071 0.7929 0.2071 0.9806 0.0194 0.9806 0.0194 0.7929 0.2071 0.7929 0.2071 0.9806 0.0194 0.9806 0.2831 0.8828 0.4669 0.8828 0.4669 0.9781 0.2831 0.9781 0.0292 0.8828 0.2130 0.8828 0.2130 0.9781 0.0292 0.9781 0.0292 0.7875 0.2130 0.7875 0.2831 0.7875 0.4669 0.7875 0.0194 0.7929 0.2071 0.7929 0.2071 0.9806 0.0194 0.9806 0.0194 0.7929 0.2071 0.7929 0.2071 0.9806 0.0194 0.9806 0.2185 0.0091 0.2181 0.3421 0.0195 0.3421 0.0195 0.0091 0.1877 0.3724 0.1878 0.6562 0.0047 0.6565 0.0047 0.3724 0.7643 0.0091 0.7643 0.3421 0.2177 0.0091 0.9808 0.0091 0.9808 0.3421 0.7727 0.3421 0.7727 0.0091 0.7311 0.3718 0.7311 0.6560 0.1878 0.3718 0.9855 0.3708 0.9855 0.6549 0.7381 0.6549 0.7381 0.3708 " />
							</IndexedTriangleSet>
						</Shape>
					</Group>
				</Transform>
				<Transform DEF="Cube_002_TRANSFORM"
				           translation="0.000000 0.000000 1.279851"
				           scale="1.000000 1.000000 1.000000"
				           rotation="0.000000 1.000000 0.000000 0.000000"
				           >
					<Transform DEF="Cube_002_ifs_TRANSFORM"
					           translation="0.000000 0.000000 0.000000"
					           scale="1.000000 1.000000 1.000000"
					           rotation="0.000000 1.000000 0.000000 0.000000"
					           >
						<Group DEF="group_ME_Cube_002">
							<Shape>
								<Appearance>
									<Material USE="MA_Body" />
								</Appearance>
								<IndexedTriangleSet solid="false"
								                    normalPerVertex="true"
								                    index="0 1 2 0 2 3 4 5 6 4 6 7 8 9 10 8 10 11 12 13 14 12 14 15 16 17 18 16 18 19 20 21 14 20 14 22 23 5 24 23 24 25 26 27 28 26 28 29 30 31 32 30 32 33 34 35 36 34 36 37 38 39 40 38 40 41 42 43 44 42 44 45 46 47 24 46 24 48 49 50 28 49 28 51 52 53 32 52 32 54 55 21 56 55 56 57 58 59 60 58 60 61 62 63 64 62 64 65 42 66 67 42 67 68 69 70 71 69 71 72 38 73 74 38 74 75 76 77 78 76 78 79 34 80 81 34 81 82 83 84 85 83 85 86 87 88 89 87 89 90 91 92 93 91 93 94 95 96 97 95 97 98 99 100 101 99 101 19 102 103 104 102 104 105 106 107 108 106 108 37 109 110 111 109 111 112 113 114 115 113 115 116 117 118 119 117 119 120 16 121 122 16 122 123 124 125 126 124 126 127 128 129 130 128 130 131 132 133 134 132 134 135 136 137 138 136 138 139 140 141 142 140 142 45 143 144 145 143 145 146 147 148 149 147 149 150 151 27 152 151 152 153 154 155 156 154 156 157 147 158 159 147 159 98 160 63 156 160 156 161 162 163 164 162 164 41 165 166 167 165 167 168 169 170 171 169 171 172 173 31 174 173 174 175 176 177 178 176 178 179 169 180 181 169 181 90 182 59 178 182 178 183 184 185 186 184 186 187 188 189 190 188 190 191 192 193 194 192 194 195 196 197 198 196 198 199 200 201 202 200 202 203 204 205 206 204 206 207 208 209 210 208 210 211 212 213 214 212 214 215 216 217 218 216 218 219 220 221 222 220 222 223 224 225 226 224 226 227 228 229 230 228 230 231 "
								                    >
									<Coordinate point="-0.860770 -0.857922 0.539524 -0.860770 -0.857922 0.698872 -0.860770 0.857922 0.698872 -0.860770 0.857922 0.539524 0.497228 0.857922 0.539523 0.497228 0.857922 0.698871 0.860770 0.857922 0.698872 0.860770 0.857922 0.539524 0.860770 0.857922 0.539524 0.860770 0.857922 0.698872 0.860770 -0.857922 0.698872 0.860770 -0.857922 0.539524 -0.497228 -0.857922 0.539523 -0.497228 -0.857922 0.698871 -0.860770 -0.857922 0.698872 -0.860770 -0.857922 0.539524 0.497228 0.857922 0.000000 0.860770 0.857922 0.000000 0.860770 -0.857922 0.000000 0.497228 -0.857922 0.000000 -0.497228 0.857922 0.698871 -0.860770 0.857922 0.698872 -0.497228 -0.857922 0.698871 0.860770 0.857922 0.698872 0.497228 -0.857922 0.698871 0.860770 -0.857922 0.698872 0.238176 0.857922 0.698871 -0.000000 0.857922 0.698872 -0.000000 -0.857922 0.698872 0.238176 -0.857922 0.698871 -0.238176 0.857922 0.698871 -0.497228 0.857922 0.698871 -0.497228 -0.857922 0.698871 -0.238176 -0.857922 0.698871 -0.860770 0.857922 0.000000 -0.497228 0.857922 0.000000 -0.497228 -0.857922 0.000000 -0.860770 -0.857922 0.000000 -0.238176 0.857922 0.000000 -0.000000 0.857922 0.000000 -0.000000 -0.857922 0.000000 -0.238176 -0.857922 0.000000 0.238176 0.857922 0.000000 0.497228 0.857922 0.000000 0.497228 -0.857922 0.000000 0.238176 -0.857922 0.000000 0.860770 -0.857922 0.539524 0.860770 -0.857922 0.698872 0.497228 -0.857922 0.539523 0.238176 -0.857922 0.539523 0.238176 -0.857922 0.698871 -0.000000 -0.857922 0.539523 -0.238176 -0.857922 0.539523 -0.238176 -0.857922 0.698871 -0.497228 -0.857922 0.539523 -0.860770 0.857922 0.539524 -0.497228 0.857922 0.698871 -0.497228 0.857922 0.539523 -0.238176 0.857922 0.539523 -0.238176 0.857922 0.698871 -0.000000 0.857922 0.698872 -0.000000 0.857922 0.539523 0.238176 0.857922 0.539523 0.238176 0.857922 0.698871 0.497228 0.857922 0.698871 0.497228 0.857922 0.539523 0.238176 0.857922 0.108963 0.497228 0.857922 0.108963 0.497228 0.857922 0.000000 0.238176 0.857922 0.108963 0.238176 0.857922 0.309247 0.497228 0.857922 0.309247 0.497228 0.857922 0.108963 -0.238176 0.857922 0.108963 -0.000000 0.857922 0.108963 -0.000000 0.857922 0.000000 -0.238176 0.857922 0.108963 -0.238176 0.857922 0.309247 -0.000000 0.857922 0.309247 -0.000000 0.857922 0.108963 -0.860770 0.857922 0.108963 -0.497228 0.857922 0.108963 -0.497228 0.857922 0.000000 -0.860770 0.857922 0.108963 -0.860770 0.857922 0.309247 -0.497228 0.857922 0.309247 -0.497228 0.857922 0.108963 -0.238176 -0.857922 0.000000 -0.238176 -0.857922 0.108963 -0.497228 -0.857922 0.108963 -0.497228 -0.857922 0.000000 -0.238176 -0.857922 0.108963 -0.238176 -0.857922 0.309247 -0.497228 -0.857922 0.309247 -0.497228 -0.857922 0.108963 0.238176 -0.857922 0.000000 0.238176 -0.857922 0.108963 -0.000000 -0.857922 0.108963 -0.000000 -0.857922 0.000000 0.860770 -0.857922 0.000000 0.860770 -0.857922 0.108963 0.497228 -0.857922 0.108963 0.860770 -0.857922 0.108963 0.860770 -0.857922 0.309247 0.497228 -0.857922 0.309247 0.497228 -0.857922 0.108963 -0.497228 -0.857922 0.000000 -0.497228 -0.857922 0.108963 -0.860770 -0.857922 0.108963 -0.497228 -0.857922 0.108963 -0.497228 -0.857922 0.309247 -0.860770 -0.857922 0.309247 -0.860770 -0.857922 0.108963 0.860770 0.857922 0.000000 0.860770 0.857922 0.108963 0.860770 -0.857922 0.108963 0.860770 -0.857922 0.000000 0.860770 0.857922 0.108963 0.860770 0.857922 0.309247 0.860770 -0.857922 0.309247 0.860770 -0.857922 0.108963 0.497228 0.857922 0.108963 0.860770 0.857922 0.108963 0.860770 0.857922 0.000000 0.497228 0.857922 0.108963 0.497228 0.857922 0.309247 0.860770 0.857922 0.309247 0.860770 0.857922 0.108963 -0.860770 -0.857922 0.000000 -0.860770 -0.857922 0.108963 -0.860770 0.857922 0.108963 -0.860770 0.857922 0.000000 -0.860770 -0.857922 0.108963 -0.860770 -0.857922 0.309247 -0.860770 0.857922 0.309247 -0.860770 0.857922 0.108963 0.497228 -0.857922 0.108963 0.497228 -0.857922 0.309247 0.238176 -0.857922 0.309247 0.238176 -0.857922 0.108963 0.497228 -0.857922 0.000000 0.497228 -0.857922 0.108963 0.238176 -0.857922 0.108963 -0.000000 0.857922 0.108963 -0.000000 0.857922 0.309247 0.238176 0.857922 0.309247 0.238176 0.857922 0.108963 -0.000000 0.857922 0.000000 -0.000000 0.857922 0.108963 0.238176 0.857922 0.108963 0.238176 0.857922 0.000000 -0.000000 0.857922 0.539523 0.238176 0.857922 0.698871 0.238176 0.857922 0.539523 0.497228 -0.857922 0.539523 0.497228 -0.857922 0.698871 0.238176 -0.857922 0.698871 0.238176 -0.857922 0.539523 0.238176 0.857922 0.000000 0.238176 -0.857922 0.000000 0.497228 0.857922 0.698871 0.497228 -0.857922 0.698871 -0.000000 -0.857922 0.000000 -0.000000 -0.857922 0.108963 -0.238176 -0.857922 0.108963 -0.497228 0.857922 0.108963 -0.497228 0.857922 0.309247 -0.238176 0.857922 0.309247 -0.238176 0.857922 0.108963 -0.497228 0.857922 0.000000 -0.497228 0.857922 0.108963 -0.238176 0.857922 0.108963 -0.238176 0.857922 0.000000 -0.497228 0.857922 0.539523 -0.238176 0.857922 0.698871 -0.238176 0.857922 0.539523 -0.000000 -0.857922 0.539523 -0.000000 -0.857922 0.698872 -0.238176 -0.857922 0.698871 -0.238176 -0.857922 0.539523 -0.238176 0.857922 0.000000 -0.238176 -0.857922 0.000000 -0.000000 0.857922 0.698872 -0.000000 -0.857922 0.698872 -0.000000 -0.857922 0.309247 -0.000000 -0.857922 0.539523 -0.238176 -0.857922 0.539523 -0.238176 -0.857922 0.309247 -0.497228 0.857922 0.309247 -0.497228 0.857922 0.539523 -0.238176 0.857922 0.539523 -0.238176 0.857922 0.309247 -0.000000 0.857922 0.309247 -0.000000 0.857922 0.539523 0.238176 0.857922 0.539523 0.238176 0.857922 0.309247 0.238176 0.857922 0.309247 0.238176 0.857922 0.539523 0.497228 0.857922 0.539523 0.497228 0.857922 0.309247 -0.238176 0.857922 0.309247 -0.238176 0.857922 0.539523 -0.000000 0.857922 0.539523 -0.000000 0.857922 0.309247 -0.860770 0.857922 0.309247 -0.860770 0.857922 0.539524 -0.497228 0.857922 0.539523 -0.497228 0.857922 0.309247 0.238176 -0.857922 0.309247 0.238176 -0.857922 0.539523 -0.000000 -0.857922 0.539523 -0.000000 -0.857922 0.309247 0.860770 -0.857922 0.309247 0.860770 -0.857922 0.539524 0.497228 -0.857922 0.539523 0.497228 -0.857922 0.309247 -0.497228 -0.857922 0.309247 -0.497228 -0.857922 0.539523 -0.860770 -0.857922 0.539524 -0.860770 -0.857922 0.309247 0.860770 0.857922 0.309247 0.860770 0.857922 0.539524 0.860770 -0.857922 0.539524 0.860770 -0.857922 0.309247 0.497228 0.857922 0.309247 0.497228 0.857922 0.539523 0.860770 0.857922 0.539524 0.860770 0.857922 0.309247 -0.860770 -0.857922 0.309247 -0.860770 -0.857922 0.539524 -0.860770 0.857922 0.539524 -0.860770 0.857922 0.309247 " />
									<Normal vector="-0.707083 -0.707083 0.000000 -0.577349 -0.577349 0.577349 -0.577349 0.577349 0.577349 -0.707083 0.707083 0.000000 0.000000 1.000000 0.000000 0.000000 0.707083 0.707083 0.577349 0.577349 0.577349 0.707083 0.707083 0.000000 0.707083 0.707083 0.000000 0.577349 0.577349 0.577349 0.577349 -0.577349 0.577349 0.707083 -0.707083 0.000000 0.000000 -1.000000 0.000000 0.000000 -0.707083 0.707083 -0.577349 -0.577349 0.577349 -0.707083 -0.707083 0.000000 0.000000 0.707083 -0.707083 0.577349 0.577349 -0.577349 0.577349 -0.577349 -0.577349 0.000000 -0.707083 -0.707083 0.000000 0.707083 0.707083 -0.577349 0.577349 0.577349 0.000000 -0.707083 0.707083 0.577349 0.577349 0.577349 0.000000 -0.707083 0.707083 0.577349 -0.577349 0.577349 0.000000 0.707083 0.707083 0.000000 0.707083 0.707083 0.000000 -0.707083 0.707083 0.000000 -0.707083 0.707083 0.000000 0.707083 0.707083 0.000000 0.707083 0.707083 0.000000 -0.707083 0.707083 0.000000 -0.707083 0.707083 -0.577349 0.577349 -0.577349 0.000000 0.707083 -0.707083 0.000000 -0.707083 -0.707083 -0.577349 -0.577349 -0.577349 0.000000 0.707083 -0.707083 0.000000 0.707083 -0.707083 0.000000 -0.707083 -0.707083 0.000000 -0.707083 -0.707083 0.000000 0.707083 -0.707083 0.000000 0.707083 -0.707083 0.000000 -0.707083 -0.707083 0.000000 -0.707083 -0.707083 0.707083 -0.707083 0.000000 0.577349 -0.577349 0.577349 0.000000 -1.000000 0.000000 0.000000 -1.000000 0.000000 0.000000 -0.707083 0.707083 0.000000 -1.000000 0.000000 0.000000 -1.000000 0.000000 0.000000 -0.707083 0.707083 0.000000 -1.000000 0.000000 -0.707083 0.707083 0.000000 0.000000 0.707083 0.707083 0.000000 1.000000 0.000000 0.000000 1.000000 0.000000 0.000000 0.707083 0.707083 0.000000 0.707083 0.707083 0.000000 1.000000 0.000000 0.000000 1.000000 0.000000 0.000000 0.707083 0.707083 0.000000 0.707083 0.707083 0.000000 1.000000 0.000000 0.000000 1.000000 0.000000 0.000000 1.000000 0.000000 0.000000 0.707083 -0.707083 0.000000 1.000000 0.000000 0.000000 1.000000 0.000000 0.000000 1.000000 0.000000 0.000000 1.000000 0.000000 0.000000 1.000000 0.000000 0.000000 1.000000 0.000000 0.000000 0.707083 -0.707083 0.000000 1.000000 0.000000 0.000000 1.000000 0.000000 0.000000 1.000000 0.000000 0.000000 1.000000 0.000000 -0.707083 0.707083 0.000000 0.000000 1.000000 0.000000 0.000000 0.707083 -0.707083 -0.707083 0.707083 0.000000 -0.707083 0.707083 0.000000 0.000000 1.000000 0.000000 0.000000 1.000000 0.000000 0.000000 -0.707083 -0.707083 0.000000 -1.000000 0.000000 0.000000 -1.000000 0.000000 0.000000 -0.707083 -0.707083 0.000000 -1.000000 0.000000 0.000000 -1.000000 0.000000 0.000000 -1.000000 0.000000 0.000000 -1.000000 0.000000 0.000000 -0.707083 -0.707083 0.000000 -1.000000 0.000000 0.000000 -1.000000 0.000000 0.000000 -0.707083 -0.707083 0.577349 -0.577349 -0.577349 0.707083 -0.707083 0.000000 0.000000 -1.000000 0.000000 0.707083 -0.707083 0.000000 0.707083 -0.707083 0.000000 0.000000 -1.000000 0.000000 0.000000 -1.000000 0.000000 0.000000 -0.707083 -0.707083 0.000000 -1.000000 0.000000 -0.707083 -0.707083 0.000000 0.000000 -1.000000 0.000000 0.000000 -1.000000 0.000000 -0.707083 -0.707083 0.000000 -0.707083 -0.707083 0.000000 0.577349 0.577349 -0.577349 0.707083 0.707083 0.000000 0.707083 -0.707083 0.000000 0.577349 -0.577349 -0.577349 0.707083 0.707083 0.000000 0.707083 0.707083 0.000000 0.707083 -0.707083 0.000000 0.707083 -0.707083 0.000000 0.000000 1.000000 0.000000 0.707083 0.707083 0.000000 0.577349 0.577349 -0.577349 0.000000 1.000000 0.000000 0.000000 1.000000 0.000000 0.707083 0.707083 0.000000 0.707083 0.707083 0.000000 -0.577349 -0.577349 -0.577349 -0.707083 -0.707083 0.000000 -0.707083 0.707083 0.000000 -0.577349 0.577349 -0.577349 -0.707083 -0.707083 0.000000 -0.707083 -0.707083 0.000000 -0.707083 0.707083 0.000000 -0.707083 0.707083 0.000000 0.000000 -1.000000 0.000000 0.000000 -1.000000 0.000000 0.000000 -1.000000 0.000000 0.000000 -1.000000 0.000000 0.000000 -0.707083 -0.707083 0.000000 -1.000000 0.000000 0.000000 -1.000000 0.000000 0.000000 1.000000 0.000000 0.000000 1.000000 0.000000 0.000000 1.000000 0.000000 0.000000 1.000000 0.000000 0.000000 0.707083 -0.707083 0.000000 1.000000 0.000000 0.000000 1.000000 0.000000 0.000000 0.707083 -0.707083 0.000000 1.000000 0.000000 0.000000 0.707083 0.707083 0.000000 1.000000 0.000000 0.000000 -1.000000 0.000000 0.000000 -0.707083 0.707083 0.000000 -0.707083 0.707083 0.000000 -1.000000 0.000000 0.000000 0.707083 -0.707083 0.000000 -0.707083 -0.707083 0.000000 0.707083 0.707083 0.000000 -0.707083 0.707083 0.000000 -0.707083 -0.707083 0.000000 -1.000000 0.000000 0.000000 -1.000000 0.000000 0.000000 1.000000 0.000000 0.000000 1.000000 0.000000 0.000000 1.000000 0.000000 0.000000 1.000000 0.000000 0.000000 0.707083 -0.707083 0.000000 1.000000 0.000000 0.000000 1.000000 0.000000 0.000000 0.707083 -0.707083 0.000000 1.000000 0.000000 0.000000 0.707083 0.707083 0.000000 1.000000 0.000000 0.000000 -1.000000 0.000000 0.000000 -0.707083 0.707083 0.000000 -0.707083 0.707083 0.000000 -1.000000 0.000000 0.000000 0.707083 -0.707083 0.000000 -0.707083 -0.707083 0.000000 0.707083 0.707083 0.000000 -0.707083 0.707083 0.000000 -1.000000 0.000000 0.000000 -1.000000 0.000000 0.000000 -1.000000 0.000000 0.000000 -1.000000 0.000000 0.000000 1.000000 0.000000 0.000000 1.000000 0.000000 0.000000 1.000000 0.000000 0.000000 1.000000 0.000000 0.000000 1.000000 0.000000 0.000000 1.000000 0.000000 0.000000 1.000000 0.000000 0.000000 1.000000 0.000000 0.000000 1.000000 0.000000 0.000000 1.000000 0.000000 0.000000 1.000000 0.000000 0.000000 1.000000 0.000000 0.000000 1.000000 0.000000 0.000000 1.000000 0.000000 0.000000 1.000000 0.000000 0.000000 1.000000 0.000000 -0.707083 0.707083 0.000000 -0.707083 0.707083 0.000000 0.000000 1.000000 0.000000 0.000000 1.000000 0.000000 0.000000 -1.000000 0.000000 0.000000 -1.000000 0.000000 0.000000 -1.000000 0.000000 0.000000 -1.000000 0.000000 0.707083 -0.707083 0.000000 0.707083 -0.707083 0.000000 0.000000 -1.000000 0.000000 0.000000 -1.000000 0.000000 0.000000 -1.000000 0.000000 0.000000 -1.000000 0.000000 -0.707083 -0.707083 0.000000 -0.707083 -0.707083 0.000000 0.707083 0.707083 0.000000 0.707083 0.707083 0.000000 0.707083 -0.707083 0.000000 0.707083 -0.707083 0.000000 0.000000 1.000000 0.000000 0.000000 1.000000 0.000000 0.707083 0.707083 0.000000 0.707083 0.707083 0.000000 -0.707083 -0.707083 0.000000 -0.707083 -0.707083 0.000000 -0.707083 0.707083 0.000000 -0.707083 0.707083 0.000000 " />
									<TextureCoordinate point="0.0292 0.7875 0.2130 0.7875 0.2130 0.9781 0.0292 0.9781 0.0292 0.7875 0.2130 0.7875 0.2130 0.9781 0.0292 0.9781 0.0292 0.7875 0.2130 0.7875 0.2130 0.9781 0.0292 0.9781 0.0292 0.7875 0.2130 0.7875 0.2130 0.9781 0.0292 0.9781 0.0292 0.7875 0.2130 0.7875 0.2130 0.9781 0.0292 0.9781 0.0292 0.7875 0.2130 0.7875 0.0292 0.9781 0.0292 0.7875 0.2130 0.9781 0.0292 0.9781 0.0292 0.7875 0.2130 0.7875 0.2130 0.9781 0.0292 0.9781 0.0292 0.7875 0.2130 0.7875 0.2130 0.9781 0.0292 0.9781 0.0292 0.7875 0.2130 0.7875 0.2130 0.9781 0.0292 0.9781 0.0292 0.7875 0.2130 0.7875 0.2130 0.9781 0.0292 0.9781 0.0292 0.7875 0.2130 0.7875 0.2130 0.9781 0.0292 0.9781 0.0292 0.7875 0.2130 0.7875 0.0292 0.9781 0.0292 0.7875 0.2130 0.7875 0.0292 0.9781 0.0292 0.7875 0.2130 0.7875 0.0292 0.9781 0.0292 0.7875 0.2130 0.9781 0.0292 0.9781 0.0292 0.7875 0.2130 0.7875 0.2130 0.9781 0.0292 0.9781 0.0292 0.7875 0.2130 0.7875 0.2130 0.9781 0.0292 0.9781 0.2130 0.7875 0.2130 0.9781 0.0292 0.9781 0.0292 0.7875 0.2130 0.7875 0.2130 0.9781 0.0292 0.9781 0.2130 0.7875 0.2130 0.9781 0.0292 0.9781 0.0292 0.7875 0.2130 0.7875 0.2130 0.9781 0.0292 0.9781 0.2130 0.7875 0.2130 0.9781 0.0292 0.9781 0.0292 0.7875 0.2130 0.7875 0.2130 0.9781 0.0292 0.9781 0.0292 0.7875 0.2130 0.7875 0.2130 0.9781 0.0292 0.9781 0.0292 0.7875 0.2130 0.7875 0.2130 0.9781 0.0292 0.9781 0.0292 0.7875 0.2130 0.7875 0.2130 0.9781 0.0292 0.9781 0.0292 0.7875 0.2130 0.7875 0.2130 0.9781 0.0292 0.7875 0.2130 0.7875 0.2130 0.9781 0.0292 0.9781 0.0292 0.7875 0.2130 0.7875 0.2130 0.9781 0.0292 0.7875 0.2130 0.7875 0.2130 0.9781 0.0292 0.9781 0.0292 0.7875 0.2130 0.7875 0.2130 0.9781 0.0292 0.9781 0.0292 0.7875 0.2130 0.7875 0.2130 0.9781 0.0292 0.9781 0.2130 0.7875 0.2130 0.9781 0.0292 0.9781 0.0292 0.7875 0.2130 0.7875 0.2130 0.9781 0.0292 0.9781 0.0292 0.7875 0.2130 0.7875 0.2130 0.9781 0.0292 0.9781 0.0292 0.7875 0.2130 0.7875 0.2130 0.9781 0.0292 0.9781 0.0292 0.7875 0.2130 0.7875 0.2130 0.9781 0.0292 0.9781 0.0292 0.7875 0.2130 0.7875 0.2130 0.9781 0.0292 0.7875 0.2130 0.7875 0.2130 0.9781 0.0292 0.9781 0.0292 0.7875 0.2130 0.7875 0.2130 0.9781 0.0292 0.9781 0.0292 0.7875 0.2130 0.9781 0.0292 0.9781 0.0292 0.7875 0.2130 0.7875 0.2130 0.9781 0.0292 0.9781 0.2130 0.7875 0.2130 0.9781 0.0292 0.7875 0.0292 0.9781 0.0292 0.7875 0.2130 0.7875 0.2130 0.9781 0.0292 0.7875 0.2130 0.7875 0.2130 0.9781 0.0292 0.9781 0.0292 0.7875 0.2130 0.7875 0.2130 0.9781 0.0292 0.9781 0.0292 0.7875 0.2130 0.9781 0.0292 0.9781 0.0292 0.7875 0.2130 0.7875 0.2130 0.9781 0.0292 0.9781 0.2130 0.7875 0.2130 0.9781 0.0292 0.7875 0.0292 0.9781 0.0292 0.7875 0.2130 0.7875 0.2130 0.9781 0.0292 0.9781 0.0292 0.7875 0.2130 0.7875 0.2130 0.9781 0.0292 0.9781 0.0292 0.7875 0.2130 0.7875 0.2130 0.9781 0.0292 0.9781 0.0292 0.7875 0.2130 0.7875 0.2130 0.9781 0.0292 0.9781 0.0292 0.7875 0.2130 0.7875 0.2130 0.9781 0.0292 0.9781 0.0292 0.7875 0.2130 0.7875 0.2130 0.9781 0.0292 0.9781 0.0292 0.7875 0.2130 0.7875 0.2130 0.9781 0.0292 0.9781 0.0292 0.7875 0.2130 0.7875 0.2130 0.9781 0.0292 0.9781 0.0292 0.7875 0.2130 0.7875 0.2130 0.9781 0.0292 0.9781 0.0292 0.7875 0.2130 0.7875 0.2130 0.9781 0.0292 0.9781 0.0292 0.7875 0.2130 0.7875 0.2130 0.9781 0.0292 0.9781 0.0292 0.7875 0.2130 0.7875 0.2130 0.9781 0.0292 0.9781 " />
								</IndexedTriangleSet>
							</Shape>
							<Shape>
								<Appearance>
									<Material DEF="MA_Face"
									          diffuseColor="0.800 0.800 0.800"
									          specularColor="0.401 0.401 0.401"
									          emissiveColor="0.000 0.000 0.000"
									          ambientIntensity="0.000"
									          shininess="0.500"
									          transparency="0.0"
									          />
								</Appearance>
								<IndexedTriangleSet solid="false"
								                    normalPerVertex="true"
								                    index="0 1 2 0 2 3 3 2 4 3 4 5 6 7 8 6 8 9 10 11 12 10 12 13 "
								                    >
									<Coordinate point="0.238176 -0.857922 0.108963 0.238176 -0.857922 0.309247 -0.000000 -0.857922 0.309247 -0.000000 -0.857922 0.108963 -0.238176 -0.857922 0.309247 -0.238176 -0.857922 0.108963 0.497228 -0.857922 0.309247 0.497228 -0.857922 0.539523 0.238176 -0.857922 0.539523 0.238176 -0.857922 0.309247 -0.238176 -0.857922 0.309247 -0.238176 -0.857922 0.539523 -0.497228 -0.857922 0.539523 -0.497228 -0.857922 0.309247 " />
									<Normal vector="0.000000 -1.000000 0.000000 0.000000 -1.000000 0.000000 0.000000 -1.000000 0.000000 0.000000 -1.000000 0.000000 0.000000 -1.000000 0.000000 0.000000 -1.000000 0.000000 0.000000 -1.000000 0.000000 0.000000 -1.000000 0.000000 0.000000 -1.000000 0.000000 0.000000 -1.000000 0.000000 0.000000 -1.000000 0.000000 0.000000 -1.000000 0.000000 0.000000 -1.000000 0.000000 0.000000 -1.000000 0.000000 " />
									<TextureCoordinate point="0.5047 0.5423 0.5047 0.9877 0.9900 0.9877 0.9900 0.5423 0.5047 0.9877 0.5047 0.5423 0.4846 0.5046 0.4846 0.9927 0.0134 0.9927 0.0134 0.5046 0.4846 0.5046 0.4846 0.9927 0.0134 0.9927 0.0134 0.5046 " />
								</IndexedTriangleSet>
							</Shape>
						</Group>
					</Transform>
				</Transform>
			</Transform>
			<Transform DEF="orl1_TRANSFORM"
			           translation="0.502513 -0.056233 2.381114"
			           scale="1.000000 1.000000 1.000000"
			           rotation="0.000000 1.000000 0.000000 0.000000"
			           >
				<Transform DEF="orl1_ifs_TRANSFORM"
				           translation="0.000000 0.000000 0.000000"
				           scale="1.000000 1.000000 1.000000"
				           rotation="0.000000 1.000000 0.000000 0.000000"
				           >
					<Group DEF="group_ME_orl1">
						<Shape>
							<Appearance>
								<Material USE="MA_Body" />
							</Appearance>
							<IndexedTriangleSet solid="false"
							                    normalPerVertex="true"
							                    index="0 1 2 0 2 3 4 5 6 4 6 7 8 9 10 8 10 11 12 13 14 12 14 15 16 17 18 16 18 19 20 21 14 20 14 22 23 24 25 23 25 26 24 20 22 24 22 25 27 28 29 27 29 15 28 16 19 28 19 29 30 31 32 30 32 33 34 35 36 34 36 37 27 21 38 27 38 39 39 38 5 39 5 4 "
							                    >
								<Coordinate point="-0.231847 -0.190323 0.035035 -0.095483 -0.216444 0.795542 -0.159098 0.005235 0.814563 -0.295462 0.031356 0.054055 0.145340 0.164244 -0.020419 0.281704 0.138123 0.740088 0.368211 0.164202 0.725473 0.231847 0.190323 -0.035035 0.231847 0.190323 -0.035035 0.368211 0.164202 0.725473 0.431826 -0.057478 0.706452 0.295462 -0.031356 -0.054055 -0.145340 -0.164244 0.020419 -0.008976 -0.190365 0.780926 -0.095483 -0.216444 0.795542 -0.231847 -0.190323 0.035035 0.145340 0.164244 -0.020419 0.231847 0.190323 -0.035035 0.295462 -0.031356 -0.054055 0.208955 -0.057435 -0.039440 -0.072592 0.031314 0.799947 -0.159098 0.005235 0.814563 -0.008976 -0.190365 0.780926 0.368211 0.164202 0.725473 0.281704 0.138123 0.740088 0.345319 -0.083557 0.721067 0.431826 -0.057478 0.706452 -0.295462 0.031356 0.054055 -0.208956 0.057435 0.039440 -0.145340 -0.164244 0.020419 0.295462 -0.031356 -0.054055 0.431826 -0.057478 0.706452 0.345319 -0.083557 0.721067 0.208955 -0.057435 -0.039440 0.208955 -0.057435 -0.039440 0.345319 -0.083557 0.721067 -0.008976 -0.190365 0.780926 -0.145340 -0.164244 0.020419 -0.072592 0.031314 0.799947 -0.208956 0.057435 0.039440 " />
								<Normal vector="-0.488784 -0.698050 -0.523209 -0.285104 -0.737083 0.612690 -0.602557 0.369030 0.707602 -0.806238 0.408063 -0.428297 -0.319102 0.701254 -0.637471 -0.069643 0.653462 0.753716 0.488784 0.698050 0.523209 0.285104 0.737083 -0.612690 0.285104 0.737083 -0.612690 0.488784 0.698050 0.523209 0.806238 -0.408063 0.428297 0.602557 -0.369030 -0.707602 0.069643 -0.653462 -0.753716 0.319102 -0.701254 0.637471 -0.285104 -0.737083 0.612690 -0.488784 -0.698050 -0.523209 -0.319102 0.701254 -0.637471 0.285104 0.737083 -0.612690 0.602557 -0.369030 -0.707602 0.069643 -0.653462 -0.753716 -0.069643 0.653462 0.753716 -0.602557 0.369030 0.707602 0.319102 -0.701254 0.637471 0.488784 0.698050 0.523209 -0.069643 0.653462 0.753716 0.319102 -0.701254 0.637471 0.806238 -0.408063 0.428297 -0.806238 0.408063 -0.428297 -0.319102 0.701254 -0.637471 0.069643 -0.653462 -0.753716 0.602557 -0.369030 -0.707602 0.806238 -0.408063 0.428297 0.319102 -0.701254 0.637471 0.069643 -0.653462 -0.753716 0.069643 -0.653462 -0.753716 0.319102 -0.701254 0.637471 0.319102 -0.701254 0.637471 0.069643 -0.653462 -0.753716 -0.069643 0.653462 0.753716 -0.319102 0.701254 -0.637471 " />
								<TextureCoordinate point="0.0292 0.7875 0.2130 0.7875 0.2130 0.9781 0.0292 0.9781 0.0292 0.9146 0.2130 0.9146 0.2130 0.9781 0.0292 0.9781 0.0292 0.7875 0.2130 0.7875 0.2130 0.9781 0.0292 0.9781 0.0292 0.9146 0.2130 0.9146 0.2130 0.9781 0.0292 0.9781 0.1517 0.7875 0.2130 0.7875 0.2130 0.9781 0.1517 0.9781 0.1517 0.7875 0.2130 0.7875 0.1517 0.9781 0.0292 0.7875 0.0905 0.7875 0.0905 0.9781 0.0292 0.9781 0.0292 0.7875 0.0905 0.7875 0.0905 0.9781 0.0292 0.7875 0.2130 0.7875 0.2130 0.8510 0.0292 0.8510 0.7675 0.7888 0.9512 0.7888 0.9512 0.9768 0.7675 0.9768 0.2130 0.8510 0.0292 0.8510 " />
							</IndexedTriangleSet>
						</Shape>
					</Group>
				</Transform>
				<Transform DEF="orl1_1_TRANSFORM"
				           translation="0.126718 -0.024273 0.706710"
				           scale="1.000000 1.000000 1.000000"
				           rotation="0.000000 1.000000 0.000000 0.000000"
				           >
					<Transform DEF="orl1_1_ifs_TRANSFORM"
					           translation="0.000000 0.000000 0.000000"
					           scale="1.000000 1.000000 1.000000"
					           rotation="0.000000 1.000000 0.000000 0.000000"
					           >
						<Group DEF="group_ME_orl1_1">
							<Shape>
								<Appearance>
									<Material USE="MA_Body" />
								</Appearance>
								<IndexedTriangleSet solid="false"
								                    normalPerVertex="true"
								                    index="0 1 2 0 2 3 4 5 6 4 6 7 8 9 10 8 10 11 12 13 14 12 14 15 16 17 18 16 18 19 20 21 14 20 14 22 23 24 25 23 25 26 24 20 22 24 22 25 27 28 29 27 29 30 28 16 19 28 19 29 31 32 33 31 33 34 34 33 13 34 13 12 35 21 36 35 36 37 37 36 5 37 5 4 38 37 4 38 4 39 27 35 37 27 37 38 40 41 42 40 42 43 44 31 34 44 34 45 46 12 15 46 15 30 47 8 11 47 11 48 39 4 7 39 7 49 50 0 3 50 3 51 "
								                    >
									<Coordinate point="-0.144120 -0.244833 0.697040 -0.105791 -0.253615 0.929595 -0.183662 -0.005897 0.951783 -0.221991 0.002884 0.719229 0.246963 0.156705 0.647745 0.285292 0.147923 0.880300 0.401183 0.185936 0.862634 0.362854 0.194718 0.630080 0.362854 0.194718 0.630080 0.401183 0.185936 0.862634 0.479054 -0.061781 0.840445 0.440725 -0.053000 0.607891 -0.028229 -0.206820 0.679374 0.010100 -0.215602 0.911929 -0.105791 -0.253615 0.929595 -0.144120 -0.244833 0.697040 0.137596 0.181762 -0.015815 0.253487 0.219775 -0.033480 0.331358 -0.027942 -0.055669 0.215467 -0.065955 -0.038004 -0.067771 0.032116 0.934118 -0.183662 -0.005897 0.951783 0.010100 -0.215602 0.911929 0.401183 0.185936 0.862634 0.285292 0.147923 0.880300 0.363163 -0.099795 0.858111 0.479054 -0.061781 0.840445 -0.331358 0.027942 0.055669 -0.215467 0.065955 0.038003 -0.137596 -0.181762 0.015814 -0.253487 -0.219775 0.033480 0.440725 -0.053000 0.607891 0.479054 -0.061781 0.840445 0.363163 -0.099795 0.858111 0.324833 -0.091013 0.625556 -0.221991 0.002884 0.719229 -0.067771 0.032116 0.934118 -0.106100 0.040898 0.701563 -0.215467 0.065955 0.038003 0.137596 0.181762 -0.015815 0.215467 -0.065955 -0.038004 0.324833 -0.091013 0.625556 -0.028229 -0.206820 0.679374 -0.137596 -0.181762 0.015814 0.331358 -0.027942 -0.055669 0.215467 -0.065955 -0.038004 -0.137596 -0.181762 0.015814 0.253487 0.219775 -0.033480 0.331358 -0.027942 -0.055669 0.253487 0.219775 -0.033480 -0.253487 -0.219775 0.033480 -0.331358 0.027942 0.055669 " />
									<Normal vector="-0.453658 -0.890194 0.041139 -0.276589 -0.748344 0.602863 -0.621601 0.349193 0.701163 -0.876217 0.453993 0.161534 -0.298776 0.950499 0.085116 -0.096347 0.645772 0.757408 0.464217 0.705344 0.535661 0.453658 0.890194 -0.041139 0.453658 0.890194 -0.041139 0.464217 0.705344 0.535661 0.809259 -0.392163 0.437330 0.876217 -0.453993 -0.161534 0.298776 -0.950499 -0.085116 0.326182 -0.698416 0.636982 -0.276589 -0.748344 0.602863 -0.453658 -0.890194 0.041139 -0.326182 0.698416 -0.636982 0.276589 0.748344 -0.602863 0.621601 -0.349193 -0.701163 0.096347 -0.645772 -0.757408 -0.096347 0.645772 0.757408 -0.621601 0.349193 0.701163 0.326182 -0.698416 0.636982 0.464217 0.705344 0.535661 -0.096347 0.645772 0.757408 0.326182 -0.698416 0.636982 0.809259 -0.392163 0.437330 -0.809259 0.392163 -0.437330 -0.326182 0.698416 -0.636982 0.096347 -0.645772 -0.757408 -0.464217 -0.705344 -0.535661 0.876217 -0.453993 -0.161534 0.809259 -0.392163 0.437330 0.326182 -0.698416 0.636982 0.298776 -0.950499 -0.085116 -0.876217 0.453993 0.161534 -0.096347 0.645772 0.757408 -0.298776 0.950499 0.085116 -0.326182 0.698416 -0.636982 -0.326182 0.698416 -0.636982 0.096347 -0.645772 -0.757408 0.298776 -0.950499 -0.085116 0.298776 -0.950499 -0.085116 0.096347 -0.645772 -0.757408 0.621601 -0.349193 -0.701163 0.096347 -0.645772 -0.757408 0.096347 -0.645772 -0.757408 0.276589 0.748344 -0.602863 0.621601 -0.349193 -0.701163 0.276589 0.748344 -0.602863 -0.464217 -0.705344 -0.535661 -0.809259 0.392163 -0.437330 " />
									<TextureCoordinate point="0.1653 0.7875 0.2130 0.7875 0.2130 0.9781 0.1653 0.9781 0.1653 0.9146 0.2130 0.9146 0.2130 0.9781 0.1653 0.9781 0.1653 0.7875 0.2130 0.7875 0.2130 0.9781 0.1653 0.9781 0.1653 0.9146 0.2130 0.9146 0.2130 0.9781 0.1653 0.9781 0.1517 0.7875 0.2130 0.7875 0.2130 0.9781 0.1517 0.9781 0.1517 0.7875 0.2130 0.7875 0.1517 0.9781 0.0292 0.7875 0.0905 0.7875 0.0905 0.9781 0.0292 0.9781 0.0292 0.7875 0.0905 0.7875 0.0905 0.9781 0.0292 0.9781 0.1653 0.7875 0.2130 0.7875 0.2130 0.8510 0.1653 0.8510 0.1653 0.7875 0.2130 0.8510 0.1653 0.8510 0.0292 0.8510 0.0292 0.9146 0.7633 0.7930 0.9780 0.7930 0.9780 0.9804 0.7633 0.9804 0.0292 0.7875 0.0292 0.8510 0.0292 0.9146 0.0292 0.7875 0.0292 0.9781 0.0292 0.9781 0.0292 0.7875 0.0292 0.9781 " />
								</IndexedTriangleSet>
							</Shape>
						</Group>
					</Transform>
				</Transform>
			</Transform>
			<Transform DEF="arm1_TRANSFORM"
			           translation="0.903895 -0.294410 1.287850"
			           scale="1.000000 1.000000 1.000000"
			           rotation="0.000000 1.000000 0.000000 0.000000"
			           >
				<Transform DEF="arm1_ifs_TRANSFORM"
				           translation="0.000000 0.000000 0.000000"
				           scale="1.000000 1.000000 1.000000"
				           rotation="0.000000 1.000000 0.000000 0.000000"
				           >
					<Group DEF="group_ME_arm1">
						<Shape>
							<Appearance>
								<Material USE="MA_Body" />
							</Appearance>
							<IndexedTriangleSet solid="false"
							                    normalPerVertex="true"
							                    index="0 1 2 0 2 3 4 5 6 4 6 7 8 9 10 8 10 11 12 13 14 12 14 15 4 16 17 4 17 15 18 5 14 18 14 19 "
							                    >
								<Coordinate point="-0.051368 -0.200905 -0.147220 -0.017953 -0.206589 0.147220 0.051368 0.200905 0.147220 0.017953 0.206589 -0.147220 0.017953 0.206589 -0.147220 0.051368 0.200905 0.147220 0.387349 0.143750 0.107987 0.353934 0.149434 -0.186453 0.353934 0.149434 -0.186453 0.387349 0.143750 0.107987 0.318029 -0.263745 0.107987 0.284614 -0.258060 -0.186453 0.284614 -0.258060 -0.186453 0.318029 -0.263745 0.107987 -0.017953 -0.206589 0.147220 -0.051368 -0.200905 -0.147220 0.353934 0.149434 -0.186453 0.284614 -0.258060 -0.186453 0.387349 0.143750 0.107987 0.318029 -0.263745 0.107987 " />
								<Normal vector="-0.727348 -0.461898 -0.507523 -0.597156 -0.484054 0.639576 -0.403516 0.654286 0.639576 -0.533677 0.676412 -0.507523 -0.533677 0.676412 -0.507523 -0.403516 0.654286 0.639576 0.727348 0.461898 0.507523 0.597156 0.484054 -0.639576 0.597156 0.484054 -0.639576 0.727348 0.461898 0.507523 0.533677 -0.676412 0.507523 0.403516 -0.654286 -0.639576 0.403516 -0.654286 -0.639576 0.533677 -0.676412 0.507523 -0.597156 -0.484054 0.639576 -0.727348 -0.461898 -0.507523 0.597156 0.484054 -0.639576 0.403516 -0.654286 -0.639576 0.727348 0.461898 0.507523 0.533677 -0.676412 0.507523 " />
								<TextureCoordinate point="0.0292 0.7875 0.2130 0.7875 0.2130 0.9781 0.0292 0.9781 0.0292 0.7875 0.2130 0.7875 0.2130 0.9781 0.0292 0.9781 0.0292 0.7875 0.2130 0.7875 0.2130 0.9781 0.0292 0.9781 0.0292 0.7875 0.2130 0.7875 0.2130 0.9781 0.0292 0.9781 0.2130 0.7875 0.2130 0.9781 0.0292 0.7875 0.0292 0.9781 " />
							</IndexedTriangleSet>
						</Shape>
					</Group>
				</Transform>
				<Transform DEF="arm1_1_TRANSFORM"
				           translation="0.293175 -0.040384 -0.033990"
				           scale="1.000000 1.000000 1.000000"
				           rotation="0.000000 1.000000 0.000000 0.000000"
				           >
					<Transform DEF="arm1_1_ifs_TRANSFORM"
					           translation="0.000000 0.000000 0.000000"
					           scale="1.000000 1.000000 1.000000"
					           rotation="0.000000 1.000000 0.000000 0.000000"
					           >
						<Group DEF="group_ME_arm1_1">
							<Shape>
								<Appearance>
									<Material USE="MA_Body" />
								</Appearance>
								<IndexedTriangleSet solid="false"
								                    normalPerVertex="true"
								                    index="0 1 2 0 2 3 4 5 6 4 6 7 8 9 10 8 10 11 12 13 14 12 14 15 4 16 17 4 17 15 18 5 14 18 14 19 "
								                    >
									<Coordinate point="-0.068480 -0.251068 -0.187340 -0.061439 -0.252266 0.188171 0.068480 0.251068 0.187340 0.061439 0.252266 -0.188171 0.061439 0.252266 -0.188171 0.068480 0.251068 0.187340 0.829445 0.054624 0.172446 0.822404 0.055822 -0.203066 0.822404 0.055822 -0.203066 0.829445 0.054624 0.172446 0.699525 -0.448710 0.173276 0.692484 -0.447512 -0.202235 0.692484 -0.447512 -0.202235 0.699525 -0.448710 0.173276 -0.061439 -0.252266 0.188171 -0.068480 -0.251068 -0.187340 0.822404 0.055822 -0.203066 0.692484 -0.447512 -0.202235 0.829445 0.054624 0.172446 0.699525 -0.448710 0.173276 " />
									<Normal vector="-0.714042 -0.412885 -0.565355 -0.692373 -0.416578 0.589099 -0.403790 0.701468 0.587237 -0.425428 0.705130 -0.567217 -0.425428 0.705130 -0.567217 -0.403790 0.701468 0.587237 0.714042 0.412885 0.565355 0.692373 0.416578 -0.589099 0.692373 0.416578 -0.589099 0.714042 0.412885 0.565355 0.425428 -0.705130 0.567217 0.403790 -0.701468 -0.587237 0.403790 -0.701468 -0.587237 0.425428 -0.705130 0.567217 -0.692373 -0.416578 0.589099 -0.714042 -0.412885 -0.565355 0.692373 0.416578 -0.589099 0.403790 -0.701468 -0.587237 0.714042 0.412885 0.565355 0.425428 -0.705130 0.567217 " />
									<TextureCoordinate point="0.0292 0.7875 0.2130 0.7875 0.2130 0.9781 0.0292 0.9781 0.0292 0.7875 0.2130 0.7875 0.2130 0.9781 0.0292 0.9781 0.0292 0.7875 0.2130 0.7875 0.2130 0.9781 0.0292 0.9781 0.0292 0.7875 0.2130 0.7875 0.2130 0.9781 0.0292 0.9781 0.2130 0.7875 0.2130 0.9781 0.0292 0.7875 0.0292 0.9781 " />
								</IndexedTriangleSet>
							</Shape>
						</Group>
					</Transform>
				</Transform>
			</Transform>
			<Transform DEF="foot1_TRANSFORM"
			           translation="0.447399 0.085488 0.009332"
			           scale="1.000000 1.000000 1.000000"
			           rotation="0.000000 1.000000 0.000000 0.000000"
			           >
				<Transform DEF="foot1_ifs_TRANSFORM"
				           translation="0.000000 0.000000 0.000000"
				           scale="1.000000 1.000000 1.000000"
				           rotation="0.000000 1.000000 0.000000 0.000000"
				           >
					<Group DEF="group_ME_foot1">
						<Shape>
							<Appearance>
								<Material USE="MA_Body" />
							</Appearance>
							<IndexedTriangleSet solid="false"
							                    normalPerVertex="true"
							                    index="0 1 2 0 2 3 4 5 6 4 6 7 8 9 10 8 10 11 12 13 14 12 14 15 4 16 17 4 17 15 18 5 14 18 14 19 "
							                    >
								<Coordinate point="0.102368 -0.694798 -0.228157 0.102368 -0.694798 0.000000 -0.339248 0.204994 0.000000 -0.339248 0.204994 -0.228157 -0.339248 0.204994 -0.228157 -0.339248 0.204994 0.000000 0.045377 0.393767 0.000000 0.045377 0.393767 -0.228157 0.045377 0.393767 -0.228157 0.045377 0.393767 0.000000 0.486993 -0.506024 0.000000 0.486993 -0.506024 -0.228157 0.486993 -0.506024 -0.228157 0.486993 -0.506024 0.000000 0.102368 -0.694798 0.000000 0.102368 -0.694798 -0.228157 0.045377 0.393767 -0.228157 0.486993 -0.506024 -0.228157 0.045377 0.393767 0.000000 0.486993 -0.506024 0.000000 " />
								<Normal vector="-0.263894 -0.772668 -0.577349 -0.263894 -0.772668 0.577349 -0.772668 0.263894 0.577349 -0.772668 0.263894 -0.577349 -0.772668 0.263894 -0.577349 -0.772668 0.263894 0.577349 0.263894 0.772668 0.577349 0.263894 0.772668 -0.577349 0.263894 0.772668 -0.577349 0.263894 0.772668 0.577349 0.772668 -0.263894 0.577349 0.772668 -0.263894 -0.577349 0.772668 -0.263894 -0.577349 0.772668 -0.263894 0.577349 -0.263894 -0.772668 0.577349 -0.263894 -0.772668 -0.577349 0.263894 0.772668 -0.577349 0.772668 -0.263894 -0.577349 0.263894 0.772668 0.577349 0.772668 -0.263894 0.577349 " />
								<TextureCoordinate point="0.0292 0.7875 0.2130 0.7875 0.2130 0.9781 0.0292 0.9781 0.0292 0.7875 0.2130 0.7875 0.2130 0.9781 0.0292 0.9781 0.0292 0.7875 0.2130 0.7875 0.2130 0.9781 0.0292 0.9781 0.0292 0.7875 0.2130 0.7875 0.2130 0.9781 0.0292 0.9781 0.2130 0.7875 0.2130 0.9781 0.0292 0.7875 0.0292 0.9781 " />
							</IndexedTriangleSet>
						</Shape>
					</Group>
				</Transform>
			</Transform>
			<Transform DEF="tail_TRANSFORM"
			           translation="0.000000 0.800833 0.298282"
			           scale="1.000000 1.000000 1.000000"
			           rotation="0.000000 1.000000 0.000000 0.000000"
			           >
				<Transform DEF="tail_ifs_TRANSFORM"
				           translation="0.000000 0.000000 0.000000"
				           scale="1.000000 1.000000 1.000000"
				           rotation="0.000000 1.000000 0.000000 0.000000"
				           >
					<Group DEF="group_ME_tail">
						<Shape>
							<Appearance>
								<Material USE="MA_Body" />
							</Appearance>
							<IndexedTriangleSet solid="false"
							                    normalPerVertex="true"
							                    index="0 1 2 0 2 3 "
							                    >
								<Coordinate point="0.000000 0.000000 0.042171 0.000000 0.000000 -0.042171 0.000000 0.549334 -0.042171 0.000000 0.549334 0.042171 " />
								<Normal vector="1.000000 0.000000 0.000000 1.000000 0.000000 0.000000 1.000000 0.000000 0.000000 1.000000 0.000000 0.000000 " />
								<TextureCoordinate point="0.5189 0.7875 0.7155 0.7875 0.7155 0.9781 0.5189 0.9781 " />
							</IndexedTriangleSet>
						</Shape>
					</Group>
				</Transform>
				<Transform DEF="Plane_001_TRANSFORM"
				           translation="0.000000 0.515422 0.006510"
				           scale="1.000000 1.000000 1.000000"
				           rotation="0.000000 1.000000 0.000000 0.000000"
				           >
					<Transform DEF="Plane_001_ifs_TRANSFORM"
					           translation="0.000000 0.000000 0.000000"
					           scale="1.000000 1.000000 1.000000"
					           rotation="0.000000 1.000000 0.000000 0.000000"
					           >
						<Group DEF="group_ME_Plane_001">
							<Shape>
								<Appearance>
									<Material USE="MA_Body" />
								</Appearance>
								<IndexedTriangleSet solid="false"
								                    normalPerVertex="true"
								                    index="0 1 2 0 2 3 "
								                    >
									<Coordinate point="0.000000 0.031690 0.033870 0.000000 -0.031690 -0.033870 0.000000 0.276953 -0.322654 0.000000 0.340334 -0.254915 " />
									<Normal vector="1.000000 0.000000 0.000000 1.000000 0.000000 0.000000 1.000000 0.000000 0.000000 1.000000 0.000000 0.000000 " />
									<TextureCoordinate point="0.5189 0.7875 0.7155 0.7875 0.7155 0.9781 0.5189 0.9781 " />
								</IndexedTriangleSet>
							</Shape>
						</Group>
					</Transform>
					<Transform DEF="tail1_TRANSFORM"
					           translation="0.000000 0.310691 -0.226595"
					           scale="1.000000 1.000000 1.000000"
					           rotation="0.000000 1.000000 0.000000 0.000000"
					           >
						<Transform DEF="tail1_ifs_TRANSFORM"
						           translation="0.000000 0.000000 0.000000"
						           scale="1.000000 1.000000 1.000000"
						           rotation="0.000000 1.000000 0.000000 0.000000"
						           >
							<Group DEF="group_ME_tail1">
								<Shape>
									<Appearance>
										<Material USE="MA_Body" />
									</Appearance>
									<IndexedTriangleSet solid="false"
									                    normalPerVertex="true"
									                    index="0 1 2 0 2 3 "
									                    >
										<Coordinate point="0.000000 -0.027913 0.028318 0.000000 0.027913 -0.028318 0.000000 0.311973 0.251681 0.000000 0.256147 0.308316 " />
										<Normal vector="1.000000 0.000000 0.000000 1.000000 0.000000 0.000000 1.000000 0.000000 0.000000 1.000000 0.000000 0.000000 " />
										<TextureCoordinate point="0.5189 0.7875 0.7155 0.7875 0.7155 0.9781 0.5189 0.9781 " />
									</IndexedTriangleSet>
								</Shape>
							</Group>
						</Transform>
						<Transform DEF="tail2_TRANSFORM"
						           translation="0.000000 0.275329 0.238142"
						           scale="1.000000 1.000000 1.000000"
						           rotation="0.000000 1.000000 0.000000 0.000000"
						           >
							<Transform DEF="tail2_ifs_TRANSFORM"
							           translation="0.000000 0.000000 0.000000"
							           scale="1.000000 1.000000 1.000000"
							           rotation="0.000000 1.000000 0.000000 0.000000"
							           >
								<Group DEF="group_ME_tail2">
									<Shape>
										<Appearance>
											<Material USE="MA_Body" />
										</Appearance>
										<IndexedTriangleSet solid="false"
										                    normalPerVertex="true"
										                    index="0 1 2 0 2 3 "
										                    >
											<Coordinate point="0.000000 0.034470 0.027023 0.000000 -0.034470 -0.027023 0.000000 0.215678 -0.346109 0.000000 0.284618 -0.292064 " />
											<Normal vector="1.000000 0.000000 0.000000 1.000000 0.000000 0.000000 1.000000 0.000000 0.000000 0.999969 0.000000 0.000000 " />
											<TextureCoordinate point="0.5189 0.7875 0.7155 0.7875 0.7155 0.9781 0.5189 0.9781 " />
										</IndexedTriangleSet>
									</Shape>
								</Group>
							</Transform>
							<Transform DEF="tail3_TRANSFORM"
							           translation="0.000000 0.257035 -0.263853"
							           scale="1.000000 1.000000 1.000000"
							           rotation="0.000000 1.000000 0.000000 0.000000"
							           >
								<Transform DEF="tail3_ifs_TRANSFORM"
								           translation="0.000000 0.000000 0.000000"
								           scale="1.000000 1.000000 1.000000"
								           rotation="0.000000 1.000000 0.000000 0.000000"
								           >
									<Group DEF="group_ME_tail3">
										<Shape>
											<Appearance>
												<Material USE="MA_Body" />
											</Appearance>
											<IndexedTriangleSet solid="false"
											                    normalPerVertex="true"
											                    index="0 1 2 0 2 3 "
											                    >
												<Coordinate point="0.000000 -0.026435 0.025594 0.000000 0.026435 -0.025594 0.000000 0.293549 0.250306 0.000000 0.240678 0.301493 " />
												<Normal vector="1.000000 0.000000 0.000000 1.000000 0.000000 0.000000 1.000000 0.000000 0.000000 1.000000 0.000000 0.000000 " />
												<TextureCoordinate point="0.5189 0.7875 0.7155 0.7875 0.7155 0.9781 0.5189 0.9781 " />
											</IndexedTriangleSet>
										</Shape>
									</Group>
								</Transform>
								<Transform DEF="Plane_005_TRANSFORM"
								           translation="0.000000 0.256155 0.225842"
								           scale="1.000000 1.000000 1.000000"
								           rotation="0.000000 1.000000 0.000000 0.000000"
								           >
									<Transform DEF="Plane_005_ifs_TRANSFORM"
									           translation="0.000000 0.000000 0.000000"
									           scale="1.000000 1.000000 1.000000"
									           rotation="0.000000 1.000000 0.000000 0.000000"
									           >
										<Group DEF="group_ME_Plane_005">
											<Shape>
												<Appearance>
													<Material USE="MA_Body" />
												</Appearance>
												<IndexedTriangleSet solid="false"
												                    normalPerVertex="true"
												                    index="0 1 2 0 2 3 "
												                    >
													<Coordinate point="0.000000 0.027289 0.024681 0.000000 -0.027289 -0.024681 0.000000 0.166587 -0.239043 0.000000 0.221165 -0.189681 " />
													<Normal vector="1.000000 0.000000 0.000000 1.000000 0.000000 0.000000 1.000000 0.000000 0.000000 1.000000 0.000000 0.000000 " />
													<TextureCoordinate point="0.5189 0.7875 0.7155 0.7875 0.7155 0.9781 0.5189 0.9781 " />
												</IndexedTriangleSet>
											</Shape>
										</Group>
									</Transform>
									<Transform DEF="tail4_TRANSFORM"
									           translation="0.000000 0.170923 -0.188984"
									           scale="1.000000 1.000000 1.000000"
									           rotation="0.000000 1.000000 0.000000 0.000000"
									           >
										<Transform DEF="tail4_ifs_TRANSFORM"
										           translation="0.000000 0.000000 0.000000"
										           scale="1.000000 1.000000 1.000000"
										           rotation="0.000000 1.000000 0.000000 0.000000"
										           >
											<Group DEF="group_ME_tail4">
												<Shape>
													<Appearance>
														<Material USE="MA_Body" />
													</Appearance>
													<IndexedTriangleSet solid="false"
													                    normalPerVertex="true"
													                    index="0 1 2 0 2 3 "
													                    >
														<Coordinate point="0.000000 0.000067 0.043889 0.000000 -0.000067 -0.043889 0.000000 0.270418 -0.044300 0.000000 0.270552 0.043478 " />
														<Normal vector="1.000000 0.000000 0.000000 1.000000 0.000000 0.000000 1.000000 0.000000 0.000000 1.000000 0.000000 0.000000 " />
														<TextureCoordinate point="0.5189 0.7875 0.7155 0.7875 0.7155 0.9781 0.5189 0.9781 " />
													</IndexedTriangleSet>
												</Shape>
											</Group>
										</Transform>
										<Transform DEF="tail5_TRANSFORM"
										           translation="0.000000 0.192111 -0.000784"
										           scale="1.000000 1.000000 1.000000"
										           rotation="0.000000 1.000000 0.000000 0.000000"
										           >
											<Transform DEF="tail5_ifs_TRANSFORM"
											           translation="0.000000 0.000000 0.000000"
											           scale="1.000000 1.000000 1.000000"
											           rotation="0.000000 1.000000 0.000000 0.000000"
											           >
												<Group DEF="group_ME_tail5">
													<Shape>
														<Appearance>
															<Material USE="MA_Body" />
														</Appearance>
														<IndexedTriangleSet solid="false"
														                    normalPerVertex="true"
														                    index="0 1 2 0 2 3 4 5 6 4 6 7 8 9 10 8 10 11 12 13 14 12 14 15 4 16 17 4 17 15 18 5 14 18 14 19 "
														                    >
															<Coordinate point="-0.337510 0.000000 -0.337510 -0.337510 -0.000000 0.337510 -0.337510 0.675020 0.337510 -0.337510 0.675020 -0.337510 -0.337510 0.675020 -0.337510 -0.337510 0.675020 0.337510 0.337510 0.675020 0.337510 0.337510 0.675020 -0.337510 0.337510 0.675020 -0.337510 0.337510 0.675020 0.337510 0.337510 -0.000000 0.337510 0.337510 0.000000 -0.337510 0.337510 0.000000 -0.337510 0.337510 -0.000000 0.337510 -0.337510 -0.000000 0.337510 -0.337510 0.000000 -0.337510 0.337510 0.675020 -0.337510 0.337510 0.000000 -0.337510 0.337510 0.675020 0.337510 0.337510 -0.000000 0.337510 " />
															<Normal vector="-0.577349 -0.577349 -0.577349 -0.577349 -0.577349 0.577349 -0.577349 0.577349 0.577349 -0.577349 0.577349 -0.577349 -0.577349 0.577349 -0.577349 -0.577349 0.577349 0.577349 0.577349 0.577349 0.577349 0.577349 0.577349 -0.577349 0.577349 0.577349 -0.577349 0.577349 0.577349 0.577349 0.577349 -0.577349 0.577349 0.577349 -0.577349 -0.577349 0.577349 -0.577349 -0.577349 0.577349 -0.577349 0.577349 -0.577349 -0.577349 0.577349 -0.577349 -0.577349 -0.577349 0.577349 0.577349 -0.577349 0.577349 -0.577349 -0.577349 0.577349 0.577349 0.577349 0.577349 -0.577349 0.577349 " />
															<TextureCoordinate point="0.0292 0.7875 0.2130 0.7875 0.2130 0.9781 0.0292 0.9781 0.0292 0.7875 0.2130 0.7875 0.2130 0.9781 0.0292 0.9781 0.0292 0.7875 0.2130 0.7875 0.2130 0.9781 0.0292 0.9781 0.0292 0.7875 0.2130 0.7875 0.2130 0.9781 0.0292 0.9781 0.2130 0.7875 0.2130 0.9781 0.0292 0.7875 0.0292 0.9781 " />
														</IndexedTriangleSet>
													</Shape>
												</Group>
											</Transform>
										</Transform>
									</Transform>
								</Transform>
							</Transform>
						</Transform>
					</Transform>
				</Transform>
			</Transform>
			<Transform DEF="orl2_TRANSFORM"
			           translation="-0.502513 -0.056233 2.381114"
			           scale="1.000000 1.000000 1.000000"
			           rotation="0.000000 1.000000 0.000000 0.000000"
			           >
				<Transform DEF="orl2_ifs_TRANSFORM"
				           translation="0.000000 0.000000 0.000000"
				           scale="1.000000 1.000000 1.000000"
				           rotation="0.000000 1.000000 0.000000 0.000000"
				           >
					<Group DEF="group_ME_orl2">
						<Shape>
							<Appearance>
								<Material USE="MA_Body" />
							</Appearance>
							<IndexedTriangleSet solid="false"
							                    normalPerVertex="true"
							                    index="0 1 2 0 2 3 4 5 6 4 6 7 8 9 10 8 10 11 12 13 14 12 14 15 16 17 18 16 18 19 20 21 14 20 14 22 23 24 25 23 25 26 26 25 21 26 21 20 27 13 28 27 28 29 29 28 17 29 17 16 30 31 32 30 32 33 34 35 36 34 36 37 27 38 39 27 39 22 38 4 7 38 7 39 "
							                    >
								<Coordinate point="0.231847 -0.190323 0.035035 0.295462 0.031356 0.054055 0.159098 0.005235 0.814563 0.095483 -0.216444 0.795542 -0.145340 0.164244 -0.020419 -0.231847 0.190323 -0.035035 -0.368211 0.164202 0.725473 -0.281704 0.138123 0.740088 -0.231847 0.190323 -0.035035 -0.295462 -0.031356 -0.054055 -0.431826 -0.057478 0.706452 -0.368211 0.164202 0.725473 0.145340 -0.164244 0.020419 0.231847 -0.190323 0.035035 0.095483 -0.216444 0.795542 0.008976 -0.190365 0.780926 -0.145340 0.164244 -0.020419 -0.208955 -0.057435 -0.039440 -0.295462 -0.031356 -0.054055 -0.231847 0.190323 -0.035035 0.072592 0.031314 0.799947 0.008976 -0.190365 0.780926 0.159098 0.005235 0.814563 -0.368211 0.164202 0.725473 -0.431826 -0.057478 0.706452 -0.345319 -0.083557 0.721067 -0.281704 0.138123 0.740088 0.295462 0.031356 0.054055 0.145340 -0.164244 0.020419 0.208956 0.057435 0.039440 -0.295462 -0.031356 -0.054055 -0.208955 -0.057435 -0.039440 -0.345319 -0.083557 0.721067 -0.431826 -0.057478 0.706452 -0.208955 -0.057435 -0.039440 0.145340 -0.164244 0.020419 0.008976 -0.190365 0.780926 -0.345319 -0.083557 0.721067 0.208956 0.057435 0.039440 0.072592 0.031314 0.799947 " />
								<Normal vector="0.488784 -0.698050 -0.523209 0.806238 0.408063 -0.428297 0.602557 0.369030 0.707602 0.285104 -0.737083 0.612690 0.319102 0.701254 -0.637471 -0.285104 0.737083 -0.612690 -0.488784 0.698050 0.523209 0.069643 0.653462 0.753716 -0.285104 0.737083 -0.612690 -0.602557 -0.369030 -0.707602 -0.806238 -0.408063 0.428297 -0.488784 0.698050 0.523209 -0.069643 -0.653462 -0.753716 0.488784 -0.698050 -0.523209 0.285104 -0.737083 0.612690 -0.319102 -0.701254 0.637471 0.319102 0.701254 -0.637471 -0.069643 -0.653462 -0.753716 -0.602557 -0.369030 -0.707602 -0.285104 0.737083 -0.612690 0.069643 0.653462 0.753716 -0.319102 -0.701254 0.637471 0.602557 0.369030 0.707602 -0.488784 0.698050 0.523209 -0.806238 -0.408063 0.428297 -0.319102 -0.701254 0.637471 0.069643 0.653462 0.753716 0.806238 0.408063 -0.428297 -0.069643 -0.653462 -0.753716 0.319102 0.701254 -0.637471 -0.602557 -0.369030 -0.707602 -0.069643 -0.653462 -0.753716 -0.319102 -0.701254 0.637471 -0.806238 -0.408063 0.428297 -0.069643 -0.653462 -0.753716 -0.069643 -0.653462 -0.753716 -0.319102 -0.701254 0.637471 -0.319102 -0.701254 0.637471 0.319102 0.701254 -0.637471 0.069643 0.653462 0.753716 " />
								<TextureCoordinate point="0.0292 0.7875 0.0292 0.9781 0.2130 0.9781 0.2130 0.7875 0.0292 0.9146 0.0292 0.9781 0.2130 0.9781 0.2130 0.9146 0.0292 0.7875 0.0292 0.9781 0.2130 0.9781 0.2130 0.7875 0.0292 0.9146 0.0292 0.9781 0.2130 0.9781 0.2130 0.9146 0.1517 0.7875 0.1517 0.9781 0.2130 0.9781 0.2130 0.7875 0.1517 0.7875 0.1517 0.9781 0.2130 0.7875 0.0292 0.7875 0.0292 0.9781 0.0905 0.9781 0.0905 0.7875 0.0292 0.7875 0.0905 0.9781 0.0905 0.7875 0.0292 0.7875 0.0292 0.8510 0.2130 0.8510 0.2130 0.7875 0.7675 0.7888 0.7675 0.9768 0.9512 0.9768 0.9512 0.7888 0.0292 0.8510 0.2130 0.8510 " />
							</IndexedTriangleSet>
						</Shape>
					</Group>
				</Transform>
				<Transform DEF="orl2_1_TRANSFORM"
				           translation="-0.126718 -0.024273 0.706710"
				           scale="1.000000 1.000000 1.000000"
				           rotation="0.000000 1.000000 0.000000 0.000000"
				           >
					<Transform DEF="orl2_1_ifs_TRANSFORM"
					           translation="0.000000 0.000000 0.000000"
					           scale="1.000000 1.000000 1.000000"
					           rotation="0.000000 1.000000 0.000000 0.000000"
					           >
						<Group DEF="group_ME_orl2_1">
							<Shape>
								<Appearance>
									<Material USE="MA_Body" />
								</Appearance>
								<IndexedTriangleSet solid="false"
								                    normalPerVertex="true"
								                    index="0 1 2 0 2 3 4 5 6 4 6 7 8 9 10 8 10 11 12 13 14 12 14 15 16 17 18 16 18 19 20 21 14 20 14 22 23 24 25 23 25 26 26 25 21 26 21 20 27 28 29 27 29 30 30 29 17 30 17 16 31 32 33 31 33 34 32 12 15 32 15 33 35 36 37 35 37 22 36 4 7 36 7 37 38 39 4 38 4 36 27 38 36 27 36 35 40 41 42 40 42 43 44 45 32 44 32 31 46 28 13 46 13 12 47 48 9 47 9 8 39 49 5 39 5 4 50 51 1 50 1 0 "
								                    >
									<Coordinate point="0.144120 -0.244833 0.697040 0.221991 0.002884 0.719229 0.183662 -0.005897 0.951783 0.105791 -0.253615 0.929595 -0.246963 0.156705 0.647745 -0.362854 0.194718 0.630080 -0.401183 0.185936 0.862634 -0.285292 0.147923 0.880300 -0.362854 0.194718 0.630080 -0.440725 -0.053000 0.607891 -0.479054 -0.061782 0.840445 -0.401183 0.185936 0.862634 0.028229 -0.206820 0.679374 0.144120 -0.244833 0.697040 0.105791 -0.253615 0.929595 -0.010100 -0.215602 0.911929 -0.137596 0.181762 -0.015815 -0.215467 -0.065955 -0.038004 -0.331358 -0.027942 -0.055669 -0.253487 0.219775 -0.033480 0.067771 0.032116 0.934118 -0.010100 -0.215602 0.911929 0.183662 -0.005897 0.951783 -0.401183 0.185936 0.862634 -0.479054 -0.061782 0.840445 -0.363163 -0.099795 0.858111 -0.285292 0.147923 0.880300 0.331358 0.027942 0.055669 0.253487 -0.219775 0.033480 0.137596 -0.181762 0.015814 0.215467 0.065955 0.038003 -0.440725 -0.053000 0.607891 -0.324833 -0.091013 0.625556 -0.363163 -0.099795 0.858111 -0.479054 -0.061782 0.840445 0.221991 0.002884 0.719229 0.106100 0.040898 0.701563 0.067771 0.032116 0.934118 0.215467 0.065955 0.038003 -0.137596 0.181762 -0.015815 -0.215467 -0.065955 -0.038004 0.137596 -0.181762 0.015814 0.028229 -0.206820 0.679374 -0.324833 -0.091013 0.625556 -0.331358 -0.027942 -0.055669 -0.215467 -0.065955 -0.038004 0.137596 -0.181762 0.015814 -0.253487 0.219775 -0.033480 -0.331358 -0.027942 -0.055669 -0.253487 0.219775 -0.033480 0.253487 -0.219775 0.033480 0.331358 0.027942 0.055669 " />
									<Normal vector="0.453658 -0.890194 0.041139 0.876217 0.453993 0.161534 0.621601 0.349193 0.701163 0.276589 -0.748344 0.602863 0.298776 0.950499 0.085116 -0.453658 0.890194 -0.041139 -0.464217 0.705344 0.535661 0.096347 0.645772 0.757408 -0.453658 0.890194 -0.041139 -0.876217 -0.453993 -0.161534 -0.809259 -0.392163 0.437330 -0.464217 0.705344 0.535661 -0.298776 -0.950499 -0.085116 0.453658 -0.890194 0.041139 0.276589 -0.748344 0.602863 -0.326182 -0.698416 0.636982 0.326182 0.698416 -0.636982 -0.096347 -0.645772 -0.757408 -0.621601 -0.349193 -0.701163 -0.276589 0.748344 -0.602863 0.096347 0.645772 0.757408 -0.326182 -0.698416 0.636982 0.621601 0.349193 0.701163 -0.464217 0.705344 0.535661 -0.809259 -0.392163 0.437330 -0.326182 -0.698416 0.636982 0.096347 0.645772 0.757408 0.809259 0.392163 -0.437330 0.464217 -0.705344 -0.535661 -0.096347 -0.645772 -0.757408 0.326182 0.698416 -0.636982 -0.876217 -0.453993 -0.161534 -0.298776 -0.950499 -0.085116 -0.326182 -0.698416 0.636982 -0.809259 -0.392163 0.437330 0.876217 0.453993 0.161534 0.298776 0.950499 0.085116 0.096347 0.645772 0.757408 0.326182 0.698416 -0.636982 0.326182 0.698416 -0.636982 -0.096347 -0.645772 -0.757408 -0.096347 -0.645772 -0.757408 -0.298776 -0.950499 -0.085116 -0.298776 -0.950499 -0.085116 -0.621601 -0.349193 -0.701163 -0.096347 -0.645772 -0.757408 -0.096347 -0.645772 -0.757408 -0.276589 0.748344 -0.602863 -0.621601 -0.349193 -0.701163 -0.276589 0.748344 -0.602863 0.464217 -0.705344 -0.535661 0.809259 0.392163 -0.437330 " />
									<TextureCoordinate point="0.1653 0.7875 0.1653 0.9781 0.2130 0.9781 0.2130 0.7875 0.1653 0.9146 0.1653 0.9781 0.2130 0.9781 0.2130 0.9146 0.1653 0.7875 0.1653 0.9781 0.2130 0.9781 0.2130 0.7875 0.1653 0.9146 0.1653 0.9781 0.2130 0.9781 0.2130 0.9146 0.1517 0.7875 0.1517 0.9781 0.2130 0.9781 0.2130 0.7875 0.1517 0.7875 0.1517 0.9781 0.2130 0.7875 0.0292 0.7875 0.0292 0.9781 0.0905 0.9781 0.0905 0.7875 0.0292 0.7875 0.0292 0.9781 0.0905 0.9781 0.0905 0.7875 0.1653 0.7875 0.1653 0.8510 0.2130 0.8510 0.2130 0.7875 0.1653 0.7875 0.1653 0.8510 0.2130 0.8510 0.0292 0.8510 0.0292 0.9146 0.7633 0.7930 0.7633 0.9804 0.9780 0.9804 0.9780 0.7930 0.0292 0.7875 0.0292 0.8510 0.0292 0.9146 0.0292 0.7875 0.0292 0.9781 0.0292 0.9781 0.0292 0.7875 0.0292 0.9781 " />
								</IndexedTriangleSet>
							</Shape>
						</Group>
					</Transform>
				</Transform>
			</Transform>
			<Transform DEF="arm2_TRANSFORM"
			           translation="-0.903895 -0.294410 1.287850"
			           scale="1.000000 1.000000 1.000000"
			           rotation="0.000000 1.000000 0.000000 0.000000"
			           >
				<Transform DEF="arm2_ifs_TRANSFORM"
				           translation="0.000000 0.000000 0.000000"
				           scale="1.000000 1.000000 1.000000"
				           rotation="0.000000 1.000000 0.000000 0.000000"
				           >
					<Group DEF="group_ME_arm2">
						<Shape>
							<Appearance>
								<Material USE="MA_Body" />
							</Appearance>
							<IndexedTriangleSet solid="false"
							                    normalPerVertex="true"
							                    index="0 1 2 0 2 3 4 5 6 4 6 7 8 9 10 8 10 11 12 13 14 12 14 15 4 13 16 4 16 17 18 19 14 18 14 7 "
							                    >
								<Coordinate point="0.051368 -0.200905 -0.147220 -0.017953 0.206589 -0.147220 -0.051368 0.200905 0.147220 0.017953 -0.206589 0.147220 -0.017953 0.206589 -0.147220 -0.353934 0.149434 -0.186453 -0.387349 0.143750 0.107987 -0.051368 0.200905 0.147220 -0.353934 0.149434 -0.186453 -0.284614 -0.258060 -0.186453 -0.318029 -0.263745 0.107987 -0.387349 0.143750 0.107987 -0.284614 -0.258060 -0.186453 0.051368 -0.200905 -0.147220 0.017953 -0.206589 0.147220 -0.318029 -0.263745 0.107987 -0.284614 -0.258060 -0.186453 -0.353934 0.149434 -0.186453 -0.387349 0.143750 0.107987 -0.318029 -0.263745 0.107987 " />
								<Normal vector="0.727348 -0.461898 -0.507523 0.533677 0.676412 -0.507523 0.403516 0.654286 0.639576 0.597156 -0.484054 0.639576 0.533677 0.676412 -0.507523 -0.597156 0.484054 -0.639576 -0.727348 0.461898 0.507523 0.403516 0.654286 0.639576 -0.597156 0.484054 -0.639576 -0.403516 -0.654286 -0.639576 -0.533677 -0.676412 0.507523 -0.727348 0.461898 0.507523 -0.403516 -0.654286 -0.639576 0.727348 -0.461898 -0.507523 0.597156 -0.484054 0.639576 -0.533677 -0.676412 0.507523 -0.403516 -0.654286 -0.639576 -0.597156 0.484054 -0.639576 -0.727348 0.461898 0.507523 -0.533677 -0.676412 0.507523 " />
								<TextureCoordinate point="0.0292 0.7875 0.0292 0.9781 0.2130 0.9781 0.2130 0.7875 0.0292 0.7875 0.0292 0.9781 0.2130 0.9781 0.2130 0.7875 0.0292 0.7875 0.0292 0.9781 0.2130 0.9781 0.2130 0.7875 0.0292 0.7875 0.0292 0.9781 0.2130 0.9781 0.2130 0.7875 0.2130 0.9781 0.2130 0.7875 0.0292 0.7875 0.0292 0.9781 " />
							</IndexedTriangleSet>
						</Shape>
					</Group>
				</Transform>
				<Transform DEF="arm2_1_TRANSFORM"
				           translation="-0.293175 -0.040384 -0.033990"
				           scale="1.000000 1.000000 1.000000"
				           rotation="0.000000 1.000000 0.000000 0.000000"
				           >
					<Transform DEF="arm2_1_ifs_TRANSFORM"
					           translation="0.000000 0.000000 0.000000"
					           scale="1.000000 1.000000 1.000000"
					           rotation="0.000000 1.000000 0.000000 0.000000"
					           >
						<Group DEF="group_ME_arm2_1">
							<Shape>
								<Appearance>
									<Material USE="MA_Body" />
								</Appearance>
								<IndexedTriangleSet solid="false"
								                    normalPerVertex="true"
								                    index="0 1 2 0 2 3 4 5 6 4 6 7 8 9 10 8 10 11 12 13 14 12 14 15 4 13 16 4 16 17 18 19 14 18 14 7 "
								                    >
									<Coordinate point="0.068480 -0.251068 -0.187340 -0.061439 0.252266 -0.188171 -0.068480 0.251068 0.187340 0.061439 -0.252266 0.188171 -0.061439 0.252266 -0.188171 -0.822404 0.055822 -0.203066 -0.829445 0.054624 0.172446 -0.068480 0.251068 0.187340 -0.822404 0.055822 -0.203066 -0.692484 -0.447512 -0.202235 -0.699525 -0.448710 0.173276 -0.829445 0.054624 0.172446 -0.692484 -0.447512 -0.202235 0.068480 -0.251068 -0.187340 0.061439 -0.252266 0.188171 -0.699525 -0.448710 0.173276 -0.692484 -0.447512 -0.202235 -0.822404 0.055822 -0.203066 -0.829445 0.054624 0.172446 -0.699525 -0.448710 0.173276 " />
									<Normal vector="0.714042 -0.412885 -0.565355 0.425428 0.705130 -0.567217 0.403790 0.701468 0.587237 0.692373 -0.416578 0.589099 0.425428 0.705130 -0.567217 -0.692373 0.416578 -0.589099 -0.714042 0.412885 0.565355 0.403790 0.701468 0.587237 -0.692373 0.416578 -0.589099 -0.403790 -0.701468 -0.587237 -0.425428 -0.705130 0.567217 -0.714042 0.412885 0.565355 -0.403790 -0.701468 -0.587237 0.714042 -0.412885 -0.565355 0.692373 -0.416578 0.589099 -0.425428 -0.705130 0.567217 -0.403790 -0.701468 -0.587237 -0.692373 0.416578 -0.589099 -0.714042 0.412885 0.565355 -0.425428 -0.705130 0.567217 " />
									<TextureCoordinate point="0.0292 0.7875 0.0292 0.9781 0.2130 0.9781 0.2130 0.7875 0.0292 0.7875 0.0292 0.9781 0.2130 0.9781 0.2130 0.7875 0.0292 0.7875 0.0292 0.9781 0.2130 0.9781 0.2130 0.7875 0.0292 0.7875 0.0292 0.9781 0.2130 0.9781 0.2130 0.7875 0.2130 0.9781 0.2130 0.7875 0.0292 0.7875 0.0292 0.9781 " />
								</IndexedTriangleSet>
							</Shape>
						</Group>
					</Transform>
				</Transform>
			</Transform>
			<Transform DEF="foot2_TRANSFORM"
			           translation="-0.447399 0.085488 0.009332"
			           scale="1.000000 1.000000 1.000000"
			           rotation="0.000000 1.000000 0.000000 0.000000"
			           >
				<Transform DEF="foot2_ifs_TRANSFORM"
				           translation="0.000000 0.000000 0.000000"
				           scale="1.000000 1.000000 1.000000"
				           rotation="0.000000 1.000000 0.000000 0.000000"
				           >
					<Group DEF="group_ME_foot2">
						<Shape>
							<Appearance>
								<Material USE="MA_Body" />
							</Appearance>
							<IndexedTriangleSet solid="false"
							                    normalPerVertex="true"
							                    index="0 1 2 0 2 3 4 5 6 4 6 7 8 9 10 8 10 11 12 13 14 12 14 15 4 13 16 4 16 17 18 19 14 18 14 7 "
							                    >
								<Coordinate point="-0.102368 -0.694798 -0.228157 0.339248 0.204994 -0.228157 0.339248 0.204994 0.000000 -0.102368 -0.694798 -0.000000 0.339248 0.204994 -0.228157 -0.045377 0.393767 -0.228157 -0.045377 0.393767 0.000000 0.339248 0.204994 0.000000 -0.045377 0.393767 -0.228157 -0.486993 -0.506024 -0.228157 -0.486993 -0.506024 -0.000000 -0.045377 0.393767 0.000000 -0.486993 -0.506024 -0.228157 -0.102368 -0.694798 -0.228157 -0.102368 -0.694798 -0.000000 -0.486993 -0.506024 -0.000000 -0.486993 -0.506024 -0.228157 -0.045377 0.393767 -0.228157 -0.045377 0.393767 0.000000 -0.486993 -0.506024 -0.000000 " />
								<Normal vector="0.263894 -0.772668 -0.577349 0.772668 0.263894 -0.577349 0.772668 0.263894 0.577349 0.263894 -0.772668 0.577349 0.772668 0.263894 -0.577349 -0.263894 0.772668 -0.577349 -0.263894 0.772668 0.577349 0.772668 0.263894 0.577349 -0.263894 0.772668 -0.577349 -0.772668 -0.263894 -0.577349 -0.772668 -0.263894 0.577349 -0.263894 0.772668 0.577349 -0.772668 -0.263894 -0.577349 0.263894 -0.772668 -0.577349 0.263894 -0.772668 0.577349 -0.772668 -0.263894 0.577349 -0.772668 -0.263894 -0.577349 -0.263894 0.772668 -0.577349 -0.263894 0.772668 0.577349 -0.772668 -0.263894 0.577349 " />
								<TextureCoordinate point="0.0292 0.7875 0.0292 0.9781 0.2130 0.9781 0.2130 0.7875 0.0292 0.7875 0.0292 0.9781 0.2130 0.9781 0.2130 0.7875 0.0292 0.7875 0.0292 0.9781 0.2130 0.9781 0.2130 0.7875 0.0292 0.7875 0.0292 0.9781 0.2130 0.9781 0.2130 0.7875 0.2130 0.9781 0.2130 0.7875 0.0292 0.7875 0.0292 0.9781 " />
							</IndexedTriangleSet>
						</Shape>
					</Group>
				</Transform>
			</Transform>
		</Transform>
	</Scene>
</X3D>