<?xml version="1.0" encoding="UTF-8"?>
<!DOCTYPE X3D PUBLIC "ISO//Web3D//DTD X3D 3.0//EN" "http://www.web3d.org/specifications/x3d-3.0.dtd">
<X3D version="3.0" profile="Immersive" xmlns:xsd="http://www.w3.org/2001/XMLSchema-instance" xsd:noNamespaceSchemaLocation="http://www.web3d.org/specifications/x3d-3.0.xsd">
	<head>
		<meta name="filename" content="banette.x3d" />
		<meta name="generator" content="Blender 2.93.18" />
	</head>
	<Scene>
		<NavigationInfo headlight="true"
		                visibilityLimit="0.0"
		                type='"EXAMINE", "ANY"'
		                avatarSize="0.25, 1.75, 0.75"
		                />
		<Background DEF="WO_World"
		            groundColor="0.051 0.051 0.051"
		            skyColor="0.051 0.051 0.051"
		            />
		<Transform DEF="body_TRANSFORM"
		           translation="0.000000 -0.009079 0.617382"
		           scale="1.000000 1.000000 1.000000"
		           rotation="0.000000 0.000000 1.000000 3.141593"
		           >
			<Transform DEF="body_ifs_TRANSFORM"
			           translation="0.000000 0.000000 0.000000"
			           scale="1.000000 1.000000 1.000000"
			           rotation="0.000000 1.000000 0.000000 0.000000"
			           >
				<Group DEF="group_ME_body">
					<Shape>
						<Appearance>
							<Material DEF="MA_Body"
							          diffuseColor="0.800 0.800 0.800"
							          specularColor="0.401 0.401 0.401"
							          emissiveColor="0.000 0.000 0.000"
							          ambientIntensity="0.000"
							          shininess="0.500"
							          transparency="0.0"
							          />
						</Appearance>
						<IndexedTriangleSet solid="false"
						                    normalPerVertex="true"
						                    index="0 1 2 0 2 3 4 5 6 4 6 7 8 9 10 8 10 11 12 13 14 12 14 15 4 16 17 4 17 15 18 5 14 18 14 19 "
						                    >
							<Coordinate point="-1.141177 -0.824394 0.000000 -1.141177 -0.824394 1.268770 -1.141177 0.824394 1.268770 -1.141177 0.824394 0.000000 -1.141177 0.824394 0.000000 -1.141177 0.824394 1.268770 1.141177 0.824394 1.268770 1.141177 0.824394 0.000000 1.141177 0.824394 0.000000 1.141177 0.824394 1.268770 1.141177 -0.824394 1.268770 1.141177 -0.824394 0.000000 1.141177 -0.824394 0.000000 1.141177 -0.824394 1.268770 -1.141177 -0.824394 1.268770 -1.141177 -0.824394 0.000000 1.141177 0.824394 0.000000 1.141177 -0.824394 0.000000 1.141177 0.824394 1.268770 1.141177 -0.824394 1.268770 " />
							<Normal vector="-0.577349 -0.577349 -0.577349 -0.577349 -0.577349 0.577349 -0.577349 0.577349 0.577349 -0.577349 0.577349 -0.577349 -0.577349 0.577349 -0.577349 -0.577349 0.577349 0.577349 0.577349 0.577349 0.577349 0.577349 0.577349 -0.577349 0.577349 0.577349 -0.577349 0.577349 0.577349 0.577349 0.577349 -0.577349 0.577349 0.577349 -0.577349 -0.577349 0.577349 -0.577349 -0.577349 0.577349 -0.577349 0.577349 -0.577349 -0.577349 0.577349 -0.577349 -0.577349 -0.577349 0.577349 0.577349 -0.577349 0.577349 -0.577349 -0.577349 0.577349 0.577349 0.577349 0.577349 -0.577349 0.577349 " />
							<TextureCoordinate point="0.0210 0.5313 0.9790 0.5313 0.9790 0.9707 0.0210 0.9707 0.0210 0.5313 0.9790 0.5313 0.9790 0.9707 0.0210 0.9707 0.0210 0.5313 0.9790 0.5313 0.9790 0.9707 0.0210 0.9707 0.0210 0.5313 0.9790 0.5313 0.9790 0.9707 0.0210 0.9707 0.9790 0.5313 0.9790 0.9707 0.0210 0.5313 0.0210 0.9707 " />
						</IndexedTriangleSet>
					</Shape>
				</Group>
			</Transform>
			<Transform DEF="body1_TRANSFORM"
			           translation="0.000000 0.000000 1.162130"
			           scale="1.000000 1.000000 1.000000"
			           rotation="0.000000 1.000000 0.000000 0.000000"
			           >
				<Transform DEF="body1_ifs_TRANSFORM"
				           translation="0.000000 0.000000 0.000000"
				           scale="1.000000 1.000000 1.000000"
				           rotation="0.000000 1.000000 0.000000 0.000000"
				           >
					<Group DEF="group_ME_body1">
						<Shape>
							<Appearance>
								<Material USE="MA_Body" />
							</Appearance>
							<IndexedTriangleSet solid="false"
							                    normalPerVertex="true"
							                    index="0 1 2 0 2 3 4 5 6 4 6 7 8 9 10 8 10 11 12 13 14 12 14 15 4 16 17 4 17 15 18 5 14 18 14 19 "
							                    >
								<Coordinate point="-0.899161 -0.696083 0.000000 -0.899161 -0.696083 0.649163 -0.899161 0.696083 0.649163 -0.899161 0.696083 0.000000 -0.899161 0.696083 0.000000 -0.899161 0.696083 0.649163 0.899161 0.696083 0.649163 0.899161 0.696083 0.000000 0.899161 0.696083 0.000000 0.899161 0.696083 0.649163 0.899161 -0.696083 0.649163 0.899161 -0.696083 0.000000 0.899161 -0.696083 0.000000 0.899161 -0.696083 0.649163 -0.899161 -0.696083 0.649163 -0.899161 -0.696083 0.000000 0.899161 0.696083 0.000000 0.899161 -0.696083 0.000000 0.899161 0.696083 0.649163 0.899161 -0.696083 0.649163 " />
								<Normal vector="-0.577349 -0.577349 -0.577349 -0.577349 -0.577349 0.577349 -0.577349 0.577349 0.577349 -0.577349 0.577349 -0.577349 -0.577349 0.577349 -0.577349 -0.577349 0.577349 0.577349 0.577349 0.577349 0.577349 0.577349 0.577349 -0.577349 0.577349 0.577349 -0.577349 0.577349 0.577349 0.577349 0.577349 -0.577349 0.577349 0.577349 -0.577349 -0.577349 0.577349 -0.577349 -0.577349 0.577349 -0.577349 0.577349 -0.577349 -0.577349 0.577349 -0.577349 -0.577349 -0.577349 0.577349 0.577349 -0.577349 0.577349 -0.577349 -0.577349 0.577349 0.577349 0.577349 0.577349 -0.577349 0.577349 " />
								<TextureCoordinate point="0.0210 0.5313 0.9790 0.5313 0.9790 0.9707 0.0210 0.9707 0.0210 0.5313 0.9790 0.5313 0.9790 0.9707 0.0210 0.9707 0.0210 0.5313 0.9790 0.5313 0.9790 0.9707 0.0210 0.9707 0.0210 0.5313 0.9790 0.5313 0.9790 0.9707 0.0210 0.9707 0.9790 0.5313 0.9790 0.9707 0.0210 0.5313 0.0210 0.9707 " />
							</IndexedTriangleSet>
						</Shape>
					</Group>
				</Transform>
				<Transform DEF="Cube_002_TRANSFORM"
				           translation="0.000000 0.054475 0.590144"
				           scale="1.000000 1.000000 1.000000"
				           rotation="0.000000 1.000000 0.000000 0.000000"
				           >
					<Transform DEF="Cube_002_ifs_TRANSFORM"
					           translation="0.000000 0.000000 0.000000"
					           scale="1.000000 1.000000 1.000000"
					           rotation="0.000000 1.000000 0.000000 0.000000"
					           >
						<Group DEF="group_ME_Cube_003">
							<Shape>
								<Appearance>
									<Material USE="MA_Body" />
								</Appearance>
								<IndexedTriangleSet solid="false"
								                    normalPerVertex="true"
								                    index="0 1 2 0 2 3 4 5 6 4 6 7 8 9 10 8 10 11 12 13 14 12 14 15 4 16 17 4 17 15 18 5 14 18 14 19 "
								                    >
									<Coordinate point="-0.547223 -0.459879 0.000000 -0.547223 -0.459879 0.326018 -0.547223 0.459879 0.326018 -0.547223 0.459879 0.000000 -0.547223 0.459879 0.000000 -0.547223 0.459879 0.326018 0.547223 0.459879 0.326018 0.547223 0.459879 0.000000 0.547223 0.459879 0.000000 0.547223 0.459879 0.326018 0.547223 -0.459879 0.326018 0.547223 -0.459879 0.000000 0.547223 -0.459879 0.000000 0.547223 -0.459879 0.326018 -0.547223 -0.459879 0.326018 -0.547223 -0.459879 0.000000 0.547223 0.459879 0.000000 0.547223 -0.459879 0.000000 0.547223 0.459879 0.326018 0.547223 -0.459879 0.326018 " />
									<Normal vector="-0.577349 -0.577349 -0.577349 -0.577349 -0.577349 0.577349 -0.577349 0.577349 0.577349 -0.577349 0.577349 -0.577349 -0.577349 0.577349 -0.577349 -0.577349 0.577349 0.577349 0.577349 0.577349 0.577349 0.577349 0.577349 -0.577349 0.577349 0.577349 -0.577349 0.577349 0.577349 0.577349 0.577349 -0.577349 0.577349 0.577349 -0.577349 -0.577349 0.577349 -0.577349 -0.577349 0.577349 -0.577349 0.577349 -0.577349 -0.577349 0.577349 -0.577349 -0.577349 -0.577349 0.577349 0.577349 -0.577349 0.577349 -0.577349 -0.577349 0.577349 0.577349 0.577349 0.577349 -0.577349 0.577349 " />
									<TextureCoordinate point="0.0210 0.5313 0.9790 0.5313 0.9790 0.9707 0.0210 0.9707 0.0210 0.5313 0.9790 0.5313 0.9790 0.9707 0.0210 0.9707 0.0210 0.5313 0.9790 0.5313 0.9790 0.9707 0.0210 0.9707 0.0210 0.5313 0.9790 0.5313 0.9790 0.9707 0.0210 0.9707 0.9790 0.5313 0.9790 0.9707 0.0210 0.5313 0.0210 0.9707 " />
								</IndexedTriangleSet>
							</Shape>
						</Group>
					</Transform>
				</Transform>
				<Transform DEF="neck_TRANSFORM"
				           translation="0.000000 0.020882 0.876435"
				           scale="1.000000 1.000000 1.000000"
				           rotation="0.000000 1.000000 0.000000 0.000000"
				           >
					<Transform DEF="neck_ifs_TRANSFORM"
					           translation="0.000000 0.000000 0.000000"
					           scale="1.000000 1.000000 1.000000"
					           rotation="0.000000 1.000000 0.000000 0.000000"
					           >
						<Group DEF="group_ME_neck">
							<Shape>
								<Appearance>
									<Material USE="MA_Body" />
								</Appearance>
								<IndexedTriangleSet solid="false"
								                    normalPerVertex="true"
								                    index="0 1 2 0 2 3 4 5 6 4 6 7 8 9 10 8 10 11 12 13 14 12 14 15 4 16 17 4 17 15 18 5 14 18 14 19 "
								                    >
									<Coordinate point="-0.285486 -0.256964 0.000000 -0.285486 -0.256964 0.271085 -0.285486 0.256964 0.271085 -0.285486 0.256964 0.000000 -0.285486 0.256964 0.000000 -0.285486 0.256964 0.271085 0.285486 0.256964 0.271085 0.285486 0.256964 0.000000 0.285486 0.256964 0.000000 0.285486 0.256964 0.271085 0.285486 -0.256964 0.271085 0.285486 -0.256964 0.000000 0.285486 -0.256964 0.000000 0.285486 -0.256964 0.271085 -0.285486 -0.256964 0.271085 -0.285486 -0.256964 0.000000 0.285486 0.256964 0.000000 0.285486 -0.256964 0.000000 0.285486 0.256964 0.271085 0.285486 -0.256964 0.271085 " />
									<Normal vector="-0.577349 -0.577349 -0.577349 -0.577349 -0.577349 0.577349 -0.577349 0.577349 0.577349 -0.577349 0.577349 -0.577349 -0.577349 0.577349 -0.577349 -0.577349 0.577349 0.577349 0.577349 0.577349 0.577349 0.577349 0.577349 -0.577349 0.577349 0.577349 -0.577349 0.577349 0.577349 0.577349 0.577349 -0.577349 0.577349 0.577349 -0.577349 -0.577349 0.577349 -0.577349 -0.577349 0.577349 -0.577349 0.577349 -0.577349 -0.577349 0.577349 -0.577349 -0.577349 -0.577349 0.577349 0.577349 -0.577349 0.577349 -0.577349 -0.577349 0.577349 0.577349 0.577349 0.577349 -0.577349 0.577349 " />
									<TextureCoordinate point="0.0210 0.5313 0.9790 0.5313 0.9790 0.9707 0.0210 0.9707 0.0210 0.5313 0.9790 0.5313 0.9790 0.9707 0.0210 0.9707 0.0210 0.5313 0.9790 0.5313 0.9790 0.9707 0.0210 0.9707 0.0210 0.5313 0.9790 0.5313 0.9790 0.9707 0.0210 0.9707 0.9790 0.5313 0.9790 0.9707 0.0210 0.5313 0.0210 0.9707 " />
								</IndexedTriangleSet>
							</Shape>
						</Group>
					</Transform>
					<Transform DEF="head_TRANSFORM"
					           translation="0.000000 -0.029961 0.210388"
					           scale="1.000000 1.000000 1.000000"
					           rotation="0.000000 1.000000 0.000000 0.000000"
					           >
						<Transform DEF="head_ifs_TRANSFORM"
						           translation="0.000000 0.000000 0.000000"
						           scale="1.000000 1.000000 1.000000"
						           rotation="0.000000 1.000000 0.000000 0.000000"
						           >
							<Group DEF="group_ME_head">
								<Shape>
									<Appearance>
										<Material USE="MA_Body" />
									</Appearance>
									<IndexedTriangleSet solid="false"
									                    normalPerVertex="true"
									                    index="0 1 2 0 2 3 4 5 6 4 6 7 8 9 10 8 10 11 12 13 14 12 14 15 16 17 18 16 18 19 20 21 14 20 14 22 23 5 24 23 24 25 26 27 28 26 28 29 30 31 32 30 32 33 34 35 36 34 36 37 38 39 24 38 24 40 41 42 28 41 28 43 44 21 45 44 45 46 47 48 49 47 49 50 51 27 52 51 52 53 54 55 56 54 56 57 58 59 60 58 60 61 62 63 64 62 64 65 66 67 68 66 68 69 70 71 72 70 72 73 74 48 60 74 60 75 76 55 64 76 64 77 78 79 80 78 80 81 82 83 84 82 84 85 86 87 88 86 88 89 90 91 92 90 92 93 94 95 96 94 96 97 98 99 100 98 100 101 102 103 104 102 104 105 106 107 108 106 108 109 110 111 112 110 112 113 114 115 116 114 116 117 118 119 120 118 120 121 16 122 123 16 123 124 125 126 127 125 127 128 129 130 131 129 131 33 132 133 134 132 134 19 135 136 137 135 137 69 30 138 139 30 139 140 34 141 142 34 142 143 66 144 145 66 145 146 70 147 148 70 148 149 150 151 152 150 152 37 153 154 155 153 155 73 "
									                    >
										<Coordinate point="-1.803063 -1.528158 1.821181 -1.803063 -1.528158 2.185950 -1.803063 1.374408 2.185950 -1.803063 1.374408 1.821181 1.559360 1.374408 1.821181 1.559360 1.374408 2.185950 1.803063 1.374408 2.185950 1.803063 1.374408 1.821181 1.803063 1.374408 1.821181 1.803063 1.374408 2.185950 1.803063 -1.528158 2.185950 1.803063 -1.528158 1.821181 -1.559360 -1.528158 1.821181 -1.559360 -1.528158 2.185950 -1.803063 -1.528158 2.185950 -1.803063 -1.528158 1.821181 1.559360 1.374408 0.000000 1.803063 1.374408 0.000000 1.803063 -1.528158 0.000000 1.559360 -1.528158 0.000000 -1.559360 1.374408 2.185950 -1.803063 1.374408 2.185950 -1.559360 -1.528158 2.185950 1.803063 1.374408 2.185950 1.559360 -1.528158 2.185950 1.803063 -1.528158 2.185950 -0.235795 1.374408 2.185950 -1.559360 1.374408 2.185950 -1.559360 -1.528158 2.185950 -0.235795 -1.528158 2.185950 -1.803063 1.374408 0.000000 -1.559360 1.374408 0.000000 -1.559360 -1.528158 0.000000 -1.803063 -1.528158 0.000000 0.235795 1.374408 0.000000 1.559360 1.374408 0.000000 1.559360 -1.528158 0.000000 0.235795 -1.528158 0.000000 1.803063 -1.528158 1.821181 1.803063 -1.528158 2.185950 1.559360 -1.528158 1.821181 -0.235795 -1.528158 1.821181 -0.235795 -1.528158 2.185950 -1.559360 -1.528158 1.821181 -1.803063 1.374408 1.821181 -1.559360 1.374408 2.185950 -1.559360 1.374408 1.821181 0.235795 1.374408 1.821181 0.235795 1.374408 2.185950 1.559360 1.374408 2.185950 1.559360 1.374408 1.821181 -1.559360 1.374408 1.821181 -0.235795 1.374408 2.185950 -0.235795 1.374408 1.821181 -0.235795 1.374408 1.821181 -0.235795 1.374408 2.185950 0.235795 1.374408 2.185950 0.235795 1.374408 1.821181 1.559360 -1.528158 1.821181 1.559360 -1.528158 2.185950 0.235795 -1.528158 2.185950 0.235795 -1.528158 1.821181 0.235795 -1.528158 1.821181 0.235795 -1.528158 2.185950 -0.235795 -1.528158 2.185950 -0.235795 -1.528158 1.821181 -1.559360 1.374408 0.000000 -0.235795 1.374408 0.000000 -0.235795 -1.528158 0.000000 -1.559360 -1.528158 0.000000 -0.235795 1.374408 0.000000 0.235795 1.374408 0.000000 0.235795 -1.528158 0.000000 -0.235795 -1.528158 0.000000 1.559360 1.374408 2.185950 1.559360 -1.528158 2.185950 0.235795 1.374408 2.185950 0.235795 -1.528158 2.185950 0.235795 -1.528158 0.889632 0.235795 -1.528158 1.821181 -0.235795 -1.528158 1.821181 -0.235795 -1.528158 0.889632 -0.235795 1.374408 0.889632 -0.235795 1.374408 1.821181 0.235795 1.374408 1.821181 0.235795 1.374408 0.889632 -1.559360 1.374408 0.889632 -1.559360 1.374408 1.821181 -0.235795 1.374408 1.821181 -0.235795 1.374408 0.889632 0.235795 1.374408 0.889632 0.235795 1.374408 1.821181 1.559360 1.374408 1.821181 1.559360 1.374408 0.889632 -1.803063 1.374408 0.889632 -1.803063 1.374408 1.821181 -1.559360 1.374408 1.821181 -1.559360 1.374408 0.889632 1.803063 -1.528158 0.889632 1.803063 -1.528158 1.821181 1.559360 -1.528158 1.821181 1.559360 -1.528158 0.889632 -1.559360 -1.528158 0.889632 -1.559360 -1.528158 1.821181 -1.803063 -1.528158 1.821181 -1.803063 -1.528158 0.889632 1.803063 1.374408 0.889632 1.803063 1.374408 1.821181 1.803063 -1.528158 1.821181 1.803063 -1.528158 0.889632 1.559360 1.374408 0.889632 1.559360 1.374408 1.821181 1.803063 1.374408 1.821181 1.803063 1.374408 0.889632 -1.803063 -1.528158 0.889632 -1.803063 -1.528158 1.821181 -1.803063 1.374408 1.821181 -1.803063 1.374408 0.889632 -1.803063 -1.528158 0.000000 -1.803063 -1.528158 0.889632 -1.803063 1.374408 0.889632 -1.803063 1.374408 0.000000 1.559360 1.374408 0.889632 1.803063 1.374408 0.889632 1.803063 1.374408 0.000000 1.803063 1.374408 0.000000 1.803063 1.374408 0.889632 1.803063 -1.528158 0.889632 1.803063 -1.528158 0.000000 -1.559360 -1.528158 0.000000 -1.559360 -1.528158 0.889632 -1.803063 -1.528158 0.889632 1.803063 -1.528158 0.000000 1.803063 -1.528158 0.889632 1.559360 -1.528158 0.889632 -0.235795 -1.528158 0.000000 -0.235795 -1.528158 0.889632 -1.559360 -1.528158 0.889632 -1.803063 1.374408 0.889632 -1.559360 1.374408 0.889632 -1.559360 1.374408 0.000000 0.235795 1.374408 0.889632 1.559360 1.374408 0.889632 1.559360 1.374408 0.000000 -1.559360 1.374408 0.889632 -0.235795 1.374408 0.889632 -0.235795 1.374408 0.000000 -0.235795 1.374408 0.889632 0.235795 1.374408 0.889632 0.235795 1.374408 0.000000 1.559360 -1.528158 0.000000 1.559360 -1.528158 0.889632 0.235795 -1.528158 0.889632 0.235795 -1.528158 0.000000 0.235795 -1.528158 0.889632 -0.235795 -1.528158 0.889632 " />
										<Normal vector="-0.707083 -0.707083 0.000000 -0.577349 -0.577349 0.577349 -0.577349 0.577349 0.577349 -0.707083 0.707083 0.000000 0.000000 1.000000 0.000000 0.000000 0.707083 0.707083 0.577349 0.577349 0.577349 0.707083 0.707083 0.000000 0.707083 0.707083 0.000000 0.577349 0.577349 0.577349 0.577349 -0.577349 0.577349 0.707083 -0.707083 0.000000 0.000000 -1.000000 0.000000 0.000000 -0.707083 0.707083 -0.577349 -0.577349 0.577349 -0.707083 -0.707083 0.000000 0.000000 0.707083 -0.707083 0.577349 0.577349 -0.577349 0.577349 -0.577349 -0.577349 0.000000 -0.707083 -0.707083 0.000000 0.707083 0.707083 -0.577349 0.577349 0.577349 0.000000 -0.707083 0.707083 0.577349 0.577349 0.577349 0.000000 -0.707083 0.707083 0.577349 -0.577349 0.577349 0.000000 0.707083 0.707083 0.000000 0.707083 0.707083 0.000000 -0.707083 0.707083 0.000000 -0.707083 0.707083 -0.577349 0.577349 -0.577349 0.000000 0.707083 -0.707083 0.000000 -0.707083 -0.707083 -0.577349 -0.577349 -0.577349 0.000000 0.707083 -0.707083 0.000000 0.707083 -0.707083 0.000000 -0.707083 -0.707083 0.000000 -0.707083 -0.707083 0.707083 -0.707083 0.000000 0.577349 -0.577349 0.577349 0.000000 -1.000000 0.000000 0.000000 -1.000000 0.000000 0.000000 -0.707083 0.707083 0.000000 -1.000000 0.000000 -0.707083 0.707083 0.000000 0.000000 0.707083 0.707083 0.000000 1.000000 0.000000 0.000000 1.000000 0.000000 0.000000 0.707083 0.707083 0.000000 0.707083 0.707083 0.000000 1.000000 0.000000 0.000000 1.000000 0.000000 0.000000 0.707083 0.707083 0.000000 1.000000 0.000000 0.000000 1.000000 0.000000 0.000000 0.707083 0.707083 0.000000 0.707083 0.707083 0.000000 1.000000 0.000000 0.000000 -1.000000 0.000000 0.000000 -0.707083 0.707083 0.000000 -0.707083 0.707083 0.000000 -1.000000 0.000000 0.000000 -1.000000 0.000000 0.000000 -0.707083 0.707083 0.000000 -0.707083 0.707083 0.000000 -1.000000 0.000000 0.000000 0.707083 -0.707083 0.000000 0.707083 -0.707083 0.000000 -0.707083 -0.707083 0.000000 -0.707083 -0.707083 0.000000 0.707083 -0.707083 0.000000 0.707083 -0.707083 0.000000 -0.707083 -0.707083 0.000000 -0.707083 -0.707083 0.000000 0.707083 0.707083 0.000000 -0.707083 0.707083 0.000000 0.707083 0.707083 0.000000 -0.707083 0.707083 0.000000 -1.000000 0.000000 0.000000 -1.000000 0.000000 0.000000 -1.000000 0.000000 0.000000 -1.000000 0.000000 0.000000 1.000000 0.000000 0.000000 1.000000 0.000000 0.000000 1.000000 0.000000 0.000000 1.000000 0.000000 0.000000 1.000000 0.000000 0.000000 1.000000 0.000000 0.000000 1.000000 0.000000 0.000000 1.000000 0.000000 0.000000 1.000000 0.000000 0.000000 1.000000 0.000000 0.000000 1.000000 0.000000 0.000000 1.000000 0.000000 -0.707083 0.707083 0.000000 -0.707083 0.707083 0.000000 0.000000 1.000000 0.000000 0.000000 1.000000 0.000000 0.707083 -0.707083 0.000000 0.707083 -0.707083 0.000000 0.000000 -1.000000 0.000000 0.000000 -1.000000 0.000000 0.000000 -1.000000 0.000000 0.000000 -1.000000 0.000000 -0.707083 -0.707083 0.000000 -0.707083 -0.707083 0.000000 0.707083 0.707083 0.000000 0.707083 0.707083 0.000000 0.707083 -0.707083 0.000000 0.707083 -0.707083 0.000000 0.000000 1.000000 0.000000 0.000000 1.000000 0.000000 0.707083 0.707083 0.000000 0.707083 0.707083 0.000000 -0.707083 -0.707083 0.000000 -0.707083 -0.707083 0.000000 -0.707083 0.707083 0.000000 -0.707083 0.707083 0.000000 -0.577349 -0.577349 -0.577349 -0.707083 -0.707083 0.000000 -0.707083 0.707083 0.000000 -0.577349 0.577349 -0.577349 0.000000 1.000000 0.000000 0.707083 0.707083 0.000000 0.577349 0.577349 -0.577349 0.577349 0.577349 -0.577349 0.707083 0.707083 0.000000 0.707083 -0.707083 0.000000 0.577349 -0.577349 -0.577349 0.000000 -0.707083 -0.707083 0.000000 -1.000000 0.000000 -0.707083 -0.707083 0.000000 0.577349 -0.577349 -0.577349 0.707083 -0.707083 0.000000 0.000000 -1.000000 0.000000 0.000000 -0.707083 -0.707083 0.000000 -1.000000 0.000000 0.000000 -1.000000 0.000000 -0.707083 0.707083 0.000000 0.000000 1.000000 0.000000 0.000000 0.707083 -0.707083 0.000000 1.000000 0.000000 0.000000 1.000000 0.000000 0.000000 0.707083 -0.707083 0.000000 1.000000 0.000000 0.000000 1.000000 0.000000 0.000000 0.707083 -0.707083 0.000000 1.000000 0.000000 0.000000 1.000000 0.000000 0.000000 0.707083 -0.707083 0.000000 -0.707083 -0.707083 0.000000 -1.000000 0.000000 0.000000 -1.000000 0.000000 0.000000 -0.707083 -0.707083 0.000000 -1.000000 0.000000 0.000000 -1.000000 0.000000 " />
										<TextureCoordinate point="0.0210 0.5313 0.9790 0.5313 0.9790 0.9707 0.0210 0.9707 0.0210 0.5313 0.9790 0.5313 0.9790 0.9707 0.0210 0.9707 0.0210 0.5313 0.9790 0.5313 0.9790 0.9707 0.0210 0.9707 0.0210 0.5313 0.9790 0.5313 0.9790 0.9707 0.0210 0.9707 0.0210 0.5313 0.9790 0.5313 0.9790 0.9707 0.0210 0.9707 0.0210 0.5313 0.9790 0.5313 0.0210 0.9707 0.0210 0.5313 0.9790 0.9707 0.0210 0.9707 0.0210 0.5313 0.9790 0.5313 0.9790 0.9707 0.0210 0.9707 0.0210 0.5313 0.9790 0.5313 0.9790 0.9707 0.0210 0.9707 0.0210 0.5313 0.9790 0.5313 0.9790 0.9707 0.0210 0.9707 0.0210 0.5313 0.9790 0.5313 0.0210 0.9707 0.0210 0.5313 0.9790 0.5313 0.0210 0.9707 0.0210 0.5313 0.9790 0.9707 0.0210 0.9707 0.0210 0.5313 0.9790 0.5313 0.9790 0.9707 0.0210 0.9707 0.0210 0.5313 0.9790 0.9707 0.0210 0.9707 0.0210 0.5313 0.9790 0.5313 0.9790 0.9707 0.0210 0.9707 0.0210 0.5313 0.9790 0.5313 0.9790 0.9707 0.0210 0.9707 0.0210 0.5313 0.9790 0.5313 0.9790 0.9707 0.0210 0.9707 0.0210 0.5313 0.9790 0.5313 0.9790 0.9707 0.0210 0.9707 0.0210 0.5313 0.9790 0.5313 0.9790 0.9707 0.0210 0.9707 0.0210 0.5313 0.0210 0.9707 0.0210 0.5313 0.0210 0.9707 0.0210 0.5313 0.9790 0.5313 0.9790 0.9707 0.0210 0.9707 0.0210 0.5313 0.9790 0.5313 0.9790 0.9707 0.0210 0.9707 0.0210 0.5313 0.9790 0.5313 0.9790 0.9707 0.0210 0.9707 0.0210 0.5313 0.9790 0.5313 0.9790 0.9707 0.0210 0.9707 0.0210 0.5313 0.9790 0.5313 0.9790 0.9707 0.0210 0.9707 0.0210 0.5313 0.9790 0.5313 0.9790 0.9707 0.0210 0.9707 0.0210 0.5313 0.9790 0.5313 0.9790 0.9707 0.0210 0.9707 0.0210 0.5313 0.9790 0.5313 0.9790 0.9707 0.0210 0.9707 0.0210 0.5313 0.9790 0.5313 0.9790 0.9707 0.0210 0.9707 0.0210 0.5313 0.9790 0.5313 0.9790 0.9707 0.0210 0.9707 0.0210 0.5313 0.9790 0.5313 0.9790 0.9707 0.0210 0.9707 0.9790 0.5313 0.9790 0.9707 0.0210 0.9707 0.0210 0.5313 0.9790 0.5313 0.9790 0.9707 0.0210 0.9707 0.0210 0.5313 0.9790 0.5313 0.9790 0.9707 0.0210 0.5313 0.9790 0.5313 0.9790 0.9707 0.0210 0.5313 0.9790 0.5313 0.9790 0.9707 0.9790 0.5313 0.9790 0.9707 0.0210 0.9707 0.9790 0.5313 0.9790 0.9707 0.0210 0.9707 0.9790 0.5313 0.9790 0.9707 0.0210 0.9707 0.9790 0.5313 0.9790 0.9707 0.0210 0.9707 0.0210 0.5313 0.9790 0.5313 0.9790 0.9707 0.0210 0.5313 0.9790 0.5313 0.9790 0.9707 " />
									</IndexedTriangleSet>
								</Shape>
								<Shape>
									<Appearance>
										<Material DEF="MA_Eye"
										          diffuseColor="0.800 0.800 0.800"
										          specularColor="0.401 0.401 0.401"
										          emissiveColor="0.000 0.000 0.000"
										          ambientIntensity="0.000"
										          shininess="0.500"
										          transparency="0.0"
										          />
									</Appearance>
									<IndexedTriangleSet solid="false"
									                    normalPerVertex="true"
									                    index="0 1 2 0 2 3 4 5 6 4 6 7 "
									                    >
										<Coordinate point="1.559360 -1.528158 0.889632 1.559360 -1.528158 1.821181 0.235795 -1.528158 1.821181 0.235795 -1.528158 0.889632 -0.235795 -1.528158 0.889632 -0.235795 -1.528158 1.821181 -1.559360 -1.528158 1.821181 -1.559360 -1.528158 0.889632 " />
										<Normal vector="0.000000 -1.000000 0.000000 0.000000 -1.000000 0.000000 0.000000 -1.000000 0.000000 0.000000 -1.000000 0.000000 0.000000 -1.000000 0.000000 0.000000 -1.000000 0.000000 0.000000 -1.000000 0.000000 0.000000 -1.000000 0.000000 " />
										<TextureCoordinate point="0.9679 0.5599 0.9679 0.9049 0.0321 0.9049 0.0321 0.5599 0.0321 0.5599 0.0321 0.9049 0.9679 0.9049 0.9679 0.5599 " />
									</IndexedTriangleSet>
								</Shape>
							</Group>
						</Transform>
						<Transform DEF="Cube_005_TRANSFORM"
						           translation="0.000000 0.000000 1.961095"
						           scale="1.000000 1.000000 1.000000"
						           rotation="0.000000 1.000000 0.000000 0.000000"
						           >
							<Transform DEF="Cube_005_ifs_TRANSFORM"
							           translation="0.000000 0.000000 0.000000"
							           scale="1.000000 1.000000 1.000000"
							           rotation="0.000000 1.000000 0.000000 0.000000"
							           >
								<Group DEF="group_ME_Cube_007">
									<Shape>
										<Appearance>
											<Material USE="MA_Body" />
										</Appearance>
										<IndexedTriangleSet solid="false"
										                    normalPerVertex="true"
										                    index="0 1 2 0 2 3 4 5 6 4 6 7 8 9 10 8 10 11 12 13 14 12 14 15 4 16 17 4 17 15 18 5 14 18 14 19 "
										                    >
											<Coordinate point="-1.336691 -1.177511 0.000000 -1.336691 -1.177511 0.962183 -1.336691 1.059040 0.962183 -1.336691 1.059040 0.000000 -1.336691 1.059040 0.000000 -1.336691 1.059040 0.962183 1.336691 1.059040 0.962183 1.336691 1.059040 0.000000 1.336691 1.059040 0.000000 1.336691 1.059040 0.962183 1.336691 -1.177511 0.962183 1.336691 -1.177511 0.000000 1.336691 -1.177511 0.000000 1.336691 -1.177511 0.962183 -1.336691 -1.177511 0.962183 -1.336691 -1.177511 0.000000 1.336691 1.059040 0.000000 1.336691 -1.177511 0.000000 1.336691 1.059040 0.962183 1.336691 -1.177511 0.962183 " />
											<Normal vector="-0.577349 -0.577349 -0.577349 -0.577349 -0.577349 0.577349 -0.577349 0.577349 0.577349 -0.577349 0.577349 -0.577349 -0.577349 0.577349 -0.577349 -0.577349 0.577349 0.577349 0.577349 0.577349 0.577349 0.577349 0.577349 -0.577349 0.577349 0.577349 -0.577349 0.577349 0.577349 0.577349 0.577349 -0.577349 0.577349 0.577349 -0.577349 -0.577349 0.577349 -0.577349 -0.577349 0.577349 -0.577349 0.577349 -0.577349 -0.577349 0.577349 -0.577349 -0.577349 -0.577349 0.577349 0.577349 -0.577349 0.577349 -0.577349 -0.577349 0.577349 0.577349 0.577349 0.577349 -0.577349 0.577349 " />
											<TextureCoordinate point="0.0210 0.5313 0.9790 0.5313 0.9790 0.9707 0.0210 0.9707 0.0210 0.5313 0.9790 0.5313 0.9790 0.9707 0.0210 0.9707 0.0210 0.5313 0.9790 0.5313 0.9790 0.9707 0.0210 0.9707 0.0210 0.5313 0.9790 0.5313 0.9790 0.9707 0.0210 0.9707 0.9790 0.5313 0.9790 0.9707 0.0210 0.5313 0.0210 0.9707 " />
										</IndexedTriangleSet>
									</Shape>
								</Group>
							</Transform>
							<Transform DEF="Cube_006_TRANSFORM"
							           translation="0.000000 -0.164341 0.668874"
							           scale="1.000000 1.000000 1.000000"
							           rotation="0.000000 1.000000 0.000000 0.000000"
							           >
								<Transform DEF="Cube_006_ifs_TRANSFORM"
								           translation="0.000000 0.000000 0.000000"
								           scale="1.000000 1.000000 1.000000"
								           rotation="0.000000 1.000000 0.000000 0.000000"
								           >
									<Group DEF="group_ME_Cube_008">
										<Shape>
											<Appearance>
												<Material USE="MA_Body" />
											</Appearance>
											<IndexedTriangleSet solid="false"
											                    normalPerVertex="true"
											                    index="0 1 2 0 2 3 4 5 6 4 6 7 8 9 10 8 10 11 12 13 14 12 14 15 4 16 17 4 17 15 18 5 14 18 14 19 "
											                    >
												<Coordinate point="-0.475719 -0.494022 0.194303 -0.475719 -0.038727 1.351908 -0.475719 0.899614 0.982851 -0.475719 0.444318 -0.174754 -0.475719 0.444318 -0.174754 -0.475719 0.899614 0.982851 0.475719 0.899614 0.982851 0.475719 0.444318 -0.174754 0.475719 0.444318 -0.174754 0.475719 0.899614 0.982851 0.475719 -0.038727 1.351908 0.475719 -0.494022 0.194303 0.475719 -0.494022 0.194303 0.475719 -0.038727 1.351908 -0.475719 -0.038727 1.351908 -0.475719 -0.494022 0.194303 0.475719 0.444318 -0.174754 0.475719 -0.494022 0.194303 0.475719 0.899614 0.982851 0.475719 -0.038727 1.351908 " />
												<Normal vector="-0.577349 -0.748589 -0.325938 -0.577349 -0.325938 0.748589 -0.577349 0.748589 0.325938 -0.577349 0.325938 -0.748589 -0.577349 0.325938 -0.748589 -0.577349 0.748589 0.325938 0.577349 0.748589 0.325938 0.577349 0.325938 -0.748589 0.577349 0.325938 -0.748589 0.577349 0.748589 0.325938 0.577349 -0.325938 0.748589 0.577349 -0.748589 -0.325938 0.577349 -0.748589 -0.325938 0.577349 -0.325938 0.748589 -0.577349 -0.325938 0.748589 -0.577349 -0.748589 -0.325938 0.577349 0.325938 -0.748589 0.577349 -0.748589 -0.325938 0.577349 0.748589 0.325938 0.577349 -0.325938 0.748589 " />
												<TextureCoordinate point="0.0210 0.5313 0.9790 0.5313 0.9790 0.9707 0.0210 0.9707 0.0210 0.5313 0.9790 0.5313 0.9790 0.9707 0.0210 0.9707 0.0210 0.5313 0.9790 0.5313 0.9790 0.9707 0.0210 0.9707 0.0210 0.5313 0.9790 0.5313 0.9790 0.9707 0.0210 0.9707 0.9790 0.5313 0.9790 0.9707 0.0210 0.5313 0.0210 0.9707 " />
											</IndexedTriangleSet>
										</Shape>
									</Group>
								</Transform>
							</Transform>
							<Transform DEF="Cube_007_TRANSFORM"
							           translation="1.190940 -0.178264 -0.046250"
							           scale="1.000000 1.000000 1.000000"
							           rotation="0.000000 1.000000 0.000000 0.000000"
							           >
								<Transform DEF="Cube_007_ifs_TRANSFORM"
								           translation="0.000000 0.000000 0.000000"
								           scale="1.000000 1.000000 1.000000"
								           rotation="0.000000 1.000000 0.000000 0.000000"
								           >
									<Group DEF="group_ME_Cube_009">
										<Shape>
											<Appearance>
												<Material USE="MA_Body" />
											</Appearance>
											<IndexedTriangleSet solid="false"
											                    normalPerVertex="true"
											                    index="0 1 2 0 2 3 4 5 6 4 6 7 8 9 10 8 10 11 12 13 14 12 14 15 4 16 17 4 17 15 18 5 14 18 14 19 "
											                    >
												<Coordinate point="-0.303758 -0.279384 0.413818 0.263898 0.233068 1.176475 0.098768 0.782679 0.930083 -0.468887 0.270226 0.167426 -0.468887 0.270226 0.167426 0.098768 0.782679 0.930083 0.880161 0.762724 0.361891 0.312505 0.250271 -0.400766 0.312505 0.250271 -0.400766 0.880161 0.762724 0.361891 1.045290 0.213113 0.608283 0.477634 -0.299339 -0.154374 0.477634 -0.299339 -0.154374 1.045290 0.213113 0.608283 0.263898 0.233068 1.176475 -0.303758 -0.279384 0.413818 0.312505 0.250271 -0.400766 0.477634 -0.299339 -0.154374 0.880161 0.762724 0.361891 1.045290 0.213113 0.608283 " />
												<Normal vector="-0.617634 -0.770074 0.159551 -0.010743 -0.222205 0.974914 -0.316050 0.793939 0.519364 -0.922941 0.246040 -0.295969 -0.922941 0.246040 -0.295969 -0.316050 0.793939 0.519364 0.617634 0.770074 -0.159551 0.010743 0.222205 -0.974914 0.010743 0.222205 -0.974914 0.617634 0.770074 -0.159551 0.922941 -0.246040 0.295969 0.316050 -0.793939 -0.519364 0.316050 -0.793939 -0.519364 0.922941 -0.246040 0.295969 -0.010743 -0.222205 0.974914 -0.617634 -0.770074 0.159551 0.010743 0.222205 -0.974914 0.316050 -0.793939 -0.519364 0.617634 0.770074 -0.159551 0.922941 -0.246040 0.295969 " />
												<TextureCoordinate point="0.0210 0.5313 0.9790 0.5313 0.9790 0.9707 0.0210 0.9707 0.0210 0.5313 0.9790 0.5313 0.9790 0.9707 0.0210 0.9707 0.0210 0.5313 0.9790 0.5313 0.9790 0.9707 0.0210 0.9707 0.0210 0.5313 0.9790 0.5313 0.9790 0.9707 0.0210 0.9707 0.9790 0.5313 0.9790 0.9707 0.0210 0.5313 0.0210 0.9707 " />
											</IndexedTriangleSet>
										</Shape>
									</Group>
								</Transform>
							</Transform>
							<Transform DEF="Cube_008_TRANSFORM"
							           translation="0.000000 0.682877 0.253461"
							           scale="1.000000 1.000000 1.000000"
							           rotation="0.000000 1.000000 0.000000 0.000000"
							           >
								<Transform DEF="Cube_008_ifs_TRANSFORM"
								           translation="0.000000 0.000000 0.000000"
								           scale="1.000000 1.000000 1.000000"
								           rotation="0.000000 1.000000 0.000000 0.000000"
								           >
									<Group DEF="group_ME_Cube_012">
										<Shape>
											<Appearance>
												<Material USE="MA_Body" />
											</Appearance>
											<IndexedTriangleSet solid="false"
											                    normalPerVertex="true"
											                    index="0 1 2 0 2 3 4 5 6 4 6 7 8 9 10 8 10 11 12 13 14 12 14 15 4 16 17 4 17 15 18 5 14 18 14 19 "
											                    >
												<Coordinate point="-1.140979 -0.281464 -0.637534 -1.140979 0.281464 0.637534 -1.140979 1.408967 0.139755 -1.140979 0.846039 -1.135314 -1.140979 0.846039 -1.135314 -1.140979 1.408967 0.139755 1.140979 1.408967 0.139755 1.140979 0.846039 -1.135314 1.140979 0.846039 -1.135314 1.140979 1.408967 0.139755 1.140979 0.281464 0.637534 1.140979 -0.281464 -0.637534 1.140979 -0.281464 -0.637534 1.140979 0.281464 0.637534 -1.140979 0.281464 0.637534 -1.140979 -0.281464 -0.637534 1.140979 0.846039 -1.135314 1.140979 -0.281464 -0.637534 1.140979 1.408967 0.139755 1.140979 0.281464 0.637534 " />
												<Normal vector="-0.577349 -0.761345 -0.294961 -0.577349 -0.294961 0.761345 -0.577349 0.761345 0.294961 -0.577349 0.294961 -0.761345 -0.577349 0.294961 -0.761345 -0.577349 0.761345 0.294961 0.577349 0.761345 0.294961 0.577349 0.294961 -0.761345 0.577349 0.294961 -0.761345 0.577349 0.761345 0.294961 0.577349 -0.294961 0.761345 0.577349 -0.761345 -0.294961 0.577349 -0.761345 -0.294961 0.577349 -0.294961 0.761345 -0.577349 -0.294961 0.761345 -0.577349 -0.761345 -0.294961 0.577349 0.294961 -0.761345 0.577349 -0.761345 -0.294961 0.577349 0.761345 0.294961 0.577349 -0.294961 0.761345 " />
												<TextureCoordinate point="0.0210 0.5313 0.9790 0.5313 0.9790 0.9707 0.0210 0.9707 0.0210 0.5313 0.9790 0.5313 0.9790 0.9707 0.0210 0.9707 0.0210 0.5313 0.9790 0.5313 0.9790 0.9707 0.0210 0.9707 0.0210 0.5313 0.9790 0.5313 0.9790 0.9707 0.0210 0.9707 0.9790 0.5313 0.9790 0.9707 0.0210 0.5313 0.0210 0.9707 " />
											</IndexedTriangleSet>
										</Shape>
									</Group>
								</Transform>
							</Transform>
							<Transform DEF="Cube_001_TRANSFORM"
							           translation="-1.190940 -0.178264 -0.046250"
							           scale="1.000000 1.000000 1.000000"
							           rotation="0.000000 1.000000 0.000000 0.000000"
							           >
								<Transform DEF="Cube_001_ifs_TRANSFORM"
								           translation="0.000000 0.000000 0.000000"
								           scale="1.000000 1.000000 1.000000"
								           rotation="0.000000 1.000000 0.000000 0.000000"
								           >
									<Group DEF="group_ME_Cube_002">
										<Shape>
											<Appearance>
												<Material USE="MA_Body" />
											</Appearance>
											<IndexedTriangleSet solid="false"
											                    normalPerVertex="true"
											                    index="0 1 2 0 2 3 4 5 6 4 6 7 8 9 10 8 10 11 12 13 14 12 14 15 4 13 16 4 16 17 18 19 14 18 14 7 "
											                    >
												<Coordinate point="0.303758 -0.279384 0.413818 0.468887 0.270226 0.167426 -0.098768 0.782679 0.930083 -0.263898 0.233068 1.176475 0.468887 0.270226 0.167426 -0.312505 0.250271 -0.400766 -0.880161 0.762724 0.361891 -0.098768 0.782679 0.930083 -0.312505 0.250271 -0.400766 -0.477634 -0.299339 -0.154374 -1.045290 0.213113 0.608283 -0.880161 0.762724 0.361891 -0.477634 -0.299339 -0.154374 0.303758 -0.279384 0.413818 -0.263898 0.233068 1.176475 -1.045290 0.213113 0.608283 -0.477634 -0.299339 -0.154374 -0.312505 0.250271 -0.400766 -0.880161 0.762724 0.361891 -1.045290 0.213113 0.608283 " />
												<Normal vector="0.617634 -0.770074 0.159551 0.922941 0.246040 -0.295969 0.316050 0.793939 0.519364 0.010743 -0.222205 0.974914 0.922941 0.246040 -0.295969 -0.010743 0.222205 -0.974914 -0.617634 0.770074 -0.159551 0.316050 0.793939 0.519364 -0.010743 0.222205 -0.974914 -0.316050 -0.793939 -0.519364 -0.922941 -0.246040 0.295969 -0.617634 0.770074 -0.159551 -0.316050 -0.793939 -0.519364 0.617634 -0.770074 0.159551 0.010743 -0.222205 0.974914 -0.922941 -0.246040 0.295969 -0.316050 -0.793939 -0.519364 -0.010743 0.222205 -0.974914 -0.617634 0.770074 -0.159551 -0.922941 -0.246040 0.295969 " />
												<TextureCoordinate point="0.0210 0.5313 0.0210 0.9707 0.9790 0.9707 0.9790 0.5313 0.0210 0.5313 0.0210 0.9707 0.9790 0.9707 0.9790 0.5313 0.0210 0.5313 0.0210 0.9707 0.9790 0.9707 0.9790 0.5313 0.0210 0.5313 0.0210 0.9707 0.9790 0.9707 0.9790 0.5313 0.9790 0.9707 0.9790 0.5313 0.0210 0.5313 0.0210 0.9707 " />
											</IndexedTriangleSet>
										</Shape>
									</Group>
								</Transform>
							</Transform>
						</Transform>
						<Transform DEF="hair_TRANSFORM"
						           translation="0.000000 1.575126 1.898351"
						           scale="1.000000 1.000000 1.000000"
						           rotation="0.000000 1.000000 0.000000 0.000000"
						           >
							<Transform DEF="hair_ifs_TRANSFORM"
							           translation="0.000000 0.000000 0.000000"
							           scale="1.000000 1.000000 1.000000"
							           rotation="0.000000 1.000000 0.000000 0.000000"
							           >
								<Group DEF="group_ME_hair">
									<Shape>
										<Appearance>
											<Material USE="MA_Body" />
										</Appearance>
										<IndexedTriangleSet solid="false"
										                    normalPerVertex="true"
										                    index="0 1 2 0 2 3 4 5 6 4 6 7 8 9 10 8 10 11 12 13 14 12 14 15 4 16 17 4 17 15 18 5 14 18 14 19 "
										                    >
											<Coordinate point="-0.973165 -0.369047 -0.285031 -0.973165 0.369047 0.285031 -0.973165 1.307034 -0.929439 -0.973165 0.568939 -1.499501 -0.973165 0.568939 -1.499501 -0.973165 1.307034 -0.929439 0.973165 1.307034 -0.929439 0.973165 0.568939 -1.499501 0.973165 0.568939 -1.499501 0.973165 1.307034 -0.929439 0.973165 0.369047 0.285031 0.973165 -0.369047 -0.285031 0.973165 -0.369047 -0.285031 0.973165 0.369047 0.285031 -0.973165 0.369047 0.285031 -0.973165 -0.369047 -0.285031 0.973165 0.568939 -1.499501 0.973165 -0.369047 -0.285031 0.973165 1.307034 -0.929439 0.973165 0.369047 0.285031 " />
											<Normal vector="-0.577349 -0.809839 0.104007 -0.577349 0.104007 0.809839 -0.577349 0.809839 -0.104007 -0.577349 -0.104007 -0.809839 -0.577349 -0.104007 -0.809839 -0.577349 0.809839 -0.104007 0.577349 0.809839 -0.104007 0.577349 -0.104007 -0.809839 0.577349 -0.104007 -0.809839 0.577349 0.809839 -0.104007 0.577349 0.104007 0.809839 0.577349 -0.809839 0.104007 0.577349 -0.809839 0.104007 0.577349 0.104007 0.809839 -0.577349 0.104007 0.809839 -0.577349 -0.809839 0.104007 0.577349 -0.104007 -0.809839 0.577349 -0.809839 0.104007 0.577349 0.809839 -0.104007 0.577349 0.104007 0.809839 " />
											<TextureCoordinate point="0.0210 0.5313 0.9790 0.5313 0.9790 0.9707 0.0210 0.9707 0.0210 0.5313 0.9790 0.5313 0.9790 0.9707 0.0210 0.9707 0.0210 0.5313 0.9790 0.5313 0.9790 0.9707 0.0210 0.9707 0.0210 0.5313 0.9790 0.5313 0.9790 0.9707 0.0210 0.9707 0.9790 0.5313 0.9790 0.9707 0.0210 0.5313 0.0210 0.9707 " />
										</IndexedTriangleSet>
									</Shape>
								</Group>
							</Transform>
							<Transform DEF="Cube_010_TRANSFORM"
							           translation="0.000000 0.859346 -1.142220"
							           scale="1.000000 1.000000 1.000000"
							           rotation="0.000000 1.000000 0.000000 0.000000"
							           >
								<Transform DEF="Cube_010_ifs_TRANSFORM"
								           translation="0.000000 0.000000 0.000000"
								           scale="1.000000 1.000000 1.000000"
								           rotation="0.000000 1.000000 0.000000 0.000000"
								           >
									<Group DEF="group_ME_Cube_018">
										<Shape>
											<Appearance>
												<Material USE="MA_Body" />
											</Appearance>
											<IndexedTriangleSet solid="false"
											                    normalPerVertex="true"
											                    index="0 1 2 0 2 3 4 5 6 4 6 7 8 9 10 8 10 11 12 13 14 12 14 15 4 16 17 4 17 15 18 5 14 18 14 19 "
											                    >
												<Coordinate point="-0.712458 -0.273532 -0.182753 -0.712458 0.273532 0.182753 -0.712458 0.961983 -0.847674 -0.712458 0.414920 -1.213180 -0.712458 0.414920 -1.213180 -0.712458 0.961983 -0.847674 0.712458 0.961983 -0.847674 0.712458 0.414920 -1.213180 0.712458 0.414920 -1.213180 0.712458 0.961983 -0.847674 0.712458 0.273532 0.182753 0.712458 -0.273532 -0.182753 0.712458 -0.273532 -0.182753 0.712458 0.273532 0.182753 -0.712458 0.273532 0.182753 -0.712458 -0.273532 -0.182753 0.712458 0.414920 -1.213180 0.712458 -0.273532 -0.182753 0.712458 0.961983 -0.847674 0.712458 0.273532 0.182753 " />
												<Normal vector="-0.577349 -0.800775 0.159307 -0.577349 0.159307 0.800775 -0.577349 0.800775 -0.159307 -0.577349 -0.159307 -0.800775 -0.577349 -0.159307 -0.800775 -0.577349 0.800775 -0.159307 0.577349 0.800775 -0.159307 0.577349 -0.159307 -0.800775 0.577349 -0.159307 -0.800775 0.577349 0.800775 -0.159307 0.577349 0.159307 0.800775 0.577349 -0.800775 0.159307 0.577349 -0.800775 0.159307 0.577349 0.159307 0.800775 -0.577349 0.159307 0.800775 -0.577349 -0.800775 0.159307 0.577349 -0.159307 -0.800775 0.577349 -0.800775 0.159307 0.577349 0.800775 -0.159307 0.577349 0.159307 0.800775 " />
												<TextureCoordinate point="0.0210 0.5313 0.9790 0.5313 0.9790 0.9707 0.0210 0.9707 0.0210 0.5313 0.9790 0.5313 0.9790 0.9707 0.0210 0.9707 0.0210 0.5313 0.9790 0.5313 0.9790 0.9707 0.0210 0.9707 0.0210 0.5313 0.9790 0.5313 0.9790 0.9707 0.0210 0.9707 0.9790 0.5313 0.9790 0.9707 0.0210 0.5313 0.0210 0.9707 " />
											</IndexedTriangleSet>
										</Shape>
									</Group>
								</Transform>
							</Transform>
							<Transform DEF="hair1_TRANSFORM"
							           translation="0.000000 1.316511 -2.068028"
							           scale="1.000000 1.000000 1.000000"
							           rotation="0.000000 1.000000 0.000000 0.000000"
							           >
								<Transform DEF="hair1_ifs_TRANSFORM"
								           translation="0.000000 0.000000 0.000000"
								           scale="1.000000 1.000000 1.000000"
								           rotation="0.000000 1.000000 0.000000 0.000000"
								           >
									<Group DEF="group_ME_hair1">
										<Shape>
											<Appearance>
												<Material USE="MA_Body" />
											</Appearance>
											<IndexedTriangleSet solid="false"
											                    normalPerVertex="true"
											                    index="0 1 2 0 2 3 4 5 6 4 6 7 8 9 10 8 10 11 12 13 14 12 14 15 4 16 17 4 17 15 18 5 14 18 14 19 "
											                    >
												<Coordinate point="-0.485242 0.033987 -0.192939 -0.485242 -0.033987 0.192939 -0.485242 1.287092 0.425651 -0.485242 1.355066 0.039773 -0.485242 1.355066 0.039773 -0.485242 1.287092 0.425651 0.485242 1.287092 0.425651 0.485242 1.355066 0.039773 0.485242 1.355066 0.039773 0.485242 1.287092 0.425651 0.485242 -0.033987 0.192939 0.485242 0.033987 -0.192939 0.485242 0.033987 -0.192939 0.485242 -0.033987 0.192939 -0.485242 -0.033987 0.192939 -0.485242 0.033987 -0.192939 0.485242 1.355066 0.039773 0.485242 0.033987 -0.192939 0.485242 1.287092 0.425651 0.485242 -0.033987 0.192939 " />
												<Normal vector="-0.577349 -0.468429 -0.668752 -0.577349 -0.668752 0.468429 -0.577349 0.468429 0.668752 -0.577349 0.668752 -0.468429 -0.577349 0.668752 -0.468429 -0.577349 0.468429 0.668752 0.577349 0.468429 0.668752 0.577349 0.668752 -0.468429 0.577349 0.668752 -0.468429 0.577349 0.468429 0.668752 0.577349 -0.668752 0.468429 0.577349 -0.468429 -0.668752 0.577349 -0.468429 -0.668752 0.577349 -0.668752 0.468429 -0.577349 -0.668752 0.468429 -0.577349 -0.468429 -0.668752 0.577349 0.668752 -0.468429 0.577349 -0.468429 -0.668752 0.577349 0.468429 0.668752 0.577349 -0.668752 0.468429 " />
												<TextureCoordinate point="0.0210 0.5313 0.9790 0.5313 0.9790 0.9707 0.0210 0.9707 0.0210 0.5313 0.9790 0.5313 0.9790 0.9707 0.0210 0.9707 0.0210 0.5313 0.9790 0.5313 0.9790 0.9707 0.0210 0.9707 0.0210 0.5313 0.9790 0.5313 0.9790 0.9707 0.0210 0.9707 0.9790 0.5313 0.9790 0.9707 0.0210 0.5313 0.0210 0.9707 " />
											</IndexedTriangleSet>
										</Shape>
									</Group>
								</Transform>
								<Transform DEF="hair2_TRANSFORM"
								           translation="0.000000 1.211985 0.213495"
								           scale="1.000000 1.000000 1.000000"
								           rotation="0.000000 1.000000 0.000000 0.000000"
								           >
									<Transform DEF="hair2_ifs_TRANSFORM"
									           translation="0.000000 0.000000 0.000000"
									           scale="1.000000 1.000000 1.000000"
									           rotation="0.000000 1.000000 0.000000 0.000000"
									           >
										<Group DEF="group_ME_hair2">
											<Shape>
												<Appearance>
													<Material USE="MA_Body" />
												</Appearance>
												<IndexedTriangleSet solid="false"
												                    normalPerVertex="true"
												                    index="0 1 2 0 2 3 4 5 6 4 6 7 8 9 10 8 10 11 12 13 14 12 14 15 4 16 17 4 17 15 18 5 14 18 14 19 "
												                    >
													<Coordinate point="-0.409250 -0.174034 -0.035132 -0.409250 0.174034 0.035132 -0.409250 0.412956 -1.148427 -0.409250 0.064887 -1.218690 -0.409250 0.064887 -1.218690 -0.409250 0.412956 -1.148427 0.409250 0.412956 -1.148427 0.409250 0.064887 -1.218690 0.409250 0.064887 -1.218690 0.409250 0.412956 -1.148427 0.409250 0.174034 0.035132 0.409250 -0.174034 -0.035132 0.409250 -0.174034 -0.035132 0.409250 0.174034 0.035132 -0.409250 0.174034 0.035132 -0.409250 -0.174034 -0.035132 0.409250 0.064887 -1.218690 0.409250 -0.174034 -0.035132 0.409250 0.412956 -1.148427 0.409250 0.174034 0.035132 " />
													<Normal vector="-0.577349 -0.680166 0.451674 -0.577349 0.451674 0.680166 -0.577349 0.680166 -0.451674 -0.577349 -0.451674 -0.680166 -0.577349 -0.451674 -0.680166 -0.577349 0.680166 -0.451674 0.577349 0.680166 -0.451674 0.577349 -0.451674 -0.680166 0.577349 -0.451674 -0.680166 0.577349 0.680166 -0.451674 0.577349 0.451674 0.680166 0.577349 -0.680166 0.451674 0.577349 -0.680166 0.451674 0.577349 0.451674 0.680166 -0.577349 0.451674 0.680166 -0.577349 -0.680166 0.451674 0.577349 -0.451674 -0.680166 0.577349 -0.680166 0.451674 0.577349 0.680166 -0.451674 0.577349 0.451674 0.680166 " />
													<TextureCoordinate point="0.0210 0.5313 0.9790 0.5313 0.9790 0.9707 0.0210 0.9707 0.0210 0.5313 0.9790 0.5313 0.9790 0.9707 0.0210 0.9707 0.0210 0.5313 0.9790 0.5313 0.9790 0.9707 0.0210 0.9707 0.0210 0.5313 0.9790 0.5313 0.9790 0.9707 0.0210 0.9707 0.9790 0.5313 0.9790 0.9707 0.0210 0.5313 0.0210 0.9707 " />
												</IndexedTriangleSet>
											</Shape>
										</Group>
									</Transform>
									<Transform DEF="hair3_TRANSFORM"
									           translation="0.000000 0.208415 -1.032435"
									           scale="1.000000 1.000000 1.000000"
									           rotation="0.000000 1.000000 0.000000 0.000000"
									           >
										<Transform DEF="hair3_ifs_TRANSFORM"
										           translation="0.000000 0.000000 0.000000"
										           scale="1.000000 1.000000 1.000000"
										           rotation="0.000000 1.000000 0.000000 0.000000"
										           >
											<Group DEF="group_ME_hair3">
												<Shape>
													<Appearance>
														<Material USE="MA_Body" />
													</Appearance>
													<IndexedTriangleSet solid="false"
													                    normalPerVertex="true"
													                    index="0 1 2 0 2 3 4 5 6 4 6 7 8 9 10 8 10 11 12 13 14 12 14 15 4 16 17 4 17 15 18 5 14 18 14 19 "
													                    >
														<Coordinate point="-0.328185 0.072020 -0.122818 -0.328185 -0.072020 0.122818 -0.328185 0.766766 0.614682 -0.328185 0.910807 0.369047 -0.328185 0.910807 0.369047 -0.328185 0.766766 0.614682 0.328185 0.766766 0.614682 0.328185 0.910807 0.369047 0.328185 0.910807 0.369047 0.328185 0.766766 0.614682 0.328185 -0.072020 0.122818 0.328185 0.072020 -0.122818 0.328185 0.072020 -0.122818 0.328185 -0.072020 0.122818 -0.328185 -0.072020 0.122818 -0.328185 0.072020 -0.122818 0.328185 0.910807 0.369047 0.328185 0.072020 -0.122818 0.328185 0.766766 0.614682 0.328185 -0.072020 0.122818 " />
														<Normal vector="-0.577349 -0.205969 -0.790063 -0.577349 -0.790063 0.205969 -0.577349 0.205969 0.790063 -0.577349 0.790063 -0.205969 -0.577349 0.790063 -0.205969 -0.577349 0.205969 0.790063 0.577349 0.205969 0.790063 0.577349 0.790063 -0.205969 0.577349 0.790063 -0.205969 0.577349 0.205969 0.790063 0.577349 -0.790063 0.205969 0.577349 -0.205969 -0.790063 0.577349 -0.205969 -0.790063 0.577349 -0.790063 0.205969 -0.577349 -0.790063 0.205969 -0.577349 -0.205969 -0.790063 0.577349 0.790063 -0.205969 0.577349 -0.205969 -0.790063 0.577349 0.205969 0.790063 0.577349 -0.790063 0.205969 " />
														<TextureCoordinate point="0.0210 0.5313 0.9790 0.5313 0.9790 0.9707 0.0210 0.9707 0.0210 0.5313 0.9790 0.5313 0.9790 0.9707 0.0210 0.9707 0.0210 0.5313 0.9790 0.5313 0.9790 0.9707 0.0210 0.9707 0.0210 0.5313 0.9790 0.5313 0.9790 0.9707 0.0210 0.9707 0.9790 0.5313 0.9790 0.9707 0.0210 0.5313 0.0210 0.9707 " />
													</IndexedTriangleSet>
												</Shape>
											</Group>
										</Transform>
										<Transform DEF="Cube_014_TRANSFORM"
										           translation="0.000000 0.744860 0.433056"
										           scale="1.000000 1.000000 1.000000"
										           rotation="0.000000 1.000000 0.000000 0.000000"
										           >
											<Transform DEF="Cube_014_ifs_TRANSFORM"
											           translation="0.000000 0.000000 0.000000"
											           scale="1.000000 1.000000 1.000000"
											           rotation="0.000000 1.000000 0.000000 0.000000"
											           >
												<Group DEF="group_ME_Cube_001">
													<Shape>
														<Appearance>
															<Material USE="MA_Body" />
														</Appearance>
														<IndexedTriangleSet solid="false"
														                    normalPerVertex="true"
														                    index="0 1 2 0 2 3 4 5 6 4 6 7 8 9 10 8 10 11 12 13 14 12 14 15 4 16 17 4 17 15 18 5 14 18 14 19 "
														                    >
															<Coordinate point="-0.232039 -0.083135 -0.035504 -0.232039 0.083135 0.035504 -0.232039 0.411867 -0.734252 -0.232039 0.245596 -0.805259 -0.232039 0.245596 -0.805259 -0.232039 0.411867 -0.734252 0.232039 0.411867 -0.734252 0.232039 0.245596 -0.805259 0.232039 0.245596 -0.805259 0.232039 0.411867 -0.734252 0.232039 0.083135 0.035504 0.232039 -0.083135 -0.035504 0.232039 -0.083135 -0.035504 0.232039 0.083135 0.035504 -0.232039 0.083135 0.035504 -0.232039 -0.083135 -0.035504 0.232039 0.245596 -0.805259 0.232039 -0.083135 -0.035504 0.232039 0.411867 -0.734252 0.232039 0.083135 0.035504 " />
															<Normal vector="-0.577349 -0.757683 0.304178 -0.577349 0.304178 0.757683 -0.577349 0.757683 -0.304178 -0.577349 -0.304178 -0.757683 -0.577349 -0.304178 -0.757683 -0.577349 0.757683 -0.304178 0.577349 0.757683 -0.304178 0.577349 -0.304178 -0.757683 0.577349 -0.304178 -0.757683 0.577349 0.757683 -0.304178 0.577349 0.304178 0.757683 0.577349 -0.757683 0.304178 0.577349 -0.757683 0.304178 0.577349 0.304178 0.757683 -0.577349 0.304178 0.757683 -0.577349 -0.757683 0.304178 0.577349 -0.304178 -0.757683 0.577349 -0.757683 0.304178 0.577349 0.757683 -0.304178 0.577349 0.304178 0.757683 " />
															<TextureCoordinate point="0.0210 0.5313 0.9790 0.5313 0.9790 0.9707 0.0210 0.9707 0.0210 0.5313 0.9790 0.5313 0.9790 0.9707 0.0210 0.9707 0.0210 0.5313 0.9790 0.5313 0.9790 0.9707 0.0210 0.9707 0.0210 0.5313 0.9790 0.5313 0.9790 0.9707 0.0210 0.9707 0.9790 0.5313 0.9790 0.9707 0.0210 0.5313 0.0210 0.9707 " />
														</IndexedTriangleSet>
													</Shape>
												</Group>
											</Transform>
											<Transform DEF="Cube_015_TRANSFORM"
											           translation="0.000000 0.271321 -0.696002"
											           scale="1.000000 1.000000 1.000000"
											           rotation="0.000000 1.000000 0.000000 0.000000"
											           >
												<Transform DEF="Cube_015_ifs_TRANSFORM"
												           translation="0.000000 0.000000 0.000000"
												           scale="1.000000 1.000000 1.000000"
												           rotation="0.000000 1.000000 0.000000 0.000000"
												           >
													<Group DEF="group_ME_Cube_005">
														<Shape>
															<Appearance>
																<Material USE="MA_Body" />
															</Appearance>
															<IndexedTriangleSet solid="false"
															                    normalPerVertex="true"
															                    index="0 1 2 0 2 3 4 5 6 4 6 7 8 9 10 8 10 11 12 13 14 12 14 15 4 16 17 4 17 15 18 5 14 18 14 19 "
															                    >
																<Coordinate point="-0.157649 0.016320 -0.072615 -0.157649 -0.016320 0.072615 -0.157649 0.609120 0.213178 -0.157649 0.641760 0.067949 -0.157649 0.641760 0.067949 -0.157649 0.609120 0.213178 0.157649 0.609120 0.213178 0.157649 0.641760 0.067949 0.157649 0.641760 0.067949 0.157649 0.609120 0.213178 0.157649 -0.016320 0.072615 0.157649 0.016320 -0.072615 0.157649 0.016320 -0.072615 0.157649 -0.016320 0.072615 -0.157649 -0.016320 0.072615 -0.157649 0.016320 -0.072615 0.157649 0.641760 0.067949 0.157649 0.016320 -0.072615 0.157649 0.609120 0.213178 0.157649 -0.016320 0.072615 " />
																<Normal vector="-0.577349 -0.436689 -0.689871 -0.577349 -0.689871 0.436689 -0.577349 0.436689 0.689871 -0.577349 0.689871 -0.436689 -0.577349 0.689871 -0.436689 -0.577349 0.436689 0.689871 0.577349 0.436689 0.689871 0.577349 0.689871 -0.436689 0.577349 0.689871 -0.436689 0.577349 0.436689 0.689871 0.577349 -0.689871 0.436689 0.577349 -0.436689 -0.689871 0.577349 -0.436689 -0.689871 0.577349 -0.689871 0.436689 -0.577349 -0.689871 0.436689 -0.577349 -0.436689 -0.689871 0.577349 0.689871 -0.436689 0.577349 -0.436689 -0.689871 0.577349 0.436689 0.689871 0.577349 -0.689871 0.436689 " />
																<TextureCoordinate point="0.0210 0.5313 0.9790 0.5313 0.9790 0.9707 0.0210 0.9707 0.0210 0.5313 0.9790 0.5313 0.9790 0.9707 0.0210 0.9707 0.0210 0.5313 0.9790 0.5313 0.9790 0.9707 0.0210 0.9707 0.0210 0.5313 0.9790 0.5313 0.9790 0.9707 0.0210 0.9707 0.9790 0.5313 0.9790 0.9707 0.0210 0.5313 0.0210 0.9707 " />
															</IndexedTriangleSet>
														</Shape>
													</Group>
												</Transform>
											</Transform>
										</Transform>
									</Transform>
								</Transform>
							</Transform>
						</Transform>
						<Transform DEF="Plane_TRANSFORM"
						           translation="0.000000 -1.530582 0.336238"
						           scale="1.000000 1.000000 1.000000"
						           rotation="0.000000 1.000000 0.000000 0.000000"
						           >
							<Transform DEF="Plane_ifs_TRANSFORM"
							           translation="0.000000 0.000000 0.000000"
							           scale="1.000000 1.000000 1.000000"
							           rotation="0.000000 1.000000 0.000000 0.000000"
							           >
								<Group DEF="group_ME_Plane">
									<Shape>
										<Appearance>
											<Material DEF="MA_Mouth"
											          diffuseColor="0.800 0.800 0.800"
											          specularColor="0.401 0.401 0.401"
											          emissiveColor="0.000 0.000 0.000"
											          ambientIntensity="0.000"
											          shininess="0.500"
											          transparency="0.0"
											          />
										</Appearance>
										<IndexedTriangleSet solid="false"
										                    normalPerVertex="true"
										                    index="0 1 2 0 2 3 "
										                    >
											<Coordinate point="-1.675462 0.000000 -0.473625 1.675462 0.000000 -0.473625 1.675462 0.000000 0.473625 -1.675462 0.000000 0.473625 " />
											<Normal vector="0.000000 -1.000000 0.000000 0.000000 -1.000000 0.000000 0.000000 -1.000000 0.000000 0.000000 -1.000000 0.000000 " />
											<TextureCoordinate point="0.0210 0.5313 0.9790 0.5313 0.9790 0.9707 0.0210 0.9707 " />
										</IndexedTriangleSet>
									</Shape>
								</Group>
							</Transform>
						</Transform>
					</Transform>
				</Transform>
				<Transform DEF="arm1_TRANSFORM"
				           translation="0.472116 -0.009079 0.731406"
				           scale="1.000000 1.000000 1.000000"
				           rotation="0.000000 1.000000 0.000000 0.000000"
				           >
					<Transform DEF="arm1_ifs_TRANSFORM"
					           translation="0.000000 0.000000 0.000000"
					           scale="1.000000 1.000000 1.000000"
					           rotation="0.000000 1.000000 0.000000 0.000000"
					           >
						<Group DEF="group_ME_arm1">
							<Shape>
								<Appearance>
									<Material USE="MA_Body" />
								</Appearance>
								<IndexedTriangleSet solid="false"
								                    normalPerVertex="true"
								                    index="0 1 2 0 2 3 4 5 6 4 6 7 8 9 10 8 10 11 12 13 14 12 14 15 4 16 17 4 17 15 18 5 14 18 14 19 "
								                    >
									<Coordinate point="0.000000 -0.186486 -0.117290 0.000000 -0.186486 0.117290 0.000000 0.186486 0.117290 0.000000 0.186486 -0.117290 0.000000 0.186486 -0.117290 0.000000 0.186486 0.117290 1.320452 0.186486 0.117290 1.320452 0.186486 -0.117290 1.320452 0.186486 -0.117290 1.320452 0.186486 0.117290 1.320452 -0.186486 0.117290 1.320452 -0.186486 -0.117290 1.320452 -0.186486 -0.117290 1.320452 -0.186486 0.117290 0.000000 -0.186486 0.117290 0.000000 -0.186486 -0.117290 1.320452 0.186486 -0.117290 1.320452 -0.186486 -0.117290 1.320452 0.186486 0.117290 1.320452 -0.186486 0.117290 " />
									<Normal vector="-0.577349 -0.577349 -0.577349 -0.577349 -0.577349 0.577349 -0.577349 0.577349 0.577349 -0.577349 0.577349 -0.577349 -0.577349 0.577349 -0.577349 -0.577349 0.577349 0.577349 0.577349 0.577349 0.577349 0.577349 0.577349 -0.577349 0.577349 0.577349 -0.577349 0.577349 0.577349 0.577349 0.577349 -0.577349 0.577349 0.577349 -0.577349 -0.577349 0.577349 -0.577349 -0.577349 0.577349 -0.577349 0.577349 -0.577349 -0.577349 0.577349 -0.577349 -0.577349 -0.577349 0.577349 0.577349 -0.577349 0.577349 -0.577349 -0.577349 0.577349 0.577349 0.577349 0.577349 -0.577349 0.577349 " />
									<TextureCoordinate point="0.0210 0.5313 0.9790 0.5313 0.9790 0.9707 0.0210 0.9707 0.0210 0.5313 0.9790 0.5313 0.9790 0.9707 0.0210 0.9707 0.0210 0.5313 0.9790 0.5313 0.9790 0.9707 0.0210 0.9707 0.0210 0.5313 0.9790 0.5313 0.9790 0.9707 0.0210 0.9707 0.9790 0.5313 0.9790 0.9707 0.0210 0.5313 0.0210 0.9707 " />
								</IndexedTriangleSet>
							</Shape>
						</Group>
					</Transform>
					<Transform DEF="arm1_1_TRANSFORM"
					           translation="1.213706 -0.008701 0.000000"
					           scale="1.000000 1.000000 1.000000"
					           rotation="0.000000 1.000000 0.000000 0.000000"
					           >
						<Transform DEF="arm1_1_ifs_TRANSFORM"
						           translation="0.000000 0.000000 0.000000"
						           scale="1.000000 1.000000 1.000000"
						           rotation="0.000000 1.000000 0.000000 0.000000"
						           >
							<Group DEF="group_ME_arm1_1">
								<Shape>
									<Appearance>
										<Material USE="MA_Body" />
									</Appearance>
									<IndexedTriangleSet solid="false"
									                    normalPerVertex="true"
									                    index="0 1 2 0 2 3 4 5 6 4 6 7 8 9 10 8 10 11 12 13 14 12 14 15 4 16 17 4 17 15 18 5 14 18 14 19 "
									                    >
										<Coordinate point="-0.005928 -0.492193 -0.168157 -0.005928 -0.492193 0.168157 0.005928 0.492193 0.168157 0.005928 0.492193 -0.168157 0.005928 0.492193 -0.168157 0.005928 0.492193 0.168157 1.848072 0.470008 0.168157 1.848072 0.470008 -0.168157 1.848072 0.470008 -0.168157 1.848072 0.470008 0.168157 1.836217 -0.514379 0.168157 1.836217 -0.514379 -0.168157 1.836217 -0.514379 -0.168157 1.836217 -0.514379 0.168157 -0.005928 -0.492193 0.168157 -0.005928 -0.492193 -0.168157 1.848072 0.470008 -0.168157 1.836217 -0.514379 -0.168157 1.848072 0.470008 0.168157 1.836217 -0.514379 0.168157 " />
										<Normal vector="-0.584246 -0.570330 -0.577349 -0.584246 -0.570330 0.577349 -0.570330 0.584246 0.577349 -0.570330 0.584246 -0.577349 -0.570330 0.584246 -0.577349 -0.570330 0.584246 0.577349 0.584246 0.570330 0.577349 0.584246 0.570330 -0.577349 0.584246 0.570330 -0.577349 0.584246 0.570330 0.577349 0.570330 -0.584246 0.577349 0.570330 -0.584246 -0.577349 0.570330 -0.584246 -0.577349 0.570330 -0.584246 0.577349 -0.584246 -0.570330 0.577349 -0.584246 -0.570330 -0.577349 0.584246 0.570330 -0.577349 0.570330 -0.584246 -0.577349 0.584246 0.570330 0.577349 0.570330 -0.584246 0.577349 " />
										<TextureCoordinate point="0.0210 0.5313 0.9790 0.5313 0.9790 0.9707 0.0210 0.9707 0.0210 0.5313 0.9790 0.5313 0.9790 0.9707 0.0210 0.9707 0.0210 0.5313 0.9790 0.5313 0.9790 0.9707 0.0210 0.9707 0.0210 0.5313 0.9790 0.5313 0.9790 0.9707 0.0210 0.9707 0.9790 0.5313 0.9790 0.9707 0.0210 0.5313 0.0210 0.9707 " />
									</IndexedTriangleSet>
								</Shape>
							</Group>
						</Transform>
						<Transform DEF="Cube_022_TRANSFORM"
						           translation="1.751158 -0.021090 -0.000000"
						           scale="1.000000 1.000000 1.000000"
						           rotation="0.000000 1.000000 0.000000 0.000000"
						           >
							<Transform DEF="Cube_022_ifs_TRANSFORM"
							           translation="0.000000 0.000000 0.000000"
							           scale="1.000000 1.000000 1.000000"
							           rotation="0.000000 1.000000 0.000000 0.000000"
							           >
								<Group DEF="group_ME_Cube_034">
									<Shape>
										<Appearance>
											<Material USE="MA_Body" />
										</Appearance>
										<IndexedTriangleSet solid="false"
										                    normalPerVertex="true"
										                    index="0 1 2 0 2 3 4 5 6 4 6 7 8 9 10 8 10 11 12 13 14 12 14 15 4 16 17 4 17 15 18 5 14 18 14 19 "
										                    >
											<Coordinate point="-0.002181 -0.181060 -0.126311 -0.002181 -0.181060 0.126311 0.002181 0.181060 0.126311 0.002181 0.181060 -0.126311 0.002181 0.181060 -0.126311 0.002181 0.181060 0.126311 0.451419 0.175650 0.126311 0.451419 0.175650 -0.126311 0.451419 0.175650 -0.126311 0.451419 0.175650 0.126311 0.447058 -0.186470 0.126311 0.447058 -0.186470 -0.126311 0.447058 -0.186470 -0.126311 0.447058 -0.186470 0.126311 -0.002181 -0.181060 0.126311 -0.002181 -0.181060 -0.126311 0.451419 0.175650 -0.126311 0.447058 -0.186470 -0.126311 0.451419 0.175650 0.126311 0.447058 -0.186470 0.126311 " />
											<Normal vector="-0.584246 -0.570330 -0.577349 -0.584246 -0.570330 0.577349 -0.570330 0.584246 0.577349 -0.570330 0.584246 -0.577349 -0.570330 0.584246 -0.577349 -0.570330 0.584246 0.577349 0.584246 0.570330 0.577349 0.584246 0.570330 -0.577349 0.584246 0.570330 -0.577349 0.584246 0.570330 0.577349 0.570330 -0.584246 0.577349 0.570330 -0.584246 -0.577349 0.570330 -0.584246 -0.577349 0.570330 -0.584246 0.577349 -0.584246 -0.570330 0.577349 -0.584246 -0.570330 -0.577349 0.584246 0.570330 -0.577349 0.570330 -0.584246 -0.577349 0.584246 0.570330 0.577349 0.570330 -0.584246 0.577349 " />
											<TextureCoordinate point="0.0210 0.5313 0.9790 0.5313 0.9790 0.9707 0.0210 0.9707 0.0210 0.5313 0.9790 0.5313 0.9790 0.9707 0.0210 0.9707 0.0210 0.5313 0.9790 0.5313 0.9790 0.9707 0.0210 0.9707 0.0210 0.5313 0.9790 0.5313 0.9790 0.9707 0.0210 0.9707 0.9790 0.5313 0.9790 0.9707 0.0210 0.5313 0.0210 0.9707 " />
										</IndexedTriangleSet>
									</Shape>
								</Group>
							</Transform>
						</Transform>
						<Transform DEF="Cube_023_TRANSFORM"
						           translation="1.665850 -0.306945 -0.000000"
						           scale="1.000000 1.000000 1.000000"
						           rotation="0.000000 1.000000 0.000000 0.000000"
						           >
							<Transform DEF="Cube_023_ifs_TRANSFORM"
							           translation="0.000000 0.000000 0.000000"
							           scale="1.000000 1.000000 1.000000"
							           rotation="0.000000 1.000000 0.000000 0.000000"
							           >
								<Group DEF="group_ME_Cube_035">
									<Shape>
										<Appearance>
											<Material USE="MA_Body" />
										</Appearance>
										<IndexedTriangleSet solid="false"
										                    normalPerVertex="true"
										                    index="0 1 2 0 2 3 4 5 6 4 6 7 8 9 10 8 10 11 12 13 14 12 14 15 4 16 17 4 17 15 18 5 14 18 14 19 "
										                    >
											<Coordinate point="-0.057778 -0.142672 -0.109983 -0.057778 -0.142672 0.109983 0.057778 0.142672 0.109983 0.057778 0.142672 -0.109983 0.057778 0.142672 -0.109983 0.057778 0.142672 0.109983 0.511064 -0.040896 0.109983 0.511064 -0.040896 -0.109983 0.511064 -0.040896 -0.109983 0.511064 -0.040896 0.109983 0.395508 -0.326239 0.109983 0.395508 -0.326239 -0.109983 0.395508 -0.326239 -0.109983 0.395508 -0.326239 0.109983 -0.057778 -0.142672 0.109983 -0.057778 -0.142672 -0.109983 0.511064 -0.040896 -0.109983 0.395508 -0.326239 -0.109983 0.511064 -0.040896 0.109983 0.395508 -0.326239 0.109983 " />
											<Normal vector="-0.751823 -0.318400 -0.577349 -0.751823 -0.318400 0.577349 -0.318400 0.751823 0.577349 -0.318400 0.751823 -0.577349 -0.318400 0.751823 -0.577349 -0.318400 0.751823 0.577349 0.751823 0.318400 0.577349 0.751823 0.318400 -0.577349 0.751823 0.318400 -0.577349 0.751823 0.318400 0.577349 0.318400 -0.751823 0.577349 0.318400 -0.751823 -0.577349 0.318400 -0.751823 -0.577349 0.318400 -0.751823 0.577349 -0.751823 -0.318400 0.577349 -0.751823 -0.318400 -0.577349 0.751823 0.318400 -0.577349 0.318400 -0.751823 -0.577349 0.751823 0.318400 0.577349 0.318400 -0.751823 0.577349 " />
											<TextureCoordinate point="0.0210 0.5313 0.9790 0.5313 0.9790 0.9707 0.0210 0.9707 0.0210 0.5313 0.9790 0.5313 0.9790 0.9707 0.0210 0.9707 0.0210 0.5313 0.9790 0.5313 0.9790 0.9707 0.0210 0.9707 0.0210 0.5313 0.9790 0.5313 0.9790 0.9707 0.0210 0.9707 0.9790 0.5313 0.9790 0.9707 0.0210 0.5313 0.0210 0.9707 " />
										</IndexedTriangleSet>
									</Shape>
								</Group>
							</Transform>
						</Transform>
						<Transform DEF="Cube_024_TRANSFORM"
						           translation="1.718632 0.175296 -0.000000"
						           scale="1.000000 1.000000 1.000000"
						           rotation="0.000000 1.000000 0.000000 0.000000"
						           >
							<Transform DEF="Cube_024_ifs_TRANSFORM"
							           translation="0.000000 0.000000 0.000000"
							           scale="1.000000 1.000000 1.000000"
							           rotation="0.000000 1.000000 0.000000 0.000000"
							           >
								<Group DEF="group_ME_Cube_036">
									<Shape>
										<Appearance>
											<Material USE="MA_Body" />
										</Appearance>
										<IndexedTriangleSet solid="false"
										                    normalPerVertex="true"
										                    index="0 1 2 0 2 3 4 5 6 4 6 7 8 9 10 8 10 11 12 13 14 12 14 15 4 16 17 4 17 15 18 5 14 18 14 19 "
										                    >
											<Coordinate point="0.090703 -0.124364 -0.109983 0.090703 -0.124364 0.109983 -0.090703 0.124364 0.109983 -0.090703 0.124364 -0.109983 -0.090703 0.124364 -0.109983 -0.090703 0.124364 0.109983 0.304419 0.412538 0.109983 0.304419 0.412538 -0.109983 0.304419 0.412538 -0.109983 0.304419 0.412538 0.109983 0.485824 0.163809 0.109983 0.485824 0.163809 -0.109983 0.485824 0.163809 -0.109983 0.485824 0.163809 0.109983 0.090703 -0.124364 0.109983 0.090703 -0.124364 -0.109983 0.304419 0.412538 -0.109983 0.485824 0.163809 -0.109983 0.304419 0.412538 0.109983 0.485824 0.163809 0.109983 " />
											<Normal vector="-0.126255 -0.806665 -0.577349 -0.126255 -0.806665 0.577349 -0.806665 0.126255 0.577349 -0.806665 0.126255 -0.577349 -0.806665 0.126255 -0.577349 -0.806665 0.126255 0.577349 0.126255 0.806665 0.577349 0.126255 0.806665 -0.577349 0.126255 0.806665 -0.577349 0.126255 0.806665 0.577349 0.806665 -0.126255 0.577349 0.806665 -0.126255 -0.577349 0.806665 -0.126255 -0.577349 0.806665 -0.126255 0.577349 -0.126255 -0.806665 0.577349 -0.126255 -0.806665 -0.577349 0.126255 0.806665 -0.577349 0.806665 -0.126255 -0.577349 0.126255 0.806665 0.577349 0.806665 -0.126255 0.577349 " />
											<TextureCoordinate point="0.0210 0.5313 0.9790 0.5313 0.9790 0.9707 0.0210 0.9707 0.0210 0.5313 0.9790 0.5313 0.9790 0.9707 0.0210 0.9707 0.0210 0.5313 0.9790 0.5313 0.9790 0.9707 0.0210 0.9707 0.0210 0.5313 0.9790 0.5313 0.9790 0.9707 0.0210 0.9707 0.9790 0.5313 0.9790 0.9707 0.0210 0.5313 0.0210 0.9707 " />
										</IndexedTriangleSet>
									</Shape>
								</Group>
							</Transform>
						</Transform>
					</Transform>
				</Transform>
				<Transform DEF="arm2_TRANSFORM"
				           translation="-0.472116 -0.009079 0.731406"
				           scale="1.000000 1.000000 1.000000"
				           rotation="0.000000 1.000000 0.000000 0.000000"
				           >
					<Transform DEF="arm2_ifs_TRANSFORM"
					           translation="0.000000 0.000000 0.000000"
					           scale="1.000000 1.000000 1.000000"
					           rotation="0.000000 1.000000 0.000000 0.000000"
					           >
						<Group DEF="group_ME_arm2">
							<Shape>
								<Appearance>
									<Material USE="MA_Body" />
								</Appearance>
								<IndexedTriangleSet solid="false"
								                    normalPerVertex="true"
								                    index="0 1 2 0 2 3 4 5 6 4 6 7 8 9 10 8 10 11 12 13 14 12 14 15 4 13 16 4 16 17 18 19 14 18 14 7 "
								                    >
									<Coordinate point="0.000000 -0.186486 -0.117290 0.000000 0.186486 -0.117290 0.000000 0.186486 0.117290 0.000000 -0.186486 0.117290 0.000000 0.186486 -0.117290 -1.320452 0.186486 -0.117290 -1.320452 0.186486 0.117290 0.000000 0.186486 0.117290 -1.320452 0.186486 -0.117290 -1.320452 -0.186486 -0.117290 -1.320452 -0.186486 0.117290 -1.320452 0.186486 0.117290 -1.320452 -0.186486 -0.117290 0.000000 -0.186486 -0.117290 0.000000 -0.186486 0.117290 -1.320452 -0.186486 0.117290 -1.320452 -0.186486 -0.117290 -1.320452 0.186486 -0.117290 -1.320452 0.186486 0.117290 -1.320452 -0.186486 0.117290 " />
									<Normal vector="0.577349 -0.577349 -0.577349 0.577349 0.577349 -0.577349 0.577349 0.577349 0.577349 0.577349 -0.577349 0.577349 0.577349 0.577349 -0.577349 -0.577349 0.577349 -0.577349 -0.577349 0.577349 0.577349 0.577349 0.577349 0.577349 -0.577349 0.577349 -0.577349 -0.577349 -0.577349 -0.577349 -0.577349 -0.577349 0.577349 -0.577349 0.577349 0.577349 -0.577349 -0.577349 -0.577349 0.577349 -0.577349 -0.577349 0.577349 -0.577349 0.577349 -0.577349 -0.577349 0.577349 -0.577349 -0.577349 -0.577349 -0.577349 0.577349 -0.577349 -0.577349 0.577349 0.577349 -0.577349 -0.577349 0.577349 " />
									<TextureCoordinate point="0.0210 0.5313 0.0210 0.9707 0.9790 0.9707 0.9790 0.5313 0.0210 0.5313 0.0210 0.9707 0.9790 0.9707 0.9790 0.5313 0.0210 0.5313 0.0210 0.9707 0.9790 0.9707 0.9790 0.5313 0.0210 0.5313 0.0210 0.9707 0.9790 0.9707 0.9790 0.5313 0.9790 0.9707 0.9790 0.5313 0.0210 0.5313 0.0210 0.9707 " />
								</IndexedTriangleSet>
							</Shape>
						</Group>
					</Transform>
					<Transform DEF="arm2_1_TRANSFORM"
					           translation="-1.213706 -0.008701 0.000000"
					           scale="1.000000 1.000000 1.000000"
					           rotation="0.000000 1.000000 0.000000 0.000000"
					           >
						<Transform DEF="arm2_1_ifs_TRANSFORM"
						           translation="0.000000 0.000000 0.000000"
						           scale="1.000000 1.000000 1.000000"
						           rotation="0.000000 1.000000 0.000000 0.000000"
						           >
							<Group DEF="group_ME_arm2_1">
								<Shape>
									<Appearance>
										<Material USE="MA_Body" />
									</Appearance>
									<IndexedTriangleSet solid="false"
									                    normalPerVertex="true"
									                    index="0 1 2 0 2 3 4 5 6 4 6 7 8 9 10 8 10 11 12 13 14 12 14 15 4 13 16 4 16 17 18 19 14 18 14 7 "
									                    >
										<Coordinate point="0.005928 -0.492193 -0.168157 -0.005928 0.492193 -0.168157 -0.005928 0.492193 0.168157 0.005928 -0.492193 0.168157 -0.005928 0.492193 -0.168157 -1.848072 0.470008 -0.168157 -1.848072 0.470008 0.168157 -0.005928 0.492193 0.168157 -1.848072 0.470008 -0.168157 -1.836217 -0.514379 -0.168157 -1.836217 -0.514379 0.168157 -1.848072 0.470008 0.168157 -1.836217 -0.514379 -0.168157 0.005928 -0.492193 -0.168157 0.005928 -0.492193 0.168157 -1.836217 -0.514379 0.168157 -1.836217 -0.514379 -0.168157 -1.848072 0.470008 -0.168157 -1.848072 0.470008 0.168157 -1.836217 -0.514379 0.168157 " />
										<Normal vector="0.584246 -0.570330 -0.577349 0.570330 0.584246 -0.577349 0.570330 0.584246 0.577349 0.584246 -0.570330 0.577349 0.570330 0.584246 -0.577349 -0.584246 0.570330 -0.577349 -0.584246 0.570330 0.577349 0.570330 0.584246 0.577349 -0.584246 0.570330 -0.577349 -0.570330 -0.584246 -0.577349 -0.570330 -0.584246 0.577349 -0.584246 0.570330 0.577349 -0.570330 -0.584246 -0.577349 0.584246 -0.570330 -0.577349 0.584246 -0.570330 0.577349 -0.570330 -0.584246 0.577349 -0.570330 -0.584246 -0.577349 -0.584246 0.570330 -0.577349 -0.584246 0.570330 0.577349 -0.570330 -0.584246 0.577349 " />
										<TextureCoordinate point="0.0210 0.5313 0.0210 0.9707 0.9790 0.9707 0.9790 0.5313 0.0210 0.5313 0.0210 0.9707 0.9790 0.9707 0.9790 0.5313 0.0210 0.5313 0.0210 0.9707 0.9790 0.9707 0.9790 0.5313 0.0210 0.5313 0.0210 0.9707 0.9790 0.9707 0.9790 0.5313 0.9790 0.9707 0.9790 0.5313 0.0210 0.5313 0.0210 0.9707 " />
									</IndexedTriangleSet>
								</Shape>
							</Group>
						</Transform>
						<Transform DEF="Cube_003_TRANSFORM"
						           translation="-1.751158 -0.021090 -0.000000"
						           scale="1.000000 1.000000 1.000000"
						           rotation="0.000000 1.000000 0.000000 0.000000"
						           >
							<Transform DEF="Cube_003_ifs_TRANSFORM"
							           translation="0.000000 0.000000 0.000000"
							           scale="1.000000 1.000000 1.000000"
							           rotation="0.000000 1.000000 0.000000 0.000000"
							           >
								<Group DEF="group_ME_Cube_004">
									<Shape>
										<Appearance>
											<Material USE="MA_Body" />
										</Appearance>
										<IndexedTriangleSet solid="false"
										                    normalPerVertex="true"
										                    index="0 1 2 0 2 3 4 5 6 4 6 7 8 9 10 8 10 11 12 13 14 12 14 15 4 13 16 4 16 17 18 19 14 18 14 7 "
										                    >
											<Coordinate point="0.002181 -0.181060 -0.126311 -0.002181 0.181060 -0.126311 -0.002181 0.181060 0.126311 0.002181 -0.181060 0.126311 -0.002181 0.181060 -0.126311 -0.451419 0.175650 -0.126311 -0.451419 0.175650 0.126311 -0.002181 0.181060 0.126311 -0.451419 0.175650 -0.126311 -0.447058 -0.186470 -0.126311 -0.447058 -0.186470 0.126311 -0.451419 0.175650 0.126311 -0.447058 -0.186470 -0.126311 0.002181 -0.181060 -0.126311 0.002181 -0.181060 0.126311 -0.447058 -0.186470 0.126311 -0.447058 -0.186470 -0.126311 -0.451419 0.175650 -0.126311 -0.451419 0.175650 0.126311 -0.447058 -0.186470 0.126311 " />
											<Normal vector="0.584246 -0.570330 -0.577349 0.570330 0.584246 -0.577349 0.570330 0.584246 0.577349 0.584246 -0.570330 0.577349 0.570330 0.584246 -0.577349 -0.584246 0.570330 -0.577349 -0.584246 0.570330 0.577349 0.570330 0.584246 0.577349 -0.584246 0.570330 -0.577349 -0.570330 -0.584246 -0.577349 -0.570330 -0.584246 0.577349 -0.584246 0.570330 0.577349 -0.570330 -0.584246 -0.577349 0.584246 -0.570330 -0.577349 0.584246 -0.570330 0.577349 -0.570330 -0.584246 0.577349 -0.570330 -0.584246 -0.577349 -0.584246 0.570330 -0.577349 -0.584246 0.570330 0.577349 -0.570330 -0.584246 0.577349 " />
											<TextureCoordinate point="0.0210 0.5313 0.0210 0.9707 0.9790 0.9707 0.9790 0.5313 0.0210 0.5313 0.0210 0.9707 0.9790 0.9707 0.9790 0.5313 0.0210 0.5313 0.0210 0.9707 0.9790 0.9707 0.9790 0.5313 0.0210 0.5313 0.0210 0.9707 0.9790 0.9707 0.9790 0.5313 0.9790 0.9707 0.9790 0.5313 0.0210 0.5313 0.0210 0.9707 " />
										</IndexedTriangleSet>
									</Shape>
								</Group>
							</Transform>
						</Transform>
						<Transform DEF="Cube_004_TRANSFORM"
						           translation="-1.665850 -0.306945 -0.000000"
						           scale="1.000000 1.000000 1.000000"
						           rotation="0.000000 1.000000 0.000000 0.000000"
						           >
							<Transform DEF="Cube_004_ifs_TRANSFORM"
							           translation="0.000000 0.000000 0.000000"
							           scale="1.000000 1.000000 1.000000"
							           rotation="0.000000 1.000000 0.000000 0.000000"
							           >
								<Group DEF="group_ME_Cube_006">
									<Shape>
										<Appearance>
											<Material USE="MA_Body" />
										</Appearance>
										<IndexedTriangleSet solid="false"
										                    normalPerVertex="true"
										                    index="0 1 2 0 2 3 4 5 6 4 6 7 8 9 10 8 10 11 12 13 14 12 14 15 4 13 16 4 16 17 18 19 14 18 14 7 "
										                    >
											<Coordinate point="0.057778 -0.142672 -0.109983 -0.057778 0.142672 -0.109983 -0.057778 0.142672 0.109983 0.057778 -0.142672 0.109983 -0.057778 0.142672 -0.109983 -0.511064 -0.040896 -0.109983 -0.511064 -0.040896 0.109983 -0.057778 0.142672 0.109983 -0.511064 -0.040896 -0.109983 -0.395508 -0.326239 -0.109983 -0.395508 -0.326239 0.109983 -0.511064 -0.040896 0.109983 -0.395508 -0.326239 -0.109983 0.057778 -0.142672 -0.109983 0.057778 -0.142672 0.109983 -0.395508 -0.326239 0.109983 -0.395508 -0.326239 -0.109983 -0.511064 -0.040896 -0.109983 -0.511064 -0.040896 0.109983 -0.395508 -0.326239 0.109983 " />
											<Normal vector="0.751823 -0.318400 -0.577349 0.318400 0.751823 -0.577349 0.318400 0.751823 0.577349 0.751823 -0.318400 0.577349 0.318400 0.751823 -0.577349 -0.751823 0.318400 -0.577349 -0.751823 0.318400 0.577349 0.318400 0.751823 0.577349 -0.751823 0.318400 -0.577349 -0.318400 -0.751823 -0.577349 -0.318400 -0.751823 0.577349 -0.751823 0.318400 0.577349 -0.318400 -0.751823 -0.577349 0.751823 -0.318400 -0.577349 0.751823 -0.318400 0.577349 -0.318400 -0.751823 0.577349 -0.318400 -0.751823 -0.577349 -0.751823 0.318400 -0.577349 -0.751823 0.318400 0.577349 -0.318400 -0.751823 0.577349 " />
											<TextureCoordinate point="0.0210 0.5313 0.0210 0.9707 0.9790 0.9707 0.9790 0.5313 0.0210 0.5313 0.0210 0.9707 0.9790 0.9707 0.9790 0.5313 0.0210 0.5313 0.0210 0.9707 0.9790 0.9707 0.9790 0.5313 0.0210 0.5313 0.0210 0.9707 0.9790 0.9707 0.9790 0.5313 0.9790 0.9707 0.9790 0.5313 0.0210 0.5313 0.0210 0.9707 " />
										</IndexedTriangleSet>
									</Shape>
								</Group>
							</Transform>
						</Transform>
						<Transform DEF="Cube_009_TRANSFORM"
						           translation="-1.718632 0.175296 -0.000000"
						           scale="1.000000 1.000000 1.000000"
						           rotation="0.000000 1.000000 0.000000 0.000000"
						           >
							<Transform DEF="Cube_009_ifs_TRANSFORM"
							           translation="0.000000 0.000000 0.000000"
							           scale="1.000000 1.000000 1.000000"
							           rotation="0.000000 1.000000 0.000000 0.000000"
							           >
								<Group DEF="group_ME_Cube_010">
									<Shape>
										<Appearance>
											<Material USE="MA_Body" />
										</Appearance>
										<IndexedTriangleSet solid="false"
										                    normalPerVertex="true"
										                    index="0 1 2 0 2 3 4 5 6 4 6 7 8 9 10 8 10 11 12 13 14 12 14 15 4 13 16 4 16 17 18 19 14 18 14 7 "
										                    >
											<Coordinate point="-0.090703 -0.124364 -0.109983 0.090703 0.124364 -0.109983 0.090703 0.124364 0.109983 -0.090703 -0.124364 0.109983 0.090703 0.124364 -0.109983 -0.304419 0.412538 -0.109983 -0.304419 0.412538 0.109983 0.090703 0.124364 0.109983 -0.304419 0.412538 -0.109983 -0.485824 0.163809 -0.109983 -0.485824 0.163809 0.109983 -0.304419 0.412538 0.109983 -0.485824 0.163809 -0.109983 -0.090703 -0.124364 -0.109983 -0.090703 -0.124364 0.109983 -0.485824 0.163809 0.109983 -0.485824 0.163809 -0.109983 -0.304419 0.412538 -0.109983 -0.304419 0.412538 0.109983 -0.485824 0.163809 0.109983 " />
											<Normal vector="0.126255 -0.806665 -0.577349 0.806665 0.126255 -0.577349 0.806665 0.126255 0.577349 0.126255 -0.806665 0.577349 0.806665 0.126255 -0.577349 -0.126255 0.806665 -0.577349 -0.126255 0.806665 0.577349 0.806665 0.126255 0.577349 -0.126255 0.806665 -0.577349 -0.806665 -0.126255 -0.577349 -0.806665 -0.126255 0.577349 -0.126255 0.806665 0.577349 -0.806665 -0.126255 -0.577349 0.126255 -0.806665 -0.577349 0.126255 -0.806665 0.577349 -0.806665 -0.126255 0.577349 -0.806665 -0.126255 -0.577349 -0.126255 0.806665 -0.577349 -0.126255 0.806665 0.577349 -0.806665 -0.126255 0.577349 " />
											<TextureCoordinate point="0.0210 0.5313 0.0210 0.9707 0.9790 0.9707 0.9790 0.5313 0.0210 0.5313 0.0210 0.9707 0.9790 0.9707 0.9790 0.5313 0.0210 0.5313 0.0210 0.9707 0.9790 0.9707 0.9790 0.5313 0.0210 0.5313 0.0210 0.9707 0.9790 0.9707 0.9790 0.5313 0.9790 0.9707 0.9790 0.5313 0.0210 0.5313 0.0210 0.9707 " />
										</IndexedTriangleSet>
									</Shape>
								</Group>
							</Transform>
						</Transform>
					</Transform>
				</Transform>
			</Transform>
			<Transform DEF="foot1_TRANSFORM"
			           translation="0.682146 0.048716 0.112582"
			           scale="1.000000 1.000000 1.000000"
			           rotation="0.000000 1.000000 0.000000 0.000000"
			           >
				<Transform DEF="foot1_ifs_TRANSFORM"
				           translation="0.000000 0.000000 0.000000"
				           scale="1.000000 1.000000 1.000000"
				           rotation="0.000000 1.000000 0.000000 0.000000"
				           >
					<Group DEF="group_ME_foot1">
						<Shape>
							<Appearance>
								<Material USE="MA_Body" />
							</Appearance>
							<IndexedTriangleSet solid="false"
							                    normalPerVertex="true"
							                    index="0 1 2 0 2 3 4 5 6 4 6 7 8 9 10 8 10 11 12 13 14 12 14 15 4 16 17 4 17 15 18 5 14 18 14 19 "
							                    >
								<Coordinate point="-0.377216 -0.338874 -0.733715 -0.377216 -0.364841 -0.013148 -0.377216 0.364841 0.013148 -0.377216 0.390808 -0.707419 -0.377216 0.390808 -0.707419 -0.377216 0.364841 0.013148 0.377216 0.364841 0.013148 0.377216 0.390808 -0.707419 0.377216 0.390808 -0.707419 0.377216 0.364841 0.013148 0.377216 -0.364841 -0.013148 0.377216 -0.338874 -0.733715 0.377216 -0.338874 -0.733715 0.377216 -0.364841 -0.013148 -0.377216 -0.364841 -0.013148 -0.377216 -0.338874 -0.733715 0.377216 0.390808 -0.707419 0.377216 -0.338874 -0.733715 0.377216 0.364841 0.013148 0.377216 -0.364841 -0.013148 " />
								<Normal vector="-0.577349 -0.556169 -0.597766 -0.577349 -0.597766 0.556169 -0.577349 0.556169 0.597766 -0.577349 0.597766 -0.556169 -0.577349 0.597766 -0.556169 -0.577349 0.556169 0.597766 0.577349 0.556169 0.597766 0.577349 0.597766 -0.556169 0.577349 0.597766 -0.556169 0.577349 0.556169 0.597766 0.577349 -0.597766 0.556169 0.577349 -0.556169 -0.597766 0.577349 -0.556169 -0.597766 0.577349 -0.597766 0.556169 -0.577349 -0.597766 0.556169 -0.577349 -0.556169 -0.597766 0.577349 0.597766 -0.556169 0.577349 -0.556169 -0.597766 0.577349 0.556169 0.597766 0.577349 -0.597766 0.556169 " />
								<TextureCoordinate point="0.0210 0.5313 0.9790 0.5313 0.9790 0.9707 0.0210 0.9707 0.0210 0.5313 0.9790 0.5313 0.9790 0.9707 0.0210 0.9707 0.0210 0.5313 0.9790 0.5313 0.9790 0.9707 0.0210 0.9707 0.0210 0.5313 0.9790 0.5313 0.9790 0.9707 0.0210 0.9707 0.9790 0.5313 0.9790 0.9707 0.0210 0.5313 0.0210 0.9707 " />
							</IndexedTriangleSet>
						</Shape>
					</Group>
				</Transform>
			</Transform>
			<Transform DEF="tail_TRANSFORM"
			           translation="0.000000 0.770214 0.331924"
			           scale="1.000000 1.000000 1.000000"
			           rotation="0.000000 1.000000 0.000000 0.000000"
			           >
				<Transform DEF="tail_ifs_TRANSFORM"
				           translation="0.000000 0.000000 0.000000"
				           scale="1.000000 1.000000 1.000000"
				           rotation="0.000000 1.000000 0.000000 0.000000"
				           >
					<Group DEF="group_ME_tail">
						<Shape>
							<Appearance>
								<Material USE="MA_Body" />
							</Appearance>
							<IndexedTriangleSet solid="false"
							                    normalPerVertex="true"
							                    index="0 1 2 0 2 3 4 5 6 4 6 7 8 9 10 8 10 11 12 13 14 12 14 15 4 16 17 4 17 15 18 5 14 18 14 19 "
							                    >
								<Coordinate point="-0.102472 0.000000 -0.102472 -0.102472 0.000000 0.102472 -0.102472 0.428140 0.102472 -0.102472 0.428140 -0.102472 -0.102472 0.428140 -0.102472 -0.102472 0.428140 0.102472 0.102472 0.428140 0.102472 0.102472 0.428140 -0.102472 0.102472 0.428140 -0.102472 0.102472 0.428140 0.102472 0.102472 0.000000 0.102472 0.102472 0.000000 -0.102472 0.102472 0.000000 -0.102472 0.102472 0.000000 0.102472 -0.102472 0.000000 0.102472 -0.102472 0.000000 -0.102472 0.102472 0.428140 -0.102472 0.102472 0.000000 -0.102472 0.102472 0.428140 0.102472 0.102472 0.000000 0.102472 " />
								<Normal vector="-0.577349 -0.577349 -0.577349 -0.577349 -0.577349 0.577349 -0.577349 0.577349 0.577349 -0.577349 0.577349 -0.577349 -0.577349 0.577349 -0.577349 -0.577349 0.577349 0.577349 0.577349 0.577349 0.577349 0.577349 0.577349 -0.577349 0.577349 0.577349 -0.577349 0.577349 0.577349 0.577349 0.577349 -0.577349 0.577349 0.577349 -0.577349 -0.577349 0.577349 -0.577349 -0.577349 0.577349 -0.577349 0.577349 -0.577349 -0.577349 0.577349 -0.577349 -0.577349 -0.577349 0.577349 0.577349 -0.577349 0.577349 -0.577349 -0.577349 0.577349 0.577349 0.577349 0.577349 -0.577349 0.577349 " />
								<TextureCoordinate point="0.0210 0.0244 0.9790 0.0244 0.9790 0.4637 0.0210 0.4637 0.0210 0.0244 0.9790 0.0244 0.9790 0.4637 0.0210 0.4637 0.0210 0.0244 0.9790 0.0244 0.9790 0.4637 0.0210 0.4637 0.0210 0.0244 0.9790 0.0244 0.9790 0.4637 0.0210 0.4637 0.9790 0.0244 0.9790 0.4637 0.0210 0.0244 0.0210 0.4637 " />
							</IndexedTriangleSet>
						</Shape>
					</Group>
				</Transform>
				<Transform DEF="tail1_TRANSFORM"
				           translation="0.000000 0.362337 -0.000000"
				           scale="1.000000 1.000000 1.000000"
				           rotation="0.000000 1.000000 0.000000 0.000000"
				           >
					<Transform DEF="tail1_ifs_TRANSFORM"
					           translation="0.000000 0.000000 0.000000"
					           scale="1.000000 1.000000 1.000000"
					           rotation="0.000000 1.000000 0.000000 0.000000"
					           >
						<Group DEF="group_ME_tail1">
							<Shape>
								<Appearance>
									<Material USE="MA_Body" />
								</Appearance>
								<IndexedTriangleSet solid="false"
								                    normalPerVertex="true"
								                    index="0 1 2 0 2 3 4 5 6 4 6 7 8 9 10 8 10 11 12 13 14 12 14 15 4 16 17 4 17 15 18 5 14 18 14 19 "
								                    >
									<Coordinate point="-0.131854 0.000000 -0.131854 -0.131854 0.000000 0.131854 -0.131854 0.402001 0.131854 -0.131854 0.402001 -0.131854 -0.131854 0.402001 -0.131854 -0.131854 0.402001 0.131854 0.131854 0.402001 0.131854 0.131854 0.402001 -0.131854 0.131854 0.402001 -0.131854 0.131854 0.402001 0.131854 0.131854 0.000000 0.131854 0.131854 0.000000 -0.131854 0.131854 0.000000 -0.131854 0.131854 0.000000 0.131854 -0.131854 0.000000 0.131854 -0.131854 0.000000 -0.131854 0.131854 0.402001 -0.131854 0.131854 0.000000 -0.131854 0.131854 0.402001 0.131854 0.131854 0.000000 0.131854 " />
									<Normal vector="-0.577349 -0.577349 -0.577349 -0.577349 -0.577349 0.577349 -0.577349 0.577349 0.577349 -0.577349 0.577349 -0.577349 -0.577349 0.577349 -0.577349 -0.577349 0.577349 0.577349 0.577349 0.577349 0.577349 0.577349 0.577349 -0.577349 0.577349 0.577349 -0.577349 0.577349 0.577349 0.577349 0.577349 -0.577349 0.577349 0.577349 -0.577349 -0.577349 0.577349 -0.577349 -0.577349 0.577349 -0.577349 0.577349 -0.577349 -0.577349 0.577349 -0.577349 -0.577349 -0.577349 0.577349 0.577349 -0.577349 0.577349 -0.577349 -0.577349 0.577349 0.577349 0.577349 0.577349 -0.577349 0.577349 " />
									<TextureCoordinate point="0.0210 0.0244 0.9790 0.0244 0.9790 0.4637 0.0210 0.4637 0.0210 0.0244 0.9790 0.0244 0.9790 0.4637 0.0210 0.4637 0.0210 0.0244 0.9790 0.0244 0.9790 0.4637 0.0210 0.4637 0.0210 0.0244 0.9790 0.0244 0.9790 0.4637 0.0210 0.4637 0.9790 0.0244 0.9790 0.4637 0.0210 0.0244 0.0210 0.4637 " />
								</IndexedTriangleSet>
							</Shape>
						</Group>
					</Transform>
					<Transform DEF="Cube_017_TRANSFORM"
					           translation="0.000000 0.324735 -0.000000"
					           scale="1.000000 1.000000 1.000000"
					           rotation="0.000000 1.000000 0.000000 0.000000"
					           >
						<Transform DEF="Cube_017_ifs_TRANSFORM"
						           translation="0.000000 0.000000 0.000000"
						           scale="1.000000 1.000000 1.000000"
						           rotation="0.000000 1.000000 0.000000 0.000000"
						           >
							<Group DEF="group_ME_Cube_028">
								<Shape>
									<Appearance>
										<Material USE="MA_Body" />
									</Appearance>
									<IndexedTriangleSet solid="false"
									                    normalPerVertex="true"
									                    index="0 1 2 0 2 3 4 5 6 4 6 7 8 9 10 8 10 11 12 13 14 12 14 15 4 16 17 4 17 15 18 5 14 18 14 19 "
									                    >
										<Coordinate point="-0.228673 0.000000 -0.228673 -0.228673 0.000000 0.228673 -0.228673 0.446387 0.228673 -0.228673 0.446387 -0.228673 -0.228673 0.446387 -0.228673 -0.228673 0.446387 0.228673 0.228673 0.446387 0.228673 0.228673 0.446387 -0.228673 0.228673 0.446387 -0.228673 0.228673 0.446387 0.228673 0.228673 0.000000 0.228673 0.228673 0.000000 -0.228673 0.228673 0.000000 -0.228673 0.228673 0.000000 0.228673 -0.228673 0.000000 0.228673 -0.228673 0.000000 -0.228673 0.228673 0.446387 -0.228673 0.228673 0.000000 -0.228673 0.228673 0.446387 0.228673 0.228673 0.000000 0.228673 " />
										<Normal vector="-0.577349 -0.577349 -0.577349 -0.577349 -0.577349 0.577349 -0.577349 0.577349 0.577349 -0.577349 0.577349 -0.577349 -0.577349 0.577349 -0.577349 -0.577349 0.577349 0.577349 0.577349 0.577349 0.577349 0.577349 0.577349 -0.577349 0.577349 0.577349 -0.577349 0.577349 0.577349 0.577349 0.577349 -0.577349 0.577349 0.577349 -0.577349 -0.577349 0.577349 -0.577349 -0.577349 0.577349 -0.577349 0.577349 -0.577349 -0.577349 0.577349 -0.577349 -0.577349 -0.577349 0.577349 0.577349 -0.577349 0.577349 -0.577349 -0.577349 0.577349 0.577349 0.577349 0.577349 -0.577349 0.577349 " />
										<TextureCoordinate point="0.0210 0.0244 0.9790 0.0244 0.9790 0.4637 0.0210 0.4637 0.0210 0.0244 0.9790 0.0244 0.9790 0.4637 0.0210 0.4637 0.0210 0.0244 0.9790 0.0244 0.9790 0.4637 0.0210 0.4637 0.0210 0.0244 0.9790 0.0244 0.9790 0.4637 0.0210 0.4637 0.9790 0.0244 0.9790 0.4637 0.0210 0.0244 0.0210 0.4637 " />
									</IndexedTriangleSet>
								</Shape>
							</Group>
						</Transform>
						<Transform DEF="Cube_018_TRANSFORM"
						           translation="0.000000 0.270004 -0.000000"
						           scale="1.000000 1.000000 1.000000"
						           rotation="0.000000 1.000000 0.000000 0.000000"
						           >
							<Transform DEF="Cube_018_ifs_TRANSFORM"
							           translation="0.000000 0.000000 0.000000"
							           scale="1.000000 1.000000 1.000000"
							           rotation="0.000000 1.000000 0.000000 0.000000"
							           >
								<Group DEF="group_ME_Cube_029">
									<Shape>
										<Appearance>
											<Material USE="MA_Body" />
										</Appearance>
										<IndexedTriangleSet solid="false"
										                    normalPerVertex="true"
										                    index="0 1 2 0 2 3 4 5 6 4 6 7 8 9 10 8 10 11 12 13 14 12 14 15 4 16 17 4 17 15 18 5 14 18 14 19 "
										                    >
											<Coordinate point="-0.532338 0.000000 0.000000 0.000000 0.000000 0.532338 0.000000 0.414936 0.532338 -0.532338 0.414936 0.000000 -0.532338 0.414936 0.000000 0.000000 0.414936 0.532338 0.532338 0.414936 0.000000 0.000000 0.414936 -0.532338 0.000000 0.414936 -0.532338 0.532338 0.414936 0.000000 0.532338 0.000000 0.000000 0.000000 0.000000 -0.532338 0.000000 0.000000 -0.532338 0.532338 0.000000 0.000000 0.000000 0.000000 0.532338 -0.532338 0.000000 0.000000 0.000000 0.414936 -0.532338 0.000000 0.000000 -0.532338 0.532338 0.414936 0.000000 0.532338 0.000000 0.000000 " />
											<Normal vector="-0.816492 -0.577349 0.000000 0.000000 -0.577349 0.816492 0.000000 0.577349 0.816492 -0.816492 0.577349 0.000000 -0.816492 0.577349 0.000000 0.000000 0.577349 0.816492 0.816492 0.577349 0.000000 0.000000 0.577349 -0.816492 0.000000 0.577349 -0.816492 0.816492 0.577349 0.000000 0.816492 -0.577349 0.000000 0.000000 -0.577349 -0.816492 0.000000 -0.577349 -0.816492 0.816492 -0.577349 0.000000 0.000000 -0.577349 0.816492 -0.816492 -0.577349 0.000000 0.000000 0.577349 -0.816492 0.000000 -0.577349 -0.816492 0.816492 0.577349 0.000000 0.816492 -0.577349 0.000000 " />
											<TextureCoordinate point="0.0210 0.0244 0.9790 0.0244 0.9790 0.4637 0.0210 0.4637 0.0210 0.0244 0.9790 0.0244 0.9790 0.4637 0.0210 0.4637 0.0210 0.0244 0.9790 0.0244 0.9790 0.4637 0.0210 0.4637 0.0210 0.0244 0.9790 0.0244 0.9790 0.4637 0.0210 0.4637 0.9790 0.0244 0.9790 0.4637 0.0210 0.0244 0.0210 0.4637 " />
										</IndexedTriangleSet>
									</Shape>
								</Group>
							</Transform>
							<Transform DEF="Cube_019_TRANSFORM"
							           translation="0.000000 0.252199 0.000000"
							           scale="1.000000 1.000000 1.000000"
							           rotation="0.000000 1.000000 0.000000 0.000000"
							           >
								<Transform DEF="Cube_019_ifs_TRANSFORM"
								           translation="0.000000 0.000000 0.000000"
								           scale="1.000000 1.000000 1.000000"
								           rotation="0.000000 1.000000 0.000000 0.000000"
								           >
									<Group DEF="group_ME_Cube_030">
										<Shape>
											<Appearance>
												<Material USE="MA_Body" />
											</Appearance>
											<IndexedTriangleSet solid="false"
											                    normalPerVertex="true"
											                    index="0 1 2 0 2 3 4 5 6 4 6 7 8 9 10 8 10 11 12 13 14 12 14 15 4 16 17 4 17 15 18 5 14 18 14 19 "
											                    >
												<Coordinate point="-0.426814 0.000000 0.426813 0.426813 0.000000 0.426814 0.426813 0.274740 0.426814 -0.426814 0.274740 0.426813 -0.426814 0.274740 0.426813 0.426813 0.274740 0.426814 0.426814 0.274740 -0.426813 -0.426813 0.274740 -0.426814 -0.426813 0.274740 -0.426814 0.426814 0.274740 -0.426813 0.426814 0.000000 -0.426813 -0.426813 0.000000 -0.426814 -0.426813 0.000000 -0.426814 0.426814 0.000000 -0.426813 0.426813 0.000000 0.426814 -0.426814 0.000000 0.426813 -0.426813 0.274740 -0.426814 -0.426813 0.000000 -0.426814 0.426814 0.274740 -0.426813 0.426814 0.000000 -0.426813 " />
												<Normal vector="-0.577349 -0.577349 0.577349 0.577349 -0.577349 0.577349 0.577349 0.577349 0.577349 -0.577349 0.577349 0.577349 -0.577349 0.577349 0.577349 0.577349 0.577349 0.577349 0.577349 0.577349 -0.577349 -0.577349 0.577349 -0.577349 -0.577349 0.577349 -0.577349 0.577349 0.577349 -0.577349 0.577349 -0.577349 -0.577349 -0.577349 -0.577349 -0.577349 -0.577349 -0.577349 -0.577349 0.577349 -0.577349 -0.577349 0.577349 -0.577349 0.577349 -0.577349 -0.577349 0.577349 -0.577349 0.577349 -0.577349 -0.577349 -0.577349 -0.577349 0.577349 0.577349 -0.577349 0.577349 -0.577349 -0.577349 " />
												<TextureCoordinate point="0.0210 0.0244 0.9790 0.0244 0.9790 0.4637 0.0210 0.4637 0.0210 0.0244 0.9790 0.0244 0.9790 0.4637 0.0210 0.4637 0.0210 0.0244 0.9790 0.0244 0.9790 0.4637 0.0210 0.4637 0.0210 0.0244 0.9790 0.0244 0.9790 0.4637 0.0210 0.4637 0.9790 0.0244 0.9790 0.4637 0.0210 0.0244 0.0210 0.4637 " />
											</IndexedTriangleSet>
										</Shape>
									</Group>
								</Transform>
							</Transform>
						</Transform>
					</Transform>
				</Transform>
			</Transform>
			<Transform DEF="foot2_TRANSFORM"
			           translation="-0.682146 0.048716 0.112582"
			           scale="1.000000 1.000000 1.000000"
			           rotation="0.000000 1.000000 0.000000 0.000000"
			           >
				<Transform DEF="foot2_ifs_TRANSFORM"
				           translation="0.000000 0.000000 0.000000"
				           scale="1.000000 1.000000 1.000000"
				           rotation="0.000000 1.000000 0.000000 0.000000"
				           >
					<Group DEF="group_ME_foot2">
						<Shape>
							<Appearance>
								<Material USE="MA_Body" />
							</Appearance>
							<IndexedTriangleSet solid="false"
							                    normalPerVertex="true"
							                    index="0 1 2 0 2 3 4 5 6 4 6 7 8 9 10 8 10 11 12 13 14 12 14 15 4 13 16 4 16 17 18 19 14 18 14 7 "
							                    >
								<Coordinate point="0.377216 -0.338874 -0.733715 0.377216 0.390808 -0.707419 0.377216 0.364841 0.013148 0.377216 -0.364841 -0.013148 0.377216 0.390808 -0.707419 -0.377216 0.390808 -0.707419 -0.377216 0.364841 0.013148 0.377216 0.364841 0.013148 -0.377216 0.390808 -0.707419 -0.377216 -0.338874 -0.733715 -0.377216 -0.364841 -0.013148 -0.377216 0.364841 0.013148 -0.377216 -0.338874 -0.733715 0.377216 -0.338874 -0.733715 0.377216 -0.364841 -0.013148 -0.377216 -0.364841 -0.013148 -0.377216 -0.338874 -0.733715 -0.377216 0.390808 -0.707419 -0.377216 0.364841 0.013148 -0.377216 -0.364841 -0.013148 " />
								<Normal vector="0.577349 -0.556169 -0.597766 0.577349 0.597766 -0.556169 0.577349 0.556169 0.597766 0.577349 -0.597766 0.556169 0.577349 0.597766 -0.556169 -0.577349 0.597766 -0.556169 -0.577349 0.556169 0.597766 0.577349 0.556169 0.597766 -0.577349 0.597766 -0.556169 -0.577349 -0.556169 -0.597766 -0.577349 -0.597766 0.556169 -0.577349 0.556169 0.597766 -0.577349 -0.556169 -0.597766 0.577349 -0.556169 -0.597766 0.577349 -0.597766 0.556169 -0.577349 -0.597766 0.556169 -0.577349 -0.556169 -0.597766 -0.577349 0.597766 -0.556169 -0.577349 0.556169 0.597766 -0.577349 -0.597766 0.556169 " />
								<TextureCoordinate point="0.0210 0.5313 0.0210 0.9707 0.9790 0.9707 0.9790 0.5313 0.0210 0.5313 0.0210 0.9707 0.9790 0.9707 0.9790 0.5313 0.0210 0.5313 0.0210 0.9707 0.9790 0.9707 0.9790 0.5313 0.0210 0.5313 0.0210 0.9707 0.9790 0.9707 0.9790 0.5313 0.9790 0.9707 0.9790 0.5313 0.0210 0.5313 0.0210 0.9707 " />
							</IndexedTriangleSet>
						</Shape>
					</Group>
				</Transform>
			</Transform>
		</Transform>
	</Scene>
</X3D>