<?xml version="1.0" encoding="UTF-8"?>
<!DOCTYPE X3D PUBLIC "ISO//Web3D//DTD X3D 3.0//EN" "http://www.web3d.org/specifications/x3d-3.0.dtd">
<X3D version="3.0" profile="Immersive" xmlns:xsd="http://www.w3.org/2001/XMLSchema-instance" xsd:noNamespaceSchemaLocation="http://www.web3d.org/specifications/x3d-3.0.xsd">
	<head>
		<meta name="filename" content="beedrill.x3d" />
		<meta name="generator" content="Blender 2.93.18" />
	</head>
	<Scene>
		<NavigationInfo headlight="true"
		                visibilityLimit="0.0"
		                type='"EXAMINE", "ANY"'
		                avatarSize="0.25, 1.75, 0.75"
		                />
		<Background DEF="WO_World"
		            groundColor="0.051 0.051 0.051"
		            skyColor="0.051 0.051 0.051"
		            />
		<Transform DEF="body_TRANSFORM"
		           translation="0.000000 -0.095959 0.917712"
		           scale="1.000000 1.000000 1.000000"
		           rotation="0.000000 0.000000 1.000000 3.141593"
		           >
			<Transform DEF="body_ifs_TRANSFORM"
			           translation="0.000000 0.000000 0.000000"
			           scale="1.000000 1.000000 1.000000"
			           rotation="0.000000 1.000000 0.000000 0.000000"
			           >
				<Group DEF="group_ME_body">
					<Shape>
						<Appearance>
							<Material DEF="MA_Body"
							          diffuseColor="0.800 0.800 0.800"
							          specularColor="0.401 0.401 0.401"
							          emissiveColor="0.000 0.000 0.000"
							          ambientIntensity="0.000"
							          shininess="0.500"
							          transparency="0.0"
							          />
						</Appearance>
						<IndexedTriangleSet solid="false"
						                    normalPerVertex="true"
						                    index="0 1 2 0 2 3 4 5 6 4 6 7 8 9 10 8 10 11 12 13 14 12 14 15 4 16 17 4 17 15 18 5 14 18 14 19 "
						                    >
							<Coordinate point="-0.181036 0.193784 0.474852 -0.181036 0.193784 -0.000000 -0.181036 -0.193784 0.000000 -0.181036 -0.193784 0.474852 -0.181036 -0.193784 0.474852 -0.181036 -0.193784 0.000000 0.181036 -0.193784 0.000000 0.181036 -0.193784 0.474852 0.181036 -0.193784 0.474852 0.181036 -0.193784 0.000000 0.181036 0.193784 -0.000000 0.181036 0.193784 0.474852 0.181036 0.193784 0.474852 0.181036 0.193784 -0.000000 -0.181036 0.193784 -0.000000 -0.181036 0.193784 0.474852 0.181036 -0.193784 0.474852 0.181036 0.193784 0.474852 0.181036 -0.193784 0.000000 0.181036 0.193784 -0.000000 " />
							<Normal vector="-0.577349 0.577349 0.577349 -0.577349 0.577349 -0.577349 -0.577349 -0.577349 -0.577349 -0.577349 -0.577349 0.577349 -0.577349 -0.577349 0.577349 -0.577349 -0.577349 -0.577349 0.577349 -0.577349 -0.577349 0.577349 -0.577349 0.577349 0.577349 -0.577349 0.577349 0.577349 -0.577349 -0.577349 0.577349 0.577349 -0.577349 0.577349 0.577349 0.577349 0.577349 0.577349 0.577349 0.577349 0.577349 -0.577349 -0.577349 0.577349 -0.577349 -0.577349 0.577349 0.577349 0.577349 -0.577349 0.577349 0.577349 0.577349 0.577349 0.577349 -0.577349 -0.577349 0.577349 0.577349 -0.577349 " />
							<TextureCoordinate point="0.0378 0.1876 0.3372 0.1876 0.3372 0.3358 0.0378 0.3358 0.0378 0.1876 0.3372 0.1876 0.3372 0.3358 0.0378 0.3358 0.0378 0.1876 0.3372 0.1876 0.3372 0.3358 0.0378 0.3358 0.0378 0.1876 0.3372 0.1876 0.3372 0.3358 0.0378 0.3358 0.3372 0.1876 0.3372 0.3358 0.0378 0.1876 0.0378 0.3358 " />
						</IndexedTriangleSet>
					</Shape>
				</Group>
			</Transform>
			<Transform DEF="but_TRANSFORM"
			           translation="0.000000 -0.022402 -0.000000"
			           scale="1.000000 1.000000 1.000000"
			           rotation="0.000000 1.000000 0.000000 0.000000"
			           >
				<Transform DEF="but_ifs_TRANSFORM"
				           translation="0.000000 0.000000 0.000000"
				           scale="1.000000 1.000000 1.000000"
				           rotation="0.000000 1.000000 0.000000 0.000000"
				           >
					<Group DEF="group_ME_but">
						<Shape>
							<Appearance>
								<Material USE="MA_Body" />
							</Appearance>
							<IndexedTriangleSet solid="false"
							                    normalPerVertex="true"
							                    index="0 1 2 0 2 3 4 5 6 4 6 7 8 9 10 8 10 11 12 13 14 12 14 15 4 16 17 4 17 15 18 5 14 18 14 19 "
							                    >
								<Coordinate point="-0.214668 -0.239492 0.010849 -0.214668 -0.192802 0.100458 -0.214668 0.192802 -0.100458 -0.214668 0.146112 -0.190067 -0.214668 0.146112 -0.190067 -0.214668 0.192802 -0.100458 0.214668 0.192802 -0.100458 0.214668 0.146112 -0.190067 0.214668 0.146112 -0.190067 0.214668 0.192802 -0.100458 0.214668 -0.192802 0.100458 0.214668 -0.239492 0.010849 0.214668 -0.239492 0.010849 0.214668 -0.192802 0.100458 -0.214668 -0.192802 0.100458 -0.214668 -0.239492 0.010849 0.214668 0.146112 -0.190067 0.214668 -0.239492 0.010849 0.214668 0.192802 -0.100458 0.214668 -0.192802 0.100458 " />
								<Normal vector="-0.577349 -0.778771 -0.245216 -0.577349 -0.245216 0.778771 -0.577349 0.778771 0.245216 -0.577349 0.245216 -0.778771 -0.577349 0.245216 -0.778771 -0.577349 0.778771 0.245216 0.577349 0.778771 0.245216 0.577349 0.245216 -0.778771 0.577349 0.245216 -0.778771 0.577349 0.778771 0.245216 0.577349 -0.245216 0.778771 0.577349 -0.778771 -0.245216 0.577349 -0.778771 -0.245216 0.577349 -0.245216 0.778771 -0.577349 -0.245216 0.778771 -0.577349 -0.778771 -0.245216 0.577349 0.245216 -0.778771 0.577349 -0.778771 -0.245216 0.577349 0.778771 0.245216 0.577349 -0.245216 0.778771 " />
								<TextureCoordinate point="0.0378 0.1876 0.3372 0.1876 0.3372 0.3358 0.0378 0.3358 0.0378 0.1876 0.3372 0.1876 0.3372 0.3358 0.0378 0.3358 0.0378 0.1876 0.3372 0.1876 0.3372 0.3358 0.0378 0.3358 0.0378 0.1876 0.3372 0.1876 0.3372 0.3358 0.0378 0.3358 0.3372 0.1876 0.3372 0.3358 0.0378 0.1876 0.0378 0.3358 " />
							</IndexedTriangleSet>
						</Shape>
					</Group>
				</Transform>
				<Transform DEF="Cube_TRANSFORM"
				           translation="0.000000 -0.030968 -0.059435"
				           scale="1.000000 1.000000 1.000000"
				           rotation="0.000000 1.000000 0.000000 0.000000"
				           >
					<Transform DEF="Cube_ifs_TRANSFORM"
					           translation="0.000000 0.000000 0.000000"
					           scale="1.000000 1.000000 1.000000"
					           rotation="0.000000 1.000000 0.000000 0.000000"
					           >
						<Group DEF="group_ME_Cube">
							<Shape>
								<Appearance>
									<Material USE="MA_Body" />
								</Appearance>
								<IndexedTriangleSet solid="false"
								                    normalPerVertex="true"
								                    index="0 1 2 0 2 3 4 5 6 4 6 7 8 9 10 8 10 11 12 13 14 12 14 15 16 17 18 16 18 19 20 5 14 20 14 21 22 23 24 22 24 25 26 27 28 26 28 29 30 31 32 30 32 33 34 35 36 34 36 37 38 39 40 38 40 41 42 43 44 42 44 45 46 47 48 46 48 49 50 51 52 50 52 53 54 55 56 54 56 57 58 59 60 58 60 61 62 63 64 62 64 65 66 67 68 66 68 69 70 71 72 70 72 73 16 74 75 16 75 76 77 78 79 77 79 80 81 82 83 81 83 19 "
								                    >
									<Coordinate point="-0.376352 -0.391490 0.073494 -0.376352 -0.338017 0.176121 -0.376352 0.338017 -0.176121 -0.376352 0.284543 -0.278748 -0.376352 0.284543 -0.278748 -0.376352 0.338017 -0.176121 0.376352 0.338017 -0.176121 0.376352 0.284543 -0.278748 0.376352 0.284543 -0.278748 0.376352 0.338017 -0.176121 0.376352 -0.338017 0.176121 0.376352 -0.391490 0.073494 0.376352 -0.391490 0.073494 0.376352 -0.338017 0.176121 -0.376352 -0.338017 0.176121 -0.376352 -0.391490 0.073494 -0.376352 -0.006378 -0.837094 0.376352 -0.006378 -0.837094 0.376352 -0.682412 -0.484852 -0.376352 -0.682412 -0.484852 0.376352 0.338017 -0.176121 0.376352 -0.338017 0.176121 0.376352 -0.616263 -0.357897 0.376352 -0.535956 -0.203769 -0.376352 -0.535956 -0.203769 -0.376352 -0.616263 -0.357897 0.376352 0.059770 -0.710139 0.376352 0.140078 -0.556011 0.376352 -0.535956 -0.203769 0.376352 -0.616263 -0.357897 -0.376352 0.059770 -0.710139 -0.376352 0.140078 -0.556011 0.376352 0.140078 -0.556011 0.376352 0.059770 -0.710139 -0.376352 -0.616263 -0.357897 -0.376352 -0.535956 -0.203769 -0.376352 0.140078 -0.556011 -0.376352 0.059770 -0.710139 0.376352 -0.535956 -0.203769 0.376352 -0.461571 -0.061008 -0.376352 -0.461571 -0.061008 -0.376352 -0.535956 -0.203769 0.376352 0.140078 -0.556011 0.376352 0.214463 -0.413250 0.376352 -0.461571 -0.061008 0.376352 -0.535956 -0.203769 -0.376352 0.140078 -0.556011 -0.376352 0.214463 -0.413250 0.376352 0.214463 -0.413250 0.376352 0.140078 -0.556011 -0.376352 -0.535956 -0.203769 -0.376352 -0.461571 -0.061008 -0.376352 0.214463 -0.413250 -0.376352 0.140078 -0.556011 0.376352 -0.461571 -0.061008 0.376352 -0.391490 0.073494 -0.376352 -0.391490 0.073494 -0.376352 -0.461571 -0.061008 0.376352 0.214463 -0.413250 0.376352 0.284543 -0.278748 0.376352 -0.391490 0.073494 0.376352 -0.461571 -0.061008 -0.376352 0.214463 -0.413250 -0.376352 0.284543 -0.278748 0.376352 0.284543 -0.278748 0.376352 0.214463 -0.413250 -0.376352 -0.461571 -0.061008 -0.376352 -0.391490 0.073494 -0.376352 0.284543 -0.278748 -0.376352 0.214463 -0.413250 -0.376352 -0.682412 -0.484852 -0.376352 -0.616263 -0.357897 -0.376352 0.059770 -0.710139 -0.376352 -0.006378 -0.837094 -0.376352 0.059770 -0.710139 0.376352 0.059770 -0.710139 0.376352 -0.006378 -0.837094 0.376352 -0.006378 -0.837094 0.376352 0.059770 -0.710139 0.376352 -0.616263 -0.357897 0.376352 -0.682412 -0.484852 0.376352 -0.682412 -0.484852 0.376352 -0.616263 -0.357897 -0.376352 -0.616263 -0.357897 " />
									<Normal vector="-0.707083 -0.627064 0.326731 -0.577349 -0.245216 0.778771 -0.577349 0.778771 0.245216 -0.707083 0.627064 -0.326731 -0.707083 0.627064 -0.326731 -0.577349 0.778771 0.245216 0.577349 0.778771 0.245216 0.707083 0.627064 -0.326731 0.707083 0.627064 -0.326731 0.577349 0.778771 0.245216 0.577349 -0.245216 0.778771 0.707083 -0.627064 0.326731 0.707083 -0.627064 0.326731 0.577349 -0.245216 0.778771 -0.577349 -0.245216 0.778771 -0.707083 -0.627064 0.326731 -0.577349 0.245216 -0.778771 0.577349 0.245216 -0.778771 0.577349 -0.778771 -0.245216 -0.577349 -0.778771 -0.245216 0.577349 0.778771 0.245216 0.577349 -0.245216 0.778771 0.707083 -0.627064 0.326731 0.707083 -0.627064 0.326731 -0.707083 -0.627064 0.326731 -0.707083 -0.627064 0.326731 0.707083 0.627064 -0.326731 0.707083 0.627064 -0.326731 0.707083 -0.627064 0.326731 0.707083 -0.627064 0.326731 -0.707083 0.627064 -0.326731 -0.707083 0.627064 -0.326731 0.707083 0.627064 -0.326731 0.707083 0.627064 -0.326731 -0.707083 -0.627064 0.326731 -0.707083 -0.627064 0.326731 -0.707083 0.627064 -0.326731 -0.707083 0.627064 -0.326731 0.707083 -0.627064 0.326731 0.707083 -0.627064 0.326731 -0.707083 -0.627064 0.326731 -0.707083 -0.627064 0.326731 0.707083 0.627064 -0.326731 0.707083 0.627064 -0.326731 0.707083 -0.627064 0.326731 0.707083 -0.627064 0.326731 -0.707083 0.627064 -0.326731 -0.707083 0.627064 -0.326731 0.707083 0.627064 -0.326731 0.707083 0.627064 -0.326731 -0.707083 -0.627064 0.326731 -0.707083 -0.627064 0.326731 -0.707083 0.627064 -0.326731 -0.707083 0.627064 -0.326731 0.707083 -0.627064 0.326731 0.707083 -0.627064 0.326731 -0.707083 -0.627064 0.326731 -0.707083 -0.627064 0.326731 0.707083 0.627064 -0.326731 0.707083 0.627064 -0.326731 0.707083 -0.627064 0.326731 0.707083 -0.627064 0.326731 -0.707083 0.627064 -0.326731 -0.707083 0.627064 -0.326731 0.707083 0.627064 -0.326731 0.707083 0.627064 -0.326731 -0.707083 -0.627064 0.326731 -0.707083 -0.627064 0.326731 -0.707083 0.627064 -0.326731 -0.707083 0.627064 -0.326731 -0.577349 -0.778771 -0.245216 -0.707083 -0.627064 0.326731 -0.707083 0.627064 -0.326731 -0.577349 0.245216 -0.778771 -0.707083 0.627064 -0.326731 0.707083 0.627064 -0.326731 0.577349 0.245216 -0.778771 0.577349 0.245216 -0.778771 0.707083 0.627064 -0.326731 0.707083 -0.627064 0.326731 0.577349 -0.778771 -0.245216 0.577349 -0.778771 -0.245216 0.707083 -0.627064 0.326731 -0.707083 -0.627064 0.326731 " />
									<TextureCoordinate point="0.2998 0.1876 0.3372 0.1876 0.3372 0.3358 0.2998 0.3358 0.2998 0.1876 0.3372 0.1876 0.3372 0.3358 0.2998 0.3358 0.2998 0.1876 0.3372 0.1876 0.3372 0.3358 0.2998 0.3358 0.2998 0.1876 0.3372 0.1876 0.3372 0.3358 0.2998 0.3358 0.0378 0.1876 0.3372 0.1876 0.3372 0.3358 0.0378 0.3358 0.0378 0.1876 0.0378 0.3358 0.0361 0.0168 0.3077 0.0168 0.3077 0.1551 0.0361 0.1551 0.0361 0.0168 0.3077 0.0168 0.3077 0.1551 0.0361 0.1551 0.0361 0.0168 0.3077 0.0168 0.3077 0.1551 0.0361 0.1551 0.0361 0.0168 0.3077 0.0168 0.3077 0.1551 0.0361 0.1551 0.1875 0.1876 0.2624 0.1876 0.2624 0.3358 0.1875 0.3358 0.1875 0.1876 0.2624 0.1876 0.2624 0.3358 0.1875 0.3358 0.1875 0.1876 0.2624 0.1876 0.2624 0.3358 0.1875 0.3358 0.1875 0.1876 0.2624 0.1876 0.2624 0.3358 0.1875 0.3358 0.0361 0.0168 0.3077 0.0168 0.3077 0.1551 0.0361 0.1551 0.0361 0.0168 0.3077 0.0168 0.3077 0.1551 0.0361 0.1551 0.0361 0.0168 0.3077 0.0168 0.3077 0.1551 0.0361 0.1551 0.0361 0.0168 0.3077 0.0168 0.3077 0.1551 0.0361 0.1551 0.0378 0.1876 0.1126 0.1876 0.1126 0.3358 0.0378 0.3358 0.1126 0.1876 0.1126 0.3358 0.0378 0.3358 0.0378 0.1876 0.1126 0.1876 0.1126 0.3358 0.0378 0.3358 0.0378 0.1876 0.1126 0.1876 0.1126 0.3358 " />
								</IndexedTriangleSet>
							</Shape>
						</Group>
					</Transform>
					<Transform DEF="Cube_001_TRANSFORM"
					           translation="0.000000 -0.327528 -0.628601"
					           scale="1.000000 1.000000 1.000000"
					           rotation="0.000000 1.000000 0.000000 0.000000"
					           >
						<Transform DEF="Cube_001_ifs_TRANSFORM"
						           translation="0.000000 0.000000 0.000000"
						           scale="1.000000 1.000000 1.000000"
						           rotation="0.000000 1.000000 0.000000 0.000000"
						           >
							<Group DEF="group_ME_Cube_001">
								<Shape>
									<Appearance>
										<Material USE="MA_Body" />
									</Appearance>
									<IndexedTriangleSet solid="false"
									                    normalPerVertex="true"
									                    index="0 1 2 0 2 3 4 5 6 4 6 7 8 9 10 8 10 11 12 13 14 12 14 15 4 16 17 4 17 15 18 5 14 18 14 19 "
									                    >
										<Coordinate point="-0.204655 -0.236588 -0.005523 -0.204655 -0.183808 0.095772 -0.204655 0.183808 -0.095772 -0.204655 0.131029 -0.197067 -0.204655 0.131029 -0.197067 -0.204655 0.183808 -0.095772 0.204655 0.183808 -0.095772 0.204655 0.131029 -0.197067 0.204655 0.131029 -0.197067 0.204655 0.183808 -0.095772 0.204655 -0.183808 0.095772 0.204655 -0.236588 -0.005523 0.204655 -0.236588 -0.005523 0.204655 -0.183808 0.095772 -0.204655 -0.183808 0.095772 -0.204655 -0.236588 -0.005523 0.204655 0.131029 -0.197067 0.204655 -0.236588 -0.005523 0.204655 0.183808 -0.095772 0.204655 -0.183808 0.095772 " />
										<Normal vector="-0.577349 -0.778771 -0.245216 -0.577349 -0.245216 0.778771 -0.577349 0.778771 0.245216 -0.577349 0.245216 -0.778771 -0.577349 0.245216 -0.778771 -0.577349 0.778771 0.245216 0.577349 0.778771 0.245216 0.577349 0.245216 -0.778771 0.577349 0.245216 -0.778771 0.577349 0.778771 0.245216 0.577349 -0.245216 0.778771 0.577349 -0.778771 -0.245216 0.577349 -0.778771 -0.245216 0.577349 -0.245216 0.778771 -0.577349 -0.245216 0.778771 -0.577349 -0.778771 -0.245216 0.577349 0.245216 -0.778771 0.577349 -0.778771 -0.245216 0.577349 0.778771 0.245216 0.577349 -0.245216 0.778771 " />
										<TextureCoordinate point="0.0378 0.1876 0.3372 0.1876 0.3372 0.3358 0.0378 0.3358 0.0378 0.1876 0.3372 0.1876 0.3372 0.3358 0.0378 0.3358 0.0378 0.1876 0.3372 0.1876 0.3372 0.3358 0.0378 0.3358 0.0378 0.1876 0.3372 0.1876 0.3372 0.3358 0.0378 0.3358 0.3372 0.1876 0.3372 0.3358 0.0378 0.1876 0.0378 0.3358 " />
									</IndexedTriangleSet>
								</Shape>
							</Group>
						</Transform>
						<Transform DEF="Cube_002_TRANSFORM"
						           translation="0.000000 -0.045972 -0.088231"
						           scale="1.000000 1.000000 1.000000"
						           rotation="0.000000 1.000000 0.000000 0.000000"
						           >
							<Transform DEF="Cube_002_ifs_TRANSFORM"
							           translation="0.000000 0.000000 0.000000"
							           scale="1.000000 1.000000 1.000000"
							           rotation="0.000000 1.000000 0.000000 0.000000"
							           >
								<Group DEF="group_ME_Cube_006">
									<Shape>
										<Appearance>
											<Material USE="MA_Body" />
										</Appearance>
										<IndexedTriangleSet solid="false"
										                    normalPerVertex="true"
										                    index="0 1 2 0 2 3 4 5 6 4 6 7 8 9 10 8 10 11 12 13 14 12 14 15 4 16 17 4 17 15 18 5 14 18 14 19 "
										                    >
											<Coordinate point="-0.110942 -0.198127 -0.132102 -0.110942 -0.099062 0.053013 -0.110942 0.099062 -0.053013 -0.110942 -0.000002 -0.238129 -0.110942 -0.000002 -0.238129 -0.110942 0.099062 -0.053013 0.110942 0.099062 -0.053013 0.110942 -0.000002 -0.238129 0.110942 -0.000002 -0.238129 0.110942 0.099062 -0.053013 0.110942 -0.099062 0.053013 0.110942 -0.198127 -0.132102 0.110942 -0.198127 -0.132102 0.110942 -0.099062 0.053013 -0.110942 -0.099062 0.053013 -0.110942 -0.198127 -0.132102 0.110942 -0.000002 -0.238129 0.110942 -0.198127 -0.132102 0.110942 0.099062 -0.053013 0.110942 -0.099062 0.053013 " />
											<Normal vector="-0.577349 -0.781426 -0.236610 -0.577349 -0.236610 0.781426 -0.577349 0.781426 0.236610 -0.577349 0.236610 -0.781426 -0.577349 0.236610 -0.781426 -0.577349 0.781426 0.236610 0.577349 0.781426 0.236610 0.577349 0.236610 -0.781426 0.577349 0.236610 -0.781426 0.577349 0.781426 0.236610 0.577349 -0.236610 0.781426 0.577349 -0.781426 -0.236610 0.577349 -0.781426 -0.236610 0.577349 -0.236610 0.781426 -0.577349 -0.236610 0.781426 -0.577349 -0.781426 -0.236610 0.577349 0.236610 -0.781426 0.577349 -0.781426 -0.236610 0.577349 0.781426 0.236610 0.577349 -0.236610 0.781426 " />
											<TextureCoordinate point="0.0378 0.1876 0.3372 0.1876 0.3372 0.3358 0.0378 0.3358 0.0378 0.1876 0.3372 0.1876 0.3372 0.3358 0.0378 0.3358 0.0378 0.1876 0.3372 0.1876 0.3372 0.3358 0.0378 0.3358 0.0378 0.1876 0.3372 0.1876 0.3372 0.3358 0.0378 0.3358 0.3372 0.1876 0.3372 0.3358 0.0378 0.1876 0.0378 0.3358 " />
										</IndexedTriangleSet>
									</Shape>
								</Group>
							</Transform>
							<Transform DEF="Cube_003_TRANSFORM"
							           translation="0.000000 -0.090290 -0.168720"
							           scale="1.000000 1.000000 1.000000"
							           rotation="0.000000 1.000000 0.000000 0.000000"
							           >
								<Transform DEF="Cube_003_ifs_TRANSFORM"
								           translation="0.000000 0.000000 0.000000"
								           scale="1.000000 1.000000 1.000000"
								           rotation="0.000000 1.000000 0.000000 0.000000"
								           >
									<Group DEF="group_ME_Cube_008">
										<Shape>
											<Appearance>
												<Material USE="MA_Body" />
											</Appearance>
											<IndexedTriangleSet solid="false"
											                    normalPerVertex="true"
											                    index="0 1 2 0 2 3 4 5 6 4 6 7 8 9 10 8 10 11 12 13 14 12 14 15 4 16 17 4 17 15 18 5 14 18 14 19 "
											                    >
												<Coordinate point="-0.061421 -0.172381 -0.190284 -0.061421 -0.054844 0.029350 -0.061421 0.054844 -0.029350 -0.061421 -0.062693 -0.248984 -0.061421 -0.062693 -0.248984 -0.061421 0.054844 -0.029350 0.061421 0.054844 -0.029350 0.061421 -0.062693 -0.248984 0.061421 -0.062693 -0.248984 0.061421 0.054844 -0.029350 0.061421 -0.054844 0.029350 0.061421 -0.172381 -0.190284 0.061421 -0.172381 -0.190284 0.061421 -0.054844 0.029350 -0.061421 -0.054844 0.029350 -0.061421 -0.172381 -0.190284 0.061421 -0.062693 -0.248984 0.061421 -0.172381 -0.190284 0.061421 0.054844 -0.029350 0.061421 -0.054844 0.029350 " />
												<Normal vector="-0.577349 -0.781426 -0.236610 -0.577349 -0.236610 0.781426 -0.577349 0.781426 0.236610 -0.577349 0.236610 -0.781426 -0.577349 0.236610 -0.781426 -0.577349 0.781426 0.236610 0.577349 0.781426 0.236610 0.577349 0.236610 -0.781426 0.577349 0.236610 -0.781426 0.577349 0.781426 0.236610 0.577349 -0.236610 0.781426 0.577349 -0.781426 -0.236610 0.577349 -0.781426 -0.236610 0.577349 -0.236610 0.781426 -0.577349 -0.236610 0.781426 -0.577349 -0.781426 -0.236610 0.577349 0.236610 -0.781426 0.577349 -0.781426 -0.236610 0.577349 0.781426 0.236610 0.577349 -0.236610 0.781426 " />
												<TextureCoordinate point="0.0378 0.1876 0.3372 0.1876 0.3372 0.3358 0.0378 0.3358 0.0378 0.1876 0.3372 0.1876 0.3372 0.3358 0.0378 0.3358 0.0378 0.1876 0.3372 0.1876 0.3372 0.3358 0.0378 0.3358 0.0378 0.1876 0.3372 0.1876 0.3372 0.3358 0.0378 0.3358 0.3372 0.1876 0.3372 0.3358 0.0378 0.1876 0.0378 0.3358 " />
											</IndexedTriangleSet>
										</Shape>
									</Group>
								</Transform>
							</Transform>
						</Transform>
					</Transform>
				</Transform>
			</Transform>
			<Transform DEF="head_TRANSFORM"
			           translation="0.000000 -0.089632 0.447127"
			           scale="1.000000 1.000000 1.000000"
			           rotation="0.000000 1.000000 0.000000 0.000000"
			           >
				<Transform DEF="head_ifs_TRANSFORM"
				           translation="0.000000 0.000000 0.000000"
				           scale="1.000000 1.000000 1.000000"
				           rotation="0.000000 1.000000 0.000000 0.000000"
				           >
					<Group DEF="group_ME_head">
						<Shape>
							<Appearance>
								<Material USE="MA_Body" />
							</Appearance>
							<IndexedTriangleSet solid="false"
							                    normalPerVertex="true"
							                    index="0 1 2 0 2 3 4 5 6 4 6 7 8 9 10 8 10 11 12 13 14 12 14 15 4 16 17 4 17 15 18 5 14 18 14 19 "
							                    >
								<Coordinate point="-0.233619 -0.202126 0.013322 -0.233619 -0.174100 0.438539 -0.233619 0.230152 0.411895 -0.233619 0.202126 -0.013322 -0.233619 0.202126 -0.013322 -0.233619 0.230152 0.411895 0.233619 0.230152 0.411895 0.233619 0.202126 -0.013322 0.233619 0.202126 -0.013322 0.233619 0.230152 0.411895 0.233619 -0.174100 0.438539 0.233619 -0.202126 0.013322 0.233619 -0.202126 0.013322 0.233619 -0.174100 0.438539 -0.233619 -0.174100 0.438539 -0.233619 -0.202126 0.013322 0.233619 0.202126 -0.013322 0.233619 -0.202126 0.013322 0.233619 0.230152 0.411895 0.233619 -0.174100 0.438539 " />
								<Normal vector="-0.577349 -0.614063 -0.538102 -0.577349 -0.538102 0.614063 -0.577349 0.614063 0.538102 -0.577349 0.538102 -0.614063 -0.577349 0.538102 -0.614063 -0.577349 0.614063 0.538102 0.577349 0.614063 0.538102 0.577349 0.538102 -0.614063 0.577349 0.538102 -0.614063 0.577349 0.614063 0.538102 0.577349 -0.538102 0.614063 0.577349 -0.614063 -0.538102 0.577349 -0.614063 -0.538102 0.577349 -0.538102 0.614063 -0.577349 -0.538102 0.614063 -0.577349 -0.614063 -0.538102 0.577349 0.538102 -0.614063 0.577349 -0.614063 -0.538102 0.577349 0.614063 0.538102 0.577349 -0.538102 0.614063 " />
								<TextureCoordinate point="0.0378 0.1876 0.3372 0.1876 0.3372 0.3358 0.0378 0.3358 0.0378 0.1876 0.3372 0.1876 0.3372 0.3358 0.0378 0.3358 0.0378 0.1876 0.3372 0.1876 0.3372 0.3358 0.0378 0.3358 0.0378 0.1876 0.3372 0.1876 0.3372 0.3358 0.0378 0.3358 0.3372 0.1876 0.3372 0.3358 0.0378 0.1876 0.0378 0.3358 " />
							</IndexedTriangleSet>
						</Shape>
					</Group>
				</Transform>
				<Transform DEF="Cube_007_TRANSFORM"
				           translation="0.000000 -0.030291 0.234813"
				           scale="1.000000 1.000000 1.000000"
				           rotation="0.000000 1.000000 0.000000 0.000000"
				           >
					<Transform DEF="Cube_007_ifs_TRANSFORM"
					           translation="0.000000 0.000000 0.000000"
					           scale="1.000000 1.000000 1.000000"
					           rotation="0.000000 1.000000 0.000000 0.000000"
					           >
						<Group DEF="group_ME_Cube_013">
							<Shape>
								<Appearance>
									<Material USE="MA_Body" />
								</Appearance>
								<IndexedTriangleSet solid="false"
								                    normalPerVertex="true"
								                    index="0 1 2 0 2 3 4 5 6 4 6 7 8 9 10 8 10 11 12 13 14 12 14 15 4 16 17 4 17 15 18 5 14 18 14 19 "
								                    >
									<Coordinate point="-0.155826 0.042099 -0.167392 -0.155826 -0.289358 -0.250753 -0.155826 -0.373555 0.084031 -0.155826 -0.042099 0.167392 -0.155826 -0.042099 0.167392 -0.155826 -0.373555 0.084031 0.155826 -0.373555 0.084031 0.155826 -0.042099 0.167392 0.155826 -0.042099 0.167392 0.155826 -0.373555 0.084031 0.155826 -0.289358 -0.250753 0.155826 0.042099 -0.167392 0.155826 0.042099 -0.167392 0.155826 -0.289358 -0.250753 -0.155826 -0.289358 -0.250753 -0.155826 0.042099 -0.167392 0.155826 -0.042099 0.167392 0.155826 0.042099 -0.167392 0.155826 -0.373555 0.084031 0.155826 -0.289358 -0.250753 " />
									<Normal vector="-0.577349 0.700705 -0.419080 -0.577349 -0.419080 -0.700705 -0.577349 -0.700705 0.419080 -0.577349 0.419080 0.700705 -0.577349 0.419080 0.700705 -0.577349 -0.700705 0.419080 0.577349 -0.700705 0.419080 0.577349 0.419080 0.700705 0.577349 0.419080 0.700705 0.577349 -0.700705 0.419080 0.577349 -0.419080 -0.700705 0.577349 0.700705 -0.419080 0.577349 0.700705 -0.419080 0.577349 -0.419080 -0.700705 -0.577349 -0.419080 -0.700705 -0.577349 0.700705 -0.419080 0.577349 0.419080 0.700705 0.577349 0.700705 -0.419080 0.577349 -0.700705 0.419080 0.577349 -0.419080 -0.700705 " />
									<TextureCoordinate point="0.0378 0.1876 0.3372 0.1876 0.3372 0.3358 0.0378 0.3358 0.0378 0.1876 0.3372 0.1876 0.3372 0.3358 0.0378 0.3358 0.0378 0.1876 0.3372 0.1876 0.3372 0.3358 0.0378 0.3358 0.0378 0.1876 0.3372 0.1876 0.3372 0.3358 0.0378 0.3358 0.3372 0.1876 0.3372 0.3358 0.0378 0.1876 0.0378 0.3358 " />
								</IndexedTriangleSet>
							</Shape>
						</Group>
					</Transform>
				</Transform>
				<Transform DEF="Cube_008_TRANSFORM"
				           translation="0.215802 -0.036259 0.258546"
				           scale="1.000000 1.000000 1.000000"
				           rotation="0.000000 1.000000 0.000000 0.000000"
				           >
					<Transform DEF="Cube_008_ifs_TRANSFORM"
					           translation="0.000000 0.000000 0.000000"
					           scale="1.000000 1.000000 1.000000"
					           rotation="0.000000 1.000000 0.000000 0.000000"
					           >
						<Group DEF="group_ME_Cube_014">
							<Shape>
								<Appearance>
									<Material DEF="MA_Eye"
									          diffuseColor="0.800 0.800 0.800"
									          specularColor="0.401 0.401 0.401"
									          emissiveColor="0.000 0.000 0.000"
									          ambientIntensity="0.000"
									          shininess="0.500"
									          transparency="0.0"
									          />
								</Appearance>
								<IndexedTriangleSet solid="false"
								                    normalPerVertex="true"
								                    index="0 1 2 0 2 3 4 5 6 4 6 7 8 9 10 8 10 11 12 13 14 12 14 15 4 16 17 4 17 15 18 5 14 18 14 19 "
								                    >
									<Coordinate point="-0.061191 0.024851 -0.100417 -0.136594 -0.224526 -0.116184 -0.151903 -0.232003 0.075290 -0.076500 0.017374 0.091057 -0.076500 0.017374 0.091057 -0.151903 -0.232003 0.075290 -0.014212 -0.274228 0.084650 0.061191 -0.024851 0.100417 0.061191 -0.024851 0.100417 -0.014212 -0.274228 0.084650 0.001097 -0.266751 -0.106824 0.076500 -0.017374 -0.091057 0.076500 -0.017374 -0.091057 0.001097 -0.266751 -0.106824 -0.136594 -0.224526 -0.116184 -0.061191 0.024851 -0.100417 0.061191 -0.024851 0.100417 0.076500 -0.017374 -0.091057 -0.014212 -0.274228 0.084650 0.001097 -0.266751 -0.106824 " />
									<Normal vector="-0.338023 0.742973 -0.577624 -0.671621 -0.360240 -0.647389 -0.763573 -0.405164 0.502731 -0.429975 0.698080 0.572497 -0.429975 0.698080 0.572497 -0.763573 -0.405164 0.502731 0.338023 -0.742973 0.577624 0.671621 0.360240 0.647389 0.671621 0.360240 0.647389 0.338023 -0.742973 0.577624 0.429975 -0.698080 -0.572497 0.763573 0.405164 -0.502731 0.763573 0.405164 -0.502731 0.429975 -0.698080 -0.572497 -0.671621 -0.360240 -0.647389 -0.338023 0.742973 -0.577624 0.671621 0.360240 0.647389 0.763573 0.405164 -0.502731 0.338023 -0.742973 0.577624 0.429975 -0.698080 -0.572497 " />
									<TextureCoordinate point="0.7674 0.1915 0.9748 0.1915 0.9748 0.3397 0.7674 0.3397 0.7674 0.1915 0.9748 0.1915 0.9748 0.3397 0.7674 0.3397 0.7674 0.1915 0.9748 0.1915 0.9748 0.3397 0.7674 0.3397 0.7674 0.1915 0.9748 0.1915 0.9748 0.3397 0.7674 0.3397 0.9748 0.1915 0.9748 0.3397 0.7674 0.1915 0.7674 0.3397 " />
								</IndexedTriangleSet>
							</Shape>
						</Group>
					</Transform>
				</Transform>
				<Transform DEF="ant1_TRANSFORM"
				           translation="0.086207 -0.050641 0.406715"
				           scale="1.000000 1.000000 1.000000"
				           rotation="0.000000 1.000000 0.000000 0.000000"
				           >
					<Transform DEF="ant1_ifs_TRANSFORM"
					           translation="0.000000 0.000000 0.000000"
					           scale="1.000000 1.000000 1.000000"
					           rotation="0.000000 1.000000 0.000000 0.000000"
					           >
						<Group DEF="group_ME_ant1">
							<Shape>
								<Appearance>
									<Material USE="MA_Body" />
								</Appearance>
								<IndexedTriangleSet solid="false"
								                    normalPerVertex="true"
								                    index="0 1 2 0 2 3 4 5 6 4 6 7 8 9 10 8 10 11 12 13 14 12 14 15 4 16 17 4 17 15 18 5 14 18 14 19 "
								                    >
									<Coordinate point="-0.016957 -0.019309 0.008650 0.145239 -0.057630 0.241055 0.145408 -0.022559 0.246720 -0.016788 0.015762 0.014316 -0.016788 0.015762 0.014316 0.145408 -0.022559 0.246720 0.179153 -0.019012 0.223754 0.016957 0.019309 -0.008650 0.016957 0.019309 -0.008650 0.179153 -0.019012 0.223754 0.178984 -0.054083 0.218089 0.016788 -0.015762 -0.014316 0.016788 -0.015762 -0.014316 0.178984 -0.054083 0.218089 0.145239 -0.057630 0.241055 -0.016957 -0.019309 0.008650 0.016957 0.019309 -0.008650 0.016788 -0.015762 -0.014316 0.179153 -0.019012 0.223754 0.178984 -0.054083 0.218089 " />
									<Normal vector="-0.805689 -0.542558 -0.237617 -0.150792 -0.697287 0.700705 -0.145299 0.442579 0.884854 -0.800195 0.597308 -0.053468 -0.800195 0.597308 -0.053468 -0.145299 0.442579 0.884854 0.805689 0.542558 0.237617 0.150792 0.697287 -0.700705 0.150792 0.697287 -0.700705 0.805689 0.542558 0.237617 0.800195 -0.597308 0.053468 0.145299 -0.442579 -0.884854 0.145299 -0.442579 -0.884854 0.800195 -0.597308 0.053468 -0.150792 -0.697287 0.700705 -0.805689 -0.542558 -0.237617 0.150792 0.697287 -0.700705 0.145299 -0.442579 -0.884854 0.805689 0.542558 0.237617 0.800195 -0.597308 0.053468 " />
									<TextureCoordinate point="0.4195 0.1876 0.6899 0.1876 0.6899 0.3358 0.4195 0.3358 0.4195 0.1876 0.6899 0.1876 0.6899 0.3358 0.4195 0.3358 0.4195 0.1876 0.6899 0.1876 0.6899 0.3358 0.4195 0.3358 0.4195 0.1876 0.6899 0.1876 0.6899 0.3358 0.4195 0.3358 0.6899 0.1876 0.6899 0.3358 0.4195 0.1876 0.4195 0.3358 " />
								</IndexedTriangleSet>
							</Shape>
						</Group>
					</Transform>
					<Transform DEF="Cube_010_TRANSFORM"
					           translation="0.156584 -0.036995 0.224363"
					           scale="1.000000 1.000000 1.000000"
					           rotation="0.000000 1.000000 0.000000 0.000000"
					           >
						<Transform DEF="Cube_010_ifs_TRANSFORM"
						           translation="0.000000 0.000000 0.000000"
						           scale="1.000000 1.000000 1.000000"
						           rotation="0.000000 1.000000 0.000000 0.000000"
						           >
							<Group DEF="group_ME_Cube_016">
								<Shape>
									<Appearance>
										<Material USE="MA_Body" />
									</Appearance>
									<IndexedTriangleSet solid="false"
									                    normalPerVertex="true"
									                    index="0 1 2 0 2 3 4 5 6 4 6 7 8 9 10 8 10 11 12 13 14 12 14 15 4 16 17 4 17 15 18 5 14 18 14 19 "
									                    >
										<Coordinate point="-0.034785 -0.001170 -0.007651 0.019250 -0.344283 -0.200869 0.043132 -0.361048 -0.164420 -0.010903 -0.017935 0.028799 -0.010903 -0.017935 0.028799 0.043132 -0.361048 -0.164420 0.088820 -0.341943 -0.185567 0.034785 0.001170 0.007651 0.034785 0.001170 0.007651 0.088820 -0.341943 -0.185567 0.064938 -0.325179 -0.222017 0.010903 0.017935 -0.028799 0.010903 0.017935 -0.028799 0.064938 -0.325179 -0.222017 0.019250 -0.344283 -0.200869 -0.034785 -0.001170 -0.007651 0.034785 0.001170 0.007651 0.010903 0.017935 -0.028799 0.088820 -0.341943 -0.185567 0.064938 -0.325179 -0.222017 " />
										<Normal vector="-0.863643 0.500870 0.056673 -0.706656 -0.495895 -0.504624 -0.116062 -0.910520 0.396771 -0.273019 0.086245 0.958098 -0.273019 0.086245 0.958098 -0.116062 -0.910520 0.396771 0.863643 -0.500870 -0.056673 0.706656 0.495895 0.504624 0.706656 0.495895 0.504624 0.863643 -0.500870 -0.056673 0.273019 -0.086245 -0.958098 0.116062 0.910520 -0.396771 0.116062 0.910520 -0.396771 0.273019 -0.086245 -0.958098 -0.706656 -0.495895 -0.504624 -0.863643 0.500870 0.056673 0.706656 0.495895 0.504624 0.116062 0.910520 -0.396771 0.863643 -0.500870 -0.056673 0.273019 -0.086245 -0.958098 " />
										<TextureCoordinate point="0.4195 0.1876 0.6899 0.1876 0.6899 0.3358 0.4195 0.3358 0.4195 0.1876 0.6899 0.1876 0.6899 0.3358 0.4195 0.3358 0.4195 0.1876 0.6899 0.1876 0.6899 0.3358 0.4195 0.3358 0.4195 0.1876 0.6899 0.1876 0.6899 0.3358 0.4195 0.3358 0.6899 0.1876 0.6899 0.3358 0.4195 0.1876 0.4195 0.3358 " />
									</IndexedTriangleSet>
								</Shape>
							</Group>
						</Transform>
					</Transform>
				</Transform>
				<Transform DEF="Cube_004_TRANSFORM"
				           translation="-0.215802 -0.036259 0.258546"
				           scale="1.000000 1.000000 1.000000"
				           rotation="0.000000 1.000000 0.000000 0.000000"
				           >
					<Transform DEF="Cube_004_ifs_TRANSFORM"
					           translation="0.000000 0.000000 0.000000"
					           scale="1.000000 1.000000 1.000000"
					           rotation="0.000000 1.000000 0.000000 0.000000"
					           >
						<Group DEF="group_ME_Cube_009">
							<Shape>
								<Appearance>
									<Material USE="MA_Eye" />
								</Appearance>
								<IndexedTriangleSet solid="false"
								                    normalPerVertex="true"
								                    index="0 1 2 0 2 3 4 5 6 4 6 7 8 9 10 8 10 11 12 13 14 12 14 15 4 13 16 4 16 17 18 19 14 18 14 7 "
								                    >
									<Coordinate point="0.061191 0.024851 -0.100417 0.076500 0.017374 0.091057 0.151903 -0.232003 0.075290 0.136594 -0.224526 -0.116184 0.076500 0.017374 0.091057 -0.061191 -0.024851 0.100417 0.014212 -0.274228 0.084650 0.151903 -0.232003 0.075290 -0.061191 -0.024851 0.100417 -0.076500 -0.017374 -0.091057 -0.001097 -0.266751 -0.106824 0.014212 -0.274228 0.084650 -0.076500 -0.017374 -0.091057 0.061191 0.024851 -0.100417 0.136594 -0.224526 -0.116184 -0.001097 -0.266751 -0.106824 -0.076500 -0.017374 -0.091057 -0.061191 -0.024851 0.100417 0.014212 -0.274228 0.084650 -0.001097 -0.266751 -0.106824 " />
									<Normal vector="0.338023 0.742973 -0.577624 0.429975 0.698080 0.572497 0.763573 -0.405164 0.502731 0.671621 -0.360240 -0.647389 0.429975 0.698080 0.572497 -0.671621 0.360240 0.647389 -0.338023 -0.742973 0.577624 0.763573 -0.405164 0.502731 -0.671621 0.360240 0.647389 -0.763573 0.405164 -0.502731 -0.429975 -0.698080 -0.572497 -0.338023 -0.742973 0.577624 -0.763573 0.405164 -0.502731 0.338023 0.742973 -0.577624 0.671621 -0.360240 -0.647389 -0.429975 -0.698080 -0.572497 -0.763573 0.405164 -0.502731 -0.671621 0.360240 0.647389 -0.338023 -0.742973 0.577624 -0.429975 -0.698080 -0.572497 " />
									<TextureCoordinate point="0.7674 0.1915 0.7674 0.3397 0.9748 0.3397 0.9748 0.1915 0.7674 0.1915 0.7674 0.3397 0.9748 0.3397 0.9748 0.1915 0.7674 0.1915 0.7674 0.3397 0.9748 0.3397 0.9748 0.1915 0.7674 0.1915 0.7674 0.3397 0.9748 0.3397 0.9748 0.1915 0.9748 0.3397 0.9748 0.1915 0.7674 0.1915 0.7674 0.3397 " />
								</IndexedTriangleSet>
							</Shape>
						</Group>
					</Transform>
				</Transform>
				<Transform DEF="ant1_001_TRANSFORM"
				           translation="-0.086207 -0.050641 0.406715"
				           scale="1.000000 1.000000 1.000000"
				           rotation="0.000000 1.000000 0.000000 0.000000"
				           >
					<Transform DEF="ant1_001_ifs_TRANSFORM"
					           translation="0.000000 0.000000 0.000000"
					           scale="1.000000 1.000000 1.000000"
					           rotation="0.000000 1.000000 0.000000 0.000000"
					           >
						<Group DEF="group_ME_ant1_002">
							<Shape>
								<Appearance>
									<Material USE="MA_Body" />
								</Appearance>
								<IndexedTriangleSet solid="false"
								                    normalPerVertex="true"
								                    index="0 1 2 0 2 3 4 5 6 4 6 7 8 9 10 8 10 11 12 13 14 12 14 15 4 13 16 4 16 17 18 19 14 18 14 7 "
								                    >
									<Coordinate point="0.016957 -0.019309 0.008650 0.016788 0.015762 0.014316 -0.145408 -0.022559 0.246720 -0.145239 -0.057630 0.241055 0.016788 0.015762 0.014316 -0.016957 0.019309 -0.008650 -0.179153 -0.019012 0.223754 -0.145408 -0.022559 0.246720 -0.016957 0.019309 -0.008650 -0.016788 -0.015762 -0.014316 -0.178984 -0.054083 0.218089 -0.179153 -0.019012 0.223754 -0.016788 -0.015762 -0.014316 0.016957 -0.019309 0.008650 -0.145239 -0.057630 0.241055 -0.178984 -0.054083 0.218089 -0.016788 -0.015762 -0.014316 -0.016957 0.019309 -0.008650 -0.179153 -0.019012 0.223754 -0.178984 -0.054083 0.218089 " />
									<Normal vector="0.805689 -0.542558 -0.237617 0.800195 0.597308 -0.053468 0.145299 0.442579 0.884854 0.150792 -0.697287 0.700705 0.800195 0.597308 -0.053468 -0.150792 0.697287 -0.700705 -0.805689 0.542558 0.237617 0.145299 0.442579 0.884854 -0.150792 0.697287 -0.700705 -0.145299 -0.442579 -0.884854 -0.800195 -0.597308 0.053468 -0.805689 0.542558 0.237617 -0.145299 -0.442579 -0.884854 0.805689 -0.542558 -0.237617 0.150792 -0.697287 0.700705 -0.800195 -0.597308 0.053468 -0.145299 -0.442579 -0.884854 -0.150792 0.697287 -0.700705 -0.805689 0.542558 0.237617 -0.800195 -0.597308 0.053468 " />
									<TextureCoordinate point="0.4195 0.1876 0.4195 0.3358 0.6899 0.3358 0.6899 0.1876 0.4195 0.1876 0.4195 0.3358 0.6899 0.3358 0.6899 0.1876 0.4195 0.1876 0.4195 0.3358 0.6899 0.3358 0.6899 0.1876 0.4195 0.1876 0.4195 0.3358 0.6899 0.3358 0.6899 0.1876 0.6899 0.3358 0.6899 0.1876 0.4195 0.1876 0.4195 0.3358 " />
								</IndexedTriangleSet>
							</Shape>
						</Group>
					</Transform>
					<Transform DEF="Cube_005_TRANSFORM"
					           translation="-0.156584 -0.036995 0.224363"
					           scale="1.000000 1.000000 1.000000"
					           rotation="0.000000 1.000000 0.000000 0.000000"
					           >
						<Transform DEF="Cube_005_ifs_TRANSFORM"
						           translation="0.000000 0.000000 0.000000"
						           scale="1.000000 1.000000 1.000000"
						           rotation="0.000000 1.000000 0.000000 0.000000"
						           >
							<Group DEF="group_ME_Cube_012">
								<Shape>
									<Appearance>
										<Material USE="MA_Body" />
									</Appearance>
									<IndexedTriangleSet solid="false"
									                    normalPerVertex="true"
									                    index="0 1 2 0 2 3 4 5 6 4 6 7 8 9 10 8 10 11 12 13 14 12 14 15 4 13 16 4 16 17 18 19 14 18 14 7 "
									                    >
										<Coordinate point="0.034785 -0.001170 -0.007651 0.010903 -0.017935 0.028799 -0.043132 -0.361048 -0.164420 -0.019250 -0.344283 -0.200869 0.010903 -0.017935 0.028799 -0.034785 0.001170 0.007651 -0.088820 -0.341943 -0.185567 -0.043132 -0.361048 -0.164420 -0.034785 0.001170 0.007651 -0.010903 0.017935 -0.028799 -0.064938 -0.325178 -0.222017 -0.088820 -0.341943 -0.185567 -0.010903 0.017935 -0.028799 0.034785 -0.001170 -0.007651 -0.019250 -0.344283 -0.200869 -0.064938 -0.325178 -0.222017 -0.010903 0.017935 -0.028799 -0.034785 0.001170 0.007651 -0.088820 -0.341943 -0.185567 -0.064938 -0.325178 -0.222017 " />
										<Normal vector="0.863643 0.500870 0.056673 0.273019 0.086245 0.958098 0.116062 -0.910520 0.396771 0.706656 -0.495895 -0.504624 0.273019 0.086245 0.958098 -0.706656 0.495895 0.504624 -0.863643 -0.500870 -0.056673 0.116062 -0.910520 0.396771 -0.706656 0.495895 0.504624 -0.116062 0.910520 -0.396771 -0.273019 -0.086245 -0.958098 -0.863643 -0.500870 -0.056673 -0.116062 0.910520 -0.396771 0.863643 0.500870 0.056673 0.706656 -0.495895 -0.504624 -0.273019 -0.086245 -0.958098 -0.116062 0.910520 -0.396771 -0.706656 0.495895 0.504624 -0.863643 -0.500870 -0.056673 -0.273019 -0.086245 -0.958098 " />
										<TextureCoordinate point="0.4195 0.1876 0.4195 0.3358 0.6899 0.3358 0.6899 0.1876 0.4195 0.1876 0.4195 0.3358 0.6899 0.3358 0.6899 0.1876 0.4195 0.1876 0.4195 0.3358 0.6899 0.3358 0.6899 0.1876 0.4195 0.1876 0.4195 0.3358 0.6899 0.3358 0.6899 0.1876 0.6899 0.3358 0.6899 0.1876 0.4195 0.1876 0.4195 0.3358 " />
									</IndexedTriangleSet>
								</Shape>
							</Group>
						</Transform>
					</Transform>
				</Transform>
			</Transform>
			<Transform DEF="leg1_TRANSFORM"
			           translation="0.086368 -0.160708 0.123221"
			           scale="1.000000 1.000000 1.000000"
			           rotation="0.000000 1.000000 0.000000 0.000000"
			           >
				<Transform DEF="leg1_ifs_TRANSFORM"
				           translation="0.000000 0.000000 0.000000"
				           scale="1.000000 1.000000 1.000000"
				           rotation="0.000000 1.000000 0.000000 0.000000"
				           >
					<Group DEF="group_ME_leg1">
						<Shape>
							<Appearance>
								<Material USE="MA_Body" />
							</Appearance>
							<IndexedTriangleSet solid="false"
							                    normalPerVertex="true"
							                    index="0 1 2 0 2 3 4 5 6 4 6 7 8 9 10 8 10 11 12 13 14 12 14 15 4 16 17 4 17 15 18 5 14 18 14 19 "
							                    >
								<Coordinate point="0.133663 -0.202591 -0.129819 0.133663 -0.229188 -0.073273 -0.024496 -0.029158 0.020813 -0.024496 -0.002561 -0.035732 -0.024496 -0.002561 -0.035732 -0.024496 -0.029158 0.020813 0.024496 0.002561 0.035732 0.024496 0.029158 -0.020813 0.024496 0.029158 -0.020813 0.024496 0.002561 0.035732 0.182654 -0.197470 -0.058354 0.182654 -0.170873 -0.114900 0.182654 -0.170873 -0.114900 0.182654 -0.197470 -0.058354 0.133663 -0.229188 -0.073273 0.133663 -0.202591 -0.129819 0.024496 0.029158 -0.020813 0.182654 -0.170873 -0.114900 0.024496 0.002561 0.035732 0.182654 -0.197470 -0.058354 " />
								<Normal vector="-0.133580 -0.483139 -0.865261 -0.133580 -0.974609 0.179601 -0.805475 -0.124821 0.579302 -0.805475 0.366619 -0.465560 -0.805475 0.366619 -0.465560 -0.805475 -0.124821 0.579302 0.133580 0.483139 0.865261 0.133580 0.974609 -0.179601 0.133580 0.974609 -0.179601 0.133580 0.483139 0.865261 0.805475 -0.366619 0.465560 0.805475 0.124821 -0.579302 0.805475 0.124821 -0.579302 0.805475 -0.366619 0.465560 -0.133580 -0.974609 0.179601 -0.133580 -0.483139 -0.865261 0.133580 0.974609 -0.179601 0.805475 0.124821 -0.579302 0.133580 0.483139 0.865261 0.805475 -0.366619 0.465560 " />
								<TextureCoordinate point="0.4011 0.1876 0.7005 0.1876 0.7005 0.3358 0.4011 0.3358 0.4011 0.1876 0.7005 0.1876 0.7005 0.3358 0.4011 0.3358 0.4011 0.1876 0.7005 0.1876 0.7005 0.3358 0.4011 0.3358 0.4011 0.1876 0.7005 0.1876 0.7005 0.3358 0.4011 0.3358 0.7005 0.1876 0.7005 0.3358 0.4011 0.1876 0.4011 0.3358 " />
							</IndexedTriangleSet>
						</Shape>
					</Group>
				</Transform>
				<Transform DEF="Cube_011_TRANSFORM"
				           translation="0.154409 -0.195289 -0.091856"
				           scale="1.000000 1.000000 1.000000"
				           rotation="0.000000 1.000000 0.000000 0.000000"
				           >
					<Transform DEF="Cube_011_ifs_TRANSFORM"
					           translation="0.000000 0.000000 0.000000"
					           scale="1.000000 1.000000 1.000000"
					           rotation="0.000000 1.000000 0.000000 0.000000"
					           >
						<Group DEF="group_ME_Cube_017">
							<Shape>
								<Appearance>
									<Material USE="MA_Body" />
								</Appearance>
								<IndexedTriangleSet solid="false"
								                    normalPerVertex="true"
								                    index="0 1 2 0 2 3 4 5 6 4 6 7 8 9 10 8 10 11 12 13 14 12 14 15 4 16 17 4 17 15 18 5 14 18 14 19 "
								                    >
									<Coordinate point="0.189111 -0.276369 -0.080708 0.178543 -0.294042 -0.017834 -0.030012 -0.026752 0.022244 -0.019444 -0.009079 -0.040629 -0.019444 -0.009079 -0.040629 -0.030012 -0.026752 0.022244 0.019444 0.009079 0.040629 0.030012 0.026752 -0.022244 0.030012 0.026752 -0.022244 0.019444 0.009079 0.040629 0.227998 -0.258211 0.000550 0.238566 -0.240538 -0.062323 0.238566 -0.240538 -0.062323 0.227998 -0.258211 0.000550 0.178543 -0.294042 -0.017834 0.189111 -0.276369 -0.080708 0.030012 0.026752 -0.022244 0.238566 -0.240538 -0.062323 0.019444 0.009079 0.040629 0.227998 -0.258211 0.000550 " />
									<Normal vector="-0.002747 -0.622150 -0.782861 -0.187201 -0.930601 0.314463 -0.892605 -0.026521 0.450026 -0.708152 0.281899 -0.647298 -0.708152 0.281899 -0.647298 -0.892605 -0.026521 0.450026 0.002747 0.622150 0.782861 0.187201 0.930601 -0.314463 0.187201 0.930601 -0.314463 0.002747 0.622150 0.782861 0.708152 -0.281899 0.647298 0.892605 0.026521 -0.450026 0.892605 0.026521 -0.450026 0.708152 -0.281899 0.647298 -0.187201 -0.930601 0.314463 -0.002747 -0.622150 -0.782861 0.187201 0.930601 -0.314463 0.892605 0.026521 -0.450026 0.002747 0.622150 0.782861 0.708152 -0.281899 0.647298 " />
									<TextureCoordinate point="0.4011 0.1876 0.7005 0.1876 0.7005 0.3358 0.4011 0.3358 0.4011 0.1876 0.7005 0.1876 0.7005 0.3358 0.4011 0.3358 0.4011 0.1876 0.7005 0.1876 0.7005 0.3358 0.4011 0.3358 0.4011 0.1876 0.7005 0.1876 0.7005 0.3358 0.4011 0.3358 0.7005 0.1876 0.7005 0.3358 0.4011 0.1876 0.4011 0.3358 " />
								</IndexedTriangleSet>
							</Shape>
						</Group>
					</Transform>
				</Transform>
				<Transform DEF="leg1_1_TRANSFORM"
				           translation="0.369769 -0.456342 -0.128119"
				           scale="1.000000 1.000000 1.000000"
				           rotation="0.000000 1.000000 0.000000 0.000000"
				           >
					<Transform DEF="leg1_1_ifs_TRANSFORM"
					           translation="0.000000 0.000000 0.000000"
					           scale="1.000000 1.000000 1.000000"
					           rotation="0.000000 1.000000 0.000000 0.000000"
					           >
						<Group DEF="group_ME_leg1_1">
							<Shape>
								<Appearance>
									<Material USE="MA_Body" />
								</Appearance>
								<IndexedTriangleSet solid="false"
								                    normalPerVertex="true"
								                    index="0 1 2 0 2 3 4 5 6 4 6 7 8 9 10 8 10 11 12 13 14 12 14 15 4 16 17 4 17 15 18 5 14 18 14 19 "
								                    >
									<Coordinate point="-0.001720 0.066341 -0.237440 0.052378 -0.008713 -0.240754 -0.007385 -0.061689 -0.016544 -0.061483 0.013364 -0.013230 -0.061483 0.013364 -0.013230 -0.007385 -0.061689 -0.016544 0.061483 -0.013364 0.013230 0.007385 0.061689 0.016544 0.007385 0.061689 0.016544 0.061483 -0.013364 0.013230 0.121246 0.039612 -0.210979 0.067148 0.114665 -0.207665 0.067148 0.114665 -0.207665 0.121246 0.039612 -0.210979 0.052378 -0.008713 -0.240754 -0.001720 0.066341 -0.237440 0.007385 0.061689 0.016544 0.067148 0.114665 -0.207665 0.061483 -0.013364 0.013230 0.121246 0.039612 -0.210979 " />
									<Normal vector="-0.637928 0.283944 -0.715812 0.036805 -0.652181 -0.757164 -0.253121 -0.909177 0.330576 -0.927854 0.026917 0.371899 -0.927854 0.026917 0.371899 -0.253121 -0.909177 0.330576 0.637928 -0.283944 0.715812 -0.036805 0.652181 0.757164 -0.036805 0.652181 0.757164 0.637928 -0.283944 0.715812 0.927854 -0.026917 -0.371899 0.253121 0.909177 -0.330576 0.253121 0.909177 -0.330576 0.927854 -0.026917 -0.371899 0.036805 -0.652181 -0.757164 -0.637928 0.283944 -0.715812 -0.036805 0.652181 0.757164 0.253121 0.909177 -0.330576 0.637928 -0.283944 0.715812 0.927854 -0.026917 -0.371899 " />
									<TextureCoordinate point="0.4011 0.1876 0.7005 0.1876 0.7005 0.3358 0.4011 0.3358 0.4011 0.1876 0.7005 0.1876 0.7005 0.3358 0.4011 0.3358 0.4011 0.1876 0.7005 0.1876 0.7005 0.3358 0.4011 0.3358 0.4011 0.1876 0.7005 0.1876 0.7005 0.3358 0.4011 0.3358 0.7005 0.1876 0.7005 0.3358 0.4011 0.1876 0.4011 0.3358 " />
								</IndexedTriangleSet>
							</Shape>
						</Group>
					</Transform>
					<Transform DEF="Cube_014_TRANSFORM"
					           translation="0.027397 0.068190 -0.174040"
					           scale="1.000000 1.000000 1.000000"
					           rotation="0.000000 1.000000 0.000000 0.000000"
					           >
						<Transform DEF="Cube_014_ifs_TRANSFORM"
						           translation="0.000000 0.000000 0.000000"
						           scale="1.000000 1.000000 1.000000"
						           rotation="0.000000 1.000000 0.000000 0.000000"
						           >
							<Group DEF="group_ME_Cube_020">
								<Shape>
									<Appearance>
										<Material USE="MA_Body" />
									</Appearance>
									<IndexedTriangleSet solid="false"
									                    normalPerVertex="true"
									                    index="0 1 2 0 2 3 4 5 6 4 6 7 8 9 10 8 10 11 12 13 14 12 14 15 4 16 17 4 17 15 18 5 14 18 14 19 "
									                    >
										<Coordinate point="0.017282 0.098629 -0.399697 0.120702 -0.054628 -0.390168 0.000309 -0.112696 -0.017458 -0.103111 0.040560 -0.026988 -0.103111 0.040560 -0.026988 0.000309 -0.112696 -0.017458 0.103111 -0.040560 0.026988 -0.000309 0.112696 0.017458 -0.000309 0.112696 0.017458 0.103111 -0.040560 0.026988 0.223504 0.017508 -0.345722 0.120084 0.170765 -0.355251 0.120084 0.170765 -0.355251 0.223504 0.017508 -0.345722 0.120702 -0.054628 -0.390168 0.017282 0.098629 -0.399697 -0.000309 0.112696 0.017458 0.120084 0.170765 -0.355251 0.103111 -0.040560 0.026988 0.223504 0.017508 -0.345722 " />
										<Normal vector="-0.592486 0.249977 -0.765770 0.052522 -0.705893 -0.706351 -0.298532 -0.875210 0.380535 -0.943571 0.080630 0.321116 -0.943571 0.080630 0.321116 -0.298532 -0.875210 0.380535 0.592486 -0.249977 0.765770 -0.052522 0.705893 0.706351 -0.052522 0.705893 0.706351 0.592486 -0.249977 0.765770 0.943571 -0.080630 -0.321116 0.298532 0.875210 -0.380535 0.298532 0.875210 -0.380535 0.943571 -0.080630 -0.321116 0.052522 -0.705893 -0.706351 -0.592486 0.249977 -0.765770 -0.052522 0.705893 0.706351 0.298532 0.875210 -0.380535 0.592486 -0.249977 0.765770 0.943571 -0.080630 -0.321116 " />
										<TextureCoordinate point="0.4011 0.1876 0.7005 0.1876 0.7005 0.3358 0.4011 0.3358 0.4011 0.1876 0.7005 0.1876 0.7005 0.3358 0.4011 0.3358 0.4011 0.1876 0.7005 0.1876 0.7005 0.3358 0.4011 0.3358 0.4011 0.1876 0.7005 0.1876 0.7005 0.3358 0.4011 0.3358 0.7005 0.1876 0.7005 0.3358 0.4011 0.1876 0.4011 0.3358 " />
									</IndexedTriangleSet>
								</Shape>
							</Group>
						</Transform>
						<Transform DEF="Cube_015_TRANSFORM"
						           translation="0.112684 0.046556 -0.336196"
						           scale="1.000000 1.000000 1.000000"
						           rotation="0.000000 1.000000 0.000000 0.000000"
						           >
							<Transform DEF="Cube_015_ifs_TRANSFORM"
							           translation="0.000000 0.000000 0.000000"
							           scale="1.000000 1.000000 1.000000"
							           rotation="0.000000 1.000000 0.000000 0.000000"
							           >
								<Group DEF="group_ME_Cube_021">
									<Shape>
										<Appearance>
											<Material USE="MA_Body" />
										</Appearance>
										<IndexedTriangleSet solid="false"
										                    normalPerVertex="true"
										                    index="0 1 2 0 2 3 4 5 6 4 6 7 8 9 10 8 10 11 12 13 14 12 14 15 4 16 17 4 17 15 18 5 14 18 14 19 "
										                    >
											<Coordinate point="0.005403 0.153462 -0.395314 0.053826 0.093577 -0.410120 -0.010223 -0.054105 -0.022291 -0.058645 0.005780 -0.007484 -0.058645 0.005780 -0.007484 -0.010223 -0.054105 -0.022291 0.058645 -0.005780 0.007484 0.010223 0.054105 0.022291 0.010223 0.054105 0.022291 0.058645 -0.005780 0.007484 0.122694 0.141902 -0.380345 0.074272 0.201786 -0.365539 0.074272 0.201786 -0.365539 0.122694 0.141902 -0.380345 0.053826 0.093577 -0.410120 0.005403 0.153462 -0.395314 0.010223 0.054105 0.022291 0.074272 0.201786 -0.365539 0.058645 -0.005780 0.007484 0.122694 0.141902 -0.380345 " />
											<Normal vector="-0.713950 0.331278 -0.616840 -0.000977 -0.550432 -0.834864 -0.177099 -0.956542 0.231605 -0.890072 -0.074801 0.449599 -0.890072 -0.074801 0.449599 -0.177099 -0.956542 0.231605 0.713950 -0.331278 0.616840 0.000977 0.550432 0.834864 0.000977 0.550432 0.834864 0.713950 -0.331278 0.616840 0.890072 0.074801 -0.449599 0.177099 0.956542 -0.231605 0.177099 0.956542 -0.231605 0.890072 0.074801 -0.449599 -0.000977 -0.550432 -0.834864 -0.713950 0.331278 -0.616840 0.000977 0.550432 0.834864 0.177099 0.956542 -0.231605 0.713950 -0.331278 0.616840 0.890072 0.074801 -0.449599 " />
											<TextureCoordinate point="0.4011 0.1876 0.7005 0.1876 0.7005 0.3358 0.4011 0.3358 0.4011 0.1876 0.7005 0.1876 0.7005 0.3358 0.4011 0.3358 0.4011 0.1876 0.7005 0.1876 0.7005 0.3358 0.4011 0.3358 0.4011 0.1876 0.7005 0.1876 0.7005 0.3358 0.4011 0.3358 0.7005 0.1876 0.7005 0.3358 0.4011 0.1876 0.4011 0.3358 " />
										</IndexedTriangleSet>
									</Shape>
								</Group>
							</Transform>
						</Transform>
					</Transform>
					<Transform DEF="foot1_TRANSFORM"
					           translation="0.196512 0.244862 -0.851934"
					           scale="1.000000 1.000000 1.000000"
					           rotation="0.000000 1.000000 0.000000 0.000000"
					           >
						<Transform DEF="foot1_ifs_TRANSFORM"
						           translation="0.000000 0.000000 0.000000"
						           scale="1.000000 1.000000 1.000000"
						           rotation="0.000000 1.000000 0.000000 0.000000"
						           >
							<Group DEF="group_ME_foot1">
								<Shape>
									<Appearance>
										<Material USE="MA_Body" />
									</Appearance>
									<IndexedTriangleSet solid="false"
									                    normalPerVertex="true"
									                    index="0 1 2 0 2 3 4 5 6 4 6 7 8 9 10 8 10 11 12 13 14 12 14 15 4 16 17 4 17 15 18 5 14 18 14 19 "
									                    >
										<Coordinate point="0.235971 -0.272243 -0.091294 0.222103 -0.297434 -0.018334 -0.034272 -0.037375 0.022728 -0.020405 -0.012184 -0.050232 -0.020405 -0.012184 -0.050232 -0.034272 -0.037375 0.022728 0.020405 0.012184 0.050232 0.034272 0.037375 -0.022728 0.034272 0.037375 -0.022728 0.020405 0.012184 0.050232 0.276780 -0.247875 0.009170 0.290648 -0.222684 -0.063790 0.290648 -0.222684 -0.063790 0.276780 -0.247875 0.009170 0.222103 -0.297434 -0.018334 0.235971 -0.272243 -0.091294 0.034272 0.037375 -0.022728 0.290648 -0.222684 -0.063790 0.020405 0.012184 0.050232 0.276780 -0.247875 0.009170 " />
										<Normal vector="0.104038 -0.586413 -0.803278 -0.100131 -0.957335 0.270974 -0.905698 -0.140202 0.400006 -0.701529 0.230689 -0.674245 -0.701529 0.230689 -0.674245 -0.905698 -0.140202 0.400006 -0.104038 0.586413 0.803278 0.100131 0.957335 -0.270974 0.100131 0.957335 -0.270974 -0.104038 0.586413 0.803278 0.701529 -0.230689 0.674245 0.905698 0.140202 -0.400006 0.905698 0.140202 -0.400006 0.701529 -0.230689 0.674245 -0.100131 -0.957335 0.270974 0.104038 -0.586413 -0.803278 0.100131 0.957335 -0.270974 0.905698 0.140202 -0.400006 -0.104038 0.586413 0.803278 0.701529 -0.230689 0.674245 " />
										<TextureCoordinate point="0.4011 0.1876 0.7005 0.1876 0.7005 0.3358 0.4011 0.3358 0.4011 0.1876 0.7005 0.1876 0.7005 0.3358 0.4011 0.3358 0.4011 0.1876 0.7005 0.1876 0.7005 0.3358 0.4011 0.3358 0.4011 0.1876 0.7005 0.1876 0.7005 0.3358 0.4011 0.3358 0.7005 0.1876 0.7005 0.3358 0.4011 0.1876 0.4011 0.3358 " />
									</IndexedTriangleSet>
								</Shape>
							</Group>
						</Transform>
					</Transform>
				</Transform>
			</Transform>
			<Transform DEF="arm1_TRANSFORM"
			           translation="0.165463 -0.103275 0.337301"
			           scale="1.000000 1.000000 1.000000"
			           rotation="0.000000 1.000000 0.000000 0.000000"
			           >
				<Transform DEF="arm1_ifs_TRANSFORM"
				           translation="0.000000 0.000000 0.000000"
				           scale="1.000000 1.000000 1.000000"
				           rotation="0.000000 1.000000 0.000000 0.000000"
				           >
					<Group DEF="group_ME_arm1">
						<Shape>
							<Appearance>
								<Material USE="MA_Body" />
							</Appearance>
							<IndexedTriangleSet solid="false"
							                    normalPerVertex="true"
							                    index="0 1 2 0 2 3 4 5 6 4 6 7 8 9 10 8 10 11 12 13 14 12 14 15 4 16 17 4 17 15 18 5 14 18 14 19 "
							                    >
								<Coordinate point="0.251856 -0.269706 0.363983 0.243940 -0.192905 0.414653 -0.029363 0.027747 0.037513 -0.021447 -0.049053 -0.013157 -0.021447 -0.049053 -0.013157 -0.029363 0.027747 0.037513 0.021447 0.049053 0.013157 0.029363 -0.027747 -0.037513 0.029363 -0.027747 -0.037513 0.021447 0.049053 0.013157 0.294750 -0.171600 0.390297 0.302666 -0.248400 0.339628 0.302666 -0.248400 0.339628 0.294750 -0.171600 0.390297 0.243940 -0.192905 0.414653 0.251856 -0.269706 0.363983 0.029363 -0.027747 -0.037513 0.302666 -0.248400 0.339628 0.021447 0.049053 0.013157 0.294750 -0.171600 0.390297 " />
								<Normal vector="-0.131321 -0.931516 0.339122 -0.230293 0.028748 0.972686 -0.842616 0.523118 0.127689 -0.743645 -0.437147 -0.505814 -0.743645 -0.437147 -0.505814 -0.842616 0.523118 0.127689 0.131321 0.931516 -0.339122 0.230293 -0.028748 -0.972686 0.230293 -0.028748 -0.972686 0.131321 0.931516 -0.339122 0.743645 0.437147 0.505814 0.842616 -0.523118 -0.127689 0.842616 -0.523118 -0.127689 0.743645 0.437147 0.505814 -0.230293 0.028748 0.972686 -0.131321 -0.931516 0.339122 0.230293 -0.028748 -0.972686 0.842616 -0.523118 -0.127689 0.131321 0.931516 -0.339122 0.743645 0.437147 0.505814 " />
								<TextureCoordinate point="0.4195 0.1876 0.6899 0.1876 0.6899 0.3358 0.4195 0.3358 0.4195 0.1876 0.6899 0.1876 0.6899 0.3358 0.4195 0.3358 0.4195 0.1876 0.6899 0.1876 0.6899 0.3358 0.4195 0.3358 0.4195 0.1876 0.6899 0.1876 0.6899 0.3358 0.4195 0.3358 0.6899 0.1876 0.6899 0.3358 0.4195 0.1876 0.4195 0.3358 " />
							</IndexedTriangleSet>
						</Shape>
					</Group>
				</Transform>
				<Transform DEF="hand1_TRANSFORM"
				           translation="0.259878 -0.189622 0.376279"
				           scale="1.000000 1.000000 1.000000"
				           rotation="0.000000 1.000000 0.000000 0.000000"
				           >
					<Transform DEF="hand1_ifs_TRANSFORM"
					           translation="0.000000 0.000000 0.000000"
					           scale="1.000000 1.000000 1.000000"
					           rotation="0.000000 1.000000 0.000000 0.000000"
					           >
						<Group DEF="group_ME_hand1">
							<Shape>
								<Appearance>
									<Material USE="MA_Body" />
								</Appearance>
								<IndexedTriangleSet solid="false"
								                    normalPerVertex="true"
								                    index="0 1 2 0 2 3 4 5 6 4 6 7 8 9 10 8 10 11 12 13 14 12 14 15 4 16 17 4 17 15 18 5 14 18 14 19 "
								                    >
									<Coordinate point="-0.008673 -0.251092 -0.132306 0.037975 -0.275670 -0.056489 -0.012633 -0.027367 0.055144 -0.059282 -0.002789 -0.020672 -0.059282 -0.002789 -0.020672 -0.012633 -0.027367 0.055144 0.059282 0.002789 0.020672 0.012633 0.027367 -0.055144 0.012633 0.027367 -0.055144 0.059282 0.002789 0.020672 0.109890 -0.245515 -0.090961 0.063242 -0.220936 -0.166778 0.063242 -0.220936 -0.166778 0.109890 -0.245515 -0.090961 0.037975 -0.275670 -0.056489 -0.008673 -0.251092 -0.132306 0.012633 0.027367 -0.055144 0.063242 -0.220936 -0.166778 0.059282 0.002789 0.020672 0.109890 -0.245515 -0.090961 " />
									<Normal vector="-0.673086 -0.568224 -0.473312 -0.089816 -0.875546 0.474654 -0.300851 0.159825 0.940153 -0.884121 0.467147 -0.007782 -0.884121 0.467147 -0.007782 -0.300851 0.159825 0.940153 0.673086 0.568224 0.473312 0.089816 0.875546 -0.474654 0.089816 0.875546 -0.474654 0.673086 0.568224 0.473312 0.884121 -0.467147 0.007782 0.300851 -0.159825 -0.940153 0.300851 -0.159825 -0.940153 0.884121 -0.467147 0.007782 -0.089816 -0.875546 0.474654 -0.673086 -0.568224 -0.473312 0.089816 0.875546 -0.474654 0.300851 -0.159825 -0.940153 0.673086 0.568224 0.473312 0.884121 -0.467147 0.007782 " />
									<TextureCoordinate point="0.4195 0.1876 0.6899 0.1876 0.6899 0.3358 0.4195 0.3358 0.4195 0.1876 0.6899 0.1876 0.6899 0.3358 0.4195 0.3358 0.4195 0.1876 0.6899 0.1876 0.6899 0.3358 0.4195 0.3358 0.4195 0.1876 0.6899 0.1876 0.6899 0.3358 0.4195 0.3358 0.6899 0.1876 0.6899 0.3358 0.4195 0.1876 0.4195 0.3358 " />
								</IndexedTriangleSet>
							</Shape>
						</Group>
					</Transform>
					<Transform DEF="Cube_020_TRANSFORM"
					           translation="0.086288 -0.520931 -0.234197"
					           scale="1.000000 1.000000 1.000000"
					           rotation="0.000000 1.000000 0.000000 0.000000"
					           >
						<Transform DEF="Cube_020_ifs_TRANSFORM"
						           translation="0.000000 0.000000 0.000000"
						           scale="1.000000 1.000000 1.000000"
						           rotation="0.000000 1.000000 0.000000 0.000000"
						           >
							<Group DEF="group_ME_Cube_026">
								<Shape>
									<Appearance>
										<Material USE="MA_Body" />
									</Appearance>
									<IndexedTriangleSet solid="false"
									                    normalPerVertex="true"
									                    index="0 1 2 0 2 3 4 5 6 4 6 7 8 9 10 8 10 11 12 13 14 12 14 15 4 16 17 4 17 15 18 5 14 18 14 19 "
									                    >
										<Coordinate point="-0.090530 -0.238123 -0.147022 0.009841 -0.293631 0.014049 -0.029124 -0.058303 0.119429 -0.129495 -0.002794 -0.041641 -0.129495 -0.002794 -0.041641 -0.029124 -0.058303 0.119429 0.129495 0.002794 0.041641 0.029124 0.058303 -0.119429 0.029124 0.058303 -0.119429 0.129495 0.002794 0.041641 0.168460 -0.232534 -0.063739 0.068089 -0.177026 -0.224810 0.068089 -0.177026 -0.224810 0.168460 -0.232534 -0.063739 0.009841 -0.293631 0.014049 -0.090530 -0.238123 -0.147022 0.029124 0.058303 -0.119429 0.068089 -0.177026 -0.224810 0.129495 0.002794 0.041641 0.168460 -0.232534 -0.063739 " />
										<Normal vector="-0.696677 -0.547624 -0.463332 -0.110569 -0.871761 0.477218 -0.283090 0.170232 0.943846 -0.869228 0.494369 0.003265 -0.869228 0.494369 0.003265 -0.283090 0.170232 0.943846 0.696677 0.547624 0.463332 0.110569 0.871761 -0.477218 0.110569 0.871761 -0.477218 0.696677 0.547624 0.463332 0.869228 -0.494369 -0.003265 0.283090 -0.170232 -0.943846 0.283090 -0.170232 -0.943846 0.869228 -0.494369 -0.003265 -0.110569 -0.871761 0.477218 -0.696677 -0.547624 -0.463332 0.110569 0.871761 -0.477218 0.283090 -0.170232 -0.943846 0.696677 0.547624 0.463332 0.869228 -0.494369 -0.003265 " />
										<TextureCoordinate point="0.4239 0.0231 0.6777 0.0231 0.6777 0.1487 0.4239 0.1487 0.4239 0.0231 0.6777 0.0231 0.6777 0.1487 0.4239 0.1487 0.4239 0.0231 0.6777 0.0231 0.6777 0.1487 0.4239 0.1487 0.4239 0.0231 0.6777 0.0231 0.6777 0.1487 0.4239 0.1487 0.6777 0.0231 0.6777 0.1487 0.4239 0.0231 0.4239 0.1487 " />
									</IndexedTriangleSet>
								</Shape>
							</Group>
						</Transform>
						<Transform DEF="Cube_019_TRANSFORM"
						           translation="-0.043433 0.276465 0.128578"
						           scale="1.000000 1.000000 1.000000"
						           rotation="0.000000 1.000000 0.000000 0.000000"
						           >
							<Transform DEF="Cube_019_ifs_TRANSFORM"
							           translation="0.000000 0.000000 0.000000"
							           scale="1.000000 1.000000 1.000000"
							           rotation="0.000000 1.000000 0.000000 0.000000"
							           >
								<Group DEF="group_ME_Cube_025">
									<Shape>
										<Appearance>
											<Material USE="MA_Body" />
										</Appearance>
										<IndexedTriangleSet solid="false"
										                    normalPerVertex="true"
										                    index="0 1 2 0 2 3 4 5 6 4 6 7 8 9 10 8 10 11 12 13 14 12 14 15 4 16 17 4 17 15 18 5 14 18 14 19 "
										                    >
											<Coordinate point="-0.126769 -0.286102 -0.186389 0.006498 -0.363337 0.024696 -0.038174 -0.078987 0.156941 -0.171441 -0.001753 -0.054144 -0.171441 -0.001753 -0.054144 -0.038174 -0.078987 0.156941 0.171441 0.001753 0.054144 0.038174 0.078987 -0.156941 0.038174 0.078987 -0.156941 0.171441 0.001753 0.054144 0.216113 -0.282597 -0.078101 0.082846 -0.205362 -0.289186 0.082846 -0.205362 -0.289186 0.216113 -0.282597 -0.078101 0.006498 -0.363337 0.024696 -0.126769 -0.286102 -0.186389 0.038174 0.078987 -0.156941 0.082846 -0.205362 -0.289186 0.171441 0.001753 0.054144 0.216113 -0.282597 -0.078101 " />
											<Normal vector="-0.702902 -0.536302 -0.467147 -0.114017 -0.877590 0.465590 -0.276864 0.158910 0.947661 -0.865749 0.500198 0.014893 -0.865749 0.500198 0.014893 -0.276864 0.158910 0.947661 0.702902 0.536302 0.467147 0.114017 0.877590 -0.465590 0.114017 0.877590 -0.465590 0.702902 0.536302 0.467147 0.865749 -0.500198 -0.014893 0.276864 -0.158910 -0.947661 0.276864 -0.158910 -0.947661 0.865749 -0.500198 -0.014893 -0.114017 -0.877590 0.465590 -0.702902 -0.536302 -0.467147 0.114017 0.877590 -0.465590 0.276864 -0.158910 -0.947661 0.702902 0.536302 0.467147 0.865749 -0.500198 -0.014893 " />
											<TextureCoordinate point="0.4239 0.0231 0.6777 0.0231 0.6777 0.1487 0.4239 0.1487 0.4239 0.0231 0.6777 0.0231 0.6777 0.1487 0.4239 0.1487 0.4239 0.0231 0.6777 0.0231 0.6777 0.1487 0.4239 0.1487 0.4239 0.0231 0.6777 0.0231 0.6777 0.1487 0.4239 0.1487 0.6777 0.0231 0.6777 0.1487 0.4239 0.0231 0.4239 0.1487 " />
										</IndexedTriangleSet>
									</Shape>
								</Group>
							</Transform>
						</Transform>
						<Transform DEF="Cube_021_TRANSFORM"
						           translation="0.037504 -0.226508 -0.101430"
						           scale="1.000000 1.000000 1.000000"
						           rotation="0.000000 1.000000 0.000000 0.000000"
						           >
							<Transform DEF="Cube_021_ifs_TRANSFORM"
							           translation="0.000000 0.000000 0.000000"
							           scale="1.000000 1.000000 1.000000"
							           rotation="0.000000 1.000000 0.000000 0.000000"
							           >
								<Group DEF="group_ME_Cube_027">
									<Shape>
										<Appearance>
											<Material USE="MA_Body" />
										</Appearance>
										<IndexedTriangleSet solid="false"
										                    normalPerVertex="true"
										                    index="0 1 2 0 2 3 4 5 6 4 6 7 8 9 10 8 10 11 12 13 14 12 14 15 4 16 17 4 17 15 18 5 14 18 14 19 "
										                    >
											<Coordinate point="-0.006377 -0.425268 -0.214302 0.052932 -0.458068 -0.119126 -0.017209 -0.034451 0.070570 -0.076518 -0.001651 -0.024606 -0.076518 -0.001651 -0.024606 -0.017209 -0.034451 0.070570 0.076518 0.001651 0.024606 0.017209 0.034451 -0.070570 0.017209 0.034451 -0.070570 0.076518 0.001651 0.024606 0.146659 -0.421966 -0.165090 0.087350 -0.389167 -0.260266 0.087350 -0.389167 -0.260266 0.146659 -0.421966 -0.165090 0.052932 -0.458068 -0.119126 -0.006377 -0.425268 -0.214302 0.017209 0.034451 -0.070570 0.087350 -0.389167 -0.260266 0.076518 0.001651 0.024606 0.146659 -0.421966 -0.165090 " />
											<Normal vector="-0.696677 -0.547624 -0.463332 -0.110569 -0.871761 0.477218 -0.283090 0.170232 0.943846 -0.869228 0.494369 0.003265 -0.869228 0.494369 0.003265 -0.283090 0.170232 0.943846 0.696677 0.547624 0.463332 0.110569 0.871761 -0.477218 0.110569 0.871761 -0.477218 0.696677 0.547624 0.463332 0.869228 -0.494369 -0.003265 0.283090 -0.170232 -0.943846 0.283090 -0.170232 -0.943846 0.869228 -0.494369 -0.003265 -0.110569 -0.871761 0.477218 -0.696677 -0.547624 -0.463332 0.110569 0.871761 -0.477218 0.283090 -0.170232 -0.943846 0.696677 0.547624 0.463332 0.869228 -0.494369 -0.003265 " />
											<TextureCoordinate point="0.4239 0.0231 0.6777 0.0231 0.6777 0.1487 0.4239 0.1487 0.4239 0.0231 0.6777 0.0231 0.6777 0.1487 0.4239 0.1487 0.4239 0.0231 0.6777 0.0231 0.6777 0.1487 0.4239 0.1487 0.4239 0.0231 0.6777 0.0231 0.6777 0.1487 0.4239 0.1487 0.6777 0.0231 0.6777 0.1487 0.4239 0.0231 0.4239 0.1487 " />
										</IndexedTriangleSet>
									</Shape>
								</Group>
							</Transform>
						</Transform>
					</Transform>
				</Transform>
			</Transform>
			<Transform DEF="wing1_TRANSFORM"
			           translation="-0.000000 0.180828 0.365765"
			           scale="1.000000 1.000000 1.000000"
			           rotation="0.000000 1.000000 0.000000 0.000000"
			           >
				<Transform DEF="wing1_ifs_TRANSFORM"
				           translation="0.000000 0.000000 0.000000"
				           scale="1.000000 1.000000 1.000000"
				           rotation="0.000000 1.000000 0.000000 0.000000"
				           >
					<Group DEF="group_ME_wing1">
						<Shape>
							<Appearance>
								<Material USE="MA_Body" />
							</Appearance>
							<IndexedTriangleSet solid="false"
							                    normalPerVertex="true"
							                    index="0 1 2 0 2 3 "
							                    >
								<Coordinate point="0.003954 0.001439 0.954654 -0.003954 -0.001439 -0.954654 1.433783 0.521854 -0.961398 1.441691 0.524732 0.947910 " />
								<Normal vector="0.341990 -0.939665 0.000000 0.341990 -0.939665 0.000000 0.341990 -0.939665 0.000000 0.341990 -0.939665 0.000000 " />
								<TextureCoordinate point="0.1263 0.9939 0.1263 0.3811 0.8737 0.3811 0.8737 0.9939 " />
							</IndexedTriangleSet>
						</Shape>
					</Group>
				</Transform>
			</Transform>
			<Transform DEF="leg2_TRANSFORM"
			           translation="-0.086368 -0.160708 0.123221"
			           scale="1.000000 1.000000 1.000000"
			           rotation="0.000000 1.000000 0.000000 0.000000"
			           >
				<Transform DEF="leg2_ifs_TRANSFORM"
				           translation="0.000000 0.000000 0.000000"
				           scale="1.000000 1.000000 1.000000"
				           rotation="0.000000 1.000000 0.000000 0.000000"
				           >
					<Group DEF="group_ME_leg2">
						<Shape>
							<Appearance>
								<Material USE="MA_Body" />
							</Appearance>
							<IndexedTriangleSet solid="false"
							                    normalPerVertex="true"
							                    index="0 1 2 0 2 3 4 5 6 4 6 7 8 9 10 8 10 11 12 13 14 12 14 15 4 13 16 4 16 17 18 19 14 18 14 7 "
							                    >
								<Coordinate point="-0.133663 -0.202591 -0.129819 0.024496 -0.002561 -0.035732 0.024496 -0.029158 0.020813 -0.133663 -0.229188 -0.073273 0.024496 -0.002561 -0.035732 -0.024496 0.029158 -0.020813 -0.024496 0.002561 0.035732 0.024496 -0.029158 0.020813 -0.024496 0.029158 -0.020813 -0.182654 -0.170873 -0.114900 -0.182654 -0.197470 -0.058354 -0.024496 0.002561 0.035732 -0.182654 -0.170873 -0.114900 -0.133663 -0.202591 -0.129819 -0.133663 -0.229188 -0.073273 -0.182654 -0.197470 -0.058354 -0.182654 -0.170873 -0.114900 -0.024496 0.029158 -0.020813 -0.024496 0.002561 0.035732 -0.182654 -0.197470 -0.058354 " />
								<Normal vector="0.133580 -0.483139 -0.865261 0.805475 0.366619 -0.465560 0.805475 -0.124821 0.579302 0.133580 -0.974609 0.179601 0.805475 0.366619 -0.465560 -0.133580 0.974609 -0.179601 -0.133580 0.483139 0.865261 0.805475 -0.124821 0.579302 -0.133580 0.974609 -0.179601 -0.805475 0.124821 -0.579302 -0.805475 -0.366619 0.465560 -0.133580 0.483139 0.865261 -0.805475 0.124821 -0.579302 0.133580 -0.483139 -0.865261 0.133580 -0.974609 0.179601 -0.805475 -0.366619 0.465560 -0.805475 0.124821 -0.579302 -0.133580 0.974609 -0.179601 -0.133580 0.483139 0.865261 -0.805475 -0.366619 0.465560 " />
								<TextureCoordinate point="0.4011 0.1876 0.4011 0.3358 0.7005 0.3358 0.7005 0.1876 0.4011 0.1876 0.4011 0.3358 0.7005 0.3358 0.7005 0.1876 0.4011 0.1876 0.4011 0.3358 0.7005 0.3358 0.7005 0.1876 0.4011 0.1876 0.4011 0.3358 0.7005 0.3358 0.7005 0.1876 0.7005 0.3358 0.7005 0.1876 0.4011 0.1876 0.4011 0.3358 " />
							</IndexedTriangleSet>
						</Shape>
					</Group>
				</Transform>
				<Transform DEF="Cube_006_TRANSFORM"
				           translation="-0.154409 -0.195289 -0.091856"
				           scale="1.000000 1.000000 1.000000"
				           rotation="0.000000 1.000000 0.000000 0.000000"
				           >
					<Transform DEF="Cube_006_ifs_TRANSFORM"
					           translation="0.000000 0.000000 0.000000"
					           scale="1.000000 1.000000 1.000000"
					           rotation="0.000000 1.000000 0.000000 0.000000"
					           >
						<Group DEF="group_ME_Cube_015">
							<Shape>
								<Appearance>
									<Material USE="MA_Body" />
								</Appearance>
								<IndexedTriangleSet solid="false"
								                    normalPerVertex="true"
								                    index="0 1 2 0 2 3 4 5 6 4 6 7 8 9 10 8 10 11 12 13 14 12 14 15 4 13 16 4 16 17 18 19 14 18 14 7 "
								                    >
									<Coordinate point="-0.189111 -0.276369 -0.080708 0.019444 -0.009079 -0.040629 0.030012 -0.026752 0.022244 -0.178543 -0.294042 -0.017834 0.019444 -0.009079 -0.040629 -0.030012 0.026752 -0.022244 -0.019444 0.009079 0.040629 0.030012 -0.026752 0.022244 -0.030012 0.026752 -0.022244 -0.238566 -0.240538 -0.062323 -0.227998 -0.258211 0.000550 -0.019444 0.009079 0.040629 -0.238566 -0.240538 -0.062323 -0.189111 -0.276369 -0.080708 -0.178543 -0.294042 -0.017834 -0.227998 -0.258211 0.000550 -0.238566 -0.240538 -0.062323 -0.030012 0.026752 -0.022244 -0.019444 0.009079 0.040629 -0.227998 -0.258211 0.000550 " />
									<Normal vector="0.002747 -0.622150 -0.782861 0.708152 0.281899 -0.647298 0.892605 -0.026521 0.450026 0.187201 -0.930601 0.314463 0.708152 0.281899 -0.647298 -0.187201 0.930601 -0.314463 -0.002747 0.622150 0.782861 0.892605 -0.026521 0.450026 -0.187201 0.930601 -0.314463 -0.892605 0.026521 -0.450026 -0.708152 -0.281899 0.647298 -0.002747 0.622150 0.782861 -0.892605 0.026521 -0.450026 0.002747 -0.622150 -0.782861 0.187201 -0.930601 0.314463 -0.708152 -0.281899 0.647298 -0.892605 0.026521 -0.450026 -0.187201 0.930601 -0.314463 -0.002747 0.622150 0.782861 -0.708152 -0.281899 0.647298 " />
									<TextureCoordinate point="0.4011 0.1876 0.4011 0.3358 0.7005 0.3358 0.7005 0.1876 0.4011 0.1876 0.4011 0.3358 0.7005 0.3358 0.7005 0.1876 0.4011 0.1876 0.4011 0.3358 0.7005 0.3358 0.7005 0.1876 0.4011 0.1876 0.4011 0.3358 0.7005 0.3358 0.7005 0.1876 0.7005 0.3358 0.7005 0.1876 0.4011 0.1876 0.4011 0.3358 " />
								</IndexedTriangleSet>
							</Shape>
						</Group>
					</Transform>
				</Transform>
				<Transform DEF="leg2_1_TRANSFORM"
				           translation="-0.369769 -0.456342 -0.128119"
				           scale="1.000000 1.000000 1.000000"
				           rotation="0.000000 1.000000 0.000000 0.000000"
				           >
					<Transform DEF="leg2_1_ifs_TRANSFORM"
					           translation="0.000000 0.000000 0.000000"
					           scale="1.000000 1.000000 1.000000"
					           rotation="0.000000 1.000000 0.000000 0.000000"
					           >
						<Group DEF="group_ME_leg2_1">
							<Shape>
								<Appearance>
									<Material USE="MA_Body" />
								</Appearance>
								<IndexedTriangleSet solid="false"
								                    normalPerVertex="true"
								                    index="0 1 2 0 2 3 4 5 6 4 6 7 8 9 10 8 10 11 12 13 14 12 14 15 4 13 16 4 16 17 18 19 14 18 14 7 "
								                    >
									<Coordinate point="0.001720 0.066341 -0.237440 0.061483 0.013364 -0.013230 0.007385 -0.061689 -0.016544 -0.052378 -0.008713 -0.240754 0.061483 0.013364 -0.013230 -0.007385 0.061689 0.016544 -0.061483 -0.013364 0.013230 0.007385 -0.061689 -0.016544 -0.007385 0.061689 0.016544 -0.067148 0.114665 -0.207665 -0.121246 0.039612 -0.210979 -0.061483 -0.013364 0.013230 -0.067148 0.114665 -0.207665 0.001720 0.066341 -0.237440 -0.052378 -0.008713 -0.240754 -0.121246 0.039612 -0.210979 -0.067148 0.114665 -0.207665 -0.007385 0.061689 0.016544 -0.061483 -0.013364 0.013230 -0.121246 0.039612 -0.210979 " />
									<Normal vector="0.637928 0.283944 -0.715812 0.927854 0.026917 0.371899 0.253121 -0.909177 0.330576 -0.036805 -0.652181 -0.757164 0.927854 0.026917 0.371899 0.036805 0.652181 0.757164 -0.637928 -0.283944 0.715812 0.253121 -0.909177 0.330576 0.036805 0.652181 0.757164 -0.253121 0.909177 -0.330576 -0.927854 -0.026917 -0.371899 -0.637928 -0.283944 0.715812 -0.253121 0.909177 -0.330576 0.637928 0.283944 -0.715812 -0.036805 -0.652181 -0.757164 -0.927854 -0.026917 -0.371899 -0.253121 0.909177 -0.330576 0.036805 0.652181 0.757164 -0.637928 -0.283944 0.715812 -0.927854 -0.026917 -0.371899 " />
									<TextureCoordinate point="0.4011 0.1876 0.4011 0.3358 0.7005 0.3358 0.7005 0.1876 0.4011 0.1876 0.4011 0.3358 0.7005 0.3358 0.7005 0.1876 0.4011 0.1876 0.4011 0.3358 0.7005 0.3358 0.7005 0.1876 0.4011 0.1876 0.4011 0.3358 0.7005 0.3358 0.7005 0.1876 0.7005 0.3358 0.7005 0.1876 0.4011 0.1876 0.4011 0.3358 " />
								</IndexedTriangleSet>
							</Shape>
						</Group>
					</Transform>
					<Transform DEF="Cube_009_TRANSFORM"
					           translation="-0.027397 0.068190 -0.174040"
					           scale="1.000000 1.000000 1.000000"
					           rotation="0.000000 1.000000 0.000000 0.000000"
					           >
						<Transform DEF="Cube_009_ifs_TRANSFORM"
						           translation="0.000000 0.000000 0.000000"
						           scale="1.000000 1.000000 1.000000"
						           rotation="0.000000 1.000000 0.000000 0.000000"
						           >
							<Group DEF="group_ME_Cube_018">
								<Shape>
									<Appearance>
										<Material USE="MA_Body" />
									</Appearance>
									<IndexedTriangleSet solid="false"
									                    normalPerVertex="true"
									                    index="0 1 2 0 2 3 4 5 6 4 6 7 8 9 10 8 10 11 12 13 14 12 14 15 4 13 16 4 16 17 18 19 14 18 14 7 "
									                    >
										<Coordinate point="-0.017282 0.098629 -0.399697 0.103111 0.040560 -0.026988 -0.000309 -0.112696 -0.017458 -0.120702 -0.054627 -0.390168 0.103111 0.040560 -0.026988 0.000309 0.112696 0.017458 -0.103111 -0.040560 0.026988 -0.000309 -0.112696 -0.017458 0.000309 0.112696 0.017458 -0.120084 0.170765 -0.355251 -0.223504 0.017508 -0.345722 -0.103111 -0.040560 0.026988 -0.120084 0.170765 -0.355251 -0.017282 0.098629 -0.399697 -0.120702 -0.054627 -0.390168 -0.223504 0.017508 -0.345722 -0.120084 0.170765 -0.355251 0.000309 0.112696 0.017458 -0.103111 -0.040560 0.026988 -0.223504 0.017508 -0.345722 " />
										<Normal vector="0.592486 0.249977 -0.765770 0.943571 0.080630 0.321116 0.298532 -0.875210 0.380535 -0.052522 -0.705893 -0.706351 0.943571 0.080630 0.321116 0.052522 0.705893 0.706351 -0.592486 -0.249977 0.765770 0.298532 -0.875210 0.380535 0.052522 0.705893 0.706351 -0.298532 0.875210 -0.380535 -0.943571 -0.080630 -0.321116 -0.592486 -0.249977 0.765770 -0.298532 0.875210 -0.380535 0.592486 0.249977 -0.765770 -0.052522 -0.705893 -0.706351 -0.943571 -0.080630 -0.321116 -0.298532 0.875210 -0.380535 0.052522 0.705893 0.706351 -0.592486 -0.249977 0.765770 -0.943571 -0.080630 -0.321116 " />
										<TextureCoordinate point="0.4011 0.1876 0.4011 0.3358 0.7005 0.3358 0.7005 0.1876 0.4011 0.1876 0.4011 0.3358 0.7005 0.3358 0.7005 0.1876 0.4011 0.1876 0.4011 0.3358 0.7005 0.3358 0.7005 0.1876 0.4011 0.1876 0.4011 0.3358 0.7005 0.3358 0.7005 0.1876 0.7005 0.3358 0.7005 0.1876 0.4011 0.1876 0.4011 0.3358 " />
									</IndexedTriangleSet>
								</Shape>
							</Group>
						</Transform>
						<Transform DEF="Cube_012_TRANSFORM"
						           translation="-0.112685 0.046556 -0.336196"
						           scale="1.000000 1.000000 1.000000"
						           rotation="0.000000 1.000000 0.000000 0.000000"
						           >
							<Transform DEF="Cube_012_ifs_TRANSFORM"
							           translation="0.000000 0.000000 0.000000"
							           scale="1.000000 1.000000 1.000000"
							           rotation="0.000000 1.000000 0.000000 0.000000"
							           >
								<Group DEF="group_ME_Cube_019">
									<Shape>
										<Appearance>
											<Material USE="MA_Body" />
										</Appearance>
										<IndexedTriangleSet solid="false"
										                    normalPerVertex="true"
										                    index="0 1 2 0 2 3 4 5 6 4 6 7 8 9 10 8 10 11 12 13 14 12 14 15 4 13 16 4 16 17 18 19 14 18 14 7 "
										                    >
											<Coordinate point="-0.005403 0.153462 -0.395314 0.058645 0.005780 -0.007484 0.010223 -0.054105 -0.022291 -0.053826 0.093577 -0.410120 0.058645 0.005780 -0.007484 -0.010223 0.054105 0.022291 -0.058645 -0.005780 0.007484 0.010223 -0.054105 -0.022291 -0.010223 0.054105 0.022291 -0.074272 0.201787 -0.365539 -0.122694 0.141902 -0.380345 -0.058645 -0.005780 0.007484 -0.074272 0.201787 -0.365539 -0.005403 0.153462 -0.395314 -0.053826 0.093577 -0.410120 -0.122694 0.141902 -0.380345 -0.074272 0.201787 -0.365539 -0.010223 0.054105 0.022291 -0.058645 -0.005780 0.007484 -0.122694 0.141902 -0.380345 " />
											<Normal vector="0.713950 0.331278 -0.616840 0.890072 -0.074801 0.449599 0.177099 -0.956542 0.231605 0.000977 -0.550432 -0.834864 0.890072 -0.074801 0.449599 -0.000977 0.550432 0.834864 -0.713950 -0.331278 0.616840 0.177099 -0.956542 0.231605 -0.000977 0.550432 0.834864 -0.177099 0.956542 -0.231605 -0.890072 0.074801 -0.449599 -0.713950 -0.331278 0.616840 -0.177099 0.956542 -0.231605 0.713950 0.331278 -0.616840 0.000977 -0.550432 -0.834864 -0.890072 0.074801 -0.449599 -0.177099 0.956542 -0.231605 -0.000977 0.550432 0.834864 -0.713950 -0.331278 0.616840 -0.890072 0.074801 -0.449599 " />
											<TextureCoordinate point="0.4011 0.1876 0.4011 0.3358 0.7005 0.3358 0.7005 0.1876 0.4011 0.1876 0.4011 0.3358 0.7005 0.3358 0.7005 0.1876 0.4011 0.1876 0.4011 0.3358 0.7005 0.3358 0.7005 0.1876 0.4011 0.1876 0.4011 0.3358 0.7005 0.3358 0.7005 0.1876 0.7005 0.3358 0.7005 0.1876 0.4011 0.1876 0.4011 0.3358 " />
										</IndexedTriangleSet>
									</Shape>
								</Group>
							</Transform>
						</Transform>
					</Transform>
					<Transform DEF="foot2_TRANSFORM"
					           translation="-0.196512 0.244862 -0.851934"
					           scale="1.000000 1.000000 1.000000"
					           rotation="0.000000 1.000000 0.000000 0.000000"
					           >
						<Transform DEF="foot2_ifs_TRANSFORM"
						           translation="0.000000 0.000000 0.000000"
						           scale="1.000000 1.000000 1.000000"
						           rotation="0.000000 1.000000 0.000000 0.000000"
						           >
							<Group DEF="group_ME_foot2">
								<Shape>
									<Appearance>
										<Material USE="MA_Body" />
									</Appearance>
									<IndexedTriangleSet solid="false"
									                    normalPerVertex="true"
									                    index="0 1 2 0 2 3 4 5 6 4 6 7 8 9 10 8 10 11 12 13 14 12 14 15 4 13 16 4 16 17 18 19 14 18 14 7 "
									                    >
										<Coordinate point="-0.235971 -0.272243 -0.091294 0.020405 -0.012184 -0.050232 0.034272 -0.037375 0.022728 -0.222103 -0.297434 -0.018334 0.020405 -0.012184 -0.050232 -0.034272 0.037375 -0.022728 -0.020405 0.012184 0.050232 0.034272 -0.037375 0.022728 -0.034272 0.037375 -0.022728 -0.290648 -0.222684 -0.063790 -0.276780 -0.247875 0.009170 -0.020405 0.012184 0.050232 -0.290648 -0.222684 -0.063790 -0.235971 -0.272243 -0.091294 -0.222103 -0.297434 -0.018334 -0.276780 -0.247875 0.009170 -0.290648 -0.222684 -0.063790 -0.034272 0.037375 -0.022728 -0.020405 0.012184 0.050232 -0.276780 -0.247875 0.009170 " />
										<Normal vector="-0.104038 -0.586413 -0.803278 0.701529 0.230689 -0.674245 0.905698 -0.140202 0.400006 0.100131 -0.957335 0.270974 0.701529 0.230689 -0.674245 -0.100131 0.957335 -0.270974 0.104038 0.586413 0.803278 0.905698 -0.140202 0.400006 -0.100131 0.957335 -0.270974 -0.905698 0.140202 -0.400006 -0.701529 -0.230689 0.674245 0.104038 0.586413 0.803278 -0.905698 0.140202 -0.400006 -0.104038 -0.586413 -0.803278 0.100131 -0.957335 0.270974 -0.701529 -0.230689 0.674245 -0.905698 0.140202 -0.400006 -0.100131 0.957335 -0.270974 0.104038 0.586413 0.803278 -0.701529 -0.230689 0.674245 " />
										<TextureCoordinate point="0.4011 0.1876 0.4011 0.3358 0.7005 0.3358 0.7005 0.1876 0.4011 0.1876 0.4011 0.3358 0.7005 0.3358 0.7005 0.1876 0.4011 0.1876 0.4011 0.3358 0.7005 0.3358 0.7005 0.1876 0.4011 0.1876 0.4011 0.3358 0.7005 0.3358 0.7005 0.1876 0.7005 0.3358 0.7005 0.1876 0.4011 0.1876 0.4011 0.3358 " />
									</IndexedTriangleSet>
								</Shape>
							</Group>
						</Transform>
					</Transform>
				</Transform>
			</Transform>
			<Transform DEF="arm2_TRANSFORM"
			           translation="-0.165463 -0.103275 0.337301"
			           scale="1.000000 1.000000 1.000000"
			           rotation="0.000000 1.000000 0.000000 0.000000"
			           >
				<Transform DEF="arm2_ifs_TRANSFORM"
				           translation="0.000000 0.000000 0.000000"
				           scale="1.000000 1.000000 1.000000"
				           rotation="0.000000 1.000000 0.000000 0.000000"
				           >
					<Group DEF="group_ME_arm2">
						<Shape>
							<Appearance>
								<Material USE="MA_Body" />
							</Appearance>
							<IndexedTriangleSet solid="false"
							                    normalPerVertex="true"
							                    index="0 1 2 0 2 3 4 5 6 4 6 7 8 9 10 8 10 11 12 13 14 12 14 15 4 13 16 4 16 17 18 19 14 18 14 7 "
							                    >
								<Coordinate point="-0.251856 -0.269706 0.363983 0.021447 -0.049053 -0.013157 0.029363 0.027747 0.037513 -0.243940 -0.192905 0.414653 0.021447 -0.049053 -0.013157 -0.029363 -0.027747 -0.037513 -0.021447 0.049053 0.013157 0.029363 0.027747 0.037513 -0.029363 -0.027747 -0.037513 -0.302666 -0.248400 0.339628 -0.294750 -0.171600 0.390297 -0.021447 0.049053 0.013157 -0.302666 -0.248400 0.339628 -0.251856 -0.269706 0.363983 -0.243940 -0.192905 0.414653 -0.294750 -0.171600 0.390297 -0.302666 -0.248400 0.339628 -0.029363 -0.027747 -0.037513 -0.021447 0.049053 0.013157 -0.294750 -0.171600 0.390297 " />
								<Normal vector="0.131321 -0.931516 0.339122 0.743645 -0.437147 -0.505814 0.842616 0.523118 0.127689 0.230293 0.028748 0.972686 0.743645 -0.437147 -0.505814 -0.230293 -0.028748 -0.972686 -0.131321 0.931516 -0.339122 0.842616 0.523118 0.127689 -0.230293 -0.028748 -0.972686 -0.842616 -0.523118 -0.127689 -0.743645 0.437147 0.505814 -0.131321 0.931516 -0.339122 -0.842616 -0.523118 -0.127689 0.131321 -0.931516 0.339122 0.230293 0.028748 0.972686 -0.743645 0.437147 0.505814 -0.842616 -0.523118 -0.127689 -0.230293 -0.028748 -0.972686 -0.131321 0.931516 -0.339122 -0.743645 0.437147 0.505814 " />
								<TextureCoordinate point="0.4195 0.1876 0.4195 0.3358 0.6899 0.3358 0.6899 0.1876 0.4195 0.1876 0.4195 0.3358 0.6899 0.3358 0.6899 0.1876 0.4195 0.1876 0.4195 0.3358 0.6899 0.3358 0.6899 0.1876 0.4195 0.1876 0.4195 0.3358 0.6899 0.3358 0.6899 0.1876 0.6899 0.3358 0.6899 0.1876 0.4195 0.1876 0.4195 0.3358 " />
							</IndexedTriangleSet>
						</Shape>
					</Group>
				</Transform>
				<Transform DEF="hand2_TRANSFORM"
				           translation="-0.259878 -0.189622 0.376279"
				           scale="1.000000 1.000000 1.000000"
				           rotation="0.000000 1.000000 0.000000 0.000000"
				           >
					<Transform DEF="hand2_ifs_TRANSFORM"
					           translation="0.000000 0.000000 0.000000"
					           scale="1.000000 1.000000 1.000000"
					           rotation="0.000000 1.000000 0.000000 0.000000"
					           >
						<Group DEF="group_ME_hand2">
							<Shape>
								<Appearance>
									<Material USE="MA_Body" />
								</Appearance>
								<IndexedTriangleSet solid="false"
								                    normalPerVertex="true"
								                    index="0 1 2 0 2 3 4 5 6 4 6 7 8 9 10 8 10 11 12 13 14 12 14 15 4 13 16 4 16 17 18 19 14 18 14 7 "
								                    >
									<Coordinate point="0.008673 -0.251092 -0.132306 0.059282 -0.002789 -0.020672 0.012633 -0.027367 0.055144 -0.037975 -0.275670 -0.056489 0.059282 -0.002789 -0.020672 -0.012633 0.027367 -0.055144 -0.059282 0.002789 0.020672 0.012633 -0.027367 0.055144 -0.012633 0.027367 -0.055144 -0.063242 -0.220936 -0.166778 -0.109890 -0.245515 -0.090961 -0.059282 0.002789 0.020672 -0.063242 -0.220936 -0.166778 0.008673 -0.251092 -0.132306 -0.037975 -0.275670 -0.056489 -0.109890 -0.245515 -0.090961 -0.063242 -0.220936 -0.166778 -0.012633 0.027367 -0.055144 -0.059282 0.002789 0.020672 -0.109890 -0.245515 -0.090961 " />
									<Normal vector="0.673086 -0.568224 -0.473312 0.884121 0.467147 -0.007782 0.300851 0.159825 0.940153 0.089816 -0.875546 0.474654 0.884121 0.467147 -0.007782 -0.089816 0.875546 -0.474654 -0.673086 0.568224 0.473312 0.300851 0.159825 0.940153 -0.089816 0.875546 -0.474654 -0.300851 -0.159825 -0.940153 -0.884121 -0.467147 0.007782 -0.673086 0.568224 0.473312 -0.300851 -0.159825 -0.940153 0.673086 -0.568224 -0.473312 0.089816 -0.875546 0.474654 -0.884121 -0.467147 0.007782 -0.300851 -0.159825 -0.940153 -0.089816 0.875546 -0.474654 -0.673086 0.568224 0.473312 -0.884121 -0.467147 0.007782 " />
									<TextureCoordinate point="0.4195 0.1876 0.4195 0.3358 0.6899 0.3358 0.6899 0.1876 0.4195 0.1876 0.4195 0.3358 0.6899 0.3358 0.6899 0.1876 0.4195 0.1876 0.4195 0.3358 0.6899 0.3358 0.6899 0.1876 0.4195 0.1876 0.4195 0.3358 0.6899 0.3358 0.6899 0.1876 0.6899 0.3358 0.6899 0.1876 0.4195 0.1876 0.4195 0.3358 " />
								</IndexedTriangleSet>
							</Shape>
						</Group>
					</Transform>
					<Transform DEF="Cube_016_TRANSFORM"
					           translation="-0.086288 -0.520931 -0.234197"
					           scale="1.000000 1.000000 1.000000"
					           rotation="0.000000 1.000000 0.000000 0.000000"
					           >
						<Transform DEF="Cube_016_ifs_TRANSFORM"
						           translation="0.000000 0.000000 0.000000"
						           scale="1.000000 1.000000 1.000000"
						           rotation="0.000000 1.000000 0.000000 0.000000"
						           >
							<Group DEF="group_ME_Cube_023">
								<Shape>
									<Appearance>
										<Material USE="MA_Body" />
									</Appearance>
									<IndexedTriangleSet solid="false"
									                    normalPerVertex="true"
									                    index="0 1 2 0 2 3 4 5 6 4 6 7 8 9 10 8 10 11 12 13 14 12 14 15 4 13 16 4 16 17 18 19 14 18 14 7 "
									                    >
										<Coordinate point="0.090530 -0.238123 -0.147022 0.129495 -0.002794 -0.041641 0.029124 -0.058303 0.119429 -0.009841 -0.293631 0.014049 0.129495 -0.002794 -0.041641 -0.029124 0.058303 -0.119429 -0.129495 0.002794 0.041641 0.029124 -0.058303 0.119429 -0.029124 0.058303 -0.119429 -0.068089 -0.177026 -0.224810 -0.168460 -0.232534 -0.063739 -0.129495 0.002794 0.041641 -0.068089 -0.177026 -0.224810 0.090530 -0.238123 -0.147022 -0.009841 -0.293631 0.014049 -0.168460 -0.232534 -0.063739 -0.068089 -0.177026 -0.224810 -0.029124 0.058303 -0.119429 -0.129495 0.002794 0.041641 -0.168460 -0.232534 -0.063739 " />
										<Normal vector="0.696677 -0.547624 -0.463332 0.869228 0.494369 0.003265 0.283090 0.170232 0.943846 0.110569 -0.871761 0.477218 0.869228 0.494369 0.003265 -0.110569 0.871761 -0.477218 -0.696677 0.547624 0.463332 0.283090 0.170232 0.943846 -0.110569 0.871761 -0.477218 -0.283090 -0.170232 -0.943846 -0.869228 -0.494369 -0.003265 -0.696677 0.547624 0.463332 -0.283090 -0.170232 -0.943846 0.696677 -0.547624 -0.463332 0.110569 -0.871761 0.477218 -0.869228 -0.494369 -0.003265 -0.283090 -0.170232 -0.943846 -0.110569 0.871761 -0.477218 -0.696677 0.547624 0.463332 -0.869228 -0.494369 -0.003265 " />
										<TextureCoordinate point="0.4239 0.0231 0.4239 0.1487 0.6777 0.1487 0.6777 0.0231 0.4239 0.0231 0.4239 0.1487 0.6777 0.1487 0.6777 0.0231 0.4239 0.0231 0.4239 0.1487 0.6777 0.1487 0.6777 0.0231 0.4239 0.0231 0.4239 0.1487 0.6777 0.1487 0.6777 0.0231 0.6777 0.1487 0.6777 0.0231 0.4239 0.0231 0.4239 0.1487 " />
									</IndexedTriangleSet>
								</Shape>
							</Group>
						</Transform>
						<Transform DEF="Cube_013_TRANSFORM"
						           translation="0.043433 0.276465 0.128578"
						           scale="1.000000 1.000000 1.000000"
						           rotation="0.000000 1.000000 0.000000 0.000000"
						           >
							<Transform DEF="Cube_013_ifs_TRANSFORM"
							           translation="0.000000 0.000000 0.000000"
							           scale="1.000000 1.000000 1.000000"
							           rotation="0.000000 1.000000 0.000000 0.000000"
							           >
								<Group DEF="group_ME_Cube_022">
									<Shape>
										<Appearance>
											<Material USE="MA_Body" />
										</Appearance>
										<IndexedTriangleSet solid="false"
										                    normalPerVertex="true"
										                    index="0 1 2 0 2 3 4 5 6 4 6 7 8 9 10 8 10 11 12 13 14 12 14 15 4 13 16 4 16 17 18 19 14 18 14 7 "
										                    >
											<Coordinate point="0.126769 -0.286102 -0.186389 0.171441 -0.001753 -0.054144 0.038174 -0.078987 0.156941 -0.006498 -0.363337 0.024695 0.171441 -0.001753 -0.054144 -0.038174 0.078987 -0.156941 -0.171441 0.001753 0.054144 0.038174 -0.078987 0.156941 -0.038174 0.078987 -0.156941 -0.082846 -0.205362 -0.289186 -0.216113 -0.282597 -0.078101 -0.171441 0.001753 0.054144 -0.082846 -0.205362 -0.289186 0.126769 -0.286102 -0.186389 -0.006498 -0.363337 0.024695 -0.216113 -0.282597 -0.078101 -0.082846 -0.205362 -0.289186 -0.038174 0.078987 -0.156941 -0.171441 0.001753 0.054144 -0.216113 -0.282597 -0.078101 " />
											<Normal vector="0.702902 -0.536302 -0.467147 0.865749 0.500198 0.014893 0.276864 0.158910 0.947661 0.114017 -0.877590 0.465590 0.865749 0.500198 0.014893 -0.114017 0.877590 -0.465590 -0.702902 0.536302 0.467147 0.276864 0.158910 0.947661 -0.114017 0.877590 -0.465590 -0.276864 -0.158910 -0.947661 -0.865749 -0.500198 -0.014893 -0.702902 0.536302 0.467147 -0.276864 -0.158910 -0.947661 0.702902 -0.536302 -0.467147 0.114017 -0.877590 0.465590 -0.865749 -0.500198 -0.014893 -0.276864 -0.158910 -0.947661 -0.114017 0.877590 -0.465590 -0.702902 0.536302 0.467147 -0.865749 -0.500198 -0.014893 " />
											<TextureCoordinate point="0.4239 0.0231 0.4239 0.1487 0.6777 0.1487 0.6777 0.0231 0.4239 0.0231 0.4239 0.1487 0.6777 0.1487 0.6777 0.0231 0.4239 0.0231 0.4239 0.1487 0.6777 0.1487 0.6777 0.0231 0.4239 0.0231 0.4239 0.1487 0.6777 0.1487 0.6777 0.0231 0.6777 0.1487 0.6777 0.0231 0.4239 0.0231 0.4239 0.1487 " />
										</IndexedTriangleSet>
									</Shape>
								</Group>
							</Transform>
						</Transform>
						<Transform DEF="Cube_017_TRANSFORM"
						           translation="-0.037504 -0.226508 -0.101430"
						           scale="1.000000 1.000000 1.000000"
						           rotation="0.000000 1.000000 0.000000 0.000000"
						           >
							<Transform DEF="Cube_017_ifs_TRANSFORM"
							           translation="0.000000 0.000000 0.000000"
							           scale="1.000000 1.000000 1.000000"
							           rotation="0.000000 1.000000 0.000000 0.000000"
							           >
								<Group DEF="group_ME_Cube_024">
									<Shape>
										<Appearance>
											<Material USE="MA_Body" />
										</Appearance>
										<IndexedTriangleSet solid="false"
										                    normalPerVertex="true"
										                    index="0 1 2 0 2 3 4 5 6 4 6 7 8 9 10 8 10 11 12 13 14 12 14 15 4 13 16 4 16 17 18 19 14 18 14 7 "
										                    >
											<Coordinate point="0.006377 -0.425268 -0.214302 0.076518 -0.001651 -0.024606 0.017209 -0.034451 0.070570 -0.052932 -0.458068 -0.119126 0.076518 -0.001651 -0.024606 -0.017209 0.034451 -0.070570 -0.076518 0.001651 0.024606 0.017209 -0.034451 0.070570 -0.017209 0.034451 -0.070570 -0.087350 -0.389167 -0.260266 -0.146659 -0.421966 -0.165090 -0.076518 0.001651 0.024606 -0.087350 -0.389167 -0.260266 0.006377 -0.425268 -0.214302 -0.052932 -0.458068 -0.119126 -0.146659 -0.421966 -0.165090 -0.087350 -0.389167 -0.260266 -0.017209 0.034451 -0.070570 -0.076518 0.001651 0.024606 -0.146659 -0.421966 -0.165090 " />
											<Normal vector="0.696677 -0.547624 -0.463332 0.869228 0.494369 0.003265 0.283090 0.170232 0.943846 0.110569 -0.871761 0.477218 0.869228 0.494369 0.003265 -0.110569 0.871761 -0.477218 -0.696677 0.547624 0.463332 0.283090 0.170232 0.943846 -0.110569 0.871761 -0.477218 -0.283090 -0.170232 -0.943846 -0.869228 -0.494369 -0.003265 -0.696677 0.547624 0.463332 -0.283090 -0.170232 -0.943846 0.696677 -0.547624 -0.463332 0.110569 -0.871761 0.477218 -0.869228 -0.494369 -0.003265 -0.283090 -0.170232 -0.943846 -0.110569 0.871761 -0.477218 -0.696677 0.547624 0.463332 -0.869228 -0.494369 -0.003265 " />
											<TextureCoordinate point="0.4239 0.0231 0.4239 0.1487 0.6777 0.1487 0.6777 0.0231 0.4239 0.0231 0.4239 0.1487 0.6777 0.1487 0.6777 0.0231 0.4239 0.0231 0.4239 0.1487 0.6777 0.1487 0.6777 0.0231 0.4239 0.0231 0.4239 0.1487 0.6777 0.1487 0.6777 0.0231 0.6777 0.1487 0.6777 0.0231 0.4239 0.0231 0.4239 0.1487 " />
										</IndexedTriangleSet>
									</Shape>
								</Group>
							</Transform>
						</Transform>
					</Transform>
				</Transform>
			</Transform>
			<Transform DEF="wing2_TRANSFORM"
			           translation="0.000000 0.180828 0.365765"
			           scale="1.000000 1.000000 1.000000"
			           rotation="0.000000 1.000000 0.000000 0.000000"
			           >
				<Transform DEF="wing2_ifs_TRANSFORM"
				           translation="0.000000 0.000000 0.000000"
				           scale="1.000000 1.000000 1.000000"
				           rotation="0.000000 1.000000 0.000000 0.000000"
				           >
					<Group DEF="group_ME_wing2">
						<Shape>
							<Appearance>
								<Material USE="MA_Body" />
							</Appearance>
							<IndexedTriangleSet solid="false"
							                    normalPerVertex="true"
							                    index="0 1 2 0 2 3 "
							                    >
								<Coordinate point="-0.003954 0.001439 0.954654 -1.441691 0.524732 0.947910 -1.433783 0.521854 -0.961398 0.003954 -0.001439 -0.954654 " />
								<Normal vector="-0.341990 -0.939665 0.000000 -0.341990 -0.939665 0.000000 -0.341990 -0.939665 0.000000 -0.341990 -0.939665 0.000000 " />
								<TextureCoordinate point="0.1263 0.9939 0.8737 0.9939 0.8737 0.3811 0.1263 0.3811 " />
							</IndexedTriangleSet>
						</Shape>
					</Group>
				</Transform>
			</Transform>
		</Transform>
	</Scene>
</X3D>