<?xml version="1.0" encoding="UTF-8"?>
<!DOCTYPE X3D PUBLIC "ISO//Web3D//DTD X3D 3.0//EN" "http://www.web3d.org/specifications/x3d-3.0.dtd">
<X3D version="3.0" profile="Immersive" xmlns:xsd="http://www.w3.org/2001/XMLSchema-instance" xsd:noNamespaceSchemaLocation="http://www.web3d.org/specifications/x3d-3.0.xsd">
	<head>
		<meta name="filename" content="beldum.x3d" />
		<meta name="generator" content="Blender 2.93.18" />
	</head>
	<Scene>
		<NavigationInfo headlight="true"
		                visibilityLimit="0.0"
		                type='"EXAMINE", "ANY"'
		                avatarSize="0.25, 1.75, 0.75"
		                />
		<Background DEF="WO_World"
		            groundColor="0.051 0.051 0.051"
		            skyColor="0.051 0.051 0.051"
		            />
		<Transform DEF="body_TRANSFORM"
		           translation="0.000000 -2.201549 1.289746"
		           scale="1.000000 1.000000 1.000000"
		           rotation="0.000000 0.000000 1.000000 3.141593"
		           >
			<Transform DEF="body_ifs_TRANSFORM"
			           translation="0.000000 0.000000 0.000000"
			           scale="1.000000 1.000000 1.000000"
			           rotation="0.000000 1.000000 0.000000 0.000000"
			           >
				<Group DEF="group_ME_body">
					<Shape>
						<Appearance>
							<Material DEF="MA_Body"
							          diffuseColor="0.800 0.800 0.800"
							          specularColor="0.401 0.401 0.401"
							          emissiveColor="0.000 0.000 0.000"
							          ambientIntensity="0.000"
							          shininess="0.500"
							          transparency="0.0"
							          />
						</Appearance>
						<IndexedTriangleSet solid="false"
						                    normalPerVertex="true"
						                    index="0 1 2 0 2 3 4 5 6 4 6 7 8 9 10 8 10 11 12 13 14 12 14 15 4 16 17 4 17 15 18 5 14 18 14 19 "
						                    >
							<Coordinate point="-1.247035 -0.700307 -1.279080 -1.247035 -0.700307 1.279080 -1.247035 0.000000 1.279080 -1.247035 0.000000 -1.279080 -1.247035 0.000000 -1.279080 -1.247035 0.000000 1.279080 1.247035 0.000000 1.279080 1.247035 0.000000 -1.279080 1.247035 0.000000 -1.279080 1.247035 0.000000 1.279080 1.247035 -0.700307 1.279080 1.247035 -0.700307 -1.279080 1.247035 -0.700307 -1.279080 1.247035 -0.700307 1.279080 -1.247035 -0.700307 1.279080 -1.247035 -0.700307 -1.279080 1.247035 0.000000 -1.279080 1.247035 -0.700307 -1.279080 1.247035 0.000000 1.279080 1.247035 -0.700307 1.279080 " />
							<Normal vector="-0.577349 -0.577349 -0.577349 -0.577349 -0.577349 0.577349 -0.577349 0.577349 0.577349 -0.577349 0.577349 -0.577349 -0.577349 0.577349 -0.577349 -0.577349 0.577349 0.577349 0.577349 0.577349 0.577349 0.577349 0.577349 -0.577349 0.577349 0.577349 -0.577349 0.577349 0.577349 0.577349 0.577349 -0.577349 0.577349 0.577349 -0.577349 -0.577349 0.577349 -0.577349 -0.577349 0.577349 -0.577349 0.577349 -0.577349 -0.577349 0.577349 -0.577349 -0.577349 -0.577349 0.577349 0.577349 -0.577349 0.577349 -0.577349 -0.577349 0.577349 0.577349 0.577349 0.577349 -0.577349 0.577349 " />
							<TextureCoordinate point="0.0173 0.7239 0.2691 0.7239 0.2691 0.9651 0.0173 0.9651 0.0173 0.7239 0.2691 0.7239 0.2691 0.9651 0.0173 0.9651 0.0173 0.7239 0.2691 0.7239 0.2691 0.9651 0.0173 0.9651 0.0173 0.7239 0.2691 0.7239 0.2691 0.9651 0.0173 0.9651 0.2691 0.7239 0.2691 0.9651 0.0173 0.7239 0.0173 0.9651 " />
						</IndexedTriangleSet>
					</Shape>
				</Group>
			</Transform>
			<Transform DEF="Cube_001_TRANSFORM"
			           translation="-0.000000 -0.637389 -0.144691"
			           scale="1.000000 1.000000 1.000000"
			           rotation="0.000000 1.000000 0.000000 0.000000"
			           >
				<Transform DEF="Cube_001_ifs_TRANSFORM"
				           translation="0.000000 0.000000 0.000000"
				           scale="1.000000 1.000000 1.000000"
				           rotation="0.000000 1.000000 0.000000 0.000000"
				           >
					<Group DEF="group_ME_Cube_010">
						<Shape>
							<Appearance>
								<Material USE="MA_Body" />
							</Appearance>
							<IndexedTriangleSet solid="false"
							                    normalPerVertex="true"
							                    index="0 1 2 0 2 3 4 5 6 4 6 7 8 9 10 8 10 11 12 13 14 12 14 15 4 16 17 4 17 18 19 5 20 19 20 21 "
							                    >
								<Coordinate point="-0.577178 -1.087368 -0.947111 -0.577178 -1.087368 0.947111 -0.577178 0.000000 0.947111 -0.577178 0.000000 -0.947111 -0.577178 0.000000 -0.947111 -0.577178 0.000000 0.947111 0.577178 0.000000 0.947111 0.577178 0.000000 -0.947111 0.577178 0.000000 -0.947111 0.577178 0.000000 0.947111 0.577178 -1.087368 0.947111 0.577178 -1.087368 -0.947111 0.577178 -1.087368 -0.947111 0.577178 -1.087368 0.947111 -0.577178 -1.087368 0.947111 -0.577178 -1.087368 -0.947111 0.577178 0.000000 -0.947111 0.577178 -1.087368 -0.947111 -0.577178 -1.087368 -0.947111 0.577178 0.000000 0.947111 -0.577178 -1.087368 0.947111 0.577178 -1.087368 0.947111 " />
								<Normal vector="-0.577349 -0.577349 -0.577349 -0.577349 -0.577349 0.577349 -0.577349 0.577349 0.577349 -0.577349 0.577349 -0.577349 -0.577349 0.577349 -0.577349 -0.577349 0.577349 0.577349 0.577349 0.577349 0.577349 0.577349 0.577349 -0.577349 0.577349 0.577349 -0.577349 0.577349 0.577349 0.577349 0.577349 -0.577349 0.577349 0.577349 -0.577349 -0.577349 0.577349 -0.577349 -0.577349 0.577349 -0.577349 0.577349 -0.577349 -0.577349 0.577349 -0.577349 -0.577349 -0.577349 0.577349 0.577349 -0.577349 0.577349 -0.577349 -0.577349 -0.577349 -0.577349 -0.577349 0.577349 0.577349 0.577349 -0.577349 -0.577349 0.577349 0.577349 -0.577349 0.577349 " />
								<TextureCoordinate point="0.0173 0.7239 0.2691 0.7239 0.2691 0.9651 0.0173 0.9651 0.0173 0.7239 0.2691 0.7239 0.2691 0.9651 0.0173 0.9651 0.0173 0.7239 0.2691 0.7239 0.2691 0.9651 0.0173 0.9651 0.0312 0.4114 0.2551 0.4114 0.2551 0.6526 0.0312 0.6526 0.2691 0.7239 0.2691 0.9651 0.0173 0.9651 0.0173 0.7239 0.2691 0.9651 0.0173 0.9651 " />
							</IndexedTriangleSet>
						</Shape>
					</Group>
				</Transform>
				<Transform DEF="Cube_002_TRANSFORM"
				           translation="0.000000 -1.048109 0.000000"
				           scale="1.000000 1.000000 1.000000"
				           rotation="0.000000 1.000000 0.000000 0.000000"
				           >
					<Transform DEF="Cube_002_ifs_TRANSFORM"
					           translation="0.000000 0.000000 0.000000"
					           scale="1.000000 1.000000 1.000000"
					           rotation="0.000000 1.000000 0.000000 0.000000"
					           >
						<Group DEF="group_ME_Cube_015">
							<Shape>
								<Appearance>
									<Material USE="MA_Body" />
								</Appearance>
								<IndexedTriangleSet solid="false"
								                    normalPerVertex="true"
								                    index="0 1 2 0 2 3 4 5 6 4 6 7 8 9 10 8 10 11 12 13 14 12 14 15 4 16 17 4 17 18 19 5 20 19 20 21 "
								                    >
									<Coordinate point="-0.555056 -0.734109 -0.835031 -0.555056 -0.734109 0.835031 -0.555056 0.000000 0.835031 -0.555056 0.000000 -0.835031 -0.555056 0.000000 -0.835031 -0.555056 0.000000 0.835031 0.555056 0.000000 0.835031 0.555056 0.000000 -0.835031 0.555056 0.000000 -0.835031 0.555056 0.000000 0.835031 0.555056 -0.734109 0.835031 0.555056 -0.734109 -0.835031 0.555056 -0.734109 -0.835031 0.555056 -0.734109 0.835031 -0.555056 -0.734109 0.835031 -0.555056 -0.734109 -0.835031 0.555056 0.000000 -0.835031 0.555056 -0.734109 -0.835031 -0.555056 -0.734109 -0.835031 0.555056 0.000000 0.835031 -0.555056 -0.734109 0.835031 0.555056 -0.734109 0.835031 " />
									<Normal vector="-0.577349 -0.577349 -0.577349 -0.577349 -0.577349 0.577349 -0.577349 0.577349 0.577349 -0.577349 0.577349 -0.577349 -0.577349 0.577349 -0.577349 -0.577349 0.577349 0.577349 0.577349 0.577349 0.577349 0.577349 0.577349 -0.577349 0.577349 0.577349 -0.577349 0.577349 0.577349 0.577349 0.577349 -0.577349 0.577349 0.577349 -0.577349 -0.577349 0.577349 -0.577349 -0.577349 0.577349 -0.577349 0.577349 -0.577349 -0.577349 0.577349 -0.577349 -0.577349 -0.577349 0.577349 0.577349 -0.577349 0.577349 -0.577349 -0.577349 -0.577349 -0.577349 -0.577349 0.577349 0.577349 0.577349 -0.577349 -0.577349 0.577349 0.577349 -0.577349 0.577349 " />
									<TextureCoordinate point="0.0173 0.7239 0.2691 0.7239 0.2691 0.9651 0.0173 0.9651 0.0173 0.7239 0.2691 0.7239 0.2691 0.9651 0.0173 0.9651 0.0173 0.7239 0.2691 0.7239 0.2691 0.9651 0.0173 0.9651 0.0312 0.4114 0.2551 0.4114 0.2551 0.6526 0.0312 0.6526 0.2691 0.7239 0.2691 0.9651 0.0173 0.9651 0.0173 0.7239 0.2691 0.9651 0.0173 0.9651 " />
								</IndexedTriangleSet>
							</Shape>
						</Group>
					</Transform>
					<Transform DEF="Cube_003_TRANSFORM"
					           translation="0.000000 -0.650304 0.000000"
					           scale="1.000000 1.000000 1.000000"
					           rotation="0.000000 1.000000 0.000000 0.000000"
					           >
						<Transform DEF="Cube_003_ifs_TRANSFORM"
						           translation="0.000000 0.000000 0.000000"
						           scale="1.000000 1.000000 1.000000"
						           rotation="0.000000 1.000000 0.000000 0.000000"
						           >
							<Group DEF="group_ME_Cube_016">
								<Shape>
									<Appearance>
										<Material USE="MA_Body" />
									</Appearance>
									<IndexedTriangleSet solid="false"
									                    normalPerVertex="true"
									                    index="0 1 2 0 2 3 4 5 6 4 6 7 8 9 10 8 10 11 12 13 14 12 14 15 4 16 17 4 17 18 19 5 20 19 20 21 "
									                    >
										<Coordinate point="-0.539475 -0.354373 -0.664368 -0.539475 -0.494144 0.568143 -0.539475 -0.069886 0.616255 -0.539475 0.069886 -0.616255 -0.539475 0.069886 -0.616255 -0.539475 -0.069886 0.616255 0.539475 -0.069886 0.616255 0.539475 0.069886 -0.616255 0.539475 0.069886 -0.616255 0.539475 -0.069886 0.616255 0.539475 -0.494144 0.568143 0.539475 -0.354373 -0.664368 0.539475 -0.354373 -0.664368 0.539475 -0.494144 0.568143 -0.539475 -0.494144 0.568143 -0.539475 -0.354373 -0.664368 0.539475 0.069886 -0.616255 0.539475 -0.354373 -0.664368 -0.539475 -0.354373 -0.664368 0.539475 -0.069886 0.616255 -0.539475 -0.494144 0.568143 0.539475 -0.494144 0.568143 " />
										<Normal vector="-0.577349 -0.508591 -0.638722 -0.577349 -0.638722 0.508591 -0.577349 0.508591 0.638722 -0.577349 0.638722 -0.508591 -0.577349 0.638722 -0.508591 -0.577349 0.508591 0.638722 0.577349 0.508591 0.638722 0.577349 0.638722 -0.508591 0.577349 0.638722 -0.508591 0.577349 0.508591 0.638722 0.577349 -0.638722 0.508591 0.577349 -0.508591 -0.638722 0.577349 -0.508591 -0.638722 0.577349 -0.638722 0.508591 -0.577349 -0.638722 0.508591 -0.577349 -0.508591 -0.638722 0.577349 0.638722 -0.508591 0.577349 -0.508591 -0.638722 -0.577349 -0.508591 -0.638722 0.577349 0.508591 0.638722 -0.577349 -0.638722 0.508591 0.577349 -0.638722 0.508591 " />
										<TextureCoordinate point="0.0173 0.7239 0.2691 0.7239 0.2691 0.9651 0.0173 0.9651 0.0173 0.7239 0.2691 0.7239 0.2691 0.9651 0.0173 0.9651 0.0173 0.7239 0.2691 0.7239 0.2691 0.9651 0.0173 0.9651 0.1457 0.0755 0.2656 0.0755 0.2656 0.3167 0.1457 0.3167 0.2691 0.7239 0.2691 0.9651 0.0173 0.9651 0.0173 0.7239 0.2691 0.9651 0.0173 0.9651 " />
									</IndexedTriangleSet>
								</Shape>
							</Group>
						</Transform>
					</Transform>
				</Transform>
			</Transform>
			<Transform DEF="Cube_004_TRANSFORM"
			           translation="-0.000000 -2.659979 -0.009456"
			           scale="1.000000 1.000000 1.000000"
			           rotation="0.000000 1.000000 0.000000 0.000000"
			           >
				<Transform DEF="Cube_004_ifs_TRANSFORM"
				           translation="0.000000 0.000000 0.000000"
				           scale="1.000000 1.000000 1.000000"
				           rotation="0.000000 1.000000 0.000000 0.000000"
				           >
					<Group DEF="group_ME_Cube_017">
						<Shape>
							<Appearance>
								<Material USE="MA_Body" />
							</Appearance>
							<IndexedTriangleSet solid="false"
							                    normalPerVertex="true"
							                    index="0 1 2 0 2 3 4 5 6 4 6 7 8 9 10 8 10 11 12 13 14 12 14 15 4 16 17 4 17 15 18 5 14 18 14 19 "
							                    >
								<Coordinate point="-0.423781 -0.520758 -0.374636 -0.423781 -0.520758 0.374636 -0.423781 0.000000 0.374636 -0.423781 0.000000 -0.374636 -0.423781 0.000000 -0.374636 -0.423781 0.000000 0.374636 0.423781 0.000000 0.374636 0.423781 0.000000 -0.374636 0.423781 0.000000 -0.374636 0.423781 0.000000 0.374636 0.423781 -0.520758 0.374636 0.423781 -0.520758 -0.374636 0.423781 -0.520758 -0.374636 0.423781 -0.520758 0.374636 -0.423781 -0.520758 0.374636 -0.423781 -0.520758 -0.374636 0.423781 0.000000 -0.374636 0.423781 -0.520758 -0.374636 0.423781 0.000000 0.374636 0.423781 -0.520758 0.374636 " />
								<Normal vector="-0.577349 -0.577349 -0.577349 -0.577349 -0.577349 0.577349 -0.577349 0.577349 0.577349 -0.577349 0.577349 -0.577349 -0.577349 0.577349 -0.577349 -0.577349 0.577349 0.577349 0.577349 0.577349 0.577349 0.577349 0.577349 -0.577349 0.577349 0.577349 -0.577349 0.577349 0.577349 0.577349 0.577349 -0.577349 0.577349 0.577349 -0.577349 -0.577349 0.577349 -0.577349 -0.577349 0.577349 -0.577349 0.577349 -0.577349 -0.577349 0.577349 -0.577349 -0.577349 -0.577349 0.577349 0.577349 -0.577349 0.577349 -0.577349 -0.577349 0.577349 0.577349 0.577349 0.577349 -0.577349 0.577349 " />
								<TextureCoordinate point="0.1500 0.1069 0.2535 0.1069 0.2535 0.3165 0.1500 0.3165 0.1500 0.1069 0.2535 0.1069 0.2535 0.3165 0.1500 0.3165 0.1500 0.1069 0.2535 0.1069 0.2535 0.3165 0.1500 0.3165 0.1500 0.1069 0.2535 0.1069 0.2535 0.3165 0.1500 0.3165 0.2535 0.1069 0.2535 0.3165 0.1500 0.1069 0.1500 0.3165 " />
							</IndexedTriangleSet>
						</Shape>
					</Group>
				</Transform>
			</Transform>
			<Transform DEF="Cube_005_TRANSFORM"
			           translation="-0.000000 -0.637389 -0.076087"
			           scale="1.000000 1.000000 1.000000"
			           rotation="0.000000 1.000000 0.000000 0.000000"
			           >
				<Transform DEF="Cube_005_ifs_TRANSFORM"
				           translation="0.000000 0.000000 0.000000"
				           scale="1.000000 1.000000 1.000000"
				           rotation="0.000000 1.000000 0.000000 0.000000"
				           >
					<Group DEF="group_ME_Cube_018">
						<Shape>
							<Appearance>
								<Material USE="MA_Body" />
							</Appearance>
							<IndexedTriangleSet solid="false"
							                    normalPerVertex="true"
							                    index="0 1 2 0 2 3 4 5 6 4 6 7 8 9 10 8 10 11 12 13 14 12 14 15 4 16 17 4 17 15 18 5 14 18 14 19 "
							                    >
								<Coordinate point="-1.135237 -1.087368 -0.792988 -1.135237 -1.087368 0.792988 -1.135237 0.000000 0.792988 -1.135237 0.000000 -0.792988 -1.135237 0.000000 -0.792988 -1.135237 0.000000 0.792988 1.135237 0.000000 0.792988 1.135237 0.000000 -0.792988 1.135237 0.000000 -0.792988 1.135237 0.000000 0.792988 1.135237 -1.087368 0.792988 1.135237 -1.087368 -0.792988 1.135237 -1.087368 -0.792988 1.135237 -1.087368 0.792988 -1.135237 -1.087368 0.792988 -1.135237 -1.087368 -0.792988 1.135237 0.000000 -0.792988 1.135237 -1.087368 -0.792988 1.135237 0.000000 0.792988 1.135237 -1.087368 0.792988 " />
								<Normal vector="-0.577349 -0.577349 -0.577349 -0.577349 -0.577349 0.577349 -0.577349 0.577349 0.577349 -0.577349 0.577349 -0.577349 -0.577349 0.577349 -0.577349 -0.577349 0.577349 0.577349 0.577349 0.577349 0.577349 0.577349 0.577349 -0.577349 0.577349 0.577349 -0.577349 0.577349 0.577349 0.577349 0.577349 -0.577349 0.577349 0.577349 -0.577349 -0.577349 0.577349 -0.577349 -0.577349 0.577349 -0.577349 0.577349 -0.577349 -0.577349 0.577349 -0.577349 -0.577349 -0.577349 0.577349 0.577349 -0.577349 0.577349 -0.577349 -0.577349 0.577349 0.577349 0.577349 0.577349 -0.577349 0.577349 " />
								<TextureCoordinate point="0.0173 0.7239 0.2691 0.7239 0.2691 0.9651 0.0173 0.9651 0.0173 0.7239 0.2691 0.7239 0.2691 0.9651 0.0173 0.9651 0.0173 0.7239 0.2691 0.7239 0.2691 0.9651 0.0173 0.9651 0.0173 0.7239 0.2691 0.7239 0.2691 0.9651 0.0173 0.9651 0.2691 0.7239 0.2691 0.9651 0.0173 0.7239 0.0173 0.9651 " />
							</IndexedTriangleSet>
						</Shape>
					</Group>
				</Transform>
				<Transform DEF="Cube_006_TRANSFORM"
				           translation="0.000000 -1.022123 -0.000000"
				           scale="1.000000 1.000000 1.000000"
				           rotation="0.000000 1.000000 0.000000 0.000000"
				           >
					<Transform DEF="Cube_006_ifs_TRANSFORM"
					           translation="0.000000 0.000000 0.000000"
					           scale="1.000000 1.000000 1.000000"
					           rotation="0.000000 1.000000 0.000000 0.000000"
					           >
						<Group DEF="group_ME_Cube_019">
							<Shape>
								<Appearance>
									<Material USE="MA_Body" />
								</Appearance>
								<IndexedTriangleSet solid="false"
								                    normalPerVertex="true"
								                    index="0 1 2 0 2 3 4 5 6 4 6 7 8 9 10 8 10 11 12 13 14 12 14 15 4 16 17 4 17 15 18 5 14 18 14 19 "
								                    >
									<Coordinate point="-1.034149 -0.688877 -0.722376 -1.034149 -0.688877 0.722376 -1.034149 0.000000 0.722376 -1.034149 0.000000 -0.722376 -1.034149 0.000000 -0.722376 -1.034149 0.000000 0.722376 1.034149 0.000000 0.722376 1.034149 0.000000 -0.722376 1.034149 0.000000 -0.722376 1.034149 0.000000 0.722376 1.034149 -0.688877 0.722376 1.034149 -0.688877 -0.722376 1.034149 -0.688877 -0.722376 1.034149 -0.688877 0.722376 -1.034149 -0.688877 0.722376 -1.034149 -0.688877 -0.722376 1.034149 0.000000 -0.722376 1.034149 -0.688877 -0.722376 1.034149 0.000000 0.722376 1.034149 -0.688877 0.722376 " />
									<Normal vector="-0.577349 -0.577349 -0.577349 -0.577349 -0.577349 0.577349 -0.577349 0.577349 0.577349 -0.577349 0.577349 -0.577349 -0.577349 0.577349 -0.577349 -0.577349 0.577349 0.577349 0.577349 0.577349 0.577349 0.577349 0.577349 -0.577349 0.577349 0.577349 -0.577349 0.577349 0.577349 0.577349 0.577349 -0.577349 0.577349 0.577349 -0.577349 -0.577349 0.577349 -0.577349 -0.577349 0.577349 -0.577349 0.577349 -0.577349 -0.577349 0.577349 -0.577349 -0.577349 -0.577349 0.577349 0.577349 -0.577349 0.577349 -0.577349 -0.577349 0.577349 0.577349 0.577349 0.577349 -0.577349 0.577349 " />
									<TextureCoordinate point="0.0173 0.7239 0.2691 0.7239 0.2691 0.9651 0.0173 0.9651 0.0173 0.7239 0.2691 0.7239 0.2691 0.9651 0.0173 0.9651 0.0173 0.7239 0.2691 0.7239 0.2691 0.9651 0.0173 0.9651 0.0173 0.7239 0.2691 0.7239 0.2691 0.9651 0.0173 0.9651 0.2691 0.7239 0.2691 0.9651 0.0173 0.7239 0.0173 0.9651 " />
								</IndexedTriangleSet>
							</Shape>
						</Group>
					</Transform>
					<Transform DEF="Cube_007_TRANSFORM"
					           translation="0.730944 -0.584756 0.005336"
					           scale="1.000000 1.000000 1.000000"
					           rotation="0.000000 1.000000 0.000000 0.000000"
					           >
						<Transform DEF="Cube_007_ifs_TRANSFORM"
						           translation="0.000000 0.000000 0.000000"
						           scale="1.000000 1.000000 1.000000"
						           rotation="0.000000 1.000000 0.000000 0.000000"
						           >
							<Group DEF="group_ME_Cube_020">
								<Shape>
									<Appearance>
										<Material USE="MA_Body" />
									</Appearance>
									<IndexedTriangleSet solid="false"
									                    normalPerVertex="true"
									                    index="0 1 2 0 2 3 4 5 6 4 6 7 8 9 10 8 10 11 12 13 14 12 14 15 4 16 17 4 17 15 18 5 14 18 14 19 "
									                    >
										<Coordinate point="-0.150627 -0.633855 -0.564303 -0.150627 -0.695534 0.486254 -0.150627 -0.030839 0.525278 -0.150627 0.030839 -0.525278 -0.150627 0.030839 -0.525278 -0.150627 -0.030839 0.525278 0.150627 -0.030839 0.525278 0.150627 0.030839 -0.525278 0.150627 0.030839 -0.525278 0.150627 -0.030839 0.525278 0.150627 -0.695534 0.486254 0.150627 -0.633855 -0.564303 0.150627 -0.633855 -0.564303 0.150627 -0.695534 0.486254 -0.150627 -0.695534 0.486254 -0.150627 -0.633855 -0.564303 0.150627 0.030839 -0.525278 0.150627 -0.633855 -0.564303 0.150627 -0.030839 0.525278 0.150627 -0.695534 0.486254 " />
										<Normal vector="-0.577349 -0.542497 -0.610187 -0.577349 -0.610187 0.542497 -0.577349 0.542497 0.610187 -0.577349 0.610187 -0.542497 -0.577349 0.610187 -0.542497 -0.577349 0.542497 0.610187 0.577349 0.542497 0.610187 0.577349 0.610187 -0.542497 0.577349 0.610187 -0.542497 0.577349 0.542497 0.610187 0.577349 -0.610187 0.542497 0.577349 -0.542497 -0.610187 0.577349 -0.542497 -0.610187 0.577349 -0.610187 0.542497 -0.577349 -0.610187 0.542497 -0.577349 -0.542497 -0.610187 0.577349 0.610187 -0.542497 0.577349 -0.542497 -0.610187 0.577349 0.542497 0.610187 0.577349 -0.610187 0.542497 " />
										<TextureCoordinate point="0.0364 0.4375 0.2449 0.4375 0.2449 0.6250 0.0364 0.6250 0.0173 0.7239 0.2691 0.7239 0.2691 0.9651 0.0173 0.9651 0.0173 0.7239 0.2691 0.7239 0.2691 0.9651 0.0173 0.9651 0.0173 0.7239 0.2691 0.7239 0.2691 0.9651 0.0173 0.9651 0.2691 0.7239 0.2691 0.9651 0.0173 0.7239 0.0173 0.9651 " />
									</IndexedTriangleSet>
								</Shape>
							</Group>
						</Transform>
					</Transform>
					<Transform DEF="Cube_013_TRANSFORM"
					           translation="-0.730944 -0.584756 0.005336"
					           scale="1.000000 1.000000 1.000000"
					           rotation="0.000000 1.000000 0.000000 0.000000"
					           >
						<Transform DEF="Cube_013_ifs_TRANSFORM"
						           translation="0.000000 0.000000 0.000000"
						           scale="1.000000 1.000000 1.000000"
						           rotation="0.000000 1.000000 0.000000 0.000000"
						           >
							<Group DEF="group_ME_Cube_026">
								<Shape>
									<Appearance>
										<Material USE="MA_Body" />
									</Appearance>
									<IndexedTriangleSet solid="false"
									                    normalPerVertex="true"
									                    index="0 1 2 0 2 3 4 5 6 4 6 7 8 9 10 8 10 11 12 13 14 12 14 15 4 13 16 4 16 17 18 19 14 18 14 7 "
									                    >
										<Coordinate point="0.150627 -0.633855 -0.564303 0.150627 0.030839 -0.525278 0.150627 -0.030839 0.525278 0.150627 -0.695534 0.486254 0.150627 0.030839 -0.525278 -0.150627 0.030839 -0.525278 -0.150627 -0.030839 0.525278 0.150627 -0.030839 0.525278 -0.150627 0.030839 -0.525278 -0.150627 -0.633855 -0.564303 -0.150627 -0.695534 0.486254 -0.150627 -0.030839 0.525278 -0.150627 -0.633855 -0.564303 0.150627 -0.633855 -0.564303 0.150627 -0.695534 0.486254 -0.150627 -0.695534 0.486254 -0.150627 -0.633855 -0.564303 -0.150627 0.030839 -0.525278 -0.150627 -0.030839 0.525278 -0.150627 -0.695534 0.486254 " />
										<Normal vector="0.577349 -0.542497 -0.610187 0.577349 0.610187 -0.542497 0.577349 0.542497 0.610187 0.577349 -0.610187 0.542497 0.577349 0.610187 -0.542497 -0.577349 0.610187 -0.542497 -0.577349 0.542497 0.610187 0.577349 0.542497 0.610187 -0.577349 0.610187 -0.542497 -0.577349 -0.542497 -0.610187 -0.577349 -0.610187 0.542497 -0.577349 0.542497 0.610187 -0.577349 -0.542497 -0.610187 0.577349 -0.542497 -0.610187 0.577349 -0.610187 0.542497 -0.577349 -0.610187 0.542497 -0.577349 -0.542497 -0.610187 -0.577349 0.610187 -0.542497 -0.577349 0.542497 0.610187 -0.577349 -0.610187 0.542497 " />
										<TextureCoordinate point="0.0364 0.4375 0.0364 0.6250 0.2449 0.6250 0.2449 0.4375 0.0173 0.7239 0.0173 0.9651 0.2691 0.9651 0.2691 0.7239 0.0173 0.7239 0.0173 0.9651 0.2691 0.9651 0.2691 0.7239 0.0173 0.7239 0.0173 0.9651 0.2691 0.9651 0.2691 0.7239 0.2691 0.9651 0.2691 0.7239 0.0173 0.7239 0.0173 0.9651 " />
									</IndexedTriangleSet>
								</Shape>
							</Group>
						</Transform>
					</Transform>
				</Transform>
			</Transform>
			<Transform DEF="Cube_008_TRANSFORM"
			           translation="-0.000000 -0.637389 0.811600"
			           scale="1.000000 1.000000 1.000000"
			           rotation="0.000000 1.000000 0.000000 0.000000"
			           >
				<Transform DEF="Cube_008_ifs_TRANSFORM"
				           translation="0.000000 0.000000 0.000000"
				           scale="1.000000 1.000000 1.000000"
				           rotation="0.000000 1.000000 0.000000 0.000000"
				           >
					<Group DEF="group_ME_Cube_021">
						<Shape>
							<Appearance>
								<Material USE="MA_Body" />
							</Appearance>
							<IndexedTriangleSet solid="false"
							                    normalPerVertex="true"
							                    index="0 1 2 0 2 3 4 5 6 4 6 7 8 9 10 8 10 11 12 13 14 12 14 15 4 16 17 4 17 15 18 5 14 18 14 19 "
							                    >
								<Coordinate point="-0.760630 -1.120772 -0.302325 -0.760630 -1.135063 0.243234 -0.760630 -0.007145 0.272780 -0.760630 0.007145 -0.272780 -0.760630 0.007145 -0.272780 -0.760630 -0.007145 0.272780 0.760630 -0.007145 0.272780 0.760630 0.007145 -0.272780 0.760630 0.007145 -0.272780 0.760630 -0.007145 0.272780 0.760630 -1.135063 0.243234 0.760630 -1.120772 -0.302325 0.760630 -1.120772 -0.302325 0.760630 -1.135063 0.243234 -0.760630 -1.135063 0.243234 -0.760630 -1.120772 -0.302325 0.760630 0.007145 -0.272780 0.760630 -1.120772 -0.302325 0.760630 -0.007145 0.272780 0.760630 -1.135063 0.243234 " />
								<Normal vector="-0.577349 -0.562029 -0.592242 -0.577349 -0.592242 0.562029 -0.577349 0.562029 0.592242 -0.577349 0.592242 -0.562029 -0.577349 0.592242 -0.562029 -0.577349 0.562029 0.592242 0.577349 0.562029 0.592242 0.577349 0.592242 -0.562029 0.577349 0.592242 -0.562029 0.577349 0.562029 0.592242 0.577349 -0.592242 0.562029 0.577349 -0.562029 -0.592242 0.577349 -0.562029 -0.592242 0.577349 -0.592242 0.562029 -0.577349 -0.592242 0.562029 -0.577349 -0.562029 -0.592242 0.577349 0.592242 -0.562029 0.577349 -0.562029 -0.592242 0.577349 0.562029 0.592242 0.577349 -0.592242 0.562029 " />
								<TextureCoordinate point="0.0173 0.7239 0.2691 0.7239 0.2691 0.9651 0.0173 0.9651 0.0173 0.7239 0.2691 0.7239 0.2691 0.9651 0.0173 0.9651 0.0173 0.7239 0.2691 0.7239 0.2691 0.9651 0.0173 0.9651 0.0173 0.7239 0.2691 0.7239 0.2691 0.9651 0.0173 0.9651 0.2691 0.7239 0.2691 0.9651 0.0173 0.7239 0.0173 0.9651 " />
							</IndexedTriangleSet>
						</Shape>
					</Group>
				</Transform>
				<Transform DEF="Cube_009_TRANSFORM"
				           translation="0.000000 -1.063937 -0.092021"
				           scale="1.000000 1.000000 1.000000"
				           rotation="0.000000 1.000000 0.000000 0.000000"
				           >
					<Transform DEF="Cube_009_ifs_TRANSFORM"
					           translation="0.000000 0.000000 0.000000"
					           scale="1.000000 1.000000 1.000000"
					           rotation="0.000000 1.000000 0.000000 0.000000"
					           >
						<Group DEF="group_ME_Cube_022">
							<Shape>
								<Appearance>
									<Material USE="MA_Body" />
								</Appearance>
								<IndexedTriangleSet solid="false"
								                    normalPerVertex="true"
								                    index="0 1 2 0 2 3 4 5 6 4 6 7 8 9 10 8 10 11 12 13 14 12 14 15 4 16 17 4 17 15 18 5 14 18 14 19 "
								                    >
									<Coordinate point="-0.703106 -1.228118 -0.431575 -0.703106 -1.268677 0.291527 -0.703106 -0.020280 0.361551 -0.703106 0.020280 -0.361551 -0.703106 0.020280 -0.361551 -0.703106 -0.020280 0.361551 0.703106 -0.020280 0.361551 0.703106 0.020280 -0.361551 0.703106 0.020280 -0.361551 0.703106 -0.020280 0.361551 0.703106 -1.268677 0.291527 0.703106 -1.228118 -0.431575 0.703106 -1.228118 -0.431575 0.703106 -1.268677 0.291527 -0.703106 -1.268677 0.291527 -0.703106 -1.228118 -0.431575 0.703106 0.020280 -0.361551 0.703106 -1.228118 -0.431575 0.703106 -0.020280 0.361551 0.703106 -1.268677 0.291527 " />
									<Normal vector="-0.577349 -0.544084 -0.608753 -0.577349 -0.608753 0.544084 -0.577349 0.544084 0.608753 -0.577349 0.608753 -0.544084 -0.577349 0.608753 -0.544084 -0.577349 0.544084 0.608753 0.577349 0.544084 0.608753 0.577349 0.608753 -0.544084 0.577349 0.608753 -0.544084 0.577349 0.544084 0.608753 0.577349 -0.608753 0.544084 0.577349 -0.544084 -0.608753 0.577349 -0.544084 -0.608753 0.577349 -0.608753 0.544084 -0.577349 -0.608753 0.544084 -0.577349 -0.544084 -0.608753 0.577349 0.608753 -0.544084 0.577349 -0.544084 -0.608753 0.577349 0.544084 0.608753 0.577349 -0.608753 0.544084 " />
									<TextureCoordinate point="0.0173 0.7239 0.2691 0.7239 0.2691 0.9651 0.0173 0.9651 0.0173 0.7239 0.2691 0.7239 0.2691 0.9651 0.0173 0.9651 0.0173 0.7239 0.2691 0.7239 0.2691 0.9651 0.0173 0.9651 0.0173 0.7239 0.2691 0.7239 0.2691 0.9651 0.0173 0.9651 0.2691 0.7239 0.2691 0.9651 0.0173 0.7239 0.0173 0.9651 " />
								</IndexedTriangleSet>
							</Shape>
						</Group>
					</Transform>
					<Transform DEF="Cube_010_TRANSFORM"
					           translation="-0.000000 -0.918052 -0.146006"
					           scale="1.000000 1.000000 1.000000"
					           rotation="0.000000 1.000000 0.000000 0.000000"
					           >
						<Transform DEF="Cube_010_ifs_TRANSFORM"
						           translation="0.000000 0.000000 0.000000"
						           scale="1.000000 1.000000 1.000000"
						           rotation="0.000000 1.000000 0.000000 0.000000"
						           >
							<Group DEF="group_ME_Cube_023">
								<Shape>
									<Appearance>
										<Material USE="MA_Body" />
									</Appearance>
									<IndexedTriangleSet solid="false"
									                    normalPerVertex="true"
									                    index="0 1 2 0 2 3 4 5 6 4 6 7 8 9 10 8 10 11 12 13 14 12 14 15 4 16 17 4 17 15 18 5 14 18 14 19 "
									                    >
										<Coordinate point="-0.590836 -1.132452 0.140673 -0.590836 -0.816707 0.797010 -0.590836 0.157872 0.328168 -0.590836 -0.157872 -0.328168 -0.590836 -0.157872 -0.328168 -0.590836 0.157872 0.328168 0.590836 0.157872 0.328168 0.590836 -0.157872 -0.328168 0.590836 -0.157872 -0.328168 0.590836 0.157872 0.328168 0.590836 -0.816707 0.797010 0.590836 -1.132452 0.140673 0.590836 -1.132452 0.140673 0.590836 -0.816707 0.797010 -0.590836 -0.816707 0.797010 -0.590836 -1.132452 0.140673 0.590836 -0.157872 -0.328168 0.590836 -1.132452 0.140673 0.590836 0.157872 0.328168 0.590836 -0.816707 0.797010 " />
										<Normal vector="-0.577349 -0.770562 -0.269967 -0.577349 -0.269967 0.770562 -0.577349 0.770562 0.269967 -0.577349 0.269967 -0.770562 -0.577349 0.269967 -0.770562 -0.577349 0.770562 0.269967 0.577349 0.770562 0.269967 0.577349 0.269967 -0.770562 0.577349 0.269967 -0.770562 0.577349 0.770562 0.269967 0.577349 -0.269967 0.770562 0.577349 -0.770562 -0.269967 0.577349 -0.770562 -0.269967 0.577349 -0.269967 0.770562 -0.577349 -0.269967 0.770562 -0.577349 -0.770562 -0.269967 0.577349 0.269967 -0.770562 0.577349 -0.770562 -0.269967 0.577349 0.770562 0.269967 0.577349 -0.269967 0.770562 " />
										<TextureCoordinate point="0.0173 0.7239 0.2691 0.7239 0.2691 0.9651 0.0173 0.9651 0.0173 0.7239 0.2691 0.7239 0.2691 0.9651 0.0173 0.9651 0.0173 0.7239 0.2691 0.7239 0.2691 0.9651 0.0173 0.9651 0.0173 0.7239 0.2691 0.7239 0.2691 0.9651 0.0173 0.9651 0.2691 0.7239 0.2691 0.9651 0.0173 0.7239 0.0173 0.9651 " />
									</IndexedTriangleSet>
								</Shape>
							</Group>
						</Transform>
					</Transform>
				</Transform>
				<Transform DEF="Cube_011_TRANSFORM"
				           translation="0.000000 -2.737656 0.213598"
				           scale="1.000000 1.000000 1.000000"
				           rotation="0.000000 1.000000 0.000000 0.000000"
				           >
					<Transform DEF="Cube_011_ifs_TRANSFORM"
					           translation="0.000000 0.000000 0.000000"
					           scale="1.000000 1.000000 1.000000"
					           rotation="0.000000 1.000000 0.000000 0.000000"
					           >
						<Group DEF="group_ME_Cube_024">
							<Shape>
								<Appearance>
									<Material USE="MA_Body" />
								</Appearance>
								<IndexedTriangleSet solid="false"
								                    normalPerVertex="true"
								                    index="0 1 2 0 2 3 4 5 6 4 6 7 8 9 10 8 10 11 12 13 14 12 14 15 16 17 18 16 18 19 20 5 14 20 14 21 "
								                    >
									<Coordinate point="-0.468665 -0.750009 -0.419927 -0.468665 -0.853356 0.103131 -0.468665 -0.051673 0.261529 -0.468665 0.051673 -0.261529 -0.468665 0.051673 -0.261529 -0.468665 -0.051673 0.261529 0.468665 -0.051673 0.261529 0.468665 0.051673 -0.261529 0.468665 0.051673 -0.261529 0.468665 -0.051673 0.261529 0.468665 -0.853356 0.103131 0.468665 -0.750009 -0.419927 0.468665 -0.750009 -0.419927 0.468665 -0.853356 0.103131 -0.468665 -0.853356 0.103131 -0.468665 -0.750009 -0.419927 -0.468665 0.051673 -0.261529 0.468665 0.051673 -0.261529 0.468665 -0.750009 -0.419927 -0.468665 -0.750009 -0.419927 0.468665 -0.051673 0.261529 0.468665 -0.853356 0.103131 " />
									<Normal vector="-0.577349 -0.454482 -0.678304 -0.577349 -0.678304 0.454482 -0.577349 0.454482 0.678304 -0.577349 0.678304 -0.454482 -0.577349 0.678304 -0.454482 -0.577349 0.454482 0.678304 0.577349 0.454482 0.678304 0.577349 0.678304 -0.454482 0.577349 0.678304 -0.454482 0.577349 0.454482 0.678304 0.577349 -0.678304 0.454482 0.577349 -0.454482 -0.678304 0.577349 -0.454482 -0.678304 0.577349 -0.678304 0.454482 -0.577349 -0.678304 0.454482 -0.577349 -0.454482 -0.678304 -0.577349 0.678304 -0.454482 0.577349 0.678304 -0.454482 0.577349 -0.454482 -0.678304 -0.577349 -0.454482 -0.678304 0.577349 0.454482 0.678304 0.577349 -0.678304 0.454482 " />
									<TextureCoordinate point="0.0173 0.7239 0.2691 0.7239 0.2691 0.9651 0.0173 0.9651 0.0173 0.7239 0.2691 0.7239 0.2691 0.9651 0.0173 0.9651 0.0173 0.7239 0.2691 0.7239 0.2691 0.9651 0.0173 0.9651 0.0173 0.7239 0.2691 0.7239 0.2691 0.9651 0.0173 0.9651 0.0347 0.4114 0.2517 0.4114 0.2517 0.6526 0.0347 0.6526 0.0173 0.7239 0.0173 0.9651 " />
								</IndexedTriangleSet>
							</Shape>
						</Group>
					</Transform>
					<Transform DEF="Cube_012_TRANSFORM"
					           translation="-0.000000 -0.698677 -0.197137"
					           scale="1.000000 1.000000 1.000000"
					           rotation="0.000000 1.000000 0.000000 0.000000"
					           >
						<Transform DEF="Cube_012_ifs_TRANSFORM"
						           translation="0.000000 0.000000 0.000000"
						           scale="1.000000 1.000000 1.000000"
						           rotation="0.000000 1.000000 0.000000 0.000000"
						           >
							<Group DEF="group_ME_Cube_025">
								<Shape>
									<Appearance>
										<Material USE="MA_Body" />
									</Appearance>
									<IndexedTriangleSet solid="false"
									                    normalPerVertex="true"
									                    index="0 1 2 0 2 3 4 5 6 4 6 7 8 9 10 8 10 11 12 13 14 12 14 15 16 17 18 16 18 19 20 5 14 20 14 21 "
									                    >
										<Coordinate point="-0.388479 -1.012049 -0.470263 -0.388479 -1.106041 -0.148535 -0.388479 -0.046996 0.160864 -0.388479 0.046996 -0.160864 -0.388479 0.046996 -0.160864 -0.388479 -0.046996 0.160864 0.388479 -0.046996 0.160864 0.388479 0.046996 -0.160864 0.388479 0.046996 -0.160864 0.388479 -0.046996 0.160864 0.388479 -1.106041 -0.148535 0.388479 -1.012049 -0.470263 0.388479 -1.012049 -0.470263 0.388479 -1.106041 -0.148535 -0.388479 -1.106041 -0.148535 -0.388479 -1.012049 -0.470263 -0.388479 0.046996 -0.160864 0.388479 0.046996 -0.160864 0.388479 -1.012049 -0.470263 -0.388479 -1.012049 -0.470263 0.388479 -0.046996 0.160864 0.388479 -1.106041 -0.148535 " />
										<Normal vector="-0.577349 -0.392254 -0.716086 -0.577349 -0.716086 0.392254 -0.577349 0.392254 0.716086 -0.577349 0.716086 -0.392254 -0.577349 0.716086 -0.392254 -0.577349 0.392254 0.716086 0.577349 0.392254 0.716086 0.577349 0.716086 -0.392254 0.577349 0.716086 -0.392254 0.577349 0.392254 0.716086 0.577349 -0.716086 0.392254 0.577349 -0.392254 -0.716086 0.577349 -0.392254 -0.716086 0.577349 -0.716086 0.392254 -0.577349 -0.716086 0.392254 -0.577349 -0.392254 -0.716086 -0.577349 0.716086 -0.392254 0.577349 0.716086 -0.392254 0.577349 -0.392254 -0.716086 -0.577349 -0.392254 -0.716086 0.577349 0.392254 0.716086 0.577349 -0.716086 0.392254 " />
										<TextureCoordinate point="0.0173 0.7239 0.2691 0.7239 0.2691 0.9651 0.0173 0.9651 0.0173 0.7239 0.2691 0.7239 0.2691 0.9651 0.0173 0.9651 0.0173 0.7239 0.2691 0.7239 0.2691 0.9651 0.0173 0.9651 0.0173 0.7239 0.2691 0.7239 0.2691 0.9651 0.0173 0.9651 0.0347 0.4114 0.2517 0.4114 0.2517 0.6526 0.0347 0.6526 0.0173 0.7239 0.0173 0.9651 " />
									</IndexedTriangleSet>
								</Shape>
							</Group>
						</Transform>
					</Transform>
				</Transform>
			</Transform>
			<Transform DEF="head_TRANSFORM"
			           translation="0.000000 -3.008675 0.019146"
			           scale="1.000000 1.000000 1.000000"
			           rotation="0.000000 1.000000 0.000000 0.000000"
			           >
				<Transform DEF="head_ifs_TRANSFORM"
				           translation="0.000000 0.000000 0.000000"
				           scale="1.000000 1.000000 1.000000"
				           rotation="0.000000 1.000000 0.000000 0.000000"
				           >
					<Group DEF="group_ME_head">
						<Shape>
							<Appearance>
								<Material USE="MA_Body" />
							</Appearance>
							<IndexedTriangleSet solid="false"
							                    normalPerVertex="true"
							                    index="0 1 2 0 2 3 4 5 6 4 6 7 8 9 10 8 10 11 12 13 14 12 14 15 16 17 18 16 18 19 20 21 14 20 14 22 23 12 15 23 15 24 25 8 11 25 11 26 27 4 7 27 7 28 29 0 3 29 3 30 31 29 30 31 30 32 33 27 28 33 28 34 35 25 26 35 26 36 37 23 24 37 24 38 39 40 23 39 23 37 41 42 43 41 43 44 42 45 46 42 46 43 47 48 49 47 49 50 51 20 22 51 22 52 41 53 54 41 54 38 55 56 13 55 13 12 45 21 57 45 57 46 58 59 56 58 56 55 60 51 52 60 52 61 62 58 55 62 55 40 63 62 40 63 40 39 44 43 27 44 27 33 43 46 4 43 4 27 53 16 19 53 19 54 46 57 5 46 5 4 "
							                    >
								<Coordinate point="-0.863223 -1.761002 -0.135943 -0.863223 -1.898052 0.202665 -0.863223 -0.337653 0.834232 -0.863223 -0.200602 0.495624 0.814698 -0.200602 0.495624 0.814698 -0.337653 0.834232 0.863223 -0.337653 0.834232 0.863223 -0.200602 0.495624 0.863223 -0.200602 0.495624 0.863223 -0.337653 0.834232 0.863223 -1.898052 0.202665 0.863223 -1.761002 -0.135943 -0.683659 -1.761002 -0.135943 -0.683659 -1.898052 0.202665 -0.863223 -1.898052 0.202665 -0.863223 -1.761002 -0.135943 0.814698 0.337653 -0.834232 0.863223 0.337653 -0.834232 0.863223 -1.222747 -1.465799 0.814698 -1.222747 -1.465799 -0.683659 -0.337653 0.834232 -0.863223 -0.337653 0.834232 -0.683659 -1.898052 0.202665 -0.683659 -1.327745 -1.206382 -0.863223 -1.327745 -1.206382 0.863223 0.232655 -0.574815 0.863223 -1.327745 -1.206382 0.814698 0.232655 -0.574815 0.863223 0.232655 -0.574815 -0.863223 -1.327745 -1.206382 -0.863223 0.232655 -0.574815 -0.863223 -1.222747 -1.465799 -0.863223 0.337653 -0.834232 0.814698 0.337653 -0.834232 0.863223 0.337653 -0.834232 0.863223 0.337653 -0.834232 0.863223 -1.222747 -1.465799 -0.683659 -1.222747 -1.465799 -0.863223 -1.222747 -1.465799 0.814698 -1.222747 -1.465799 0.814698 -1.327745 -1.206382 -0.863223 0.337653 -0.834232 -0.863223 0.232655 -0.574815 -0.683659 0.232655 -0.574815 -0.683659 0.337653 -0.834232 -0.863223 -0.200602 0.495624 -0.683659 -0.200602 0.495624 0.814698 -1.327745 -1.206382 0.814698 -1.761002 -0.135943 -0.683659 -1.761002 -0.135943 -0.683659 -1.327745 -1.206382 0.814698 -0.337653 0.834232 0.814698 -1.898052 0.202665 -0.683659 0.337653 -0.834232 -0.683659 -1.222747 -1.465799 0.814698 -1.761002 -0.135943 0.814698 -1.898052 0.202665 -0.683659 -0.337653 0.834232 0.863223 -1.761002 -0.135943 0.863223 -1.898052 0.202665 0.863223 -0.337653 0.834232 0.863223 -1.898052 0.202665 0.863223 -1.327745 -1.206382 0.863223 -1.222747 -1.465799 " />
								<Normal vector="-0.707083 -0.655446 -0.265267 -0.577349 -0.751762 0.318552 -0.577349 0.318552 0.751762 -0.707083 0.655446 0.265267 0.000000 0.926939 0.375164 0.000000 0.390149 0.920743 0.577349 0.318552 0.751762 0.707083 0.655446 0.265267 0.707083 0.655446 0.265267 0.577349 0.318552 0.751762 0.577349 -0.751762 0.318552 0.707083 -0.655446 -0.265267 0.000000 -0.926939 -0.375164 0.000000 -0.920743 0.390149 -0.577349 -0.751762 0.318552 -0.707083 -0.655446 -0.265267 0.000000 0.920743 -0.390149 0.577349 0.751762 -0.318552 0.577349 -0.318552 -0.751762 0.000000 -0.390149 -0.920743 0.000000 0.390149 0.920743 -0.577349 0.318552 0.751762 0.000000 -0.920743 0.390149 0.000000 -0.926939 -0.375164 -0.707083 -0.655446 -0.265267 0.707083 0.655446 0.265267 0.707083 -0.655446 -0.265267 0.000000 0.926939 0.375164 0.707083 0.655446 0.265267 -0.707083 -0.655446 -0.265267 -0.707083 0.655446 0.265267 -0.577349 -0.318552 -0.751762 -0.577349 0.751762 -0.318552 0.000000 0.920743 -0.390149 0.577349 0.751762 -0.318552 0.577349 0.751762 -0.318552 0.577349 -0.318552 -0.751762 0.000000 -0.390149 -0.920743 -0.577349 -0.318552 -0.751762 0.000000 -0.390149 -0.920743 0.000000 -0.926939 -0.375164 -0.577349 0.751762 -0.318552 -0.707083 0.655446 0.265267 0.000000 0.926939 0.375164 0.000000 0.920743 -0.390149 -0.707083 0.655446 0.265267 0.000000 0.926939 0.375164 0.000000 -0.926939 -0.375164 0.000000 -0.926939 -0.375164 0.000000 -0.926939 -0.375164 0.000000 -0.926939 -0.375164 0.000000 0.390149 0.920743 0.000000 -0.920743 0.390149 0.000000 0.920743 -0.390149 0.000000 -0.390149 -0.920743 0.000000 -0.926939 -0.375164 0.000000 -0.920743 0.390149 0.000000 0.390149 0.920743 0.707083 -0.655446 -0.265267 0.577349 -0.751762 0.318552 0.577349 0.318552 0.751762 0.577349 -0.751762 0.318552 0.707083 -0.655446 -0.265267 0.577349 -0.318552 -0.751762 " />
								<TextureCoordinate point="0.1432 0.7239 0.2691 0.7239 0.2691 0.9651 0.1432 0.9651 0.1432 0.9048 0.2691 0.9048 0.2691 0.9651 0.1432 0.9651 0.1432 0.7239 0.2691 0.7239 0.2691 0.9651 0.1432 0.9651 0.1432 0.8445 0.2691 0.8445 0.2691 0.9651 0.1432 0.9651 0.2061 0.7239 0.2691 0.7239 0.2691 0.9651 0.2061 0.9651 0.1432 0.7239 0.2691 0.7239 0.1432 0.9651 0.0802 0.8445 0.0802 0.9651 0.0802 0.7239 0.0802 0.9651 0.0802 0.9048 0.0802 0.9651 0.0802 0.7239 0.0802 0.9651 0.0173 0.7239 0.0173 0.9651 0.0173 0.9048 0.0173 0.9651 0.0173 0.7239 0.0173 0.9651 0.0173 0.8445 0.0173 0.9651 0.0173 0.7842 0.0802 0.7842 0.0173 0.7239 0.0802 0.7239 0.0802 0.8445 0.0173 0.8445 0.1432 0.7239 0.1432 0.8445 0.9739 0.0117 0.9739 0.9883 0.3152 0.9883 0.3152 0.0117 0.0802 0.7239 0.0802 0.9651 0.1432 0.7239 0.1432 0.9651 0.1432 0.7842 0.2691 0.7842 0.2691 0.8445 0.1432 0.7239 0.2691 0.7239 0.0173 0.7239 0.0173 0.9651 0.0802 0.7239 0.0173 0.7239 " />
							</IndexedTriangleSet>
						</Shape>
					</Group>
				</Transform>
				<Transform DEF="eye_TRANSFORM"
				           translation="-0.181126 -1.552439 -0.668576"
				           scale="1.000000 1.000000 1.000000"
				           rotation="0.000000 1.000000 0.000000 0.000000"
				           >
					<Transform DEF="eye_ifs_TRANSFORM"
					           translation="0.000000 0.000000 0.000000"
					           scale="1.000000 1.000000 1.000000"
					           rotation="0.000000 1.000000 0.000000 0.000000"
					           >
						<Group DEF="group_ME_Cube_029">
							<Shape>
								<Appearance>
									<Material DEF="MA_Eye"
									          diffuseColor="0.800 0.800 0.800"
									          specularColor="0.401 0.401 0.401"
									          emissiveColor="0.000 0.000 0.000"
									          ambientIntensity="0.000"
									          shininess="0.500"
									          transparency="0.0"
									          />
								</Appearance>
								<IndexedTriangleSet solid="false"
								                    normalPerVertex="true"
								                    index="0 1 2 0 2 3 "
								                    >
									<Coordinate point="0.331360 0.128792 -0.317341 0.331360 -0.107659 0.266854 -0.274662 -0.107659 0.266854 -0.274662 0.128792 -0.317341 " />
									<Normal vector="0.000000 -0.926939 -0.375164 0.000000 -0.926939 -0.375164 0.000000 -0.926939 -0.375164 0.000000 -0.926939 -0.375164 " />
									<TextureCoordinate point="0.9375 0.5312 0.9375 0.9688 0.0625 0.9688 0.0625 0.5312 " />
								</IndexedTriangleSet>
							</Shape>
						</Group>
					</Transform>
				</Transform>
			</Transform>
			<Transform DEF="Cube_014_TRANSFORM"
			           translation="0.000000 -0.082075 -0.951926"
			           scale="1.000000 1.000000 1.000000"
			           rotation="0.000000 1.000000 0.000000 0.000000"
			           >
				<Transform DEF="Cube_014_ifs_TRANSFORM"
				           translation="0.000000 0.000000 0.000000"
				           scale="1.000000 1.000000 1.000000"
				           rotation="0.000000 1.000000 0.000000 0.000000"
				           >
					<Group DEF="group_ME_Cube_027">
						<Shape>
							<Appearance>
								<Material USE="MA_Body" />
							</Appearance>
							<IndexedTriangleSet solid="false"
							                    normalPerVertex="true"
							                    index="0 1 2 0 2 3 4 5 6 4 6 7 8 9 10 8 10 11 12 13 14 12 14 15 4 16 17 4 17 15 18 5 14 18 14 19 "
							                    >
								<Coordinate point="-0.408115 0.010712 -0.115316 -0.408115 -0.010712 0.115316 -0.408115 1.045486 0.213426 -0.408115 1.066910 -0.017206 -0.408115 1.066910 -0.017206 -0.408115 1.045486 0.213426 0.408115 1.045486 0.213426 0.408115 1.066910 -0.017206 0.408115 1.066910 -0.017206 0.408115 1.045486 0.213426 0.408115 -0.010712 0.115316 0.408115 0.010712 -0.115316 0.408115 0.010712 -0.115316 0.408115 -0.010712 0.115316 -0.408115 -0.010712 0.115316 -0.408115 0.010712 -0.115316 0.408115 1.066910 -0.017206 0.408115 0.010712 -0.115316 0.408115 1.045486 0.213426 0.408115 -0.010712 0.115316 " />
								<Normal vector="-0.577349 -0.521470 -0.628254 -0.577349 -0.628254 0.521470 -0.577349 0.521470 0.628254 -0.577349 0.628254 -0.521470 -0.577349 0.628254 -0.521470 -0.577349 0.521470 0.628254 0.577349 0.521470 0.628254 0.577349 0.628254 -0.521470 0.577349 0.628254 -0.521470 0.577349 0.521470 0.628254 0.577349 -0.628254 0.521470 0.577349 -0.521470 -0.628254 0.577349 -0.521470 -0.628254 0.577349 -0.628254 0.521470 -0.577349 -0.628254 0.521470 -0.577349 -0.521470 -0.628254 0.577349 0.628254 -0.521470 0.577349 -0.521470 -0.628254 0.577349 0.521470 0.628254 0.577349 -0.628254 0.521470 " />
								<TextureCoordinate point="0.0320 0.0522 0.0981 0.0522 0.0981 0.3244 0.0320 0.3244 0.0320 0.0522 0.0981 0.0522 0.0981 0.3244 0.0320 0.3244 0.0320 0.0522 0.0981 0.0522 0.0981 0.3244 0.0320 0.3244 0.0320 0.0522 0.0981 0.0522 0.0981 0.3244 0.0320 0.3244 0.0981 0.0522 0.0981 0.3244 0.0320 0.0522 0.0320 0.3244 " />
							</IndexedTriangleSet>
						</Shape>
					</Group>
				</Transform>
			</Transform>
			<Transform DEF="Cube_015_TRANSFORM"
			           translation="0.805571 -0.082075 0.468652"
			           scale="1.000000 1.000000 1.000000"
			           rotation="0.000000 1.000000 0.000000 0.000000"
			           >
				<Transform DEF="Cube_015_ifs_TRANSFORM"
				           translation="0.000000 0.000000 0.000000"
				           scale="1.000000 1.000000 1.000000"
				           rotation="0.000000 1.000000 0.000000 0.000000"
				           >
					<Group DEF="group_ME_Cube_028">
						<Shape>
							<Appearance>
								<Material USE="MA_Body" />
							</Appearance>
							<IndexedTriangleSet solid="false"
							                    normalPerVertex="true"
							                    index="0 1 2 0 2 3 4 5 6 4 6 7 8 9 10 8 10 11 12 13 14 12 14 15 4 16 17 4 17 15 18 5 14 18 14 19 "
							                    >
								<Coordinate point="0.292700 0.010712 -0.306891 0.088812 -0.010712 -0.414690 0.002079 1.045486 -0.460547 0.205967 1.066910 -0.352748 0.205967 1.066910 -0.352748 0.002079 1.045486 -0.460547 -0.379433 1.045486 0.261033 -0.175545 1.066910 0.368833 -0.175545 1.066910 0.368833 -0.379433 1.045486 0.261033 -0.292700 -0.010712 0.306891 -0.088812 0.010712 0.414690 -0.088812 0.010712 0.414690 -0.292700 -0.010712 0.306891 0.088812 -0.010712 -0.414690 0.292700 0.010712 -0.306891 -0.175545 1.066910 0.368833 -0.088812 0.010712 0.414690 -0.379433 1.045486 0.261033 -0.292700 -0.010712 0.306891 " />
								<Normal vector="0.825251 -0.521470 -0.216712 -0.191137 -0.628254 -0.754143 -0.285562 0.521470 -0.804041 0.730857 0.628254 -0.266640 0.730857 0.628254 -0.266640 -0.285562 0.521470 -0.804041 -0.825251 0.521470 0.216712 0.191137 0.628254 0.754143 0.191137 0.628254 0.754143 -0.825251 0.521470 0.216712 -0.730857 -0.628254 0.266640 0.285562 -0.521470 0.804041 0.285562 -0.521470 0.804041 -0.730857 -0.628254 0.266640 -0.191137 -0.628254 -0.754143 0.825251 -0.521470 -0.216712 0.191137 0.628254 0.754143 0.285562 -0.521470 0.804041 -0.825251 0.521470 0.216712 -0.730857 -0.628254 0.266640 " />
								<TextureCoordinate point="0.0320 0.0522 0.0981 0.0522 0.0981 0.3244 0.0320 0.3244 0.0320 0.0522 0.0981 0.0522 0.0981 0.3244 0.0320 0.3244 0.0320 0.0522 0.0981 0.0522 0.0981 0.3244 0.0320 0.3244 0.0320 0.0522 0.0981 0.0522 0.0981 0.3244 0.0320 0.3244 0.0981 0.0522 0.0981 0.3244 0.0320 0.0522 0.0320 0.3244 " />
							</IndexedTriangleSet>
						</Shape>
					</Group>
				</Transform>
			</Transform>
			<Transform DEF="Cube_016_TRANSFORM"
			           translation="-0.805571 -0.082075 0.468652"
			           scale="1.000000 1.000000 1.000000"
			           rotation="0.000000 1.000000 0.000000 0.000000"
			           >
				<Transform DEF="Cube_016_ifs_TRANSFORM"
				           translation="0.000000 0.000000 0.000000"
				           scale="1.000000 1.000000 1.000000"
				           rotation="0.000000 1.000000 0.000000 0.000000"
				           >
					<Group DEF="group_ME_Cube_030">
						<Shape>
							<Appearance>
								<Material USE="MA_Body" />
							</Appearance>
							<IndexedTriangleSet solid="false"
							                    normalPerVertex="true"
							                    index="0 1 2 0 2 3 4 5 6 4 6 7 8 9 10 8 10 11 12 13 14 12 14 15 4 13 16 4 16 17 18 19 14 18 14 7 "
							                    >
								<Coordinate point="-0.292700 0.010712 -0.306891 -0.205967 1.066910 -0.352748 -0.002079 1.045486 -0.460547 -0.088812 -0.010712 -0.414690 -0.205967 1.066910 -0.352748 0.175545 1.066910 0.368833 0.379433 1.045486 0.261034 -0.002079 1.045486 -0.460547 0.175545 1.066910 0.368833 0.088812 0.010712 0.414690 0.292700 -0.010712 0.306891 0.379433 1.045486 0.261034 0.088812 0.010712 0.414690 -0.292700 0.010712 -0.306891 -0.088812 -0.010712 -0.414690 0.292700 -0.010712 0.306891 0.088812 0.010712 0.414690 0.175545 1.066910 0.368833 0.379433 1.045486 0.261034 0.292700 -0.010712 0.306891 " />
								<Normal vector="-0.825251 -0.521470 -0.216712 -0.730857 0.628254 -0.266640 0.285562 0.521470 -0.804041 0.191137 -0.628254 -0.754143 -0.730857 0.628254 -0.266640 -0.191137 0.628254 0.754143 0.825251 0.521470 0.216712 0.285562 0.521470 -0.804041 -0.191137 0.628254 0.754143 -0.285562 -0.521470 0.804041 0.730857 -0.628254 0.266640 0.825251 0.521470 0.216712 -0.285562 -0.521470 0.804041 -0.825251 -0.521470 -0.216712 0.191137 -0.628254 -0.754143 0.730857 -0.628254 0.266640 -0.285562 -0.521470 0.804041 -0.191137 0.628254 0.754143 0.825251 0.521470 0.216712 0.730857 -0.628254 0.266640 " />
								<TextureCoordinate point="0.0320 0.0522 0.0320 0.3244 0.0981 0.3244 0.0981 0.0522 0.0320 0.0522 0.0320 0.3244 0.0981 0.3244 0.0981 0.0522 0.0320 0.0522 0.0320 0.3244 0.0981 0.3244 0.0981 0.0522 0.0320 0.0522 0.0320 0.3244 0.0981 0.3244 0.0981 0.0522 0.0981 0.3244 0.0981 0.0522 0.0320 0.0522 0.0320 0.3244 " />
							</IndexedTriangleSet>
						</Shape>
					</Group>
				</Transform>
			</Transform>
		</Transform>
	</Scene>
</X3D>