<?xml version="1.0" encoding="UTF-8"?>
<!DOCTYPE X3D PUBLIC "ISO//Web3D//DTD X3D 3.0//EN" "http://www.web3d.org/specifications/x3d-3.0.dtd">
<X3D version="3.0" profile="Immersive" xmlns:xsd="http://www.w3.org/2001/XMLSchema-instance" xsd:noNamespaceSchemaLocation="http://www.web3d.org/specifications/x3d-3.0.xsd">
	<head>
		<meta name="filename" content="butterfree.x3d" />
		<meta name="generator" content="Blender 2.93.18" />
	</head>
	<Scene>
		<NavigationInfo headlight="true"
		                visibilityLimit="0.0"
		                type='"EXAMINE", "ANY"'
		                avatarSize="0.25, 1.75, 0.75"
		                />
		<Background DEF="WO_World"
		            groundColor="0.051 0.051 0.051"
		            skyColor="0.051 0.051 0.051"
		            />
		<Transform DEF="body_TRANSFORM"
		           translation="0.000000 -0.005333 0.229430"
		           scale="1.000000 1.000000 1.000000"
		           rotation="0.000000 0.000000 1.000000 3.141593"
		           >
			<Transform DEF="body_ifs_TRANSFORM"
			           translation="0.000000 0.000000 0.000000"
			           scale="1.000000 1.000000 1.000000"
			           rotation="0.000000 1.000000 0.000000 0.000000"
			           >
				<Group DEF="group_ME_body">
					<Shape>
						<Appearance>
							<Material DEF="MA_Body"
							          diffuseColor="0.800 0.800 0.800"
							          specularColor="0.401 0.401 0.401"
							          emissiveColor="0.000 0.000 0.000"
							          ambientIntensity="0.000"
							          shininess="0.500"
							          transparency="0.0"
							          />
						</Appearance>
						<IndexedTriangleSet solid="false"
						                    normalPerVertex="true"
						                    index="0 1 2 0 2 3 4 5 6 4 6 7 8 9 10 8 10 11 12 13 14 12 14 15 4 16 17 4 17 15 18 5 14 18 14 19 "
						                    >
							<Coordinate point="-0.489387 -0.413291 -0.026259 -0.489387 -0.470731 0.877807 -0.489387 0.355851 0.930324 -0.489387 0.413291 0.026259 -0.489387 0.413291 0.026259 -0.489387 0.355851 0.930324 0.489387 0.355851 0.930324 0.489387 0.413291 0.026259 0.489387 0.413291 0.026259 0.489387 0.355851 0.930324 0.489387 -0.470731 0.877807 0.489387 -0.413291 -0.026259 0.489387 -0.413291 -0.026259 0.489387 -0.470731 0.877807 -0.489387 -0.470731 0.877807 -0.489387 -0.413291 -0.026259 0.489387 0.413291 0.026259 0.489387 -0.413291 -0.026259 0.489387 0.355851 0.930324 0.489387 -0.470731 0.877807 " />
							<Normal vector="-0.577349 -0.539567 -0.612781 -0.577349 -0.612781 0.539567 -0.577349 0.539567 0.612781 -0.577349 0.612781 -0.539567 -0.577349 0.612781 -0.539567 -0.577349 0.539567 0.612781 0.577349 0.539567 0.612781 0.577349 0.612781 -0.539567 0.577349 0.612781 -0.539567 0.577349 0.539567 0.612781 0.577349 -0.612781 0.539567 0.577349 -0.539567 -0.612781 0.577349 -0.539567 -0.612781 0.577349 -0.612781 0.539567 -0.577349 -0.612781 0.539567 -0.577349 -0.539567 -0.612781 0.577349 0.612781 -0.539567 0.577349 -0.539567 -0.612781 0.577349 0.539567 0.612781 0.577349 -0.612781 0.539567 " />
							<TextureCoordinate point="0.0312 0.1265 0.4374 0.1265 0.4374 0.2276 0.0312 0.2276 0.0312 0.1265 0.4374 0.1265 0.4374 0.2276 0.0312 0.2276 0.0312 0.1265 0.4374 0.1265 0.4374 0.2276 0.0312 0.2276 0.0312 0.1265 0.4374 0.1265 0.4374 0.2276 0.0312 0.2276 0.4374 0.1265 0.4374 0.2276 0.0312 0.1265 0.0312 0.2276 " />
						</IndexedTriangleSet>
					</Shape>
				</Group>
			</Transform>
			<Transform DEF="head_TRANSFORM"
			           translation="0.000000 -0.115606 0.892762"
			           scale="1.000000 1.000000 1.000000"
			           rotation="0.000000 1.000000 0.000000 0.000000"
			           >
				<Transform DEF="head_ifs_TRANSFORM"
				           translation="0.000000 0.000000 0.000000"
				           scale="1.000000 1.000000 1.000000"
				           rotation="0.000000 1.000000 0.000000 0.000000"
				           >
					<Group DEF="group_ME_head">
						<Shape>
							<Appearance>
								<Material USE="MA_Body" />
							</Appearance>
							<IndexedTriangleSet solid="false"
							                    normalPerVertex="true"
							                    index="0 1 2 0 2 3 4 5 6 4 6 7 8 9 10 8 10 11 12 13 14 12 14 15 4 16 17 4 17 15 18 5 14 18 14 19 "
							                    >
								<Coordinate point="-0.513837 -0.472067 0.000000 -0.513837 -0.472067 0.944133 -0.513837 0.472067 0.944133 -0.513837 0.472067 0.000000 -0.513837 0.472067 0.000000 -0.513837 0.472067 0.944133 0.513837 0.472067 0.944133 0.513837 0.472067 0.000000 0.513837 0.472067 0.000000 0.513837 0.472067 0.944133 0.513837 -0.472067 0.944133 0.513837 -0.472067 0.000000 0.513837 -0.472067 0.000000 0.513837 -0.472067 0.944133 -0.513837 -0.472067 0.944133 -0.513837 -0.472067 0.000000 0.513837 0.472067 0.000000 0.513837 -0.472067 0.000000 0.513837 0.472067 0.944133 0.513837 -0.472067 0.944133 " />
								<Normal vector="-0.577349 -0.577349 -0.577349 -0.577349 -0.577349 0.577349 -0.577349 0.577349 0.577349 -0.577349 0.577349 -0.577349 -0.577349 0.577349 -0.577349 -0.577349 0.577349 0.577349 0.577349 0.577349 0.577349 0.577349 0.577349 -0.577349 0.577349 0.577349 -0.577349 0.577349 0.577349 0.577349 0.577349 -0.577349 0.577349 0.577349 -0.577349 -0.577349 0.577349 -0.577349 -0.577349 0.577349 -0.577349 0.577349 -0.577349 -0.577349 0.577349 -0.577349 -0.577349 -0.577349 0.577349 0.577349 -0.577349 0.577349 -0.577349 -0.577349 0.577349 0.577349 0.577349 0.577349 -0.577349 0.577349 " />
								<TextureCoordinate point="0.0312 0.1265 0.4374 0.1265 0.4374 0.2276 0.0312 0.2276 0.0312 0.1265 0.4374 0.1265 0.4374 0.2276 0.0312 0.2276 0.0312 0.1265 0.4374 0.1265 0.4374 0.2276 0.0312 0.2276 0.0312 0.1265 0.4374 0.1265 0.4374 0.2276 0.0312 0.2276 0.4374 0.1265 0.4374 0.2276 0.0312 0.1265 0.0312 0.2276 " />
							</IndexedTriangleSet>
						</Shape>
					</Group>
				</Transform>
				<Transform DEF="ant1_TRANSFORM"
				           translation="0.122138 -0.158413 0.924901"
				           scale="1.000000 1.000000 1.000000"
				           rotation="0.000000 1.000000 0.000000 0.000000"
				           >
					<Transform DEF="ant1_ifs_TRANSFORM"
					           translation="0.000000 0.000000 0.000000"
					           scale="1.000000 1.000000 1.000000"
					           rotation="0.000000 1.000000 0.000000 0.000000"
					           >
						<Group DEF="group_ME_ant1">
							<Shape>
								<Appearance>
									<Material USE="MA_Body" />
								</Appearance>
								<IndexedTriangleSet solid="false"
								                    normalPerVertex="true"
								                    index="0 1 2 0 2 3 4 5 6 4 6 7 8 9 10 8 10 11 12 13 14 12 14 15 4 16 17 4 17 15 18 5 14 18 14 19 "
								                    >
									<Coordinate point="-0.028074 -0.029664 -0.000245 -0.032660 -0.028353 0.366538 -0.032657 0.030976 0.366326 -0.028071 0.029664 -0.000457 -0.028071 0.029664 -0.000457 -0.032657 0.030976 0.366326 0.023488 0.030976 0.367028 0.028074 0.029664 0.000245 0.028074 0.029664 0.000245 0.023488 0.030976 0.367028 0.023485 -0.028353 0.367240 0.028071 -0.029664 0.000457 0.028071 -0.029664 0.000457 0.023485 -0.028353 0.367240 -0.032660 -0.028353 0.366538 -0.028074 -0.029664 -0.000245 0.028074 0.029664 0.000245 0.028071 -0.029664 0.000457 0.023488 0.030976 0.367028 0.023485 -0.028353 0.367240 " />
									<Normal vector="-0.570086 -0.579394 -0.582446 -0.584521 -0.575274 0.572131 -0.584490 0.579394 0.568011 -0.570055 0.575274 -0.586566 -0.570055 0.575274 -0.586566 -0.584490 0.579394 0.568011 0.570086 0.579394 0.582446 0.584521 0.575274 -0.572131 0.584521 0.575274 -0.572131 0.570086 0.579394 0.582446 0.570055 -0.575274 0.586566 0.584490 -0.579394 -0.568011 0.584490 -0.579394 -0.568011 0.570055 -0.575274 0.586566 -0.584521 -0.575274 0.572131 -0.570086 -0.579394 -0.582446 0.584521 0.575274 -0.572131 0.584490 -0.579394 -0.568011 0.570086 0.579394 0.582446 0.570055 -0.575274 0.586566 " />
									<TextureCoordinate point="0.2675 0.0070 0.4815 0.0070 0.4815 0.1009 0.2675 0.1009 0.2675 0.0070 0.4815 0.0070 0.4815 0.1009 0.2675 0.1009 0.2675 0.0070 0.4815 0.0070 0.4815 0.1009 0.2675 0.1009 0.2675 0.0070 0.4815 0.0070 0.4815 0.1009 0.2675 0.1009 0.4815 0.0070 0.4815 0.1009 0.2675 0.0070 0.2675 0.1009 " />
								</IndexedTriangleSet>
							</Shape>
						</Group>
					</Transform>
					<Transform DEF="ant1_1_TRANSFORM"
					           translation="-0.004377 0.001252 0.350068"
					           scale="1.000000 1.000000 1.000000"
					           rotation="0.000000 1.000000 0.000000 0.000000"
					           >
						<Transform DEF="ant1_1_ifs_TRANSFORM"
						           translation="0.000000 0.000000 0.000000"
						           scale="1.000000 1.000000 1.000000"
						           rotation="0.000000 1.000000 0.000000 0.000000"
						           >
							<Group DEF="group_ME_ant1_1">
								<Shape>
									<Appearance>
										<Material USE="MA_Body" />
									</Appearance>
									<IndexedTriangleSet solid="false"
									                    normalPerVertex="true"
									                    index="0 1 2 0 2 3 4 5 6 4 6 7 8 9 10 8 10 11 12 13 14 12 14 15 4 16 17 4 17 15 18 5 14 18 14 19 "
									                    >
										<Coordinate point="-0.025054 -0.026474 -0.000219 -0.030381 -0.024951 0.425776 -0.030378 0.027998 0.425587 -0.025052 0.026474 -0.000408 -0.025052 0.026474 -0.000408 -0.030378 0.027998 0.425587 0.019728 0.027998 0.426213 0.025054 0.026474 0.000219 0.025054 0.026474 0.000219 0.019728 0.027998 0.426213 0.019726 -0.024951 0.426403 0.025052 -0.026474 0.000408 0.025052 -0.026474 0.000408 0.019726 -0.024951 0.426403 -0.030381 -0.024951 0.425776 -0.025054 -0.026474 -0.000219 0.025054 0.026474 0.000219 0.025052 -0.026474 0.000408 0.019728 0.027998 0.426213 0.019726 -0.024951 0.426403 " />
										<Normal vector="-0.570086 -0.579394 -0.582446 -0.584521 -0.575274 0.572131 -0.584490 0.579394 0.568011 -0.570055 0.575274 -0.586566 -0.570055 0.575274 -0.586566 -0.584490 0.579394 0.568011 0.570086 0.579394 0.582446 0.584521 0.575274 -0.572131 0.584521 0.575274 -0.572131 0.570086 0.579394 0.582446 0.570055 -0.575274 0.586566 0.584490 -0.579394 -0.568011 0.584490 -0.579394 -0.568011 0.570055 -0.575274 0.586566 -0.584521 -0.575274 0.572131 -0.570086 -0.579394 -0.582446 0.584521 0.575274 -0.572131 0.584490 -0.579394 -0.568011 0.570086 0.579394 0.582446 0.570055 -0.575274 0.586566 " />
										<TextureCoordinate point="0.2675 0.0070 0.4815 0.0070 0.4815 0.1009 0.2675 0.1009 0.2675 0.0070 0.4815 0.0070 0.4815 0.1009 0.2675 0.1009 0.2675 0.0070 0.4815 0.0070 0.4815 0.1009 0.2675 0.1009 0.2675 0.0070 0.4815 0.0070 0.4815 0.1009 0.2675 0.1009 0.4815 0.0070 0.4815 0.1009 0.2675 0.0070 0.2675 0.1009 " />
									</IndexedTriangleSet>
								</Shape>
							</Group>
						</Transform>
						<Transform DEF="ant1_2_TRANSFORM"
						           translation="-0.005156 0.001475 0.412348"
						           scale="1.000000 1.000000 1.000000"
						           rotation="0.000000 1.000000 0.000000 0.000000"
						           >
							<Transform DEF="ant1_2_ifs_TRANSFORM"
							           translation="0.000000 0.000000 0.000000"
							           scale="1.000000 1.000000 1.000000"
							           rotation="0.000000 1.000000 0.000000 0.000000"
							           >
								<Group DEF="group_ME_ant1_2">
									<Shape>
										<Appearance>
											<Material USE="MA_Body" />
										</Appearance>
										<IndexedTriangleSet solid="false"
										                    normalPerVertex="true"
										                    index="0 1 2 0 2 3 4 5 6 4 6 7 8 9 10 8 10 11 12 13 14 12 14 15 4 16 17 4 17 15 18 5 14 18 14 19 "
										                    >
											<Coordinate point="-0.023905 -0.025259 -0.000209 -0.029013 -0.023798 0.408347 -0.029011 0.026720 0.408167 -0.023902 0.025259 -0.000389 -0.023902 0.025259 -0.000389 -0.029011 0.026720 0.408167 0.018796 0.026720 0.408765 0.023905 0.025259 0.000209 0.023905 0.025259 0.000209 0.018796 0.026720 0.408765 0.018794 -0.023798 0.408945 0.023902 -0.025259 0.000389 0.023902 -0.025259 0.000389 0.018794 -0.023798 0.408945 -0.029013 -0.023798 0.408347 -0.023905 -0.025259 -0.000209 0.023905 0.025259 0.000209 0.023902 -0.025259 0.000389 0.018796 0.026720 0.408765 0.018794 -0.023798 0.408945 " />
											<Normal vector="-0.570086 -0.579394 -0.582446 -0.584521 -0.575274 0.572131 -0.584490 0.579394 0.568011 -0.570055 0.575274 -0.586566 -0.570055 0.575274 -0.586566 -0.584490 0.579394 0.568011 0.570086 0.579394 0.582446 0.584521 0.575274 -0.572131 0.584521 0.575274 -0.572131 0.570086 0.579394 0.582446 0.570055 -0.575274 0.586566 0.584490 -0.579394 -0.568011 0.584490 -0.579394 -0.568011 0.570055 -0.575274 0.586566 -0.584521 -0.575274 0.572131 -0.570086 -0.579394 -0.582446 0.584521 0.575274 -0.572131 0.584490 -0.579394 -0.568011 0.570086 0.579394 0.582446 0.570055 -0.575274 0.586566 " />
											<TextureCoordinate point="0.2675 0.0070 0.4815 0.0070 0.4815 0.1009 0.2675 0.1009 0.2675 0.0070 0.4815 0.0070 0.4815 0.1009 0.2675 0.1009 0.2675 0.0070 0.4815 0.0070 0.4815 0.1009 0.2675 0.1009 0.2675 0.0070 0.4815 0.0070 0.4815 0.1009 0.2675 0.1009 0.4815 0.0070 0.4815 0.1009 0.2675 0.0070 0.2675 0.1009 " />
										</IndexedTriangleSet>
									</Shape>
								</Group>
							</Transform>
							<Transform DEF="ant1_3_TRANSFORM"
							           translation="-0.005001 0.000532 0.399984"
							           scale="1.000000 1.000000 1.000000"
							           rotation="0.000000 1.000000 0.000000 0.000000"
							           >
								<Transform DEF="ant1_3_ifs_TRANSFORM"
								           translation="0.000000 0.000000 0.000000"
								           scale="1.000000 1.000000 1.000000"
								           rotation="0.000000 1.000000 0.000000 0.000000"
								           >
									<Group DEF="group_ME_ant1_3">
										<Shape>
											<Appearance>
												<Material USE="MA_Body" />
											</Appearance>
											<IndexedTriangleSet solid="false"
											                    normalPerVertex="true"
											                    index="0 1 2 0 2 3 4 5 6 4 6 7 8 9 10 8 10 11 12 13 14 12 14 15 4 16 17 4 17 15 18 5 14 18 14 19 "
											                    >
												<Coordinate point="-0.051598 -0.050506 -0.000645 -0.054882 -0.050506 0.261939 -0.054882 0.050506 0.261939 -0.051598 0.050506 -0.000645 -0.051598 0.050506 -0.000645 -0.054882 0.050506 0.261939 0.048315 0.050506 0.263229 0.051598 0.050506 0.000645 0.051598 0.050506 0.000645 0.048315 0.050506 0.263229 0.048315 -0.050506 0.263229 0.051598 -0.050506 0.000645 0.051598 -0.050506 0.000645 0.048315 -0.050506 0.263229 -0.054882 -0.050506 0.261939 -0.051598 -0.050506 -0.000645 0.051598 0.050506 0.000645 0.051598 -0.050506 0.000645 0.048315 0.050506 0.263229 0.048315 -0.050506 0.263229 " />
												<Normal vector="-0.570086 -0.577349 -0.584521 -0.584521 -0.577349 0.570086 -0.584521 0.577349 0.570086 -0.570086 0.577349 -0.584521 -0.570086 0.577349 -0.584521 -0.584521 0.577349 0.570086 0.570086 0.577349 0.584521 0.584521 0.577349 -0.570086 0.584521 0.577349 -0.570086 0.570086 0.577349 0.584521 0.570086 -0.577349 0.584521 0.584521 -0.577349 -0.570086 0.584521 -0.577349 -0.570086 0.570086 -0.577349 0.584521 -0.584521 -0.577349 0.570086 -0.570086 -0.577349 -0.584521 0.584521 0.577349 -0.570086 0.584521 -0.577349 -0.570086 0.570086 0.577349 0.584521 0.570086 -0.577349 0.584521 " />
												<TextureCoordinate point="0.2675 0.0070 0.4815 0.0070 0.4815 0.1009 0.2675 0.1009 0.2675 0.0070 0.4815 0.0070 0.4815 0.1009 0.2675 0.1009 0.2675 0.0070 0.4815 0.0070 0.4815 0.1009 0.2675 0.1009 0.2675 0.0070 0.4815 0.0070 0.4815 0.1009 0.2675 0.1009 0.4815 0.0070 0.4815 0.1009 0.2675 0.0070 0.2675 0.1009 " />
											</IndexedTriangleSet>
										</Shape>
									</Group>
								</Transform>
							</Transform>
						</Transform>
					</Transform>
				</Transform>
				<Transform DEF="Cube_011_TRANSFORM"
				           translation="0.304278 -0.239507 0.539654"
				           scale="1.000000 1.000000 1.000000"
				           rotation="0.000000 1.000000 0.000000 0.000000"
				           >
					<Transform DEF="Cube_011_ifs_TRANSFORM"
					           translation="0.000000 0.000000 0.000000"
					           scale="1.000000 1.000000 1.000000"
					           rotation="0.000000 1.000000 0.000000 0.000000"
					           >
						<Group DEF="group_ME_Cube_017">
							<Shape>
								<Appearance>
									<Material DEF="MA_Glow"
									          diffuseColor="0.800 0.800 0.800"
									          specularColor="0.401 0.401 0.401"
									          emissiveColor="0.000 0.000 0.000"
									          ambientIntensity="0.000"
									          shininess="0.500"
									          transparency="0.0"
									          />
								</Appearance>
								<IndexedTriangleSet solid="false"
								                    normalPerVertex="true"
								                    index="0 1 2 0 2 3 4 5 6 4 6 7 8 9 10 8 10 11 12 13 14 12 14 15 16 17 18 16 18 19 20 21 22 20 22 23 "
								                    >
									<Coordinate point="-0.145546 -0.349906 -0.249232 -0.145546 -0.349906 0.249232 -0.207583 -0.041796 0.249232 -0.207583 -0.041796 -0.249232 -0.207583 -0.041796 -0.249232 -0.207583 -0.041796 0.249232 0.207583 0.041796 0.249232 0.207583 0.041796 -0.249232 0.207583 0.041796 -0.249232 0.207583 0.041796 0.249232 0.269621 -0.266313 0.249232 0.269621 -0.266313 -0.249232 0.269621 -0.266313 -0.249232 0.269621 -0.266313 0.249232 -0.145546 -0.349906 0.249232 -0.145546 -0.349906 -0.249232 -0.207583 -0.041796 -0.249232 0.207583 0.041796 -0.249232 0.269621 -0.266313 -0.249232 -0.145546 -0.349906 -0.249232 0.207583 0.041796 0.249232 -0.207583 -0.041796 0.249232 -0.145546 -0.349906 0.249232 0.269621 -0.266313 0.249232 " />
									<Normal vector="-0.452010 -0.679952 -0.577349 -0.452010 -0.679952 0.577349 -0.679952 0.452010 0.577349 -0.679952 0.452010 -0.577349 -0.679952 0.452010 -0.577349 -0.679952 0.452010 0.577349 0.452010 0.679952 0.577349 0.452010 0.679952 -0.577349 0.452010 0.679952 -0.577349 0.452010 0.679952 0.577349 0.679952 -0.452010 0.577349 0.679952 -0.452010 -0.577349 0.679952 -0.452010 -0.577349 0.679952 -0.452010 0.577349 -0.452010 -0.679952 0.577349 -0.452010 -0.679952 -0.577349 -0.679952 0.452010 -0.577349 0.452010 0.679952 -0.577349 0.679952 -0.452010 -0.577349 -0.452010 -0.679952 -0.577349 0.452010 0.679952 0.577349 -0.679952 0.452010 0.577349 -0.452010 -0.679952 0.577349 0.679952 -0.452010 0.577349 " />
									<TextureCoordinate point="0.5701 0.0818 0.9290 0.0818 0.9290 0.1676 0.5701 0.1676 0.5701 0.0360 0.9290 0.0360 0.9290 0.2135 0.5701 0.2135 0.5701 0.0818 0.9290 0.0818 0.9290 0.1676 0.5701 0.1676 0.5701 0.0360 0.9290 0.0360 0.9290 0.2135 0.5701 0.2135 0.5701 0.0818 0.9290 0.0818 0.9290 0.1676 0.5701 0.1676 0.5701 0.0818 0.9290 0.0818 0.9290 0.1676 0.5701 0.1676 " />
								</IndexedTriangleSet>
							</Shape>
						</Group>
					</Transform>
				</Transform>
				<Transform DEF="Cube_012_TRANSFORM"
				           translation="0.000000 -0.447579 0.209902"
				           scale="1.000000 1.000000 1.000000"
				           rotation="0.000000 1.000000 0.000000 0.000000"
				           >
					<Transform DEF="Cube_012_ifs_TRANSFORM"
					           translation="0.000000 0.000000 0.000000"
					           scale="1.000000 1.000000 1.000000"
					           rotation="0.000000 1.000000 0.000000 0.000000"
					           >
						<Group DEF="group_ME_Cube_018">
							<Shape>
								<Appearance>
									<Material USE="MA_Body" />
								</Appearance>
								<IndexedTriangleSet solid="false"
								                    normalPerVertex="true"
								                    index="0 1 2 0 2 3 4 5 6 4 6 7 8 9 10 8 10 11 12 13 14 12 14 15 4 16 17 4 17 15 18 5 14 18 14 19 "
								                    >
									<Coordinate point="-0.168958 -0.122880 -0.096867 -0.168958 -0.122880 0.096867 -0.168958 0.000000 0.096867 -0.168958 0.000000 -0.096867 -0.168958 0.000000 -0.096867 -0.168958 0.000000 0.096867 0.168958 0.000000 0.096867 0.168958 0.000000 -0.096867 0.168958 0.000000 -0.096867 0.168958 0.000000 0.096867 0.168958 -0.122880 0.096867 0.168958 -0.122880 -0.096867 0.168958 -0.122880 -0.096867 0.168958 -0.122880 0.096867 -0.168958 -0.122880 0.096867 -0.168958 -0.122880 -0.096867 0.168958 0.000000 -0.096867 0.168958 -0.122880 -0.096867 0.168958 0.000000 0.096867 0.168958 -0.122880 0.096867 " />
									<Normal vector="-0.577349 -0.577349 -0.577349 -0.577349 -0.577349 0.577349 -0.577349 0.577349 0.577349 -0.577349 0.577349 -0.577349 -0.577349 0.577349 -0.577349 -0.577349 0.577349 0.577349 0.577349 0.577349 0.577349 0.577349 0.577349 -0.577349 0.577349 0.577349 -0.577349 0.577349 0.577349 0.577349 0.577349 -0.577349 0.577349 0.577349 -0.577349 -0.577349 0.577349 -0.577349 -0.577349 0.577349 -0.577349 0.577349 -0.577349 -0.577349 0.577349 -0.577349 -0.577349 -0.577349 0.577349 0.577349 -0.577349 0.577349 -0.577349 -0.577349 0.577349 0.577349 0.577349 0.577349 -0.577349 0.577349 " />
									<TextureCoordinate point="0.0316 0.0096 0.2184 0.0096 0.2184 0.0997 0.0316 0.0997 0.0316 0.0096 0.2184 0.0096 0.2184 0.0997 0.0316 0.0997 0.0316 0.0096 0.2184 0.0096 0.2184 0.0997 0.0316 0.0997 0.0316 0.0096 0.2184 0.0096 0.2184 0.0997 0.0316 0.0997 0.2184 0.0096 0.2184 0.0997 0.0316 0.0096 0.0316 0.0997 " />
								</IndexedTriangleSet>
							</Shape>
						</Group>
					</Transform>
					<Transform DEF="Cube_013_TRANSFORM"
					           translation="0.100573 -0.039366 -0.071556"
					           scale="1.000000 1.000000 1.000000"
					           rotation="0.000000 1.000000 0.000000 0.000000"
					           >
						<Transform DEF="Cube_013_ifs_TRANSFORM"
						           translation="0.000000 0.000000 0.000000"
						           scale="1.000000 1.000000 1.000000"
						           rotation="0.000000 1.000000 0.000000 0.000000"
						           >
							<Group DEF="group_ME_Cube_019">
								<Shape>
									<Appearance>
										<Material USE="MA_Body" />
									</Appearance>
									<IndexedTriangleSet solid="false"
									                    normalPerVertex="true"
									                    index="0 1 2 0 2 3 4 5 6 4 6 7 8 9 10 8 10 11 12 13 14 12 14 15 4 16 17 4 17 15 18 5 14 18 14 19 "
									                    >
										<Coordinate point="-0.025968 0.012081 -0.077371 -0.025968 -0.017102 -0.007103 -0.025968 0.017102 0.007103 -0.025968 0.046286 -0.063165 -0.025968 0.046286 -0.063165 -0.025968 0.017102 0.007103 0.025968 0.017102 0.007103 0.025968 0.046286 -0.063165 0.025968 0.046286 -0.063165 0.025968 0.017102 0.007103 0.025968 -0.017102 -0.007103 0.025968 0.012081 -0.077371 0.025968 0.012081 -0.077371 0.025968 -0.017102 -0.007103 -0.025968 -0.017102 -0.007103 -0.025968 0.012081 -0.077371 0.025968 0.046286 -0.063165 0.025968 0.012081 -0.077371 0.025968 0.017102 0.007103 0.025968 -0.017102 -0.007103 " />
										<Normal vector="-0.577349 -0.311747 -0.754631 -0.577349 -0.754631 0.311747 -0.577349 0.311747 0.754631 -0.577349 0.754631 -0.311747 -0.577349 0.754631 -0.311747 -0.577349 0.311747 0.754631 0.577349 0.311747 0.754631 0.577349 0.754631 -0.311747 0.577349 0.754631 -0.311747 0.577349 0.311747 0.754631 0.577349 -0.754631 0.311747 0.577349 -0.311747 -0.754631 0.577349 -0.311747 -0.754631 0.577349 -0.754631 0.311747 -0.577349 -0.754631 0.311747 -0.577349 -0.311747 -0.754631 0.577349 0.754631 -0.311747 0.577349 -0.311747 -0.754631 0.577349 0.311747 0.754631 0.577349 -0.754631 0.311747 " />
										<TextureCoordinate point="0.0566 0.2585 0.9188 0.2585 0.9188 0.3207 0.0566 0.3207 0.0566 0.2585 0.9188 0.2585 0.9188 0.3207 0.0566 0.3207 0.0566 0.2585 0.9188 0.2585 0.9188 0.3207 0.0566 0.3207 0.0566 0.2585 0.9188 0.2585 0.9188 0.3207 0.0566 0.3207 0.9188 0.2585 0.9188 0.3207 0.0566 0.2585 0.0566 0.3207 " />
									</IndexedTriangleSet>
								</Shape>
							</Group>
						</Transform>
					</Transform>
					<Transform DEF="Cube_008_TRANSFORM"
					           translation="-0.100573 -0.039366 -0.071556"
					           scale="1.000000 1.000000 1.000000"
					           rotation="0.000000 1.000000 0.000000 0.000000"
					           >
						<Transform DEF="Cube_008_ifs_TRANSFORM"
						           translation="0.000000 0.000000 0.000000"
						           scale="1.000000 1.000000 1.000000"
						           rotation="0.000000 1.000000 0.000000 0.000000"
						           >
							<Group DEF="group_ME_Cube_005">
								<Shape>
									<Appearance>
										<Material USE="MA_Body" />
									</Appearance>
									<IndexedTriangleSet solid="false"
									                    normalPerVertex="true"
									                    index="0 1 2 0 2 3 4 5 6 4 6 7 8 9 10 8 10 11 12 13 14 12 14 15 4 13 16 4 16 17 18 19 14 18 14 7 "
									                    >
										<Coordinate point="0.025968 0.012081 -0.077371 0.025968 0.046286 -0.063165 0.025968 0.017102 0.007103 0.025968 -0.017102 -0.007103 0.025968 0.046286 -0.063165 -0.025968 0.046286 -0.063165 -0.025968 0.017102 0.007103 0.025968 0.017102 0.007103 -0.025968 0.046286 -0.063165 -0.025968 0.012081 -0.077371 -0.025968 -0.017102 -0.007103 -0.025968 0.017102 0.007103 -0.025968 0.012081 -0.077371 0.025968 0.012081 -0.077371 0.025968 -0.017102 -0.007103 -0.025968 -0.017102 -0.007103 -0.025968 0.012081 -0.077371 -0.025968 0.046286 -0.063165 -0.025968 0.017102 0.007103 -0.025968 -0.017102 -0.007103 " />
										<Normal vector="0.577349 -0.311747 -0.754631 0.577349 0.754631 -0.311747 0.577349 0.311747 0.754631 0.577349 -0.754631 0.311747 0.577349 0.754631 -0.311747 -0.577349 0.754631 -0.311747 -0.577349 0.311747 0.754631 0.577349 0.311747 0.754631 -0.577349 0.754631 -0.311747 -0.577349 -0.311747 -0.754631 -0.577349 -0.754631 0.311747 -0.577349 0.311747 0.754631 -0.577349 -0.311747 -0.754631 0.577349 -0.311747 -0.754631 0.577349 -0.754631 0.311747 -0.577349 -0.754631 0.311747 -0.577349 -0.311747 -0.754631 -0.577349 0.754631 -0.311747 -0.577349 0.311747 0.754631 -0.577349 -0.754631 0.311747 " />
										<TextureCoordinate point="0.0566 0.2585 0.0566 0.3207 0.9188 0.3207 0.9188 0.2585 0.0566 0.2585 0.0566 0.3207 0.9188 0.3207 0.9188 0.2585 0.0566 0.2585 0.0566 0.3207 0.9188 0.3207 0.9188 0.2585 0.0566 0.2585 0.0566 0.3207 0.9188 0.3207 0.9188 0.2585 0.9188 0.3207 0.9188 0.2585 0.0566 0.2585 0.0566 0.3207 " />
									</IndexedTriangleSet>
								</Shape>
							</Group>
						</Transform>
					</Transform>
				</Transform>
				<Transform DEF="ant2_TRANSFORM"
				           translation="-0.122138 -0.158413 0.924901"
				           scale="1.000000 1.000000 1.000000"
				           rotation="0.000000 1.000000 0.000000 0.000000"
				           >
					<Transform DEF="ant2_ifs_TRANSFORM"
					           translation="0.000000 0.000000 0.000000"
					           scale="1.000000 1.000000 1.000000"
					           rotation="0.000000 1.000000 0.000000 0.000000"
					           >
						<Group DEF="group_ME_ant2">
							<Shape>
								<Appearance>
									<Material USE="MA_Body" />
								</Appearance>
								<IndexedTriangleSet solid="false"
								                    normalPerVertex="true"
								                    index="0 1 2 0 2 3 4 5 6 4 6 7 8 9 10 8 10 11 12 13 14 12 14 15 4 13 16 4 16 17 18 19 14 18 14 7 "
								                    >
									<Coordinate point="0.028074 -0.029664 -0.000245 0.028071 0.029664 -0.000457 0.032657 0.030976 0.366326 0.032660 -0.028353 0.366538 0.028071 0.029664 -0.000457 -0.028074 0.029664 0.000245 -0.023488 0.030976 0.367028 0.032657 0.030976 0.366326 -0.028074 0.029664 0.000245 -0.028071 -0.029664 0.000457 -0.023485 -0.028353 0.367240 -0.023488 0.030976 0.367028 -0.028071 -0.029664 0.000457 0.028074 -0.029664 -0.000245 0.032660 -0.028353 0.366538 -0.023485 -0.028353 0.367240 -0.028071 -0.029664 0.000457 -0.028074 0.029664 0.000245 -0.023488 0.030976 0.367028 -0.023485 -0.028353 0.367240 " />
									<Normal vector="0.570086 -0.579394 -0.582446 0.570055 0.575274 -0.586566 0.584490 0.579394 0.568011 0.584521 -0.575274 0.572131 0.570055 0.575274 -0.586566 -0.584521 0.575274 -0.572131 -0.570086 0.579394 0.582446 0.584490 0.579394 0.568011 -0.584521 0.575274 -0.572131 -0.584490 -0.579394 -0.568011 -0.570055 -0.575274 0.586566 -0.570086 0.579394 0.582446 -0.584490 -0.579394 -0.568011 0.570086 -0.579394 -0.582446 0.584521 -0.575274 0.572131 -0.570055 -0.575274 0.586566 -0.584490 -0.579394 -0.568011 -0.584521 0.575274 -0.572131 -0.570086 0.579394 0.582446 -0.570055 -0.575274 0.586566 " />
									<TextureCoordinate point="0.2675 0.0070 0.2675 0.1009 0.4815 0.1009 0.4815 0.0070 0.2675 0.0070 0.2675 0.1009 0.4815 0.1009 0.4815 0.0070 0.2675 0.0070 0.2675 0.1009 0.4815 0.1009 0.4815 0.0070 0.2675 0.0070 0.2675 0.1009 0.4815 0.1009 0.4815 0.0070 0.4815 0.1009 0.4815 0.0070 0.2675 0.0070 0.2675 0.1009 " />
								</IndexedTriangleSet>
							</Shape>
						</Group>
					</Transform>
					<Transform DEF="ant2_1_TRANSFORM"
					           translation="0.004377 0.001252 0.350068"
					           scale="1.000000 1.000000 1.000000"
					           rotation="0.000000 1.000000 0.000000 0.000000"
					           >
						<Transform DEF="ant2_1_ifs_TRANSFORM"
						           translation="0.000000 0.000000 0.000000"
						           scale="1.000000 1.000000 1.000000"
						           rotation="0.000000 1.000000 0.000000 0.000000"
						           >
							<Group DEF="group_ME_ant2_1">
								<Shape>
									<Appearance>
										<Material USE="MA_Body" />
									</Appearance>
									<IndexedTriangleSet solid="false"
									                    normalPerVertex="true"
									                    index="0 1 2 0 2 3 4 5 6 4 6 7 8 9 10 8 10 11 12 13 14 12 14 15 4 13 16 4 16 17 18 19 14 18 14 7 "
									                    >
										<Coordinate point="0.025054 -0.026474 -0.000219 0.025052 0.026474 -0.000408 0.030378 0.027998 0.425587 0.030381 -0.024951 0.425776 0.025052 0.026474 -0.000408 -0.025054 0.026474 0.000219 -0.019728 0.027998 0.426213 0.030378 0.027998 0.425587 -0.025054 0.026474 0.000219 -0.025052 -0.026474 0.000408 -0.019726 -0.024951 0.426403 -0.019728 0.027998 0.426213 -0.025052 -0.026474 0.000408 0.025054 -0.026474 -0.000219 0.030381 -0.024951 0.425776 -0.019726 -0.024951 0.426403 -0.025052 -0.026474 0.000408 -0.025054 0.026474 0.000219 -0.019728 0.027998 0.426213 -0.019726 -0.024951 0.426403 " />
										<Normal vector="0.570086 -0.579394 -0.582446 0.570055 0.575274 -0.586566 0.584490 0.579394 0.568011 0.584521 -0.575274 0.572131 0.570055 0.575274 -0.586566 -0.584521 0.575274 -0.572131 -0.570086 0.579394 0.582446 0.584490 0.579394 0.568011 -0.584521 0.575274 -0.572131 -0.584490 -0.579394 -0.568011 -0.570055 -0.575274 0.586566 -0.570086 0.579394 0.582446 -0.584490 -0.579394 -0.568011 0.570086 -0.579394 -0.582446 0.584521 -0.575274 0.572131 -0.570055 -0.575274 0.586566 -0.584490 -0.579394 -0.568011 -0.584521 0.575274 -0.572131 -0.570086 0.579394 0.582446 -0.570055 -0.575274 0.586566 " />
										<TextureCoordinate point="0.2675 0.0070 0.2675 0.1009 0.4815 0.1009 0.4815 0.0070 0.2675 0.0070 0.2675 0.1009 0.4815 0.1009 0.4815 0.0070 0.2675 0.0070 0.2675 0.1009 0.4815 0.1009 0.4815 0.0070 0.2675 0.0070 0.2675 0.1009 0.4815 0.1009 0.4815 0.0070 0.4815 0.1009 0.4815 0.0070 0.2675 0.0070 0.2675 0.1009 " />
									</IndexedTriangleSet>
								</Shape>
							</Group>
						</Transform>
						<Transform DEF="ant2_2_TRANSFORM"
						           translation="0.005156 0.001475 0.412348"
						           scale="1.000000 1.000000 1.000000"
						           rotation="0.000000 1.000000 0.000000 0.000000"
						           >
							<Transform DEF="ant2_2_ifs_TRANSFORM"
							           translation="0.000000 0.000000 0.000000"
							           scale="1.000000 1.000000 1.000000"
							           rotation="0.000000 1.000000 0.000000 0.000000"
							           >
								<Group DEF="group_ME_ant2_2">
									<Shape>
										<Appearance>
											<Material USE="MA_Body" />
										</Appearance>
										<IndexedTriangleSet solid="false"
										                    normalPerVertex="true"
										                    index="0 1 2 0 2 3 4 5 6 4 6 7 8 9 10 8 10 11 12 13 14 12 14 15 4 13 16 4 16 17 18 19 14 18 14 7 "
										                    >
											<Coordinate point="0.023905 -0.025259 -0.000209 0.023902 0.025259 -0.000389 0.029011 0.026720 0.408167 0.029013 -0.023798 0.408347 0.023902 0.025259 -0.000389 -0.023905 0.025259 0.000209 -0.018796 0.026720 0.408765 0.029011 0.026720 0.408167 -0.023905 0.025259 0.000209 -0.023902 -0.025259 0.000389 -0.018794 -0.023798 0.408945 -0.018796 0.026720 0.408765 -0.023902 -0.025259 0.000389 0.023905 -0.025259 -0.000209 0.029013 -0.023798 0.408347 -0.018794 -0.023798 0.408945 -0.023902 -0.025259 0.000389 -0.023905 0.025259 0.000209 -0.018796 0.026720 0.408765 -0.018794 -0.023798 0.408945 " />
											<Normal vector="0.570086 -0.579394 -0.582446 0.570055 0.575274 -0.586566 0.584490 0.579394 0.568011 0.584521 -0.575274 0.572131 0.570055 0.575274 -0.586566 -0.584521 0.575274 -0.572131 -0.570086 0.579394 0.582446 0.584490 0.579394 0.568011 -0.584521 0.575274 -0.572131 -0.584490 -0.579394 -0.568011 -0.570055 -0.575274 0.586566 -0.570086 0.579394 0.582446 -0.584490 -0.579394 -0.568011 0.570086 -0.579394 -0.582446 0.584521 -0.575274 0.572131 -0.570055 -0.575274 0.586566 -0.584490 -0.579394 -0.568011 -0.584521 0.575274 -0.572131 -0.570086 0.579394 0.582446 -0.570055 -0.575274 0.586566 " />
											<TextureCoordinate point="0.2675 0.0070 0.2675 0.1009 0.4815 0.1009 0.4815 0.0070 0.2675 0.0070 0.2675 0.1009 0.4815 0.1009 0.4815 0.0070 0.2675 0.0070 0.2675 0.1009 0.4815 0.1009 0.4815 0.0070 0.2675 0.0070 0.2675 0.1009 0.4815 0.1009 0.4815 0.0070 0.4815 0.1009 0.4815 0.0070 0.2675 0.0070 0.2675 0.1009 " />
										</IndexedTriangleSet>
									</Shape>
								</Group>
							</Transform>
							<Transform DEF="ant2_3_TRANSFORM"
							           translation="0.005001 0.000532 0.399984"
							           scale="1.000000 1.000000 1.000000"
							           rotation="0.000000 1.000000 0.000000 0.000000"
							           >
								<Transform DEF="ant2_3_ifs_TRANSFORM"
								           translation="0.000000 0.000000 0.000000"
								           scale="1.000000 1.000000 1.000000"
								           rotation="0.000000 1.000000 0.000000 0.000000"
								           >
									<Group DEF="group_ME_ant2_3">
										<Shape>
											<Appearance>
												<Material USE="MA_Body" />
											</Appearance>
											<IndexedTriangleSet solid="false"
											                    normalPerVertex="true"
											                    index="0 1 2 0 2 3 4 5 6 4 6 7 8 9 10 8 10 11 12 13 14 12 14 15 4 13 16 4 16 17 18 19 14 18 14 7 "
											                    >
												<Coordinate point="0.051598 -0.050506 -0.000645 0.051598 0.050506 -0.000645 0.054882 0.050506 0.261939 0.054882 -0.050506 0.261939 0.051598 0.050506 -0.000645 -0.051598 0.050506 0.000645 -0.048315 0.050506 0.263229 0.054882 0.050506 0.261939 -0.051598 0.050506 0.000645 -0.051598 -0.050506 0.000645 -0.048315 -0.050506 0.263229 -0.048315 0.050506 0.263229 -0.051598 -0.050506 0.000645 0.051598 -0.050506 -0.000645 0.054882 -0.050506 0.261939 -0.048315 -0.050506 0.263229 -0.051598 -0.050506 0.000645 -0.051598 0.050506 0.000645 -0.048315 0.050506 0.263229 -0.048315 -0.050506 0.263229 " />
												<Normal vector="0.570086 -0.577349 -0.584521 0.570086 0.577349 -0.584521 0.584521 0.577349 0.570086 0.584521 -0.577349 0.570086 0.570086 0.577349 -0.584521 -0.584521 0.577349 -0.570086 -0.570086 0.577349 0.584521 0.584521 0.577349 0.570086 -0.584521 0.577349 -0.570086 -0.584521 -0.577349 -0.570086 -0.570086 -0.577349 0.584521 -0.570086 0.577349 0.584521 -0.584521 -0.577349 -0.570086 0.570086 -0.577349 -0.584521 0.584521 -0.577349 0.570086 -0.570086 -0.577349 0.584521 -0.584521 -0.577349 -0.570086 -0.584521 0.577349 -0.570086 -0.570086 0.577349 0.584521 -0.570086 -0.577349 0.584521 " />
												<TextureCoordinate point="0.2675 0.0070 0.2675 0.1009 0.4815 0.1009 0.4815 0.0070 0.2675 0.0070 0.2675 0.1009 0.4815 0.1009 0.4815 0.0070 0.2675 0.0070 0.2675 0.1009 0.4815 0.1009 0.4815 0.0070 0.2675 0.0070 0.2675 0.1009 0.4815 0.1009 0.4815 0.0070 0.4815 0.1009 0.4815 0.0070 0.2675 0.0070 0.2675 0.1009 " />
											</IndexedTriangleSet>
										</Shape>
									</Group>
								</Transform>
							</Transform>
						</Transform>
					</Transform>
				</Transform>
				<Transform DEF="Cube_007_TRANSFORM"
				           translation="-0.304278 -0.239507 0.539654"
				           scale="1.000000 1.000000 1.000000"
				           rotation="0.000000 1.000000 0.000000 0.000000"
				           >
					<Transform DEF="Cube_007_ifs_TRANSFORM"
					           translation="0.000000 0.000000 0.000000"
					           scale="1.000000 1.000000 1.000000"
					           rotation="0.000000 1.000000 0.000000 0.000000"
					           >
						<Group DEF="group_ME_Cube_004">
							<Shape>
								<Appearance>
									<Material USE="MA_Glow" />
								</Appearance>
								<IndexedTriangleSet solid="false"
								                    normalPerVertex="true"
								                    index="0 1 2 0 2 3 4 5 6 4 6 7 8 9 10 8 10 11 12 13 14 12 14 15 16 17 18 16 18 19 20 21 22 20 22 23 "
								                    >
									<Coordinate point="0.145546 -0.349906 -0.249232 0.207583 -0.041796 -0.249232 0.207583 -0.041796 0.249232 0.145546 -0.349906 0.249232 0.207583 -0.041796 -0.249232 -0.207583 0.041796 -0.249232 -0.207583 0.041796 0.249232 0.207583 -0.041796 0.249232 -0.207583 0.041796 -0.249232 -0.269621 -0.266313 -0.249232 -0.269621 -0.266314 0.249232 -0.207583 0.041796 0.249232 -0.269621 -0.266313 -0.249232 0.145546 -0.349906 -0.249232 0.145546 -0.349906 0.249232 -0.269621 -0.266314 0.249232 0.207583 -0.041796 -0.249232 0.145546 -0.349906 -0.249232 -0.269621 -0.266313 -0.249232 -0.207583 0.041796 -0.249232 -0.207583 0.041796 0.249232 -0.269621 -0.266314 0.249232 0.145546 -0.349906 0.249232 0.207583 -0.041796 0.249232 " />
									<Normal vector="0.452010 -0.679952 -0.577349 0.679952 0.452010 -0.577349 0.679952 0.452010 0.577349 0.452010 -0.679952 0.577349 0.679952 0.452010 -0.577349 -0.452010 0.679952 -0.577349 -0.452010 0.679952 0.577349 0.679952 0.452010 0.577349 -0.452010 0.679952 -0.577349 -0.679952 -0.452010 -0.577349 -0.679952 -0.452010 0.577349 -0.452010 0.679952 0.577349 -0.679952 -0.452010 -0.577349 0.452010 -0.679952 -0.577349 0.452010 -0.679952 0.577349 -0.679952 -0.452010 0.577349 0.679952 0.452010 -0.577349 0.452010 -0.679952 -0.577349 -0.679952 -0.452010 -0.577349 -0.452010 0.679952 -0.577349 -0.452010 0.679952 0.577349 -0.679952 -0.452010 0.577349 0.452010 -0.679952 0.577349 0.679952 0.452010 0.577349 " />
									<TextureCoordinate point="0.5701 0.0818 0.5701 0.1676 0.9290 0.1676 0.9290 0.0818 0.5701 0.0360 0.5701 0.2135 0.9290 0.2135 0.9290 0.0360 0.5701 0.0818 0.5701 0.1676 0.9290 0.1676 0.9290 0.0818 0.5701 0.0360 0.5701 0.2135 0.9290 0.2135 0.9290 0.0360 0.5701 0.0818 0.5701 0.1676 0.9290 0.1676 0.9290 0.0818 0.5701 0.0818 0.5701 0.1676 0.9290 0.1676 0.9290 0.0818 " />
								</IndexedTriangleSet>
							</Shape>
						</Group>
					</Transform>
				</Transform>
			</Transform>
			<Transform DEF="foot1_TRANSFORM"
			           translation="0.229736 -0.005333 -0.002847"
			           scale="1.000000 1.000000 1.000000"
			           rotation="0.000000 1.000000 0.000000 0.000000"
			           >
				<Transform DEF="foot1_ifs_TRANSFORM"
				           translation="0.000000 0.000000 0.000000"
				           scale="1.000000 1.000000 1.000000"
				           rotation="0.000000 1.000000 0.000000 0.000000"
				           >
					<Group DEF="group_ME_foot1">
						<Shape>
							<Appearance>
								<Material USE="MA_Body" />
							</Appearance>
							<IndexedTriangleSet solid="false"
							                    normalPerVertex="true"
							                    index="0 1 2 0 2 3 4 5 6 4 6 7 8 9 10 8 10 11 12 13 14 12 14 15 4 16 17 4 17 15 18 5 14 18 14 19 "
							                    >
								<Coordinate point="-0.190176 -0.913641 -0.223355 -0.190176 -0.913641 0.000000 -0.190176 0.161231 0.000000 -0.190176 0.161231 -0.223355 -0.190176 0.161231 -0.223355 -0.190176 0.161231 0.000000 0.190176 0.161231 0.000000 0.190176 0.161231 -0.223355 0.190176 0.161231 -0.223355 0.190176 0.161231 0.000000 0.190176 -0.913641 0.000000 0.190176 -0.913641 -0.223355 0.190176 -0.913641 -0.223355 0.190176 -0.913641 0.000000 -0.190176 -0.913641 0.000000 -0.190176 -0.913641 -0.223355 0.190176 0.161231 -0.223355 0.190176 -0.913641 -0.223355 0.190176 0.161231 0.000000 0.190176 -0.913641 0.000000 " />
								<Normal vector="-0.577349 -0.577349 -0.577349 -0.577349 -0.577349 0.577349 -0.577349 0.577349 0.577349 -0.577349 0.577349 -0.577349 -0.577349 0.577349 -0.577349 -0.577349 0.577349 0.577349 0.577349 0.577349 0.577349 0.577349 0.577349 -0.577349 0.577349 0.577349 -0.577349 0.577349 0.577349 0.577349 0.577349 -0.577349 0.577349 0.577349 -0.577349 -0.577349 0.577349 -0.577349 -0.577349 0.577349 -0.577349 0.577349 -0.577349 -0.577349 0.577349 -0.577349 -0.577349 -0.577349 0.577349 0.577349 -0.577349 0.577349 -0.577349 -0.577349 0.577349 0.577349 0.577349 0.577349 -0.577349 0.577349 " />
								<TextureCoordinate point="0.0170 0.0140 0.2330 0.0140 0.2330 0.0993 0.0170 0.0993 0.0170 0.0140 0.2330 0.0140 0.2330 0.0993 0.0170 0.0993 0.0170 0.0140 0.2330 0.0140 0.2330 0.0993 0.0170 0.0993 0.0170 0.0140 0.2330 0.0140 0.2330 0.0993 0.0170 0.0993 0.2330 0.0140 0.2330 0.0993 0.0170 0.0140 0.0170 0.0993 " />
							</IndexedTriangleSet>
						</Shape>
					</Group>
				</Transform>
			</Transform>
			<Transform DEF="hand1_TRANSFORM"
			           translation="0.424335 -0.367314 0.560501"
			           scale="1.000000 1.000000 1.000000"
			           rotation="0.000000 1.000000 0.000000 0.000000"
			           >
				<Transform DEF="hand1_ifs_TRANSFORM"
				           translation="0.000000 0.000000 0.000000"
				           scale="1.000000 1.000000 1.000000"
				           rotation="0.000000 1.000000 0.000000 0.000000"
				           >
					<Group DEF="group_ME_hand1">
						<Shape>
							<Appearance>
								<Material USE="MA_Body" />
							</Appearance>
							<IndexedTriangleSet solid="false"
							                    normalPerVertex="true"
							                    index="0 1 2 0 2 3 4 5 6 4 6 7 8 9 10 8 10 11 12 13 14 12 14 15 4 16 17 4 17 15 18 5 14 18 14 19 "
							                    >
								<Coordinate point="-0.207128 -0.131238 -0.127888 -0.197407 -0.156225 0.114477 -0.241362 -0.043239 0.127888 -0.251083 -0.018252 -0.114477 -0.251083 -0.018252 -0.114477 -0.241362 -0.043239 0.127888 -0.017117 0.044000 0.127888 -0.026838 0.068987 -0.114477 -0.026838 0.068987 -0.114477 -0.017117 0.044000 0.127888 0.026838 -0.068987 0.114477 0.017117 -0.044000 -0.127888 0.017117 -0.044000 -0.127888 0.026838 -0.068987 0.114477 -0.197407 -0.156225 0.114477 -0.207128 -0.131238 -0.127888 -0.026838 0.068987 -0.114477 0.017117 -0.044000 -0.127888 -0.017117 0.044000 0.127888 0.026838 -0.068987 0.114477 " />
								<Normal vector="-0.353008 -0.684957 -0.637318 -0.306986 -0.803278 0.510361 -0.723106 0.266305 0.637318 -0.769127 0.384625 -0.510361 -0.769127 0.384625 -0.510361 -0.723106 0.266305 0.637318 0.353008 0.684957 0.637318 0.306986 0.803278 -0.510361 0.306986 0.803278 -0.510361 0.353008 0.684957 0.637318 0.769127 -0.384625 0.510361 0.723106 -0.266305 -0.637318 0.723106 -0.266305 -0.637318 0.769127 -0.384625 0.510361 -0.306986 -0.803278 0.510361 -0.353008 -0.684957 -0.637318 0.306986 0.803278 -0.510361 0.723106 -0.266305 -0.637318 0.353008 0.684957 0.637318 0.769127 -0.384625 0.510361 " />
								<TextureCoordinate point="0.0182 0.0073 0.2318 0.0073 0.2318 0.1021 0.0182 0.1021 0.0182 0.0073 0.2318 0.0073 0.2318 0.1021 0.0182 0.1021 0.0182 0.0073 0.2318 0.0073 0.2318 0.1021 0.0182 0.1021 0.0182 0.0073 0.2318 0.0073 0.2318 0.1021 0.0182 0.1021 0.2318 0.0073 0.2318 0.1021 0.0182 0.0073 0.0182 0.1021 " />
							</IndexedTriangleSet>
						</Shape>
					</Group>
				</Transform>
				<Transform DEF="Cube_004_TRANSFORM"
				           translation="-0.194679 -0.078203 0.020786"
				           scale="1.000000 1.000000 1.000000"
				           rotation="0.000000 1.000000 0.000000 0.000000"
				           >
					<Transform DEF="Cube_004_ifs_TRANSFORM"
					           translation="0.000000 0.000000 0.000000"
					           scale="1.000000 1.000000 1.000000"
					           rotation="0.000000 1.000000 0.000000 0.000000"
					           >
						<Group DEF="group_ME_Cube_010">
							<Shape>
								<Appearance>
									<Material USE="MA_Body" />
								</Appearance>
								<IndexedTriangleSet solid="false"
								                    normalPerVertex="true"
								                    index="0 1 2 0 2 3 4 5 6 4 6 7 8 9 10 8 10 11 12 13 14 12 14 15 4 16 17 4 17 15 18 5 14 18 14 19 "
								                    >
									<Coordinate point="-0.116304 -0.071858 -0.063176 -0.111515 -0.084168 0.056228 -0.135597 -0.007929 0.065054 -0.140386 0.004381 -0.054351 -0.140386 0.004381 -0.054351 -0.135597 -0.007929 0.065054 -0.009647 0.031965 0.064115 -0.014436 0.044275 -0.055289 -0.014436 0.044275 -0.055289 -0.009647 0.031965 0.064115 0.014436 -0.044275 0.055289 0.009647 -0.031965 -0.064115 0.009647 -0.031965 -0.064115 0.014436 -0.044275 0.055289 -0.111515 -0.084168 0.056228 -0.116304 -0.071858 -0.063176 -0.014436 0.044275 -0.055289 0.009647 -0.031965 -0.064115 -0.009647 0.031965 0.064115 0.014436 -0.044275 0.055289 " />
									<Normal vector="-0.400525 -0.662374 -0.633076 -0.354503 -0.780694 0.514603 -0.700217 0.313700 0.641285 -0.746239 0.432020 -0.506394 -0.746239 0.432020 -0.506394 -0.700217 0.313700 0.641285 0.400525 0.662374 0.633076 0.354503 0.780694 -0.514603 0.354503 0.780694 -0.514603 0.400525 0.662374 0.633076 0.746239 -0.432020 0.506394 0.700217 -0.313700 -0.641285 0.700217 -0.313700 -0.641285 0.746239 -0.432020 0.506394 -0.354503 -0.780694 0.514603 -0.400525 -0.662374 -0.633076 0.354503 0.780694 -0.514603 0.700217 -0.313700 -0.641285 0.400525 0.662374 0.633076 0.746239 -0.432020 0.506394 " />
									<TextureCoordinate point="0.0182 0.0073 0.2318 0.0073 0.2318 0.1021 0.0182 0.1021 0.0182 0.0073 0.2318 0.0073 0.2318 0.1021 0.0182 0.1021 0.0182 0.0073 0.2318 0.0073 0.2318 0.1021 0.0182 0.1021 0.0182 0.0073 0.2318 0.0073 0.2318 0.1021 0.0182 0.1021 0.2318 0.0073 0.2318 0.1021 0.0182 0.0073 0.0182 0.1021 " />
								</IndexedTriangleSet>
							</Shape>
						</Group>
					</Transform>
				</Transform>
				<Transform DEF="Cube_005_TRANSFORM"
				           translation="-0.146501 -0.051161 -0.081352"
				           scale="1.000000 1.000000 1.000000"
				           rotation="0.000000 1.000000 0.000000 0.000000"
				           >
					<Transform DEF="Cube_005_ifs_TRANSFORM"
					           translation="0.000000 0.000000 0.000000"
					           scale="1.000000 1.000000 1.000000"
					           rotation="0.000000 1.000000 0.000000 0.000000"
					           >
						<Group DEF="group_ME_Cube_011">
							<Shape>
								<Appearance>
									<Material USE="MA_Body" />
								</Appearance>
								<IndexedTriangleSet solid="false"
								                    normalPerVertex="true"
								                    index="0 1 2 0 2 3 4 5 6 4 6 7 8 9 10 8 10 11 12 13 14 12 14 15 4 16 17 4 17 15 18 5 14 18 14 19 "
								                    >
									<Coordinate point="-0.123943 -0.071696 -0.085422 -0.141721 -0.087717 0.004461 -0.165804 -0.011478 0.013286 -0.148025 0.004543 -0.076596 -0.148025 0.004543 -0.076596 -0.165804 -0.011478 0.013286 -0.020930 0.030109 0.049354 -0.003152 0.046130 -0.040528 -0.003152 0.046130 -0.040528 -0.020930 0.030109 0.049354 0.003152 -0.046130 0.040528 0.020930 -0.030109 -0.049354 0.020930 -0.030109 -0.049354 0.003152 -0.046130 0.040528 -0.141721 -0.087717 0.004461 -0.123943 -0.071696 -0.085422 -0.003152 0.046130 -0.040528 0.020930 -0.030109 -0.049354 -0.020930 0.030109 0.049354 0.003152 -0.046130 0.040528 " />
									<Normal vector="-0.256478 -0.602680 -0.755608 -0.477187 -0.801569 0.360179 -0.822901 0.292825 0.486892 -0.602191 0.491714 -0.628925 -0.602191 0.491714 -0.628925 -0.822901 0.292825 0.486892 0.256478 0.602680 0.755608 0.477187 0.801569 -0.360179 0.477187 0.801569 -0.360179 0.256478 0.602680 0.755608 0.602191 -0.491714 0.628925 0.822901 -0.292825 -0.486892 0.822901 -0.292825 -0.486892 0.602191 -0.491714 0.628925 -0.477187 -0.801569 0.360179 -0.256478 -0.602680 -0.755608 0.477187 0.801569 -0.360179 0.822901 -0.292825 -0.486892 0.256478 0.602680 0.755608 0.602191 -0.491714 0.628925 " />
									<TextureCoordinate point="0.0182 0.0073 0.2318 0.0073 0.2318 0.1021 0.0182 0.1021 0.0182 0.0073 0.2318 0.0073 0.2318 0.1021 0.0182 0.1021 0.0182 0.0073 0.2318 0.0073 0.2318 0.1021 0.0182 0.1021 0.0182 0.0073 0.2318 0.0073 0.2318 0.1021 0.0182 0.1021 0.2318 0.0073 0.2318 0.1021 0.0182 0.0073 0.0182 0.1021 " />
								</IndexedTriangleSet>
							</Shape>
						</Group>
					</Transform>
				</Transform>
				<Transform DEF="Cube_006_TRANSFORM"
				           translation="-0.141268 -0.094419 0.074450"
				           scale="1.000000 1.000000 1.000000"
				           rotation="0.000000 1.000000 0.000000 0.000000"
				           >
					<Transform DEF="Cube_006_ifs_TRANSFORM"
					           translation="0.000000 0.000000 0.000000"
					           scale="1.000000 1.000000 1.000000"
					           rotation="0.000000 1.000000 0.000000 0.000000"
					           >
						<Group DEF="group_ME_Cube_012">
							<Shape>
								<Appearance>
									<Material USE="MA_Body" />
								</Appearance>
								<IndexedTriangleSet solid="false"
								                    normalPerVertex="true"
								                    index="0 1 2 0 2 3 4 5 6 4 6 7 8 9 10 8 10 11 12 13 14 12 14 15 4 16 17 4 17 15 18 5 14 18 14 19 "
								                    >
									<Coordinate point="-0.141958 -0.043010 0.063293 -0.097628 -0.035361 0.123394 -0.104385 0.012321 0.122310 -0.148715 0.004672 0.062208 -0.148715 0.004672 0.062208 -0.104385 0.012321 0.122310 0.018786 0.027665 0.029509 -0.025543 0.020016 -0.030593 -0.025543 0.020016 -0.030593 0.018786 0.027665 0.029509 0.025543 -0.020016 0.030593 -0.018786 -0.027665 -0.029509 -0.018786 -0.027665 -0.029509 0.025543 -0.020016 0.030593 -0.097628 -0.035361 0.123394 -0.141958 -0.043010 0.063293 -0.025543 0.020016 -0.030593 -0.018786 -0.027665 -0.029509 0.018786 0.027665 0.029509 0.025543 -0.020016 0.030593 " />
									<Normal vector="-0.718772 -0.687460 -0.103488 -0.036927 -0.569811 0.820917 -0.198889 0.573138 0.794916 -0.880734 0.455489 -0.129490 -0.880734 0.455489 -0.129490 -0.198889 0.573138 0.794916 0.718772 0.687460 0.103488 0.036927 0.569811 -0.820917 0.036927 0.569811 -0.820917 0.718772 0.687460 0.103488 0.880734 -0.455489 0.129490 0.198889 -0.573138 -0.794916 0.198889 -0.573138 -0.794916 0.880734 -0.455489 0.129490 -0.036927 -0.569811 0.820917 -0.718772 -0.687460 -0.103488 0.036927 0.569811 -0.820917 0.198889 -0.573138 -0.794916 0.718772 0.687460 0.103488 0.880734 -0.455489 0.129490 " />
									<TextureCoordinate point="0.0182 0.0073 0.2318 0.0073 0.2318 0.1021 0.0182 0.1021 0.0182 0.0073 0.2318 0.0073 0.2318 0.1021 0.0182 0.1021 0.0182 0.0073 0.2318 0.0073 0.2318 0.1021 0.0182 0.1021 0.0182 0.0073 0.2318 0.0073 0.2318 0.1021 0.0182 0.1021 0.2318 0.0073 0.2318 0.1021 0.0182 0.0073 0.0182 0.1021 " />
								</IndexedTriangleSet>
							</Shape>
						</Group>
					</Transform>
				</Transform>
			</Transform>
			<Transform DEF="wing1_TRANSFORM"
			           translation="0.000000 0.369596 0.742012"
			           scale="1.000000 1.000000 1.000000"
			           rotation="0.000000 1.000000 0.000000 0.000000"
			           >
				<Transform DEF="wing1_ifs_TRANSFORM"
				           translation="0.000000 0.000000 0.000000"
				           scale="1.000000 1.000000 1.000000"
				           rotation="0.000000 1.000000 0.000000 0.000000"
				           >
					<Group DEF="group_ME_wing1">
						<Shape>
							<Appearance>
								<Material USE="MA_Body" />
							</Appearance>
							<IndexedTriangleSet solid="false"
							                    normalPerVertex="true"
							                    index="0 1 2 0 2 3 "
							                    >
								<Coordinate point="0.000000 0.000000 -1.596969 2.664624 0.000000 -1.596969 2.664624 0.000000 2.527793 0.000000 0.000000 2.527793 " />
								<Normal vector="0.000000 -1.000000 0.000000 0.000000 -1.000000 0.000000 0.000000 -1.000000 0.000000 0.000000 -1.000000 0.000000 " />
								<TextureCoordinate point="0.1052 0.3666 0.8751 0.3666 0.8751 0.9880 0.1052 0.9880 " />
							</IndexedTriangleSet>
						</Shape>
					</Group>
				</Transform>
			</Transform>
			<Transform DEF="wing2_TRANSFORM"
			           translation="0.000000 0.369596 0.742012"
			           scale="1.000000 1.000000 1.000000"
			           rotation="0.000000 1.000000 0.000000 0.000000"
			           >
				<Transform DEF="wing2_ifs_TRANSFORM"
				           translation="0.000000 0.000000 0.000000"
				           scale="1.000000 1.000000 1.000000"
				           rotation="0.000000 1.000000 0.000000 0.000000"
				           >
					<Group DEF="group_ME_wing2">
						<Shape>
							<Appearance>
								<Material USE="MA_Body" />
							</Appearance>
							<IndexedTriangleSet solid="false"
							                    normalPerVertex="true"
							                    index="0 1 2 0 2 3 "
							                    >
								<Coordinate point="-0.000000 0.000000 -1.596969 -0.000000 -0.000000 2.527793 -2.664624 -0.000000 2.527793 -2.664624 0.000000 -1.596969 " />
								<Normal vector="0.000000 -1.000000 0.000000 0.000000 -1.000000 0.000000 0.000000 -1.000000 0.000000 0.000000 -1.000000 0.000000 " />
								<TextureCoordinate point="0.1052 0.3666 0.1052 0.9880 0.8751 0.9880 0.8751 0.3666 " />
							</IndexedTriangleSet>
						</Shape>
					</Group>
				</Transform>
			</Transform>
			<Transform DEF="foot2_TRANSFORM"
			           translation="-0.229736 -0.005333 -0.002847"
			           scale="1.000000 1.000000 1.000000"
			           rotation="0.000000 1.000000 0.000000 0.000000"
			           >
				<Transform DEF="foot2_ifs_TRANSFORM"
				           translation="0.000000 0.000000 0.000000"
				           scale="1.000000 1.000000 1.000000"
				           rotation="0.000000 1.000000 0.000000 0.000000"
				           >
					<Group DEF="group_ME_foot2">
						<Shape>
							<Appearance>
								<Material USE="MA_Body" />
							</Appearance>
							<IndexedTriangleSet solid="false"
							                    normalPerVertex="true"
							                    index="0 1 2 0 2 3 4 5 6 4 6 7 8 9 10 8 10 11 12 13 14 12 14 15 4 13 16 4 16 17 18 19 14 18 14 7 "
							                    >
								<Coordinate point="0.190176 -0.913641 -0.223356 0.190176 0.161231 -0.223355 0.190176 0.161231 0.000000 0.190176 -0.913641 -0.000000 0.190176 0.161231 -0.223355 -0.190176 0.161231 -0.223355 -0.190176 0.161231 0.000000 0.190176 0.161231 0.000000 -0.190176 0.161231 -0.223355 -0.190176 -0.913641 -0.223356 -0.190176 -0.913641 -0.000000 -0.190176 0.161231 0.000000 -0.190176 -0.913641 -0.223356 0.190176 -0.913641 -0.223356 0.190176 -0.913641 -0.000000 -0.190176 -0.913641 -0.000000 -0.190176 -0.913641 -0.223356 -0.190176 0.161231 -0.223355 -0.190176 0.161231 0.000000 -0.190176 -0.913641 -0.000000 " />
								<Normal vector="0.577349 -0.577349 -0.577349 0.577349 0.577349 -0.577349 0.577349 0.577349 0.577349 0.577349 -0.577349 0.577349 0.577349 0.577349 -0.577349 -0.577349 0.577349 -0.577349 -0.577349 0.577349 0.577349 0.577349 0.577349 0.577349 -0.577349 0.577349 -0.577349 -0.577349 -0.577349 -0.577349 -0.577349 -0.577349 0.577349 -0.577349 0.577349 0.577349 -0.577349 -0.577349 -0.577349 0.577349 -0.577349 -0.577349 0.577349 -0.577349 0.577349 -0.577349 -0.577349 0.577349 -0.577349 -0.577349 -0.577349 -0.577349 0.577349 -0.577349 -0.577349 0.577349 0.577349 -0.577349 -0.577349 0.577349 " />
								<TextureCoordinate point="0.0170 0.0140 0.0170 0.0993 0.2330 0.0993 0.2330 0.0140 0.0170 0.0140 0.0170 0.0993 0.2330 0.0993 0.2330 0.0140 0.0170 0.0140 0.0170 0.0993 0.2330 0.0993 0.2330 0.0140 0.0170 0.0140 0.0170 0.0993 0.2330 0.0993 0.2330 0.0140 0.2330 0.0993 0.2330 0.0140 0.0170 0.0140 0.0170 0.0993 " />
							</IndexedTriangleSet>
						</Shape>
					</Group>
				</Transform>
			</Transform>
			<Transform DEF="hand2_TRANSFORM"
			           translation="-0.424335 -0.367314 0.560501"
			           scale="1.000000 1.000000 1.000000"
			           rotation="0.000000 1.000000 0.000000 0.000000"
			           >
				<Transform DEF="hand2_ifs_TRANSFORM"
				           translation="0.000000 0.000000 0.000000"
				           scale="1.000000 1.000000 1.000000"
				           rotation="0.000000 1.000000 0.000000 0.000000"
				           >
					<Group DEF="group_ME_hand2">
						<Shape>
							<Appearance>
								<Material USE="MA_Body" />
							</Appearance>
							<IndexedTriangleSet solid="false"
							                    normalPerVertex="true"
							                    index="0 1 2 0 2 3 4 5 6 4 6 7 8 9 10 8 10 11 12 13 14 12 14 15 4 13 16 4 16 17 18 19 14 18 14 7 "
							                    >
								<Coordinate point="0.207128 -0.131238 -0.127888 0.251083 -0.018252 -0.114477 0.241362 -0.043239 0.127888 0.197407 -0.156225 0.114477 0.251083 -0.018252 -0.114477 0.026838 0.068987 -0.114477 0.017117 0.044000 0.127888 0.241362 -0.043239 0.127888 0.026838 0.068987 -0.114477 -0.017117 -0.044000 -0.127888 -0.026838 -0.068987 0.114477 0.017117 0.044000 0.127888 -0.017117 -0.044000 -0.127888 0.207128 -0.131238 -0.127888 0.197407 -0.156225 0.114477 -0.026838 -0.068987 0.114477 -0.017117 -0.044000 -0.127888 0.026838 0.068987 -0.114477 0.017117 0.044000 0.127888 -0.026838 -0.068987 0.114477 " />
								<Normal vector="0.353008 -0.684957 -0.637318 0.769127 0.384625 -0.510361 0.723106 0.266305 0.637318 0.306986 -0.803278 0.510361 0.769127 0.384625 -0.510361 -0.306986 0.803278 -0.510361 -0.353008 0.684957 0.637318 0.723106 0.266305 0.637318 -0.306986 0.803278 -0.510361 -0.723106 -0.266305 -0.637318 -0.769127 -0.384625 0.510361 -0.353008 0.684957 0.637318 -0.723106 -0.266305 -0.637318 0.353008 -0.684957 -0.637318 0.306986 -0.803278 0.510361 -0.769127 -0.384625 0.510361 -0.723106 -0.266305 -0.637318 -0.306986 0.803278 -0.510361 -0.353008 0.684957 0.637318 -0.769127 -0.384625 0.510361 " />
								<TextureCoordinate point="0.0182 0.0073 0.0182 0.1021 0.2318 0.1021 0.2318 0.0073 0.0182 0.0073 0.0182 0.1021 0.2318 0.1021 0.2318 0.0073 0.0182 0.0073 0.0182 0.1021 0.2318 0.1021 0.2318 0.0073 0.0182 0.0073 0.0182 0.1021 0.2318 0.1021 0.2318 0.0073 0.2318 0.1021 0.2318 0.0073 0.0182 0.0073 0.0182 0.1021 " />
							</IndexedTriangleSet>
						</Shape>
					</Group>
				</Transform>
				<Transform DEF="Cube_001_TRANSFORM"
				           translation="0.194679 -0.078203 0.020786"
				           scale="1.000000 1.000000 1.000000"
				           rotation="0.000000 1.000000 0.000000 0.000000"
				           >
					<Transform DEF="Cube_001_ifs_TRANSFORM"
					           translation="0.000000 0.000000 0.000000"
					           scale="1.000000 1.000000 1.000000"
					           rotation="0.000000 1.000000 0.000000 0.000000"
					           >
						<Group DEF="group_ME_Cube_001">
							<Shape>
								<Appearance>
									<Material USE="MA_Body" />
								</Appearance>
								<IndexedTriangleSet solid="false"
								                    normalPerVertex="true"
								                    index="0 1 2 0 2 3 4 5 6 4 6 7 8 9 10 8 10 11 12 13 14 12 14 15 4 13 16 4 16 17 18 19 14 18 14 7 "
								                    >
									<Coordinate point="0.116304 -0.071858 -0.063176 0.140386 0.004381 -0.054351 0.135597 -0.007929 0.065054 0.111515 -0.084168 0.056228 0.140386 0.004381 -0.054351 0.014436 0.044275 -0.055289 0.009647 0.031965 0.064115 0.135597 -0.007929 0.065054 0.014436 0.044275 -0.055289 -0.009647 -0.031965 -0.064115 -0.014436 -0.044275 0.055289 0.009647 0.031965 0.064115 -0.009647 -0.031965 -0.064115 0.116304 -0.071858 -0.063176 0.111515 -0.084168 0.056228 -0.014436 -0.044275 0.055289 -0.009647 -0.031965 -0.064115 0.014436 0.044275 -0.055289 0.009647 0.031965 0.064115 -0.014436 -0.044275 0.055289 " />
									<Normal vector="0.400525 -0.662374 -0.633076 0.746239 0.432020 -0.506394 0.700217 0.313700 0.641285 0.354503 -0.780694 0.514573 0.746239 0.432020 -0.506394 -0.354503 0.780694 -0.514573 -0.400525 0.662374 0.633076 0.700217 0.313700 0.641285 -0.354503 0.780694 -0.514573 -0.700217 -0.313700 -0.641285 -0.746239 -0.432020 0.506394 -0.400525 0.662374 0.633076 -0.700217 -0.313700 -0.641285 0.400525 -0.662374 -0.633076 0.354503 -0.780694 0.514573 -0.746239 -0.432020 0.506394 -0.700217 -0.313700 -0.641285 -0.354503 0.780694 -0.514573 -0.400525 0.662374 0.633076 -0.746239 -0.432020 0.506394 " />
									<TextureCoordinate point="0.0182 0.0073 0.0182 0.1021 0.2318 0.1021 0.2318 0.0073 0.0182 0.0073 0.0182 0.1021 0.2318 0.1021 0.2318 0.0073 0.0182 0.0073 0.0182 0.1021 0.2318 0.1021 0.2318 0.0073 0.0182 0.0073 0.0182 0.1021 0.2318 0.1021 0.2318 0.0073 0.2318 0.1021 0.2318 0.0073 0.0182 0.0073 0.0182 0.1021 " />
								</IndexedTriangleSet>
							</Shape>
						</Group>
					</Transform>
				</Transform>
				<Transform DEF="Cube_002_TRANSFORM"
				           translation="0.146501 -0.051161 -0.081352"
				           scale="1.000000 1.000000 1.000000"
				           rotation="0.000000 1.000000 0.000000 0.000000"
				           >
					<Transform DEF="Cube_002_ifs_TRANSFORM"
					           translation="0.000000 0.000000 0.000000"
					           scale="1.000000 1.000000 1.000000"
					           rotation="0.000000 1.000000 0.000000 0.000000"
					           >
						<Group DEF="group_ME_Cube_002">
							<Shape>
								<Appearance>
									<Material USE="MA_Body" />
								</Appearance>
								<IndexedTriangleSet solid="false"
								                    normalPerVertex="true"
								                    index="0 1 2 0 2 3 4 5 6 4 6 7 8 9 10 8 10 11 12 13 14 12 14 15 4 13 16 4 16 17 18 19 14 18 14 7 "
								                    >
									<Coordinate point="0.123943 -0.071696 -0.085422 0.148025 0.004543 -0.076596 0.165804 -0.011478 0.013286 0.141721 -0.087717 0.004460 0.148025 0.004543 -0.076596 0.003152 0.046130 -0.040528 0.020930 0.030109 0.049354 0.165804 -0.011478 0.013286 0.003152 0.046130 -0.040528 -0.020930 -0.030109 -0.049354 -0.003152 -0.046130 0.040528 0.020930 0.030109 0.049354 -0.020930 -0.030109 -0.049354 0.123943 -0.071696 -0.085422 0.141721 -0.087717 0.004460 -0.003152 -0.046130 0.040528 -0.020930 -0.030109 -0.049354 0.003152 0.046130 -0.040528 0.020930 0.030109 0.049354 -0.003152 -0.046130 0.040528 " />
									<Normal vector="0.256478 -0.602680 -0.755608 0.602191 0.491714 -0.628925 0.822901 0.292825 0.486892 0.477187 -0.801569 0.360179 0.602191 0.491714 -0.628925 -0.477187 0.801569 -0.360179 -0.256478 0.602680 0.755608 0.822901 0.292825 0.486892 -0.477187 0.801569 -0.360179 -0.822901 -0.292825 -0.486892 -0.602191 -0.491714 0.628925 -0.256478 0.602680 0.755608 -0.822901 -0.292825 -0.486892 0.256478 -0.602680 -0.755608 0.477187 -0.801569 0.360179 -0.602191 -0.491714 0.628925 -0.822901 -0.292825 -0.486892 -0.477187 0.801569 -0.360179 -0.256478 0.602680 0.755608 -0.602191 -0.491714 0.628925 " />
									<TextureCoordinate point="0.0182 0.0073 0.0182 0.1021 0.2318 0.1021 0.2318 0.0073 0.0182 0.0073 0.0182 0.1021 0.2318 0.1021 0.2318 0.0073 0.0182 0.0073 0.0182 0.1021 0.2318 0.1021 0.2318 0.0073 0.0182 0.0073 0.0182 0.1021 0.2318 0.1021 0.2318 0.0073 0.2318 0.1021 0.2318 0.0073 0.0182 0.0073 0.0182 0.1021 " />
								</IndexedTriangleSet>
							</Shape>
						</Group>
					</Transform>
				</Transform>
				<Transform DEF="Cube_003_TRANSFORM"
				           translation="0.141268 -0.094419 0.074450"
				           scale="1.000000 1.000000 1.000000"
				           rotation="0.000000 1.000000 0.000000 0.000000"
				           >
					<Transform DEF="Cube_003_ifs_TRANSFORM"
					           translation="0.000000 0.000000 0.000000"
					           scale="1.000000 1.000000 1.000000"
					           rotation="0.000000 1.000000 0.000000 0.000000"
					           >
						<Group DEF="group_ME_Cube_003">
							<Shape>
								<Appearance>
									<Material USE="MA_Body" />
								</Appearance>
								<IndexedTriangleSet solid="false"
								                    normalPerVertex="true"
								                    index="0 1 2 0 2 3 4 5 6 4 6 7 8 9 10 8 10 11 12 13 14 12 14 15 4 13 16 4 16 17 18 19 14 18 14 7 "
								                    >
									<Coordinate point="0.141958 -0.043010 0.063293 0.148715 0.004672 0.062208 0.104385 0.012320 0.122310 0.097628 -0.035361 0.123394 0.148715 0.004672 0.062208 0.025543 0.020016 -0.030593 -0.018786 0.027665 0.029509 0.104385 0.012320 0.122310 0.025543 0.020016 -0.030593 0.018786 -0.027665 -0.029509 -0.025543 -0.020016 0.030593 -0.018786 0.027665 0.029509 0.018786 -0.027665 -0.029509 0.141958 -0.043010 0.063293 0.097628 -0.035361 0.123394 -0.025543 -0.020016 0.030593 0.018786 -0.027665 -0.029509 0.025543 0.020016 -0.030593 -0.018786 0.027665 0.029509 -0.025543 -0.020016 0.030593 " />
									<Normal vector="0.718772 -0.687460 -0.103488 0.880734 0.455489 -0.129490 0.198920 0.573138 0.794916 0.036927 -0.569811 0.820917 0.880734 0.455489 -0.129490 -0.036927 0.569811 -0.820917 -0.718772 0.687460 0.103488 0.198920 0.573138 0.794916 -0.036927 0.569811 -0.820917 -0.198920 -0.573138 -0.794916 -0.880734 -0.455489 0.129490 -0.718772 0.687460 0.103488 -0.198920 -0.573138 -0.794916 0.718772 -0.687460 -0.103488 0.036927 -0.569811 0.820917 -0.880734 -0.455489 0.129490 -0.198920 -0.573138 -0.794916 -0.036927 0.569811 -0.820917 -0.718772 0.687460 0.103488 -0.880734 -0.455489 0.129490 " />
									<TextureCoordinate point="0.0182 0.0073 0.0182 0.1021 0.2318 0.1021 0.2318 0.0073 0.0182 0.0073 0.0182 0.1021 0.2318 0.1021 0.2318 0.0073 0.0182 0.0073 0.0182 0.1021 0.2318 0.1021 0.2318 0.0073 0.0182 0.0073 0.0182 0.1021 0.2318 0.1021 0.2318 0.0073 0.2318 0.1021 0.2318 0.0073 0.0182 0.0073 0.0182 0.1021 " />
								</IndexedTriangleSet>
							</Shape>
						</Group>
					</Transform>
				</Transform>
			</Transform>
		</Transform>
	</Scene>
</X3D>