<?xml version="1.0" encoding="UTF-8"?>
<!DOCTYPE X3D PUBLIC "ISO//Web3D//DTD X3D 3.0//EN" "http://www.web3d.org/specifications/x3d-3.0.dtd">
<X3D version="3.0" profile="Immersive" xmlns:xsd="http://www.w3.org/2001/XMLSchema-instance" xsd:noNamespaceSchemaLocation="http://www.web3d.org/specifications/x3d-3.0.xsd">
	<head>
		<meta name="filename" content="cherrim.x3d" />
		<meta name="generator" content="Blender 2.93.18" />
	</head>
	<Scene>
		<NavigationInfo headlight="true"
		                visibilityLimit="0.0"
		                type='"EXAMINE", "ANY"'
		                avatarSize="0.25, 1.75, 0.75"
		                />
		<Background DEF="WO_World"
		            groundColor="0.051 0.051 0.051"
		            skyColor="0.051 0.051 0.051"
		            />
		<Transform DEF="body_TRANSFORM"
		           translation="0.000000 0.000000 0.163001"
		           scale="1.000000 1.000000 1.000000"
		           rotation="0.000000 0.000000 1.000000 3.141593"
		           >
			<Transform DEF="body_ifs_TRANSFORM"
			           translation="0.000000 0.000000 0.000000"
			           scale="1.000000 1.000000 1.000000"
			           rotation="0.000000 1.000000 0.000000 0.000000"
			           >
				<Group DEF="group_ME_body">
					<Shape>
						<Appearance>
							<Material DEF="MA_Body"
							          diffuseColor="0.800 0.800 0.800"
							          specularColor="0.401 0.401 0.401"
							          emissiveColor="0.000 0.000 0.000"
							          ambientIntensity="0.000"
							          shininess="0.500"
							          transparency="0.0"
							          />
						</Appearance>
						<IndexedTriangleSet solid="false"
						                    normalPerVertex="true"
						                    index="0 1 2 0 2 3 4 5 6 4 6 7 8 9 10 8 10 11 12 13 14 12 14 15 16 17 18 16 18 19 20 21 14 20 14 22 23 12 15 23 15 24 25 8 11 25 11 26 27 4 7 27 7 28 29 0 3 29 3 30 31 29 30 31 30 32 33 27 28 33 28 34 35 25 26 35 26 36 37 23 24 37 24 38 39 40 41 39 41 42 42 41 43 42 43 44 44 43 45 44 45 46 46 45 23 46 23 37 47 48 49 47 49 50 50 49 51 50 51 52 52 51 53 52 53 54 54 53 27 54 27 33 48 55 56 48 56 49 49 56 57 49 57 51 51 57 58 51 58 53 53 58 4 53 4 27 40 59 60 40 60 41 61 62 63 61 63 64 43 65 66 43 66 45 67 68 69 67 69 70 71 72 73 71 73 74 72 75 76 72 76 73 75 77 78 75 78 76 77 20 22 77 22 78 47 79 80 47 80 38 79 81 82 79 82 80 81 83 84 81 84 82 83 16 19 83 19 84 59 85 86 59 86 60 60 86 87 60 87 65 65 87 88 65 88 66 66 88 13 66 13 12 55 21 89 55 89 56 56 89 90 56 90 57 57 90 91 57 91 58 58 91 5 58 5 4 "
						                    >
							<Coordinate point="-0.956287 -0.754451 0.596233 -0.956287 -0.754451 1.580920 -0.956287 0.754451 1.580920 -0.956287 0.754451 0.596233 0.773685 0.754451 0.596233 0.773685 0.754451 1.580920 0.956287 0.754451 1.580920 0.956287 0.754451 0.596233 0.956287 0.754451 0.596233 0.956287 0.754451 1.580920 0.956287 -0.754451 1.580920 0.956287 -0.754451 0.596233 -0.773685 -0.754451 0.596233 -0.773685 -0.754451 1.580920 -0.956287 -0.754451 1.580920 -0.956287 -0.754451 0.596233 0.773685 0.754451 0.000000 0.956287 0.754451 0.000000 0.956287 -0.754451 0.000000 0.773685 -0.754451 0.000000 -0.773685 0.754451 1.580920 -0.956287 0.754451 1.580920 -0.773685 -0.754451 1.580920 -0.773685 -0.754451 0.126474 -0.956287 -0.754451 0.126474 0.956287 0.754451 0.126474 0.956287 -0.754451 0.126474 0.773685 0.754451 0.126474 0.956287 0.754451 0.126474 -0.956287 -0.754451 0.126474 -0.956287 0.754451 0.126474 -0.956287 -0.754451 0.000000 -0.956287 0.754451 0.000000 0.773685 0.754451 0.000000 0.956287 0.754451 0.000000 0.956287 0.754451 0.000000 0.956287 -0.754451 0.000000 -0.773685 -0.754451 0.000000 -0.956287 -0.754451 0.000000 0.956287 -0.754451 0.000000 0.956287 -0.754451 0.126474 0.773685 -0.754451 0.126474 0.773685 -0.754451 0.000000 0.208126 -0.754451 0.126474 0.208126 -0.754451 0.000000 -0.208126 -0.754451 0.126474 -0.208126 -0.754451 0.000000 -0.956287 0.754451 0.000000 -0.956287 0.754451 0.126474 -0.773685 0.754451 0.126474 -0.773685 0.754451 0.000000 -0.208126 0.754451 0.126474 -0.208126 0.754451 0.000000 0.208126 0.754451 0.126474 0.208126 0.754451 0.000000 -0.956287 0.754451 0.596233 -0.773685 0.754451 0.596233 -0.208126 0.754451 0.596233 0.208126 0.754451 0.596233 0.956287 -0.754451 0.596233 0.773685 -0.754451 0.596233 0.773685 -0.754451 0.126474 0.773685 -0.754451 0.596233 0.208126 -0.754451 0.596233 0.208126 -0.754451 0.126474 0.208126 -0.754451 0.596233 -0.208126 -0.754451 0.596233 -0.208126 -0.754451 0.126474 -0.208126 -0.754451 0.596233 -0.773685 -0.754451 0.596233 -0.773685 -0.754451 0.126474 0.956287 0.754451 1.580920 0.773685 0.754451 1.580920 0.773685 -0.754451 1.580920 0.956287 -0.754451 1.580920 0.208126 0.754451 1.580920 0.208126 -0.754451 1.580920 -0.208126 0.754451 1.580920 -0.208126 -0.754451 1.580920 -0.773685 0.754451 0.000000 -0.773685 -0.754451 0.000000 -0.208126 0.754451 0.000000 -0.208126 -0.754451 0.000000 0.208126 0.754451 0.000000 0.208126 -0.754451 0.000000 0.956287 -0.754451 1.580920 0.773685 -0.754451 1.580920 0.208126 -0.754451 1.580920 -0.208126 -0.754451 1.580920 -0.773685 0.754451 1.580920 -0.208126 0.754451 1.580920 0.208126 0.754451 1.580920 " />
							<Normal vector="-0.707083 -0.707083 0.000000 -0.577349 -0.577349 0.577349 -0.577349 0.577349 0.577349 -0.707083 0.707083 0.000000 0.000000 1.000000 0.000000 0.000000 0.707083 0.707083 0.577349 0.577349 0.577349 0.707083 0.707083 0.000000 0.707083 0.707083 0.000000 0.577349 0.577349 0.577349 0.577349 -0.577349 0.577349 0.707083 -0.707083 0.000000 0.000000 -1.000000 0.000000 0.000000 -0.707083 0.707083 -0.577349 -0.577349 0.577349 -0.707083 -0.707083 0.000000 0.000000 0.707083 -0.707083 0.577349 0.577349 -0.577349 0.577349 -0.577349 -0.577349 0.000000 -0.707083 -0.707083 0.000000 0.707083 0.707083 -0.577349 0.577349 0.577349 0.000000 -0.707083 0.707083 0.000000 -1.000000 0.000000 -0.707083 -0.707083 0.000000 0.707083 0.707083 0.000000 0.707083 -0.707083 0.000000 0.000000 1.000000 0.000000 0.707083 0.707083 0.000000 -0.707083 -0.707083 0.000000 -0.707083 0.707083 0.000000 -0.577349 -0.577349 -0.577349 -0.577349 0.577349 -0.577349 0.000000 0.707083 -0.707083 0.577349 0.577349 -0.577349 0.577349 0.577349 -0.577349 0.577349 -0.577349 -0.577349 0.000000 -0.707083 -0.707083 -0.577349 -0.577349 -0.577349 0.577349 -0.577349 -0.577349 0.707083 -0.707083 0.000000 0.000000 -1.000000 0.000000 0.000000 -0.707083 -0.707083 0.000000 -1.000000 0.000000 0.000000 -0.707083 -0.707083 0.000000 -1.000000 0.000000 0.000000 -0.707083 -0.707083 -0.577349 0.577349 -0.577349 -0.707083 0.707083 0.000000 0.000000 1.000000 0.000000 0.000000 0.707083 -0.707083 0.000000 1.000000 0.000000 0.000000 0.707083 -0.707083 0.000000 1.000000 0.000000 0.000000 0.707083 -0.707083 -0.707083 0.707083 0.000000 0.000000 1.000000 0.000000 0.000000 1.000000 0.000000 0.000000 1.000000 0.000000 0.707083 -0.707083 0.000000 0.000000 -1.000000 0.000000 0.000000 -1.000000 0.000000 0.000000 -1.000000 0.000000 0.000000 -1.000000 0.000000 0.000000 -1.000000 0.000000 0.000000 -1.000000 0.000000 0.000000 -1.000000 0.000000 0.000000 -1.000000 0.000000 0.000000 -1.000000 0.000000 0.000000 -1.000000 0.000000 0.000000 -1.000000 0.000000 0.577349 0.577349 0.577349 0.000000 0.707083 0.707083 0.000000 -0.707083 0.707083 0.577349 -0.577349 0.577349 0.000000 0.707083 0.707083 0.000000 -0.707083 0.707083 0.000000 0.707083 0.707083 0.000000 -0.707083 0.707083 0.000000 0.707083 -0.707083 0.000000 -0.707083 -0.707083 0.000000 0.707083 -0.707083 0.000000 -0.707083 -0.707083 0.000000 0.707083 -0.707083 0.000000 -0.707083 -0.707083 0.577349 -0.577349 0.577349 0.000000 -0.707083 0.707083 0.000000 -0.707083 0.707083 0.000000 -0.707083 0.707083 0.000000 0.707083 0.707083 0.000000 0.707083 0.707083 0.000000 0.707083 0.707083 " />
							<TextureCoordinate point="0.0967 0.0265 0.2394 0.0265 0.2394 0.4527 0.0967 0.4527 0.0967 0.3674 0.2394 0.3674 0.2394 0.4527 0.0967 0.4527 0.0967 0.0265 0.2394 0.0265 0.2394 0.4527 0.0967 0.4527 0.0967 0.3674 0.2394 0.3674 0.2394 0.4527 0.0967 0.4527 0.1936 0.0265 0.2394 0.0265 0.2394 0.4527 0.1936 0.4527 0.1936 0.0265 0.2394 0.0265 0.1936 0.4527 0.0286 0.3674 0.0286 0.4527 0.0286 0.0265 0.0286 0.4527 0.0286 0.3674 0.0286 0.4527 0.0286 0.0265 0.0286 0.4527 0.0103 0.0265 0.0103 0.4527 0.0103 0.3674 0.0103 0.4527 0.0103 0.0265 0.0103 0.4527 0.0103 0.3674 0.0103 0.4527 0.0103 0.0265 0.0286 0.0265 0.0286 0.1117 0.0103 0.1117 0.0286 0.1969 0.0103 0.1969 0.0286 0.2822 0.0103 0.2822 0.0103 0.0265 0.0286 0.0265 0.0286 0.1117 0.0103 0.1117 0.0286 0.1969 0.0103 0.1969 0.0286 0.2822 0.0103 0.2822 0.0967 0.0265 0.0967 0.1117 0.0967 0.1969 0.0967 0.2822 0.0967 0.0265 0.0967 0.1117 0.9883 0.1885 0.9883 0.8487 0.5139 0.8487 0.5139 0.1885 0.0967 0.1969 0.0967 0.2822 0.5139 0.1885 0.5139 0.8487 0.9883 0.8487 0.9883 0.1885 0.0103 0.0265 0.0561 0.0265 0.0561 0.4527 0.0103 0.4527 0.1019 0.0265 0.1019 0.4527 0.1478 0.0265 0.1478 0.4527 0.0561 0.0265 0.0561 0.4527 0.1019 0.0265 0.1019 0.4527 0.1478 0.0265 0.1478 0.4527 0.2394 0.0265 0.2394 0.1117 0.2394 0.1969 0.2394 0.2822 0.2394 0.1117 0.2394 0.1969 0.2394 0.2822 " />
						</IndexedTriangleSet>
					</Shape>
				</Group>
			</Transform>
			<Transform DEF="foot1_TRANSFORM"
			           translation="0.630429 0.000000 0.028765"
			           scale="1.000000 1.000000 1.000000"
			           rotation="0.000000 1.000000 0.000000 0.000000"
			           >
				<Transform DEF="foot1_ifs_TRANSFORM"
				           translation="0.000000 0.000000 0.000000"
				           scale="1.000000 1.000000 1.000000"
				           rotation="0.000000 1.000000 0.000000 0.000000"
				           >
					<Group DEF="group_ME_foot1">
						<Shape>
							<Appearance>
								<Material USE="MA_Body" />
							</Appearance>
							<IndexedTriangleSet solid="false"
							                    normalPerVertex="true"
							                    index="0 1 2 0 2 3 4 5 6 4 6 7 8 9 10 8 10 11 12 13 14 12 14 15 4 16 17 4 17 15 18 5 14 18 14 19 "
							                    >
								<Coordinate point="-0.171200 -0.171200 -0.189970 -0.171200 -0.171200 0.000000 -0.171200 0.171200 0.000000 -0.171200 0.171200 -0.189970 -0.171200 0.171200 -0.189970 -0.171200 0.171200 0.000000 0.171200 0.171200 0.000000 0.171200 0.171200 -0.189970 0.171200 0.171200 -0.189970 0.171200 0.171200 0.000000 0.171200 -0.171200 0.000000 0.171200 -0.171200 -0.189970 0.171200 -0.171200 -0.189970 0.171200 -0.171200 0.000000 -0.171200 -0.171200 0.000000 -0.171200 -0.171200 -0.189970 0.171200 0.171200 -0.189970 0.171200 -0.171200 -0.189970 0.171200 0.171200 0.000000 0.171200 -0.171200 0.000000 " />
								<Normal vector="-0.577349 -0.577349 -0.577349 -0.577349 -0.577349 0.577349 -0.577349 0.577349 0.577349 -0.577349 0.577349 -0.577349 -0.577349 0.577349 -0.577349 -0.577349 0.577349 0.577349 0.577349 0.577349 0.577349 0.577349 0.577349 -0.577349 0.577349 0.577349 -0.577349 0.577349 0.577349 0.577349 0.577349 -0.577349 0.577349 0.577349 -0.577349 -0.577349 0.577349 -0.577349 -0.577349 0.577349 -0.577349 0.577349 -0.577349 -0.577349 0.577349 -0.577349 -0.577349 -0.577349 0.577349 0.577349 -0.577349 0.577349 -0.577349 -0.577349 0.577349 0.577349 0.577349 0.577349 -0.577349 0.577349 " />
								<TextureCoordinate point="0.0103 0.0265 0.2394 0.0265 0.2394 0.4527 0.0103 0.4527 0.0103 0.0265 0.2394 0.0265 0.2394 0.4527 0.0103 0.4527 0.0103 0.0265 0.2394 0.0265 0.2394 0.4527 0.0103 0.4527 0.0103 0.0265 0.2394 0.0265 0.2394 0.4527 0.0103 0.4527 0.2394 0.0265 0.2394 0.4527 0.0103 0.0265 0.0103 0.4527 " />
							</IndexedTriangleSet>
						</Shape>
					</Group>
				</Transform>
			</Transform>
			<Transform DEF="p1_TRANSFORM"
			           translation="-0.129235 0.000000 3.336276"
			           scale="1.000000 1.000000 1.000000"
			           rotation="0.000000 1.000000 0.000000 0.000000"
			           >
				<Transform DEF="p1_ifs_TRANSFORM"
				           translation="0.000000 0.000000 0.000000"
				           scale="1.000000 1.000000 1.000000"
				           rotation="0.000000 1.000000 0.000000 0.000000"
				           >
					<Group DEF="group_ME_p1">
						<Shape>
							<Appearance>
								<Material USE="MA_Body" />
							</Appearance>
							<IndexedTriangleSet solid="false"
							                    normalPerVertex="true"
							                    index="0 1 2 0 2 3 4 5 6 4 6 7 8 9 10 8 10 11 12 13 14 12 14 15 4 16 17 4 17 15 18 5 14 18 14 19 "
							                    >
								<Coordinate point="-1.266689 -1.384352 -1.700860 -1.288601 -1.384352 -0.016766 -1.288601 1.384352 -0.016766 -1.266689 1.384352 -1.700860 -1.266689 1.384352 -1.700860 -1.288601 1.384352 -0.016766 1.288601 1.384352 0.016766 1.310513 1.384352 -1.667327 1.310513 1.384352 -1.667327 1.288601 1.384352 0.016766 1.288601 -1.384352 0.016766 1.310513 -1.384352 -1.667327 1.310513 -1.384352 -1.667327 1.288601 -1.384352 0.016766 -1.288601 -1.384352 -0.016766 -1.266689 -1.384352 -1.700860 1.310513 1.384352 -1.667327 1.310513 -1.384352 -1.667327 1.288601 1.384352 0.016766 1.288601 -1.384352 0.016766 " />
								<Normal vector="-0.569781 -0.577349 -0.584796 -0.584796 -0.577349 0.569781 -0.584796 0.577349 0.569781 -0.569781 0.577349 -0.584796 -0.569781 0.577349 -0.584796 -0.584796 0.577349 0.569781 0.569781 0.577349 0.584796 0.584796 0.577349 -0.569781 0.584796 0.577349 -0.569781 0.569781 0.577349 0.584796 0.569781 -0.577349 0.584796 0.584796 -0.577349 -0.569781 0.584796 -0.577349 -0.569781 0.569781 -0.577349 0.584796 -0.584796 -0.577349 0.569781 -0.569781 -0.577349 -0.584796 0.584796 0.577349 -0.569781 0.584796 -0.577349 -0.569781 0.569781 0.577349 0.584796 0.569781 -0.577349 0.584796 " />
								<TextureCoordinate point="0.2681 0.0360 0.4901 0.0360 0.4901 0.2819 0.2681 0.2819 0.2681 0.0360 0.4901 0.0360 0.4901 0.2819 0.2681 0.2819 0.2681 0.0360 0.4901 0.0360 0.4901 0.2819 0.2681 0.2819 0.2681 0.0360 0.4901 0.0360 0.4901 0.2819 0.2681 0.2819 0.4901 0.0360 0.4901 0.2819 0.2681 0.0360 0.2681 0.2819 " />
							</IndexedTriangleSet>
						</Shape>
					</Group>
				</Transform>
				<Transform DEF="Cube_003_TRANSFORM"
				           translation="0.061045 0.000000 -1.329436"
				           scale="1.000000 1.000000 1.000000"
				           rotation="0.000000 1.000000 0.000000 0.000000"
				           >
					<Transform DEF="Cube_003_ifs_TRANSFORM"
					           translation="0.000000 0.000000 0.000000"
					           scale="1.000000 1.000000 1.000000"
					           rotation="0.000000 1.000000 0.000000 0.000000"
					           >
						<Group DEF="group_ME_Cube_003">
							<Shape>
								<Appearance>
									<Material USE="MA_Body" />
								</Appearance>
								<IndexedTriangleSet solid="false"
								                    normalPerVertex="true"
								                    index="0 1 2 0 2 3 4 5 6 4 6 7 8 9 10 8 10 11 12 13 14 12 14 15 4 16 17 4 17 15 18 5 14 18 14 19 "
								                    >
									<Coordinate point="-1.312958 -1.231724 -0.901722 -1.107536 -1.231724 0.205484 -1.107536 1.231724 0.205484 -1.312958 1.231724 -0.901722 -1.312958 1.231724 -0.901722 -1.107536 1.231724 0.205484 1.107536 1.231724 -0.205484 0.902113 1.231724 -1.312689 0.902113 1.231724 -1.312689 1.107536 1.231724 -0.205484 1.107536 -1.231724 -0.205484 0.902113 -1.231724 -1.312689 0.902113 -1.231724 -1.312689 1.107536 -1.231724 -0.205484 -1.107536 -1.231724 0.205484 -1.312958 -1.231724 -0.901722 0.902113 1.231724 -1.312689 0.902113 -1.231724 -1.312689 1.107536 1.231724 -0.205484 1.107536 -1.231724 -0.205484 " />
									<Normal vector="-0.672964 -0.577349 -0.462325 -0.462325 -0.577349 0.672964 -0.462325 0.577349 0.672964 -0.672964 0.577349 -0.462325 -0.672964 0.577349 -0.462325 -0.462325 0.577349 0.672964 0.672964 0.577349 0.462325 0.462325 0.577349 -0.672964 0.462325 0.577349 -0.672964 0.672964 0.577349 0.462325 0.672964 -0.577349 0.462325 0.462325 -0.577349 -0.672964 0.462325 -0.577349 -0.672964 0.672964 -0.577349 0.462325 -0.462325 -0.577349 0.672964 -0.672964 -0.577349 -0.462325 0.462325 0.577349 -0.672964 0.462325 -0.577349 -0.672964 0.672964 0.577349 0.462325 0.672964 -0.577349 0.462325 " />
									<TextureCoordinate point="0.2681 0.0360 0.4901 0.0360 0.4901 0.2819 0.2681 0.2819 0.2681 0.0360 0.4901 0.0360 0.4901 0.2819 0.2681 0.2819 0.2681 0.3833 0.4901 0.3833 0.4901 0.6291 0.2681 0.6291 0.2681 0.0360 0.4901 0.0360 0.4901 0.2819 0.2681 0.2819 0.4901 0.0360 0.4901 0.2819 0.2681 0.0360 0.2681 0.2819 " />
								</IndexedTriangleSet>
							</Shape>
						</Group>
					</Transform>
					<Transform DEF="Cube_004_TRANSFORM"
					           translation="-0.288243 0.000000 -0.834816"
					           scale="1.000000 1.000000 1.000000"
					           rotation="0.000000 1.000000 0.000000 0.000000"
					           >
						<Transform DEF="Cube_004_ifs_TRANSFORM"
						           translation="0.000000 0.000000 0.000000"
						           scale="1.000000 1.000000 1.000000"
						           rotation="0.000000 1.000000 0.000000 0.000000"
						           >
							<Group DEF="group_ME_Cube_004">
								<Shape>
									<Appearance>
										<Material USE="MA_Body" />
									</Appearance>
									<IndexedTriangleSet solid="false"
									                    normalPerVertex="true"
									                    index="0 1 2 0 2 3 4 5 6 4 6 7 8 9 10 8 10 11 12 13 14 12 14 15 4 16 17 4 17 15 18 5 14 18 14 19 "
									                    >
										<Coordinate point="-1.006784 -1.198959 -0.198300 -0.747951 -1.198959 0.351876 -0.747951 1.198959 0.351876 -1.006784 1.198959 -0.198300 -1.006784 1.198959 -0.198300 -0.747951 1.198959 0.351876 0.747951 1.198959 -0.351876 0.489119 1.198959 -0.902053 0.489119 1.198959 -0.902053 0.747951 1.198959 -0.351876 0.747951 -1.198959 -0.351876 0.489119 -1.198959 -0.902053 0.489119 -1.198959 -0.902053 0.747951 -1.198959 -0.351876 -0.747951 -1.198959 0.351876 -1.006784 -1.198959 -0.198300 0.489119 1.198959 -0.902053 0.489119 -1.198959 -0.902053 0.747951 1.198959 -0.351876 0.747951 -1.198959 -0.351876 " />
										<Normal vector="-0.768181 -0.577349 -0.276620 -0.276620 -0.577349 0.768181 -0.276620 0.577349 0.768181 -0.768181 0.577349 -0.276620 -0.768181 0.577349 -0.276620 -0.276620 0.577349 0.768181 0.768181 0.577349 0.276620 0.276620 0.577349 -0.768181 0.276620 0.577349 -0.768181 0.768181 0.577349 0.276620 0.768181 -0.577349 0.276620 0.276620 -0.577349 -0.768181 0.276620 -0.577349 -0.768181 0.768181 -0.577349 0.276620 -0.276620 -0.577349 0.768181 -0.768181 -0.577349 -0.276620 0.276620 0.577349 -0.768181 0.276620 -0.577349 -0.768181 0.768181 0.577349 0.276620 0.768181 -0.577349 0.276620 " />
										<TextureCoordinate point="0.2681 0.0360 0.4901 0.0360 0.4901 0.2819 0.2681 0.2819 0.2681 0.0360 0.4901 0.0360 0.4901 0.2819 0.2681 0.2819 0.2681 0.3400 0.4901 0.3400 0.4901 0.6662 0.2681 0.6662 0.2681 0.0360 0.4901 0.0360 0.4901 0.2819 0.2681 0.2819 0.4901 0.0360 0.4901 0.2819 0.2681 0.0360 0.2681 0.2819 " />
									</IndexedTriangleSet>
								</Shape>
							</Group>
						</Transform>
						<Transform DEF="Cube_005_TRANSFORM"
						           translation="-0.261883 0.000000 -0.229899"
						           scale="1.000000 1.000000 1.000000"
						           rotation="0.000000 1.000000 0.000000 0.000000"
						           >
							<Transform DEF="Cube_005_ifs_TRANSFORM"
							           translation="0.000000 0.000000 0.000000"
							           scale="1.000000 1.000000 1.000000"
							           rotation="0.000000 1.000000 0.000000 0.000000"
							           >
								<Group DEF="group_ME_Cube_005">
									<Shape>
										<Appearance>
											<Material USE="MA_Body" />
										</Appearance>
										<IndexedTriangleSet solid="false"
										                    normalPerVertex="true"
										                    index="0 1 2 0 2 3 4 5 6 4 6 7 8 9 10 8 10 11 12 13 14 12 14 15 4 16 17 4 17 15 18 5 14 18 14 19 "
										                    >
											<Coordinate point="-0.871338 -1.109941 -0.086479 -0.349347 -1.109941 0.385976 -0.349347 1.109941 0.385976 -0.871338 1.109941 -0.086479 -0.871338 1.109941 -0.086479 -0.349347 1.109941 0.385976 0.349347 1.109941 -0.385976 -0.172644 1.109941 -0.858431 -0.172644 1.109941 -0.858431 0.349347 1.109941 -0.385976 0.349347 -1.109941 -0.385976 -0.172644 -1.109941 -0.858431 -0.172644 -1.109941 -0.858431 0.349347 -1.109941 -0.385976 -0.349347 -1.109941 0.385976 -0.871338 -1.109941 -0.086479 -0.172644 1.109941 -0.858431 -0.172644 -1.109941 -0.858431 0.349347 1.109941 -0.385976 0.349347 -1.109941 -0.385976 " />
											<Normal vector="-0.815485 -0.577349 0.040620 0.040620 -0.577349 0.815485 0.040620 0.577349 0.815485 -0.815485 0.577349 0.040620 -0.815485 0.577349 0.040620 0.040620 0.577349 0.815485 0.815485 0.577349 -0.040620 -0.040620 0.577349 -0.815485 -0.040620 0.577349 -0.815485 0.815485 0.577349 -0.040620 0.815485 -0.577349 -0.040620 -0.040620 -0.577349 -0.815485 -0.040620 -0.577349 -0.815485 0.815485 -0.577349 -0.040620 0.040620 -0.577349 0.815485 -0.815485 -0.577349 0.040620 -0.040620 0.577349 -0.815485 -0.040620 -0.577349 -0.815485 0.815485 0.577349 -0.040620 0.815485 -0.577349 -0.040620 " />
											<TextureCoordinate point="0.2681 0.0360 0.4901 0.0360 0.4901 0.2819 0.2681 0.2819 0.2681 0.0360 0.4901 0.0360 0.4901 0.2819 0.2681 0.2819 0.2681 0.3400 0.4901 0.3400 0.4901 0.6662 0.2681 0.6662 0.2681 0.0360 0.4901 0.0360 0.4901 0.2819 0.2681 0.2819 0.4901 0.0360 0.4901 0.2819 0.2681 0.0360 0.2681 0.2819 " />
										</IndexedTriangleSet>
									</Shape>
								</Group>
							</Transform>
							<Transform DEF="Cube_006_TRANSFORM"
							           translation="-0.340974 0.000000 -0.366899"
							           scale="1.000000 1.000000 1.000000"
							           rotation="0.000000 1.000000 0.000000 0.000000"
							           >
								<Transform DEF="Cube_006_ifs_TRANSFORM"
								           translation="0.000000 0.000000 0.000000"
								           scale="1.000000 1.000000 1.000000"
								           rotation="0.000000 1.000000 0.000000 0.000000"
								           >
									<Group DEF="group_ME_Cube_006">
										<Shape>
											<Appearance>
												<Material USE="MA_Body" />
											</Appearance>
											<IndexedTriangleSet solid="false"
											                    normalPerVertex="true"
											                    index="0 1 2 0 2 3 4 5 6 4 6 7 8 9 10 8 10 11 12 13 14 12 14 15 4 16 17 4 17 15 18 5 14 18 14 19 "
											                    >
												<Coordinate point="-0.986591 -0.851020 0.216122 -0.027557 -0.851020 0.303265 -0.027557 0.851020 0.303265 -0.986591 0.851020 0.216122 -0.986591 0.851020 0.216122 -0.027557 0.851020 0.303265 0.027557 0.851020 -0.303265 -0.931478 0.851020 -0.390409 -0.931478 0.851020 -0.390409 0.027557 0.851020 -0.303265 0.027557 -0.851020 -0.303265 -0.931478 -0.851020 -0.390409 -0.931478 -0.851020 -0.390409 0.027557 -0.851020 -0.303265 -0.027557 -0.851020 0.303265 -0.986591 -0.851020 0.216122 -0.931478 0.851020 -0.390409 -0.931478 -0.851020 -0.390409 0.027557 0.851020 -0.303265 0.027557 -0.851020 -0.303265 " />
												<Normal vector="-0.627216 -0.577349 0.522721 0.522721 -0.577349 0.627216 0.522721 0.577349 0.627216 -0.627216 0.577349 0.522721 -0.627216 0.577349 0.522721 0.522721 0.577349 0.627216 0.627216 0.577349 -0.522721 -0.522721 0.577349 -0.627216 -0.522721 0.577349 -0.627216 0.627216 0.577349 -0.522721 0.627216 -0.577349 -0.522721 -0.522721 -0.577349 -0.627216 -0.522721 -0.577349 -0.627216 0.627216 -0.577349 -0.522721 0.522721 -0.577349 0.627216 -0.627216 -0.577349 0.522721 -0.522721 0.577349 -0.627216 -0.522721 -0.577349 -0.627216 0.627216 0.577349 -0.522721 0.627216 -0.577349 -0.522721 " />
												<TextureCoordinate point="0.2681 0.0360 0.4901 0.0360 0.4901 0.2819 0.2681 0.2819 0.2681 0.0360 0.4901 0.0360 0.4901 0.2819 0.2681 0.2819 0.2681 0.3400 0.4901 0.3400 0.4901 0.6662 0.2681 0.6662 0.2681 0.0360 0.4901 0.0360 0.4901 0.2819 0.2681 0.2819 0.4901 0.0360 0.4901 0.2819 0.2681 0.0360 0.2681 0.2819 " />
											</IndexedTriangleSet>
										</Shape>
									</Group>
								</Transform>
							</Transform>
						</Transform>
					</Transform>
				</Transform>
			</Transform>
			<Transform DEF="p2_TRANSFORM"
			           translation="0.904473 0.000000 3.349338"
			           scale="1.000000 1.000000 1.000000"
			           rotation="0.000000 1.000000 0.000000 0.000000"
			           >
				<Transform DEF="p2_ifs_TRANSFORM"
				           translation="0.000000 0.000000 0.000000"
				           scale="1.000000 1.000000 1.000000"
				           rotation="0.000000 1.000000 0.000000 0.000000"
				           >
					<Group DEF="group_ME_p2">
						<Shape>
							<Appearance>
								<Material USE="MA_Body" />
							</Appearance>
							<IndexedTriangleSet solid="false"
							                    normalPerVertex="true"
							                    index="0 1 2 0 2 3 4 5 6 4 6 7 8 9 10 8 10 11 12 13 14 12 14 15 4 16 17 4 17 15 18 5 14 18 14 19 "
							                    >
								<Coordinate point="-0.003050 -0.630949 -0.982877 -0.267474 -0.630949 -0.078177 -0.267474 0.630949 -0.078177 -0.003050 0.630949 -0.982877 -0.003050 0.630949 -0.982877 -0.267474 0.630949 -0.078177 0.267474 0.630949 0.078177 0.531898 0.630949 -0.826524 0.531898 0.630949 -0.826524 0.267474 0.630949 0.078177 0.267474 -0.630949 0.078177 0.531898 -0.630949 -0.826524 0.531898 -0.630949 -0.826524 0.267474 -0.630949 0.078177 -0.267474 -0.630949 -0.078177 -0.003050 -0.630949 -0.982877 0.531898 0.630949 -0.826524 0.531898 -0.630949 -0.826524 0.267474 0.630949 0.078177 0.267474 -0.630949 0.078177 " />
								<Normal vector="-0.392193 -0.577349 -0.716117 -0.716117 -0.577349 0.392193 -0.716117 0.577349 0.392193 -0.392193 0.577349 -0.716117 -0.392193 0.577349 -0.716117 -0.716117 0.577349 0.392193 0.392193 0.577349 0.716117 0.716117 0.577349 -0.392193 0.716117 0.577349 -0.392193 0.392193 0.577349 0.716117 0.392193 -0.577349 0.716117 0.716117 -0.577349 -0.392193 0.716117 -0.577349 -0.392193 0.392193 -0.577349 0.716117 -0.716117 -0.577349 0.392193 -0.392193 -0.577349 -0.716117 0.716117 0.577349 -0.392193 0.716117 -0.577349 -0.392193 0.392193 0.577349 0.716117 0.392193 -0.577349 0.716117 " />
								<TextureCoordinate point="0.2681 0.0360 0.4901 0.0360 0.4901 0.2819 0.2681 0.2819 0.2681 0.0360 0.4901 0.0360 0.4901 0.2819 0.2681 0.2819 0.2681 0.0360 0.4901 0.0360 0.4901 0.2819 0.2681 0.2819 0.2681 0.0360 0.4901 0.0360 0.4901 0.2819 0.2681 0.2819 0.4901 0.0360 0.4901 0.2819 0.2681 0.0360 0.2681 0.2819 " />
							</IndexedTriangleSet>
						</Shape>
					</Group>
				</Transform>
				<Transform DEF="Cube_008_TRANSFORM"
				           translation="0.326673 0.000000 -0.777806"
				           scale="1.000000 1.000000 1.000000"
				           rotation="0.000000 1.000000 0.000000 0.000000"
				           >
					<Transform DEF="Cube_008_ifs_TRANSFORM"
					           translation="0.000000 0.000000 0.000000"
					           scale="1.000000 1.000000 1.000000"
					           rotation="0.000000 1.000000 0.000000 0.000000"
					           >
						<Group DEF="group_ME_Cube_008">
							<Shape>
								<Appearance>
									<Material USE="MA_Body" />
								</Appearance>
								<IndexedTriangleSet solid="false"
								                    normalPerVertex="true"
								                    index="0 1 2 0 2 3 4 5 6 4 6 7 8 9 10 8 10 11 12 13 14 12 14 15 4 16 17 4 17 15 18 5 14 18 14 19 "
								                    >
									<Coordinate point="-0.329996 -0.740856 -1.021173 -0.237559 -0.740856 0.021069 -0.237559 0.740856 0.021069 -0.329996 0.740856 -1.021173 -0.329996 0.740856 -1.021173 -0.237559 0.740856 0.021069 0.237559 0.740856 -0.021069 0.145121 0.740856 -1.063311 0.145121 0.740856 -1.063311 0.237559 0.740856 -0.021069 0.237559 -0.740856 -0.021069 0.145121 -0.740856 -1.063311 0.145121 -0.740856 -1.063311 0.237559 -0.740856 -0.021069 -0.237559 -0.740856 0.021069 -0.329996 -0.740856 -1.021173 0.145121 0.740856 -1.063311 0.145121 -0.740856 -1.063311 0.237559 0.740856 -0.021069 0.237559 -0.740856 -0.021069 " />
									<Normal vector="-0.626087 -0.577349 -0.524064 -0.524064 -0.577349 0.626087 -0.524064 0.577349 0.626087 -0.626087 0.577349 -0.524064 -0.626087 0.577349 -0.524064 -0.524064 0.577349 0.626087 0.626087 0.577349 0.524064 0.524064 0.577349 -0.626087 0.524064 0.577349 -0.626087 0.626087 0.577349 0.524064 0.626087 -0.577349 0.524064 0.524064 -0.577349 -0.626087 0.524064 -0.577349 -0.626087 0.626087 -0.577349 0.524064 -0.524064 -0.577349 0.626087 -0.626087 -0.577349 -0.524064 0.524064 0.577349 -0.626087 0.524064 -0.577349 -0.626087 0.626087 0.577349 0.524064 0.626087 -0.577349 0.524064 " />
									<TextureCoordinate point="0.2681 0.0360 0.4901 0.0360 0.4901 0.2819 0.2681 0.2819 0.2681 0.0360 0.4901 0.0360 0.4901 0.2819 0.2681 0.2819 0.2681 0.0360 0.4901 0.0360 0.4901 0.2819 0.2681 0.2819 0.2681 0.0360 0.4901 0.0360 0.4901 0.2819 0.2681 0.2819 0.4901 0.0360 0.4901 0.2819 0.2681 0.0360 0.2681 0.2819 " />
								</IndexedTriangleSet>
							</Shape>
						</Group>
					</Transform>
					<Transform DEF="Cube_009_TRANSFORM"
					           translation="-0.539004 0.000000 -1.196779"
					           scale="1.000000 1.000000 1.000000"
					           rotation="0.000000 1.000000 0.000000 0.000000"
					           >
						<Transform DEF="Cube_009_ifs_TRANSFORM"
						           translation="0.000000 0.000000 0.000000"
						           scale="1.000000 1.000000 1.000000"
						           rotation="0.000000 1.000000 0.000000 0.000000"
						           >
							<Group DEF="group_ME_Cube_009">
								<Shape>
									<Appearance>
										<Material USE="MA_Body" />
									</Appearance>
									<IndexedTriangleSet solid="false"
									                    normalPerVertex="true"
									                    index="0 1 2 0 2 3 4 5 6 4 6 7 8 9 10 8 10 11 12 13 14 12 14 15 4 16 17 4 17 15 18 5 14 18 14 19 "
									                    >
										<Coordinate point="-0.180320 -0.937155 -0.951477 -0.470389 -0.937155 -0.175936 -0.470389 0.937155 -0.175936 -0.180320 0.937155 -0.951477 -0.180320 0.937155 -0.951477 -0.470389 0.937155 -0.175936 0.470389 0.937155 0.175936 0.760458 0.937155 -0.599606 0.760458 0.937155 -0.599606 0.470389 0.937155 0.175936 0.470389 -0.937155 0.175936 0.760458 -0.937155 -0.599606 0.760458 -0.937155 -0.599606 0.470389 -0.937155 0.175936 -0.470389 -0.937155 -0.175936 -0.180320 -0.937155 -0.951477 0.760458 0.937155 -0.599606 0.760458 -0.937155 -0.599606 0.470389 0.937155 0.175936 0.470389 -0.937155 0.175936 " />
										<Normal vector="-0.338481 -0.577349 -0.743004 -0.743004 -0.577349 0.338481 -0.743004 0.577349 0.338481 -0.338481 0.577349 -0.743004 -0.338481 0.577349 -0.743004 -0.743004 0.577349 0.338481 0.338481 0.577349 0.743004 0.743004 0.577349 -0.338481 0.743004 0.577349 -0.338481 0.338481 0.577349 0.743004 0.338481 -0.577349 0.743004 0.743004 -0.577349 -0.338481 0.743004 -0.577349 -0.338481 0.338481 -0.577349 0.743004 -0.743004 -0.577349 0.338481 -0.338481 -0.577349 -0.743004 0.743004 0.577349 -0.338481 0.743004 -0.577349 -0.338481 0.338481 0.577349 0.743004 0.338481 -0.577349 0.743004 " />
										<TextureCoordinate point="0.2681 0.3400 0.4901 0.3400 0.4901 0.6662 0.2681 0.6662 0.2681 0.0360 0.4901 0.0360 0.4901 0.2819 0.2681 0.2819 0.2681 0.0360 0.4901 0.0360 0.4901 0.2819 0.2681 0.2819 0.2681 0.0360 0.4901 0.0360 0.4901 0.2819 0.2681 0.2819 0.4901 0.0360 0.4901 0.2819 0.2681 0.0360 0.2681 0.2819 " />
									</IndexedTriangleSet>
								</Shape>
							</Group>
						</Transform>
						<Transform DEF="Cube_010_TRANSFORM"
						           translation="0.000493 0.000000 -0.645230"
						           scale="1.000000 1.000000 1.000000"
						           rotation="0.000000 1.000000 0.000000 0.000000"
						           >
							<Transform DEF="Cube_010_ifs_TRANSFORM"
							           translation="0.000000 0.000000 0.000000"
							           scale="1.000000 1.000000 1.000000"
							           rotation="0.000000 1.000000 0.000000 0.000000"
							           >
								<Group DEF="group_ME_Cube_010">
									<Shape>
										<Appearance>
											<Material USE="MA_Body" />
										</Appearance>
										<IndexedTriangleSet solid="false"
										                    normalPerVertex="true"
										                    index="0 1 2 0 2 3 4 5 6 4 6 7 8 9 10 8 10 11 12 13 14 12 14 15 4 16 17 4 17 15 18 5 14 18 14 19 "
										                    >
											<Coordinate point="0.627303 -1.041442 -0.580553 -0.111932 -1.041442 -0.329216 -0.111932 1.041442 -0.329216 0.627303 1.041442 -0.580553 0.627303 1.041442 -0.580553 -0.111932 1.041442 -0.329216 0.111932 1.041442 0.329216 0.851167 1.041442 0.077879 0.851167 1.041442 0.077879 0.111932 1.041442 0.329216 0.111932 -1.041442 0.329216 0.851167 -1.041442 0.077879 0.851167 -1.041442 0.077879 0.111932 -1.041442 0.329216 -0.111932 -1.041442 -0.329216 0.627303 -1.041442 -0.580553 0.851167 1.041442 0.077879 0.851167 -1.041442 0.077879 0.111932 1.041442 0.329216 0.111932 -1.041442 0.329216 " />
											<Normal vector="0.360759 -0.577349 -0.732444 -0.732444 -0.577349 -0.360759 -0.732444 0.577349 -0.360759 0.360759 0.577349 -0.732444 0.360759 0.577349 -0.732444 -0.732444 0.577349 -0.360759 -0.360759 0.577349 0.732444 0.732444 0.577349 0.360759 0.732444 0.577349 0.360759 -0.360759 0.577349 0.732444 -0.360759 -0.577349 0.732444 0.732444 -0.577349 0.360759 0.732444 -0.577349 0.360759 -0.360759 -0.577349 0.732444 -0.732444 -0.577349 -0.360759 0.360759 -0.577349 -0.732444 0.732444 0.577349 0.360759 0.732444 -0.577349 0.360759 -0.360759 0.577349 0.732444 -0.360759 -0.577349 0.732444 " />
											<TextureCoordinate point="0.2681 0.3400 0.4901 0.3400 0.4901 0.6662 0.2681 0.6662 0.2681 0.0360 0.4901 0.0360 0.4901 0.2819 0.2681 0.2819 0.2681 0.0360 0.4901 0.0360 0.4901 0.2819 0.2681 0.2819 0.2681 0.0360 0.4901 0.0360 0.4901 0.2819 0.2681 0.2819 0.4901 0.0360 0.4901 0.2819 0.2681 0.0360 0.2681 0.2819 " />
										</IndexedTriangleSet>
									</Shape>
								</Group>
							</Transform>
							<Transform DEF="Cube_011_TRANSFORM"
							           translation="0.571622 0.000000 -0.277348"
							           scale="1.000000 1.000000 1.000000"
							           rotation="0.000000 1.000000 0.000000 0.000000"
							           >
								<Transform DEF="Cube_011_ifs_TRANSFORM"
								           translation="0.000000 0.000000 0.000000"
								           scale="1.000000 1.000000 1.000000"
								           rotation="0.000000 1.000000 0.000000 0.000000"
								           >
									<Group DEF="group_ME_Cube_011">
										<Shape>
											<Appearance>
												<Material USE="MA_Body" />
											</Appearance>
											<IndexedTriangleSet solid="false"
											                    normalPerVertex="true"
											                    index="0 1 2 0 2 3 4 5 6 4 6 7 8 9 10 8 10 11 12 13 14 12 14 15 4 16 17 4 17 15 18 5 14 18 14 19 "
											                    >
												<Coordinate point="0.714812 -0.701032 -0.056672 0.039067 -0.701032 -0.193267 0.039067 0.701032 -0.193267 0.714812 0.701032 -0.056672 0.714812 0.701032 -0.056672 0.039067 0.701032 -0.193267 -0.039067 0.701032 0.193267 0.636679 0.701032 0.329862 0.636679 0.701032 0.329862 -0.039067 0.701032 0.193267 -0.039067 -0.701032 0.193267 0.636679 -0.701032 0.329862 0.636679 -0.701032 0.329862 -0.039067 -0.701032 0.193267 0.039067 -0.701032 -0.193267 0.714812 -0.701032 -0.056672 0.636679 0.701032 0.329862 0.636679 -0.701032 0.329862 -0.039067 0.701032 0.193267 -0.039067 -0.701032 0.193267 " />
												<Normal vector="0.680288 -0.577349 -0.451491 -0.451491 -0.577349 -0.680288 -0.451491 0.577349 -0.680288 0.680288 0.577349 -0.451491 0.680288 0.577349 -0.451491 -0.451491 0.577349 -0.680288 -0.680288 0.577349 0.451491 0.451491 0.577349 0.680288 0.451491 0.577349 0.680288 -0.680288 0.577349 0.451491 -0.680288 -0.577349 0.451491 0.451491 -0.577349 0.680288 0.451491 -0.577349 0.680288 -0.680288 -0.577349 0.451491 -0.451491 -0.577349 -0.680288 0.680288 -0.577349 -0.451491 0.451491 0.577349 0.680288 0.451491 -0.577349 0.680288 -0.680288 0.577349 0.451491 -0.680288 -0.577349 0.451491 " />
												<TextureCoordinate point="0.2681 0.3400 0.4901 0.3400 0.4901 0.6662 0.2681 0.6662 0.2681 0.0360 0.4901 0.0360 0.4901 0.2819 0.2681 0.2819 0.2681 0.0360 0.4901 0.0360 0.4901 0.2819 0.2681 0.2819 0.2681 0.0360 0.4901 0.0360 0.4901 0.2819 0.2681 0.2819 0.4901 0.0360 0.4901 0.2819 0.2681 0.0360 0.2681 0.2819 " />
											</IndexedTriangleSet>
										</Shape>
									</Group>
								</Transform>
							</Transform>
						</Transform>
					</Transform>
				</Transform>
			</Transform>
			<Transform DEF="leaf_TRANSFORM"
			           translation="0.000000 0.107696 3.287869"
			           scale="1.000000 1.000000 1.000000"
			           rotation="0.000000 1.000000 0.000000 0.000000"
			           >
				<Transform DEF="leaf_ifs_TRANSFORM"
				           translation="0.000000 0.000000 0.000000"
				           scale="1.000000 1.000000 1.000000"
				           rotation="0.000000 1.000000 0.000000 0.000000"
				           >
					<Group DEF="group_ME_leaf">
						<Shape>
							<Appearance>
								<Material USE="MA_Body" />
							</Appearance>
							<IndexedTriangleSet solid="false"
							                    normalPerVertex="true"
							                    index="0 1 2 0 2 3 4 5 6 4 6 7 8 9 10 8 10 11 12 13 14 12 14 15 4 16 17 4 17 15 18 5 14 18 14 19 "
							                    >
								<Coordinate point="0.000000 -1.445063 0.000000 0.000000 -1.445063 0.387888 -1.445063 0.000000 0.387888 -1.445063 0.000000 0.000000 -1.445063 0.000000 0.000000 -1.445063 0.000000 0.387888 0.000000 1.445063 0.387888 0.000000 1.445063 0.000000 0.000000 1.445063 0.000000 0.000000 1.445063 0.387888 1.445063 0.000000 0.387888 1.445063 0.000000 0.000000 1.445063 0.000000 0.000000 1.445063 0.000000 0.387888 0.000000 -1.445063 0.387888 0.000000 -1.445063 0.000000 0.000000 1.445063 0.000000 1.445063 0.000000 0.000000 0.000000 1.445063 0.387888 1.445063 0.000000 0.387888 " />
								<Normal vector="0.000000 -0.816492 -0.577349 0.000000 -0.816492 0.577349 -0.816492 0.000000 0.577349 -0.816492 0.000000 -0.577349 -0.816492 0.000000 -0.577349 -0.816492 0.000000 0.577349 0.000000 0.816492 0.577349 0.000000 0.816492 -0.577349 0.000000 0.816492 -0.577349 0.000000 0.816492 0.577349 0.816492 0.000000 0.577349 0.816492 0.000000 -0.577349 0.816492 0.000000 -0.577349 0.816492 0.000000 0.577349 0.000000 -0.816492 0.577349 0.000000 -0.816492 -0.577349 0.000000 0.816492 -0.577349 0.816492 0.000000 -0.577349 0.000000 0.816492 0.577349 0.816492 0.000000 0.577349 " />
								<TextureCoordinate point="0.2681 0.7202 0.4838 0.7202 0.4838 0.9619 0.2681 0.9619 0.2681 0.7202 0.4838 0.7202 0.4838 0.9619 0.2681 0.9619 0.2681 0.7202 0.4838 0.7202 0.4838 0.9619 0.2681 0.9619 0.2681 0.7202 0.4838 0.7202 0.4838 0.9619 0.2681 0.9619 0.4838 0.7202 0.4838 0.9619 0.2681 0.7202 0.2681 0.9619 " />
							</IndexedTriangleSet>
						</Shape>
					</Group>
				</Transform>
				<Transform DEF="Cube_013_TRANSFORM"
				           translation="0.000000 -0.642131 0.185197"
				           scale="1.000000 1.000000 1.000000"
				           rotation="0.000000 1.000000 0.000000 0.000000"
				           >
					<Transform DEF="Cube_013_ifs_TRANSFORM"
					           translation="0.000000 0.000000 0.000000"
					           scale="1.000000 1.000000 1.000000"
					           rotation="0.000000 1.000000 0.000000 0.000000"
					           >
						<Group DEF="group_ME_Cube_013">
							<Shape>
								<Appearance>
									<Material USE="MA_Body" />
								</Appearance>
								<IndexedTriangleSet solid="false"
								                    normalPerVertex="true"
								                    index="0 1 2 0 2 3 4 5 6 4 6 7 8 9 10 8 10 11 12 13 14 12 14 15 4 16 17 4 17 15 18 5 14 18 14 19 "
								                    >
									<Coordinate point="-0.639984 -1.471265 -0.178529 -0.639984 -1.481672 0.033804 -0.639984 -0.005203 0.106167 -0.639984 0.005203 -0.106167 -0.639984 0.005203 -0.106167 -0.639984 -0.005203 0.106167 0.639984 -0.005203 0.106167 0.639984 0.005203 -0.106167 0.639984 0.005203 -0.106167 0.639984 -0.005203 0.106167 0.639984 -1.481672 0.033804 0.639984 -1.471265 -0.178529 0.639984 -1.471265 -0.178529 0.639984 -1.481672 0.033804 -0.639984 -1.481672 0.033804 -0.639984 -1.471265 -0.178529 0.639984 0.005203 -0.106167 0.639984 -1.471265 -0.178529 0.639984 -0.005203 0.106167 0.639984 -1.481672 0.033804 " />
									<Normal vector="-0.577349 -0.548387 -0.604907 -0.577349 -0.604907 0.548387 -0.577349 0.548387 0.604907 -0.577349 0.604907 -0.548387 -0.577349 0.604907 -0.548387 -0.577349 0.548387 0.604907 0.577349 0.548387 0.604907 0.577349 0.604907 -0.548387 0.577349 0.604907 -0.548387 0.577349 0.548387 0.604907 0.577349 -0.604907 0.548387 0.577349 -0.548387 -0.604907 0.577349 -0.548387 -0.604907 0.577349 -0.604907 0.548387 -0.577349 -0.604907 0.548387 -0.577349 -0.548387 -0.604907 0.577349 0.604907 -0.548387 0.577349 -0.548387 -0.604907 0.577349 0.548387 0.604907 0.577349 -0.604907 0.548387 " />
									<TextureCoordinate point="0.2681 0.7202 0.4838 0.7202 0.4838 0.9619 0.2681 0.9619 0.2681 0.7202 0.4838 0.7202 0.4838 0.9619 0.2681 0.9619 0.2681 0.7202 0.4838 0.7202 0.4838 0.9619 0.2681 0.9619 0.2681 0.7202 0.4838 0.7202 0.4838 0.9619 0.2681 0.9619 0.4838 0.7202 0.4838 0.9619 0.2681 0.7202 0.2681 0.9619 " />
								</IndexedTriangleSet>
							</Shape>
						</Group>
					</Transform>
				</Transform>
				<Transform DEF="Cube_014_TRANSFORM"
				           translation="0.615196 -0.317123 0.190521"
				           scale="1.000000 1.000000 1.000000"
				           rotation="0.000000 1.000000 0.000000 0.000000"
				           >
					<Transform DEF="Cube_014_ifs_TRANSFORM"
					           translation="0.000000 0.000000 0.000000"
					           scale="1.000000 1.000000 1.000000"
					           rotation="0.000000 1.000000 0.000000 0.000000"
					           >
						<Group DEF="group_ME_Cube_014">
							<Shape>
								<Appearance>
									<Material USE="MA_Body" />
								</Appearance>
								<IndexedTriangleSet solid="false"
								                    normalPerVertex="true"
								                    index="0 1 2 0 2 3 4 5 6 4 6 7 8 9 10 8 10 11 12 13 14 12 14 15 4 16 17 4 17 15 18 5 14 18 14 19 "
								                    >
									<Coordinate point="1.075535 -0.969513 -0.184098 1.086497 -0.973328 0.052726 -0.179283 -0.532828 0.118412 -0.190245 -0.529013 -0.118412 -0.190245 -0.529013 -0.118412 -0.179283 -0.532828 0.118412 0.190245 0.529013 0.118412 0.179283 0.532828 -0.118412 0.179283 0.532828 -0.118412 0.190245 0.529013 0.118412 1.456025 0.088513 0.052726 1.445063 0.092328 -0.184098 1.445063 0.092328 -0.184098 1.456025 0.088513 0.052726 1.086497 -0.973328 0.052726 1.075535 -0.969513 -0.184098 0.179283 0.532828 -0.118412 1.445063 0.092328 -0.184098 0.190245 0.529013 0.118412 1.456025 0.088513 0.052726 " />
									<Normal vector="0.328166 -0.725516 -0.604907 0.381542 -0.744072 0.548387 -0.707663 -0.365032 0.604907 -0.761071 -0.346446 -0.548387 -0.761071 -0.346446 -0.548387 -0.707663 -0.365032 0.604907 -0.328166 0.725516 0.604907 -0.381542 0.744072 -0.548387 -0.381542 0.744072 -0.548387 -0.328166 0.725516 0.604907 0.761071 0.346446 0.548387 0.707663 0.365032 -0.604907 0.707663 0.365032 -0.604907 0.761071 0.346446 0.548387 0.381542 -0.744072 0.548387 0.328166 -0.725516 -0.604907 -0.381542 0.744072 -0.548387 0.707663 0.365032 -0.604907 -0.328166 0.725516 0.604907 0.761071 0.346446 0.548387 " />
									<TextureCoordinate point="0.2681 0.7202 0.4838 0.7202 0.4838 0.9619 0.2681 0.9619 0.2681 0.7202 0.4838 0.7202 0.4838 0.9619 0.2681 0.9619 0.2681 0.7202 0.4838 0.7202 0.4838 0.9619 0.2681 0.9619 0.2681 0.7202 0.4838 0.7202 0.4838 0.9619 0.2681 0.9619 0.4838 0.7202 0.4838 0.9619 0.2681 0.7202 0.2681 0.9619 " />
								</IndexedTriangleSet>
							</Shape>
						</Group>
					</Transform>
				</Transform>
				<Transform DEF="Cube_015_TRANSFORM"
				           translation="0.568169 0.563790 0.190521"
				           scale="1.000000 1.000000 1.000000"
				           rotation="0.000000 1.000000 0.000000 0.000000"
				           >
					<Transform DEF="Cube_015_ifs_TRANSFORM"
					           translation="0.000000 0.000000 0.000000"
					           scale="1.000000 1.000000 1.000000"
					           rotation="0.000000 1.000000 0.000000 0.000000"
					           >
						<Group DEF="group_ME_Cube_015">
							<Shape>
								<Appearance>
									<Material USE="MA_Body" />
								</Appearance>
								<IndexedTriangleSet solid="false"
								                    normalPerVertex="true"
								                    index="0 1 2 0 2 3 4 5 6 4 6 7 8 9 10 8 10 11 12 13 14 12 14 15 4 16 17 4 17 15 18 5 14 18 14 19 "
								                    >
									<Coordinate point="0.989236 0.661769 -0.174183 0.996422 0.670884 0.062640 0.428402 -0.255954 0.115548 0.421215 -0.265068 -0.121276 0.421215 -0.265068 -0.121276 0.428402 -0.255954 0.115548 -0.421215 0.265068 0.121276 -0.428402 0.255954 -0.115548 -0.428402 0.255954 -0.115548 -0.421215 0.265068 0.121276 0.146805 1.191906 0.068368 0.139619 1.182791 -0.168456 0.139619 1.182791 -0.168456 0.146805 1.191906 0.068368 0.996422 0.670884 0.062640 0.989236 0.661769 -0.174183 -0.428402 0.255954 -0.115548 0.139619 1.182791 -0.168456 -0.421215 0.265068 0.121276 0.146805 1.191906 0.068368 " />
									<Normal vector="0.775994 0.167638 -0.608020 0.810968 0.212043 0.545244 0.208319 -0.771294 0.601398 0.173315 -0.815668 -0.551897 0.173315 -0.815668 -0.551897 0.208319 -0.771294 0.601398 -0.775994 -0.167638 0.608020 -0.810968 -0.212043 -0.545244 -0.810968 -0.212043 -0.545244 -0.775994 -0.167638 0.608020 -0.173315 0.815668 0.551897 -0.208319 0.771294 -0.601398 -0.208319 0.771294 -0.601398 -0.173315 0.815668 0.551897 0.810968 0.212043 0.545244 0.775994 0.167638 -0.608020 -0.810968 -0.212043 -0.545244 -0.208319 0.771294 -0.601398 -0.775994 -0.167638 0.608020 -0.173315 0.815668 0.551897 " />
									<TextureCoordinate point="0.2681 0.7202 0.4838 0.7202 0.4838 0.9619 0.2681 0.9619 0.2681 0.7202 0.4838 0.7202 0.4838 0.9619 0.2681 0.9619 0.2681 0.7202 0.4838 0.7202 0.4838 0.9619 0.2681 0.9619 0.2681 0.7202 0.4838 0.7202 0.4838 0.9619 0.2681 0.9619 0.4838 0.7202 0.4838 0.9619 0.2681 0.7202 0.2681 0.9619 " />
								</IndexedTriangleSet>
							</Shape>
						</Group>
					</Transform>
				</Transform>
				<Transform DEF="Cube_001_TRANSFORM"
				           translation="-0.615196 -0.317123 0.190521"
				           scale="1.000000 1.000000 1.000000"
				           rotation="0.000000 1.000000 0.000000 0.000000"
				           >
					<Transform DEF="Cube_001_ifs_TRANSFORM"
					           translation="0.000000 0.000000 0.000000"
					           scale="1.000000 1.000000 1.000000"
					           rotation="0.000000 1.000000 0.000000 0.000000"
					           >
						<Group DEF="group_ME_Cube_022">
							<Shape>
								<Appearance>
									<Material USE="MA_Body" />
								</Appearance>
								<IndexedTriangleSet solid="false"
								                    normalPerVertex="true"
								                    index="0 1 2 0 2 3 4 5 6 4 6 7 8 9 10 8 10 11 12 13 14 12 14 15 4 13 16 4 16 17 18 19 14 18 14 7 "
								                    >
									<Coordinate point="-1.075535 -0.969513 -0.184098 0.190245 -0.529013 -0.118412 0.179283 -0.532828 0.118412 -1.086497 -0.973328 0.052726 0.190245 -0.529013 -0.118412 -0.179283 0.532828 -0.118412 -0.190245 0.529013 0.118412 0.179283 -0.532828 0.118412 -0.179283 0.532828 -0.118412 -1.445063 0.092328 -0.184098 -1.456025 0.088513 0.052726 -0.190245 0.529013 0.118412 -1.445063 0.092328 -0.184098 -1.075535 -0.969513 -0.184098 -1.086497 -0.973328 0.052726 -1.456025 0.088513 0.052726 -1.445063 0.092328 -0.184098 -0.179283 0.532828 -0.118412 -0.190245 0.529013 0.118412 -1.456025 0.088513 0.052726 " />
									<Normal vector="-0.328166 -0.725516 -0.604907 0.761071 -0.346446 -0.548387 0.707663 -0.365032 0.604907 -0.381542 -0.744072 0.548387 0.761071 -0.346446 -0.548387 0.381542 0.744072 -0.548387 0.328166 0.725516 0.604907 0.707663 -0.365032 0.604907 0.381542 0.744072 -0.548387 -0.707663 0.365032 -0.604907 -0.761071 0.346446 0.548387 0.328166 0.725516 0.604907 -0.707663 0.365032 -0.604907 -0.328166 -0.725516 -0.604907 -0.381542 -0.744072 0.548387 -0.761071 0.346446 0.548387 -0.707663 0.365032 -0.604907 0.381542 0.744072 -0.548387 0.328166 0.725516 0.604907 -0.761071 0.346446 0.548387 " />
									<TextureCoordinate point="0.2681 0.7202 0.2681 0.9619 0.4838 0.9619 0.4838 0.7202 0.2681 0.7202 0.2681 0.9619 0.4838 0.9619 0.4838 0.7202 0.2681 0.7202 0.2681 0.9619 0.4838 0.9619 0.4838 0.7202 0.2681 0.7202 0.2681 0.9619 0.4838 0.9619 0.4838 0.7202 0.4838 0.9619 0.4838 0.7202 0.2681 0.7202 0.2681 0.9619 " />
								</IndexedTriangleSet>
							</Shape>
						</Group>
					</Transform>
				</Transform>
				<Transform DEF="Cube_002_TRANSFORM"
				           translation="-0.568169 0.563790 0.190521"
				           scale="1.000000 1.000000 1.000000"
				           rotation="0.000000 1.000000 0.000000 0.000000"
				           >
					<Transform DEF="Cube_002_ifs_TRANSFORM"
					           translation="0.000000 0.000000 0.000000"
					           scale="1.000000 1.000000 1.000000"
					           rotation="0.000000 1.000000 0.000000 0.000000"
					           >
						<Group DEF="group_ME_Cube_023">
							<Shape>
								<Appearance>
									<Material USE="MA_Body" />
								</Appearance>
								<IndexedTriangleSet solid="false"
								                    normalPerVertex="true"
								                    index="0 1 2 0 2 3 4 5 6 4 6 7 8 9 10 8 10 11 12 13 14 12 14 15 4 13 16 4 16 17 18 19 14 18 14 7 "
								                    >
									<Coordinate point="-0.989236 0.661769 -0.174183 -0.421215 -0.265068 -0.121276 -0.428402 -0.255954 0.115548 -0.996422 0.670884 0.062640 -0.421215 -0.265068 -0.121276 0.428402 0.255954 -0.115548 0.421215 0.265068 0.121276 -0.428402 -0.255954 0.115548 0.428402 0.255954 -0.115548 -0.139619 1.182791 -0.168456 -0.146805 1.191906 0.068368 0.421215 0.265068 0.121276 -0.139619 1.182791 -0.168456 -0.989236 0.661769 -0.174183 -0.996422 0.670884 0.062640 -0.146805 1.191906 0.068368 -0.139619 1.182791 -0.168456 0.428402 0.255954 -0.115548 0.421215 0.265068 0.121276 -0.146805 1.191906 0.068368 " />
									<Normal vector="-0.775994 0.167638 -0.608020 -0.173315 -0.815668 -0.551897 -0.208319 -0.771294 0.601398 -0.810968 0.212043 0.545244 -0.173315 -0.815668 -0.551897 0.810968 -0.212043 -0.545244 0.775994 -0.167638 0.608020 -0.208319 -0.771294 0.601398 0.810968 -0.212043 -0.545244 0.208319 0.771294 -0.601398 0.173315 0.815668 0.551897 0.775994 -0.167638 0.608020 0.208319 0.771294 -0.601398 -0.775994 0.167638 -0.608020 -0.810968 0.212043 0.545244 0.173315 0.815668 0.551897 0.208319 0.771294 -0.601398 0.810968 -0.212043 -0.545244 0.775994 -0.167638 0.608020 0.173315 0.815668 0.551897 " />
									<TextureCoordinate point="0.2681 0.7202 0.2681 0.9619 0.4838 0.9619 0.4838 0.7202 0.2681 0.7202 0.2681 0.9619 0.4838 0.9619 0.4838 0.7202 0.2681 0.7202 0.2681 0.9619 0.4838 0.9619 0.4838 0.7202 0.2681 0.7202 0.2681 0.9619 0.4838 0.9619 0.4838 0.7202 0.4838 0.9619 0.4838 0.7202 0.2681 0.7202 0.2681 0.9619 " />
								</IndexedTriangleSet>
							</Shape>
						</Group>
					</Transform>
				</Transform>
			</Transform>
			<Transform DEF="top_TRANSFORM"
			           translation="0.000000 -0.051937 3.535099"
			           scale="1.000000 1.000000 1.000000"
			           rotation="0.000000 1.000000 0.000000 0.000000"
			           >
				<Transform DEF="top_ifs_TRANSFORM"
				           translation="0.000000 0.000000 0.000000"
				           scale="1.000000 1.000000 1.000000"
				           rotation="0.000000 1.000000 0.000000 0.000000"
				           >
					<Group DEF="group_ME_top">
						<Shape>
							<Appearance>
								<Material USE="MA_Body" />
							</Appearance>
							<IndexedTriangleSet solid="false"
							                    normalPerVertex="true"
							                    index="0 1 2 0 2 3 4 5 6 4 6 7 8 9 10 8 10 11 12 13 14 12 14 15 4 16 17 4 17 15 18 5 14 18 14 19 "
							                    >
								<Coordinate point="-0.080355 -0.079715 0.010119 -0.080355 -0.053318 0.218072 -0.080355 0.106112 0.197834 -0.080355 0.079715 -0.010119 -0.080355 0.079715 -0.010119 -0.080355 0.106112 0.197834 0.080355 0.106112 0.197834 0.080355 0.079715 -0.010119 0.080355 0.079715 -0.010119 0.080355 0.106112 0.197834 0.080355 -0.053318 0.218072 0.080355 -0.079715 0.010119 0.080355 -0.079715 0.010119 0.080355 -0.053318 0.218072 -0.080355 -0.053318 0.218072 -0.080355 -0.079715 0.010119 0.080355 0.079715 -0.010119 0.080355 -0.079715 0.010119 0.080355 0.106112 0.197834 0.080355 -0.053318 0.218072 " />
								<Normal vector="-0.577349 -0.645436 -0.500046 -0.577349 -0.500046 0.645436 -0.577349 0.645436 0.500046 -0.577349 0.500046 -0.645436 -0.577349 0.500046 -0.645436 -0.577349 0.645436 0.500046 0.577349 0.645436 0.500046 0.577349 0.500046 -0.645436 0.577349 0.500046 -0.645436 0.577349 0.645436 0.500046 0.577349 -0.500046 0.645436 0.577349 -0.645436 -0.500046 0.577349 -0.645436 -0.500046 0.577349 -0.500046 0.645436 -0.577349 -0.500046 0.645436 -0.577349 -0.645436 -0.500046 0.577349 0.500046 -0.645436 0.577349 -0.645436 -0.500046 0.577349 0.645436 0.500046 0.577349 -0.500046 0.645436 " />
								<TextureCoordinate point="0.0157 0.5381 0.2340 0.5381 0.2340 0.9580 0.0157 0.9580 0.0157 0.5381 0.2340 0.5381 0.2340 0.9580 0.0157 0.9580 0.0157 0.5381 0.2340 0.5381 0.2340 0.9580 0.0157 0.9580 0.0157 0.5381 0.2340 0.5381 0.2340 0.9580 0.0157 0.9580 0.2340 0.5381 0.2340 0.9580 0.0157 0.5381 0.0157 0.9580 " />
							</IndexedTriangleSet>
						</Shape>
					</Group>
				</Transform>
				<Transform DEF="Cube_017_TRANSFORM"
				           translation="0.000000 0.053225 0.167071"
				           scale="1.000000 1.000000 1.000000"
				           rotation="0.000000 1.000000 0.000000 0.000000"
				           >
					<Transform DEF="Cube_017_ifs_TRANSFORM"
					           translation="0.000000 0.000000 0.000000"
					           scale="1.000000 1.000000 1.000000"
					           rotation="0.000000 1.000000 0.000000 0.000000"
					           >
						<Group DEF="group_ME_Cube_017">
							<Shape>
								<Appearance>
									<Material USE="MA_Body" />
								</Appearance>
								<IndexedTriangleSet solid="false"
								                    normalPerVertex="true"
								                    index="0 1 2 0 2 3 4 5 6 4 6 7 8 9 10 8 10 11 12 13 14 12 14 15 4 16 17 4 17 15 18 5 14 18 14 19 "
								                    >
									<Coordinate point="-0.141718 -0.141705 0.001862 -0.141718 -0.136700 0.382849 -0.141718 0.146711 0.379125 -0.141718 0.141705 -0.001862 -0.141718 0.141705 -0.001862 -0.141718 0.146711 0.379125 0.141718 0.146711 0.379125 0.141718 0.141705 -0.001862 0.141718 0.141705 -0.001862 0.141718 0.146711 0.379125 0.141718 -0.136700 0.382849 0.141718 -0.141705 0.001862 0.141718 -0.141705 0.001862 0.141718 -0.136700 0.382849 -0.141718 -0.136700 0.382849 -0.141718 -0.141705 0.001862 0.141718 0.141705 -0.001862 0.141718 -0.141705 0.001862 0.141718 0.146711 0.379125 0.141718 -0.136700 0.382849 " />
									<Normal vector="-0.577349 -0.584857 -0.569689 -0.577349 -0.569689 0.584857 -0.577349 0.584857 0.569689 -0.577349 0.569689 -0.584857 -0.577349 0.569689 -0.584857 -0.577349 0.584857 0.569689 0.577349 0.584857 0.569689 0.577349 0.569689 -0.584857 0.577349 0.569689 -0.584857 0.577349 0.584857 0.569689 0.577349 -0.569689 0.584857 0.577349 -0.584857 -0.569689 0.577349 -0.584857 -0.569689 0.577349 -0.569689 0.584857 -0.577349 -0.569689 0.584857 -0.577349 -0.584857 -0.569689 0.577349 0.569689 -0.584857 0.577349 -0.584857 -0.569689 0.577349 0.584857 0.569689 0.577349 -0.569689 0.584857 " />
									<TextureCoordinate point="0.0157 0.5381 0.2340 0.5381 0.2340 0.9580 0.0157 0.9580 0.0157 0.5381 0.2340 0.5381 0.2340 0.9580 0.0157 0.9580 0.0157 0.5381 0.2340 0.5381 0.2340 0.9580 0.0157 0.9580 0.0157 0.5381 0.2340 0.5381 0.2340 0.9580 0.0157 0.9580 0.2340 0.5381 0.2340 0.9580 0.0157 0.5381 0.0157 0.9580 " />
								</IndexedTriangleSet>
							</Shape>
						</Group>
					</Transform>
					<Transform DEF="Cube_018_TRANSFORM"
					           translation="0.000000 0.003325 0.253066"
					           scale="1.000000 1.000000 1.000000"
					           rotation="0.000000 1.000000 0.000000 0.000000"
					           >
						<Transform DEF="Cube_018_ifs_TRANSFORM"
						           translation="0.000000 0.000000 0.000000"
						           scale="1.000000 1.000000 1.000000"
						           rotation="0.000000 1.000000 0.000000 0.000000"
						           >
							<Group DEF="group_ME_Cube_018">
								<Shape>
									<Appearance>
										<Material USE="MA_Body" />
									</Appearance>
									<IndexedTriangleSet solid="false"
									                    normalPerVertex="true"
									                    index="0 1 2 0 2 3 4 5 6 4 6 7 8 9 10 8 10 11 12 13 14 12 14 15 4 16 17 4 17 15 18 5 14 18 14 19 "
									                    >
										<Coordinate point="-0.230701 -0.254861 -0.022813 -0.230701 -0.310161 0.594976 -0.230701 0.199561 0.640603 -0.230701 0.254861 0.022813 -0.230701 0.254861 0.022813 -0.230701 0.199561 0.640603 0.230701 0.199561 0.640603 0.230701 0.254861 0.022813 0.230701 0.254861 0.022813 0.230701 0.199561 0.640603 0.230701 -0.310161 0.594976 0.230701 -0.254861 -0.022813 0.230701 -0.254861 -0.022813 0.230701 -0.310161 0.594976 -0.230701 -0.310161 0.594976 -0.230701 -0.254861 -0.022813 0.230701 0.254861 0.022813 0.230701 -0.254861 -0.022813 0.230701 0.199561 0.640603 0.230701 -0.310161 0.594976 " />
										<Normal vector="-0.577349 -0.523576 -0.626514 -0.577349 -0.626514 0.523576 -0.577349 0.523576 0.626514 -0.577349 0.626514 -0.523576 -0.577349 0.626514 -0.523576 -0.577349 0.523576 0.626514 0.577349 0.523576 0.626514 0.577349 0.626514 -0.523576 0.577349 0.626514 -0.523576 0.577349 0.523576 0.626514 0.577349 -0.626514 0.523576 0.577349 -0.523576 -0.626514 0.577349 -0.523576 -0.626514 0.577349 -0.626514 0.523576 -0.577349 -0.626514 0.523576 -0.577349 -0.523576 -0.626514 0.577349 0.626514 -0.523576 0.577349 -0.523576 -0.626514 0.577349 0.523576 0.626514 0.577349 -0.626514 0.523576 " />
										<TextureCoordinate point="0.0157 0.5381 0.2340 0.5381 0.2340 0.9580 0.0157 0.9580 0.0157 0.5381 0.2340 0.5381 0.2340 0.9580 0.0157 0.9580 0.0157 0.5381 0.2340 0.5381 0.2340 0.9580 0.0157 0.9580 0.0157 0.5381 0.2340 0.5381 0.2340 0.9580 0.0157 0.9580 0.2340 0.5381 0.2340 0.9580 0.0157 0.5381 0.0157 0.9580 " />
									</IndexedTriangleSet>
								</Shape>
							</Group>
						</Transform>
						<Transform DEF="Cube_019_TRANSFORM"
						           translation="0.000000 -0.016594 0.411897"
						           scale="1.000000 1.000000 1.000000"
						           rotation="0.000000 1.000000 0.000000 0.000000"
						           >
							<Transform DEF="Cube_019_ifs_TRANSFORM"
							           translation="0.000000 0.000000 0.000000"
							           scale="1.000000 1.000000 1.000000"
							           rotation="0.000000 1.000000 0.000000 0.000000"
							           >
								<Group DEF="group_ME_Cube_019">
									<Shape>
										<Appearance>
											<Material USE="MA_Body" />
										</Appearance>
										<IndexedTriangleSet solid="false"
										                    normalPerVertex="true"
										                    index="0 1 2 0 2 3 4 5 6 4 6 7 8 9 10 8 10 11 12 13 14 12 14 15 4 16 17 4 17 15 18 5 14 18 14 19 "
										                    >
											<Coordinate point="-0.366673 -0.270855 -0.277577 -0.366673 -0.706744 0.147756 -0.366673 -0.165034 0.702910 -0.366673 0.270855 0.277577 -0.366673 0.270855 0.277577 -0.366673 -0.165034 0.702910 0.366673 -0.165034 0.702910 0.366673 0.270855 0.277577 0.366673 0.270855 0.277577 0.366673 -0.165034 0.702910 0.366673 -0.706744 0.147756 0.366673 -0.270855 -0.277577 0.366673 -0.270855 -0.277577 0.366673 -0.706744 0.147756 -0.366673 -0.706744 0.147756 -0.366673 -0.270855 -0.277577 0.366673 0.270855 0.277577 0.366673 -0.270855 -0.277577 0.366673 -0.165034 0.702910 0.366673 -0.706744 0.147756 " />
											<Normal vector="-0.577349 0.009980 -0.816431 -0.577349 -0.816431 -0.009980 -0.577349 -0.009980 0.816431 -0.577349 0.816431 0.009980 -0.577349 0.816431 0.009980 -0.577349 -0.009980 0.816431 0.577349 -0.009980 0.816431 0.577349 0.816431 0.009980 0.577349 0.816431 0.009980 0.577349 -0.009980 0.816431 0.577349 -0.816431 -0.009980 0.577349 0.009980 -0.816431 0.577349 0.009980 -0.816431 0.577349 -0.816431 -0.009980 -0.577349 -0.816431 -0.009980 -0.577349 0.009980 -0.816431 0.577349 0.816431 0.009980 0.577349 0.009980 -0.816431 0.577349 -0.009980 0.816431 0.577349 -0.816431 -0.009980 " />
											<TextureCoordinate point="0.0157 0.5381 0.2340 0.5381 0.2340 0.9580 0.0157 0.9580 0.0157 0.5381 0.2340 0.5381 0.2340 0.9580 0.0157 0.9580 0.0157 0.5381 0.2340 0.5381 0.2340 0.9580 0.0157 0.9580 0.0157 0.5381 0.2340 0.5381 0.2340 0.9580 0.0157 0.9580 0.2340 0.5381 0.2340 0.9580 0.0157 0.5381 0.0157 0.9580 " />
										</IndexedTriangleSet>
									</Shape>
								</Group>
							</Transform>
							<Transform DEF="Cube_020_TRANSFORM"
							           translation="0.000000 -0.182894 0.303606"
							           scale="1.000000 1.000000 1.000000"
							           rotation="0.000000 1.000000 0.000000 0.000000"
							           >
								<Transform DEF="Cube_020_ifs_TRANSFORM"
								           translation="0.000000 0.000000 0.000000"
								           scale="1.000000 1.000000 1.000000"
								           rotation="0.000000 1.000000 0.000000 0.000000"
								           >
									<Group DEF="group_ME_Cube_020">
										<Shape>
											<Appearance>
												<Material USE="MA_Body" />
											</Appearance>
											<IndexedTriangleSet solid="false"
											                    normalPerVertex="true"
											                    index="0 1 2 0 2 3 4 5 6 4 6 7 8 9 10 8 10 11 12 13 14 12 14 15 4 16 17 4 17 15 18 5 14 18 14 19 "
											                    >
												<Coordinate point="-0.452912 -0.079914 -0.420992 -0.452912 -0.717474 -0.299968 -0.452912 -0.557646 0.542016 -0.452912 0.079914 0.420992 -0.452912 0.079914 0.420992 -0.452912 -0.557646 0.542016 0.452912 -0.557646 0.542016 0.452912 0.079914 0.420992 0.452912 0.079914 0.420992 0.452912 -0.557646 0.542016 0.452912 -0.717474 -0.299968 0.452912 -0.079914 -0.420992 0.452912 -0.079914 -0.420992 0.452912 -0.717474 -0.299968 -0.452912 -0.717474 -0.299968 -0.452912 -0.079914 -0.420992 0.452912 0.079914 0.420992 0.452912 -0.079914 -0.420992 0.452912 -0.557646 0.542016 0.452912 -0.717474 -0.299968 " />
												<Normal vector="-0.577349 0.459548 -0.674886 -0.577349 -0.674886 -0.459548 -0.577349 -0.459548 0.674886 -0.577349 0.674886 0.459548 -0.577349 0.674886 0.459548 -0.577349 -0.459548 0.674886 0.577349 -0.459548 0.674886 0.577349 0.674886 0.459548 0.577349 0.674886 0.459548 0.577349 -0.459548 0.674886 0.577349 -0.674886 -0.459548 0.577349 0.459548 -0.674886 0.577349 0.459548 -0.674886 0.577349 -0.674886 -0.459548 -0.577349 -0.674886 -0.459548 -0.577349 0.459548 -0.674886 0.577349 0.674886 0.459548 0.577349 0.459548 -0.674886 0.577349 -0.459548 0.674886 0.577349 -0.674886 -0.459548 " />
												<TextureCoordinate point="0.0157 0.5381 0.2340 0.5381 0.2340 0.9580 0.0157 0.9580 0.0157 0.5381 0.2340 0.5381 0.2340 0.9580 0.0157 0.9580 0.0157 0.5381 0.2340 0.5381 0.2340 0.9580 0.0157 0.9580 0.0157 0.5381 0.2340 0.5381 0.2340 0.9580 0.0157 0.9580 0.2340 0.5381 0.2340 0.9580 0.0157 0.5381 0.0157 0.9580 " />
											</IndexedTriangleSet>
										</Shape>
									</Group>
								</Transform>
								<Transform DEF="Cube_021_TRANSFORM"
								           translation="0.000000 -0.371199 0.105649"
								           scale="1.000000 1.000000 1.000000"
								           rotation="0.000000 1.000000 0.000000 0.000000"
								           >
									<Transform DEF="Cube_021_ifs_TRANSFORM"
									           translation="0.000000 0.000000 0.000000"
									           scale="1.000000 1.000000 1.000000"
									           rotation="0.000000 1.000000 0.000000 0.000000"
									           >
										<Group DEF="group_ME_Cube_021">
											<Shape>
												<Appearance>
													<Material USE="MA_Body" />
												</Appearance>
												<IndexedTriangleSet solid="false"
												                    normalPerVertex="true"
												                    index="0 1 2 0 2 3 4 5 6 4 6 7 8 9 10 8 10 11 12 13 14 12 14 15 4 16 17 4 17 15 18 5 14 18 14 19 "
												                    >
													<Coordinate point="-0.499677 0.162910 -0.475771 -0.499677 -0.647777 -0.753360 -0.499677 -0.973596 0.198182 -0.499677 -0.162910 0.475771 -0.499677 -0.162910 0.475771 -0.499677 -0.973596 0.198182 0.499677 -0.973596 0.198182 0.499677 -0.162910 0.475771 0.499677 -0.162910 0.475771 0.499677 -0.973596 0.198182 0.499677 -0.647777 -0.753360 0.499677 0.162910 -0.475771 0.499677 0.162910 -0.475771 0.499677 -0.647777 -0.753360 -0.499677 -0.647777 -0.753360 -0.499677 0.162910 -0.475771 0.499677 -0.162910 0.475771 0.499677 0.162910 -0.475771 0.499677 -0.973596 0.198182 0.499677 -0.647777 -0.753360 " />
													<Normal vector="-0.577349 0.733238 -0.359172 -0.577349 -0.359172 -0.733238 -0.577349 -0.733238 0.359172 -0.577349 0.359172 0.733238 -0.577349 0.359172 0.733238 -0.577349 -0.733238 0.359172 0.577349 -0.733238 0.359172 0.577349 0.359172 0.733238 0.577349 0.359172 0.733238 0.577349 -0.733238 0.359172 0.577349 -0.359172 -0.733238 0.577349 0.733238 -0.359172 0.577349 0.733238 -0.359172 0.577349 -0.359172 -0.733238 -0.577349 -0.359172 -0.733238 -0.577349 0.733238 -0.359172 0.577349 0.359172 0.733238 0.577349 0.733238 -0.359172 0.577349 -0.733238 0.359172 0.577349 -0.359172 -0.733238 " />
													<TextureCoordinate point="0.0157 0.5381 0.2340 0.5381 0.2340 0.9580 0.0157 0.9580 0.0157 0.5381 0.2340 0.5381 0.2340 0.9580 0.0157 0.9580 0.0157 0.5381 0.2340 0.5381 0.2340 0.9580 0.0157 0.9580 0.0157 0.5381 0.2340 0.5381 0.2340 0.9580 0.0157 0.9580 0.2340 0.5381 0.2340 0.9580 0.0157 0.5381 0.0157 0.9580 " />
												</IndexedTriangleSet>
											</Shape>
										</Group>
									</Transform>
								</Transform>
							</Transform>
						</Transform>
					</Transform>
				</Transform>
			</Transform>
			<Transform DEF="foot2_TRANSFORM"
			           translation="-0.630429 0.000000 0.028765"
			           scale="1.000000 1.000000 1.000000"
			           rotation="0.000000 1.000000 0.000000 0.000000"
			           >
				<Transform DEF="foot2_ifs_TRANSFORM"
				           translation="0.000000 0.000000 0.000000"
				           scale="1.000000 1.000000 1.000000"
				           rotation="0.000000 1.000000 0.000000 0.000000"
				           >
					<Group DEF="group_ME_foot2">
						<Shape>
							<Appearance>
								<Material USE="MA_Body" />
							</Appearance>
							<IndexedTriangleSet solid="false"
							                    normalPerVertex="true"
							                    index="0 1 2 0 2 3 4 5 6 4 6 7 8 9 10 8 10 11 12 13 14 12 14 15 4 16 17 4 17 15 18 5 14 18 14 19 "
							                    >
								<Coordinate point="-0.171200 -0.171200 -0.189970 -0.171200 -0.171200 0.000000 -0.171200 0.171200 0.000000 -0.171200 0.171200 -0.189970 -0.171200 0.171200 -0.189970 -0.171200 0.171200 0.000000 0.171200 0.171200 0.000000 0.171200 0.171200 -0.189970 0.171200 0.171200 -0.189970 0.171200 0.171200 0.000000 0.171200 -0.171200 0.000000 0.171200 -0.171200 -0.189970 0.171200 -0.171200 -0.189970 0.171200 -0.171200 0.000000 -0.171200 -0.171200 0.000000 -0.171200 -0.171200 -0.189970 0.171200 0.171200 -0.189970 0.171200 -0.171200 -0.189970 0.171200 0.171200 0.000000 0.171200 -0.171200 0.000000 " />
								<Normal vector="-0.577349 -0.577349 -0.577349 -0.577349 -0.577349 0.577349 -0.577349 0.577349 0.577349 -0.577349 0.577349 -0.577349 -0.577349 0.577349 -0.577349 -0.577349 0.577349 0.577349 0.577349 0.577349 0.577349 0.577349 0.577349 -0.577349 0.577349 0.577349 -0.577349 0.577349 0.577349 0.577349 0.577349 -0.577349 0.577349 0.577349 -0.577349 -0.577349 0.577349 -0.577349 -0.577349 0.577349 -0.577349 0.577349 -0.577349 -0.577349 0.577349 -0.577349 -0.577349 -0.577349 0.577349 0.577349 -0.577349 0.577349 -0.577349 -0.577349 0.577349 0.577349 0.577349 0.577349 -0.577349 0.577349 " />
								<TextureCoordinate point="0.0103 0.0265 0.2394 0.0265 0.2394 0.4527 0.0103 0.4527 0.0103 0.0265 0.2394 0.0265 0.2394 0.4527 0.0103 0.4527 0.0103 0.0265 0.2394 0.0265 0.2394 0.4527 0.0103 0.4527 0.0103 0.0265 0.2394 0.0265 0.2394 0.4527 0.0103 0.4527 0.2394 0.0265 0.2394 0.4527 0.0103 0.0265 0.0103 0.4527 " />
							</IndexedTriangleSet>
						</Shape>
					</Group>
				</Transform>
			</Transform>
		</Transform>
	</Scene>
</X3D>