<?xml version="1.0" encoding="UTF-8"?>
<!DOCTYPE X3D PUBLIC "ISO//Web3D//DTD X3D 3.0//EN" "http://www.web3d.org/specifications/x3d-3.0.dtd">
<X3D version="3.0" profile="Immersive" xmlns:xsd="http://www.w3.org/2001/XMLSchema-instance" xsd:noNamespaceSchemaLocation="http://www.web3d.org/specifications/x3d-3.0.xsd">
	<head>
		<meta name="filename" content="cherubi.x3d" />
		<meta name="generator" content="Blender 2.93.18" />
	</head>
	<Scene>
		<NavigationInfo headlight="true"
		                visibilityLimit="0.0"
		                type='"EXAMINE", "ANY"'
		                avatarSize="0.25, 1.75, 0.75"
		                />
		<Background DEF="WO_World"
		            groundColor="0.051 0.051 0.051"
		            skyColor="0.051 0.051 0.051"
		            />
		<Transform DEF="body_TRANSFORM"
		           translation="0.000000 0.000000 0.292251"
		           scale="1.000000 1.000000 1.000000"
		           rotation="0.000000 0.000000 1.000000 3.141593"
		           >
			<Transform DEF="body_ifs_TRANSFORM"
			           translation="0.000000 0.000000 0.000000"
			           scale="1.000000 1.000000 1.000000"
			           rotation="0.000000 1.000000 0.000000 0.000000"
			           >
				<Group DEF="group_ME_body">
					<Shape>
						<Appearance>
							<Material DEF="MA_Body"
							          diffuseColor="0.800 0.800 0.800"
							          specularColor="0.401 0.401 0.401"
							          emissiveColor="0.000 0.000 0.000"
							          ambientIntensity="0.000"
							          shininess="0.500"
							          transparency="0.0"
							          />
						</Appearance>
						<IndexedTriangleSet solid="false"
						                    normalPerVertex="true"
						                    index="0 1 2 0 2 3 4 5 6 4 6 7 8 9 10 8 10 11 12 13 14 12 14 15 16 17 18 16 18 19 20 21 14 20 14 22 23 5 24 23 24 25 26 27 28 26 28 29 30 31 32 30 32 33 34 35 36 34 36 37 38 39 40 38 40 41 42 43 44 42 44 45 46 47 28 46 28 48 49 50 24 49 24 51 52 53 54 52 54 55 56 57 58 56 58 59 60 61 62 60 62 63 64 65 66 64 66 67 68 69 70 68 70 71 72 73 74 72 74 75 76 77 78 76 78 79 80 81 82 80 82 83 84 85 86 84 86 87 88 89 90 88 90 91 92 93 94 92 94 95 96 97 98 96 98 99 100 101 102 100 102 103 104 105 106 104 106 107 108 109 110 108 110 111 112 113 114 112 114 115 116 117 118 116 118 119 120 121 122 120 122 123 124 125 126 124 126 127 128 129 130 128 130 131 132 133 134 132 134 135 136 21 137 136 137 138 121 139 140 121 140 122 141 142 143 141 143 144 145 146 147 145 147 148 149 150 151 149 151 152 153 154 155 153 155 156 157 1 158 157 158 159 160 161 162 160 162 163 34 164 165 34 165 152 16 166 167 16 167 156 168 169 170 168 170 171 172 173 174 172 174 175 149 176 177 149 177 178 30 179 180 30 180 181 182 183 184 182 184 185 186 187 188 186 188 19 189 190 191 189 191 192 193 194 195 193 195 196 197 198 199 197 199 37 153 200 201 153 201 33 "
						                    >
							<Coordinate point="-1.125068 -1.658217 1.826176 -1.125068 -1.658217 3.082806 -1.757212 -1.658217 3.082806 -1.757212 -1.658217 1.826176 -1.757212 -1.658217 1.826176 -1.757212 -1.658217 3.082806 -1.757212 1.658217 3.082806 -1.757212 1.658217 1.826176 1.125068 1.658217 1.826176 1.125068 1.658217 3.082806 1.757212 1.658217 3.082806 1.757212 1.658217 1.826176 1.757212 1.658217 1.826176 1.757212 1.658217 3.082806 1.757212 -1.658217 3.082806 1.757212 -1.658217 1.826176 1.125068 -1.658217 0.000000 1.125068 1.658217 0.000000 1.757212 1.658217 0.000000 1.757212 -1.658217 0.000000 1.125068 1.658217 3.082806 1.125068 -1.658217 3.082806 1.757212 1.658217 3.082806 -1.757212 1.658217 3.082806 -1.125068 -1.658217 3.082806 -1.125068 1.658217 3.082806 0.548866 1.658217 3.082806 0.548866 -1.658217 3.082806 1.125068 -1.658217 3.082806 1.125068 1.658217 3.082806 -1.757212 -1.658217 0.000000 -1.757212 1.658217 0.000000 -1.125068 1.658217 0.000000 -1.125068 -1.658217 0.000000 0.548866 -1.658217 0.000000 0.548866 1.658217 0.000000 1.125068 1.658217 0.000000 1.125068 -1.658217 0.000000 -1.757212 1.658217 1.826176 -1.757212 1.658217 3.082806 -1.125068 1.658217 3.082806 -1.125068 1.658217 1.826176 0.548866 1.658217 1.826176 0.548866 1.658217 3.082806 1.125068 1.658217 3.082806 1.125068 1.658217 1.826176 1.757212 -1.658217 1.826176 1.757212 -1.658217 3.082806 1.125068 -1.658217 1.826176 -0.548866 -1.658217 1.826176 -0.548866 -1.658217 3.082806 -1.125068 -1.658217 1.826176 -0.548866 -1.658217 0.608707 -0.548866 -1.658217 1.237049 -1.125068 -1.658217 1.237049 -1.125068 -1.658217 0.608707 1.757212 -1.658217 0.608707 1.757212 -1.658217 1.237049 1.125068 -1.658217 1.237049 1.125068 -1.658217 0.608707 0.548866 1.658217 0.608707 0.548866 1.658217 1.237049 1.125068 1.658217 1.237049 1.125068 1.658217 0.608707 -1.757212 1.658217 0.608707 -1.757212 1.658217 1.237049 -1.125068 1.658217 1.237049 -1.125068 1.658217 0.608707 1.757212 1.658217 0.608707 1.757212 1.658217 1.237049 1.757212 -1.658217 1.237049 1.757212 -1.658217 0.608707 1.125068 1.658217 0.608707 1.125068 1.658217 1.237049 1.757212 1.658217 1.237049 1.757212 1.658217 0.608707 -1.757212 -1.658217 0.608707 -1.757212 -1.658217 1.237049 -1.757212 1.658217 1.237049 -1.757212 1.658217 0.608707 -1.125068 -1.658217 0.608707 -1.125068 -1.658217 1.237049 -1.757212 -1.658217 1.237049 -1.757212 -1.658217 0.608707 1.757212 -1.658217 1.237049 1.757212 -1.658217 1.826176 1.125068 -1.658217 1.826176 1.125068 -1.658217 1.237049 0.548866 1.658217 1.237049 0.548866 1.658217 1.826176 1.125068 1.658217 1.826176 1.125068 1.658217 1.237049 -1.757212 1.658217 1.237049 -1.757212 1.658217 1.826176 -1.125068 1.658217 1.826176 -1.125068 1.658217 1.237049 1.757212 1.658217 1.237049 1.757212 1.658217 1.826176 1.757212 -1.658217 1.826176 1.757212 -1.658217 1.237049 1.125068 1.658217 1.237049 1.125068 1.658217 1.826176 1.757212 1.658217 1.826176 1.757212 1.658217 1.237049 -1.757212 -1.658217 1.237049 -1.757212 -1.658217 1.826176 -1.757212 1.658217 1.826176 -1.757212 1.658217 1.237049 -1.125068 -1.658217 1.237049 -1.125068 -1.658217 1.826176 -1.757212 -1.658217 1.826176 -1.757212 -1.658217 1.237049 -1.125068 1.658217 1.237049 -1.125068 1.658217 1.826176 -0.548866 1.658217 1.826176 -0.548866 1.658217 1.237049 -0.548866 1.658217 1.237049 -0.548866 1.658217 1.826176 0.548866 1.658217 1.826176 0.548866 1.658217 1.237049 0.548866 -1.658217 1.237049 0.548866 -1.658217 1.826176 -0.548866 -1.658217 1.826176 -0.548866 -1.658217 1.237049 -1.125068 1.658217 0.608707 -1.125068 1.658217 1.237049 -0.548866 1.658217 1.237049 -0.548866 1.658217 0.608707 -0.548866 1.658217 0.608707 -0.548866 1.658217 1.237049 0.548866 1.658217 1.237049 0.548866 1.658217 0.608707 1.125068 -1.658217 0.608707 1.125068 -1.658217 1.237049 0.548866 -1.658217 1.237049 0.548866 -1.658217 0.608707 1.125068 -1.658217 1.826176 0.548866 -1.658217 3.082806 0.548866 -1.658217 1.826176 0.548866 -1.658217 3.082806 -0.548866 -1.658217 3.082806 -1.125068 1.658217 1.826176 -1.125068 1.658217 3.082806 -0.548866 1.658217 3.082806 -0.548866 1.658217 1.826176 -0.548866 1.658217 1.826176 -0.548866 1.658217 3.082806 0.548866 1.658217 3.082806 0.548866 1.658217 1.826176 -1.125068 -1.658217 0.000000 -1.125068 1.658217 0.000000 -0.548866 1.658217 0.000000 -0.548866 -1.658217 0.000000 -0.548866 -1.658217 0.000000 -0.548866 1.658217 0.000000 0.548866 1.658217 0.000000 0.548866 -1.658217 0.000000 -1.125068 1.658217 3.082806 -0.548866 -1.658217 3.082806 -0.548866 1.658217 3.082806 -0.548866 1.658217 3.082806 -0.548866 -1.658217 3.082806 0.548866 -1.658217 3.082806 0.548866 1.658217 3.082806 0.548866 -1.658217 0.608707 -0.548866 -1.658217 0.608707 1.125068 -1.658217 0.608707 0.548866 -1.658217 0.608707 -0.548866 1.658217 0.000000 -0.548866 1.658217 0.608707 0.548866 1.658217 0.608707 0.548866 1.658217 0.000000 -1.125068 1.658217 0.000000 -1.125068 1.658217 0.608707 -0.548866 1.658217 0.608707 -0.548866 1.658217 0.000000 -1.125068 -1.658217 0.608707 -1.757212 -1.658217 0.608707 -1.757212 -1.658217 0.000000 -1.757212 -1.658217 0.608707 -1.757212 1.658217 0.608707 -1.757212 1.658217 0.000000 1.125068 1.658217 0.000000 1.125068 1.658217 0.608707 1.757212 1.658217 0.608707 1.757212 1.658217 0.000000 1.757212 1.658217 0.000000 1.757212 1.658217 0.608707 1.757212 -1.658217 0.608707 -1.757212 1.658217 0.000000 -1.757212 1.658217 0.608707 -1.125068 1.658217 0.608707 -1.125068 1.658217 0.000000 0.548866 1.658217 0.000000 0.548866 1.658217 0.608707 1.125068 1.658217 0.608707 1.125068 1.658217 0.000000 1.757212 -1.658217 0.000000 1.757212 -1.658217 0.608707 1.125068 -1.658217 0.608707 -0.548866 -1.658217 0.608707 -1.125068 -1.658217 0.608707 " />
							<Normal vector="0.000000 -1.000000 0.000000 0.000000 -0.707083 0.707083 -0.577349 -0.577349 0.577349 -0.707083 -0.707083 0.000000 -0.707083 -0.707083 0.000000 -0.577349 -0.577349 0.577349 -0.577349 0.577349 0.577349 -0.707083 0.707083 0.000000 0.000000 1.000000 0.000000 0.000000 0.707083 0.707083 0.577349 0.577349 0.577349 0.707083 0.707083 0.000000 0.707083 0.707083 0.000000 0.577349 0.577349 0.577349 0.577349 -0.577349 0.577349 0.707083 -0.707083 0.000000 0.000000 -0.707083 -0.707083 0.000000 0.707083 -0.707083 0.577349 0.577349 -0.577349 0.577349 -0.577349 -0.577349 0.000000 0.707083 0.707083 0.000000 -0.707083 0.707083 0.577349 0.577349 0.577349 -0.577349 0.577349 0.577349 0.000000 -0.707083 0.707083 0.000000 0.707083 0.707083 0.000000 0.707083 0.707083 0.000000 -0.707083 0.707083 0.000000 -0.707083 0.707083 0.000000 0.707083 0.707083 -0.577349 -0.577349 -0.577349 -0.577349 0.577349 -0.577349 0.000000 0.707083 -0.707083 0.000000 -0.707083 -0.707083 0.000000 -0.707083 -0.707083 0.000000 0.707083 -0.707083 0.000000 0.707083 -0.707083 0.000000 -0.707083 -0.707083 -0.707083 0.707083 0.000000 -0.577349 0.577349 0.577349 0.000000 0.707083 0.707083 0.000000 1.000000 0.000000 0.000000 1.000000 0.000000 0.000000 0.707083 0.707083 0.000000 0.707083 0.707083 0.000000 1.000000 0.000000 0.707083 -0.707083 0.000000 0.577349 -0.577349 0.577349 0.000000 -1.000000 0.000000 0.000000 -1.000000 0.000000 0.000000 -0.707083 0.707083 0.000000 -1.000000 0.000000 0.000000 -1.000000 0.000000 0.000000 -1.000000 0.000000 0.000000 -1.000000 0.000000 0.000000 -1.000000 0.000000 0.707083 -0.707083 0.000000 0.707083 -0.707083 0.000000 0.000000 -1.000000 0.000000 0.000000 -1.000000 0.000000 0.000000 1.000000 0.000000 0.000000 1.000000 0.000000 0.000000 1.000000 0.000000 0.000000 1.000000 0.000000 -0.707083 0.707083 0.000000 -0.707083 0.707083 0.000000 0.000000 1.000000 0.000000 0.000000 1.000000 0.000000 0.707083 0.707083 0.000000 0.707083 0.707083 0.000000 0.707083 -0.707083 0.000000 0.707083 -0.707083 0.000000 0.000000 1.000000 0.000000 0.000000 1.000000 0.000000 0.707083 0.707083 0.000000 0.707083 0.707083 0.000000 -0.707083 -0.707083 0.000000 -0.707083 -0.707083 0.000000 -0.707083 0.707083 0.000000 -0.707083 0.707083 0.000000 0.000000 -1.000000 0.000000 0.000000 -1.000000 0.000000 -0.707083 -0.707083 0.000000 -0.707083 -0.707083 0.000000 0.707083 -0.707083 0.000000 0.707083 -0.707083 0.000000 0.000000 -1.000000 0.000000 0.000000 -1.000000 0.000000 0.000000 1.000000 0.000000 0.000000 1.000000 0.000000 0.000000 1.000000 0.000000 0.000000 1.000000 0.000000 -0.707083 0.707083 0.000000 -0.707083 0.707083 0.000000 0.000000 1.000000 0.000000 0.000000 1.000000 0.000000 0.707083 0.707083 0.000000 0.707083 0.707083 0.000000 0.707083 -0.707083 0.000000 0.707083 -0.707083 0.000000 0.000000 1.000000 0.000000 0.000000 1.000000 0.000000 0.707083 0.707083 0.000000 0.707083 0.707083 0.000000 -0.707083 -0.707083 0.000000 -0.707083 -0.707083 0.000000 -0.707083 0.707083 0.000000 -0.707083 0.707083 0.000000 0.000000 -1.000000 0.000000 0.000000 -1.000000 0.000000 -0.707083 -0.707083 0.000000 -0.707083 -0.707083 0.000000 0.000000 1.000000 0.000000 0.000000 1.000000 0.000000 0.000000 1.000000 0.000000 0.000000 1.000000 0.000000 0.000000 1.000000 0.000000 0.000000 1.000000 0.000000 0.000000 1.000000 0.000000 0.000000 1.000000 0.000000 0.000000 -1.000000 0.000000 0.000000 -1.000000 0.000000 0.000000 -1.000000 0.000000 0.000000 -1.000000 0.000000 0.000000 1.000000 0.000000 0.000000 1.000000 0.000000 0.000000 1.000000 0.000000 0.000000 1.000000 0.000000 0.000000 1.000000 0.000000 0.000000 1.000000 0.000000 0.000000 1.000000 0.000000 0.000000 1.000000 0.000000 0.000000 -1.000000 0.000000 0.000000 -1.000000 0.000000 0.000000 -1.000000 0.000000 0.000000 -1.000000 0.000000 0.000000 -1.000000 0.000000 0.000000 -0.707083 0.707083 0.000000 -1.000000 0.000000 0.000000 -0.707083 0.707083 0.000000 -0.707083 0.707083 0.000000 1.000000 0.000000 0.000000 0.707083 0.707083 0.000000 0.707083 0.707083 0.000000 1.000000 0.000000 0.000000 1.000000 0.000000 0.000000 0.707083 0.707083 0.000000 0.707083 0.707083 0.000000 1.000000 0.000000 0.000000 -0.707083 -0.707083 0.000000 0.707083 -0.707083 0.000000 0.707083 -0.707083 0.000000 -0.707083 -0.707083 0.000000 -0.707083 -0.707083 0.000000 0.707083 -0.707083 0.000000 0.707083 -0.707083 0.000000 -0.707083 -0.707083 0.000000 0.707083 0.707083 0.000000 -0.707083 0.707083 0.000000 0.707083 0.707083 0.000000 0.707083 0.707083 0.000000 -0.707083 0.707083 0.000000 -0.707083 0.707083 0.000000 0.707083 0.707083 0.000000 -1.000000 0.000000 0.000000 -1.000000 0.000000 0.000000 -1.000000 0.000000 0.000000 -1.000000 0.000000 0.000000 0.707083 -0.707083 0.000000 1.000000 0.000000 0.000000 1.000000 0.000000 0.000000 0.707083 -0.707083 0.000000 0.707083 -0.707083 0.000000 1.000000 0.000000 0.000000 1.000000 0.000000 0.000000 0.707083 -0.707083 0.000000 -1.000000 0.000000 -0.707083 -0.707083 0.000000 -0.577349 -0.577349 -0.577349 -0.707083 -0.707083 0.000000 -0.707083 0.707083 0.000000 -0.577349 0.577349 -0.577349 0.000000 0.707083 -0.707083 0.000000 1.000000 0.000000 0.707083 0.707083 0.000000 0.577349 0.577349 -0.577349 0.577349 0.577349 -0.577349 0.707083 0.707083 0.000000 0.707083 -0.707083 0.000000 -0.577349 0.577349 -0.577349 -0.707083 0.707083 0.000000 0.000000 1.000000 0.000000 0.000000 0.707083 -0.707083 0.000000 0.707083 -0.707083 0.000000 1.000000 0.000000 0.000000 1.000000 0.000000 0.000000 0.707083 -0.707083 0.577349 -0.577349 -0.577349 0.707083 -0.707083 0.000000 0.000000 -1.000000 0.000000 0.000000 -1.000000 0.000000 0.000000 -1.000000 0.000000 " />
							<TextureCoordinate point="0.0240 0.0529 0.2279 0.0529 0.2279 0.9471 0.0240 0.9471 0.0240 0.0529 0.2279 0.0529 0.2279 0.9471 0.0240 0.9471 0.0240 0.0529 0.2279 0.0529 0.2279 0.9471 0.0240 0.9471 0.0240 0.0529 0.2279 0.0529 0.2279 0.9471 0.0240 0.9471 0.0240 0.0529 0.2279 0.0529 0.2279 0.9471 0.0240 0.9471 0.0240 0.0529 0.2279 0.0529 0.0240 0.9471 0.0240 0.0529 0.2279 0.9471 0.0240 0.9471 0.0240 0.0529 0.2279 0.0529 0.2279 0.9471 0.0240 0.9471 0.0240 0.0529 0.2279 0.0529 0.2279 0.9471 0.0240 0.9471 0.0240 0.0529 0.2279 0.0529 0.2279 0.9471 0.0240 0.9471 0.0240 0.0529 0.2279 0.0529 0.2279 0.9471 0.0240 0.9471 0.0240 0.0529 0.2279 0.0529 0.2279 0.9471 0.0240 0.9471 0.0240 0.0529 0.2279 0.0529 0.0240 0.9471 0.0240 0.0529 0.2279 0.0529 0.0240 0.9471 0.0240 0.0529 0.2279 0.0529 0.2279 0.9471 0.0240 0.9471 0.0240 0.0529 0.2279 0.0529 0.2279 0.9471 0.0240 0.9471 0.0240 0.0529 0.2279 0.0529 0.2279 0.9471 0.0240 0.9471 0.0240 0.0529 0.2279 0.0529 0.2279 0.9471 0.0240 0.9471 0.0240 0.0529 0.2279 0.0529 0.2279 0.9471 0.0240 0.9471 0.0240 0.0529 0.2279 0.0529 0.2279 0.9471 0.0240 0.9471 0.0240 0.0529 0.2279 0.0529 0.2279 0.9471 0.0240 0.9471 0.0240 0.0529 0.2279 0.0529 0.2279 0.9471 0.0240 0.9471 0.0240 0.0529 0.2279 0.0529 0.2279 0.9471 0.0240 0.9471 0.0240 0.0529 0.2279 0.0529 0.2279 0.9471 0.0240 0.9471 0.0240 0.0529 0.2279 0.0529 0.2279 0.9471 0.0240 0.9471 0.0240 0.0529 0.2279 0.0529 0.2279 0.9471 0.0240 0.9471 0.0240 0.0529 0.2279 0.0529 0.2279 0.9471 0.0240 0.9471 0.0240 0.0529 0.2279 0.0529 0.2279 0.9471 0.0240 0.9471 0.0240 0.0529 0.2279 0.0529 0.2279 0.9471 0.0240 0.9471 0.0240 0.0529 0.2279 0.0529 0.2279 0.9471 0.0240 0.9471 0.9688 0.0000 0.9688 0.3125 0.5312 0.3125 0.5312 0.0000 0.5625 0.8750 0.5625 0.4375 0.9375 0.4375 0.9375 0.8750 0.0240 0.0529 0.2279 0.0529 0.2279 0.9471 0.0240 0.9471 0.0240 0.0529 0.2279 0.0529 0.2279 0.9471 0.0240 0.9471 0.0240 0.0529 0.2279 0.0529 0.2279 0.9471 0.0240 0.9471 0.0240 0.0529 0.2279 0.9471 0.0240 0.9471 0.5625 0.2500 0.9375 0.2500 0.0240 0.0529 0.2279 0.0529 0.2279 0.9471 0.0240 0.9471 0.9688 0.4375 0.9688 0.6875 0.5312 0.6875 0.5312 0.4375 0.0240 0.0529 0.2279 0.0529 0.2279 0.9471 0.0240 0.9471 0.0240 0.0529 0.2279 0.0529 0.2279 0.9471 0.0240 0.9471 0.0240 0.0529 0.2279 0.9471 0.0240 0.9471 0.9688 0.3125 0.9688 0.5625 0.5312 0.5625 0.5312 0.3125 0.2279 0.0529 0.2279 0.9471 0.2279 0.0529 0.2279 0.9471 0.0240 0.0529 0.2279 0.0529 0.2279 0.9471 0.0240 0.9471 0.0240 0.0529 0.2279 0.0529 0.2279 0.9471 0.0240 0.9471 0.2279 0.0529 0.2279 0.9471 0.0240 0.9471 0.2279 0.0529 0.2279 0.9471 0.0240 0.9471 0.0240 0.0529 0.2279 0.0529 0.2279 0.9471 0.0240 0.9471 0.0240 0.0529 0.2279 0.0529 0.2279 0.9471 0.0240 0.0529 0.2279 0.0529 0.2279 0.9471 0.0240 0.9471 0.0240 0.0529 0.2279 0.0529 0.2279 0.9471 0.0240 0.9471 0.0240 0.0529 0.2279 0.0529 0.2279 0.9471 0.2279 0.0529 0.2279 0.9471 " />
						</IndexedTriangleSet>
					</Shape>
					<Shape>
						<Appearance>
							<Material DEF="MA_Face"
							          diffuseColor="0.800 0.800 0.800"
							          specularColor="0.401 0.401 0.401"
							          emissiveColor="0.000 0.000 0.000"
							          ambientIntensity="0.000"
							          shininess="0.500"
							          transparency="0.0"
							          />
						</Appearance>
						<IndexedTriangleSet solid="false"
						                    normalPerVertex="true"
						                    index="0 1 2 0 2 3 4 5 6 4 6 7 8 9 10 8 10 11 "
						                    >
							<Coordinate point="-0.548866 -1.658217 1.237049 -0.548866 -1.658217 1.826176 -1.125068 -1.658217 1.826176 -1.125068 -1.658217 1.237049 1.125068 -1.658217 1.237049 1.125068 -1.658217 1.826176 0.548866 -1.658217 1.826176 0.548866 -1.658217 1.237049 0.548866 -1.658217 0.608707 0.548866 -1.658217 1.237049 -0.548866 -1.658217 1.237049 -0.548866 -1.658217 0.608707 " />
							<Normal vector="0.000000 -1.000000 0.000000 0.000000 -1.000000 0.000000 0.000000 -1.000000 0.000000 0.000000 -1.000000 0.000000 0.000000 -1.000000 0.000000 0.000000 -1.000000 0.000000 0.000000 -1.000000 0.000000 0.000000 -1.000000 0.000000 0.000000 -1.000000 0.000000 0.000000 -1.000000 0.000000 0.000000 -1.000000 0.000000 0.000000 -1.000000 0.000000 " />
							<TextureCoordinate point="0.5000 0.5000 0.5000 1.0000 0.0000 1.0000 0.0000 0.5000 0.5000 0.5000 0.5000 1.0000 0.0000 1.0000 0.0000 0.5000 1.0000 0.5000 1.0000 1.0000 0.5000 1.0000 0.5000 0.5000 " />
						</IndexedTriangleSet>
					</Shape>
				</Group>
			</Transform>
			<Transform DEF="leaf_TRANSFORM"
			           translation="-0.000000 0.225830 2.988930"
			           scale="1.000000 1.000000 1.000000"
			           rotation="0.000000 1.000000 0.000000 0.000000"
			           >
				<Transform DEF="leaf_ifs_TRANSFORM"
				           translation="0.000000 0.000000 0.000000"
				           scale="1.000000 1.000000 1.000000"
				           rotation="0.000000 1.000000 0.000000 0.000000"
				           >
					<Group DEF="group_ME_leaf">
						<Shape>
							<Appearance>
								<Material USE="MA_Body" />
							</Appearance>
							<IndexedTriangleSet solid="false"
							                    normalPerVertex="true"
							                    index="0 1 2 0 2 3 4 5 6 4 6 7 8 9 10 8 10 11 12 13 14 12 14 15 4 16 17 4 17 15 18 5 14 18 14 19 "
							                    >
								<Coordinate point="0.118844 -0.088214 0.079638 0.118844 0.236611 0.439443 -0.118844 0.236611 0.439443 -0.118844 -0.088214 0.079638 -0.118844 -0.088214 0.079638 -0.118844 0.236611 0.439443 -0.118844 0.413038 0.280168 -0.118844 0.088214 -0.079638 -0.118844 0.088214 -0.079638 -0.118844 0.413038 0.280168 0.118844 0.413038 0.280168 0.118844 0.088214 -0.079638 0.118844 0.088214 -0.079638 0.118844 0.413038 0.280168 0.118844 0.236611 0.439443 0.118844 -0.088214 0.079638 -0.118844 0.088214 -0.079638 0.118844 0.088214 -0.079638 -0.118844 0.413038 0.280168 0.118844 0.413038 0.280168 " />
								<Normal vector="0.577349 -0.815424 -0.041658 0.577349 -0.041658 0.815424 -0.577349 -0.041658 0.815424 -0.577349 -0.815424 -0.041658 -0.577349 -0.815424 -0.041658 -0.577349 -0.041658 0.815424 -0.577349 0.815424 0.041658 -0.577349 0.041658 -0.815424 -0.577349 0.041658 -0.815424 -0.577349 0.815424 0.041658 0.577349 0.815424 0.041658 0.577349 0.041658 -0.815424 0.577349 0.041658 -0.815424 0.577349 0.815424 0.041658 0.577349 -0.041658 0.815424 0.577349 -0.815424 -0.041658 -0.577349 0.041658 -0.815424 0.577349 0.041658 -0.815424 -0.577349 0.815424 0.041658 0.577349 0.815424 0.041658 " />
								<TextureCoordinate point="0.2701 0.5513 0.4740 0.5513 0.4740 0.9409 0.2701 0.9409 0.2701 0.5513 0.4740 0.5513 0.4740 0.9409 0.2701 0.9409 0.2701 0.5513 0.4740 0.5513 0.4740 0.9409 0.2701 0.9409 0.2701 0.5513 0.4740 0.5513 0.4740 0.9409 0.2701 0.9409 0.4740 0.5513 0.4740 0.9409 0.2701 0.5513 0.2701 0.9409 " />
							</IndexedTriangleSet>
						</Shape>
					</Group>
				</Transform>
				<Transform DEF="Cube_003_TRANSFORM"
				           translation="-0.000000 0.260672 0.288743"
				           scale="1.000000 1.000000 1.000000"
				           rotation="0.000000 1.000000 0.000000 0.000000"
				           >
					<Transform DEF="Cube_003_ifs_TRANSFORM"
					           translation="0.000000 0.000000 0.000000"
					           scale="1.000000 1.000000 1.000000"
					           rotation="0.000000 1.000000 0.000000 0.000000"
					           >
						<Group DEF="group_ME_Cube_003">
							<Shape>
								<Appearance>
									<Material USE="MA_Body" />
								</Appearance>
								<IndexedTriangleSet solid="false"
								                    normalPerVertex="true"
								                    index="0 1 2 0 2 3 4 5 6 4 6 7 8 9 10 8 10 11 12 13 14 12 14 15 4 16 17 4 17 15 18 5 14 18 14 19 "
								                    >
									<Coordinate point="0.225555 -0.196256 0.177176 0.225555 0.258554 0.680965 -0.225555 0.258554 0.680965 -0.225555 -0.196256 0.177176 -0.225555 -0.196256 0.177176 -0.225555 0.258554 0.680965 -0.225555 0.651066 0.326614 -0.225555 0.196256 -0.177176 -0.225555 0.196256 -0.177176 -0.225555 0.651066 0.326614 0.225555 0.651066 0.326614 0.225555 0.196256 -0.177176 0.225555 0.196256 -0.177176 0.225555 0.651066 0.326614 0.225555 0.258554 0.680965 0.225555 -0.196256 0.177176 -0.225555 0.196256 -0.177176 0.225555 0.196256 -0.177176 -0.225555 0.651066 0.326614 0.225555 0.651066 0.326614 " />
									<Normal vector="0.577349 -0.815424 -0.041658 0.577349 -0.041658 0.815424 -0.577349 -0.041658 0.815424 -0.577349 -0.815424 -0.041658 -0.577349 -0.815424 -0.041658 -0.577349 -0.041658 0.815424 -0.577349 0.815424 0.041658 -0.577349 0.041658 -0.815424 -0.577349 0.041658 -0.815424 -0.577349 0.815424 0.041658 0.577349 0.815424 0.041658 0.577349 0.041658 -0.815424 0.577349 0.041658 -0.815424 0.577349 0.815424 0.041658 0.577349 -0.041658 0.815424 0.577349 -0.815424 -0.041658 -0.577349 0.041658 -0.815424 0.577349 0.041658 -0.815424 -0.577349 0.815424 0.041658 0.577349 0.815424 0.041658 " />
									<TextureCoordinate point="0.2701 0.5513 0.4740 0.5513 0.4740 0.9409 0.2701 0.9409 0.2701 0.5513 0.4740 0.5513 0.4740 0.9409 0.2701 0.9409 0.2701 0.5513 0.4740 0.5513 0.4740 0.9409 0.2701 0.9409 0.2701 0.5513 0.4740 0.5513 0.4740 0.9409 0.2701 0.9409 0.4740 0.5513 0.4740 0.9409 0.2701 0.5513 0.2701 0.9409 " />
								</IndexedTriangleSet>
							</Shape>
						</Group>
					</Transform>
					<Transform DEF="Cube_004_TRANSFORM"
					           translation="-0.000000 0.381987 0.324039"
					           scale="1.000000 1.000000 1.000000"
					           rotation="0.000000 1.000000 0.000000 0.000000"
					           >
						<Transform DEF="Cube_004_ifs_TRANSFORM"
						           translation="0.000000 0.000000 0.000000"
						           scale="1.000000 1.000000 1.000000"
						           rotation="0.000000 1.000000 0.000000 0.000000"
						           >
							<Group DEF="group_ME_Cube_004">
								<Shape>
									<Appearance>
										<Material USE="MA_Body" />
									</Appearance>
									<IndexedTriangleSet solid="false"
									                    normalPerVertex="true"
									                    index="0 1 2 0 2 3 4 5 6 4 6 7 8 9 10 8 10 11 12 13 14 12 14 15 4 16 17 4 17 15 18 5 14 18 14 19 "
									                    >
										<Coordinate point="0.400303 -0.310307 0.171026 0.400303 0.045213 0.816074 -0.400303 0.045213 0.816074 -0.400303 -0.310307 0.171026 -0.400303 -0.310307 0.171026 -0.400303 0.045213 0.816074 -0.400303 0.665826 0.474021 -0.400303 0.310307 -0.171026 -0.400303 0.310307 -0.171026 -0.400303 0.665826 0.474021 0.400303 0.665826 0.474021 0.400303 0.310307 -0.171026 0.400303 0.310307 -0.171026 0.400303 0.665826 0.474021 0.400303 0.045213 0.816074 0.400303 -0.310307 0.171026 -0.400303 0.310307 -0.171026 0.400303 0.310307 -0.171026 -0.400303 0.665826 0.474021 0.400303 0.665826 0.474021 " />
										<Normal vector="0.577349 -0.784295 -0.226936 0.577349 -0.226936 0.784295 -0.577349 -0.226936 0.784295 -0.577349 -0.784295 -0.226936 -0.577349 -0.784295 -0.226936 -0.577349 -0.226936 0.784295 -0.577349 0.784295 0.226936 -0.577349 0.226936 -0.784295 -0.577349 0.226936 -0.784295 -0.577349 0.784295 0.226936 0.577349 0.784295 0.226936 0.577349 0.226936 -0.784295 0.577349 0.226936 -0.784295 0.577349 0.784295 0.226936 0.577349 -0.226936 0.784295 0.577349 -0.784295 -0.226936 -0.577349 0.226936 -0.784295 0.577349 0.226936 -0.784295 -0.577349 0.784295 0.226936 0.577349 0.784295 0.226936 " />
										<TextureCoordinate point="0.2701 0.5513 0.4740 0.5513 0.4740 0.9409 0.2701 0.9409 0.2701 0.5513 0.4740 0.5513 0.4740 0.9409 0.2701 0.9409 0.2701 0.5513 0.4740 0.5513 0.4740 0.9409 0.2701 0.9409 0.2701 0.5513 0.4740 0.5513 0.4740 0.9409 0.2701 0.9409 0.4740 0.5513 0.4740 0.9409 0.2701 0.5513 0.2701 0.9409 " />
									</IndexedTriangleSet>
								</Shape>
							</Group>
						</Transform>
						<Transform DEF="Cube_005_TRANSFORM"
						           translation="-0.000000 0.264419 0.479757"
						           scale="1.000000 1.000000 1.000000"
						           rotation="0.000000 1.000000 0.000000 0.000000"
						           >
							<Transform DEF="Cube_005_ifs_TRANSFORM"
							           translation="0.000000 0.000000 0.000000"
							           scale="1.000000 1.000000 1.000000"
							           rotation="0.000000 1.000000 0.000000 0.000000"
							           >
								<Group DEF="group_ME_Cube_005">
									<Shape>
										<Appearance>
											<Material USE="MA_Body" />
										</Appearance>
										<IndexedTriangleSet solid="false"
										                    normalPerVertex="true"
										                    index="0 1 2 0 2 3 4 5 6 4 6 7 8 9 10 8 10 11 12 13 14 12 14 15 4 16 17 4 17 15 18 5 14 18 14 19 "
										                    >
											<Coordinate point="0.496887 -0.289392 0.097119 0.496887 -0.088551 0.695577 -0.496887 -0.088552 0.695577 -0.496887 -0.289393 0.097120 -0.496887 -0.289393 0.097120 -0.496887 -0.088552 0.695577 -0.496887 0.490233 0.501338 -0.496887 0.289392 -0.097119 -0.496887 0.289392 -0.097119 -0.496887 0.490233 0.501338 0.496887 0.490234 0.501338 0.496887 0.289393 -0.097120 0.496887 0.289393 -0.097120 0.496887 0.490234 0.501338 0.496887 -0.088551 0.695577 0.496887 -0.289392 0.097119 -0.496887 0.289392 -0.097119 0.496887 0.289393 -0.097120 -0.496887 0.490233 0.501338 0.496887 0.490234 0.501338 " />
											<Normal vector="0.577349 -0.731010 -0.363659 0.577349 -0.363659 0.731010 -0.577349 -0.363659 0.731010 -0.577349 -0.731010 -0.363659 -0.577349 -0.731010 -0.363659 -0.577349 -0.363659 0.731010 -0.577349 0.731010 0.363659 -0.577349 0.363659 -0.731010 -0.577349 0.363659 -0.731010 -0.577349 0.731010 0.363659 0.577349 0.731010 0.363659 0.577349 0.363659 -0.731010 0.577349 0.363659 -0.731010 0.577349 0.731010 0.363659 0.577349 -0.363659 0.731010 0.577349 -0.731010 -0.363659 -0.577349 0.363659 -0.731010 0.577349 0.363659 -0.731010 -0.577349 0.731010 0.363659 0.577349 0.731010 0.363659 " />
											<TextureCoordinate point="0.2701 0.5513 0.4740 0.5513 0.4740 0.9409 0.2701 0.9409 0.2701 0.5513 0.4740 0.5513 0.4740 0.9409 0.2701 0.9409 0.2701 0.5513 0.4740 0.5513 0.4740 0.9409 0.2701 0.9409 0.2701 0.5513 0.4740 0.5513 0.4740 0.9409 0.2701 0.9409 0.4740 0.5513 0.4740 0.9409 0.2701 0.5513 0.2701 0.9409 " />
										</IndexedTriangleSet>
									</Shape>
								</Group>
							</Transform>
						</Transform>
					</Transform>
				</Transform>
				<Transform DEF="arm1_TRANSFORM"
				           translation="-0.000000 1.010010 0.773699"
				           scale="1.000000 1.000000 1.000000"
				           rotation="0.000000 1.000000 0.000000 0.000000"
				           >
					<Transform DEF="arm1_ifs_TRANSFORM"
					           translation="0.000000 0.000000 0.000000"
					           scale="1.000000 1.000000 1.000000"
					           rotation="0.000000 1.000000 0.000000 0.000000"
					           >
						<Group DEF="group_ME_arm1">
							<Shape>
								<Appearance>
									<Material USE="MA_Body" />
								</Appearance>
								<IndexedTriangleSet solid="false"
								                    normalPerVertex="true"
								                    index="0 1 2 0 2 3 4 5 6 4 6 7 8 9 10 8 10 11 12 13 14 12 14 15 4 16 17 4 17 15 18 5 14 18 14 19 "
								                    >
									<Coordinate point="0.189851 0.154822 0.157581 0.189851 0.450119 -0.132547 -0.189851 0.450119 -0.132547 -0.189851 0.154822 0.157581 -0.189851 0.154822 0.157581 -0.189851 0.450119 -0.132547 -0.189851 0.140475 -0.447708 -0.189851 -0.154822 -0.157581 -0.189851 -0.154822 -0.157581 -0.189851 0.140475 -0.447708 0.189851 0.140475 -0.447708 0.189851 -0.154822 -0.157581 0.189851 -0.154822 -0.157581 0.189851 0.140475 -0.447708 0.189851 0.450119 -0.132547 0.189851 0.154822 0.157581 -0.189851 -0.154822 -0.157581 0.189851 -0.154822 -0.157581 -0.189851 0.140475 -0.447708 0.189851 0.140475 -0.447708 " />
									<Normal vector="0.577349 -0.007202 0.816462 0.577349 0.816462 0.007202 -0.577349 0.816462 0.007202 -0.577349 -0.007202 0.816462 -0.577349 -0.007202 0.816462 -0.577349 0.816462 0.007202 -0.577349 0.007202 -0.816462 -0.577349 -0.816462 -0.007202 -0.577349 -0.816462 -0.007202 -0.577349 0.007202 -0.816462 0.577349 0.007202 -0.816462 0.577349 -0.816462 -0.007202 0.577349 -0.816462 -0.007202 0.577349 0.007202 -0.816462 0.577349 0.816462 0.007202 0.577349 -0.007202 0.816462 -0.577349 -0.816462 -0.007202 0.577349 -0.816462 -0.007202 -0.577349 0.007202 -0.816462 0.577349 0.007202 -0.816462 " />
									<TextureCoordinate point="0.2701 0.5513 0.4740 0.5513 0.4740 0.9409 0.2701 0.9409 0.2701 0.5513 0.4740 0.5513 0.4740 0.9409 0.2701 0.9409 0.2701 0.5513 0.4740 0.5513 0.4740 0.9409 0.2701 0.9409 0.2701 0.5513 0.4740 0.5513 0.4740 0.9409 0.2701 0.9409 0.4740 0.5513 0.4740 0.9409 0.2701 0.5513 0.2701 0.9409 " />
								</IndexedTriangleSet>
							</Shape>
						</Group>
					</Transform>
					<Transform DEF="head_TRANSFORM"
					           translation="-0.000000 0.623939 -0.561152"
					           scale="1.000000 1.000000 1.000000"
					           rotation="0.000000 1.000000 0.000000 0.000000"
					           >
						<Transform DEF="head_ifs_TRANSFORM"
						           translation="0.000000 0.000000 0.000000"
						           scale="1.000000 1.000000 1.000000"
						           rotation="0.000000 1.000000 0.000000 0.000000"
						           >
							<Group DEF="group_ME_head">
								<Shape>
									<Appearance>
										<Material USE="MA_Body" />
									</Appearance>
									<IndexedTriangleSet solid="false"
									                    normalPerVertex="true"
									                    index="0 1 2 0 2 3 4 5 6 4 6 7 8 9 10 8 10 11 12 13 14 12 14 15 16 17 18 16 18 19 20 21 14 20 14 22 23 5 24 23 24 25 26 27 28 26 28 29 30 31 24 30 24 32 33 21 34 33 34 35 26 36 37 26 37 38 39 40 41 39 41 42 43 44 45 43 45 19 46 47 48 46 48 29 49 50 51 49 51 52 53 54 55 53 55 56 16 57 58 16 58 59 60 61 62 60 62 63 64 65 66 64 66 67 68 69 70 68 70 71 "
									                    >
										<Coordinate point="0.906949 1.712020 0.085329 0.906949 1.919121 -0.031225 -0.906949 1.919121 -0.031225 -0.906949 1.712020 0.085329 -0.906949 1.263734 -0.711215 -0.906949 1.470835 -0.827769 -0.906949 1.022550 -1.624313 -0.906949 0.815449 -1.507759 -0.906949 0.815449 -1.507759 -0.906949 1.022550 -1.624313 0.906949 1.022550 -1.624313 0.906949 0.815449 -1.507759 0.906949 1.263734 -0.711215 0.906949 1.470835 -0.827769 0.906949 1.919121 -0.031225 0.906949 1.712020 0.085329 -0.906949 0.000000 0.000000 -0.906949 -0.448286 -0.796544 0.906949 -0.448286 -0.796544 0.906949 -0.000000 -0.000000 -0.906949 1.470835 -0.827769 -0.906949 1.919121 -0.031225 0.906949 1.470835 -0.827769 -0.906949 1.022550 -1.624313 0.906949 1.470835 -0.827769 0.906949 1.022550 -1.624313 -0.906949 0.448286 0.796544 -0.906949 0.000000 0.000000 0.906949 -0.000000 -0.000000 0.906949 0.448286 0.796544 0.906949 0.815449 -1.507759 0.906949 1.022550 -1.624313 0.906949 1.263734 -0.711215 -0.906949 1.712020 0.085329 -0.906949 1.470835 -0.827769 -0.906949 1.263734 -0.711215 -0.906949 0.655387 0.679990 -0.906949 0.207101 -0.116554 -0.906949 0.000000 0.000000 -0.906949 0.655387 0.679990 -0.906949 1.712020 0.085329 -0.906949 1.263734 -0.711215 -0.906949 0.207101 -0.116554 0.906949 -0.448286 -0.796544 0.906949 -0.241185 -0.913098 0.906949 0.207101 -0.116554 0.906949 -0.000000 -0.000000 0.906949 0.207101 -0.116554 0.906949 0.655387 0.679990 -0.906949 -0.448286 -0.796544 -0.906949 -0.241184 -0.913098 0.906949 -0.241185 -0.913098 0.906949 -0.448286 -0.796544 -0.906949 -0.241184 -0.913098 -0.906949 0.815449 -1.507759 0.906949 0.815449 -1.507759 0.906949 -0.241185 -0.913098 -0.906949 0.207101 -0.116554 -0.906949 -0.241184 -0.913098 -0.906949 -0.448286 -0.796544 -0.906949 0.207101 -0.116554 -0.906949 1.263734 -0.711215 -0.906949 0.815449 -1.507759 -0.906949 -0.241184 -0.913098 0.906949 0.448286 0.796544 0.906949 0.655387 0.679990 -0.906949 0.655387 0.679990 -0.906949 0.448286 0.796544 0.906949 0.655387 0.679990 0.906949 1.712020 0.085329 -0.906949 1.712020 0.085329 -0.906949 0.655387 0.679990 " />
										<Normal vector="0.707083 0.346782 0.616199 0.577349 0.786279 0.219977 -0.577349 0.786279 0.219977 -0.707083 0.346782 0.616199 -1.000000 0.000000 0.000000 -0.707083 0.616199 -0.346782 -0.577349 0.219977 -0.786279 -0.707083 -0.346782 -0.616199 -0.707083 -0.346782 -0.616199 -0.577349 0.219977 -0.786279 0.577349 0.219977 -0.786279 0.707083 -0.346782 -0.616199 1.000000 0.000000 0.000000 0.707083 0.616199 -0.346782 0.577349 0.786279 0.219977 0.707083 0.346782 0.616199 -0.707083 -0.616199 0.346782 -0.577349 -0.786279 -0.219977 0.577349 -0.786279 -0.219977 0.707083 -0.616199 0.346782 -0.707083 0.616199 -0.346782 -0.577349 0.786279 0.219977 0.707083 0.616199 -0.346782 -0.577349 0.219977 -0.786279 0.707083 0.616199 -0.346782 0.577349 0.219977 -0.786279 -0.577349 -0.219977 0.786279 -0.707083 -0.616199 0.346782 0.707083 -0.616199 0.346782 0.577349 -0.219977 0.786279 0.707083 -0.346782 -0.616199 0.577349 0.219977 -0.786279 1.000000 0.000000 0.000000 -0.707083 0.346782 0.616199 -0.707083 0.616199 -0.346782 -1.000000 0.000000 0.000000 -0.707083 0.346782 0.616199 -1.000000 0.000000 0.000000 -0.707083 -0.616199 0.346782 -0.707083 0.346782 0.616199 -0.707083 0.346782 0.616199 -1.000000 0.000000 0.000000 -1.000000 0.000000 0.000000 0.577349 -0.786279 -0.219977 0.707083 -0.346782 -0.616199 1.000000 0.000000 0.000000 0.707083 -0.616199 0.346782 1.000000 0.000000 0.000000 0.707083 0.346782 0.616199 -0.577349 -0.786279 -0.219977 -0.707083 -0.346782 -0.616199 0.707083 -0.346782 -0.616199 0.577349 -0.786279 -0.219977 -0.707083 -0.346782 -0.616199 -0.707083 -0.346782 -0.616199 0.707083 -0.346782 -0.616199 0.707083 -0.346782 -0.616199 -1.000000 0.000000 0.000000 -0.707083 -0.346782 -0.616199 -0.577349 -0.786279 -0.219977 -1.000000 0.000000 0.000000 -1.000000 0.000000 0.000000 -0.707083 -0.346782 -0.616199 -0.707083 -0.346782 -0.616199 0.577349 -0.219977 0.786279 0.707083 0.346782 0.616199 -0.707083 0.346782 0.616199 -0.577349 -0.219977 0.786279 0.707083 0.346782 0.616199 0.707083 0.346782 0.616199 -0.707083 0.346782 0.616199 -0.707083 0.346782 0.616199 " />
										<TextureCoordinate point="0.0240 0.0529 0.2279 0.0529 0.2279 0.9471 0.0240 0.9471 0.0240 0.0529 0.2279 0.0529 0.2279 0.9471 0.0240 0.9471 0.0240 0.0529 0.2279 0.0529 0.2279 0.9471 0.0240 0.9471 0.0240 0.0529 0.2279 0.0529 0.2279 0.9471 0.0240 0.9471 0.0240 0.0529 0.2279 0.0529 0.2279 0.9471 0.0240 0.9471 0.0240 0.0529 0.2279 0.0529 0.0240 0.9471 0.0240 0.0529 0.2279 0.9471 0.0240 0.9471 0.0240 0.0529 0.2279 0.0529 0.2279 0.9471 0.0240 0.9471 0.0240 0.0529 0.2279 0.0529 0.0240 0.9471 0.0240 0.0529 0.2279 0.9471 0.0240 0.9471 0.2279 0.0529 0.2279 0.9471 0.0240 0.9471 0.0240 0.0529 0.2279 0.0529 0.2279 0.9471 0.0240 0.9471 0.0240 0.0529 0.2279 0.0529 0.2279 0.9471 0.0240 0.0529 0.2279 0.0529 0.2279 0.9471 0.0240 0.0529 0.2279 0.0529 0.2279 0.9471 0.0240 0.9471 0.0240 0.0529 0.2279 0.0529 0.2279 0.9471 0.0240 0.9471 0.2279 0.0529 0.2279 0.9471 0.0240 0.9471 0.0240 0.0529 0.2279 0.0529 0.2279 0.9471 0.0240 0.9471 0.0240 0.0529 0.2279 0.0529 0.2279 0.9471 0.0240 0.9471 0.0240 0.0529 0.2279 0.0529 0.2279 0.9471 0.0240 0.9471 " />
									</IndexedTriangleSet>
								</Shape>
								<Shape>
									<Appearance>
										<Material DEF="MA_Head"
										          diffuseColor="0.800 0.800 0.800"
										          specularColor="0.401 0.401 0.401"
										          emissiveColor="0.000 0.000 0.000"
										          ambientIntensity="0.000"
										          shininess="0.500"
										          transparency="0.0"
										          />
									</Appearance>
									<IndexedTriangleSet solid="false"
									                    normalPerVertex="true"
									                    index="0 1 2 0 2 3 3 2 4 3 4 5 "
									                    >
										<Coordinate point="0.906949 -0.241185 -0.913098 0.906949 0.815449 -1.507759 0.906949 1.263734 -0.711215 0.906949 0.207101 -0.116554 0.906949 1.712020 0.085329 0.906949 0.655387 0.679990 " />
										<Normal vector="0.707083 -0.346782 -0.616199 0.707083 -0.346782 -0.616199 1.000000 0.000000 0.000000 1.000000 0.000000 0.000000 0.707083 0.346782 0.616199 0.707083 0.346782 0.616199 " />
										<TextureCoordinate point="0.0000 1.0000 0.0000 0.5000 1.0000 0.5000 1.0000 1.0000 0.0000 0.5000 0.0000 1.0000 " />
									</IndexedTriangleSet>
								</Shape>
							</Group>
						</Transform>
					</Transform>
					<Transform DEF="Cube_007_TRANSFORM"
					           translation="-0.000000 0.200952 -0.238177"
					           scale="1.000000 1.000000 1.000000"
					           rotation="0.000000 1.000000 0.000000 0.000000"
					           >
						<Transform DEF="Cube_007_ifs_TRANSFORM"
						           translation="0.000000 0.000000 0.000000"
						           scale="1.000000 1.000000 1.000000"
						           rotation="0.000000 1.000000 0.000000 0.000000"
						           >
							<Group DEF="group_ME_Cube_007">
								<Shape>
									<Appearance>
										<Material USE="MA_Body" />
									</Appearance>
									<IndexedTriangleSet solid="false"
									                    normalPerVertex="true"
									                    index="0 1 2 0 2 3 4 5 6 4 6 7 8 9 10 8 10 11 12 13 14 12 14 15 4 16 17 4 17 15 18 5 14 18 14 19 "
									                    >
										<Coordinate point="0.103713 0.065808 0.101160 0.103714 0.568826 -0.226069 -0.103713 0.568827 -0.226069 -0.103713 0.065808 0.101160 -0.103713 0.065808 0.101160 -0.103713 0.568827 -0.226069 -0.103713 0.437211 -0.428389 -0.103713 -0.065808 -0.101160 -0.103713 -0.065808 -0.101160 -0.103713 0.437211 -0.428389 0.103714 0.437211 -0.428389 0.103713 -0.065808 -0.101160 0.103713 -0.065808 -0.101160 0.103714 0.437211 -0.428389 0.103714 0.568826 -0.226069 0.103713 0.065808 0.101160 -0.103713 -0.065808 -0.101160 0.103713 -0.065808 -0.101160 -0.103713 0.437211 -0.428389 0.103714 0.437211 -0.428389 " />
										<Normal vector="0.577349 -0.169103 0.798761 0.577349 0.798761 0.169103 -0.577349 0.798761 0.169103 -0.577349 -0.169103 0.798761 -0.577349 -0.169103 0.798761 -0.577349 0.798761 0.169103 -0.577349 0.169103 -0.798761 -0.577349 -0.798761 -0.169103 -0.577349 -0.798761 -0.169103 -0.577349 0.169103 -0.798761 0.577349 0.169103 -0.798761 0.577349 -0.798761 -0.169103 0.577349 -0.798761 -0.169103 0.577349 0.169103 -0.798761 0.577349 0.798761 0.169103 0.577349 -0.169103 0.798761 -0.577349 -0.798761 -0.169103 0.577349 -0.798761 -0.169103 -0.577349 0.169103 -0.798761 0.577349 0.169103 -0.798761 " />
										<TextureCoordinate point="0.2701 0.5513 0.4740 0.5513 0.4740 0.9409 0.2701 0.9409 0.2701 0.5513 0.4740 0.5513 0.4740 0.9409 0.2701 0.9409 0.2701 0.5513 0.4740 0.5513 0.4740 0.9409 0.2701 0.9409 0.2701 0.5513 0.4740 0.5513 0.4740 0.9409 0.2701 0.9409 0.4740 0.5513 0.4740 0.9409 0.2701 0.5513 0.2701 0.9409 " />
									</IndexedTriangleSet>
								</Shape>
							</Group>
						</Transform>
					</Transform>
				</Transform>
				<Transform DEF="leaf1_TRANSFORM"
				           translation="-0.000000 1.240739 1.596755"
				           scale="1.000000 1.000000 1.000000"
				           rotation="0.000000 1.000000 0.000000 0.000000"
				           >
					<Transform DEF="leaf1_ifs_TRANSFORM"
					           translation="0.000000 0.000000 0.000000"
					           scale="1.000000 1.000000 1.000000"
					           rotation="0.000000 1.000000 0.000000 0.000000"
					           >
						<Group DEF="group_ME_leaf1">
							<Shape>
								<Appearance>
									<Material USE="MA_Body" />
								</Appearance>
								<IndexedTriangleSet solid="false"
								                    normalPerVertex="true"
								                    index="0 1 2 0 2 3 4 5 6 4 6 7 8 9 10 8 10 11 12 13 14 12 14 15 4 16 17 4 17 15 18 5 14 18 14 19 "
								                    >
									<Coordinate point="0.920806 -0.231843 -0.324887 0.920806 -1.129081 0.315392 -0.920806 -1.129081 0.315392 -0.920806 -0.231843 -0.324887 -0.920806 -0.231843 -0.324887 -0.920806 -1.129081 0.315392 -0.920806 -0.665394 0.965166 -0.920806 0.231843 0.324887 -0.920806 0.231843 0.324887 -0.920806 -0.665394 0.965166 0.920806 -0.665394 0.965166 0.920806 0.231843 0.324887 0.920806 0.231843 0.324887 0.920806 -0.665394 0.965166 0.920806 -1.129081 0.315392 0.920806 -0.231843 -0.324887 -0.920806 0.231843 0.324887 0.920806 0.231843 0.324887 -0.920806 -0.665394 0.965166 0.920806 -0.665394 0.965166 " />
									<Normal vector="0.577349 0.134587 -0.805322 0.577349 -0.805322 -0.134587 -0.577349 -0.805322 -0.134587 -0.577349 0.134587 -0.805322 -0.577349 0.134587 -0.805322 -0.577349 -0.805322 -0.134587 -0.577349 -0.134587 0.805322 -0.577349 0.805322 0.134587 -0.577349 0.805322 0.134587 -0.577349 -0.134587 0.805322 0.577349 -0.134587 0.805322 0.577349 0.805322 0.134587 0.577349 0.805322 0.134587 0.577349 -0.134587 0.805322 0.577349 -0.805322 -0.134587 0.577349 0.134587 -0.805322 -0.577349 0.805322 0.134587 0.577349 0.805322 0.134587 -0.577349 -0.134587 0.805322 0.577349 -0.134587 0.805322 " />
									<TextureCoordinate point="0.2701 0.0394 0.4740 0.0394 0.4740 0.4291 0.2701 0.4291 0.2701 0.5513 0.4740 0.5513 0.4740 0.9409 0.2701 0.9409 0.2701 0.5513 0.4740 0.5513 0.4740 0.9409 0.2701 0.9409 0.2701 0.5513 0.4740 0.5513 0.4740 0.9409 0.2701 0.9409 0.4740 0.5513 0.4740 0.9409 0.2701 0.5513 0.2701 0.9409 " />
								</IndexedTriangleSet>
							</Shape>
						</Group>
					</Transform>
					<Transform DEF="Cube_010_TRANSFORM"
					           translation="0.000000 -0.645159 0.513998"
					           scale="1.000000 1.000000 1.000000"
					           rotation="0.000000 1.000000 0.000000 0.000000"
					           >
						<Transform DEF="Cube_010_ifs_TRANSFORM"
						           translation="0.000000 0.000000 0.000000"
						           scale="1.000000 1.000000 1.000000"
						           rotation="0.000000 1.000000 0.000000 0.000000"
						           >
							<Group DEF="group_ME_Cube_011">
								<Shape>
									<Appearance>
										<Material USE="MA_Body" />
									</Appearance>
									<IndexedTriangleSet solid="false"
									                    normalPerVertex="true"
									                    index="0 1 2 0 2 3 4 5 6 4 6 7 8 9 10 8 10 11 12 13 14 12 14 15 4 16 17 4 17 15 18 5 14 18 14 19 "
									                    >
										<Coordinate point="1.348863 0.001774 -0.610939 1.348816 -1.721017 -0.616047 -1.348911 -1.720943 -0.616046 -1.348863 0.001849 -0.610938 -1.348863 0.001849 -0.610938 -1.348911 -1.720943 -0.616046 -1.348911 -1.724566 0.605831 -1.348863 -0.001774 0.610939 -1.348863 -0.001774 0.610939 -1.348911 -1.724566 0.605831 1.348816 -1.724640 0.605831 1.348863 -0.001849 0.610938 1.348863 -0.001849 0.610938 1.348816 -1.724640 0.605831 1.348816 -1.721017 -0.616047 1.348863 0.001774 -0.610939 -1.348863 -0.001774 0.610939 1.348863 -0.001849 0.610938 -1.348911 -1.724566 0.605831 1.348816 -1.724640 0.605831 " />
										<Normal vector="0.577349 0.579028 -0.575610 0.577319 -0.575640 -0.579058 -0.577349 -0.575610 -0.579058 -0.577319 0.579058 -0.575610 -0.577319 0.579058 -0.575610 -0.577349 -0.575610 -0.579058 -0.577349 -0.579028 0.575610 -0.577319 0.575640 0.579058 -0.577319 0.575640 0.579058 -0.577349 -0.579028 0.575610 0.577319 -0.579058 0.575610 0.577349 0.575610 0.579058 0.577349 0.575610 0.579058 0.577319 -0.579058 0.575610 0.577319 -0.575640 -0.579058 0.577349 0.579028 -0.575610 -0.577319 0.575640 0.579058 0.577349 0.575610 0.579058 -0.577349 -0.579028 0.575610 0.577319 -0.579058 0.575610 " />
										<TextureCoordinate point="0.2701 0.0394 0.4740 0.0394 0.4740 0.4291 0.2701 0.4291 0.2701 0.5513 0.4740 0.5513 0.4740 0.9409 0.2701 0.9409 0.2701 0.5513 0.4740 0.5513 0.4740 0.9409 0.2701 0.9409 0.2701 0.5513 0.4740 0.5513 0.4740 0.9409 0.2701 0.9409 0.4740 0.5513 0.4740 0.9409 0.2701 0.5513 0.2701 0.9409 " />
									</IndexedTriangleSet>
								</Shape>
							</Group>
						</Transform>
						<Transform DEF="Cube_011_TRANSFORM"
						           translation="0.000000 -1.526001 0.107456"
						           scale="1.000000 1.000000 1.000000"
						           rotation="0.000000 1.000000 0.000000 0.000000"
						           >
							<Transform DEF="Cube_011_ifs_TRANSFORM"
							           translation="0.000000 0.000000 0.000000"
							           scale="1.000000 1.000000 1.000000"
							           rotation="0.000000 1.000000 0.000000 0.000000"
							           >
								<Group DEF="group_ME_Cube_012">
									<Shape>
										<Appearance>
											<Material USE="MA_Body" />
										</Appearance>
										<IndexedTriangleSet solid="false"
										                    normalPerVertex="true"
										                    index="0 1 2 0 2 3 4 5 6 4 6 7 8 9 10 8 10 11 12 13 14 12 14 15 4 16 17 4 17 15 18 5 14 18 14 19 "
										                    >
											<Coordinate point="0.675634 0.082668 -0.253588 0.675634 -0.889758 -0.570595 -0.675634 -0.889758 -0.570595 -0.675634 0.082669 -0.253588 -0.675634 0.082669 -0.253588 -0.675634 -0.889758 -0.570595 -0.675634 -1.055095 -0.063419 -0.675634 -0.082668 0.253588 -0.675634 -0.082668 0.253588 -0.675634 -1.055095 -0.063419 0.675634 -1.055095 -0.063419 0.675634 -0.082669 0.253588 0.675634 -0.082669 0.253588 0.675634 -1.055095 -0.063419 0.675634 -0.889758 -0.570595 0.675634 0.082668 -0.253588 -0.675634 -0.082668 0.253588 0.675634 -0.082669 0.253588 -0.675634 -1.055095 -0.063419 0.675634 -1.055095 -0.063419 " />
											<Normal vector="0.577349 0.727836 -0.369945 0.577349 -0.369945 -0.727836 -0.577349 -0.369945 -0.727836 -0.577349 0.727836 -0.369945 -0.577349 0.727836 -0.369945 -0.577349 -0.369945 -0.727836 -0.577349 -0.727836 0.369945 -0.577349 0.369945 0.727836 -0.577349 0.369945 0.727836 -0.577349 -0.727836 0.369945 0.577349 -0.727836 0.369945 0.577349 0.369945 0.727836 0.577349 0.369945 0.727836 0.577349 -0.727836 0.369945 0.577349 -0.369945 -0.727836 0.577349 0.727836 -0.369945 -0.577349 0.369945 0.727836 0.577349 0.369945 0.727836 -0.577349 -0.727836 0.369945 0.577349 -0.727836 0.369945 " />
											<TextureCoordinate point="0.2701 0.0394 0.4740 0.0394 0.4740 0.4291 0.2701 0.4291 0.2701 0.5513 0.4740 0.5513 0.4740 0.9409 0.2701 0.9409 0.2701 0.5513 0.4740 0.5513 0.4740 0.9409 0.2701 0.9409 0.2701 0.5513 0.4740 0.5513 0.4740 0.9409 0.2701 0.9409 0.4740 0.5513 0.4740 0.9409 0.2701 0.5513 0.2701 0.9409 " />
										</IndexedTriangleSet>
									</Shape>
								</Group>
							</Transform>
						</Transform>
					</Transform>
				</Transform>
				<Transform DEF="leaf2_TRANSFORM"
				           translation="-0.000000 1.119178 1.478291"
				           scale="1.000000 1.000000 1.000000"
				           rotation="0.000000 1.000000 0.000000 0.000000"
				           >
					<Transform DEF="leaf2_ifs_TRANSFORM"
					           translation="0.000000 0.000000 0.000000"
					           scale="1.000000 1.000000 1.000000"
					           rotation="0.000000 1.000000 0.000000 0.000000"
					           >
						<Group DEF="group_ME_leaf2">
							<Shape>
								<Appearance>
									<Material USE="MA_Body" />
								</Appearance>
								<IndexedTriangleSet solid="false"
								                    normalPerVertex="true"
								                    index="0 1 2 0 2 3 4 5 6 4 6 7 8 9 10 8 10 11 12 13 14 12 14 15 4 16 17 4 17 15 18 5 14 18 14 19 "
								                    >
									<Coordinate point="0.892923 -0.105480 0.320712 0.892922 1.088347 0.713352 -0.892923 1.088346 0.713352 -0.892923 -0.105480 0.320712 -0.892923 -0.105480 0.320712 -0.892923 1.088346 0.713352 -0.892923 1.299306 0.071929 -0.892923 0.105480 -0.320712 -0.892923 0.105480 -0.320712 -0.892923 1.299306 0.071929 0.892922 1.299306 0.071929 0.892923 0.105480 -0.320712 0.892923 0.105480 -0.320712 0.892922 1.299306 0.071929 0.892922 1.088347 0.713352 0.892923 -0.105480 0.320712 -0.892923 0.105480 -0.320712 0.892923 0.105480 -0.320712 -0.892923 1.299306 0.071929 0.892922 1.299306 0.071929 " />
									<Normal vector="0.577349 -0.728813 0.368053 0.577349 0.368053 0.728813 -0.577349 0.368053 0.728813 -0.577349 -0.728813 0.368053 -0.577349 -0.728813 0.368053 -0.577349 0.368053 0.728813 -0.577349 0.728813 -0.368053 -0.577349 -0.368053 -0.728813 -0.577349 -0.368053 -0.728813 -0.577349 0.728813 -0.368053 0.577349 0.728813 -0.368053 0.577349 -0.368053 -0.728813 0.577349 -0.368053 -0.728813 0.577349 0.728813 -0.368053 0.577349 0.368053 0.728813 0.577349 -0.728813 0.368053 -0.577349 -0.368053 -0.728813 0.577349 -0.368053 -0.728813 -0.577349 0.728813 -0.368053 0.577349 0.728813 -0.368053 " />
									<TextureCoordinate point="0.2701 0.5513 0.4740 0.5513 0.4740 0.9409 0.2701 0.9409 0.2701 0.5513 0.4740 0.5513 0.4740 0.9409 0.2701 0.9409 0.2701 0.0394 0.4740 0.0394 0.4740 0.4291 0.2701 0.4291 0.2701 0.5513 0.4740 0.5513 0.4740 0.9409 0.2701 0.9409 0.4740 0.5513 0.4740 0.9409 0.2701 0.5513 0.2701 0.9409 " />
								</IndexedTriangleSet>
							</Shape>
						</Group>
					</Transform>
					<Transform DEF="Cube_013_TRANSFORM"
					           translation="-0.000000 0.745749 0.245271"
					           scale="1.000000 1.000000 1.000000"
					           rotation="0.000000 1.000000 0.000000 0.000000"
					           >
						<Transform DEF="Cube_013_ifs_TRANSFORM"
						           translation="0.000000 0.000000 0.000000"
						           scale="1.000000 1.000000 1.000000"
						           rotation="0.000000 1.000000 0.000000 0.000000"
						           >
							<Group DEF="group_ME_Cube_014">
								<Shape>
									<Appearance>
										<Material USE="MA_Body" />
									</Appearance>
									<IndexedTriangleSet solid="false"
									                    normalPerVertex="true"
									                    index="0 1 2 0 2 3 4 5 6 4 6 7 8 9 10 8 10 11 12 13 14 12 14 15 4 16 17 4 17 15 18 5 14 18 14 19 "
									                    >
										<Coordinate point="0.771815 0.067338 0.330829 0.771815 1.485845 0.042101 -0.771814 1.485845 0.042101 -0.771815 0.067338 0.330829 -0.771815 0.067338 0.330829 -0.771814 1.485845 0.042101 -0.771814 1.351169 -0.619557 -0.771815 -0.067338 -0.330829 -0.771815 -0.067338 -0.330829 -0.771814 1.351169 -0.619557 0.771815 1.351169 -0.619557 0.771815 -0.067338 -0.330829 0.771815 -0.067338 -0.330829 0.771815 1.351169 -0.619557 0.771815 1.485845 0.042101 0.771815 0.067338 0.330829 -0.771815 -0.067338 -0.330829 0.771815 -0.067338 -0.330829 -0.771814 1.351169 -0.619557 0.771815 1.351169 -0.619557 " />
										<Normal vector="0.577349 -0.450575 0.680898 0.577349 0.680898 0.450575 -0.577349 0.680898 0.450575 -0.577349 -0.450575 0.680898 -0.577349 -0.450575 0.680898 -0.577349 0.680898 0.450575 -0.577349 0.450575 -0.680898 -0.577349 -0.680898 -0.450575 -0.577349 -0.680898 -0.450575 -0.577349 0.450575 -0.680898 0.577349 0.450575 -0.680898 0.577349 -0.680898 -0.450575 0.577349 -0.680898 -0.450575 0.577349 0.450575 -0.680898 0.577349 0.680898 0.450575 0.577349 -0.450575 0.680898 -0.577349 -0.680898 -0.450575 0.577349 -0.680898 -0.450575 -0.577349 0.450575 -0.680898 0.577349 0.450575 -0.680898 " />
										<TextureCoordinate point="0.2701 0.5513 0.4740 0.5513 0.4740 0.9409 0.2701 0.9409 0.2701 0.5513 0.4740 0.5513 0.4740 0.9409 0.2701 0.9409 0.2701 0.0394 0.4740 0.0394 0.4740 0.4291 0.2701 0.4291 0.2701 0.5513 0.4740 0.5513 0.4740 0.9409 0.2701 0.9409 0.4740 0.5513 0.4740 0.9409 0.2701 0.5513 0.2701 0.9409 " />
									</IndexedTriangleSet>
								</Shape>
							</Group>
						</Transform>
					</Transform>
				</Transform>
			</Transform>
			<Transform DEF="foot1_TRANSFORM"
			           translation="0.868465 0.000000 0.138155"
			           scale="1.000000 1.000000 1.000000"
			           rotation="0.000000 1.000000 0.000000 0.000000"
			           >
				<Transform DEF="foot1_ifs_TRANSFORM"
				           translation="0.000000 0.000000 0.000000"
				           scale="1.000000 1.000000 1.000000"
				           rotation="0.000000 1.000000 0.000000 0.000000"
				           >
					<Group DEF="group_ME_foot1">
						<Shape>
							<Appearance>
								<Material USE="MA_Body" />
							</Appearance>
							<IndexedTriangleSet solid="false"
							                    normalPerVertex="true"
							                    index="0 1 2 0 2 3 4 5 6 4 6 7 8 9 10 8 10 11 12 13 14 12 14 15 4 16 17 4 17 15 18 5 14 18 14 19 "
							                    >
								<Coordinate point="0.327216 -0.367387 -0.437482 0.327216 -0.367387 0.000000 -0.327216 -0.367387 0.000000 -0.327216 -0.367387 -0.437482 -0.327216 -0.367387 -0.437482 -0.327216 -0.367387 0.000000 -0.327216 0.367387 0.000000 -0.327216 0.367387 -0.437482 -0.327216 0.367387 -0.437482 -0.327216 0.367387 0.000000 0.327216 0.367387 0.000000 0.327216 0.367387 -0.437482 0.327216 0.367387 -0.437482 0.327216 0.367387 0.000000 0.327216 -0.367387 0.000000 0.327216 -0.367387 -0.437482 -0.327216 0.367387 -0.437482 0.327216 0.367387 -0.437482 -0.327216 0.367387 0.000000 0.327216 0.367387 0.000000 " />
								<Normal vector="0.577349 -0.577349 -0.577349 0.577349 -0.577349 0.577349 -0.577349 -0.577349 0.577349 -0.577349 -0.577349 -0.577349 -0.577349 -0.577349 -0.577349 -0.577349 -0.577349 0.577349 -0.577349 0.577349 0.577349 -0.577349 0.577349 -0.577349 -0.577349 0.577349 -0.577349 -0.577349 0.577349 0.577349 0.577349 0.577349 0.577349 0.577349 0.577349 -0.577349 0.577349 0.577349 -0.577349 0.577349 0.577349 0.577349 0.577349 -0.577349 0.577349 0.577349 -0.577349 -0.577349 -0.577349 0.577349 -0.577349 0.577349 0.577349 -0.577349 -0.577349 0.577349 0.577349 0.577349 0.577349 0.577349 " />
								<TextureCoordinate point="0.0240 0.0529 0.2279 0.0529 0.2279 0.9471 0.0240 0.9471 0.0240 0.0529 0.2279 0.0529 0.2279 0.9471 0.0240 0.9471 0.0240 0.0529 0.2279 0.0529 0.2279 0.9471 0.0240 0.9471 0.0240 0.0529 0.2279 0.0529 0.2279 0.9471 0.0240 0.9471 0.2279 0.0529 0.2279 0.9471 0.0240 0.0529 0.0240 0.9471 " />
							</IndexedTriangleSet>
						</Shape>
					</Group>
				</Transform>
			</Transform>
			<Transform DEF="foot2_TRANSFORM"
			           translation="-0.868465 0.000000 0.138155"
			           scale="1.000000 1.000000 1.000000"
			           rotation="0.000000 1.000000 0.000000 0.000000"
			           >
				<Transform DEF="foot2_ifs_TRANSFORM"
				           translation="0.000000 0.000000 0.000000"
				           scale="1.000000 1.000000 1.000000"
				           rotation="0.000000 1.000000 0.000000 0.000000"
				           >
					<Group DEF="group_ME_foot2">
						<Shape>
							<Appearance>
								<Material USE="MA_Body" />
							</Appearance>
							<IndexedTriangleSet solid="false"
							                    normalPerVertex="true"
							                    index="0 1 2 0 2 3 4 5 6 4 6 7 8 9 10 8 10 11 12 13 14 12 14 15 4 13 16 4 16 17 18 19 14 18 14 7 "
							                    >
								<Coordinate point="-0.327216 -0.367387 -0.437482 0.327216 -0.367387 -0.437482 0.327216 -0.367387 -0.000000 -0.327216 -0.367387 -0.000000 0.327216 -0.367387 -0.437482 0.327216 0.367387 -0.437482 0.327216 0.367387 0.000000 0.327216 -0.367387 -0.000000 0.327216 0.367387 -0.437482 -0.327216 0.367387 -0.437482 -0.327216 0.367387 0.000000 0.327216 0.367387 0.000000 -0.327216 0.367387 -0.437482 -0.327216 -0.367387 -0.437482 -0.327216 -0.367387 -0.000000 -0.327216 0.367387 0.000000 -0.327216 0.367387 -0.437482 0.327216 0.367387 -0.437482 0.327216 0.367387 0.000000 -0.327216 0.367387 0.000000 " />
								<Normal vector="-0.577349 -0.577349 -0.577349 0.577349 -0.577349 -0.577349 0.577349 -0.577349 0.577349 -0.577349 -0.577349 0.577349 0.577349 -0.577349 -0.577349 0.577349 0.577349 -0.577349 0.577349 0.577349 0.577349 0.577349 -0.577349 0.577349 0.577349 0.577349 -0.577349 -0.577349 0.577349 -0.577349 -0.577349 0.577349 0.577349 0.577349 0.577349 0.577349 -0.577349 0.577349 -0.577349 -0.577349 -0.577349 -0.577349 -0.577349 -0.577349 0.577349 -0.577349 0.577349 0.577349 -0.577349 0.577349 -0.577349 0.577349 0.577349 -0.577349 0.577349 0.577349 0.577349 -0.577349 0.577349 0.577349 " />
								<TextureCoordinate point="0.0240 0.0529 0.0240 0.9471 0.2279 0.9471 0.2279 0.0529 0.0240 0.0529 0.0240 0.9471 0.2279 0.9471 0.2279 0.0529 0.0240 0.0529 0.0240 0.9471 0.2279 0.9471 0.2279 0.0529 0.0240 0.0529 0.0240 0.9471 0.2279 0.9471 0.2279 0.0529 0.2279 0.9471 0.2279 0.0529 0.0240 0.0529 0.0240 0.9471 " />
							</IndexedTriangleSet>
						</Shape>
					</Group>
				</Transform>
			</Transform>
		</Transform>
	</Scene>
</X3D>