<?xml version="1.0" encoding="UTF-8"?>
<!DOCTYPE X3D PUBLIC "ISO//Web3D//DTD X3D 3.0//EN" "http://www.web3d.org/specifications/x3d-3.0.dtd">
<X3D version="3.0" profile="Immersive" xmlns:xsd="http://www.w3.org/2001/XMLSchema-instance" xsd:noNamespaceSchemaLocation="http://www.web3d.org/specifications/x3d-3.0.xsd">
	<head>
		<meta name="filename" content="chimecho.x3d" />
		<meta name="generator" content="Blender 2.93.18" />
	</head>
	<Scene>
		<NavigationInfo headlight="true"
		                visibilityLimit="0.0"
		                type='"EXAMINE", "ANY"'
		                avatarSize="0.25, 1.75, 0.75"
		                />
		<Background DEF="WO_World"
		            groundColor="0.051 0.051 0.051"
		            skyColor="0.051 0.051 0.051"
		            />
		<Transform DEF="body_TRANSFORM"
		           translation="0.000000 0.000000 2.600805"
		           scale="1.000000 1.000000 1.000000"
		           rotation="0.000000 0.000000 1.000000 3.141593"
		           >
			<Transform DEF="body_ifs_TRANSFORM"
			           translation="0.000000 0.000000 0.000000"
			           scale="1.000000 1.000000 1.000000"
			           rotation="0.000000 1.000000 0.000000 0.000000"
			           >
				<Group DEF="group_ME_body">
					<Shape>
						<Appearance>
							<Material DEF="MA_Body"
							          diffuseColor="0.800 0.800 0.800"
							          specularColor="0.401 0.401 0.401"
							          emissiveColor="0.000 0.000 0.000"
							          ambientIntensity="0.000"
							          shininess="0.500"
							          transparency="0.0"
							          />
						</Appearance>
						<IndexedTriangleSet solid="false"
						                    normalPerVertex="true"
						                    index="0 1 2 0 2 3 4 5 6 4 6 7 8 9 10 8 10 11 12 13 14 12 14 15 16 17 18 16 18 19 20 21 14 20 14 22 23 5 24 23 24 25 26 27 28 26 28 29 30 31 32 30 32 33 34 35 36 34 36 37 38 39 40 38 40 41 42 43 44 42 44 45 46 47 24 46 24 48 49 50 28 49 28 51 52 53 32 52 32 54 55 21 56 55 56 57 58 31 59 58 59 60 61 27 62 61 62 63 64 65 66 64 66 67 68 69 70 68 70 71 72 73 74 72 74 75 76 77 78 76 78 79 80 81 82 80 82 83 84 85 86 84 86 87 88 89 90 88 90 91 92 93 94 92 94 95 96 97 98 96 98 99 100 101 102 100 102 103 104 105 101 104 101 100 106 107 108 106 108 109 110 111 112 110 112 113 114 115 107 114 107 106 99 98 115 99 115 114 113 112 105 113 105 104 116 117 118 116 118 119 16 120 121 16 121 122 123 124 125 123 125 126 127 128 129 127 129 37 130 131 132 130 132 19 133 134 135 133 135 45 136 137 138 136 138 41 34 139 140 34 140 141 38 142 143 38 143 144 42 145 146 42 146 147 "
						                    >
							<Coordinate point="-0.823673 -0.803364 0.942800 -0.823673 -0.803364 1.325261 -0.823673 0.803364 1.325261 -0.823673 0.803364 0.942800 0.481266 0.803364 0.942800 0.481266 0.803364 1.325261 0.823673 0.803364 1.325261 0.823673 0.803364 0.942800 0.823673 0.803364 0.942800 0.823673 0.803364 1.325261 0.823673 -0.803364 1.325261 0.823673 -0.803364 0.942800 -0.481266 -0.803364 0.942800 -0.481266 -0.803364 1.325261 -0.823673 -0.803364 1.325261 -0.823673 -0.803364 0.942800 0.481266 0.803364 0.045824 0.823673 0.803364 0.045824 0.823673 -0.803364 0.045824 0.481266 -0.803364 0.045824 -0.481266 0.803364 1.325261 -0.823673 0.803364 1.325261 -0.481266 -0.803364 1.325261 0.823673 0.803364 1.325261 0.481266 -0.803364 1.325261 0.823673 -0.803364 1.325261 0.481266 0.803364 1.325261 0.000000 0.803364 1.325261 0.000000 -0.803364 1.325261 0.481266 -0.803364 1.325261 0.000000 0.803364 1.325261 -0.481266 0.803364 1.325261 -0.481266 -0.803364 1.325261 0.000000 -0.803364 1.325261 -0.823673 0.803364 0.045824 -0.481266 0.803364 0.045824 -0.481266 -0.803364 0.045824 -0.823673 -0.803364 0.045824 -0.481266 0.803364 0.045824 0.000000 0.803364 0.045824 0.000000 -0.803364 0.045824 -0.481266 -0.803364 0.045824 0.000000 0.803364 0.045824 0.481266 0.803364 0.045824 0.481266 -0.803364 0.045824 0.000000 -0.803364 0.045824 0.823673 -0.803364 0.942800 0.823673 -0.803364 1.325261 0.481266 -0.803364 0.942800 0.481266 -0.803364 0.942800 0.481266 -0.803364 1.325261 0.000000 -0.803364 0.942800 0.000000 -0.803364 0.942800 0.000000 -0.803364 1.325261 -0.481266 -0.803364 0.942800 -0.823673 0.803364 0.942800 -0.481266 0.803364 1.325261 -0.481266 0.803364 0.942800 -0.481266 0.803364 0.942800 0.000000 0.803364 1.325261 0.000000 0.803364 0.942800 0.000000 0.803364 0.942800 0.481266 0.803364 1.325261 0.481266 0.803364 0.942800 0.000000 0.803364 0.389925 0.000000 0.803364 0.529184 0.481266 0.803364 0.529184 0.481266 0.803364 0.389925 -0.481266 0.803364 0.389925 -0.481266 0.803364 0.529184 0.000000 0.803364 0.529184 0.000000 0.803364 0.389925 -0.823673 0.803364 0.389925 -0.823673 0.803364 0.529184 -0.481266 0.803364 0.529184 -0.481266 0.803364 0.389925 0.823673 -0.803364 0.389925 0.823673 -0.803364 0.529184 0.481266 -0.803364 0.529184 0.481266 -0.803364 0.389925 -0.481266 -0.803364 0.389925 -0.481266 -0.803364 0.529184 -0.823673 -0.803364 0.529184 -0.823673 -0.803364 0.389925 0.823673 0.803364 0.389925 0.823673 0.803364 0.529184 0.823673 -0.803364 0.529184 0.823673 -0.803364 0.389925 0.481266 0.803364 0.389925 0.481266 0.803364 0.529184 0.823673 0.803364 0.529184 0.823673 0.803364 0.389925 -0.823673 -0.803364 0.389925 -0.823673 -0.803364 0.529184 -0.823673 0.803364 0.529184 -0.823673 0.803364 0.389925 0.000000 0.803364 0.529184 0.000000 0.803364 0.942800 0.481266 0.803364 0.942800 0.481266 0.803364 0.529184 -0.481266 0.803364 0.529184 -0.481266 0.803364 0.942800 0.000000 0.803364 0.942800 0.000000 0.803364 0.529184 -0.823673 0.803364 0.529184 -0.823673 0.803364 0.942800 0.823673 -0.803364 0.529184 0.823673 -0.803364 0.942800 0.481266 -0.803364 0.942800 0.481266 -0.803364 0.529184 -0.481266 -0.803364 0.529184 -0.481266 -0.803364 0.942800 -0.823673 -0.803364 0.942800 -0.823673 -0.803364 0.529184 0.823673 0.803364 0.529184 0.823673 0.803364 0.942800 -0.823673 -0.803364 0.045824 -0.823673 -0.803364 0.389925 -0.823673 0.803364 0.389925 -0.823673 0.803364 0.045824 0.481266 0.803364 0.389925 0.823673 0.803364 0.389925 0.823673 0.803364 0.045824 0.823673 0.803364 0.045824 0.823673 0.803364 0.389925 0.823673 -0.803364 0.389925 0.823673 -0.803364 0.045824 -0.481266 -0.803364 0.045824 -0.481266 -0.803364 0.389925 -0.823673 -0.803364 0.389925 0.823673 -0.803364 0.045824 0.823673 -0.803364 0.389925 0.481266 -0.803364 0.389925 0.481266 -0.803364 0.045824 0.481266 -0.803364 0.389925 0.000000 -0.803364 0.389925 0.000000 -0.803364 0.045824 0.000000 -0.803364 0.389925 -0.481266 -0.803364 0.389925 -0.823673 0.803364 0.389925 -0.481266 0.803364 0.389925 -0.481266 0.803364 0.045824 -0.481266 0.803364 0.389925 0.000000 0.803364 0.389925 0.000000 0.803364 0.045824 0.000000 0.803364 0.389925 0.481266 0.803364 0.389925 0.481266 0.803364 0.045824 " />
							<Normal vector="-0.707083 -0.707083 0.000000 -0.577349 -0.577349 0.577349 -0.577349 0.577349 0.577349 -0.707083 0.707083 0.000000 0.000000 1.000000 0.000000 0.000000 0.707083 0.707083 0.577349 0.577349 0.577349 0.707083 0.707083 0.000000 0.707083 0.707083 0.000000 0.577349 0.577349 0.577349 0.577349 -0.577349 0.577349 0.707083 -0.707083 0.000000 0.000000 -1.000000 0.000000 0.000000 -0.707083 0.707083 -0.577349 -0.577349 0.577349 -0.707083 -0.707083 0.000000 0.000000 0.707083 -0.707083 0.577349 0.577349 -0.577349 0.577349 -0.577349 -0.577349 0.000000 -0.707083 -0.707083 0.000000 0.707083 0.707083 -0.577349 0.577349 0.577349 0.000000 -0.707083 0.707083 0.577349 0.577349 0.577349 0.000000 -0.707083 0.707083 0.577349 -0.577349 0.577349 0.000000 0.707083 0.707083 0.000000 0.707083 0.707083 0.000000 -0.707083 0.707083 0.000000 -0.707083 0.707083 0.000000 0.707083 0.707083 0.000000 0.707083 0.707083 0.000000 -0.707083 0.707083 0.000000 -0.707083 0.707083 -0.577349 0.577349 -0.577349 0.000000 0.707083 -0.707083 0.000000 -0.707083 -0.707083 -0.577349 -0.577349 -0.577349 0.000000 0.707083 -0.707083 0.000000 0.707083 -0.707083 0.000000 -0.707083 -0.707083 0.000000 -0.707083 -0.707083 0.000000 0.707083 -0.707083 0.000000 0.707083 -0.707083 0.000000 -0.707083 -0.707083 0.000000 -0.707083 -0.707083 0.707083 -0.707083 0.000000 0.577349 -0.577349 0.577349 0.000000 -1.000000 0.000000 0.000000 -1.000000 0.000000 0.000000 -0.707083 0.707083 0.000000 -1.000000 0.000000 0.000000 -1.000000 0.000000 0.000000 -0.707083 0.707083 0.000000 -1.000000 0.000000 -0.707083 0.707083 0.000000 0.000000 0.707083 0.707083 0.000000 1.000000 0.000000 0.000000 1.000000 0.000000 0.000000 0.707083 0.707083 0.000000 1.000000 0.000000 0.000000 1.000000 0.000000 0.000000 0.707083 0.707083 0.000000 1.000000 0.000000 0.000000 1.000000 0.000000 0.000000 1.000000 0.000000 0.000000 1.000000 0.000000 0.000000 1.000000 0.000000 0.000000 1.000000 0.000000 0.000000 1.000000 0.000000 0.000000 1.000000 0.000000 0.000000 1.000000 0.000000 -0.707083 0.707083 0.000000 -0.707083 0.707083 0.000000 0.000000 1.000000 0.000000 0.000000 1.000000 0.000000 0.707083 -0.707083 0.000000 0.707083 -0.707083 0.000000 0.000000 -1.000000 0.000000 0.000000 -1.000000 0.000000 0.000000 -1.000000 0.000000 0.000000 -1.000000 0.000000 -0.707083 -0.707083 0.000000 -0.707083 -0.707083 0.000000 0.707083 0.707083 0.000000 0.707083 0.707083 0.000000 0.707083 -0.707083 0.000000 0.707083 -0.707083 0.000000 0.000000 1.000000 0.000000 0.000000 1.000000 0.000000 0.707083 0.707083 0.000000 0.707083 0.707083 0.000000 -0.707083 -0.707083 0.000000 -0.707083 -0.707083 0.000000 -0.707083 0.707083 0.000000 -0.707083 0.707083 0.000000 0.000000 1.000000 0.000000 0.000000 1.000000 0.000000 0.000000 1.000000 0.000000 0.000000 1.000000 0.000000 0.000000 1.000000 0.000000 0.000000 1.000000 0.000000 0.000000 1.000000 0.000000 0.000000 1.000000 0.000000 -0.707083 0.707083 0.000000 -0.707083 0.707083 0.000000 0.707083 -0.707083 0.000000 0.707083 -0.707083 0.000000 0.000000 -1.000000 0.000000 0.000000 -1.000000 0.000000 0.000000 -1.000000 0.000000 0.000000 -1.000000 0.000000 -0.707083 -0.707083 0.000000 -0.707083 -0.707083 0.000000 0.707083 0.707083 0.000000 0.707083 0.707083 0.000000 -0.577349 -0.577349 -0.577349 -0.707083 -0.707083 0.000000 -0.707083 0.707083 0.000000 -0.577349 0.577349 -0.577349 0.000000 1.000000 0.000000 0.707083 0.707083 0.000000 0.577349 0.577349 -0.577349 0.577349 0.577349 -0.577349 0.707083 0.707083 0.000000 0.707083 -0.707083 0.000000 0.577349 -0.577349 -0.577349 0.000000 -0.707083 -0.707083 0.000000 -1.000000 0.000000 -0.707083 -0.707083 0.000000 0.577349 -0.577349 -0.577349 0.707083 -0.707083 0.000000 0.000000 -1.000000 0.000000 0.000000 -0.707083 -0.707083 0.000000 -1.000000 0.000000 0.000000 -1.000000 0.000000 0.000000 -0.707083 -0.707083 0.000000 -1.000000 0.000000 0.000000 -1.000000 0.000000 -0.707083 0.707083 0.000000 0.000000 1.000000 0.000000 0.000000 0.707083 -0.707083 0.000000 1.000000 0.000000 0.000000 1.000000 0.000000 0.000000 0.707083 -0.707083 0.000000 1.000000 0.000000 0.000000 1.000000 0.000000 0.000000 0.707083 -0.707083 " />
							<TextureCoordinate point="0.0083 0.6196 0.1633 0.6196 0.1633 0.9757 0.0083 0.9757 0.0083 0.6196 0.1633 0.6196 0.1633 0.9757 0.0083 0.9757 0.0083 0.6196 0.1633 0.6196 0.1633 0.9757 0.0083 0.9757 0.0083 0.6196 0.1633 0.6196 0.1633 0.9757 0.0083 0.9757 0.0083 0.6196 0.1633 0.6196 0.1633 0.9757 0.0083 0.9757 0.0083 0.6196 0.1633 0.6196 0.0083 0.9757 0.0083 0.6196 0.1633 0.9757 0.0083 0.9757 0.0083 0.6196 0.1633 0.6196 0.1633 0.9757 0.0083 0.9757 0.0083 0.6196 0.1633 0.6196 0.1633 0.9757 0.0083 0.9757 0.0083 0.6196 0.1633 0.6196 0.1633 0.9757 0.0083 0.9757 0.0083 0.6196 0.1633 0.6196 0.1633 0.9757 0.0083 0.9757 0.0083 0.6196 0.1633 0.6196 0.1633 0.9757 0.0083 0.9757 0.0083 0.6196 0.1633 0.6196 0.0083 0.9757 0.0083 0.6196 0.1633 0.6196 0.0083 0.9757 0.0083 0.6196 0.1633 0.6196 0.0083 0.9757 0.0083 0.6196 0.1633 0.9757 0.0083 0.9757 0.0083 0.6196 0.1633 0.9757 0.0083 0.9757 0.0083 0.6196 0.1633 0.9757 0.0083 0.9757 0.0083 0.6196 0.1633 0.6196 0.1633 0.9757 0.0083 0.9757 0.0083 0.6196 0.1633 0.6196 0.1633 0.9757 0.0083 0.9757 0.0083 0.6196 0.1633 0.6196 0.1633 0.9757 0.0083 0.9757 0.0083 0.6196 0.1633 0.6196 0.1633 0.9757 0.0083 0.9757 0.0083 0.6196 0.1633 0.6196 0.1633 0.9757 0.0083 0.9757 0.0083 0.6196 0.1633 0.6196 0.1633 0.9757 0.0083 0.9757 0.0083 0.6196 0.1633 0.6196 0.1633 0.9757 0.0083 0.9757 0.0083 0.6196 0.1633 0.6196 0.1633 0.9757 0.0083 0.9757 0.5570 0.0102 0.5570 0.2885 0.4769 0.2885 0.4769 0.0102 0.0853 0.2974 0.0853 0.5758 0.0069 0.5758 0.0069 0.2974 0.1679 0.2974 0.1679 0.5758 0.1017 0.0102 0.1017 0.2885 0.0069 0.2885 0.0069 0.0102 0.5570 0.2974 0.5570 0.5758 0.4622 0.5758 0.4622 0.2974 0.3960 0.0102 0.3960 0.2885 0.0083 0.6196 0.1633 0.6196 0.1633 0.9757 0.0083 0.9757 0.1633 0.6196 0.1633 0.9757 0.0083 0.9757 0.0083 0.6196 0.1633 0.6196 0.1633 0.9757 0.0083 0.9757 0.0083 0.6196 0.1633 0.6196 0.1633 0.9757 0.0083 0.6196 0.1633 0.6196 0.1633 0.9757 0.0083 0.6196 0.1633 0.6196 0.1633 0.9757 0.0083 0.6196 0.1633 0.6196 0.1633 0.9757 0.1633 0.6196 0.1633 0.9757 0.0083 0.9757 0.1633 0.6196 0.1633 0.9757 0.0083 0.9757 0.1633 0.6196 0.1633 0.9757 0.0083 0.9757 " />
						</IndexedTriangleSet>
					</Shape>
					<Shape>
						<Appearance>
							<Material DEF="MA_Face"
							          diffuseColor="0.800 0.800 0.800"
							          specularColor="0.401 0.401 0.401"
							          emissiveColor="0.000 0.000 0.000"
							          ambientIntensity="0.000"
							          shininess="0.500"
							          transparency="0.0"
							          />
						</Appearance>
						<IndexedTriangleSet solid="false"
						                    normalPerVertex="true"
						                    index="0 1 2 0 2 3 4 5 1 4 1 0 1 6 7 1 7 2 5 8 6 5 6 1 "
						                    >
							<Coordinate point="0.000000 -0.803364 0.389925 0.000000 -0.803364 0.529184 -0.481266 -0.803364 0.529184 -0.481266 -0.803364 0.389925 0.481266 -0.803364 0.389925 0.481266 -0.803364 0.529184 0.000000 -0.803364 0.942800 -0.481266 -0.803364 0.942800 0.481266 -0.803364 0.942800 " />
							<Normal vector="0.000000 -1.000000 0.000000 0.000000 -1.000000 0.000000 0.000000 -1.000000 0.000000 0.000000 -1.000000 0.000000 0.000000 -1.000000 0.000000 0.000000 -1.000000 0.000000 0.000000 -1.000000 0.000000 0.000000 -1.000000 0.000000 0.000000 -1.000000 0.000000 " />
							<TextureCoordinate point="0.4774 0.0311 0.4774 0.2673 0.0213 0.2673 0.0213 0.0311 0.0213 0.0311 0.0213 0.2673 0.4774 0.9689 0.0213 0.9689 0.0213 0.9689 " />
						</IndexedTriangleSet>
					</Shape>
				</Group>
			</Transform>
			<Transform DEF="Cube_001_TRANSFORM"
			           translation="0.000000 0.670712 0.346558"
			           scale="1.000000 1.000000 1.000000"
			           rotation="0.000000 1.000000 0.000000 0.000000"
			           >
				<Transform DEF="Cube_001_ifs_TRANSFORM"
				           translation="0.000000 0.000000 0.000000"
				           scale="1.000000 1.000000 1.000000"
				           rotation="0.000000 1.000000 0.000000 0.000000"
				           >
					<Group DEF="group_ME_Cube_001">
						<Shape>
							<Appearance>
								<Material USE="MA_Body" />
							</Appearance>
							<IndexedTriangleSet solid="false"
							                    normalPerVertex="true"
							                    index="0 1 2 0 2 3 4 5 6 4 6 7 8 9 10 8 10 11 12 13 14 12 14 15 4 16 17 4 17 15 18 5 14 18 14 19 "
							                    >
								<Coordinate point="-0.131754 0.237867 -0.264521 -0.131754 -0.057308 -0.108241 -0.131754 0.057308 0.108241 -0.131754 0.352483 -0.048039 -0.131754 0.352483 -0.048039 -0.131754 0.057308 0.108241 0.131754 0.057308 0.108241 0.131754 0.352483 -0.048039 0.131754 0.352483 -0.048039 0.131754 0.057308 0.108241 0.131754 -0.057308 -0.108241 0.131754 0.237867 -0.264521 0.131754 0.237867 -0.264521 0.131754 -0.057308 -0.108241 -0.131754 -0.057308 -0.108241 -0.131754 0.237867 -0.264521 0.131754 0.352483 -0.048039 0.131754 0.237867 -0.264521 0.131754 0.057308 0.108241 0.131754 -0.057308 -0.108241 " />
								<Normal vector="-0.577349 0.240089 -0.780389 -0.577349 -0.780389 -0.240089 -0.577349 -0.240089 0.780389 -0.577349 0.780389 0.240089 -0.577349 0.780389 0.240089 -0.577349 -0.240089 0.780389 0.577349 -0.240089 0.780389 0.577349 0.780389 0.240089 0.577349 0.780389 0.240089 0.577349 -0.240089 0.780389 0.577349 -0.780389 -0.240089 0.577349 0.240089 -0.780389 0.577349 0.240089 -0.780389 0.577349 -0.780389 -0.240089 -0.577349 -0.780389 -0.240089 -0.577349 0.240089 -0.780389 0.577349 0.780389 0.240089 0.577349 0.240089 -0.780389 0.577349 -0.240089 0.780389 0.577349 -0.780389 -0.240089 " />
								<TextureCoordinate point="0.0083 0.6196 0.1633 0.6196 0.1633 0.9757 0.0083 0.9757 0.0083 0.6196 0.1633 0.6196 0.1633 0.9757 0.0083 0.9757 0.0083 0.6196 0.1633 0.6196 0.1633 0.9757 0.0083 0.9757 0.0083 0.6196 0.1633 0.6196 0.1633 0.9757 0.0083 0.9757 0.1633 0.6196 0.1633 0.9757 0.0083 0.6196 0.0083 0.9757 " />
							</IndexedTriangleSet>
						</Shape>
					</Group>
				</Transform>
			</Transform>
			<Transform DEF="top_TRANSFORM"
			           translation="0.000000 0.000000 1.280894"
			           scale="1.000000 1.000000 1.000000"
			           rotation="0.000000 1.000000 0.000000 0.000000"
			           >
				<Transform DEF="top_ifs_TRANSFORM"
				           translation="0.000000 0.000000 0.000000"
				           scale="1.000000 1.000000 1.000000"
				           rotation="0.000000 1.000000 0.000000 0.000000"
				           >
					<Group DEF="group_ME_top">
						<Shape>
							<Appearance>
								<Material USE="MA_Body" />
							</Appearance>
							<IndexedTriangleSet solid="false"
							                    normalPerVertex="true"
							                    index="0 1 2 0 2 3 4 5 6 4 6 7 8 9 10 8 10 11 12 13 14 12 14 15 4 16 17 4 17 15 18 5 14 18 14 19 "
							                    >
								<Coordinate point="-0.086026 -0.084956 0.000000 -0.086026 -0.084956 0.211469 -0.086026 0.084956 0.211469 -0.086026 0.084956 0.000000 -0.086026 0.084956 0.000000 -0.086026 0.084956 0.211469 0.086026 0.084956 0.211469 0.086026 0.084956 0.000000 0.086026 0.084956 0.000000 0.086026 0.084956 0.211469 0.086026 -0.084956 0.211469 0.086026 -0.084956 0.000000 0.086026 -0.084956 0.000000 0.086026 -0.084956 0.211469 -0.086026 -0.084956 0.211469 -0.086026 -0.084956 0.000000 0.086026 0.084956 0.000000 0.086026 -0.084956 0.000000 0.086026 0.084956 0.211469 0.086026 -0.084956 0.211469 " />
								<Normal vector="-0.577349 -0.577349 -0.577349 -0.577349 -0.577349 0.577349 -0.577349 0.577349 0.577349 -0.577349 0.577349 -0.577349 -0.577349 0.577349 -0.577349 -0.577349 0.577349 0.577349 0.577349 0.577349 0.577349 0.577349 0.577349 -0.577349 0.577349 0.577349 -0.577349 0.577349 0.577349 0.577349 0.577349 -0.577349 0.577349 0.577349 -0.577349 -0.577349 0.577349 -0.577349 -0.577349 0.577349 -0.577349 0.577349 -0.577349 -0.577349 0.577349 -0.577349 -0.577349 -0.577349 0.577349 0.577349 -0.577349 0.577349 -0.577349 -0.577349 0.577349 0.577349 0.577349 0.577349 -0.577349 0.577349 " />
								<TextureCoordinate point="0.1917 0.6299 0.3582 0.6299 0.3582 0.9654 0.1917 0.9654 0.1917 0.6299 0.3582 0.6299 0.3582 0.9654 0.1917 0.9654 0.1917 0.6299 0.3582 0.6299 0.3582 0.9654 0.1917 0.9654 0.1917 0.6299 0.3582 0.6299 0.3582 0.9654 0.1917 0.9654 0.3582 0.6299 0.3582 0.9654 0.1917 0.6299 0.1917 0.9654 " />
							</IndexedTriangleSet>
						</Shape>
					</Group>
				</Transform>
				<Transform DEF="Cube_003_TRANSFORM"
				           translation="0.000000 0.000000 0.197915"
				           scale="1.000000 1.000000 1.000000"
				           rotation="0.000000 1.000000 0.000000 0.000000"
				           >
					<Transform DEF="Cube_003_ifs_TRANSFORM"
					           translation="0.000000 0.000000 0.000000"
					           scale="1.000000 1.000000 1.000000"
					           rotation="0.000000 1.000000 0.000000 0.000000"
					           >
						<Group DEF="group_ME_Cube_003">
							<Shape>
								<Appearance>
									<Material USE="MA_Body" />
								</Appearance>
								<IndexedTriangleSet solid="false"
								                    normalPerVertex="true"
								                    index="0 1 2 0 2 3 4 5 6 4 6 7 8 9 10 8 10 11 12 13 14 12 14 15 4 16 17 4 17 15 18 5 14 18 14 19 "
								                    >
									<Coordinate point="-0.452713 -0.447086 0.000000 -0.452713 -0.447086 0.579460 -0.452713 0.447086 0.579460 -0.452713 0.447086 0.000000 -0.452713 0.447086 0.000000 -0.452713 0.447086 0.579460 0.452713 0.447086 0.579460 0.452713 0.447086 0.000000 0.452713 0.447086 0.000000 0.452713 0.447086 0.579460 0.452713 -0.447086 0.579460 0.452713 -0.447086 0.000000 0.452713 -0.447086 0.000000 0.452713 -0.447086 0.579460 -0.452713 -0.447086 0.579460 -0.452713 -0.447086 0.000000 0.452713 0.447086 0.000000 0.452713 -0.447086 0.000000 0.452713 0.447086 0.579460 0.452713 -0.447086 0.579460 " />
									<Normal vector="-0.577349 -0.577349 -0.577349 -0.577349 -0.577349 0.577349 -0.577349 0.577349 0.577349 -0.577349 0.577349 -0.577349 -0.577349 0.577349 -0.577349 -0.577349 0.577349 0.577349 0.577349 0.577349 0.577349 0.577349 0.577349 -0.577349 0.577349 0.577349 -0.577349 0.577349 0.577349 0.577349 0.577349 -0.577349 0.577349 0.577349 -0.577349 -0.577349 0.577349 -0.577349 -0.577349 0.577349 -0.577349 0.577349 -0.577349 -0.577349 0.577349 -0.577349 -0.577349 -0.577349 0.577349 0.577349 -0.577349 0.577349 -0.577349 -0.577349 0.577349 0.577349 0.577349 0.577349 -0.577349 0.577349 " />
									<TextureCoordinate point="0.1917 0.6299 0.3582 0.6299 0.3582 0.9654 0.1917 0.9654 0.1917 0.6299 0.3582 0.6299 0.3582 0.9654 0.1917 0.9654 0.1917 0.6299 0.3582 0.6299 0.3582 0.9654 0.1917 0.9654 0.1917 0.6299 0.3582 0.6299 0.3582 0.9654 0.1917 0.9654 0.3582 0.6299 0.3582 0.9654 0.1917 0.6299 0.1917 0.9654 " />
								</IndexedTriangleSet>
							</Shape>
						</Group>
					</Transform>
				</Transform>
			</Transform>
			<Transform DEF="tail_TRANSFORM"
			           translation="0.000000 0.000000 0.046360"
			           scale="1.000000 1.000000 1.000000"
			           rotation="0.000000 1.000000 0.000000 0.000000"
			           >
				<Transform DEF="tail_ifs_TRANSFORM"
				           translation="0.000000 0.000000 0.000000"
				           scale="1.000000 1.000000 1.000000"
				           rotation="0.000000 1.000000 0.000000 0.000000"
				           >
					<Group DEF="group_ME_tail">
						<Shape>
							<Appearance>
								<Material USE="MA_Body" />
							</Appearance>
							<IndexedTriangleSet solid="false"
							                    normalPerVertex="true"
							                    index="0 1 2 0 2 3 4 5 6 4 6 7 8 9 10 8 10 11 12 13 14 12 14 15 4 16 17 4 17 15 18 5 14 18 14 19 "
							                    >
								<Coordinate point="-0.088379 -0.066573 -0.275530 -0.088379 -0.066573 0.000000 -0.088379 0.066573 0.000000 -0.088379 0.066573 -0.275530 -0.088379 0.066573 -0.275530 -0.088379 0.066573 0.000000 0.088379 0.066573 0.000000 0.088379 0.066573 -0.275530 0.088379 0.066573 -0.275530 0.088379 0.066573 0.000000 0.088379 -0.066573 0.000000 0.088379 -0.066573 -0.275530 0.088379 -0.066573 -0.275530 0.088379 -0.066573 0.000000 -0.088379 -0.066573 0.000000 -0.088379 -0.066573 -0.275530 0.088379 0.066573 -0.275530 0.088379 -0.066573 -0.275530 0.088379 0.066573 0.000000 0.088379 -0.066573 0.000000 " />
								<Normal vector="-0.577349 -0.577349 -0.577349 -0.577349 -0.577349 0.577349 -0.577349 0.577349 0.577349 -0.577349 0.577349 -0.577349 -0.577349 0.577349 -0.577349 -0.577349 0.577349 0.577349 0.577349 0.577349 0.577349 0.577349 0.577349 -0.577349 0.577349 0.577349 -0.577349 0.577349 0.577349 0.577349 0.577349 -0.577349 0.577349 0.577349 -0.577349 -0.577349 0.577349 -0.577349 -0.577349 0.577349 -0.577349 0.577349 -0.577349 -0.577349 0.577349 -0.577349 -0.577349 -0.577349 0.577349 0.577349 -0.577349 0.577349 -0.577349 -0.577349 0.577349 0.577349 0.577349 0.577349 -0.577349 0.577349 " />
								<TextureCoordinate point="0.0083 0.6196 0.1633 0.6196 0.1633 0.9757 0.0083 0.9757 0.0083 0.6196 0.1633 0.6196 0.1633 0.9757 0.0083 0.9757 0.0083 0.6196 0.1633 0.6196 0.1633 0.9757 0.0083 0.9757 0.0083 0.6196 0.1633 0.6196 0.1633 0.9757 0.0083 0.9757 0.1633 0.6196 0.1633 0.9757 0.0083 0.6196 0.0083 0.9757 " />
							</IndexedTriangleSet>
						</Shape>
					</Group>
				</Transform>
				<Transform DEF="tail1_TRANSFORM"
				           translation="0.000000 0.000000 -0.258497"
				           scale="1.000000 1.000000 1.000000"
				           rotation="0.000000 1.000000 0.000000 0.000000"
				           >
					<Transform DEF="tail1_ifs_TRANSFORM"
					           translation="0.000000 0.000000 0.000000"
					           scale="1.000000 1.000000 1.000000"
					           rotation="0.000000 1.000000 0.000000 0.000000"
					           >
						<Group DEF="group_ME_tail1">
							<Shape>
								<Appearance>
									<Material USE="MA_Body" />
								</Appearance>
								<IndexedTriangleSet solid="false"
								                    normalPerVertex="true"
								                    index="0 1 2 0 2 3 4 5 6 4 6 7 8 9 10 8 10 11 12 13 14 12 14 15 4 16 17 4 17 15 18 5 14 18 14 19 "
								                    >
									<Coordinate point="-0.078954 -0.056612 -0.247374 -0.078954 -0.056612 0.000000 -0.078954 0.056612 0.000000 -0.078954 0.056612 -0.247374 -0.078954 0.056612 -0.247374 -0.078954 0.056612 0.000000 0.078954 0.056612 0.000000 0.078954 0.056612 -0.247374 0.078954 0.056612 -0.247374 0.078954 0.056612 0.000000 0.078954 -0.056612 0.000000 0.078954 -0.056612 -0.247374 0.078954 -0.056612 -0.247374 0.078954 -0.056612 0.000000 -0.078954 -0.056612 0.000000 -0.078954 -0.056612 -0.247374 0.078954 0.056612 -0.247374 0.078954 -0.056612 -0.247374 0.078954 0.056612 0.000000 0.078954 -0.056612 0.000000 " />
									<Normal vector="-0.577349 -0.577349 -0.577349 -0.577349 -0.577349 0.577349 -0.577349 0.577349 0.577349 -0.577349 0.577349 -0.577349 -0.577349 0.577349 -0.577349 -0.577349 0.577349 0.577349 0.577349 0.577349 0.577349 0.577349 0.577349 -0.577349 0.577349 0.577349 -0.577349 0.577349 0.577349 0.577349 0.577349 -0.577349 0.577349 0.577349 -0.577349 -0.577349 0.577349 -0.577349 -0.577349 0.577349 -0.577349 0.577349 -0.577349 -0.577349 0.577349 -0.577349 -0.577349 -0.577349 0.577349 0.577349 -0.577349 0.577349 -0.577349 -0.577349 0.577349 0.577349 0.577349 0.577349 -0.577349 0.577349 " />
									<TextureCoordinate point="0.0083 0.6196 0.1633 0.6196 0.1633 0.9757 0.0083 0.9757 0.0083 0.6196 0.1633 0.6196 0.1633 0.9757 0.0083 0.9757 0.0083 0.6196 0.1633 0.6196 0.1633 0.9757 0.0083 0.9757 0.0083 0.6196 0.1633 0.6196 0.1633 0.9757 0.0083 0.9757 0.1633 0.6196 0.1633 0.9757 0.0083 0.6196 0.0083 0.9757 " />
								</IndexedTriangleSet>
							</Shape>
						</Group>
					</Transform>
					<Transform DEF="tail2_TRANSFORM"
					           translation="0.000000 0.000000 -0.222705"
					           scale="1.000000 1.000000 1.000000"
					           rotation="0.000000 1.000000 0.000000 0.000000"
					           >
						<Transform DEF="tail2_ifs_TRANSFORM"
						           translation="0.000000 0.000000 0.000000"
						           scale="1.000000 1.000000 1.000000"
						           rotation="0.000000 1.000000 0.000000 0.000000"
						           >
							<Group DEF="group_ME_tail2">
								<Shape>
									<Appearance>
										<Material USE="MA_Body" />
									</Appearance>
									<IndexedTriangleSet solid="false"
									                    normalPerVertex="true"
									                    index="0 1 2 0 2 3 4 5 6 4 6 7 8 9 10 8 10 11 12 13 14 12 14 15 4 16 17 4 17 15 18 5 14 18 14 19 "
									                    >
										<Coordinate point="-0.173002 -0.035445 -0.142111 -0.173002 -0.035445 0.000000 -0.173002 0.035445 0.000000 -0.173002 0.035445 -0.142111 -0.173002 0.035445 -0.142111 -0.173002 0.035445 0.000000 0.173002 0.035445 0.000000 0.173002 0.035445 -0.142111 0.173002 0.035445 -0.142111 0.173002 0.035445 0.000000 0.173002 -0.035445 0.000000 0.173002 -0.035445 -0.142111 0.173002 -0.035445 -0.142111 0.173002 -0.035445 0.000000 -0.173002 -0.035445 0.000000 -0.173002 -0.035445 -0.142111 0.173002 0.035445 -0.142111 0.173002 -0.035445 -0.142111 0.173002 0.035445 0.000000 0.173002 -0.035445 0.000000 " />
										<Normal vector="-0.577349 -0.577349 -0.577349 -0.577349 -0.577349 0.577349 -0.577349 0.577349 0.577349 -0.577349 0.577349 -0.577349 -0.577349 0.577349 -0.577349 -0.577349 0.577349 0.577349 0.577349 0.577349 0.577349 0.577349 0.577349 -0.577349 0.577349 0.577349 -0.577349 0.577349 0.577349 0.577349 0.577349 -0.577349 0.577349 0.577349 -0.577349 -0.577349 0.577349 -0.577349 -0.577349 0.577349 -0.577349 0.577349 -0.577349 -0.577349 0.577349 -0.577349 -0.577349 -0.577349 0.577349 0.577349 -0.577349 0.577349 -0.577349 -0.577349 0.577349 0.577349 0.577349 0.577349 -0.577349 0.577349 " />
										<TextureCoordinate point="0.0083 0.6196 0.1633 0.6196 0.1633 0.9757 0.0083 0.9757 0.0083 0.6196 0.1633 0.6196 0.1633 0.9757 0.0083 0.9757 0.0083 0.6196 0.1633 0.6196 0.1633 0.9757 0.0083 0.9757 0.0083 0.6196 0.1633 0.6196 0.1633 0.9757 0.0083 0.9757 0.1633 0.6196 0.1633 0.9757 0.0083 0.6196 0.0083 0.9757 " />
									</IndexedTriangleSet>
								</Shape>
							</Group>
						</Transform>
						<Transform DEF="Cube_007_TRANSFORM"
						           translation="0.000000 0.000000 -0.123697"
						           scale="1.000000 1.000000 1.000000"
						           rotation="0.000000 1.000000 0.000000 0.000000"
						           >
							<Transform DEF="Cube_007_ifs_TRANSFORM"
							           translation="0.000000 0.000000 0.000000"
							           scale="1.000000 1.000000 1.000000"
							           rotation="0.000000 1.000000 0.000000 0.000000"
							           >
								<Group DEF="group_ME_Cube_007">
									<Shape>
										<Appearance>
											<Material USE="MA_Body" />
										</Appearance>
										<IndexedTriangleSet solid="false"
										                    normalPerVertex="true"
										                    index="0 1 2 0 2 3 4 5 6 4 6 7 8 9 10 8 10 11 12 13 14 12 14 15 4 16 17 4 17 15 18 5 14 18 14 19 "
										                    >
											<Coordinate point="-0.512039 -0.016530 -0.774013 -0.512039 -0.016530 0.000000 -0.512039 0.016530 0.000000 -0.512039 0.016530 -0.774013 -0.512039 0.016530 -0.774013 -0.512039 0.016530 0.000000 0.512039 0.016530 0.000000 0.512039 0.016530 -0.774013 0.512039 0.016530 -0.774013 0.512039 0.016530 0.000000 0.512039 -0.016530 0.000000 0.512039 -0.016530 -0.774013 0.512039 -0.016530 -0.774013 0.512039 -0.016530 0.000000 -0.512039 -0.016530 0.000000 -0.512039 -0.016530 -0.774013 0.512039 0.016530 -0.774013 0.512039 -0.016530 -0.774013 0.512039 0.016530 0.000000 0.512039 -0.016530 0.000000 " />
											<Normal vector="-0.577349 -0.577349 -0.577349 -0.577349 -0.577349 0.577349 -0.577349 0.577349 0.577349 -0.577349 0.577349 -0.577349 -0.577349 0.577349 -0.577349 -0.577349 0.577349 0.577349 0.577349 0.577349 0.577349 0.577349 0.577349 -0.577349 0.577349 0.577349 -0.577349 0.577349 0.577349 0.577349 0.577349 -0.577349 0.577349 0.577349 -0.577349 -0.577349 0.577349 -0.577349 -0.577349 0.577349 -0.577349 0.577349 -0.577349 -0.577349 0.577349 -0.577349 -0.577349 -0.577349 0.577349 0.577349 -0.577349 0.577349 -0.577349 -0.577349 0.577349 0.577349 0.577349 0.577349 -0.577349 0.577349 " />
											<TextureCoordinate point="0.0083 0.6196 0.1633 0.6196 0.1633 0.9757 0.0083 0.9757 0.0083 0.6196 0.1633 0.6196 0.1633 0.9757 0.0083 0.9757 0.0083 0.6196 0.1633 0.6196 0.1633 0.9757 0.0083 0.9757 0.0083 0.6196 0.1633 0.6196 0.1633 0.9757 0.0083 0.9757 0.1633 0.6196 0.1633 0.9757 0.0083 0.6196 0.0083 0.9757 " />
										</IndexedTriangleSet>
									</Shape>
								</Group>
							</Transform>
						</Transform>
						<Transform DEF="tail3_TRANSFORM"
						           translation="0.000000 0.000000 -0.882371"
						           scale="1.000000 1.000000 1.000000"
						           rotation="0.000000 1.000000 0.000000 0.000000"
						           >
							<Transform DEF="tail3_ifs_TRANSFORM"
							           translation="0.000000 0.000000 0.000000"
							           scale="1.000000 1.000000 1.000000"
							           rotation="0.000000 1.000000 0.000000 0.000000"
							           >
								<Group DEF="group_ME_tail3">
									<Shape>
										<Appearance>
											<Material USE="MA_Body" />
										</Appearance>
										<IndexedTriangleSet solid="false"
										                    normalPerVertex="true"
										                    index="0 1 2 0 2 3 4 5 6 4 6 7 8 9 10 8 10 11 12 13 14 12 14 15 4 16 17 4 17 15 18 5 14 18 14 19 "
										                    >
											<Coordinate point="-0.518790 -0.016830 -0.716883 -0.518790 -0.016830 0.000000 -0.518790 0.016830 0.000000 -0.518790 0.016830 -0.716883 -0.518790 0.016830 -0.716883 -0.518790 0.016830 0.000000 0.518790 0.016830 0.000000 0.518790 0.016830 -0.716883 0.518790 0.016830 -0.716883 0.518790 0.016830 0.000000 0.518790 -0.016830 0.000000 0.518790 -0.016830 -0.716883 0.518790 -0.016830 -0.716883 0.518790 -0.016830 0.000000 -0.518790 -0.016830 0.000000 -0.518790 -0.016830 -0.716883 0.518790 0.016830 -0.716883 0.518790 -0.016830 -0.716883 0.518790 0.016830 0.000000 0.518790 -0.016830 0.000000 " />
											<Normal vector="-0.577349 -0.577349 -0.577349 -0.577349 -0.577349 0.577349 -0.577349 0.577349 0.577349 -0.577349 0.577349 -0.577349 -0.577349 0.577349 -0.577349 -0.577349 0.577349 0.577349 0.577349 0.577349 0.577349 0.577349 0.577349 -0.577349 0.577349 0.577349 -0.577349 0.577349 0.577349 0.577349 0.577349 -0.577349 0.577349 0.577349 -0.577349 -0.577349 0.577349 -0.577349 -0.577349 0.577349 -0.577349 0.577349 -0.577349 -0.577349 0.577349 -0.577349 -0.577349 -0.577349 0.577349 0.577349 -0.577349 0.577349 -0.577349 -0.577349 0.577349 0.577349 0.577349 0.577349 -0.577349 0.577349 " />
											<TextureCoordinate point="0.0083 0.6196 0.1633 0.6196 0.1633 0.9757 0.0083 0.9757 0.0083 0.6196 0.1633 0.6196 0.1633 0.9757 0.0083 0.9757 0.0083 0.6196 0.1633 0.6196 0.1633 0.9757 0.0083 0.9757 0.0083 0.6196 0.1633 0.6196 0.1633 0.9757 0.0083 0.9757 0.1633 0.6196 0.1633 0.9757 0.0083 0.6196 0.0083 0.9757 " />
										</IndexedTriangleSet>
									</Shape>
								</Group>
							</Transform>
							<Transform DEF="tail4_TRANSFORM"
							           translation="0.000000 0.000000 -0.700950"
							           scale="1.000000 1.000000 1.000000"
							           rotation="0.000000 1.000000 0.000000 0.000000"
							           >
								<Transform DEF="tail4_ifs_TRANSFORM"
								           translation="0.000000 0.000000 0.000000"
								           scale="1.000000 1.000000 1.000000"
								           rotation="0.000000 1.000000 0.000000 0.000000"
								           >
									<Group DEF="group_ME_taiil4">
										<Shape>
											<Appearance>
												<Material USE="MA_Body" />
											</Appearance>
											<IndexedTriangleSet solid="false"
											                    normalPerVertex="true"
											                    index="0 1 2 0 2 3 4 5 6 4 6 7 8 9 10 8 10 11 12 13 14 12 14 15 16 17 18 16 18 19 20 21 22 20 22 23 "
											                    >
												<Coordinate point="-0.541289 -0.017183 -1.083858 -0.541289 -0.017183 0.000000 -0.541289 0.017183 0.000000 -0.541289 0.017183 -1.083858 -0.541289 0.017183 -1.083858 -0.541289 0.017183 0.000000 0.541289 0.017183 0.000000 0.541289 0.017183 -1.083858 0.541289 0.017183 -1.083858 0.541289 0.017183 0.000000 0.541289 -0.017183 0.000000 0.541289 -0.017183 -1.083858 0.541289 -0.017183 -1.083858 0.541289 -0.017183 0.000000 -0.541289 -0.017183 0.000000 -0.541289 -0.017183 -1.083858 -0.541289 0.017183 -1.083858 0.541289 0.017183 -1.083858 0.541289 -0.017183 -1.083858 -0.541289 -0.017183 -1.083858 0.541289 0.017183 0.000000 -0.541289 0.017183 0.000000 -0.541289 -0.017183 0.000000 0.541289 -0.017183 0.000000 " />
												<Normal vector="-0.577349 -0.577349 -0.577349 -0.577349 -0.577349 0.577349 -0.577349 0.577349 0.577349 -0.577349 0.577349 -0.577349 -0.577349 0.577349 -0.577349 -0.577349 0.577349 0.577349 0.577349 0.577349 0.577349 0.577349 0.577349 -0.577349 0.577349 0.577349 -0.577349 0.577349 0.577349 0.577349 0.577349 -0.577349 0.577349 0.577349 -0.577349 -0.577349 0.577349 -0.577349 -0.577349 0.577349 -0.577349 0.577349 -0.577349 -0.577349 0.577349 -0.577349 -0.577349 -0.577349 -0.577349 0.577349 -0.577349 0.577349 0.577349 -0.577349 0.577349 -0.577349 -0.577349 -0.577349 -0.577349 -0.577349 0.577349 0.577349 0.577349 -0.577349 0.577349 0.577349 -0.577349 -0.577349 0.577349 0.577349 -0.577349 0.577349 " />
												<TextureCoordinate point="0.5855 0.0161 0.5855 0.9839 0.5720 0.9839 0.5720 0.0161 0.5749 0.0127 0.5749 0.9873 0.9911 0.9873 0.9911 0.0127 0.9842 0.0161 0.9842 0.9839 0.9706 0.9839 0.9706 0.0161 0.9911 0.0127 0.9911 0.9873 0.5749 0.9873 0.5749 0.0127 0.3979 0.6314 0.5426 0.6314 0.5426 0.9638 0.3979 0.9638 0.0083 0.6196 0.1633 0.6196 0.1633 0.9757 0.0083 0.9757 " />
											</IndexedTriangleSet>
										</Shape>
									</Group>
								</Transform>
								<Transform DEF="tail5_TRANSFORM"
								           translation="0.000000 0.000000 -1.035756"
								           scale="1.000000 1.000000 1.000000"
								           rotation="0.000000 1.000000 0.000000 0.000000"
								           >
									<Transform DEF="tail5_ifs_TRANSFORM"
									           translation="0.000000 0.000000 0.000000"
									           scale="1.000000 1.000000 1.000000"
									           rotation="0.000000 1.000000 0.000000 0.000000"
									           >
										<Group DEF="group_ME_tail5">
											<Shape>
												<Appearance>
													<Material USE="MA_Body" />
												</Appearance>
												<IndexedTriangleSet solid="false"
												                    normalPerVertex="true"
												                    index="0 1 2 0 2 3 4 5 6 4 6 7 8 9 10 8 10 11 12 13 14 12 14 15 4 16 17 4 17 15 18 5 14 18 14 19 "
												                    >
													<Coordinate point="-0.664092 -0.017672 -1.069819 -0.664092 -0.017672 0.000000 -0.664092 0.017672 0.000000 -0.664092 0.017672 -1.069819 -0.664092 0.017672 -1.069819 -0.664092 0.017672 0.000000 0.664092 0.017672 0.000000 0.664092 0.017672 -1.069819 0.664092 0.017672 -1.069819 0.664092 0.017672 0.000000 0.664092 -0.017672 0.000000 0.664092 -0.017672 -1.069819 0.664092 -0.017672 -1.069819 0.664092 -0.017672 0.000000 -0.664092 -0.017672 0.000000 -0.664092 -0.017672 -1.069819 0.664092 0.017672 -1.069819 0.664092 -0.017672 -1.069819 0.664092 0.017672 0.000000 0.664092 -0.017672 0.000000 " />
													<Normal vector="-0.577349 -0.577349 -0.577349 -0.577349 -0.577349 0.577349 -0.577349 0.577349 0.577349 -0.577349 0.577349 -0.577349 -0.577349 0.577349 -0.577349 -0.577349 0.577349 0.577349 0.577349 0.577349 0.577349 0.577349 0.577349 -0.577349 0.577349 0.577349 -0.577349 0.577349 0.577349 0.577349 0.577349 -0.577349 0.577349 0.577349 -0.577349 -0.577349 0.577349 -0.577349 -0.577349 0.577349 -0.577349 0.577349 -0.577349 -0.577349 0.577349 -0.577349 -0.577349 -0.577349 0.577349 0.577349 -0.577349 0.577349 -0.577349 -0.577349 0.577349 0.577349 0.577349 0.577349 -0.577349 0.577349 " />
													<TextureCoordinate point="0.3910 0.6220 0.5460 0.6220 0.5460 0.9781 0.3910 0.9781 0.3910 0.6220 0.5460 0.6220 0.5460 0.9781 0.3910 0.9781 0.3910 0.6220 0.5460 0.6220 0.5460 0.9781 0.3910 0.9781 0.3910 0.6220 0.5460 0.6220 0.5460 0.9781 0.3910 0.9781 0.5460 0.6220 0.5460 0.9781 0.3910 0.6220 0.3910 0.9781 " />
												</IndexedTriangleSet>
											</Shape>
										</Group>
									</Transform>
								</Transform>
							</Transform>
						</Transform>
					</Transform>
				</Transform>
			</Transform>
			<Transform DEF="arm1_TRANSFORM"
			           translation="0.697100 -0.342896 0.420033"
			           scale="1.000000 1.000000 1.000000"
			           rotation="0.000000 1.000000 0.000000 0.000000"
			           >
				<Transform DEF="arm1_ifs_TRANSFORM"
				           translation="0.000000 0.000000 0.000000"
				           scale="1.000000 1.000000 1.000000"
				           rotation="0.000000 1.000000 0.000000 0.000000"
				           >
					<Group DEF="group_ME_arm1">
						<Shape>
							<Appearance>
								<Material USE="MA_Body" />
							</Appearance>
							<IndexedTriangleSet solid="false"
							                    normalPerVertex="true"
							                    index="0 1 2 0 2 3 4 5 6 4 6 7 8 9 10 8 10 11 12 13 14 12 14 15 4 16 17 4 17 15 18 5 14 18 14 19 "
							                    >
								<Coordinate point="0.106126 -0.228481 -0.183071 0.156703 -0.268389 0.019834 -0.042734 -0.101822 0.102306 -0.093311 -0.061915 -0.100599 -0.093311 -0.061915 -0.100599 -0.042734 -0.101822 0.102306 0.093311 0.061915 0.100599 0.042734 0.101822 -0.102306 0.042734 0.101822 -0.102306 0.093311 0.061915 0.100599 0.292747 -0.104651 0.018126 0.242171 -0.064744 -0.184778 0.242171 -0.064744 -0.184778 0.292747 -0.104651 0.018126 0.156703 -0.268389 0.019834 0.106126 -0.228481 -0.183071 0.042734 0.101822 -0.102306 0.242171 -0.064744 -0.184778 0.093311 0.061915 0.100599 0.292747 -0.104651 0.018126 " />
								<Normal vector="-0.083743 -0.688559 -0.720298 0.190558 -0.905026 0.380230 -0.654134 -0.199530 0.729545 -0.928465 0.016907 -0.370983 -0.928465 0.016907 -0.370983 -0.654134 -0.199530 0.729545 0.083743 0.688559 0.720298 -0.190558 0.905026 -0.380230 -0.190558 0.905026 -0.380230 0.083743 0.688559 0.720298 0.928465 -0.016907 0.370983 0.654134 0.199530 -0.729545 0.654134 0.199530 -0.729545 0.928465 -0.016907 0.370983 0.190558 -0.905026 0.380230 -0.083743 -0.688559 -0.720298 -0.190558 0.905026 -0.380230 0.654134 0.199530 -0.729545 0.083743 0.688559 0.720298 0.928465 -0.016907 0.370983 " />
								<TextureCoordinate point="0.0083 0.6196 0.1633 0.6196 0.1633 0.9757 0.0083 0.9757 0.0083 0.6196 0.1633 0.6196 0.1633 0.9757 0.0083 0.9757 0.0083 0.6196 0.1633 0.6196 0.1633 0.9757 0.0083 0.9757 0.0083 0.6196 0.1633 0.6196 0.1633 0.9757 0.0083 0.9757 0.1633 0.6196 0.1633 0.9757 0.0083 0.6196 0.0083 0.9757 " />
							</IndexedTriangleSet>
						</Shape>
					</Group>
				</Transform>
			</Transform>
			<Transform DEF="Cube_TRANSFORM"
			           translation="0.000000 0.000000 -0.031686"
			           scale="1.000000 1.000000 1.000000"
			           rotation="0.000000 1.000000 0.000000 0.000000"
			           >
				<Transform DEF="Cube_ifs_TRANSFORM"
				           translation="0.000000 0.000000 0.000000"
				           scale="1.000000 1.000000 1.000000"
				           rotation="0.000000 1.000000 0.000000 0.000000"
				           >
					<Group DEF="group_ME_Cube">
						<Shape>
							<Appearance>
								<Material USE="MA_Body" />
							</Appearance>
							<IndexedTriangleSet solid="false"
							                    normalPerVertex="true"
							                    index="0 1 2 0 2 3 4 5 6 4 6 7 8 9 10 8 10 11 12 13 14 12 14 15 4 16 17 4 17 15 18 5 14 18 14 19 "
							                    >
								<Coordinate point="-0.442781 -0.442781 0.000000 -0.442781 -0.442781 0.101459 -0.442781 0.442781 0.101459 -0.442781 0.442781 0.000000 -0.442781 0.442781 0.000000 -0.442781 0.442781 0.101459 0.442781 0.442781 0.101459 0.442781 0.442781 0.000000 0.442781 0.442781 0.000000 0.442781 0.442781 0.101459 0.442781 -0.442781 0.101459 0.442781 -0.442781 0.000000 0.442781 -0.442781 0.000000 0.442781 -0.442781 0.101459 -0.442781 -0.442781 0.101459 -0.442781 -0.442781 0.000000 0.442781 0.442781 0.000000 0.442781 -0.442781 0.000000 0.442781 0.442781 0.101459 0.442781 -0.442781 0.101459 " />
								<Normal vector="-0.577349 -0.577349 -0.577349 -0.577349 -0.577349 0.577349 -0.577349 0.577349 0.577349 -0.577349 0.577349 -0.577349 -0.577349 0.577349 -0.577349 -0.577349 0.577349 0.577349 0.577349 0.577349 0.577349 0.577349 0.577349 -0.577349 0.577349 0.577349 -0.577349 0.577349 0.577349 0.577349 0.577349 -0.577349 0.577349 0.577349 -0.577349 -0.577349 0.577349 -0.577349 -0.577349 0.577349 -0.577349 0.577349 -0.577349 -0.577349 0.577349 -0.577349 -0.577349 -0.577349 0.577349 0.577349 -0.577349 0.577349 -0.577349 -0.577349 0.577349 0.577349 0.577349 0.577349 -0.577349 0.577349 " />
								<TextureCoordinate point="0.0159 0.6393 0.1599 0.6393 0.1599 0.9778 0.0159 0.9778 0.0159 0.6393 0.1599 0.6393 0.1599 0.9778 0.0159 0.9778 0.0159 0.6393 0.1599 0.6393 0.1599 0.9778 0.0159 0.9778 0.0159 0.6393 0.1599 0.6393 0.1599 0.9778 0.0159 0.9778 0.1599 0.6393 0.1599 0.9778 0.0159 0.6393 0.0159 0.9778 " />
							</IndexedTriangleSet>
						</Shape>
					</Group>
				</Transform>
			</Transform>
			<Transform DEF="arm2_TRANSFORM"
			           translation="-0.697100 -0.342896 0.420033"
			           scale="1.000000 1.000000 1.000000"
			           rotation="0.000000 1.000000 0.000000 0.000000"
			           >
				<Transform DEF="arm2_ifs_TRANSFORM"
				           translation="0.000000 0.000000 0.000000"
				           scale="1.000000 1.000000 1.000000"
				           rotation="0.000000 1.000000 0.000000 0.000000"
				           >
					<Group DEF="group_ME_arm2">
						<Shape>
							<Appearance>
								<Material USE="MA_Body" />
							</Appearance>
							<IndexedTriangleSet solid="false"
							                    normalPerVertex="true"
							                    index="0 1 2 0 2 3 4 5 6 4 6 7 8 9 10 8 10 11 12 13 14 12 14 15 4 13 16 4 16 17 18 19 14 18 14 7 "
							                    >
								<Coordinate point="-0.106126 -0.228481 -0.183071 0.093311 -0.061915 -0.100599 0.042734 -0.101822 0.102306 -0.156703 -0.268389 0.019834 0.093311 -0.061915 -0.100599 -0.042734 0.101822 -0.102306 -0.093311 0.061915 0.100599 0.042734 -0.101822 0.102306 -0.042734 0.101822 -0.102306 -0.242171 -0.064744 -0.184778 -0.292747 -0.104651 0.018126 -0.093311 0.061915 0.100599 -0.242171 -0.064744 -0.184778 -0.106126 -0.228481 -0.183071 -0.156703 -0.268389 0.019834 -0.292747 -0.104651 0.018126 -0.242171 -0.064744 -0.184778 -0.042734 0.101822 -0.102306 -0.093311 0.061915 0.100599 -0.292747 -0.104651 0.018126 " />
								<Normal vector="0.083743 -0.688559 -0.720298 0.928465 0.016907 -0.370983 0.654134 -0.199530 0.729545 -0.190558 -0.905026 0.380230 0.928465 0.016907 -0.370983 0.190558 0.905026 -0.380230 -0.083743 0.688559 0.720298 0.654134 -0.199530 0.729545 0.190558 0.905026 -0.380230 -0.654134 0.199530 -0.729545 -0.928465 -0.016907 0.370983 -0.083743 0.688559 0.720298 -0.654134 0.199530 -0.729545 0.083743 -0.688559 -0.720298 -0.190558 -0.905026 0.380230 -0.928465 -0.016907 0.370983 -0.654134 0.199530 -0.729545 0.190558 0.905026 -0.380230 -0.083743 0.688559 0.720298 -0.928465 -0.016907 0.370983 " />
								<TextureCoordinate point="0.0083 0.6196 0.0083 0.9757 0.1633 0.9757 0.1633 0.6196 0.0083 0.6196 0.0083 0.9757 0.1633 0.9757 0.1633 0.6196 0.0083 0.6196 0.0083 0.9757 0.1633 0.9757 0.1633 0.6196 0.0083 0.6196 0.0083 0.9757 0.1633 0.9757 0.1633 0.6196 0.1633 0.9757 0.1633 0.6196 0.0083 0.6196 0.0083 0.9757 " />
							</IndexedTriangleSet>
						</Shape>
					</Group>
				</Transform>
			</Transform>
		</Transform>
	</Scene>
</X3D>