<?xml version="1.0" encoding="UTF-8"?>
<!DOCTYPE X3D PUBLIC "ISO//Web3D//DTD X3D 3.0//EN" "http://www.web3d.org/specifications/x3d-3.0.dtd">
<X3D version="3.0" profile="Immersive" xmlns:xsd="http://www.w3.org/2001/XMLSchema-instance" xsd:noNamespaceSchemaLocation="http://www.web3d.org/specifications/x3d-3.0.xsd">
	<head>
		<meta name="filename" content="chinchou.x3d" />
		<meta name="generator" content="Blender 2.93.18" />
	</head>
	<Scene>
		<NavigationInfo headlight="true"
		                visibilityLimit="0.0"
		                type='"EXAMINE", "ANY"'
		                avatarSize="0.25, 1.75, 0.75"
		                />
		<Background DEF="WO_World"
		            groundColor="0.051 0.051 0.051"
		            skyColor="0.051 0.051 0.051"
		            />
		<Transform DEF="body_TRANSFORM"
		           translation="0.000000 0.000000 0.578833"
		           scale="1.000000 1.000000 1.000000"
		           rotation="0.000000 0.000000 1.000000 3.141593"
		           >
			<Transform DEF="body_ifs_TRANSFORM"
			           translation="0.000000 0.000000 0.000000"
			           scale="1.000000 1.000000 1.000000"
			           rotation="0.000000 1.000000 0.000000 0.000000"
			           >
				<Group DEF="group_ME_body">
					<Shape>
						<Appearance>
							<Material DEF="MA_Body"
							          diffuseColor="0.800 0.800 0.800"
							          specularColor="0.401 0.401 0.401"
							          emissiveColor="0.000 0.000 0.000"
							          ambientIntensity="0.000"
							          shininess="0.500"
							          transparency="0.0"
							          />
						</Appearance>
						<IndexedTriangleSet solid="false"
						                    normalPerVertex="true"
						                    index="0 1 2 0 2 3 4 5 6 4 6 7 8 9 10 8 10 11 12 13 14 12 14 15 16 17 18 16 18 19 20 21 14 20 14 22 23 24 25 23 25 26 24 20 22 24 22 25 27 28 29 27 29 30 28 16 19 28 19 29 31 32 33 31 33 34 34 33 13 34 13 12 35 21 36 35 36 37 37 36 5 37 5 4 38 37 4 38 4 39 40 35 37 40 37 38 41 31 34 41 34 42 43 12 15 43 15 44 45 8 11 45 11 46 39 4 7 39 7 47 48 0 3 48 3 49 50 48 49 50 49 51 52 39 47 52 47 53 54 45 46 54 46 55 56 43 44 56 44 30 57 41 42 57 42 58 58 42 43 58 43 56 27 40 38 27 38 59 59 38 39 59 39 52 "
						                    >
							<Coordinate point="-1.760014 -1.556939 0.992166 -1.760014 -1.556939 1.829133 -1.760014 1.878053 1.829133 -1.760014 1.878053 0.992166 0.295208 1.878053 0.992166 0.295208 1.878053 1.829133 1.760014 1.878053 1.829133 1.760014 1.878053 0.992166 1.760014 1.878053 0.992166 1.760014 1.878053 1.829133 1.760014 -1.556939 1.829133 1.760014 -1.556939 0.992166 -0.295208 -1.556939 0.992166 -0.295208 -1.556939 1.829133 -1.760014 -1.556939 1.829133 -1.760014 -1.556939 0.992166 0.295208 1.878053 0.000000 1.760014 1.878053 0.000000 1.760014 -1.556939 0.000000 0.295208 -1.556939 0.000000 -0.295208 1.878053 1.829133 -1.760014 1.878053 1.829133 -0.295208 -1.556939 1.829133 1.760014 1.878053 1.829133 0.295208 1.878053 1.829133 0.295208 -1.556939 1.829133 1.760014 -1.556939 1.829133 -1.760014 1.878053 0.000000 -0.295208 1.878053 0.000000 -0.295208 -1.556939 0.000000 -1.760014 -1.556939 0.000000 1.760014 -1.556939 0.992166 1.760014 -1.556939 1.829133 0.295208 -1.556939 1.829133 0.295208 -1.556939 0.992166 -1.760014 1.878053 0.992166 -0.295208 1.878053 1.829133 -0.295208 1.878053 0.992166 -0.295208 1.878053 0.468213 0.295208 1.878053 0.468213 -1.760014 1.878053 0.468213 1.760014 -1.556939 0.468213 0.295208 -1.556939 0.468213 -0.295208 -1.556939 0.468213 -1.760014 -1.556939 0.468213 1.760014 1.878053 0.468213 1.760014 -1.556939 0.468213 1.760014 1.878053 0.468213 -1.760014 -1.556939 0.468213 -1.760014 1.878053 0.468213 -1.760014 -1.556939 0.000000 -1.760014 1.878053 0.000000 0.295208 1.878053 0.000000 1.760014 1.878053 0.000000 1.760014 1.878053 0.000000 1.760014 -1.556939 0.000000 -0.295208 -1.556939 0.000000 1.760014 -1.556939 0.000000 0.295208 -1.556939 0.000000 -0.295208 1.878053 0.000000 " />
							<Normal vector="-0.707083 -0.707083 0.000000 -0.577349 -0.577349 0.577349 -0.577349 0.577349 0.577349 -0.707083 0.707083 0.000000 0.000000 1.000000 0.000000 0.000000 0.707083 0.707083 0.577349 0.577349 0.577349 0.707083 0.707083 0.000000 0.707083 0.707083 0.000000 0.577349 0.577349 0.577349 0.577349 -0.577349 0.577349 0.707083 -0.707083 0.000000 0.000000 -1.000000 0.000000 0.000000 -0.707083 0.707083 -0.577349 -0.577349 0.577349 -0.707083 -0.707083 0.000000 0.000000 0.707083 -0.707083 0.577349 0.577349 -0.577349 0.577349 -0.577349 -0.577349 0.000000 -0.707083 -0.707083 0.000000 0.707083 0.707083 -0.577349 0.577349 0.577349 0.000000 -0.707083 0.707083 0.577349 0.577349 0.577349 0.000000 0.707083 0.707083 0.000000 -0.707083 0.707083 0.577349 -0.577349 0.577349 -0.577349 0.577349 -0.577349 0.000000 0.707083 -0.707083 0.000000 -0.707083 -0.707083 -0.577349 -0.577349 -0.577349 0.707083 -0.707083 0.000000 0.577349 -0.577349 0.577349 0.000000 -0.707083 0.707083 0.000000 -1.000000 0.000000 -0.707083 0.707083 0.000000 0.000000 0.707083 0.707083 0.000000 1.000000 0.000000 0.000000 1.000000 0.000000 0.000000 1.000000 0.000000 -0.707083 0.707083 0.000000 0.707083 -0.707083 0.000000 0.000000 -1.000000 0.000000 0.000000 -1.000000 0.000000 -0.707083 -0.707083 0.000000 0.707083 0.707083 0.000000 0.707083 -0.707083 0.000000 0.707083 0.707083 0.000000 -0.707083 -0.707083 0.000000 -0.707083 0.707083 0.000000 -0.577349 -0.577349 -0.577349 -0.577349 0.577349 -0.577349 0.000000 0.707083 -0.707083 0.577349 0.577349 -0.577349 0.577349 0.577349 -0.577349 0.577349 -0.577349 -0.577349 0.000000 -0.707083 -0.707083 0.577349 -0.577349 -0.577349 0.000000 -0.707083 -0.707083 0.000000 0.707083 -0.707083 " />
							<TextureCoordinate point="0.1280 0.6077 0.2148 0.6077 0.2148 0.9379 0.1280 0.9379 0.1280 0.8279 0.2148 0.8279 0.2148 0.9379 0.1280 0.9379 0.1280 0.6077 0.2148 0.6077 0.2148 0.9379 0.1280 0.9379 0.1280 0.8279 0.2148 0.8279 0.2148 0.9379 0.1280 0.9379 0.1569 0.6077 0.2148 0.6077 0.2148 0.9379 0.1569 0.9379 0.1569 0.6077 0.2148 0.6077 0.1569 0.9379 0.0411 0.6077 0.0990 0.6077 0.0990 0.9379 0.0411 0.9379 0.0411 0.6077 0.0990 0.6077 0.0990 0.9379 0.0411 0.9379 0.1280 0.6077 0.2148 0.6077 0.2148 0.7178 0.1280 0.7178 0.1280 0.6077 0.2148 0.7178 0.1280 0.7178 0.0845 0.7178 0.0845 0.8279 0.0845 0.6077 0.0845 0.6077 0.0845 0.7178 0.0845 0.8279 0.0845 0.9379 0.0845 0.6077 0.0845 0.9379 0.0845 0.9379 0.0845 0.6077 0.0845 0.9379 0.0411 0.6077 0.0411 0.9379 0.0411 0.8279 0.0411 0.9379 0.0411 0.6077 0.0411 0.9379 0.0411 0.8279 0.0411 0.6077 0.0411 0.7178 0.0411 0.7178 " />
						</IndexedTriangleSet>
					</Shape>
					<Shape>
						<Appearance>
							<Material DEF="MA_Mouth"
							          diffuseColor="0.800 0.800 0.800"
							          specularColor="0.401 0.401 0.401"
							          emissiveColor="0.000 0.000 0.000"
							          ambientIntensity="0.000"
							          shininess="0.500"
							          transparency="0.0"
							          />
						</Appearance>
						<IndexedTriangleSet solid="false"
						                    normalPerVertex="true"
						                    index="0 1 2 0 2 3 "
						                    >
							<Coordinate point="0.295208 -1.556939 0.468213 0.295208 -1.556939 0.992166 -0.295208 -1.556939 0.992166 -0.295208 -1.556939 0.468213 " />
							<Normal vector="0.000000 -1.000000 0.000000 0.000000 -1.000000 0.000000 0.000000 -1.000000 0.000000 0.000000 -1.000000 0.000000 " />
							<TextureCoordinate point="0.4540 0.0000 0.4540 1.0000 0.0538 1.0000 0.0538 0.0000 " />
						</IndexedTriangleSet>
					</Shape>
				</Group>
			</Transform>
			<Transform DEF="foot1_TRANSFORM"
			           translation="0.932044 1.264090 0.147298"
			           scale="1.000000 1.000000 1.000000"
			           rotation="0.000000 1.000000 0.000000 0.000000"
			           >
				<Transform DEF="foot1_ifs_TRANSFORM"
				           translation="0.000000 0.000000 0.000000"
				           scale="1.000000 1.000000 1.000000"
				           rotation="0.000000 1.000000 0.000000 0.000000"
				           >
					<Group DEF="group_ME_foot1">
						<Shape>
							<Appearance>
								<Material USE="MA_Body" />
							</Appearance>
							<IndexedTriangleSet solid="false"
							                    normalPerVertex="true"
							                    index="0 1 2 0 2 3 4 5 6 4 6 7 8 9 10 8 10 11 12 13 14 12 14 15 4 16 17 4 17 15 18 5 14 18 14 19 "
							                    >
								<Coordinate point="-0.076682 0.230315 -0.752170 -0.226860 -0.117899 -0.118564 -0.229876 0.159611 0.033233 -0.079698 0.507825 -0.600372 -0.079698 0.507825 -0.600372 -0.229876 0.159611 0.033233 0.226860 0.117899 0.118564 0.377037 0.466112 -0.515041 0.377037 0.466112 -0.515041 0.226860 0.117899 0.118564 0.229876 -0.159611 -0.033233 0.380053 0.188603 -0.666839 0.380053 0.188603 -0.666839 0.229876 -0.159611 -0.033233 -0.226860 -0.117899 -0.118564 -0.076682 0.230315 -0.752170 0.377037 0.466112 -0.515041 0.380053 0.188603 -0.666839 0.226860 0.117899 0.118564 0.229876 -0.159611 -0.033233 " />
								<Normal vector="-0.442305 -0.182592 -0.878048 -0.677145 -0.727134 0.112735 -0.688162 0.285836 0.666829 -0.453322 0.830378 -0.323923 -0.453322 0.830378 -0.323923 -0.688162 0.285836 0.666829 0.442305 0.182592 0.878048 0.677145 0.727134 -0.112735 0.677145 0.727134 -0.112735 0.442305 0.182592 0.878048 0.453322 -0.830378 0.323923 0.688162 -0.285836 -0.666829 0.688162 -0.285836 -0.666829 0.453322 -0.830378 0.323923 -0.677145 -0.727134 0.112735 -0.442305 -0.182592 -0.878048 0.677145 0.727134 -0.112735 0.688162 -0.285836 -0.666829 0.442305 0.182592 0.878048 0.453322 -0.830378 0.323923 " />
								<TextureCoordinate point="0.0411 0.6077 0.2148 0.6077 0.2148 0.9379 0.0411 0.9379 0.0411 0.6077 0.2148 0.6077 0.2148 0.9379 0.0411 0.9379 0.0411 0.6077 0.2148 0.6077 0.2148 0.9379 0.0411 0.9379 0.0411 0.6077 0.2148 0.6077 0.2148 0.9379 0.0411 0.9379 0.2148 0.6077 0.2148 0.9379 0.0411 0.6077 0.0411 0.9379 " />
							</IndexedTriangleSet>
						</Shape>
					</Group>
				</Transform>
			</Transform>
			<Transform DEF="Cube_002_TRANSFORM"
			           translation="0.000000 0.000000 -0.158695"
			           scale="1.000000 1.000000 1.000000"
			           rotation="0.000000 1.000000 0.000000 0.000000"
			           >
				<Transform DEF="Cube_002_ifs_TRANSFORM"
				           translation="0.000000 0.000000 0.000000"
				           scale="1.000000 1.000000 1.000000"
				           rotation="0.000000 1.000000 0.000000 0.000000"
				           >
					<Group DEF="group_ME_Cube_005">
						<Shape>
							<Appearance>
								<Material USE="MA_Body" />
							</Appearance>
							<IndexedTriangleSet solid="false"
							                    normalPerVertex="true"
							                    index="0 1 2 0 2 3 4 5 6 4 6 7 8 9 10 8 10 11 12 13 14 12 14 15 4 16 17 4 17 15 18 5 14 18 14 19 "
							                    >
								<Coordinate point="-1.238973 -1.179353 0.000000 -1.238973 -1.179353 2.230610 -1.238973 1.179353 2.230610 -1.238973 1.179353 0.000000 -1.238973 1.179353 0.000000 -1.238973 1.179353 2.230610 1.238973 1.179353 2.230610 1.238973 1.179353 0.000000 1.238973 1.179353 0.000000 1.238973 1.179353 2.230610 1.238973 -1.179353 2.230610 1.238973 -1.179353 0.000000 1.238973 -1.179353 0.000000 1.238973 -1.179353 2.230610 -1.238973 -1.179353 2.230610 -1.238973 -1.179353 0.000000 1.238973 1.179353 0.000000 1.238973 -1.179353 0.000000 1.238973 1.179353 2.230610 1.238973 -1.179353 2.230610 " />
								<Normal vector="-0.577349 -0.577349 -0.577349 -0.577349 -0.577349 0.577349 -0.577349 0.577349 0.577349 -0.577349 0.577349 -0.577349 -0.577349 0.577349 -0.577349 -0.577349 0.577349 0.577349 0.577349 0.577349 0.577349 0.577349 0.577349 -0.577349 0.577349 0.577349 -0.577349 0.577349 0.577349 0.577349 0.577349 -0.577349 0.577349 0.577349 -0.577349 -0.577349 0.577349 -0.577349 -0.577349 0.577349 -0.577349 0.577349 -0.577349 -0.577349 0.577349 -0.577349 -0.577349 -0.577349 0.577349 0.577349 -0.577349 0.577349 -0.577349 -0.577349 0.577349 0.577349 0.577349 0.577349 -0.577349 0.577349 " />
								<TextureCoordinate point="0.0411 0.6077 0.2148 0.6077 0.2148 0.9379 0.0411 0.9379 0.0411 0.6077 0.2148 0.6077 0.2148 0.9379 0.0411 0.9379 0.0411 0.6077 0.2148 0.6077 0.2148 0.9379 0.0411 0.9379 0.0411 0.6077 0.2148 0.6077 0.2148 0.9379 0.0411 0.9379 0.2148 0.6077 0.2148 0.9379 0.0411 0.6077 0.0411 0.9379 " />
							</IndexedTriangleSet>
						</Shape>
					</Group>
				</Transform>
			</Transform>
			<Transform DEF="ant1_TRANSFORM"
			           translation="0.047832 1.834911 0.665016"
			           scale="1.000000 1.000000 1.000000"
			           rotation="0.000000 1.000000 0.000000 0.000000"
			           >
				<Transform DEF="ant1_ifs_TRANSFORM"
				           translation="0.000000 0.000000 0.000000"
				           scale="1.000000 1.000000 1.000000"
				           rotation="0.000000 1.000000 0.000000 0.000000"
				           >
					<Group DEF="group_ME_ant1">
						<Shape>
							<Appearance>
								<Material USE="MA_Body" />
							</Appearance>
							<IndexedTriangleSet solid="false"
							                    normalPerVertex="true"
							                    index="0 1 2 0 2 3 4 5 6 4 6 7 8 9 10 8 10 11 12 13 14 12 14 15 4 16 17 4 17 15 18 5 14 18 14 19 "
							                    >
								<Coordinate point="-0.078031 -0.059420 0.024400 -0.034629 0.114098 0.585749 -0.037452 0.232938 0.549233 -0.080854 0.059420 -0.012116 -0.080854 0.059420 -0.012116 -0.037452 0.232938 0.549233 0.121433 0.232938 0.536948 0.078031 0.059420 -0.024400 0.078031 0.059420 -0.024400 0.121433 0.232938 0.536948 0.124256 0.114098 0.573464 0.080854 -0.059420 0.012116 0.080854 -0.059420 0.012116 0.124256 0.114098 0.573464 -0.034629 0.114098 0.585749 -0.078031 -0.059420 0.024400 0.078031 0.059420 -0.024400 0.080854 -0.059420 0.012116 0.121433 0.232938 0.536948 0.124256 0.114098 0.573464 " />
								<Normal vector="-0.605029 -0.721763 -0.336039 -0.519974 -0.381695 0.764122 -0.546190 0.721763 0.425062 -0.631245 0.381695 -0.675100 -0.631245 0.381695 -0.675100 -0.546190 0.721763 0.425062 0.605029 0.721763 0.336039 0.519974 0.381695 -0.764122 0.519974 0.381695 -0.764122 0.605029 0.721763 0.336039 0.631245 -0.381695 0.675100 0.546190 -0.721763 -0.425062 0.546190 -0.721763 -0.425062 0.631245 -0.381695 0.675100 -0.519974 -0.381695 0.764122 -0.605029 -0.721763 -0.336039 0.519974 0.381695 -0.764122 0.546190 -0.721763 -0.425062 0.605029 0.721763 0.336039 0.631245 -0.381695 0.675100 " />
								<TextureCoordinate point="0.0411 0.6077 0.2148 0.6077 0.2148 0.9379 0.0411 0.9379 0.0411 0.6077 0.2148 0.6077 0.2148 0.9379 0.0411 0.9379 0.0411 0.6077 0.2148 0.6077 0.2148 0.9379 0.0411 0.9379 0.0411 0.6077 0.2148 0.6077 0.2148 0.9379 0.0411 0.9379 0.2148 0.6077 0.2148 0.9379 0.0411 0.6077 0.0411 0.9379 " />
							</IndexedTriangleSet>
						</Shape>
					</Group>
				</Transform>
				<Transform DEF="Cube_004_TRANSFORM"
				           translation="0.040675 0.162612 0.526069"
				           scale="1.000000 1.000000 1.000000"
				           rotation="0.000000 1.000000 0.000000 0.000000"
				           >
					<Transform DEF="Cube_004_ifs_TRANSFORM"
					           translation="0.000000 0.000000 0.000000"
					           scale="1.000000 1.000000 1.000000"
					           rotation="0.000000 1.000000 0.000000 0.000000"
					           >
						<Group DEF="group_ME_Cube_007">
							<Shape>
								<Appearance>
									<Material USE="MA_Body" />
								</Appearance>
								<IndexedTriangleSet solid="false"
								                    normalPerVertex="true"
								                    index="0 1 2 0 2 3 4 5 6 4 6 7 8 9 10 8 10 11 12 13 14 12 14 15 4 16 17 4 17 15 18 5 14 18 14 19 "
								                    >
									<Coordinate point="-0.068966 -0.062108 0.001726 -0.000938 -0.119043 0.671160 -0.000151 0.004870 0.681619 -0.068179 0.061805 0.012185 -0.068179 0.061805 0.012185 -0.000151 0.004870 0.681619 0.136994 0.005173 0.667708 0.068966 0.062108 -0.001726 0.068966 0.062108 -0.001726 0.136994 0.005173 0.667708 0.136207 -0.118739 0.657249 0.068179 -0.061805 -0.012185 0.068179 -0.061805 -0.012185 0.136207 -0.118739 0.657249 -0.000938 -0.119043 0.671160 -0.068966 -0.062108 0.001726 0.068966 0.062108 -0.001726 0.068179 -0.061805 -0.012185 0.136994 0.005173 0.667708 0.136207 -0.118739 0.657249 " />
									<Normal vector="-0.636189 -0.527879 -0.562639 -0.519883 -0.625233 0.582049 -0.512558 0.525346 0.679159 -0.628895 0.622700 -0.465499 -0.628895 0.622700 -0.465499 -0.512558 0.525346 0.679159 0.636189 0.527879 0.562639 0.519883 0.625233 -0.582049 0.519883 0.625233 -0.582049 0.636189 0.527879 0.562639 0.628895 -0.622700 0.465499 0.512558 -0.525346 -0.679159 0.512558 -0.525346 -0.679159 0.628895 -0.622700 0.465499 -0.519883 -0.625233 0.582049 -0.636189 -0.527879 -0.562639 0.519883 0.625233 -0.582049 0.512558 -0.525346 -0.679159 0.636189 0.527879 0.562639 0.628895 -0.622700 0.465499 " />
									<TextureCoordinate point="0.0411 0.6077 0.2148 0.6077 0.2148 0.9379 0.0411 0.9379 0.0411 0.6077 0.2148 0.6077 0.2148 0.9379 0.0411 0.9379 0.0411 0.6077 0.2148 0.6077 0.2148 0.9379 0.0411 0.9379 0.0411 0.6077 0.2148 0.6077 0.2148 0.9379 0.0411 0.9379 0.2148 0.6077 0.2148 0.9379 0.0411 0.6077 0.0411 0.9379 " />
								</IndexedTriangleSet>
							</Shape>
						</Group>
					</Transform>
					<Transform DEF="Cube_005_TRANSFORM"
					           translation="0.063685 -0.053300 0.626697"
					           scale="1.000000 1.000000 1.000000"
					           rotation="0.000000 1.000000 0.000000 0.000000"
					           >
						<Transform DEF="Cube_005_ifs_TRANSFORM"
						           translation="0.000000 0.000000 0.000000"
						           scale="1.000000 1.000000 1.000000"
						           rotation="0.000000 1.000000 0.000000 0.000000"
						           >
							<Group DEF="group_ME_Cube_009">
								<Shape>
									<Appearance>
										<Material USE="MA_Body" />
									</Appearance>
									<IndexedTriangleSet solid="false"
									                    normalPerVertex="true"
									                    index="0 1 2 0 2 3 4 5 6 4 6 7 8 9 10 8 10 11 12 13 14 12 14 15 4 16 17 4 17 15 18 5 14 18 14 19 "
									                    >
										<Coordinate point="-0.063345 -0.057173 -0.007844 0.051029 -0.267242 0.599638 0.054461 -0.156536 0.637275 -0.059913 0.053532 0.029792 -0.059913 0.053532 0.029792 0.054461 -0.156536 0.637275 0.177718 -0.152896 0.615327 0.063345 0.057173 0.007844 0.063345 0.057173 0.007844 0.177718 -0.152896 0.615327 0.174287 -0.263601 0.577691 0.059913 -0.053532 -0.029792 0.059913 -0.053532 -0.029792 0.174287 -0.263601 0.577691 0.051029 -0.267242 0.599638 -0.063345 -0.057173 -0.007844 0.063345 0.057173 0.007844 0.059913 -0.053532 -0.029792 0.177718 -0.152896 0.615327 0.174287 -0.263601 0.577691 " />
										<Normal vector="-0.686239 -0.377392 -0.621784 -0.483963 -0.748924 0.452620 -0.450087 0.343822 0.824122 -0.652364 0.715354 -0.250282 -0.652364 0.715354 -0.250282 -0.450087 0.343822 0.824122 0.686239 0.377392 0.621784 0.483963 0.748924 -0.452620 0.483963 0.748924 -0.452620 0.686239 0.377392 0.621784 0.652364 -0.715354 0.250282 0.450087 -0.343822 -0.824122 0.450087 -0.343822 -0.824122 0.652364 -0.715354 0.250282 -0.483963 -0.748924 0.452620 -0.686239 -0.377392 -0.621784 0.483963 0.748924 -0.452620 0.450087 -0.343822 -0.824122 0.686239 0.377392 0.621784 0.652364 -0.715354 0.250282 " />
										<TextureCoordinate point="0.0411 0.6077 0.2148 0.6077 0.2148 0.9379 0.0411 0.9379 0.0411 0.6077 0.2148 0.6077 0.2148 0.9379 0.0411 0.9379 0.0411 0.6077 0.2148 0.6077 0.2148 0.9379 0.0411 0.9379 0.0411 0.6077 0.2148 0.6077 0.2148 0.9379 0.0411 0.9379 0.2148 0.6077 0.2148 0.9379 0.0411 0.6077 0.0411 0.9379 " />
									</IndexedTriangleSet>
								</Shape>
							</Group>
						</Transform>
						<Transform DEF="Cube_006_TRANSFORM"
						           translation="0.109967 -0.201975 0.584075"
						           scale="1.000000 1.000000 1.000000"
						           rotation="0.000000 1.000000 0.000000 0.000000"
						           >
							<Transform DEF="Cube_006_ifs_TRANSFORM"
							           translation="0.000000 0.000000 0.000000"
							           scale="1.000000 1.000000 1.000000"
							           rotation="0.000000 1.000000 0.000000 0.000000"
							           >
								<Group DEF="group_ME_Cube_010">
									<Shape>
										<Appearance>
											<Material USE="MA_Body" />
										</Appearance>
										<IndexedTriangleSet solid="false"
										                    normalPerVertex="true"
										                    index="0 1 2 0 2 3 4 5 6 4 6 7 8 9 10 8 10 11 12 13 14 12 14 15 4 16 17 4 17 15 18 5 14 18 14 19 "
										                    >
											<Coordinate point="-0.058913 -0.059613 -0.022274 0.172168 -0.530953 0.627999 0.187073 -0.419144 0.703746 -0.044008 0.052197 0.053473 -0.044008 0.052197 0.053473 0.187073 -0.419144 0.703746 0.289994 -0.411728 0.672547 0.058913 0.059613 0.022274 0.058913 0.059613 0.022274 0.289994 -0.411728 0.672547 0.275089 -0.523537 0.596800 0.044008 -0.052197 -0.053473 0.044008 -0.052197 -0.053473 0.275089 -0.523537 0.596800 0.172168 -0.530953 0.627999 -0.058913 -0.059613 -0.022274 0.058913 0.059613 0.022274 0.044008 -0.052197 -0.053473 0.289994 -0.411728 0.672547 0.275089 -0.523537 0.596800 " />
											<Normal vector="-0.774163 -0.189184 -0.603992 -0.454878 -0.840419 0.294443 -0.328227 0.109745 0.938169 -0.647511 0.761010 0.039705 -0.647511 0.761010 0.039705 -0.328227 0.109745 0.938169 0.774163 0.189184 0.603992 0.454878 0.840419 -0.294443 0.454878 0.840419 -0.294443 0.774163 0.189184 0.603992 0.647511 -0.761010 -0.039705 0.328227 -0.109745 -0.938169 0.328227 -0.109745 -0.938169 0.647511 -0.761010 -0.039705 -0.454878 -0.840419 0.294443 -0.774163 -0.189184 -0.603992 0.454878 0.840419 -0.294443 0.328227 -0.109745 -0.938169 0.774163 0.189184 0.603992 0.647511 -0.761010 -0.039705 " />
											<TextureCoordinate point="0.0411 0.6077 0.2148 0.6077 0.2148 0.9379 0.0411 0.9379 0.0411 0.6077 0.2148 0.6077 0.2148 0.9379 0.0411 0.9379 0.0411 0.6077 0.2148 0.6077 0.2148 0.9379 0.0411 0.9379 0.0411 0.6077 0.2148 0.6077 0.2148 0.9379 0.0411 0.9379 0.2148 0.6077 0.2148 0.9379 0.0411 0.6077 0.0411 0.9379 " />
										</IndexedTriangleSet>
									</Shape>
								</Group>
							</Transform>
							<Transform DEF="Cube_007_TRANSFORM"
							           translation="0.228233 -0.462823 0.642903"
							           scale="1.000000 1.000000 1.000000"
							           rotation="0.000000 1.000000 0.000000 0.000000"
							           >
								<Transform DEF="Cube_007_ifs_TRANSFORM"
								           translation="0.000000 0.000000 0.000000"
								           scale="1.000000 1.000000 1.000000"
								           rotation="0.000000 1.000000 0.000000 0.000000"
								           >
									<Group DEF="group_ME_Cube_011">
										<Shape>
											<Appearance>
												<Material USE="MA_Body" />
											</Appearance>
											<IndexedTriangleSet solid="false"
											                    normalPerVertex="true"
											                    index="0 1 2 0 2 3 4 5 6 4 6 7 8 9 10 8 10 11 12 13 14 12 14 15 4 16 17 4 17 15 18 5 14 18 14 19 "
											                    >
												<Coordinate point="-0.069000 -0.052729 -0.029476 0.484955 -1.154119 0.644030 0.512526 -1.074892 0.750913 -0.041428 0.026498 0.077407 -0.041428 0.026498 0.077407 0.512526 -1.074892 0.750913 0.622954 -1.048661 0.702983 0.069000 0.052729 0.029476 0.069000 0.052729 0.029476 0.622954 -1.048661 0.702983 0.595383 -1.127887 0.596100 0.041428 -0.026498 -0.077407 0.041428 -0.026498 -0.077407 0.595383 -1.127887 0.596100 0.484955 -1.154119 0.644030 -0.069000 -0.052729 -0.029476 0.069000 0.052729 0.029476 0.041428 -0.026498 -0.077407 0.622954 -1.048661 0.702983 0.595383 -1.127887 0.596100 " />
												<Normal vector="-0.862270 -0.006928 -0.506363 -0.406964 -0.912198 0.047212 -0.172643 -0.238899 0.955565 -0.627949 0.666372 0.401959 -0.627949 0.666372 0.401959 -0.172643 -0.238899 0.955565 0.862270 0.006928 0.506363 0.406964 0.912198 -0.047212 0.406964 0.912198 -0.047212 0.862270 0.006928 0.506363 0.627949 -0.666372 -0.401959 0.172643 0.238899 -0.955565 0.172643 0.238899 -0.955565 0.627949 -0.666372 -0.401959 -0.406964 -0.912198 0.047212 -0.862270 -0.006928 -0.506363 0.406964 0.912198 -0.047212 0.172643 0.238899 -0.955565 0.862270 0.006928 0.506363 0.627949 -0.666372 -0.401959 " />
												<TextureCoordinate point="0.0411 0.6077 0.2148 0.6077 0.2148 0.9379 0.0411 0.9379 0.0411 0.6077 0.2148 0.6077 0.2148 0.9379 0.0411 0.9379 0.0411 0.6077 0.2148 0.6077 0.2148 0.9379 0.0411 0.9379 0.0411 0.6077 0.2148 0.6077 0.2148 0.9379 0.0411 0.9379 0.2148 0.6077 0.2148 0.9379 0.0411 0.6077 0.0411 0.9379 " />
											</IndexedTriangleSet>
										</Shape>
									</Group>
								</Transform>
								<Transform DEF="Cube_008_TRANSFORM"
								           translation="0.538742 -1.071143 0.655011"
								           scale="1.000000 1.000000 1.000000"
								           rotation="0.000000 1.000000 0.000000 0.000000"
								           >
									<Transform DEF="Cube_008_ifs_TRANSFORM"
									           translation="0.000000 0.000000 0.000000"
									           scale="1.000000 1.000000 1.000000"
									           rotation="0.000000 1.000000 0.000000 0.000000"
									           >
										<Group DEF="group_ME_Cube_012">
											<Shape>
												<Appearance>
													<Material USE="MA_Body" />
												</Appearance>
												<IndexedTriangleSet solid="false"
												                    normalPerVertex="true"
												                    index="0 1 2 0 2 3 4 5 6 4 6 7 8 9 10 8 10 11 12 13 14 12 14 15 4 16 17 4 17 15 18 5 14 18 14 19 "
												                    >
													<Coordinate point="-0.052623 -0.039745 -0.063729 0.642007 -1.247530 0.115935 0.640176 -1.228571 0.250465 -0.054455 -0.020786 0.070801 -0.054455 -0.020786 0.070801 0.640176 -1.228571 0.250465 0.747253 -1.168040 0.243393 0.052623 0.039745 0.063729 0.052623 0.039745 0.063729 0.747253 -1.168040 0.243393 0.749085 -1.186998 0.108863 0.054455 0.020786 -0.070801 0.054455 0.020786 -0.070801 0.749085 -1.186998 0.108863 0.642007 -1.247530 0.115935 -0.052623 -0.039745 -0.063729 0.052623 0.039745 0.063729 0.054455 0.020786 -0.070801 0.747253 -1.168040 0.243393 0.749085 -1.186998 0.108863 " />
													<Normal vector="-0.779443 0.132145 -0.612323 -0.208502 -0.860561 -0.464644 -0.224067 -0.699454 0.678610 -0.795007 0.293252 0.530931 -0.795007 0.293252 0.530931 -0.224067 -0.699454 0.678610 0.779443 -0.132145 0.612323 0.208502 0.860561 0.464644 0.208502 0.860561 0.464644 0.779443 -0.132145 0.612323 0.795007 -0.293252 -0.530931 0.224067 0.699454 -0.678610 0.224067 0.699454 -0.678610 0.795007 -0.293252 -0.530931 -0.208502 -0.860561 -0.464644 -0.779443 0.132145 -0.612323 0.208502 0.860561 0.464644 0.224067 0.699454 -0.678610 0.779443 -0.132145 0.612323 0.795007 -0.293252 -0.530931 " />
													<TextureCoordinate point="0.0411 0.6077 0.2148 0.6077 0.2148 0.9379 0.0411 0.9379 0.0411 0.6077 0.2148 0.6077 0.2148 0.9379 0.0411 0.9379 0.0411 0.6077 0.2148 0.6077 0.2148 0.9379 0.0411 0.9379 0.0411 0.6077 0.2148 0.6077 0.2148 0.9379 0.0411 0.9379 0.2148 0.6077 0.2148 0.9379 0.0411 0.6077 0.0411 0.9379 " />
												</IndexedTriangleSet>
											</Shape>
										</Group>
									</Transform>
									<Transform DEF="Cube_009_TRANSFORM"
									           translation="0.679451 -1.181392 0.175738"
									           scale="1.000000 1.000000 1.000000"
									           rotation="0.000000 1.000000 0.000000 0.000000"
									           >
										<Transform DEF="Cube_009_ifs_TRANSFORM"
										           translation="0.000000 0.000000 0.000000"
										           scale="1.000000 1.000000 1.000000"
										           rotation="0.000000 1.000000 0.000000 0.000000"
										           >
											<Group DEF="group_ME_Cube_013">
												<Shape>
													<Appearance>
														<Material USE="MA_Body" />
													</Appearance>
													<IndexedTriangleSet solid="false"
													                    normalPerVertex="true"
													                    index="0 1 2 0 2 3 4 5 6 4 6 7 8 9 10 8 10 11 12 13 14 12 14 15 4 16 17 4 17 15 18 5 14 18 14 19 "
													                    >
														<Coordinate point="-0.062140 -0.022988 -0.063407 0.698666 -1.155445 -0.398445 0.721453 -1.179139 -0.266610 -0.039352 -0.046682 0.068428 -0.039352 -0.046682 0.068428 0.721453 -1.179139 -0.266610 0.822945 -1.109470 -0.271631 0.062140 0.022988 0.063407 0.062140 0.022988 0.063407 0.822945 -1.109470 -0.271631 0.800158 -1.085775 -0.403466 0.039352 0.046682 -0.068428 0.039352 0.046682 -0.068428 0.800158 -1.085775 -0.403466 0.698666 -1.155445 -0.398445 -0.062140 -0.022988 -0.063407 0.062140 0.022988 0.063407 0.039352 0.046682 -0.068428 0.822945 -1.109470 -0.271631 0.800158 -1.085775 -0.403466 " />
														<Normal vector="-0.885098 0.239601 -0.398968 -0.259743 -0.691183 -0.674337 -0.066073 -0.892544 0.446028 -0.691427 0.038240 0.721397 -0.691427 0.038240 0.721397 -0.066073 -0.892544 0.446028 0.885098 -0.239601 0.398968 0.259743 0.691183 0.674337 0.259743 0.691183 0.674337 0.885098 -0.239601 0.398968 0.691427 -0.038240 -0.721397 0.066073 0.892544 -0.446028 0.066073 0.892544 -0.446028 0.691427 -0.038240 -0.721397 -0.259743 -0.691183 -0.674337 -0.885098 0.239601 -0.398968 0.259743 0.691183 0.674337 0.066073 0.892544 -0.446028 0.885098 -0.239601 0.398968 0.691427 -0.038240 -0.721397 " />
														<TextureCoordinate point="0.0411 0.6077 0.2148 0.6077 0.2148 0.9379 0.0411 0.9379 0.0411 0.6077 0.2148 0.6077 0.2148 0.9379 0.0411 0.9379 0.0411 0.6077 0.2148 0.6077 0.2148 0.9379 0.0411 0.9379 0.0411 0.6077 0.2148 0.6077 0.2148 0.9379 0.0411 0.9379 0.2148 0.6077 0.2148 0.9379 0.0411 0.6077 0.0411 0.9379 " />
													</IndexedTriangleSet>
												</Shape>
											</Group>
										</Transform>
										<Transform DEF="Cube_010_TRANSFORM"
										           translation="0.750740 -1.117475 -0.330606"
										           scale="1.000000 1.000000 1.000000"
										           rotation="0.000000 1.000000 0.000000 0.000000"
										           >
											<Transform DEF="Cube_010_ifs_TRANSFORM"
											           translation="0.000000 0.000000 0.000000"
											           scale="1.000000 1.000000 1.000000"
											           rotation="0.000000 1.000000 0.000000 0.000000"
											           >
												<Group DEF="group_ME_Cube_014">
													<Shape>
														<Appearance>
															<Material USE="MA_Body" />
														</Appearance>
														<IndexedTriangleSet solid="false"
														                    normalPerVertex="true"
														                    index="0 1 2 0 2 3 4 5 6 4 6 7 8 9 10 8 10 11 12 13 14 12 14 15 4 16 17 4 17 15 18 5 14 18 14 19 "
														                    >
															<Coordinate point="-0.074486 -0.004174 -0.053335 0.312378 -0.540215 -0.551658 0.362260 -0.605062 -0.443178 -0.024604 -0.069021 0.055144 -0.024604 -0.069021 0.055144 0.362260 -0.605062 -0.443178 0.461350 -0.531867 -0.444987 0.074486 0.004174 0.053335 0.074486 0.004174 0.053335 0.461350 -0.531867 -0.444987 0.411468 -0.467020 -0.553467 0.024604 0.069021 -0.055144 0.024604 0.069021 -0.055144 0.411468 -0.467020 -0.553467 0.312378 -0.540215 -0.551658 -0.074486 -0.004174 -0.053335 0.074486 0.004174 0.053335 0.024604 0.069021 -0.055144 0.461350 -0.531867 -0.444987 0.411468 -0.467020 -0.553467 " />
															<Normal vector="-0.946074 0.306375 -0.104923 -0.406476 -0.441267 -0.800012 0.017396 -0.992370 0.121891 -0.522172 -0.244697 0.816950 -0.522172 -0.244697 0.816950 0.017396 -0.992370 0.121891 0.946074 -0.306375 0.104923 0.406476 0.441267 0.800012 0.406476 0.441267 0.800012 0.946074 -0.306375 0.104923 0.522172 0.244697 -0.816950 -0.017396 0.992370 -0.121891 -0.017396 0.992370 -0.121891 0.522172 0.244697 -0.816950 -0.406476 -0.441267 -0.800012 -0.946074 0.306375 -0.104923 0.406476 0.441267 0.800012 -0.017396 0.992370 -0.121891 0.946074 -0.306375 0.104923 0.522172 0.244697 -0.816950 " />
															<TextureCoordinate point="0.0411 0.6077 0.2148 0.6077 0.2148 0.9379 0.0411 0.9379 0.0411 0.6077 0.2148 0.6077 0.2148 0.9379 0.0411 0.9379 0.0411 0.6077 0.2148 0.6077 0.2148 0.9379 0.0411 0.9379 0.0411 0.6077 0.2148 0.6077 0.2148 0.9379 0.0411 0.9379 0.2148 0.6077 0.2148 0.9379 0.0411 0.6077 0.0411 0.9379 " />
														</IndexedTriangleSet>
													</Shape>
												</Group>
											</Transform>
											<Transform DEF="ant1_1_TRANSFORM"
											           translation="0.371539 -0.514808 -0.478583"
											           scale="1.000000 1.000000 1.000000"
											           rotation="0.000000 1.000000 0.000000 0.000000"
											           >
												<Transform DEF="ant1_1_ifs_TRANSFORM"
												           translation="0.000000 0.000000 0.000000"
												           scale="1.000000 1.000000 1.000000"
												           rotation="0.000000 1.000000 0.000000 0.000000"
												           >
													<Group DEF="group_ME_ant1_1">
														<Shape>
															<Appearance>
																<Material DEF="MA_Glow"
																          diffuseColor="0.800 0.800 0.800"
																          specularColor="0.401 0.401 0.401"
																          emissiveColor="0.000 0.000 0.000"
																          ambientIntensity="0.000"
																          shininess="0.500"
																          transparency="0.0"
																          />
															</Appearance>
															<IndexedTriangleSet solid="false"
															                    normalPerVertex="true"
															                    index="0 1 2 0 2 3 4 5 6 4 6 7 8 9 10 8 10 11 12 13 14 12 14 15 4 16 17 4 17 15 18 5 14 18 14 19 "
															                    >
																<Coordinate point="-0.159932 -0.022379 -0.057866 0.072409 -0.349657 -0.573444 0.165353 -0.472520 -0.453569 -0.066987 -0.145241 0.062009 -0.066987 -0.145241 0.062009 0.165353 -0.472520 -0.453569 0.392272 -0.304900 -0.457712 0.159932 0.022379 0.057866 0.159932 0.022379 0.057866 0.392272 -0.304900 -0.457712 0.299327 -0.182037 -0.577587 0.066987 0.145241 -0.062009 0.066987 0.145241 -0.062009 0.299327 -0.182037 -0.577587 0.072409 -0.349657 -0.573444 -0.159932 -0.022379 -0.057866 0.159932 0.022379 0.057866 0.066987 0.145241 -0.062009 0.392272 -0.304900 -0.457712 0.299327 -0.182037 -0.577587 " />
																<Normal vector="-0.944517 0.309580 0.109500 -0.533921 -0.268777 -0.801630 0.015839 -0.995575 -0.092532 -0.394726 -0.417188 0.818598 -0.394726 -0.417188 0.818598 0.015839 -0.995575 -0.092532 0.944517 -0.309580 -0.109500 0.533921 0.268777 0.801630 0.533921 0.268777 0.801630 0.944517 -0.309580 -0.109500 0.394726 0.417188 -0.818598 -0.015839 0.995575 0.092532 -0.015839 0.995575 0.092532 0.394726 0.417188 -0.818598 -0.533921 -0.268777 -0.801630 -0.944517 0.309580 0.109500 0.533921 0.268777 0.801630 -0.015839 0.995575 0.092532 0.944517 -0.309580 -0.109500 0.394726 0.417188 -0.818598 " />
																<TextureCoordinate point="0.2891 0.6263 0.4629 0.6263 0.4629 0.9566 0.2891 0.9566 0.2891 0.6263 0.4629 0.6263 0.4629 0.9566 0.2891 0.9566 0.2891 0.6263 0.4629 0.6263 0.4629 0.9566 0.2891 0.9566 0.2891 0.6263 0.4629 0.6263 0.4629 0.9566 0.2891 0.9566 0.4629 0.6263 0.4629 0.9566 0.2891 0.6263 0.2891 0.9566 " />
															</IndexedTriangleSet>
														</Shape>
													</Group>
												</Transform>
												<Transform DEF="Cube_012_TRANSFORM"
												           translation="0.225239 -0.295489 -0.475023"
												           scale="1.000000 1.000000 1.000000"
												           rotation="0.000000 1.000000 0.000000 0.000000"
												           >
													<Transform DEF="Cube_012_ifs_TRANSFORM"
													           translation="0.000000 0.000000 0.000000"
													           scale="1.000000 1.000000 1.000000"
													           rotation="0.000000 1.000000 0.000000 0.000000"
													           >
														<Group DEF="group_ME_Cube_016">
															<Shape>
																<Appearance>
																	<Material USE="MA_Glow" />
																</Appearance>
																<IndexedTriangleSet solid="false"
																                    normalPerVertex="true"
																                    index="0 1 2 0 2 3 4 5 6 4 6 7 8 9 10 8 10 7 11 1 12 11 12 13 0 14 12 0 12 15 16 17 18 16 18 19 20 21 22 20 22 23 24 25 26 24 26 27 28 29 30 28 30 31 32 33 34 35 36 37 35 37 38 32 34 39 35 38 32 39 35 32 8 40 41 8 41 42 43 21 30 43 30 44 "
																                    >
																	<Coordinate point="-0.280453 -0.336414 0.059243 -0.432687 0.048109 -0.076192 -0.370828 -0.079516 -0.508073 -0.218594 -0.464039 -0.372639 0.432688 -0.048109 0.076191 -0.280453 -0.336414 0.059243 -0.218594 -0.464039 -0.372639 0.494547 -0.175734 -0.355691 0.342313 0.208789 -0.491126 0.280453 0.336414 -0.059244 0.432688 -0.048109 0.076191 -0.370828 -0.079516 -0.508073 0.280453 0.336414 -0.059244 0.342313 0.208789 -0.491126 0.432688 -0.048109 0.076191 -0.432687 0.048109 -0.076192 -0.582319 -0.110624 -0.529173 -0.389285 -0.508884 -1.876879 -0.164461 -1.076758 -1.676865 -0.357495 -0.678498 -0.329159 -0.357495 -0.678498 -0.329159 -0.164461 -1.076758 -1.676865 0.934537 -0.632461 -1.650747 0.741502 -0.234201 -0.303041 0.741502 -0.234201 -0.303041 0.934537 -0.632461 -1.650747 0.709713 -0.064586 -1.850761 0.516678 0.333673 -0.503056 0.516678 0.333673 -0.503056 0.709713 -0.064586 -1.850761 -0.389285 -0.508884 -1.876879 -0.582319 -0.110624 -0.529173 -0.218594 -0.464039 -0.372639 -0.370828 -0.079516 -0.508073 -0.582319 -0.110624 -0.529173 0.741502 -0.234201 -0.303041 0.516678 0.333673 -0.503056 0.342313 0.208789 -0.491126 0.494547 -0.175734 -0.355691 -0.357495 -0.678498 -0.329159 0.516678 0.333673 -0.503056 -0.582319 -0.110624 -0.529173 -0.370828 -0.079516 -0.508073 0.934537 -0.632461 -1.650747 0.709713 -0.064586 -1.850761 " />
																	<Normal vector="-0.411725 -0.564379 0.715476 -0.815668 0.455885 0.356120 -0.508011 0.407392 0.758873 -0.411725 -0.564379 0.715476 0.658528 -0.131687 0.740928 -0.411725 -0.564379 0.715476 -0.411725 -0.564379 0.715476 0.658528 -0.131687 0.740928 0.050874 0.633351 0.772179 0.254585 0.888577 0.381542 0.658528 -0.131687 0.740928 -0.508011 0.407392 0.758873 0.254585 0.888577 0.381542 0.050874 0.633351 0.772179 0.658528 -0.131687 0.740928 -0.815668 0.455885 0.356120 -0.815668 0.455885 0.356120 -0.658528 0.131687 -0.740928 -0.254585 -0.888577 -0.381542 -0.411725 -0.564379 0.715476 -0.411725 -0.564379 0.715476 -0.254585 -0.888577 -0.381542 0.815668 -0.455885 -0.356120 0.658528 -0.131687 0.740928 0.658528 -0.131687 0.740928 0.815668 -0.455885 -0.356120 0.411725 0.564379 -0.715476 0.254585 0.888577 0.381542 0.254585 0.888577 0.381542 0.411725 0.564379 -0.715476 -0.658528 0.131687 -0.740928 -0.815668 0.455885 0.356120 -0.411725 -0.564379 0.715476 -0.508011 0.407392 0.758873 -0.815668 0.455885 0.356120 0.658528 -0.131687 0.740928 0.254585 0.888577 0.381542 0.050874 0.633351 0.772179 0.658528 -0.131687 0.740928 -0.411725 -0.564379 0.715476 0.254585 0.888577 0.381542 -0.815668 0.455885 0.356120 -0.508011 0.407392 0.758873 0.815668 -0.455885 -0.356120 0.411725 0.564379 -0.715476 " />
																	<TextureCoordinate point="0.2891 0.6263 0.4629 0.6263 0.4629 0.9566 0.2891 0.9566 0.2891 0.6263 0.4629 0.6263 0.4629 0.9566 0.2891 0.9566 0.2891 0.6263 0.4629 0.6263 0.4629 0.9566 0.2891 0.6263 0.4629 0.9566 0.2891 0.9566 0.4629 0.6263 0.2891 0.9566 0.2891 0.6263 0.4629 0.6263 0.4629 0.9566 0.2891 0.9566 0.2891 0.6263 0.4629 0.6263 0.4629 0.9566 0.2891 0.9566 0.2891 0.6263 0.4629 0.6263 0.4629 0.9566 0.2891 0.9566 0.2891 0.6263 0.4629 0.6263 0.4629 0.9566 0.2891 0.9566 0.3145 0.9082 0.3760 0.9566 0.4374 0.9082 0.4374 0.6747 0.3760 0.6263 0.3145 0.6747 0.2891 0.7914 0.4629 0.7914 0.4629 0.6263 0.4629 0.9566 0.2891 0.9566 0.2891 0.6263 0.2891 0.9566 " />
																</IndexedTriangleSet>
															</Shape>
														</Group>
													</Transform>
												</Transform>
											</Transform>
										</Transform>
									</Transform>
								</Transform>
							</Transform>
						</Transform>
					</Transform>
				</Transform>
			</Transform>
			<Transform DEF="Cube_TRANSFORM"
			           translation="1.123670 -1.337390 1.012048"
			           scale="1.000000 1.000000 1.000000"
			           rotation="0.000000 1.000000 0.000000 0.000000"
			           >
				<Transform DEF="Cube_ifs_TRANSFORM"
				           translation="0.000000 0.000000 0.000000"
				           scale="1.000000 1.000000 1.000000"
				           rotation="0.000000 1.000000 0.000000 0.000000"
				           >
					<Group DEF="group_ME_Cube_018">
						<Shape>
							<Appearance>
								<Material USE="MA_Glow" />
							</Appearance>
							<IndexedTriangleSet solid="false"
							                    normalPerVertex="true"
							                    index="0 1 2 0 2 3 4 5 6 4 6 7 8 9 10 8 10 11 12 13 14 12 14 15 4 16 17 4 17 18 19 5 20 19 20 21 "
							                    >
								<Coordinate point="-0.632056 -0.384091 -0.596897 -0.632056 -0.384091 0.596897 -0.660925 -0.058625 0.596897 -0.660925 -0.058625 -0.596897 -0.660925 -0.058625 -0.596897 -0.660925 -0.058625 0.596897 0.660925 0.058625 0.596897 0.660925 0.058625 -0.596897 0.660925 0.058625 -0.596897 0.660925 0.058625 0.596897 0.689794 -0.266840 0.596897 0.689794 -0.266840 -0.596897 0.689794 -0.266840 -0.596897 0.689794 -0.266840 0.596897 -0.632056 -0.384091 0.596897 -0.632056 -0.384091 -0.596897 0.660925 0.058625 -0.596897 0.689794 -0.266840 -0.596897 -0.632056 -0.384091 -0.596897 0.660925 0.058625 0.596897 -0.632056 -0.384091 0.596897 0.689794 -0.266840 0.596897 " />
								<Normal vector="-0.524064 -0.626087 -0.577349 -0.524064 -0.626087 0.577349 -0.626087 0.524064 0.577349 -0.626087 0.524064 -0.577349 -0.626087 0.524064 -0.577349 -0.626087 0.524064 0.577349 0.524064 0.626087 0.577349 0.524064 0.626087 -0.577349 0.524064 0.626087 -0.577349 0.524064 0.626087 0.577349 0.626087 -0.524064 0.577349 0.626087 -0.524064 -0.577349 0.626087 -0.524064 -0.577349 0.626087 -0.524064 0.577349 -0.524064 -0.626087 0.577349 -0.524064 -0.626087 -0.577349 0.524064 0.626087 -0.577349 0.626087 -0.524064 -0.577349 -0.524064 -0.626087 -0.577349 0.524064 0.626087 0.577349 -0.524064 -0.626087 0.577349 0.626087 -0.524064 0.577349 " />
								<TextureCoordinate point="0.2891 0.6201 0.4629 0.6201 0.4629 0.9504 0.2891 0.9504 0.2891 0.6201 0.4629 0.6201 0.4629 0.9504 0.2891 0.9504 0.2891 0.6201 0.4629 0.6201 0.4629 0.9504 0.2891 0.9504 0.5161 0.0691 0.9751 0.0691 0.9751 0.9414 0.5161 0.9414 0.4629 0.6201 0.4629 0.9504 0.2891 0.9504 0.2891 0.6201 0.4629 0.9504 0.2891 0.9504 " />
							</IndexedTriangleSet>
						</Shape>
					</Group>
				</Transform>
			</Transform>
			<Transform DEF="arm1_TRANSFORM"
			           translation="1.673370 -0.043963 0.441573"
			           scale="1.000000 1.000000 1.000000"
			           rotation="0.000000 1.000000 0.000000 0.000000"
			           >
				<Transform DEF="arm1_ifs_TRANSFORM"
				           translation="0.000000 0.000000 0.000000"
				           scale="1.000000 1.000000 1.000000"
				           rotation="0.000000 1.000000 0.000000 0.000000"
				           >
					<Group DEF="group_ME_arm1">
						<Shape>
							<Appearance>
								<Material USE="MA_Body" />
							</Appearance>
							<IndexedTriangleSet solid="false"
							                    normalPerVertex="true"
							                    index="0 1 2 0 2 3 4 5 6 4 6 7 8 9 10 8 10 11 12 13 14 12 14 15 4 16 17 4 17 15 18 5 14 18 14 19 "
							                    >
								<Coordinate point="0.024892 -0.519645 -0.022256 0.025242 -0.518373 0.042401 -0.024892 0.519645 0.022256 -0.025242 0.518373 -0.042401 -0.025242 0.518373 -0.042401 -0.024892 0.519645 0.022256 1.629913 0.599363 0.011743 1.629564 0.598092 -0.052914 1.629564 0.598092 -0.052914 1.629913 0.599363 0.011743 1.680047 -0.438654 0.031888 1.679697 -0.439926 -0.032769 1.679697 -0.439926 -0.032769 1.680047 -0.438654 0.031888 0.025242 -0.518373 0.042401 0.024892 -0.519645 -0.022256 1.629564 0.598092 -0.052914 1.679697 -0.439926 -0.032769 1.629913 0.599363 0.011743 1.680047 -0.438654 0.031888 " />
								<Normal vector="-0.551927 -0.615680 -0.562365 -0.545701 -0.592975 0.592059 -0.601367 0.560137 0.569689 -0.607624 0.537431 -0.584735 -0.607624 0.537431 -0.584735 -0.601367 0.560137 0.569689 0.551927 0.615680 0.562365 0.545701 0.592975 -0.592059 0.545701 0.592975 -0.592059 0.551927 0.615680 0.562365 0.607624 -0.537431 0.584735 0.601367 -0.560137 -0.569689 0.601367 -0.560137 -0.569689 0.607624 -0.537431 0.584735 -0.545701 -0.592975 0.592059 -0.551927 -0.615680 -0.562365 0.545701 0.592975 -0.592059 0.601367 -0.560137 -0.569689 0.551927 0.615680 0.562365 0.607624 -0.537431 0.584735 " />
								<TextureCoordinate point="0.2953 0.0533 0.4691 0.0533 0.4691 0.4878 0.2953 0.4878 0.2953 0.0533 0.4691 0.0533 0.4691 0.4878 0.2953 0.4878 0.2953 0.0533 0.4691 0.0533 0.4691 0.4878 0.2953 0.4878 0.2953 0.0533 0.4691 0.0533 0.4691 0.4878 0.2953 0.4878 0.4691 0.0533 0.4691 0.4878 0.2953 0.0533 0.2953 0.4878 " />
							</IndexedTriangleSet>
						</Shape>
					</Group>
				</Transform>
			</Transform>
			<Transform DEF="foot2_TRANSFORM"
			           translation="-0.932044 1.264090 0.147298"
			           scale="1.000000 1.000000 1.000000"
			           rotation="0.000000 1.000000 0.000000 0.000000"
			           >
				<Transform DEF="foot2_ifs_TRANSFORM"
				           translation="0.000000 0.000000 0.000000"
				           scale="1.000000 1.000000 1.000000"
				           rotation="0.000000 1.000000 0.000000 0.000000"
				           >
					<Group DEF="group_ME_foot2">
						<Shape>
							<Appearance>
								<Material USE="MA_Body" />
							</Appearance>
							<IndexedTriangleSet solid="false"
							                    normalPerVertex="true"
							                    index="0 1 2 0 2 3 4 5 6 4 6 7 8 9 10 8 10 11 12 13 14 12 14 15 4 13 16 4 16 17 18 19 14 18 14 7 "
							                    >
								<Coordinate point="0.076682 0.230315 -0.752170 0.079698 0.507825 -0.600372 0.229876 0.159611 0.033233 0.226860 -0.117899 -0.118564 0.079698 0.507825 -0.600372 -0.377037 0.466112 -0.515041 -0.226860 0.117899 0.118564 0.229876 0.159611 0.033233 -0.377037 0.466112 -0.515041 -0.380053 0.188603 -0.666839 -0.229876 -0.159611 -0.033233 -0.226860 0.117899 0.118564 -0.380053 0.188603 -0.666839 0.076682 0.230315 -0.752170 0.226860 -0.117899 -0.118564 -0.229876 -0.159611 -0.033233 -0.380053 0.188603 -0.666839 -0.377037 0.466112 -0.515041 -0.226860 0.117899 0.118564 -0.229876 -0.159611 -0.033233 " />
								<Normal vector="0.442305 -0.182592 -0.878048 0.453322 0.830378 -0.323923 0.688162 0.285836 0.666829 0.677145 -0.727134 0.112735 0.453322 0.830378 -0.323923 -0.677145 0.727134 -0.112735 -0.442305 0.182592 0.878048 0.688162 0.285836 0.666829 -0.677145 0.727134 -0.112735 -0.688162 -0.285836 -0.666829 -0.453322 -0.830378 0.323923 -0.442305 0.182592 0.878048 -0.688162 -0.285836 -0.666829 0.442305 -0.182592 -0.878048 0.677145 -0.727134 0.112735 -0.453322 -0.830378 0.323923 -0.688162 -0.285836 -0.666829 -0.677145 0.727134 -0.112735 -0.442305 0.182592 0.878048 -0.453322 -0.830378 0.323923 " />
								<TextureCoordinate point="0.0411 0.6077 0.0411 0.9379 0.2148 0.9379 0.2148 0.6077 0.0411 0.6077 0.0411 0.9379 0.2148 0.9379 0.2148 0.6077 0.0411 0.6077 0.0411 0.9379 0.2148 0.9379 0.2148 0.6077 0.0411 0.6077 0.0411 0.9379 0.2148 0.9379 0.2148 0.6077 0.2148 0.9379 0.2148 0.6077 0.0411 0.6077 0.0411 0.9379 " />
							</IndexedTriangleSet>
						</Shape>
					</Group>
				</Transform>
			</Transform>
			<Transform DEF="ant2_TRANSFORM"
			           translation="-0.047832 1.834911 0.665016"
			           scale="1.000000 1.000000 1.000000"
			           rotation="0.000000 1.000000 0.000000 0.000000"
			           >
				<Transform DEF="ant2_ifs_TRANSFORM"
				           translation="0.000000 0.000000 0.000000"
				           scale="1.000000 1.000000 1.000000"
				           rotation="0.000000 1.000000 0.000000 0.000000"
				           >
					<Group DEF="group_ME_ant2">
						<Shape>
							<Appearance>
								<Material USE="MA_Body" />
							</Appearance>
							<IndexedTriangleSet solid="false"
							                    normalPerVertex="true"
							                    index="0 1 2 0 2 3 4 5 6 4 6 7 8 9 10 8 10 11 12 13 14 12 14 15 4 13 16 4 16 17 18 19 14 18 14 7 "
							                    >
								<Coordinate point="0.078031 -0.059420 0.024400 0.080854 0.059420 -0.012116 0.037452 0.232938 0.549233 0.034629 0.114098 0.585749 0.080854 0.059420 -0.012116 -0.078031 0.059420 -0.024400 -0.121433 0.232938 0.536948 0.037452 0.232938 0.549233 -0.078031 0.059420 -0.024400 -0.080854 -0.059420 0.012116 -0.124256 0.114098 0.573464 -0.121433 0.232938 0.536948 -0.080854 -0.059420 0.012116 0.078031 -0.059420 0.024400 0.034629 0.114098 0.585749 -0.124256 0.114098 0.573464 -0.080854 -0.059420 0.012116 -0.078031 0.059420 -0.024400 -0.121433 0.232938 0.536948 -0.124256 0.114098 0.573464 " />
								<Normal vector="0.605029 -0.721763 -0.336039 0.631245 0.381695 -0.675100 0.546190 0.721763 0.425062 0.519974 -0.381695 0.764122 0.631245 0.381695 -0.675100 -0.519974 0.381695 -0.764122 -0.605029 0.721763 0.336039 0.546190 0.721763 0.425062 -0.519974 0.381695 -0.764122 -0.546190 -0.721763 -0.425062 -0.631245 -0.381695 0.675100 -0.605029 0.721763 0.336039 -0.546190 -0.721763 -0.425062 0.605029 -0.721763 -0.336039 0.519974 -0.381695 0.764122 -0.631245 -0.381695 0.675100 -0.546190 -0.721763 -0.425062 -0.519974 0.381695 -0.764122 -0.605029 0.721763 0.336039 -0.631245 -0.381695 0.675100 " />
								<TextureCoordinate point="0.0411 0.6077 0.0411 0.9379 0.2148 0.9379 0.2148 0.6077 0.0411 0.6077 0.0411 0.9379 0.2148 0.9379 0.2148 0.6077 0.0411 0.6077 0.0411 0.9379 0.2148 0.9379 0.2148 0.6077 0.0411 0.6077 0.0411 0.9379 0.2148 0.9379 0.2148 0.6077 0.2148 0.9379 0.2148 0.6077 0.0411 0.6077 0.0411 0.9379 " />
							</IndexedTriangleSet>
						</Shape>
					</Group>
				</Transform>
				<Transform DEF="Cube_001_TRANSFORM"
				           translation="-0.040675 0.162612 0.526069"
				           scale="1.000000 1.000000 1.000000"
				           rotation="0.000000 1.000000 0.000000 0.000000"
				           >
					<Transform DEF="Cube_001_ifs_TRANSFORM"
					           translation="0.000000 0.000000 0.000000"
					           scale="1.000000 1.000000 1.000000"
					           rotation="0.000000 1.000000 0.000000 0.000000"
					           >
						<Group DEF="group_ME_Cube_002">
							<Shape>
								<Appearance>
									<Material USE="MA_Body" />
								</Appearance>
								<IndexedTriangleSet solid="false"
								                    normalPerVertex="true"
								                    index="0 1 2 0 2 3 4 5 6 4 6 7 8 9 10 8 10 11 12 13 14 12 14 15 4 13 16 4 16 17 18 19 14 18 14 7 "
								                    >
									<Coordinate point="0.068966 -0.062108 0.001726 0.068179 0.061805 0.012185 0.000151 0.004870 0.681619 0.000938 -0.119043 0.671160 0.068179 0.061805 0.012185 -0.068966 0.062108 -0.001726 -0.136994 0.005173 0.667708 0.000151 0.004870 0.681619 -0.068966 0.062108 -0.001726 -0.068179 -0.061805 -0.012185 -0.136207 -0.118739 0.657249 -0.136994 0.005173 0.667708 -0.068179 -0.061805 -0.012185 0.068966 -0.062108 0.001726 0.000938 -0.119043 0.671160 -0.136207 -0.118739 0.657249 -0.068179 -0.061805 -0.012185 -0.068966 0.062108 -0.001726 -0.136994 0.005173 0.667708 -0.136207 -0.118739 0.657249 " />
									<Normal vector="0.636189 -0.527879 -0.562639 0.628895 0.622700 -0.465499 0.512558 0.525346 0.679159 0.519883 -0.625233 0.582049 0.628895 0.622700 -0.465499 -0.519883 0.625233 -0.582049 -0.636189 0.527879 0.562639 0.512558 0.525346 0.679159 -0.519883 0.625233 -0.582049 -0.512558 -0.525346 -0.679159 -0.628895 -0.622700 0.465499 -0.636189 0.527879 0.562639 -0.512558 -0.525346 -0.679159 0.636189 -0.527879 -0.562639 0.519883 -0.625233 0.582049 -0.628895 -0.622700 0.465499 -0.512558 -0.525346 -0.679159 -0.519883 0.625233 -0.582049 -0.636189 0.527879 0.562639 -0.628895 -0.622700 0.465499 " />
									<TextureCoordinate point="0.0411 0.6077 0.0411 0.9379 0.2148 0.9379 0.2148 0.6077 0.0411 0.6077 0.0411 0.9379 0.2148 0.9379 0.2148 0.6077 0.0411 0.6077 0.0411 0.9379 0.2148 0.9379 0.2148 0.6077 0.0411 0.6077 0.0411 0.9379 0.2148 0.9379 0.2148 0.6077 0.2148 0.9379 0.2148 0.6077 0.0411 0.6077 0.0411 0.9379 " />
								</IndexedTriangleSet>
							</Shape>
						</Group>
					</Transform>
					<Transform DEF="Cube_003_TRANSFORM"
					           translation="-0.063685 -0.053300 0.626697"
					           scale="1.000000 1.000000 1.000000"
					           rotation="0.000000 1.000000 0.000000 0.000000"
					           >
						<Transform DEF="Cube_003_ifs_TRANSFORM"
						           translation="0.000000 0.000000 0.000000"
						           scale="1.000000 1.000000 1.000000"
						           rotation="0.000000 1.000000 0.000000 0.000000"
						           >
							<Group DEF="group_ME_Cube_004">
								<Shape>
									<Appearance>
										<Material USE="MA_Body" />
									</Appearance>
									<IndexedTriangleSet solid="false"
									                    normalPerVertex="true"
									                    index="0 1 2 0 2 3 4 5 6 4 6 7 8 9 10 8 10 11 12 13 14 12 14 15 4 13 16 4 16 17 18 19 14 18 14 7 "
									                    >
										<Coordinate point="0.063345 -0.057173 -0.007844 0.059913 0.053532 0.029792 -0.054461 -0.156536 0.637275 -0.051029 -0.267242 0.599638 0.059913 0.053532 0.029792 -0.063345 0.057173 0.007844 -0.177718 -0.152896 0.615327 -0.054461 -0.156536 0.637275 -0.063345 0.057173 0.007844 -0.059913 -0.053532 -0.029792 -0.174287 -0.263601 0.577691 -0.177718 -0.152896 0.615327 -0.059913 -0.053532 -0.029792 0.063345 -0.057173 -0.007844 -0.051029 -0.267242 0.599638 -0.174287 -0.263601 0.577691 -0.059913 -0.053532 -0.029792 -0.063345 0.057173 0.007844 -0.177718 -0.152896 0.615327 -0.174287 -0.263601 0.577691 " />
										<Normal vector="0.686239 -0.377392 -0.621784 0.652364 0.715354 -0.250282 0.450087 0.343822 0.824122 0.483963 -0.748924 0.452620 0.652364 0.715354 -0.250282 -0.483963 0.748924 -0.452620 -0.686239 0.377392 0.621784 0.450087 0.343822 0.824122 -0.483963 0.748924 -0.452620 -0.450087 -0.343822 -0.824122 -0.652364 -0.715354 0.250282 -0.686239 0.377392 0.621784 -0.450087 -0.343822 -0.824122 0.686239 -0.377392 -0.621784 0.483963 -0.748924 0.452620 -0.652364 -0.715354 0.250282 -0.450087 -0.343822 -0.824122 -0.483963 0.748924 -0.452620 -0.686239 0.377392 0.621784 -0.652364 -0.715354 0.250282 " />
										<TextureCoordinate point="0.0411 0.6077 0.0411 0.9379 0.2148 0.9379 0.2148 0.6077 0.0411 0.6077 0.0411 0.9379 0.2148 0.9379 0.2148 0.6077 0.0411 0.6077 0.0411 0.9379 0.2148 0.9379 0.2148 0.6077 0.0411 0.6077 0.0411 0.9379 0.2148 0.9379 0.2148 0.6077 0.2148 0.9379 0.2148 0.6077 0.0411 0.6077 0.0411 0.9379 " />
									</IndexedTriangleSet>
								</Shape>
							</Group>
						</Transform>
						<Transform DEF="Cube_011_TRANSFORM"
						           translation="-0.109967 -0.201975 0.584075"
						           scale="1.000000 1.000000 1.000000"
						           rotation="0.000000 1.000000 0.000000 0.000000"
						           >
							<Transform DEF="Cube_011_ifs_TRANSFORM"
							           translation="0.000000 0.000000 0.000000"
							           scale="1.000000 1.000000 1.000000"
							           rotation="0.000000 1.000000 0.000000 0.000000"
							           >
								<Group DEF="group_ME_Cube_006">
									<Shape>
										<Appearance>
											<Material USE="MA_Body" />
										</Appearance>
										<IndexedTriangleSet solid="false"
										                    normalPerVertex="true"
										                    index="0 1 2 0 2 3 4 5 6 4 6 7 8 9 10 8 10 11 12 13 14 12 14 15 4 13 16 4 16 17 18 19 14 18 14 7 "
										                    >
											<Coordinate point="0.058913 -0.059613 -0.022274 0.044008 0.052197 0.053473 -0.187073 -0.419144 0.703746 -0.172168 -0.530954 0.627999 0.044008 0.052197 0.053473 -0.058913 0.059613 0.022274 -0.289994 -0.411728 0.672547 -0.187073 -0.419144 0.703746 -0.058913 0.059613 0.022274 -0.044008 -0.052197 -0.053473 -0.275089 -0.523537 0.596800 -0.289994 -0.411728 0.672547 -0.044008 -0.052197 -0.053473 0.058913 -0.059613 -0.022274 -0.172168 -0.530954 0.627999 -0.275089 -0.523537 0.596800 -0.044008 -0.052197 -0.053473 -0.058913 0.059613 0.022274 -0.289994 -0.411728 0.672547 -0.275089 -0.523537 0.596800 " />
											<Normal vector="0.774163 -0.189184 -0.603992 0.647511 0.761010 0.039705 0.328227 0.109745 0.938169 0.454878 -0.840419 0.294443 0.647511 0.761010 0.039705 -0.454878 0.840419 -0.294443 -0.774163 0.189184 0.603992 0.328227 0.109745 0.938169 -0.454878 0.840419 -0.294443 -0.328227 -0.109745 -0.938169 -0.647511 -0.761010 -0.039705 -0.774163 0.189184 0.603992 -0.328227 -0.109745 -0.938169 0.774163 -0.189184 -0.603992 0.454878 -0.840419 0.294443 -0.647511 -0.761010 -0.039705 -0.328227 -0.109745 -0.938169 -0.454878 0.840419 -0.294443 -0.774163 0.189184 0.603992 -0.647511 -0.761010 -0.039705 " />
											<TextureCoordinate point="0.0411 0.6077 0.0411 0.9379 0.2148 0.9379 0.2148 0.6077 0.0411 0.6077 0.0411 0.9379 0.2148 0.9379 0.2148 0.6077 0.0411 0.6077 0.0411 0.9379 0.2148 0.9379 0.2148 0.6077 0.0411 0.6077 0.0411 0.9379 0.2148 0.9379 0.2148 0.6077 0.2148 0.9379 0.2148 0.6077 0.0411 0.6077 0.0411 0.9379 " />
										</IndexedTriangleSet>
									</Shape>
								</Group>
							</Transform>
							<Transform DEF="Cube_013_TRANSFORM"
							           translation="-0.228233 -0.462823 0.642903"
							           scale="1.000000 1.000000 1.000000"
							           rotation="0.000000 1.000000 0.000000 0.000000"
							           >
								<Transform DEF="Cube_013_ifs_TRANSFORM"
								           translation="0.000000 0.000000 0.000000"
								           scale="1.000000 1.000000 1.000000"
								           rotation="0.000000 1.000000 0.000000 0.000000"
								           >
									<Group DEF="group_ME_Cube_015">
										<Shape>
											<Appearance>
												<Material USE="MA_Body" />
											</Appearance>
											<IndexedTriangleSet solid="false"
											                    normalPerVertex="true"
											                    index="0 1 2 0 2 3 4 5 6 4 6 7 8 9 10 8 10 11 12 13 14 12 14 15 4 13 16 4 16 17 18 19 14 18 14 7 "
											                    >
												<Coordinate point="0.069000 -0.052729 -0.029476 0.041428 0.026498 0.077407 -0.512526 -1.074892 0.750913 -0.484955 -1.154119 0.644030 0.041428 0.026498 0.077407 -0.069000 0.052729 0.029476 -0.622954 -1.048661 0.702983 -0.512526 -1.074892 0.750913 -0.069000 0.052729 0.029476 -0.041428 -0.026498 -0.077407 -0.595383 -1.127887 0.596100 -0.622954 -1.048661 0.702983 -0.041428 -0.026498 -0.077407 0.069000 -0.052729 -0.029476 -0.484955 -1.154119 0.644030 -0.595383 -1.127887 0.596100 -0.041428 -0.026498 -0.077407 -0.069000 0.052729 0.029476 -0.622954 -1.048661 0.702983 -0.595383 -1.127887 0.596100 " />
												<Normal vector="0.862270 -0.006928 -0.506363 0.627949 0.666372 0.401959 0.172643 -0.238899 0.955565 0.406964 -0.912198 0.047212 0.627949 0.666372 0.401959 -0.406964 0.912198 -0.047212 -0.862270 0.006928 0.506363 0.172643 -0.238899 0.955565 -0.406964 0.912198 -0.047212 -0.172643 0.238899 -0.955565 -0.627949 -0.666372 -0.401959 -0.862270 0.006928 0.506363 -0.172643 0.238899 -0.955565 0.862270 -0.006928 -0.506363 0.406964 -0.912198 0.047212 -0.627949 -0.666372 -0.401959 -0.172643 0.238899 -0.955565 -0.406964 0.912198 -0.047212 -0.862270 0.006928 0.506363 -0.627949 -0.666372 -0.401959 " />
												<TextureCoordinate point="0.0411 0.6077 0.0411 0.9379 0.2148 0.9379 0.2148 0.6077 0.0411 0.6077 0.0411 0.9379 0.2148 0.9379 0.2148 0.6077 0.0411 0.6077 0.0411 0.9379 0.2148 0.9379 0.2148 0.6077 0.0411 0.6077 0.0411 0.9379 0.2148 0.9379 0.2148 0.6077 0.2148 0.9379 0.2148 0.6077 0.0411 0.6077 0.0411 0.9379 " />
											</IndexedTriangleSet>
										</Shape>
									</Group>
								</Transform>
								<Transform DEF="Cube_014_TRANSFORM"
								           translation="-0.538742 -1.071143 0.655011"
								           scale="1.000000 1.000000 1.000000"
								           rotation="0.000000 1.000000 0.000000 0.000000"
								           >
									<Transform DEF="Cube_014_ifs_TRANSFORM"
									           translation="0.000000 0.000000 0.000000"
									           scale="1.000000 1.000000 1.000000"
									           rotation="0.000000 1.000000 0.000000 0.000000"
									           >
										<Group DEF="group_ME_Cube_019">
											<Shape>
												<Appearance>
													<Material USE="MA_Body" />
												</Appearance>
												<IndexedTriangleSet solid="false"
												                    normalPerVertex="true"
												                    index="0 1 2 0 2 3 4 5 6 4 6 7 8 9 10 8 10 11 12 13 14 12 14 15 4 13 16 4 16 17 18 19 14 18 14 7 "
												                    >
													<Coordinate point="0.052623 -0.039745 -0.063729 0.054455 -0.020786 0.070801 -0.640176 -1.228571 0.250465 -0.642007 -1.247530 0.115935 0.054455 -0.020786 0.070801 -0.052623 0.039745 0.063729 -0.747253 -1.168040 0.243393 -0.640176 -1.228571 0.250465 -0.052623 0.039745 0.063729 -0.054455 0.020786 -0.070801 -0.749085 -1.186998 0.108863 -0.747253 -1.168040 0.243393 -0.054455 0.020786 -0.070801 0.052623 -0.039745 -0.063729 -0.642007 -1.247530 0.115935 -0.749085 -1.186998 0.108863 -0.054455 0.020786 -0.070801 -0.052623 0.039745 0.063729 -0.747253 -1.168040 0.243393 -0.749085 -1.186998 0.108863 " />
													<Normal vector="0.779443 0.132145 -0.612323 0.795007 0.293252 0.530931 0.224067 -0.699454 0.678610 0.208502 -0.860561 -0.464644 0.795007 0.293252 0.530931 -0.208502 0.860561 0.464644 -0.779443 -0.132145 0.612323 0.224067 -0.699454 0.678610 -0.208502 0.860561 0.464644 -0.224067 0.699454 -0.678610 -0.795007 -0.293252 -0.530931 -0.779443 -0.132145 0.612323 -0.224067 0.699454 -0.678610 0.779443 0.132145 -0.612323 0.208502 -0.860561 -0.464644 -0.795007 -0.293252 -0.530931 -0.224067 0.699454 -0.678610 -0.208502 0.860561 0.464644 -0.779443 -0.132145 0.612323 -0.795007 -0.293252 -0.530931 " />
													<TextureCoordinate point="0.0411 0.6077 0.0411 0.9379 0.2148 0.9379 0.2148 0.6077 0.0411 0.6077 0.0411 0.9379 0.2148 0.9379 0.2148 0.6077 0.0411 0.6077 0.0411 0.9379 0.2148 0.9379 0.2148 0.6077 0.0411 0.6077 0.0411 0.9379 0.2148 0.9379 0.2148 0.6077 0.2148 0.9379 0.2148 0.6077 0.0411 0.6077 0.0411 0.9379 " />
												</IndexedTriangleSet>
											</Shape>
										</Group>
									</Transform>
									<Transform DEF="Cube_015_TRANSFORM"
									           translation="-0.679451 -1.181392 0.175738"
									           scale="1.000000 1.000000 1.000000"
									           rotation="0.000000 1.000000 0.000000 0.000000"
									           >
										<Transform DEF="Cube_015_ifs_TRANSFORM"
										           translation="0.000000 0.000000 0.000000"
										           scale="1.000000 1.000000 1.000000"
										           rotation="0.000000 1.000000 0.000000 0.000000"
										           >
											<Group DEF="group_ME_Cube_020">
												<Shape>
													<Appearance>
														<Material USE="MA_Body" />
													</Appearance>
													<IndexedTriangleSet solid="false"
													                    normalPerVertex="true"
													                    index="0 1 2 0 2 3 4 5 6 4 6 7 8 9 10 8 10 11 12 13 14 12 14 15 4 13 16 4 16 17 18 19 14 18 14 7 "
													                    >
														<Coordinate point="0.062140 -0.022988 -0.063407 0.039352 -0.046682 0.068428 -0.721453 -1.179139 -0.266610 -0.698666 -1.155445 -0.398445 0.039352 -0.046682 0.068428 -0.062140 0.022988 0.063407 -0.822945 -1.109470 -0.271632 -0.721453 -1.179139 -0.266610 -0.062140 0.022988 0.063407 -0.039352 0.046682 -0.068428 -0.800158 -1.085775 -0.403466 -0.822945 -1.109470 -0.271632 -0.039352 0.046682 -0.068428 0.062140 -0.022988 -0.063407 -0.698666 -1.155445 -0.398445 -0.800158 -1.085775 -0.403466 -0.039352 0.046682 -0.068428 -0.062140 0.022988 0.063407 -0.822945 -1.109470 -0.271632 -0.800158 -1.085775 -0.403466 " />
														<Normal vector="0.885098 0.239601 -0.398968 0.691427 0.038240 0.721397 0.066073 -0.892544 0.446028 0.259743 -0.691183 -0.674337 0.691427 0.038240 0.721397 -0.259743 0.691183 0.674337 -0.885098 -0.239601 0.398968 0.066073 -0.892544 0.446028 -0.259743 0.691183 0.674337 -0.066073 0.892544 -0.446028 -0.691427 -0.038240 -0.721397 -0.885098 -0.239601 0.398968 -0.066073 0.892544 -0.446028 0.885098 0.239601 -0.398968 0.259743 -0.691183 -0.674337 -0.691427 -0.038240 -0.721397 -0.066073 0.892544 -0.446028 -0.259743 0.691183 0.674337 -0.885098 -0.239601 0.398968 -0.691427 -0.038240 -0.721397 " />
														<TextureCoordinate point="0.0411 0.6077 0.0411 0.9379 0.2148 0.9379 0.2148 0.6077 0.0411 0.6077 0.0411 0.9379 0.2148 0.9379 0.2148 0.6077 0.0411 0.6077 0.0411 0.9379 0.2148 0.9379 0.2148 0.6077 0.0411 0.6077 0.0411 0.9379 0.2148 0.9379 0.2148 0.6077 0.2148 0.9379 0.2148 0.6077 0.0411 0.6077 0.0411 0.9379 " />
													</IndexedTriangleSet>
												</Shape>
											</Group>
										</Transform>
										<Transform DEF="Cube_016_TRANSFORM"
										           translation="-0.750740 -1.117475 -0.330606"
										           scale="1.000000 1.000000 1.000000"
										           rotation="0.000000 1.000000 0.000000 0.000000"
										           >
											<Transform DEF="Cube_016_ifs_TRANSFORM"
											           translation="0.000000 0.000000 0.000000"
											           scale="1.000000 1.000000 1.000000"
											           rotation="0.000000 1.000000 0.000000 0.000000"
											           >
												<Group DEF="group_ME_Cube_021">
													<Shape>
														<Appearance>
															<Material USE="MA_Body" />
														</Appearance>
														<IndexedTriangleSet solid="false"
														                    normalPerVertex="true"
														                    index="0 1 2 0 2 3 4 5 6 4 6 7 8 9 10 8 10 11 12 13 14 12 14 15 4 13 16 4 16 17 18 19 14 18 14 7 "
														                    >
															<Coordinate point="0.074486 -0.004174 -0.053335 0.024604 -0.069021 0.055144 -0.362260 -0.605062 -0.443178 -0.312378 -0.540215 -0.551658 0.024604 -0.069021 0.055144 -0.074486 0.004174 0.053335 -0.461350 -0.531866 -0.444987 -0.362260 -0.605062 -0.443178 -0.074486 0.004174 0.053335 -0.024604 0.069021 -0.055144 -0.411468 -0.467020 -0.553467 -0.461350 -0.531866 -0.444987 -0.024604 0.069021 -0.055144 0.074486 -0.004174 -0.053335 -0.312378 -0.540215 -0.551658 -0.411468 -0.467020 -0.553467 -0.024604 0.069021 -0.055144 -0.074486 0.004174 0.053335 -0.461350 -0.531866 -0.444987 -0.411468 -0.467020 -0.553467 " />
															<Normal vector="0.946074 0.306375 -0.104923 0.522172 -0.244697 0.816950 -0.017396 -0.992370 0.121891 0.406476 -0.441267 -0.800012 0.522172 -0.244697 0.816950 -0.406476 0.441267 0.800012 -0.946074 -0.306375 0.104923 -0.017396 -0.992370 0.121891 -0.406476 0.441267 0.800012 0.017396 0.992370 -0.121891 -0.522172 0.244697 -0.816950 -0.946074 -0.306375 0.104923 0.017396 0.992370 -0.121891 0.946074 0.306375 -0.104923 0.406476 -0.441267 -0.800012 -0.522172 0.244697 -0.816950 0.017396 0.992370 -0.121891 -0.406476 0.441267 0.800012 -0.946074 -0.306375 0.104923 -0.522172 0.244697 -0.816950 " />
															<TextureCoordinate point="0.0411 0.6077 0.0411 0.9379 0.2148 0.9379 0.2148 0.6077 0.0411 0.6077 0.0411 0.9379 0.2148 0.9379 0.2148 0.6077 0.0411 0.6077 0.0411 0.9379 0.2148 0.9379 0.2148 0.6077 0.0411 0.6077 0.0411 0.9379 0.2148 0.9379 0.2148 0.6077 0.2148 0.9379 0.2148 0.6077 0.0411 0.6077 0.0411 0.9379 " />
														</IndexedTriangleSet>
													</Shape>
												</Group>
											</Transform>
											<Transform DEF="ant2_1_TRANSFORM"
											           translation="-0.371539 -0.514808 -0.478583"
											           scale="1.000000 1.000000 1.000000"
											           rotation="0.000000 1.000000 0.000000 0.000000"
											           >
												<Transform DEF="ant2_1_ifs_TRANSFORM"
												           translation="0.000000 0.000000 0.000000"
												           scale="1.000000 1.000000 1.000000"
												           rotation="0.000000 1.000000 0.000000 0.000000"
												           >
													<Group DEF="group_ME_ant2_1">
														<Shape>
															<Appearance>
																<Material USE="MA_Glow" />
															</Appearance>
															<IndexedTriangleSet solid="false"
															                    normalPerVertex="true"
															                    index="0 1 2 0 2 3 4 5 6 4 6 7 8 9 10 8 10 11 12 13 14 12 14 15 4 13 16 4 16 17 18 19 14 18 14 7 "
															                    >
																<Coordinate point="0.159932 -0.022379 -0.057866 0.066987 -0.145241 0.062009 -0.165353 -0.472520 -0.453569 -0.072409 -0.349657 -0.573444 0.066987 -0.145241 0.062009 -0.159932 0.022379 0.057866 -0.392272 -0.304900 -0.457712 -0.165353 -0.472520 -0.453569 -0.159932 0.022379 0.057866 -0.066987 0.145241 -0.062009 -0.299327 -0.182037 -0.577587 -0.392272 -0.304900 -0.457712 -0.066987 0.145241 -0.062009 0.159932 -0.022379 -0.057866 -0.072409 -0.349657 -0.573444 -0.299327 -0.182037 -0.577587 -0.066987 0.145241 -0.062009 -0.159932 0.022379 0.057866 -0.392272 -0.304900 -0.457712 -0.299327 -0.182037 -0.577587 " />
																<Normal vector="0.944517 0.309580 0.109500 0.394726 -0.417188 0.818598 -0.015839 -0.995575 -0.092532 0.533921 -0.268777 -0.801630 0.394726 -0.417188 0.818598 -0.533921 0.268777 0.801630 -0.944517 -0.309580 -0.109500 -0.015839 -0.995575 -0.092532 -0.533921 0.268777 0.801630 0.015839 0.995575 0.092532 -0.394726 0.417188 -0.818598 -0.944517 -0.309580 -0.109500 0.015839 0.995575 0.092532 0.944517 0.309580 0.109500 0.533921 -0.268777 -0.801630 -0.394726 0.417188 -0.818598 0.015839 0.995575 0.092532 -0.533921 0.268777 0.801630 -0.944517 -0.309580 -0.109500 -0.394726 0.417188 -0.818598 " />
																<TextureCoordinate point="0.2891 0.6263 0.2891 0.9566 0.4629 0.9566 0.4629 0.6263 0.2891 0.6263 0.2891 0.9566 0.4629 0.9566 0.4629 0.6263 0.2891 0.6263 0.2891 0.9566 0.4629 0.9566 0.4629 0.6263 0.2891 0.6263 0.2891 0.9566 0.4629 0.9566 0.4629 0.6263 0.4629 0.9566 0.4629 0.6263 0.2891 0.6263 0.2891 0.9566 " />
															</IndexedTriangleSet>
														</Shape>
													</Group>
												</Transform>
												<Transform DEF="Cube_017_TRANSFORM"
												           translation="-0.225239 -0.295489 -0.475023"
												           scale="1.000000 1.000000 1.000000"
												           rotation="0.000000 1.000000 0.000000 0.000000"
												           >
													<Transform DEF="Cube_017_ifs_TRANSFORM"
													           translation="0.000000 0.000000 0.000000"
													           scale="1.000000 1.000000 1.000000"
													           rotation="0.000000 1.000000 0.000000 0.000000"
													           >
														<Group DEF="group_ME_Cube_022">
															<Shape>
																<Appearance>
																	<Material USE="MA_Glow" />
																</Appearance>
																<IndexedTriangleSet solid="false"
																                    normalPerVertex="true"
																                    index="0 1 2 0 2 3 4 5 6 4 6 7 8 5 9 8 9 10 11 12 13 11 13 3 0 14 13 0 13 15 16 17 18 16 18 19 20 21 22 20 22 23 24 25 26 24 26 27 28 29 30 28 30 31 32 33 34 35 36 37 38 32 34 35 37 39 38 34 35 35 39 38 8 40 41 8 41 42 43 44 30 43 30 23 "
																                    >
																	<Coordinate point="0.280453 -0.336414 0.059243 0.218594 -0.464039 -0.372639 0.370828 -0.079516 -0.508073 0.432687 0.048109 -0.076192 -0.432688 -0.048109 0.076191 -0.494547 -0.175734 -0.355691 0.218594 -0.464039 -0.372639 0.280453 -0.336414 0.059243 -0.342313 0.208789 -0.491126 -0.432688 -0.048109 0.076191 -0.280453 0.336414 -0.059244 0.370828 -0.079516 -0.508073 -0.342313 0.208789 -0.491126 -0.280453 0.336414 -0.059244 0.432687 0.048109 -0.076192 -0.432688 -0.048109 0.076191 0.582319 -0.110624 -0.529173 0.357495 -0.678498 -0.329159 0.164461 -1.076758 -1.676865 0.389285 -0.508883 -1.876879 0.357495 -0.678498 -0.329159 -0.741502 -0.234201 -0.303041 -0.934537 -0.632460 -1.650747 0.164461 -1.076758 -1.676865 -0.741502 -0.234201 -0.303041 -0.516678 0.333673 -0.503056 -0.709713 -0.064586 -1.850761 -0.934537 -0.632460 -1.650747 -0.516678 0.333673 -0.503056 0.582319 -0.110624 -0.529173 0.389285 -0.508883 -1.876879 -0.709713 -0.064586 -1.850761 0.582319 -0.110624 -0.529173 0.370828 -0.079516 -0.508073 0.218594 -0.464039 -0.372639 -0.494547 -0.175734 -0.355691 -0.342313 0.208789 -0.491126 -0.516678 0.333673 -0.503056 0.357495 -0.678498 -0.329159 -0.741502 -0.234201 -0.303041 0.370828 -0.079516 -0.508073 0.582319 -0.110624 -0.529173 -0.516678 0.333673 -0.503056 -0.934537 -0.632460 -1.650747 -0.709713 -0.064586 -1.850761 " />
																	<Normal vector="0.411725 -0.564379 0.715476 0.411725 -0.564379 0.715476 0.508011 0.407392 0.758873 0.815668 0.455885 0.356120 -0.658528 -0.131687 0.740928 -0.658528 -0.131687 0.740928 0.411725 -0.564379 0.715476 0.411725 -0.564379 0.715476 -0.050874 0.633351 0.772179 -0.658528 -0.131687 0.740928 -0.254585 0.888577 0.381542 0.508011 0.407392 0.758873 -0.050874 0.633351 0.772179 -0.254585 0.888577 0.381542 0.815668 0.455885 0.356120 -0.658528 -0.131687 0.740928 0.815668 0.455885 0.356120 0.411725 -0.564379 0.715476 0.254585 -0.888577 -0.381542 0.658528 0.131687 -0.740928 0.411725 -0.564379 0.715476 -0.658528 -0.131687 0.740928 -0.815668 -0.455885 -0.356120 0.254585 -0.888577 -0.381542 -0.658528 -0.131687 0.740928 -0.254585 0.888577 0.381542 -0.411725 0.564379 -0.715476 -0.815668 -0.455885 -0.356120 -0.254585 0.888577 0.381542 0.815668 0.455885 0.356120 0.658528 0.131687 -0.740928 -0.411725 0.564379 -0.715476 0.815668 0.455885 0.356120 0.508011 0.407392 0.758873 0.411725 -0.564379 0.715476 -0.658528 -0.131687 0.740928 -0.050874 0.633351 0.772179 -0.254585 0.888577 0.381542 0.411725 -0.564379 0.715476 -0.658528 -0.131687 0.740928 0.508011 0.407392 0.758873 0.815668 0.455885 0.356120 -0.254585 0.888577 0.381542 -0.815668 -0.455885 -0.356120 -0.411725 0.564379 -0.715476 " />
																	<TextureCoordinate point="0.2891 0.6263 0.2891 0.9566 0.4629 0.9566 0.4629 0.6263 0.2891 0.6263 0.2891 0.9566 0.4629 0.9566 0.4629 0.6263 0.2891 0.6263 0.4629 0.9566 0.4629 0.6263 0.2891 0.6263 0.2891 0.9566 0.4629 0.9566 0.2891 0.9566 0.4629 0.6263 0.2891 0.6263 0.2891 0.9566 0.4629 0.9566 0.4629 0.6263 0.2891 0.6263 0.2891 0.9566 0.4629 0.9566 0.4629 0.6263 0.2891 0.6263 0.2891 0.9566 0.4629 0.9566 0.4629 0.6263 0.2891 0.6263 0.2891 0.9566 0.4629 0.9566 0.4629 0.6263 0.4374 0.9082 0.3760 0.9566 0.3145 0.9082 0.2891 0.7914 0.3145 0.6747 0.3760 0.6263 0.4629 0.7914 0.4374 0.6747 0.2891 0.9566 0.4629 0.9566 0.4629 0.6263 0.2891 0.6263 0.2891 0.9566 " />
																</IndexedTriangleSet>
															</Shape>
														</Group>
													</Transform>
												</Transform>
											</Transform>
										</Transform>
									</Transform>
								</Transform>
							</Transform>
						</Transform>
					</Transform>
				</Transform>
			</Transform>
			<Transform DEF="Cube_018_TRANSFORM"
			           translation="-1.123670 -1.337390 1.012048"
			           scale="1.000000 1.000000 1.000000"
			           rotation="0.000000 1.000000 0.000000 0.000000"
			           >
				<Transform DEF="Cube_018_ifs_TRANSFORM"
				           translation="0.000000 0.000000 0.000000"
				           scale="1.000000 1.000000 1.000000"
				           rotation="0.000000 1.000000 0.000000 0.000000"
				           >
					<Group DEF="group_ME_Cube_023">
						<Shape>
							<Appearance>
								<Material USE="MA_Glow" />
							</Appearance>
							<IndexedTriangleSet solid="false"
							                    normalPerVertex="true"
							                    index="0 1 2 0 2 3 4 5 6 4 6 7 8 9 10 8 10 11 12 13 14 12 14 15 4 16 17 4 17 18 19 20 21 19 21 7 "
							                    >
								<Coordinate point="0.632056 -0.384090 -0.596897 0.660925 -0.058625 -0.596897 0.660925 -0.058625 0.596897 0.632056 -0.384091 0.596897 0.660925 -0.058625 -0.596897 -0.660925 0.058625 -0.596897 -0.660925 0.058625 0.596897 0.660925 -0.058625 0.596897 -0.660925 0.058625 -0.596897 -0.689794 -0.266840 -0.596897 -0.689794 -0.266840 0.596897 -0.660925 0.058625 0.596897 -0.689794 -0.266840 -0.596897 0.632056 -0.384090 -0.596897 0.632056 -0.384091 0.596897 -0.689794 -0.266840 0.596897 0.632056 -0.384090 -0.596897 -0.689794 -0.266840 -0.596897 -0.660925 0.058625 -0.596897 -0.660925 0.058625 0.596897 -0.689794 -0.266840 0.596897 0.632056 -0.384091 0.596897 " />
								<Normal vector="0.524064 -0.626087 -0.577349 0.626087 0.524064 -0.577349 0.626087 0.524064 0.577349 0.524064 -0.626087 0.577349 0.626087 0.524064 -0.577349 -0.524064 0.626087 -0.577349 -0.524064 0.626087 0.577349 0.626087 0.524064 0.577349 -0.524064 0.626087 -0.577349 -0.626087 -0.524064 -0.577349 -0.626087 -0.524064 0.577349 -0.524064 0.626087 0.577349 -0.626087 -0.524064 -0.577349 0.524064 -0.626087 -0.577349 0.524064 -0.626087 0.577349 -0.626087 -0.524064 0.577349 0.524064 -0.626087 -0.577349 -0.626087 -0.524064 -0.577349 -0.524064 0.626087 -0.577349 -0.524064 0.626087 0.577349 -0.626087 -0.524064 0.577349 0.524064 -0.626087 0.577349 " />
								<TextureCoordinate point="0.2891 0.6201 0.2891 0.9504 0.4629 0.9504 0.4629 0.6201 0.2891 0.6201 0.2891 0.9504 0.4629 0.9504 0.4629 0.6201 0.2891 0.6201 0.2891 0.9504 0.4629 0.9504 0.4629 0.6201 0.5161 0.0691 0.5161 0.9414 0.9751 0.9414 0.9751 0.0691 0.2891 0.9504 0.4629 0.9504 0.4629 0.6201 0.2891 0.6201 0.2891 0.9504 0.4629 0.9504 " />
							</IndexedTriangleSet>
						</Shape>
					</Group>
				</Transform>
			</Transform>
			<Transform DEF="arm2_TRANSFORM"
			           translation="-1.673370 -0.043963 0.441573"
			           scale="1.000000 1.000000 1.000000"
			           rotation="0.000000 1.000000 0.000000 0.000000"
			           >
				<Transform DEF="arm2_ifs_TRANSFORM"
				           translation="0.000000 0.000000 0.000000"
				           scale="1.000000 1.000000 1.000000"
				           rotation="0.000000 1.000000 0.000000 0.000000"
				           >
					<Group DEF="group_ME_arm2">
						<Shape>
							<Appearance>
								<Material USE="MA_Body" />
							</Appearance>
							<IndexedTriangleSet solid="false"
							                    normalPerVertex="true"
							                    index="0 1 2 0 2 3 4 5 6 4 6 7 8 9 10 8 10 11 12 13 14 12 14 15 4 13 16 4 16 17 18 19 14 18 14 7 "
							                    >
								<Coordinate point="-0.024892 -0.519645 -0.022256 0.025242 0.518373 -0.042401 0.024892 0.519645 0.022256 -0.025242 -0.518373 0.042401 0.025242 0.518373 -0.042401 -1.629564 0.598092 -0.052914 -1.629913 0.599363 0.011743 0.024892 0.519645 0.022256 -1.629564 0.598092 -0.052914 -1.679697 -0.439926 -0.032769 -1.680047 -0.438654 0.031888 -1.629913 0.599363 0.011743 -1.679697 -0.439926 -0.032769 -0.024892 -0.519645 -0.022256 -0.025242 -0.518373 0.042401 -1.680047 -0.438654 0.031888 -1.679697 -0.439926 -0.032769 -1.629564 0.598092 -0.052914 -1.629913 0.599363 0.011743 -1.680047 -0.438654 0.031888 " />
								<Normal vector="0.551927 -0.615680 -0.562365 0.607624 0.537431 -0.584735 0.601367 0.560137 0.569689 0.545701 -0.592975 0.592059 0.607624 0.537431 -0.584735 -0.545701 0.592975 -0.592059 -0.551927 0.615680 0.562365 0.601367 0.560137 0.569689 -0.545701 0.592975 -0.592059 -0.601367 -0.560137 -0.569689 -0.607624 -0.537431 0.584735 -0.551927 0.615680 0.562365 -0.601367 -0.560137 -0.569689 0.551927 -0.615680 -0.562365 0.545701 -0.592975 0.592059 -0.607624 -0.537431 0.584735 -0.601367 -0.560137 -0.569689 -0.545701 0.592975 -0.592059 -0.551927 0.615680 0.562365 -0.607624 -0.537431 0.584735 " />
								<TextureCoordinate point="0.2953 0.0533 0.2953 0.4878 0.4691 0.4878 0.4691 0.0533 0.2953 0.0533 0.2953 0.4878 0.4691 0.4878 0.4691 0.0533 0.2953 0.0533 0.2953 0.4878 0.4691 0.4878 0.4691 0.0533 0.2953 0.0533 0.2953 0.4878 0.4691 0.4878 0.4691 0.0533 0.4691 0.4878 0.4691 0.0533 0.2953 0.0533 0.2953 0.4878 " />
							</IndexedTriangleSet>
						</Shape>
					</Group>
				</Transform>
			</Transform>
		</Transform>
	</Scene>
</X3D>