<?xml version="1.0" encoding="UTF-8"?>
<!DOCTYPE X3D PUBLIC "ISO//Web3D//DTD X3D 3.0//EN" "http://www.web3d.org/specifications/x3d-3.0.dtd">
<X3D version="3.0" profile="Immersive" xmlns:xsd="http://www.w3.org/2001/XMLSchema-instance" xsd:noNamespaceSchemaLocation="http://www.web3d.org/specifications/x3d-3.0.xsd">
	<head>
		<meta name="filename" content="cubchoo.x3d" />
		<meta name="generator" content="Blender 2.93.18" />
	</head>
	<Scene>
		<NavigationInfo headlight="true"
		                visibilityLimit="0.0"
		                type='"EXAMINE", "ANY"'
		                avatarSize="0.25, 1.75, 0.75"
		                />
		<Background DEF="WO_World"
		            groundColor="0.051 0.051 0.051"
		            skyColor="0.051 0.051 0.051"
		            />
		<Transform DEF="body_TRANSFORM"
		           translation="0.000000 -0.028711 0.743563"
		           scale="1.000000 1.000000 1.000000"
		           rotation="0.000000 0.000000 1.000000 3.141593"
		           >
			<Transform DEF="body_ifs_TRANSFORM"
			           translation="0.000000 0.000000 0.000000"
			           scale="1.000000 1.000000 1.000000"
			           rotation="0.000000 1.000000 0.000000 0.000000"
			           >
				<Group DEF="group_ME_body">
					<Shape>
						<Appearance>
							<Material DEF="MA_Body"
							          diffuseColor="0.800 0.800 0.800"
							          specularColor="0.401 0.401 0.401"
							          emissiveColor="0.000 0.000 0.000"
							          ambientIntensity="0.000"
							          shininess="0.500"
							          transparency="0.0"
							          />
						</Appearance>
						<IndexedTriangleSet solid="false"
						                    normalPerVertex="true"
						                    index="0 1 2 0 2 3 4 5 6 4 6 7 8 9 10 8 10 11 12 13 14 12 14 15 4 16 17 4 17 15 18 5 14 18 14 19 "
						                    >
							<Coordinate point="-0.930695 -0.862179 -0.005501 -0.930695 -0.869306 1.111631 -0.930695 0.855051 1.122633 -0.930695 0.862179 0.005501 -0.930695 0.862179 0.005501 -0.930695 0.855051 1.122633 0.930695 0.855051 1.122633 0.930695 0.862179 0.005501 0.930695 0.862179 0.005501 0.930695 0.855051 1.122633 0.930695 -0.869306 1.111631 0.930695 -0.862179 -0.005501 0.930695 -0.862179 -0.005501 0.930695 -0.869306 1.111631 -0.930695 -0.869306 1.111631 -0.930695 -0.862179 -0.005501 0.930695 0.862179 0.005501 0.930695 -0.862179 -0.005501 0.930695 0.855051 1.122633 0.930695 -0.869306 1.111631 " />
							<Normal vector="-0.577349 -0.573626 -0.581011 -0.577349 -0.581011 0.573626 -0.577349 0.573626 0.581011 -0.577349 0.581011 -0.573626 -0.577349 0.581011 -0.573626 -0.577349 0.573626 0.581011 0.577349 0.573626 0.581011 0.577349 0.581011 -0.573626 0.577349 0.581011 -0.573626 0.577349 0.573626 0.581011 0.577349 -0.581011 0.573626 0.577349 -0.573626 -0.581011 0.577349 -0.573626 -0.581011 0.577349 -0.581011 0.573626 -0.577349 -0.581011 0.573626 -0.577349 -0.573626 -0.581011 0.577349 0.581011 -0.573626 0.577349 -0.573626 -0.581011 0.577349 0.573626 0.581011 0.577349 -0.581011 0.573626 " />
							<TextureCoordinate point="0.0260 0.7343 0.2944 0.7343 0.2944 0.9532 0.0260 0.9532 0.0260 0.7343 0.2944 0.7343 0.2944 0.9532 0.0260 0.9532 0.0260 0.7343 0.2944 0.7343 0.2944 0.9532 0.0260 0.9532 0.0260 0.7343 0.2944 0.7343 0.2944 0.9532 0.0260 0.9532 0.2944 0.7343 0.2944 0.9532 0.0260 0.7343 0.0260 0.9532 " />
						</IndexedTriangleSet>
					</Shape>
				</Group>
			</Transform>
			<Transform DEF="body1_TRANSFORM"
			           translation="0.000000 -0.006229 0.976245"
			           scale="1.000000 1.000000 1.000000"
			           rotation="0.000000 1.000000 0.000000 0.000000"
			           >
				<Transform DEF="body1_ifs_TRANSFORM"
				           translation="0.000000 0.000000 0.000000"
				           scale="1.000000 1.000000 1.000000"
				           rotation="0.000000 1.000000 0.000000 0.000000"
				           >
					<Group DEF="group_ME_body1">
						<Shape>
							<Appearance>
								<Material USE="MA_Body" />
							</Appearance>
							<IndexedTriangleSet solid="false"
							                    normalPerVertex="true"
							                    index="0 1 2 0 2 3 4 5 6 4 6 7 8 9 10 8 10 11 12 13 14 12 14 15 16 17 18 16 18 19 20 21 22 20 22 23 24 25 26 24 26 19 27 8 11 27 11 28 16 29 30 16 30 31 32 0 3 32 3 33 "
							                    >
								<Coordinate point="-0.828125 -0.726244 0.552409 -0.828125 -0.728762 0.947191 -0.828125 0.716617 0.956413 -0.828125 0.719136 0.561631 -0.828125 0.719136 0.561631 -0.828125 0.716617 0.956413 0.828125 0.716617 0.956413 0.828125 0.719136 0.561631 0.828125 0.719136 0.561631 0.828125 0.716617 0.956413 0.828125 -0.728762 0.947191 0.828125 -0.726244 0.552409 0.828125 -0.726244 0.552409 0.828125 -0.728762 0.947191 -0.828125 -0.728762 0.947191 -0.828125 -0.726244 0.552409 -0.828125 0.722690 0.004611 0.828125 0.722690 0.004611 0.828125 -0.722690 -0.004611 -0.828125 -0.722690 -0.004611 0.828125 0.716617 0.956413 -0.828125 0.716617 0.956413 -0.828125 -0.728762 0.947191 0.828125 -0.728762 0.947191 0.828125 -0.722690 -0.004611 0.828125 -0.726244 0.552409 -0.828125 -0.726244 0.552409 0.828125 0.722690 0.004611 0.828125 -0.722690 -0.004611 -0.828125 0.719136 0.561631 0.828125 0.719136 0.561631 0.828125 0.722690 0.004611 -0.828125 -0.722690 -0.004611 -0.828125 0.722690 0.004611 " />
								<Normal vector="-0.707083 -0.707083 -0.004486 -0.577349 -0.581011 0.573626 -0.577349 0.573626 0.581011 -0.707083 0.707083 0.004486 -0.707083 0.707083 0.004486 -0.577349 0.573626 0.581011 0.577349 0.573626 0.581011 0.707083 0.707083 0.004486 0.707083 0.707083 0.004486 0.577349 0.573626 0.581011 0.577349 -0.581011 0.573626 0.707083 -0.707083 -0.004486 0.707083 -0.707083 -0.004486 0.577349 -0.581011 0.573626 -0.577349 -0.581011 0.573626 -0.707083 -0.707083 -0.004486 -0.577349 0.581011 -0.573626 0.577349 0.581011 -0.573626 0.577349 -0.573626 -0.581011 -0.577349 -0.573626 -0.581011 0.577349 0.573626 0.581011 -0.577349 0.573626 0.581011 -0.577349 -0.581011 0.573626 0.577349 -0.581011 0.573626 0.577349 -0.573626 -0.581011 0.707083 -0.707083 -0.004486 -0.707083 -0.707083 -0.004486 0.577349 0.581011 -0.573626 0.577349 -0.573626 -0.581011 -0.707083 0.707083 0.004486 0.707083 0.707083 0.004486 0.577349 0.581011 -0.573626 -0.577349 -0.573626 -0.581011 -0.577349 0.581011 -0.573626 " />
								<TextureCoordinate point="0.1830 0.7343 0.2944 0.7343 0.2944 0.9532 0.1830 0.9532 0.9911 0.1868 0.9911 0.5651 0.3238 0.5651 0.3238 0.1868 0.1830 0.7343 0.2944 0.7343 0.2944 0.9532 0.1830 0.9532 0.9911 0.1868 0.9911 0.5651 0.3238 0.5651 0.3238 0.1868 0.0260 0.7343 0.2944 0.7343 0.2944 0.9532 0.0260 0.9532 0.0297 0.0517 0.1265 0.0517 0.1265 0.3858 0.0297 0.3858 0.0260 0.7343 0.1830 0.7343 0.1830 0.9532 0.0260 0.7343 0.0260 0.9532 0.1830 0.7343 0.1830 0.9532 0.0260 0.9532 0.0260 0.7343 0.0260 0.9532 " />
							</IndexedTriangleSet>
						</Shape>
					</Group>
				</Transform>
				<Transform DEF="head_TRANSFORM"
				           translation="0.000000 -0.022482 0.927919"
				           scale="1.000000 1.000000 1.000000"
				           rotation="0.000000 1.000000 0.000000 0.000000"
				           >
					<Transform DEF="head_ifs_TRANSFORM"
					           translation="0.000000 0.000000 0.000000"
					           scale="1.000000 1.000000 1.000000"
					           rotation="0.000000 1.000000 0.000000 0.000000"
					           >
						<Group DEF="group_ME_head">
							<Shape>
								<Appearance>
									<Material USE="MA_Body" />
								</Appearance>
								<IndexedTriangleSet solid="false"
								                    normalPerVertex="true"
								                    index="0 1 2 0 2 3 4 5 6 4 6 7 8 9 10 8 10 11 12 13 14 12 14 15 16 17 18 16 18 19 20 21 14 20 14 22 23 24 25 23 25 26 27 20 22 27 22 28 29 30 31 29 31 32 33 16 19 33 19 34 35 36 37 35 37 38 39 40 13 39 13 12 41 21 42 41 42 43 44 45 5 44 5 4 43 42 46 43 46 47 47 46 45 47 45 44 38 37 48 38 48 49 49 48 40 49 40 39 30 50 51 30 51 31 50 33 34 50 34 51 24 52 53 24 53 25 52 27 28 52 28 53 54 55 56 54 56 57 58 59 55 58 55 54 60 61 62 60 62 63 64 65 61 64 61 60 63 62 66 63 66 67 29 68 65 29 65 64 57 56 69 57 69 70 71 72 59 71 59 58 70 69 73 70 73 32 74 75 76 74 76 77 67 66 78 67 78 79 80 81 82 80 82 83 55 49 39 55 39 56 61 47 44 61 44 62 65 43 47 65 47 61 62 44 4 62 4 66 68 41 43 68 43 65 72 35 38 72 38 59 69 12 15 69 15 73 75 8 11 75 11 76 66 4 7 66 7 78 81 0 3 81 3 82 "
								                    >
									<Coordinate point="-1.386421 -1.208494 1.510926 -1.386421 -1.208494 1.897742 -1.386421 1.208494 1.897742 -1.386421 1.208494 1.510926 1.140299 1.208494 1.510926 1.140299 1.208494 1.897742 1.386421 1.208494 1.897742 1.386421 1.208494 1.510926 1.386421 1.208494 1.510926 1.386421 1.208494 1.897742 1.386421 -1.208494 1.897742 1.386421 -1.208494 1.510926 -1.140299 -1.208494 1.510926 -1.140299 -1.208494 1.897742 -1.386421 -1.208494 1.897742 -1.386421 -1.208494 1.510926 1.140299 1.208494 0.000000 1.386421 1.208494 0.000000 1.386421 -1.208494 0.000000 1.140299 -1.208494 0.000000 -1.140299 1.208494 1.897742 -1.386421 1.208494 1.897742 -1.140299 -1.208494 1.897742 1.386421 1.208494 1.897742 1.140299 1.208494 1.897742 1.140299 -1.208494 1.897742 1.386421 -1.208494 1.897742 -0.631583 1.208494 1.897742 -0.631583 -1.208494 1.897742 -1.386421 1.208494 0.000000 -1.140299 1.208494 0.000000 -1.140299 -1.208494 0.000000 -1.386421 -1.208494 0.000000 0.631583 1.208494 0.000000 0.631583 -1.208494 0.000000 1.386421 -1.208494 1.510926 1.386421 -1.208494 1.897742 1.140299 -1.208494 1.897742 1.140299 -1.208494 1.510926 -0.631583 -1.208494 1.510926 -0.631583 -1.208494 1.897742 -1.386421 1.208494 1.510926 -1.140299 1.208494 1.897742 -1.140299 1.208494 1.510926 0.631583 1.208494 1.510926 0.631583 1.208494 1.897742 -0.631583 1.208494 1.897742 -0.631583 1.208494 1.510926 0.631583 -1.208494 1.897742 0.631583 -1.208494 1.510926 -0.631583 1.208494 0.000000 -0.631583 -1.208494 0.000000 0.631583 1.208494 1.897742 0.631583 -1.208494 1.897742 0.631583 -1.208494 0.000000 0.631583 -1.208494 0.721178 -0.631583 -1.208494 0.721178 -0.631583 -1.208494 0.000000 1.140299 -1.208494 0.000000 1.140299 -1.208494 0.721178 -0.631583 1.208494 0.000000 -0.631583 1.208494 0.721178 0.631583 1.208494 0.721178 0.631583 1.208494 0.000000 -1.140299 1.208494 0.000000 -1.140299 1.208494 0.721178 1.140299 1.208494 0.721178 1.140299 1.208494 0.000000 -1.386421 1.208494 0.721178 -1.140299 -1.208494 0.721178 -1.140299 -1.208494 0.000000 1.386421 -1.208494 0.000000 1.386421 -1.208494 0.721178 -1.386421 -1.208494 0.721178 1.386421 1.208494 0.000000 1.386421 1.208494 0.721178 1.386421 -1.208494 0.721178 1.386421 -1.208494 0.000000 1.386421 1.208494 0.721178 1.386421 1.208494 0.000000 -1.386421 -1.208494 0.000000 -1.386421 -1.208494 0.721178 -1.386421 1.208494 0.721178 -1.386421 1.208494 0.000000 " />
									<Normal vector="-0.707083 -0.707083 0.000000 -0.577349 -0.577349 0.577349 -0.577349 0.577349 0.577349 -0.707083 0.707083 0.000000 0.000000 1.000000 0.000000 0.000000 0.707083 0.707083 0.577349 0.577349 0.577349 0.707083 0.707083 0.000000 0.707083 0.707083 0.000000 0.577349 0.577349 0.577349 0.577349 -0.577349 0.577349 0.707083 -0.707083 0.000000 0.000000 -1.000000 0.000000 0.000000 -0.707083 0.707083 -0.577349 -0.577349 0.577349 -0.707083 -0.707083 0.000000 0.000000 0.707083 -0.707083 0.577349 0.577349 -0.577349 0.577349 -0.577349 -0.577349 0.000000 -0.707083 -0.707083 0.000000 0.707083 0.707083 -0.577349 0.577349 0.577349 0.000000 -0.707083 0.707083 0.577349 0.577349 0.577349 0.000000 0.707083 0.707083 0.000000 -0.707083 0.707083 0.577349 -0.577349 0.577349 0.000000 0.707083 0.707083 0.000000 -0.707083 0.707083 -0.577349 0.577349 -0.577349 0.000000 0.707083 -0.707083 0.000000 -0.707083 -0.707083 -0.577349 -0.577349 -0.577349 0.000000 0.707083 -0.707083 0.000000 -0.707083 -0.707083 0.707083 -0.707083 0.000000 0.577349 -0.577349 0.577349 0.000000 -0.707083 0.707083 0.000000 -1.000000 0.000000 0.000000 -1.000000 0.000000 0.000000 -0.707083 0.707083 -0.707083 0.707083 0.000000 0.000000 0.707083 0.707083 0.000000 1.000000 0.000000 0.000000 1.000000 0.000000 0.000000 0.707083 0.707083 0.000000 0.707083 0.707083 0.000000 1.000000 0.000000 0.000000 -0.707083 0.707083 0.000000 -1.000000 0.000000 0.000000 0.707083 -0.707083 0.000000 -0.707083 -0.707083 0.000000 0.707083 0.707083 0.000000 -0.707083 0.707083 0.000000 -0.707083 -0.707083 0.000000 -1.000000 0.000000 0.000000 -1.000000 0.000000 0.000000 -0.707083 -0.707083 0.000000 -0.707083 -0.707083 0.000000 -1.000000 0.000000 0.000000 0.707083 -0.707083 0.000000 1.000000 0.000000 0.000000 1.000000 0.000000 0.000000 0.707083 -0.707083 0.000000 0.707083 -0.707083 0.000000 1.000000 0.000000 0.000000 1.000000 0.000000 0.000000 0.707083 -0.707083 -0.707083 0.707083 0.000000 0.000000 -1.000000 0.000000 0.000000 -0.707083 -0.707083 0.577349 -0.577349 -0.577349 0.707083 -0.707083 0.000000 -0.707083 -0.707083 0.000000 0.577349 0.577349 -0.577349 0.707083 0.707083 0.000000 0.707083 -0.707083 0.000000 0.577349 -0.577349 -0.577349 0.707083 0.707083 0.000000 0.577349 0.577349 -0.577349 -0.577349 -0.577349 -0.577349 -0.707083 -0.707083 0.000000 -0.707083 0.707083 0.000000 -0.577349 0.577349 -0.577349 " />
									<TextureCoordinate point="0.2359 0.2219 0.2944 0.2219 0.2944 0.3991 0.2359 0.3991 0.2359 0.3400 0.2944 0.3400 0.2944 0.3991 0.2359 0.3991 0.2359 0.2219 0.2944 0.2219 0.2944 0.3991 0.2359 0.3991 0.2359 0.3400 0.2944 0.3400 0.2944 0.3991 0.2359 0.3991 0.2049 0.2219 0.2944 0.2219 0.2944 0.3991 0.2049 0.3991 0.2049 0.2219 0.2944 0.2219 0.2049 0.3991 0.0260 0.2219 0.1154 0.2219 0.1154 0.3991 0.0260 0.3991 0.1751 0.2219 0.1751 0.3991 0.0260 0.2219 0.1154 0.2219 0.1154 0.3991 0.0260 0.3991 0.1751 0.2219 0.1751 0.3991 0.2359 0.2219 0.2944 0.2219 0.2944 0.2810 0.2359 0.2810 0.2359 0.3203 0.2944 0.3203 0.2359 0.2219 0.2944 0.2810 0.2359 0.2810 0.2359 0.3203 0.2944 0.3203 0.2944 0.3006 0.2359 0.3006 0.2944 0.3006 0.2359 0.3006 0.1452 0.2219 0.1452 0.3991 0.1452 0.2219 0.1452 0.3991 0.0260 0.3006 0.1166 0.3006 0.1166 0.3203 0.0260 0.3203 0.0260 0.2810 0.1166 0.2810 0.0260 0.3006 0.1166 0.3006 0.1166 0.3203 0.0260 0.3203 0.0260 0.2810 0.1166 0.2810 0.1166 0.3400 0.0260 0.3400 0.1166 0.2219 0.1166 0.3400 0.0260 0.3400 0.0260 0.2219 0.1166 0.2219 0.1166 0.3991 0.0260 0.2219 0.1166 0.2219 0.1166 0.3991 0.0260 0.3991 0.1166 0.3991 0.0260 0.3991 0.0260 0.2219 0.1166 0.2219 0.1166 0.3991 0.0260 0.3991 " />
								</IndexedTriangleSet>
							</Shape>
							<Shape>
								<Appearance>
									<Material DEF="MA_Face"
									          diffuseColor="0.800 0.800 0.800"
									          specularColor="0.401 0.401 0.401"
									          emissiveColor="0.000 0.000 0.000"
									          ambientIntensity="0.000"
									          shininess="0.500"
									          transparency="0.0"
									          />
								</Appearance>
								<IndexedTriangleSet solid="false"
								                    normalPerVertex="true"
								                    index="0 1 2 0 2 3 4 5 6 4 6 7 "
								                    >
									<Coordinate point="1.140299 -1.208494 0.721178 1.140299 -1.208494 1.510926 0.631583 -1.208494 1.510926 0.631583 -1.208494 0.721178 -0.631583 -1.208494 0.721178 -0.631583 -1.208494 1.510926 -1.140299 -1.208494 1.510926 -1.140299 -1.208494 0.721178 " />
									<Normal vector="0.000000 -1.000000 0.000000 0.000000 -1.000000 0.000000 0.000000 -1.000000 0.000000 0.000000 -1.000000 0.000000 0.000000 -1.000000 0.000000 0.000000 -1.000000 0.000000 0.000000 -1.000000 0.000000 0.000000 -1.000000 0.000000 " />
									<TextureCoordinate point="0.4217 0.5163 0.4217 0.9832 0.0789 0.9832 0.0789 0.5163 0.4217 0.5163 0.4217 0.9832 0.0789 0.9832 0.0789 0.5163 " />
								</IndexedTriangleSet>
							</Shape>
						</Group>
					</Transform>
					<Transform DEF="Cube_004_TRANSFORM"
					           translation="0.000000 0.000000 1.772727"
					           scale="1.000000 1.000000 1.000000"
					           rotation="0.000000 1.000000 0.000000 0.000000"
					           >
						<Transform DEF="Cube_004_ifs_TRANSFORM"
						           translation="0.000000 0.000000 0.000000"
						           scale="1.000000 1.000000 1.000000"
						           rotation="0.000000 1.000000 0.000000 0.000000"
						           >
							<Group DEF="group_ME_Cube_004">
								<Shape>
									<Appearance>
										<Material USE="MA_Body" />
									</Appearance>
									<IndexedTriangleSet solid="false"
									                    normalPerVertex="true"
									                    index="0 1 2 0 2 3 4 5 6 4 6 7 8 9 10 8 10 11 12 13 14 12 14 15 4 16 17 4 17 15 18 5 14 18 14 19 "
									                    >
										<Coordinate point="-0.974590 -0.951733 0.000000 -0.974590 -0.951733 0.805854 -0.974590 0.951733 0.805854 -0.974590 0.951733 -0.000000 -0.974590 0.951733 -0.000000 -0.974590 0.951733 0.805854 0.974590 0.951733 0.805854 0.974590 0.951733 -0.000000 0.974590 0.951733 -0.000000 0.974590 0.951733 0.805854 0.974590 -0.951733 0.805854 0.974590 -0.951733 0.000000 0.974590 -0.951733 0.000000 0.974590 -0.951733 0.805854 -0.974590 -0.951733 0.805854 -0.974590 -0.951733 0.000000 0.974590 0.951733 -0.000000 0.974590 -0.951733 0.000000 0.974590 0.951733 0.805854 0.974590 -0.951733 0.805854 " />
										<Normal vector="-0.577349 -0.577349 -0.577349 -0.577349 -0.577349 0.577349 -0.577349 0.577349 0.577349 -0.577349 0.577349 -0.577349 -0.577349 0.577349 -0.577349 -0.577349 0.577349 0.577349 0.577349 0.577349 0.577349 0.577349 0.577349 -0.577349 0.577349 0.577349 -0.577349 0.577349 0.577349 0.577349 0.577349 -0.577349 0.577349 0.577349 -0.577349 -0.577349 0.577349 -0.577349 -0.577349 0.577349 -0.577349 0.577349 -0.577349 -0.577349 0.577349 -0.577349 -0.577349 -0.577349 0.577349 0.577349 -0.577349 0.577349 -0.577349 -0.577349 0.577349 0.577349 0.577349 0.577349 -0.577349 0.577349 " />
										<TextureCoordinate point="0.0260 0.2219 0.2944 0.2219 0.2944 0.3991 0.0260 0.3991 0.0260 0.2219 0.2944 0.2219 0.2944 0.3991 0.0260 0.3991 0.0260 0.2219 0.2944 0.2219 0.2944 0.3991 0.0260 0.3991 0.0260 0.2219 0.2944 0.2219 0.2944 0.3991 0.0260 0.3991 0.2944 0.2219 0.2944 0.3991 0.0260 0.2219 0.0260 0.3991 " />
									</IndexedTriangleSet>
								</Shape>
							</Group>
						</Transform>
					</Transform>
					<Transform DEF="orl1_TRANSFORM"
					           translation="0.905265 0.030682 1.504593"
					           scale="1.000000 1.000000 1.000000"
					           rotation="0.000000 1.000000 0.000000 0.000000"
					           >
						<Transform DEF="orl1_ifs_TRANSFORM"
						           translation="0.000000 0.000000 0.000000"
						           scale="1.000000 1.000000 1.000000"
						           rotation="0.000000 1.000000 0.000000 0.000000"
						           >
							<Group DEF="group_ME_orl1">
								<Shape>
									<Appearance>
										<Material USE="MA_Body" />
									</Appearance>
									<IndexedTriangleSet solid="false"
									                    normalPerVertex="true"
									                    index="0 1 2 0 2 3 4 5 6 4 6 7 8 9 10 8 10 11 12 13 14 12 14 15 4 16 17 4 17 15 18 5 14 18 14 19 "
									                    >
										<Coordinate point="0.232521 -0.364027 -0.680580 -0.232521 -0.364027 0.680580 -0.232521 0.364027 0.680580 0.232521 0.364027 -0.680580 0.232521 0.364027 -0.680580 -0.232521 0.364027 0.680580 0.984759 0.364027 1.096466 1.449802 0.364027 -0.264694 1.449802 0.364027 -0.264694 0.984759 0.364027 1.096466 0.984759 -0.364027 1.096466 1.449802 -0.364027 -0.264694 1.449802 -0.364027 -0.264694 0.984759 -0.364027 1.096466 -0.232521 -0.364027 0.680580 0.232521 -0.364027 -0.680580 1.449802 0.364027 -0.264694 1.449802 -0.364027 -0.264694 0.984759 0.364027 1.096466 0.984759 -0.364027 1.096466 " />
										<Normal vector="-0.359661 -0.577349 -0.732994 -0.732994 -0.577349 0.359661 -0.732994 0.577349 0.359661 -0.359661 0.577349 -0.732994 -0.359661 0.577349 -0.732994 -0.732994 0.577349 0.359661 0.359661 0.577349 0.732994 0.732994 0.577349 -0.359661 0.732994 0.577349 -0.359661 0.359661 0.577349 0.732994 0.359661 -0.577349 0.732994 0.732994 -0.577349 -0.359661 0.732994 -0.577349 -0.359661 0.359661 -0.577349 0.732994 -0.732994 -0.577349 0.359661 -0.359661 -0.577349 -0.732994 0.732994 0.577349 -0.359661 0.732994 -0.577349 -0.359661 0.359661 0.577349 0.732994 0.359661 -0.577349 0.732994 " />
										<TextureCoordinate point="0.0260 0.2219 0.2944 0.2219 0.2944 0.3991 0.0260 0.3991 0.0260 0.2219 0.2944 0.2219 0.2944 0.3991 0.0260 0.3991 0.0260 0.2219 0.2944 0.2219 0.2944 0.3991 0.0260 0.3991 0.0260 0.2219 0.2944 0.2219 0.2944 0.3991 0.0260 0.3991 0.2944 0.2219 0.2944 0.3991 0.0260 0.2219 0.0260 0.3991 " />
									</IndexedTriangleSet>
								</Shape>
							</Group>
						</Transform>
					</Transform>
					<Transform DEF="Cube_006_TRANSFORM"
					           translation="0.000000 -1.125000 1.034091"
					           scale="1.000000 1.000000 1.000000"
					           rotation="0.000000 1.000000 0.000000 0.000000"
					           >
						<Transform DEF="Cube_006_ifs_TRANSFORM"
						           translation="0.000000 0.000000 0.000000"
						           scale="1.000000 1.000000 1.000000"
						           rotation="0.000000 1.000000 0.000000 0.000000"
						           >
							<Group DEF="group_ME_Cube_006">
								<Shape>
									<Appearance>
										<Material USE="MA_Body" />
									</Appearance>
									<IndexedTriangleSet solid="false"
									                    normalPerVertex="true"
									                    index="0 1 2 0 2 3 4 5 6 4 6 7 8 9 10 8 10 11 12 13 14 12 14 15 4 16 17 4 17 15 18 5 14 18 14 19 20 21 22 20 22 23 24 25 26 24 26 27 28 29 30 28 30 31 32 33 34 32 34 35 36 37 38 36 38 39 40 41 34 40 34 42 43 44 45 43 45 46 46 45 41 46 41 40 47 48 49 47 49 50 50 49 37 50 37 36 51 52 53 51 53 54 54 53 29 54 29 28 55 56 57 55 57 58 58 57 21 58 21 20 59 60 61 59 61 62 63 64 60 63 60 59 64 47 50 64 50 60 65 66 67 65 67 68 66 46 40 66 40 67 69 70 66 69 66 65 70 43 46 70 46 66 68 67 71 68 71 72 67 40 42 67 42 71 62 61 73 62 73 35 61 36 39 61 39 73 74 75 76 74 76 77 77 76 33 77 33 32 63 44 78 63 78 79 79 78 25 79 25 24 "
									                    >
										<Coordinate point="-0.611740 -0.575334 -0.636182 -0.611740 -0.575334 0.636182 -0.611740 0.000000 0.636182 -0.611740 -0.000000 -0.636182 -0.611740 -0.000000 -0.636182 -0.611740 0.000000 0.636182 0.611740 0.000000 0.636182 0.611740 -0.000000 -0.636182 0.611740 -0.000000 -0.636182 0.611740 0.000000 0.636182 0.611740 -0.575334 0.636182 0.611740 -0.575334 -0.636182 0.611740 -0.575334 -0.636182 0.611740 -0.575334 0.636182 -0.611740 -0.575334 0.636182 -0.611740 -0.575334 -0.636182 0.611740 -0.000000 -0.636182 0.611740 -0.575334 -0.636182 0.611740 0.000000 0.636182 0.611740 -0.575334 0.636182 -0.479089 -0.076627 -0.765316 -0.479089 0.008857 -0.546577 -0.479089 0.115257 -0.622911 -0.479089 -0.017395 -0.807811 0.256117 -0.017395 -0.807811 0.256117 0.115257 -0.622911 0.479089 0.115257 -0.622911 0.479089 -0.017395 -0.807811 0.479089 -0.279623 -0.619683 0.479089 -0.097543 -0.470243 0.479089 -0.203943 -0.393909 0.479089 -0.336595 -0.578809 -0.256117 -0.336595 -0.578809 -0.256117 -0.203943 -0.393909 -0.479089 -0.203943 -0.393909 -0.479089 -0.336595 -0.578809 0.256117 -0.279623 -0.619683 0.479089 -0.279623 -0.619683 0.479089 -0.336595 -0.578809 0.256117 -0.336595 -0.578809 -0.256117 -0.097543 -0.470243 -0.479089 -0.097543 -0.470243 -0.256117 -0.203943 -0.393909 -0.256117 0.115257 -0.622911 -0.479089 0.115257 -0.622911 -0.479089 0.008857 -0.546577 -0.256117 0.008857 -0.546577 0.256117 -0.017395 -0.807811 0.479089 -0.017395 -0.807811 0.479089 -0.076627 -0.765316 0.256117 -0.076627 -0.765316 0.479089 -0.017395 -0.807811 0.479089 0.115257 -0.622911 0.479089 0.008857 -0.546577 0.479089 -0.076627 -0.765316 -0.479089 -0.336595 -0.578809 -0.479089 -0.203943 -0.393909 -0.479089 -0.097543 -0.470243 -0.479089 -0.279623 -0.619683 -0.479089 -0.076627 -0.765316 -0.256117 -0.076627 -0.765316 -0.256117 -0.279623 -0.619683 -0.479089 -0.279623 -0.619683 -0.479089 -0.017395 -0.807811 -0.256117 -0.017395 -0.807811 0.479089 0.008857 -0.546577 0.256117 0.008857 -0.546577 0.256117 -0.097543 -0.470243 0.479089 -0.097543 -0.470243 0.479089 0.115257 -0.622911 0.256117 0.115257 -0.622911 0.256117 -0.203943 -0.393909 0.479089 -0.203943 -0.393909 -0.256117 -0.336595 -0.578809 0.479089 -0.336595 -0.578809 0.479089 -0.203943 -0.393909 0.256117 -0.203943 -0.393909 0.256117 -0.336595 -0.578809 -0.256117 0.115257 -0.622911 -0.256117 -0.017395 -0.807811 " />
										<Normal vector="-0.577349 -0.577349 -0.577349 -0.577349 -0.577349 0.577349 -0.577349 0.577349 0.577349 -0.577349 0.577349 -0.577349 -0.577349 0.577349 -0.577349 -0.577349 0.577349 0.577349 0.577349 0.577349 0.577349 0.577349 0.577349 -0.577349 0.577349 0.577349 -0.577349 0.577349 0.577349 0.577349 0.577349 -0.577349 0.577349 0.577349 -0.577349 -0.577349 0.577349 -0.577349 -0.577349 0.577349 -0.577349 0.577349 -0.577349 -0.577349 0.577349 -0.577349 -0.577349 -0.577349 0.577349 0.577349 -0.577349 0.577349 -0.577349 -0.577349 0.577349 0.577349 0.577349 0.577349 -0.577349 0.577349 -0.707083 -0.412183 -0.574541 -0.707083 0.412183 0.574541 -0.577349 0.805658 0.132542 -0.577349 0.132542 -0.805658 0.000000 0.162328 -0.986724 0.000000 0.986724 0.162328 0.577349 0.805658 0.132542 0.577349 0.132542 -0.805658 0.707083 -0.412183 -0.574541 0.707083 0.412183 0.574541 0.577349 -0.132542 0.805658 0.577349 -0.805658 -0.132542 0.000000 -0.986724 -0.162328 0.000000 -0.162328 0.986724 -0.577349 -0.132542 0.805658 -0.577349 -0.805658 -0.132542 0.000000 -0.582904 -0.812494 0.707083 -0.412183 -0.574541 0.577349 -0.805658 -0.132542 0.000000 -0.986724 -0.162328 0.000000 0.582904 0.812525 -0.707083 0.412183 0.574541 0.000000 -0.162328 0.986724 0.000000 0.986724 0.162328 -0.577349 0.805658 0.132542 -0.707083 0.412183 0.574541 0.000000 0.582904 0.812525 0.000000 0.162328 -0.986724 0.577349 0.132542 -0.805658 0.707083 -0.412183 -0.574541 0.000000 -0.582904 -0.812525 0.577349 0.132542 -0.805658 0.577349 0.805658 0.132542 0.707083 0.412183 0.574541 0.707083 -0.412183 -0.574541 -0.577349 -0.805658 -0.132542 -0.577349 -0.132542 0.805658 -0.707083 0.412183 0.574541 -0.707083 -0.412183 -0.574541 -0.707083 -0.412183 -0.574541 0.000000 -0.582904 -0.812525 0.000000 -0.582904 -0.812494 -0.707083 -0.412183 -0.574541 -0.577349 0.132542 -0.805658 0.000000 0.162328 -0.986724 0.707083 0.412183 0.574541 0.000000 0.582904 0.812525 0.000000 0.582904 0.812525 0.707083 0.412183 0.574541 0.577349 0.805658 0.132542 0.000000 0.986724 0.162328 0.000000 -0.162328 0.986724 0.577349 -0.132542 0.805658 0.000000 -0.986724 -0.162328 0.577349 -0.805658 -0.132542 0.577349 -0.132542 0.805658 0.000000 -0.162328 0.986724 0.000000 -0.986724 -0.162328 0.000000 0.986724 0.162328 0.000000 0.162328 -0.986724 " />
										<TextureCoordinate point="0.1677 0.4645 0.2953 0.4645 0.2953 0.6526 0.1677 0.6526 0.1677 0.4645 0.2953 0.4645 0.2953 0.6526 0.1677 0.6526 0.1677 0.4645 0.2953 0.4645 0.2953 0.6526 0.1677 0.6526 0.1677 0.4645 0.2953 0.4645 0.2953 0.6526 0.1677 0.6526 0.2953 0.4645 0.2953 0.6526 0.1677 0.4645 0.1677 0.6526 0.1677 0.5899 0.2953 0.5899 0.2953 0.6526 0.1677 0.6526 0.1677 0.5899 0.2953 0.5899 0.2953 0.6526 0.1677 0.6526 0.1677 0.5899 0.2953 0.5899 0.2953 0.6526 0.1677 0.6526 0.1677 0.5899 0.2953 0.5899 0.2953 0.6526 0.1677 0.6526 0.2527 0.5899 0.2953 0.5899 0.2953 0.6526 0.2527 0.6526 0.2527 0.5899 0.2953 0.5899 0.2527 0.6526 0.2527 0.4645 0.2953 0.4645 0.2953 0.5272 0.2527 0.5272 0.2527 0.4645 0.2953 0.4645 0.2953 0.5272 0.2527 0.5272 0.1677 0.4645 0.2953 0.4645 0.2953 0.5272 0.1677 0.5272 0.1677 0.4645 0.2953 0.4645 0.2953 0.5272 0.1677 0.5272 0.1677 0.5272 0.2102 0.5272 0.2102 0.5899 0.1677 0.5899 0.1677 0.4645 0.2102 0.4645 0.1677 0.5272 0.2102 0.5272 0.2102 0.5899 0.1677 0.5899 0.1677 0.4645 0.2102 0.4645 0.2102 0.6526 0.1677 0.6526 0.2102 0.6526 0.1677 0.4645 0.2953 0.4645 0.2953 0.5272 0.1677 0.5272 0.2953 0.5272 0.1677 0.5272 " />
									</IndexedTriangleSet>
								</Shape>
								<Shape>
									<Appearance>
										<Material USE="MA_Face" />
									</Appearance>
									<IndexedTriangleSet solid="false"
									                    normalPerVertex="true"
									                    index="0 1 2 0 2 3 "
									                    >
										<Coordinate point="-0.256117 -0.076627 -0.765316 0.256117 -0.076627 -0.765316 0.256117 -0.279623 -0.619683 -0.256117 -0.279623 -0.619683 " />
										<Normal vector="0.000000 -0.582904 -0.812525 0.000000 -0.582904 -0.812525 0.000000 -0.582904 -0.812494 0.000000 -0.582904 -0.812494 " />
										<TextureCoordinate point="0.5439 0.5140 0.9484 0.5140 0.9484 0.9875 0.5439 0.9875 " />
									</IndexedTriangleSet>
								</Shape>
							</Group>
						</Transform>
						<Transform DEF="Cube_007_TRANSFORM"
						           translation="0.000000 -0.498737 0.071023"
						           scale="1.000000 1.000000 1.000000"
						           rotation="0.000000 1.000000 0.000000 0.000000"
						           >
							<Transform DEF="Cube_007_ifs_TRANSFORM"
							           translation="0.000000 0.000000 0.000000"
							           scale="1.000000 1.000000 1.000000"
							           rotation="0.000000 1.000000 0.000000 0.000000"
							           >
								<Group DEF="group_ME_Cube_007">
									<Shape>
										<Appearance>
											<Material USE="MA_Body" />
										</Appearance>
										<IndexedTriangleSet solid="false"
										                    normalPerVertex="true"
										                    index="0 1 2 0 2 3 4 5 6 4 6 7 8 9 10 8 10 11 12 13 14 12 14 15 4 16 17 4 17 15 18 5 14 18 14 19 "
										                    >
											<Coordinate point="-0.363631 -0.201805 -0.222034 -0.363631 -0.218556 0.205567 -0.363631 -0.008375 0.213801 -0.363631 0.008375 -0.213801 -0.363631 0.008375 -0.213801 -0.363631 -0.008375 0.213801 0.363631 -0.008375 0.213801 0.363631 0.008375 -0.213801 0.363631 0.008375 -0.213801 0.363631 -0.008375 0.213801 0.363631 -0.218556 0.205567 0.363631 -0.201805 -0.222034 0.363631 -0.201805 -0.222034 0.363631 -0.218556 0.205567 -0.363631 -0.218556 0.205567 -0.363631 -0.201805 -0.222034 0.363631 0.008375 -0.213801 0.363631 -0.201805 -0.222034 0.363631 -0.008375 0.213801 0.363631 -0.218556 0.205567 " />
											<Normal vector="-0.577349 -0.554308 -0.599506 -0.577349 -0.599506 0.554308 -0.577349 0.554308 0.599506 -0.577349 0.599506 -0.554308 -0.577349 0.599506 -0.554308 -0.577349 0.554308 0.599506 0.577349 0.554308 0.599506 0.577349 0.599506 -0.554308 0.577349 0.599506 -0.554308 0.577349 0.554308 0.599506 0.577349 -0.599506 0.554308 0.577349 -0.554308 -0.599506 0.577349 -0.554308 -0.599506 0.577349 -0.599506 0.554308 -0.577349 -0.599506 0.554308 -0.577349 -0.554308 -0.599506 0.577349 0.599506 -0.554308 0.577349 -0.554308 -0.599506 0.577349 0.554308 0.599506 0.577349 -0.599506 0.554308 " />
											<TextureCoordinate point="0.0182 0.4784 0.1341 0.4784 0.1341 0.6544 0.0182 0.6544 0.0182 0.4784 0.1341 0.4784 0.1341 0.6544 0.0182 0.6544 0.0182 0.4784 0.1341 0.4784 0.1341 0.6544 0.0182 0.6544 0.0182 0.4784 0.1341 0.4784 0.1341 0.6544 0.0182 0.6544 0.1341 0.4784 0.1341 0.6544 0.0182 0.4784 0.0182 0.6544 " />
										</IndexedTriangleSet>
									</Shape>
								</Group>
							</Transform>
						</Transform>
					</Transform>
					<Transform DEF="g1_TRANSFORM"
					           translation="0.000000 -1.728000 0.906455"
					           scale="1.000000 1.000000 1.000000"
					           rotation="0.000000 1.000000 0.000000 0.000000"
					           >
						<Transform DEF="g1_ifs_TRANSFORM"
						           translation="0.000000 0.000000 0.000000"
						           scale="1.000000 1.000000 1.000000"
						           rotation="0.000000 1.000000 0.000000 0.000000"
						           >
							<Group DEF="group_ME_g1">
								<Shape>
									<Appearance>
										<Material USE="MA_Body" />
									</Appearance>
									<IndexedTriangleSet solid="false"
									                    normalPerVertex="true"
									                    index="0 1 2 0 2 3 4 5 6 4 6 7 8 9 10 8 10 11 12 13 14 12 14 15 4 16 17 4 17 15 18 5 14 18 14 19 "
									                    >
										<Coordinate point="-0.079848 -0.073300 -0.317047 -0.079848 -0.071518 0.000401 -0.079848 0.071518 -0.000401 -0.079848 0.069737 -0.317849 -0.079848 0.069737 -0.317849 -0.079848 0.071518 -0.000401 0.079848 0.071518 -0.000401 0.079848 0.069737 -0.317849 0.079848 0.069737 -0.317849 0.079848 0.071518 -0.000401 0.079848 -0.071518 0.000401 0.079848 -0.073300 -0.317047 0.079848 -0.073300 -0.317047 0.079848 -0.071518 0.000401 -0.079848 -0.071518 0.000401 -0.079848 -0.073300 -0.317047 0.079848 0.069737 -0.317849 0.079848 -0.073300 -0.317047 0.079848 0.071518 -0.000401 0.079848 -0.071518 0.000401 " />
										<Normal vector="-0.577349 -0.580554 -0.574084 -0.577349 -0.574084 0.580554 -0.577349 0.580554 0.574084 -0.577349 0.574084 -0.580554 -0.577349 0.574084 -0.580554 -0.577349 0.580554 0.574084 0.577349 0.580554 0.574084 0.577349 0.574084 -0.580554 0.577349 0.574084 -0.580554 0.577349 0.580554 0.574084 0.577349 -0.574084 0.580554 0.577349 -0.580554 -0.574084 0.577349 -0.580554 -0.574084 0.577349 -0.574084 0.580554 -0.577349 -0.574084 0.580554 -0.577349 -0.580554 -0.574084 0.577349 0.574084 -0.580554 0.577349 -0.580554 -0.574084 0.577349 0.580554 0.574084 0.577349 -0.574084 0.580554 " />
										<TextureCoordinate point="0.1451 0.0277 0.1451 0.1547 0.0173 0.1547 0.0173 0.0277 0.1451 0.0277 0.1451 0.1547 0.0173 0.1547 0.0173 0.0277 0.1451 0.0277 0.1451 0.1547 0.0173 0.1547 0.0173 0.0277 0.1451 0.0277 0.1451 0.1547 0.0173 0.1547 0.0173 0.0277 0.1451 0.1547 0.0173 0.1547 0.1451 0.0277 0.0173 0.0277 " />
									</IndexedTriangleSet>
								</Shape>
							</Group>
						</Transform>
						<Transform DEF="Cube_009_TRANSFORM"
						           translation="0.000000 -0.001561 -0.278189"
						           scale="1.000000 1.000000 1.000000"
						           rotation="0.000000 1.000000 0.000000 0.000000"
						           >
							<Transform DEF="Cube_009_ifs_TRANSFORM"
							           translation="0.000000 0.000000 0.000000"
							           scale="1.000000 1.000000 1.000000"
							           rotation="0.000000 1.000000 0.000000 0.000000"
							           >
								<Group DEF="group_ME_Cube_009">
									<Shape>
										<Appearance>
											<Material USE="MA_Body" />
										</Appearance>
										<IndexedTriangleSet solid="false"
										                    normalPerVertex="true"
										                    index="0 1 2 0 2 3 4 5 6 4 6 7 8 9 10 8 10 11 12 13 14 12 14 15 4 16 17 4 17 15 18 5 14 18 14 19 "
										                    >
											<Coordinate point="-0.113182 -0.114082 -0.517515 -0.113182 -0.121614 -0.001776 -0.113182 0.121614 0.001776 -0.113182 0.129146 -0.513963 -0.113182 0.129146 -0.513963 -0.113182 0.121614 0.001776 0.113182 0.121614 0.001776 0.113182 0.129146 -0.513963 0.113182 0.129146 -0.513963 0.113182 0.121614 0.001776 0.113182 -0.121614 -0.001776 0.113182 -0.114082 -0.517515 0.113182 -0.114082 -0.517515 0.113182 -0.121614 -0.001776 -0.113182 -0.121614 -0.001776 -0.113182 -0.114082 -0.517515 0.113182 0.129146 -0.513963 0.113182 -0.114082 -0.517515 0.113182 0.121614 0.001776 0.113182 -0.121614 -0.001776 " />
											<Normal vector="-0.577349 -0.568834 -0.585711 -0.577349 -0.585711 0.568834 -0.577349 0.568834 0.585711 -0.577349 0.585711 -0.568834 -0.577349 0.585711 -0.568834 -0.577349 0.568834 0.585711 0.577349 0.568834 0.585711 0.577349 0.585711 -0.568834 0.577349 0.585711 -0.568834 0.577349 0.568834 0.585711 0.577349 -0.585711 0.568834 0.577349 -0.568834 -0.585711 0.577349 -0.568834 -0.585711 0.577349 -0.585711 0.568834 -0.577349 -0.585711 0.568834 -0.577349 -0.568834 -0.585711 0.577349 0.585711 -0.568834 0.577349 -0.568834 -0.585711 0.577349 0.568834 0.585711 0.577349 -0.585711 0.568834 " />
											<TextureCoordinate point="0.1451 0.0277 0.1451 0.1547 0.0173 0.1547 0.0173 0.0277 0.1451 0.0277 0.1451 0.1547 0.0173 0.1547 0.0173 0.0277 0.1451 0.0277 0.1451 0.1547 0.0173 0.1547 0.0173 0.0277 0.1451 0.0277 0.1451 0.1547 0.0173 0.1547 0.0173 0.0277 0.1451 0.1547 0.0173 0.1547 0.1451 0.0277 0.0173 0.0277 " />
										</IndexedTriangleSet>
									</Shape>
								</Group>
							</Transform>
							<Transform DEF="g2_TRANSFORM"
							           translation="0.000000 0.015185 -0.458929"
							           scale="1.000000 1.000000 1.000000"
							           rotation="0.000000 1.000000 0.000000 0.000000"
							           >
								<Transform DEF="g2_ifs_TRANSFORM"
								           translation="0.000000 0.000000 0.000000"
								           scale="1.000000 1.000000 1.000000"
								           rotation="0.000000 1.000000 0.000000 0.000000"
								           >
									<Group DEF="group_ME_g2">
										<Shape>
											<Appearance>
												<Material USE="MA_Body" />
											</Appearance>
											<IndexedTriangleSet solid="false"
											                    normalPerVertex="true"
											                    index="0 1 2 0 2 3 4 5 6 4 6 7 8 9 10 8 10 11 12 13 14 12 14 15 4 16 17 4 17 15 18 5 14 18 14 19 "
											                    >
												<Coordinate point="-0.206140 -0.178785 -0.479268 -0.206140 -0.207077 -0.012553 -0.206140 0.207077 0.012553 -0.206140 0.235370 -0.454162 -0.206140 0.235370 -0.454162 -0.206140 0.207077 0.012553 0.206140 0.207077 0.012553 0.206140 0.235370 -0.454162 0.206140 0.235370 -0.454162 0.206140 0.207077 0.012553 0.206140 -0.207077 -0.012553 0.206140 -0.178785 -0.479268 0.206140 -0.178785 -0.479268 0.206140 -0.207077 -0.012553 -0.206140 -0.207077 -0.012553 -0.206140 -0.178785 -0.479268 0.206140 0.235370 -0.454162 0.206140 -0.178785 -0.479268 0.206140 0.207077 0.012553 0.206140 -0.207077 -0.012553 " />
												<Normal vector="-0.577349 -0.541337 -0.611225 -0.577349 -0.611225 0.541337 -0.577349 0.541337 0.611225 -0.577349 0.611225 -0.541337 -0.577349 0.611225 -0.541337 -0.577349 0.541337 0.611225 0.577349 0.541337 0.611225 0.577349 0.611225 -0.541337 0.577349 0.611225 -0.541337 0.577349 0.541337 0.611225 0.577349 -0.611225 0.541337 0.577349 -0.541337 -0.611225 0.577349 -0.541337 -0.611225 0.577349 -0.611225 0.541337 -0.577349 -0.611225 0.541337 -0.577349 -0.541337 -0.611225 0.577349 0.611225 -0.541337 0.577349 -0.541337 -0.611225 0.577349 0.541337 0.611225 0.577349 -0.611225 0.541337 " />
												<TextureCoordinate point="0.1451 0.0277 0.1451 0.1547 0.0173 0.1547 0.0173 0.0277 0.1451 0.0277 0.1451 0.1547 0.0173 0.1547 0.0173 0.0277 0.1451 0.0277 0.1451 0.1547 0.0173 0.1547 0.0173 0.0277 0.1451 0.0277 0.1451 0.1547 0.0173 0.1547 0.0173 0.0277 0.1451 0.1547 0.0173 0.1547 0.1451 0.0277 0.0173 0.0277 " />
											</IndexedTriangleSet>
										</Shape>
									</Group>
								</Transform>
								<Transform DEF="g3_TRANSFORM"
								           translation="0.000000 0.035659 -0.344573"
								           scale="1.000000 1.000000 1.000000"
								           rotation="0.000000 1.000000 0.000000 0.000000"
								           >
									<Transform DEF="g3_ifs_TRANSFORM"
									           translation="0.000000 0.000000 0.000000"
									           scale="1.000000 1.000000 1.000000"
									           rotation="0.000000 1.000000 0.000000 0.000000"
									           >
										<Group DEF="group_ME_g3">
											<Shape>
												<Appearance>
													<Material USE="MA_Body" />
												</Appearance>
												<IndexedTriangleSet solid="false"
												                    normalPerVertex="true"
												                    index="0 1 2 0 2 3 4 5 6 4 6 7 8 9 10 8 10 11 12 13 14 12 14 15 4 16 17 4 17 15 18 5 14 18 14 19 "
												                    >
													<Coordinate point="-0.326604 -0.259640 -0.544524 -0.326604 -0.310538 -0.030765 -0.326604 0.310538 0.030765 -0.326604 0.361436 -0.482995 -0.326604 0.361436 -0.482995 -0.326604 0.310538 0.030765 0.326604 0.310538 0.030765 0.326604 0.361436 -0.482995 0.326604 0.361436 -0.482995 0.326604 0.310538 0.030765 0.326604 -0.310538 -0.030765 0.326604 -0.259640 -0.544524 0.326604 -0.259640 -0.544524 0.326604 -0.310538 -0.030765 -0.326604 -0.310538 -0.030765 -0.326604 -0.259640 -0.544524 0.326604 0.361436 -0.482995 0.326604 -0.259640 -0.544524 0.326604 0.310538 0.030765 0.326604 -0.310538 -0.030765 " />
													<Normal vector="-0.577349 -0.517594 -0.631428 -0.577349 -0.631428 0.517594 -0.577349 0.517594 0.631428 -0.577349 0.631428 -0.517594 -0.577349 0.631428 -0.517594 -0.577349 0.517594 0.631428 0.577349 0.517594 0.631428 0.577349 0.631428 -0.517594 0.577349 0.631428 -0.517594 0.577349 0.517594 0.631428 0.577349 -0.631428 0.517594 0.577349 -0.517594 -0.631428 0.577349 -0.517594 -0.631428 0.577349 -0.631428 0.517594 -0.577349 -0.631428 0.517594 -0.577349 -0.517594 -0.631428 0.577349 0.631428 -0.517594 0.577349 -0.517594 -0.631428 0.577349 0.517594 0.631428 0.577349 -0.631428 0.517594 " />
													<TextureCoordinate point="0.1451 0.0277 0.1451 0.1547 0.0173 0.1547 0.0173 0.0277 0.1451 0.0277 0.1451 0.1547 0.0173 0.1547 0.0173 0.0277 0.1451 0.0277 0.1451 0.1547 0.0173 0.1547 0.0173 0.0277 0.1451 0.0277 0.1451 0.1547 0.0173 0.1547 0.0173 0.0277 0.1451 0.1547 0.0173 0.1547 0.1451 0.0277 0.0173 0.0277 " />
												</IndexedTriangleSet>
											</Shape>
										</Group>
									</Transform>
									<Transform DEF="Cube_012_TRANSFORM"
									           translation="0.000000 0.052242 -0.400218"
									           scale="1.000000 1.000000 1.000000"
									           rotation="0.000000 1.000000 0.000000 0.000000"
									           >
										<Transform DEF="Cube_012_ifs_TRANSFORM"
										           translation="0.000000 0.000000 0.000000"
										           scale="1.000000 1.000000 1.000000"
										           rotation="0.000000 1.000000 0.000000 0.000000"
										           >
											<Group DEF="group_ME_Cube_012">
												<Shape>
													<Appearance>
														<Material USE="MA_Body" />
													</Appearance>
													<IndexedTriangleSet solid="false"
													                    normalPerVertex="true"
													                    index="0 1 2 0 2 3 4 5 6 4 6 7 8 9 10 8 10 11 12 13 14 12 14 15 16 17 18 16 18 19 20 21 22 20 22 23 "
													                    >
														<Coordinate point="-0.452433 -0.284594 -1.066632 -0.452433 -0.445433 -0.072032 -0.452433 0.445433 0.072032 -0.452433 0.606272 -0.922568 -0.452433 0.606272 -0.922568 -0.452433 0.445433 0.072032 0.452433 0.445433 0.072032 0.452433 0.606272 -0.922568 0.452433 0.606272 -0.922568 0.452433 0.445433 0.072032 0.452433 -0.445433 -0.072032 0.452433 -0.284594 -1.066632 0.452433 -0.284594 -1.066632 0.452433 -0.445433 -0.072032 -0.452433 -0.445433 -0.072032 -0.452433 -0.284594 -1.066632 -0.452433 0.606272 -0.922568 0.452433 0.606272 -0.922568 0.452433 -0.284594 -1.066632 -0.452433 -0.284594 -1.066632 0.452433 0.445433 0.072032 -0.452433 0.445433 0.072032 -0.452433 -0.445433 -0.072032 0.452433 -0.445433 -0.072032 " />
														<Normal vector="-0.577349 -0.477767 -0.662099 -0.577349 -0.662099 0.477767 -0.577349 0.477767 0.662099 -0.577349 0.662099 -0.477767 -0.577349 0.662099 -0.477767 -0.577349 0.477767 0.662099 0.577349 0.477767 0.662099 0.577349 0.662099 -0.477767 0.577349 0.662099 -0.477767 0.577349 0.477767 0.662099 0.577349 -0.662099 0.477767 0.577349 -0.477767 -0.662099 0.577349 -0.477767 -0.662099 0.577349 -0.662099 0.477767 -0.577349 -0.662099 0.477767 -0.577349 -0.477767 -0.662099 -0.577349 0.662099 -0.477767 0.577349 0.662099 -0.477767 0.577349 -0.477767 -0.662099 -0.577349 -0.477767 -0.662099 0.577349 0.477767 0.662099 -0.577349 0.477767 0.662099 -0.577349 -0.662099 0.477767 0.577349 -0.662099 0.477767 " />
														<TextureCoordinate point="0.2381 0.1392 0.0689 0.1392 0.0689 0.0433 0.2381 0.0433 0.2381 0.1392 0.0689 0.1392 0.0689 0.0433 0.2381 0.0433 0.2381 0.1392 0.0689 0.1392 0.0689 0.0433 0.2381 0.0433 0.2381 0.1392 0.0689 0.1392 0.0689 0.0433 0.2381 0.0433 0.2718 0.0277 0.2718 0.1547 0.1852 0.1547 0.1852 0.0277 0.1451 0.0277 0.1451 0.1547 0.0173 0.1547 0.0173 0.0277 " />
													</IndexedTriangleSet>
												</Shape>
											</Group>
										</Transform>
									</Transform>
								</Transform>
							</Transform>
						</Transform>
					</Transform>
					<Transform DEF="orl2_TRANSFORM"
					           translation="-0.905265 0.030682 1.504593"
					           scale="1.000000 1.000000 1.000000"
					           rotation="0.000000 1.000000 0.000000 0.000000"
					           >
						<Transform DEF="orl2_ifs_TRANSFORM"
						           translation="0.000000 0.000000 0.000000"
						           scale="1.000000 1.000000 1.000000"
						           rotation="0.000000 1.000000 0.000000 0.000000"
						           >
							<Group DEF="group_ME_orl2">
								<Shape>
									<Appearance>
										<Material USE="MA_Body" />
									</Appearance>
									<IndexedTriangleSet solid="false"
									                    normalPerVertex="true"
									                    index="0 1 2 0 2 3 4 5 6 4 6 7 8 9 10 8 10 11 12 13 14 12 14 15 4 13 16 4 16 17 18 19 14 18 14 7 "
									                    >
										<Coordinate point="-0.232521 -0.364027 -0.680580 -0.232521 0.364027 -0.680580 0.232521 0.364027 0.680580 0.232521 -0.364027 0.680580 -0.232521 0.364027 -0.680580 -1.449802 0.364027 -0.264694 -0.984759 0.364027 1.096466 0.232521 0.364027 0.680580 -1.449802 0.364027 -0.264694 -1.449802 -0.364027 -0.264694 -0.984759 -0.364027 1.096466 -0.984759 0.364027 1.096466 -1.449802 -0.364027 -0.264694 -0.232521 -0.364027 -0.680580 0.232521 -0.364027 0.680580 -0.984759 -0.364027 1.096466 -1.449802 -0.364027 -0.264694 -1.449802 0.364027 -0.264694 -0.984759 0.364027 1.096466 -0.984759 -0.364027 1.096466 " />
										<Normal vector="0.359661 -0.577349 -0.732994 0.359661 0.577349 -0.732994 0.732994 0.577349 0.359661 0.732994 -0.577349 0.359661 0.359661 0.577349 -0.732994 -0.732994 0.577349 -0.359661 -0.359661 0.577349 0.732994 0.732994 0.577349 0.359661 -0.732994 0.577349 -0.359661 -0.732994 -0.577349 -0.359661 -0.359661 -0.577349 0.732994 -0.359661 0.577349 0.732994 -0.732994 -0.577349 -0.359661 0.359661 -0.577349 -0.732994 0.732994 -0.577349 0.359661 -0.359661 -0.577349 0.732994 -0.732994 -0.577349 -0.359661 -0.732994 0.577349 -0.359661 -0.359661 0.577349 0.732994 -0.359661 -0.577349 0.732994 " />
										<TextureCoordinate point="0.0260 0.2219 0.0260 0.3991 0.2944 0.3991 0.2944 0.2219 0.0260 0.2219 0.0260 0.3991 0.2944 0.3991 0.2944 0.2219 0.0260 0.2219 0.0260 0.3991 0.2944 0.3991 0.2944 0.2219 0.0260 0.2219 0.0260 0.3991 0.2944 0.3991 0.2944 0.2219 0.2944 0.3991 0.2944 0.2219 0.0260 0.2219 0.0260 0.3991 " />
									</IndexedTriangleSet>
								</Shape>
							</Group>
						</Transform>
					</Transform>
				</Transform>
				<Transform DEF="arm1_TRANSFORM"
				           translation="0.525019 -0.189619 0.594200"
				           scale="1.000000 1.000000 1.000000"
				           rotation="0.000000 1.000000 0.000000 0.000000"
				           >
					<Transform DEF="arm1_ifs_TRANSFORM"
					           translation="0.000000 0.000000 0.000000"
					           scale="1.000000 1.000000 1.000000"
					           rotation="0.000000 1.000000 0.000000 0.000000"
					           >
						<Group DEF="group_ME_arm1">
							<Shape>
								<Appearance>
									<Material USE="MA_Body" />
								</Appearance>
								<IndexedTriangleSet solid="false"
								                    normalPerVertex="true"
								                    index="0 1 2 0 2 3 4 5 6 4 6 7 8 9 10 8 10 11 12 13 14 12 14 15 4 16 17 4 17 15 18 5 14 18 14 19 "
								                    >
									<Coordinate point="0.000000 -0.311304 -0.264817 0.000000 -0.311304 0.264817 0.000000 0.311304 0.264817 0.000000 0.311304 -0.264817 0.000000 0.311304 -0.264817 0.000000 0.311304 0.264817 0.936843 0.311304 0.264817 0.936843 0.311304 -0.264817 0.936843 0.311304 -0.264817 0.936843 0.311304 0.264817 0.936843 -0.311304 0.264817 0.936843 -0.311304 -0.264817 0.936843 -0.311304 -0.264817 0.936843 -0.311304 0.264817 0.000000 -0.311304 0.264817 0.000000 -0.311304 -0.264817 0.936843 0.311304 -0.264817 0.936843 -0.311304 -0.264817 0.936843 0.311304 0.264817 0.936843 -0.311304 0.264817 " />
									<Normal vector="-0.577349 -0.577349 -0.577349 -0.577349 -0.577349 0.577349 -0.577349 0.577349 0.577349 -0.577349 0.577349 -0.577349 -0.577349 0.577349 -0.577349 -0.577349 0.577349 0.577349 0.577349 0.577349 0.577349 0.577349 0.577349 -0.577349 0.577349 0.577349 -0.577349 0.577349 0.577349 0.577349 0.577349 -0.577349 0.577349 0.577349 -0.577349 -0.577349 0.577349 -0.577349 -0.577349 0.577349 -0.577349 0.577349 -0.577349 -0.577349 0.577349 -0.577349 -0.577349 -0.577349 0.577349 0.577349 -0.577349 0.577349 -0.577349 -0.577349 0.577349 0.577349 0.577349 0.577349 -0.577349 0.577349 " />
									<TextureCoordinate point="0.0260 0.7343 0.2944 0.7343 0.2944 0.9532 0.0260 0.9532 0.0260 0.7343 0.2944 0.7343 0.2944 0.9532 0.0260 0.9532 0.0260 0.7343 0.2944 0.7343 0.2944 0.9532 0.0260 0.9532 0.0260 0.7343 0.2944 0.7343 0.2944 0.9532 0.0260 0.9532 0.2944 0.7343 0.2944 0.9532 0.0260 0.7343 0.0260 0.9532 " />
								</IndexedTriangleSet>
							</Shape>
						</Group>
					</Transform>
					<Transform DEF="hand1_TRANSFORM"
					           translation="0.897097 0.002049 0.003927"
					           scale="1.000000 1.000000 1.000000"
					           rotation="0.000000 1.000000 0.000000 0.000000"
					           >
						<Transform DEF="hand1_ifs_TRANSFORM"
						           translation="0.000000 0.000000 0.000000"
						           scale="1.000000 1.000000 1.000000"
						           rotation="0.000000 1.000000 0.000000 0.000000"
						           >
							<Group DEF="group_ME_hand1">
								<Shape>
									<Appearance>
										<Material USE="MA_Body" />
									</Appearance>
									<IndexedTriangleSet solid="false"
									                    normalPerVertex="true"
									                    index="0 1 2 0 2 3 4 5 6 4 6 7 8 9 10 8 10 11 12 13 14 12 14 15 16 17 18 16 18 19 20 21 14 20 14 22 23 24 25 23 25 26 24 20 22 24 22 25 27 28 29 27 29 15 28 16 19 28 19 29 30 31 32 30 32 33 33 32 13 33 13 12 34 35 36 34 36 37 37 36 5 37 5 4 38 39 40 38 40 41 42 43 44 42 44 45 34 38 41 34 41 46 46 41 28 46 28 27 47 48 49 47 49 50 50 49 20 50 20 24 51 47 50 51 50 52 52 50 24 52 24 23 48 35 53 48 53 49 49 53 21 49 21 20 39 54 55 39 55 40 40 55 17 40 17 16 56 57 58 56 58 59 59 58 9 59 9 8 60 61 62 60 62 63 63 62 1 63 1 0 "
									                    >
										<Coordinate point="-0.020388 0.194355 -0.272852 0.020641 0.198511 0.271753 0.020895 0.354727 0.270653 -0.020135 0.352230 -0.273951 0.429629 0.351651 -0.304586 0.492346 0.354147 0.240018 0.630898 0.353857 0.224700 0.589868 0.351361 -0.319904 0.589362 -0.199381 -0.317706 0.630392 -0.195225 0.226899 0.630139 -0.353100 0.227998 0.589109 -0.355596 -0.316606 0.117658 -0.355017 -0.285971 0.180375 -0.352520 0.258633 0.020135 -0.352230 0.273951 -0.020895 -0.354727 -0.270653 0.428855 -0.198898 -0.302388 0.589362 -0.199381 -0.317706 0.589109 -0.355596 -0.316606 0.428468 -0.355306 -0.301289 0.180761 -0.194260 0.257534 0.020388 -0.193778 0.272852 0.180375 -0.352520 0.258633 0.630392 -0.195225 0.226899 0.491572 -0.194742 0.242217 0.491185 -0.352810 0.243316 0.630139 -0.353100 0.227998 -0.020641 -0.197933 -0.271753 0.118044 -0.198416 -0.287070 0.117658 -0.355017 -0.285971 0.589109 -0.355596 -0.316606 0.630139 -0.353100 0.227998 0.491185 -0.352810 0.243316 0.428468 -0.355306 -0.301289 -0.020135 0.352230 -0.273951 0.020895 0.354727 0.270653 0.181535 0.354437 0.255336 0.118818 0.351941 -0.289269 0.118818 0.351941 -0.289269 0.429629 0.351651 -0.304586 0.429242 0.193391 -0.303487 0.118431 0.193873 -0.288170 0.118431 0.193873 -0.288170 0.429242 0.193391 -0.303487 0.428855 -0.198898 -0.302388 0.118044 -0.198416 -0.287070 -0.020388 0.194355 -0.272852 0.492346 0.354147 0.240018 0.181535 0.354437 0.255336 0.181148 0.198029 0.256435 0.491959 0.197546 0.241117 0.630898 0.353857 0.224700 0.630645 0.197064 0.225800 0.020641 0.198511 0.271753 0.589868 0.351361 -0.319904 0.589615 0.192908 -0.318805 0.589868 0.351361 -0.319904 0.630898 0.353857 0.224700 0.630645 0.197064 0.225800 0.589615 0.192908 -0.318805 -0.020895 -0.354727 -0.270653 0.020135 -0.352230 0.273951 0.020388 -0.193778 0.272852 -0.020641 -0.197933 -0.271753 " />
										<Normal vector="-0.769951 -0.002197 -0.638050 -0.644032 0.004456 0.764946 -0.525834 0.580676 0.621509 -0.626209 0.577166 -0.524125 -0.049959 0.708396 -0.704031 0.057497 0.704459 0.707358 0.628254 0.581195 0.517167 0.527329 0.571917 -0.628315 0.644032 -0.004456 -0.764946 0.769951 0.002197 0.638050 0.626209 -0.577166 0.524125 0.525834 -0.580676 -0.621509 -0.057497 -0.704459 -0.707358 0.049959 -0.708396 0.704031 -0.527329 -0.571917 0.628315 -0.628254 -0.581195 -0.517167 -0.072146 -0.004761 -0.997375 0.644032 -0.004456 -0.764946 0.525834 -0.580676 -0.621509 -0.051302 -0.716208 -0.695944 0.072146 0.004730 0.997375 -0.644673 0.004425 0.764397 0.049959 -0.708396 0.704031 0.769951 0.002197 0.638050 0.079501 0.004730 0.996796 0.056001 -0.696188 0.715659 0.626209 -0.577166 0.524125 -0.768914 -0.002228 -0.639332 -0.079501 -0.004761 -0.996796 -0.057497 -0.704459 -0.707358 0.525834 -0.580676 -0.621509 0.626209 -0.577166 0.524125 0.056001 -0.696188 0.715659 -0.051302 -0.716208 -0.695944 -0.626209 0.577166 -0.524125 -0.525834 0.580676 0.621509 0.051302 0.716208 0.695944 -0.056001 0.696188 -0.715659 -0.056001 0.696188 -0.715659 -0.049959 0.708396 -0.704031 -0.072146 -0.004730 -0.997375 -0.079501 -0.004730 -0.996796 -0.079501 -0.004730 -0.996796 -0.072146 -0.004730 -0.997375 -0.072146 -0.004761 -0.997375 -0.079501 -0.004761 -0.996796 -0.769951 -0.002197 -0.638050 0.057497 0.704459 0.707358 0.051302 0.716208 0.695944 0.072146 0.004761 0.997375 0.079501 0.004761 0.996796 0.628254 0.581195 0.517167 0.768914 0.002228 0.639332 -0.644032 0.004456 0.764946 0.527329 0.571917 -0.628315 0.644673 -0.004425 -0.764397 0.527329 0.571917 -0.628315 0.628254 0.581195 0.517167 0.768914 0.002228 0.639332 0.644673 -0.004425 -0.764397 -0.628254 -0.581195 -0.517167 -0.527329 -0.571917 0.628315 -0.644673 0.004425 0.764397 -0.768914 -0.002228 -0.639332 " />
										<TextureCoordinate point="0.0260 0.8802 0.2944 0.8802 0.2944 0.9532 0.0260 0.9532 0.0260 0.8802 0.2944 0.8802 0.2944 0.9532 0.0260 0.9532 0.0260 0.8802 0.2944 0.8802 0.2944 0.9532 0.0260 0.9532 0.0260 0.8802 0.2944 0.8802 0.2944 0.9532 0.0260 0.9532 0.2049 0.8802 0.2944 0.8802 0.2944 0.9532 0.2049 0.9532 0.2049 0.8802 0.2944 0.8802 0.2049 0.9532 0.0260 0.8802 0.1154 0.8802 0.1154 0.9532 0.0260 0.9532 0.0260 0.8802 0.1154 0.8802 0.1154 0.9532 0.0260 0.7343 0.2944 0.7343 0.2944 0.8073 0.0260 0.8073 0.0260 0.7343 0.2944 0.7343 0.2944 0.8073 0.0260 0.8073 0.1154 0.7343 0.2049 0.7343 0.2049 0.8073 0.1154 0.8073 0.0228 0.4800 0.1373 0.4800 0.1373 0.6450 0.0228 0.6450 0.0260 0.8073 0.1154 0.7343 0.2049 0.7343 0.2049 0.8073 0.1154 0.8073 0.0260 0.7343 0.0260 0.8073 0.2944 0.8073 0.2944 0.7343 0.2944 0.8073 0.0260 0.7343 0.2944 0.7343 0.2944 0.8073 0.0260 0.8073 0.0260 0.7343 0.2944 0.7343 0.2944 0.8073 0.0260 0.8073 " />
									</IndexedTriangleSet>
								</Shape>
							</Group>
						</Transform>
					</Transform>
				</Transform>
				<Transform DEF="arm2_TRANSFORM"
				           translation="-0.525019 -0.189619 0.594200"
				           scale="1.000000 1.000000 1.000000"
				           rotation="0.000000 1.000000 0.000000 0.000000"
				           >
					<Transform DEF="arm2_ifs_TRANSFORM"
					           translation="0.000000 0.000000 0.000000"
					           scale="1.000000 1.000000 1.000000"
					           rotation="0.000000 1.000000 0.000000 0.000000"
					           >
						<Group DEF="group_ME_arm2">
							<Shape>
								<Appearance>
									<Material USE="MA_Body" />
								</Appearance>
								<IndexedTriangleSet solid="false"
								                    normalPerVertex="true"
								                    index="0 1 2 0 2 3 4 5 6 4 6 7 8 9 10 8 10 11 12 13 14 12 14 15 4 13 16 4 16 17 18 19 14 18 14 7 "
								                    >
									<Coordinate point="0.000000 -0.311304 -0.264817 0.000000 0.311304 -0.264817 0.000000 0.311304 0.264817 0.000000 -0.311304 0.264817 0.000000 0.311304 -0.264817 -0.936843 0.311304 -0.264817 -0.936843 0.311304 0.264817 0.000000 0.311304 0.264817 -0.936843 0.311304 -0.264817 -0.936843 -0.311304 -0.264817 -0.936843 -0.311304 0.264817 -0.936843 0.311304 0.264817 -0.936843 -0.311304 -0.264817 0.000000 -0.311304 -0.264817 0.000000 -0.311304 0.264817 -0.936843 -0.311304 0.264817 -0.936843 -0.311304 -0.264817 -0.936843 0.311304 -0.264817 -0.936843 0.311304 0.264817 -0.936843 -0.311304 0.264817 " />
									<Normal vector="0.577349 -0.577349 -0.577349 0.577349 0.577349 -0.577349 0.577349 0.577349 0.577349 0.577349 -0.577349 0.577349 0.577349 0.577349 -0.577349 -0.577349 0.577349 -0.577349 -0.577349 0.577349 0.577349 0.577349 0.577349 0.577349 -0.577349 0.577349 -0.577349 -0.577349 -0.577349 -0.577349 -0.577349 -0.577349 0.577349 -0.577349 0.577349 0.577349 -0.577349 -0.577349 -0.577349 0.577349 -0.577349 -0.577349 0.577349 -0.577349 0.577349 -0.577349 -0.577349 0.577349 -0.577349 -0.577349 -0.577349 -0.577349 0.577349 -0.577349 -0.577349 0.577349 0.577349 -0.577349 -0.577349 0.577349 " />
									<TextureCoordinate point="0.0260 0.7343 0.0260 0.9532 0.2944 0.9532 0.2944 0.7343 0.0260 0.7343 0.0260 0.9532 0.2944 0.9532 0.2944 0.7343 0.0260 0.7343 0.0260 0.9532 0.2944 0.9532 0.2944 0.7343 0.0260 0.7343 0.0260 0.9532 0.2944 0.9532 0.2944 0.7343 0.2944 0.9532 0.2944 0.7343 0.0260 0.7343 0.0260 0.9532 " />
								</IndexedTriangleSet>
							</Shape>
						</Group>
					</Transform>
					<Transform DEF="hand2_TRANSFORM"
					           translation="-0.897097 0.002049 0.003927"
					           scale="1.000000 1.000000 1.000000"
					           rotation="0.000000 1.000000 0.000000 0.000000"
					           >
						<Transform DEF="hand2_ifs_TRANSFORM"
						           translation="0.000000 0.000000 0.000000"
						           scale="1.000000 1.000000 1.000000"
						           rotation="0.000000 1.000000 0.000000 0.000000"
						           >
							<Group DEF="group_ME_hand2">
								<Shape>
									<Appearance>
										<Material USE="MA_Body" />
									</Appearance>
									<IndexedTriangleSet solid="false"
									                    normalPerVertex="true"
									                    index="0 1 2 0 2 3 4 5 6 4 6 7 8 9 10 8 10 11 12 13 14 12 14 15 16 17 18 16 18 19 20 21 14 20 14 22 23 24 25 23 25 26 26 25 21 26 21 20 27 13 28 27 28 29 29 28 17 29 17 16 30 31 32 30 32 33 31 12 15 31 15 32 34 35 36 34 36 37 35 4 7 35 7 36 38 39 40 38 40 41 42 43 44 42 44 45 34 46 39 34 39 38 46 27 29 46 29 39 47 48 49 47 49 50 48 26 20 48 20 49 51 52 48 51 48 47 52 23 26 52 26 48 50 49 53 50 53 37 49 20 22 49 22 53 41 40 54 41 54 55 40 16 19 40 19 54 56 57 58 56 58 59 57 8 11 57 11 58 60 61 62 60 62 63 61 0 3 61 3 62 "
									                    >
										<Coordinate point="0.020388 0.194355 -0.272852 0.020135 0.352230 -0.273951 -0.020895 0.354727 0.270653 -0.020641 0.198511 0.271753 -0.429629 0.351651 -0.304586 -0.589868 0.351361 -0.319904 -0.630898 0.353857 0.224700 -0.492346 0.354147 0.240018 -0.589362 -0.199381 -0.317706 -0.589109 -0.355596 -0.316606 -0.630139 -0.353100 0.227998 -0.630392 -0.195225 0.226899 -0.117658 -0.355017 -0.285971 0.020895 -0.354727 -0.270653 -0.020135 -0.352230 0.273951 -0.180375 -0.352520 0.258633 -0.428855 -0.198898 -0.302388 -0.428468 -0.355306 -0.301289 -0.589109 -0.355596 -0.316606 -0.589362 -0.199381 -0.317706 -0.180761 -0.194260 0.257534 -0.180375 -0.352520 0.258633 -0.020388 -0.193778 0.272852 -0.630392 -0.195225 0.226899 -0.630139 -0.353100 0.227998 -0.491185 -0.352810 0.243316 -0.491572 -0.194742 0.242217 0.020641 -0.197933 -0.271753 -0.117658 -0.355017 -0.285971 -0.118044 -0.198416 -0.287070 -0.589109 -0.355596 -0.316606 -0.428468 -0.355306 -0.301289 -0.491185 -0.352810 0.243316 -0.630139 -0.353100 0.227998 0.020135 0.352230 -0.273951 -0.118818 0.351941 -0.289269 -0.181535 0.354437 0.255336 -0.020895 0.354727 0.270653 -0.118818 0.351941 -0.289269 -0.118431 0.193873 -0.288170 -0.429242 0.193391 -0.303487 -0.429629 0.351651 -0.304586 -0.118431 0.193873 -0.288170 -0.118044 -0.198416 -0.287070 -0.428855 -0.198898 -0.302388 -0.429242 0.193391 -0.303487 0.020388 0.194355 -0.272852 -0.492346 0.354147 0.240018 -0.491959 0.197546 0.241117 -0.181148 0.198029 0.256435 -0.181535 0.354437 0.255336 -0.630898 0.353857 0.224700 -0.630645 0.197064 0.225800 -0.020641 0.198511 0.271753 -0.589615 0.192908 -0.318805 -0.589868 0.351361 -0.319904 -0.589868 0.351361 -0.319904 -0.589615 0.192908 -0.318805 -0.630645 0.197064 0.225800 -0.630898 0.353857 0.224700 0.020895 -0.354727 -0.270653 0.020641 -0.197933 -0.271753 -0.020388 -0.193778 0.272852 -0.020135 -0.352230 0.273951 " />
										<Normal vector="0.769951 -0.002197 -0.638050 0.626209 0.577166 -0.524125 0.525834 0.580676 0.621509 0.644032 0.004456 0.764946 0.049959 0.708396 -0.704031 -0.527329 0.571917 -0.628315 -0.628254 0.581195 0.517167 -0.057497 0.704459 0.707358 -0.644032 -0.004456 -0.764946 -0.525834 -0.580676 -0.621509 -0.626209 -0.577166 0.524125 -0.769951 0.002197 0.638050 0.057497 -0.704459 -0.707358 0.628254 -0.581195 -0.517167 0.527329 -0.571917 0.628315 -0.049959 -0.708396 0.704031 0.072146 -0.004761 -0.997375 0.051302 -0.716208 -0.695944 -0.525834 -0.580676 -0.621509 -0.644032 -0.004456 -0.764946 -0.072146 0.004730 0.997375 -0.049959 -0.708396 0.704031 0.644673 0.004425 0.764397 -0.769951 0.002197 0.638050 -0.626209 -0.577166 0.524125 -0.056001 -0.696188 0.715659 -0.079501 0.004730 0.996796 0.768914 -0.002228 -0.639332 0.057497 -0.704459 -0.707358 0.079501 -0.004761 -0.996796 -0.525834 -0.580676 -0.621509 0.051302 -0.716208 -0.695944 -0.056001 -0.696188 0.715659 -0.626209 -0.577166 0.524125 0.626209 0.577166 -0.524125 0.056001 0.696188 -0.715659 -0.051302 0.716208 0.695944 0.525834 0.580676 0.621509 0.056001 0.696188 -0.715659 0.079501 -0.004730 -0.996796 0.072146 -0.004730 -0.997375 0.049959 0.708396 -0.704031 0.079501 -0.004730 -0.996796 0.079501 -0.004761 -0.996796 0.072146 -0.004761 -0.997375 0.072146 -0.004730 -0.997375 0.769951 -0.002197 -0.638050 -0.057497 0.704459 0.707358 -0.079501 0.004761 0.996796 -0.072146 0.004761 0.997375 -0.051302 0.716208 0.695944 -0.628254 0.581195 0.517167 -0.768914 0.002228 0.639332 0.644032 0.004456 0.764946 -0.644673 -0.004425 -0.764397 -0.527329 0.571917 -0.628315 -0.527329 0.571917 -0.628315 -0.644673 -0.004425 -0.764397 -0.768914 0.002228 0.639332 -0.628254 0.581195 0.517167 0.628254 -0.581195 -0.517167 0.768914 -0.002228 -0.639332 0.644673 0.004425 0.764397 0.527329 -0.571917 0.628315 " />
										<TextureCoordinate point="0.0260 0.8802 0.0260 0.9532 0.2944 0.9532 0.2944 0.8802 0.0260 0.8802 0.0260 0.9532 0.2944 0.9532 0.2944 0.8802 0.0260 0.8802 0.0260 0.9532 0.2944 0.9532 0.2944 0.8802 0.0260 0.8802 0.0260 0.9532 0.2944 0.9532 0.2944 0.8802 0.2049 0.8802 0.2049 0.9532 0.2944 0.9532 0.2944 0.8802 0.2049 0.8802 0.2049 0.9532 0.2944 0.8802 0.0260 0.8802 0.0260 0.9532 0.1154 0.9532 0.1154 0.8802 0.0260 0.8802 0.1154 0.9532 0.1154 0.8802 0.0260 0.7343 0.0260 0.8073 0.2944 0.8073 0.2944 0.7343 0.0260 0.7343 0.0260 0.8073 0.2944 0.8073 0.2944 0.7343 0.1154 0.7343 0.1154 0.8073 0.2049 0.8073 0.2049 0.7343 0.0228 0.4800 0.0228 0.6450 0.1373 0.6450 0.1373 0.4800 0.0260 0.8073 0.1154 0.7343 0.1154 0.8073 0.2049 0.8073 0.2049 0.7343 0.0260 0.7343 0.0260 0.8073 0.2944 0.8073 0.2944 0.8073 0.2944 0.7343 0.0260 0.7343 0.0260 0.8073 0.2944 0.8073 0.2944 0.7343 0.0260 0.7343 0.0260 0.8073 0.2944 0.8073 0.2944 0.7343 " />
									</IndexedTriangleSet>
								</Shape>
							</Group>
						</Transform>
					</Transform>
				</Transform>
			</Transform>
			<Transform DEF="tail_TRANSFORM"
			           translation="0.000000 0.814092 0.496968"
			           scale="1.000000 1.000000 1.000000"
			           rotation="0.000000 1.000000 0.000000 0.000000"
			           >
				<Transform DEF="tail_ifs_TRANSFORM"
				           translation="0.000000 0.000000 0.000000"
				           scale="1.000000 1.000000 1.000000"
				           rotation="0.000000 1.000000 0.000000 0.000000"
				           >
					<Group DEF="group_ME_tail">
						<Shape>
							<Appearance>
								<Material USE="MA_Body" />
							</Appearance>
							<IndexedTriangleSet solid="false"
							                    normalPerVertex="true"
							                    index="0 1 2 0 2 3 4 5 6 4 6 7 8 9 10 8 10 11 12 13 14 12 14 15 4 16 17 4 17 15 18 5 14 18 14 19 "
							                    >
								<Coordinate point="-0.382116 0.000000 -0.382116 -0.382116 0.000000 0.382116 -0.382116 0.764232 0.382116 -0.382116 0.764232 -0.382116 -0.382116 0.764232 -0.382116 -0.382116 0.764232 0.382116 0.382116 0.764232 0.382116 0.382116 0.764232 -0.382116 0.382116 0.764232 -0.382116 0.382116 0.764232 0.382116 0.382116 0.000000 0.382116 0.382116 0.000000 -0.382116 0.382116 0.000000 -0.382116 0.382116 0.000000 0.382116 -0.382116 0.000000 0.382116 -0.382116 0.000000 -0.382116 0.382116 0.764232 -0.382116 0.382116 0.000000 -0.382116 0.382116 0.764232 0.382116 0.382116 0.000000 0.382116 " />
								<Normal vector="-0.577349 -0.577349 -0.577349 -0.577349 -0.577349 0.577349 -0.577349 0.577349 0.577349 -0.577349 0.577349 -0.577349 -0.577349 0.577349 -0.577349 -0.577349 0.577349 0.577349 0.577349 0.577349 0.577349 0.577349 0.577349 -0.577349 0.577349 0.577349 -0.577349 0.577349 0.577349 0.577349 0.577349 -0.577349 0.577349 0.577349 -0.577349 -0.577349 0.577349 -0.577349 -0.577349 0.577349 -0.577349 0.577349 -0.577349 -0.577349 0.577349 -0.577349 -0.577349 -0.577349 0.577349 0.577349 -0.577349 0.577349 -0.577349 -0.577349 0.577349 0.577349 0.577349 0.577349 -0.577349 0.577349 " />
								<TextureCoordinate point="0.0260 0.7343 0.2944 0.7343 0.2944 0.9532 0.0260 0.9532 0.0260 0.7343 0.2944 0.7343 0.2944 0.9532 0.0260 0.9532 0.0260 0.7343 0.2944 0.7343 0.2944 0.9532 0.0260 0.9532 0.0260 0.7343 0.2944 0.7343 0.2944 0.9532 0.0260 0.9532 0.2944 0.7343 0.2944 0.9532 0.0260 0.7343 0.0260 0.9532 " />
							</IndexedTriangleSet>
						</Shape>
					</Group>
				</Transform>
			</Transform>
			<Transform DEF="foot1_TRANSFORM"
			           translation="0.549385 -0.063031 0.270091"
			           scale="1.000000 1.000000 1.000000"
			           rotation="0.000000 1.000000 0.000000 0.000000"
			           >
				<Transform DEF="foot1_ifs_TRANSFORM"
				           translation="0.000000 0.000000 0.000000"
				           scale="1.000000 1.000000 1.000000"
				           rotation="0.000000 1.000000 0.000000 0.000000"
				           >
					<Group DEF="group_ME_foot1">
						<Shape>
							<Appearance>
								<Material USE="MA_Body" />
							</Appearance>
							<IndexedTriangleSet solid="false"
							                    normalPerVertex="true"
							                    index="0 1 2 0 2 3 4 5 6 4 6 7 8 9 10 8 10 11 12 13 14 12 14 15 12 15 16 12 16 17 18 5 14 18 14 19 20 21 22 20 22 23 4 7 24 4 24 25 0 3 26 0 26 27 8 11 28 8 28 29 "
							                    >
								<Coordinate point="-0.408347 -0.403622 -1.012465 -0.408347 -0.403622 0.000000 -0.408347 0.403622 -0.000000 -0.408347 0.403622 -1.012465 -0.408347 0.403622 -1.012465 -0.408347 0.403622 -0.000000 0.408347 0.403622 -0.000000 0.408347 0.403622 -1.012465 0.408347 0.403622 -1.012465 0.408347 0.403622 -0.000000 0.408347 -0.403622 0.000000 0.408347 -0.403622 -1.012465 0.408347 -0.403622 -1.012465 0.408347 -0.403622 0.000000 -0.408347 -0.403622 0.000000 -0.408347 -0.403622 -1.012465 -0.254487 -0.251542 -1.012465 0.254487 -0.251542 -1.012465 0.408347 0.403622 -0.000000 0.408347 -0.403622 0.000000 -0.254487 0.251542 -1.012465 0.254487 0.251542 -1.012465 0.254487 -0.251542 -1.012465 -0.254487 -0.251542 -1.012465 0.254487 0.251542 -1.012465 -0.254487 0.251542 -1.012465 -0.254487 0.251542 -1.012465 -0.254487 -0.251542 -1.012465 0.254487 -0.251542 -1.012465 0.254487 0.251542 -1.012465 " />
								<Normal vector="-0.577349 -0.577349 -0.577349 -0.577349 -0.577349 0.577349 -0.577349 0.577349 0.577349 -0.577349 0.577349 -0.577349 -0.577349 0.577349 -0.577349 -0.577349 0.577349 0.577349 0.577349 0.577349 0.577349 0.577349 0.577349 -0.577349 0.577349 0.577349 -0.577349 0.577349 0.577349 0.577349 0.577349 -0.577349 0.577349 0.577349 -0.577349 -0.577349 0.577349 -0.577349 -0.577349 0.577349 -0.577349 0.577349 -0.577349 -0.577349 0.577349 -0.577349 -0.577349 -0.577349 0.000000 0.000000 -1.000000 0.000000 0.000000 -1.000000 0.577349 0.577349 0.577349 0.577349 -0.577349 0.577349 0.000000 0.000000 -1.000000 0.000000 0.000000 -1.000000 0.000000 0.000000 -1.000000 0.000000 0.000000 -1.000000 0.000000 0.000000 -1.000000 0.000000 0.000000 -1.000000 0.000000 0.000000 -1.000000 0.000000 0.000000 -1.000000 0.000000 0.000000 -1.000000 0.000000 0.000000 -1.000000 " />
								<TextureCoordinate point="0.0260 0.7343 0.2944 0.7343 0.2944 0.9532 0.0260 0.9532 0.0260 0.7343 0.2944 0.7343 0.2944 0.9532 0.0260 0.9532 0.0260 0.7343 0.2944 0.7343 0.2944 0.9532 0.0260 0.9532 0.0260 0.7343 0.2944 0.7343 0.2944 0.9532 0.0260 0.9532 0.0260 0.9532 0.0260 0.7343 0.0260 0.7343 0.0260 0.9532 0.0234 0.4673 0.1368 0.4673 0.1368 0.6498 0.0234 0.6498 0.0260 0.9532 0.0260 0.7343 0.0260 0.9532 0.0260 0.7343 0.0260 0.9532 0.0260 0.7343 " />
							</IndexedTriangleSet>
						</Shape>
					</Group>
				</Transform>
			</Transform>
			<Transform DEF="foot2_TRANSFORM"
			           translation="-0.549385 -0.063031 0.270091"
			           scale="1.000000 1.000000 1.000000"
			           rotation="0.000000 1.000000 0.000000 0.000000"
			           >
				<Transform DEF="foot2_ifs_TRANSFORM"
				           translation="0.000000 0.000000 0.000000"
				           scale="1.000000 1.000000 1.000000"
				           rotation="0.000000 1.000000 0.000000 0.000000"
				           >
					<Group DEF="group_ME_foot2">
						<Shape>
							<Appearance>
								<Material USE="MA_Body" />
							</Appearance>
							<IndexedTriangleSet solid="false"
							                    normalPerVertex="true"
							                    index="0 1 2 0 2 3 4 5 6 4 6 7 8 9 10 8 10 11 12 13 14 12 14 15 12 16 17 12 17 13 18 19 14 18 14 7 20 21 22 20 22 23 4 24 25 4 25 5 0 26 27 0 27 1 8 28 29 8 29 9 "
							                    >
								<Coordinate point="0.408347 -0.403622 -1.012465 0.408347 0.403622 -1.012465 0.408347 0.403622 0.000000 0.408347 -0.403622 -0.000000 0.408347 0.403622 -1.012465 -0.408347 0.403622 -1.012465 -0.408347 0.403622 0.000000 0.408347 0.403622 0.000000 -0.408347 0.403622 -1.012465 -0.408347 -0.403622 -1.012465 -0.408347 -0.403622 -0.000000 -0.408347 0.403622 0.000000 -0.408347 -0.403622 -1.012465 0.408347 -0.403622 -1.012465 0.408347 -0.403622 -0.000000 -0.408347 -0.403622 -0.000000 -0.254487 -0.251542 -1.012465 0.254487 -0.251542 -1.012465 -0.408347 0.403622 0.000000 -0.408347 -0.403622 -0.000000 0.254487 0.251542 -1.012465 0.254487 -0.251542 -1.012465 -0.254487 -0.251542 -1.012465 -0.254487 0.251542 -1.012465 0.254487 0.251542 -1.012465 -0.254487 0.251542 -1.012465 0.254487 -0.251542 -1.012465 0.254487 0.251542 -1.012465 -0.254487 0.251542 -1.012465 -0.254487 -0.251542 -1.012465 " />
								<Normal vector="0.577349 -0.577349 -0.577349 0.577349 0.577349 -0.577349 0.577349 0.577349 0.577349 0.577349 -0.577349 0.577349 0.577349 0.577349 -0.577349 -0.577349 0.577349 -0.577349 -0.577349 0.577349 0.577349 0.577349 0.577349 0.577349 -0.577349 0.577349 -0.577349 -0.577349 -0.577349 -0.577349 -0.577349 -0.577349 0.577349 -0.577349 0.577349 0.577349 -0.577349 -0.577349 -0.577349 0.577349 -0.577349 -0.577349 0.577349 -0.577349 0.577349 -0.577349 -0.577349 0.577349 0.000000 0.000000 -1.000000 0.000000 0.000000 -1.000000 -0.577349 0.577349 0.577349 -0.577349 -0.577349 0.577349 0.000000 0.000000 -1.000000 0.000000 0.000000 -1.000000 0.000000 0.000000 -1.000000 0.000000 0.000000 -1.000000 0.000000 0.000000 -1.000000 0.000000 0.000000 -1.000000 0.000000 0.000000 -1.000000 0.000000 0.000000 -1.000000 0.000000 0.000000 -1.000000 0.000000 0.000000 -1.000000 " />
								<TextureCoordinate point="0.0260 0.7343 0.0260 0.9532 0.2944 0.9532 0.2944 0.7343 0.0260 0.7343 0.0260 0.9532 0.2944 0.9532 0.2944 0.7343 0.0260 0.7343 0.0260 0.9532 0.2944 0.9532 0.2944 0.7343 0.0260 0.7343 0.0260 0.9532 0.2944 0.9532 0.2944 0.7343 0.0260 0.7343 0.0260 0.9532 0.0260 0.7343 0.0260 0.9532 0.0234 0.4673 0.0234 0.6498 0.1368 0.6498 0.1368 0.4673 0.0260 0.7343 0.0260 0.9532 0.0260 0.7343 0.0260 0.9532 0.0260 0.7343 0.0260 0.9532 " />
							</IndexedTriangleSet>
						</Shape>
					</Group>
				</Transform>
			</Transform>
		</Transform>
	</Scene>
</X3D>