<?xml version="1.0" encoding="UTF-8"?>
<!DOCTYPE X3D PUBLIC "ISO//Web3D//DTD X3D 3.0//EN" "http://www.web3d.org/specifications/x3d-3.0.dtd">
<X3D version="3.0" profile="Immersive" xmlns:xsd="http://www.w3.org/2001/XMLSchema-instance" xsd:noNamespaceSchemaLocation="http://www.web3d.org/specifications/x3d-3.0.xsd">
	<head>
		<meta name="filename" content="cutiefly.x3d" />
		<meta name="generator" content="Blender 2.93.18" />
	</head>
	<Scene>
		<NavigationInfo headlight="true"
		                visibilityLimit="0.0"
		                type='"EXAMINE", "ANY"'
		                avatarSize="0.25, 1.75, 0.75"
		                />
		<Background DEF="WO_World"
		            groundColor="0.051 0.051 0.051"
		            skyColor="0.051 0.051 0.051"
		            />
		<Transform DEF="body_TRANSFORM"
		           translation="0.000000 -0.589058 3.209598"
		           scale="1.000000 1.000000 1.000000"
		           rotation="0.000000 0.000000 1.000000 3.141593"
		           >
			<Transform DEF="body_ifs_TRANSFORM"
			           translation="0.000000 0.000000 0.000000"
			           scale="1.000000 1.000000 1.000000"
			           rotation="0.000000 1.000000 0.000000 0.000000"
			           >
				<Group DEF="group_ME_body">
					<Shape>
						<Appearance>
							<Material DEF="MA_Body"
							          diffuseColor="0.800 0.800 0.800"
							          specularColor="0.401 0.401 0.401"
							          emissiveColor="0.000 0.000 0.000"
							          ambientIntensity="0.000"
							          shininess="0.500"
							          transparency="0.0"
							          />
						</Appearance>
						<IndexedTriangleSet solid="false"
						                    normalPerVertex="true"
						                    index="0 1 2 0 2 3 4 5 6 4 6 7 8 9 10 8 10 11 12 13 14 12 14 15 4 16 17 4 17 15 18 5 14 18 14 19 "
						                    >
							<Coordinate point="-1.273678 -2.052972 -0.580211 -1.273678 -1.453887 1.561265 -1.273678 0.299542 1.070738 -1.273678 -0.299542 -1.070738 -1.273678 -0.299542 -1.070738 -1.273678 0.299542 1.070738 1.273678 0.299542 1.070738 1.273678 -0.299542 -1.070738 1.273678 -0.299542 -1.070738 1.273678 0.299542 1.070738 1.273678 -1.453887 1.561265 1.273678 -2.052972 -0.580211 1.273678 -2.052972 -0.580211 1.273678 -1.453887 1.561265 -1.273678 -1.453887 1.561265 -1.273678 -2.052972 -0.580211 1.273678 -0.299542 -1.070738 1.273678 -2.052972 -0.580211 1.273678 0.299542 1.070738 1.273678 -1.453887 1.561265 " />
							<Normal vector="-0.577349 -0.711539 -0.400433 -0.577349 -0.400433 0.711539 -0.577349 0.711539 0.400433 -0.577349 0.400433 -0.711539 -0.577349 0.400433 -0.711539 -0.577349 0.711539 0.400433 0.577349 0.711539 0.400433 0.577349 0.400433 -0.711539 0.577349 0.400433 -0.711539 0.577349 0.711539 0.400433 0.577349 -0.400433 0.711539 0.577349 -0.711539 -0.400433 0.577349 -0.711539 -0.400433 0.577349 -0.400433 0.711539 -0.577349 -0.400433 0.711539 -0.577349 -0.711539 -0.400433 0.577349 0.400433 -0.711539 0.577349 -0.711539 -0.400433 0.577349 0.711539 0.400433 0.577349 -0.400433 0.711539 " />
							<TextureCoordinate point="0.0239 0.7751 0.3199 0.7751 0.3199 0.9749 0.0239 0.9749 0.0239 0.7751 0.3199 0.7751 0.3199 0.9749 0.0239 0.9749 0.0239 0.7751 0.3199 0.7751 0.3199 0.9749 0.0239 0.9749 0.0239 0.7751 0.3199 0.7751 0.3199 0.9749 0.0239 0.9749 0.3199 0.7751 0.3199 0.9749 0.0239 0.7751 0.0239 0.9749 " />
						</IndexedTriangleSet>
					</Shape>
				</Group>
			</Transform>
			<Transform DEF="head_TRANSFORM"
			           translation="0.000000 -1.413637 0.398623"
			           scale="1.000000 1.000000 1.000000"
			           rotation="0.000000 1.000000 0.000000 0.000000"
			           >
				<Transform DEF="head_ifs_TRANSFORM"
				           translation="0.000000 0.000000 0.000000"
				           scale="1.000000 1.000000 1.000000"
				           rotation="0.000000 1.000000 0.000000 0.000000"
				           >
					<Group DEF="group_ME_head">
						<Shape>
							<Appearance>
								<Material USE="MA_Body" />
							</Appearance>
							<IndexedTriangleSet solid="false"
							                    normalPerVertex="true"
							                    index="0 1 2 0 2 3 4 5 6 4 6 7 8 9 10 8 10 11 12 13 14 12 14 15 16 17 18 16 18 19 17 0 3 17 3 18 20 21 22 20 22 23 24 25 20 24 20 23 26 27 28 26 28 29 30 31 32 30 32 33 34 1 0 34 0 35 36 8 11 36 11 37 32 38 39 32 39 33 40 17 16 40 16 41 27 42 43 27 43 28 35 0 17 35 17 40 44 45 42 44 42 27 46 47 8 46 8 36 48 44 27 48 27 26 49 50 4 49 4 13 51 49 13 51 13 12 47 52 9 47 9 8 50 53 5 50 5 4 54 55 56 54 56 57 58 59 60 58 60 61 62 63 64 62 64 65 66 67 68 66 68 69 70 71 72 70 72 73 73 72 55 73 55 54 74 75 22 74 22 21 76 75 74 76 74 77 78 79 80 78 80 81 82 83 84 82 84 85 34 35 54 34 54 57 36 37 63 36 63 62 84 83 39 84 39 38 40 41 70 40 70 73 81 80 43 81 43 42 35 40 73 35 73 54 86 81 42 86 42 45 46 36 62 46 62 87 88 78 81 88 81 86 89 69 58 89 58 90 91 66 69 91 69 89 87 62 65 87 65 92 90 58 61 90 61 93 "
							                    >
								<Coordinate point="0.647049 0.031838 0.686051 0.647049 0.042751 0.921207 1.099235 0.042751 0.921207 1.099235 0.031838 0.686051 1.099235 -0.669364 0.718592 1.099235 -0.658451 0.953748 1.099235 -0.966677 0.968052 1.099235 -0.977590 0.732896 0.647049 -0.743953 -0.888666 1.099235 -0.743953 -0.888666 1.099235 -1.052178 -0.874362 0.647049 -1.052178 -0.874362 1.099235 -0.743953 -0.888666 1.099235 -0.733040 -0.653511 1.099235 -1.041265 -0.639207 1.099235 -1.052178 -0.874362 0.647049 -0.042751 -0.921207 0.647049 -0.031838 -0.686052 1.099235 -0.031838 -0.686052 1.099235 -0.042751 -0.921207 0.647049 -1.041265 -0.639207 0.000000 -1.041265 -0.639207 0.000000 -1.052178 -0.874362 0.647049 -1.052178 -0.874362 1.099235 -1.052178 -0.874362 1.099235 -1.041265 -0.639207 1.099235 -0.658451 0.953748 0.647049 -0.658451 0.953748 0.647049 -0.966677 0.968052 1.099235 -0.966677 0.968052 1.099235 -0.977590 0.732896 1.099235 -0.966677 0.968052 0.647049 -0.966677 0.968052 0.647049 -0.977590 0.732896 0.000000 0.042751 0.921207 0.000000 0.031838 0.686051 0.000000 -0.743953 -0.888666 0.000000 -1.052178 -0.874362 0.000000 -0.966677 0.968052 0.000000 -0.977590 0.732896 0.000000 -0.031838 -0.686052 0.000000 -0.042751 -0.921207 0.000000 -0.658451 0.953748 0.000000 -0.966677 0.968052 0.647049 0.042751 0.921207 0.000000 0.042751 0.921207 0.000000 -0.042751 -0.921207 0.647049 -0.042751 -0.921207 1.099235 0.042751 0.921207 1.099235 -0.031838 -0.686052 1.099235 0.031838 0.686051 1.099235 -0.042751 -0.921207 1.099235 -0.042751 -0.921207 1.099235 0.042751 0.921207 -0.647049 0.031838 0.686051 -1.099235 0.031838 0.686051 -1.099235 0.042751 0.921207 -0.647049 0.042751 0.921207 -1.099235 -0.669364 0.718592 -1.099235 -0.977590 0.732896 -1.099235 -0.966677 0.968052 -1.099235 -0.658451 0.953748 -0.647049 -0.743953 -0.888666 -0.647049 -1.052178 -0.874362 -1.099235 -1.052178 -0.874362 -1.099235 -0.743953 -0.888666 -1.099235 -0.743953 -0.888666 -1.099235 -1.052178 -0.874362 -1.099235 -1.041265 -0.639207 -1.099235 -0.733040 -0.653511 -0.647049 -0.042751 -0.921207 -1.099235 -0.042751 -0.921207 -1.099235 -0.031838 -0.686052 -0.647049 -0.031838 -0.686052 -0.647049 -1.041265 -0.639207 -0.647049 -1.052178 -0.874362 -1.099235 -1.052178 -0.874362 -1.099235 -1.041265 -0.639207 -1.099235 -0.658451 0.953748 -1.099235 -0.966677 0.968052 -0.647049 -0.966677 0.968052 -0.647049 -0.658451 0.953748 -1.099235 -0.977590 0.732896 -0.647049 -0.977590 0.732896 -0.647049 -0.966677 0.968052 -1.099235 -0.966677 0.968052 -0.647049 0.042751 0.921207 -0.647049 -0.042751 -0.921207 -1.099235 0.042751 0.921207 -1.099235 -0.031838 -0.686052 -1.099235 0.031838 0.686051 -1.099235 -0.042751 -0.921207 -1.099235 -0.042751 -0.921207 -1.099235 0.042751 0.921207 " />
								<Normal vector="0.000000 0.998901 -0.046327 0.000000 0.739097 0.673544 0.577349 0.603473 0.549944 0.707083 0.706320 -0.032777 1.000000 0.000000 0.000000 0.707083 0.032777 0.706320 0.577349 -0.549944 0.603473 0.707083 -0.706320 0.032777 0.000000 -0.046327 -0.998901 0.707083 -0.032777 -0.706320 0.577349 -0.603473 -0.549944 0.000000 -0.739097 -0.673544 0.707083 -0.032777 -0.706320 1.000000 0.000000 0.000000 0.707083 -0.706320 0.032777 0.577349 -0.603473 -0.549944 0.000000 0.673544 -0.739097 0.000000 0.998901 -0.046327 0.707083 0.706320 -0.032777 0.577349 0.549944 -0.603473 0.000000 -0.998901 0.046327 0.000000 -0.998901 0.046327 0.000000 -0.739097 -0.673544 0.000000 -0.739097 -0.673544 0.577349 -0.603473 -0.549944 0.707083 -0.706320 0.032777 0.707083 0.032777 0.706320 0.000000 0.046327 0.998901 0.000000 -0.673544 0.739097 0.577349 -0.549944 0.603473 0.707083 -0.706320 0.032777 0.577349 -0.549944 0.603473 0.000000 -0.673544 0.739097 0.000000 -0.998901 0.046358 0.000000 0.739097 0.673544 0.000000 0.998901 -0.046327 0.000000 -0.046327 -0.998901 0.000000 -0.739097 -0.673544 0.000000 -0.673544 0.739097 0.000000 -0.998901 0.046358 0.000000 0.998901 -0.046327 0.000000 0.673544 -0.739097 0.000000 0.046327 0.998901 0.000000 -0.673544 0.739097 0.000000 0.739097 0.673544 0.000000 0.739097 0.673544 0.000000 0.673544 -0.739097 0.000000 0.673544 -0.739097 0.577349 0.603473 0.549944 0.707083 0.706320 -0.032777 0.707083 0.706320 -0.032777 0.577349 0.549944 -0.603473 0.577349 0.549944 -0.603473 0.577349 0.603473 0.549944 0.000000 0.998901 -0.046327 -0.707083 0.706320 -0.032777 -0.577349 0.603473 0.549944 0.000000 0.739097 0.673544 -1.000000 0.000000 0.000000 -0.707083 -0.706320 0.032777 -0.577349 -0.549944 0.603473 -0.707083 0.032777 0.706320 0.000000 -0.046327 -0.998901 0.000000 -0.739097 -0.673544 -0.577349 -0.603473 -0.549944 -0.707083 -0.032777 -0.706320 -0.707083 -0.032777 -0.706320 -0.577349 -0.603473 -0.549944 -0.707083 -0.706320 0.032777 -1.000000 0.000000 0.000000 0.000000 0.673544 -0.739097 -0.577349 0.549944 -0.603473 -0.707083 0.706320 -0.032777 0.000000 0.998901 -0.046327 0.000000 -0.998901 0.046327 0.000000 -0.739097 -0.673544 -0.577349 -0.603473 -0.549944 -0.707083 -0.706320 0.032777 -0.707083 0.032777 0.706320 -0.577349 -0.549944 0.603473 0.000000 -0.673544 0.739097 0.000000 0.046327 0.998901 -0.707083 -0.706320 0.032777 0.000000 -0.998901 0.046358 0.000000 -0.673544 0.739097 -0.577349 -0.549944 0.603473 0.000000 0.739097 0.673544 0.000000 0.673544 -0.739097 -0.577349 0.603473 0.549944 -0.707083 0.706320 -0.032777 -0.707083 0.706320 -0.032777 -0.577349 0.549944 -0.603473 -0.577349 0.549944 -0.603473 -0.577349 0.603473 0.549944 " />
								<TextureCoordinate point="0.2212 0.9083 0.3199 0.9083 0.3199 0.9749 0.2212 0.9749 0.2212 0.9139 0.3199 0.9139 0.3199 0.9749 0.2212 0.9749 0.2212 0.9139 0.3199 0.9139 0.3199 0.9749 0.2212 0.9749 0.0239 0.9139 0.1225 0.9139 0.1225 0.9749 0.0239 0.9749 0.0239 0.9083 0.1225 0.9083 0.1225 0.9749 0.0239 0.9749 0.1225 0.8417 0.1225 0.8750 0.0239 0.8750 0.0239 0.8417 0.0239 0.7751 0.1225 0.7751 0.0239 0.9139 0.1225 0.9139 0.1225 0.9749 0.0239 0.9749 0.2212 0.7751 0.3199 0.7751 0.3199 0.8417 0.2212 0.8417 0.3199 0.8750 0.2212 0.8750 0.1719 0.9139 0.1719 0.9749 0.3199 0.8750 0.2212 0.8750 0.1225 0.8750 0.0239 0.8750 0.1719 0.9139 0.1719 0.9749 0.1225 0.7751 0.1719 0.7751 0.1719 0.7751 0.2212 0.7751 0.0239 0.7751 0.1225 0.7751 0.2212 0.7751 0.0239 0.7751 0.3199 0.7751 0.3199 0.7751 0.2212 0.9083 0.2212 0.9749 0.3199 0.9749 0.3199 0.9083 0.2212 0.9139 0.2212 0.9749 0.3199 0.9749 0.3199 0.9139 0.2212 0.9139 0.2212 0.9749 0.3199 0.9749 0.3199 0.9139 0.0239 0.9139 0.0239 0.9749 0.1225 0.9749 0.1225 0.9139 0.0239 0.9083 0.0239 0.9749 0.1225 0.9749 0.1225 0.9083 0.1225 0.8417 0.0239 0.8417 0.0239 0.7751 0.1225 0.7751 0.0239 0.9139 0.0239 0.9749 0.1225 0.9749 0.1225 0.9139 0.2212 0.7751 0.2212 0.8417 0.3199 0.8417 0.3199 0.7751 0.1225 0.7751 0.2212 0.7751 0.0239 0.7751 0.1225 0.7751 0.2212 0.7751 0.0239 0.7751 0.3199 0.7751 0.3199 0.7751 " />
							</IndexedTriangleSet>
						</Shape>
						<Shape>
							<Appearance>
								<Material DEF="MA_Eye"
								          diffuseColor="0.800 0.800 0.800"
								          specularColor="0.401 0.401 0.401"
								          emissiveColor="0.000 0.000 0.000"
								          ambientIntensity="0.000"
								          shininess="0.500"
								          transparency="0.0"
								          />
							</Appearance>
							<IndexedTriangleSet solid="false"
							                    normalPerVertex="true"
							                    index="0 1 2 0 2 3 4 5 6 4 6 7 8 9 10 8 10 11 12 13 14 12 14 15 16 17 18 16 18 19 20 21 10 20 10 9 "
							                    >
								<Coordinate point="1.099235 -0.733040 -0.653511 1.099235 -0.669364 0.718592 1.099235 -0.977590 0.732896 1.099235 -1.041265 -0.639207 1.099235 -1.041265 -0.639207 1.099235 -0.977590 0.732896 0.647049 -0.977590 0.732896 0.647049 -1.041265 -0.639207 0.647049 -0.977590 0.732896 0.000000 -0.977590 0.732896 0.000000 -1.041265 -0.639207 0.647049 -1.041265 -0.639207 -1.099235 -0.733040 -0.653511 -1.099235 -1.041265 -0.639207 -1.099235 -0.977590 0.732896 -1.099235 -0.669364 0.718592 -1.099235 -1.041265 -0.639207 -0.647049 -1.041265 -0.639207 -0.647049 -0.977590 0.732896 -1.099235 -0.977590 0.732896 -0.647049 -0.977590 0.732896 -0.647049 -1.041265 -0.639207 " />
								<Normal vector="1.000000 0.000000 0.000000 1.000000 0.000000 0.000000 0.707083 -0.706320 0.032777 0.707083 -0.706320 0.032777 0.707083 -0.706320 0.032777 0.707083 -0.706320 0.032777 0.000000 -0.998901 0.046358 0.000000 -0.998901 0.046327 0.000000 -0.998901 0.046358 0.000000 -0.998901 0.046358 0.000000 -0.998901 0.046327 0.000000 -0.998901 0.046327 -1.000000 0.000000 0.000000 -0.707083 -0.706320 0.032777 -0.707083 -0.706320 0.032777 -1.000000 0.000000 0.000000 -0.707083 -0.706320 0.032777 0.000000 -0.998901 0.046327 0.000000 -0.998901 0.046358 -0.707083 -0.706320 0.032777 0.000000 -0.998901 0.046358 0.000000 -0.998901 0.046327 " />
								<TextureCoordinate point="0.0405 0.9999 0.0405 0.0001 0.1326 0.0001 0.1326 0.9999 0.1483 0.9999 0.1483 0.0001 0.3957 0.0001 0.3957 0.9999 0.3740 0.0001 0.4848 0.0001 0.4848 0.9999 0.3740 0.9999 0.0405 0.9999 0.1326 0.9999 0.1326 0.0001 0.0405 0.0001 0.1483 0.9999 0.3957 0.9999 0.3957 0.0001 0.1483 0.0001 0.3740 0.0001 0.3740 0.9999 " />
							</IndexedTriangleSet>
						</Shape>
					</Group>
				</Transform>
				<Transform DEF="Cube_002_TRANSFORM"
				           translation="0.000000 -0.970697 -0.042568"
				           scale="1.000000 1.000000 1.000000"
				           rotation="0.000000 1.000000 0.000000 0.000000"
				           >
					<Transform DEF="Cube_002_ifs_TRANSFORM"
					           translation="0.000000 0.000000 0.000000"
					           scale="1.000000 1.000000 1.000000"
					           rotation="0.000000 1.000000 0.000000 0.000000"
					           >
						<Group DEF="group_ME_Cube_002">
							<Shape>
								<Appearance>
									<Material USE="MA_Body" />
								</Appearance>
								<IndexedTriangleSet solid="false"
								                    normalPerVertex="true"
								                    index="0 1 2 0 2 3 4 5 6 4 6 7 8 9 10 8 10 11 12 13 14 12 14 15 4 16 17 4 17 15 18 5 14 18 14 19 "
								                    >
									<Coordinate point="-0.136057 -0.440720 -0.135250 -0.136057 -0.451762 0.091856 -0.136057 -0.005521 0.113553 -0.136057 0.005521 -0.113553 -0.136057 0.005521 -0.113553 -0.136057 -0.005521 0.113553 0.136057 -0.005521 0.113553 0.136057 0.005521 -0.113553 0.136057 0.005521 -0.113553 0.136057 -0.005521 0.113553 0.136057 -0.451762 0.091856 0.136057 -0.440720 -0.135250 0.136057 -0.440720 -0.135250 0.136057 -0.451762 0.091856 -0.136057 -0.451762 0.091856 -0.136057 -0.440720 -0.135250 0.136057 0.005521 -0.113553 0.136057 -0.440720 -0.135250 0.136057 -0.005521 0.113553 0.136057 -0.451762 0.091856 " />
									<Normal vector="-0.577349 -0.548601 -0.604694 -0.577349 -0.604694 0.548601 -0.577349 0.548601 0.604694 -0.577349 0.604694 -0.548601 -0.577349 0.604694 -0.548601 -0.577349 0.548601 0.604694 0.577349 0.548601 0.604694 0.577349 0.604694 -0.548601 0.577349 0.604694 -0.548601 0.577349 0.548601 0.604694 0.577349 -0.604694 0.548601 0.577349 -0.548601 -0.604694 0.577349 -0.548601 -0.604694 0.577349 -0.604694 0.548601 -0.577349 -0.604694 0.548601 -0.577349 -0.548601 -0.604694 0.577349 0.604694 -0.548601 0.577349 -0.548601 -0.604694 0.577349 0.548601 0.604694 0.577349 -0.604694 0.548601 " />
									<TextureCoordinate point="0.0239 0.3064 0.3199 0.3064 0.3199 0.5061 0.0239 0.5061 0.0239 0.3064 0.3199 0.3064 0.3199 0.5061 0.0239 0.5061 0.0239 0.3064 0.3199 0.3064 0.3199 0.5061 0.0239 0.5061 0.0239 0.3064 0.3199 0.3064 0.3199 0.5061 0.0239 0.5061 0.3199 0.3064 0.3199 0.5061 0.0239 0.3064 0.0239 0.5061 " />
								</IndexedTriangleSet>
							</Shape>
						</Group>
					</Transform>
					<Transform DEF="Cube_003_TRANSFORM"
					           translation="0.000000 -0.416025 -0.020228"
					           scale="1.000000 1.000000 1.000000"
					           rotation="0.000000 1.000000 0.000000 0.000000"
					           >
						<Transform DEF="Cube_003_ifs_TRANSFORM"
						           translation="0.000000 0.000000 0.000000"
						           scale="1.000000 1.000000 1.000000"
						           rotation="0.000000 1.000000 0.000000 0.000000"
						           >
							<Group DEF="group_ME_Cube_003">
								<Shape>
									<Appearance>
										<Material USE="MA_Body" />
									</Appearance>
									<IndexedTriangleSet solid="false"
									                    normalPerVertex="true"
									                    index="0 1 2 0 2 3 4 5 6 4 6 7 8 9 10 8 10 11 12 13 14 12 14 15 4 16 17 4 17 15 18 5 14 18 14 19 "
									                    >
										<Coordinate point="-0.109762 -0.454518 -0.113923 -0.109762 -0.463427 0.069292 -0.109762 -0.004454 0.091607 -0.109762 0.004454 -0.091607 -0.109762 0.004454 -0.091607 -0.109762 -0.004454 0.091607 0.109762 -0.004454 0.091607 0.109762 0.004454 -0.091607 0.109762 0.004454 -0.091607 0.109762 -0.004454 0.091607 0.109762 -0.463427 0.069292 0.109762 -0.454518 -0.113923 0.109762 -0.454518 -0.113923 0.109762 -0.463427 0.069292 -0.109762 -0.463427 0.069292 -0.109762 -0.454518 -0.113923 0.109762 0.004454 -0.091607 0.109762 -0.454518 -0.113923 0.109762 -0.004454 0.091607 0.109762 -0.463427 0.069292 " />
										<Normal vector="-0.577349 -0.548601 -0.604694 -0.577349 -0.604694 0.548601 -0.577349 0.548601 0.604694 -0.577349 0.604694 -0.548601 -0.577349 0.604694 -0.548601 -0.577349 0.548601 0.604694 0.577349 0.548601 0.604694 0.577349 0.604694 -0.548601 0.577349 0.604694 -0.548601 0.577349 0.548601 0.604694 0.577349 -0.604694 0.548601 0.577349 -0.548601 -0.604694 0.577349 -0.548601 -0.604694 0.577349 -0.604694 0.548601 -0.577349 -0.604694 0.548601 -0.577349 -0.548601 -0.604694 0.577349 0.604694 -0.548601 0.577349 -0.548601 -0.604694 0.577349 0.548601 0.604694 0.577349 -0.604694 0.548601 " />
										<TextureCoordinate point="0.0239 0.3064 0.3199 0.3064 0.3199 0.5061 0.0239 0.5061 0.0239 0.3064 0.3199 0.3064 0.3199 0.5061 0.0239 0.5061 0.0239 0.3064 0.3199 0.3064 0.3199 0.5061 0.0239 0.5061 0.0239 0.3064 0.3199 0.3064 0.3199 0.5061 0.0239 0.5061 0.3199 0.3064 0.3199 0.5061 0.0239 0.3064 0.0239 0.5061 " />
									</IndexedTriangleSet>
								</Shape>
							</Group>
						</Transform>
						<Transform DEF="Cube_004_TRANSFORM"
						           translation="0.000000 -0.422906 -0.020562"
						           scale="1.000000 1.000000 1.000000"
						           rotation="0.000000 1.000000 0.000000 0.000000"
						           >
							<Transform DEF="Cube_004_ifs_TRANSFORM"
							           translation="0.000000 0.000000 0.000000"
							           scale="1.000000 1.000000 1.000000"
							           rotation="0.000000 1.000000 0.000000 0.000000"
							           >
								<Group DEF="group_ME_Cube_004">
									<Shape>
										<Appearance>
											<Material USE="MA_Body" />
										</Appearance>
										<IndexedTriangleSet solid="false"
										                    normalPerVertex="true"
										                    index="0 1 2 0 2 3 4 5 6 4 6 7 8 9 10 8 10 11 12 13 14 12 14 15 4 16 17 4 17 15 18 5 14 18 14 19 "
										                    >
											<Coordinate point="-0.078075 -0.532505 -0.091207 -0.078075 -0.538841 0.039116 -0.078075 -0.003168 0.065161 -0.078075 0.003168 -0.065161 -0.078075 0.003168 -0.065161 -0.078075 -0.003168 0.065161 0.078075 -0.003168 0.065161 0.078075 0.003168 -0.065161 0.078075 0.003168 -0.065161 0.078075 -0.003168 0.065161 0.078075 -0.538841 0.039116 0.078075 -0.532505 -0.091207 0.078075 -0.532505 -0.091207 0.078075 -0.538841 0.039116 -0.078075 -0.538841 0.039116 -0.078075 -0.532505 -0.091207 0.078075 0.003168 -0.065161 0.078075 -0.532505 -0.091207 0.078075 -0.003168 0.065161 0.078075 -0.538841 0.039116 " />
											<Normal vector="-0.577349 -0.548601 -0.604694 -0.577349 -0.604694 0.548601 -0.577349 0.548601 0.604694 -0.577349 0.604694 -0.548601 -0.577349 0.604694 -0.548601 -0.577349 0.548601 0.604694 0.577349 0.548601 0.604694 0.577349 0.604694 -0.548601 0.577349 0.604694 -0.548601 0.577349 0.548601 0.604694 0.577349 -0.604694 0.548601 0.577349 -0.548601 -0.604694 0.577349 -0.548601 -0.604694 0.577349 -0.604694 0.548601 -0.577349 -0.604694 0.548601 -0.577349 -0.548601 -0.604694 0.577349 0.604694 -0.548601 0.577349 -0.548601 -0.604694 0.577349 0.548601 0.604694 0.577349 -0.604694 0.548601 " />
											<TextureCoordinate point="0.0239 0.3064 0.3199 0.3064 0.3199 0.5061 0.0239 0.5061 0.0239 0.3064 0.3199 0.3064 0.3199 0.5061 0.0239 0.5061 0.0239 0.3064 0.3199 0.3064 0.3199 0.5061 0.0239 0.5061 0.0239 0.3064 0.3199 0.3064 0.3199 0.5061 0.0239 0.5061 0.3199 0.3064 0.3199 0.5061 0.0239 0.3064 0.0239 0.5061 " />
										</IndexedTriangleSet>
									</Shape>
								</Group>
							</Transform>
						</Transform>
					</Transform>
				</Transform>
				<Transform DEF="Cube_010_TRANSFORM"
				           translation="-0.103814 -0.916550 0.722487"
				           scale="1.000000 1.000000 1.000000"
				           rotation="0.000000 1.000000 0.000000 0.000000"
				           >
					<Transform DEF="Cube_010_ifs_TRANSFORM"
					           translation="0.000000 0.000000 0.000000"
					           scale="1.000000 1.000000 1.000000"
					           rotation="0.000000 1.000000 0.000000 0.000000"
					           >
						<Group DEF="group_ME_Cube_010">
							<Shape>
								<Appearance>
									<Material USE="MA_Body" />
								</Appearance>
								<IndexedTriangleSet solid="false"
								                    normalPerVertex="true"
								                    index="0 1 2 0 2 3 4 5 6 4 6 7 8 9 10 8 10 11 12 13 14 12 14 15 4 16 17 4 17 15 18 5 14 18 14 19 "
								                    >
									<Coordinate point="-0.060063 -0.062044 -0.030475 -0.115510 -0.118169 0.279581 -0.119493 0.008810 0.301854 -0.064046 0.064935 -0.008202 -0.064046 0.064935 -0.008202 -0.119493 0.008810 0.301854 0.007472 0.008810 0.324559 0.062919 0.064935 0.014503 0.062919 0.064935 0.014503 0.007472 0.008810 0.324559 0.011455 -0.118169 0.302287 0.066902 -0.062044 -0.007770 0.066902 -0.062044 -0.007770 0.011455 -0.118169 0.302287 -0.115510 -0.118169 0.279581 -0.060063 -0.062044 -0.030475 0.062919 0.064935 0.014503 0.066902 -0.062044 -0.007770 0.007472 0.008810 0.324559 0.011455 -0.118169 0.302287 " />
									<Normal vector="-0.450423 -0.467086 -0.760826 -0.650563 -0.669668 0.358165 -0.686209 0.467086 0.557573 -0.486099 0.669668 -0.561449 -0.486099 0.669668 -0.561449 -0.686209 0.467086 0.557573 0.450423 0.467086 0.760826 0.650563 0.669668 -0.358165 0.650563 0.669668 -0.358165 0.450423 0.467086 0.760826 0.486099 -0.669668 0.561449 0.686209 -0.467086 -0.557573 0.686209 -0.467086 -0.557573 0.486099 -0.669668 0.561449 -0.650563 -0.669668 0.358165 -0.450423 -0.467086 -0.760826 0.650563 0.669668 -0.358165 0.686209 -0.467086 -0.557573 0.450423 0.467086 0.760826 0.486099 -0.669668 0.561449 " />
									<TextureCoordinate point="0.0239 0.5547 0.3199 0.5547 0.3199 0.7344 0.0239 0.7344 0.0239 0.5547 0.3199 0.5547 0.3199 0.7344 0.0239 0.7344 0.0239 0.5547 0.3199 0.5547 0.3199 0.7344 0.0239 0.7344 0.0239 0.5547 0.3199 0.5547 0.3199 0.7344 0.0239 0.7344 0.3199 0.5547 0.3199 0.7344 0.0239 0.5547 0.0239 0.7344 " />
								</IndexedTriangleSet>
							</Shape>
						</Group>
					</Transform>
					<Transform DEF="Cube_011_TRANSFORM"
					           translation="-0.047585 -0.048167 0.266092"
					           scale="1.000000 1.000000 1.000000"
					           rotation="0.000000 1.000000 0.000000 0.000000"
					           >
						<Transform DEF="Cube_011_ifs_TRANSFORM"
						           translation="0.000000 0.000000 0.000000"
						           scale="1.000000 1.000000 1.000000"
						           rotation="0.000000 1.000000 0.000000 0.000000"
						           >
							<Group DEF="group_ME_Cube_011">
								<Shape>
									<Appearance>
										<Material USE="MA_Body" />
									</Appearance>
									<IndexedTriangleSet solid="false"
									                    normalPerVertex="true"
									                    index="0 1 2 0 2 3 4 5 6 4 6 7 8 9 10 8 10 11 12 13 14 12 14 15 4 16 17 4 17 15 18 5 14 18 14 19 "
									                    >
										<Coordinate point="-0.046994 -0.059678 0.018946 0.047400 0.043941 0.377743 0.031280 0.149365 0.351539 -0.063114 0.045746 -0.007259 -0.063114 0.045746 -0.007259 0.031280 0.149365 0.351539 0.136526 0.157958 0.321368 0.042132 0.054340 -0.037429 0.042132 0.054340 -0.037429 0.136526 0.157958 0.321368 0.152646 0.052534 0.347573 0.058252 -0.051084 -0.011224 0.058252 -0.051084 -0.011224 0.152646 0.052534 0.347573 0.047400 0.043941 0.377743 -0.046994 -0.059678 0.018946 0.042132 0.054340 -0.037429 0.058252 -0.051084 -0.011224 0.136526 0.157958 0.321368 0.152646 0.052534 0.347573 " />
										<Normal vector="-0.610004 -0.754692 -0.241371 -0.327067 -0.444075 0.834132 -0.496536 0.664357 0.558611 -0.779504 0.353740 -0.516923 -0.779504 0.353740 -0.516923 -0.496536 0.664357 0.558611 0.610004 0.754692 0.241371 0.327067 0.444075 -0.834132 0.327067 0.444075 -0.834132 0.610004 0.754692 0.241371 0.779504 -0.353740 0.516923 0.496536 -0.664357 -0.558611 0.496536 -0.664357 -0.558611 0.779504 -0.353740 0.516923 -0.327067 -0.444075 0.834132 -0.610004 -0.754692 -0.241371 0.327067 0.444075 -0.834132 0.496536 -0.664357 -0.558611 0.610004 0.754692 0.241371 0.779504 -0.353740 0.516923 " />
										<TextureCoordinate point="0.0239 0.5547 0.3199 0.5547 0.3199 0.7344 0.0239 0.7344 0.0239 0.5547 0.3199 0.5547 0.3199 0.7344 0.0239 0.7344 0.0239 0.5547 0.3199 0.5547 0.3199 0.7344 0.0239 0.7344 0.0239 0.5547 0.3199 0.5547 0.3199 0.7344 0.0239 0.7344 0.3199 0.5547 0.3199 0.7344 0.0239 0.5547 0.0239 0.7344 " />
									</IndexedTriangleSet>
								</Shape>
							</Group>
						</Transform>
					</Transform>
				</Transform>
				<Transform DEF="Cube_012_TRANSFORM"
				           translation="0.012302 -0.964716 0.902061"
				           scale="1.000000 1.000000 1.000000"
				           rotation="0.000000 1.000000 0.000000 0.000000"
				           >
					<Transform DEF="Cube_012_ifs_TRANSFORM"
					           translation="0.000000 0.000000 0.000000"
					           scale="1.000000 1.000000 1.000000"
					           rotation="0.000000 1.000000 0.000000 0.000000"
					           >
						<Group DEF="group_ME_Cube_012">
							<Shape>
								<Appearance>
									<Material USE="MA_Body" />
								</Appearance>
								<IndexedTriangleSet solid="false"
								                    normalPerVertex="true"
								                    index="0 1 2 0 2 3 4 5 6 4 6 7 8 9 10 8 10 11 12 13 14 12 14 15 4 16 17 4 17 15 18 5 14 18 14 19 "
								                    >
									<Coordinate point="-0.037751 -0.047940 0.015220 0.038078 0.035299 0.303450 0.025128 0.119988 0.282399 -0.050701 0.036749 -0.005831 -0.050701 0.036749 -0.005831 0.025128 0.119988 0.282399 0.109675 0.126891 0.258162 0.033845 0.043652 -0.030068 0.033845 0.043652 -0.030068 0.109675 0.126891 0.258162 0.122624 0.042202 0.279213 0.046795 -0.041037 -0.009017 0.046795 -0.041037 -0.009017 0.122624 0.042202 0.279213 0.038078 0.035299 0.303450 -0.037751 -0.047940 0.015220 0.033845 0.043652 -0.030068 0.046795 -0.041037 -0.009017 0.109675 0.126891 0.258162 0.122624 0.042202 0.279213 " />
									<Normal vector="-0.610004 -0.754692 -0.241371 -0.327067 -0.444075 0.834132 -0.496536 0.664357 0.558611 -0.779504 0.353740 -0.516923 -0.779504 0.353740 -0.516923 -0.496536 0.664357 0.558611 0.610004 0.754692 0.241371 0.327067 0.444075 -0.834132 0.327067 0.444075 -0.834132 0.610004 0.754692 0.241371 0.779504 -0.353740 0.516923 0.496536 -0.664357 -0.558611 0.496536 -0.664357 -0.558611 0.779504 -0.353740 0.516923 -0.327067 -0.444075 0.834132 -0.610004 -0.754692 -0.241371 0.327067 0.444075 -0.834132 0.496536 -0.664357 -0.558611 0.610004 0.754692 0.241371 0.779504 -0.353740 0.516923 " />
									<TextureCoordinate point="0.0239 0.5547 0.3199 0.5547 0.3199 0.7344 0.0239 0.7344 0.0239 0.5547 0.3199 0.5547 0.3199 0.7344 0.0239 0.7344 0.0239 0.5547 0.3199 0.5547 0.3199 0.7344 0.0239 0.7344 0.0239 0.5547 0.3199 0.5547 0.3199 0.7344 0.0239 0.7344 0.3199 0.5547 0.3199 0.7344 0.0239 0.5547 0.0239 0.7344 " />
								</IndexedTriangleSet>
							</Shape>
						</Group>
					</Transform>
				</Transform>
			</Transform>
			<Transform DEF="Cube_005_TRANSFORM"
			           translation="0.000000 -0.219724 0.040544"
			           scale="1.000000 1.000000 1.000000"
			           rotation="0.000000 1.000000 0.000000 0.000000"
			           >
				<Transform DEF="Cube_005_ifs_TRANSFORM"
				           translation="0.000000 0.000000 0.000000"
				           scale="1.000000 1.000000 1.000000"
				           rotation="0.000000 1.000000 0.000000 0.000000"
				           >
					<Group DEF="group_ME_Cube_005">
						<Shape>
							<Appearance>
								<Material USE="MA_Body" />
							</Appearance>
							<IndexedTriangleSet solid="false"
							                    normalPerVertex="true"
							                    index="0 1 2 0 2 3 4 5 6 4 6 7 8 9 10 8 10 11 12 13 14 12 14 15 4 16 17 4 17 15 18 5 14 18 14 19 "
							                    >
								<Coordinate point="-1.350192 -0.577898 -1.086081 -1.350192 0.577898 1.086081 -1.350192 1.381683 0.658391 -1.350192 0.225888 -1.513771 -1.350192 0.225888 -1.513771 -1.350192 1.381683 0.658391 1.350192 1.381683 0.658391 1.350192 0.225888 -1.513771 1.350192 0.225888 -1.513771 1.350192 1.381683 0.658391 1.350192 0.577898 1.086081 1.350192 -0.577898 -1.086081 1.350192 -0.577898 -1.086081 1.350192 0.577898 1.086081 -1.350192 0.577898 1.086081 -1.350192 -0.577898 -1.086081 1.350192 0.225888 -1.513771 1.350192 -0.577898 -1.086081 1.350192 1.381683 0.658391 1.350192 0.577898 1.086081 " />
								<Normal vector="-0.577349 -0.780877 -0.238472 -0.577349 -0.238472 0.780877 -0.577349 0.780877 0.238472 -0.577349 0.238472 -0.780877 -0.577349 0.238472 -0.780877 -0.577349 0.780877 0.238472 0.577349 0.780877 0.238472 0.577349 0.238472 -0.780877 0.577349 0.238472 -0.780877 0.577349 0.780877 0.238472 0.577349 -0.238472 0.780877 0.577349 -0.780877 -0.238472 0.577349 -0.780877 -0.238472 0.577349 -0.238472 0.780877 -0.577349 -0.238472 0.780877 -0.577349 -0.780877 -0.238472 0.577349 0.238472 -0.780877 0.577349 -0.780877 -0.238472 0.577349 0.780877 0.238472 0.577349 -0.238472 0.780877 " />
								<TextureCoordinate point="0.0239 0.5482 0.3199 0.5482 0.3199 0.7253 0.0239 0.7253 0.0239 0.5482 0.3199 0.5482 0.3199 0.7253 0.0239 0.7253 0.0239 0.5482 0.3199 0.5482 0.3199 0.7253 0.0239 0.7253 0.0239 0.5482 0.3199 0.5482 0.3199 0.7253 0.0239 0.7253 0.3199 0.5482 0.3199 0.7253 0.0239 0.5482 0.0239 0.7253 " />
							</IndexedTriangleSet>
						</Shape>
					</Group>
				</Transform>
				<Transform DEF="Cube_007_TRANSFORM"
				           translation="0.000000 0.504525 -0.268455"
				           scale="1.000000 1.000000 1.000000"
				           rotation="0.000000 1.000000 0.000000 0.000000"
				           >
					<Transform DEF="Cube_007_ifs_TRANSFORM"
					           translation="0.000000 0.000000 0.000000"
					           scale="1.000000 1.000000 1.000000"
					           rotation="0.000000 1.000000 0.000000 0.000000"
					           >
						<Group DEF="group_ME_Cube_007">
							<Shape>
								<Appearance>
									<Material USE="MA_Body" />
								</Appearance>
								<IndexedTriangleSet solid="false"
								                    normalPerVertex="true"
								                    index="0 1 2 0 2 3 4 5 6 4 6 7 8 9 10 8 10 11 12 13 14 12 14 15 4 16 17 4 17 15 18 5 14 18 14 19 "
								                    >
									<Coordinate point="-1.103817 0.192939 0.664892 0.586952 0.324185 1.117188 0.586952 0.955414 0.934019 -1.103817 0.824167 0.481723 -1.103817 0.824167 0.481723 0.586952 0.955414 0.934019 1.103817 0.438290 -0.848062 -0.586952 0.307043 -1.300358 -0.586952 0.307043 -1.300358 1.103817 0.438290 -0.848062 1.103817 -0.192939 -0.664892 -0.586952 -0.324185 -1.117188 -0.586952 -0.324185 -1.117188 1.103817 -0.192939 -0.664892 0.586952 0.324185 1.117188 -1.103817 0.192939 0.664892 -0.586952 0.307043 -1.300358 -0.586952 -0.324185 -1.117188 1.103817 0.438290 -0.848062 1.103817 -0.192939 -0.664892 " />
									<Normal vector="-0.711081 -0.442640 0.546251 0.401227 -0.356304 0.843806 0.401257 0.752647 0.522019 -0.711081 0.666280 0.224433 -0.711081 0.666280 0.224433 0.401257 0.752647 0.522019 0.711081 0.442640 -0.546251 -0.401227 0.356304 -0.843806 -0.401227 0.356304 -0.843806 0.711081 0.442640 -0.546251 0.711081 -0.666280 -0.224433 -0.401257 -0.752647 -0.522019 -0.401257 -0.752647 -0.522019 0.711081 -0.666280 -0.224433 0.401227 -0.356304 0.843806 -0.711081 -0.442640 0.546251 -0.401227 0.356304 -0.843806 -0.401257 -0.752647 -0.522019 0.711081 0.442640 -0.546251 0.711081 -0.666280 -0.224433 " />
									<TextureCoordinate point="0.0239 0.5482 0.3199 0.5482 0.3199 0.7253 0.0239 0.7253 0.0239 0.5482 0.3199 0.5482 0.3199 0.7253 0.0239 0.7253 0.0239 0.5482 0.3199 0.5482 0.3199 0.7253 0.0239 0.7253 0.0239 0.5482 0.3199 0.5482 0.3199 0.7253 0.0239 0.7253 0.3199 0.5482 0.3199 0.7253 0.0239 0.5482 0.0239 0.7253 " />
								</IndexedTriangleSet>
							</Shape>
						</Group>
					</Transform>
					<Transform DEF="Cube_006_TRANSFORM"
					           translation="-0.000000 -0.000000 0.000000"
					           scale="1.000000 1.000000 1.000000"
					           rotation="0.000000 1.000000 0.000000 0.000000"
					           >
						<Transform DEF="Cube_006_ifs_TRANSFORM"
						           translation="0.000000 0.000000 0.000000"
						           scale="1.000000 1.000000 1.000000"
						           rotation="0.000000 1.000000 0.000000 0.000000"
						           >
							<Group DEF="group_ME_Cube_006">
								<Shape>
									<Appearance>
										<Material USE="MA_Body" />
									</Appearance>
									<IndexedTriangleSet solid="false"
									                    normalPerVertex="true"
									                    index="0 1 2 0 2 3 4 5 6 4 6 7 8 9 10 8 10 11 12 13 14 12 14 15 4 16 17 4 17 15 18 5 14 18 14 19 "
									                    >
										<Coordinate point="-0.964518 0.012493 0.043052 -0.044828 0.268795 0.926306 -0.044828 1.136734 0.674448 -0.964518 0.880431 -0.208806 -0.964518 0.880431 -0.208806 -0.044828 1.136734 0.674448 0.964518 0.855446 -0.294910 0.044828 0.599143 -1.178164 0.044828 0.599143 -1.178164 0.964518 0.855446 -0.294910 0.964518 -0.012493 -0.043052 0.044828 -0.268795 -0.926306 0.044828 -0.268795 -0.926306 0.964518 -0.012493 -0.043052 -0.044828 0.268795 0.926306 -0.964518 0.012493 0.043052 0.044828 0.599143 -1.178164 0.044828 -0.268795 -0.926306 0.964518 0.855446 -0.294910 0.964518 -0.012493 -0.043052 " />
										<Normal vector="-0.816492 -0.554460 0.160894 0.000000 -0.326914 0.945036 0.000000 0.782006 0.623249 -0.816492 0.554460 -0.160894 -0.816492 0.554460 -0.160894 0.000000 0.782006 0.623249 0.816492 0.554460 -0.160894 0.000000 0.326914 -0.945036 0.000000 0.326914 -0.945036 0.816492 0.554460 -0.160894 0.816492 -0.554460 0.160894 0.000000 -0.782006 -0.623249 0.000000 -0.782006 -0.623249 0.816492 -0.554460 0.160894 0.000000 -0.326914 0.945036 -0.816492 -0.554460 0.160894 0.000000 0.326914 -0.945036 0.000000 -0.782006 -0.623249 0.816492 0.554460 -0.160894 0.816492 -0.554460 0.160894 " />
										<TextureCoordinate point="0.0239 0.5482 0.3199 0.5482 0.3199 0.7253 0.0239 0.7253 0.0239 0.5482 0.3199 0.5482 0.3199 0.7253 0.0239 0.7253 0.0239 0.5482 0.3199 0.5482 0.3199 0.7253 0.0239 0.7253 0.0239 0.5482 0.3199 0.5482 0.3199 0.7253 0.0239 0.7253 0.3199 0.5482 0.3199 0.7253 0.0239 0.5482 0.0239 0.7253 " />
									</IndexedTriangleSet>
								</Shape>
							</Group>
						</Transform>
					</Transform>
				</Transform>
			</Transform>
			<Transform DEF="leg1_TRANSFORM"
			           translation="0.701295 -0.315733 -1.127819"
			           scale="1.000000 1.000000 1.000000"
			           rotation="0.000000 1.000000 0.000000 0.000000"
			           >
				<Transform DEF="leg1_ifs_TRANSFORM"
				           translation="0.000000 0.000000 0.000000"
				           scale="1.000000 1.000000 1.000000"
				           rotation="0.000000 1.000000 0.000000 0.000000"
				           >
					<Group DEF="group_ME_leg1">
						<Shape>
							<Appearance>
								<Material USE="MA_Body" />
							</Appearance>
							<IndexedTriangleSet solid="false"
							                    normalPerVertex="true"
							                    index="0 1 2 0 2 3 4 5 6 4 6 7 8 9 10 8 10 11 12 13 14 12 14 15 4 16 17 4 17 15 18 5 14 18 14 19 "
							                    >
								<Coordinate point="-0.051100 -0.051100 -1.672469 -0.051100 -0.051100 0.000000 -0.051100 0.051100 0.000000 -0.051100 0.051100 -1.672469 -0.051100 0.051100 -1.672469 -0.051100 0.051100 0.000000 0.051100 0.051100 0.000000 0.051100 0.051100 -1.672469 0.051100 0.051100 -1.672469 0.051100 0.051100 0.000000 0.051100 -0.051100 0.000000 0.051100 -0.051100 -1.672469 0.051100 -0.051100 -1.672469 0.051100 -0.051100 0.000000 -0.051100 -0.051100 0.000000 -0.051100 -0.051100 -1.672469 0.051100 0.051100 -1.672469 0.051100 -0.051100 -1.672469 0.051100 0.051100 0.000000 0.051100 -0.051100 0.000000 " />
								<Normal vector="-0.577349 -0.577349 -0.577349 -0.577349 -0.577349 0.577349 -0.577349 0.577349 0.577349 -0.577349 0.577349 -0.577349 -0.577349 0.577349 -0.577349 -0.577349 0.577349 0.577349 0.577349 0.577349 0.577349 0.577349 0.577349 -0.577349 0.577349 0.577349 -0.577349 0.577349 0.577349 0.577349 0.577349 -0.577349 0.577349 0.577349 -0.577349 -0.577349 0.577349 -0.577349 -0.577349 0.577349 -0.577349 0.577349 -0.577349 -0.577349 0.577349 -0.577349 -0.577349 -0.577349 0.577349 0.577349 -0.577349 0.577349 -0.577349 -0.577349 0.577349 0.577349 0.577349 0.577349 -0.577349 0.577349 " />
								<TextureCoordinate point="0.0321 0.0218 0.3272 0.0218 0.3272 0.2595 0.0321 0.2595 0.0321 0.0218 0.3272 0.0218 0.3272 0.2595 0.0321 0.2595 0.0321 0.0218 0.3272 0.0218 0.3272 0.2595 0.0321 0.2595 0.0321 0.0218 0.3272 0.0218 0.3272 0.2595 0.0321 0.2595 0.3272 0.0218 0.3272 0.2595 0.0321 0.0218 0.0321 0.2595 " />
							</IndexedTriangleSet>
						</Shape>
					</Group>
				</Transform>
				<Transform DEF="foot1_TRANSFORM"
				           translation="0.000000 0.000000 -1.619501"
				           scale="1.000000 1.000000 1.000000"
				           rotation="0.000000 1.000000 0.000000 0.000000"
				           >
					<Transform DEF="foot1_ifs_TRANSFORM"
					           translation="0.000000 0.000000 0.000000"
					           scale="1.000000 1.000000 1.000000"
					           rotation="0.000000 1.000000 0.000000 0.000000"
					           >
						<Group DEF="group_ME_foot1">
							<Shape>
								<Appearance>
									<Material USE="MA_Body" />
								</Appearance>
								<IndexedTriangleSet solid="false"
								                    normalPerVertex="true"
								                    index="0 1 2 0 2 3 4 5 6 4 6 7 8 9 10 8 10 11 12 13 14 12 14 15 4 16 17 4 17 15 18 5 14 18 14 19 "
								                    >
									<Coordinate point="-0.213103 -0.215153 -0.465226 -0.213103 -0.215153 0.000000 -0.213103 0.215153 0.000000 -0.213103 0.215153 -0.465226 -0.213103 0.215153 -0.465226 -0.213103 0.215153 0.000000 0.213103 0.215153 0.000000 0.213103 0.215153 -0.465226 0.213103 0.215153 -0.465226 0.213103 0.215153 0.000000 0.213103 -0.215153 0.000000 0.213103 -0.215153 -0.465226 0.213103 -0.215153 -0.465226 0.213103 -0.215153 0.000000 -0.213103 -0.215153 0.000000 -0.213103 -0.215153 -0.465226 0.213103 0.215153 -0.465226 0.213103 -0.215153 -0.465226 0.213103 0.215153 0.000000 0.213103 -0.215153 0.000000 " />
									<Normal vector="-0.577349 -0.577349 -0.577349 -0.577349 -0.577349 0.577349 -0.577349 0.577349 0.577349 -0.577349 0.577349 -0.577349 -0.577349 0.577349 -0.577349 -0.577349 0.577349 0.577349 0.577349 0.577349 0.577349 0.577349 0.577349 -0.577349 0.577349 0.577349 -0.577349 0.577349 0.577349 0.577349 0.577349 -0.577349 0.577349 0.577349 -0.577349 -0.577349 0.577349 -0.577349 -0.577349 0.577349 -0.577349 0.577349 -0.577349 -0.577349 0.577349 -0.577349 -0.577349 -0.577349 0.577349 0.577349 -0.577349 0.577349 -0.577349 -0.577349 0.577349 0.577349 0.577349 0.577349 -0.577349 0.577349 " />
									<TextureCoordinate point="0.0321 0.0218 0.3272 0.0218 0.3272 0.2595 0.0321 0.2595 0.0321 0.0218 0.3272 0.0218 0.3272 0.2595 0.0321 0.2595 0.0321 0.0218 0.3272 0.0218 0.3272 0.2595 0.0321 0.2595 0.0321 0.0218 0.3272 0.0218 0.3272 0.2595 0.0321 0.2595 0.3272 0.0218 0.3272 0.2595 0.0321 0.0218 0.0321 0.2595 " />
								</IndexedTriangleSet>
							</Shape>
						</Group>
					</Transform>
				</Transform>
			</Transform>
			<Transform DEF="Cube_013_TRANSFORM"
			           translation="0.000000 -0.589058 1.085805"
			           scale="1.000000 1.000000 1.000000"
			           rotation="0.000000 1.000000 0.000000 0.000000"
			           >
				<Transform DEF="Cube_013_ifs_TRANSFORM"
				           translation="0.000000 0.000000 0.000000"
				           scale="1.000000 1.000000 1.000000"
				           rotation="0.000000 1.000000 0.000000 0.000000"
				           >
					<Group DEF="group_ME_Cube_013">
						<Shape>
							<Appearance>
								<Material USE="MA_Body" />
							</Appearance>
							<IndexedTriangleSet solid="false"
							                    normalPerVertex="true"
							                    index="0 1 2 0 2 3 4 5 6 4 6 7 8 9 10 8 10 11 12 13 14 12 14 15 4 16 17 4 17 15 18 5 14 18 14 19 "
							                    >
								<Coordinate point="-0.176629 -0.176629 0.000000 -0.176629 -0.176629 0.794313 -0.176629 0.176629 0.794313 -0.176629 0.176629 0.000000 -0.176629 0.176629 0.000000 -0.176629 0.176629 0.794313 0.176629 0.176629 0.794313 0.176629 0.176629 0.000000 0.176629 0.176629 0.000000 0.176629 0.176629 0.794313 0.176629 -0.176629 0.794313 0.176629 -0.176629 0.000000 0.176629 -0.176629 0.000000 0.176629 -0.176629 0.794313 -0.176629 -0.176629 0.794313 -0.176629 -0.176629 0.000000 0.176629 0.176629 0.000000 0.176629 -0.176629 0.000000 0.176629 0.176629 0.794313 0.176629 -0.176629 0.794313 " />
								<Normal vector="-0.577349 -0.577349 -0.577349 -0.577349 -0.577349 0.577349 -0.577349 0.577349 0.577349 -0.577349 0.577349 -0.577349 -0.577349 0.577349 -0.577349 -0.577349 0.577349 0.577349 0.577349 0.577349 0.577349 0.577349 0.577349 -0.577349 0.577349 0.577349 -0.577349 0.577349 0.577349 0.577349 0.577349 -0.577349 0.577349 0.577349 -0.577349 -0.577349 0.577349 -0.577349 -0.577349 0.577349 -0.577349 0.577349 -0.577349 -0.577349 0.577349 -0.577349 -0.577349 -0.577349 0.577349 0.577349 -0.577349 0.577349 -0.577349 -0.577349 0.577349 0.577349 0.577349 0.577349 -0.577349 0.577349 " />
								<TextureCoordinate point="0.0150 0.5511 0.3287 0.5511 0.3287 0.7301 0.0150 0.7301 0.0150 0.5511 0.3287 0.5511 0.3287 0.7301 0.0150 0.7301 0.0150 0.5511 0.3287 0.5511 0.3287 0.7301 0.0150 0.7301 0.0150 0.5511 0.3287 0.5511 0.3287 0.7301 0.0150 0.7301 0.3287 0.5511 0.3287 0.7301 0.0150 0.5511 0.0150 0.7301 " />
							</IndexedTriangleSet>
						</Shape>
					</Group>
				</Transform>
				<Transform DEF="Cube_014_TRANSFORM"
				           translation="0.000000 -0.204669 -0.000000"
				           scale="1.000000 1.000000 1.000000"
				           rotation="0.000000 1.000000 0.000000 0.000000"
				           >
					<Transform DEF="Cube_014_ifs_TRANSFORM"
					           translation="0.000000 0.000000 0.000000"
					           scale="1.000000 1.000000 1.000000"
					           rotation="0.000000 1.000000 0.000000 0.000000"
					           >
						<Group DEF="group_ME_Cube_014">
							<Shape>
								<Appearance>
									<Material USE="MA_Body" />
								</Appearance>
								<IndexedTriangleSet solid="false"
								                    normalPerVertex="true"
								                    index="0 1 2 0 2 3 4 5 6 4 6 7 8 9 10 8 10 11 12 13 14 12 14 15 4 16 17 4 17 15 18 5 14 18 14 19 "
								                    >
									<Coordinate point="-0.146508 -0.119448 -0.084834 -0.146508 -0.603642 0.596923 -0.146508 -0.364745 0.766591 -0.146508 0.119448 0.084834 -0.146508 0.119448 0.084834 -0.146508 -0.364745 0.766591 0.146508 -0.364745 0.766591 0.146508 0.119448 0.084834 0.146508 0.119448 0.084834 0.146508 -0.364745 0.766591 0.146508 -0.603642 0.596923 0.146508 -0.119448 -0.084834 0.146508 -0.119448 -0.084834 0.146508 -0.603642 0.596923 -0.146508 -0.603642 0.596923 -0.146508 -0.119448 -0.084834 0.146508 0.119448 0.084834 0.146508 -0.119448 -0.084834 0.146508 -0.364745 0.766591 0.146508 -0.603642 0.596923 " />
									<Normal vector="-0.577349 -0.136387 -0.805017 -0.577349 -0.805017 0.136387 -0.577349 0.136387 0.805017 -0.577349 0.805017 -0.136387 -0.577349 0.805017 -0.136387 -0.577349 0.136387 0.805017 0.577349 0.136387 0.805017 0.577349 0.805017 -0.136387 0.577349 0.805017 -0.136387 0.577349 0.136387 0.805017 0.577349 -0.805017 0.136387 0.577349 -0.136387 -0.805017 0.577349 -0.136387 -0.805017 0.577349 -0.805017 0.136387 -0.577349 -0.805017 0.136387 -0.577349 -0.136387 -0.805017 0.577349 0.805017 -0.136387 0.577349 -0.136387 -0.805017 0.577349 0.136387 0.805017 0.577349 -0.805017 0.136387 " />
									<TextureCoordinate point="0.0150 0.5511 0.3287 0.5511 0.3287 0.7301 0.0150 0.7301 0.0150 0.5511 0.3287 0.5511 0.3287 0.7301 0.0150 0.7301 0.0150 0.5511 0.3287 0.5511 0.3287 0.7301 0.0150 0.7301 0.0150 0.5511 0.3287 0.5511 0.3287 0.7301 0.0150 0.7301 0.3287 0.5511 0.3287 0.7301 0.0150 0.5511 0.0150 0.7301 " />
								</IndexedTriangleSet>
							</Shape>
						</Group>
					</Transform>
				</Transform>
				<Transform DEF="Cube_015_TRANSFORM"
				           translation="0.000000 -0.204669 -0.000000"
				           scale="1.000000 1.000000 1.000000"
				           rotation="0.000000 1.000000 0.000000 0.000000"
				           >
					<Transform DEF="Cube_015_ifs_TRANSFORM"
					           translation="0.000000 0.000000 0.000000"
					           scale="1.000000 1.000000 1.000000"
					           rotation="0.000000 1.000000 0.000000 0.000000"
					           >
						<Group DEF="group_ME_Cube_015">
							<Shape>
								<Appearance>
									<Material USE="MA_Body" />
								</Appearance>
								<IndexedTriangleSet solid="false"
								                    normalPerVertex="true"
								                    index="0 1 2 0 2 3 4 5 6 4 6 7 8 9 10 8 10 11 12 13 14 12 14 15 4 16 17 4 17 15 18 5 14 18 14 19 "
								                    >
									<Coordinate point="-0.136839 0.122819 -0.095499 -0.672044 0.019606 0.538645 -0.453852 0.061684 0.729643 0.081354 0.164897 0.095499 0.081354 0.164897 0.095499 -0.453852 0.061684 0.729643 -0.398367 -0.226032 0.729643 0.136839 -0.122819 0.095499 0.136839 -0.122819 0.095499 -0.398367 -0.226032 0.729643 -0.616559 -0.268109 0.538645 -0.081354 -0.164897 -0.095499 -0.081354 -0.164897 -0.095499 -0.616559 -0.268109 0.538645 -0.672044 0.019606 0.538645 -0.136839 0.122819 -0.095499 0.136839 -0.122819 0.095499 -0.081354 -0.164897 -0.095499 -0.398367 -0.226032 0.729643 -0.616559 -0.268109 0.538645 " />
									<Normal vector="-0.169713 0.555254 -0.814173 -0.908750 0.412732 0.061495 -0.048921 0.578539 0.814173 0.690115 0.721061 -0.061495 0.690115 0.721061 -0.061495 -0.048921 0.578539 0.814173 0.169713 -0.555254 0.814173 0.908750 -0.412732 -0.061495 0.908750 -0.412732 -0.061495 0.169713 -0.555254 0.814173 -0.690115 -0.721061 0.061495 0.048921 -0.578539 -0.814173 0.048921 -0.578539 -0.814173 -0.690115 -0.721061 0.061495 -0.908750 0.412732 0.061495 -0.169713 0.555254 -0.814173 0.908750 -0.412732 -0.061495 0.048921 -0.578539 -0.814173 0.169713 -0.555254 0.814173 -0.690115 -0.721061 0.061495 " />
									<TextureCoordinate point="0.0150 0.5511 0.3287 0.5511 0.3287 0.7301 0.0150 0.7301 0.0150 0.5511 0.3287 0.5511 0.3287 0.7301 0.0150 0.7301 0.0150 0.5511 0.3287 0.5511 0.3287 0.7301 0.0150 0.7301 0.0150 0.5511 0.3287 0.5511 0.3287 0.7301 0.0150 0.7301 0.3287 0.5511 0.3287 0.7301 0.0150 0.5511 0.0150 0.7301 " />
								</IndexedTriangleSet>
							</Shape>
						</Group>
					</Transform>
				</Transform>
				<Transform DEF="Cube_016_TRANSFORM"
				           translation="0.000000 -0.204669 -0.000000"
				           scale="1.000000 1.000000 1.000000"
				           rotation="0.000000 1.000000 0.000000 0.000000"
				           >
					<Transform DEF="Cube_016_ifs_TRANSFORM"
					           translation="0.000000 0.000000 0.000000"
					           scale="1.000000 1.000000 1.000000"
					           rotation="0.000000 1.000000 0.000000 0.000000"
					           >
						<Group DEF="group_ME_Cube_016">
							<Shape>
								<Appearance>
									<Material USE="MA_Body" />
								</Appearance>
								<IndexedTriangleSet solid="false"
								                    normalPerVertex="true"
								                    index="0 1 2 0 2 3 4 5 6 4 6 7 8 9 10 8 10 11 12 13 14 12 14 15 4 16 17 4 17 15 18 5 14 18 14 19 "
								                    >
									<Coordinate point="0.036674 0.152483 -0.135401 -0.467204 0.659241 0.298811 -0.342643 0.569304 0.548320 0.161235 0.062546 0.114108 0.161235 0.062546 0.114108 -0.342643 0.569304 0.548320 -0.540552 0.354275 0.569613 -0.036674 -0.152483 0.135401 -0.036674 -0.152483 0.135401 -0.540552 0.354275 0.569613 -0.665113 0.444212 0.320104 -0.161235 -0.062546 -0.114108 -0.161235 -0.062546 -0.114108 -0.665113 0.444212 0.320104 -0.467204 0.659241 0.298811 0.036674 0.152483 -0.135401 -0.036674 -0.152483 0.135401 -0.161235 -0.062546 -0.114108 -0.540552 0.354275 0.569613 -0.665113 0.444212 0.320104 " />
									<Normal vector="0.492416 0.250984 -0.833369 -0.203375 0.950774 -0.233772 0.287484 0.596362 0.749443 0.983276 -0.103397 0.149846 0.983276 -0.103397 0.149846 0.287484 0.596362 0.749443 -0.492416 -0.250984 0.833369 0.203375 -0.950774 0.233772 0.203375 -0.950774 0.233772 -0.492416 -0.250984 0.833369 -0.983276 0.103397 -0.149846 -0.287484 -0.596362 -0.749443 -0.287484 -0.596362 -0.749443 -0.983276 0.103397 -0.149846 -0.203375 0.950774 -0.233772 0.492416 0.250984 -0.833369 0.203375 -0.950774 0.233772 -0.287484 -0.596362 -0.749443 -0.492416 -0.250984 0.833369 -0.983276 0.103397 -0.149846 " />
									<TextureCoordinate point="0.0150 0.5511 0.3287 0.5511 0.3287 0.7301 0.0150 0.7301 0.0150 0.5511 0.3287 0.5511 0.3287 0.7301 0.0150 0.7301 0.0150 0.5511 0.3287 0.5511 0.3287 0.7301 0.0150 0.7301 0.0150 0.5511 0.3287 0.5511 0.3287 0.7301 0.0150 0.7301 0.3287 0.5511 0.3287 0.7301 0.0150 0.5511 0.0150 0.7301 " />
								</IndexedTriangleSet>
							</Shape>
						</Group>
					</Transform>
				</Transform>
				<Transform DEF="Cube_001_TRANSFORM"
				           translation="0.000000 -0.204669 -0.000000"
				           scale="1.000000 1.000000 1.000000"
				           rotation="0.000000 1.000000 0.000000 0.000000"
				           >
					<Transform DEF="Cube_001_ifs_TRANSFORM"
					           translation="0.000000 0.000000 0.000000"
					           scale="1.000000 1.000000 1.000000"
					           rotation="0.000000 1.000000 0.000000 0.000000"
					           >
						<Group DEF="group_ME_Cube_025">
							<Shape>
								<Appearance>
									<Material USE="MA_Body" />
								</Appearance>
								<IndexedTriangleSet solid="false"
								                    normalPerVertex="true"
								                    index="0 1 2 0 2 3 4 5 6 4 6 7 8 9 10 8 10 11 12 13 14 12 14 15 4 13 16 4 16 17 18 19 14 18 14 7 "
								                    >
									<Coordinate point="0.136839 0.122819 -0.095499 -0.081354 0.164897 0.095499 0.453852 0.061684 0.729643 0.672044 0.019606 0.538645 -0.081354 0.164897 0.095499 -0.136839 -0.122819 0.095499 0.398367 -0.226032 0.729643 0.453852 0.061684 0.729643 -0.136839 -0.122819 0.095499 0.081354 -0.164897 -0.095499 0.616559 -0.268109 0.538645 0.398367 -0.226032 0.729643 0.081354 -0.164897 -0.095499 0.136839 0.122819 -0.095499 0.672044 0.019606 0.538645 0.616559 -0.268109 0.538645 0.081354 -0.164897 -0.095499 -0.136839 -0.122819 0.095499 0.398367 -0.226032 0.729643 0.616559 -0.268109 0.538645 " />
									<Normal vector="0.169713 0.555254 -0.814173 -0.690115 0.721061 -0.061495 0.048921 0.578539 0.814173 0.908750 0.412732 0.061495 -0.690115 0.721061 -0.061495 -0.908750 -0.412732 -0.061495 -0.169713 -0.555254 0.814173 0.048921 0.578539 0.814173 -0.908750 -0.412732 -0.061495 -0.048921 -0.578539 -0.814173 0.690115 -0.721061 0.061495 -0.169713 -0.555254 0.814173 -0.048921 -0.578539 -0.814173 0.169713 0.555254 -0.814173 0.908750 0.412732 0.061495 0.690115 -0.721061 0.061495 -0.048921 -0.578539 -0.814173 -0.908750 -0.412732 -0.061495 -0.169713 -0.555254 0.814173 0.690115 -0.721061 0.061495 " />
									<TextureCoordinate point="0.0150 0.5511 0.0150 0.7301 0.3287 0.7301 0.3287 0.5511 0.0150 0.5511 0.0150 0.7301 0.3287 0.7301 0.3287 0.5511 0.0150 0.5511 0.0150 0.7301 0.3287 0.7301 0.3287 0.5511 0.0150 0.5511 0.0150 0.7301 0.3287 0.7301 0.3287 0.5511 0.3287 0.7301 0.3287 0.5511 0.0150 0.5511 0.0150 0.7301 " />
								</IndexedTriangleSet>
							</Shape>
						</Group>
					</Transform>
				</Transform>
				<Transform DEF="Cube_008_TRANSFORM"
				           translation="0.000000 -0.204669 -0.000000"
				           scale="1.000000 1.000000 1.000000"
				           rotation="0.000000 1.000000 0.000000 0.000000"
				           >
					<Transform DEF="Cube_008_ifs_TRANSFORM"
					           translation="0.000000 0.000000 0.000000"
					           scale="1.000000 1.000000 1.000000"
					           rotation="0.000000 1.000000 0.000000 0.000000"
					           >
						<Group DEF="group_ME_Cube_026">
							<Shape>
								<Appearance>
									<Material USE="MA_Body" />
								</Appearance>
								<IndexedTriangleSet solid="false"
								                    normalPerVertex="true"
								                    index="0 1 2 0 2 3 4 5 6 4 6 7 8 9 10 8 10 11 12 13 14 12 14 15 4 13 16 4 16 17 18 19 14 18 14 7 "
								                    >
									<Coordinate point="-0.036674 0.152483 -0.135401 -0.161235 0.062546 0.114108 0.342643 0.569304 0.548320 0.467204 0.659241 0.298811 -0.161235 0.062546 0.114108 0.036674 -0.152483 0.135401 0.540552 0.354275 0.569613 0.342643 0.569304 0.548320 0.036674 -0.152483 0.135401 0.161235 -0.062546 -0.114108 0.665113 0.444212 0.320104 0.540552 0.354275 0.569613 0.161235 -0.062546 -0.114108 -0.036674 0.152483 -0.135401 0.467204 0.659241 0.298811 0.665113 0.444212 0.320104 0.161235 -0.062546 -0.114108 0.036674 -0.152483 0.135401 0.540552 0.354275 0.569613 0.665113 0.444212 0.320104 " />
									<Normal vector="-0.492416 0.250984 -0.833369 -0.983276 -0.103397 0.149846 -0.287484 0.596362 0.749443 0.203375 0.950774 -0.233772 -0.983276 -0.103397 0.149846 -0.203375 -0.950774 0.233772 0.492416 -0.250984 0.833369 -0.287484 0.596362 0.749443 -0.203375 -0.950774 0.233772 0.287484 -0.596362 -0.749443 0.983276 0.103397 -0.149846 0.492416 -0.250984 0.833369 0.287484 -0.596362 -0.749443 -0.492416 0.250984 -0.833369 0.203375 0.950774 -0.233772 0.983276 0.103397 -0.149846 0.287484 -0.596362 -0.749443 -0.203375 -0.950774 0.233772 0.492416 -0.250984 0.833369 0.983276 0.103397 -0.149846 " />
									<TextureCoordinate point="0.0150 0.5511 0.0150 0.7301 0.3287 0.7301 0.3287 0.5511 0.0150 0.5511 0.0150 0.7301 0.3287 0.7301 0.3287 0.5511 0.0150 0.5511 0.0150 0.7301 0.3287 0.7301 0.3287 0.5511 0.0150 0.5511 0.0150 0.7301 0.3287 0.7301 0.3287 0.5511 0.3287 0.7301 0.3287 0.5511 0.0150 0.5511 0.0150 0.7301 " />
								</IndexedTriangleSet>
							</Shape>
						</Group>
					</Transform>
				</Transform>
				<Transform DEF="Cube_024_TRANSFORM"
				           translation="0.000000 0.204669 -0.000000"
				           scale="1.000000 1.000000 1.000000"
				           rotation="0.000000 1.000000 0.000000 0.000000"
				           >
					<Transform DEF="Cube_024_ifs_TRANSFORM"
					           translation="0.000000 0.000000 0.000000"
					           scale="1.000000 1.000000 1.000000"
					           rotation="0.000000 1.000000 0.000000 0.000000"
					           >
						<Group DEF="group_ME_Cube_001">
							<Shape>
								<Appearance>
									<Material USE="MA_Body" />
								</Appearance>
								<IndexedTriangleSet solid="false"
								                    normalPerVertex="true"
								                    index="0 1 2 0 2 3 4 5 6 4 6 7 8 9 10 8 10 11 12 13 14 12 14 15 4 13 16 4 16 17 18 19 14 18 14 7 "
								                    >
									<Coordinate point="-0.146508 0.119448 -0.084834 -0.146508 -0.119448 0.084834 -0.146508 0.364745 0.766591 -0.146508 0.603642 0.596923 -0.146508 -0.119448 0.084834 0.146508 -0.119448 0.084834 0.146508 0.364745 0.766591 -0.146508 0.364745 0.766591 0.146508 -0.119448 0.084834 0.146508 0.119448 -0.084834 0.146508 0.603642 0.596923 0.146508 0.364745 0.766591 0.146508 0.119448 -0.084834 -0.146508 0.119448 -0.084834 -0.146508 0.603642 0.596923 0.146508 0.603642 0.596923 0.146508 0.119448 -0.084834 0.146508 -0.119448 0.084834 0.146508 0.364745 0.766591 0.146508 0.603642 0.596923 " />
									<Normal vector="-0.577349 0.136387 -0.805017 -0.577349 -0.805017 -0.136387 -0.577349 -0.136387 0.805017 -0.577349 0.805017 0.136387 -0.577349 -0.805017 -0.136387 0.577349 -0.805017 -0.136387 0.577349 -0.136387 0.805017 -0.577349 -0.136387 0.805017 0.577349 -0.805017 -0.136387 0.577349 0.136387 -0.805017 0.577349 0.805017 0.136387 0.577349 -0.136387 0.805017 0.577349 0.136387 -0.805017 -0.577349 0.136387 -0.805017 -0.577349 0.805017 0.136387 0.577349 0.805017 0.136387 0.577349 0.136387 -0.805017 0.577349 -0.805017 -0.136387 0.577349 -0.136387 0.805017 0.577349 0.805017 0.136387 " />
									<TextureCoordinate point="0.0150 0.5511 0.0150 0.7301 0.3287 0.7301 0.3287 0.5511 0.0150 0.5511 0.0150 0.7301 0.3287 0.7301 0.3287 0.5511 0.0150 0.5511 0.0150 0.7301 0.3287 0.7301 0.3287 0.5511 0.0150 0.5511 0.0150 0.7301 0.3287 0.7301 0.3287 0.5511 0.3287 0.7301 0.3287 0.5511 0.0150 0.5511 0.0150 0.7301 " />
								</IndexedTriangleSet>
							</Shape>
						</Group>
					</Transform>
				</Transform>
			</Transform>
			<Transform DEF="wing2_TRANSFORM"
			           translation="-0.401160 -0.589058 1.257869"
			           scale="1.000000 1.000000 1.000000"
			           rotation="0.000000 1.000000 0.000000 0.000000"
			           >
				<Transform DEF="wing2_ifs_TRANSFORM"
				           translation="0.000000 0.000000 0.000000"
				           scale="1.000000 1.000000 1.000000"
				           rotation="0.000000 1.000000 0.000000 0.000000"
				           >
					<Group DEF="group_ME_wing2">
						<Shape>
							<Appearance>
								<Material USE="MA_Body" />
							</Appearance>
							<IndexedTriangleSet solid="false"
							                    normalPerVertex="true"
							                    index="0 1 2 0 2 3 "
							                    >
								<Coordinate point="-2.945260 -1.508558 2.145205 0.142488 -1.498451 0.220749 -0.142488 1.498451 -0.220749 -3.230236 1.488344 1.703708 " />
								<Normal vector="0.520554 0.172674 0.836146 0.520554 0.172674 0.836146 0.520554 0.172674 0.836146 0.520554 0.172674 0.836146 " />
								<TextureCoordinate point="0.3835 0.9651 0.3835 0.0036 0.9993 0.0036 0.9993 0.9651 " />
							</IndexedTriangleSet>
						</Shape>
					</Group>
				</Transform>
			</Transform>
			<Transform DEF="Cube_017_TRANSFORM"
			           translation="1.244370 -0.957799 -0.333424"
			           scale="1.000000 1.000000 1.000000"
			           rotation="0.000000 1.000000 0.000000 0.000000"
			           >
				<Transform DEF="Cube_017_ifs_TRANSFORM"
				           translation="0.000000 0.000000 0.000000"
				           scale="1.000000 1.000000 1.000000"
				           rotation="0.000000 1.000000 0.000000 0.000000"
				           >
					<Group DEF="group_ME_Cube_017">
						<Shape>
							<Appearance>
								<Material USE="MA_Body" />
							</Appearance>
							<IndexedTriangleSet solid="false"
							                    normalPerVertex="true"
							                    index="0 1 2 0 2 3 4 5 6 4 6 7 8 9 10 8 10 11 12 13 14 12 14 15 4 16 17 4 17 15 18 5 14 18 14 19 "
							                    >
								<Coordinate point="-0.045870 -0.014223 -0.051325 -0.045870 0.044972 0.028533 0.134757 0.392777 -0.229281 0.134757 0.333582 -0.309139 0.134757 0.333582 -0.309139 0.134757 0.392777 -0.229281 0.226498 0.362028 -0.206488 0.226498 0.302833 -0.286346 0.226498 0.302833 -0.286346 0.226498 0.362028 -0.206488 0.045870 0.014223 0.051325 0.045870 -0.044972 -0.028533 0.045870 -0.044972 -0.028533 0.045870 0.014223 0.051325 -0.045870 0.044972 0.028533 -0.045870 -0.014223 -0.051325 0.226498 0.302833 -0.286346 0.045870 -0.044972 -0.028533 0.226498 0.362028 -0.206488 0.045870 0.014223 0.051325 " />
								<Normal vector="-0.755120 -0.593249 -0.278878 -0.755120 0.094333 0.648732 -0.310526 0.950438 0.014130 -0.310526 0.262825 -0.913480 -0.310526 0.262825 -0.913480 -0.310526 0.950438 0.014130 0.755120 0.593249 0.278878 0.755120 -0.094333 -0.648732 0.755120 -0.094333 -0.648732 0.755120 0.593249 0.278878 0.310526 -0.262825 0.913480 0.310526 -0.950438 -0.014130 0.310526 -0.950438 -0.014130 0.310526 -0.262825 0.913480 -0.755120 0.094333 0.648732 -0.755120 -0.593249 -0.278878 0.755120 -0.094333 -0.648732 0.310526 -0.950438 -0.014130 0.755120 0.593249 0.278878 0.310526 -0.262825 0.913480 " />
								<TextureCoordinate point="0.0338 0.5524 0.3100 0.5524 0.3100 0.7288 0.0338 0.7288 0.0338 0.5524 0.3100 0.5524 0.3100 0.7288 0.0338 0.7288 0.0338 0.5524 0.3100 0.5524 0.3100 0.7288 0.0338 0.7288 0.0338 0.5524 0.3100 0.5524 0.3100 0.7288 0.0338 0.7288 0.3100 0.5524 0.3100 0.7288 0.0338 0.5524 0.0338 0.7288 " />
							</IndexedTriangleSet>
						</Shape>
					</Group>
				</Transform>
			</Transform>
			<Transform DEF="Cube_018_TRANSFORM"
			           translation="1.236790 -0.816692 -0.189229"
			           scale="1.000000 1.000000 1.000000"
			           rotation="0.000000 1.000000 0.000000 0.000000"
			           >
				<Transform DEF="Cube_018_ifs_TRANSFORM"
				           translation="0.000000 0.000000 0.000000"
				           scale="1.000000 1.000000 1.000000"
				           rotation="0.000000 1.000000 0.000000 0.000000"
				           >
					<Group DEF="group_ME_Cube_018">
						<Shape>
							<Appearance>
								<Material USE="MA_Body" />
							</Appearance>
							<IndexedTriangleSet solid="false"
							                    normalPerVertex="true"
							                    index="0 1 2 0 2 3 4 5 6 4 6 7 8 9 10 8 10 11 12 13 14 12 14 15 4 16 17 4 17 15 18 5 14 18 14 19 "
							                    >
								<Coordinate point="-0.045870 -0.000113 -0.053260 -0.045870 0.035803 0.039430 0.134757 0.439495 -0.116994 0.134757 0.403580 -0.209684 0.134757 0.403580 -0.209684 0.134757 0.439495 -0.116994 0.226498 0.403806 -0.103164 0.226498 0.367890 -0.195854 0.226498 0.367890 -0.195854 0.226498 0.403806 -0.103164 0.045870 0.000113 0.053260 0.045870 -0.035803 -0.039430 0.045870 -0.035803 -0.039430 0.045870 0.000113 0.053260 -0.045870 0.035803 0.039430 -0.045870 -0.000113 -0.053260 0.226498 0.367890 -0.195854 0.045870 -0.035803 -0.039430 0.226498 0.403806 -0.103164 0.045870 0.000113 0.053260 " />
								<Normal vector="-0.755120 -0.498123 -0.426130 -0.755120 -0.080935 0.650533 -0.310526 0.912717 0.265481 -0.310526 0.495499 -0.811182 -0.310526 0.495499 -0.811182 -0.310526 0.912717 0.265481 0.755120 0.498123 0.426130 0.755120 0.080935 -0.650533 0.755120 0.080935 -0.650533 0.755120 0.498123 0.426130 0.310526 -0.495499 0.811182 0.310526 -0.912717 -0.265481 0.310526 -0.912717 -0.265481 0.310526 -0.495499 0.811182 -0.755120 -0.080935 0.650533 -0.755120 -0.498123 -0.426130 0.755120 0.080935 -0.650533 0.310526 -0.912717 -0.265481 0.755120 0.498123 0.426130 0.310526 -0.495499 0.811182 " />
								<TextureCoordinate point="0.0338 0.5524 0.3100 0.5524 0.3100 0.7288 0.0338 0.7288 0.0338 0.5524 0.3100 0.5524 0.3100 0.7288 0.0338 0.7288 0.0338 0.5524 0.3100 0.5524 0.3100 0.7288 0.0338 0.7288 0.0338 0.5524 0.3100 0.5524 0.3100 0.7288 0.0338 0.7288 0.3100 0.5524 0.3100 0.7288 0.0338 0.5524 0.0338 0.7288 " />
							</IndexedTriangleSet>
						</Shape>
					</Group>
				</Transform>
			</Transform>
			<Transform DEF="Cube_019_TRANSFORM"
			           translation="1.257400 -0.500713 0.432705"
			           scale="1.000000 1.000000 1.000000"
			           rotation="0.000000 1.000000 0.000000 0.000000"
			           >
				<Transform DEF="Cube_019_ifs_TRANSFORM"
				           translation="0.000000 0.000000 0.000000"
				           scale="1.000000 1.000000 1.000000"
				           rotation="0.000000 1.000000 0.000000 0.000000"
				           >
					<Group DEF="group_ME_Cube_019">
						<Shape>
							<Appearance>
								<Material USE="MA_Body" />
							</Appearance>
							<IndexedTriangleSet solid="false"
							                    normalPerVertex="true"
							                    index="0 1 2 0 2 3 4 5 6 4 6 7 8 9 10 8 10 11 12 13 14 12 14 15 4 16 17 4 17 15 18 5 14 18 14 19 "
							                    >
								<Coordinate point="-0.045870 0.018483 -0.049950 -0.045870 0.019789 0.049447 0.134757 0.452690 0.043762 0.134757 0.451385 -0.055634 0.134757 0.451385 -0.055634 0.134757 0.452690 0.043762 0.226498 0.414418 0.044265 0.226498 0.413113 -0.055132 0.226498 0.413113 -0.055132 0.226498 0.414418 0.044265 0.045870 -0.018483 0.049950 0.045870 -0.019789 -0.049447 0.045870 -0.019789 -0.049447 0.045870 -0.018483 0.049950 -0.045870 0.019789 0.049447 -0.045870 0.018483 -0.049950 0.226498 0.413113 -0.055132 0.045870 -0.019789 -0.049447 0.226498 0.414418 0.044265 0.045870 -0.018483 0.049950 " />
								<Normal vector="-0.755120 -0.318064 -0.573199 -0.755120 -0.302896 0.581378 -0.310526 0.762627 0.567370 -0.310526 0.747490 -0.587207 -0.310526 0.747490 -0.587207 -0.310526 0.762627 0.567370 0.755120 0.318064 0.573199 0.755120 0.302896 -0.581378 0.755120 0.302896 -0.581378 0.755120 0.318064 0.573199 0.310526 -0.747490 0.587207 0.310526 -0.762627 -0.567370 0.310526 -0.762627 -0.567370 0.310526 -0.747490 0.587207 -0.755120 -0.302896 0.581378 -0.755120 -0.318064 -0.573199 0.755120 0.302896 -0.581378 0.310526 -0.762627 -0.567370 0.755120 0.318064 0.573199 0.310526 -0.747490 0.587207 " />
								<TextureCoordinate point="0.0338 0.5524 0.3100 0.5524 0.3100 0.7288 0.0338 0.7288 0.0338 0.5524 0.3100 0.5524 0.3100 0.7288 0.0338 0.7288 0.0338 0.5524 0.3100 0.5524 0.3100 0.7288 0.0338 0.7288 0.0338 0.5524 0.3100 0.5524 0.3100 0.7288 0.0338 0.7288 0.3100 0.5524 0.3100 0.7288 0.0338 0.5524 0.0338 0.7288 " />
							</IndexedTriangleSet>
						</Shape>
					</Group>
				</Transform>
			</Transform>
			<Transform DEF="Cube_020_TRANSFORM"
			           translation="1.257400 -0.500713 0.232376"
			           scale="1.000000 1.000000 1.000000"
			           rotation="0.000000 1.000000 0.000000 0.000000"
			           >
				<Transform DEF="Cube_020_ifs_TRANSFORM"
				           translation="0.000000 0.000000 0.000000"
				           scale="1.000000 1.000000 1.000000"
				           rotation="0.000000 1.000000 0.000000 0.000000"
				           >
					<Group DEF="group_ME_Cube_020">
						<Shape>
							<Appearance>
								<Material USE="MA_Body" />
							</Appearance>
							<IndexedTriangleSet solid="false"
							                    normalPerVertex="true"
							                    index="0 1 2 0 2 3 4 5 6 4 6 7 8 9 10 8 10 11 12 13 14 12 14 15 4 16 17 4 17 15 18 5 14 18 14 19 "
							                    >
								<Coordinate point="-0.045870 0.007622 -0.052712 -0.045870 0.029698 0.044211 0.134757 0.451826 -0.051935 0.134757 0.429750 -0.148858 0.134757 0.429750 -0.148858 0.134757 0.451826 -0.051935 0.226498 0.414506 -0.043435 0.226498 0.392430 -0.140358 0.226498 0.392430 -0.140358 0.226498 0.414506 -0.043435 0.045870 -0.007622 0.052712 0.045870 -0.029698 -0.044211 0.045870 -0.029698 -0.044211 0.045870 -0.007622 0.052712 -0.045870 0.029698 0.044211 -0.045870 0.007622 -0.052712 0.226498 0.392430 -0.140358 0.045870 -0.029698 -0.044211 0.226498 0.414506 -0.043435 0.045870 -0.007622 0.052712 " />
								<Normal vector="-0.755120 -0.430982 -0.493942 -0.755120 -0.174535 0.631886 -0.310526 0.864498 0.395215 -0.310526 0.608051 -0.730613 -0.310526 0.608051 -0.730613 -0.310526 0.864498 0.395215 0.755120 0.430982 0.493942 0.755120 0.174535 -0.631886 0.755120 0.174535 -0.631886 0.755120 0.430982 0.493942 0.310526 -0.608051 0.730613 0.310526 -0.864498 -0.395215 0.310526 -0.864498 -0.395215 0.310526 -0.608051 0.730613 -0.755120 -0.174535 0.631886 -0.755120 -0.430982 -0.493942 0.755120 0.174535 -0.631886 0.310526 -0.864498 -0.395215 0.755120 0.430982 0.493942 0.310526 -0.608051 0.730613 " />
								<TextureCoordinate point="0.0338 0.5524 0.3100 0.5524 0.3100 0.7288 0.0338 0.7288 0.0338 0.5524 0.3100 0.5524 0.3100 0.7288 0.0338 0.7288 0.0338 0.5524 0.3100 0.5524 0.3100 0.7288 0.0338 0.7288 0.0338 0.5524 0.3100 0.5524 0.3100 0.7288 0.0338 0.7288 0.3100 0.5524 0.3100 0.7288 0.0338 0.5524 0.0338 0.7288 " />
							</IndexedTriangleSet>
						</Shape>
					</Group>
				</Transform>
			</Transform>
			<Transform DEF="leg4_TRANSFORM"
			           translation="0.432781 0.586474 -1.008480"
			           scale="1.000000 1.000000 1.000000"
			           rotation="0.000000 1.000000 0.000000 0.000000"
			           >
				<Transform DEF="leg4_ifs_TRANSFORM"
				           translation="0.000000 0.000000 0.000000"
				           scale="1.000000 1.000000 1.000000"
				           rotation="0.000000 1.000000 0.000000 0.000000"
				           >
					<Group DEF="group_ME_leg4">
						<Shape>
							<Appearance>
								<Material USE="MA_Body" />
							</Appearance>
							<IndexedTriangleSet solid="false"
							                    normalPerVertex="true"
							                    index="0 1 2 0 2 3 4 5 6 4 6 7 8 9 10 8 10 11 12 13 14 12 14 15 4 16 17 4 17 15 18 5 14 18 14 19 "
							                    >
								<Coordinate point="-0.051100 -0.051100 -1.672469 -0.051100 -0.051100 0.000000 -0.051100 0.051100 0.000000 -0.051100 0.051100 -1.672469 -0.051100 0.051100 -1.672469 -0.051100 0.051100 0.000000 0.051100 0.051100 0.000000 0.051100 0.051100 -1.672469 0.051100 0.051100 -1.672469 0.051100 0.051100 0.000000 0.051100 -0.051100 0.000000 0.051100 -0.051100 -1.672469 0.051100 -0.051100 -1.672469 0.051100 -0.051100 0.000000 -0.051100 -0.051100 0.000000 -0.051100 -0.051100 -1.672469 0.051100 0.051100 -1.672469 0.051100 -0.051100 -1.672469 0.051100 0.051100 0.000000 0.051100 -0.051100 0.000000 " />
								<Normal vector="-0.577349 -0.577349 -0.577349 -0.577349 -0.577349 0.577349 -0.577349 0.577349 0.577349 -0.577349 0.577349 -0.577349 -0.577349 0.577349 -0.577349 -0.577349 0.577349 0.577349 0.577349 0.577349 0.577349 0.577349 0.577349 -0.577349 0.577349 0.577349 -0.577349 0.577349 0.577349 0.577349 0.577349 -0.577349 0.577349 0.577349 -0.577349 -0.577349 0.577349 -0.577349 -0.577349 0.577349 -0.577349 0.577349 -0.577349 -0.577349 0.577349 -0.577349 -0.577349 -0.577349 0.577349 0.577349 -0.577349 0.577349 -0.577349 -0.577349 0.577349 0.577349 0.577349 0.577349 -0.577349 0.577349 " />
								<TextureCoordinate point="0.0321 0.0218 0.3272 0.0218 0.3272 0.2595 0.0321 0.2595 0.0321 0.0218 0.3272 0.0218 0.3272 0.2595 0.0321 0.2595 0.0321 0.0218 0.3272 0.0218 0.3272 0.2595 0.0321 0.2595 0.0321 0.0218 0.3272 0.0218 0.3272 0.2595 0.0321 0.2595 0.3272 0.0218 0.3272 0.2595 0.0321 0.0218 0.0321 0.2595 " />
							</IndexedTriangleSet>
						</Shape>
					</Group>
				</Transform>
				<Transform DEF="foot4_TRANSFORM"
				           translation="0.000000 0.000000 -1.619501"
				           scale="1.000000 1.000000 1.000000"
				           rotation="0.000000 1.000000 0.000000 0.000000"
				           >
					<Transform DEF="foot4_ifs_TRANSFORM"
					           translation="0.000000 0.000000 0.000000"
					           scale="1.000000 1.000000 1.000000"
					           rotation="0.000000 1.000000 0.000000 0.000000"
					           >
						<Group DEF="group_ME_foot4">
							<Shape>
								<Appearance>
									<Material USE="MA_Body" />
								</Appearance>
								<IndexedTriangleSet solid="false"
								                    normalPerVertex="true"
								                    index="0 1 2 0 2 3 4 5 6 4 6 7 8 9 10 8 10 11 12 13 14 12 14 15 4 16 17 4 17 15 18 5 14 18 14 19 "
								                    >
									<Coordinate point="-0.213103 -0.215153 -0.465226 -0.213103 -0.215153 0.000000 -0.213103 0.215153 0.000000 -0.213103 0.215153 -0.465226 -0.213103 0.215153 -0.465226 -0.213103 0.215153 0.000000 0.213103 0.215153 0.000000 0.213103 0.215153 -0.465226 0.213103 0.215153 -0.465226 0.213103 0.215153 0.000000 0.213103 -0.215153 0.000000 0.213103 -0.215153 -0.465226 0.213103 -0.215153 -0.465226 0.213103 -0.215153 0.000000 -0.213103 -0.215153 0.000000 -0.213103 -0.215153 -0.465226 0.213103 0.215153 -0.465226 0.213103 -0.215153 -0.465226 0.213103 0.215153 0.000000 0.213103 -0.215153 0.000000 " />
									<Normal vector="-0.577349 -0.577349 -0.577349 -0.577349 -0.577349 0.577349 -0.577349 0.577349 0.577349 -0.577349 0.577349 -0.577349 -0.577349 0.577349 -0.577349 -0.577349 0.577349 0.577349 0.577349 0.577349 0.577349 0.577349 0.577349 -0.577349 0.577349 0.577349 -0.577349 0.577349 0.577349 0.577349 0.577349 -0.577349 0.577349 0.577349 -0.577349 -0.577349 0.577349 -0.577349 -0.577349 0.577349 -0.577349 0.577349 -0.577349 -0.577349 0.577349 -0.577349 -0.577349 -0.577349 0.577349 0.577349 -0.577349 0.577349 -0.577349 -0.577349 0.577349 0.577349 0.577349 0.577349 -0.577349 0.577349 " />
									<TextureCoordinate point="0.0321 0.0218 0.3272 0.0218 0.3272 0.2595 0.0321 0.2595 0.0321 0.0218 0.3272 0.0218 0.3272 0.2595 0.0321 0.2595 0.0321 0.0218 0.3272 0.0218 0.3272 0.2595 0.0321 0.2595 0.0321 0.0218 0.3272 0.0218 0.3272 0.2595 0.0321 0.2595 0.3272 0.0218 0.3272 0.2595 0.0321 0.0218 0.0321 0.2595 " />
								</IndexedTriangleSet>
							</Shape>
						</Group>
					</Transform>
				</Transform>
			</Transform>
			<Transform DEF="leg2_TRANSFORM"
			           translation="-0.701295 -0.315733 -1.127819"
			           scale="1.000000 1.000000 1.000000"
			           rotation="0.000000 1.000000 0.000000 0.000000"
			           >
				<Transform DEF="leg2_ifs_TRANSFORM"
				           translation="0.000000 0.000000 0.000000"
				           scale="1.000000 1.000000 1.000000"
				           rotation="0.000000 1.000000 0.000000 0.000000"
				           >
					<Group DEF="group_ME_leg2">
						<Shape>
							<Appearance>
								<Material USE="MA_Body" />
							</Appearance>
							<IndexedTriangleSet solid="false"
							                    normalPerVertex="true"
							                    index="0 1 2 0 2 3 4 5 6 4 6 7 8 9 10 8 10 11 12 13 14 12 14 15 4 13 16 4 16 17 18 19 14 18 14 7 "
							                    >
								<Coordinate point="0.051100 -0.051100 -1.672469 0.051100 0.051100 -1.672469 0.051100 0.051100 0.000000 0.051100 -0.051100 0.000000 0.051100 0.051100 -1.672469 -0.051100 0.051100 -1.672469 -0.051100 0.051100 0.000000 0.051100 0.051100 0.000000 -0.051100 0.051100 -1.672469 -0.051100 -0.051100 -1.672469 -0.051100 -0.051100 0.000000 -0.051100 0.051100 0.000000 -0.051100 -0.051100 -1.672469 0.051100 -0.051100 -1.672469 0.051100 -0.051100 0.000000 -0.051100 -0.051100 0.000000 -0.051100 -0.051100 -1.672469 -0.051100 0.051100 -1.672469 -0.051100 0.051100 0.000000 -0.051100 -0.051100 0.000000 " />
								<Normal vector="0.577349 -0.577349 -0.577349 0.577349 0.577349 -0.577349 0.577349 0.577349 0.577349 0.577349 -0.577349 0.577349 0.577349 0.577349 -0.577349 -0.577349 0.577349 -0.577349 -0.577349 0.577349 0.577349 0.577349 0.577349 0.577349 -0.577349 0.577349 -0.577349 -0.577349 -0.577349 -0.577349 -0.577349 -0.577349 0.577349 -0.577349 0.577349 0.577349 -0.577349 -0.577349 -0.577349 0.577349 -0.577349 -0.577349 0.577349 -0.577349 0.577349 -0.577349 -0.577349 0.577349 -0.577349 -0.577349 -0.577349 -0.577349 0.577349 -0.577349 -0.577349 0.577349 0.577349 -0.577349 -0.577349 0.577349 " />
								<TextureCoordinate point="0.0321 0.0218 0.0321 0.2595 0.3272 0.2595 0.3272 0.0218 0.0321 0.0218 0.0321 0.2595 0.3272 0.2595 0.3272 0.0218 0.0321 0.0218 0.0321 0.2595 0.3272 0.2595 0.3272 0.0218 0.0321 0.0218 0.0321 0.2595 0.3272 0.2595 0.3272 0.0218 0.3272 0.2595 0.3272 0.0218 0.0321 0.0218 0.0321 0.2595 " />
							</IndexedTriangleSet>
						</Shape>
					</Group>
				</Transform>
				<Transform DEF="foot2_TRANSFORM"
				           translation="-0.000000 0.000000 -1.619501"
				           scale="1.000000 1.000000 1.000000"
				           rotation="0.000000 1.000000 0.000000 0.000000"
				           >
					<Transform DEF="foot2_ifs_TRANSFORM"
					           translation="0.000000 0.000000 0.000000"
					           scale="1.000000 1.000000 1.000000"
					           rotation="0.000000 1.000000 0.000000 0.000000"
					           >
						<Group DEF="group_ME_foot2">
							<Shape>
								<Appearance>
									<Material USE="MA_Body" />
								</Appearance>
								<IndexedTriangleSet solid="false"
								                    normalPerVertex="true"
								                    index="0 1 2 0 2 3 4 5 6 4 6 7 8 9 10 8 10 11 12 13 14 12 14 15 4 13 16 4 16 17 18 19 14 18 14 7 "
								                    >
									<Coordinate point="0.213103 -0.215153 -0.465226 0.213103 0.215153 -0.465226 0.213103 0.215153 0.000000 0.213103 -0.215153 -0.000000 0.213103 0.215153 -0.465226 -0.213103 0.215153 -0.465226 -0.213103 0.215153 0.000000 0.213103 0.215153 0.000000 -0.213103 0.215153 -0.465226 -0.213103 -0.215153 -0.465226 -0.213103 -0.215153 -0.000000 -0.213103 0.215153 0.000000 -0.213103 -0.215153 -0.465226 0.213103 -0.215153 -0.465226 0.213103 -0.215153 -0.000000 -0.213103 -0.215153 -0.000000 -0.213103 -0.215153 -0.465226 -0.213103 0.215153 -0.465226 -0.213103 0.215153 0.000000 -0.213103 -0.215153 -0.000000 " />
									<Normal vector="0.577349 -0.577349 -0.577349 0.577349 0.577349 -0.577349 0.577349 0.577349 0.577349 0.577349 -0.577349 0.577349 0.577349 0.577349 -0.577349 -0.577349 0.577349 -0.577349 -0.577349 0.577349 0.577349 0.577349 0.577349 0.577349 -0.577349 0.577349 -0.577349 -0.577349 -0.577349 -0.577349 -0.577349 -0.577349 0.577349 -0.577349 0.577349 0.577349 -0.577349 -0.577349 -0.577349 0.577349 -0.577349 -0.577349 0.577349 -0.577349 0.577349 -0.577349 -0.577349 0.577349 -0.577349 -0.577349 -0.577349 -0.577349 0.577349 -0.577349 -0.577349 0.577349 0.577349 -0.577349 -0.577349 0.577349 " />
									<TextureCoordinate point="0.0321 0.0218 0.0321 0.2595 0.3272 0.2595 0.3272 0.0218 0.0321 0.0218 0.0321 0.2595 0.3272 0.2595 0.3272 0.0218 0.0321 0.0218 0.0321 0.2595 0.3272 0.2595 0.3272 0.0218 0.0321 0.0218 0.0321 0.2595 0.3272 0.2595 0.3272 0.0218 0.3272 0.2595 0.3272 0.0218 0.0321 0.0218 0.0321 0.2595 " />
								</IndexedTriangleSet>
							</Shape>
						</Group>
					</Transform>
				</Transform>
			</Transform>
			<Transform DEF="wing1_TRANSFORM"
			           translation="0.401160 -0.589058 1.257869"
			           scale="1.000000 1.000000 1.000000"
			           rotation="0.000000 1.000000 0.000000 0.000000"
			           >
				<Transform DEF="wing1_ifs_TRANSFORM"
				           translation="0.000000 0.000000 0.000000"
				           scale="1.000000 1.000000 1.000000"
				           rotation="0.000000 1.000000 0.000000 0.000000"
				           >
					<Group DEF="group_ME_wing1">
						<Shape>
							<Appearance>
								<Material USE="MA_Body" />
							</Appearance>
							<IndexedTriangleSet solid="false"
							                    normalPerVertex="true"
							                    index="0 1 2 0 2 3 "
							                    >
								<Coordinate point="2.945260 -1.508558 2.145205 3.230236 1.488344 1.703708 0.142488 1.498451 -0.220749 -0.142488 -1.498451 0.220749 " />
								<Normal vector="-0.520554 0.172674 0.836146 -0.520554 0.172674 0.836146 -0.520554 0.172674 0.836146 -0.520554 0.172674 0.836146 " />
								<TextureCoordinate point="0.3835 0.9651 0.9993 0.9651 0.9993 0.0036 0.3835 0.0036 " />
							</IndexedTriangleSet>
						</Shape>
					</Group>
				</Transform>
			</Transform>
			<Transform DEF="Cube_009_TRANSFORM"
			           translation="-1.244370 -0.957799 -0.333424"
			           scale="1.000000 1.000000 1.000000"
			           rotation="0.000000 1.000000 0.000000 0.000000"
			           >
				<Transform DEF="Cube_009_ifs_TRANSFORM"
				           translation="0.000000 0.000000 0.000000"
				           scale="1.000000 1.000000 1.000000"
				           rotation="0.000000 1.000000 0.000000 0.000000"
				           >
					<Group DEF="group_ME_Cube_027">
						<Shape>
							<Appearance>
								<Material USE="MA_Body" />
							</Appearance>
							<IndexedTriangleSet solid="false"
							                    normalPerVertex="true"
							                    index="0 1 2 0 2 3 4 5 6 4 6 7 8 9 10 8 10 11 12 13 14 12 14 15 4 13 16 4 16 17 18 19 14 18 14 7 "
							                    >
								<Coordinate point="0.045870 -0.014223 -0.051325 -0.134757 0.333582 -0.309139 -0.134757 0.392777 -0.229281 0.045870 0.044972 0.028533 -0.134757 0.333582 -0.309139 -0.226498 0.302833 -0.286346 -0.226498 0.362028 -0.206488 -0.134757 0.392777 -0.229281 -0.226498 0.302833 -0.286346 -0.045870 -0.044972 -0.028533 -0.045870 0.014223 0.051325 -0.226498 0.362028 -0.206488 -0.045870 -0.044972 -0.028533 0.045870 -0.014223 -0.051325 0.045870 0.044972 0.028533 -0.045870 0.014223 0.051325 -0.045870 -0.044972 -0.028533 -0.226498 0.302833 -0.286346 -0.226498 0.362028 -0.206488 -0.045870 0.014223 0.051325 " />
								<Normal vector="0.755120 -0.593249 -0.278878 0.310526 0.262825 -0.913480 0.310526 0.950438 0.014130 0.755120 0.094333 0.648732 0.310526 0.262825 -0.913480 -0.755120 -0.094333 -0.648732 -0.755120 0.593249 0.278878 0.310526 0.950438 0.014130 -0.755120 -0.094333 -0.648732 -0.310526 -0.950438 -0.014130 -0.310526 -0.262825 0.913480 -0.755120 0.593249 0.278878 -0.310526 -0.950438 -0.014130 0.755120 -0.593249 -0.278878 0.755120 0.094333 0.648732 -0.310526 -0.262825 0.913480 -0.310526 -0.950438 -0.014130 -0.755120 -0.094333 -0.648732 -0.755120 0.593249 0.278878 -0.310526 -0.262825 0.913480 " />
								<TextureCoordinate point="0.0338 0.5524 0.0338 0.7288 0.3100 0.7288 0.3100 0.5524 0.0338 0.5524 0.0338 0.7288 0.3100 0.7288 0.3100 0.5524 0.0338 0.5524 0.0338 0.7288 0.3100 0.7288 0.3100 0.5524 0.0338 0.5524 0.0338 0.7288 0.3100 0.7288 0.3100 0.5524 0.3100 0.7288 0.3100 0.5524 0.0338 0.5524 0.0338 0.7288 " />
							</IndexedTriangleSet>
						</Shape>
					</Group>
				</Transform>
			</Transform>
			<Transform DEF="Cube_021_TRANSFORM"
			           translation="-1.236790 -0.816692 -0.189229"
			           scale="1.000000 1.000000 1.000000"
			           rotation="0.000000 1.000000 0.000000 0.000000"
			           >
				<Transform DEF="Cube_021_ifs_TRANSFORM"
				           translation="0.000000 0.000000 0.000000"
				           scale="1.000000 1.000000 1.000000"
				           rotation="0.000000 1.000000 0.000000 0.000000"
				           >
					<Group DEF="group_ME_Cube_028">
						<Shape>
							<Appearance>
								<Material USE="MA_Body" />
							</Appearance>
							<IndexedTriangleSet solid="false"
							                    normalPerVertex="true"
							                    index="0 1 2 0 2 3 4 5 6 4 6 7 8 9 10 8 10 11 12 13 14 12 14 15 4 13 16 4 16 17 18 19 14 18 14 7 "
							                    >
								<Coordinate point="0.045870 -0.000113 -0.053260 -0.134757 0.403580 -0.209684 -0.134757 0.439495 -0.116994 0.045870 0.035803 0.039430 -0.134757 0.403580 -0.209684 -0.226498 0.367890 -0.195854 -0.226498 0.403806 -0.103164 -0.134757 0.439495 -0.116994 -0.226498 0.367890 -0.195854 -0.045870 -0.035803 -0.039430 -0.045870 0.000113 0.053260 -0.226498 0.403806 -0.103164 -0.045870 -0.035803 -0.039430 0.045870 -0.000113 -0.053260 0.045870 0.035803 0.039430 -0.045870 0.000113 0.053260 -0.045870 -0.035803 -0.039430 -0.226498 0.367890 -0.195854 -0.226498 0.403806 -0.103164 -0.045870 0.000113 0.053260 " />
								<Normal vector="0.755120 -0.498123 -0.426130 0.310526 0.495499 -0.811182 0.310526 0.912717 0.265481 0.755120 -0.080935 0.650533 0.310526 0.495499 -0.811182 -0.755120 0.080935 -0.650533 -0.755120 0.498123 0.426130 0.310526 0.912717 0.265481 -0.755120 0.080935 -0.650533 -0.310526 -0.912717 -0.265481 -0.310526 -0.495499 0.811182 -0.755120 0.498123 0.426130 -0.310526 -0.912717 -0.265481 0.755120 -0.498123 -0.426130 0.755120 -0.080935 0.650533 -0.310526 -0.495499 0.811182 -0.310526 -0.912717 -0.265481 -0.755120 0.080935 -0.650533 -0.755120 0.498123 0.426130 -0.310526 -0.495499 0.811182 " />
								<TextureCoordinate point="0.0338 0.5524 0.0338 0.7288 0.3100 0.7288 0.3100 0.5524 0.0338 0.5524 0.0338 0.7288 0.3100 0.7288 0.3100 0.5524 0.0338 0.5524 0.0338 0.7288 0.3100 0.7288 0.3100 0.5524 0.0338 0.5524 0.0338 0.7288 0.3100 0.7288 0.3100 0.5524 0.3100 0.7288 0.3100 0.5524 0.0338 0.5524 0.0338 0.7288 " />
							</IndexedTriangleSet>
						</Shape>
					</Group>
				</Transform>
			</Transform>
			<Transform DEF="Cube_022_TRANSFORM"
			           translation="-1.257400 -0.500713 0.432705"
			           scale="1.000000 1.000000 1.000000"
			           rotation="0.000000 1.000000 0.000000 0.000000"
			           >
				<Transform DEF="Cube_022_ifs_TRANSFORM"
				           translation="0.000000 0.000000 0.000000"
				           scale="1.000000 1.000000 1.000000"
				           rotation="0.000000 1.000000 0.000000 0.000000"
				           >
					<Group DEF="group_ME_Cube_029">
						<Shape>
							<Appearance>
								<Material USE="MA_Body" />
							</Appearance>
							<IndexedTriangleSet solid="false"
							                    normalPerVertex="true"
							                    index="0 1 2 0 2 3 4 5 6 4 6 7 8 9 10 8 10 11 12 13 14 12 14 15 4 13 16 4 16 17 18 19 14 18 14 7 "
							                    >
								<Coordinate point="0.045870 0.018483 -0.049950 -0.134757 0.451385 -0.055634 -0.134757 0.452690 0.043762 0.045870 0.019789 0.049447 -0.134757 0.451385 -0.055634 -0.226498 0.413113 -0.055132 -0.226498 0.414418 0.044265 -0.134757 0.452690 0.043762 -0.226498 0.413113 -0.055132 -0.045870 -0.019789 -0.049447 -0.045870 -0.018483 0.049950 -0.226498 0.414418 0.044265 -0.045870 -0.019789 -0.049447 0.045870 0.018483 -0.049950 0.045870 0.019789 0.049447 -0.045870 -0.018483 0.049950 -0.045870 -0.019789 -0.049447 -0.226498 0.413113 -0.055132 -0.226498 0.414418 0.044265 -0.045870 -0.018483 0.049950 " />
								<Normal vector="0.755120 -0.318064 -0.573199 0.310526 0.747490 -0.587207 0.310526 0.762627 0.567370 0.755120 -0.302896 0.581378 0.310526 0.747490 -0.587207 -0.755120 0.302896 -0.581378 -0.755120 0.318064 0.573199 0.310526 0.762627 0.567370 -0.755120 0.302896 -0.581378 -0.310526 -0.762627 -0.567370 -0.310526 -0.747490 0.587207 -0.755120 0.318064 0.573199 -0.310526 -0.762627 -0.567370 0.755120 -0.318064 -0.573199 0.755120 -0.302896 0.581378 -0.310526 -0.747490 0.587207 -0.310526 -0.762627 -0.567370 -0.755120 0.302896 -0.581378 -0.755120 0.318064 0.573199 -0.310526 -0.747490 0.587207 " />
								<TextureCoordinate point="0.0338 0.5524 0.0338 0.7288 0.3100 0.7288 0.3100 0.5524 0.0338 0.5524 0.0338 0.7288 0.3100 0.7288 0.3100 0.5524 0.0338 0.5524 0.0338 0.7288 0.3100 0.7288 0.3100 0.5524 0.0338 0.5524 0.0338 0.7288 0.3100 0.7288 0.3100 0.5524 0.3100 0.7288 0.3100 0.5524 0.0338 0.5524 0.0338 0.7288 " />
							</IndexedTriangleSet>
						</Shape>
					</Group>
				</Transform>
			</Transform>
			<Transform DEF="Cube_023_TRANSFORM"
			           translation="-1.257400 -0.500713 0.232376"
			           scale="1.000000 1.000000 1.000000"
			           rotation="0.000000 1.000000 0.000000 0.000000"
			           >
				<Transform DEF="Cube_023_ifs_TRANSFORM"
				           translation="0.000000 0.000000 0.000000"
				           scale="1.000000 1.000000 1.000000"
				           rotation="0.000000 1.000000 0.000000 0.000000"
				           >
					<Group DEF="group_ME_Cube_030">
						<Shape>
							<Appearance>
								<Material USE="MA_Body" />
							</Appearance>
							<IndexedTriangleSet solid="false"
							                    normalPerVertex="true"
							                    index="0 1 2 0 2 3 4 5 6 4 6 7 8 9 10 8 10 11 12 13 14 12 14 15 4 13 16 4 16 17 18 19 14 18 14 7 "
							                    >
								<Coordinate point="0.045870 0.007622 -0.052712 -0.134757 0.429750 -0.148858 -0.134757 0.451826 -0.051935 0.045870 0.029698 0.044211 -0.134757 0.429750 -0.148858 -0.226498 0.392430 -0.140357 -0.226498 0.414506 -0.043435 -0.134757 0.451826 -0.051935 -0.226498 0.392430 -0.140357 -0.045870 -0.029698 -0.044211 -0.045870 -0.007622 0.052712 -0.226498 0.414506 -0.043435 -0.045870 -0.029698 -0.044211 0.045870 0.007622 -0.052712 0.045870 0.029698 0.044211 -0.045870 -0.007622 0.052712 -0.045870 -0.029698 -0.044211 -0.226498 0.392430 -0.140357 -0.226498 0.414506 -0.043435 -0.045870 -0.007622 0.052712 " />
								<Normal vector="0.755120 -0.430982 -0.493942 0.310526 0.608051 -0.730613 0.310526 0.864498 0.395215 0.755120 -0.174535 0.631886 0.310526 0.608051 -0.730613 -0.755120 0.174535 -0.631886 -0.755120 0.430982 0.493942 0.310526 0.864498 0.395215 -0.755120 0.174535 -0.631886 -0.310526 -0.864498 -0.395215 -0.310526 -0.608051 0.730613 -0.755120 0.430982 0.493942 -0.310526 -0.864498 -0.395215 0.755120 -0.430982 -0.493942 0.755120 -0.174535 0.631886 -0.310526 -0.608051 0.730613 -0.310526 -0.864498 -0.395215 -0.755120 0.174535 -0.631886 -0.755120 0.430982 0.493942 -0.310526 -0.608051 0.730613 " />
								<TextureCoordinate point="0.0338 0.5524 0.0338 0.7288 0.3100 0.7288 0.3100 0.5524 0.0338 0.5524 0.0338 0.7288 0.3100 0.7288 0.3100 0.5524 0.0338 0.5524 0.0338 0.7288 0.3100 0.7288 0.3100 0.5524 0.0338 0.5524 0.0338 0.7288 0.3100 0.7288 0.3100 0.5524 0.3100 0.7288 0.3100 0.5524 0.0338 0.5524 0.0338 0.7288 " />
							</IndexedTriangleSet>
						</Shape>
					</Group>
				</Transform>
			</Transform>
			<Transform DEF="leg3_TRANSFORM"
			           translation="-0.432781 0.586474 -1.008480"
			           scale="1.000000 1.000000 1.000000"
			           rotation="0.000000 1.000000 0.000000 0.000000"
			           >
				<Transform DEF="leg3_ifs_TRANSFORM"
				           translation="0.000000 0.000000 0.000000"
				           scale="1.000000 1.000000 1.000000"
				           rotation="0.000000 1.000000 0.000000 0.000000"
				           >
					<Group DEF="group_ME_leg3">
						<Shape>
							<Appearance>
								<Material USE="MA_Body" />
							</Appearance>
							<IndexedTriangleSet solid="false"
							                    normalPerVertex="true"
							                    index="0 1 2 0 2 3 4 5 6 4 6 7 8 9 10 8 10 11 12 13 14 12 14 15 4 13 16 4 16 17 18 19 14 18 14 7 "
							                    >
								<Coordinate point="0.051100 -0.051100 -1.672469 0.051100 0.051100 -1.672469 0.051100 0.051100 0.000000 0.051100 -0.051100 0.000000 0.051100 0.051100 -1.672469 -0.051100 0.051100 -1.672469 -0.051100 0.051100 0.000000 0.051100 0.051100 0.000000 -0.051100 0.051100 -1.672469 -0.051100 -0.051100 -1.672469 -0.051100 -0.051100 0.000000 -0.051100 0.051100 0.000000 -0.051100 -0.051100 -1.672469 0.051100 -0.051100 -1.672469 0.051100 -0.051100 0.000000 -0.051100 -0.051100 0.000000 -0.051100 -0.051100 -1.672469 -0.051100 0.051100 -1.672469 -0.051100 0.051100 0.000000 -0.051100 -0.051100 0.000000 " />
								<Normal vector="0.577349 -0.577349 -0.577349 0.577349 0.577349 -0.577349 0.577349 0.577349 0.577349 0.577349 -0.577349 0.577349 0.577349 0.577349 -0.577349 -0.577349 0.577349 -0.577349 -0.577349 0.577349 0.577349 0.577349 0.577349 0.577349 -0.577349 0.577349 -0.577349 -0.577349 -0.577349 -0.577349 -0.577349 -0.577349 0.577349 -0.577349 0.577349 0.577349 -0.577349 -0.577349 -0.577349 0.577349 -0.577349 -0.577349 0.577349 -0.577349 0.577349 -0.577349 -0.577349 0.577349 -0.577349 -0.577349 -0.577349 -0.577349 0.577349 -0.577349 -0.577349 0.577349 0.577349 -0.577349 -0.577349 0.577349 " />
								<TextureCoordinate point="0.0321 0.0218 0.0321 0.2595 0.3272 0.2595 0.3272 0.0218 0.0321 0.0218 0.0321 0.2595 0.3272 0.2595 0.3272 0.0218 0.0321 0.0218 0.0321 0.2595 0.3272 0.2595 0.3272 0.0218 0.0321 0.0218 0.0321 0.2595 0.3272 0.2595 0.3272 0.0218 0.3272 0.2595 0.3272 0.0218 0.0321 0.0218 0.0321 0.2595 " />
							</IndexedTriangleSet>
						</Shape>
					</Group>
				</Transform>
				<Transform DEF="foot3_TRANSFORM"
				           translation="-0.000000 0.000000 -1.619501"
				           scale="1.000000 1.000000 1.000000"
				           rotation="0.000000 1.000000 0.000000 0.000000"
				           >
					<Transform DEF="foot3_ifs_TRANSFORM"
					           translation="0.000000 0.000000 0.000000"
					           scale="1.000000 1.000000 1.000000"
					           rotation="0.000000 1.000000 0.000000 0.000000"
					           >
						<Group DEF="group_ME_foot3">
							<Shape>
								<Appearance>
									<Material USE="MA_Body" />
								</Appearance>
								<IndexedTriangleSet solid="false"
								                    normalPerVertex="true"
								                    index="0 1 2 0 2 3 4 5 6 4 6 7 8 9 10 8 10 11 12 13 14 12 14 15 4 13 16 4 16 17 18 19 14 18 14 7 "
								                    >
									<Coordinate point="0.213103 -0.215153 -0.465226 0.213103 0.215153 -0.465226 0.213103 0.215153 0.000000 0.213103 -0.215153 -0.000000 0.213103 0.215153 -0.465226 -0.213103 0.215153 -0.465226 -0.213103 0.215153 0.000000 0.213103 0.215153 0.000000 -0.213103 0.215153 -0.465226 -0.213103 -0.215153 -0.465226 -0.213103 -0.215153 -0.000000 -0.213103 0.215153 0.000000 -0.213103 -0.215153 -0.465226 0.213103 -0.215153 -0.465226 0.213103 -0.215153 -0.000000 -0.213103 -0.215153 -0.000000 -0.213103 -0.215153 -0.465226 -0.213103 0.215153 -0.465226 -0.213103 0.215153 0.000000 -0.213103 -0.215153 -0.000000 " />
									<Normal vector="0.577349 -0.577349 -0.577349 0.577349 0.577349 -0.577349 0.577349 0.577349 0.577349 0.577349 -0.577349 0.577349 0.577349 0.577349 -0.577349 -0.577349 0.577349 -0.577349 -0.577349 0.577349 0.577349 0.577349 0.577349 0.577349 -0.577349 0.577349 -0.577349 -0.577349 -0.577349 -0.577349 -0.577349 -0.577349 0.577349 -0.577349 0.577349 0.577349 -0.577349 -0.577349 -0.577349 0.577349 -0.577349 -0.577349 0.577349 -0.577349 0.577349 -0.577349 -0.577349 0.577349 -0.577349 -0.577349 -0.577349 -0.577349 0.577349 -0.577349 -0.577349 0.577349 0.577349 -0.577349 -0.577349 0.577349 " />
									<TextureCoordinate point="0.0321 0.0218 0.0321 0.2595 0.3272 0.2595 0.3272 0.0218 0.0321 0.0218 0.0321 0.2595 0.3272 0.2595 0.3272 0.0218 0.0321 0.0218 0.0321 0.2595 0.3272 0.2595 0.3272 0.0218 0.0321 0.0218 0.0321 0.2595 0.3272 0.2595 0.3272 0.0218 0.3272 0.2595 0.3272 0.0218 0.0321 0.0218 0.0321 0.2595 " />
								</IndexedTriangleSet>
							</Shape>
						</Group>
					</Transform>
				</Transform>
			</Transform>
		</Transform>
	</Scene>
</X3D>