<?xml version="1.0" encoding="UTF-8"?>
<!DOCTYPE X3D PUBLIC "ISO//Web3D//DTD X3D 3.0//EN" "http://www.web3d.org/specifications/x3d-3.0.dtd">
<X3D version="3.0" profile="Immersive" xmlns:xsd="http://www.w3.org/2001/XMLSchema-instance" xsd:noNamespaceSchemaLocation="http://www.web3d.org/specifications/x3d-3.0.xsd">
	<head>
		<meta name="filename" content="darmanitan_zen.x3d" />
		<meta name="generator" content="Blender 2.93.18" />
	</head>
	<Scene>
		<NavigationInfo headlight="true"
		                visibilityLimit="0.0"
		                type='"EXAMINE", "ANY"'
		                avatarSize="0.25, 1.75, 0.75"
		                />
		<Background DEF="WO_World"
		            groundColor="0.051 0.051 0.051"
		            skyColor="0.051 0.051 0.051"
		            />
		<Transform DEF="body_TRANSFORM"
		           translation="0.000000 -0.030443 0.016605"
		           scale="1.000000 1.000000 1.000000"
		           rotation="0.000000 0.000000 1.000000 3.141593"
		           >
			<Transform DEF="body_ifs_TRANSFORM"
			           translation="0.000000 0.000000 0.000000"
			           scale="1.000000 1.000000 1.000000"
			           rotation="0.000000 1.000000 0.000000 0.000000"
			           >
				<Group DEF="group_ME_body">
					<Shape>
						<Appearance>
							<Material DEF="MA_Body"
							          diffuseColor="0.800 0.800 0.800"
							          specularColor="0.401 0.401 0.401"
							          emissiveColor="0.000 0.000 0.000"
							          ambientIntensity="0.000"
							          shininess="0.500"
							          transparency="0.0"
							          />
						</Appearance>
						<IndexedTriangleSet solid="false"
						                    normalPerVertex="true"
						                    index="0 1 2 0 2 3 4 5 6 4 6 7 8 9 10 8 10 11 12 13 14 12 14 15 4 16 17 4 17 15 18 5 14 18 14 19 "
						                    >
							<Coordinate point="-1.395586 -1.536995 0.000000 -1.395586 -1.536995 0.823088 -1.395586 1.536995 0.823088 -1.395586 1.536995 0.000000 -1.395586 1.536995 0.000000 -1.395586 1.536995 0.823088 1.395586 1.536995 0.823088 1.395586 1.536995 0.000000 1.395586 1.536995 0.000000 1.395586 1.536995 0.823088 1.395586 -1.536995 0.823088 1.395586 -1.536995 0.000000 1.395586 -1.536995 0.000000 1.395586 -1.536995 0.823088 -1.395586 -1.536995 0.823088 -1.395586 -1.536995 0.000000 1.395586 1.536995 0.000000 1.395586 -1.536995 0.000000 1.395586 1.536995 0.823088 1.395586 -1.536995 0.823088 " />
							<Normal vector="-0.577349 -0.577349 -0.577349 -0.577349 -0.577349 0.577349 -0.577349 0.577349 0.577349 -0.577349 0.577349 -0.577349 -0.577349 0.577349 -0.577349 -0.577349 0.577349 0.577349 0.577349 0.577349 0.577349 0.577349 0.577349 -0.577349 0.577349 0.577349 -0.577349 0.577349 0.577349 0.577349 0.577349 -0.577349 0.577349 0.577349 -0.577349 -0.577349 0.577349 -0.577349 -0.577349 0.577349 -0.577349 0.577349 -0.577349 -0.577349 0.577349 -0.577349 -0.577349 -0.577349 0.577349 0.577349 -0.577349 0.577349 -0.577349 -0.577349 0.577349 0.577349 0.577349 0.577349 -0.577349 0.577349 " />
							<TextureCoordinate point="0.0535 0.4819 0.9621 0.4819 0.9621 0.9556 0.0535 0.9556 0.0535 0.4819 0.9621 0.4819 0.9621 0.9556 0.0535 0.9556 0.0535 0.4819 0.9621 0.4819 0.9621 0.9556 0.0535 0.9556 0.0535 0.4819 0.9621 0.4819 0.9621 0.9556 0.0535 0.9556 0.9621 0.4819 0.9621 0.9556 0.0535 0.4819 0.0535 0.9556 " />
						</IndexedTriangleSet>
					</Shape>
				</Group>
			</Transform>
			<Transform DEF="Cube_TRANSFORM"
			           translation="0.000000 -0.101476 0.712177"
			           scale="1.000000 1.000000 1.000000"
			           rotation="0.000000 1.000000 0.000000 0.000000"
			           >
				<Transform DEF="Cube_ifs_TRANSFORM"
				           translation="0.000000 0.000000 0.000000"
				           scale="1.000000 1.000000 1.000000"
				           rotation="0.000000 1.000000 0.000000 0.000000"
				           >
					<Group DEF="group_ME_Cube">
						<Shape>
							<Appearance>
								<Material USE="MA_Body" />
							</Appearance>
							<IndexedTriangleSet solid="false"
							                    normalPerVertex="true"
							                    index="0 1 2 0 2 3 4 5 6 4 6 7 8 9 10 8 10 11 12 13 14 12 14 15 16 17 18 16 18 19 20 21 14 20 14 22 23 5 24 23 24 25 26 27 28 26 28 29 30 31 32 30 32 33 34 35 36 34 36 37 38 39 24 38 24 40 41 42 28 41 28 43 44 21 45 44 45 46 47 48 49 47 49 50 51 27 52 51 52 53 54 55 56 54 56 57 58 59 60 58 60 61 62 63 64 62 64 65 66 67 68 66 68 69 70 71 72 70 72 73 74 48 60 74 60 75 76 77 64 76 64 78 79 55 80 79 80 81 82 83 84 82 84 85 86 87 88 86 88 89 90 91 92 90 92 93 94 95 80 94 80 96 97 98 84 97 84 99 100 77 101 100 101 102 103 104 105 103 105 106 107 108 109 107 109 110 86 111 112 86 112 113 114 115 116 114 116 117 118 119 120 118 120 73 121 122 123 121 123 89 124 125 126 124 126 37 70 127 128 70 128 129 66 130 131 66 131 132 34 133 134 34 134 135 30 136 137 30 137 138 139 140 141 139 141 69 142 143 144 142 144 19 145 146 147 145 147 33 148 149 150 148 150 151 16 152 153 16 153 154 155 156 157 155 157 158 159 160 161 159 161 162 163 164 165 163 165 166 167 168 169 167 169 170 171 172 173 171 173 174 175 176 177 175 177 178 179 180 181 179 181 182 183 184 185 183 185 186 187 188 189 187 189 190 191 192 193 191 193 194 195 196 197 195 197 198 199 200 201 199 201 202 203 204 205 203 205 206 207 208 209 207 209 210 211 212 213 211 213 214 215 216 217 215 217 218 219 220 221 219 221 222 223 224 225 223 225 226 227 228 229 227 229 230 231 232 233 231 233 234 235 236 237 235 237 238 239 240 241 239 241 242 243 244 245 243 245 246 247 248 249 247 249 250 251 252 253 251 253 254 255 256 257 255 257 258 259 260 261 259 261 262 263 264 265 263 265 266 267 268 269 267 269 270 271 272 273 271 273 274 275 276 277 275 277 278 279 280 281 279 281 282 283 284 285 283 285 286 224 219 222 224 222 225 228 215 218 228 218 229 232 211 214 232 214 233 236 207 210 236 210 237 240 203 206 240 206 241 244 199 202 244 202 245 248 195 198 248 198 249 287 288 289 287 289 290 291 292 293 291 293 294 295 296 297 295 297 298 264 179 182 264 182 265 268 175 178 268 178 269 272 171 174 272 174 273 276 167 170 276 170 277 299 300 301 299 301 302 303 304 305 303 305 306 307 308 309 307 309 310 311 312 313 311 313 314 315 97 99 315 99 316 317 94 96 317 96 318 319 62 65 319 65 320 321 58 61 321 61 322 323 324 325 323 325 326 327 328 329 327 329 330 331 332 333 331 333 334 335 44 46 335 46 336 337 41 43 337 43 338 339 38 40 339 40 340 341 12 15 341 15 342 343 8 11 343 11 344 345 4 7 345 7 346 347 0 3 347 3 348 349 350 97 349 97 315 351 352 308 351 308 307 353 354 304 353 304 303 355 356 167 355 167 276 357 358 284 357 284 283 359 355 276 359 276 275 356 360 168 356 168 167 361 362 160 361 160 159 363 364 115 363 115 114 365 366 108 365 108 107 367 83 104 367 104 103 350 368 98 350 98 97 365 90 93 365 93 117 369 82 85 369 85 370 "
							                    >
								<Coordinate point="-1.796284 -1.762738 1.446894 -1.796284 -1.762738 1.736273 -1.796284 1.762738 1.736273 -1.796284 1.762738 1.446894 0.862530 1.762738 1.417996 0.862530 1.762738 1.736273 1.796284 1.762738 1.736273 1.796284 1.762738 1.446894 1.796284 1.762738 1.446894 1.796284 1.762738 1.736273 1.796284 -1.762738 1.736273 1.796284 -1.762738 1.446894 -1.005744 -1.762738 1.446894 -1.005744 -1.762738 1.736273 -1.796284 -1.762738 1.736273 -1.796284 -1.762738 1.446894 0.862530 1.762738 0.000000 1.796284 1.762738 0.000000 1.796284 -1.762738 0.000000 1.005744 -1.762738 0.000000 -0.862530 1.762738 1.736273 -1.796284 1.762738 1.736273 -1.005744 -1.762738 1.736273 1.796284 1.762738 1.736273 1.005744 -1.762738 1.736273 1.796284 -1.762738 1.736273 -0.580555 1.762738 1.736273 -0.862530 1.762738 1.736273 -1.005744 -1.762738 1.736273 -0.580555 -1.762738 1.736273 -1.796284 1.762738 0.000000 -0.862530 1.762738 0.000000 -1.005744 -1.762738 0.000000 -1.796284 -1.762738 0.000000 0.580555 1.762738 0.000000 0.862530 1.762738 0.000000 1.005744 -1.762738 0.000000 0.580555 -1.762738 0.000000 1.796284 -1.762738 1.446894 1.796284 -1.762738 1.736273 1.005744 -1.762738 1.446894 -0.580555 -1.762738 1.446894 -0.580555 -1.762738 1.736273 -1.005744 -1.762738 1.446894 -1.796284 1.762738 1.446894 -0.862530 1.762738 1.736273 -0.862530 1.762738 1.417996 0.580555 1.762738 1.550829 0.580555 1.762738 1.736273 0.862530 1.762738 1.736273 0.862530 1.762738 1.417996 -0.862530 1.762738 1.417996 -0.580555 1.762738 1.736273 -0.580555 1.762738 1.550829 0.198514 1.762738 1.343395 0.259654 1.762738 1.736273 0.580555 1.762738 1.736273 0.580555 1.762738 1.550829 1.005744 -1.762738 1.446894 1.005744 -1.762738 1.736273 0.580555 -1.762738 1.736273 0.580555 -1.762738 1.446894 -0.287808 -1.762738 1.446894 -0.287808 -1.762738 1.736273 -0.580555 -1.762738 1.736273 -0.580555 -1.762738 1.446894 -0.862530 1.762738 0.000000 -0.580555 1.762738 0.000000 -0.580555 -1.762738 0.000000 -1.005744 -1.762738 0.000000 0.259654 1.762738 0.000000 0.580555 1.762738 0.000000 0.580555 -1.762738 0.000000 0.287808 -1.762738 0.000000 0.862530 1.762738 1.736273 1.005744 -1.762738 1.736273 -0.259654 1.762738 1.736273 -0.580555 1.762738 1.736273 -0.287808 -1.762738 1.736273 0.580555 1.762738 1.736273 0.287808 -1.762738 1.736273 0.580555 -1.762738 1.736273 0.000000 1.762738 1.736273 -0.259654 1.762738 1.736273 -0.287808 -1.762738 1.736273 0.000000 -1.762738 1.736273 -0.580555 1.762738 0.000000 -0.259654 1.762738 0.000000 -0.287808 -1.762738 0.000000 -0.580555 -1.762738 0.000000 0.000000 1.762738 0.000000 0.259654 1.762738 0.000000 0.287808 -1.762738 0.000000 0.000000 -1.762738 0.000000 0.580555 -1.762738 1.446894 0.580555 -1.762738 1.736273 0.287808 -1.762738 1.446894 0.000000 -1.762738 1.446894 0.000000 -1.762738 1.736273 -0.287808 -1.762738 1.446894 -0.580555 1.762738 1.550829 -0.259654 1.762738 1.736273 -0.198514 1.762738 1.343395 0.000000 1.762738 1.311815 0.000000 1.762738 1.736273 0.259654 1.762738 1.736273 0.198514 1.762738 1.343395 0.000000 1.762738 0.000000 0.000000 1.762738 0.257226 0.259654 1.762738 0.257226 0.259654 1.762738 0.000000 -0.580555 1.762738 0.257226 -0.259654 1.762738 0.257226 -0.259654 1.762738 0.000000 0.000000 -1.762738 0.000000 0.000000 -1.762738 0.257226 -0.287808 -1.762738 0.257226 -0.287808 -1.762738 0.000000 0.580555 -1.762738 0.000000 0.580555 -1.762738 0.257226 0.287808 -1.762738 0.257226 -0.287808 -1.762738 0.000000 -0.287808 -1.762738 0.257226 -0.580555 -1.762738 0.257226 1.005744 -1.762738 0.000000 1.005744 -1.762738 0.257226 0.580555 -1.762738 0.257226 0.259654 1.762738 0.257226 0.580555 1.762738 0.257226 0.580555 1.762738 0.000000 -0.862530 1.762738 0.257226 -0.580555 1.762738 0.257226 -0.580555 1.762738 0.000000 0.580555 1.762738 0.257226 0.862530 1.762738 0.257226 0.862530 1.762738 0.000000 -1.796284 1.762738 0.257226 -0.862530 1.762738 0.257226 -0.862530 1.762738 0.000000 -0.580555 -1.762738 0.000000 -0.580555 -1.762738 0.257226 -1.005744 -1.762738 0.257226 1.796284 -1.762738 0.000000 1.796284 -1.762738 0.257226 1.005744 -1.762738 0.257226 -1.005744 -1.762738 0.000000 -1.005744 -1.762738 0.257226 -1.796284 -1.762738 0.257226 1.796284 1.762738 0.000000 1.796284 1.762738 0.257226 1.796284 -1.762738 0.257226 1.796284 -1.762738 0.000000 0.862530 1.762738 0.257226 1.796284 1.762738 0.257226 1.796284 1.762738 0.000000 -1.796284 -1.762738 0.000000 -1.796284 -1.762738 0.257226 -1.796284 1.762738 0.257226 -1.796284 1.762738 0.000000 0.000000 1.762738 0.829145 0.000000 1.762738 1.018662 0.198514 1.762738 1.105507 0.198514 1.762738 0.860725 -0.580555 1.762738 1.027389 -0.580555 1.762738 1.346267 -0.198514 1.762738 1.105507 -0.198514 1.762738 0.860725 0.000000 -1.762738 0.976634 0.000000 -1.762738 1.253039 -0.287808 -1.762738 1.253039 -0.287808 -1.762738 0.976634 0.580555 -1.762738 0.881110 0.580555 -1.762738 1.157515 0.287808 -1.762738 1.253039 0.287808 -1.762738 0.976634 -0.287808 -1.762738 0.976634 -0.287808 -1.762738 1.253039 -0.580555 -1.762738 1.157515 -0.580555 -1.762738 0.881110 1.005744 -1.762738 0.881110 1.005744 -1.762738 1.157515 0.580555 -1.762738 1.157515 0.580555 -1.762738 0.881110 0.198514 1.762738 0.860725 0.198514 1.762738 1.105507 0.580555 1.762738 1.346267 0.580555 1.762738 1.027389 -0.862530 1.762738 0.888988 -0.862530 1.762738 1.360103 -0.580555 1.762738 1.346267 -0.580555 1.762738 1.027389 0.580555 1.762738 1.027389 0.580555 1.762738 1.346267 0.862530 1.762738 1.360103 0.862530 1.762738 0.888988 -1.796284 1.762738 0.881110 -1.796284 1.762738 1.157515 -0.862530 1.762738 1.360103 -0.862530 1.762738 0.888988 -0.580555 -1.762738 0.881110 -0.580555 -1.762738 1.157515 -1.005744 -1.762738 1.157515 -1.005744 -1.762738 0.881110 1.796284 -1.762738 0.881110 1.796284 -1.762738 1.157515 1.005744 -1.762738 1.157515 1.005744 -1.762738 0.881110 -1.005744 -1.762738 0.881110 -1.005744 -1.762738 1.157515 -1.796284 -1.762738 1.157515 -1.796284 -1.762738 0.881110 1.796284 1.762738 0.881110 1.796284 1.762738 1.157515 1.796284 -1.762738 1.157515 1.796284 -1.762738 0.881110 0.862530 1.762738 0.888988 0.862530 1.762738 1.360103 1.796284 1.762738 1.157515 1.796284 1.762738 0.881110 -1.796284 -1.762738 0.881110 -1.796284 -1.762738 1.157515 -1.796284 1.762738 1.157515 -1.796284 1.762738 0.881110 -1.796284 -1.762738 0.257226 -1.796284 -1.762738 0.683678 -1.796284 1.762738 0.683678 -1.796284 1.762738 0.257226 0.862530 1.762738 0.257226 0.862530 1.762738 0.849491 1.796284 1.762738 0.683678 1.796284 1.762738 0.257226 1.796284 1.762738 0.257226 1.796284 1.762738 0.683678 1.796284 -1.762738 0.683678 1.796284 -1.762738 0.257226 -1.005744 -1.762738 0.257226 -1.005744 -1.762738 0.683678 -1.796284 -1.762738 0.683678 -1.796284 -1.762738 0.257226 1.796284 -1.762738 0.257226 1.796284 -1.762738 0.683678 1.005744 -1.762738 0.683678 1.005744 -1.762738 0.257226 -0.580555 -1.762738 0.257226 -0.580555 -1.762738 0.683678 -1.005744 -1.762738 0.683678 -1.005744 -1.762738 0.257226 -1.796284 1.762738 0.257226 -1.796284 1.762738 0.683678 -0.862530 1.762738 0.849491 -0.862530 1.762738 0.257226 0.580555 1.762738 0.257226 0.580555 1.762738 0.892102 0.862530 1.762738 0.849491 0.862530 1.762738 0.257226 -0.862530 1.762738 0.257226 -0.862530 1.762738 0.849491 -0.580555 1.762738 0.892102 -0.580555 1.762738 0.257226 0.259654 1.762738 0.257226 0.198514 1.762738 0.685880 0.580555 1.762738 0.892102 0.580555 1.762738 0.257226 1.005744 -1.762738 0.257226 1.005744 -1.762738 0.683678 0.580555 -1.762738 0.683678 0.580555 -1.762738 0.257226 -0.287808 -1.762738 0.257226 -0.287808 -1.762738 0.683678 -0.580555 -1.762738 0.683678 -0.580555 -1.762738 0.257226 0.580555 -1.762738 0.257226 0.580555 -1.762738 0.683678 0.287808 -1.762738 0.683678 0.287808 -1.762738 0.257226 0.000000 -1.762738 0.257226 0.000000 -1.762738 0.683678 -0.287808 -1.762738 0.683678 -0.287808 -1.762738 0.257226 -0.580555 1.762738 0.257226 -0.580555 1.762738 0.892102 -0.198514 1.762738 0.685880 -0.259654 1.762738 0.257226 0.000000 1.762738 0.257226 0.000000 1.762738 0.654300 0.198514 1.762738 0.685880 0.259654 1.762738 0.257226 0.580555 1.762738 0.892102 0.580555 1.762738 1.027389 0.862530 1.762738 0.888988 0.862530 1.762738 0.849491 -0.862530 1.762738 0.849491 -0.862530 1.762738 0.888988 -0.580555 1.762738 1.027389 -0.580555 1.762738 0.892102 0.198514 1.762738 0.685880 0.198514 1.762738 0.860725 0.580555 1.762738 1.027389 0.580555 1.762738 0.892102 -0.580555 1.762738 0.892102 -0.580555 1.762738 1.027389 -0.198514 1.762738 0.860725 -0.198514 1.762738 0.685880 0.000000 1.762738 0.654300 0.000000 1.762738 0.829145 0.198514 1.762738 0.860725 0.198514 1.762738 0.685880 0.000000 1.762738 1.018662 0.000000 1.762738 1.311815 0.198514 1.762738 1.343395 0.198514 1.762738 1.105507 -0.580555 1.762738 1.346267 -0.580555 1.762738 1.550829 -0.198514 1.762738 1.343395 -0.198514 1.762738 1.105507 0.000000 -1.762738 1.253039 -0.287808 -1.762738 1.253039 0.580555 -1.762738 1.157515 0.287808 -1.762738 1.253039 -0.287808 -1.762738 1.253039 -0.580555 -1.762738 1.157515 1.005744 -1.762738 1.157515 0.580555 -1.762738 1.157515 0.198514 1.762738 1.105507 0.198514 1.762738 1.343395 0.580555 1.762738 1.550829 0.580555 1.762738 1.346267 -0.862530 1.762738 1.360103 -0.862530 1.762738 1.417996 -0.580555 1.762738 1.550829 -0.580555 1.762738 1.346267 0.580555 1.762738 1.346267 0.580555 1.762738 1.550829 0.862530 1.762738 1.417996 0.862530 1.762738 1.360103 -1.796284 1.762738 1.157515 -0.862530 1.762738 1.360103 -0.580555 -1.762738 1.157515 -1.005744 -1.762738 1.157515 1.796284 -1.762738 1.157515 1.005744 -1.762738 1.157515 -1.005744 -1.762738 1.157515 -1.796284 -1.762738 1.157515 1.796284 1.762738 1.157515 1.796284 -1.762738 1.157515 0.862530 1.762738 1.360103 1.796284 1.762738 1.157515 -1.796284 -1.762738 1.157515 -1.796284 1.762738 1.157515 0.287808 -1.762738 1.253039 0.287808 -1.762738 1.446894 -0.198514 1.762738 1.105507 -0.198514 1.762738 1.343395 -0.198514 1.762738 0.685880 -0.198514 1.762738 0.860725 0.287808 -1.762738 0.683678 0.287808 -1.762738 0.976634 -0.259654 1.762738 0.257226 -0.198514 1.762738 0.685880 0.287808 -1.762738 0.257226 0.287808 -1.762738 1.253039 -0.198514 1.762738 0.860725 -0.198514 1.762738 1.105507 0.287808 -1.762738 0.000000 0.287808 -1.762738 0.257226 -0.259654 1.762738 0.000000 -0.259654 1.762738 0.257226 -0.198514 1.762738 1.343395 0.287808 -1.762738 1.736273 0.259654 1.762738 1.736273 0.287808 -1.762738 1.736273 " />
								<Normal vector="-0.707083 -0.707083 0.000000 -0.577349 -0.577349 0.577349 -0.577349 0.577349 0.577349 -0.707083 0.707083 0.000000 0.000000 1.000000 0.000000 0.000000 0.707083 0.707083 0.577349 0.577349 0.577349 0.707083 0.707083 0.000000 0.707083 0.707083 0.000000 0.577349 0.577349 0.577349 0.577349 -0.577349 0.577349 0.707083 -0.707083 0.000000 0.000000 -1.000000 0.000000 0.000000 -0.707083 0.707083 -0.577349 -0.577349 0.577349 -0.707083 -0.707083 0.000000 0.000000 0.707083 -0.707083 0.577349 0.577349 -0.577349 0.577349 -0.577349 -0.577349 0.000000 -0.707083 -0.707083 0.000000 0.707083 0.707083 -0.577349 0.577349 0.577349 0.000000 -0.707083 0.707083 0.577349 0.577349 0.577349 0.000000 -0.707083 0.707083 0.577349 -0.577349 0.577349 0.000000 0.707083 0.707083 0.000000 0.707083 0.707083 0.000000 -0.707083 0.707083 0.000000 -0.707083 0.707083 -0.577349 0.577349 -0.577349 0.000000 0.707083 -0.707083 0.000000 -0.707083 -0.707083 -0.577349 -0.577349 -0.577349 0.000000 0.707083 -0.707083 0.000000 0.707083 -0.707083 0.000000 -0.707083 -0.707083 0.000000 -0.707083 -0.707083 0.707083 -0.707083 0.000000 0.577349 -0.577349 0.577349 0.000000 -1.000000 0.000000 0.000000 -1.000000 0.000000 0.000000 -0.707083 0.707083 0.000000 -1.000000 0.000000 -0.707083 0.707083 0.000000 0.000000 0.707083 0.707083 0.000000 1.000000 0.000000 0.000000 1.000000 0.000000 0.000000 0.707083 0.707083 0.000000 0.707083 0.707083 0.000000 1.000000 0.000000 0.000000 1.000000 0.000000 0.000000 0.707083 0.707083 0.000000 1.000000 0.000000 0.000000 1.000000 0.000000 0.000000 0.707083 0.707083 0.000000 0.707083 0.707083 0.000000 1.000000 0.000000 0.000000 -1.000000 0.000000 0.000000 -0.707083 0.707083 0.000000 -0.707083 0.707083 0.000000 -1.000000 0.000000 0.000000 -1.000000 0.000000 0.000000 -0.707083 0.707083 0.000000 -0.707083 0.707083 0.000000 -1.000000 0.000000 0.000000 0.707083 -0.707083 0.000000 0.707083 -0.707083 0.000000 -0.707083 -0.707083 0.000000 -0.707083 -0.707083 0.000000 0.707083 -0.707083 0.000000 0.707083 -0.707083 0.000000 -0.707083 -0.707083 0.000000 -0.707083 -0.707083 0.000000 0.707083 0.707083 0.000000 -0.707083 0.707083 0.000000 0.707083 0.707083 0.000000 0.707083 0.707083 0.000000 -0.707083 0.707083 0.000000 0.707083 0.707083 0.000000 -0.707083 0.707083 0.000000 -0.707083 0.707083 0.000000 0.707083 0.707083 0.000000 0.707083 0.707083 0.000000 -0.707083 0.707083 0.000000 -0.707083 0.707083 0.000000 0.707083 -0.707083 0.000000 0.707083 -0.707083 0.000000 -0.707083 -0.707083 0.000000 -0.707083 -0.707083 0.000000 0.707083 -0.707083 0.000000 0.707083 -0.707083 0.000000 -0.707083 -0.707083 0.000000 -0.707083 -0.707083 0.000000 -1.000000 0.000000 0.000000 -0.707083 0.707083 0.000000 -1.000000 0.000000 0.000000 -1.000000 0.000000 0.000000 -0.707083 0.707083 0.000000 -1.000000 0.000000 0.000000 1.000000 0.000000 0.000000 0.707083 0.707083 0.000000 1.000000 0.000000 0.000000 1.000000 0.000000 0.000000 0.707083 0.707083 0.000000 0.707083 0.707083 0.000000 1.000000 0.000000 0.000000 0.707083 -0.707083 0.000000 1.000000 0.000000 0.000000 1.000000 0.000000 0.000000 0.707083 -0.707083 0.000000 1.000000 0.000000 0.000000 1.000000 0.000000 0.000000 0.707083 -0.707083 0.000000 -0.707083 -0.707083 0.000000 -1.000000 0.000000 0.000000 -1.000000 0.000000 0.000000 -0.707083 -0.707083 0.000000 -0.707083 -0.707083 0.000000 -1.000000 0.000000 0.000000 -1.000000 0.000000 0.000000 -0.707083 -0.707083 0.000000 -1.000000 0.000000 0.000000 -1.000000 0.000000 0.000000 -0.707083 -0.707083 0.000000 -1.000000 0.000000 0.000000 -1.000000 0.000000 0.000000 1.000000 0.000000 0.000000 1.000000 0.000000 0.000000 0.707083 -0.707083 0.000000 1.000000 0.000000 0.000000 1.000000 0.000000 0.000000 0.707083 -0.707083 0.000000 1.000000 0.000000 0.000000 1.000000 0.000000 0.000000 0.707083 -0.707083 -0.707083 0.707083 0.000000 0.000000 1.000000 0.000000 0.000000 0.707083 -0.707083 0.000000 -0.707083 -0.707083 0.000000 -1.000000 0.000000 0.000000 -1.000000 0.000000 0.577349 -0.577349 -0.577349 0.707083 -0.707083 0.000000 0.000000 -1.000000 0.000000 0.000000 -0.707083 -0.707083 0.000000 -1.000000 0.000000 -0.707083 -0.707083 0.000000 0.577349 0.577349 -0.577349 0.707083 0.707083 0.000000 0.707083 -0.707083 0.000000 0.577349 -0.577349 -0.577349 0.000000 1.000000 0.000000 0.707083 0.707083 0.000000 0.577349 0.577349 -0.577349 -0.577349 -0.577349 -0.577349 -0.707083 -0.707083 0.000000 -0.707083 0.707083 0.000000 -0.577349 0.577349 -0.577349 0.000000 1.000000 0.000000 0.000000 1.000000 0.000000 0.000000 1.000000 0.000000 0.000000 1.000000 0.000000 0.000000 1.000000 0.000000 0.000000 1.000000 0.000000 0.000000 1.000000 0.000000 0.000000 1.000000 0.000000 0.000000 -1.000000 0.000000 0.000000 -1.000000 0.000000 0.000000 -1.000000 0.000000 0.000000 -1.000000 0.000000 0.000000 -1.000000 0.000000 0.000000 -1.000000 0.000000 0.000000 -1.000000 0.000000 0.000000 -1.000000 0.000000 0.000000 -1.000000 0.000000 0.000000 -1.000000 0.000000 0.000000 -1.000000 0.000000 0.000000 -1.000000 0.000000 0.000000 -1.000000 0.000000 0.000000 -1.000000 0.000000 0.000000 -1.000000 0.000000 0.000000 -1.000000 0.000000 0.000000 1.000000 0.000000 0.000000 1.000000 0.000000 0.000000 1.000000 0.000000 0.000000 1.000000 0.000000 0.000000 1.000000 0.000000 0.000000 1.000000 0.000000 0.000000 1.000000 0.000000 0.000000 1.000000 0.000000 0.000000 1.000000 0.000000 0.000000 1.000000 0.000000 0.000000 1.000000 0.000000 0.000000 1.000000 0.000000 -0.707083 0.707083 0.000000 -0.707083 0.707083 0.000000 0.000000 1.000000 0.000000 0.000000 1.000000 0.000000 0.000000 -1.000000 0.000000 0.000000 -1.000000 0.000000 0.000000 -1.000000 0.000000 0.000000 -1.000000 0.000000 0.707083 -0.707083 0.000000 0.707083 -0.707083 0.000000 0.000000 -1.000000 0.000000 0.000000 -1.000000 0.000000 0.000000 -1.000000 0.000000 0.000000 -1.000000 0.000000 -0.707083 -0.707083 0.000000 -0.707083 -0.707083 0.000000 0.707083 0.707083 0.000000 0.707083 0.707083 0.000000 0.707083 -0.707083 0.000000 0.707083 -0.707083 0.000000 0.000000 1.000000 0.000000 0.000000 1.000000 0.000000 0.707083 0.707083 0.000000 0.707083 0.707083 0.000000 -0.707083 -0.707083 0.000000 -0.707083 -0.707083 0.000000 -0.707083 0.707083 0.000000 -0.707083 0.707083 0.000000 -0.707083 -0.707083 0.000000 -0.707083 -0.707083 0.000000 -0.707083 0.707083 0.000000 -0.707083 0.707083 0.000000 0.000000 1.000000 0.000000 0.000000 1.000000 0.000000 0.707083 0.707083 0.000000 0.707083 0.707083 0.000000 0.707083 0.707083 0.000000 0.707083 0.707083 0.000000 0.707083 -0.707083 0.000000 0.707083 -0.707083 0.000000 0.000000 -1.000000 0.000000 0.000000 -1.000000 0.000000 -0.707083 -0.707083 0.000000 -0.707083 -0.707083 0.000000 0.707083 -0.707083 0.000000 0.707083 -0.707083 0.000000 0.000000 -1.000000 0.000000 0.000000 -1.000000 0.000000 0.000000 -1.000000 0.000000 0.000000 -1.000000 0.000000 0.000000 -1.000000 0.000000 0.000000 -1.000000 0.000000 -0.707083 0.707083 0.000000 -0.707083 0.707083 0.000000 0.000000 1.000000 0.000000 0.000000 1.000000 0.000000 0.000000 1.000000 0.000000 0.000000 1.000000 0.000000 0.000000 1.000000 0.000000 0.000000 1.000000 0.000000 0.000000 1.000000 0.000000 0.000000 1.000000 0.000000 0.000000 1.000000 0.000000 0.000000 1.000000 0.000000 0.000000 1.000000 0.000000 0.000000 1.000000 0.000000 0.000000 1.000000 0.000000 0.000000 1.000000 0.000000 0.000000 -1.000000 0.000000 0.000000 -1.000000 0.000000 0.000000 -1.000000 0.000000 0.000000 -1.000000 0.000000 0.000000 -1.000000 0.000000 0.000000 -1.000000 0.000000 0.000000 -1.000000 0.000000 0.000000 -1.000000 0.000000 0.000000 -1.000000 0.000000 0.000000 -1.000000 0.000000 0.000000 -1.000000 0.000000 0.000000 -1.000000 0.000000 0.000000 -1.000000 0.000000 0.000000 -1.000000 0.000000 0.000000 -1.000000 0.000000 0.000000 -1.000000 0.000000 0.000000 1.000000 0.000000 0.000000 1.000000 0.000000 0.000000 1.000000 0.000000 0.000000 1.000000 0.000000 0.000000 1.000000 0.000000 0.000000 1.000000 0.000000 0.000000 1.000000 0.000000 0.000000 1.000000 0.000000 0.000000 1.000000 0.000000 0.000000 1.000000 0.000000 0.000000 1.000000 0.000000 0.000000 1.000000 0.000000 0.000000 1.000000 0.000000 0.000000 1.000000 0.000000 0.000000 1.000000 0.000000 0.000000 1.000000 0.000000 0.000000 1.000000 0.000000 0.000000 1.000000 0.000000 0.000000 1.000000 0.000000 0.000000 1.000000 0.000000 0.000000 1.000000 0.000000 0.000000 1.000000 0.000000 0.000000 1.000000 0.000000 0.000000 1.000000 0.000000 0.000000 1.000000 0.000000 0.000000 1.000000 0.000000 0.000000 1.000000 0.000000 0.000000 1.000000 0.000000 0.000000 1.000000 0.000000 0.000000 1.000000 0.000000 0.000000 1.000000 0.000000 0.000000 1.000000 0.000000 0.000000 1.000000 0.000000 0.000000 1.000000 0.000000 0.000000 1.000000 0.000000 0.000000 1.000000 0.000000 0.000000 -1.000000 0.000000 0.000000 -1.000000 0.000000 0.000000 -1.000000 0.000000 0.000000 -1.000000 0.000000 0.000000 -1.000000 0.000000 0.000000 -1.000000 0.000000 0.000000 -1.000000 0.000000 0.000000 -1.000000 0.000000 0.000000 1.000000 0.000000 0.000000 1.000000 0.000000 0.000000 1.000000 0.000000 0.000000 1.000000 0.000000 0.000000 1.000000 0.000000 0.000000 1.000000 0.000000 0.000000 1.000000 0.000000 0.000000 1.000000 0.000000 0.000000 1.000000 0.000000 0.000000 1.000000 0.000000 0.000000 1.000000 0.000000 0.000000 1.000000 0.000000 -0.707083 0.707083 0.000000 0.000000 1.000000 0.000000 0.000000 -1.000000 0.000000 0.000000 -1.000000 0.000000 0.707083 -0.707083 0.000000 0.000000 -1.000000 0.000000 0.000000 -1.000000 0.000000 -0.707083 -0.707083 0.000000 0.707083 0.707083 0.000000 0.707083 -0.707083 0.000000 0.000000 1.000000 0.000000 0.707083 0.707083 0.000000 -0.707083 -0.707083 0.000000 -0.707083 0.707083 0.000000 0.000000 -1.000000 0.000000 0.000000 -1.000000 0.000000 0.000000 1.000000 0.000000 0.000000 1.000000 0.000000 0.000000 1.000000 0.000000 0.000000 1.000000 0.000000 0.000000 -1.000000 0.000000 0.000000 -1.000000 0.000000 0.000000 1.000000 0.000000 0.000000 1.000000 0.000000 0.000000 -1.000000 0.000000 0.000000 -1.000000 0.000000 0.000000 1.000000 0.000000 0.000000 1.000000 0.000000 0.000000 -0.707083 -0.707083 0.000000 -1.000000 0.000000 0.000000 0.707083 -0.707083 0.000000 1.000000 0.000000 0.000000 1.000000 0.000000 0.000000 -0.707083 0.707083 0.000000 0.707083 0.707083 0.000000 -0.707083 0.707083 " />
								<TextureCoordinate point="0.5078 0.4819 0.9621 0.4819 0.9621 0.9556 0.5078 0.9556 0.5078 0.4819 0.9621 0.4819 0.9621 0.9556 0.5078 0.9556 0.5078 0.4819 0.9621 0.4819 0.9621 0.9556 0.5078 0.9556 0.5078 0.4819 0.9621 0.4819 0.9621 0.9556 0.5078 0.9556 0.0535 0.4819 0.9621 0.4819 0.9621 0.9556 0.0535 0.9556 0.0535 0.4819 0.9621 0.4819 0.0535 0.9556 0.0535 0.4819 0.9621 0.9556 0.0535 0.9556 0.0535 0.4819 0.9621 0.4819 0.9621 0.9556 0.0535 0.9556 0.0535 0.4819 0.9621 0.4819 0.9621 0.9556 0.0535 0.9556 0.0535 0.4819 0.9621 0.4819 0.9621 0.9556 0.0535 0.9556 0.5078 0.4819 0.9621 0.4819 0.5078 0.9556 0.5078 0.4819 0.9621 0.4819 0.5078 0.9556 0.5078 0.4819 0.9621 0.9556 0.5078 0.9556 0.5078 0.4819 0.9621 0.4819 0.9621 0.9556 0.5078 0.9556 0.5078 0.4819 0.9621 0.9556 0.5078 0.9556 0.5078 0.4819 0.9621 0.4819 0.9621 0.9556 0.5078 0.9556 0.5078 0.4819 0.9621 0.4819 0.9621 0.9556 0.5078 0.9556 0.5078 0.4819 0.9621 0.4819 0.9621 0.9556 0.5078 0.9556 0.0535 0.4819 0.9621 0.4819 0.9621 0.9556 0.0535 0.9556 0.0535 0.4819 0.9621 0.4819 0.9621 0.9556 0.0535 0.9556 0.0535 0.4819 0.0535 0.9556 0.0535 0.4819 0.9621 0.4819 0.0535 0.9556 0.0535 0.4819 0.9621 0.9556 0.0535 0.9556 0.5078 0.4819 0.9621 0.4819 0.9621 0.9556 0.5078 0.9556 0.0535 0.4819 0.9621 0.4819 0.9621 0.9556 0.0535 0.9556 0.5078 0.4819 0.9621 0.4819 0.9621 0.9556 0.5078 0.9556 0.5078 0.4819 0.9621 0.4819 0.5078 0.9556 0.5078 0.7188 0.9621 0.7188 0.5078 0.9556 0.5078 0.4819 0.9621 0.9556 0.5078 0.9556 0.5078 0.7188 0.9621 0.7188 0.9621 0.9556 0.5078 0.9556 0.0535 0.7188 0.9621 0.7188 0.9621 0.9556 0.0535 0.9556 0.9621 0.4819 0.9621 0.9556 0.0535 0.9556 0.0535 0.7188 0.9621 0.7188 0.9621 0.9556 0.0535 0.9556 0.0535 0.4819 0.9621 0.4819 0.9621 0.9556 0.0535 0.4819 0.9621 0.4819 0.9621 0.9556 0.0535 0.4819 0.9621 0.4819 0.9621 0.9556 0.9621 0.4819 0.9621 0.9556 0.0535 0.9556 0.9621 0.4819 0.9621 0.9556 0.0535 0.9556 0.9621 0.4819 0.9621 0.9556 0.0535 0.9556 0.9621 0.4819 0.9621 0.9556 0.0535 0.9556 0.0535 0.4819 0.9621 0.4819 0.9621 0.9556 0.0535 0.4819 0.9621 0.4819 0.9621 0.9556 0.0535 0.4819 0.9621 0.4819 0.9621 0.9556 0.0535 0.4819 0.9621 0.4819 0.9621 0.9556 0.0535 0.9556 0.9621 0.4819 0.9621 0.9556 0.0535 0.9556 0.0535 0.4819 0.9621 0.4819 0.9621 0.9556 0.0535 0.9556 0.6832 0.7188 0.9621 0.7188 0.9621 0.9556 0.6832 0.9556 0.6832 0.4819 0.9621 0.4819 0.9621 0.9556 0.6832 0.9556 0.3319 0.2109 0.4621 0.2109 0.4621 0.4044 0.3319 0.4044 0.6792 0.4917 0.9520 0.4917 0.9520 0.9146 0.6792 0.9146 0.6832 0.4819 0.9621 0.4819 0.9621 0.9556 0.6832 0.9556 0.2940 0.0861 0.3765 0.0861 0.3765 0.3202 0.2940 0.3202 0.6832 0.4819 0.9621 0.4819 0.9621 0.9556 0.6832 0.9556 0.6832 0.4819 0.9621 0.4819 0.9621 0.9556 0.6832 0.9556 0.6832 0.4819 0.9621 0.4819 0.9621 0.9556 0.6832 0.9556 0.6832 0.4819 0.9621 0.4819 0.9621 0.9556 0.6832 0.9556 0.2940 0.0861 0.3765 0.0861 0.3765 0.3202 0.2940 0.3202 0.6832 0.4819 0.9621 0.4819 0.9621 0.9556 0.6832 0.9556 0.6832 0.4819 0.9621 0.4819 0.9621 0.9556 0.6832 0.9556 0.6832 0.4819 0.9621 0.4819 0.9621 0.9556 0.6832 0.9556 0.6832 0.4819 0.9621 0.4819 0.9621 0.9556 0.6832 0.9556 0.6832 0.4819 0.9621 0.4819 0.9621 0.9556 0.6832 0.9556 0.0535 0.4819 0.4839 0.4819 0.4839 0.9556 0.0535 0.9556 0.0535 0.4819 0.4839 0.4819 0.4839 0.9556 0.0535 0.9556 0.0535 0.4819 0.4839 0.4819 0.4839 0.9556 0.0535 0.9556 0.0535 0.4819 0.4839 0.4819 0.4839 0.9556 0.0535 0.9556 0.0535 0.4819 0.4839 0.4819 0.4839 0.9556 0.0535 0.9556 0.1079 0.0861 0.2351 0.0861 0.2351 0.3202 0.1079 0.3202 0.0535 0.4819 0.4839 0.4819 0.4839 0.9556 0.0535 0.9556 0.0535 0.4819 0.4839 0.4819 0.4839 0.9556 0.0535 0.9556 0.0535 0.4819 0.4839 0.4819 0.4839 0.9556 0.0535 0.9556 0.0535 0.4819 0.4839 0.4819 0.4839 0.9556 0.0535 0.9556 0.1079 0.0861 0.2351 0.0861 0.2351 0.3202 0.1079 0.3202 0.0535 0.4819 0.4839 0.4819 0.4839 0.9556 0.0535 0.9556 0.0636 0.4917 0.4844 0.4917 0.4844 0.9146 0.0636 0.9146 0.0379 0.2109 0.2388 0.2109 0.2388 0.4044 0.0379 0.4044 0.0535 0.4819 0.4839 0.4819 0.4839 0.9556 0.0535 0.9556 0.0535 0.7188 0.4839 0.7188 0.4839 0.9556 0.0535 0.9556 0.3300 0.0267 0.4525 0.0267 0.4525 0.3952 0.3300 0.3952 0.3300 0.0267 0.4525 0.0267 0.4525 0.3952 0.3300 0.3952 0.3300 0.0267 0.4525 0.0267 0.4525 0.3952 0.3300 0.3952 0.3300 0.0267 0.4525 0.0267 0.4525 0.3952 0.3300 0.3952 0.3300 0.2109 0.4525 0.2109 0.4525 0.3952 0.3300 0.3952 0.0654 0.2109 0.3447 0.2109 0.3447 0.3952 0.0654 0.3952 0.0654 0.0267 0.3447 0.0267 0.3447 0.3952 0.0654 0.3952 0.0535 0.7188 0.0535 0.9556 0.0535 0.4819 0.0535 0.9556 0.0535 0.4819 0.0535 0.9556 0.0535 0.4819 0.0535 0.9556 0.0654 0.0267 0.3447 0.0267 0.3447 0.3952 0.0654 0.3952 0.0654 0.0267 0.3447 0.0267 0.3447 0.3952 0.0654 0.3952 0.0654 0.0267 0.3447 0.0267 0.3447 0.3952 0.0654 0.3952 0.0535 0.4819 0.0535 0.9556 0.0535 0.4819 0.0535 0.9556 0.0535 0.4819 0.0535 0.9556 0.0535 0.4819 0.0535 0.9556 0.0535 0.4819 0.0535 0.9556 0.0535 0.4819 0.0535 0.9556 0.0535 0.4819 0.0535 0.9556 0.0535 0.4819 0.5078 0.4819 0.0654 0.0267 0.3447 0.0267 0.3300 0.0267 0.4525 0.0267 0.2388 0.0175 0.3319 0.0175 0.0535 0.4819 0.4839 0.4819 0.0379 0.0175 0.4621 0.0175 0.6832 0.4819 0.9621 0.4819 0.0535 0.4819 0.9621 0.4819 0.0535 0.4819 0.9621 0.4819 0.5078 0.4819 0.9621 0.4819 0.0535 0.4819 0.0535 0.9556 " />
							</IndexedTriangleSet>
						</Shape>
					</Group>
				</Transform>
				<Transform DEF="Cube_001_TRANSFORM"
				           translation="0.000000 0.071033 1.529521"
				           scale="1.000000 1.000000 1.000000"
				           rotation="0.000000 1.000000 0.000000 0.000000"
				           >
					<Transform DEF="Cube_001_ifs_TRANSFORM"
					           translation="0.000000 0.000000 0.000000"
					           scale="1.000000 1.000000 1.000000"
					           rotation="0.000000 1.000000 0.000000 0.000000"
					           >
						<Group DEF="group_ME_Cube_001">
							<Shape>
								<Appearance>
									<Material USE="MA_Body" />
								</Appearance>
								<IndexedTriangleSet solid="false"
								                    normalPerVertex="true"
								                    index="0 1 2 0 2 3 4 5 6 4 6 7 8 9 10 8 10 11 12 13 14 12 14 15 4 16 17 4 17 18 19 20 14 19 14 21 22 5 23 22 23 24 25 26 27 25 27 28 29 30 31 29 31 32 33 34 35 33 35 15 36 37 38 36 38 39 40 41 42 40 42 43 44 45 23 44 23 18 33 20 46 33 46 47 36 30 48 36 48 49 40 26 50 40 50 51 "
								                    >
									<Coordinate point="-1.711760 -1.518092 0.000000 -1.711760 -1.518092 1.099672 -1.711760 1.518092 1.099672 -1.711760 1.518092 0.000000 1.258148 1.518092 -0.000000 1.258148 1.518092 1.099672 1.711760 1.518092 1.099672 1.711760 1.518092 0.000000 1.711760 1.518092 0.000000 1.711760 1.518092 1.099672 1.711760 -1.518092 1.099672 1.711760 -1.518092 0.000000 -1.258148 -1.518092 -0.000000 -1.258148 -1.518092 1.099672 -1.711760 -1.518092 1.099672 -1.711760 -1.518092 0.000000 1.711760 1.518092 0.000000 1.711760 -1.518092 0.000000 1.258148 -1.518092 -0.000000 -1.258148 1.518092 1.099672 -1.711760 1.518092 1.099672 -1.258148 -1.518092 1.099672 1.711760 1.518092 1.099672 1.258148 -1.518092 1.099672 1.711760 -1.518092 1.099672 1.258148 1.518092 1.099672 0.000000 1.518092 1.099672 0.000000 -1.518092 1.099672 1.258148 -1.518092 1.099672 0.000000 1.518092 1.099672 -1.258148 1.518092 1.099672 -1.258148 -1.518092 1.099672 0.000000 -1.518092 1.099672 -1.711760 1.518092 0.000000 -1.258148 1.518092 -0.000000 -1.258148 -1.518092 -0.000000 -1.258148 1.518092 -0.000000 0.000000 1.518092 -0.000000 0.000000 -1.518092 -0.000000 -1.258148 -1.518092 -0.000000 0.000000 1.518092 -0.000000 1.258148 1.518092 -0.000000 1.258148 -1.518092 -0.000000 0.000000 -1.518092 -0.000000 1.711760 -1.518092 0.000000 1.711760 -1.518092 1.099672 -1.258148 1.518092 1.099672 -1.258148 1.518092 -0.000000 0.000000 1.518092 1.099672 0.000000 1.518092 -0.000000 1.258148 1.518092 1.099672 1.258148 1.518092 -0.000000 " />
									<Normal vector="-0.577349 -0.577349 -0.577349 -0.577349 -0.577349 0.577349 -0.577349 0.577349 0.577349 -0.577349 0.577349 -0.577349 0.000000 0.707083 -0.707083 0.000000 0.707083 0.707083 0.577349 0.577349 0.577349 0.577349 0.577349 -0.577349 0.577349 0.577349 -0.577349 0.577349 0.577349 0.577349 0.577349 -0.577349 0.577349 0.577349 -0.577349 -0.577349 0.000000 -0.707083 -0.707083 0.000000 -0.707083 0.707083 -0.577349 -0.577349 0.577349 -0.577349 -0.577349 -0.577349 0.577349 0.577349 -0.577349 0.577349 -0.577349 -0.577349 0.000000 -0.707083 -0.707083 0.000000 0.707083 0.707083 -0.577349 0.577349 0.577349 0.000000 -0.707083 0.707083 0.577349 0.577349 0.577349 0.000000 -0.707083 0.707083 0.577349 -0.577349 0.577349 0.000000 0.707083 0.707083 0.000000 0.707083 0.707083 0.000000 -0.707083 0.707083 0.000000 -0.707083 0.707083 0.000000 0.707083 0.707083 0.000000 0.707083 0.707083 0.000000 -0.707083 0.707083 0.000000 -0.707083 0.707083 -0.577349 0.577349 -0.577349 0.000000 0.707083 -0.707083 0.000000 -0.707083 -0.707083 0.000000 0.707083 -0.707083 0.000000 0.707083 -0.707083 0.000000 -0.707083 -0.707083 0.000000 -0.707083 -0.707083 0.000000 0.707083 -0.707083 0.000000 0.707083 -0.707083 0.000000 -0.707083 -0.707083 0.000000 -0.707083 -0.707083 0.577349 -0.577349 -0.577349 0.577349 -0.577349 0.577349 0.000000 0.707083 0.707083 0.000000 0.707083 -0.707083 0.000000 0.707083 0.707083 0.000000 0.707083 -0.707083 0.000000 0.707083 0.707083 0.000000 0.707083 -0.707083 " />
									<TextureCoordinate point="0.0535 0.4819 0.9621 0.4819 0.9621 0.9556 0.0535 0.9556 0.0535 0.4819 0.9621 0.4819 0.9621 0.9556 0.0535 0.9556 0.0535 0.4819 0.9621 0.4819 0.9621 0.9556 0.0535 0.9556 0.0535 0.4819 0.9621 0.4819 0.9621 0.9556 0.0535 0.9556 0.9621 0.4819 0.9621 0.9556 0.0535 0.9556 0.0535 0.4819 0.9621 0.4819 0.0535 0.9556 0.0535 0.4819 0.9621 0.9556 0.0535 0.9556 0.0535 0.4819 0.9621 0.4819 0.9621 0.9556 0.0535 0.9556 0.0535 0.4819 0.9621 0.4819 0.9621 0.9556 0.0535 0.9556 0.0535 0.4819 0.9621 0.4819 0.9621 0.9556 0.0535 0.4819 0.9621 0.4819 0.9621 0.9556 0.0535 0.9556 0.0535 0.4819 0.9621 0.4819 0.9621 0.9556 0.0535 0.9556 0.0535 0.4819 0.9621 0.4819 0.9621 0.9556 0.0535 0.9556 0.9621 0.9556 0.0535 0.9556 0.9621 0.9556 0.0535 0.9556 " />
								</IndexedTriangleSet>
							</Shape>
							<Shape>
								<Appearance>
									<Material DEF="MA_Eye"
									          diffuseColor="0.800 0.800 0.800"
									          specularColor="0.401 0.401 0.401"
									          emissiveColor="0.000 0.000 0.000"
									          ambientIntensity="0.000"
									          shininess="0.500"
									          transparency="0.0"
									          />
								</Appearance>
								<IndexedTriangleSet solid="false"
								                    normalPerVertex="true"
								                    index="0 1 2 0 2 3 3 2 4 3 4 5 "
								                    >
									<Coordinate point="1.258148 -1.518092 -0.000000 1.258148 -1.518092 1.099672 0.000000 -1.518092 1.099672 0.000000 -1.518092 -0.000000 -1.258148 -1.518092 1.099672 -1.258148 -1.518092 -0.000000 " />
									<Normal vector="0.000000 -0.707083 -0.707083 0.000000 -0.707083 0.707083 0.000000 -0.707083 0.707083 0.000000 -0.707083 -0.707083 0.000000 -0.707083 0.707083 0.000000 -0.707083 -0.707083 " />
									<TextureCoordinate point="1.0000 0.0000 1.0000 1.0000 0.0000 1.0000 0.0000 0.0000 1.0000 1.0000 1.0000 0.0000 " />
								</IndexedTriangleSet>
							</Shape>
						</Group>
					</Transform>
					<Transform DEF="Cube_002_TRANSFORM"
					           translation="0.000000 0.075520 0.930007"
					           scale="1.000000 1.000000 1.000000"
					           rotation="0.000000 1.000000 0.000000 0.000000"
					           >
						<Transform DEF="Cube_002_ifs_TRANSFORM"
						           translation="0.000000 0.000000 0.000000"
						           scale="1.000000 1.000000 1.000000"
						           rotation="0.000000 1.000000 0.000000 0.000000"
						           >
							<Group DEF="group_ME_Cube_002">
								<Shape>
									<Appearance>
										<Material USE="MA_Body" />
									</Appearance>
									<IndexedTriangleSet solid="false"
									                    normalPerVertex="true"
									                    index="0 1 2 0 2 3 4 5 6 4 6 7 8 9 10 8 10 11 12 13 14 12 14 15 4 16 17 4 17 15 18 5 14 18 14 19 "
									                    >
										<Coordinate point="-1.340007 -1.365542 0.081340 -1.340007 -1.326214 0.741596 -1.340007 1.404871 0.578916 -1.340007 1.365542 -0.081340 -1.340007 1.365542 -0.081340 -1.340007 1.404871 0.578916 1.340007 1.404871 0.578916 1.340007 1.365542 -0.081340 1.340007 1.365542 -0.081340 1.340007 1.404871 0.578916 1.340007 -1.326214 0.741596 1.340007 -1.365542 0.081340 1.340007 -1.365542 0.081340 1.340007 -1.326214 0.741596 -1.340007 -1.326214 0.741596 -1.340007 -1.365542 0.081340 1.340007 1.365542 -0.081340 1.340007 -1.365542 0.081340 1.340007 1.404871 0.578916 1.340007 -1.326214 0.741596 " />
										<Normal vector="-0.577349 -0.610645 -0.541978 -0.577349 -0.541978 0.610645 -0.577349 0.610645 0.541978 -0.577349 0.541978 -0.610645 -0.577349 0.541978 -0.610645 -0.577349 0.610645 0.541978 0.577349 0.610645 0.541978 0.577349 0.541978 -0.610645 0.577349 0.541978 -0.610645 0.577349 0.610645 0.541978 0.577349 -0.541978 0.610645 0.577349 -0.610645 -0.541978 0.577349 -0.610645 -0.541978 0.577349 -0.541978 0.610645 -0.577349 -0.541978 0.610645 -0.577349 -0.610645 -0.541978 0.577349 0.541978 -0.610645 0.577349 -0.610645 -0.541978 0.577349 0.610645 0.541978 0.577349 -0.541978 0.610645 " />
										<TextureCoordinate point="0.0535 0.4819 0.9621 0.4819 0.9621 0.9556 0.0535 0.9556 0.0535 0.4819 0.9621 0.4819 0.9621 0.9556 0.0535 0.9556 0.0535 0.4819 0.9621 0.4819 0.9621 0.9556 0.0535 0.9556 0.0535 0.4819 0.9621 0.4819 0.9621 0.9556 0.0535 0.9556 0.9621 0.4819 0.9621 0.9556 0.0535 0.4819 0.0535 0.9556 " />
									</IndexedTriangleSet>
								</Shape>
							</Group>
						</Transform>
					</Transform>
				</Transform>
			</Transform>
			<Transform DEF="hand1_TRANSFORM"
			           translation="1.923980 0.738651 1.721679"
			           scale="1.000000 1.000000 1.000000"
			           rotation="0.000000 1.000000 0.000000 0.000000"
			           >
				<Transform DEF="hand1_ifs_TRANSFORM"
				           translation="0.000000 0.000000 0.000000"
				           scale="1.000000 1.000000 1.000000"
				           rotation="0.000000 1.000000 0.000000 0.000000"
				           >
					<Group DEF="group_ME_hand1">
						<Shape>
							<Appearance>
								<Material USE="MA_Body" />
							</Appearance>
							<IndexedTriangleSet solid="false"
							                    normalPerVertex="true"
							                    index="0 1 2 0 2 3 4 5 6 4 6 7 8 9 10 8 10 11 12 13 14 12 14 15 4 16 17 4 17 15 18 5 14 18 14 19 "
							                    >
								<Coordinate point="-0.441829 -1.296855 -0.728826 -0.441829 -1.296855 0.728826 -0.342228 0.025772 0.728826 -0.342228 0.025772 -0.728826 -0.342228 0.025772 -0.728826 -0.342228 0.025772 0.728826 0.342228 -0.025772 0.728826 0.342228 -0.025772 -0.728826 0.342228 -0.025772 -0.728826 0.342228 -0.025772 0.728826 0.242628 -1.348398 0.728826 0.242628 -1.348398 -0.728826 0.242628 -1.348398 -0.728826 0.242628 -1.348398 0.728826 -0.441829 -1.296855 0.728826 -0.441829 -1.296855 -0.728826 0.342228 -0.025772 -0.728826 0.242628 -1.348398 -0.728826 0.342228 -0.025772 0.728826 0.242628 -1.348398 0.728826 " />
								<Normal vector="-0.619068 -0.532365 -0.577349 -0.619068 -0.532365 0.577349 -0.532365 0.619068 0.577349 -0.532365 0.619068 -0.577349 -0.532365 0.619068 -0.577349 -0.532365 0.619068 0.577349 0.619068 0.532365 0.577349 0.619068 0.532365 -0.577349 0.619068 0.532365 -0.577349 0.619068 0.532365 0.577349 0.532365 -0.619068 0.577349 0.532365 -0.619068 -0.577349 0.532365 -0.619068 -0.577349 0.532365 -0.619068 0.577349 -0.619068 -0.532365 0.577349 -0.619068 -0.532365 -0.577349 0.619068 0.532365 -0.577349 0.532365 -0.619068 -0.577349 0.619068 0.532365 0.577349 0.532365 -0.619068 0.577349 " />
								<TextureCoordinate point="0.0368 0.0521 0.4710 0.0521 0.4710 0.3770 0.0368 0.3770 0.0368 0.0521 0.4710 0.0521 0.4710 0.3770 0.0368 0.3770 0.0368 0.0521 0.4710 0.0521 0.4710 0.3770 0.0368 0.3770 0.0368 0.0521 0.4710 0.0521 0.4710 0.3770 0.0368 0.3770 0.4710 0.0521 0.4710 0.3770 0.0368 0.0521 0.0368 0.3770 " />
							</IndexedTriangleSet>
						</Shape>
					</Group>
				</Transform>
				<Transform DEF="Cube_004_TRANSFORM"
				           translation="-0.022211 -0.294954 0.570581"
				           scale="1.000000 1.000000 1.000000"
				           rotation="0.000000 1.000000 0.000000 0.000000"
				           >
					<Transform DEF="Cube_004_ifs_TRANSFORM"
					           translation="0.000000 0.000000 0.000000"
					           scale="1.000000 1.000000 1.000000"
					           rotation="0.000000 1.000000 0.000000 0.000000"
					           >
						<Group DEF="group_ME_Cube_004">
							<Shape>
								<Appearance>
									<Material USE="MA_Body" />
								</Appearance>
								<IndexedTriangleSet solid="false"
								                    normalPerVertex="true"
								                    index="0 1 2 0 2 3 4 5 6 4 6 7 8 9 10 8 10 11 12 13 14 12 14 15 4 16 17 4 17 15 18 5 14 18 14 19 "
								                    >
									<Coordinate point="-0.453964 -0.543369 0.479752 -0.425096 -0.160022 0.724694 -0.192181 0.236936 0.075984 -0.221049 -0.146411 -0.168958 -0.221049 -0.146411 -0.168958 -0.192181 0.236936 0.075984 0.221049 0.146411 0.168958 0.192181 -0.236936 -0.075984 0.192181 -0.236936 -0.075984 0.221049 0.146411 0.168958 -0.011866 -0.250547 0.817668 -0.040734 -0.633893 0.572726 -0.040734 -0.633893 0.572726 -0.011866 -0.250547 0.817668 -0.425096 -0.160022 0.724694 -0.453964 -0.543369 0.479752 0.192181 -0.236936 -0.075984 -0.040734 -0.633893 0.572726 0.221049 0.146411 0.168958 -0.011866 -0.250547 0.817668 " />
									<Normal vector="-0.756432 -0.653005 0.036683 -0.683309 0.318064 0.657155 -0.345195 0.894345 -0.284555 -0.418317 -0.076724 -0.905026 -0.418317 -0.076724 -0.905026 -0.345195 0.894345 -0.284555 0.756432 0.653005 -0.036683 0.683309 -0.318064 -0.657155 0.683309 -0.318064 -0.657155 0.756432 0.653005 -0.036683 0.418317 0.076724 0.905026 0.345195 -0.894345 0.284555 0.345195 -0.894345 0.284555 0.418317 0.076724 0.905026 -0.683309 0.318064 0.657155 -0.756432 -0.653005 0.036683 0.683309 -0.318064 -0.657155 0.345195 -0.894345 0.284555 0.756432 0.653005 -0.036683 0.418317 0.076724 0.905026 " />
									<TextureCoordinate point="0.0368 0.0521 0.4710 0.0521 0.4710 0.3770 0.0368 0.3770 0.0368 0.0521 0.4710 0.0521 0.4710 0.3770 0.0368 0.3770 0.0368 0.0521 0.4710 0.0521 0.4710 0.3770 0.0368 0.3770 0.0368 0.0521 0.4710 0.0521 0.4710 0.3770 0.0368 0.3770 0.4710 0.0521 0.4710 0.3770 0.0368 0.0521 0.0368 0.3770 " />
								</IndexedTriangleSet>
							</Shape>
						</Group>
					</Transform>
				</Transform>
			</Transform>
			<Transform DEF="Cube_005_TRANSFORM"
			           translation="0.403112 -1.583478 3.192818"
			           scale="1.000000 1.000000 1.000000"
			           rotation="0.000000 1.000000 0.000000 0.000000"
			           >
				<Transform DEF="Cube_005_ifs_TRANSFORM"
				           translation="0.000000 0.000000 0.000000"
				           scale="1.000000 1.000000 1.000000"
				           rotation="0.000000 1.000000 0.000000 0.000000"
				           >
					<Group DEF="group_ME_Cube_005">
						<Shape>
							<Appearance>
								<Material USE="MA_Body" />
							</Appearance>
							<IndexedTriangleSet solid="false"
							                    normalPerVertex="true"
							                    index="0 1 2 0 2 3 4 5 6 4 6 7 8 9 10 8 10 11 12 13 14 12 14 15 4 16 17 4 17 15 18 5 14 18 14 19 "
							                    >
								<Coordinate point="-0.191491 -0.168467 -0.116125 -0.191491 -0.099278 0.260555 -0.191491 0.185391 0.208267 -0.191491 0.116203 -0.168414 -0.191491 0.116203 -0.168414 -0.191491 0.185391 0.208267 0.191491 0.185391 0.208267 0.191491 0.116203 -0.168414 0.191491 0.116203 -0.168414 0.191491 0.185391 0.208267 0.191491 -0.099278 0.260555 0.191491 -0.168467 -0.116125 0.191491 -0.168467 -0.116125 0.191491 -0.099278 0.260555 -0.191491 -0.099278 0.260555 -0.191491 -0.168467 -0.116125 0.191491 0.116203 -0.168414 0.191491 -0.168467 -0.116125 0.191491 0.185391 0.208267 0.191491 -0.099278 0.260555 " />
								<Normal vector="-0.577349 -0.672140 -0.463546 -0.577349 -0.463546 0.672140 -0.577349 0.672140 0.463546 -0.577349 0.463546 -0.672140 -0.577349 0.463546 -0.672140 -0.577349 0.672140 0.463546 0.577349 0.672140 0.463546 0.577349 0.463546 -0.672140 0.577349 0.463546 -0.672140 0.577349 0.672140 0.463546 0.577349 -0.463546 0.672140 0.577349 -0.672140 -0.463546 0.577349 -0.672140 -0.463546 0.577349 -0.463546 0.672140 -0.577349 -0.463546 0.672140 -0.577349 -0.672140 -0.463546 0.577349 0.463546 -0.672140 0.577349 -0.672140 -0.463546 0.577349 0.672140 0.463546 0.577349 -0.463546 0.672140 " />
								<TextureCoordinate point="0.5359 0.0283 0.9759 0.0283 0.9759 0.4107 0.5359 0.4107 0.5359 0.0283 0.9759 0.0283 0.9759 0.4107 0.5359 0.4107 0.5359 0.0283 0.9759 0.0283 0.9759 0.4107 0.5359 0.4107 0.5359 0.0283 0.9759 0.0283 0.9759 0.4107 0.5359 0.4107 0.9759 0.0283 0.9759 0.4107 0.5359 0.0283 0.5359 0.4107 " />
							</IndexedTriangleSet>
						</Shape>
					</Group>
				</Transform>
				<Transform DEF="Cube_006_TRANSFORM"
				           translation="-0.078913 0.013016 -0.129321"
				           scale="1.000000 1.000000 1.000000"
				           rotation="0.000000 1.000000 0.000000 0.000000"
				           >
					<Transform DEF="Cube_006_ifs_TRANSFORM"
					           translation="0.000000 0.000000 0.000000"
					           scale="1.000000 1.000000 1.000000"
					           rotation="0.000000 1.000000 0.000000 0.000000"
					           >
						<Group DEF="group_ME_Cube_006">
							<Shape>
								<Appearance>
									<Material USE="MA_Body" />
								</Appearance>
								<IndexedTriangleSet solid="false"
								                    normalPerVertex="true"
								                    index="0 1 2 0 2 3 4 5 6 4 6 7 8 9 10 8 10 11 12 13 14 12 14 15 4 16 17 4 17 15 18 5 14 18 14 19 "
								                    >
									<Coordinate point="0.076954 -0.133262 -0.143929 -0.058077 -0.072056 0.189292 -0.058077 0.134621 0.151329 0.076954 0.073415 -0.181892 0.076954 0.073415 -0.181892 -0.058077 0.134621 0.151329 0.366729 0.165208 0.317854 0.501759 0.104002 -0.015367 0.501759 0.104002 -0.015367 0.366729 0.165208 0.317854 0.366729 -0.041469 0.355816 0.501759 -0.102675 0.022595 0.501759 -0.102675 0.022595 0.366729 -0.041469 0.355816 -0.058077 -0.072056 0.189292 0.076954 -0.133262 -0.143929 0.501759 0.104002 -0.015367 0.501759 -0.102675 0.022595 0.366729 0.165208 0.317854 0.366729 -0.041469 0.355816 " />
									<Normal vector="-0.322550 -0.703330 -0.633412 -0.750053 -0.509568 0.421552 -0.750053 0.626118 0.212928 -0.322550 0.432325 -0.842036 -0.322550 0.432325 -0.842036 -0.750053 0.626118 0.212928 0.322550 0.703330 0.633412 0.750053 0.509568 -0.421552 0.750053 0.509568 -0.421552 0.322550 0.703330 0.633412 0.322550 -0.432325 0.842036 0.750053 -0.626118 -0.212928 0.750053 -0.626118 -0.212928 0.322550 -0.432325 0.842036 -0.750053 -0.509568 0.421552 -0.322550 -0.703330 -0.633412 0.750053 0.509568 -0.421552 0.750053 -0.626118 -0.212928 0.322550 0.703330 0.633412 0.322550 -0.432325 0.842036 " />
									<TextureCoordinate point="0.5359 0.0283 0.9759 0.0283 0.9759 0.4107 0.5359 0.4107 0.5359 0.0283 0.9759 0.0283 0.9759 0.4107 0.5359 0.4107 0.5359 0.0283 0.9759 0.0283 0.9759 0.4107 0.5359 0.4107 0.5359 0.0283 0.9759 0.0283 0.9759 0.4107 0.5359 0.4107 0.9759 0.0283 0.9759 0.4107 0.5359 0.0283 0.5359 0.4107 " />
								</IndexedTriangleSet>
							</Shape>
						</Group>
					</Transform>
					<Transform DEF="Cube_007_TRANSFORM"
					           translation="0.386910 0.078496 0.155790"
					           scale="1.000000 1.000000 1.000000"
					           rotation="0.000000 1.000000 0.000000 0.000000"
					           >
						<Transform DEF="Cube_007_ifs_TRANSFORM"
						           translation="0.000000 0.000000 0.000000"
						           scale="1.000000 1.000000 1.000000"
						           rotation="0.000000 1.000000 0.000000 0.000000"
						           >
							<Group DEF="group_ME_Cube_007">
								<Shape>
									<Appearance>
										<Material USE="MA_Body" />
									</Appearance>
									<IndexedTriangleSet solid="false"
									                    normalPerVertex="true"
									                    index="0 1 2 0 2 3 4 5 6 4 6 7 8 9 10 8 10 11 12 13 14 12 14 15 4 16 17 4 17 15 18 5 14 18 14 19 "
									                    >
										<Coordinate point="0.090594 -0.117641 -0.079414 -0.073642 -0.079366 0.128961 -0.073642 0.120015 0.092339 0.090594 0.081741 -0.116036 0.090594 0.081741 -0.116036 -0.073642 0.120015 0.092339 0.307855 0.173443 0.383212 0.472091 0.135168 0.174837 0.472091 0.135168 0.174837 0.307855 0.173443 0.383212 0.307855 -0.025939 0.419834 0.472091 -0.064213 0.211459 0.472091 -0.064213 0.211459 0.307855 -0.025939 0.419834 -0.073642 -0.079366 0.128961 0.090594 -0.117641 -0.079414 0.472091 0.135168 0.174837 0.472091 -0.064213 0.211459 0.307855 0.173443 0.383212 0.307855 -0.025939 0.419834 " />
										<Normal vector="-0.102573 -0.714164 -0.692373 -0.810022 -0.549303 0.205176 -0.810022 0.586352 -0.003388 -0.102573 0.421491 -0.900998 -0.102573 0.421491 -0.900998 -0.810022 0.586352 -0.003388 0.102573 0.714164 0.692373 0.810022 0.549303 -0.205176 0.810022 0.549303 -0.205176 0.102573 0.714164 0.692373 0.102573 -0.421491 0.900998 0.810022 -0.586352 0.003388 0.810022 -0.586352 0.003388 0.102573 -0.421491 0.900998 -0.810022 -0.549303 0.205176 -0.102573 -0.714164 -0.692373 0.810022 0.549303 -0.205176 0.810022 -0.586352 0.003388 0.102573 0.714164 0.692373 0.102573 -0.421491 0.900998 " />
										<TextureCoordinate point="0.5359 0.0283 0.9759 0.0283 0.9759 0.4107 0.5359 0.4107 0.5359 0.0283 0.9759 0.0283 0.9759 0.4107 0.5359 0.4107 0.5359 0.0283 0.9759 0.0283 0.9759 0.4107 0.5359 0.4107 0.5359 0.0283 0.9759 0.0283 0.9759 0.4107 0.5359 0.4107 0.9759 0.0283 0.9759 0.4107 0.5359 0.0283 0.5359 0.4107 " />
									</IndexedTriangleSet>
								</Shape>
							</Group>
						</Transform>
					</Transform>
				</Transform>
			</Transform>
			<Transform DEF="leg1_TRANSFORM"
			           translation="1.396490 -0.030443 0.328275"
			           scale="1.000000 1.000000 1.000000"
			           rotation="0.000000 1.000000 0.000000 0.000000"
			           >
				<Transform DEF="leg1_ifs_TRANSFORM"
				           translation="0.000000 0.000000 0.000000"
				           scale="1.000000 1.000000 1.000000"
				           rotation="0.000000 1.000000 0.000000 0.000000"
				           >
					<Group DEF="group_ME_leg1">
						<Shape>
							<Appearance>
								<Material USE="MA_Body" />
							</Appearance>
							<IndexedTriangleSet solid="false"
							                    normalPerVertex="true"
							                    index="0 1 2 0 2 3 4 5 6 4 6 7 8 9 10 8 10 11 12 13 14 12 14 15 4 16 17 4 17 15 18 5 14 18 14 19 "
							                    >
								<Coordinate point="-0.547222 -1.452719 -0.335385 -0.547222 -1.452719 0.335385 -0.367141 0.044168 0.335385 -0.367141 0.044168 -0.335385 -0.367141 0.044168 -0.335385 -0.367141 0.044168 0.335385 0.367141 -0.044168 0.335385 0.367141 -0.044168 -0.335385 0.367141 -0.044168 -0.335385 0.367141 -0.044168 0.335385 0.187060 -1.541056 0.335385 0.187060 -1.541056 -0.335385 0.187060 -1.541056 -0.335385 0.187060 -1.541056 0.335385 -0.547222 -1.452719 0.335385 -0.547222 -1.452719 -0.335385 0.367141 -0.044168 -0.335385 0.187060 -1.541056 -0.335385 0.367141 -0.044168 0.335385 0.187060 -1.541056 0.335385 " />
								<Normal vector="-0.642170 -0.504227 -0.577349 -0.642170 -0.504227 0.577349 -0.504227 0.642170 0.577349 -0.504227 0.642170 -0.577349 -0.504227 0.642170 -0.577349 -0.504227 0.642170 0.577349 0.642170 0.504227 0.577349 0.642170 0.504227 -0.577349 0.642170 0.504227 -0.577349 0.642170 0.504227 0.577349 0.504227 -0.642170 0.577349 0.504227 -0.642170 -0.577349 0.504227 -0.642170 -0.577349 0.504227 -0.642170 0.577349 -0.642170 -0.504227 0.577349 -0.642170 -0.504227 -0.577349 0.642170 0.504227 -0.577349 0.504227 -0.642170 -0.577349 0.642170 0.504227 0.577349 0.504227 -0.642170 0.577349 " />
								<TextureCoordinate point="0.0308 0.4894 0.9691 0.4894 0.9691 0.9637 0.0308 0.9637 0.0308 0.4894 0.9691 0.4894 0.9691 0.9637 0.0308 0.9637 0.0308 0.4894 0.9691 0.4894 0.9691 0.9637 0.0308 0.9637 0.0308 0.4894 0.9691 0.4894 0.9691 0.9637 0.0308 0.9637 0.9691 0.4894 0.9691 0.9637 0.0308 0.4894 0.0308 0.9637 " />
							</IndexedTriangleSet>
						</Shape>
					</Group>
				</Transform>
				<Transform DEF="Cube_009_TRANSFORM"
				           translation="-0.150985 -1.378190 0.015145"
				           scale="1.000000 1.000000 1.000000"
				           rotation="0.000000 1.000000 0.000000 0.000000"
				           >
					<Transform DEF="Cube_009_ifs_TRANSFORM"
					           translation="0.000000 0.000000 0.000000"
					           scale="1.000000 1.000000 1.000000"
					           rotation="0.000000 1.000000 0.000000 0.000000"
					           >
						<Group DEF="group_ME_Cube_009">
							<Shape>
								<Appearance>
									<Material USE="MA_Body" />
								</Appearance>
								<IndexedTriangleSet solid="false"
								                    normalPerVertex="true"
								                    index="0 1 2 0 2 3 4 5 6 4 6 7 8 9 10 8 10 11 12 13 14 12 14 15 4 16 17 4 17 15 18 5 14 18 14 19 "
								                    >
									<Coordinate point="-0.834159 -0.067594 -0.255392 -0.754576 -0.175533 0.406717 -0.059113 0.156982 0.377333 -0.138697 0.264921 -0.284776 -0.138697 0.264921 -0.284776 -0.059113 0.156982 0.377333 0.138697 -0.264921 0.284776 0.059113 -0.156982 -0.377333 0.059113 -0.156982 -0.377333 0.138697 -0.264921 0.284776 -0.556766 -0.597436 0.314161 -0.636349 -0.489497 -0.347948 -0.636349 -0.489497 -0.347948 -0.556766 -0.597436 0.314161 -0.754576 -0.175533 0.406717 -0.834159 -0.067594 -0.255392 0.059113 -0.156982 -0.377333 -0.636349 -0.489497 -0.347948 0.138697 -0.264921 0.284776 -0.556766 -0.597436 0.314161 " />
									<Normal vector="-0.828883 0.356090 -0.431379 -0.692862 0.171606 0.700308 0.348094 0.669332 0.656331 0.212073 0.853816 -0.475356 0.212073 0.853816 -0.475356 0.348094 0.669332 0.656331 0.828883 -0.356090 0.431379 0.692862 -0.171606 -0.700308 0.692862 -0.171606 -0.700308 0.828883 -0.356090 0.431379 -0.212073 -0.853816 0.475356 -0.348094 -0.669332 -0.656331 -0.348094 -0.669332 -0.656331 -0.212073 -0.853816 0.475356 -0.692862 0.171606 0.700308 -0.828883 0.356090 -0.431379 0.692862 -0.171606 -0.700308 -0.348094 -0.669332 -0.656331 0.828883 -0.356090 0.431379 -0.212073 -0.853816 0.475356 " />
									<TextureCoordinate point="0.0368 0.0521 0.4710 0.0521 0.4710 0.3770 0.0368 0.3770 0.0368 0.0521 0.4710 0.0521 0.4710 0.3770 0.0368 0.3770 0.0368 0.0521 0.4710 0.0521 0.4710 0.3770 0.0368 0.3770 0.0368 0.0521 0.4710 0.0521 0.4710 0.3770 0.0368 0.3770 0.4710 0.0521 0.4710 0.3770 0.0368 0.0521 0.0368 0.3770 " />
								</IndexedTriangleSet>
							</Shape>
						</Group>
					</Transform>
				</Transform>
			</Transform>
			<Transform DEF="Cube_011_TRANSFORM"
			           translation="0.000000 1.274600 0.538130"
			           scale="1.000000 1.000000 1.000000"
			           rotation="0.000000 1.000000 0.000000 0.000000"
			           >
				<Transform DEF="Cube_011_ifs_TRANSFORM"
				           translation="0.000000 0.000000 0.000000"
				           scale="1.000000 1.000000 1.000000"
				           rotation="0.000000 1.000000 0.000000 0.000000"
				           >
					<Group DEF="group_ME_Cube_011">
						<Shape>
							<Appearance>
								<Material USE="MA_Body" />
							</Appearance>
							<IndexedTriangleSet solid="false"
							                    normalPerVertex="true"
							                    index="0 1 2 0 2 3 4 5 6 4 6 7 8 9 10 8 10 11 12 13 14 12 14 15 4 16 17 4 17 15 18 5 14 18 14 19 "
							                    >
								<Coordinate point="-0.552899 -0.116112 0.274513 -0.552899 0.570524 0.564942 -0.552899 0.802748 0.015915 -0.552899 0.116112 -0.274513 -0.552899 0.116112 -0.274513 -0.552899 0.802748 0.015915 0.552899 0.802748 0.015915 0.552899 0.116112 -0.274513 0.552899 0.116112 -0.274513 0.552899 0.802748 0.015915 0.552899 0.570524 0.564942 0.552899 -0.116112 0.274513 0.552899 -0.116112 0.274513 0.552899 0.570524 0.564942 -0.552899 0.570524 0.564942 -0.552899 -0.116112 0.274513 0.552899 0.116112 -0.274513 0.552899 -0.116112 0.274513 0.552899 0.802748 0.015915 0.552899 0.570524 0.564942 " />
								<Normal vector="-0.577349 -0.756645 0.306803 -0.577349 0.306803 0.756645 -0.577349 0.756645 -0.306803 -0.577349 -0.306803 -0.756645 -0.577349 -0.306803 -0.756645 -0.577349 0.756645 -0.306803 0.577349 0.756645 -0.306803 0.577349 -0.306803 -0.756645 0.577349 -0.306803 -0.756645 0.577349 0.756645 -0.306803 0.577349 0.306803 0.756645 0.577349 -0.756645 0.306803 0.577349 -0.756645 0.306803 0.577349 0.306803 0.756645 -0.577349 0.306803 0.756645 -0.577349 -0.756645 0.306803 0.577349 -0.306803 -0.756645 0.577349 -0.756645 0.306803 0.577349 0.756645 -0.306803 0.577349 0.306803 0.756645 " />
								<TextureCoordinate point="0.0535 0.4819 0.9621 0.4819 0.9621 0.9556 0.0535 0.9556 0.0535 0.4819 0.9621 0.4819 0.9621 0.9556 0.0535 0.9556 0.0535 0.4819 0.9621 0.4819 0.9621 0.9556 0.0535 0.9556 0.0535 0.4819 0.9621 0.4819 0.9621 0.9556 0.0535 0.9556 0.9621 0.4819 0.9621 0.9556 0.0535 0.4819 0.0535 0.9556 " />
							</IndexedTriangleSet>
						</Shape>
					</Group>
				</Transform>
			</Transform>
			<Transform DEF="Cube_012_TRANSFORM"
			           translation="0.000000 -1.526059 2.416766"
			           scale="1.000000 1.000000 1.000000"
			           rotation="0.000000 1.000000 0.000000 0.000000"
			           >
				<Transform DEF="Cube_012_ifs_TRANSFORM"
				           translation="0.000000 0.000000 0.000000"
				           scale="1.000000 1.000000 1.000000"
				           rotation="0.000000 1.000000 0.000000 0.000000"
				           >
					<Group DEF="group_ME_Cube_012">
						<Shape>
							<Appearance>
								<Material USE="MA_Body" />
							</Appearance>
							<IndexedTriangleSet solid="false"
							                    normalPerVertex="true"
							                    index="0 1 2 0 2 3 4 5 6 4 6 7 8 9 10 8 10 11 12 13 14 12 14 15 4 16 17 4 17 15 18 5 14 18 14 19 "
							                    >
								<Coordinate point="-0.296403 -0.556493 -0.056318 -0.296403 -0.247544 0.501575 -0.296403 0.154475 0.278947 -0.296403 -0.154475 -0.278947 -0.296403 -0.154475 -0.278947 -0.296403 0.154475 0.278947 0.296403 0.154475 0.278947 0.296403 -0.154475 -0.278947 0.296403 -0.154475 -0.278947 0.296403 0.154475 0.278947 0.296403 -0.247544 0.501575 0.296403 -0.556493 -0.056318 0.296403 -0.556493 -0.056318 0.296403 -0.247544 0.501575 -0.296403 -0.247544 0.501575 -0.296403 -0.556493 -0.056318 0.296403 -0.154475 -0.278947 0.296403 -0.556493 -0.056318 0.296403 0.154475 0.278947 0.296403 -0.247544 0.501575 " />
								<Normal vector="-0.577349 -0.784753 -0.225349 -0.577349 -0.225349 0.784753 -0.577349 0.784753 0.225349 -0.577349 0.225349 -0.784753 -0.577349 0.225349 -0.784753 -0.577349 0.784753 0.225349 0.577349 0.784753 0.225349 0.577349 0.225349 -0.784753 0.577349 0.225349 -0.784753 0.577349 0.784753 0.225349 0.577349 -0.225349 0.784753 0.577349 -0.784753 -0.225349 0.577349 -0.784753 -0.225349 0.577349 -0.225349 0.784753 -0.577349 -0.225349 0.784753 -0.577349 -0.784753 -0.225349 0.577349 0.225349 -0.784753 0.577349 -0.784753 -0.225349 0.577349 0.784753 0.225349 0.577349 -0.225349 0.784753 " />
								<TextureCoordinate point="0.0439 0.4676 0.9659 0.4676 0.9659 0.9754 0.0439 0.9754 0.0439 0.4676 0.9659 0.4676 0.9659 0.9754 0.0439 0.9754 0.0439 0.4676 0.9659 0.4676 0.9659 0.9754 0.0439 0.9754 0.0439 0.4676 0.9659 0.4676 0.9659 0.9754 0.0439 0.9754 0.9659 0.4676 0.9659 0.9754 0.0439 0.4676 0.0439 0.9754 " />
							</IndexedTriangleSet>
						</Shape>
					</Group>
				</Transform>
				<Transform DEF="Cube_013_TRANSFORM"
				           translation="0.183830 -0.185941 0.062620"
				           scale="1.000000 1.000000 1.000000"
				           rotation="0.000000 1.000000 0.000000 0.000000"
				           >
					<Transform DEF="Cube_013_ifs_TRANSFORM"
					           translation="0.000000 0.000000 0.000000"
					           scale="1.000000 1.000000 1.000000"
					           rotation="0.000000 1.000000 0.000000 0.000000"
					           >
						<Group DEF="group_ME_Cube_013">
							<Shape>
								<Appearance>
									<Material USE="MA_Body" />
								</Appearance>
								<IndexedTriangleSet solid="false"
								                    normalPerVertex="true"
								                    index="0 1 2 0 2 3 4 5 6 4 6 7 8 9 10 8 10 11 12 13 14 12 14 15 4 16 17 4 17 15 18 5 14 18 14 19 "
								                    >
									<Coordinate point="0.063709 -0.196087 -0.107856 0.020449 -0.190015 0.132733 -0.063709 0.196087 0.107856 -0.020449 0.190015 -0.132733 -0.020449 0.190015 -0.132733 -0.063709 0.196087 0.107856 0.507425 0.326981 0.207248 0.550685 0.320909 -0.033341 0.550685 0.320909 -0.033341 0.507425 0.326981 0.207248 0.591584 -0.059121 0.232125 0.634844 -0.065193 -0.008464 0.634844 -0.065193 -0.008464 0.591584 -0.059121 0.232125 0.020449 -0.190015 0.132733 0.063709 -0.196087 -0.107856 0.550685 0.320909 -0.033341 0.634844 -0.065193 -0.008464 0.507425 0.326981 0.207248 0.591584 -0.059121 0.232125 " />
									<Normal vector="-0.329966 -0.704459 -0.628315 -0.534257 -0.675802 0.507767 -0.779687 0.450148 0.435224 -0.575396 0.421491 -0.700888 -0.575396 0.421491 -0.700888 -0.779687 0.450148 0.435224 0.329966 0.704459 0.628315 0.534257 0.675802 -0.507767 0.534257 0.675802 -0.507767 0.329966 0.704459 0.628315 0.575396 -0.421491 0.700888 0.779687 -0.450148 -0.435224 0.779687 -0.450148 -0.435224 0.575396 -0.421491 0.700888 -0.534257 -0.675802 0.507767 -0.329966 -0.704459 -0.628315 0.534257 0.675802 -0.507767 0.779687 -0.450148 -0.435224 0.329966 0.704459 0.628315 0.575396 -0.421491 0.700888 " />
									<TextureCoordinate point="0.0439 0.4676 0.9659 0.4676 0.9659 0.9754 0.0439 0.9754 0.0439 0.4676 0.9659 0.4676 0.9659 0.9754 0.0439 0.9754 0.0439 0.4676 0.9659 0.4676 0.9659 0.9754 0.0439 0.9754 0.0439 0.4676 0.9659 0.4676 0.9659 0.9754 0.0439 0.9754 0.9659 0.4676 0.9659 0.9754 0.0439 0.4676 0.0439 0.9754 " />
								</IndexedTriangleSet>
							</Shape>
						</Group>
					</Transform>
					<Transform DEF="Cube_014_TRANSFORM"
					           translation="0.521072 0.089803 0.091427"
					           scale="1.000000 1.000000 1.000000"
					           rotation="0.000000 1.000000 0.000000 0.000000"
					           >
						<Transform DEF="Cube_014_ifs_TRANSFORM"
						           translation="0.000000 0.000000 0.000000"
						           scale="1.000000 1.000000 1.000000"
						           rotation="0.000000 1.000000 0.000000 0.000000"
						           >
							<Group DEF="group_ME_Cube_014">
								<Shape>
									<Appearance>
										<Material USE="MA_Body" />
									</Appearance>
									<IndexedTriangleSet solid="false"
									                    normalPerVertex="true"
									                    index="0 1 2 0 2 3 4 5 6 4 6 7 8 9 10 8 10 11 12 13 14 12 14 15 4 16 17 4 17 15 18 5 14 18 14 19 "
									                    >
										<Coordinate point="0.009714 -0.149398 -0.096919 0.050504 -0.126871 0.114719 -0.009714 0.149398 0.096919 -0.050504 0.126871 -0.114719 -0.050504 0.126871 -0.114719 -0.009714 0.149398 0.096919 0.886130 0.332286 -0.095208 0.845340 0.309759 -0.306846 0.845340 0.309759 -0.306846 0.886130 0.332286 -0.095208 0.946349 0.056018 -0.077408 0.905559 0.033491 -0.289046 0.905559 0.033491 -0.289046 0.946349 0.056018 -0.077408 0.050504 -0.126871 0.114719 0.009714 -0.149398 -0.096919 0.845340 0.309759 -0.306846 0.905559 0.033491 -0.289046 0.886130 0.332286 -0.095208 0.946349 0.056018 -0.077408 " />
										<Normal vector="-0.539537 -0.736015 -0.408826 -0.322184 -0.615986 0.718833 -0.567614 0.509964 0.646290 -0.784967 0.389935 -0.481368 -0.784967 0.389935 -0.481368 -0.567614 0.509964 0.646290 0.539537 0.736015 0.408826 0.322184 0.615986 -0.718833 0.322184 0.615986 -0.718833 0.539537 0.736015 0.408826 0.784967 -0.389935 0.481368 0.567614 -0.509964 -0.646290 0.567614 -0.509964 -0.646290 0.784967 -0.389935 0.481368 -0.322184 -0.615986 0.718833 -0.539537 -0.736015 -0.408826 0.322184 0.615986 -0.718833 0.567614 -0.509964 -0.646290 0.539537 0.736015 0.408826 0.784967 -0.389935 0.481368 " />
										<TextureCoordinate point="0.0439 0.4676 0.9659 0.4676 0.9659 0.9754 0.0439 0.9754 0.0439 0.4676 0.9659 0.4676 0.9659 0.9754 0.0439 0.9754 0.0439 0.4676 0.9659 0.4676 0.9659 0.9754 0.0439 0.9754 0.0439 0.4676 0.9659 0.4676 0.9659 0.9754 0.0439 0.9754 0.9659 0.4676 0.9659 0.9754 0.0439 0.4676 0.0439 0.9754 " />
									</IndexedTriangleSet>
								</Shape>
							</Group>
						</Transform>
					</Transform>
				</Transform>
				<Transform DEF="Cube_017_TRANSFORM"
				           translation="-0.183830 -0.185941 0.062620"
				           scale="1.000000 1.000000 1.000000"
				           rotation="0.000000 1.000000 0.000000 0.000000"
				           >
					<Transform DEF="Cube_017_ifs_TRANSFORM"
					           translation="0.000000 0.000000 0.000000"
					           scale="1.000000 1.000000 1.000000"
					           rotation="0.000000 1.000000 0.000000 0.000000"
					           >
						<Group DEF="group_ME_Cube_017">
							<Shape>
								<Appearance>
									<Material USE="MA_Body" />
								</Appearance>
								<IndexedTriangleSet solid="false"
								                    normalPerVertex="true"
								                    index="0 1 2 0 2 3 4 5 6 4 6 7 8 9 10 8 10 11 12 13 14 12 14 15 4 13 16 4 16 17 18 19 14 18 14 7 "
								                    >
									<Coordinate point="-0.063709 -0.196087 -0.107856 0.020449 0.190015 -0.132733 0.063709 0.196087 0.107856 -0.020449 -0.190015 0.132733 0.020449 0.190015 -0.132733 -0.550685 0.320909 -0.033341 -0.507425 0.326981 0.207248 0.063709 0.196087 0.107856 -0.550685 0.320909 -0.033341 -0.634844 -0.065193 -0.008464 -0.591584 -0.059121 0.232125 -0.507425 0.326981 0.207248 -0.634844 -0.065193 -0.008464 -0.063709 -0.196087 -0.107856 -0.020449 -0.190015 0.132733 -0.591584 -0.059121 0.232125 -0.634844 -0.065193 -0.008464 -0.550685 0.320909 -0.033341 -0.507425 0.326981 0.207248 -0.591584 -0.059121 0.232125 " />
									<Normal vector="0.329966 -0.704459 -0.628315 0.575396 0.421491 -0.700888 0.779687 0.450148 0.435224 0.534257 -0.675802 0.507767 0.575396 0.421491 -0.700888 -0.534257 0.675802 -0.507767 -0.329966 0.704459 0.628315 0.779687 0.450148 0.435224 -0.534257 0.675802 -0.507767 -0.779687 -0.450148 -0.435224 -0.575396 -0.421491 0.700888 -0.329966 0.704459 0.628315 -0.779687 -0.450148 -0.435224 0.329966 -0.704459 -0.628315 0.534257 -0.675802 0.507767 -0.575396 -0.421491 0.700888 -0.779687 -0.450148 -0.435224 -0.534257 0.675802 -0.507767 -0.329966 0.704459 0.628315 -0.575396 -0.421491 0.700888 " />
									<TextureCoordinate point="0.0439 0.4676 0.0439 0.9754 0.9659 0.9754 0.9659 0.4676 0.0439 0.4676 0.0439 0.9754 0.9659 0.9754 0.9659 0.4676 0.0439 0.4676 0.0439 0.9754 0.9659 0.9754 0.9659 0.4676 0.0439 0.4676 0.0439 0.9754 0.9659 0.9754 0.9659 0.4676 0.9659 0.9754 0.9659 0.4676 0.0439 0.4676 0.0439 0.9754 " />
								</IndexedTriangleSet>
							</Shape>
						</Group>
					</Transform>
					<Transform DEF="Cube_018_TRANSFORM"
					           translation="-0.521072 0.089803 0.091427"
					           scale="1.000000 1.000000 1.000000"
					           rotation="0.000000 1.000000 0.000000 0.000000"
					           >
						<Transform DEF="Cube_018_ifs_TRANSFORM"
						           translation="0.000000 0.000000 0.000000"
						           scale="1.000000 1.000000 1.000000"
						           rotation="0.000000 1.000000 0.000000 0.000000"
						           >
							<Group DEF="group_ME_Cube_018">
								<Shape>
									<Appearance>
										<Material USE="MA_Body" />
									</Appearance>
									<IndexedTriangleSet solid="false"
									                    normalPerVertex="true"
									                    index="0 1 2 0 2 3 4 5 6 4 6 7 8 9 10 8 10 11 12 13 14 12 14 15 4 13 16 4 16 17 18 19 14 18 14 7 "
									                    >
										<Coordinate point="-0.009714 -0.149398 -0.096919 0.050504 0.126871 -0.114719 0.009714 0.149398 0.096919 -0.050504 -0.126871 0.114719 0.050504 0.126871 -0.114719 -0.845340 0.309759 -0.306846 -0.886130 0.332286 -0.095208 0.009714 0.149398 0.096919 -0.845340 0.309759 -0.306846 -0.905559 0.033491 -0.289046 -0.946349 0.056018 -0.077408 -0.886130 0.332286 -0.095208 -0.905559 0.033491 -0.289046 -0.009714 -0.149398 -0.096919 -0.050504 -0.126871 0.114719 -0.946349 0.056018 -0.077408 -0.905559 0.033491 -0.289046 -0.845340 0.309759 -0.306846 -0.886130 0.332286 -0.095208 -0.946349 0.056018 -0.077408 " />
										<Normal vector="0.539537 -0.736015 -0.408826 0.784967 0.389935 -0.481368 0.567614 0.509964 0.646290 0.322184 -0.615986 0.718833 0.784967 0.389935 -0.481368 -0.322184 0.615986 -0.718833 -0.539537 0.736015 0.408826 0.567614 0.509964 0.646290 -0.322184 0.615986 -0.718833 -0.567614 -0.509964 -0.646290 -0.784967 -0.389935 0.481368 -0.539537 0.736015 0.408826 -0.567614 -0.509964 -0.646290 0.539537 -0.736015 -0.408826 0.322184 -0.615986 0.718833 -0.784967 -0.389935 0.481368 -0.567614 -0.509964 -0.646290 -0.322184 0.615986 -0.718833 -0.539537 0.736015 0.408826 -0.784967 -0.389935 0.481368 " />
										<TextureCoordinate point="0.0439 0.4676 0.0439 0.9754 0.9659 0.9754 0.9659 0.4676 0.0439 0.4676 0.0439 0.9754 0.9659 0.9754 0.9659 0.4676 0.0439 0.4676 0.0439 0.9754 0.9659 0.9754 0.9659 0.4676 0.0439 0.4676 0.0439 0.9754 0.9659 0.9754 0.9659 0.4676 0.9659 0.9754 0.9659 0.4676 0.0439 0.4676 0.0439 0.9754 " />
									</IndexedTriangleSet>
								</Shape>
							</Group>
						</Transform>
					</Transform>
				</Transform>
			</Transform>
			<Transform DEF="hand2_TRANSFORM"
			           translation="-1.923980 0.738651 1.721679"
			           scale="1.000000 1.000000 1.000000"
			           rotation="0.000000 1.000000 0.000000 0.000000"
			           >
				<Transform DEF="hand2_ifs_TRANSFORM"
				           translation="0.000000 0.000000 0.000000"
				           scale="1.000000 1.000000 1.000000"
				           rotation="0.000000 1.000000 0.000000 0.000000"
				           >
					<Group DEF="group_ME_hand2">
						<Shape>
							<Appearance>
								<Material USE="MA_Body" />
							</Appearance>
							<IndexedTriangleSet solid="false"
							                    normalPerVertex="true"
							                    index="0 1 2 0 2 3 4 5 6 4 6 7 8 9 10 8 10 11 12 13 14 12 14 15 4 13 16 4 16 17 18 19 14 18 14 7 "
							                    >
								<Coordinate point="0.441829 -1.296855 -0.728826 0.342228 0.025772 -0.728826 0.342228 0.025771 0.728826 0.441829 -1.296855 0.728826 0.342228 0.025772 -0.728826 -0.342228 -0.025771 -0.728826 -0.342228 -0.025772 0.728826 0.342228 0.025771 0.728826 -0.342228 -0.025771 -0.728826 -0.242628 -1.348398 -0.728826 -0.242628 -1.348398 0.728826 -0.342228 -0.025772 0.728826 -0.242628 -1.348398 -0.728826 0.441829 -1.296855 -0.728826 0.441829 -1.296855 0.728826 -0.242628 -1.348398 0.728826 -0.242628 -1.348398 -0.728826 -0.342228 -0.025771 -0.728826 -0.342228 -0.025772 0.728826 -0.242628 -1.348398 0.728826 " />
								<Normal vector="0.619068 -0.532365 -0.577349 0.532365 0.619068 -0.577349 0.532365 0.619068 0.577349 0.619068 -0.532365 0.577349 0.532365 0.619068 -0.577349 -0.619068 0.532365 -0.577349 -0.619068 0.532365 0.577349 0.532365 0.619068 0.577349 -0.619068 0.532365 -0.577349 -0.532365 -0.619068 -0.577349 -0.532365 -0.619068 0.577349 -0.619068 0.532365 0.577349 -0.532365 -0.619068 -0.577349 0.619068 -0.532365 -0.577349 0.619068 -0.532365 0.577349 -0.532365 -0.619068 0.577349 -0.532365 -0.619068 -0.577349 -0.619068 0.532365 -0.577349 -0.619068 0.532365 0.577349 -0.532365 -0.619068 0.577349 " />
								<TextureCoordinate point="0.0368 0.0521 0.0368 0.3770 0.4710 0.3770 0.4710 0.0521 0.0368 0.0521 0.0368 0.3770 0.4710 0.3770 0.4710 0.0521 0.0368 0.0521 0.0368 0.3770 0.4710 0.3770 0.4710 0.0521 0.0368 0.0521 0.0368 0.3770 0.4710 0.3770 0.4710 0.0521 0.4710 0.3770 0.4710 0.0521 0.0368 0.0521 0.0368 0.3770 " />
							</IndexedTriangleSet>
						</Shape>
					</Group>
				</Transform>
				<Transform DEF="Cube_003_TRANSFORM"
				           translation="0.022211 -0.294954 0.570581"
				           scale="1.000000 1.000000 1.000000"
				           rotation="0.000000 1.000000 0.000000 0.000000"
				           >
					<Transform DEF="Cube_003_ifs_TRANSFORM"
					           translation="0.000000 0.000000 0.000000"
					           scale="1.000000 1.000000 1.000000"
					           rotation="0.000000 1.000000 0.000000 0.000000"
					           >
						<Group DEF="group_ME_Cube_003">
							<Shape>
								<Appearance>
									<Material USE="MA_Body" />
								</Appearance>
								<IndexedTriangleSet solid="false"
								                    normalPerVertex="true"
								                    index="0 1 2 0 2 3 4 5 6 4 6 7 8 9 10 8 10 11 12 13 14 12 14 15 4 13 16 4 16 17 18 19 14 18 14 7 "
								                    >
									<Coordinate point="0.453964 -0.543369 0.479752 0.221049 -0.146411 -0.168958 0.192181 0.236936 0.075984 0.425096 -0.160022 0.724694 0.221049 -0.146411 -0.168958 -0.192181 -0.236936 -0.075984 -0.221049 0.146411 0.168958 0.192181 0.236936 0.075984 -0.192181 -0.236936 -0.075984 0.040734 -0.633893 0.572726 0.011866 -0.250547 0.817668 -0.221049 0.146411 0.168958 0.040734 -0.633893 0.572726 0.453964 -0.543369 0.479752 0.425096 -0.160022 0.724694 0.011866 -0.250547 0.817668 0.040734 -0.633893 0.572726 -0.192181 -0.236936 -0.075984 -0.221049 0.146411 0.168958 0.011866 -0.250547 0.817668 " />
									<Normal vector="0.756432 -0.653005 0.036683 0.418317 -0.076724 -0.905026 0.345195 0.894345 -0.284555 0.683309 0.318064 0.657155 0.418317 -0.076724 -0.905026 -0.683309 -0.318064 -0.657155 -0.756432 0.653005 -0.036683 0.345195 0.894345 -0.284555 -0.683309 -0.318064 -0.657155 -0.345195 -0.894345 0.284555 -0.418317 0.076724 0.905026 -0.756432 0.653005 -0.036683 -0.345195 -0.894345 0.284555 0.756432 -0.653005 0.036683 0.683309 0.318064 0.657155 -0.418317 0.076724 0.905026 -0.345195 -0.894345 0.284555 -0.683309 -0.318064 -0.657155 -0.756432 0.653005 -0.036683 -0.418317 0.076724 0.905026 " />
									<TextureCoordinate point="0.0368 0.0521 0.0368 0.3770 0.4710 0.3770 0.4710 0.0521 0.0368 0.0521 0.0368 0.3770 0.4710 0.3770 0.4710 0.0521 0.0368 0.0521 0.0368 0.3770 0.4710 0.3770 0.4710 0.0521 0.0368 0.0521 0.0368 0.3770 0.4710 0.3770 0.4710 0.0521 0.4710 0.3770 0.4710 0.0521 0.0368 0.0521 0.0368 0.3770 " />
								</IndexedTriangleSet>
							</Shape>
						</Group>
					</Transform>
				</Transform>
			</Transform>
			<Transform DEF="Cube_008_TRANSFORM"
			           translation="-0.403112 -1.583478 3.192818"
			           scale="1.000000 1.000000 1.000000"
			           rotation="0.000000 1.000000 0.000000 0.000000"
			           >
				<Transform DEF="Cube_008_ifs_TRANSFORM"
				           translation="0.000000 0.000000 0.000000"
				           scale="1.000000 1.000000 1.000000"
				           rotation="0.000000 1.000000 0.000000 0.000000"
				           >
					<Group DEF="group_ME_Cube_008">
						<Shape>
							<Appearance>
								<Material USE="MA_Body" />
							</Appearance>
							<IndexedTriangleSet solid="false"
							                    normalPerVertex="true"
							                    index="0 1 2 0 2 3 4 5 6 4 6 7 8 9 10 8 10 11 12 13 14 12 14 15 4 13 16 4 16 17 18 19 14 18 14 7 "
							                    >
								<Coordinate point="0.191491 -0.168467 -0.116125 0.191491 0.116203 -0.168414 0.191491 0.185391 0.208267 0.191491 -0.099278 0.260555 0.191491 0.116203 -0.168414 -0.191491 0.116203 -0.168414 -0.191491 0.185391 0.208267 0.191491 0.185391 0.208267 -0.191491 0.116203 -0.168414 -0.191491 -0.168467 -0.116125 -0.191491 -0.099278 0.260555 -0.191491 0.185391 0.208267 -0.191491 -0.168467 -0.116125 0.191491 -0.168467 -0.116125 0.191491 -0.099278 0.260555 -0.191491 -0.099278 0.260555 -0.191491 -0.168467 -0.116125 -0.191491 0.116203 -0.168414 -0.191491 0.185391 0.208267 -0.191491 -0.099278 0.260555 " />
								<Normal vector="0.577349 -0.672140 -0.463546 0.577349 0.463546 -0.672140 0.577349 0.672140 0.463546 0.577349 -0.463546 0.672140 0.577349 0.463546 -0.672140 -0.577349 0.463546 -0.672140 -0.577349 0.672140 0.463546 0.577349 0.672140 0.463546 -0.577349 0.463546 -0.672140 -0.577349 -0.672140 -0.463546 -0.577349 -0.463546 0.672140 -0.577349 0.672140 0.463546 -0.577349 -0.672140 -0.463546 0.577349 -0.672140 -0.463546 0.577349 -0.463546 0.672140 -0.577349 -0.463546 0.672140 -0.577349 -0.672140 -0.463546 -0.577349 0.463546 -0.672140 -0.577349 0.672140 0.463546 -0.577349 -0.463546 0.672140 " />
								<TextureCoordinate point="0.5359 0.0283 0.5359 0.4107 0.9759 0.4107 0.9759 0.0283 0.5359 0.0283 0.5359 0.4107 0.9759 0.4107 0.9759 0.0283 0.5359 0.0283 0.5359 0.4107 0.9759 0.4107 0.9759 0.0283 0.5359 0.0283 0.5359 0.4107 0.9759 0.4107 0.9759 0.0283 0.9759 0.4107 0.9759 0.0283 0.5359 0.0283 0.5359 0.4107 " />
							</IndexedTriangleSet>
						</Shape>
					</Group>
				</Transform>
				<Transform DEF="Cube_010_TRANSFORM"
				           translation="0.078913 0.013016 -0.129321"
				           scale="1.000000 1.000000 1.000000"
				           rotation="0.000000 1.000000 0.000000 0.000000"
				           >
					<Transform DEF="Cube_010_ifs_TRANSFORM"
					           translation="0.000000 0.000000 0.000000"
					           scale="1.000000 1.000000 1.000000"
					           rotation="0.000000 1.000000 0.000000 0.000000"
					           >
						<Group DEF="group_ME_Cube_010">
							<Shape>
								<Appearance>
									<Material USE="MA_Body" />
								</Appearance>
								<IndexedTriangleSet solid="false"
								                    normalPerVertex="true"
								                    index="0 1 2 0 2 3 4 5 6 4 6 7 8 9 10 8 10 11 12 13 14 12 14 15 4 13 16 4 16 17 18 19 14 18 14 7 "
								                    >
									<Coordinate point="-0.076954 -0.133262 -0.143929 -0.076954 0.073415 -0.181892 0.058077 0.134621 0.151329 0.058077 -0.072056 0.189292 -0.076954 0.073415 -0.181892 -0.501759 0.104002 -0.015367 -0.366729 0.165208 0.317854 0.058077 0.134621 0.151329 -0.501759 0.104002 -0.015367 -0.501759 -0.102675 0.022595 -0.366729 -0.041469 0.355816 -0.366729 0.165208 0.317854 -0.501759 -0.102675 0.022595 -0.076954 -0.133262 -0.143929 0.058077 -0.072056 0.189292 -0.366729 -0.041469 0.355816 -0.501759 -0.102675 0.022595 -0.501759 0.104002 -0.015367 -0.366729 0.165208 0.317854 -0.366729 -0.041469 0.355816 " />
									<Normal vector="0.322550 -0.703330 -0.633412 0.322550 0.432325 -0.842036 0.750053 0.626118 0.212928 0.750053 -0.509568 0.421552 0.322550 0.432325 -0.842036 -0.750053 0.509568 -0.421552 -0.322550 0.703330 0.633412 0.750053 0.626118 0.212928 -0.750053 0.509568 -0.421552 -0.750053 -0.626118 -0.212928 -0.322550 -0.432325 0.842036 -0.322550 0.703330 0.633412 -0.750053 -0.626118 -0.212928 0.322550 -0.703330 -0.633412 0.750053 -0.509568 0.421552 -0.322550 -0.432325 0.842036 -0.750053 -0.626118 -0.212928 -0.750053 0.509568 -0.421552 -0.322550 0.703330 0.633412 -0.322550 -0.432325 0.842036 " />
									<TextureCoordinate point="0.5359 0.0283 0.5359 0.4107 0.9759 0.4107 0.9759 0.0283 0.5359 0.0283 0.5359 0.4107 0.9759 0.4107 0.9759 0.0283 0.5359 0.0283 0.5359 0.4107 0.9759 0.4107 0.9759 0.0283 0.5359 0.0283 0.5359 0.4107 0.9759 0.4107 0.9759 0.0283 0.9759 0.4107 0.9759 0.0283 0.5359 0.0283 0.5359 0.4107 " />
								</IndexedTriangleSet>
							</Shape>
						</Group>
					</Transform>
					<Transform DEF="Cube_015_TRANSFORM"
					           translation="-0.386910 0.078496 0.155790"
					           scale="1.000000 1.000000 1.000000"
					           rotation="0.000000 1.000000 0.000000 0.000000"
					           >
						<Transform DEF="Cube_015_ifs_TRANSFORM"
						           translation="0.000000 0.000000 0.000000"
						           scale="1.000000 1.000000 1.000000"
						           rotation="0.000000 1.000000 0.000000 0.000000"
						           >
							<Group DEF="group_ME_Cube_015">
								<Shape>
									<Appearance>
										<Material USE="MA_Body" />
									</Appearance>
									<IndexedTriangleSet solid="false"
									                    normalPerVertex="true"
									                    index="0 1 2 0 2 3 4 5 6 4 6 7 8 9 10 8 10 11 12 13 14 12 14 15 4 13 16 4 16 17 18 19 14 18 14 7 "
									                    >
										<Coordinate point="-0.090594 -0.117641 -0.079414 -0.090594 0.081741 -0.116036 0.073642 0.120015 0.092339 0.073642 -0.079367 0.128961 -0.090594 0.081741 -0.116036 -0.472091 0.135168 0.174837 -0.307855 0.173443 0.383212 0.073642 0.120015 0.092339 -0.472091 0.135168 0.174837 -0.472091 -0.064213 0.211459 -0.307855 -0.025939 0.419834 -0.307855 0.173443 0.383212 -0.472091 -0.064213 0.211459 -0.090594 -0.117641 -0.079414 0.073642 -0.079367 0.128961 -0.307855 -0.025939 0.419834 -0.472091 -0.064213 0.211459 -0.472091 0.135168 0.174837 -0.307855 0.173443 0.383212 -0.307855 -0.025939 0.419834 " />
										<Normal vector="0.102573 -0.714164 -0.692373 0.102573 0.421491 -0.900998 0.810022 0.586352 -0.003388 0.810022 -0.549303 0.205176 0.102573 0.421491 -0.900998 -0.810022 0.549303 -0.205176 -0.102573 0.714164 0.692373 0.810022 0.586352 -0.003388 -0.810022 0.549303 -0.205176 -0.810022 -0.586352 0.003388 -0.102573 -0.421491 0.900998 -0.102573 0.714164 0.692373 -0.810022 -0.586352 0.003388 0.102573 -0.714164 -0.692373 0.810022 -0.549303 0.205176 -0.102573 -0.421491 0.900998 -0.810022 -0.586352 0.003388 -0.810022 0.549303 -0.205176 -0.102573 0.714164 0.692373 -0.102573 -0.421491 0.900998 " />
										<TextureCoordinate point="0.5359 0.0283 0.5359 0.4107 0.9759 0.4107 0.9759 0.0283 0.5359 0.0283 0.5359 0.4107 0.9759 0.4107 0.9759 0.0283 0.5359 0.0283 0.5359 0.4107 0.9759 0.4107 0.9759 0.0283 0.5359 0.0283 0.5359 0.4107 0.9759 0.4107 0.9759 0.0283 0.9759 0.4107 0.9759 0.0283 0.5359 0.0283 0.5359 0.4107 " />
									</IndexedTriangleSet>
								</Shape>
							</Group>
						</Transform>
					</Transform>
				</Transform>
			</Transform>
			<Transform DEF="leg2_TRANSFORM"
			           translation="-1.396490 -0.030443 0.328275"
			           scale="1.000000 1.000000 1.000000"
			           rotation="0.000000 1.000000 0.000000 0.000000"
			           >
				<Transform DEF="leg2_ifs_TRANSFORM"
				           translation="0.000000 0.000000 0.000000"
				           scale="1.000000 1.000000 1.000000"
				           rotation="0.000000 1.000000 0.000000 0.000000"
				           >
					<Group DEF="group_ME_leg2">
						<Shape>
							<Appearance>
								<Material USE="MA_Body" />
							</Appearance>
							<IndexedTriangleSet solid="false"
							                    normalPerVertex="true"
							                    index="0 1 2 0 2 3 4 5 6 4 6 7 8 9 10 8 10 11 12 13 14 12 14 15 4 13 16 4 16 17 18 19 14 18 14 7 "
							                    >
								<Coordinate point="0.547222 -1.452719 -0.335385 0.367141 0.044168 -0.335385 0.367141 0.044168 0.335385 0.547222 -1.452719 0.335385 0.367141 0.044168 -0.335385 -0.367141 -0.044168 -0.335385 -0.367141 -0.044168 0.335385 0.367141 0.044168 0.335385 -0.367141 -0.044168 -0.335385 -0.187060 -1.541056 -0.335385 -0.187060 -1.541056 0.335385 -0.367141 -0.044168 0.335385 -0.187060 -1.541056 -0.335385 0.547222 -1.452719 -0.335385 0.547222 -1.452719 0.335385 -0.187060 -1.541056 0.335385 -0.187060 -1.541056 -0.335385 -0.367141 -0.044168 -0.335385 -0.367141 -0.044168 0.335385 -0.187060 -1.541056 0.335385 " />
								<Normal vector="0.642170 -0.504227 -0.577349 0.504227 0.642170 -0.577349 0.504227 0.642170 0.577349 0.642170 -0.504227 0.577349 0.504227 0.642170 -0.577349 -0.642170 0.504227 -0.577349 -0.642170 0.504227 0.577349 0.504227 0.642170 0.577349 -0.642170 0.504227 -0.577349 -0.504227 -0.642170 -0.577349 -0.504227 -0.642170 0.577349 -0.642170 0.504227 0.577349 -0.504227 -0.642170 -0.577349 0.642170 -0.504227 -0.577349 0.642170 -0.504227 0.577349 -0.504227 -0.642170 0.577349 -0.504227 -0.642170 -0.577349 -0.642170 0.504227 -0.577349 -0.642170 0.504227 0.577349 -0.504227 -0.642170 0.577349 " />
								<TextureCoordinate point="0.0308 0.4894 0.0308 0.9637 0.9691 0.9637 0.9691 0.4894 0.0308 0.4894 0.0308 0.9637 0.9691 0.9637 0.9691 0.4894 0.0308 0.4894 0.0308 0.9637 0.9691 0.9637 0.9691 0.4894 0.0308 0.4894 0.0308 0.9637 0.9691 0.9637 0.9691 0.4894 0.9691 0.9637 0.9691 0.4894 0.0308 0.4894 0.0308 0.9637 " />
							</IndexedTriangleSet>
						</Shape>
					</Group>
				</Transform>
				<Transform DEF="Cube_016_TRANSFORM"
				           translation="0.150985 -1.378190 0.015145"
				           scale="1.000000 1.000000 1.000000"
				           rotation="0.000000 1.000000 0.000000 0.000000"
				           >
					<Transform DEF="Cube_016_ifs_TRANSFORM"
					           translation="0.000000 0.000000 0.000000"
					           scale="1.000000 1.000000 1.000000"
					           rotation="0.000000 1.000000 0.000000 0.000000"
					           >
						<Group DEF="group_ME_Cube_016">
							<Shape>
								<Appearance>
									<Material USE="MA_Body" />
								</Appearance>
								<IndexedTriangleSet solid="false"
								                    normalPerVertex="true"
								                    index="0 1 2 0 2 3 4 5 6 4 6 7 8 9 10 8 10 11 12 13 14 12 14 15 4 13 16 4 16 17 18 19 14 18 14 7 "
								                    >
									<Coordinate point="0.834159 -0.067594 -0.255392 0.138697 0.264921 -0.284776 0.059113 0.156982 0.377333 0.754576 -0.175533 0.406717 0.138697 0.264921 -0.284776 -0.059113 -0.156982 -0.377333 -0.138697 -0.264921 0.284776 0.059113 0.156982 0.377333 -0.059113 -0.156982 -0.377333 0.636349 -0.489497 -0.347948 0.556766 -0.597436 0.314161 -0.138697 -0.264921 0.284776 0.636349 -0.489497 -0.347948 0.834159 -0.067594 -0.255392 0.754576 -0.175533 0.406717 0.556766 -0.597436 0.314161 0.636349 -0.489497 -0.347948 -0.059113 -0.156982 -0.377333 -0.138697 -0.264921 0.284776 0.556766 -0.597436 0.314161 " />
									<Normal vector="0.828883 0.356090 -0.431379 -0.212073 0.853816 -0.475356 -0.348094 0.669332 0.656331 0.692862 0.171606 0.700308 -0.212073 0.853816 -0.475356 -0.692862 -0.171606 -0.700308 -0.828883 -0.356090 0.431379 -0.348094 0.669332 0.656331 -0.692862 -0.171606 -0.700308 0.348094 -0.669332 -0.656331 0.212073 -0.853816 0.475356 -0.828883 -0.356090 0.431379 0.348094 -0.669332 -0.656331 0.828883 0.356090 -0.431379 0.692862 0.171606 0.700308 0.212073 -0.853816 0.475356 0.348094 -0.669332 -0.656331 -0.692862 -0.171606 -0.700308 -0.828883 -0.356090 0.431379 0.212073 -0.853816 0.475356 " />
									<TextureCoordinate point="0.0368 0.0521 0.0368 0.3770 0.4710 0.3770 0.4710 0.0521 0.0368 0.0521 0.0368 0.3770 0.4710 0.3770 0.4710 0.0521 0.0368 0.0521 0.0368 0.3770 0.4710 0.3770 0.4710 0.0521 0.0368 0.0521 0.0368 0.3770 0.4710 0.3770 0.4710 0.0521 0.4710 0.3770 0.4710 0.0521 0.0368 0.0521 0.0368 0.3770 " />
								</IndexedTriangleSet>
							</Shape>
						</Group>
					</Transform>
				</Transform>
			</Transform>
		</Transform>
	</Scene>
</X3D>