<?xml version="1.0" encoding="UTF-8"?>
<!DOCTYPE X3D PUBLIC "ISO//Web3D//DTD X3D 3.0//EN" "http://www.web3d.org/specifications/x3d-3.0.dtd">
<X3D version="3.0" profile="Immersive" xmlns:xsd="http://www.w3.org/2001/XMLSchema-instance" xsd:noNamespaceSchemaLocation="http://www.web3d.org/specifications/x3d-3.0.xsd">
	<head>
		<meta name="filename" content="dwebble.x3d" />
		<meta name="generator" content="Blender 2.93.18" />
	</head>
	<Scene>
		<NavigationInfo headlight="true"
		                visibilityLimit="0.0"
		                type='"EXAMINE", "ANY"'
		                avatarSize="0.25, 1.75, 0.75"
		                />
		<Background DEF="WO_World"
		            groundColor="0.051 0.051 0.051"
		            skyColor="0.051 0.051 0.051"
		            />
		<Transform DEF="body_TRANSFORM"
		           translation="0.000000 -0.944631 0.442497"
		           scale="1.000000 1.000000 1.000000"
		           rotation="0.000000 0.000000 1.000000 3.141593"
		           >
			<Transform DEF="body_ifs_TRANSFORM"
			           translation="0.000000 0.000000 0.000000"
			           scale="1.000000 1.000000 1.000000"
			           rotation="0.000000 1.000000 0.000000 0.000000"
			           >
				<Group DEF="group_ME_body">
					<Shape>
						<Appearance>
							<Material DEF="MA_Body"
							          diffuseColor="0.800 0.800 0.800"
							          specularColor="0.401 0.401 0.401"
							          emissiveColor="0.000 0.000 0.000"
							          ambientIntensity="0.000"
							          shininess="0.500"
							          transparency="0.0"
							          />
						</Appearance>
						<IndexedTriangleSet solid="false"
						                    normalPerVertex="true"
						                    index="0 1 2 0 2 3 4 5 6 4 6 7 8 9 10 8 10 11 12 13 14 12 14 15 4 16 17 4 17 15 18 5 14 18 14 19 "
						                    >
							<Coordinate point="0.691584 0.781015 0.000000 0.691584 0.781015 1.203198 0.691584 -0.781015 1.203198 0.691584 -0.781015 0.000000 0.691584 -0.781015 0.000000 0.691584 -0.781015 1.203198 -0.691584 -0.781015 1.203198 -0.691584 -0.781015 0.000000 -0.691584 -0.781015 0.000000 -0.691584 -0.781015 1.203198 -0.691584 0.781015 1.203198 -0.691584 0.781015 0.000000 -0.691584 0.781015 0.000000 -0.691584 0.781015 1.203198 0.691584 0.781015 1.203198 0.691584 0.781015 0.000000 -0.691584 -0.781015 0.000000 -0.691584 0.781015 0.000000 -0.691584 -0.781015 1.203198 -0.691584 0.781015 1.203198 " />
							<Normal vector="0.577349 0.577349 -0.577349 0.577349 0.577349 0.577349 0.577349 -0.577349 0.577349 0.577349 -0.577349 -0.577349 0.577349 -0.577349 -0.577349 0.577349 -0.577349 0.577349 -0.577349 -0.577349 0.577349 -0.577349 -0.577349 -0.577349 -0.577349 -0.577349 -0.577349 -0.577349 -0.577349 0.577349 -0.577349 0.577349 0.577349 -0.577349 0.577349 -0.577349 -0.577349 0.577349 -0.577349 -0.577349 0.577349 0.577349 0.577349 0.577349 0.577349 0.577349 0.577349 -0.577349 -0.577349 -0.577349 -0.577349 -0.577349 0.577349 -0.577349 -0.577349 -0.577349 0.577349 -0.577349 0.577349 0.577349 " />
							<TextureCoordinate point="0.0281 0.5496 0.4572 0.5496 0.4572 0.9465 0.0281 0.9465 0.0281 0.5496 0.4572 0.5496 0.4572 0.9465 0.0281 0.9465 0.0281 0.5496 0.4572 0.5496 0.4572 0.9465 0.0281 0.9465 0.0281 0.5496 0.4572 0.5496 0.4572 0.9465 0.0281 0.9465 0.4572 0.5496 0.4572 0.9465 0.0281 0.5496 0.0281 0.9465 " />
						</IndexedTriangleSet>
					</Shape>
				</Group>
			</Transform>
			<Transform DEF="head_TRANSFORM"
			           translation="0.000000 -0.653444 0.786285"
			           scale="1.000000 1.000000 1.000000"
			           rotation="0.000000 1.000000 0.000000 0.000000"
			           >
				<Transform DEF="head_ifs_TRANSFORM"
				           translation="0.000000 0.000000 0.000000"
				           scale="1.000000 1.000000 1.000000"
				           rotation="0.000000 1.000000 0.000000 0.000000"
				           >
					<Group DEF="group_ME_head">
						<Shape>
							<Appearance>
								<Material USE="MA_Body" />
							</Appearance>
							<IndexedTriangleSet solid="false"
							                    normalPerVertex="true"
							                    index="0 1 2 0 2 3 4 5 6 4 6 7 8 9 10 8 10 11 12 13 14 12 14 15 16 17 18 16 18 19 20 21 14 20 14 22 23 24 25 23 25 26 24 20 22 24 22 25 27 28 29 27 29 30 28 16 19 28 19 29 31 32 33 31 33 34 34 33 13 34 13 12 35 21 36 35 36 37 37 36 5 37 5 4 38 39 40 38 40 41 27 42 39 27 39 38 42 35 37 42 37 39 43 44 45 43 45 46 44 34 12 44 12 45 47 48 44 47 44 43 48 31 34 48 34 44 46 45 49 46 49 30 45 12 15 45 15 49 50 51 52 50 52 53 51 8 11 51 11 52 41 40 54 41 54 55 40 4 7 40 7 54 56 57 58 56 58 59 57 0 3 57 3 58 "
							                    >
								<Coordinate point="0.861594 0.000000 0.809592 0.861594 0.000000 1.398903 0.861595 -1.665190 1.398903 0.861595 -1.665190 0.809592 -0.287197 -1.665191 0.809592 -0.287197 -1.665191 1.398903 -0.861593 -1.665191 1.398903 -0.861593 -1.665191 0.809592 -0.861593 -1.665191 0.809592 -0.861593 -1.665191 1.398903 -0.861594 -0.000000 1.398903 -0.861594 -0.000000 0.809592 0.287198 0.000000 0.809592 0.287198 0.000000 1.398903 0.861594 0.000000 1.398903 0.861594 0.000000 0.809592 -0.287197 -1.665191 0.000000 -0.861593 -1.665191 0.000000 -0.861594 -0.000000 0.000000 -0.287198 -0.000000 0.000000 0.287199 -1.665190 1.398903 0.861595 -1.665190 1.398903 0.287198 0.000000 1.398903 -0.861593 -1.665191 1.398903 -0.287197 -1.665191 1.398903 -0.287198 -0.000000 1.398903 -0.861594 -0.000000 1.398903 0.861595 -1.665190 0.000000 0.287199 -1.665190 0.000000 0.287198 0.000000 0.000000 0.861594 0.000000 0.000000 -0.861594 -0.000000 0.809592 -0.861594 -0.000000 1.398903 -0.287198 -0.000000 1.398903 -0.287198 -0.000000 0.809592 0.861595 -1.665190 0.809592 0.287199 -1.665190 1.398903 0.287199 -1.665190 0.809592 0.287199 -1.665190 0.000000 0.287199 -1.665190 0.343291 -0.287197 -1.665191 0.343291 -0.287197 -1.665191 0.000000 0.861595 -1.665190 0.343291 -0.287198 -0.000000 0.000000 -0.287198 -0.000000 0.343291 0.287198 0.000000 0.343291 0.287198 0.000000 0.000000 -0.861594 -0.000000 0.000000 -0.861594 -0.000000 0.343291 0.861594 0.000000 0.343291 -0.861593 -1.665191 0.000000 -0.861593 -1.665191 0.343291 -0.861594 -0.000000 0.343291 -0.861594 -0.000000 0.000000 -0.861593 -1.665191 0.343291 -0.861593 -1.665191 0.000000 0.861594 0.000000 0.000000 0.861594 0.000000 0.343291 0.861595 -1.665190 0.343291 0.861595 -1.665190 0.000000 " />
								<Normal vector="0.707083 0.707083 0.000000 0.577349 0.577349 0.577349 0.577349 -0.577349 0.577349 0.707083 -0.707083 0.000000 0.000000 -1.000000 0.000000 0.000000 -0.707083 0.707083 -0.577349 -0.577349 0.577349 -0.707083 -0.707083 0.000000 -0.707083 -0.707083 0.000000 -0.577349 -0.577349 0.577349 -0.577349 0.577349 0.577349 -0.707083 0.707083 0.000000 0.000000 1.000000 0.000000 0.000000 0.707083 0.707083 0.577349 0.577349 0.577349 0.707083 0.707083 0.000000 0.000000 -0.707083 -0.707083 -0.577349 -0.577349 -0.577349 -0.577349 0.577349 -0.577349 0.000000 0.707083 -0.707083 0.000000 -0.707083 0.707083 0.577349 -0.577349 0.577349 0.000000 0.707083 0.707083 -0.577349 -0.577349 0.577349 0.000000 -0.707083 0.707083 0.000000 0.707083 0.707083 -0.577349 0.577349 0.577349 0.577349 -0.577349 -0.577349 0.000000 -0.707083 -0.707083 0.000000 0.707083 -0.707083 0.577349 0.577349 -0.577349 -0.707083 0.707083 0.000000 -0.577349 0.577349 0.577349 0.000000 0.707083 0.707083 0.000000 1.000000 0.000000 0.707083 -0.707083 0.000000 0.000000 -0.707083 0.707083 0.000000 -1.000000 0.000000 0.000000 -0.707083 -0.707083 0.000000 -1.000000 0.000000 0.000000 -1.000000 0.000000 0.000000 -0.707083 -0.707083 0.707083 -0.707083 0.000000 0.000000 0.707083 -0.707083 0.000000 1.000000 0.000000 0.000000 1.000000 0.000000 0.000000 0.707083 -0.707083 -0.577349 0.577349 -0.577349 -0.707083 0.707083 0.000000 0.707083 0.707083 0.000000 -0.577349 -0.577349 -0.577349 -0.707083 -0.707083 0.000000 -0.707083 0.707083 0.000000 -0.577349 0.577349 -0.577349 -0.707083 -0.707083 0.000000 -0.577349 -0.577349 -0.577349 0.577349 0.577349 -0.577349 0.707083 0.707083 0.000000 0.707083 -0.707083 0.000000 0.577349 -0.577349 -0.577349 " />
								<TextureCoordinate point="0.3008 0.5496 0.4572 0.5496 0.4572 0.9465 0.3008 0.9465 0.3008 0.8142 0.4572 0.8142 0.4572 0.9465 0.3008 0.9465 0.3008 0.5496 0.4572 0.5496 0.4572 0.9465 0.3008 0.9465 0.3008 0.8142 0.4572 0.8142 0.4572 0.9465 0.3008 0.9465 0.3142 0.5496 0.4572 0.5496 0.4572 0.9465 0.3142 0.9465 0.3142 0.5496 0.4572 0.5496 0.3142 0.9465 0.0281 0.5496 0.1711 0.5496 0.1711 0.9465 0.0281 0.9465 0.0281 0.5496 0.1711 0.5496 0.1711 0.9465 0.0281 0.9465 0.3008 0.5496 0.4572 0.5496 0.4572 0.6819 0.3008 0.6819 0.3008 0.5496 0.4572 0.6819 0.3008 0.6819 0.0281 0.6819 0.1577 0.6819 0.1577 0.8142 0.0281 0.8142 0.1577 0.5496 0.0281 0.6819 0.1577 0.6819 0.1577 0.8142 0.0281 0.8142 0.0281 0.5496 0.1577 0.5496 0.1577 0.9465 0.0281 0.5496 0.1577 0.5496 0.1577 0.9465 0.0281 0.9465 0.1577 0.9465 0.0281 0.9465 0.0281 0.5496 0.1577 0.5496 0.1577 0.9465 0.0281 0.9465 " />
							</IndexedTriangleSet>
						</Shape>
						<Shape>
							<Appearance>
								<Material DEF="MA_Face"
								          diffuseColor="0.800 0.800 0.800"
								          specularColor="0.401 0.401 0.401"
								          emissiveColor="0.000 0.000 0.000"
								          ambientIntensity="0.000"
								          shininess="0.500"
								          transparency="0.0"
								          />
							</Appearance>
							<IndexedTriangleSet solid="false"
							                    normalPerVertex="true"
							                    index="0 1 2 0 2 3 "
							                    >
								<Coordinate point="0.287199 -1.665190 0.343291 0.287199 -1.665190 0.809592 -0.287197 -1.665191 0.809592 -0.287197 -1.665191 0.343291 " />
								<Normal vector="0.000000 -1.000000 0.000000 0.000000 -1.000000 0.000000 0.000000 -1.000000 0.000000 0.000000 -1.000000 0.000000 " />
								<TextureCoordinate point="0.9904 0.5230 0.9904 0.9793 0.5161 0.9793 0.5161 0.5230 " />
							</IndexedTriangleSet>
						</Shape>
					</Group>
				</Transform>
				<Transform DEF="eye1_TRANSFORM"
				           translation="0.518082 -1.251970 1.313340"
				           scale="1.000000 1.000000 1.000000"
				           rotation="0.000000 1.000000 0.000000 0.000000"
				           >
					<Transform DEF="eye1_ifs_TRANSFORM"
					           translation="0.000000 0.000000 0.000000"
					           scale="1.000000 1.000000 1.000000"
					           rotation="0.000000 1.000000 0.000000 0.000000"
					           >
						<Group DEF="group_ME_eye1">
							<Shape>
								<Appearance>
									<Material USE="MA_Body" />
								</Appearance>
								<IndexedTriangleSet solid="false"
								                    normalPerVertex="true"
								                    index="0 1 2 0 2 3 4 5 6 4 6 7 8 9 10 8 10 11 12 13 14 12 14 11 15 16 10 15 10 17 "
								                    >
									<Coordinate point="0.248549 -0.280811 -0.298385 0.248549 0.312739 0.264732 0.343239 -0.385627 1.000841 0.343239 -0.979177 0.437724 -0.153859 -1.011105 0.471377 -0.153859 -0.417555 1.034494 -0.248549 0.280811 0.298385 -0.248549 -0.312739 -0.264732 -0.248549 -0.312739 -0.264732 -0.248549 0.280811 0.298385 0.248549 0.312739 0.264732 0.248549 -0.280811 -0.298385 0.343239 -0.979177 0.437724 -0.153859 -1.011105 0.471377 -0.248549 -0.312739 -0.264732 -0.153859 -0.417555 1.034494 0.343239 -0.385627 1.000841 -0.248549 0.280811 0.298385 " />
									<Normal vector="0.521195 0.013703 -0.853298 0.521195 0.851405 -0.058565 0.628468 0.060091 0.775475 0.628498 -0.777551 -0.019227 -0.521195 -0.851405 0.058565 -0.521195 -0.013703 0.853298 -0.628498 0.777551 0.019227 -0.628468 -0.060091 -0.775475 -0.628468 -0.060091 -0.775475 -0.628498 0.777551 0.019227 0.521195 0.851405 -0.058565 0.521195 0.013703 -0.853298 0.628498 -0.777551 -0.019227 -0.521195 -0.851405 0.058565 -0.628468 -0.060091 -0.775475 -0.521195 -0.013703 0.853298 0.628468 0.060091 0.775475 -0.628498 0.777551 0.019227 " />
									<TextureCoordinate point="0.0281 0.5496 0.4572 0.5496 0.4572 0.9465 0.0281 0.9465 0.0281 0.5496 0.4572 0.5496 0.4572 0.9465 0.0281 0.9465 0.0281 0.5496 0.4572 0.5496 0.4572 0.9465 0.0281 0.9465 0.0281 0.5496 0.4572 0.5496 0.4572 0.9465 0.0281 0.5496 0.4572 0.5496 0.0281 0.9465 " />
								</IndexedTriangleSet>
							</Shape>
							<Shape>
								<Appearance>
									<Material USE="MA_Face" />
								</Appearance>
								<IndexedTriangleSet solid="false"
								                    normalPerVertex="true"
								                    index="0 1 2 0 2 3 "
								                    >
									<Coordinate point="0.343239 -0.979177 0.437724 0.343239 -0.385627 1.000841 -0.153859 -0.417555 1.034494 -0.153859 -1.011105 0.471377 " />
									<Normal vector="0.628498 -0.777551 -0.019227 0.628468 0.060091 0.775475 -0.521195 -0.013703 0.853298 -0.521195 -0.851405 0.058565 " />
									<TextureCoordinate point="0.4041 0.5245 0.4041 0.9839 0.0875 0.9839 0.0875 0.5245 " />
								</IndexedTriangleSet>
							</Shape>
						</Group>
					</Transform>
				</Transform>
				<Transform DEF="eye2_TRANSFORM"
				           translation="-0.518082 -1.251970 1.313340"
				           scale="1.000000 1.000000 1.000000"
				           rotation="0.000000 1.000000 0.000000 0.000000"
				           >
					<Transform DEF="eye2_ifs_TRANSFORM"
					           translation="0.000000 0.000000 0.000000"
					           scale="1.000000 1.000000 1.000000"
					           rotation="0.000000 1.000000 0.000000 0.000000"
					           >
						<Group DEF="group_ME_eye2">
							<Shape>
								<Appearance>
									<Material USE="MA_Body" />
								</Appearance>
								<IndexedTriangleSet solid="false"
								                    normalPerVertex="true"
								                    index="0 1 2 0 2 3 4 5 6 4 6 7 8 9 10 8 10 11 12 9 13 12 13 14 15 16 10 15 10 17 "
								                    >
									<Coordinate point="-0.248549 -0.280811 -0.298385 -0.343239 -0.979177 0.437724 -0.343239 -0.385627 1.000841 -0.248549 0.312739 0.264732 0.153859 -1.011105 0.471377 0.248549 -0.312739 -0.264732 0.248549 0.280811 0.298385 0.153859 -0.417555 1.034494 0.248549 -0.312739 -0.264732 -0.248549 -0.280811 -0.298385 -0.248549 0.312739 0.264732 0.248549 0.280811 0.298385 -0.343239 -0.979177 0.437724 0.248549 -0.312739 -0.264732 0.153859 -1.011105 0.471377 0.153859 -0.417555 1.034494 0.248549 0.280811 0.298385 -0.343239 -0.385627 1.000841 " />
									<Normal vector="-0.521195 0.013703 -0.853298 -0.628498 -0.777551 -0.019227 -0.628468 0.060091 0.775475 -0.521195 0.851405 -0.058565 0.521195 -0.851405 0.058565 0.628468 -0.060091 -0.775475 0.628468 0.777551 0.019227 0.521195 -0.013703 0.853298 0.628468 -0.060091 -0.775475 -0.521195 0.013703 -0.853298 -0.521195 0.851405 -0.058565 0.628468 0.777551 0.019227 -0.628498 -0.777551 -0.019227 0.628468 -0.060091 -0.775475 0.521195 -0.851405 0.058565 0.521195 -0.013703 0.853298 0.628468 0.777551 0.019227 -0.628468 0.060091 0.775475 " />
									<TextureCoordinate point="0.0281 0.5496 0.0281 0.9465 0.4572 0.9465 0.4572 0.5496 0.0281 0.5496 0.0281 0.9465 0.4572 0.9465 0.4572 0.5496 0.0281 0.5496 0.0281 0.9465 0.4572 0.9465 0.4572 0.5496 0.0281 0.5496 0.4572 0.9465 0.4572 0.5496 0.0281 0.5496 0.0281 0.9465 0.4572 0.5496 " />
								</IndexedTriangleSet>
							</Shape>
							<Shape>
								<Appearance>
									<Material USE="MA_Face" />
								</Appearance>
								<IndexedTriangleSet solid="false"
								                    normalPerVertex="true"
								                    index="0 1 2 0 2 3 "
								                    >
									<Coordinate point="-0.343239 -0.979177 0.437724 0.153859 -1.011105 0.471377 0.153859 -0.417555 1.034494 -0.343239 -0.385627 1.000841 " />
									<Normal vector="-0.628498 -0.777551 -0.019227 0.521195 -0.851405 0.058565 0.521195 -0.013703 0.853298 -0.628468 0.060091 0.775475 " />
									<TextureCoordinate point="0.4041 0.5245 0.0875 0.5245 0.0875 0.9839 0.4041 0.9839 " />
								</IndexedTriangleSet>
							</Shape>
						</Group>
					</Transform>
				</Transform>
			</Transform>
			<Transform DEF="arm1_TRANSFORM"
			           translation="0.673432 -0.447250 0.697624"
			           scale="1.000000 1.000000 1.000000"
			           rotation="0.000000 1.000000 0.000000 0.000000"
			           >
				<Transform DEF="arm1_ifs_TRANSFORM"
				           translation="0.000000 0.000000 0.000000"
				           scale="1.000000 1.000000 1.000000"
				           rotation="0.000000 1.000000 0.000000 0.000000"
				           >
					<Group DEF="group_ME_arm1">
						<Shape>
							<Appearance>
								<Material USE="MA_Body" />
							</Appearance>
							<IndexedTriangleSet solid="false"
							                    normalPerVertex="true"
							                    index="0 1 2 0 2 3 4 5 6 4 6 7 8 9 10 8 10 11 12 13 14 12 14 15 4 16 17 4 17 15 18 5 14 18 14 19 "
							                    >
								<Coordinate point="1.046573 -0.623667 0.006232 1.018051 -0.602742 0.290841 0.880536 -0.790179 0.290841 0.909057 -0.811104 0.006232 0.909057 -0.811104 0.006232 0.880536 -0.790179 0.290841 -0.083018 -0.083256 0.142304 -0.054497 -0.104181 -0.142304 -0.054497 -0.104181 -0.142304 -0.083018 -0.083256 0.142304 0.054497 0.104181 0.142304 0.083018 0.083256 -0.142304 0.083018 0.083256 -0.142304 0.054497 0.104181 0.142304 1.018051 -0.602742 0.290841 1.046573 -0.623667 0.006232 -0.054497 -0.104181 -0.142304 0.083018 0.083256 -0.142304 -0.083018 -0.083256 0.142304 0.054497 0.104181 0.142304 " />
								<Normal vector="0.860866 0.084445 -0.501724 0.746055 0.168706 0.644124 0.062990 -0.762291 0.644124 0.177831 -0.846522 -0.501724 0.177831 -0.846522 -0.501724 0.062990 -0.762291 0.644124 -0.860866 -0.084445 0.501724 -0.746055 -0.168706 -0.644124 -0.746055 -0.168706 -0.644124 -0.860866 -0.084445 0.501724 -0.177831 0.846522 0.501724 -0.062990 0.762291 -0.644124 -0.062990 0.762291 -0.644124 -0.177831 0.846522 0.501724 0.746055 0.168706 0.644124 0.860866 0.084445 -0.501724 -0.746055 -0.168706 -0.644124 -0.062990 0.762291 -0.644124 -0.860866 -0.084445 0.501724 -0.177831 0.846522 0.501724 " />
								<TextureCoordinate point="0.0246 0.0387 0.2251 0.0387 0.2251 0.4653 0.0246 0.4653 0.0246 0.0387 0.2251 0.0387 0.2251 0.4653 0.0246 0.4653 0.0246 0.0387 0.2251 0.0387 0.2251 0.4653 0.0246 0.4653 0.0246 0.0387 0.2251 0.0387 0.2251 0.4653 0.0246 0.4653 0.2251 0.0387 0.2251 0.4653 0.0246 0.0387 0.0246 0.4653 " />
							</IndexedTriangleSet>
						</Shape>
					</Group>
				</Transform>
				<Transform DEF="hand1_TRANSFORM"
				           translation="0.876384 -0.733205 0.473777"
				           scale="1.000000 1.000000 1.000000"
				           rotation="0.000000 1.000000 0.000000 0.000000"
				           >
					<Transform DEF="hand1_ifs_TRANSFORM"
					           translation="0.000000 0.000000 0.000000"
					           scale="1.000000 1.000000 1.000000"
					           rotation="0.000000 1.000000 0.000000 0.000000"
					           >
						<Group DEF="group_ME_hand1">
							<Shape>
								<Appearance>
									<Material USE="MA_Body" />
								</Appearance>
								<IndexedTriangleSet solid="false"
								                    normalPerVertex="true"
								                    index="0 1 2 0 2 3 4 5 6 4 6 7 8 9 10 8 10 11 12 13 14 12 14 15 4 16 17 4 17 15 18 5 14 18 14 19 "
								                    >
									<Coordinate point="0.714466 0.514324 -0.555487 0.714467 -0.218914 0.724687 0.714468 -1.695964 -0.121314 0.714467 -0.962726 -1.401488 0.714467 -0.962726 -1.401488 0.714468 -1.695964 -0.121314 -0.714465 -1.695965 -0.121314 -0.714466 -0.962727 -1.401488 -0.714466 -0.962727 -1.401488 -0.714465 -1.695965 -0.121314 -0.714466 -0.218914 0.724687 -0.714467 0.514324 -0.555487 -0.714467 0.514324 -0.555487 -0.714466 -0.218914 0.724687 0.714467 -0.218914 0.724687 0.714466 0.514324 -0.555487 -0.714466 -0.962727 -1.401488 -0.714467 0.514324 -0.555487 -0.714465 -1.695965 -0.121314 -0.714466 -0.218914 0.724687 " />
									<Normal vector="0.577349 0.787927 -0.214026 0.577349 0.214026 0.787927 0.577349 -0.787927 0.214026 0.577349 -0.214026 -0.787927 0.577349 -0.214026 -0.787927 0.577349 -0.787927 0.214026 -0.577349 -0.787927 0.214026 -0.577349 -0.214026 -0.787927 -0.577349 -0.214026 -0.787927 -0.577349 -0.787927 0.214026 -0.577349 0.214026 0.787927 -0.577349 0.787927 -0.214026 -0.577349 0.787927 -0.214026 -0.577349 0.214026 0.787927 0.577349 0.214026 0.787927 0.577349 0.787927 -0.214026 -0.577349 -0.214026 -0.787927 -0.577349 0.787927 -0.214026 -0.577349 -0.787927 0.214026 -0.577349 0.214026 0.787927 " />
									<TextureCoordinate point="0.0281 0.5496 0.4572 0.5496 0.4572 0.9465 0.0281 0.9465 0.0281 0.5496 0.4572 0.5496 0.4572 0.9465 0.0281 0.9465 0.0281 0.5496 0.4572 0.5496 0.4572 0.9465 0.0281 0.9465 0.0281 0.5496 0.4572 0.5496 0.4572 0.9465 0.0281 0.9465 0.4572 0.5496 0.4572 0.9465 0.0281 0.5496 0.0281 0.9465 " />
								</IndexedTriangleSet>
							</Shape>
						</Group>
					</Transform>
					<Transform DEF="Cube_006_TRANSFORM"
					           translation="0.000001 -1.299148 -0.839082"
					           scale="1.000000 1.000000 1.000000"
					           rotation="0.000000 1.000000 0.000000 0.000000"
					           >
						<Transform DEF="Cube_006_ifs_TRANSFORM"
						           translation="0.000000 0.000000 0.000000"
						           scale="1.000000 1.000000 1.000000"
						           rotation="0.000000 1.000000 0.000000 0.000000"
						           >
							<Group DEF="group_ME_Cube_006">
								<Shape>
									<Appearance>
										<Material USE="MA_Body" />
									</Appearance>
									<IndexedTriangleSet solid="false"
									                    normalPerVertex="true"
									                    index="0 1 2 0 2 3 4 5 6 4 6 7 8 9 10 8 10 11 12 13 14 12 14 15 4 16 17 4 17 15 18 5 14 18 14 19 "
									                    >
										<Coordinate point="0.360090 0.264153 -0.305409 0.360090 -0.155189 0.372783 0.360090 -0.700008 0.035909 0.360090 -0.280666 -0.642283 0.360090 -0.280666 -0.642283 0.360090 -0.700008 0.035909 -0.360090 -0.700008 0.035909 -0.360090 -0.280666 -0.642283 -0.360090 -0.280666 -0.642283 -0.360090 -0.700008 0.035909 -0.360090 -0.155189 0.372783 -0.360090 0.264153 -0.305409 -0.360090 0.264153 -0.305409 -0.360090 -0.155189 0.372783 0.360090 -0.155189 0.372783 0.360090 0.264153 -0.305409 -0.360090 -0.280666 -0.642283 -0.360090 0.264153 -0.305409 -0.360090 -0.700008 0.035909 -0.360090 -0.155189 0.372783 " />
										<Normal vector="0.577349 0.794671 -0.187414 0.577349 0.187414 0.794671 0.577349 -0.794671 0.187414 0.577349 -0.187414 -0.794671 0.577349 -0.187414 -0.794671 0.577349 -0.794671 0.187414 -0.577349 -0.794671 0.187414 -0.577349 -0.187414 -0.794671 -0.577349 -0.187414 -0.794671 -0.577349 -0.794671 0.187414 -0.577349 0.187414 0.794671 -0.577349 0.794671 -0.187414 -0.577349 0.794671 -0.187414 -0.577349 0.187414 0.794671 0.577349 0.187414 0.794671 0.577349 0.794671 -0.187414 -0.577349 -0.187414 -0.794671 -0.577349 0.794671 -0.187414 -0.577349 -0.794671 0.187414 -0.577349 0.187414 0.794671 " />
										<TextureCoordinate point="0.0281 0.5496 0.4572 0.5496 0.4572 0.9465 0.0281 0.9465 0.0281 0.5496 0.4572 0.5496 0.4572 0.9465 0.0281 0.9465 0.0281 0.5496 0.4572 0.5496 0.4572 0.9465 0.0281 0.9465 0.0281 0.5496 0.4572 0.5496 0.4572 0.9465 0.0281 0.9465 0.4572 0.5496 0.4572 0.9465 0.0281 0.5496 0.0281 0.9465 " />
									</IndexedTriangleSet>
								</Shape>
							</Group>
						</Transform>
						<Transform DEF="Cube_007_TRANSFORM"
						           translation="0.000000 -0.437856 -0.298718"
						           scale="1.000000 1.000000 1.000000"
						           rotation="0.000000 1.000000 0.000000 0.000000"
						           >
							<Transform DEF="Cube_007_ifs_TRANSFORM"
							           translation="0.000000 0.000000 0.000000"
							           scale="1.000000 1.000000 1.000000"
							           rotation="0.000000 1.000000 0.000000 0.000000"
							           >
								<Group DEF="group_ME_Cube_007">
									<Shape>
										<Appearance>
											<Material USE="MA_Body" />
										</Appearance>
										<IndexedTriangleSet solid="false"
										                    normalPerVertex="true"
										                    index="0 1 2 0 2 3 4 5 6 4 6 7 8 9 10 8 10 11 12 13 14 12 14 15 4 16 17 4 17 15 18 5 14 18 14 19 "
										                    >
											<Coordinate point="0.256473 0.183088 -0.181845 0.256474 -0.105587 0.235457 0.256474 -0.493090 -0.032603 0.256474 -0.204415 -0.449906 0.256474 -0.204415 -0.449906 0.256474 -0.493090 -0.032603 -0.256473 -0.493090 -0.032603 -0.256473 -0.204415 -0.449906 -0.256473 -0.204415 -0.449906 -0.256473 -0.493090 -0.032603 -0.256473 -0.105587 0.235457 -0.256474 0.183088 -0.181845 -0.256474 0.183088 -0.181845 -0.256473 -0.105587 0.235457 0.256474 -0.105587 0.235457 0.256473 0.183088 -0.181845 -0.256473 -0.204415 -0.449906 -0.256474 0.183088 -0.181845 -0.256473 -0.493090 -0.032603 -0.256473 -0.105587 0.235457 " />
											<Normal vector="0.577349 0.803247 -0.146336 0.577349 0.146336 0.803247 0.577349 -0.803247 0.146336 0.577349 -0.146336 -0.803247 0.577349 -0.146336 -0.803247 0.577349 -0.803247 0.146336 -0.577349 -0.803247 0.146336 -0.577349 -0.146336 -0.803247 -0.577349 -0.146336 -0.803247 -0.577349 -0.803247 0.146336 -0.577349 0.146336 0.803247 -0.577349 0.803247 -0.146336 -0.577349 0.803247 -0.146336 -0.577349 0.146336 0.803247 0.577349 0.146336 0.803247 0.577349 0.803247 -0.146336 -0.577349 -0.146336 -0.803247 -0.577349 0.803247 -0.146336 -0.577349 -0.803247 0.146336 -0.577349 0.146336 0.803247 " />
											<TextureCoordinate point="0.0281 0.5496 0.4572 0.5496 0.4572 0.9465 0.0281 0.9465 0.0281 0.5496 0.4572 0.5496 0.4572 0.9465 0.0281 0.9465 0.0281 0.5496 0.4572 0.5496 0.4572 0.9465 0.0281 0.9465 0.0281 0.5496 0.4572 0.5496 0.4572 0.9465 0.0281 0.9465 0.4572 0.5496 0.4572 0.9465 0.0281 0.5496 0.0281 0.9465 " />
										</IndexedTriangleSet>
									</Shape>
								</Group>
							</Transform>
							<Transform DEF="Cube_008_TRANSFORM"
							           translation="0.000000 -0.293300 -0.234725"
							           scale="1.000000 1.000000 1.000000"
							           rotation="0.000000 1.000000 0.000000 0.000000"
							           >
								<Transform DEF="Cube_008_ifs_TRANSFORM"
								           translation="0.000000 0.000000 0.000000"
								           scale="1.000000 1.000000 1.000000"
								           rotation="0.000000 1.000000 0.000000 0.000000"
								           >
									<Group DEF="group_ME_Cube_008">
										<Shape>
											<Appearance>
												<Material USE="MA_Body" />
											</Appearance>
											<IndexedTriangleSet solid="false"
											                    normalPerVertex="true"
											                    index="0 1 2 0 2 3 4 5 6 4 6 7 8 9 10 8 10 11 12 13 14 12 14 15 4 16 17 4 17 15 18 5 14 18 14 19 "
											                    >
												<Coordinate point="0.138632 0.107277 -0.053658 0.138632 -0.053096 0.107556 0.138632 -0.323999 -0.161932 0.138632 -0.163626 -0.323147 0.138632 -0.163626 -0.323147 0.138632 -0.323999 -0.161932 -0.138632 -0.323999 -0.161932 -0.138632 -0.163627 -0.323147 -0.138632 -0.163627 -0.323147 -0.138632 -0.323999 -0.161932 -0.138632 -0.053096 0.107556 -0.138632 0.107276 -0.053658 -0.138632 0.107276 -0.053658 -0.138632 -0.053096 0.107556 0.138632 -0.053096 0.107556 0.138632 0.107277 -0.053658 -0.138632 -0.163627 -0.323147 -0.138632 0.107276 -0.053658 -0.138632 -0.323999 -0.161932 -0.138632 -0.053096 0.107556 " />
												<Normal vector="0.577349 0.816492 -0.002136 0.577349 0.002136 0.816492 0.577349 -0.816492 0.002136 0.577349 -0.002136 -0.816492 0.577349 -0.002136 -0.816492 0.577349 -0.816492 0.002136 -0.577349 -0.816492 0.002136 -0.577349 -0.002136 -0.816492 -0.577349 -0.002136 -0.816492 -0.577349 -0.816492 0.002136 -0.577349 0.002136 0.816492 -0.577349 0.816492 -0.002136 -0.577349 0.816492 -0.002136 -0.577349 0.002136 0.816492 0.577349 0.002136 0.816492 0.577349 0.816492 -0.002136 -0.577349 -0.002136 -0.816492 -0.577349 0.816492 -0.002136 -0.577349 -0.816492 0.002136 -0.577349 0.002136 0.816492 " />
												<TextureCoordinate point="0.0281 0.5496 0.4572 0.5496 0.4572 0.9465 0.0281 0.9465 0.0281 0.5496 0.4572 0.5496 0.4572 0.9465 0.0281 0.9465 0.0281 0.5496 0.4572 0.5496 0.4572 0.9465 0.0281 0.9465 0.0281 0.5496 0.4572 0.5496 0.4572 0.9465 0.0281 0.9465 0.4572 0.5496 0.4572 0.9465 0.0281 0.5496 0.0281 0.9465 " />
											</IndexedTriangleSet>
										</Shape>
									</Group>
								</Transform>
							</Transform>
						</Transform>
					</Transform>
				</Transform>
			</Transform>
			<Transform DEF="leg1_TRANSFORM"
			           translation="0.627819 -0.003844 0.454387"
			           scale="1.000000 1.000000 1.000000"
			           rotation="0.000000 1.000000 0.000000 0.000000"
			           >
				<Transform DEF="leg1_ifs_TRANSFORM"
				           translation="0.000000 0.000000 0.000000"
				           scale="1.000000 1.000000 1.000000"
				           rotation="0.000000 1.000000 0.000000 0.000000"
				           >
					<Group DEF="group_ME_leg1">
						<Shape>
							<Appearance>
								<Material USE="MA_Body" />
							</Appearance>
							<IndexedTriangleSet solid="false"
							                    normalPerVertex="true"
							                    index="0 1 2 0 2 3 4 5 6 4 6 7 8 9 10 8 10 11 12 13 14 12 14 15 4 16 17 4 17 15 18 5 14 18 14 19 "
							                    >
								<Coordinate point="0.530632 0.055771 -0.053027 0.530632 0.055771 0.053027 0.530632 -0.055770 0.053027 0.530632 -0.055770 -0.053027 0.530632 -0.055770 -0.053027 0.530632 -0.055770 0.053027 0.000000 -0.055771 0.053027 0.000000 -0.055771 -0.053027 0.000000 -0.055771 -0.053027 0.000000 -0.055771 0.053027 -0.000000 0.055771 0.053027 -0.000000 0.055771 -0.053027 -0.000000 0.055771 -0.053027 -0.000000 0.055771 0.053027 0.530632 0.055771 0.053027 0.530632 0.055771 -0.053027 0.000000 -0.055771 -0.053027 -0.000000 0.055771 -0.053027 0.000000 -0.055771 0.053027 -0.000000 0.055771 0.053027 " />
								<Normal vector="0.577349 0.577349 -0.577349 0.577349 0.577349 0.577349 0.577349 -0.577349 0.577349 0.577349 -0.577349 -0.577349 0.577349 -0.577349 -0.577349 0.577349 -0.577349 0.577349 -0.577349 -0.577349 0.577349 -0.577349 -0.577349 -0.577349 -0.577349 -0.577349 -0.577349 -0.577349 -0.577349 0.577349 -0.577349 0.577349 0.577349 -0.577349 0.577349 -0.577349 -0.577349 0.577349 -0.577349 -0.577349 0.577349 0.577349 0.577349 0.577349 0.577349 0.577349 0.577349 -0.577349 -0.577349 -0.577349 -0.577349 -0.577349 0.577349 -0.577349 -0.577349 -0.577349 0.577349 -0.577349 0.577349 0.577349 " />
								<TextureCoordinate point="0.0246 0.0387 0.2251 0.0387 0.2251 0.4653 0.0246 0.4653 0.0246 0.0387 0.2251 0.0387 0.2251 0.4653 0.0246 0.4653 0.0246 0.0387 0.2251 0.0387 0.2251 0.4653 0.0246 0.4653 0.0246 0.0387 0.2251 0.0387 0.2251 0.4653 0.0246 0.4653 0.2251 0.0387 0.2251 0.4653 0.0246 0.0387 0.0246 0.4653 " />
							</IndexedTriangleSet>
						</Shape>
					</Group>
				</Transform>
				<Transform DEF="leg1_1_TRANSFORM"
				           translation="0.499964 0.000000 -0.026048"
				           scale="1.000000 1.000000 1.000000"
				           rotation="0.000000 1.000000 0.000000 0.000000"
				           >
					<Transform DEF="leg1_1_ifs_TRANSFORM"
					           translation="0.000000 0.000000 0.000000"
					           scale="1.000000 1.000000 1.000000"
					           rotation="0.000000 1.000000 0.000000 0.000000"
					           >
						<Group DEF="group_ME_leg1_1">
							<Shape>
								<Appearance>
									<Material USE="MA_Body" />
								</Appearance>
								<IndexedTriangleSet solid="false"
								                    normalPerVertex="true"
								                    index="0 1 2 0 2 3 4 5 6 4 6 7 8 9 10 8 10 11 12 13 14 12 14 15 4 16 17 4 17 15 18 5 14 18 14 19 "
								                    >
									<Coordinate point="-0.049757 0.152287 -0.861235 0.176882 0.152287 -0.844343 0.176882 -0.152287 -0.844343 -0.049757 -0.152287 -0.861235 -0.049757 -0.152287 -0.861235 0.176882 -0.152287 -0.844343 0.105581 -0.152287 0.112264 -0.121057 -0.152287 0.095371 -0.121057 -0.152287 0.095371 0.105581 -0.152287 0.112264 0.105581 0.152287 0.112264 -0.121057 0.152287 0.095371 -0.121057 0.152287 0.095371 0.105581 0.152287 0.112264 0.176882 0.152287 -0.844343 -0.049757 0.152287 -0.861235 -0.121057 -0.152287 0.095371 -0.121057 0.152287 0.095371 0.105581 -0.152287 0.112264 0.105581 0.152287 0.112264 " />
									<Normal vector="-0.532823 0.577349 -0.618641 0.618641 0.577349 -0.532823 0.618641 -0.577349 -0.532823 -0.532823 -0.577349 -0.618641 -0.532823 -0.577349 -0.618641 0.618641 -0.577349 -0.532823 0.532823 -0.577349 0.618641 -0.618641 -0.577349 0.532823 -0.618641 -0.577349 0.532823 0.532823 -0.577349 0.618641 0.532823 0.577349 0.618641 -0.618641 0.577349 0.532823 -0.618641 0.577349 0.532823 0.532823 0.577349 0.618641 0.618641 0.577349 -0.532823 -0.532823 0.577349 -0.618641 -0.618641 -0.577349 0.532823 -0.618641 0.577349 0.532823 0.532823 -0.577349 0.618641 0.532823 0.577349 0.618641 " />
									<TextureCoordinate point="0.0281 0.5496 0.4572 0.5496 0.4572 0.9465 0.0281 0.9465 0.0281 0.5496 0.4572 0.5496 0.4572 0.9465 0.0281 0.9465 0.0281 0.5496 0.4572 0.5496 0.4572 0.9465 0.0281 0.9465 0.0281 0.5496 0.4572 0.5496 0.4572 0.9465 0.0281 0.9465 0.4572 0.5496 0.4572 0.9465 0.0281 0.5496 0.0281 0.9465 " />
								</IndexedTriangleSet>
							</Shape>
						</Group>
					</Transform>
				</Transform>
			</Transform>
			<Transform DEF="casc_TRANSFORM"
			           translation="-0.000000 0.112067 0.901888"
			           scale="1.000000 1.000000 1.000000"
			           rotation="0.000000 1.000000 0.000000 0.000000"
			           >
				<Transform DEF="casc_ifs_TRANSFORM"
				           translation="0.000000 0.000000 0.000000"
				           scale="1.000000 1.000000 1.000000"
				           rotation="0.000000 1.000000 0.000000 0.000000"
				           >
					<Group DEF="group_ME_casc">
						<Shape>
							<Appearance>
								<Material USE="MA_Body" />
							</Appearance>
							<IndexedTriangleSet solid="false"
							                    normalPerVertex="true"
							                    index="0 1 2 0 2 3 4 5 6 4 6 7 8 9 10 8 10 11 12 13 14 12 14 15 16 17 18 16 18 19 20 21 14 20 14 22 23 24 25 23 25 26 27 28 29 27 29 30 31 32 33 31 33 15 34 35 36 34 36 37 38 39 25 38 25 19 40 41 29 40 29 37 42 43 44 42 44 45 46 47 48 46 48 49 46 50 51 46 51 52 53 54 55 53 55 56 42 57 58 42 58 59 0 60 61 0 61 62 63 47 64 63 64 65 66 67 68 66 68 69 70 5 71 70 71 72 73 74 75 73 75 76 77 43 78 77 78 79 80 1 81 80 81 82 4 83 84 4 84 85 86 87 88 86 88 89 90 91 92 90 92 93 94 95 96 94 96 97 98 99 81 98 81 62 31 21 78 31 78 59 "
							                    >
								<Coordinate point="2.665225 -0.248784 0.286991 2.665224 1.700122 1.976450 2.665225 0.377638 3.502026 2.665226 -1.571268 1.812567 -0.888407 -1.571270 1.812567 -0.888408 0.377636 3.502026 -2.665225 0.377635 3.502026 -2.665224 -1.571271 1.812567 -2.665225 0.798726 -0.921387 -2.665226 2.747632 0.768072 -2.665227 3.520174 -0.123109 -2.665226 1.571268 -1.812567 0.888407 1.571270 -1.812567 0.888406 3.520176 -0.123109 2.665223 3.520177 -0.123109 2.665224 1.571271 -1.812567 -0.888409 0.798727 -0.921387 -2.665225 0.798726 -0.921387 -2.665226 1.571268 -1.812567 -0.888409 1.571269 -1.812567 0.888407 2.747634 0.768072 2.665223 2.747635 0.768072 0.888406 3.520176 -0.123109 -2.665226 2.747632 0.768072 -0.888410 2.747633 0.768072 -0.888410 3.520175 -0.123109 -2.665227 3.520174 -0.123109 -0.888410 2.747633 0.768072 0.888407 2.747634 0.768072 0.888406 3.520176 -0.123109 -0.888410 3.520175 -0.123109 2.665224 0.798729 -0.921387 0.888408 0.798728 -0.921387 0.888407 1.571270 -1.812567 0.888408 0.798728 -0.921387 -0.888409 0.798727 -0.921387 -0.888409 1.571269 -1.812567 0.888407 1.571270 -1.812567 -2.665226 1.571268 -1.812567 -2.665227 3.520174 -0.123109 -0.888409 1.571269 -1.812567 -0.888410 3.520175 -0.123109 2.665226 -1.571268 1.812567 2.665225 0.377638 3.502026 0.888408 0.377637 3.502026 0.888409 -1.571269 1.812567 0.888409 -1.571269 1.812567 0.888408 0.377637 3.502026 -0.888408 0.377636 3.502026 -0.888407 -1.571270 1.812567 -0.888407 -1.571270 1.812567 -0.888408 -0.248786 0.286991 0.888408 -0.248785 0.286991 0.888408 -0.248785 0.286991 -0.888408 -0.248786 0.286991 -0.888409 0.798727 -0.921387 0.888408 0.798728 -0.921387 0.888409 -1.571269 1.812567 0.888408 -0.248785 0.286991 2.665225 -0.248784 0.286991 0.888408 -0.248785 0.286991 0.888408 0.798728 -0.921387 2.665224 0.798729 -0.921387 -0.888408 0.377636 3.502026 0.888407 1.700121 1.976450 -0.888409 1.700120 1.976450 -0.888409 1.700120 1.976450 0.888407 1.700121 1.976450 0.888407 2.747634 0.768072 -0.888410 2.747633 0.768072 -2.665225 0.377635 3.502026 -0.888409 1.700120 1.976450 -2.665226 1.700119 1.976450 -2.665226 1.700119 1.976450 -0.888409 1.700120 1.976450 -0.888410 2.747633 0.768072 -2.665226 2.747632 0.768072 0.888408 0.377637 3.502026 2.665224 1.700122 1.976450 0.888407 1.700121 1.976450 0.888407 1.700121 1.976450 2.665223 2.747635 0.768072 0.888407 2.747634 0.768072 -2.665224 -1.571271 1.812567 -2.665225 -0.248787 0.286991 -0.888408 -0.248786 0.286991 -0.888408 -0.248786 0.286991 -2.665225 -0.248787 0.286991 -2.665225 0.798726 -0.921387 -0.888409 0.798727 -0.921387 -2.665224 -1.571271 1.812567 -2.665225 0.377635 3.502026 -2.665226 1.700119 1.976450 -2.665225 -0.248787 0.286991 -2.665225 -0.248787 0.286991 -2.665226 1.700119 1.976450 -2.665226 2.747632 0.768072 -2.665225 0.798726 -0.921387 2.665224 1.571271 -1.812567 2.665223 3.520177 -0.123109 " />
								<Normal vector="0.707083 -0.534288 -0.463149 0.707083 0.534288 0.463149 0.577349 0.058046 0.814417 0.577349 -0.814417 0.058046 0.000000 -0.997467 0.071108 0.000000 0.071108 0.997467 -0.577349 0.058046 0.814417 -0.577349 -0.814417 0.058046 -0.707083 -0.534288 -0.463149 -0.707083 0.534288 0.463149 -0.577349 0.814417 -0.058046 -0.577349 -0.058046 -0.814417 0.000000 -0.071108 -0.997467 0.000000 0.997467 -0.071108 0.577349 0.814417 -0.058046 0.577349 -0.058046 -0.814417 0.000000 -0.755608 -0.655019 -0.707083 -0.534288 -0.463149 -0.577349 -0.058046 -0.814417 0.000000 -0.071108 -0.997467 0.000000 0.755608 0.655019 0.707083 0.534288 0.463149 0.000000 0.997467 -0.071108 -0.707083 0.534288 0.463149 0.000000 0.755608 0.655019 0.000000 0.997467 -0.071108 -0.577349 0.814417 -0.058046 0.000000 0.755608 0.655019 0.000000 0.755608 0.655019 0.000000 0.997467 -0.071108 0.000000 0.997467 -0.071108 0.707083 -0.534288 -0.463149 0.000000 -0.755608 -0.655019 0.000000 -0.071108 -0.997467 0.000000 -0.755608 -0.655019 0.000000 -0.755608 -0.655019 0.000000 -0.071108 -0.997467 0.000000 -0.071108 -0.997467 -0.577349 -0.058046 -0.814417 -0.577349 0.814417 -0.058046 0.000000 -0.071108 -0.997467 0.000000 0.997467 -0.071108 0.577349 -0.814417 0.058046 0.577349 0.058046 0.814417 0.000000 0.071108 0.997467 0.000000 -0.997467 0.071108 0.000000 -0.997467 0.071108 0.000000 0.071108 0.997467 0.000000 0.071108 0.997467 0.000000 -0.997467 0.071108 0.000000 -0.997467 0.071108 0.000000 -0.755608 -0.655019 0.000000 -0.755608 -0.655019 0.000000 -0.755608 -0.655019 0.000000 -0.755608 -0.655019 0.000000 -0.755608 -0.655019 0.000000 -0.755608 -0.655019 0.000000 -0.997467 0.071108 0.000000 -0.755608 -0.655019 0.707083 -0.534288 -0.463149 0.000000 -0.755608 -0.655019 0.000000 -0.755608 -0.655019 0.707083 -0.534288 -0.463149 0.000000 0.071108 0.997467 0.000000 0.755608 0.655019 0.000000 0.755608 0.655019 0.000000 0.755608 0.655019 0.000000 0.755608 0.655019 0.000000 0.755608 0.655019 0.000000 0.755608 0.655019 -0.577349 0.058046 0.814417 0.000000 0.755608 0.655019 -0.707083 0.534288 0.463149 -0.707083 0.534288 0.463149 0.000000 0.755608 0.655019 0.000000 0.755608 0.655019 -0.707083 0.534288 0.463149 0.000000 0.071108 0.997467 0.707083 0.534288 0.463149 0.000000 0.755608 0.655019 0.000000 0.755608 0.655019 0.707083 0.534288 0.463149 0.000000 0.755608 0.655019 -0.577349 -0.814417 0.058046 -0.707083 -0.534288 -0.463149 0.000000 -0.755608 -0.655019 0.000000 -0.755608 -0.655019 -0.707083 -0.534288 -0.463149 -0.707083 -0.534288 -0.463149 0.000000 -0.755608 -0.655019 -0.577349 -0.814417 0.058046 -0.577349 0.058046 0.814417 -0.707083 0.534288 0.463149 -0.707083 -0.534288 -0.463149 -0.707083 -0.534288 -0.463149 -0.707083 0.534288 0.463149 -0.707083 0.534288 0.463149 -0.707083 -0.534288 -0.463149 0.577349 -0.058046 -0.814417 0.577349 0.814417 -0.058046 " />
								<TextureCoordinate point="0.5054 0.0257 0.9907 0.0257 0.9907 0.9743 0.5054 0.9743 0.5054 0.0257 0.9907 0.0257 0.9907 0.9743 0.5054 0.9743 0.5054 0.0257 0.9907 0.0257 0.9907 0.9743 0.5054 0.9743 0.5054 0.0257 0.9907 0.0257 0.9907 0.9743 0.5054 0.9743 0.5054 0.0257 0.9907 0.0257 0.9907 0.9743 0.5054 0.9743 0.5054 0.0257 0.9907 0.0257 0.5054 0.9743 0.5054 0.0257 0.9907 0.0257 0.9907 0.9743 0.5054 0.9743 0.5054 0.0257 0.9907 0.0257 0.9907 0.9743 0.5054 0.9743 0.5054 0.0257 0.9907 0.0257 0.9907 0.9743 0.5054 0.0257 0.9907 0.0257 0.9907 0.9743 0.5054 0.9743 0.5054 0.0257 0.9907 0.0257 0.5054 0.0257 0.9907 0.0257 0.5054 0.0257 0.9907 0.0257 0.9907 0.9743 0.5054 0.9743 0.5054 0.0257 0.9907 0.0257 0.9907 0.9743 0.5054 0.9743 0.9907 0.0257 0.9907 0.9743 0.5054 0.9743 0.2851 0.0554 0.4883 0.0554 0.4883 0.4525 0.2851 0.4525 0.9907 0.0257 0.9907 0.9743 0.5054 0.9743 0.9907 0.0257 0.9907 0.9743 0.5054 0.9743 0.5054 0.0257 0.9907 0.9743 0.5054 0.9743 0.5054 0.0257 0.9907 0.0257 0.9907 0.9743 0.5054 0.9743 0.5054 0.0257 0.9907 0.9743 0.5054 0.9743 0.5054 0.0257 0.9907 0.0257 0.9907 0.9743 0.5054 0.9743 0.5054 0.0257 0.9907 0.9743 0.5054 0.9743 0.5054 0.0257 0.9907 0.9743 0.5054 0.9743 0.9907 0.0257 0.9907 0.9743 0.5054 0.9743 0.5054 0.0257 0.9907 0.0257 0.9907 0.9743 0.5054 0.9743 0.5054 0.0257 0.9907 0.0257 0.9907 0.9743 0.5054 0.9743 0.5054 0.0257 0.9907 0.0257 0.9907 0.9743 0.5054 0.9743 0.5054 0.0257 0.9907 0.0257 " />
							</IndexedTriangleSet>
						</Shape>
					</Group>
				</Transform>
				<Transform DEF="Cube_002_TRANSFORM"
				           translation="-0.000001 1.744856 1.506008"
				           scale="1.000000 1.000000 1.000000"
				           rotation="0.000000 1.000000 0.000000 0.000000"
				           >
					<Transform DEF="Cube_002_ifs_TRANSFORM"
					           translation="0.000000 0.000000 0.000000"
					           scale="1.000000 1.000000 1.000000"
					           rotation="0.000000 1.000000 0.000000 0.000000"
					           >
						<Group DEF="group_ME_Cube_011">
							<Shape>
								<Appearance>
									<Material USE="MA_Body" />
								</Appearance>
								<IndexedTriangleSet solid="false"
								                    normalPerVertex="true"
								                    index="0 1 2 0 2 3 4 5 6 4 6 7 8 9 10 8 10 11 12 13 14 12 14 15 4 16 17 4 17 15 18 5 14 18 14 19 "
								                    >
									<Coordinate point="1.619436 1.037822 -1.110864 1.619435 2.298565 0.066981 1.619436 0.222921 2.288709 1.619437 -1.037821 1.110864 1.619437 -1.037821 1.110864 1.619436 0.222921 2.288709 -1.619436 0.222920 2.288709 -1.619436 -1.037822 1.110864 -1.619436 -1.037822 1.110864 -1.619436 0.222920 2.288709 -1.619437 2.298563 0.066981 -1.619437 1.037821 -1.110864 -1.619437 1.037821 -1.110864 -1.619437 2.298563 0.066981 1.619435 2.298565 0.066981 1.619436 1.037822 -1.110864 -1.619436 -1.037822 1.110864 -1.619437 1.037821 -1.110864 -1.619436 0.222920 2.288709 -1.619437 2.298563 0.066981 " />
									<Normal vector="0.577349 -0.027711 -0.816004 0.577349 0.816004 -0.027711 0.577349 0.027711 0.816004 0.577349 -0.816004 0.027711 0.577349 -0.816004 0.027711 0.577349 0.027711 0.816004 -0.577349 0.027711 0.816004 -0.577349 -0.816004 0.027711 -0.577349 -0.816004 0.027711 -0.577349 0.027711 0.816004 -0.577349 0.816004 -0.027711 -0.577349 -0.027711 -0.816004 -0.577349 -0.027711 -0.816004 -0.577349 0.816004 -0.027711 0.577349 0.816004 -0.027711 0.577349 -0.027711 -0.816004 -0.577349 -0.816004 0.027711 -0.577349 -0.027711 -0.816004 -0.577349 0.027711 0.816004 -0.577349 0.816004 -0.027711 " />
									<TextureCoordinate point="0.5141 0.0462 0.9819 0.0462 0.9819 0.9662 0.5141 0.9662 0.5141 0.0462 0.9819 0.0462 0.9819 0.9662 0.5141 0.9662 0.5141 0.0462 0.9819 0.0462 0.9819 0.9662 0.5141 0.9662 0.5141 0.0462 0.9819 0.0462 0.9819 0.9662 0.5141 0.9662 0.9819 0.0462 0.9819 0.9662 0.5141 0.0462 0.5141 0.9662 " />
								</IndexedTriangleSet>
							</Shape>
						</Group>
					</Transform>
				</Transform>
			</Transform>
			<Transform DEF="arm2_TRANSFORM"
			           translation="-0.673432 -0.447250 0.697624"
			           scale="1.000000 1.000000 1.000000"
			           rotation="0.000000 1.000000 0.000000 0.000000"
			           >
				<Transform DEF="arm2_ifs_TRANSFORM"
				           translation="0.000000 0.000000 0.000000"
				           scale="1.000000 1.000000 1.000000"
				           rotation="0.000000 1.000000 0.000000 0.000000"
				           >
					<Group DEF="group_ME_arm2">
						<Shape>
							<Appearance>
								<Material USE="MA_Body" />
							</Appearance>
							<IndexedTriangleSet solid="false"
							                    normalPerVertex="true"
							                    index="0 1 2 0 2 3 4 5 6 4 6 7 8 9 10 8 10 11 12 13 14 12 14 15 4 13 16 4 16 17 18 19 14 18 14 7 "
							                    >
								<Coordinate point="-1.046573 -0.623667 0.006232 -0.909057 -0.811104 0.006232 -0.880536 -0.790179 0.290841 -1.018051 -0.602742 0.290841 -0.909057 -0.811104 0.006232 0.054497 -0.104181 -0.142304 0.083018 -0.083256 0.142304 -0.880536 -0.790179 0.290841 0.054497 -0.104181 -0.142304 -0.083018 0.083256 -0.142304 -0.054497 0.104181 0.142304 0.083018 -0.083256 0.142304 -0.083018 0.083256 -0.142304 -1.046573 -0.623667 0.006232 -1.018051 -0.602742 0.290841 -0.054497 0.104181 0.142304 -0.083018 0.083256 -0.142304 0.054497 -0.104181 -0.142304 0.083018 -0.083256 0.142304 -0.054497 0.104181 0.142304 " />
								<Normal vector="-0.860866 0.084445 -0.501724 -0.177831 -0.846522 -0.501724 -0.062990 -0.762291 0.644124 -0.746055 0.168706 0.644124 -0.177831 -0.846522 -0.501724 0.746055 -0.168706 -0.644124 0.860866 -0.084445 0.501724 -0.062990 -0.762291 0.644124 0.746055 -0.168706 -0.644124 0.062990 0.762291 -0.644124 0.177831 0.846522 0.501724 0.860866 -0.084445 0.501724 0.062990 0.762291 -0.644124 -0.860866 0.084445 -0.501724 -0.746055 0.168706 0.644124 0.177831 0.846522 0.501724 0.062990 0.762291 -0.644124 0.746055 -0.168706 -0.644124 0.860866 -0.084445 0.501724 0.177831 0.846522 0.501724 " />
								<TextureCoordinate point="0.0246 0.0387 0.0246 0.4653 0.2251 0.4653 0.2251 0.0387 0.0246 0.0387 0.0246 0.4653 0.2251 0.4653 0.2251 0.0387 0.0246 0.0387 0.0246 0.4653 0.2251 0.4653 0.2251 0.0387 0.0246 0.0387 0.0246 0.4653 0.2251 0.4653 0.2251 0.0387 0.2251 0.4653 0.2251 0.0387 0.0246 0.0387 0.0246 0.4653 " />
							</IndexedTriangleSet>
						</Shape>
					</Group>
				</Transform>
				<Transform DEF="hand2_TRANSFORM"
				           translation="-0.876384 -0.733205 0.473777"
				           scale="1.000000 1.000000 1.000000"
				           rotation="0.000000 1.000000 0.000000 0.000000"
				           >
					<Transform DEF="hand2_ifs_TRANSFORM"
					           translation="0.000000 0.000000 0.000000"
					           scale="1.000000 1.000000 1.000000"
					           rotation="0.000000 1.000000 0.000000 0.000000"
					           >
						<Group DEF="group_ME_hand2">
							<Shape>
								<Appearance>
									<Material USE="MA_Body" />
								</Appearance>
								<IndexedTriangleSet solid="false"
								                    normalPerVertex="true"
								                    index="0 1 2 0 2 3 4 5 6 4 6 7 8 9 10 8 10 11 12 13 14 12 14 15 4 13 16 4 16 17 18 19 14 18 14 7 "
								                    >
									<Coordinate point="-0.714466 0.514324 -0.555487 -0.714467 -0.962726 -1.401488 -0.714468 -1.695964 -0.121314 -0.714467 -0.218914 0.724687 -0.714467 -0.962726 -1.401488 0.714466 -0.962727 -1.401488 0.714465 -1.695965 -0.121314 -0.714468 -1.695964 -0.121314 0.714466 -0.962727 -1.401488 0.714467 0.514324 -0.555487 0.714466 -0.218914 0.724687 0.714465 -1.695965 -0.121314 0.714467 0.514324 -0.555487 -0.714466 0.514324 -0.555487 -0.714467 -0.218914 0.724687 0.714466 -0.218914 0.724687 0.714467 0.514324 -0.555487 0.714466 -0.962727 -1.401488 0.714465 -1.695965 -0.121314 0.714466 -0.218914 0.724687 " />
									<Normal vector="-0.577349 0.787927 -0.214026 -0.577349 -0.214026 -0.787927 -0.577349 -0.787927 0.214026 -0.577349 0.214026 0.787927 -0.577349 -0.214026 -0.787927 0.577349 -0.214026 -0.787927 0.577349 -0.787927 0.214026 -0.577349 -0.787927 0.214026 0.577349 -0.214026 -0.787927 0.577349 0.787927 -0.214026 0.577349 0.214026 0.787927 0.577349 -0.787927 0.214026 0.577349 0.787927 -0.214026 -0.577349 0.787927 -0.214026 -0.577349 0.214026 0.787927 0.577349 0.214026 0.787927 0.577349 0.787927 -0.214026 0.577349 -0.214026 -0.787927 0.577349 -0.787927 0.214026 0.577349 0.214026 0.787927 " />
									<TextureCoordinate point="0.0281 0.5496 0.0281 0.9465 0.4572 0.9465 0.4572 0.5496 0.0281 0.5496 0.0281 0.9465 0.4572 0.9465 0.4572 0.5496 0.0281 0.5496 0.0281 0.9465 0.4572 0.9465 0.4572 0.5496 0.0281 0.5496 0.0281 0.9465 0.4572 0.9465 0.4572 0.5496 0.4572 0.9465 0.4572 0.5496 0.0281 0.5496 0.0281 0.9465 " />
								</IndexedTriangleSet>
							</Shape>
						</Group>
					</Transform>
					<Transform DEF="Cube_001_TRANSFORM"
					           translation="-0.000000 -1.299148 -0.839082"
					           scale="1.000000 1.000000 1.000000"
					           rotation="0.000000 1.000000 0.000000 0.000000"
					           >
						<Transform DEF="Cube_001_ifs_TRANSFORM"
						           translation="0.000000 0.000000 0.000000"
						           scale="1.000000 1.000000 1.000000"
						           rotation="0.000000 1.000000 0.000000 0.000000"
						           >
							<Group DEF="group_ME_Cube_001">
								<Shape>
									<Appearance>
										<Material USE="MA_Body" />
									</Appearance>
									<IndexedTriangleSet solid="false"
									                    normalPerVertex="true"
									                    index="0 1 2 0 2 3 4 5 6 4 6 7 8 9 10 8 10 11 12 13 14 12 14 15 4 13 16 4 16 17 18 19 14 18 14 7 "
									                    >
										<Coordinate point="-0.360090 0.264153 -0.305409 -0.360090 -0.280666 -0.642283 -0.360090 -0.700008 0.035909 -0.360090 -0.155189 0.372783 -0.360090 -0.280666 -0.642283 0.360090 -0.280666 -0.642283 0.360090 -0.700008 0.035909 -0.360090 -0.700008 0.035909 0.360090 -0.280666 -0.642283 0.360090 0.264153 -0.305409 0.360090 -0.155189 0.372783 0.360090 -0.700008 0.035909 0.360090 0.264153 -0.305409 -0.360090 0.264153 -0.305409 -0.360090 -0.155189 0.372783 0.360090 -0.155189 0.372783 0.360090 0.264153 -0.305409 0.360090 -0.280666 -0.642283 0.360090 -0.700008 0.035909 0.360090 -0.155189 0.372783 " />
										<Normal vector="-0.577349 0.794671 -0.187414 -0.577349 -0.187414 -0.794671 -0.577349 -0.794671 0.187414 -0.577349 0.187414 0.794671 -0.577349 -0.187414 -0.794671 0.577349 -0.187414 -0.794671 0.577349 -0.794671 0.187414 -0.577349 -0.794671 0.187414 0.577349 -0.187414 -0.794671 0.577349 0.794671 -0.187414 0.577349 0.187414 0.794671 0.577349 -0.794671 0.187414 0.577349 0.794671 -0.187414 -0.577349 0.794671 -0.187414 -0.577349 0.187414 0.794671 0.577349 0.187414 0.794671 0.577349 0.794671 -0.187414 0.577349 -0.187414 -0.794671 0.577349 -0.794671 0.187414 0.577349 0.187414 0.794671 " />
										<TextureCoordinate point="0.0281 0.5496 0.0281 0.9465 0.4572 0.9465 0.4572 0.5496 0.0281 0.5496 0.0281 0.9465 0.4572 0.9465 0.4572 0.5496 0.0281 0.5496 0.0281 0.9465 0.4572 0.9465 0.4572 0.5496 0.0281 0.5496 0.0281 0.9465 0.4572 0.9465 0.4572 0.5496 0.4572 0.9465 0.4572 0.5496 0.0281 0.5496 0.0281 0.9465 " />
									</IndexedTriangleSet>
								</Shape>
							</Group>
						</Transform>
						<Transform DEF="Cube_003_TRANSFORM"
						           translation="-0.000000 -0.437856 -0.298718"
						           scale="1.000000 1.000000 1.000000"
						           rotation="0.000000 1.000000 0.000000 0.000000"
						           >
							<Transform DEF="Cube_003_ifs_TRANSFORM"
							           translation="0.000000 0.000000 0.000000"
							           scale="1.000000 1.000000 1.000000"
							           rotation="0.000000 1.000000 0.000000 0.000000"
							           >
								<Group DEF="group_ME_Cube_002">
									<Shape>
										<Appearance>
											<Material USE="MA_Body" />
										</Appearance>
										<IndexedTriangleSet solid="false"
										                    normalPerVertex="true"
										                    index="0 1 2 0 2 3 4 5 6 4 6 7 8 9 10 8 10 11 12 13 14 12 14 15 4 13 16 4 16 17 18 19 14 18 14 7 "
										                    >
											<Coordinate point="-0.256473 0.183088 -0.181845 -0.256474 -0.204415 -0.449906 -0.256474 -0.493090 -0.032603 -0.256474 -0.105587 0.235457 -0.256474 -0.204415 -0.449906 0.256473 -0.204415 -0.449906 0.256473 -0.493090 -0.032603 -0.256474 -0.493090 -0.032603 0.256473 -0.204415 -0.449906 0.256474 0.183088 -0.181845 0.256473 -0.105587 0.235457 0.256473 -0.493090 -0.032603 0.256474 0.183088 -0.181845 -0.256473 0.183088 -0.181845 -0.256474 -0.105587 0.235457 0.256473 -0.105587 0.235457 0.256474 0.183088 -0.181845 0.256473 -0.204415 -0.449906 0.256473 -0.493090 -0.032603 0.256473 -0.105587 0.235457 " />
											<Normal vector="-0.577349 0.803247 -0.146336 -0.577349 -0.146336 -0.803247 -0.577349 -0.803247 0.146336 -0.577349 0.146336 0.803247 -0.577349 -0.146336 -0.803247 0.577349 -0.146336 -0.803247 0.577349 -0.803247 0.146336 -0.577349 -0.803247 0.146336 0.577349 -0.146336 -0.803247 0.577349 0.803247 -0.146336 0.577349 0.146336 0.803247 0.577349 -0.803247 0.146336 0.577349 0.803247 -0.146336 -0.577349 0.803247 -0.146336 -0.577349 0.146336 0.803247 0.577349 0.146336 0.803247 0.577349 0.803247 -0.146336 0.577349 -0.146336 -0.803247 0.577349 -0.803247 0.146336 0.577349 0.146336 0.803247 " />
											<TextureCoordinate point="0.0281 0.5496 0.0281 0.9465 0.4572 0.9465 0.4572 0.5496 0.0281 0.5496 0.0281 0.9465 0.4572 0.9465 0.4572 0.5496 0.0281 0.5496 0.0281 0.9465 0.4572 0.9465 0.4572 0.5496 0.0281 0.5496 0.0281 0.9465 0.4572 0.9465 0.4572 0.5496 0.4572 0.9465 0.4572 0.5496 0.0281 0.5496 0.0281 0.9465 " />
										</IndexedTriangleSet>
									</Shape>
								</Group>
							</Transform>
							<Transform DEF="Cube_004_TRANSFORM"
							           translation="-0.000000 -0.293300 -0.234725"
							           scale="1.000000 1.000000 1.000000"
							           rotation="0.000000 1.000000 0.000000 0.000000"
							           >
								<Transform DEF="Cube_004_ifs_TRANSFORM"
								           translation="0.000000 0.000000 0.000000"
								           scale="1.000000 1.000000 1.000000"
								           rotation="0.000000 1.000000 0.000000 0.000000"
								           >
									<Group DEF="group_ME_Cube_003">
										<Shape>
											<Appearance>
												<Material USE="MA_Body" />
											</Appearance>
											<IndexedTriangleSet solid="false"
											                    normalPerVertex="true"
											                    index="0 1 2 0 2 3 4 5 6 4 6 7 8 9 10 8 10 11 12 13 14 12 14 15 4 13 16 4 16 17 18 19 14 18 14 7 "
											                    >
												<Coordinate point="-0.138632 0.107277 -0.053658 -0.138632 -0.163626 -0.323147 -0.138632 -0.323999 -0.161932 -0.138632 -0.053096 0.107556 -0.138632 -0.163626 -0.323147 0.138632 -0.163627 -0.323147 0.138632 -0.323999 -0.161932 -0.138632 -0.323999 -0.161932 0.138632 -0.163627 -0.323147 0.138632 0.107276 -0.053658 0.138632 -0.053096 0.107556 0.138632 -0.323999 -0.161932 0.138632 0.107276 -0.053658 -0.138632 0.107277 -0.053658 -0.138632 -0.053096 0.107556 0.138632 -0.053096 0.107556 0.138632 0.107276 -0.053658 0.138632 -0.163627 -0.323147 0.138632 -0.323999 -0.161932 0.138632 -0.053096 0.107556 " />
												<Normal vector="-0.577349 0.816492 -0.002136 -0.577349 -0.002136 -0.816492 -0.577349 -0.816492 0.002136 -0.577349 0.002136 0.816492 -0.577349 -0.002136 -0.816492 0.577349 -0.002136 -0.816492 0.577349 -0.816492 0.002136 -0.577349 -0.816492 0.002136 0.577349 -0.002136 -0.816492 0.577349 0.816492 -0.002136 0.577349 0.002136 0.816492 0.577349 -0.816492 0.002136 0.577349 0.816492 -0.002136 -0.577349 0.816492 -0.002136 -0.577349 0.002136 0.816492 0.577349 0.002136 0.816492 0.577349 0.816492 -0.002136 0.577349 -0.002136 -0.816492 0.577349 -0.816492 0.002136 0.577349 0.002136 0.816492 " />
												<TextureCoordinate point="0.0281 0.5496 0.0281 0.9465 0.4572 0.9465 0.4572 0.5496 0.0281 0.5496 0.0281 0.9465 0.4572 0.9465 0.4572 0.5496 0.0281 0.5496 0.0281 0.9465 0.4572 0.9465 0.4572 0.5496 0.0281 0.5496 0.0281 0.9465 0.4572 0.9465 0.4572 0.5496 0.4572 0.9465 0.4572 0.5496 0.0281 0.5496 0.0281 0.9465 " />
											</IndexedTriangleSet>
										</Shape>
									</Group>
								</Transform>
							</Transform>
						</Transform>
					</Transform>
				</Transform>
			</Transform>
			<Transform DEF="leg2_TRANSFORM"
			           translation="-0.627819 -0.003844 0.454387"
			           scale="1.000000 1.000000 1.000000"
			           rotation="0.000000 1.000000 0.000000 0.000000"
			           >
				<Transform DEF="leg2_ifs_TRANSFORM"
				           translation="0.000000 0.000000 0.000000"
				           scale="1.000000 1.000000 1.000000"
				           rotation="0.000000 1.000000 0.000000 0.000000"
				           >
					<Group DEF="group_ME_leg2">
						<Shape>
							<Appearance>
								<Material USE="MA_Body" />
							</Appearance>
							<IndexedTriangleSet solid="false"
							                    normalPerVertex="true"
							                    index="0 1 2 0 2 3 4 5 6 4 6 7 8 9 10 8 10 11 12 13 14 12 14 15 4 13 16 4 16 17 18 19 14 18 14 7 "
							                    >
								<Coordinate point="-0.530632 0.055771 -0.053027 -0.530632 -0.055770 -0.053027 -0.530632 -0.055770 0.053027 -0.530632 0.055771 0.053027 -0.530632 -0.055770 -0.053027 -0.000000 -0.055771 -0.053027 -0.000000 -0.055771 0.053027 -0.530632 -0.055770 0.053027 -0.000000 -0.055771 -0.053027 0.000000 0.055771 -0.053027 0.000000 0.055771 0.053027 -0.000000 -0.055771 0.053027 0.000000 0.055771 -0.053027 -0.530632 0.055771 -0.053027 -0.530632 0.055771 0.053027 0.000000 0.055771 0.053027 0.000000 0.055771 -0.053027 -0.000000 -0.055771 -0.053027 -0.000000 -0.055771 0.053027 0.000000 0.055771 0.053027 " />
								<Normal vector="-0.577349 0.577349 -0.577349 -0.577349 -0.577349 -0.577349 -0.577349 -0.577349 0.577349 -0.577349 0.577349 0.577349 -0.577349 -0.577349 -0.577349 0.577349 -0.577349 -0.577349 0.577349 -0.577349 0.577349 -0.577349 -0.577349 0.577349 0.577349 -0.577349 -0.577349 0.577349 0.577349 -0.577349 0.577349 0.577349 0.577349 0.577349 -0.577349 0.577349 0.577349 0.577349 -0.577349 -0.577349 0.577349 -0.577349 -0.577349 0.577349 0.577349 0.577349 0.577349 0.577349 0.577349 0.577349 -0.577349 0.577349 -0.577349 -0.577349 0.577349 -0.577349 0.577349 0.577349 0.577349 0.577349 " />
								<TextureCoordinate point="0.0246 0.0387 0.0246 0.4653 0.2251 0.4653 0.2251 0.0387 0.0246 0.0387 0.0246 0.4653 0.2251 0.4653 0.2251 0.0387 0.0246 0.0387 0.0246 0.4653 0.2251 0.4653 0.2251 0.0387 0.0246 0.0387 0.0246 0.4653 0.2251 0.4653 0.2251 0.0387 0.2251 0.4653 0.2251 0.0387 0.0246 0.0387 0.0246 0.4653 " />
							</IndexedTriangleSet>
						</Shape>
					</Group>
				</Transform>
				<Transform DEF="leg2_1_TRANSFORM"
				           translation="-0.499964 0.000000 -0.026048"
				           scale="1.000000 1.000000 1.000000"
				           rotation="0.000000 1.000000 0.000000 0.000000"
				           >
					<Transform DEF="leg2_1_ifs_TRANSFORM"
					           translation="0.000000 0.000000 0.000000"
					           scale="1.000000 1.000000 1.000000"
					           rotation="0.000000 1.000000 0.000000 0.000000"
					           >
						<Group DEF="group_ME_leg2_1">
							<Shape>
								<Appearance>
									<Material USE="MA_Body" />
								</Appearance>
								<IndexedTriangleSet solid="false"
								                    normalPerVertex="true"
								                    index="0 1 2 0 2 3 4 5 6 4 6 7 8 9 10 8 10 11 12 13 14 12 14 15 4 13 16 4 16 17 18 19 14 18 14 7 "
								                    >
									<Coordinate point="0.049757 0.152287 -0.861235 0.049757 -0.152287 -0.861235 -0.176882 -0.152287 -0.844343 -0.176882 0.152287 -0.844343 0.049757 -0.152287 -0.861235 0.121057 -0.152287 0.095371 -0.105581 -0.152287 0.112264 -0.176882 -0.152287 -0.844343 0.121057 -0.152287 0.095371 0.121057 0.152287 0.095371 -0.105581 0.152287 0.112264 -0.105581 -0.152287 0.112264 0.121057 0.152287 0.095371 0.049757 0.152287 -0.861235 -0.176882 0.152287 -0.844343 -0.105581 0.152287 0.112264 0.121057 0.152287 0.095371 0.121057 -0.152287 0.095371 -0.105581 -0.152287 0.112264 -0.105581 0.152287 0.112264 " />
									<Normal vector="0.532823 0.577349 -0.618641 0.532823 -0.577349 -0.618641 -0.618641 -0.577349 -0.532823 -0.618641 0.577349 -0.532823 0.532823 -0.577349 -0.618641 0.618641 -0.577349 0.532823 -0.532823 -0.577349 0.618641 -0.618641 -0.577349 -0.532823 0.618641 -0.577349 0.532823 0.618641 0.577349 0.532823 -0.532823 0.577349 0.618641 -0.532823 -0.577349 0.618641 0.618641 0.577349 0.532823 0.532823 0.577349 -0.618641 -0.618641 0.577349 -0.532823 -0.532823 0.577349 0.618641 0.618641 0.577349 0.532823 0.618641 -0.577349 0.532823 -0.532823 -0.577349 0.618641 -0.532823 0.577349 0.618641 " />
									<TextureCoordinate point="0.0281 0.5496 0.0281 0.9465 0.4572 0.9465 0.4572 0.5496 0.0281 0.5496 0.0281 0.9465 0.4572 0.9465 0.4572 0.5496 0.0281 0.5496 0.0281 0.9465 0.4572 0.9465 0.4572 0.5496 0.0281 0.5496 0.0281 0.9465 0.4572 0.9465 0.4572 0.5496 0.4572 0.9465 0.4572 0.5496 0.0281 0.5496 0.0281 0.9465 " />
								</IndexedTriangleSet>
							</Shape>
						</Group>
					</Transform>
				</Transform>
			</Transform>
		</Transform>
	</Scene>
</X3D>