<?xml version="1.0" encoding="UTF-8"?>
<!DOCTYPE X3D PUBLIC "ISO//Web3D//DTD X3D 3.0//EN" "http://www.web3d.org/specifications/x3d-3.0.dtd">
<X3D version="3.0" profile="Immersive" xmlns:xsd="http://www.w3.org/2001/XMLSchema-instance" xsd:noNamespaceSchemaLocation="http://www.web3d.org/specifications/x3d-3.0.xsd">
	<head>
		<meta name="filename" content="gastly.x3d" />
		<meta name="generator" content="Blender 2.93.18" />
	</head>
	<Scene>
		<NavigationInfo headlight="true"
		                visibilityLimit="0.0"
		                type='"EXAMINE", "ANY"'
		                avatarSize="0.25, 1.75, 0.75"
		                />
		<Background DEF="WO_World"
		            groundColor="0.051 0.051 0.051"
		            skyColor="0.051 0.051 0.051"
		            />
		<Transform DEF="body_TRANSFORM"
		           translation="0.000000 0.000000 1.155408"
		           scale="1.000000 1.000000 1.000000"
		           rotation="0.000000 0.000000 1.000000 3.141593"
		           >
			<Transform DEF="body_ifs_TRANSFORM"
			           translation="0.000000 0.000000 0.000000"
			           scale="1.000000 1.000000 1.000000"
			           rotation="0.000000 1.000000 0.000000 0.000000"
			           >
				<Group DEF="group_ME_body">
					<Shape>
						<Appearance>
							<Material DEF="MA_Body"
							          diffuseColor="0.800 0.800 0.800"
							          specularColor="0.401 0.401 0.401"
							          emissiveColor="0.000 0.000 0.000"
							          ambientIntensity="0.000"
							          shininess="0.500"
							          transparency="0.0"
							          />
						</Appearance>
						<IndexedTriangleSet solid="false"
						                    normalPerVertex="true"
						                    index="0 1 2 0 2 3 4 5 6 4 6 7 8 9 10 8 10 11 12 13 14 12 14 15 16 17 18 16 18 19 20 1 14 20 14 21 22 23 1 22 1 20 24 25 17 24 17 16 26 27 9 26 9 8 28 29 1 28 1 0 30 31 32 30 32 0 31 24 16 31 16 32 33 34 35 33 35 36 34 22 20 34 20 35 36 35 37 36 37 38 35 20 21 35 21 37 0 32 39 0 39 15 40 41 42 40 42 43 44 45 46 44 46 47 47 46 13 47 13 12 30 23 48 30 48 49 49 48 5 49 5 4 "
						                    >
							<Coordinate point="-0.894789 -0.499844 -0.655525 -0.894789 -0.499844 0.655525 -0.894789 0.831632 0.655525 -0.894789 0.831632 -0.655525 0.641132 0.831631 -0.655525 0.641132 0.831631 0.655525 0.894789 0.831632 0.655525 0.894789 0.831632 -0.655525 0.894789 -0.499844 -0.655525 0.894789 -0.499844 0.655525 0.894789 -0.831632 0.655525 0.894789 -0.831632 -0.655525 -0.641132 -0.831632 -0.655525 -0.641132 -0.831632 0.655525 -0.894789 -0.831632 0.655525 -0.894789 -0.831632 -0.655525 0.641132 -0.499844 -0.655525 0.894789 -0.499844 -0.655525 0.894789 -0.831632 -0.655525 0.641132 -0.831632 -0.655525 -0.641132 -0.499844 0.655525 -0.641132 -0.831632 0.655525 -0.641132 0.831631 0.655525 -0.894789 0.831632 0.655525 0.641132 0.831631 -0.655525 0.894789 0.831632 -0.655525 0.894789 0.831632 -0.655525 0.894789 0.831632 0.655525 -0.894789 -0.831632 -0.655525 -0.894789 -0.831632 0.655525 -0.894789 0.831632 -0.655525 -0.641132 0.831631 -0.655525 -0.641132 -0.499844 -0.655525 0.894789 0.831632 0.655525 0.641132 0.831631 0.655525 0.641132 -0.499844 0.655525 0.894789 -0.499844 0.655525 0.641132 -0.831632 0.655525 0.894789 -0.831632 0.655525 -0.641132 -0.831632 -0.655525 -0.641132 -0.499844 -0.655525 0.641132 -0.499844 -0.655525 0.641132 -0.831632 -0.655525 -0.641132 -0.831632 -0.655525 0.894789 -0.831632 -0.655525 0.894789 -0.831632 0.655525 0.641132 -0.831632 0.655525 0.641132 -0.831632 -0.655525 -0.641132 0.831631 0.655525 -0.641132 0.831631 -0.655525 " />
							<Normal vector="-0.707083 0.000000 -0.707083 -0.707083 0.000000 0.707083 -0.577349 0.577349 0.577349 -0.577349 0.577349 -0.577349 0.000000 0.707083 -0.707083 0.000000 0.707083 0.707083 0.577349 0.577349 0.577349 0.577349 0.577349 -0.577349 0.707083 0.000000 -0.707083 0.707083 0.000000 0.707083 0.577349 -0.577349 0.577349 0.577349 -0.577349 -0.577349 0.000000 -0.707083 -0.707083 0.000000 -0.707083 0.707083 -0.577349 -0.577349 0.577349 -0.577349 -0.577349 -0.577349 0.000000 0.000000 -1.000000 0.707083 0.000000 -0.707083 0.577349 -0.577349 -0.577349 0.000000 -0.707083 -0.707083 0.000000 0.000000 1.000000 0.000000 -0.707083 0.707083 0.000000 0.707083 0.707083 -0.577349 0.577349 0.577349 0.000000 0.707083 -0.707083 0.577349 0.577349 -0.577349 0.577349 0.577349 -0.577349 0.577349 0.577349 0.577349 -0.577349 -0.577349 -0.577349 -0.577349 -0.577349 0.577349 -0.577349 0.577349 -0.577349 0.000000 0.707083 -0.707083 0.000000 0.000000 -1.000000 0.577349 0.577349 0.577349 0.000000 0.707083 0.707083 0.000000 0.000000 1.000000 0.707083 0.000000 0.707083 0.000000 -0.707083 0.707083 0.577349 -0.577349 0.577349 0.000000 -0.707083 -0.707083 0.000000 0.000000 -1.000000 0.000000 0.000000 -1.000000 0.000000 -0.707083 -0.707083 0.000000 -0.707083 -0.707083 0.577349 -0.577349 -0.577349 0.577349 -0.577349 0.577349 0.000000 -0.707083 0.707083 0.000000 -0.707083 -0.707083 0.000000 0.707083 0.707083 0.000000 0.707083 -0.707083 " />
							<TextureCoordinate point="0.0455 0.8396 0.2557 0.8396 0.2557 0.9447 0.0455 0.9447 0.0455 0.8746 0.2557 0.8746 0.2557 0.9447 0.0455 0.9447 0.0455 0.8396 0.2557 0.8396 0.2557 0.9447 0.0455 0.9447 0.0455 0.8746 0.2557 0.8746 0.2557 0.9447 0.0455 0.9447 0.1856 0.8396 0.2557 0.8396 0.2557 0.9447 0.1856 0.9447 0.1856 0.8396 0.1856 0.9447 0.1856 0.7345 0.2557 0.7345 0.1856 0.7345 0.2557 0.7345 0.0455 0.7345 0.2557 0.7345 0.0455 0.7345 0.2557 0.7345 0.0455 0.7345 0.1155 0.7345 0.1155 0.8396 0.0455 0.7345 0.1155 0.7345 0.1155 0.8396 0.0455 0.8396 0.1155 0.9447 0.0455 0.9447 0.1155 0.9447 0.7419 0.7392 0.9569 0.7392 0.9569 0.9564 0.7419 0.9564 0.0455 0.7345 0.2557 0.7345 0.2557 0.8046 0.0455 0.8046 0.2557 0.8046 0.0455 0.8046 " />
						</IndexedTriangleSet>
					</Shape>
				</Group>
			</Transform>
			<Transform DEF="smokeb4_TRANSFORM"
			           translation="0.000000 0.000000 -0.431085"
			           scale="2.090451 2.090451 2.090451"
			           rotation="0.000000 1.000000 0.000000 0.000000"
			           >
				<Transform DEF="smokeb4_ifs_TRANSFORM"
				           translation="0.000000 0.000000 -0.000000"
				           scale="1.000000 1.000000 1.000000"
				           rotation="0.000000 1.000000 0.000000 0.000000"
				           >
					<Group DEF="group_ME_smokeb4">
						<Shape>
							<Appearance>
								<Material DEF="MA_Smoke"
								          diffuseColor="0.800 0.800 0.800"
								          specularColor="0.401 0.401 0.401"
								          emissiveColor="0.000 0.000 0.000"
								          ambientIntensity="0.000"
								          shininess="0.500"
								          transparency="0.0"
								          />
							</Appearance>
							<IndexedTriangleSet solid="false"
							                    normalPerVertex="true"
							                    index="0 1 2 0 2 3 4 5 6 4 6 7 8 9 10 8 10 11 12 13 14 12 14 15 4 16 17 4 17 15 18 5 14 18 14 19 "
							                    >
								<Coordinate point="-0.877209 -0.877209 -0.877209 -0.877209 -0.877209 0.877209 -0.877209 0.877209 0.877209 -0.877209 0.877209 -0.877209 -0.877209 0.877209 -0.877209 -0.877209 0.877209 0.877209 0.877209 0.877209 0.877209 0.877209 0.877209 -0.877209 0.877209 0.877209 -0.877209 0.877209 0.877209 0.877209 0.877209 -0.877209 0.877209 0.877209 -0.877209 -0.877209 0.877209 -0.877209 -0.877209 0.877209 -0.877209 0.877209 -0.877209 -0.877209 0.877209 -0.877209 -0.877209 -0.877209 0.877209 0.877209 -0.877209 0.877209 -0.877209 -0.877209 0.877209 0.877209 0.877209 0.877209 -0.877209 0.877209 " />
								<Normal vector="-0.577349 -0.577349 -0.577349 -0.577349 -0.577349 0.577349 -0.577349 0.577349 0.577349 -0.577349 0.577349 -0.577349 -0.577349 0.577349 -0.577349 -0.577349 0.577349 0.577349 0.577349 0.577349 0.577349 0.577349 0.577349 -0.577349 0.577349 0.577349 -0.577349 0.577349 0.577349 0.577349 0.577349 -0.577349 0.577349 0.577349 -0.577349 -0.577349 0.577349 -0.577349 -0.577349 0.577349 -0.577349 0.577349 -0.577349 -0.577349 0.577349 -0.577349 -0.577349 -0.577349 0.577349 0.577349 -0.577349 0.577349 -0.577349 -0.577349 0.577349 0.577349 0.577349 0.577349 -0.577349 0.577349 " />
								<TextureCoordinate point="0.3517 0.3517 0.6483 0.3517 0.6483 0.6483 0.3517 0.6483 0.3517 0.3517 0.6483 0.3517 0.6483 0.6483 0.3517 0.6483 0.3517 0.3517 0.6483 0.3517 0.6483 0.6483 0.3517 0.6483 0.3517 0.3517 0.6483 0.3517 0.6483 0.6483 0.3517 0.6483 0.6483 0.3517 0.6483 0.6483 0.3517 0.3517 0.3517 0.6483 " />
							</IndexedTriangleSet>
						</Shape>
					</Group>
				</Transform>
			</Transform>
			<Transform DEF="smokeb3_TRANSFORM"
			           translation="0.000000 0.000000 -0.431085"
			           scale="2.317753 2.317753 2.317753"
			           rotation="0.000000 1.000000 0.000000 0.000000"
			           >
				<Transform DEF="smokeb3_ifs_TRANSFORM"
				           translation="0.000000 0.000000 0.000000"
				           scale="1.000000 1.000000 1.000000"
				           rotation="0.000000 1.000000 0.000000 0.000000"
				           >
					<Group DEF="group_ME_smokeb3">
						<Shape>
							<Appearance>
								<Material USE="MA_Smoke" />
							</Appearance>
							<IndexedTriangleSet solid="false"
							                    normalPerVertex="true"
							                    index="0 1 2 0 2 3 4 5 6 4 6 7 8 9 10 8 10 11 12 13 14 12 14 15 4 16 17 4 17 15 18 5 14 18 14 19 "
							                    >
								<Coordinate point="-0.877209 -0.877209 -0.877209 -0.877209 -0.877209 0.877209 -0.877209 0.877209 0.877209 -0.877209 0.877209 -0.877209 -0.877209 0.877209 -0.877209 -0.877209 0.877209 0.877209 0.877209 0.877209 0.877209 0.877209 0.877209 -0.877209 0.877209 0.877209 -0.877209 0.877209 0.877209 0.877209 0.877209 -0.877209 0.877209 0.877209 -0.877209 -0.877209 0.877209 -0.877209 -0.877209 0.877209 -0.877209 0.877209 -0.877209 -0.877209 0.877209 -0.877209 -0.877209 -0.877209 0.877209 0.877209 -0.877209 0.877209 -0.877209 -0.877209 0.877209 0.877209 0.877209 0.877209 -0.877209 0.877209 " />
								<Normal vector="-0.577349 -0.577349 -0.577349 -0.577349 -0.577349 0.577349 -0.577349 0.577349 0.577349 -0.577349 0.577349 -0.577349 -0.577349 0.577349 -0.577349 -0.577349 0.577349 0.577349 0.577349 0.577349 0.577349 0.577349 0.577349 -0.577349 0.577349 0.577349 -0.577349 0.577349 0.577349 0.577349 0.577349 -0.577349 0.577349 0.577349 -0.577349 -0.577349 0.577349 -0.577349 -0.577349 0.577349 -0.577349 0.577349 -0.577349 -0.577349 0.577349 -0.577349 -0.577349 -0.577349 0.577349 0.577349 -0.577349 0.577349 -0.577349 -0.577349 0.577349 0.577349 0.577349 0.577349 -0.577349 0.577349 " />
								<TextureCoordinate point="0.3517 0.3517 0.6483 0.3517 0.6483 0.6483 0.3517 0.6483 0.3517 0.3517 0.6483 0.3517 0.6483 0.6483 0.3517 0.6483 0.3517 0.3517 0.6483 0.3517 0.6483 0.6483 0.3517 0.6483 0.3517 0.3517 0.6483 0.3517 0.6483 0.6483 0.3517 0.6483 0.6483 0.3517 0.6483 0.6483 0.3517 0.3517 0.3517 0.6483 " />
							</IndexedTriangleSet>
						</Shape>
					</Group>
				</Transform>
			</Transform>
			<Transform DEF="smokeb2_TRANSFORM"
			           translation="0.000000 0.000000 -0.431085"
			           scale="3.161238 3.161238 3.161238"
			           rotation="0.000000 1.000000 0.000000 0.000000"
			           >
				<Transform DEF="smokeb2_ifs_TRANSFORM"
				           translation="0.000000 0.000000 -0.000000"
				           scale="1.000000 1.000000 1.000000"
				           rotation="0.000000 1.000000 0.000000 0.000000"
				           >
					<Group DEF="group_ME_smokeb2">
						<Shape>
							<Appearance>
								<Material USE="MA_Smoke" />
							</Appearance>
							<IndexedTriangleSet solid="false"
							                    normalPerVertex="true"
							                    index="0 1 2 0 2 3 4 5 6 4 6 7 8 9 10 8 10 11 12 13 14 12 14 15 4 16 17 4 17 15 18 5 14 18 14 19 "
							                    >
								<Coordinate point="-0.688360 -0.688360 -0.688360 -0.688360 -0.688360 0.688360 -0.688360 0.688360 0.688360 -0.688360 0.688360 -0.688360 -0.688360 0.688360 -0.688360 -0.688360 0.688360 0.688360 0.688360 0.688360 0.688360 0.688360 0.688360 -0.688360 0.688360 0.688360 -0.688360 0.688360 0.688360 0.688360 0.688360 -0.688360 0.688360 0.688360 -0.688360 -0.688360 0.688360 -0.688360 -0.688360 0.688360 -0.688360 0.688360 -0.688360 -0.688360 0.688360 -0.688360 -0.688360 -0.688360 0.688360 0.688360 -0.688360 0.688360 -0.688360 -0.688360 0.688360 0.688360 0.688360 0.688360 -0.688360 0.688360 " />
								<Normal vector="-0.577349 -0.577349 -0.577349 -0.577349 -0.577349 0.577349 -0.577349 0.577349 0.577349 -0.577349 0.577349 -0.577349 -0.577349 0.577349 -0.577349 -0.577349 0.577349 0.577349 0.577349 0.577349 0.577349 0.577349 0.577349 -0.577349 0.577349 0.577349 -0.577349 0.577349 0.577349 0.577349 0.577349 -0.577349 0.577349 0.577349 -0.577349 -0.577349 0.577349 -0.577349 -0.577349 0.577349 -0.577349 0.577349 -0.577349 -0.577349 0.577349 -0.577349 -0.577349 -0.577349 0.577349 0.577349 -0.577349 0.577349 -0.577349 -0.577349 0.577349 0.577349 0.577349 0.577349 -0.577349 0.577349 " />
								<TextureCoordinate point="0.3092 0.3092 0.6908 0.3092 0.6908 0.6908 0.3092 0.6908 0.3092 0.3092 0.6908 0.3092 0.6908 0.6908 0.3092 0.6908 0.3092 0.3092 0.6908 0.3092 0.6908 0.6908 0.3092 0.6908 0.3092 0.3092 0.6908 0.3092 0.6908 0.6908 0.3092 0.6908 0.6908 0.3092 0.6908 0.6908 0.3092 0.3092 0.3092 0.6908 " />
							</IndexedTriangleSet>
						</Shape>
					</Group>
				</Transform>
			</Transform>
			<Transform DEF="smokeb1_TRANSFORM"
			           translation="0.000000 0.000000 -0.431085"
			           scale="2.739905 2.739905 2.739905"
			           rotation="0.000000 1.000000 0.000000 0.000000"
			           >
				<Transform DEF="smokeb1_ifs_TRANSFORM"
				           translation="0.000000 0.000000 0.000000"
				           scale="1.000000 1.000000 1.000000"
				           rotation="0.000000 1.000000 0.000000 0.000000"
				           >
					<Group DEF="group_ME_smokeb1">
						<Shape>
							<Appearance>
								<Material USE="MA_Smoke" />
							</Appearance>
							<IndexedTriangleSet solid="false"
							                    normalPerVertex="true"
							                    index="0 1 2 0 2 3 4 5 6 4 6 7 8 9 10 8 10 11 12 13 14 12 14 15 4 16 17 4 17 15 18 5 14 18 14 19 "
							                    >
								<Coordinate point="-0.877209 -0.877209 -0.877209 -0.877209 -0.877209 0.877209 -0.877209 0.877209 0.877209 -0.877209 0.877209 -0.877209 -0.877209 0.877209 -0.877209 -0.877209 0.877209 0.877209 0.877209 0.877209 0.877209 0.877209 0.877209 -0.877209 0.877209 0.877209 -0.877209 0.877209 0.877209 0.877209 0.877209 -0.877209 0.877209 0.877209 -0.877209 -0.877209 0.877209 -0.877209 -0.877209 0.877209 -0.877209 0.877209 -0.877209 -0.877209 0.877209 -0.877209 -0.877209 -0.877209 0.877209 0.877209 -0.877209 0.877209 -0.877209 -0.877209 0.877209 0.877209 0.877209 0.877209 -0.877209 0.877209 " />
								<Normal vector="-0.577349 -0.577349 -0.577349 -0.577349 -0.577349 0.577349 -0.577349 0.577349 0.577349 -0.577349 0.577349 -0.577349 -0.577349 0.577349 -0.577349 -0.577349 0.577349 0.577349 0.577349 0.577349 0.577349 0.577349 0.577349 -0.577349 0.577349 0.577349 -0.577349 0.577349 0.577349 0.577349 0.577349 -0.577349 0.577349 0.577349 -0.577349 -0.577349 0.577349 -0.577349 -0.577349 0.577349 -0.577349 0.577349 -0.577349 -0.577349 0.577349 -0.577349 -0.577349 -0.577349 0.577349 0.577349 -0.577349 0.577349 -0.577349 -0.577349 0.577349 0.577349 0.577349 0.577349 -0.577349 0.577349 " />
								<TextureCoordinate point="0.3517 0.3517 0.6483 0.3517 0.6483 0.6483 0.3517 0.6483 0.3517 0.3517 0.6483 0.3517 0.6483 0.6483 0.3517 0.6483 0.3517 0.3517 0.6483 0.3517 0.6483 0.6483 0.3517 0.6483 0.3517 0.3517 0.6483 0.3517 0.6483 0.6483 0.3517 0.6483 0.6483 0.3517 0.6483 0.6483 0.3517 0.3517 0.3517 0.6483 " />
							</IndexedTriangleSet>
						</Shape>
					</Group>
				</Transform>
			</Transform>
			<Transform DEF="Cube_001_TRANSFORM"
			           translation="0.000000 0.099928 -1.101447"
			           scale="1.000000 1.000000 1.000000"
			           rotation="0.000000 1.000000 0.000000 0.000000"
			           >
				<Transform DEF="Cube_001_ifs_TRANSFORM"
				           translation="0.000000 0.000000 0.000000"
				           scale="1.000000 1.000000 1.000000"
				           rotation="0.000000 1.000000 0.000000 0.000000"
				           >
					<Group DEF="group_ME_Cube_009">
						<Shape>
							<Appearance>
								<Material USE="MA_Body" />
							</Appearance>
							<IndexedTriangleSet solid="false"
							                    normalPerVertex="true"
							                    index="0 1 2 0 2 3 4 5 6 4 6 7 8 9 10 8 10 11 12 13 14 12 14 15 16 17 18 16 18 19 20 21 14 20 14 22 23 24 25 23 25 26 27 28 29 27 29 30 16 31 32 16 32 33 34 35 36 34 36 37 38 39 40 38 40 41 42 43 44 42 44 45 46 47 48 46 48 19 49 50 51 49 51 52 53 5 54 53 54 55 56 57 58 56 58 59 38 60 61 38 61 26 42 62 63 42 63 52 64 65 54 64 54 66 67 68 69 67 69 70 71 21 72 71 72 73 74 57 75 74 75 76 "
							                    >
								<Coordinate point="-0.755810 -0.645006 0.302109 -0.755810 -0.645006 0.503871 -0.755810 0.645006 0.503871 -0.755810 0.645006 0.302109 0.613759 0.645006 0.302109 0.613759 0.645006 0.503871 0.755810 0.645006 0.503871 0.755810 0.645006 0.302109 0.755810 0.645006 0.302109 0.755810 0.645006 0.503871 0.755810 -0.645006 0.503871 0.755810 -0.645006 0.302109 -0.613759 -0.645006 0.302109 -0.613759 -0.645006 0.503871 -0.755810 -0.645006 0.503871 -0.755810 -0.645006 0.302109 0.613759 0.645006 -0.000000 0.755810 0.645006 0.000000 0.755810 -0.645006 0.000000 0.613759 -0.645006 -0.000000 -0.613759 0.645006 0.503871 -0.755810 0.645006 0.503871 -0.613759 -0.645006 0.503871 -0.613759 -0.645006 -0.000000 -0.613759 -0.645006 0.302109 -0.755810 -0.645006 0.302109 -0.755810 -0.645006 0.000000 0.755810 0.645006 0.000000 0.755810 0.645006 0.302109 0.755810 -0.645006 0.302109 0.755810 -0.645006 0.000000 0.613759 0.645006 0.302109 0.755810 0.645006 0.302109 0.755810 0.645006 0.000000 -0.755810 -0.645006 0.000000 -0.755810 -0.645006 0.302109 -0.755810 0.645006 0.302109 -0.755810 0.645006 0.000000 -0.755810 0.645006 0.000000 -0.755810 0.645006 0.302109 -0.613759 0.645006 0.302109 -0.613759 0.645006 -0.000000 -0.613759 0.645006 -0.000000 -0.613759 0.645006 0.302109 0.613759 0.645006 0.302109 0.613759 0.645006 -0.000000 0.755810 -0.645006 0.000000 0.755810 -0.645006 0.302109 0.613759 -0.645006 0.302109 0.613759 -0.645006 -0.000000 0.613759 -0.645006 0.302109 -0.613759 -0.645006 0.302109 -0.613759 -0.645006 -0.000000 0.755810 0.645006 0.503871 0.613759 -0.645006 0.503871 0.755810 -0.645006 0.503871 0.613759 0.645006 0.503871 -0.613759 0.645006 0.503871 -0.613759 -0.645006 0.503871 0.613759 -0.645006 0.503871 -0.613759 0.645006 -0.000000 -0.613759 -0.645006 -0.000000 0.613759 0.645006 -0.000000 0.613759 -0.645006 -0.000000 0.755810 -0.645006 0.302109 0.755810 -0.645006 0.503871 0.613759 -0.645006 0.302109 0.613759 -0.645006 0.302109 0.613759 -0.645006 0.503871 -0.613759 -0.645006 0.503871 -0.613759 -0.645006 0.302109 -0.755810 0.645006 0.302109 -0.613759 0.645006 0.503871 -0.613759 0.645006 0.302109 -0.613759 0.645006 0.302109 0.613759 0.645006 0.503871 0.613759 0.645006 0.302109 " />
								<Normal vector="-0.707083 -0.707083 0.000000 -0.577349 -0.577349 0.577349 -0.577349 0.577349 0.577349 -0.707083 0.707083 0.000000 0.000000 1.000000 0.000000 0.000000 0.707083 0.707083 0.577349 0.577349 0.577349 0.707083 0.707083 0.000000 0.707083 0.707083 0.000000 0.577349 0.577349 0.577349 0.577349 -0.577349 0.577349 0.707083 -0.707083 0.000000 0.000000 -1.000000 0.000000 0.000000 -0.707083 0.707083 -0.577349 -0.577349 0.577349 -0.707083 -0.707083 0.000000 0.000000 0.707083 -0.707083 0.577349 0.577349 -0.577349 0.577349 -0.577349 -0.577349 0.000000 -0.707083 -0.707083 0.000000 0.707083 0.707083 -0.577349 0.577349 0.577349 0.000000 -0.707083 0.707083 0.000000 -0.707083 -0.707083 0.000000 -1.000000 0.000000 -0.707083 -0.707083 0.000000 -0.577349 -0.577349 -0.577349 0.577349 0.577349 -0.577349 0.707083 0.707083 0.000000 0.707083 -0.707083 0.000000 0.577349 -0.577349 -0.577349 0.000000 1.000000 0.000000 0.707083 0.707083 0.000000 0.577349 0.577349 -0.577349 -0.577349 -0.577349 -0.577349 -0.707083 -0.707083 0.000000 -0.707083 0.707083 0.000000 -0.577349 0.577349 -0.577349 -0.577349 0.577349 -0.577349 -0.707083 0.707083 0.000000 0.000000 1.000000 0.000000 0.000000 0.707083 -0.707083 0.000000 0.707083 -0.707083 0.000000 1.000000 0.000000 0.000000 1.000000 0.000000 0.000000 0.707083 -0.707083 0.577349 -0.577349 -0.577349 0.707083 -0.707083 0.000000 0.000000 -1.000000 0.000000 0.000000 -0.707083 -0.707083 0.000000 -1.000000 0.000000 0.000000 -1.000000 0.000000 0.000000 -0.707083 -0.707083 0.577349 0.577349 0.577349 0.000000 -0.707083 0.707083 0.577349 -0.577349 0.577349 0.000000 0.707083 0.707083 0.000000 0.707083 0.707083 0.000000 -0.707083 0.707083 0.000000 -0.707083 0.707083 0.000000 0.707083 -0.707083 0.000000 -0.707083 -0.707083 0.000000 0.707083 -0.707083 0.000000 -0.707083 -0.707083 0.707083 -0.707083 0.000000 0.577349 -0.577349 0.577349 0.000000 -1.000000 0.000000 0.000000 -1.000000 0.000000 0.000000 -0.707083 0.707083 0.000000 -0.707083 0.707083 0.000000 -1.000000 0.000000 -0.707083 0.707083 0.000000 0.000000 0.707083 0.707083 0.000000 1.000000 0.000000 0.000000 1.000000 0.000000 0.000000 0.707083 0.707083 0.000000 1.000000 0.000000 " />
								<TextureCoordinate point="0.0455 0.7345 0.2557 0.7345 0.2557 0.9447 0.0455 0.9447 0.0455 0.7345 0.2557 0.7345 0.2557 0.9447 0.0455 0.9447 0.0455 0.7345 0.2557 0.7345 0.2557 0.9447 0.0455 0.9447 0.0455 0.7345 0.2557 0.7345 0.2557 0.9447 0.0455 0.9447 0.0455 0.7345 0.2557 0.7345 0.2557 0.9447 0.0455 0.9447 0.0455 0.7345 0.2557 0.7345 0.0455 0.9447 0.0455 0.7345 0.2557 0.7345 0.2557 0.9447 0.0455 0.9447 0.0455 0.7345 0.2557 0.7345 0.2557 0.9447 0.0455 0.9447 0.2557 0.7345 0.2557 0.9447 0.0455 0.9447 0.0455 0.7345 0.2557 0.7345 0.2557 0.9447 0.0455 0.9447 0.0455 0.7345 0.2557 0.7345 0.2557 0.9447 0.0455 0.9447 0.0455 0.7345 0.2557 0.7345 0.2557 0.9447 0.0455 0.9447 0.0455 0.7345 0.2557 0.7345 0.2557 0.9447 0.0455 0.7345 0.2557 0.7345 0.2557 0.9447 0.0455 0.9447 0.0455 0.7345 0.2557 0.9447 0.0455 0.9447 0.0455 0.7345 0.2557 0.7345 0.2557 0.9447 0.0455 0.9447 0.2557 0.7345 0.2557 0.9447 0.2557 0.7345 0.2557 0.9447 0.0455 0.7345 0.2557 0.7345 0.0455 0.9447 0.7247 0.7640 0.9348 0.7640 0.9348 0.9742 0.7247 0.9742 0.0455 0.7345 0.2557 0.9447 0.0455 0.9447 0.0455 0.7345 0.2557 0.9447 0.0455 0.9447 " />
							</IndexedTriangleSet>
						</Shape>
					</Group>
				</Transform>
			</Transform>
			<Transform DEF="Cube_002_TRANSFORM"
			           translation="0.514928 -0.605813 -0.636158"
			           scale="1.000000 1.000000 1.000000"
			           rotation="0.000000 1.000000 0.000000 0.000000"
			           >
				<Transform DEF="Cube_002_ifs_TRANSFORM"
				           translation="0.000000 0.000000 0.000000"
				           scale="1.000000 1.000000 1.000000"
				           rotation="0.000000 1.000000 0.000000 0.000000"
				           >
					<Group DEF="group_ME_Cube_011">
						<Shape>
							<Appearance>
								<Material USE="MA_Body" />
							</Appearance>
							<IndexedTriangleSet solid="false"
							                    normalPerVertex="true"
							                    index="0 1 2 0 2 3 4 5 6 4 6 7 8 9 10 8 10 11 12 13 14 12 14 15 4 13 16 4 16 17 18 19 14 18 14 7 "
							                    >
								<Coordinate point="-0.049155 0.039549 0.000000 -0.049155 -0.039549 -0.000000 -0.049155 -0.039549 -0.164428 -0.049155 0.039549 -0.164428 -0.049155 -0.039549 -0.000000 0.049155 -0.039549 -0.000000 0.049155 -0.039549 -0.164428 -0.049155 -0.039549 -0.164428 0.049155 -0.039549 -0.000000 0.049155 0.039549 0.000000 0.049155 0.039549 -0.164428 0.049155 -0.039549 -0.164428 0.049155 0.039549 0.000000 -0.049155 0.039549 0.000000 -0.049155 0.039549 -0.164428 0.049155 0.039549 -0.164428 0.049155 0.039549 0.000000 0.049155 -0.039549 -0.000000 0.049155 -0.039549 -0.164428 0.049155 0.039549 -0.164428 " />
								<Normal vector="0.577349 -0.577349 -0.577349 0.577349 0.577349 -0.577349 0.577349 0.577349 0.577349 0.577349 -0.577349 0.577349 0.577349 0.577349 -0.577349 -0.577349 0.577349 -0.577349 -0.577349 0.577349 0.577349 0.577349 0.577349 0.577349 -0.577349 0.577349 -0.577349 -0.577349 -0.577349 -0.577349 -0.577349 -0.577349 0.577349 -0.577349 0.577349 0.577349 -0.577349 -0.577349 -0.577349 0.577349 -0.577349 -0.577349 0.577349 -0.577349 0.577349 -0.577349 -0.577349 0.577349 -0.577349 -0.577349 -0.577349 -0.577349 0.577349 -0.577349 -0.577349 0.577349 0.577349 -0.577349 -0.577349 0.577349 " />
								<TextureCoordinate point="0.7296 0.0553 0.7296 0.2655 0.9398 0.2655 0.9398 0.0553 0.7296 0.0553 0.7296 0.2655 0.9398 0.2655 0.9398 0.0553 0.7296 0.0553 0.7296 0.2655 0.9398 0.2655 0.9398 0.0553 0.7296 0.0553 0.7296 0.2655 0.9398 0.2655 0.9398 0.0553 0.9398 0.2655 0.9398 0.0553 0.7296 0.0553 0.7296 0.2655 " />
							</IndexedTriangleSet>
						</Shape>
					</Group>
				</Transform>
			</Transform>
			<Transform DEF="mouth_TRANSFORM"
			           translation="0.000000 -0.400336 -1.000894"
			           scale="1.000000 1.000000 1.000000"
			           rotation="0.000000 1.000000 0.000000 0.000000"
			           >
				<Transform DEF="mouth_ifs_TRANSFORM"
				           translation="0.000000 0.000000 0.000000"
				           scale="1.000000 1.000000 1.000000"
				           rotation="0.000000 1.000000 0.000000 0.000000"
				           >
					<Group DEF="group_ME_mouth">
						<Shape>
							<Appearance>
								<Material USE="MA_Body" />
							</Appearance>
							<IndexedTriangleSet solid="false"
							                    normalPerVertex="true"
							                    index="0 1 2 0 2 3 4 5 6 4 6 7 8 9 10 8 10 11 12 13 14 12 14 15 4 16 17 4 17 15 18 19 20 18 20 21 "
							                    >
								<Coordinate point="-0.660503 -0.123055 -0.084017 -0.660503 -0.293159 0.165125 -0.660503 -0.047049 0.333159 -0.660503 0.123055 0.084017 -0.660503 0.123055 0.084017 -0.660503 -0.047049 0.333159 0.660503 -0.047049 0.333159 0.660503 0.123055 0.084017 0.660503 0.123055 0.084017 0.660503 -0.047049 0.333159 0.660503 -0.293159 0.165125 0.660503 -0.123055 -0.084017 0.660503 -0.123055 -0.084017 0.660503 -0.293159 0.165125 -0.660503 -0.293159 0.165125 -0.660503 -0.123055 -0.084017 0.660503 0.123055 0.084017 0.660503 -0.123055 -0.084017 0.660503 -0.047049 0.333159 -0.660503 -0.047049 0.333159 -0.660503 -0.293159 0.165125 0.660503 -0.293159 0.165125 " />
								<Normal vector="-0.577349 -0.151250 -0.802362 -0.577349 -0.802362 0.151250 -0.577349 0.151250 0.802362 -0.577349 0.802362 -0.151250 -0.577349 0.802362 -0.151250 -0.577349 0.151250 0.802362 0.577349 0.151250 0.802362 0.577349 0.802362 -0.151250 0.577349 0.802362 -0.151250 0.577349 0.151250 0.802362 0.577349 -0.802362 0.151250 0.577349 -0.151250 -0.802362 0.577349 -0.151250 -0.802362 0.577349 -0.802362 0.151250 -0.577349 -0.802362 0.151250 -0.577349 -0.151250 -0.802362 0.577349 0.802362 -0.151250 0.577349 -0.151250 -0.802362 0.577349 0.151250 0.802362 -0.577349 0.151250 0.802362 -0.577349 -0.802362 0.151250 0.577349 -0.802362 0.151250 " />
								<TextureCoordinate point="0.0455 0.7345 0.2557 0.7345 0.2557 0.9447 0.0455 0.9447 0.0455 0.7345 0.2557 0.7345 0.2557 0.9447 0.0455 0.9447 0.0455 0.7345 0.2557 0.7345 0.2557 0.9447 0.0455 0.9447 0.0455 0.7345 0.2557 0.7345 0.2557 0.9447 0.0455 0.9447 0.2557 0.7345 0.2557 0.9447 0.0455 0.0406 0.2557 0.0406 0.2557 0.2507 0.0455 0.2507 " />
							</IndexedTriangleSet>
						</Shape>
					</Group>
				</Transform>
			</Transform>
			<Transform DEF="Plane_TRANSFORM"
			           translation="0.000000 -0.911666 -0.184109"
			           scale="1.000000 1.000000 1.000000"
			           rotation="0.000000 1.000000 0.000000 0.000000"
			           >
				<Transform DEF="Plane_ifs_TRANSFORM"
				           translation="0.000000 0.000000 0.000000"
				           scale="1.000000 1.000000 1.000000"
				           rotation="0.000000 1.000000 0.000000 0.000000"
				           >
					<Group DEF="group_ME_Plane">
						<Shape>
							<Appearance>
								<Material DEF="MA_Eye"
								          diffuseColor="0.800 0.800 0.800"
								          specularColor="0.401 0.401 0.401"
								          emissiveColor="0.000 0.000 0.000"
								          ambientIntensity="0.000"
								          shininess="0.500"
								          transparency="0.0"
								          />
							</Appearance>
							<IndexedTriangleSet solid="false"
							                    normalPerVertex="true"
							                    index="0 1 2 0 2 3 "
							                    >
								<Coordinate point="0.115652 -0.041135 -0.395826 1.242176 0.131790 -0.395826 1.242176 0.131790 0.768805 0.115652 -0.041135 0.768805 " />
								<Normal vector="0.151708 -0.988403 0.000000 0.151708 -0.988403 0.000000 0.151708 -0.988403 0.000000 0.151708 -0.988403 0.000000 " />
								<TextureCoordinate point="0.0000 0.5158 1.0000 0.5158 1.0000 0.9960 0.0000 0.9960 " />
							</IndexedTriangleSet>
						</Shape>
					</Group>
				</Transform>
			</Transform>
			<Transform DEF="Cube_003_TRANSFORM"
			           translation="-0.514928 -0.605813 -0.636158"
			           scale="1.000000 1.000000 1.000000"
			           rotation="0.000000 1.000000 0.000000 0.000000"
			           >
				<Transform DEF="Cube_003_ifs_TRANSFORM"
				           translation="0.000000 0.000000 0.000000"
				           scale="1.000000 1.000000 1.000000"
				           rotation="0.000000 1.000000 0.000000 0.000000"
				           >
					<Group DEF="group_ME_Cube_001">
						<Shape>
							<Appearance>
								<Material USE="MA_Body" />
							</Appearance>
							<IndexedTriangleSet solid="false"
							                    normalPerVertex="true"
							                    index="0 1 2 0 2 3 4 5 6 4 6 7 8 9 10 8 10 11 12 13 14 12 14 15 4 16 17 4 17 15 18 5 14 18 14 19 "
							                    >
								<Coordinate point="0.049155 0.039549 0.000000 0.049155 0.039549 -0.164428 0.049155 -0.039549 -0.164428 0.049155 -0.039549 -0.000000 0.049155 -0.039549 -0.000000 0.049155 -0.039549 -0.164428 -0.049155 -0.039549 -0.164428 -0.049155 -0.039549 -0.000000 -0.049155 -0.039549 -0.000000 -0.049155 -0.039549 -0.164428 -0.049155 0.039549 -0.164428 -0.049155 0.039549 0.000000 -0.049155 0.039549 0.000000 -0.049155 0.039549 -0.164428 0.049155 0.039549 -0.164428 0.049155 0.039549 0.000000 -0.049155 -0.039549 -0.000000 -0.049155 0.039549 0.000000 -0.049155 -0.039549 -0.164428 -0.049155 0.039549 -0.164428 " />
								<Normal vector="-0.577349 -0.577349 -0.577349 -0.577349 -0.577349 0.577349 -0.577349 0.577349 0.577349 -0.577349 0.577349 -0.577349 -0.577349 0.577349 -0.577349 -0.577349 0.577349 0.577349 0.577349 0.577349 0.577349 0.577349 0.577349 -0.577349 0.577349 0.577349 -0.577349 0.577349 0.577349 0.577349 0.577349 -0.577349 0.577349 0.577349 -0.577349 -0.577349 0.577349 -0.577349 -0.577349 0.577349 -0.577349 0.577349 -0.577349 -0.577349 0.577349 -0.577349 -0.577349 -0.577349 0.577349 0.577349 -0.577349 0.577349 -0.577349 -0.577349 0.577349 0.577349 0.577349 0.577349 -0.577349 0.577349 " />
								<TextureCoordinate point="0.7296 0.0553 0.9398 0.0553 0.9398 0.2655 0.7296 0.2655 0.7296 0.0553 0.9398 0.0553 0.9398 0.2655 0.7296 0.2655 0.7296 0.0553 0.9398 0.0553 0.9398 0.2655 0.7296 0.2655 0.7296 0.0553 0.9398 0.0553 0.9398 0.2655 0.7296 0.2655 0.9398 0.0553 0.9398 0.2655 0.7296 0.0553 0.7296 0.2655 " />
							</IndexedTriangleSet>
						</Shape>
					</Group>
				</Transform>
			</Transform>
			<Transform DEF="Plane_001_TRANSFORM"
			           translation="0.000000 -0.911666 -0.184109"
			           scale="1.000000 1.000000 1.000000"
			           rotation="0.000000 1.000000 0.000000 0.000000"
			           >
				<Transform DEF="Plane_001_ifs_TRANSFORM"
				           translation="0.000000 0.000000 0.000000"
				           scale="1.000000 1.000000 1.000000"
				           rotation="0.000000 1.000000 0.000000 0.000000"
				           >
					<Group DEF="group_ME_Plane_001">
						<Shape>
							<Appearance>
								<Material USE="MA_Eye" />
							</Appearance>
							<IndexedTriangleSet solid="false"
							                    normalPerVertex="true"
							                    index="0 1 2 0 2 3 "
							                    >
								<Coordinate point="-0.115652 -0.041135 -0.395826 -0.115652 -0.041135 0.768805 -1.242176 0.131789 0.768805 -1.242176 0.131790 -0.395826 " />
								<Normal vector="-0.151708 -0.988403 0.000000 -0.151708 -0.988403 0.000000 -0.151708 -0.988403 0.000000 -0.151708 -0.988403 0.000000 " />
								<TextureCoordinate point="0.0000 0.5158 0.0000 0.9960 1.0000 0.9960 1.0000 0.5158 " />
							</IndexedTriangleSet>
						</Shape>
					</Group>
				</Transform>
			</Transform>
		</Transform>
	</Scene>
</X3D>