<?xml version="1.0" encoding="UTF-8"?>
<!DOCTYPE X3D PUBLIC "ISO//Web3D//DTD X3D 3.0//EN" "http://www.web3d.org/specifications/x3d-3.0.dtd">
<X3D version="3.0" profile="Immersive" xmlns:xsd="http://www.w3.org/2001/XMLSchema-instance" xsd:noNamespaceSchemaLocation="http://www.web3d.org/specifications/x3d-3.0.xsd">
	<head>
		<meta name="filename" content="glimmet.x3d" />
		<meta name="generator" content="Blender 2.93.18" />
	</head>
	<Scene>
		<NavigationInfo headlight="true"
		                visibilityLimit="0.0"
		                type='"EXAMINE", "ANY"'
		                avatarSize="0.25, 1.75, 0.75"
		                />
		<Background DEF="WO_World"
		            groundColor="0.051 0.051 0.051"
		            skyColor="0.051 0.051 0.051"
		            />
		<Transform DEF="body_TRANSFORM"
		           translation="0.000000 -0.590653 0.000000"
		           scale="1.000000 1.000000 1.000000"
		           rotation="0.000000 0.000000 1.000000 3.141593"
		           >
			<Transform DEF="body_ifs_TRANSFORM"
			           translation="0.000000 0.000000 0.000000"
			           scale="1.000000 1.000000 1.000000"
			           rotation="0.000000 1.000000 0.000000 0.000000"
			           >
				<Group DEF="group_ME_body">
					<Shape>
						<Appearance>
							<Material DEF="MA_Body"
							          diffuseColor="0.800 0.800 0.800"
							          specularColor="0.401 0.401 0.401"
							          emissiveColor="0.000 0.000 0.000"
							          ambientIntensity="0.000"
							          shininess="0.500"
							          transparency="0.0"
							          />
						</Appearance>
						<IndexedTriangleSet solid="false"
						                    normalPerVertex="true"
						                    index="0 1 2 0 2 3 4 5 6 4 6 7 8 9 10 8 10 11 12 13 14 12 14 15 4 16 17 4 17 15 18 5 14 18 14 19 "
						                    >
							<Coordinate point="-0.164027 -0.333042 0.000000 0.000000 -0.333042 0.164027 0.000000 0.000000 0.164027 -0.164027 0.000000 0.000000 -0.164027 0.000000 0.000000 0.000000 0.000000 0.164027 0.164027 0.000000 0.000000 0.000000 0.000000 -0.164027 0.000000 0.000000 -0.164027 0.164027 0.000000 0.000000 0.164027 -0.333042 0.000000 0.000000 -0.333042 -0.164027 0.000000 -0.333042 -0.164027 0.164027 -0.333042 0.000000 0.000000 -0.333042 0.164027 -0.164027 -0.333042 0.000000 0.000000 0.000000 -0.164027 0.000000 -0.333042 -0.164027 0.164027 0.000000 0.000000 0.164027 -0.333042 0.000000 " />
							<Normal vector="-0.816492 -0.577349 0.000000 0.000000 -0.577349 0.816492 0.000000 0.577349 0.816492 -0.816492 0.577349 0.000000 -0.816492 0.577349 0.000000 0.000000 0.577349 0.816492 0.816492 0.577349 0.000000 0.000000 0.577349 -0.816492 0.000000 0.577349 -0.816492 0.816492 0.577349 0.000000 0.816492 -0.577349 0.000000 0.000000 -0.577349 -0.816492 0.000000 -0.577349 -0.816492 0.816492 -0.577349 0.000000 0.000000 -0.577349 0.816492 -0.816492 -0.577349 0.000000 0.000000 0.577349 -0.816492 0.000000 -0.577349 -0.816492 0.816492 0.577349 0.000000 0.816492 -0.577349 0.000000 " />
							<TextureCoordinate point="0.0239 0.3424 0.4715 0.3424 0.4715 0.5967 0.0239 0.5967 0.0239 0.3424 0.4715 0.3424 0.4715 0.5967 0.0239 0.5967 0.0239 0.3424 0.4715 0.3424 0.4715 0.5967 0.0239 0.5967 0.0239 0.3424 0.4715 0.3424 0.4715 0.5967 0.0239 0.5967 0.4715 0.3424 0.4715 0.5967 0.0239 0.3424 0.0239 0.5967 " />
						</IndexedTriangleSet>
					</Shape>
				</Group>
			</Transform>
			<Transform DEF="tail_TRANSFORM"
			           translation="0.000000 -0.011912 0.002997"
			           scale="1.000000 1.000000 1.000000"
			           rotation="0.000000 1.000000 0.000000 0.000000"
			           >
				<Transform DEF="tail_ifs_TRANSFORM"
				           translation="0.000000 0.000000 0.000000"
				           scale="1.000000 1.000000 1.000000"
				           rotation="0.000000 1.000000 0.000000 0.000000"
				           >
					<Group DEF="group_ME_tail">
						<Shape>
							<Appearance>
								<Material USE="MA_Body" />
							</Appearance>
							<IndexedTriangleSet solid="false"
							                    normalPerVertex="true"
							                    index="0 1 2 0 2 3 4 5 6 4 6 7 8 9 10 8 10 11 12 13 14 12 14 15 4 16 17 4 17 15 18 5 14 18 14 19 "
							                    >
								<Coordinate point="-0.058772 0.000000 -0.058772 -0.058772 0.000000 0.058772 -0.058772 0.525401 0.058772 -0.058772 0.525401 -0.058772 -0.058772 0.525401 -0.058772 -0.058772 0.525401 0.058772 0.058772 0.525401 0.058772 0.058772 0.525401 -0.058772 0.058772 0.525401 -0.058772 0.058772 0.525401 0.058772 0.058772 0.000000 0.058772 0.058772 0.000000 -0.058772 0.058772 0.000000 -0.058772 0.058772 0.000000 0.058772 -0.058772 0.000000 0.058772 -0.058772 0.000000 -0.058772 0.058772 0.525401 -0.058772 0.058772 0.000000 -0.058772 0.058772 0.525401 0.058772 0.058772 0.000000 0.058772 " />
								<Normal vector="-0.577349 -0.577349 -0.577349 -0.577349 -0.577349 0.577349 -0.577349 0.577349 0.577349 -0.577349 0.577349 -0.577349 -0.577349 0.577349 -0.577349 -0.577349 0.577349 0.577349 0.577349 0.577349 0.577349 0.577349 0.577349 -0.577349 0.577349 0.577349 -0.577349 0.577349 0.577349 0.577349 0.577349 -0.577349 0.577349 0.577349 -0.577349 -0.577349 0.577349 -0.577349 -0.577349 0.577349 -0.577349 0.577349 -0.577349 -0.577349 0.577349 -0.577349 -0.577349 -0.577349 0.577349 0.577349 -0.577349 0.577349 -0.577349 -0.577349 0.577349 0.577349 0.577349 0.577349 -0.577349 0.577349 " />
								<TextureCoordinate point="0.1072 0.6732 0.4006 0.6732 0.4006 0.9666 0.1072 0.9666 0.1072 0.6732 0.4006 0.6732 0.4006 0.9666 0.1072 0.9666 0.1072 0.6732 0.4006 0.6732 0.4006 0.9666 0.1072 0.9666 0.1072 0.6732 0.4006 0.6732 0.4006 0.9666 0.1072 0.9666 0.4006 0.6732 0.4006 0.9666 0.1072 0.6732 0.1072 0.9666 " />
							</IndexedTriangleSet>
						</Shape>
					</Group>
				</Transform>
				<Transform DEF="tail1_TRANSFORM"
				           translation="0.000000 0.514652 0.000000"
				           scale="1.000000 1.000000 1.000000"
				           rotation="0.000000 1.000000 0.000000 0.000000"
				           >
					<Transform DEF="tail1_ifs_TRANSFORM"
					           translation="0.000000 0.000000 0.000000"
					           scale="1.000000 1.000000 1.000000"
					           rotation="0.000000 1.000000 0.000000 0.000000"
					           >
						<Group DEF="group_ME_tail1">
							<Shape>
								<Appearance>
									<Material USE="MA_Body" />
								</Appearance>
								<IndexedTriangleSet solid="false"
								                    normalPerVertex="true"
								                    index="0 1 2 0 2 3 4 5 6 4 6 7 8 9 10 8 10 11 12 13 14 12 14 15 4 16 17 4 17 15 18 5 14 18 14 19 "
								                    >
									<Coordinate point="-0.094769 0.000000 -0.094769 -0.094769 0.000000 0.094769 -0.094769 0.669564 0.094769 -0.094769 0.669564 -0.094769 -0.094769 0.669564 -0.094769 -0.094769 0.669564 0.094769 0.094769 0.669564 0.094769 0.094769 0.669564 -0.094769 0.094769 0.669564 -0.094769 0.094769 0.669564 0.094769 0.094769 0.000000 0.094769 0.094769 0.000000 -0.094769 0.094769 0.000000 -0.094769 0.094769 0.000000 0.094769 -0.094769 0.000000 0.094769 -0.094769 0.000000 -0.094769 0.094769 0.669564 -0.094769 0.094769 0.000000 -0.094769 0.094769 0.669564 0.094769 0.094769 0.000000 0.094769 " />
									<Normal vector="-0.577349 -0.577349 -0.577349 -0.577349 -0.577349 0.577349 -0.577349 0.577349 0.577349 -0.577349 0.577349 -0.577349 -0.577349 0.577349 -0.577349 -0.577349 0.577349 0.577349 0.577349 0.577349 0.577349 0.577349 0.577349 -0.577349 0.577349 0.577349 -0.577349 0.577349 0.577349 0.577349 0.577349 -0.577349 0.577349 0.577349 -0.577349 -0.577349 0.577349 -0.577349 -0.577349 0.577349 -0.577349 0.577349 -0.577349 -0.577349 0.577349 -0.577349 -0.577349 -0.577349 0.577349 0.577349 -0.577349 0.577349 -0.577349 -0.577349 0.577349 0.577349 0.577349 0.577349 -0.577349 0.577349 " />
									<TextureCoordinate point="0.1072 0.6732 0.4006 0.6732 0.4006 0.9666 0.1072 0.9666 0.1072 0.6732 0.4006 0.6732 0.4006 0.9666 0.1072 0.9666 0.1072 0.6732 0.4006 0.6732 0.4006 0.9666 0.1072 0.9666 0.1072 0.6732 0.4006 0.6732 0.4006 0.9666 0.1072 0.9666 0.4006 0.6732 0.4006 0.9666 0.1072 0.6732 0.1072 0.9666 " />
								</IndexedTriangleSet>
							</Shape>
						</Group>
					</Transform>
					<Transform DEF="tail2_TRANSFORM"
					           translation="0.000000 0.574322 0.000000"
					           scale="1.000000 1.000000 1.000000"
					           rotation="0.000000 1.000000 0.000000 0.000000"
					           >
						<Transform DEF="tail2_ifs_TRANSFORM"
						           translation="0.000000 0.000000 0.000000"
						           scale="1.000000 1.000000 1.000000"
						           rotation="0.000000 1.000000 0.000000 0.000000"
						           >
							<Group DEF="group_ME_tail2">
								<Shape>
									<Appearance>
										<Material USE="MA_Body" />
									</Appearance>
									<IndexedTriangleSet solid="false"
									                    normalPerVertex="true"
									                    index="0 1 2 0 2 3 4 5 6 4 6 7 8 9 10 8 10 11 12 13 14 12 14 15 4 16 17 4 17 15 18 5 14 18 14 19 "
									                    >
										<Coordinate point="-0.150691 0.000000 -0.150691 -0.150691 0.000000 0.150691 -0.150691 0.748264 0.150691 -0.150691 0.748264 -0.150691 -0.150691 0.748264 -0.150691 -0.150691 0.748264 0.150691 0.150691 0.748264 0.150691 0.150691 0.748264 -0.150691 0.150691 0.748264 -0.150691 0.150691 0.748264 0.150691 0.150691 0.000000 0.150691 0.150691 0.000000 -0.150691 0.150691 0.000000 -0.150691 0.150691 0.000000 0.150691 -0.150691 0.000000 0.150691 -0.150691 0.000000 -0.150691 0.150691 0.748264 -0.150691 0.150691 0.000000 -0.150691 0.150691 0.748264 0.150691 0.150691 0.000000 0.150691 " />
										<Normal vector="-0.577349 -0.577349 -0.577349 -0.577349 -0.577349 0.577349 -0.577349 0.577349 0.577349 -0.577349 0.577349 -0.577349 -0.577349 0.577349 -0.577349 -0.577349 0.577349 0.577349 0.577349 0.577349 0.577349 0.577349 0.577349 -0.577349 0.577349 0.577349 -0.577349 0.577349 0.577349 0.577349 0.577349 -0.577349 0.577349 0.577349 -0.577349 -0.577349 0.577349 -0.577349 -0.577349 0.577349 -0.577349 0.577349 -0.577349 -0.577349 0.577349 -0.577349 -0.577349 -0.577349 0.577349 0.577349 -0.577349 0.577349 -0.577349 -0.577349 0.577349 0.577349 0.577349 0.577349 -0.577349 0.577349 " />
										<TextureCoordinate point="0.1072 0.6732 0.4006 0.6732 0.4006 0.9666 0.1072 0.9666 0.1072 0.6732 0.4006 0.6732 0.4006 0.9666 0.1072 0.9666 0.1072 0.6732 0.4006 0.6732 0.4006 0.9666 0.1072 0.9666 0.1072 0.6732 0.4006 0.6732 0.4006 0.9666 0.1072 0.9666 0.4006 0.6732 0.4006 0.9666 0.1072 0.6732 0.1072 0.9666 " />
									</IndexedTriangleSet>
								</Shape>
							</Group>
						</Transform>
						<Transform DEF="tail3_TRANSFORM"
						           translation="0.000000 0.633991 0.000000"
						           scale="1.000000 1.000000 1.000000"
						           rotation="0.000000 1.000000 0.000000 0.000000"
						           >
							<Transform DEF="tail3_ifs_TRANSFORM"
							           translation="0.000000 0.000000 0.000000"
							           scale="1.000000 1.000000 1.000000"
							           rotation="0.000000 1.000000 0.000000 0.000000"
							           >
								<Group DEF="group_ME_tail3">
									<Shape>
										<Appearance>
											<Material USE="MA_Body" />
										</Appearance>
										<IndexedTriangleSet solid="false"
										                    normalPerVertex="true"
										                    index="0 1 2 0 2 3 4 5 6 4 6 7 8 9 10 8 10 11 12 13 14 12 14 15 4 16 17 4 17 15 18 5 14 18 14 19 "
										                    >
											<Coordinate point="-0.281122 0.000000 -0.251948 -0.281122 0.000000 0.251948 -0.281122 0.658914 0.251948 -0.281122 0.658914 -0.251948 -0.281122 0.658914 -0.251948 -0.281122 0.658914 0.251948 0.281122 0.658914 0.251948 0.281122 0.658914 -0.251948 0.281122 0.658914 -0.251948 0.281122 0.658914 0.251948 0.281122 0.000000 0.251948 0.281122 0.000000 -0.251948 0.281122 0.000000 -0.251948 0.281122 0.000000 0.251948 -0.281122 0.000000 0.251948 -0.281122 0.000000 -0.251948 0.281122 0.658914 -0.251948 0.281122 0.000000 -0.251948 0.281122 0.658914 0.251948 0.281122 0.000000 0.251948 " />
											<Normal vector="-0.577349 -0.577349 -0.577349 -0.577349 -0.577349 0.577349 -0.577349 0.577349 0.577349 -0.577349 0.577349 -0.577349 -0.577349 0.577349 -0.577349 -0.577349 0.577349 0.577349 0.577349 0.577349 0.577349 0.577349 0.577349 -0.577349 0.577349 0.577349 -0.577349 0.577349 0.577349 0.577349 0.577349 -0.577349 0.577349 0.577349 -0.577349 -0.577349 0.577349 -0.577349 -0.577349 0.577349 -0.577349 0.577349 -0.577349 -0.577349 0.577349 -0.577349 -0.577349 -0.577349 0.577349 0.577349 -0.577349 0.577349 -0.577349 -0.577349 0.577349 0.577349 0.577349 0.577349 -0.577349 0.577349 " />
											<TextureCoordinate point="0.1072 0.6732 0.4006 0.6732 0.4006 0.9666 0.1072 0.9666 0.1072 0.6732 0.4006 0.6732 0.4006 0.9666 0.1072 0.9666 0.1072 0.6732 0.4006 0.6732 0.4006 0.9666 0.1072 0.9666 0.1072 0.6732 0.4006 0.6732 0.4006 0.9666 0.1072 0.9666 0.4006 0.6732 0.4006 0.9666 0.1072 0.6732 0.1072 0.9666 " />
										</IndexedTriangleSet>
									</Shape>
								</Group>
							</Transform>
							<Transform DEF="tail4_TRANSFORM"
							           translation="0.000000 0.626533 0.000000"
							           scale="1.000000 1.000000 1.000000"
							           rotation="0.000000 1.000000 0.000000 0.000000"
							           >
								<Transform DEF="tail4_ifs_TRANSFORM"
								           translation="0.000000 0.000000 0.000000"
								           scale="1.000000 1.000000 1.000000"
								           rotation="0.000000 1.000000 0.000000 0.000000"
								           >
									<Group DEF="group_ME_tail4">
										<Shape>
											<Appearance>
												<Material USE="MA_Body" />
											</Appearance>
											<IndexedTriangleSet solid="false"
											                    normalPerVertex="true"
											                    index="0 1 2 0 2 3 4 5 6 4 6 7 8 9 10 8 10 11 12 13 14 12 14 15 4 16 17 4 17 15 18 5 14 18 14 19 "
											                    >
												<Coordinate point="-0.507840 0.000000 -0.382497 -0.507840 0.000000 0.382497 -0.507840 0.808450 0.382497 -0.507840 0.808450 -0.382497 -0.507840 0.808450 -0.382497 -0.507840 0.808450 0.382497 0.507840 0.808450 0.382497 0.507840 0.808450 -0.382497 0.507840 0.808450 -0.382497 0.507840 0.808450 0.382497 0.507840 0.000000 0.382497 0.507840 0.000000 -0.382497 0.507840 0.000000 -0.382497 0.507840 0.000000 0.382497 -0.507840 0.000000 0.382497 -0.507840 0.000000 -0.382497 0.507840 0.808450 -0.382497 0.507840 0.000000 -0.382497 0.507840 0.808450 0.382497 0.507840 0.000000 0.382497 " />
												<Normal vector="-0.577349 -0.577349 -0.577349 -0.577349 -0.577349 0.577349 -0.577349 0.577349 0.577349 -0.577349 0.577349 -0.577349 -0.577349 0.577349 -0.577349 -0.577349 0.577349 0.577349 0.577349 0.577349 0.577349 0.577349 0.577349 -0.577349 0.577349 0.577349 -0.577349 0.577349 0.577349 0.577349 0.577349 -0.577349 0.577349 0.577349 -0.577349 -0.577349 0.577349 -0.577349 -0.577349 0.577349 -0.577349 0.577349 -0.577349 -0.577349 0.577349 -0.577349 -0.577349 -0.577349 0.577349 0.577349 -0.577349 0.577349 -0.577349 -0.577349 0.577349 0.577349 0.577349 0.577349 -0.577349 0.577349 " />
												<TextureCoordinate point="0.1072 0.6732 0.4006 0.6732 0.4006 0.9666 0.1072 0.9666 0.1072 0.6732 0.4006 0.6732 0.4006 0.9666 0.1072 0.9666 0.1072 0.6732 0.4006 0.6732 0.4006 0.9666 0.1072 0.9666 0.1072 0.6732 0.4006 0.6732 0.4006 0.9666 0.1072 0.9666 0.4006 0.6732 0.4006 0.9666 0.1072 0.6732 0.1072 0.9666 " />
											</IndexedTriangleSet>
										</Shape>
									</Group>
								</Transform>
								<Transform DEF="Cube_005_TRANSFORM"
								           translation="0.000000 0.528435 -0.000000"
								           scale="1.000000 1.000000 1.000000"
								           rotation="0.000000 1.000000 0.000000 0.000000"
								           >
									<Transform DEF="Cube_005_ifs_TRANSFORM"
									           translation="0.000000 0.000000 0.000000"
									           scale="1.000000 1.000000 1.000000"
									           rotation="0.000000 1.000000 0.000000 0.000000"
									           >
										<Group DEF="group_ME_Cube_005">
											<Shape>
												<Appearance>
													<Material USE="MA_Body" />
												</Appearance>
												<IndexedTriangleSet solid="false"
												                    normalPerVertex="true"
												                    index="0 1 2 0 2 3 4 5 6 4 6 7 8 9 10 8 10 11 12 13 14 12 14 15 4 16 17 4 17 15 18 5 14 18 14 19 "
												                    >
													<Coordinate point="-0.885595 0.000000 -0.854606 -0.885595 0.000000 0.854606 -0.885595 1.019501 0.854606 -0.885595 1.019501 -0.854606 -0.885595 1.019501 -0.854606 -0.885595 1.019501 0.854606 0.885595 1.019501 0.854606 0.885595 1.019501 -0.854606 0.885595 1.019501 -0.854606 0.885595 1.019501 0.854606 0.885595 0.000000 0.854606 0.885595 0.000000 -0.854606 0.885595 0.000000 -0.854606 0.885595 0.000000 0.854606 -0.885595 0.000000 0.854606 -0.885595 0.000000 -0.854606 0.885595 1.019501 -0.854606 0.885595 0.000000 -0.854606 0.885595 1.019501 0.854606 0.885595 0.000000 0.854606 " />
													<Normal vector="-0.577349 -0.577349 -0.577349 -0.577349 -0.577349 0.577349 -0.577349 0.577349 0.577349 -0.577349 0.577349 -0.577349 -0.577349 0.577349 -0.577349 -0.577349 0.577349 0.577349 0.577349 0.577349 0.577349 0.577349 0.577349 -0.577349 0.577349 0.577349 -0.577349 0.577349 0.577349 0.577349 0.577349 -0.577349 0.577349 0.577349 -0.577349 -0.577349 0.577349 -0.577349 -0.577349 0.577349 -0.577349 0.577349 -0.577349 -0.577349 0.577349 -0.577349 -0.577349 -0.577349 0.577349 0.577349 -0.577349 0.577349 -0.577349 -0.577349 0.577349 0.577349 0.577349 0.577349 -0.577349 0.577349 " />
													<TextureCoordinate point="0.1072 0.6732 0.4006 0.6732 0.4006 0.9666 0.1072 0.9666 0.1072 0.6732 0.4006 0.6732 0.4006 0.9666 0.1072 0.9666 0.1072 0.6732 0.4006 0.6732 0.4006 0.9666 0.1072 0.9666 0.1072 0.6732 0.4006 0.6732 0.4006 0.9666 0.1072 0.9666 0.4006 0.6732 0.4006 0.9666 0.1072 0.6732 0.1072 0.9666 " />
												</IndexedTriangleSet>
											</Shape>
										</Group>
									</Transform>
								</Transform>
								<Transform DEF="Cube_006_TRANSFORM"
								           translation="0.000000 1.244398 -0.000000"
								           scale="1.000000 1.000000 1.000000"
								           rotation="0.000000 1.000000 0.000000 0.000000"
								           >
									<Transform DEF="Cube_006_ifs_TRANSFORM"
									           translation="0.000000 0.000000 0.000000"
									           scale="1.000000 1.000000 1.000000"
									           rotation="0.000000 1.000000 0.000000 0.000000"
									           >
										<Group DEF="group_ME_Cube_006">
											<Shape>
												<Appearance>
													<Material USE="MA_Body" />
												</Appearance>
												<IndexedTriangleSet solid="false"
												                    normalPerVertex="true"
												                    index="0 1 2 0 2 3 4 5 6 4 6 7 8 9 10 8 10 11 12 13 14 12 14 15 4 16 17 4 17 15 18 5 14 18 14 19 "
												                    >
													<Coordinate point="-1.248065 0.000000 -1.257740 -1.248065 0.000000 1.257740 -1.248065 2.010116 1.257740 -1.248065 2.010116 -1.257740 -1.248065 2.010116 -1.257740 -1.248065 2.010116 1.257740 1.248065 2.010116 1.257740 1.248065 2.010116 -1.257740 1.248065 2.010116 -1.257740 1.248065 2.010116 1.257740 1.248065 0.000000 1.257740 1.248065 0.000000 -1.257740 1.248065 0.000000 -1.257740 1.248065 0.000000 1.257740 -1.248065 0.000000 1.257740 -1.248065 0.000000 -1.257740 1.248065 2.010116 -1.257740 1.248065 0.000000 -1.257740 1.248065 2.010116 1.257740 1.248065 0.000000 1.257740 " />
													<Normal vector="-0.577349 -0.577349 -0.577349 -0.577349 -0.577349 0.577349 -0.577349 0.577349 0.577349 -0.577349 0.577349 -0.577349 -0.577349 0.577349 -0.577349 -0.577349 0.577349 0.577349 0.577349 0.577349 0.577349 0.577349 0.577349 -0.577349 0.577349 0.577349 -0.577349 0.577349 0.577349 0.577349 0.577349 -0.577349 0.577349 0.577349 -0.577349 -0.577349 0.577349 -0.577349 -0.577349 0.577349 -0.577349 0.577349 -0.577349 -0.577349 0.577349 -0.577349 -0.577349 -0.577349 0.577349 0.577349 -0.577349 0.577349 -0.577349 -0.577349 0.577349 0.577349 0.577349 0.577349 -0.577349 0.577349 " />
													<TextureCoordinate point="0.1072 0.6732 0.4006 0.6732 0.4006 0.9666 0.1072 0.9666 0.1072 0.6732 0.4006 0.6732 0.4006 0.9666 0.1072 0.9666 0.1072 0.6732 0.4006 0.6732 0.4006 0.9666 0.1072 0.9666 0.1072 0.6732 0.4006 0.6732 0.4006 0.9666 0.1072 0.9666 0.4006 0.6732 0.4006 0.9666 0.1072 0.6732 0.1072 0.9666 " />
												</IndexedTriangleSet>
											</Shape>
										</Group>
									</Transform>
								</Transform>
								<Transform DEF="Cube_007_TRANSFORM"
								           translation="0.000000 3.141897 -0.000000"
								           scale="1.000000 1.000000 1.000000"
								           rotation="0.000000 1.000000 0.000000 0.000000"
								           >
									<Transform DEF="Cube_007_ifs_TRANSFORM"
									           translation="0.000000 0.000000 0.000000"
									           scale="1.000000 1.000000 1.000000"
									           rotation="0.000000 1.000000 0.000000 0.000000"
									           >
										<Group DEF="group_ME_Cube_007">
											<Shape>
												<Appearance>
													<Material USE="MA_Body" />
												</Appearance>
												<IndexedTriangleSet solid="false"
												                    normalPerVertex="true"
												                    index="0 1 2 0 2 3 4 5 6 4 6 7 8 9 10 8 10 11 12 13 14 12 14 15 4 16 17 4 17 15 18 5 14 18 14 19 "
												                    >
													<Coordinate point="-0.752590 0.000000 -0.817085 -0.752590 0.000000 0.817085 -0.752590 0.657184 0.817085 -0.752590 0.657184 -0.817085 -0.752590 0.657184 -0.817085 -0.752590 0.657184 0.817085 0.752590 0.657184 0.817085 0.752590 0.657184 -0.817085 0.752590 0.657184 -0.817085 0.752590 0.657184 0.817085 0.752590 0.000000 0.817085 0.752590 0.000000 -0.817085 0.752590 0.000000 -0.817085 0.752590 0.000000 0.817085 -0.752590 0.000000 0.817085 -0.752590 0.000000 -0.817085 0.752590 0.657184 -0.817085 0.752590 0.000000 -0.817085 0.752590 0.657184 0.817085 0.752590 0.000000 0.817085 " />
													<Normal vector="-0.577349 -0.577349 -0.577349 -0.577349 -0.577349 0.577349 -0.577349 0.577349 0.577349 -0.577349 0.577349 -0.577349 -0.577349 0.577349 -0.577349 -0.577349 0.577349 0.577349 0.577349 0.577349 0.577349 0.577349 0.577349 -0.577349 0.577349 0.577349 -0.577349 0.577349 0.577349 0.577349 0.577349 -0.577349 0.577349 0.577349 -0.577349 -0.577349 0.577349 -0.577349 -0.577349 0.577349 -0.577349 0.577349 -0.577349 -0.577349 0.577349 -0.577349 -0.577349 -0.577349 0.577349 0.577349 -0.577349 0.577349 -0.577349 -0.577349 0.577349 0.577349 0.577349 0.577349 -0.577349 0.577349 " />
													<TextureCoordinate point="0.1072 0.6732 0.4006 0.6732 0.4006 0.9666 0.1072 0.9666 0.1072 0.6732 0.4006 0.6732 0.4006 0.9666 0.1072 0.9666 0.1072 0.6732 0.4006 0.6732 0.4006 0.9666 0.1072 0.9666 0.1072 0.6732 0.4006 0.6732 0.4006 0.9666 0.1072 0.9666 0.4006 0.6732 0.4006 0.9666 0.1072 0.6732 0.1072 0.9666 " />
												</IndexedTriangleSet>
											</Shape>
										</Group>
									</Transform>
									<Transform DEF="Cube_008_TRANSFORM"
									           translation="-0.099045 0.610288 -0.103593"
									           scale="1.000000 1.000000 1.000000"
									           rotation="0.000000 1.000000 0.000000 0.000000"
									           >
										<Transform DEF="Cube_008_ifs_TRANSFORM"
										           translation="0.000000 0.000000 0.000000"
										           scale="1.000000 1.000000 1.000000"
										           rotation="0.000000 1.000000 0.000000 0.000000"
										           >
											<Group DEF="group_ME_Cube_008">
												<Shape>
													<Appearance>
														<Material USE="MA_Body" />
													</Appearance>
													<IndexedTriangleSet solid="false"
													                    normalPerVertex="true"
													                    index="0 1 2 0 2 3 4 5 6 4 6 7 8 9 10 8 10 11 12 13 14 12 14 15 16 17 18 16 18 15 19 20 14 19 14 21 "
													                    >
														<Coordinate point="-0.110029 -0.001278 -0.115890 -0.110036 -0.000033 0.115890 -0.114504 0.749978 0.111862 -0.114496 0.748733 -0.119918 -0.114496 0.748733 -0.119918 -0.114504 0.749978 0.111862 0.105561 0.751289 0.111862 0.105568 0.750044 -0.119918 0.105568 0.750044 -0.119918 0.105561 0.751289 0.111862 0.110029 0.001278 0.115890 0.110036 0.000033 -0.115890 0.110036 0.000033 -0.115890 0.110029 0.001278 0.115890 -0.110036 -0.000033 0.115890 -0.110029 -0.001278 -0.115890 -0.114496 0.748733 -0.119918 0.105568 0.750044 -0.119918 0.110036 0.000033 -0.115890 0.105561 0.751289 0.111862 -0.114504 0.749978 0.111862 0.110029 0.001278 0.115890 " />
														<Normal vector="-0.573870 -0.583850 -0.574236 -0.573901 -0.577654 0.580432 -0.580798 0.576983 0.574236 -0.580737 0.570788 -0.580432 -0.580737 0.570788 -0.580432 -0.580798 0.576983 0.574236 0.573870 0.583850 0.574236 0.573901 0.577654 -0.580432 0.573901 0.577654 -0.580432 0.573870 0.583850 0.574236 0.580737 -0.570788 0.580432 0.580767 -0.576983 -0.574236 0.580767 -0.576983 -0.574236 0.580737 -0.570788 0.580432 -0.573901 -0.577654 0.580432 -0.573870 -0.583850 -0.574236 -0.580737 0.570788 -0.580432 0.573901 0.577654 -0.580432 0.580767 -0.576983 -0.574236 0.573870 0.583850 0.574236 -0.580798 0.576983 0.574236 0.580737 -0.570788 0.580432 " />
														<TextureCoordinate point="0.1072 0.6732 0.4006 0.6732 0.4006 0.9666 0.1072 0.9666 0.0472 0.0400 0.4607 0.0400 0.4607 0.2808 0.0472 0.2808 0.1072 0.6732 0.4006 0.6732 0.4006 0.9666 0.1072 0.9666 0.1072 0.6732 0.4006 0.6732 0.4006 0.9666 0.1072 0.9666 0.1072 0.6732 0.4006 0.6732 0.4006 0.9666 0.1072 0.6732 0.4006 0.6732 0.1072 0.9666 " />
													</IndexedTriangleSet>
												</Shape>
											</Group>
										</Transform>
									</Transform>
									<Transform DEF="Cube_009_TRANSFORM"
									           translation="-0.103953 0.610288 0.112226"
									           scale="1.000000 1.000000 1.000000"
									           rotation="0.000000 1.000000 0.000000 0.000000"
									           >
										<Transform DEF="Cube_009_ifs_TRANSFORM"
										           translation="0.000000 0.000000 0.000000"
										           scale="1.000000 1.000000 1.000000"
										           rotation="0.000000 1.000000 0.000000 0.000000"
										           >
											<Group DEF="group_ME_Cube_009">
												<Shape>
													<Appearance>
														<Material USE="MA_Body" />
													</Appearance>
													<IndexedTriangleSet solid="false"
													                    normalPerVertex="true"
													                    index="0 1 2 0 2 3 4 5 6 4 6 7 8 9 10 8 10 11 12 13 14 12 14 15 16 17 18 16 18 15 19 20 14 19 14 21 "
													                    >
														<Coordinate point="-0.110040 0.000739 -0.115884 -0.110025 -0.001977 0.115884 -0.114667 0.823348 0.125556 -0.114682 0.826064 -0.106211 -0.114682 0.826064 -0.106211 -0.114667 0.823348 0.125556 0.105398 0.824586 0.125556 0.105383 0.827302 -0.106211 0.105383 0.827302 -0.106211 0.105398 0.824586 0.125556 0.110040 -0.000739 0.115884 0.110025 0.001977 -0.115884 0.110025 0.001977 -0.115884 0.110040 -0.000739 0.115884 -0.110025 -0.001977 0.115884 -0.110040 0.000739 -0.115884 -0.114682 0.826064 -0.106211 0.105383 0.827302 -0.106211 0.110025 0.001977 -0.115884 0.105398 0.824586 0.125556 -0.114667 0.823348 0.125556 0.110040 -0.000739 0.115884 " />
														<Normal vector="-0.574114 -0.573779 -0.584063 -0.574053 -0.587298 0.570544 -0.580523 0.567278 0.584063 -0.580615 0.580798 -0.570544 -0.580615 0.580798 -0.570544 -0.580523 0.567278 0.584063 0.574114 0.573779 0.584063 0.574053 0.587298 -0.570544 0.574053 0.587298 -0.570544 0.574114 0.573779 0.584063 0.580615 -0.580798 0.570544 0.580523 -0.567278 -0.584063 0.580523 -0.567278 -0.584063 0.580615 -0.580798 0.570544 -0.574053 -0.587298 0.570544 -0.574114 -0.573779 -0.584063 -0.580615 0.580798 -0.570544 0.574053 0.587298 -0.570544 0.580523 -0.567278 -0.584063 0.574114 0.573779 0.584063 -0.580523 0.567278 0.584063 0.580615 -0.580798 0.570544 " />
														<TextureCoordinate point="0.1072 0.6732 0.4006 0.6732 0.4006 0.9666 0.1072 0.9666 0.0472 0.0400 0.4607 0.0400 0.4607 0.2808 0.0472 0.2808 0.1072 0.6732 0.4006 0.6732 0.4006 0.9666 0.1072 0.9666 0.1072 0.6732 0.4006 0.6732 0.4006 0.9666 0.1072 0.9666 0.1072 0.6732 0.4006 0.6732 0.4006 0.9666 0.1072 0.6732 0.4006 0.6732 0.1072 0.9666 " />
													</IndexedTriangleSet>
												</Shape>
											</Group>
										</Transform>
									</Transform>
									<Transform DEF="Cube_010_TRANSFORM"
									           translation="0.102574 0.610288 0.112226"
									           scale="1.000000 1.000000 1.000000"
									           rotation="0.000000 1.000000 0.000000 0.000000"
									           >
										<Transform DEF="Cube_010_ifs_TRANSFORM"
										           translation="0.000000 0.000000 0.000000"
										           scale="1.000000 1.000000 1.000000"
										           rotation="0.000000 1.000000 0.000000 0.000000"
										           >
											<Group DEF="group_ME_Cube_010">
												<Shape>
													<Appearance>
														<Material USE="MA_Body" />
													</Appearance>
													<IndexedTriangleSet solid="false"
													                    normalPerVertex="true"
													                    index="0 1 2 0 2 3 4 5 6 4 6 7 8 9 10 8 10 11 12 13 14 12 14 15 16 17 18 16 18 15 19 20 14 19 14 21 "
													                    >
														<Coordinate point="-0.110013 0.002180 -0.115892 -0.110013 0.002180 0.115892 -0.095539 0.732684 0.115892 -0.095539 0.732684 -0.115892 -0.095539 0.732684 -0.115892 -0.095539 0.732684 0.115892 0.124486 0.728324 0.115892 0.124486 0.728324 -0.115892 0.124486 0.728324 -0.115892 0.124486 0.728324 0.115892 0.110013 -0.002180 0.115892 0.110013 -0.002180 -0.115892 0.110013 -0.002180 -0.115892 0.110013 -0.002180 0.115892 -0.110013 0.002180 0.115892 -0.110013 0.002180 -0.115892 -0.095539 0.732684 -0.115892 0.124486 0.728324 -0.115892 0.110013 -0.002180 -0.115892 0.124486 0.728324 0.115892 -0.095539 0.732684 0.115892 0.110013 -0.002180 0.115892 " />
														<Normal vector="-0.588672 -0.565783 -0.577349 -0.588672 -0.565783 0.577349 -0.565783 0.588672 0.577349 -0.565783 0.588672 -0.577349 -0.565783 0.588672 -0.577349 -0.565783 0.588672 0.577349 0.588672 0.565783 0.577349 0.588672 0.565783 -0.577349 0.588672 0.565783 -0.577349 0.588672 0.565783 0.577349 0.565783 -0.588672 0.577349 0.565783 -0.588672 -0.577349 0.565783 -0.588672 -0.577349 0.565783 -0.588672 0.577349 -0.588672 -0.565783 0.577349 -0.588672 -0.565783 -0.577349 -0.565783 0.588672 -0.577349 0.588672 0.565783 -0.577349 0.565783 -0.588672 -0.577349 0.588672 0.565783 0.577349 -0.565783 0.588672 0.577349 0.565783 -0.588672 0.577349 " />
														<TextureCoordinate point="0.1072 0.6732 0.4006 0.6732 0.4006 0.9666 0.1072 0.9666 0.0472 0.0400 0.4607 0.0400 0.4607 0.2808 0.0472 0.2808 0.1072 0.6732 0.4006 0.6732 0.4006 0.9666 0.1072 0.9666 0.1072 0.6732 0.4006 0.6732 0.4006 0.9666 0.1072 0.9666 0.1072 0.6732 0.4006 0.6732 0.4006 0.9666 0.1072 0.6732 0.4006 0.6732 0.1072 0.9666 " />
													</IndexedTriangleSet>
												</Shape>
											</Group>
										</Transform>
									</Transform>
									<Transform DEF="Cube_011_TRANSFORM"
									           translation="0.102574 0.610288 -0.103593"
									           scale="1.000000 1.000000 1.000000"
									           rotation="0.000000 1.000000 0.000000 0.000000"
									           >
										<Transform DEF="Cube_011_ifs_TRANSFORM"
										           translation="0.000000 0.000000 0.000000"
										           scale="1.000000 1.000000 1.000000"
										           rotation="0.000000 1.000000 0.000000 0.000000"
										           >
											<Group DEF="group_ME_Cube_011">
												<Shape>
													<Appearance>
														<Material USE="MA_Body" />
													</Appearance>
													<IndexedTriangleSet solid="false"
													                    normalPerVertex="true"
													                    index="0 1 2 0 2 3 4 5 6 4 6 7 8 9 10 8 10 11 12 13 14 12 14 15 16 17 18 16 18 15 19 20 14 19 14 21 "
													                    >
														<Coordinate point="-0.106027 0.000377 -0.111705 -0.106027 0.003458 0.111652 -0.090296 0.873059 0.099654 -0.090296 0.869978 -0.123703 -0.090296 0.869978 -0.123703 -0.090296 0.873059 0.099654 0.121758 0.869224 0.099707 0.121758 0.866142 -0.123650 0.121758 0.866142 -0.123650 0.121758 0.869224 0.099707 0.106027 -0.000377 0.111705 0.106027 -0.003458 -0.111652 0.106027 -0.003458 -0.111652 0.106027 -0.000377 0.111705 -0.106027 0.003458 0.111652 -0.106027 0.000377 -0.111705 -0.090296 0.869978 -0.123703 0.121758 0.866142 -0.123650 0.106027 -0.003458 -0.111652 0.121758 0.869224 0.099707 -0.090296 0.873059 0.099654 0.106027 -0.000377 0.111705 " />
														<Normal vector="-0.587695 -0.574725 -0.569475 -0.587695 -0.558794 0.585101 -0.566790 0.595599 0.569170 -0.566790 0.579669 -0.585376 -0.566790 0.579669 -0.585376 -0.566790 0.595599 0.569170 0.587695 0.574725 0.569475 0.587695 0.558794 -0.585101 0.587695 0.558794 -0.585101 0.587695 0.574725 0.569475 0.566790 -0.579669 0.585376 0.566790 -0.595599 -0.569170 0.566790 -0.595599 -0.569170 0.566790 -0.579669 0.585376 -0.587695 -0.558794 0.585101 -0.587695 -0.574725 -0.569475 -0.566790 0.579669 -0.585376 0.587695 0.558794 -0.585101 0.566790 -0.595599 -0.569170 0.587695 0.574725 0.569475 -0.566790 0.595599 0.569170 0.566790 -0.579669 0.585376 " />
														<TextureCoordinate point="0.1072 0.6732 0.4006 0.6732 0.4006 0.9666 0.1072 0.9666 0.0472 0.0400 0.4607 0.0400 0.4607 0.2808 0.0472 0.2808 0.1072 0.6732 0.4006 0.6732 0.4006 0.9666 0.1072 0.9666 0.1072 0.6732 0.4006 0.6732 0.4006 0.9666 0.1072 0.9666 0.1072 0.6732 0.4006 0.6732 0.4006 0.9666 0.1072 0.6732 0.4006 0.6732 0.1072 0.9666 " />
													</IndexedTriangleSet>
												</Shape>
											</Group>
										</Transform>
									</Transform>
								</Transform>
							</Transform>
						</Transform>
					</Transform>
				</Transform>
			</Transform>
			<Transform DEF="Cube_013_TRANSFORM"
			           translation="0.000000 -0.291356 0.000000"
			           scale="1.000000 1.000000 1.000000"
			           rotation="0.000000 1.000000 0.000000 0.000000"
			           >
				<Transform DEF="Cube_013_ifs_TRANSFORM"
				           translation="0.000000 0.000000 0.000000"
				           scale="1.000000 1.000000 1.000000"
				           rotation="0.000000 1.000000 0.000000 0.000000"
				           >
					<Group DEF="group_ME_Cube_013">
						<Shape>
							<Appearance>
								<Material USE="MA_Body" />
							</Appearance>
							<IndexedTriangleSet solid="false"
							                    normalPerVertex="true"
							                    index="0 1 2 0 2 3 4 5 6 4 6 7 8 9 10 8 10 11 12 13 14 12 14 15 4 16 17 4 17 15 18 5 14 18 14 19 "
							                    >
								<Coordinate point="-0.362719 -0.432044 0.000000 0.000000 -0.432044 0.362719 0.000000 0.000000 0.362719 -0.362719 0.000000 0.000000 -0.362719 0.000000 0.000000 0.000000 0.000000 0.362719 0.362719 0.000000 0.000000 0.000000 0.000000 -0.362719 0.000000 0.000000 -0.362719 0.362719 0.000000 0.000000 0.362719 -0.432044 0.000000 0.000000 -0.432044 -0.362719 0.000000 -0.432044 -0.362719 0.362719 -0.432044 0.000000 0.000000 -0.432044 0.362719 -0.362719 -0.432044 0.000000 0.000000 0.000000 -0.362719 0.000000 -0.432044 -0.362719 0.362719 0.000000 0.000000 0.362719 -0.432044 0.000000 " />
								<Normal vector="-0.816492 -0.577349 0.000000 0.000000 -0.577349 0.816492 0.000000 0.577349 0.816492 -0.816492 0.577349 0.000000 -0.816492 0.577349 0.000000 0.000000 0.577349 0.816492 0.816492 0.577349 0.000000 0.000000 0.577349 -0.816492 0.000000 0.577349 -0.816492 0.816492 0.577349 0.000000 0.816492 -0.577349 0.000000 0.000000 -0.577349 -0.816492 0.000000 -0.577349 -0.816492 0.816492 -0.577349 0.000000 0.000000 -0.577349 0.816492 -0.816492 -0.577349 0.000000 0.000000 0.577349 -0.816492 0.000000 -0.577349 -0.816492 0.816492 0.577349 0.000000 0.816492 -0.577349 0.000000 " />
								<TextureCoordinate point="0.0239 0.3424 0.4715 0.3424 0.4715 0.5967 0.0239 0.5967 0.0239 0.3424 0.4715 0.3424 0.4715 0.5967 0.0239 0.5967 0.0239 0.3424 0.4715 0.3424 0.4715 0.5967 0.0239 0.5967 0.0239 0.3424 0.4715 0.3424 0.4715 0.5967 0.0239 0.5967 0.4715 0.3424 0.4715 0.5967 0.0239 0.3424 0.0239 0.5967 " />
							</IndexedTriangleSet>
						</Shape>
					</Group>
				</Transform>
			</Transform>
			<Transform DEF="Cube_015_TRANSFORM"
			           translation="0.000000 -0.963589 0.507193"
			           scale="1.000000 1.000000 1.000000"
			           rotation="0.000000 1.000000 0.000000 0.000000"
			           >
				<Transform DEF="Cube_015_ifs_TRANSFORM"
				           translation="0.000000 0.000000 0.000000"
				           scale="1.000000 1.000000 1.000000"
				           rotation="0.000000 1.000000 0.000000 0.000000"
				           >
					<Group DEF="group_ME_Cube_015">
						<Shape>
							<Appearance>
								<Material USE="MA_Body" />
							</Appearance>
							<IndexedTriangleSet solid="false"
							                    normalPerVertex="true"
							                    index="0 1 2 0 2 3 4 5 6 4 6 7 8 9 10 8 10 11 12 13 14 12 14 15 16 17 18 16 18 19 20 21 14 20 14 22 23 24 25 23 25 26 24 20 22 24 22 25 27 28 29 27 29 30 28 16 19 28 19 29 31 32 33 31 33 34 34 33 13 34 13 12 35 21 36 35 36 37 37 36 5 37 5 4 38 39 40 38 40 41 27 35 37 27 37 42 43 44 45 43 45 46 47 31 34 47 34 48 49 12 15 49 15 30 50 8 11 50 11 51 52 4 7 52 7 53 54 0 3 54 3 55 "
							                    >
								<Coordinate point="-0.356941 -0.075781 0.676213 -0.356941 -0.075781 1.027324 -0.356941 0.075781 1.027324 -0.356941 0.075781 0.676213 0.019612 0.075781 0.676213 0.019612 0.075781 1.027324 0.356941 0.075781 1.027324 0.356941 0.075781 0.676213 0.356941 0.075781 0.676213 0.356941 0.075781 1.027324 0.356941 -0.075781 1.027324 0.356941 -0.075781 0.676213 -0.019612 -0.075781 0.676213 -0.019612 -0.075781 1.027324 -0.356941 -0.075781 1.027324 -0.356941 -0.075781 0.676213 0.019612 0.075781 0.000000 0.356941 0.075781 0.000000 0.356941 -0.075781 0.000000 0.019612 -0.075781 0.000000 -0.019612 0.075781 1.027324 -0.356941 0.075781 1.027324 -0.019612 -0.075781 1.027324 0.356941 0.075781 1.027324 0.019612 0.075781 1.027324 0.019612 -0.075781 1.027324 0.356941 -0.075781 1.027324 -0.356941 0.075781 0.000000 -0.019612 0.075781 0.000000 -0.019612 -0.075781 0.000000 -0.356941 -0.075781 0.000000 0.356941 -0.075781 0.676213 0.356941 -0.075781 1.027324 0.019612 -0.075781 1.027324 0.019612 -0.075781 0.676213 -0.356941 0.075781 0.676213 -0.019612 0.075781 1.027324 -0.019612 0.075781 0.676213 -0.019612 0.075781 0.000000 -0.019612 0.075781 0.676213 0.019612 0.075781 0.676213 0.019612 0.075781 0.000000 -0.019612 0.075781 0.000000 0.019612 -0.075781 0.000000 0.019612 -0.075781 0.676213 -0.019612 -0.075781 0.676213 -0.019612 -0.075781 0.000000 0.356941 -0.075781 0.000000 0.019612 -0.075781 0.000000 -0.019612 -0.075781 0.000000 0.356941 0.075781 0.000000 0.356941 -0.075781 0.000000 0.019612 0.075781 0.000000 0.356941 0.075781 0.000000 -0.356941 -0.075781 0.000000 -0.356941 0.075781 0.000000 " />
								<Normal vector="-0.707083 -0.707083 0.000000 -0.577349 -0.577349 0.577349 -0.577349 0.577349 0.577349 -0.707083 0.707083 0.000000 0.000000 1.000000 0.000000 0.000000 0.707083 0.707083 0.577349 0.577349 0.577349 0.707083 0.707083 0.000000 0.707083 0.707083 0.000000 0.577349 0.577349 0.577349 0.577349 -0.577349 0.577349 0.707083 -0.707083 0.000000 0.000000 -1.000000 0.000000 0.000000 -0.707083 0.707083 -0.577349 -0.577349 0.577349 -0.707083 -0.707083 0.000000 0.000000 0.707083 -0.707083 0.577349 0.577349 -0.577349 0.577349 -0.577349 -0.577349 0.000000 -0.707083 -0.707083 0.000000 0.707083 0.707083 -0.577349 0.577349 0.577349 0.000000 -0.707083 0.707083 0.577349 0.577349 0.577349 0.000000 0.707083 0.707083 0.000000 -0.707083 0.707083 0.577349 -0.577349 0.577349 -0.577349 0.577349 -0.577349 0.000000 0.707083 -0.707083 0.000000 -0.707083 -0.707083 -0.577349 -0.577349 -0.577349 0.707083 -0.707083 0.000000 0.577349 -0.577349 0.577349 0.000000 -0.707083 0.707083 0.000000 -1.000000 0.000000 -0.707083 0.707083 0.000000 0.000000 0.707083 0.707083 0.000000 1.000000 0.000000 0.000000 0.707083 -0.707083 0.000000 1.000000 0.000000 0.000000 1.000000 0.000000 0.000000 0.707083 -0.707083 0.000000 0.707083 -0.707083 0.000000 -0.707083 -0.707083 0.000000 -1.000000 0.000000 0.000000 -1.000000 0.000000 0.000000 -0.707083 -0.707083 0.577349 -0.577349 -0.577349 0.000000 -0.707083 -0.707083 0.000000 -0.707083 -0.707083 0.577349 0.577349 -0.577349 0.577349 -0.577349 -0.577349 0.000000 0.707083 -0.707083 0.577349 0.577349 -0.577349 -0.577349 -0.577349 -0.577349 -0.577349 0.577349 -0.577349 " />
								<TextureCoordinate point="0.8193 0.5296 0.9690 0.5296 0.9690 0.9676 0.8193 0.9676 0.8193 0.8216 0.9690 0.8216 0.9690 0.9676 0.8193 0.9676 0.8193 0.5296 0.9690 0.5296 0.9690 0.9676 0.8193 0.9676 0.8193 0.8216 0.9690 0.8216 0.9690 0.9676 0.8193 0.9676 0.8230 0.5296 0.9690 0.5296 0.9690 0.9676 0.8230 0.9676 0.8230 0.5296 0.9690 0.5296 0.8230 0.9676 0.5310 0.5296 0.6770 0.5296 0.6770 0.9676 0.5310 0.9676 0.5310 0.5296 0.6770 0.5296 0.6770 0.9676 0.5310 0.9676 0.8193 0.5296 0.9690 0.5296 0.9690 0.6756 0.8193 0.6756 0.8193 0.5296 0.9690 0.6756 0.8193 0.6756 0.0442 0.0312 0.4433 0.0312 0.4433 0.2749 0.0442 0.2749 0.5310 0.6756 0.0576 0.0555 0.4344 0.0555 0.4344 0.2625 0.0576 0.2625 0.5310 0.5296 0.5310 0.6756 0.5310 0.8216 0.5310 0.5296 0.5310 0.9676 0.5310 0.8216 0.5310 0.9676 0.5310 0.5296 0.5310 0.9676 " />
							</IndexedTriangleSet>
						</Shape>
					</Group>
				</Transform>
			</Transform>
			<Transform DEF="Cube_017_TRANSFORM"
			           translation="0.000000 -1.741963 0.000000"
			           scale="1.000000 1.000000 1.000000"
			           rotation="0.000000 1.000000 0.000000 0.000000"
			           >
				<Transform DEF="Cube_017_ifs_TRANSFORM"
				           translation="0.000000 0.000000 0.000000"
				           scale="1.000000 1.000000 1.000000"
				           rotation="0.000000 1.000000 0.000000 0.000000"
				           >
					<Group DEF="group_ME_Cube_017">
						<Shape>
							<Appearance>
								<Material DEF="MA_Mesh"
								          diffuseColor="0.800 0.800 0.800"
								          specularColor="0.401 0.401 0.401"
								          emissiveColor="0.000 0.000 0.000"
								          ambientIntensity="0.000"
								          shininess="0.500"
								          transparency="0.0"
								          />
							</Appearance>
							<IndexedTriangleSet solid="false"
							                    normalPerVertex="true"
							                    index="0 1 2 0 2 3 4 5 6 4 6 7 8 9 10 8 10 11 12 11 13 12 13 14 15 10 16 15 16 17 18 19 20 18 20 21 22 23 24 22 24 25 26 27 28 26 28 29 30 31 32 33 34 35 33 35 36 37 30 32 33 36 37 32 33 37 35 34 31 35 31 30 22 38 39 22 39 34 40 23 33 40 33 41 "
							                    >
								<Coordinate point="-0.428208 -0.895346 -0.428208 -0.428208 -0.895346 0.428208 -0.428208 -0.088277 0.428208 -0.428208 -0.088277 -0.428208 0.428208 -0.895346 0.428208 0.428208 -0.895346 -0.428208 0.428208 -0.088277 -0.428208 0.428208 -0.088277 0.428208 0.428208 -0.895346 -0.428208 0.428208 -0.895346 0.428208 -0.428208 -0.895346 0.428208 -0.428208 -0.895346 -0.428208 0.428208 -0.895346 -0.428208 -0.428208 -0.088277 -0.428208 0.428208 -0.088277 -0.428208 -0.428208 -0.088277 0.428208 0.428208 -0.895346 0.428208 0.428208 -0.088277 0.428208 -0.564609 -0.088277 -0.564609 -0.564609 -0.088277 0.564609 -0.564609 0.741923 0.564609 -0.564609 0.741923 -0.564609 -0.564609 0.741923 -0.564609 -0.564609 0.741923 0.564609 0.564609 0.741923 0.564609 0.564609 0.741923 -0.564609 0.564609 0.741923 -0.564609 0.564609 0.741923 0.564609 0.564609 -0.088277 0.564609 0.564609 -0.088277 -0.564609 0.428208 -0.088277 -0.428208 0.564609 -0.088277 -0.564609 0.564609 -0.088277 0.564609 -0.564609 -0.088277 0.564609 -0.564609 -0.088277 -0.564609 -0.428208 -0.088277 -0.428208 -0.428208 -0.088277 0.428208 0.428208 -0.088277 0.428208 0.564609 0.741923 -0.564609 0.564609 -0.088277 -0.564609 0.564609 0.741923 0.564609 0.564609 -0.088277 0.564609 " />
								<Normal vector="-0.577349 -0.577349 -0.577349 -0.577349 -0.577349 0.577349 -0.577349 -0.577349 0.577349 -0.301492 -0.904508 -0.301492 0.577349 -0.577349 0.577349 0.577349 -0.577349 -0.577349 0.301492 -0.904508 -0.301492 0.577349 -0.577349 0.577349 0.577349 -0.577349 -0.577349 0.577349 -0.577349 0.577349 -0.577349 -0.577349 0.577349 -0.577349 -0.577349 -0.577349 0.577349 -0.577349 -0.577349 -0.301492 -0.904508 -0.301492 0.301492 -0.904508 -0.301492 -0.577349 -0.577349 0.577349 0.577349 -0.577349 0.577349 0.577349 -0.577349 0.577349 -0.577349 -0.577349 -0.577349 -0.577349 -0.577349 0.577349 -0.577349 0.577349 0.577349 -0.577349 0.577349 -0.577349 -0.577349 0.577349 -0.577349 -0.577349 0.577349 0.577349 0.577349 0.577349 0.577349 0.577349 0.577349 -0.577349 0.577349 0.577349 -0.577349 0.577349 0.577349 0.577349 0.577349 -0.577349 0.577349 0.577349 -0.577349 -0.577349 0.301492 -0.904508 -0.301492 0.577349 -0.577349 -0.577349 0.577349 -0.577349 0.577349 -0.577349 -0.577349 0.577349 -0.577349 -0.577349 -0.577349 -0.301492 -0.904508 -0.301492 -0.577349 -0.577349 0.577349 0.577349 -0.577349 0.577349 0.577349 0.577349 -0.577349 0.577349 -0.577349 -0.577349 0.577349 0.577349 0.577349 0.577349 -0.577349 0.577349 " />
								<TextureCoordinate point="0.5286 0.0144 0.9775 0.0144 0.9775 0.2593 0.5286 0.2593 0.9775 0.2861 0.5286 0.2861 0.5286 0.0412 0.9775 0.0412 0.5286 0.0144 0.9775 0.0144 0.9775 0.2861 0.5286 0.2861 0.9775 0.2861 0.5286 0.0412 0.9775 0.0412 0.9775 0.0412 0.5286 0.2861 0.5286 0.0412 0.5286 0.0144 0.9775 0.0144 0.9775 0.2861 0.5286 0.2861 0.5286 0.0144 0.9775 0.0144 0.9775 0.2861 0.5286 0.2861 0.5286 0.0144 0.9775 0.0144 0.9775 0.2861 0.5286 0.2861 0.5829 0.0472 0.5286 0.0144 0.9775 0.0144 0.9775 0.2861 0.5286 0.2861 0.5829 0.2532 0.9233 0.2532 0.9233 0.0472 0.9775 0.0144 0.9775 0.2861 0.5286 0.0144 0.5286 0.2861 " />
							</IndexedTriangleSet>
						</Shape>
					</Group>
				</Transform>
			</Transform>
			<Transform DEF="Cube_018_TRANSFORM"
			           translation="0.314592 -0.963589 0.202652"
			           scale="1.000000 1.000000 1.000000"
			           rotation="0.000000 1.000000 0.000000 0.000000"
			           >
				<Transform DEF="Cube_018_ifs_TRANSFORM"
				           translation="0.000000 0.000000 0.000000"
				           scale="1.000000 1.000000 1.000000"
				           rotation="0.000000 1.000000 0.000000 0.000000"
				           >
					<Group DEF="group_ME_Cube_018">
						<Shape>
							<Appearance>
								<Material USE="MA_Body" />
							</Appearance>
							<IndexedTriangleSet solid="false"
							                    normalPerVertex="true"
							                    index="0 1 2 0 2 3 4 5 6 4 6 7 8 9 10 8 10 11 12 13 14 12 14 15 16 17 18 16 18 19 20 21 14 20 14 22 23 24 25 23 25 26 24 20 22 24 22 25 27 28 29 27 29 30 28 16 19 28 19 29 31 32 33 31 33 34 34 33 13 34 13 12 35 21 36 35 36 37 37 36 5 37 5 4 38 39 40 38 40 41 27 35 37 27 37 42 43 44 45 43 45 46 47 31 34 47 34 48 49 12 15 49 15 30 50 8 11 50 11 51 52 4 7 52 7 53 54 0 3 54 3 55 "
							                    >
								<Coordinate point="0.519169 -0.070556 0.679079 0.817764 -0.070556 0.844372 0.817764 0.070556 0.844372 0.519169 0.070556 0.679079 0.695730 0.070556 0.360130 0.994325 0.070556 0.525422 1.149695 0.070556 0.244752 0.851100 0.070556 0.079459 0.851100 0.070556 0.079459 1.149695 0.070556 0.244752 1.149695 -0.070556 0.244752 0.851100 -0.070556 0.079459 0.674540 -0.070556 0.398408 0.973135 -0.070556 0.563701 0.817764 -0.070556 0.844372 0.519169 -0.070556 0.679079 0.010595 0.070556 -0.019139 0.165965 0.070556 -0.299810 0.165965 -0.070556 -0.299810 0.010595 -0.070556 -0.019139 0.973135 0.070556 0.563701 0.817764 0.070556 0.844372 0.973135 -0.070556 0.563701 1.149695 0.070556 0.244752 0.994325 0.070556 0.525422 0.994325 -0.070556 0.525422 1.149695 -0.070556 0.244752 -0.165965 0.070556 0.299810 -0.010595 0.070556 0.019139 -0.010595 -0.070556 0.019139 -0.165965 -0.070556 0.299810 0.851100 -0.070556 0.079459 1.149695 -0.070556 0.244752 0.994325 -0.070556 0.525422 0.695730 -0.070556 0.360130 0.519169 0.070556 0.679079 0.973135 0.070556 0.563701 0.674540 0.070556 0.398408 -0.010595 0.070556 0.019139 0.674540 0.070556 0.398408 0.695730 0.070556 0.360130 0.010595 0.070556 -0.019139 -0.010595 0.070556 0.019139 0.010595 -0.070556 -0.019139 0.695730 -0.070556 0.360130 0.674540 -0.070556 0.398408 -0.010595 -0.070556 0.019139 0.165965 -0.070556 -0.299810 0.010595 -0.070556 -0.019139 -0.010595 -0.070556 0.019139 0.165965 0.070556 -0.299810 0.165965 -0.070556 -0.299810 0.010595 0.070556 -0.019139 0.165965 0.070556 -0.299810 -0.165965 -0.070556 0.299810 -0.165965 0.070556 0.299810 " />
								<Normal vector="-0.342448 -0.707083 0.618641 0.225501 -0.577349 0.784722 0.225501 0.577349 0.784722 -0.342448 0.707083 0.618641 0.000000 1.000000 0.000000 0.618641 0.707083 0.342448 0.784722 0.577349 -0.225501 0.342448 0.707083 -0.618641 0.342448 0.707083 -0.618641 0.784722 0.577349 -0.225501 0.784722 -0.577349 -0.225501 0.342448 -0.707083 -0.618641 0.000000 -1.000000 0.000000 0.618641 -0.707083 0.342448 0.225501 -0.577349 0.784722 -0.342448 -0.707083 0.618641 -0.618641 0.707083 -0.342448 -0.225501 0.577349 -0.784722 -0.225501 -0.577349 -0.784722 -0.618641 -0.707083 -0.342448 0.618641 0.707083 0.342448 0.225501 0.577349 0.784722 0.618641 -0.707083 0.342448 0.784722 0.577349 -0.225501 0.618641 0.707083 0.342448 0.618641 -0.707083 0.342448 0.784722 -0.577349 -0.225501 -0.784722 0.577349 0.225501 -0.618641 0.707083 -0.342448 -0.618641 -0.707083 -0.342448 -0.784722 -0.577349 0.225501 0.342448 -0.707083 -0.618641 0.784722 -0.577349 -0.225501 0.618641 -0.707083 0.342448 0.000000 -1.000000 0.000000 -0.342448 0.707083 0.618641 0.618641 0.707083 0.342448 0.000000 1.000000 0.000000 -0.618641 0.707083 -0.342448 0.000000 1.000000 0.000000 0.000000 1.000000 0.000000 -0.618641 0.707083 -0.342448 -0.618641 0.707083 -0.342448 -0.618641 -0.707083 -0.342448 0.000000 -1.000000 0.000000 0.000000 -1.000000 0.000000 -0.618641 -0.707083 -0.342448 -0.225501 -0.577349 -0.784722 -0.618641 -0.707083 -0.342448 -0.618641 -0.707083 -0.342448 -0.225501 0.577349 -0.784722 -0.225501 -0.577349 -0.784722 -0.618641 0.707083 -0.342448 -0.225501 0.577349 -0.784722 -0.784722 -0.577349 0.225501 -0.784722 0.577349 0.225501 " />
								<TextureCoordinate point="0.8360 0.5296 0.9690 0.5296 0.9690 0.9676 0.8360 0.9676 0.8360 0.8216 0.9690 0.8216 0.9690 0.9676 0.8360 0.9676 0.8360 0.5296 0.9690 0.5296 0.9690 0.9676 0.8360 0.9676 0.8360 0.8216 0.9690 0.8216 0.9690 0.9676 0.8360 0.9676 0.8230 0.5296 0.9690 0.5296 0.9690 0.9676 0.8230 0.9676 0.8230 0.5296 0.9690 0.5296 0.8230 0.9676 0.5310 0.5296 0.6770 0.5296 0.6770 0.9676 0.5310 0.9676 0.5310 0.5296 0.6770 0.5296 0.6770 0.9676 0.5310 0.9676 0.8360 0.5296 0.9690 0.5296 0.9690 0.6756 0.8360 0.6756 0.8360 0.5296 0.9690 0.6756 0.8360 0.6756 0.0442 0.0312 0.4665 0.0312 0.4665 0.2749 0.0442 0.2749 0.5310 0.6756 0.0512 0.0236 0.4595 0.0236 0.4595 0.2826 0.0512 0.2826 0.5310 0.5296 0.5310 0.6756 0.5310 0.8216 0.5310 0.5296 0.5310 0.9676 0.5310 0.8216 0.5310 0.9676 0.5310 0.5296 0.5310 0.9676 " />
							</IndexedTriangleSet>
						</Shape>
					</Group>
				</Transform>
			</Transform>
			<Transform DEF="Cube_019_TRANSFORM"
			           translation="0.332253 -0.963589 -0.177365"
			           scale="1.000000 1.000000 1.000000"
			           rotation="0.000000 1.000000 0.000000 0.000000"
			           >
				<Transform DEF="Cube_019_ifs_TRANSFORM"
				           translation="0.000000 0.000000 0.000000"
				           scale="1.000000 1.000000 1.000000"
				           rotation="0.000000 1.000000 0.000000 0.000000"
				           >
					<Group DEF="group_ME_Cube_019">
						<Shape>
							<Appearance>
								<Material USE="MA_Body" />
							</Appearance>
							<IndexedTriangleSet solid="false"
							                    normalPerVertex="true"
							                    index="0 1 2 0 2 3 4 5 6 4 6 7 8 9 10 8 10 11 12 13 14 12 14 15 16 17 18 16 18 19 20 21 14 20 14 22 23 24 25 23 25 26 24 20 22 24 22 25 27 28 29 27 29 30 28 16 19 28 19 29 31 32 33 31 33 34 34 33 13 34 13 12 35 21 36 35 36 37 37 36 5 37 5 4 38 39 40 38 40 41 27 35 37 27 37 42 43 44 45 43 45 46 47 31 34 47 34 48 49 12 15 49 15 30 50 8 11 50 11 51 52 4 7 52 7 53 54 0 3 54 3 55 "
							                    >
								<Coordinate point="0.809412 -0.076475 -0.116045 1.128829 -0.076475 -0.316410 1.128829 0.076475 -0.316410 0.809412 0.076475 -0.116045 0.623498 0.076475 -0.412424 0.942915 0.076475 -0.612789 0.776188 0.076475 -0.878579 0.456772 0.076475 -0.678214 0.456772 0.076475 -0.678214 0.776188 0.076475 -0.878579 0.776188 -0.076475 -0.878579 0.456772 -0.076475 -0.678214 0.642686 -0.076475 -0.381835 0.962102 -0.076475 -0.582200 1.128829 -0.076475 -0.316410 0.809412 -0.076475 -0.116045 -0.009594 0.076475 -0.015294 -0.176320 0.076475 -0.281085 -0.176320 -0.076475 -0.281085 -0.009594 -0.076475 -0.015294 0.962102 0.076475 -0.582200 1.128829 0.076475 -0.316410 0.962102 -0.076475 -0.582200 0.776188 0.076475 -0.878579 0.942915 0.076475 -0.612789 0.942915 -0.076475 -0.612789 0.776188 -0.076475 -0.878579 0.176320 0.076475 0.281085 0.009594 0.076475 0.015294 0.009594 -0.076475 0.015294 0.176320 -0.076475 0.281085 0.456772 -0.076475 -0.678214 0.776188 -0.076475 -0.878579 0.942915 -0.076475 -0.612789 0.623498 -0.076475 -0.412424 0.809412 0.076475 -0.116045 0.962102 0.076475 -0.582200 0.642686 0.076475 -0.381835 0.009594 0.076475 0.015294 0.642686 0.076475 -0.381835 0.623498 0.076475 -0.412424 -0.009594 0.076475 -0.015294 0.009594 0.076475 0.015294 -0.009594 -0.076475 -0.015294 0.623498 -0.076475 -0.412424 0.642686 -0.076475 -0.381835 0.009594 -0.076475 0.015294 -0.176320 -0.076475 -0.281085 -0.009594 -0.076475 -0.015294 0.009594 -0.076475 0.015294 -0.176320 0.076475 -0.281085 -0.176320 -0.076475 -0.281085 -0.009594 0.076475 -0.015294 -0.176320 0.076475 -0.281085 0.176320 -0.076475 0.281085 0.176320 0.076475 0.281085 " />
								<Normal vector="0.375744 -0.707083 0.598987 0.795862 -0.577349 0.182287 0.795862 0.577349 0.182287 0.375744 0.707083 0.598987 0.000000 1.000000 0.000000 0.598987 0.707083 -0.375744 0.182287 0.577349 -0.795862 -0.375744 0.707083 -0.598987 -0.375744 0.707083 -0.598987 0.182287 0.577349 -0.795862 0.182287 -0.577349 -0.795862 -0.375744 -0.707083 -0.598987 0.000000 -1.000000 0.000000 0.598987 -0.707083 -0.375744 0.795862 -0.577349 0.182287 0.375744 -0.707083 0.598987 -0.598987 0.707083 0.375744 -0.795862 0.577349 -0.182287 -0.795862 -0.577349 -0.182287 -0.598987 -0.707083 0.375744 0.598987 0.707083 -0.375744 0.795862 0.577349 0.182287 0.598987 -0.707083 -0.375744 0.182287 0.577349 -0.795862 0.598987 0.707083 -0.375744 0.598987 -0.707083 -0.375744 0.182287 -0.577349 -0.795862 -0.182287 0.577349 0.795862 -0.598987 0.707083 0.375744 -0.598987 -0.707083 0.375744 -0.182287 -0.577349 0.795862 -0.375744 -0.707083 -0.598987 0.182287 -0.577349 -0.795862 0.598987 -0.707083 -0.375744 0.000000 -1.000000 0.000000 0.375744 0.707083 0.598987 0.598987 0.707083 -0.375744 0.000000 1.000000 0.000000 -0.598987 0.707083 0.375744 0.000000 1.000000 0.000000 0.000000 1.000000 0.000000 -0.598987 0.707083 0.375744 -0.598987 0.707083 0.375744 -0.598987 -0.707083 0.375744 0.000000 -1.000000 0.000000 0.000000 -1.000000 0.000000 -0.598987 -0.707083 0.375744 -0.795862 -0.577349 -0.182287 -0.598987 -0.707083 0.375744 -0.598987 -0.707083 0.375744 -0.795862 0.577349 -0.182287 -0.795862 -0.577349 -0.182287 -0.598987 0.707083 0.375744 -0.795862 0.577349 -0.182287 -0.182287 -0.577349 0.795862 -0.182287 0.577349 0.795862 " />
								<TextureCoordinate point="0.8221 0.5296 0.9690 0.5296 0.9690 0.9676 0.8221 0.9676 0.8221 0.8216 0.9690 0.8216 0.9690 0.9676 0.8221 0.9676 0.8221 0.5296 0.9690 0.5296 0.9690 0.9676 0.8221 0.9676 0.8221 0.8216 0.9690 0.8216 0.9690 0.9676 0.8221 0.9676 0.8230 0.5296 0.9690 0.5296 0.9690 0.9676 0.8230 0.9676 0.8230 0.5296 0.9690 0.5296 0.8230 0.9676 0.5310 0.5296 0.6770 0.5296 0.6770 0.9676 0.5310 0.9676 0.5310 0.5296 0.6770 0.5296 0.6770 0.9676 0.5310 0.9676 0.8221 0.5296 0.9690 0.5296 0.9690 0.6756 0.8221 0.6756 0.8221 0.5296 0.9690 0.6756 0.8221 0.6756 0.0442 0.0312 0.4472 0.0312 0.4472 0.2749 0.0442 0.2749 0.5310 0.6756 0.0414 0.0144 0.4652 0.0144 0.4652 0.2819 0.0414 0.2819 0.5310 0.5296 0.5310 0.6756 0.5310 0.8216 0.5310 0.5296 0.5310 0.9676 0.5310 0.8216 0.5310 0.9676 0.5310 0.5296 0.5310 0.9676 " />
							</IndexedTriangleSet>
						</Shape>
					</Group>
				</Transform>
			</Transform>
			<Transform DEF="Cube_020_TRANSFORM"
			           translation="0.000000 -0.633071 0.000000"
			           scale="1.000000 1.000000 1.000000"
			           rotation="0.000000 1.000000 0.000000 0.000000"
			           >
				<Transform DEF="Cube_020_ifs_TRANSFORM"
				           translation="0.000000 0.000000 0.000000"
				           scale="1.000000 1.000000 1.000000"
				           rotation="0.000000 1.000000 0.000000 0.000000"
				           >
					<Group DEF="group_ME_Cube_020">
						<Shape>
							<Appearance>
								<Material USE="MA_Body" />
							</Appearance>
							<IndexedTriangleSet solid="false"
							                    normalPerVertex="true"
							                    index="0 1 2 0 2 3 4 5 6 4 6 7 8 9 10 8 10 11 12 13 14 12 14 15 4 16 17 4 17 18 19 5 20 19 20 21 "
							                    >
								<Coordinate point="-0.555955 -0.409945 -0.555955 -0.555955 -0.409945 0.555955 -0.555955 0.000000 0.555955 -0.555955 0.000000 -0.555955 -0.555955 0.000000 -0.555955 -0.555955 0.000000 0.555955 0.555955 0.000000 0.555955 0.555955 0.000000 -0.555955 0.555955 0.000000 -0.555955 0.555955 0.000000 0.555955 0.555955 -0.409945 0.555955 0.555955 -0.409945 -0.555955 0.555955 -0.409945 -0.555955 0.555955 -0.409945 0.555955 -0.555955 -0.409945 0.555955 -0.555955 -0.409945 -0.555955 0.555955 0.000000 -0.555955 0.555955 -0.409945 -0.555955 -0.555955 -0.409945 -0.555955 0.555955 0.000000 0.555955 -0.555955 -0.409945 0.555955 0.555955 -0.409945 0.555955 " />
								<Normal vector="-0.577349 -0.577349 -0.577349 -0.577349 -0.577349 0.577349 -0.577349 0.577349 0.577349 -0.577349 0.577349 -0.577349 -0.577349 0.577349 -0.577349 -0.577349 0.577349 0.577349 0.577349 0.577349 0.577349 0.577349 0.577349 -0.577349 0.577349 0.577349 -0.577349 0.577349 0.577349 0.577349 0.577349 -0.577349 0.577349 0.577349 -0.577349 -0.577349 0.577349 -0.577349 -0.577349 0.577349 -0.577349 0.577349 -0.577349 -0.577349 0.577349 -0.577349 -0.577349 -0.577349 0.577349 0.577349 -0.577349 0.577349 -0.577349 -0.577349 -0.577349 -0.577349 -0.577349 0.577349 0.577349 0.577349 -0.577349 -0.577349 0.577349 0.577349 -0.577349 0.577349 " />
								<TextureCoordinate point="0.0239 0.3424 0.4715 0.3424 0.4715 0.5967 0.0239 0.5967 0.0239 0.3424 0.4715 0.3424 0.4715 0.5967 0.0239 0.5967 0.0239 0.3424 0.4715 0.3424 0.4715 0.5967 0.0239 0.5967 0.5293 0.3443 0.9769 0.3443 0.9769 0.4708 0.5293 0.4708 0.4715 0.3424 0.4715 0.5967 0.0239 0.5967 0.0239 0.3424 0.4715 0.5967 0.0239 0.5967 " />
							</IndexedTriangleSet>
						</Shape>
					</Group>
				</Transform>
			</Transform>
			<Transform DEF="Cube_021_TRANSFORM"
			           translation="0.000000 -0.590653 0.000000"
			           scale="1.000000 1.000000 1.000000"
			           rotation="0.000000 1.000000 0.000000 0.000000"
			           >
				<Transform DEF="Cube_021_ifs_TRANSFORM"
				           translation="0.000000 0.000000 0.000000"
				           scale="1.000000 1.000000 1.000000"
				           rotation="0.000000 1.000000 0.000000 0.000000"
				           >
					<Group DEF="group_ME_Cube_021">
						<Shape>
							<Appearance>
								<Material USE="MA_Body" />
							</Appearance>
							<IndexedTriangleSet solid="false"
							                    normalPerVertex="true"
							                    index="0 1 2 0 2 3 4 5 6 4 6 7 8 9 10 8 10 11 12 13 14 12 14 15 4 16 17 4 17 15 18 5 14 18 14 19 "
							                    >
								<Coordinate point="-0.332984 -0.185541 -0.318645 -0.332984 -0.185541 0.318645 -0.332984 0.000000 0.318645 -0.332984 0.000000 -0.318645 -0.332984 0.000000 -0.318645 -0.332984 0.000000 0.318645 0.332984 0.000000 0.318645 0.332984 0.000000 -0.318645 0.332984 0.000000 -0.318645 0.332984 0.000000 0.318645 0.332984 -0.185541 0.318645 0.332984 -0.185541 -0.318645 0.332984 -0.185541 -0.318645 0.332984 -0.185541 0.318645 -0.332984 -0.185541 0.318645 -0.332984 -0.185541 -0.318645 0.332984 0.000000 -0.318645 0.332984 -0.185541 -0.318645 0.332984 0.000000 0.318645 0.332984 -0.185541 0.318645 " />
								<Normal vector="-0.577349 -0.577349 -0.577349 -0.577349 -0.577349 0.577349 -0.577349 0.577349 0.577349 -0.577349 0.577349 -0.577349 -0.577349 0.577349 -0.577349 -0.577349 0.577349 0.577349 0.577349 0.577349 0.577349 0.577349 0.577349 -0.577349 0.577349 0.577349 -0.577349 0.577349 0.577349 0.577349 0.577349 -0.577349 0.577349 0.577349 -0.577349 -0.577349 0.577349 -0.577349 -0.577349 0.577349 -0.577349 0.577349 -0.577349 -0.577349 0.577349 -0.577349 -0.577349 -0.577349 0.577349 0.577349 -0.577349 0.577349 -0.577349 -0.577349 0.577349 0.577349 0.577349 0.577349 -0.577349 0.577349 " />
								<TextureCoordinate point="0.1072 0.6732 0.4006 0.6732 0.4006 0.9666 0.1072 0.9666 0.1072 0.6732 0.4006 0.6732 0.4006 0.9666 0.1072 0.9666 0.1072 0.6732 0.4006 0.6732 0.4006 0.9666 0.1072 0.9666 0.1072 0.6732 0.4006 0.6732 0.4006 0.9666 0.1072 0.9666 0.4006 0.6732 0.4006 0.9666 0.1072 0.6732 0.1072 0.9666 " />
							</IndexedTriangleSet>
						</Shape>
					</Group>
				</Transform>
			</Transform>
			<Transform DEF="Cube_001_TRANSFORM"
			           translation="0.000000 -0.963589 -0.478395"
			           scale="1.000000 1.000000 1.000000"
			           rotation="0.000000 1.000000 0.000000 0.000000"
			           >
				<Transform DEF="Cube_001_ifs_TRANSFORM"
				           translation="0.000000 0.000000 0.000000"
				           scale="1.000000 1.000000 1.000000"
				           rotation="0.000000 1.000000 0.000000 0.000000"
				           >
					<Group DEF="group_ME_Cube_022">
						<Shape>
							<Appearance>
								<Material USE="MA_Body" />
							</Appearance>
							<IndexedTriangleSet solid="false"
							                    normalPerVertex="true"
							                    index="0 1 2 0 2 3 4 5 6 4 6 7 8 9 10 8 10 11 12 13 14 12 14 15 16 17 18 16 18 19 20 21 14 20 14 22 23 24 25 23 25 26 26 25 21 26 21 20 27 28 29 27 29 30 30 29 17 30 17 16 31 32 33 31 33 34 32 12 15 32 15 33 35 36 37 35 37 22 36 4 7 36 7 37 38 39 40 38 40 41 27 42 36 27 36 35 43 44 45 43 45 46 47 48 32 47 32 31 49 28 13 49 13 12 50 51 9 50 9 8 52 53 5 52 5 4 54 55 1 54 1 0 "
							                    >
								<Coordinate point="-0.356941 -0.075781 -0.676213 -0.356941 0.075781 -0.676213 -0.356941 0.075781 -1.027324 -0.356941 -0.075781 -1.027324 0.019612 0.075781 -0.676213 0.356941 0.075781 -0.676213 0.356941 0.075781 -1.027324 0.019612 0.075781 -1.027324 0.356941 0.075781 -0.676213 0.356941 -0.075781 -0.676213 0.356941 -0.075781 -1.027324 0.356941 0.075781 -1.027324 -0.019612 -0.075781 -0.676213 -0.356941 -0.075781 -0.676213 -0.356941 -0.075781 -1.027324 -0.019612 -0.075781 -1.027324 0.019612 0.075781 0.000000 0.019612 -0.075781 0.000000 0.356941 -0.075781 0.000000 0.356941 0.075781 0.000000 -0.019612 0.075781 -1.027324 -0.019612 -0.075781 -1.027324 -0.356941 0.075781 -1.027324 0.356941 0.075781 -1.027324 0.356941 -0.075781 -1.027324 0.019612 -0.075781 -1.027324 0.019612 0.075781 -1.027324 -0.356941 0.075781 0.000000 -0.356941 -0.075781 0.000000 -0.019612 -0.075781 0.000000 -0.019612 0.075781 0.000000 0.356941 -0.075781 -0.676213 0.019612 -0.075781 -0.676213 0.019612 -0.075781 -1.027324 0.356941 -0.075781 -1.027324 -0.356941 0.075781 -0.676213 -0.019612 0.075781 -0.676213 -0.019612 0.075781 -1.027324 -0.019612 0.075781 0.000000 0.019612 0.075781 0.000000 0.019612 0.075781 -0.676213 -0.019612 0.075781 -0.676213 -0.019612 0.075781 0.000000 0.019612 -0.075781 0.000000 -0.019612 -0.075781 0.000000 -0.019612 -0.075781 -0.676213 0.019612 -0.075781 -0.676213 0.356941 -0.075781 0.000000 0.019612 -0.075781 0.000000 -0.019612 -0.075781 0.000000 0.356941 0.075781 0.000000 0.356941 -0.075781 0.000000 0.019612 0.075781 0.000000 0.356941 0.075781 0.000000 -0.356941 -0.075781 0.000000 -0.356941 0.075781 0.000000 " />
								<Normal vector="-0.707083 -0.707083 0.000000 -0.707083 0.707083 0.000000 -0.577349 0.577349 -0.577349 -0.577349 -0.577349 -0.577349 0.000000 1.000000 0.000000 0.707083 0.707083 0.000000 0.577349 0.577349 -0.577349 0.000000 0.707083 -0.707083 0.707083 0.707083 0.000000 0.707083 -0.707083 0.000000 0.577349 -0.577349 -0.577349 0.577349 0.577349 -0.577349 0.000000 -1.000000 0.000000 -0.707083 -0.707083 0.000000 -0.577349 -0.577349 -0.577349 0.000000 -0.707083 -0.707083 0.000000 0.707083 0.707083 0.000000 -0.707083 0.707083 0.577349 -0.577349 0.577349 0.577349 0.577349 0.577349 0.000000 0.707083 -0.707083 0.000000 -0.707083 -0.707083 -0.577349 0.577349 -0.577349 0.577349 0.577349 -0.577349 0.577349 -0.577349 -0.577349 0.000000 -0.707083 -0.707083 0.000000 0.707083 -0.707083 -0.577349 0.577349 0.577349 -0.577349 -0.577349 0.577349 0.000000 -0.707083 0.707083 0.000000 0.707083 0.707083 0.707083 -0.707083 0.000000 0.000000 -1.000000 0.000000 0.000000 -0.707083 -0.707083 0.577349 -0.577349 -0.577349 -0.707083 0.707083 0.000000 0.000000 1.000000 0.000000 0.000000 0.707083 -0.707083 0.000000 0.707083 0.707083 0.000000 0.707083 0.707083 0.000000 1.000000 0.000000 0.000000 1.000000 0.000000 0.000000 0.707083 0.707083 0.000000 -0.707083 0.707083 0.000000 -0.707083 0.707083 0.000000 -1.000000 0.000000 0.000000 -1.000000 0.000000 0.577349 -0.577349 0.577349 0.000000 -0.707083 0.707083 0.000000 -0.707083 0.707083 0.577349 0.577349 0.577349 0.577349 -0.577349 0.577349 0.000000 0.707083 0.707083 0.577349 0.577349 0.577349 -0.577349 -0.577349 0.577349 -0.577349 0.577349 0.577349 " />
								<TextureCoordinate point="0.8193 0.5296 0.8193 0.9676 0.9690 0.9676 0.9690 0.5296 0.8193 0.8216 0.8193 0.9676 0.9690 0.9676 0.9690 0.8216 0.8193 0.5296 0.8193 0.9676 0.9690 0.9676 0.9690 0.5296 0.8193 0.8216 0.8193 0.9676 0.9690 0.9676 0.9690 0.8216 0.8230 0.5296 0.8230 0.9676 0.9690 0.9676 0.9690 0.5296 0.8230 0.5296 0.8230 0.9676 0.9690 0.5296 0.5310 0.5296 0.5310 0.9676 0.6770 0.9676 0.6770 0.5296 0.5310 0.5296 0.5310 0.9676 0.6770 0.9676 0.6770 0.5296 0.8193 0.5296 0.8193 0.6756 0.9690 0.6756 0.9690 0.5296 0.8193 0.5296 0.8193 0.6756 0.9690 0.6756 0.0442 0.0312 0.0442 0.2749 0.4433 0.2749 0.4433 0.0312 0.5310 0.6756 0.0576 0.0555 0.0576 0.2625 0.4344 0.2625 0.4344 0.0555 0.5310 0.5296 0.5310 0.6756 0.5310 0.8216 0.5310 0.5296 0.5310 0.9676 0.5310 0.8216 0.5310 0.9676 0.5310 0.5296 0.5310 0.9676 " />
							</IndexedTriangleSet>
						</Shape>
					</Group>
				</Transform>
			</Transform>
			<Transform DEF="Cube_002_TRANSFORM"
			           translation="0.000000 -1.017545 0.000000"
			           scale="1.000000 1.000000 1.000000"
			           rotation="0.000000 1.000000 0.000000 0.000000"
			           >
				<Transform DEF="Cube_002_ifs_TRANSFORM"
				           translation="0.000000 0.000000 0.000000"
				           scale="1.000000 1.000000 1.000000"
				           rotation="0.000000 1.000000 0.000000 0.000000"
				           >
					<Group DEF="group_ME_Cube_023">
						<Shape>
							<Appearance>
								<Material DEF="MA_Eye"
								          diffuseColor="0.800 0.800 0.800"
								          specularColor="0.401 0.401 0.401"
								          emissiveColor="0.000 0.000 0.000"
								          ambientIntensity="0.000"
								          shininess="0.500"
								          transparency="0.0"
								          />
							</Appearance>
							<IndexedTriangleSet solid="false"
							                    normalPerVertex="true"
							                    index="0 1 2 0 2 3 4 5 6 4 6 7 8 9 10 8 10 11 12 13 14 12 14 15 4 13 16 4 16 17 18 19 14 18 14 7 20 21 22 20 22 23 24 25 26 24 26 27 28 29 30 28 30 31 32 33 34 32 34 35 24 36 37 24 37 35 38 25 34 38 34 39 "
							                    >
								<Coordinate point="-0.216107 -0.100039 -0.234071 -0.216107 0.000000 -0.234071 -0.216107 0.000000 0.234071 -0.216107 -0.100039 0.234071 -0.216107 0.000000 -0.234071 -0.445773 0.000000 -0.234071 -0.445773 0.000000 0.234071 -0.216107 0.000000 0.234071 -0.445773 0.000000 -0.234071 -0.445773 -0.100039 -0.234071 -0.445773 -0.100039 0.234071 -0.445773 0.000000 0.234071 -0.445773 -0.100039 -0.234071 -0.216107 -0.100039 -0.234071 -0.216107 -0.100039 0.234071 -0.445773 -0.100039 0.234071 -0.445773 -0.100039 -0.234071 -0.445773 0.000000 -0.234071 -0.445773 0.000000 0.234071 -0.445773 -0.100039 0.234071 0.216107 -0.100039 -0.234071 0.216107 -0.100039 0.234071 0.216107 0.000000 0.234071 0.216107 0.000000 -0.234071 0.216107 0.000000 -0.234071 0.216107 0.000000 0.234071 0.445773 0.000000 0.234071 0.445773 0.000000 -0.234071 0.445773 0.000000 -0.234071 0.445773 0.000000 0.234071 0.445773 -0.100039 0.234071 0.445773 -0.100039 -0.234071 0.445773 -0.100039 -0.234071 0.445773 -0.100039 0.234071 0.216107 -0.100039 0.234071 0.216107 -0.100039 -0.234071 0.445773 0.000000 -0.234071 0.445773 -0.100039 -0.234071 0.445773 0.000000 0.234071 0.445773 -0.100039 0.234071 " />
								<Normal vector="0.577349 -0.577349 -0.577349 0.577349 0.577349 -0.577349 0.577349 0.577349 0.577349 0.577349 -0.577349 0.577349 0.577349 0.577349 -0.577349 -0.577349 0.577349 -0.577349 -0.577349 0.577349 0.577349 0.577349 0.577349 0.577349 -0.577349 0.577349 -0.577349 -0.577349 -0.577349 -0.577349 -0.577349 -0.577349 0.577349 -0.577349 0.577349 0.577349 -0.577349 -0.577349 -0.577349 0.577349 -0.577349 -0.577349 0.577349 -0.577349 0.577349 -0.577349 -0.577349 0.577349 -0.577349 -0.577349 -0.577349 -0.577349 0.577349 -0.577349 -0.577349 0.577349 0.577349 -0.577349 -0.577349 0.577349 -0.577349 -0.577349 -0.577349 -0.577349 -0.577349 0.577349 -0.577349 0.577349 0.577349 -0.577349 0.577349 -0.577349 -0.577349 0.577349 -0.577349 -0.577349 0.577349 0.577349 0.577349 0.577349 0.577349 0.577349 0.577349 -0.577349 0.577349 0.577349 -0.577349 0.577349 0.577349 0.577349 0.577349 -0.577349 0.577349 0.577349 -0.577349 -0.577349 0.577349 -0.577349 -0.577349 0.577349 -0.577349 0.577349 -0.577349 -0.577349 0.577349 -0.577349 -0.577349 -0.577349 0.577349 0.577349 -0.577349 0.577349 -0.577349 -0.577349 0.577349 0.577349 0.577349 0.577349 -0.577349 0.577349 " />
								<TextureCoordinate point="0.1072 0.6732 0.1072 0.9666 0.4006 0.9666 0.4006 0.6732 0.1072 0.6732 0.1072 0.9666 0.4006 0.9666 0.4006 0.6732 0.1072 0.6732 0.1072 0.9666 0.4006 0.9666 0.4006 0.6732 0.1072 0.6732 0.1072 0.9666 0.4006 0.9666 0.4006 0.6732 0.4006 0.9666 0.4006 0.6732 0.1072 0.6732 0.1072 0.9666 0.1072 0.6732 0.4006 0.6732 0.4006 0.9666 0.1072 0.9666 0.1072 0.6732 0.4006 0.6732 0.4006 0.9666 0.1072 0.9666 0.1072 0.6732 0.4006 0.6732 0.4006 0.9666 0.1072 0.9666 0.1072 0.6732 0.4006 0.6732 0.4006 0.9666 0.1072 0.9666 0.4006 0.6732 0.4006 0.9666 0.1072 0.6732 0.1072 0.9666 " />
							</IndexedTriangleSet>
						</Shape>
					</Group>
				</Transform>
			</Transform>
			<Transform DEF="Cube_003_TRANSFORM"
			           translation="-0.314592 -0.963589 0.202652"
			           scale="1.000000 1.000000 1.000000"
			           rotation="0.000000 1.000000 0.000000 0.000000"
			           >
				<Transform DEF="Cube_003_ifs_TRANSFORM"
				           translation="0.000000 0.000000 0.000000"
				           scale="1.000000 1.000000 1.000000"
				           rotation="0.000000 1.000000 0.000000 0.000000"
				           >
					<Group DEF="group_ME_Cube_024">
						<Shape>
							<Appearance>
								<Material USE="MA_Body" />
							</Appearance>
							<IndexedTriangleSet solid="false"
							                    normalPerVertex="true"
							                    index="0 1 2 0 2 3 4 5 6 4 6 7 8 9 10 8 10 11 12 13 14 12 14 15 16 17 18 16 18 19 20 21 14 20 14 22 23 24 25 23 25 26 26 25 21 26 21 20 27 28 29 27 29 30 30 29 17 30 17 16 31 32 33 31 33 34 32 12 15 32 15 33 35 36 37 35 37 22 36 4 7 36 7 37 38 39 40 38 40 41 27 42 36 27 36 35 43 44 45 43 45 46 47 48 32 47 32 31 49 28 13 49 13 12 50 51 9 50 9 8 52 53 5 52 5 4 54 55 1 54 1 0 "
							                    >
								<Coordinate point="-0.519169 -0.070556 0.679079 -0.519169 0.070556 0.679079 -0.817764 0.070556 0.844372 -0.817764 -0.070556 0.844372 -0.695730 0.070556 0.360130 -0.851100 0.070556 0.079459 -1.149695 0.070556 0.244752 -0.994325 0.070556 0.525422 -0.851100 0.070556 0.079459 -0.851100 -0.070556 0.079459 -1.149695 -0.070556 0.244752 -1.149695 0.070556 0.244752 -0.674540 -0.070556 0.398408 -0.519169 -0.070556 0.679079 -0.817764 -0.070556 0.844372 -0.973135 -0.070556 0.563701 -0.010595 0.070556 -0.019139 -0.010595 -0.070556 -0.019139 -0.165965 -0.070556 -0.299810 -0.165965 0.070556 -0.299810 -0.973135 0.070556 0.563701 -0.973135 -0.070556 0.563701 -0.817764 0.070556 0.844372 -1.149695 0.070556 0.244752 -1.149695 -0.070556 0.244752 -0.994325 -0.070556 0.525422 -0.994325 0.070556 0.525422 0.165965 0.070556 0.299810 0.165965 -0.070556 0.299810 0.010595 -0.070556 0.019139 0.010595 0.070556 0.019139 -0.851100 -0.070556 0.079459 -0.695730 -0.070556 0.360130 -0.994325 -0.070556 0.525422 -1.149695 -0.070556 0.244752 -0.519169 0.070556 0.679079 -0.674540 0.070556 0.398408 -0.973135 0.070556 0.563701 0.010595 0.070556 0.019139 -0.010595 0.070556 -0.019139 -0.695730 0.070556 0.360130 -0.674540 0.070556 0.398408 0.010595 0.070556 0.019139 -0.010595 -0.070556 -0.019139 0.010595 -0.070556 0.019139 -0.674540 -0.070556 0.398408 -0.695730 -0.070556 0.360130 -0.165965 -0.070556 -0.299810 -0.010595 -0.070556 -0.019139 0.010595 -0.070556 0.019139 -0.165965 0.070556 -0.299810 -0.165965 -0.070556 -0.299810 -0.010595 0.070556 -0.019139 -0.165965 0.070556 -0.299810 0.165965 -0.070556 0.299810 0.165965 0.070556 0.299810 " />
								<Normal vector="0.342448 -0.707083 0.618641 0.342448 0.707083 0.618641 -0.225501 0.577349 0.784722 -0.225501 -0.577349 0.784722 0.000000 1.000000 0.000000 -0.342448 0.707083 -0.618641 -0.784722 0.577349 -0.225501 -0.618641 0.707083 0.342448 -0.342448 0.707083 -0.618641 -0.342448 -0.707083 -0.618641 -0.784722 -0.577349 -0.225501 -0.784722 0.577349 -0.225501 0.000000 -1.000000 0.000000 0.342448 -0.707083 0.618641 -0.225501 -0.577349 0.784722 -0.618641 -0.707083 0.342448 0.618641 0.707083 -0.342448 0.618641 -0.707083 -0.342448 0.225501 -0.577349 -0.784722 0.225501 0.577349 -0.784722 -0.618641 0.707083 0.342448 -0.618641 -0.707083 0.342448 -0.225501 0.577349 0.784722 -0.784722 0.577349 -0.225501 -0.784722 -0.577349 -0.225501 -0.618641 -0.707083 0.342448 -0.618641 0.707083 0.342448 0.784722 0.577349 0.225501 0.784722 -0.577349 0.225501 0.618641 -0.707083 -0.342448 0.618641 0.707083 -0.342448 -0.342448 -0.707083 -0.618641 0.000000 -1.000000 0.000000 -0.618641 -0.707083 0.342448 -0.784722 -0.577349 -0.225501 0.342448 0.707083 0.618641 0.000000 1.000000 0.000000 -0.618641 0.707083 0.342448 0.618641 0.707083 -0.342448 0.618641 0.707083 -0.342448 0.000000 1.000000 0.000000 0.000000 1.000000 0.000000 0.618641 0.707083 -0.342448 0.618641 -0.707083 -0.342448 0.618641 -0.707083 -0.342448 0.000000 -1.000000 0.000000 0.000000 -1.000000 0.000000 0.225501 -0.577349 -0.784722 0.618641 -0.707083 -0.342448 0.618641 -0.707083 -0.342448 0.225501 0.577349 -0.784722 0.225501 -0.577349 -0.784722 0.618641 0.707083 -0.342448 0.225501 0.577349 -0.784722 0.784722 -0.577349 0.225501 0.784722 0.577349 0.225501 " />
								<TextureCoordinate point="0.8360 0.5296 0.8360 0.9676 0.9690 0.9676 0.9690 0.5296 0.8360 0.8216 0.8360 0.9676 0.9690 0.9676 0.9690 0.8216 0.8360 0.5296 0.8360 0.9676 0.9690 0.9676 0.9690 0.5296 0.8360 0.8216 0.8360 0.9676 0.9690 0.9676 0.9690 0.8216 0.8230 0.5296 0.8230 0.9676 0.9690 0.9676 0.9690 0.5296 0.8230 0.5296 0.8230 0.9676 0.9690 0.5296 0.5310 0.5296 0.5310 0.9676 0.6770 0.9676 0.6770 0.5296 0.5310 0.5296 0.5310 0.9676 0.6770 0.9676 0.6770 0.5296 0.8360 0.5296 0.8360 0.6756 0.9690 0.6756 0.9690 0.5296 0.8360 0.5296 0.8360 0.6756 0.9690 0.6756 0.0442 0.0312 0.0442 0.2749 0.4665 0.2749 0.4665 0.0312 0.5310 0.6756 0.0512 0.0236 0.0512 0.2826 0.4595 0.2826 0.4595 0.0236 0.5310 0.5296 0.5310 0.6756 0.5310 0.8216 0.5310 0.5296 0.5310 0.9676 0.5310 0.8216 0.5310 0.9676 0.5310 0.5296 0.5310 0.9676 " />
							</IndexedTriangleSet>
						</Shape>
					</Group>
				</Transform>
			</Transform>
			<Transform DEF="Cube_004_TRANSFORM"
			           translation="-0.332253 -0.963589 -0.177365"
			           scale="1.000000 1.000000 1.000000"
			           rotation="0.000000 1.000000 0.000000 0.000000"
			           >
				<Transform DEF="Cube_004_ifs_TRANSFORM"
				           translation="0.000000 0.000000 0.000000"
				           scale="1.000000 1.000000 1.000000"
				           rotation="0.000000 1.000000 0.000000 0.000000"
				           >
					<Group DEF="group_ME_Cube_025">
						<Shape>
							<Appearance>
								<Material USE="MA_Body" />
							</Appearance>
							<IndexedTriangleSet solid="false"
							                    normalPerVertex="true"
							                    index="0 1 2 0 2 3 4 5 6 4 6 7 8 9 10 8 10 11 12 13 14 12 14 15 16 17 18 16 18 19 20 21 14 20 14 22 23 24 25 23 25 26 26 25 21 26 21 20 27 28 29 27 29 30 30 29 17 30 17 16 31 32 33 31 33 34 32 12 15 32 15 33 35 36 37 35 37 22 36 4 7 36 7 37 38 39 40 38 40 41 27 42 36 27 36 35 43 44 45 43 45 46 47 48 32 47 32 31 49 28 13 49 13 12 50 51 9 50 9 8 52 53 5 52 5 4 54 55 1 54 1 0 "
							                    >
								<Coordinate point="-0.809412 -0.076475 -0.116045 -0.809412 0.076475 -0.116045 -1.128829 0.076475 -0.316410 -1.128829 -0.076475 -0.316410 -0.623498 0.076475 -0.412424 -0.456772 0.076475 -0.678214 -0.776188 0.076475 -0.878579 -0.942915 0.076475 -0.612789 -0.456772 0.076475 -0.678214 -0.456772 -0.076475 -0.678214 -0.776188 -0.076475 -0.878579 -0.776188 0.076475 -0.878579 -0.642686 -0.076475 -0.381835 -0.809412 -0.076475 -0.116045 -1.128829 -0.076475 -0.316410 -0.962102 -0.076475 -0.582200 0.009594 0.076475 -0.015294 0.009594 -0.076475 -0.015294 0.176320 -0.076475 -0.281085 0.176320 0.076475 -0.281085 -0.962102 0.076475 -0.582200 -0.962102 -0.076475 -0.582200 -1.128829 0.076475 -0.316410 -0.776188 0.076475 -0.878579 -0.776188 -0.076475 -0.878579 -0.942915 -0.076475 -0.612789 -0.942915 0.076475 -0.612789 -0.176320 0.076475 0.281085 -0.176320 -0.076475 0.281085 -0.009594 -0.076475 0.015294 -0.009594 0.076475 0.015294 -0.456772 -0.076475 -0.678214 -0.623498 -0.076475 -0.412424 -0.942915 -0.076475 -0.612789 -0.776188 -0.076475 -0.878579 -0.809412 0.076475 -0.116045 -0.642686 0.076475 -0.381835 -0.962102 0.076475 -0.582200 -0.009594 0.076475 0.015294 0.009594 0.076475 -0.015294 -0.623498 0.076475 -0.412424 -0.642686 0.076475 -0.381835 -0.009594 0.076475 0.015294 0.009594 -0.076475 -0.015294 -0.009594 -0.076475 0.015294 -0.642686 -0.076475 -0.381835 -0.623498 -0.076475 -0.412424 0.176320 -0.076475 -0.281085 0.009594 -0.076475 -0.015294 -0.009594 -0.076475 0.015294 0.176320 0.076475 -0.281085 0.176320 -0.076475 -0.281085 0.009594 0.076475 -0.015294 0.176320 0.076475 -0.281085 -0.176320 -0.076475 0.281085 -0.176320 0.076475 0.281085 " />
								<Normal vector="-0.375744 -0.707083 0.598987 -0.375744 0.707083 0.598987 -0.795862 0.577349 0.182287 -0.795862 -0.577349 0.182287 0.000000 1.000000 0.000000 0.375744 0.707083 -0.598987 -0.182287 0.577349 -0.795862 -0.598987 0.707083 -0.375744 0.375744 0.707083 -0.598987 0.375744 -0.707083 -0.598987 -0.182287 -0.577349 -0.795862 -0.182287 0.577349 -0.795862 0.000000 -1.000000 0.000000 -0.375744 -0.707083 0.598987 -0.795862 -0.577349 0.182287 -0.598987 -0.707083 -0.375744 0.598987 0.707083 0.375744 0.598987 -0.707083 0.375744 0.795862 -0.577349 -0.182287 0.795862 0.577349 -0.182287 -0.598987 0.707083 -0.375744 -0.598987 -0.707083 -0.375744 -0.795862 0.577349 0.182287 -0.182287 0.577349 -0.795862 -0.182287 -0.577349 -0.795862 -0.598987 -0.707083 -0.375744 -0.598987 0.707083 -0.375744 0.182287 0.577349 0.795862 0.182287 -0.577349 0.795862 0.598987 -0.707083 0.375744 0.598987 0.707083 0.375744 0.375744 -0.707083 -0.598987 0.000000 -1.000000 0.000000 -0.598987 -0.707083 -0.375744 -0.182287 -0.577349 -0.795862 -0.375744 0.707083 0.598987 0.000000 1.000000 0.000000 -0.598987 0.707083 -0.375744 0.598987 0.707083 0.375744 0.598987 0.707083 0.375744 0.000000 1.000000 0.000000 0.000000 1.000000 0.000000 0.598987 0.707083 0.375744 0.598987 -0.707083 0.375744 0.598987 -0.707083 0.375744 0.000000 -1.000000 0.000000 0.000000 -1.000000 0.000000 0.795862 -0.577349 -0.182287 0.598987 -0.707083 0.375744 0.598987 -0.707083 0.375744 0.795862 0.577349 -0.182287 0.795862 -0.577349 -0.182287 0.598987 0.707083 0.375744 0.795862 0.577349 -0.182287 0.182287 -0.577349 0.795862 0.182287 0.577349 0.795862 " />
								<TextureCoordinate point="0.8221 0.5296 0.8221 0.9676 0.9690 0.9676 0.9690 0.5296 0.8221 0.8216 0.8221 0.9676 0.9690 0.9676 0.9690 0.8216 0.8221 0.5296 0.8221 0.9676 0.9690 0.9676 0.9690 0.5296 0.8221 0.8216 0.8221 0.9676 0.9690 0.9676 0.9690 0.8216 0.8230 0.5296 0.8230 0.9676 0.9690 0.9676 0.9690 0.5296 0.8230 0.5296 0.8230 0.9676 0.9690 0.5296 0.5310 0.5296 0.5310 0.9676 0.6770 0.9676 0.6770 0.5296 0.5310 0.5296 0.5310 0.9676 0.6770 0.9676 0.6770 0.5296 0.8221 0.5296 0.8221 0.6756 0.9690 0.6756 0.9690 0.5296 0.8221 0.5296 0.8221 0.6756 0.9690 0.6756 0.0442 0.0312 0.0442 0.2749 0.4472 0.2749 0.4472 0.0312 0.5310 0.6756 0.0414 0.0144 0.0414 0.2819 0.4652 0.2819 0.4652 0.0144 0.5310 0.5296 0.5310 0.6756 0.5310 0.8216 0.5310 0.5296 0.5310 0.9676 0.5310 0.8216 0.5310 0.9676 0.5310 0.5296 0.5310 0.9676 " />
							</IndexedTriangleSet>
						</Shape>
					</Group>
				</Transform>
			</Transform>
		</Transform>
	</Scene>
</X3D>