<?xml version="1.0" encoding="UTF-8"?>
<!DOCTYPE X3D PUBLIC "ISO//Web3D//DTD X3D 3.0//EN" "http://www.web3d.org/specifications/x3d-3.0.dtd">
<X3D version="3.0" profile="Immersive" xmlns:xsd="http://www.w3.org/2001/XMLSchema-instance" xsd:noNamespaceSchemaLocation="http://www.web3d.org/specifications/x3d-3.0.xsd">
	<head>
		<meta name="filename" content="gothita.x3d" />
		<meta name="generator" content="Blender 2.93.18" />
	</head>
	<Scene>
		<NavigationInfo headlight="true"
		                visibilityLimit="0.0"
		                type='"EXAMINE", "ANY"'
		                avatarSize="0.25, 1.75, 0.75"
		                />
		<Background DEF="WO_World"
		            groundColor="0.051 0.051 0.051"
		            skyColor="0.051 0.051 0.051"
		            />
		<Transform DEF="body_TRANSFORM"
		           translation="0.000000 -0.131591 0.384658"
		           scale="1.000000 1.000000 1.000000"
		           rotation="0.000000 0.000000 1.000000 3.141593"
		           >
			<Transform DEF="body_ifs_TRANSFORM"
			           translation="0.000000 0.000000 0.000000"
			           scale="1.000000 1.000000 1.000000"
			           rotation="0.000000 1.000000 0.000000 0.000000"
			           >
				<Group DEF="group_ME_body">
					<Shape>
						<Appearance>
							<Material DEF="MA_Body"
							          diffuseColor="0.800 0.800 0.800"
							          specularColor="0.401 0.401 0.401"
							          emissiveColor="0.000 0.000 0.000"
							          ambientIntensity="0.000"
							          shininess="0.500"
							          transparency="0.0"
							          />
						</Appearance>
						<IndexedTriangleSet solid="false"
						                    normalPerVertex="true"
						                    index="0 1 2 0 2 3 4 5 6 4 6 7 8 9 10 8 10 11 12 13 14 12 14 15 16 17 18 16 18 19 20 21 22 20 22 23 24 25 26 24 26 27 28 29 30 28 30 31 32 33 34 32 34 35 36 37 38 36 38 39 40 41 33 40 33 32 42 43 25 42 25 24 44 20 23 44 23 45 36 16 19 36 19 27 46 47 48 46 48 49 50 51 52 50 52 53 40 54 16 40 16 36 55 56 20 55 20 44 57 58 37 57 37 36 59 60 29 59 29 28 56 61 21 56 21 20 54 62 17 54 17 16 63 64 65 63 65 66 67 68 69 67 69 70 "
						                    >
							<Coordinate point="-0.556695 -0.038060 0.231503 -0.556695 -0.126409 0.768903 -0.556695 0.389192 0.853669 -0.556695 0.477541 0.316269 0.000000 0.477541 0.316269 0.000000 0.389192 0.853669 0.556695 0.389192 0.853669 0.556695 0.477541 0.316269 0.556695 -0.038060 0.231503 0.556695 -0.126409 0.768903 0.556695 -0.642010 0.684138 0.556695 -0.553661 0.146738 0.000000 -0.553661 0.146738 0.000000 -0.642010 0.684138 -0.556695 -0.642010 0.684138 -0.556695 -0.553661 0.146738 0.000000 0.000000 0.000000 0.556695 0.000000 0.000000 0.556695 -0.515601 -0.084766 0.000000 -0.515601 -0.084766 0.000000 -0.126409 0.768903 -0.556695 -0.126409 0.768903 -0.556695 -0.642010 0.684138 0.000000 -0.642010 0.684138 0.000000 -0.515601 -0.084766 0.000000 -0.553661 0.146738 -0.556695 -0.553661 0.146738 -0.556695 -0.515601 -0.084766 0.556695 0.000000 0.000000 0.556695 -0.038060 0.231503 0.556695 -0.553661 0.146738 0.556695 -0.515601 -0.084766 0.000000 0.515601 0.084766 0.000000 0.477541 0.316269 0.556695 0.477541 0.316269 0.556695 0.515601 0.084766 -0.556695 0.000000 0.000000 -0.556695 -0.038060 0.231503 -0.556695 0.477541 0.316269 -0.556695 0.515601 0.084766 -0.556695 0.515601 0.084766 -0.556695 0.477541 0.316269 0.556695 -0.515601 -0.084766 0.556695 -0.553661 0.146738 0.556695 -0.126409 0.768903 0.556695 -0.642010 0.684138 0.556695 -0.553661 0.146738 0.556695 -0.642010 0.684138 0.000000 -0.642010 0.684138 0.000000 -0.553661 0.146738 -0.556695 0.477541 0.316269 -0.556695 0.389192 0.853669 0.000000 0.389192 0.853669 0.000000 0.477541 0.316269 0.000000 0.515601 0.084766 0.556695 0.389192 0.853669 0.000000 0.389192 0.853669 -0.556695 -0.515601 -0.084766 -0.556695 -0.553661 0.146738 0.556695 0.515601 0.084766 0.556695 0.477541 0.316269 -0.556695 0.389192 0.853669 0.556695 0.515601 0.084766 0.556695 0.477541 0.316269 0.556695 0.389192 0.853669 0.556695 -0.126409 0.768903 0.556695 -0.038060 0.231503 -0.556695 -0.553661 0.146738 -0.556695 -0.642010 0.684138 -0.556695 -0.126409 0.768903 -0.556695 -0.038060 0.231503 " />
							<Normal vector="-1.000000 0.000000 0.000000 -0.707083 -0.114689 0.697714 -0.577349 0.476028 0.663350 -0.707083 0.697714 0.114689 0.000000 0.986724 0.162206 0.000000 0.583026 0.812433 0.577349 0.476028 0.663350 0.707083 0.697714 0.114689 1.000000 0.000000 0.000000 0.707083 -0.114689 0.697714 0.577349 -0.663350 0.476028 0.707083 -0.697714 -0.114689 0.000000 -0.986724 -0.162206 0.000000 -0.812433 0.583026 -0.577349 -0.663350 0.476028 -0.707083 -0.697714 -0.114689 0.000000 0.162206 -0.986724 0.707083 0.114689 -0.697714 0.577349 -0.476028 -0.663350 0.000000 -0.583026 -0.812433 0.000000 -0.162206 0.986724 -0.707083 -0.114689 0.697714 -0.577349 -0.663350 0.476028 0.000000 -0.812433 0.583026 0.000000 -0.583026 -0.812433 0.000000 -0.986724 -0.162206 -0.707083 -0.697714 -0.114689 -0.577349 -0.476028 -0.663350 0.707083 0.114689 -0.697714 1.000000 0.000000 0.000000 0.707083 -0.697714 -0.114689 0.577349 -0.476028 -0.663350 0.000000 0.812433 -0.583026 0.000000 0.986724 0.162206 0.707083 0.697714 0.114689 0.577349 0.663350 -0.476028 -0.707083 0.114689 -0.697714 -1.000000 0.000000 0.000000 -0.707083 0.697714 0.114689 -0.577349 0.663350 -0.476028 -0.577349 0.663350 -0.476028 -0.707083 0.697714 0.114689 0.577349 -0.476028 -0.663350 0.707083 -0.697714 -0.114689 0.707083 -0.114689 0.697714 0.577349 -0.663350 0.476028 0.707083 -0.697714 -0.114689 0.577349 -0.663350 0.476028 0.000000 -0.812433 0.583026 0.000000 -0.986724 -0.162206 -0.707083 0.697714 0.114689 -0.577349 0.476028 0.663350 0.000000 0.583026 0.812433 0.000000 0.986724 0.162206 0.000000 0.812433 -0.583026 0.577349 0.476028 0.663350 0.000000 0.583026 0.812433 -0.577349 -0.476028 -0.663350 -0.707083 -0.697714 -0.114689 0.577349 0.663350 -0.476028 0.707083 0.697714 0.114689 -0.577349 0.476028 0.663350 0.577349 0.663350 -0.476028 0.707083 0.697714 0.114689 0.577349 0.476028 0.663350 0.707083 -0.114689 0.697714 1.000000 0.000000 0.000000 -0.707083 -0.697714 -0.114689 -0.577349 -0.663350 0.476028 -0.707083 -0.114689 0.697714 -1.000000 0.000000 0.000000 " />
							<TextureCoordinate point="0.5073 0.9946 0.5073 0.5093 0.9927 0.5093 0.9927 0.9946 0.5073 0.9946 0.5073 0.5093 0.9927 0.5093 0.9927 0.9946 0.5073 0.9946 0.5073 0.5093 0.9927 0.5093 0.9927 0.9946 0.5073 0.9946 0.5073 0.5093 0.9927 0.5093 0.9927 0.9946 0.2695 0.2500 0.4172 0.2500 0.4172 0.3976 0.2695 0.3976 0.2695 0.2500 0.4172 0.2500 0.4172 0.3976 0.2695 0.3976 0.1219 0.2500 0.2108 0.2500 0.2108 0.3976 0.1219 0.3976 0.1219 0.2500 0.2108 0.2500 0.2108 0.3976 0.1219 0.3976 0.1219 0.2500 0.2108 0.2500 0.2108 0.3976 0.1219 0.3976 0.1219 0.2500 0.2108 0.2500 0.2108 0.3976 0.1219 0.3976 0.1219 0.1024 0.2108 0.1024 0.1219 0.1024 0.2108 0.1024 0.1219 0.2500 0.1219 0.3976 0.5073 0.9946 0.5073 0.5093 0.9927 0.5093 0.9927 0.9946 0.5073 0.9946 0.5073 0.5093 0.9927 0.5093 0.9927 0.9946 0.2695 0.1024 0.1219 0.1024 0.2695 0.1024 0.1219 0.1024 0.2108 0.1024 0.1219 0.1024 0.2108 0.1024 0.4172 0.1024 0.4172 0.1024 0.5073 0.9946 0.5073 0.5093 0.9927 0.5093 0.9927 0.9946 0.5073 0.9946 0.5073 0.5093 0.9927 0.5093 0.9927 0.9946 " />
						</IndexedTriangleSet>
					</Shape>
				</Group>
			</Transform>
			<Transform DEF="Cube_001_TRANSFORM"
			           translation="0.000000 -0.118927 0.694257"
			           scale="1.000000 1.000000 1.000000"
			           rotation="0.000000 1.000000 0.000000 0.000000"
			           >
				<Transform DEF="Cube_001_ifs_TRANSFORM"
				           translation="0.000000 0.000000 0.000000"
				           scale="1.000000 1.000000 1.000000"
				           rotation="0.000000 1.000000 0.000000 0.000000"
				           >
					<Group DEF="group_ME_Cube_001">
						<Shape>
							<Appearance>
								<Material USE="MA_Body" />
							</Appearance>
							<IndexedTriangleSet solid="false"
							                    normalPerVertex="true"
							                    index="0 1 2 0 2 3 4 5 6 4 6 7 8 9 10 8 10 11 12 13 14 12 14 15 4 16 17 4 17 15 18 5 14 18 14 19 "
							                    >
								<Coordinate point="-0.439651 -0.479768 -0.051852 -0.439651 -0.536689 0.474815 -0.439651 0.422846 0.578520 -0.439651 0.479768 0.051852 -0.439651 0.479768 0.051852 -0.439651 0.422846 0.578520 0.439651 0.422846 0.578520 0.439651 0.479768 0.051852 0.439651 0.479768 0.051852 0.439651 0.422846 0.578520 0.439651 -0.536689 0.474815 0.439651 -0.479768 -0.051852 0.439651 -0.479768 -0.051852 0.439651 -0.536689 0.474815 -0.439651 -0.536689 0.474815 -0.439651 -0.479768 -0.051852 0.439651 0.479768 0.051852 0.439651 -0.479768 -0.051852 0.439651 0.422846 0.578520 0.439651 -0.536689 0.474815 " />
								<Normal vector="-0.577349 -0.511948 -0.636036 -0.577349 -0.636036 0.511948 -0.577349 0.511948 0.636036 -0.577349 0.636036 -0.511948 -0.577349 0.636036 -0.511948 -0.577349 0.511948 0.636036 0.577349 0.511948 0.636036 0.577349 0.636036 -0.511948 0.577349 0.636036 -0.511948 0.577349 0.511948 0.636036 0.577349 -0.636036 0.511948 0.577349 -0.511948 -0.636036 0.577349 -0.511948 -0.636036 0.577349 -0.636036 0.511948 -0.577349 -0.636036 0.511948 -0.577349 -0.511948 -0.636036 0.577349 0.636036 -0.511948 0.577349 -0.511948 -0.636036 0.577349 0.511948 0.636036 0.577349 -0.636036 0.511948 " />
								<TextureCoordinate point="0.1219 0.1024 0.4172 0.1024 0.4172 0.3976 0.1219 0.3976 0.1219 0.1024 0.4172 0.1024 0.4172 0.3976 0.1219 0.3976 0.1219 0.1024 0.4172 0.1024 0.4172 0.3976 0.1219 0.3976 0.1219 0.1024 0.4172 0.1024 0.4172 0.3976 0.1219 0.3976 0.4172 0.1024 0.4172 0.3976 0.1219 0.1024 0.1219 0.3976 " />
							</IndexedTriangleSet>
						</Shape>
					</Group>
				</Transform>
			</Transform>
			<Transform DEF="arm1_TRANSFORM"
			           translation="0.452029 -0.167182 0.958739"
			           scale="1.000000 1.000000 1.000000"
			           rotation="0.000000 1.000000 0.000000 0.000000"
			           >
				<Transform DEF="arm1_ifs_TRANSFORM"
				           translation="0.000000 0.000000 0.000000"
				           scale="1.000000 1.000000 1.000000"
				           rotation="0.000000 1.000000 0.000000 0.000000"
				           >
					<Group DEF="group_ME_arm1">
						<Shape>
							<Appearance>
								<Material USE="MA_Body" />
							</Appearance>
							<IndexedTriangleSet solid="false"
							                    normalPerVertex="true"
							                    index="0 1 2 0 2 3 4 5 6 4 6 7 8 9 10 8 10 11 12 13 14 12 14 15 4 16 17 4 17 15 18 5 14 18 14 19 "
							                    >
								<Coordinate point="0.000000 -0.133200 -0.129040 0.000000 -0.133200 0.129040 0.000000 0.133200 0.129040 0.000000 0.133200 -0.129040 0.000000 0.133200 -0.129040 0.000000 0.133200 0.129040 0.757312 0.133200 0.129040 0.757312 0.133200 -0.129040 0.757312 0.133200 -0.129040 0.757312 0.133200 0.129040 0.757312 -0.133200 0.129040 0.757312 -0.133200 -0.129040 0.757312 -0.133200 -0.129040 0.757312 -0.133200 0.129040 0.000000 -0.133200 0.129040 0.000000 -0.133200 -0.129040 0.757312 0.133200 -0.129040 0.757312 -0.133200 -0.129040 0.757312 0.133200 0.129040 0.757312 -0.133200 0.129040 " />
								<Normal vector="-0.577349 -0.577349 -0.577349 -0.577349 -0.577349 0.577349 -0.577349 0.577349 0.577349 -0.577349 0.577349 -0.577349 -0.577349 0.577349 -0.577349 -0.577349 0.577349 0.577349 0.577349 0.577349 0.577349 0.577349 0.577349 -0.577349 0.577349 0.577349 -0.577349 0.577349 0.577349 0.577349 0.577349 -0.577349 0.577349 0.577349 -0.577349 -0.577349 0.577349 -0.577349 -0.577349 0.577349 -0.577349 0.577349 -0.577349 -0.577349 0.577349 -0.577349 -0.577349 -0.577349 0.577349 0.577349 -0.577349 0.577349 -0.577349 -0.577349 0.577349 0.577349 0.577349 0.577349 -0.577349 0.577349 " />
								<TextureCoordinate point="0.1219 0.1024 0.4172 0.1024 0.4172 0.3976 0.1219 0.3976 0.1219 0.1024 0.4172 0.1024 0.4172 0.3976 0.1219 0.3976 0.1219 0.1024 0.4172 0.1024 0.4172 0.3976 0.1219 0.3976 0.1219 0.1024 0.4172 0.1024 0.4172 0.3976 0.1219 0.3976 0.4172 0.1024 0.4172 0.3976 0.1219 0.1024 0.1219 0.3976 " />
							</IndexedTriangleSet>
						</Shape>
					</Group>
				</Transform>
			</Transform>
			<Transform DEF="leg1_TRANSFORM"
			           translation="0.315867 -0.004999 0.072267"
			           scale="1.000000 1.000000 1.000000"
			           rotation="0.000000 1.000000 0.000000 0.000000"
			           >
				<Transform DEF="leg1_ifs_TRANSFORM"
				           translation="0.000000 0.000000 0.000000"
				           scale="1.000000 1.000000 1.000000"
				           rotation="0.000000 1.000000 0.000000 0.000000"
				           >
					<Group DEF="group_ME_leg1">
						<Shape>
							<Appearance>
								<Material USE="MA_Body" />
							</Appearance>
							<IndexedTriangleSet solid="false"
							                    normalPerVertex="true"
							                    index="0 1 2 0 2 3 4 5 6 4 6 7 8 9 10 8 10 11 12 13 14 12 14 15 4 16 17 4 17 15 18 5 14 18 14 19 "
							                    >
								<Coordinate point="-0.134177 -0.239090 -0.425598 -0.134177 -0.191735 0.020360 -0.134177 0.191735 -0.020360 -0.134177 0.144380 -0.466318 -0.134177 0.144380 -0.466318 -0.134177 0.191735 -0.020360 0.134177 0.191735 -0.020360 0.134177 0.144380 -0.466318 0.134177 0.144380 -0.466318 0.134177 0.191735 -0.020360 0.134177 -0.191735 0.020360 0.134177 -0.239090 -0.425598 0.134177 -0.239090 -0.425598 0.134177 -0.191735 0.020360 -0.134177 -0.191735 0.020360 -0.134177 -0.239090 -0.425598 0.134177 0.144380 -0.466318 0.134177 -0.239090 -0.425598 0.134177 0.191735 -0.020360 0.134177 -0.191735 0.020360 " />
								<Normal vector="-0.577349 -0.635060 -0.513138 -0.577349 -0.513138 0.635060 -0.577349 0.635060 0.513138 -0.577349 0.513138 -0.635060 -0.577349 0.513138 -0.635060 -0.577349 0.635060 0.513138 0.577349 0.635060 0.513138 0.577349 0.513138 -0.635060 0.577349 0.513138 -0.635060 0.577349 0.635060 0.513138 0.577349 -0.513138 0.635060 0.577349 -0.635060 -0.513138 0.577349 -0.635060 -0.513138 0.577349 -0.513138 0.635060 -0.577349 -0.513138 0.635060 -0.577349 -0.635060 -0.513138 0.577349 0.513138 -0.635060 0.577349 -0.635060 -0.513138 0.577349 0.635060 0.513138 0.577349 -0.513138 0.635060 " />
								<TextureCoordinate point="0.1219 0.1024 0.4172 0.1024 0.4172 0.3976 0.1219 0.3976 0.1219 0.1024 0.4172 0.1024 0.4172 0.3976 0.1219 0.3976 0.1219 0.1024 0.4172 0.1024 0.4172 0.3976 0.1219 0.3976 0.1219 0.1024 0.4172 0.1024 0.4172 0.3976 0.1219 0.3976 0.4172 0.1024 0.4172 0.3976 0.1219 0.1024 0.1219 0.3976 " />
							</IndexedTriangleSet>
						</Shape>
					</Group>
				</Transform>
			</Transform>
			<Transform DEF="head_TRANSFORM"
			           translation="0.000000 -0.131591 1.169585"
			           scale="1.000000 1.000000 1.000000"
			           rotation="0.000000 1.000000 0.000000 0.000000"
			           >
				<Transform DEF="head_ifs_TRANSFORM"
				           translation="0.000000 0.000000 0.000000"
				           scale="1.000000 1.000000 1.000000"
				           rotation="0.000000 1.000000 0.000000 0.000000"
				           >
					<Group DEF="group_ME_head">
						<Shape>
							<Appearance>
								<Material USE="MA_Body" />
							</Appearance>
							<IndexedTriangleSet solid="false"
							                    normalPerVertex="true"
							                    index="0 1 2 0 2 3 4 5 6 4 6 7 8 9 10 8 10 11 12 13 14 12 14 15 16 17 18 16 18 19 20 1 14 20 14 21 22 23 24 22 24 25 26 27 28 26 28 29 30 31 32 30 32 33 34 16 19 34 19 35 36 37 38 36 38 39 40 41 13 40 13 12 42 43 44 42 44 45 46 47 5 46 5 4 45 44 48 45 48 49 49 48 47 49 47 46 39 38 50 39 50 51 51 50 41 51 41 40 31 52 53 31 53 32 52 34 35 52 35 53 54 55 56 54 56 57 55 26 29 55 29 56 58 59 60 58 60 61 62 63 59 62 59 58 64 65 66 64 66 67 68 69 65 68 65 64 67 66 70 67 70 71 72 73 69 72 69 68 61 60 74 61 74 75 76 77 63 76 63 62 75 74 78 75 78 33 79 80 81 79 81 82 71 70 83 71 83 84 30 85 86 30 86 87 59 51 40 59 40 60 65 49 46 65 46 66 69 45 49 69 49 65 66 46 4 66 4 70 73 42 45 73 45 69 77 36 39 77 39 63 74 12 15 74 15 78 80 8 11 80 11 81 70 4 7 70 7 83 85 0 3 85 3 86 88 89 0 88 0 85 90 91 8 90 8 80 92 88 85 92 85 30 93 90 80 93 80 79 94 95 26 94 26 55 96 94 55 96 55 54 97 98 34 97 34 52 99 97 52 99 52 31 98 100 16 98 16 34 72 99 31 72 31 30 95 101 27 95 27 26 102 103 23 102 23 22 104 43 1 104 1 20 100 105 17 100 17 16 91 106 9 91 9 8 89 107 1 89 1 0 "
							                    >
								<Coordinate point="-1.190830 -0.000000 1.368550 -1.190830 -0.000000 1.949147 -1.190830 1.072946 1.949147 -1.190830 1.072946 1.368550 1.031643 1.072946 1.368550 1.031643 1.072946 1.949147 1.190830 1.072946 1.949147 1.190830 1.072946 1.368550 1.190830 -0.000000 1.368550 1.190830 -0.000000 1.949147 1.190830 -1.072946 1.949147 1.190830 -1.072946 1.368550 -1.031643 -1.072946 1.368550 -1.031643 -1.072946 1.949147 -1.190830 -1.072946 1.949147 -1.190830 -1.072946 1.368550 1.031643 -0.000000 0.000000 1.190830 0.000000 0.000000 1.190830 -1.072946 -0.000000 1.031643 -1.072946 0.000000 -1.031643 -0.000000 1.949147 -1.031643 -1.072946 1.949147 1.190830 -0.000000 1.949147 1.031643 -0.000000 1.949147 1.031643 -1.072946 1.949147 1.190830 -1.072946 1.949147 -0.133789 -0.000000 1.949147 -1.031643 -0.000000 1.949147 -1.031643 -1.072946 1.949147 -0.133789 -1.072946 1.949147 -1.190830 0.000000 0.000000 -1.031643 -0.000000 0.000000 -1.031643 -1.072946 0.000000 -1.190830 -1.072946 -0.000000 0.133789 -0.000000 0.000000 0.133789 -1.072946 0.000000 1.190830 -1.072946 1.368550 1.190830 -1.072946 1.949147 1.031643 -1.072946 1.949147 1.031643 -1.072946 1.368550 -0.133789 -1.072946 1.368550 -0.133789 -1.072946 1.949147 -1.190830 1.072946 1.368550 -1.190830 1.072946 1.949147 -1.031643 1.072946 1.949147 -1.031643 1.072946 1.368550 0.133789 1.072946 1.368550 0.133789 1.072946 1.949147 -0.133789 1.072946 1.949147 -0.133789 1.072946 1.368550 0.133789 -1.072946 1.949147 0.133789 -1.072946 1.368550 -0.133789 -0.000000 0.000000 -0.133789 -1.072946 0.000000 1.031643 -0.000000 1.949147 0.133789 -0.000000 1.949147 0.133789 -1.072946 1.949147 1.031643 -1.072946 1.949147 0.133789 -1.072946 0.000000 0.133789 -1.072946 0.387065 -0.133789 -1.072946 0.387065 -0.133789 -1.072946 0.000000 1.031643 -1.072946 0.000000 1.031643 -1.072946 0.387065 -0.133789 1.072946 0.000000 -0.133789 1.072946 0.387065 0.133789 1.072946 0.387065 0.133789 1.072946 0.000000 -1.031643 1.072946 0.000000 -1.031643 1.072946 0.387065 1.031643 1.072946 0.387065 1.031643 1.072946 0.000000 -1.190830 1.072946 0.000000 -1.190830 1.072946 0.387065 -1.031643 -1.072946 0.387065 -1.031643 -1.072946 0.000000 1.190830 -1.072946 -0.000000 1.190830 -1.072946 0.387065 -1.190830 -1.072946 0.387065 1.190830 0.000000 0.000000 1.190830 -0.000000 0.387065 1.190830 -1.072946 0.387065 1.190830 -1.072946 -0.000000 1.190830 1.072946 0.387065 1.190830 1.072946 0.000000 -1.190830 -0.000000 0.387065 -1.190830 1.072946 0.387065 -1.190830 1.072946 0.000000 -1.190830 -1.072946 0.387065 -1.190830 -1.072946 1.368550 1.190830 1.072946 0.387065 1.190830 1.072946 1.368550 -1.190830 -1.072946 -0.000000 1.190830 1.072946 0.000000 0.133789 1.072946 1.949147 -0.133789 1.072946 1.949147 1.031643 1.072946 1.949147 -0.133789 1.072946 0.000000 0.133789 1.072946 0.000000 -1.031643 1.072946 0.000000 1.031643 1.072946 0.000000 -1.031643 1.072946 1.949147 1.190830 1.072946 1.949147 1.031643 1.072946 1.949147 -1.031643 1.072946 1.949147 1.190830 1.072946 0.000000 1.190830 1.072946 1.949147 -1.190830 -1.072946 1.949147 " />
								<Normal vector="-1.000000 0.000000 0.000000 -0.707083 0.000000 0.707083 -0.577349 0.577349 0.577349 -0.707083 0.707083 0.000000 0.000000 1.000000 0.000000 0.000000 0.707083 0.707083 0.577349 0.577349 0.577349 0.707083 0.707083 0.000000 1.000000 0.000000 0.000000 0.707083 0.000000 0.707083 0.577349 -0.577349 0.577349 0.707083 -0.707083 0.000000 0.000000 -1.000000 0.000000 0.000000 -0.707083 0.707083 -0.577349 -0.577349 0.577349 -0.707083 -0.707083 0.000000 0.000000 0.000000 -1.000000 0.707083 0.000000 -0.707083 0.577349 -0.577349 -0.577349 0.000000 -0.707083 -0.707083 0.000000 0.000000 1.000000 0.000000 -0.707083 0.707083 0.707083 0.000000 0.707083 0.000000 0.000000 1.000000 0.000000 -0.707083 0.707083 0.577349 -0.577349 0.577349 0.000000 0.000000 1.000000 0.000000 0.000000 1.000000 0.000000 -0.707083 0.707083 0.000000 -0.707083 0.707083 -0.707083 0.000000 -0.707083 0.000000 0.000000 -1.000000 0.000000 -0.707083 -0.707083 -0.577349 -0.577349 -0.577349 0.000000 0.000000 -1.000000 0.000000 -0.707083 -0.707083 0.707083 -0.707083 0.000000 0.577349 -0.577349 0.577349 0.000000 -0.707083 0.707083 0.000000 -1.000000 0.000000 0.000000 -1.000000 0.000000 0.000000 -0.707083 0.707083 -0.707083 0.707083 0.000000 -0.577349 0.577349 0.577349 0.000000 0.707083 0.707083 0.000000 1.000000 0.000000 0.000000 1.000000 0.000000 0.000000 0.707083 0.707083 0.000000 0.707083 0.707083 0.000000 1.000000 0.000000 0.000000 -0.707083 0.707083 0.000000 -1.000000 0.000000 0.000000 0.000000 -1.000000 0.000000 -0.707083 -0.707083 0.000000 0.000000 1.000000 0.000000 0.000000 1.000000 0.000000 -0.707083 0.707083 0.000000 -0.707083 0.707083 0.000000 -0.707083 -0.707083 0.000000 -1.000000 0.000000 0.000000 -1.000000 0.000000 0.000000 -0.707083 -0.707083 0.000000 -0.707083 -0.707083 0.000000 -1.000000 0.000000 0.000000 0.707083 -0.707083 0.000000 1.000000 0.000000 0.000000 1.000000 0.000000 0.000000 0.707083 -0.707083 0.000000 0.707083 -0.707083 0.000000 1.000000 0.000000 0.000000 1.000000 0.000000 0.000000 0.707083 -0.707083 -0.577349 0.577349 -0.577349 -0.707083 0.707083 0.000000 0.000000 -1.000000 0.000000 0.000000 -0.707083 -0.707083 0.577349 -0.577349 -0.577349 0.707083 -0.707083 0.000000 -0.707083 -0.707083 0.000000 0.707083 0.000000 -0.707083 1.000000 0.000000 0.000000 0.707083 -0.707083 0.000000 0.577349 -0.577349 -0.577349 0.707083 0.707083 0.000000 0.577349 0.577349 -0.577349 -1.000000 0.000000 0.000000 -0.707083 0.707083 0.000000 -0.577349 0.577349 -0.577349 -0.707083 -0.707083 0.000000 -0.707083 -0.707083 0.000000 0.707083 0.707083 0.000000 0.707083 0.707083 0.000000 -0.577349 -0.577349 -0.577349 0.577349 0.577349 -0.577349 0.000000 0.707083 0.707083 0.000000 0.707083 0.707083 0.000000 0.707083 0.707083 0.000000 0.707083 -0.707083 0.000000 0.707083 -0.707083 0.000000 0.707083 -0.707083 0.000000 0.707083 -0.707083 0.000000 0.707083 0.707083 0.577349 0.577349 0.577349 0.000000 0.707083 0.707083 0.000000 0.707083 0.707083 0.577349 0.577349 -0.577349 0.577349 0.577349 0.577349 -0.577349 -0.577349 0.577349 " />
								<TextureCoordinate point="0.1594 0.8828 0.2100 0.8828 0.2100 0.9678 0.1594 0.9678 0.1594 0.9112 0.2100 0.9112 0.2100 0.9678 0.1594 0.9678 0.1594 0.8828 0.2100 0.8828 0.2100 0.9678 0.1594 0.9678 0.1594 0.9112 0.2100 0.9112 0.2100 0.9678 0.1594 0.9678 0.1533 0.8828 0.2100 0.8828 0.2100 0.9678 0.1533 0.9678 0.1533 0.8828 0.1533 0.9678 0.0400 0.8828 0.0966 0.8828 0.0966 0.9678 0.0400 0.9678 0.9848 0.2919 0.9848 0.4835 0.6793 0.4835 0.6793 0.2919 0.0400 0.8828 0.0966 0.8828 0.0966 0.9678 0.0400 0.9678 0.1344 0.8828 0.1344 0.9678 0.1594 0.7978 0.2100 0.7978 0.2100 0.8545 0.1594 0.8545 0.1594 0.8923 0.2100 0.8923 0.1594 0.7978 0.2100 0.7978 0.2100 0.8545 0.1594 0.8545 0.1594 0.8923 0.2100 0.8923 0.2100 0.8734 0.1594 0.8734 0.2100 0.8734 0.1594 0.8734 0.1155 0.8828 0.1155 0.9678 0.9848 0.0165 0.9848 0.2081 0.6793 0.2081 0.6793 0.0165 0.0400 0.8734 0.0737 0.8734 0.0737 0.8923 0.0400 0.8923 0.0400 0.8545 0.0737 0.8545 0.0400 0.8734 0.0737 0.8734 0.0737 0.8923 0.0400 0.8923 0.0400 0.8545 0.0737 0.8545 0.0737 0.9112 0.0400 0.9112 0.0400 0.7978 0.0737 0.7978 0.0737 0.9112 0.0400 0.9112 0.0400 0.7978 0.0737 0.7978 0.0737 0.9678 0.0400 0.8828 0.0737 0.8828 0.0737 0.9678 0.0400 0.9678 0.0737 0.9678 0.0400 0.9678 0.0737 0.8828 0.0737 0.9678 0.0400 0.9678 0.0737 0.7978 0.1594 0.7978 0.0737 0.7978 0.1594 0.7978 0.0400 0.7978 0.0400 0.7978 0.6793 0.2081 0.6793 0.2919 0.6793 0.0165 0.1155 0.7978 0.1344 0.7978 0.0966 0.7978 0.1533 0.7978 0.6793 0.4835 0.0400 0.7978 0.0966 0.7978 0.1533 0.7978 0.2100 0.7978 0.2100 0.7978 0.2100 0.7978 " />
							</IndexedTriangleSet>
						</Shape>
						<Shape>
							<Appearance>
								<Material DEF="MA_Eye"
								          diffuseColor="0.800 0.800 0.800"
								          specularColor="0.401 0.401 0.401"
								          emissiveColor="0.000 0.000 0.000"
								          ambientIntensity="0.000"
								          shininess="0.500"
								          transparency="0.0"
								          />
							</Appearance>
							<IndexedTriangleSet solid="false"
							                    normalPerVertex="true"
							                    index="0 1 2 0 2 3 4 5 6 4 6 7 "
							                    >
								<Coordinate point="1.031643 -1.072946 0.387065 1.031643 -1.072946 1.368550 0.133789 -1.072946 1.368550 0.133789 -1.072946 0.387065 -0.133789 -1.072946 0.387065 -0.133789 -1.072946 1.368550 -1.031643 -1.072946 1.368550 -1.031643 -1.072946 0.387065 " />
								<Normal vector="0.000000 -1.000000 0.000000 0.000000 -1.000000 0.000000 0.000000 -1.000000 0.000000 0.000000 -1.000000 0.000000 0.000000 -1.000000 0.000000 0.000000 -1.000000 0.000000 0.000000 -1.000000 0.000000 0.000000 -1.000000 0.000000 " />
								<TextureCoordinate point="0.9499 0.5222 0.9499 0.9863 0.0625 0.9863 0.0625 0.5222 0.0625 0.5222 0.0625 0.9863 0.9499 0.9863 0.9499 0.5222 " />
							</IndexedTriangleSet>
						</Shape>
					</Group>
				</Transform>
				<Transform DEF="top_TRANSFORM"
				           translation="0.000000 -0.037370 1.870368"
				           scale="1.000000 1.000000 1.000000"
				           rotation="0.000000 1.000000 0.000000 0.000000"
				           >
					<Transform DEF="top_ifs_TRANSFORM"
					           translation="0.000000 0.000000 0.000000"
					           scale="1.000000 1.000000 1.000000"
					           rotation="0.000000 1.000000 0.000000 0.000000"
					           >
						<Group DEF="group_ME_top">
							<Shape>
								<Appearance>
									<Material USE="MA_Body" />
								</Appearance>
								<IndexedTriangleSet solid="false"
								                    normalPerVertex="true"
								                    index="0 1 2 0 2 3 4 5 6 4 6 7 8 9 10 8 10 11 12 13 14 12 14 15 4 16 17 4 17 15 18 5 14 18 14 19 "
								                    >
									<Coordinate point="-0.112759 -0.138515 0.027386 -0.112759 -0.087862 0.283585 -0.112759 0.189169 0.228813 -0.112759 0.138515 -0.027386 -0.112759 0.138515 -0.027386 -0.112759 0.189169 0.228813 0.112759 0.189169 0.228813 0.112759 0.138515 -0.027386 0.112759 0.138515 -0.027386 0.112759 0.189169 0.228813 0.112759 -0.087862 0.283585 0.112759 -0.138515 0.027386 0.112759 -0.138515 0.027386 0.112759 -0.087862 0.283585 -0.112759 -0.087862 0.283585 -0.112759 -0.138515 0.027386 0.112759 0.138515 -0.027386 0.112759 -0.138515 0.027386 0.112759 0.189169 0.228813 0.112759 -0.087862 0.283585 " />
									<Normal vector="-0.577349 -0.678365 -0.454390 -0.577349 -0.454390 0.678365 -0.577349 0.678365 0.454390 -0.577349 0.454390 -0.678365 -0.577349 0.454390 -0.678365 -0.577349 0.678365 0.454390 0.577349 0.678365 0.454390 0.577349 0.454390 -0.678365 0.577349 0.454390 -0.678365 0.577349 0.678365 0.454390 0.577349 -0.454390 0.678365 0.577349 -0.678365 -0.454390 0.577349 -0.678365 -0.454390 0.577349 -0.454390 0.678365 -0.577349 -0.454390 0.678365 -0.577349 -0.678365 -0.454390 0.577349 0.454390 -0.678365 0.577349 -0.678365 -0.454390 0.577349 0.678365 0.454390 0.577349 -0.454390 0.678365 " />
									<TextureCoordinate point="0.1219 0.1024 0.4172 0.1024 0.4172 0.3976 0.1219 0.3976 0.1219 0.1024 0.4172 0.1024 0.4172 0.3976 0.1219 0.3976 0.1219 0.1024 0.4172 0.1024 0.4172 0.3976 0.1219 0.3976 0.1219 0.1024 0.4172 0.1024 0.4172 0.3976 0.1219 0.3976 0.4172 0.1024 0.4172 0.3976 0.1219 0.1024 0.1219 0.3976 " />
								</IndexedTriangleSet>
							</Shape>
						</Group>
					</Transform>
					<Transform DEF="Cube_006_TRANSFORM"
					           translation="0.000000 0.027443 0.138803"
					           scale="1.000000 1.000000 1.000000"
					           rotation="0.000000 1.000000 0.000000 0.000000"
					           >
						<Transform DEF="Cube_006_ifs_TRANSFORM"
						           translation="0.000000 0.000000 0.000000"
						           scale="1.000000 1.000000 1.000000"
						           rotation="0.000000 1.000000 0.000000 0.000000"
						           >
							<Group DEF="group_ME_Cube_006">
								<Shape>
									<Appearance>
										<Material USE="MA_Body" />
									</Appearance>
									<IndexedTriangleSet solid="false"
									                    normalPerVertex="true"
									                    index="0 1 2 0 2 3 4 5 6 4 6 7 8 9 10 8 10 11 12 13 14 12 14 15 4 16 17 4 17 15 18 5 14 18 14 19 "
									                    >
										<Coordinate point="-0.278689 -0.254285 0.058079 -0.278689 -0.145948 0.532409 -0.278689 0.362622 0.416251 -0.278689 0.254285 -0.058079 -0.278689 0.254285 -0.058079 -0.278689 0.362622 0.416251 0.278689 0.362622 0.416251 0.278689 0.254285 -0.058079 0.278689 0.254285 -0.058079 0.278689 0.362622 0.416251 0.278689 -0.145948 0.532409 0.278689 -0.254285 0.058079 0.278689 -0.254285 0.058079 0.278689 -0.145948 0.532409 -0.278689 -0.145948 0.532409 -0.278689 -0.254285 0.058079 0.278689 0.254285 -0.058079 0.278689 -0.254285 0.058079 0.278689 0.362622 0.416251 0.278689 -0.145948 0.532409 " />
										<Normal vector="-0.577349 -0.691397 -0.434278 -0.577349 -0.434278 0.691397 -0.577349 0.691397 0.434278 -0.577349 0.434278 -0.691397 -0.577349 0.434278 -0.691397 -0.577349 0.691397 0.434278 0.577349 0.691397 0.434278 0.577349 0.434278 -0.691397 0.577349 0.434278 -0.691397 0.577349 0.691397 0.434278 0.577349 -0.434278 0.691397 0.577349 -0.691397 -0.434278 0.577349 -0.691397 -0.434278 0.577349 -0.434278 0.691397 -0.577349 -0.434278 0.691397 -0.577349 -0.691397 -0.434278 0.577349 0.434278 -0.691397 0.577349 -0.691397 -0.434278 0.577349 0.691397 0.434278 0.577349 -0.434278 0.691397 " />
										<TextureCoordinate point="0.1219 0.1024 0.4172 0.1024 0.4172 0.3976 0.1219 0.3976 0.1219 0.1024 0.4172 0.1024 0.4172 0.3976 0.1219 0.3976 0.1219 0.1024 0.4172 0.1024 0.4172 0.3976 0.1219 0.3976 0.1219 0.1024 0.4172 0.1024 0.4172 0.3976 0.1219 0.3976 0.4172 0.1024 0.4172 0.3976 0.1219 0.1024 0.1219 0.3976 " />
									</IndexedTriangleSet>
								</Shape>
							</Group>
						</Transform>
						<Transform DEF="Cube_007_TRANSFORM"
						           translation="0.000000 0.076679 0.335724"
						           scale="1.000000 1.000000 1.000000"
						           rotation="0.000000 1.000000 0.000000 0.000000"
						           >
							<Transform DEF="Cube_007_ifs_TRANSFORM"
							           translation="0.000000 0.000000 0.000000"
							           scale="1.000000 1.000000 1.000000"
							           rotation="0.000000 1.000000 0.000000 0.000000"
							           >
								<Group DEF="group_ME_Cube_007">
									<Shape>
										<Appearance>
											<Material USE="MA_Body" />
										</Appearance>
										<IndexedTriangleSet solid="false"
										                    normalPerVertex="true"
										                    index="0 1 2 0 2 3 4 5 6 4 6 7 8 9 10 8 10 11 12 13 14 12 14 15 4 16 17 4 17 15 18 5 14 18 14 19 "
										                    >
											<Coordinate point="-0.302484 -0.275996 0.063038 -0.302484 -0.137814 0.668036 -0.302484 0.414178 0.541961 -0.302484 0.275996 -0.063038 -0.302484 0.275996 -0.063038 -0.302484 0.414178 0.541961 0.302484 0.414178 0.541961 0.302484 0.275996 -0.063038 0.302484 0.275996 -0.063038 0.302484 0.414178 0.541961 0.302484 -0.137814 0.668036 0.302484 -0.275996 0.063038 0.302484 -0.275996 0.063038 0.302484 -0.137814 0.668036 -0.302484 -0.137814 0.668036 -0.302484 -0.275996 0.063038 0.302484 0.275996 -0.063038 0.302484 -0.275996 0.063038 0.302484 0.414178 0.541961 0.302484 -0.137814 0.668036 " />
											<Normal vector="-0.577349 -0.691397 -0.434278 -0.577349 -0.434278 0.691397 -0.577349 0.691397 0.434278 -0.577349 0.434278 -0.691397 -0.577349 0.434278 -0.691397 -0.577349 0.691397 0.434278 0.577349 0.691397 0.434278 0.577349 0.434278 -0.691397 0.577349 0.434278 -0.691397 0.577349 0.691397 0.434278 0.577349 -0.434278 0.691397 0.577349 -0.691397 -0.434278 0.577349 -0.691397 -0.434278 0.577349 -0.434278 0.691397 -0.577349 -0.434278 0.691397 -0.577349 -0.691397 -0.434278 0.577349 0.434278 -0.691397 0.577349 -0.691397 -0.434278 0.577349 0.691397 0.434278 0.577349 -0.434278 0.691397 " />
											<TextureCoordinate point="0.1219 0.1024 0.4172 0.1024 0.4172 0.3976 0.1219 0.3976 0.1219 0.1024 0.4172 0.1024 0.4172 0.3976 0.1219 0.3976 0.1219 0.1024 0.4172 0.1024 0.4172 0.3976 0.1219 0.3976 0.1219 0.1024 0.4172 0.1024 0.4172 0.3976 0.1219 0.3976 0.4172 0.1024 0.4172 0.3976 0.1219 0.1024 0.1219 0.3976 " />
										</IndexedTriangleSet>
									</Shape>
								</Group>
							</Transform>
						</Transform>
					</Transform>
				</Transform>
				<Transform DEF="l1_TRANSFORM"
				           translation="1.150320 0.293814 1.470395"
				           scale="1.000000 1.000000 1.000000"
				           rotation="0.000000 1.000000 0.000000 0.000000"
				           >
					<Transform DEF="l1_ifs_TRANSFORM"
					           translation="0.000000 0.000000 0.000000"
					           scale="1.000000 1.000000 1.000000"
					           rotation="0.000000 1.000000 0.000000 0.000000"
					           >
						<Group DEF="group_ME_l1">
							<Shape>
								<Appearance>
									<Material USE="MA_Body" />
								</Appearance>
								<IndexedTriangleSet solid="false"
								                    normalPerVertex="true"
								                    index="0 1 2 0 2 3 4 5 6 4 6 7 8 9 10 8 10 11 12 13 14 12 14 15 4 16 17 4 17 15 18 5 14 18 14 19 "
								                    >
									<Coordinate point="0.012095 -0.043426 -0.405767 -0.283459 0.031267 0.292151 -0.283459 0.426354 0.249869 0.012095 0.351662 -0.448050 0.012095 0.351662 -0.448050 -0.283459 0.426354 0.249869 -0.012095 0.438513 0.363484 0.283459 0.363821 -0.334434 0.283459 0.363821 -0.334434 -0.012095 0.438513 0.363484 -0.012095 0.043426 0.405767 0.283459 -0.031267 -0.292151 0.283459 -0.031267 -0.292151 -0.012095 0.043426 0.405767 -0.283459 0.031267 0.292151 0.012095 -0.043426 -0.405767 0.283459 0.363821 -0.334434 0.283459 -0.031267 -0.292151 -0.012095 0.438513 0.363484 -0.012095 0.043426 0.405767 " />
									<Normal vector="-0.308023 -0.654530 -0.690420 -0.756157 -0.541276 0.367718 -0.756157 0.606830 0.244850 -0.308023 0.493606 -0.813288 -0.308023 0.493606 -0.813288 -0.756157 0.606830 0.244850 0.308023 0.654530 0.690420 0.756157 0.541276 -0.367718 0.756157 0.541276 -0.367718 0.308023 0.654530 0.690420 0.308023 -0.493606 0.813288 0.756157 -0.606830 -0.244850 0.756157 -0.606830 -0.244850 0.308023 -0.493606 0.813288 -0.756157 -0.541276 0.367718 -0.308023 -0.654530 -0.690420 0.756157 0.541276 -0.367718 0.756157 -0.606830 -0.244850 0.308023 0.654530 0.690420 0.308023 -0.493606 0.813288 " />
									<TextureCoordinate point="0.2813 0.7774 0.4765 0.7774 0.4765 0.9726 0.2813 0.9726 0.2813 0.7774 0.4765 0.7774 0.4765 0.9726 0.2813 0.9726 0.2813 0.7774 0.4765 0.7774 0.4765 0.9726 0.2813 0.9726 0.2813 0.7774 0.4765 0.7774 0.4765 0.9726 0.2813 0.9726 0.4765 0.7774 0.4765 0.9726 0.2813 0.7774 0.2813 0.9726 " />
								</IndexedTriangleSet>
							</Shape>
						</Group>
					</Transform>
					<Transform DEF="Cube_009_TRANSFORM"
					           translation="0.000000 0.194663 -0.020833"
					           scale="1.000000 1.000000 1.000000"
					           rotation="0.000000 1.000000 0.000000 0.000000"
					           >
						<Transform DEF="Cube_009_ifs_TRANSFORM"
						           translation="0.000000 0.000000 0.000000"
						           scale="1.000000 1.000000 1.000000"
						           rotation="0.000000 1.000000 0.000000 0.000000"
						           >
							<Group DEF="group_ME_Cube_009">
								<Shape>
									<Appearance>
										<Material USE="MA_Body" />
									</Appearance>
									<IndexedTriangleSet solid="false"
									                    normalPerVertex="true"
									                    index="0 1 2 0 2 3 4 5 6 4 6 7 8 9 10 8 10 11 12 13 14 12 14 15 4 16 17 4 17 15 18 5 14 18 14 19 "
									                    >
										<Coordinate point="-0.045606 -0.067944 -0.634864 -0.427766 0.050674 0.473494 -0.427766 0.669499 0.407266 -0.045606 0.550881 -0.701091 -0.045606 0.550881 -0.701091 -0.427766 0.669499 0.407266 0.045606 0.686769 0.568636 0.427766 0.568151 -0.539721 0.427766 0.568151 -0.539721 0.045606 0.686769 0.568636 0.045606 0.067944 0.634864 0.427766 -0.050674 -0.473494 0.427766 -0.050674 -0.473494 0.045606 0.067944 0.634864 -0.427766 0.050674 0.473494 -0.045606 -0.067944 -0.634864 0.427766 0.568151 -0.539721 0.427766 -0.050674 -0.473494 0.045606 0.686769 0.568636 0.045606 0.067944 0.634864 " />
										<Normal vector="-0.358898 -0.652089 -0.667776 -0.733360 -0.535874 0.418287 -0.733360 0.612262 0.295419 -0.358898 0.496017 -0.790643 -0.358898 0.496017 -0.790643 -0.733360 0.612262 0.295419 0.358898 0.652089 0.667776 0.733360 0.535874 -0.418287 0.733360 0.535874 -0.418287 0.358898 0.652089 0.667776 0.358898 -0.496017 0.790643 0.733360 -0.612262 -0.295419 0.733360 -0.612262 -0.295419 0.358898 -0.496017 0.790643 -0.733360 -0.535874 0.418287 -0.358898 -0.652089 -0.667776 0.733360 0.535874 -0.418287 0.733360 -0.612262 -0.295419 0.358898 0.652089 0.667776 0.358898 -0.496017 0.790643 " />
										<TextureCoordinate point="0.2813 0.7774 0.4765 0.7774 0.4765 0.9726 0.2813 0.9726 0.2813 0.7774 0.4765 0.7774 0.4765 0.9726 0.2813 0.9726 0.2813 0.7774 0.4765 0.7774 0.4765 0.9726 0.2813 0.9726 0.2813 0.7774 0.4765 0.7774 0.4765 0.9726 0.2813 0.9726 0.4765 0.7774 0.4765 0.9726 0.2813 0.7774 0.2813 0.9726 " />
									</IndexedTriangleSet>
								</Shape>
							</Group>
						</Transform>
					</Transform>
				</Transform>
				<Transform DEF="l1_1_TRANSFORM"
				           translation="1.150320 0.293814 1.470395"
				           scale="1.000000 1.000000 1.000000"
				           rotation="0.000000 1.000000 0.000000 0.000000"
				           >
					<Transform DEF="l1_1_ifs_TRANSFORM"
					           translation="0.000000 0.000000 0.000000"
					           scale="1.000000 1.000000 1.000000"
					           rotation="0.000000 1.000000 0.000000 0.000000"
					           >
						<Group DEF="group_ME_l1_1">
							<Shape>
								<Appearance>
									<Material USE="MA_Body" />
								</Appearance>
								<IndexedTriangleSet solid="false"
								                    normalPerVertex="true"
								                    index="0 1 2 0 2 3 4 5 6 4 6 7 8 9 10 8 10 11 12 13 14 12 14 15 4 13 16 4 16 17 18 19 14 18 14 7 "
								                    >
									<Coordinate point="0.010429 -0.076002 -0.400991 0.079261 -0.460162 -0.326389 -0.209272 -0.375967 0.373383 -0.278104 0.008193 0.298781 0.079261 -0.460162 -0.326389 0.346936 -0.392353 -0.224179 0.058402 -0.308157 0.475594 -0.209272 -0.375967 0.373383 0.346936 -0.392353 -0.224179 0.278104 -0.008193 -0.298781 -0.010429 0.076002 0.400991 0.058402 -0.308157 0.475594 0.278104 -0.008193 -0.298781 0.010429 -0.076002 -0.400991 -0.278104 0.008193 0.298781 -0.010429 0.076002 0.400991 0.278104 -0.008193 -0.298781 0.346936 -0.392353 -0.224179 0.058402 -0.308157 0.475594 -0.010429 0.076002 0.400991 " />
									<Normal vector="-0.406140 0.361400 -0.839290 -0.206091 -0.754967 -0.622486 -0.643574 -0.627308 0.438459 -0.843593 0.489029 0.221656 -0.206091 -0.754967 -0.622486 0.843593 -0.489029 -0.221656 0.406140 -0.361400 0.839290 -0.643574 -0.627308 0.438459 0.843593 -0.489029 -0.221656 0.643574 0.627308 -0.438459 0.206091 0.754967 0.622486 0.406140 -0.361400 0.839290 0.643574 0.627308 -0.438459 -0.406140 0.361400 -0.839290 -0.843593 0.489029 0.221656 0.206091 0.754967 0.622486 0.643574 0.627308 -0.438459 0.843593 -0.489029 -0.221656 0.406140 -0.361400 0.839290 0.206091 0.754967 0.622486 " />
									<TextureCoordinate point="0.2813 0.7774 0.2813 0.9726 0.4765 0.9726 0.4765 0.7774 0.2813 0.7774 0.2813 0.9726 0.4765 0.9726 0.4765 0.7774 0.2813 0.7774 0.2813 0.9726 0.4765 0.9726 0.4765 0.7774 0.2813 0.7774 0.2813 0.9726 0.4765 0.9726 0.4765 0.7774 0.4765 0.9726 0.4765 0.7774 0.2813 0.7774 0.2813 0.9726 " />
								</IndexedTriangleSet>
							</Shape>
						</Group>
					</Transform>
					<Transform DEF="Cube_011_TRANSFORM"
					           translation="0.033914 -0.189279 0.036757"
					           scale="1.000000 1.000000 1.000000"
					           rotation="0.000000 1.000000 0.000000 0.000000"
					           >
						<Transform DEF="Cube_011_ifs_TRANSFORM"
						           translation="0.000000 0.000000 0.000000"
						           scale="1.000000 1.000000 1.000000"
						           rotation="0.000000 1.000000 0.000000 0.000000"
						           >
							<Group DEF="group_ME_Cube_011">
								<Shape>
									<Appearance>
										<Material USE="MA_Body" />
									</Appearance>
									<IndexedTriangleSet solid="false"
									                    normalPerVertex="true"
									                    index="0 1 2 0 2 3 4 5 6 4 6 7 8 9 10 8 10 11 12 13 14 12 14 15 4 13 16 4 16 17 18 19 14 18 14 7 "
									                    >
										<Coordinate point="-0.047236 -0.129841 -0.625027 0.060574 -0.731550 -0.508177 -0.311755 -0.583072 0.599929 -0.419566 0.018637 0.483079 0.060574 -0.731550 -0.508177 0.527377 -0.620345 -0.366229 0.155047 -0.471867 0.741876 -0.311755 -0.583072 0.599929 0.527377 -0.620345 -0.366229 0.419566 -0.018637 -0.483079 0.047236 0.129841 0.625027 0.155047 -0.471867 0.741876 0.419566 -0.018637 -0.483079 -0.047236 -0.129841 -0.625027 -0.419566 0.018637 0.483079 0.047236 0.129841 0.625027 0.419566 -0.018637 -0.483079 0.527377 -0.620345 -0.366229 0.155047 -0.471867 0.741876 0.047236 0.129841 0.625027 " />
										<Normal vector="-0.456130 0.357128 -0.815088 -0.256111 -0.759239 -0.598285 -0.620960 -0.613727 0.487533 -0.820978 0.502640 0.270730 -0.256111 -0.759239 -0.598285 0.820978 -0.502640 -0.270730 0.456130 -0.357128 0.815088 -0.620960 -0.613727 0.487533 0.820978 -0.502640 -0.270730 0.620960 0.613727 -0.487533 0.256111 0.759239 0.598285 0.456130 -0.357128 0.815088 0.620960 0.613727 -0.487533 -0.456130 0.357128 -0.815088 -0.820978 0.502640 0.270730 0.256111 0.759239 0.598285 0.620960 0.613727 -0.487533 0.820978 -0.502640 -0.270730 0.456130 -0.357128 0.815088 0.256111 0.759239 0.598285 " />
										<TextureCoordinate point="0.2813 0.7774 0.2813 0.9726 0.4765 0.9726 0.4765 0.7774 0.2813 0.7774 0.2813 0.9726 0.4765 0.9726 0.4765 0.7774 0.2813 0.7774 0.2813 0.9726 0.4765 0.9726 0.4765 0.7774 0.2813 0.7774 0.2813 0.9726 0.4765 0.9726 0.4765 0.7774 0.4765 0.9726 0.4765 0.7774 0.2813 0.7774 0.2813 0.9726 " />
									</IndexedTriangleSet>
								</Shape>
							</Group>
						</Transform>
					</Transform>
				</Transform>
				<Transform DEF="Cube_014_TRANSFORM"
				           translation="0.000000 -1.027465 0.517006"
				           scale="1.000000 1.000000 1.000000"
				           rotation="0.000000 1.000000 0.000000 0.000000"
				           >
					<Transform DEF="Cube_014_ifs_TRANSFORM"
					           translation="0.000000 0.000000 0.000000"
					           scale="1.000000 1.000000 1.000000"
					           rotation="0.000000 1.000000 0.000000 0.000000"
					           >
						<Group DEF="group_ME_Cube_014">
							<Shape>
								<Appearance>
									<Material USE="MA_Body" />
								</Appearance>
								<IndexedTriangleSet solid="false"
								                    normalPerVertex="true"
								                    index="0 1 2 0 2 3 4 5 6 4 6 7 8 9 10 8 10 11 12 13 14 12 14 15 4 16 17 4 17 15 18 5 14 18 14 19 "
								                    >
									<Coordinate point="-0.126278 -0.213247 -0.102944 -0.126278 -0.234504 0.032850 -0.126278 -0.010629 0.067897 -0.126278 0.010629 -0.067897 -0.126278 0.010629 -0.067897 -0.126278 -0.010629 0.067897 0.126278 -0.010629 0.067897 0.126278 0.010629 -0.067897 0.126278 0.010629 -0.067897 0.126278 -0.010629 0.067897 0.126278 -0.234504 0.032850 0.126278 -0.213247 -0.102944 0.126278 -0.213247 -0.102944 0.126278 -0.234504 0.032850 -0.126278 -0.234504 0.032850 -0.126278 -0.213247 -0.102944 0.126278 0.010629 -0.067897 0.126278 -0.213247 -0.102944 0.126278 -0.010629 0.067897 0.126278 -0.234504 0.032850 " />
									<Normal vector="-0.577349 -0.481094 -0.659688 -0.577349 -0.659688 0.481094 -0.577349 0.481094 0.659688 -0.577349 0.659688 -0.481094 -0.577349 0.659688 -0.481094 -0.577349 0.481094 0.659688 0.577349 0.481094 0.659688 0.577349 0.659688 -0.481094 0.577349 0.659688 -0.481094 0.577349 0.481094 0.659688 0.577349 -0.659688 0.481094 0.577349 -0.481094 -0.659688 0.577349 -0.481094 -0.659688 0.577349 -0.659688 0.481094 -0.577349 -0.659688 0.481094 -0.577349 -0.481094 -0.659688 0.577349 0.659688 -0.481094 0.577349 -0.481094 -0.659688 0.577349 0.481094 0.659688 0.577349 -0.659688 0.481094 " />
									<TextureCoordinate point="0.0357 0.5318 0.2143 0.5318 0.2143 0.7104 0.0357 0.7104 0.0357 0.5318 0.2143 0.5318 0.2143 0.7104 0.0357 0.7104 0.0357 0.5318 0.2143 0.5318 0.2143 0.7104 0.0357 0.7104 0.0357 0.5318 0.2143 0.5318 0.2143 0.7104 0.0357 0.7104 0.2143 0.5318 0.2143 0.7104 0.0357 0.5318 0.0357 0.7104 " />
								</IndexedTriangleSet>
							</Shape>
						</Group>
					</Transform>
				</Transform>
				<Transform DEF="mouth_TRANSFORM"
				           translation="0.000000 -1.028808 0.416170"
				           scale="1.000000 1.000000 1.000000"
				           rotation="0.000000 1.000000 0.000000 0.000000"
				           >
					<Transform DEF="mouth_ifs_TRANSFORM"
					           translation="0.000000 0.000000 0.000000"
					           scale="1.000000 1.000000 1.000000"
					           rotation="0.000000 1.000000 0.000000 0.000000"
					           >
						<Group DEF="group_ME_mouth">
							<Shape>
								<Appearance>
									<Material USE="MA_Body" />
								</Appearance>
								<IndexedTriangleSet solid="false"
								                    normalPerVertex="true"
								                    index="0 1 2 0 2 3 4 5 6 4 6 7 8 9 10 8 10 11 12 13 14 12 14 15 4 16 17 4 17 15 18 5 14 18 14 19 "
								                    >
									<Coordinate point="-0.114857 -0.165687 -0.092821 -0.114857 -0.189285 0.015464 -0.114857 -0.011799 0.054143 -0.114857 0.011799 -0.054143 -0.114857 0.011799 -0.054143 -0.114857 -0.011799 0.054143 0.114857 -0.011799 0.054143 0.114857 0.011799 -0.054143 0.114857 0.011799 -0.054143 0.114857 -0.011799 0.054143 0.114857 -0.189285 0.015464 0.114857 -0.165687 -0.092821 0.114857 -0.165687 -0.092821 0.114857 -0.189285 0.015464 -0.114857 -0.189285 0.015464 -0.114857 -0.165687 -0.092821 0.114857 0.011799 -0.054143 0.114857 -0.165687 -0.092821 0.114857 -0.011799 0.054143 0.114857 -0.189285 0.015464 " />
									<Normal vector="-0.577349 -0.441176 -0.687033 -0.577349 -0.687033 0.441176 -0.577349 0.441176 0.687033 -0.577349 0.687033 -0.441176 -0.577349 0.687033 -0.441176 -0.577349 0.441176 0.687033 0.577349 0.441176 0.687033 0.577349 0.687033 -0.441176 0.577349 0.687033 -0.441176 0.577349 0.441176 0.687033 0.577349 -0.687033 0.441176 0.577349 -0.441176 -0.687033 0.577349 -0.441176 -0.687033 0.577349 -0.687033 0.441176 -0.577349 -0.687033 0.441176 -0.577349 -0.441176 -0.687033 0.577349 0.687033 -0.441176 0.577349 -0.441176 -0.687033 0.577349 0.441176 0.687033 0.577349 -0.687033 0.441176 " />
									<TextureCoordinate point="0.0357 0.5318 0.2143 0.5318 0.2143 0.7104 0.0357 0.7104 0.0357 0.5318 0.2143 0.5318 0.2143 0.7104 0.0357 0.7104 0.0357 0.5318 0.2143 0.5318 0.2143 0.7104 0.0357 0.7104 0.0357 0.5318 0.2143 0.5318 0.2143 0.7104 0.0357 0.7104 0.2143 0.5318 0.2143 0.7104 0.0357 0.5318 0.0357 0.7104 " />
								</IndexedTriangleSet>
							</Shape>
						</Group>
					</Transform>
				</Transform>
				<Transform DEF="l2_TRANSFORM"
				           translation="-1.150320 0.293814 1.470395"
				           scale="1.000000 1.000000 1.000000"
				           rotation="0.000000 1.000000 0.000000 0.000000"
				           >
					<Transform DEF="l2_ifs_TRANSFORM"
					           translation="0.000000 0.000000 0.000000"
					           scale="1.000000 1.000000 1.000000"
					           rotation="0.000000 1.000000 0.000000 0.000000"
					           >
						<Group DEF="group_ME_l2">
							<Shape>
								<Appearance>
									<Material USE="MA_Body" />
								</Appearance>
								<IndexedTriangleSet solid="false"
								                    normalPerVertex="true"
								                    index="0 1 2 0 2 3 4 5 6 4 6 7 8 9 10 8 10 11 12 13 14 12 14 15 4 13 16 4 16 17 18 19 14 18 14 7 "
								                    >
									<Coordinate point="-0.012095 -0.043426 -0.405767 -0.012095 0.351662 -0.448050 0.283459 0.426354 0.249869 0.283459 0.031266 0.292151 -0.012095 0.351662 -0.448050 -0.283459 0.363821 -0.334434 0.012095 0.438513 0.363484 0.283459 0.426354 0.249869 -0.283459 0.363821 -0.334434 -0.283459 -0.031266 -0.292151 0.012095 0.043426 0.405767 0.012095 0.438513 0.363484 -0.283459 -0.031266 -0.292151 -0.012095 -0.043426 -0.405767 0.283459 0.031266 0.292151 0.012095 0.043426 0.405767 -0.283459 -0.031266 -0.292151 -0.283459 0.363821 -0.334434 0.012095 0.438513 0.363484 0.012095 0.043426 0.405767 " />
									<Normal vector="0.308023 -0.654530 -0.690420 0.308023 0.493606 -0.813288 0.756157 0.606830 0.244850 0.756157 -0.541276 0.367718 0.308023 0.493606 -0.813288 -0.756157 0.541276 -0.367718 -0.308023 0.654530 0.690420 0.756157 0.606830 0.244850 -0.756157 0.541276 -0.367718 -0.756157 -0.606830 -0.244850 -0.308023 -0.493606 0.813288 -0.308023 0.654530 0.690420 -0.756157 -0.606830 -0.244850 0.308023 -0.654530 -0.690420 0.756157 -0.541276 0.367718 -0.308023 -0.493606 0.813288 -0.756157 -0.606830 -0.244850 -0.756157 0.541276 -0.367718 -0.308023 0.654530 0.690420 -0.308023 -0.493606 0.813288 " />
									<TextureCoordinate point="0.2813 0.7774 0.2813 0.9726 0.4765 0.9726 0.4765 0.7774 0.2813 0.7774 0.2813 0.9726 0.4765 0.9726 0.4765 0.7774 0.2813 0.7774 0.2813 0.9726 0.4765 0.9726 0.4765 0.7774 0.2813 0.7774 0.2813 0.9726 0.4765 0.9726 0.4765 0.7774 0.4765 0.9726 0.4765 0.7774 0.2813 0.7774 0.2813 0.9726 " />
								</IndexedTriangleSet>
							</Shape>
						</Group>
					</Transform>
					<Transform DEF="Cube_002_TRANSFORM"
					           translation="0.000000 0.194663 -0.020833"
					           scale="1.000000 1.000000 1.000000"
					           rotation="0.000000 1.000000 0.000000 0.000000"
					           >
						<Transform DEF="Cube_002_ifs_TRANSFORM"
						           translation="0.000000 0.000000 0.000000"
						           scale="1.000000 1.000000 1.000000"
						           rotation="0.000000 1.000000 0.000000 0.000000"
						           >
							<Group DEF="group_ME_Cube_002">
								<Shape>
									<Appearance>
										<Material USE="MA_Body" />
									</Appearance>
									<IndexedTriangleSet solid="false"
									                    normalPerVertex="true"
									                    index="0 1 2 0 2 3 4 5 6 4 6 7 8 9 10 8 10 11 12 13 14 12 14 15 4 13 16 4 16 17 18 19 14 18 14 7 "
									                    >
										<Coordinate point="0.045606 -0.067944 -0.634864 0.045606 0.550881 -0.701091 0.427766 0.669499 0.407266 0.427766 0.050674 0.473494 0.045606 0.550881 -0.701091 -0.427766 0.568151 -0.539721 -0.045606 0.686769 0.568636 0.427766 0.669499 0.407266 -0.427766 0.568151 -0.539721 -0.427766 -0.050674 -0.473494 -0.045606 0.067944 0.634864 -0.045606 0.686769 0.568636 -0.427766 -0.050674 -0.473494 0.045606 -0.067944 -0.634864 0.427766 0.050674 0.473494 -0.045606 0.067944 0.634864 -0.427766 -0.050674 -0.473494 -0.427766 0.568151 -0.539721 -0.045606 0.686769 0.568636 -0.045606 0.067944 0.634864 " />
										<Normal vector="0.358898 -0.652089 -0.667776 0.358898 0.496017 -0.790643 0.733360 0.612262 0.295419 0.733360 -0.535874 0.418287 0.358898 0.496017 -0.790643 -0.733360 0.535874 -0.418287 -0.358898 0.652089 0.667776 0.733360 0.612262 0.295419 -0.733360 0.535874 -0.418287 -0.733360 -0.612262 -0.295419 -0.358898 -0.496017 0.790643 -0.358898 0.652089 0.667776 -0.733360 -0.612262 -0.295419 0.358898 -0.652089 -0.667776 0.733360 -0.535874 0.418287 -0.358898 -0.496017 0.790643 -0.733360 -0.612262 -0.295419 -0.733360 0.535874 -0.418287 -0.358898 0.652089 0.667776 -0.358898 -0.496017 0.790643 " />
										<TextureCoordinate point="0.2813 0.7774 0.2813 0.9726 0.4765 0.9726 0.4765 0.7774 0.2813 0.7774 0.2813 0.9726 0.4765 0.9726 0.4765 0.7774 0.2813 0.7774 0.2813 0.9726 0.4765 0.9726 0.4765 0.7774 0.2813 0.7774 0.2813 0.9726 0.4765 0.9726 0.4765 0.7774 0.4765 0.9726 0.4765 0.7774 0.2813 0.7774 0.2813 0.9726 " />
									</IndexedTriangleSet>
								</Shape>
							</Group>
						</Transform>
					</Transform>
				</Transform>
				<Transform DEF="l2_1_TRANSFORM"
				           translation="-1.150320 0.293814 1.470395"
				           scale="1.000000 1.000000 1.000000"
				           rotation="0.000000 1.000000 0.000000 0.000000"
				           >
					<Transform DEF="l2_1_ifs_TRANSFORM"
					           translation="0.000000 0.000000 0.000000"
					           scale="1.000000 1.000000 1.000000"
					           rotation="0.000000 1.000000 0.000000 0.000000"
					           >
						<Group DEF="group_ME_l2_1">
							<Shape>
								<Appearance>
									<Material USE="MA_Body" />
								</Appearance>
								<IndexedTriangleSet solid="false"
								                    normalPerVertex="true"
								                    index="0 1 2 0 2 3 4 5 6 4 6 7 8 9 10 8 10 11 12 13 14 12 14 15 4 16 17 4 17 15 18 5 14 18 14 19 "
								                    >
									<Coordinate point="-0.010429 -0.076002 -0.400991 0.278104 0.008193 0.298781 0.209272 -0.375967 0.373383 -0.079261 -0.460162 -0.326389 -0.079261 -0.460162 -0.326389 0.209272 -0.375967 0.373383 -0.058402 -0.308157 0.475594 -0.346936 -0.392353 -0.224179 -0.346936 -0.392353 -0.224179 -0.058402 -0.308157 0.475594 0.010429 0.076002 0.400991 -0.278104 -0.008193 -0.298781 -0.278104 -0.008193 -0.298781 0.010429 0.076002 0.400991 0.278104 0.008193 0.298781 -0.010429 -0.076002 -0.400991 -0.346936 -0.392353 -0.224179 -0.278104 -0.008193 -0.298781 -0.058402 -0.308157 0.475594 0.010429 0.076002 0.400991 " />
									<Normal vector="0.406140 0.361400 -0.839290 0.843593 0.489029 0.221656 0.643574 -0.627308 0.438459 0.206091 -0.754967 -0.622486 0.206091 -0.754967 -0.622486 0.643574 -0.627308 0.438459 -0.406140 -0.361400 0.839290 -0.843593 -0.489029 -0.221656 -0.843593 -0.489029 -0.221656 -0.406140 -0.361400 0.839290 -0.206091 0.754967 0.622486 -0.643574 0.627308 -0.438459 -0.643574 0.627308 -0.438459 -0.206091 0.754967 0.622486 0.843593 0.489029 0.221656 0.406140 0.361400 -0.839290 -0.843593 -0.489029 -0.221656 -0.643574 0.627308 -0.438459 -0.406140 -0.361400 0.839290 -0.206091 0.754967 0.622486 " />
									<TextureCoordinate point="0.2813 0.7774 0.4765 0.7774 0.4765 0.9726 0.2813 0.9726 0.2813 0.7774 0.4765 0.7774 0.4765 0.9726 0.2813 0.9726 0.2813 0.7774 0.4765 0.7774 0.4765 0.9726 0.2813 0.9726 0.2813 0.7774 0.4765 0.7774 0.4765 0.9726 0.2813 0.9726 0.4765 0.7774 0.4765 0.9726 0.2813 0.7774 0.2813 0.9726 " />
								</IndexedTriangleSet>
							</Shape>
						</Group>
					</Transform>
					<Transform DEF="Cube_003_TRANSFORM"
					           translation="-0.033914 -0.189279 0.036757"
					           scale="1.000000 1.000000 1.000000"
					           rotation="0.000000 1.000000 0.000000 0.000000"
					           >
						<Transform DEF="Cube_003_ifs_TRANSFORM"
						           translation="0.000000 0.000000 0.000000"
						           scale="1.000000 1.000000 1.000000"
						           rotation="0.000000 1.000000 0.000000 0.000000"
						           >
							<Group DEF="group_ME_Cube_003">
								<Shape>
									<Appearance>
										<Material USE="MA_Body" />
									</Appearance>
									<IndexedTriangleSet solid="false"
									                    normalPerVertex="true"
									                    index="0 1 2 0 2 3 4 5 6 4 6 7 8 9 10 8 10 11 12 13 14 12 14 15 4 16 17 4 17 15 18 5 14 18 14 19 "
									                    >
										<Coordinate point="0.047236 -0.129841 -0.625027 0.419566 0.018637 0.483079 0.311755 -0.583072 0.599929 -0.060574 -0.731550 -0.508177 -0.060574 -0.731550 -0.508177 0.311755 -0.583072 0.599929 -0.155047 -0.471867 0.741876 -0.527377 -0.620345 -0.366230 -0.527377 -0.620345 -0.366230 -0.155047 -0.471867 0.741876 -0.047236 0.129841 0.625027 -0.419566 -0.018637 -0.483079 -0.419566 -0.018637 -0.483079 -0.047236 0.129841 0.625027 0.419566 0.018637 0.483079 0.047236 -0.129841 -0.625027 -0.527377 -0.620345 -0.366230 -0.419566 -0.018637 -0.483079 -0.155047 -0.471867 0.741876 -0.047236 0.129841 0.625027 " />
										<Normal vector="0.456130 0.357128 -0.815088 0.820978 0.502640 0.270730 0.620960 -0.613727 0.487533 0.256111 -0.759239 -0.598285 0.256111 -0.759239 -0.598285 0.620960 -0.613727 0.487533 -0.456130 -0.357128 0.815088 -0.820978 -0.502640 -0.270730 -0.820978 -0.502640 -0.270730 -0.456130 -0.357128 0.815088 -0.256111 0.759239 0.598285 -0.620960 0.613727 -0.487533 -0.620960 0.613727 -0.487533 -0.256111 0.759239 0.598285 0.820978 0.502640 0.270730 0.456130 0.357128 -0.815088 -0.820978 -0.502640 -0.270730 -0.620960 0.613727 -0.487533 -0.456130 -0.357128 0.815088 -0.256111 0.759239 0.598285 " />
										<TextureCoordinate point="0.2813 0.7774 0.4765 0.7774 0.4765 0.9726 0.2813 0.9726 0.2813 0.7774 0.4765 0.7774 0.4765 0.9726 0.2813 0.9726 0.2813 0.7774 0.4765 0.7774 0.4765 0.9726 0.2813 0.9726 0.2813 0.7774 0.4765 0.7774 0.4765 0.9726 0.2813 0.9726 0.4765 0.7774 0.4765 0.9726 0.2813 0.7774 0.2813 0.9726 " />
									</IndexedTriangleSet>
								</Shape>
							</Group>
						</Transform>
					</Transform>
				</Transform>
			</Transform>
			<Transform DEF="g1_TRANSFORM"
			           translation="0.000000 -0.732694 1.057217"
			           scale="1.000000 1.000000 1.000000"
			           rotation="0.000000 1.000000 0.000000 0.000000"
			           >
				<Transform DEF="g1_ifs_TRANSFORM"
				           translation="0.000000 0.000000 0.000000"
				           scale="1.000000 1.000000 1.000000"
				           rotation="0.000000 1.000000 0.000000 0.000000"
				           >
					<Group DEF="group_ME_g1">
						<Shape>
							<Appearance>
								<Material USE="MA_Body" />
							</Appearance>
							<IndexedTriangleSet solid="false"
							                    normalPerVertex="true"
							                    index="0 1 2 0 2 3 4 5 6 4 6 7 8 9 10 8 10 11 12 13 14 12 14 15 4 16 17 4 17 15 18 5 14 18 14 19 "
							                    >
								<Coordinate point="0.021093 0.163102 -0.167065 0.029860 0.035047 0.229866 0.327232 -0.032439 0.201526 0.318466 0.095617 -0.195405 0.318466 0.095617 -0.195405 0.327232 -0.032439 0.201526 0.276279 -0.230588 0.138726 0.267513 -0.102533 -0.258205 0.267513 -0.102533 -0.258205 0.276279 -0.230588 0.138726 -0.021093 -0.163102 0.167065 -0.029860 -0.035047 -0.229866 -0.029860 -0.035047 -0.229866 -0.021093 -0.163102 0.167065 0.029860 0.035047 0.229866 0.021093 0.163102 -0.167065 0.267513 -0.102533 -0.258205 -0.029860 -0.035047 -0.229866 0.276279 -0.230588 0.138726 -0.021093 -0.163102 0.167065 " />
								<Normal vector="-0.435286 0.838984 -0.326487 -0.411023 0.484542 0.772179 0.710196 0.230079 0.665304 0.685934 0.584521 -0.433332 0.685934 0.584521 -0.433332 0.710196 0.230079 0.665304 0.435286 -0.838984 0.326487 0.411023 -0.484542 -0.772179 0.411023 -0.484542 -0.772179 0.435286 -0.838984 0.326487 -0.685934 -0.584521 0.433332 -0.710196 -0.230079 -0.665304 -0.710196 -0.230079 -0.665304 -0.685934 -0.584521 0.433332 -0.411023 0.484542 0.772179 -0.435286 0.838984 -0.326487 0.411023 -0.484542 -0.772179 -0.710196 -0.230079 -0.665304 0.435286 -0.838984 0.326487 -0.685934 -0.584521 0.433332 " />
								<TextureCoordinate point="0.2827 0.7788 0.4752 0.7788 0.4752 0.9712 0.2827 0.9712 0.2827 0.7788 0.4752 0.7788 0.4752 0.9712 0.2827 0.9712 0.2827 0.7788 0.4752 0.7788 0.4752 0.9712 0.2827 0.9712 0.2827 0.7788 0.4752 0.7788 0.4752 0.9712 0.2827 0.9712 0.4752 0.7788 0.4752 0.9712 0.2827 0.7788 0.2827 0.9712 " />
							</IndexedTriangleSet>
						</Shape>
					</Group>
				</Transform>
				<Transform DEF="Cube_013_TRANSFORM"
				           translation="0.153357 -0.008552 -0.050978"
				           scale="1.000000 1.000000 1.000000"
				           rotation="0.000000 1.000000 0.000000 0.000000"
				           >
					<Transform DEF="Cube_013_ifs_TRANSFORM"
					           translation="0.000000 0.000000 0.000000"
					           scale="1.000000 1.000000 1.000000"
					           rotation="0.000000 1.000000 0.000000 0.000000"
					           >
						<Group DEF="group_ME_Cube_013">
							<Shape>
								<Appearance>
									<Material USE="MA_Body" />
								</Appearance>
								<IndexedTriangleSet solid="false"
								                    normalPerVertex="true"
								                    index="0 1 2 0 2 3 4 5 6 4 6 7 8 9 10 8 10 11 12 13 14 12 14 15 4 16 17 4 17 15 18 5 14 18 14 19 "
								                    >
									<Coordinate point="0.078172 0.314971 -0.178786 0.068474 -0.076093 0.356094 0.494867 -0.249493 0.237049 0.504565 0.141572 -0.297832 0.504565 0.141572 -0.297832 0.494867 -0.249493 0.237049 0.348221 -0.488370 0.059740 0.357919 -0.097306 -0.475140 0.357919 -0.097306 -0.475140 0.348221 -0.488370 0.059740 -0.078172 -0.314971 0.178786 -0.068474 0.076093 -0.356094 -0.068474 0.076093 -0.356094 -0.078172 -0.314971 0.178786 0.068474 -0.076093 0.356094 0.078172 0.314971 -0.178786 0.357919 -0.097306 -0.475140 -0.068474 0.076093 -0.356094 0.348221 -0.488370 0.059740 -0.078172 -0.314971 0.178786 " />
									<Normal vector="-0.254036 0.967101 -0.012787 -0.270943 0.285653 0.919218 0.764580 -0.135441 0.630085 0.781487 0.545946 -0.301920 0.781487 0.545946 -0.301920 0.764580 -0.135441 0.630085 0.254036 -0.967101 0.012787 0.270943 -0.285653 -0.919218 0.270943 -0.285653 -0.919218 0.254036 -0.967101 0.012787 -0.781487 -0.545946 0.301920 -0.764580 0.135441 -0.630085 -0.764580 0.135441 -0.630085 -0.781487 -0.545946 0.301920 -0.270943 0.285653 0.919218 -0.254036 0.967101 -0.012787 0.270943 -0.285653 -0.919218 -0.764580 0.135441 -0.630085 0.254036 -0.967101 0.012787 -0.781487 -0.545946 0.301920 " />
									<TextureCoordinate point="0.2827 0.7788 0.4752 0.7788 0.4752 0.9712 0.2827 0.9712 0.2827 0.7788 0.4752 0.7788 0.4752 0.9712 0.2827 0.9712 0.2827 0.7788 0.4752 0.7788 0.4752 0.9712 0.2827 0.9712 0.2827 0.7788 0.4752 0.7788 0.4752 0.9712 0.2827 0.9712 0.4752 0.7788 0.4752 0.9712 0.2827 0.7788 0.2827 0.9712 " />
								</IndexedTriangleSet>
							</Shape>
						</Group>
					</Transform>
				</Transform>
			</Transform>
			<Transform DEF="arm2_TRANSFORM"
			           translation="-0.452029 -0.167182 0.958739"
			           scale="1.000000 1.000000 1.000000"
			           rotation="0.000000 1.000000 0.000000 0.000000"
			           >
				<Transform DEF="arm2_ifs_TRANSFORM"
				           translation="0.000000 0.000000 0.000000"
				           scale="1.000000 1.000000 1.000000"
				           rotation="0.000000 1.000000 0.000000 0.000000"
				           >
					<Group DEF="group_ME_arm2">
						<Shape>
							<Appearance>
								<Material USE="MA_Body" />
							</Appearance>
							<IndexedTriangleSet solid="false"
							                    normalPerVertex="true"
							                    index="0 1 2 0 2 3 4 5 6 4 6 7 8 9 10 8 10 11 12 13 14 12 14 15 4 13 16 4 16 17 18 19 14 18 14 7 "
							                    >
								<Coordinate point="0.000000 -0.133200 -0.129040 0.000000 0.133200 -0.129040 0.000000 0.133200 0.129040 0.000000 -0.133200 0.129040 0.000000 0.133200 -0.129040 -0.757312 0.133200 -0.129040 -0.757312 0.133200 0.129040 0.000000 0.133200 0.129040 -0.757312 0.133200 -0.129040 -0.757312 -0.133200 -0.129040 -0.757312 -0.133200 0.129040 -0.757312 0.133200 0.129040 -0.757312 -0.133200 -0.129040 0.000000 -0.133200 -0.129040 0.000000 -0.133200 0.129040 -0.757312 -0.133200 0.129040 -0.757312 -0.133200 -0.129040 -0.757312 0.133200 -0.129040 -0.757312 0.133200 0.129040 -0.757312 -0.133200 0.129040 " />
								<Normal vector="0.577349 -0.577349 -0.577349 0.577349 0.577349 -0.577349 0.577349 0.577349 0.577349 0.577349 -0.577349 0.577349 0.577349 0.577349 -0.577349 -0.577349 0.577349 -0.577349 -0.577349 0.577349 0.577349 0.577349 0.577349 0.577349 -0.577349 0.577349 -0.577349 -0.577349 -0.577349 -0.577349 -0.577349 -0.577349 0.577349 -0.577349 0.577349 0.577349 -0.577349 -0.577349 -0.577349 0.577349 -0.577349 -0.577349 0.577349 -0.577349 0.577349 -0.577349 -0.577349 0.577349 -0.577349 -0.577349 -0.577349 -0.577349 0.577349 -0.577349 -0.577349 0.577349 0.577349 -0.577349 -0.577349 0.577349 " />
								<TextureCoordinate point="0.1219 0.1024 0.1219 0.3976 0.4172 0.3976 0.4172 0.1024 0.1219 0.1024 0.1219 0.3976 0.4172 0.3976 0.4172 0.1024 0.1219 0.1024 0.1219 0.3976 0.4172 0.3976 0.4172 0.1024 0.1219 0.1024 0.1219 0.3976 0.4172 0.3976 0.4172 0.1024 0.4172 0.3976 0.4172 0.1024 0.1219 0.1024 0.1219 0.3976 " />
							</IndexedTriangleSet>
						</Shape>
					</Group>
				</Transform>
			</Transform>
			<Transform DEF="leg2_TRANSFORM"
			           translation="-0.315867 -0.004999 0.072267"
			           scale="1.000000 1.000000 1.000000"
			           rotation="0.000000 1.000000 0.000000 0.000000"
			           >
				<Transform DEF="leg2_ifs_TRANSFORM"
				           translation="0.000000 0.000000 0.000000"
				           scale="1.000000 1.000000 1.000000"
				           rotation="0.000000 1.000000 0.000000 0.000000"
				           >
					<Group DEF="group_ME_leg2">
						<Shape>
							<Appearance>
								<Material USE="MA_Body" />
							</Appearance>
							<IndexedTriangleSet solid="false"
							                    normalPerVertex="true"
							                    index="0 1 2 0 2 3 4 5 6 4 6 7 8 9 10 8 10 11 12 13 14 12 14 15 4 13 16 4 16 17 18 19 14 18 14 7 "
							                    >
								<Coordinate point="0.134177 -0.239090 -0.425598 0.134177 0.144380 -0.466318 0.134177 0.191735 -0.020360 0.134177 -0.191735 0.020360 0.134177 0.144380 -0.466318 -0.134177 0.144380 -0.466318 -0.134177 0.191735 -0.020360 0.134177 0.191735 -0.020360 -0.134177 0.144380 -0.466318 -0.134177 -0.239090 -0.425598 -0.134177 -0.191735 0.020360 -0.134177 0.191735 -0.020360 -0.134177 -0.239090 -0.425598 0.134177 -0.239090 -0.425598 0.134177 -0.191735 0.020360 -0.134177 -0.191735 0.020360 -0.134177 -0.239090 -0.425598 -0.134177 0.144380 -0.466318 -0.134177 0.191735 -0.020360 -0.134177 -0.191735 0.020360 " />
								<Normal vector="0.577349 -0.635060 -0.513138 0.577349 0.513138 -0.635060 0.577349 0.635060 0.513138 0.577349 -0.513138 0.635060 0.577349 0.513138 -0.635060 -0.577349 0.513138 -0.635060 -0.577349 0.635060 0.513138 0.577349 0.635060 0.513138 -0.577349 0.513138 -0.635060 -0.577349 -0.635060 -0.513138 -0.577349 -0.513138 0.635060 -0.577349 0.635060 0.513138 -0.577349 -0.635060 -0.513138 0.577349 -0.635060 -0.513138 0.577349 -0.513138 0.635060 -0.577349 -0.513138 0.635060 -0.577349 -0.635060 -0.513138 -0.577349 0.513138 -0.635060 -0.577349 0.635060 0.513138 -0.577349 -0.513138 0.635060 " />
								<TextureCoordinate point="0.1219 0.1024 0.1219 0.3976 0.4172 0.3976 0.4172 0.1024 0.1219 0.1024 0.1219 0.3976 0.4172 0.3976 0.4172 0.1024 0.1219 0.1024 0.1219 0.3976 0.4172 0.3976 0.4172 0.1024 0.1219 0.1024 0.1219 0.3976 0.4172 0.3976 0.4172 0.1024 0.4172 0.3976 0.4172 0.1024 0.1219 0.1024 0.1219 0.3976 " />
							</IndexedTriangleSet>
						</Shape>
					</Group>
				</Transform>
			</Transform>
			<Transform DEF="g2_TRANSFORM"
			           translation="0.000000 -0.732694 1.057217"
			           scale="1.000000 1.000000 1.000000"
			           rotation="0.000000 1.000000 0.000000 0.000000"
			           >
				<Transform DEF="g2_ifs_TRANSFORM"
				           translation="0.000000 0.000000 0.000000"
				           scale="1.000000 1.000000 1.000000"
				           rotation="0.000000 1.000000 0.000000 0.000000"
				           >
					<Group DEF="group_ME_g2">
						<Shape>
							<Appearance>
								<Material USE="MA_Body" />
							</Appearance>
							<IndexedTriangleSet solid="false"
							                    normalPerVertex="true"
							                    index="0 1 2 0 2 3 4 5 6 4 6 7 8 9 10 8 10 11 12 13 14 12 14 15 4 13 16 4 16 17 18 19 14 18 14 7 "
							                    >
								<Coordinate point="-0.021093 0.163102 -0.167065 -0.318466 0.095617 -0.195405 -0.327232 -0.032439 0.201526 -0.029860 0.035047 0.229866 -0.318466 0.095617 -0.195405 -0.267513 -0.102533 -0.258205 -0.276279 -0.230588 0.138726 -0.327232 -0.032439 0.201526 -0.267513 -0.102533 -0.258205 0.029860 -0.035047 -0.229866 0.021093 -0.163102 0.167065 -0.276279 -0.230588 0.138726 0.029860 -0.035047 -0.229866 -0.021093 0.163102 -0.167065 -0.029860 0.035047 0.229866 0.021093 -0.163102 0.167065 0.029860 -0.035047 -0.229866 -0.267513 -0.102533 -0.258205 -0.276279 -0.230588 0.138726 0.021093 -0.163102 0.167065 " />
								<Normal vector="0.435286 0.838984 -0.326487 -0.685934 0.584521 -0.433332 -0.710196 0.230079 0.665304 0.411023 0.484542 0.772179 -0.685934 0.584521 -0.433332 -0.411023 -0.484542 -0.772179 -0.435286 -0.838984 0.326487 -0.710196 0.230079 0.665304 -0.411023 -0.484542 -0.772179 0.710196 -0.230079 -0.665304 0.685934 -0.584521 0.433332 -0.435286 -0.838984 0.326487 0.710196 -0.230079 -0.665304 0.435286 0.838984 -0.326487 0.411023 0.484542 0.772179 0.685934 -0.584521 0.433332 0.710196 -0.230079 -0.665304 -0.411023 -0.484542 -0.772179 -0.435286 -0.838984 0.326487 0.685934 -0.584521 0.433332 " />
								<TextureCoordinate point="0.2827 0.7788 0.2827 0.9712 0.4752 0.9712 0.4752 0.7788 0.2827 0.7788 0.2827 0.9712 0.4752 0.9712 0.4752 0.7788 0.2827 0.7788 0.2827 0.9712 0.4752 0.9712 0.4752 0.7788 0.2827 0.7788 0.2827 0.9712 0.4752 0.9712 0.4752 0.7788 0.4752 0.9712 0.4752 0.7788 0.2827 0.7788 0.2827 0.9712 " />
							</IndexedTriangleSet>
						</Shape>
					</Group>
				</Transform>
				<Transform DEF="Cube_004_TRANSFORM"
				           translation="-0.153357 -0.008552 -0.050978"
				           scale="1.000000 1.000000 1.000000"
				           rotation="0.000000 1.000000 0.000000 0.000000"
				           >
					<Transform DEF="Cube_004_ifs_TRANSFORM"
					           translation="0.000000 0.000000 0.000000"
					           scale="1.000000 1.000000 1.000000"
					           rotation="0.000000 1.000000 0.000000 0.000000"
					           >
						<Group DEF="group_ME_Cube_004">
							<Shape>
								<Appearance>
									<Material USE="MA_Body" />
								</Appearance>
								<IndexedTriangleSet solid="false"
								                    normalPerVertex="true"
								                    index="0 1 2 0 2 3 4 5 6 4 6 7 8 9 10 8 10 11 12 13 14 12 14 15 4 13 16 4 16 17 18 19 14 18 14 7 "
								                    >
									<Coordinate point="-0.078172 0.314971 -0.178786 -0.504565 0.141572 -0.297832 -0.494867 -0.249493 0.237049 -0.068474 -0.076093 0.356094 -0.504565 0.141572 -0.297832 -0.357919 -0.097306 -0.475140 -0.348221 -0.488370 0.059740 -0.494867 -0.249493 0.237049 -0.357919 -0.097306 -0.475140 0.068474 0.076093 -0.356094 0.078172 -0.314971 0.178786 -0.348221 -0.488370 0.059740 0.068474 0.076093 -0.356094 -0.078172 0.314971 -0.178786 -0.068474 -0.076093 0.356094 0.078172 -0.314971 0.178786 0.068474 0.076093 -0.356094 -0.357919 -0.097306 -0.475140 -0.348221 -0.488370 0.059740 0.078172 -0.314971 0.178786 " />
									<Normal vector="0.254036 0.967101 -0.012787 -0.781487 0.545946 -0.301920 -0.764580 -0.135441 0.630085 0.270943 0.285653 0.919218 -0.781487 0.545946 -0.301920 -0.270943 -0.285653 -0.919218 -0.254036 -0.967101 0.012787 -0.764580 -0.135441 0.630085 -0.270943 -0.285653 -0.919218 0.764580 0.135441 -0.630085 0.781487 -0.545946 0.301920 -0.254036 -0.967101 0.012787 0.764580 0.135441 -0.630085 0.254036 0.967101 -0.012787 0.270943 0.285653 0.919218 0.781487 -0.545946 0.301920 0.764580 0.135441 -0.630085 -0.270943 -0.285653 -0.919218 -0.254036 -0.967101 0.012787 0.781487 -0.545946 0.301920 " />
									<TextureCoordinate point="0.2827 0.7788 0.2827 0.9712 0.4752 0.9712 0.4752 0.7788 0.2827 0.7788 0.2827 0.9712 0.4752 0.9712 0.4752 0.7788 0.2827 0.7788 0.2827 0.9712 0.4752 0.9712 0.4752 0.7788 0.2827 0.7788 0.2827 0.9712 0.4752 0.9712 0.4752 0.7788 0.4752 0.9712 0.4752 0.7788 0.2827 0.7788 0.2827 0.9712 " />
								</IndexedTriangleSet>
							</Shape>
						</Group>
					</Transform>
				</Transform>
			</Transform>
		</Transform>
	</Scene>
</X3D>