<?xml version="1.0" encoding="UTF-8"?>
<!DOCTYPE X3D PUBLIC "ISO//Web3D//DTD X3D 3.0//EN" "http://www.web3d.org/specifications/x3d-3.0.dtd">
<X3D version="3.0" profile="Immersive" xmlns:xsd="http://www.w3.org/2001/XMLSchema-instance" xsd:noNamespaceSchemaLocation="http://www.web3d.org/specifications/x3d-3.0.xsd">
	<head>
		<meta name="filename" content="illumise.x3d" />
		<meta name="generator" content="Blender 2.93.18" />
	</head>
	<Scene>
		<NavigationInfo headlight="true"
		                visibilityLimit="0.0"
		                type='"EXAMINE", "ANY"'
		                avatarSize="0.25, 1.75, 0.75"
		                />
		<Background DEF="WO_World"
		            groundColor="0.051 0.051 0.051"
		            skyColor="0.051 0.051 0.051"
		            />
		<Transform DEF="body_TRANSFORM"
		           translation="0.000000 0.022723 0.590222"
		           scale="1.000000 1.000000 1.000000"
		           rotation="0.000000 0.000000 1.000000 3.141593"
		           >
			<Transform DEF="body_ifs_TRANSFORM"
			           translation="0.000000 0.000000 0.000000"
			           scale="1.000000 1.000000 1.000000"
			           rotation="0.000000 1.000000 0.000000 0.000000"
			           >
				<Group DEF="group_ME_body">
					<Shape>
						<Appearance>
							<Material DEF="MA_Body"
							          diffuseColor="0.800 0.800 0.800"
							          specularColor="0.401 0.401 0.401"
							          emissiveColor="0.000 0.000 0.000"
							          ambientIntensity="0.000"
							          shininess="0.500"
							          transparency="0.0"
							          />
						</Appearance>
						<IndexedTriangleSet solid="false"
						                    normalPerVertex="true"
						                    index="0 1 2 0 2 3 4 5 6 4 6 7 8 9 10 8 10 11 12 13 14 12 14 15 4 16 17 4 17 15 18 5 14 18 14 19 "
						                    >
							<Coordinate point="-0.537963 -0.634771 -0.066313 -0.537963 -0.693977 0.500421 -0.537963 0.575565 0.633047 -0.537963 0.634771 0.066313 -0.537963 0.634771 0.066313 -0.537963 0.575565 0.633047 0.537963 0.575565 0.633047 0.537963 0.634771 0.066313 0.537963 0.634771 0.066313 0.537963 0.575565 0.633047 0.537963 -0.693977 0.500421 0.537963 -0.634771 -0.066313 0.537963 -0.634771 -0.066313 0.537963 -0.693977 0.500421 -0.537963 -0.693977 0.500421 -0.537963 -0.634771 -0.066313 0.537963 0.634771 0.066313 0.537963 -0.634771 -0.066313 0.537963 0.575565 0.633047 0.537963 -0.693977 0.500421 " />
							<Normal vector="-0.577349 -0.514237 -0.634205 -0.577349 -0.634205 0.514237 -0.577349 0.514237 0.634205 -0.577349 0.634205 -0.514237 -0.577349 0.634205 -0.514237 -0.577349 0.514237 0.634205 0.577349 0.514237 0.634205 0.577349 0.634205 -0.514237 0.577349 0.634205 -0.514237 0.577349 0.514237 0.634205 0.577349 -0.634205 0.514237 0.577349 -0.514237 -0.634205 0.577349 -0.514237 -0.634205 0.577349 -0.634205 0.514237 -0.577349 -0.634205 0.514237 -0.577349 -0.514237 -0.634205 0.577349 0.634205 -0.514237 0.577349 -0.514237 -0.634205 0.577349 0.514237 0.634205 0.577349 -0.634205 0.514237 " />
							<TextureCoordinate point="0.0139 0.7079 0.1429 0.7079 0.1429 0.8278 0.0139 0.8278 0.0139 0.7079 0.1429 0.7079 0.1429 0.8278 0.0139 0.8278 0.0139 0.7079 0.1429 0.7079 0.1429 0.8278 0.0139 0.8278 0.0139 0.7079 0.1429 0.7079 0.1429 0.8278 0.0139 0.8278 0.1429 0.7079 0.1429 0.8278 0.0139 0.7079 0.0139 0.8278 " />
						</IndexedTriangleSet>
					</Shape>
				</Group>
			</Transform>
			<Transform DEF="Cube_001_TRANSFORM"
			           translation="0.000000 0.046235 0.311142"
			           scale="1.000000 1.000000 1.000000"
			           rotation="0.000000 1.000000 0.000000 0.000000"
			           >
				<Transform DEF="Cube_001_ifs_TRANSFORM"
				           translation="0.000000 0.000000 0.000000"
				           scale="1.000000 1.000000 1.000000"
				           rotation="0.000000 1.000000 0.000000 0.000000"
				           >
					<Group DEF="group_ME_Cube_001">
						<Shape>
							<Appearance>
								<Material USE="MA_Body" />
							</Appearance>
							<IndexedTriangleSet solid="false"
							                    normalPerVertex="true"
							                    index="0 1 2 0 2 3 4 5 6 4 6 7 8 9 10 8 10 11 12 13 14 12 14 15 4 16 17 4 17 15 18 5 14 18 14 19 "
							                    >
								<Coordinate point="-0.876523 -0.537546 -0.092314 -0.876523 -0.654491 0.588664 -0.876523 0.420601 0.773291 -0.876523 0.537546 0.092314 -0.876523 0.537546 0.092314 -0.876523 0.420601 0.773291 0.876523 0.420601 0.773291 0.876523 0.537546 0.092314 0.876523 0.537546 0.092314 0.876523 0.420601 0.773291 0.876523 -0.654491 0.588664 0.876523 -0.537546 -0.092314 0.876523 -0.537546 -0.092314 0.876523 -0.654491 0.588664 -0.876523 -0.654491 0.588664 -0.876523 -0.537546 -0.092314 0.876523 0.537546 0.092314 0.876523 -0.537546 -0.092314 0.876523 0.420601 0.773291 0.876523 -0.654491 0.588664 " />
								<Normal vector="-0.577349 -0.471297 -0.666738 -0.577349 -0.666738 0.471297 -0.577349 0.471297 0.666738 -0.577349 0.666738 -0.471297 -0.577349 0.666738 -0.471297 -0.577349 0.471297 0.666738 0.577349 0.471297 0.666738 0.577349 0.666738 -0.471297 0.577349 0.666738 -0.471297 0.577349 0.471297 0.666738 0.577349 -0.666738 0.471297 0.577349 -0.471297 -0.666738 0.577349 -0.471297 -0.666738 0.577349 -0.666738 0.471297 -0.577349 -0.666738 0.471297 -0.577349 -0.471297 -0.666738 0.577349 0.666738 -0.471297 0.577349 -0.471297 -0.666738 0.577349 0.471297 0.666738 0.577349 -0.666738 0.471297 " />
								<TextureCoordinate point="0.0084 0.7013 0.1483 0.7013 0.1483 0.8344 0.0084 0.8344 0.0084 0.7013 0.1483 0.7013 0.1483 0.8344 0.0084 0.8344 0.0084 0.7013 0.1483 0.7013 0.1483 0.8344 0.0084 0.8344 0.0084 0.7013 0.1483 0.7013 0.1483 0.8344 0.0084 0.8344 0.1483 0.7013 0.1483 0.8344 0.0084 0.7013 0.0084 0.8344 " />
							</IndexedTriangleSet>
						</Shape>
					</Group>
				</Transform>
			</Transform>
			<Transform DEF="Cube_002_TRANSFORM"
			           translation="0.000000 -0.058693 0.854659"
			           scale="1.000000 1.000000 1.000000"
			           rotation="0.000000 1.000000 0.000000 0.000000"
			           >
				<Transform DEF="Cube_002_ifs_TRANSFORM"
				           translation="0.000000 0.000000 0.000000"
				           scale="1.000000 1.000000 1.000000"
				           rotation="0.000000 1.000000 0.000000 0.000000"
				           >
					<Group DEF="group_ME_Cube_002">
						<Shape>
							<Appearance>
								<Material USE="MA_Body" />
							</Appearance>
							<IndexedTriangleSet solid="false"
							                    normalPerVertex="true"
							                    index="0 1 2 0 2 3 4 5 6 4 6 7 8 9 10 8 10 11 12 13 14 12 14 15 4 16 17 4 17 15 18 5 14 18 14 19 "
							                    >
								<Coordinate point="-0.860031 -0.524792 0.024046 -0.860031 -0.479037 1.022603 -0.860031 0.570546 0.974510 -0.860031 0.524792 -0.024046 -0.860031 0.524792 -0.024046 -0.860031 0.570546 0.974510 0.860031 0.570546 0.974510 0.860031 0.524792 -0.024046 0.860031 0.524792 -0.024046 0.860031 0.570546 0.974510 0.860031 -0.479037 1.022603 0.860031 -0.524792 0.024046 0.860031 -0.524792 0.024046 0.860031 -0.479037 1.022603 -0.860031 -0.479037 1.022603 -0.860031 -0.524792 0.024046 0.860031 0.524792 -0.024046 0.860031 -0.524792 0.024046 0.860031 0.570546 0.974510 0.860031 -0.479037 1.022603 " />
								<Normal vector="-0.577349 -0.603168 -0.550310 -0.577349 -0.550310 0.603168 -0.577349 0.603168 0.550310 -0.577349 0.550310 -0.603168 -0.577349 0.550310 -0.603168 -0.577349 0.603168 0.550310 0.577349 0.603168 0.550310 0.577349 0.550310 -0.603168 0.577349 0.550310 -0.603168 0.577349 0.603168 0.550310 0.577349 -0.550310 0.603168 0.577349 -0.603168 -0.550310 0.577349 -0.603168 -0.550310 0.577349 -0.550310 0.603168 -0.577349 -0.550310 0.603168 -0.577349 -0.603168 -0.550310 0.577349 0.550310 -0.603168 0.577349 -0.603168 -0.550310 0.577349 0.603168 0.550310 0.577349 -0.550310 0.603168 " />
								<TextureCoordinate point="0.0084 0.7013 0.1483 0.7013 0.1483 0.8344 0.0084 0.8344 0.0084 0.7013 0.1483 0.7013 0.1483 0.8344 0.0084 0.8344 0.0084 0.7013 0.1483 0.7013 0.1483 0.8344 0.0084 0.8344 0.0084 0.7013 0.1483 0.7013 0.1483 0.8344 0.0084 0.8344 0.1483 0.7013 0.1483 0.8344 0.0084 0.7013 0.0084 0.8344 " />
							</IndexedTriangleSet>
						</Shape>
					</Group>
				</Transform>
			</Transform>
			<Transform DEF="Cube_003_TRANSFORM"
			           translation="0.000000 -0.603774 0.464468"
			           scale="1.000000 1.000000 1.000000"
			           rotation="0.000000 1.000000 0.000000 0.000000"
			           >
				<Transform DEF="Cube_003_ifs_TRANSFORM"
				           translation="0.000000 0.000000 0.000000"
				           scale="1.000000 1.000000 1.000000"
				           rotation="0.000000 1.000000 0.000000 0.000000"
				           >
					<Group DEF="group_ME_Cube_003">
						<Shape>
							<Appearance>
								<Material USE="MA_Body" />
							</Appearance>
							<IndexedTriangleSet solid="false"
							                    normalPerVertex="true"
							                    index="0 1 2 0 2 3 4 5 6 4 6 7 8 9 10 8 10 11 12 13 14 12 14 15 16 17 18 16 18 19 20 21 22 20 22 23 24 20 23 24 23 25 26 16 19 26 19 27 28 29 13 28 13 12 30 31 5 30 5 4 "
							                    >
								<Coordinate point="-0.624259 -0.108968 0.003227 -0.624259 -0.075096 1.147123 -0.624259 0.142839 1.140669 -0.624259 0.108968 -0.003227 0.000000 0.108968 -0.003227 0.000000 0.142839 1.140669 0.624259 0.142839 1.140669 0.624259 0.108968 -0.003227 0.624259 0.108968 -0.003227 0.624259 0.142839 1.140669 0.624259 -0.075096 1.147123 0.624259 -0.108968 0.003227 0.000000 -0.108968 0.003227 0.000000 -0.075096 1.147123 -0.624259 -0.075096 1.147123 -0.624259 -0.108968 0.003227 0.000000 0.108968 -0.003227 0.624259 0.108968 -0.003227 0.624259 -0.108968 0.003227 0.000000 -0.108968 0.003227 0.000000 0.142839 1.140669 -0.624259 0.142839 1.140669 -0.624259 -0.075096 1.147123 0.000000 -0.075096 1.147123 0.624259 0.142839 1.140669 0.624259 -0.075096 1.147123 -0.624259 0.108968 -0.003227 -0.624259 -0.108968 0.003227 0.624259 -0.108968 0.003227 0.624259 -0.075096 1.147123 -0.624259 0.108968 -0.003227 -0.624259 0.142839 1.140669 " />
								<Normal vector="-0.577349 -0.594165 -0.559984 -0.577349 -0.559984 0.594165 -0.577349 0.594165 0.559984 -0.577349 0.559984 -0.594165 0.000000 0.685842 -0.727714 0.000000 0.727714 0.685842 0.577349 0.594165 0.559984 0.577349 0.559984 -0.594165 0.577349 0.559984 -0.594165 0.577349 0.594165 0.559984 0.577349 -0.559984 0.594165 0.577349 -0.594165 -0.559984 0.000000 -0.727714 -0.685842 0.000000 -0.685842 0.727714 -0.577349 -0.559984 0.594165 -0.577349 -0.594165 -0.559984 0.000000 0.685842 -0.727714 0.577349 0.559984 -0.594165 0.577349 -0.594165 -0.559984 0.000000 -0.727714 -0.685842 0.000000 0.727714 0.685842 -0.577349 0.594165 0.559984 -0.577349 -0.559984 0.594165 0.000000 -0.685842 0.727714 0.577349 0.594165 0.559984 0.577349 -0.559984 0.594165 -0.577349 0.559984 -0.594165 -0.577349 -0.594165 -0.559984 0.577349 -0.594165 -0.559984 0.577349 -0.559984 0.594165 -0.577349 0.559984 -0.594165 -0.577349 0.594165 0.559984 " />
								<TextureCoordinate point="0.0141 0.6976 0.1405 0.6976 0.1405 0.8307 0.0141 0.8307 0.0202 0.9254 0.3236 0.9254 0.3236 0.9919 0.0202 0.9919 0.0141 0.6976 0.1405 0.6976 0.1405 0.8307 0.0141 0.8307 0.9915 0.0060 0.9915 0.4829 0.5702 0.4829 0.5702 0.0060 0.0773 0.6976 0.1405 0.6976 0.1405 0.8307 0.0773 0.8307 0.0773 0.6976 0.1405 0.6976 0.1405 0.8307 0.0773 0.8307 0.0141 0.6976 0.0141 0.8307 0.0141 0.6976 0.0141 0.8307 0.5702 0.0060 0.5702 0.4829 0.0202 0.8588 0.3236 0.8588 " />
							</IndexedTriangleSet>
						</Shape>
					</Group>
				</Transform>
			</Transform>
			<Transform DEF="head_TRANSFORM"
			           translation="0.000000 -0.422046 1.567782"
			           scale="1.000000 1.000000 1.000000"
			           rotation="0.000000 1.000000 0.000000 0.000000"
			           >
				<Transform DEF="head_ifs_TRANSFORM"
				           translation="0.000000 0.000000 0.000000"
				           scale="1.000000 1.000000 1.000000"
				           rotation="0.000000 1.000000 0.000000 0.000000"
				           >
					<Group DEF="group_ME_head">
						<Shape>
							<Appearance>
								<Material USE="MA_Body" />
							</Appearance>
							<IndexedTriangleSet solid="false"
							                    normalPerVertex="true"
							                    index="0 1 2 0 2 3 4 5 6 4 6 7 8 9 10 8 10 11 12 13 14 12 14 15 16 17 18 16 18 19 20 21 14 20 14 22 23 24 25 23 25 26 24 27 28 24 28 25 27 29 30 27 30 28 29 20 22 29 22 30 31 32 33 31 33 34 32 35 36 32 36 33 35 37 38 35 38 36 37 16 19 37 19 38 39 40 41 39 41 42 42 41 43 42 43 44 44 43 45 44 45 46 46 45 13 46 13 12 47 21 48 47 48 49 49 48 50 49 50 51 51 50 52 51 52 53 53 52 5 53 5 4 54 55 56 54 56 57 58 59 55 58 55 54 60 61 59 60 59 58 62 63 61 62 61 60 64 65 66 64 66 67 68 69 70 68 70 71 72 73 69 72 69 68 67 66 74 67 74 75 76 77 78 76 78 79 57 56 80 57 80 81 82 83 84 82 84 85 55 53 4 55 4 56 59 51 53 59 53 55 61 49 51 61 51 59 63 47 49 63 49 61 70 44 46 70 46 65 73 39 42 73 42 69 66 12 15 66 15 74 77 8 11 77 11 78 56 4 7 56 7 80 83 0 3 83 3 84 86 82 85 86 85 87 88 57 81 88 81 89 90 76 79 90 79 91 92 67 75 92 75 34 93 72 68 93 68 94 94 68 71 94 71 95 95 71 64 95 64 96 96 64 67 96 67 92 31 62 60 31 60 97 97 60 58 97 58 98 98 58 54 98 54 99 99 54 57 99 57 88 "
							                    >
								<Coordinate point="-0.748787 -0.621014 0.909858 -0.748787 -0.621014 1.364342 -0.748787 0.621014 1.364342 -0.748787 0.621014 0.909858 0.690431 0.621014 0.909858 0.690431 0.621014 1.364342 0.748787 0.621014 1.364342 0.748787 0.621014 0.909858 0.748787 0.621014 0.909858 0.748787 0.621014 1.364342 0.748787 -0.621014 1.364342 0.748787 -0.621014 0.909858 -0.690431 -0.621014 0.909858 -0.690431 -0.621014 1.364342 -0.748787 -0.621014 1.364342 -0.748787 -0.621014 0.909858 0.690431 0.621014 0.000000 0.748787 0.621014 0.000000 0.748787 -0.621014 0.000000 0.690431 -0.621014 0.000000 -0.690431 0.621014 1.364342 -0.748787 0.621014 1.364342 -0.690431 -0.621014 1.364342 0.748787 0.621014 1.364342 0.690431 0.621014 1.364342 0.690431 -0.621014 1.364342 0.748787 -0.621014 1.364342 0.193499 0.621014 1.364342 0.193499 -0.621014 1.364342 -0.193499 0.621014 1.364342 -0.193499 -0.621014 1.364342 -0.748787 0.621014 0.000000 -0.690431 0.621014 0.000000 -0.690431 -0.621014 0.000000 -0.748787 -0.621014 0.000000 -0.193499 0.621014 0.000000 -0.193499 -0.621014 0.000000 0.193499 0.621014 0.000000 0.193499 -0.621014 0.000000 0.748787 -0.621014 0.909858 0.748787 -0.621014 1.364342 0.690431 -0.621014 1.364342 0.690431 -0.621014 0.909858 0.193499 -0.621014 1.364342 0.193499 -0.621014 0.909858 -0.193499 -0.621014 1.364342 -0.193499 -0.621014 0.909858 -0.748787 0.621014 0.909858 -0.690431 0.621014 1.364342 -0.690431 0.621014 0.909858 -0.193499 0.621014 1.364342 -0.193499 0.621014 0.909858 0.193499 0.621014 1.364342 0.193499 0.621014 0.909858 0.193499 0.621014 0.140429 0.193499 0.621014 0.401227 0.690431 0.621014 0.401227 0.690431 0.621014 0.140429 -0.193499 0.621014 0.140429 -0.193499 0.621014 0.401227 -0.690431 0.621014 0.140429 -0.690431 0.621014 0.401227 -0.748787 0.621014 0.140429 -0.748787 0.621014 0.401227 -0.193499 -0.621014 0.140429 -0.193499 -0.621014 0.401227 -0.690431 -0.621014 0.401227 -0.690431 -0.621014 0.140429 0.690431 -0.621014 0.140429 0.690431 -0.621014 0.401227 0.193499 -0.621014 0.401227 0.193499 -0.621014 0.140429 0.748787 -0.621014 0.140429 0.748787 -0.621014 0.401227 -0.748787 -0.621014 0.401227 -0.748787 -0.621014 0.140429 0.748787 0.621014 0.140429 0.748787 0.621014 0.401227 0.748787 -0.621014 0.401227 0.748787 -0.621014 0.140429 0.748787 0.621014 0.401227 0.748787 0.621014 0.140429 -0.748787 -0.621014 0.140429 -0.748787 -0.621014 0.401227 -0.748787 0.621014 0.401227 -0.748787 0.621014 0.140429 -0.748787 -0.621014 0.000000 -0.748787 0.621014 0.000000 0.690431 0.621014 0.000000 0.748787 0.621014 0.000000 0.748787 0.621014 0.000000 0.748787 -0.621014 0.000000 -0.690431 -0.621014 0.000000 0.748787 -0.621014 0.000000 0.690431 -0.621014 0.000000 0.193499 -0.621014 0.000000 -0.193499 -0.621014 0.000000 -0.690431 0.621014 0.000000 -0.193499 0.621014 0.000000 0.193499 0.621014 0.000000 " />
								<Normal vector="-0.707083 -0.707083 0.000000 -0.577349 -0.577349 0.577349 -0.577349 0.577349 0.577349 -0.707083 0.707083 0.000000 0.000000 1.000000 0.000000 0.000000 0.707083 0.707083 0.577349 0.577349 0.577349 0.707083 0.707083 0.000000 0.707083 0.707083 0.000000 0.577349 0.577349 0.577349 0.577349 -0.577349 0.577349 0.707083 -0.707083 0.000000 0.000000 -1.000000 0.000000 0.000000 -0.707083 0.707083 -0.577349 -0.577349 0.577349 -0.707083 -0.707083 0.000000 0.000000 0.707083 -0.707083 0.577349 0.577349 -0.577349 0.577349 -0.577349 -0.577349 0.000000 -0.707083 -0.707083 0.000000 0.707083 0.707083 -0.577349 0.577349 0.577349 0.000000 -0.707083 0.707083 0.577349 0.577349 0.577349 0.000000 0.707083 0.707083 0.000000 -0.707083 0.707083 0.577349 -0.577349 0.577349 0.000000 0.707083 0.707083 0.000000 -0.707083 0.707083 0.000000 0.707083 0.707083 0.000000 -0.707083 0.707083 -0.577349 0.577349 -0.577349 0.000000 0.707083 -0.707083 0.000000 -0.707083 -0.707083 -0.577349 -0.577349 -0.577349 0.000000 0.707083 -0.707083 0.000000 -0.707083 -0.707083 0.000000 0.707083 -0.707083 0.000000 -0.707083 -0.707083 0.707083 -0.707083 0.000000 0.577349 -0.577349 0.577349 0.000000 -0.707083 0.707083 0.000000 -1.000000 0.000000 0.000000 -0.707083 0.707083 0.000000 -1.000000 0.000000 0.000000 -0.707083 0.707083 0.000000 -1.000000 0.000000 -0.707083 0.707083 0.000000 0.000000 0.707083 0.707083 0.000000 1.000000 0.000000 0.000000 0.707083 0.707083 0.000000 1.000000 0.000000 0.000000 0.707083 0.707083 0.000000 1.000000 0.000000 0.000000 1.000000 0.000000 0.000000 1.000000 0.000000 0.000000 1.000000 0.000000 0.000000 1.000000 0.000000 0.000000 1.000000 0.000000 0.000000 1.000000 0.000000 0.000000 1.000000 0.000000 0.000000 1.000000 0.000000 -0.707083 0.707083 0.000000 -0.707083 0.707083 0.000000 0.000000 -1.000000 0.000000 0.000000 -1.000000 0.000000 0.000000 -1.000000 0.000000 0.000000 -1.000000 0.000000 0.000000 -1.000000 0.000000 0.000000 -1.000000 0.000000 0.000000 -1.000000 0.000000 0.000000 -1.000000 0.000000 0.707083 -0.707083 0.000000 0.707083 -0.707083 0.000000 -0.707083 -0.707083 0.000000 -0.707083 -0.707083 0.000000 0.707083 0.707083 0.000000 0.707083 0.707083 0.000000 0.707083 -0.707083 0.000000 0.707083 -0.707083 0.000000 0.707083 0.707083 0.000000 0.707083 0.707083 0.000000 -0.707083 -0.707083 0.000000 -0.707083 -0.707083 0.000000 -0.707083 0.707083 0.000000 -0.707083 0.707083 0.000000 -0.577349 -0.577349 -0.577349 -0.577349 0.577349 -0.577349 0.000000 0.707083 -0.707083 0.577349 0.577349 -0.577349 0.577349 0.577349 -0.577349 0.577349 -0.577349 -0.577349 0.000000 -0.707083 -0.707083 0.577349 -0.577349 -0.577349 0.000000 -0.707083 -0.707083 0.000000 -0.707083 -0.707083 0.000000 -0.707083 -0.707083 0.000000 0.707083 -0.707083 0.000000 0.707083 -0.707083 0.000000 0.707083 -0.707083 " />
								<TextureCoordinate point="0.2183 0.8588 0.3236 0.8588 0.3236 0.9919 0.2183 0.9919 0.2183 0.9653 0.3236 0.9653 0.3236 0.9919 0.2183 0.9919 0.2183 0.8588 0.3236 0.8588 0.3236 0.9919 0.2183 0.9919 0.2183 0.9653 0.3236 0.9653 0.3236 0.9919 0.2183 0.9919 0.2629 0.8588 0.3236 0.8588 0.3236 0.9919 0.2629 0.9919 0.2629 0.8588 0.3236 0.8588 0.2629 0.9919 0.0202 0.8588 0.0809 0.8588 0.0809 0.9919 0.0202 0.9919 0.1415 0.8588 0.1415 0.9919 0.2022 0.8588 0.2022 0.9919 0.0202 0.8588 0.0809 0.8588 0.0809 0.9919 0.0202 0.9919 0.1415 0.8588 0.1415 0.9919 0.2022 0.8588 0.2022 0.9919 0.2183 0.8588 0.3236 0.8588 0.3236 0.8854 0.2183 0.8854 0.3236 0.9121 0.2183 0.9121 0.3236 0.9387 0.2183 0.9387 0.2183 0.8588 0.3236 0.8854 0.2183 0.8854 0.3236 0.9121 0.2183 0.9121 0.3236 0.9387 0.2183 0.9387 0.0495 0.9387 0.1038 0.9387 0.1038 0.9653 0.0495 0.9653 0.0495 0.9121 0.1038 0.9121 0.0495 0.8854 0.1038 0.8854 0.0495 0.8588 0.1038 0.8588 0.0495 0.9387 0.1038 0.9387 0.1038 0.9653 0.0495 0.9653 0.0495 0.8854 0.1038 0.8854 0.1038 0.9121 0.0495 0.9121 0.0495 0.8588 0.1038 0.8588 0.1038 0.9919 0.0495 0.9919 0.0495 0.8588 0.1038 0.8588 0.1038 0.9919 0.0495 0.9919 0.1038 0.9919 0.0495 0.9919 0.0495 0.8588 0.1038 0.8588 0.1038 0.9919 0.0495 0.9919 0.0202 0.8588 0.0202 0.9919 0.0202 0.9653 0.0202 0.9919 0.0202 0.8588 0.0202 0.9919 0.0202 0.9653 0.0202 0.8588 0.0202 0.8854 0.0202 0.9121 0.0202 0.9387 0.0202 0.8854 0.0202 0.9121 0.0202 0.9387 " />
							</IndexedTriangleSet>
						</Shape>
						<Shape>
							<Appearance>
								<Material DEF="MA_Face"
								          diffuseColor="0.800 0.800 0.800"
								          specularColor="0.401 0.401 0.401"
								          emissiveColor="0.000 0.000 0.000"
								          ambientIntensity="0.000"
								          shininess="0.500"
								          transparency="0.0"
								          />
							</Appearance>
							<IndexedTriangleSet solid="false"
							                    normalPerVertex="true"
							                    index="0 1 2 0 2 3 4 5 6 4 6 7 8 9 10 8 10 11 "
							                    >
								<Coordinate point="0.193499 -0.621014 0.140429 0.193499 -0.621014 0.401227 -0.193499 -0.621014 0.401227 -0.193499 -0.621014 0.140429 -0.193499 -0.621014 0.401227 -0.193499 -0.621014 0.909858 -0.690431 -0.621014 0.909858 -0.690431 -0.621014 0.401227 0.690431 -0.621014 0.401227 0.690431 -0.621014 0.909858 0.193499 -0.621014 0.909858 0.193499 -0.621014 0.401227 " />
								<Normal vector="0.000000 -1.000000 0.000000 0.000000 -1.000000 0.000000 0.000000 -1.000000 0.000000 0.000000 -1.000000 0.000000 0.000000 -1.000000 0.000000 0.000000 -1.000000 0.000000 0.000000 -1.000000 0.000000 0.000000 -1.000000 0.000000 0.000000 -1.000000 0.000000 0.000000 -1.000000 0.000000 0.000000 -1.000000 0.000000 0.000000 -1.000000 0.000000 " />
								<TextureCoordinate point="0.9835 0.5161 0.9835 0.9738 0.5249 0.9738 0.5249 0.5161 0.0149 0.5265 0.0149 0.9758 0.4642 0.9758 0.4642 0.5265 0.4642 0.5265 0.4642 0.9758 0.0149 0.9758 0.0149 0.5265 " />
							</IndexedTriangleSet>
						</Shape>
					</Group>
				</Transform>
				<Transform DEF="Cube_004_TRANSFORM"
				           translation="0.000000 0.378901 0.442587"
				           scale="1.000000 1.000000 1.000000"
				           rotation="0.000000 1.000000 0.000000 0.000000"
				           >
					<Transform DEF="Cube_004_ifs_TRANSFORM"
					           translation="0.000000 0.000000 0.000000"
					           scale="1.000000 1.000000 1.000000"
					           rotation="0.000000 1.000000 0.000000 0.000000"
					           >
						<Group DEF="group_ME_Cube_004">
							<Shape>
								<Appearance>
									<Material USE="MA_Body" />
								</Appearance>
								<IndexedTriangleSet solid="false"
								                    normalPerVertex="true"
								                    index="0 1 2 0 2 3 4 5 6 4 6 7 8 9 10 8 10 11 12 13 14 12 14 15 4 16 17 4 17 15 18 5 14 18 14 19 "
								                    >
									<Coordinate point="-0.857850 -0.584396 0.262908 -0.857850 -0.108265 1.321260 -0.857850 1.060526 0.795445 -0.857850 0.584396 -0.262907 -0.857850 0.584396 -0.262907 -0.857850 1.060526 0.795445 0.857850 1.060526 0.795445 0.857850 0.584396 -0.262907 0.857850 0.584396 -0.262907 0.857850 1.060526 0.795445 0.857850 -0.108265 1.321260 0.857850 -0.584396 0.262908 0.857850 -0.584396 0.262908 0.857850 -0.108265 1.321260 -0.857850 -0.108265 1.321260 -0.857850 -0.584396 0.262908 0.857850 0.584396 -0.262907 0.857850 -0.584396 0.262908 0.857850 1.060526 0.795445 0.857850 -0.108265 1.321260 " />
									<Normal vector="-0.577349 -0.763390 -0.289621 -0.577349 -0.289621 0.763390 -0.577349 0.763390 0.289621 -0.577349 0.289621 -0.763390 -0.577349 0.289621 -0.763390 -0.577349 0.763390 0.289621 0.577349 0.763390 0.289621 0.577349 0.289621 -0.763390 0.577349 0.289621 -0.763390 0.577349 0.763390 0.289621 0.577349 -0.289621 0.763390 0.577349 -0.763390 -0.289621 0.577349 -0.763390 -0.289621 0.577349 -0.289621 0.763390 -0.577349 -0.289621 0.763390 -0.577349 -0.763390 -0.289621 0.577349 0.289621 -0.763390 0.577349 -0.763390 -0.289621 0.577349 0.763390 0.289621 0.577349 -0.289621 0.763390 " />
									<TextureCoordinate point="0.1737 0.5148 0.3325 0.5148 0.3325 0.6715 0.1737 0.6715 0.1737 0.5148 0.3325 0.5148 0.3325 0.6715 0.1737 0.6715 0.1737 0.5148 0.3325 0.5148 0.3325 0.6715 0.1737 0.6715 0.1737 0.5148 0.3325 0.5148 0.3325 0.6715 0.1737 0.6715 0.3325 0.5148 0.3325 0.6715 0.1737 0.5148 0.1737 0.6715 " />
								</IndexedTriangleSet>
							</Shape>
						</Group>
					</Transform>
					<Transform DEF="Cube_005_TRANSFORM"
					           translation="0.608960 0.453823 0.545274"
					           scale="1.000000 1.000000 1.000000"
					           rotation="0.000000 1.000000 0.000000 0.000000"
					           >
						<Transform DEF="Cube_005_ifs_TRANSFORM"
						           translation="0.000000 0.000000 0.000000"
						           scale="1.000000 1.000000 1.000000"
						           rotation="0.000000 1.000000 0.000000 0.000000"
						           >
							<Group DEF="group_ME_Cube_005">
								<Shape>
									<Appearance>
										<Material USE="MA_Body" />
									</Appearance>
									<IndexedTriangleSet solid="false"
									                    normalPerVertex="true"
									                    index="0 1 2 0 2 3 4 5 6 4 6 7 8 9 10 8 10 11 12 13 14 12 14 15 4 16 17 4 17 15 18 5 14 18 14 19 "
									                    >
										<Coordinate point="-0.495898 -0.071107 -0.367873 -0.107550 -0.363214 0.492758 0.495898 0.071107 0.367873 0.107550 0.363214 -0.492758 0.107550 0.363214 -0.492758 0.495898 0.071107 0.367873 0.919044 -0.641237 -0.064844 0.530695 -0.349130 -0.925474 0.530695 -0.349130 -0.925474 0.919044 -0.641237 -0.064844 0.315596 -1.075559 0.060041 -0.072753 -0.783451 -0.800589 -0.072753 -0.783451 -0.800589 0.315596 -1.075559 0.060041 -0.107550 -0.363214 0.492758 -0.495898 -0.071107 -0.367873 0.530695 -0.349130 -0.925474 -0.072753 -0.783451 -0.800589 0.919044 -0.641237 -0.064844 0.315596 -1.075559 0.060041 " />
										<Normal vector="-0.950316 0.277993 -0.139805 -0.496628 -0.063234 0.865627 0.427595 0.601947 0.674367 -0.026063 0.943205 -0.331095 -0.026063 0.943205 -0.331095 0.427595 0.601947 0.674367 0.950316 -0.277993 0.139805 0.496628 0.063234 -0.865627 0.496628 0.063234 -0.865627 0.950316 -0.277993 0.139805 0.026063 -0.943205 0.331095 -0.427595 -0.601947 -0.674367 -0.427595 -0.601947 -0.674367 0.026063 -0.943205 0.331095 -0.496628 -0.063234 0.865627 -0.950316 0.277993 -0.139805 0.496628 0.063234 -0.865627 -0.427595 -0.601947 -0.674367 0.950316 -0.277993 0.139805 0.026063 -0.943205 0.331095 " />
										<TextureCoordinate point="0.1737 0.5148 0.3325 0.5148 0.3325 0.6715 0.1737 0.6715 0.1737 0.5148 0.3325 0.5148 0.3325 0.6715 0.1737 0.6715 0.1737 0.5148 0.3325 0.5148 0.3325 0.6715 0.1737 0.6715 0.1737 0.5148 0.3325 0.5148 0.3325 0.6715 0.1737 0.6715 0.3325 0.5148 0.3325 0.6715 0.1737 0.5148 0.1737 0.6715 " />
									</IndexedTriangleSet>
								</Shape>
							</Group>
						</Transform>
						<Transform DEF="Cube_006_TRANSFORM"
						           translation="0.306706 -0.546077 -0.417114"
						           scale="1.000000 1.000000 1.000000"
						           rotation="0.000000 1.000000 0.000000 0.000000"
						           >
							<Transform DEF="Cube_006_ifs_TRANSFORM"
							           translation="0.000000 0.000000 0.000000"
							           scale="1.000000 1.000000 1.000000"
							           rotation="0.000000 1.000000 0.000000 0.000000"
							           >
								<Group DEF="group_ME_Cube_006">
									<Shape>
										<Appearance>
											<Material USE="MA_Body" />
										</Appearance>
										<IndexedTriangleSet solid="false"
										                    normalPerVertex="true"
										                    index="0 1 2 0 2 3 4 5 6 4 6 7 8 9 10 8 10 11 12 13 14 12 14 15 4 16 17 4 17 15 18 5 14 18 14 19 "
										                    >
											<Coordinate point="-0.422418 0.070712 -0.185548 -0.130755 -0.242252 0.376938 0.422418 -0.070712 0.185548 0.130755 0.242252 -0.376938 0.130755 0.242252 -0.376938 0.422418 -0.070712 0.185548 0.469101 -0.538900 -0.099155 0.177438 -0.225937 -0.661641 0.177438 -0.225937 -0.661641 0.469101 -0.538900 -0.099155 -0.084072 -0.710440 0.092234 -0.375735 -0.397477 -0.470251 -0.375735 -0.397477 -0.470251 -0.084072 -0.710440 0.092234 -0.130755 -0.242252 0.376938 -0.422418 0.070712 -0.185548 0.177438 -0.225937 -0.661641 -0.375735 -0.397477 -0.470251 0.469101 -0.538900 -0.099155 -0.084072 -0.710440 0.092234 " />
											<Normal vector="-0.810877 0.584826 0.020478 -0.334300 0.073458 0.939573 0.712851 0.398175 0.577258 0.236274 0.909574 -0.341777 0.236274 0.909574 -0.341777 0.712851 0.398175 0.577258 0.810877 -0.584826 -0.020478 0.334300 -0.073458 -0.939573 0.334300 -0.073458 -0.939573 0.810877 -0.584826 -0.020478 -0.236274 -0.909574 0.341777 -0.712851 -0.398175 -0.577258 -0.712851 -0.398175 -0.577258 -0.236274 -0.909574 0.341777 -0.334300 0.073458 0.939573 -0.810877 0.584826 0.020478 0.334300 -0.073458 -0.939573 -0.712851 -0.398175 -0.577258 0.810877 -0.584826 -0.020478 -0.236274 -0.909574 0.341777 " />
											<TextureCoordinate point="0.1737 0.5148 0.3325 0.5148 0.3325 0.6715 0.1737 0.6715 0.1737 0.5148 0.3325 0.5148 0.3325 0.6715 0.1737 0.6715 0.1737 0.5148 0.3325 0.5148 0.3325 0.6715 0.1737 0.6715 0.1737 0.5148 0.3325 0.5148 0.3325 0.6715 0.1737 0.6715 0.3325 0.5148 0.3325 0.6715 0.1737 0.5148 0.1737 0.6715 " />
										</IndexedTriangleSet>
									</Shape>
								</Group>
							</Transform>
							<Transform DEF="Cube_007_TRANSFORM"
							           translation="0.100629 -0.309247 -0.257052"
							           scale="1.000000 1.000000 1.000000"
							           rotation="0.000000 1.000000 0.000000 0.000000"
							           >
								<Transform DEF="Cube_007_ifs_TRANSFORM"
								           translation="0.000000 0.000000 0.000000"
								           scale="1.000000 1.000000 1.000000"
								           rotation="0.000000 1.000000 0.000000 0.000000"
								           >
									<Group DEF="group_ME_Cube_007">
										<Shape>
											<Appearance>
												<Material USE="MA_Body" />
											</Appearance>
											<IndexedTriangleSet solid="false"
											                    normalPerVertex="true"
											                    index="0 1 2 0 2 3 4 5 6 4 6 7 8 9 10 8 10 11 12 13 14 12 14 15 4 16 17 4 17 15 18 5 14 18 14 19 "
											                    >
												<Coordinate point="-0.247487 0.169778 -0.055458 -0.064676 -0.026385 0.297104 0.247487 -0.169778 0.055458 0.064676 0.026385 -0.297104 0.064676 0.026385 -0.297104 0.247487 -0.169778 0.055458 -0.019663 -0.590404 -0.040053 -0.202475 -0.394241 -0.392614 -0.202475 -0.394241 -0.392614 -0.019663 -0.590404 -0.040053 -0.331826 -0.447012 0.201594 -0.514637 -0.250849 -0.150968 -0.514637 -0.250849 -0.150968 -0.331826 -0.447012 0.201594 -0.064676 -0.026385 0.297104 -0.247487 0.169778 -0.055458 -0.202475 -0.394241 -0.392614 -0.514637 -0.250849 -0.150968 -0.019663 -0.590404 -0.040053 -0.331826 -0.447012 0.201594 " />
												<Normal vector="-0.363384 0.931425 -0.018677 0.113163 0.420057 0.900388 0.971374 0.025819 0.236030 0.494827 0.537217 -0.683035 0.494827 0.537217 -0.683035 0.971374 0.025819 0.236030 0.363384 -0.931425 0.018677 -0.113163 -0.420057 -0.900388 -0.113163 -0.420057 -0.900388 0.363384 -0.931425 0.018677 -0.494827 -0.537217 0.683035 -0.971374 -0.025819 -0.236030 -0.971374 -0.025819 -0.236030 -0.494827 -0.537217 0.683035 0.113163 0.420057 0.900388 -0.363384 0.931425 -0.018677 -0.113163 -0.420057 -0.900388 -0.971374 -0.025819 -0.236030 0.363384 -0.931425 0.018677 -0.494827 -0.537217 0.683035 " />
												<TextureCoordinate point="0.1737 0.5148 0.3325 0.5148 0.3325 0.6715 0.1737 0.6715 0.1737 0.5148 0.3325 0.5148 0.3325 0.6715 0.1737 0.6715 0.1737 0.5148 0.3325 0.5148 0.3325 0.6715 0.1737 0.6715 0.1737 0.5148 0.3325 0.5148 0.3325 0.6715 0.1737 0.6715 0.3325 0.5148 0.3325 0.6715 0.1737 0.5148 0.1737 0.6715 " />
											</IndexedTriangleSet>
										</Shape>
									</Group>
								</Transform>
								<Transform DEF="Cube_008_TRANSFORM"
								           translation="-0.272516 -0.317721 -0.163506"
								           scale="1.000000 1.000000 1.000000"
								           rotation="0.000000 1.000000 0.000000 0.000000"
								           >
									<Transform DEF="Cube_008_ifs_TRANSFORM"
									           translation="0.000000 0.000000 0.000000"
									           scale="1.000000 1.000000 1.000000"
									           rotation="0.000000 1.000000 0.000000 0.000000"
									           >
										<Group DEF="group_ME_Cube_008">
											<Shape>
												<Appearance>
													<Material USE="MA_Body" />
												</Appearance>
												<IndexedTriangleSet solid="false"
												                    normalPerVertex="true"
												                    index="0 1 2 0 2 3 4 5 6 4 6 7 8 9 10 8 10 11 12 13 14 12 14 15 4 16 17 4 17 15 18 5 14 18 14 19 "
												                    >
													<Coordinate point="-0.281526 -0.095604 0.028440 -0.050644 0.274085 0.107325 0.281526 0.095604 -0.028440 0.050644 -0.274085 -0.107325 0.050644 -0.274085 -0.107325 0.281526 0.095604 -0.028440 0.389152 -0.075913 0.460362 0.158270 -0.445602 0.381478 0.158270 -0.445602 0.381478 0.389152 -0.075913 0.460362 0.056982 0.102568 0.596128 -0.173900 -0.267121 0.517243 -0.173900 -0.267121 0.517243 0.056982 0.102568 0.596128 -0.050644 0.274085 0.107325 -0.281526 -0.095604 0.028440 0.158270 -0.445602 0.381478 -0.173900 -0.267121 0.517243 0.389152 -0.075913 0.460362 0.056982 0.102568 0.596128 " />
													<Normal vector="-0.896878 -0.037568 -0.440626 -0.294992 0.926115 -0.234993 0.662008 0.411908 -0.626148 0.060121 -0.551805 -0.831782 0.060121 -0.551805 -0.831782 0.662008 0.411908 -0.626148 0.896878 0.037568 0.440626 0.294992 -0.926115 0.234993 0.294992 -0.926115 0.234993 0.896878 0.037568 0.440626 -0.060121 0.551805 0.831782 -0.662008 -0.411908 0.626148 -0.662008 -0.411908 0.626148 -0.060121 0.551805 0.831782 -0.294992 0.926115 -0.234993 -0.896878 -0.037568 -0.440626 0.294992 -0.926115 0.234993 -0.662008 -0.411908 0.626148 0.896878 0.037568 0.440626 -0.060121 0.551805 0.831782 " />
													<TextureCoordinate point="0.1737 0.5148 0.3325 0.5148 0.3325 0.6715 0.1737 0.6715 0.1737 0.5148 0.3325 0.5148 0.3325 0.6715 0.1737 0.6715 0.1737 0.5148 0.3325 0.5148 0.3325 0.6715 0.1737 0.6715 0.1737 0.5148 0.3325 0.5148 0.3325 0.6715 0.1737 0.6715 0.3325 0.5148 0.3325 0.6715 0.1737 0.5148 0.1737 0.6715 " />
												</IndexedTriangleSet>
											</Shape>
										</Group>
									</Transform>
								</Transform>
							</Transform>
						</Transform>
					</Transform>
					<Transform DEF="Cube_009_TRANSFORM"
					           translation="-0.608960 0.453823 0.545274"
					           scale="1.000000 1.000000 1.000000"
					           rotation="0.000000 1.000000 0.000000 0.000000"
					           >
						<Transform DEF="Cube_009_ifs_TRANSFORM"
						           translation="0.000000 0.000000 0.000000"
						           scale="1.000000 1.000000 1.000000"
						           rotation="0.000000 1.000000 0.000000 0.000000"
						           >
							<Group DEF="group_ME_Cube_016">
								<Shape>
									<Appearance>
										<Material USE="MA_Body" />
									</Appearance>
									<IndexedTriangleSet solid="false"
									                    normalPerVertex="true"
									                    index="0 1 2 0 2 3 4 5 6 4 6 7 8 9 10 8 10 11 12 13 14 12 14 15 4 13 16 4 16 17 18 19 14 18 14 7 "
									                    >
										<Coordinate point="0.495898 -0.071107 -0.367873 -0.107550 0.363214 -0.492758 -0.495898 0.071107 0.367873 0.107550 -0.363214 0.492758 -0.107550 0.363214 -0.492758 -0.530695 -0.349130 -0.925474 -0.919044 -0.641237 -0.064844 -0.495898 0.071107 0.367873 -0.530695 -0.349130 -0.925474 0.072753 -0.783451 -0.800589 -0.315596 -1.075559 0.060041 -0.919044 -0.641237 -0.064844 0.072753 -0.783451 -0.800589 0.495898 -0.071107 -0.367873 0.107550 -0.363214 0.492758 -0.315596 -1.075559 0.060041 0.072753 -0.783451 -0.800589 -0.530695 -0.349130 -0.925474 -0.919044 -0.641237 -0.064844 -0.315596 -1.075559 0.060041 " />
										<Normal vector="0.950316 0.277993 -0.139805 0.026063 0.943205 -0.331095 -0.427595 0.601947 0.674367 0.496628 -0.063234 0.865627 0.026063 0.943205 -0.331095 -0.496628 0.063234 -0.865627 -0.950316 -0.277993 0.139805 -0.427595 0.601947 0.674367 -0.496628 0.063234 -0.865627 0.427595 -0.601947 -0.674367 -0.026063 -0.943205 0.331095 -0.950316 -0.277993 0.139805 0.427595 -0.601947 -0.674367 0.950316 0.277993 -0.139805 0.496628 -0.063234 0.865627 -0.026063 -0.943205 0.331095 0.427595 -0.601947 -0.674367 -0.496628 0.063234 -0.865627 -0.950316 -0.277993 0.139805 -0.026063 -0.943205 0.331095 " />
										<TextureCoordinate point="0.1737 0.5148 0.1737 0.6715 0.3325 0.6715 0.3325 0.5148 0.1737 0.5148 0.1737 0.6715 0.3325 0.6715 0.3325 0.5148 0.1737 0.5148 0.1737 0.6715 0.3325 0.6715 0.3325 0.5148 0.1737 0.5148 0.1737 0.6715 0.3325 0.6715 0.3325 0.5148 0.3325 0.6715 0.3325 0.5148 0.1737 0.5148 0.1737 0.6715 " />
									</IndexedTriangleSet>
								</Shape>
							</Group>
						</Transform>
						<Transform DEF="Cube_011_TRANSFORM"
						           translation="-0.306706 -0.546077 -0.417114"
						           scale="1.000000 1.000000 1.000000"
						           rotation="0.000000 1.000000 0.000000 0.000000"
						           >
							<Transform DEF="Cube_011_ifs_TRANSFORM"
							           translation="0.000000 0.000000 0.000000"
							           scale="1.000000 1.000000 1.000000"
							           rotation="0.000000 1.000000 0.000000 0.000000"
							           >
								<Group DEF="group_ME_Cube_017">
									<Shape>
										<Appearance>
											<Material USE="MA_Body" />
										</Appearance>
										<IndexedTriangleSet solid="false"
										                    normalPerVertex="true"
										                    index="0 1 2 0 2 3 4 5 6 4 6 7 8 9 10 8 10 11 12 13 14 12 14 15 4 13 16 4 16 17 18 19 14 18 14 7 "
										                    >
											<Coordinate point="0.422418 0.070712 -0.185548 -0.130755 0.242252 -0.376938 -0.422418 -0.070712 0.185548 0.130755 -0.242252 0.376938 -0.130755 0.242252 -0.376938 -0.177438 -0.225937 -0.661641 -0.469101 -0.538900 -0.099156 -0.422418 -0.070712 0.185548 -0.177438 -0.225937 -0.661641 0.375735 -0.397477 -0.470251 0.084072 -0.710440 0.092234 -0.469101 -0.538900 -0.099156 0.375735 -0.397477 -0.470251 0.422418 0.070712 -0.185548 0.130755 -0.242252 0.376938 0.084072 -0.710440 0.092234 0.375735 -0.397477 -0.470251 -0.177438 -0.225937 -0.661641 -0.469101 -0.538900 -0.099156 0.084072 -0.710440 0.092234 " />
											<Normal vector="0.810877 0.584826 0.020478 -0.236274 0.909574 -0.341777 -0.712851 0.398175 0.577258 0.334300 0.073458 0.939573 -0.236274 0.909574 -0.341777 -0.334300 -0.073458 -0.939573 -0.810877 -0.584826 -0.020478 -0.712851 0.398175 0.577258 -0.334300 -0.073458 -0.939573 0.712851 -0.398175 -0.577258 0.236274 -0.909574 0.341777 -0.810877 -0.584826 -0.020478 0.712851 -0.398175 -0.577258 0.810877 0.584826 0.020478 0.334300 0.073458 0.939573 0.236274 -0.909574 0.341777 0.712851 -0.398175 -0.577258 -0.334300 -0.073458 -0.939573 -0.810877 -0.584826 -0.020478 0.236274 -0.909574 0.341777 " />
											<TextureCoordinate point="0.1737 0.5148 0.1737 0.6715 0.3325 0.6715 0.3325 0.5148 0.1737 0.5148 0.1737 0.6715 0.3325 0.6715 0.3325 0.5148 0.1737 0.5148 0.1737 0.6715 0.3325 0.6715 0.3325 0.5148 0.1737 0.5148 0.1737 0.6715 0.3325 0.6715 0.3325 0.5148 0.3325 0.6715 0.3325 0.5148 0.1737 0.5148 0.1737 0.6715 " />
										</IndexedTriangleSet>
									</Shape>
								</Group>
							</Transform>
							<Transform DEF="Cube_013_TRANSFORM"
							           translation="-0.100629 -0.309247 -0.257052"
							           scale="1.000000 1.000000 1.000000"
							           rotation="0.000000 1.000000 0.000000 0.000000"
							           >
								<Transform DEF="Cube_013_ifs_TRANSFORM"
								           translation="0.000000 0.000000 0.000000"
								           scale="1.000000 1.000000 1.000000"
								           rotation="0.000000 1.000000 0.000000 0.000000"
								           >
									<Group DEF="group_ME_Cube_018">
										<Shape>
											<Appearance>
												<Material USE="MA_Body" />
											</Appearance>
											<IndexedTriangleSet solid="false"
											                    normalPerVertex="true"
											                    index="0 1 2 0 2 3 4 5 6 4 6 7 8 9 10 8 10 11 12 13 14 12 14 15 4 13 16 4 16 17 18 19 14 18 14 7 "
											                    >
												<Coordinate point="0.247487 0.169778 -0.055458 -0.064676 0.026385 -0.297104 -0.247487 -0.169778 0.055458 0.064676 -0.026385 0.297104 -0.064676 0.026385 -0.297104 0.202475 -0.394241 -0.392614 0.019663 -0.590404 -0.040053 -0.247487 -0.169778 0.055458 0.202475 -0.394241 -0.392614 0.514637 -0.250849 -0.150968 0.331826 -0.447012 0.201594 0.019663 -0.590404 -0.040053 0.514637 -0.250849 -0.150968 0.247487 0.169778 -0.055458 0.064676 -0.026385 0.297104 0.331826 -0.447012 0.201594 0.514637 -0.250849 -0.150968 0.202475 -0.394241 -0.392614 0.019663 -0.590404 -0.040053 0.331826 -0.447012 0.201594 " />
												<Normal vector="0.363384 0.931425 -0.018677 -0.494827 0.537217 -0.683035 -0.971374 0.025819 0.236030 -0.113163 0.420057 0.900388 -0.494827 0.537217 -0.683035 0.113163 -0.420057 -0.900388 -0.363384 -0.931425 0.018677 -0.971374 0.025819 0.236030 0.113163 -0.420057 -0.900388 0.971374 -0.025819 -0.236030 0.494827 -0.537217 0.683035 -0.363384 -0.931425 0.018677 0.971374 -0.025819 -0.236030 0.363384 0.931425 -0.018677 -0.113163 0.420057 0.900388 0.494827 -0.537217 0.683035 0.971374 -0.025819 -0.236030 0.113163 -0.420057 -0.900388 -0.363384 -0.931425 0.018677 0.494827 -0.537217 0.683035 " />
												<TextureCoordinate point="0.1737 0.5148 0.1737 0.6715 0.3325 0.6715 0.3325 0.5148 0.1737 0.5148 0.1737 0.6715 0.3325 0.6715 0.3325 0.5148 0.1737 0.5148 0.1737 0.6715 0.3325 0.6715 0.3325 0.5148 0.1737 0.5148 0.1737 0.6715 0.3325 0.6715 0.3325 0.5148 0.3325 0.6715 0.3325 0.5148 0.1737 0.5148 0.1737 0.6715 " />
											</IndexedTriangleSet>
										</Shape>
									</Group>
								</Transform>
								<Transform DEF="Cube_014_TRANSFORM"
								           translation="0.272516 -0.317721 -0.163506"
								           scale="1.000000 1.000000 1.000000"
								           rotation="0.000000 1.000000 0.000000 0.000000"
								           >
									<Transform DEF="Cube_014_ifs_TRANSFORM"
									           translation="0.000000 0.000000 0.000000"
									           scale="1.000000 1.000000 1.000000"
									           rotation="0.000000 1.000000 0.000000 0.000000"
									           >
										<Group DEF="group_ME_Cube_019">
											<Shape>
												<Appearance>
													<Material USE="MA_Body" />
												</Appearance>
												<IndexedTriangleSet solid="false"
												                    normalPerVertex="true"
												                    index="0 1 2 0 2 3 4 5 6 4 6 7 8 9 10 8 10 11 12 13 14 12 14 15 4 13 16 4 16 17 18 19 14 18 14 7 "
												                    >
													<Coordinate point="0.281526 -0.095604 0.028440 -0.050644 -0.274085 -0.107325 -0.281526 0.095604 -0.028440 0.050644 0.274085 0.107325 -0.050644 -0.274085 -0.107325 -0.158270 -0.445602 0.381478 -0.389152 -0.075913 0.460362 -0.281526 0.095604 -0.028440 -0.158270 -0.445602 0.381478 0.173900 -0.267121 0.517243 -0.056982 0.102568 0.596128 -0.389152 -0.075913 0.460362 0.173900 -0.267121 0.517243 0.281526 -0.095604 0.028440 0.050644 0.274085 0.107325 -0.056982 0.102568 0.596128 0.173900 -0.267121 0.517243 -0.158270 -0.445602 0.381478 -0.389152 -0.075913 0.460362 -0.056982 0.102568 0.596128 " />
													<Normal vector="0.896878 -0.037568 -0.440626 -0.060121 -0.551805 -0.831782 -0.662008 0.411908 -0.626148 0.294992 0.926115 -0.234993 -0.060121 -0.551805 -0.831782 -0.294992 -0.926115 0.234993 -0.896878 0.037568 0.440626 -0.662008 0.411908 -0.626148 -0.294992 -0.926115 0.234993 0.662008 -0.411908 0.626148 0.060121 0.551805 0.831782 -0.896878 0.037568 0.440626 0.662008 -0.411908 0.626148 0.896878 -0.037568 -0.440626 0.294992 0.926115 -0.234993 0.060121 0.551805 0.831782 0.662008 -0.411908 0.626148 -0.294992 -0.926115 0.234993 -0.896878 0.037568 0.440626 0.060121 0.551805 0.831782 " />
													<TextureCoordinate point="0.1737 0.5148 0.1737 0.6715 0.3325 0.6715 0.3325 0.5148 0.1737 0.5148 0.1737 0.6715 0.3325 0.6715 0.3325 0.5148 0.1737 0.5148 0.1737 0.6715 0.3325 0.6715 0.3325 0.5148 0.1737 0.5148 0.1737 0.6715 0.3325 0.6715 0.3325 0.5148 0.3325 0.6715 0.3325 0.5148 0.1737 0.5148 0.1737 0.6715 " />
												</IndexedTriangleSet>
											</Shape>
										</Group>
									</Transform>
								</Transform>
							</Transform>
						</Transform>
					</Transform>
				</Transform>
				<Transform DEF="ant1_TRANSFORM"
				           translation="0.483611 -0.360355 1.253845"
				           scale="1.000000 1.000000 1.000000"
				           rotation="0.000000 1.000000 0.000000 0.000000"
				           >
					<Transform DEF="ant1_ifs_TRANSFORM"
					           translation="0.000000 0.000000 0.000000"
					           scale="1.000000 1.000000 1.000000"
					           rotation="0.000000 1.000000 0.000000 0.000000"
					           >
						<Group DEF="group_ME_ant1">
							<Shape>
								<Appearance>
									<Material USE="MA_Body" />
								</Appearance>
								<IndexedTriangleSet solid="false"
								                    normalPerVertex="true"
								                    index="0 1 2 0 2 3 4 5 6 4 6 7 8 9 10 8 10 11 12 13 14 12 14 15 4 16 17 4 17 15 18 5 14 18 14 19 "
								                    >
									<Coordinate point="-0.094987 -0.119950 0.083828 0.267854 0.040229 0.724170 0.242114 0.280130 0.678745 -0.120726 0.119950 0.038403 -0.120726 0.119950 0.038403 0.242114 0.280130 0.678745 0.457827 0.280130 0.556514 0.094987 0.119950 -0.083828 0.094987 0.119950 -0.083828 0.457827 0.280130 0.556514 0.483567 0.040229 0.601940 0.120726 -0.119950 -0.038403 0.120726 -0.119950 -0.038403 0.483567 0.040229 0.601940 0.267854 0.040229 0.724170 -0.094987 -0.119950 0.083828 0.094987 0.119950 -0.083828 0.120726 -0.119950 -0.038403 0.457827 0.280130 0.556514 0.483567 0.040229 0.601940 " />
									<Normal vector="-0.719901 -0.686911 -0.099368 -0.163640 -0.441359 0.882260 -0.284707 0.686911 0.668630 -0.840938 0.441359 -0.312998 -0.840938 0.441359 -0.312998 -0.284707 0.686911 0.668630 0.719901 0.686911 0.099368 0.163640 0.441359 -0.882260 0.163640 0.441359 -0.882260 0.719901 0.686911 0.099368 0.840938 -0.441359 0.312998 0.284707 -0.686911 -0.668630 0.284707 -0.686911 -0.668630 0.840938 -0.441359 0.312998 -0.163640 -0.441359 0.882260 -0.719901 -0.686911 -0.099368 0.163640 0.441359 -0.882260 0.284707 -0.686911 -0.668630 0.719901 0.686911 0.099368 0.840938 -0.441359 0.312998 " />
									<TextureCoordinate point="0.1675 0.7013 0.3288 0.7013 0.3288 0.8344 0.1675 0.8344 0.1675 0.7013 0.3288 0.7013 0.3288 0.8344 0.1675 0.8344 0.1675 0.7013 0.3288 0.7013 0.3288 0.8344 0.1675 0.8344 0.1675 0.7013 0.3288 0.7013 0.3288 0.8344 0.1675 0.8344 0.3288 0.7013 0.3288 0.8344 0.1675 0.7013 0.1675 0.8344 " />
								</IndexedTriangleSet>
							</Shape>
						</Group>
					</Transform>
				</Transform>
				<Transform DEF="ant2_TRANSFORM"
				           translation="-0.483611 -0.360355 1.253845"
				           scale="1.000000 1.000000 1.000000"
				           rotation="0.000000 1.000000 0.000000 0.000000"
				           >
					<Transform DEF="ant2_ifs_TRANSFORM"
					           translation="0.000000 0.000000 0.000000"
					           scale="1.000000 1.000000 1.000000"
					           rotation="0.000000 1.000000 0.000000 0.000000"
					           >
						<Group DEF="group_ME_ant2">
							<Shape>
								<Appearance>
									<Material USE="MA_Body" />
								</Appearance>
								<IndexedTriangleSet solid="false"
								                    normalPerVertex="true"
								                    index="0 1 2 0 2 3 4 5 6 4 6 7 8 9 10 8 10 11 12 13 14 12 14 15 4 13 16 4 16 17 18 19 14 18 14 7 "
								                    >
									<Coordinate point="0.094987 -0.119950 0.083828 0.120726 0.119950 0.038403 -0.242114 0.280130 0.678745 -0.267854 0.040229 0.724170 0.120726 0.119950 0.038403 -0.094987 0.119950 -0.083828 -0.457827 0.280130 0.556514 -0.242114 0.280130 0.678745 -0.094987 0.119950 -0.083828 -0.120726 -0.119950 -0.038403 -0.483567 0.040229 0.601940 -0.457827 0.280130 0.556514 -0.120726 -0.119950 -0.038403 0.094987 -0.119950 0.083828 -0.267854 0.040229 0.724170 -0.483567 0.040229 0.601940 -0.120726 -0.119950 -0.038403 -0.094987 0.119950 -0.083828 -0.457827 0.280130 0.556514 -0.483567 0.040229 0.601940 " />
									<Normal vector="0.719901 -0.686911 -0.099368 0.840938 0.441359 -0.312998 0.284707 0.686911 0.668630 0.163640 -0.441359 0.882260 0.840938 0.441359 -0.312998 -0.163640 0.441359 -0.882260 -0.719901 0.686911 0.099368 0.284707 0.686911 0.668630 -0.163640 0.441359 -0.882260 -0.284707 -0.686911 -0.668630 -0.840938 -0.441359 0.312998 -0.719901 0.686911 0.099368 -0.284707 -0.686911 -0.668630 0.719901 -0.686911 -0.099368 0.163640 -0.441359 0.882260 -0.840938 -0.441359 0.312998 -0.284707 -0.686911 -0.668630 -0.163640 0.441359 -0.882260 -0.719901 0.686911 0.099368 -0.840938 -0.441359 0.312998 " />
									<TextureCoordinate point="0.1675 0.7013 0.1675 0.8344 0.3288 0.8344 0.3288 0.7013 0.1675 0.7013 0.1675 0.8344 0.3288 0.8344 0.3288 0.7013 0.1675 0.7013 0.1675 0.8344 0.3288 0.8344 0.3288 0.7013 0.1675 0.7013 0.1675 0.8344 0.3288 0.8344 0.3288 0.7013 0.3288 0.8344 0.3288 0.7013 0.1675 0.7013 0.1675 0.8344 " />
								</IndexedTriangleSet>
							</Shape>
						</Group>
					</Transform>
				</Transform>
			</Transform>
			<Transform DEF="Cube_010_TRANSFORM"
			           translation="0.457287 -0.029644 0.331633"
			           scale="1.000000 1.000000 1.000000"
			           rotation="0.000000 1.000000 0.000000 0.000000"
			           >
				<Transform DEF="Cube_010_ifs_TRANSFORM"
				           translation="0.000000 0.000000 0.000000"
				           scale="1.000000 1.000000 1.000000"
				           rotation="0.000000 1.000000 0.000000 0.000000"
				           >
					<Group DEF="group_ME_Cube_010">
						<Shape>
							<Appearance>
								<Material USE="MA_Body" />
							</Appearance>
							<IndexedTriangleSet solid="false"
							                    normalPerVertex="true"
							                    index="0 1 2 0 2 3 4 5 6 4 6 7 8 9 10 8 10 11 12 13 14 12 14 15 4 16 17 4 17 15 18 5 14 18 14 19 "
							                    >
								<Coordinate point="-0.423356 -0.464709 -0.187286 0.398068 -0.464709 0.236323 0.423356 0.464709 0.187286 -0.398068 0.464709 -0.236323 -0.398068 0.464709 -0.236323 0.423356 0.464709 0.187286 0.569530 0.445777 -0.096161 -0.251894 0.445777 -0.519770 -0.251894 0.445777 -0.519770 0.569530 0.445777 -0.096161 0.544242 -0.483641 -0.047124 -0.277182 -0.483641 -0.470733 -0.277182 -0.483641 -0.470733 0.544242 -0.483641 -0.047124 0.398068 -0.464709 0.236323 -0.423356 -0.464709 -0.187286 -0.251894 0.445777 -0.519770 -0.277182 -0.483641 -0.470733 0.569530 0.445777 -0.096161 0.544242 -0.483641 -0.047124 " />
								<Normal vector="-0.792962 -0.542100 0.277993 0.233283 -0.542100 0.807245 0.264657 0.610523 0.746422 -0.761589 0.610523 0.217200 -0.761589 0.610523 0.217200 0.264657 0.610523 0.746422 0.792962 0.542100 -0.277993 -0.233283 0.542100 -0.807245 -0.233283 0.542100 -0.807245 0.792962 0.542100 -0.277993 0.761589 -0.610523 -0.217200 -0.264657 -0.610523 -0.746422 -0.264657 -0.610523 -0.746422 0.761589 -0.610523 -0.217200 0.233283 -0.542100 0.807245 -0.792962 -0.542100 0.277993 -0.233283 0.542100 -0.807245 -0.264657 -0.610523 -0.746422 0.792962 0.542100 -0.277993 0.761589 -0.610523 -0.217200 " />
								<TextureCoordinate point="0.1737 0.5148 0.3325 0.5148 0.3325 0.6715 0.1737 0.6715 0.1737 0.5148 0.3325 0.5148 0.3325 0.6715 0.1737 0.6715 0.1737 0.5148 0.3325 0.5148 0.3325 0.6715 0.1737 0.6715 0.1737 0.5148 0.3325 0.5148 0.3325 0.6715 0.1737 0.6715 0.3325 0.5148 0.3325 0.6715 0.1737 0.5148 0.1737 0.6715 " />
							</IndexedTriangleSet>
						</Shape>
					</Group>
				</Transform>
			</Transform>
			<Transform DEF="leg1_TRANSFORM"
			           translation="0.542478 -0.040677 0.166439"
			           scale="1.000000 1.000000 1.000000"
			           rotation="0.000000 1.000000 0.000000 0.000000"
			           >
				<Transform DEF="leg1_ifs_TRANSFORM"
				           translation="0.000000 0.000000 0.000000"
				           scale="1.000000 1.000000 1.000000"
				           rotation="0.000000 1.000000 0.000000 0.000000"
				           >
					<Group DEF="group_ME_leg1">
						<Shape>
							<Appearance>
								<Material USE="MA_Body" />
							</Appearance>
							<IndexedTriangleSet solid="false"
							                    normalPerVertex="true"
							                    index="0 1 2 0 2 3 4 5 6 4 6 7 8 9 10 8 10 11 12 13 14 12 14 15 4 16 17 4 17 15 18 5 14 18 14 19 "
							                    >
								<Coordinate point="-0.264251 -0.287392 -0.060815 0.248451 -0.293308 0.091453 0.264251 0.287392 0.060815 -0.248451 0.293308 -0.091453 -0.248451 0.293308 -0.091453 0.264251 0.287392 0.060815 0.446044 0.250073 -0.552750 -0.066659 0.255989 -0.705018 -0.066659 0.255989 -0.705018 0.446044 0.250073 -0.552750 0.430244 -0.330626 -0.522112 -0.082459 -0.324710 -0.674380 -0.082459 -0.324710 -0.674380 0.430244 -0.330626 -0.522112 0.248451 -0.293308 0.091453 -0.264251 -0.287392 -0.060815 -0.066659 0.255989 -0.705018 -0.082459 -0.324710 -0.674380 0.446044 0.250073 -0.552750 0.430244 -0.330626 -0.522112 " />
								<Normal vector="-0.732841 -0.536332 0.418653 0.374004 -0.549089 0.747368 0.405347 0.603534 0.686575 -0.701468 0.616321 0.357830 -0.701468 0.616321 0.357830 0.405347 0.603534 0.686575 0.732841 0.536332 -0.418653 -0.374004 0.549089 -0.747368 -0.374004 0.549089 -0.747368 0.732841 0.536332 -0.418653 0.701468 -0.616321 -0.357830 -0.405347 -0.603534 -0.686575 -0.405347 -0.603534 -0.686575 0.701468 -0.616321 -0.357830 0.374004 -0.549089 0.747368 -0.732841 -0.536332 0.418653 -0.374004 0.549089 -0.747368 -0.405347 -0.603534 -0.686575 0.732841 0.536332 -0.418653 0.701468 -0.616321 -0.357830 " />
								<TextureCoordinate point="0.0084 0.7013 0.1483 0.7013 0.1483 0.8344 0.0084 0.8344 0.0084 0.7013 0.1483 0.7013 0.1483 0.8344 0.0084 0.8344 0.0084 0.7013 0.1483 0.7013 0.1483 0.8344 0.0084 0.8344 0.0084 0.7013 0.1483 0.7013 0.1483 0.8344 0.0084 0.8344 0.1483 0.7013 0.1483 0.8344 0.0084 0.7013 0.0084 0.8344 " />
							</IndexedTriangleSet>
						</Shape>
					</Group>
				</Transform>
			</Transform>
			<Transform DEF="Cube_012_TRANSFORM"
			           translation="0.742425 -0.077449 1.325602"
			           scale="1.000000 1.000000 1.000000"
			           rotation="0.000000 1.000000 0.000000 0.000000"
			           >
				<Transform DEF="Cube_012_ifs_TRANSFORM"
				           translation="0.000000 0.000000 0.000000"
				           scale="1.000000 1.000000 1.000000"
				           rotation="0.000000 1.000000 0.000000 0.000000"
				           >
					<Group DEF="group_ME_Cube_012">
						<Shape>
							<Appearance>
								<Material USE="MA_Body" />
							</Appearance>
							<IndexedTriangleSet solid="false"
							                    normalPerVertex="true"
							                    index="0 1 2 0 2 3 4 5 6 4 6 7 8 9 10 8 10 11 12 13 14 12 14 15 4 16 17 4 17 15 18 5 14 18 14 19 "
							                    >
								<Coordinate point="0.010338 -0.414203 -0.360906 -0.115124 -0.392606 0.366786 -0.010338 0.414203 0.360906 0.115124 0.392606 -0.366786 0.115124 0.392606 -0.366786 -0.010338 0.414203 0.360906 0.203143 0.386751 0.398527 0.328604 0.365154 -0.329164 0.328604 0.365154 -0.329164 0.203143 0.386751 0.398527 0.098357 -0.420058 0.404407 0.223819 -0.441655 -0.323285 0.223819 -0.441655 -0.323285 0.098357 -0.420058 0.404407 -0.115124 -0.392606 0.366786 0.010338 -0.414203 -0.360906 0.328604 0.365154 -0.329164 0.223819 -0.441655 -0.323285 0.203143 0.386751 0.398527 0.098357 -0.420058 0.404407 " />
								<Normal vector="-0.540361 -0.516861 -0.663930 -0.736473 -0.483108 0.473464 -0.587756 0.661916 0.465133 -0.391644 0.628163 -0.672262 -0.391644 0.628163 -0.672262 -0.587756 0.661916 0.465133 0.540361 0.516861 0.663930 0.736473 0.483108 -0.473464 0.736473 0.483108 -0.473464 0.540361 0.516861 0.663930 0.391644 -0.628163 0.672262 0.587756 -0.661916 -0.465133 0.587756 -0.661916 -0.465133 0.391644 -0.628163 0.672262 -0.736473 -0.483108 0.473464 -0.540361 -0.516861 -0.663930 0.736473 0.483108 -0.473464 0.587756 -0.661916 -0.465133 0.540361 0.516861 0.663930 0.391644 -0.628163 0.672262 " />
								<TextureCoordinate point="0.1737 0.5148 0.3325 0.5148 0.3325 0.6715 0.1737 0.6715 0.1737 0.5148 0.3325 0.5148 0.3325 0.6715 0.1737 0.6715 0.1737 0.5148 0.3325 0.5148 0.3325 0.6715 0.1737 0.6715 0.1737 0.5148 0.3325 0.5148 0.3325 0.6715 0.1737 0.6715 0.3325 0.5148 0.3325 0.6715 0.1737 0.5148 0.1737 0.6715 " />
							</IndexedTriangleSet>
						</Shape>
					</Group>
				</Transform>
			</Transform>
			<Transform DEF="arm1_TRANSFORM"
			           translation="0.871775 -0.093843 1.381180"
			           scale="1.000000 1.000000 1.000000"
			           rotation="0.000000 1.000000 0.000000 0.000000"
			           >
				<Transform DEF="arm1_ifs_TRANSFORM"
				           translation="0.000000 0.000000 0.000000"
				           scale="1.000000 1.000000 1.000000"
				           rotation="0.000000 1.000000 0.000000 0.000000"
				           >
					<Group DEF="group_ME_arm1">
						<Shape>
							<Appearance>
								<Material USE="MA_Body" />
							</Appearance>
							<IndexedTriangleSet solid="false"
							                    normalPerVertex="true"
							                    index="0 1 2 0 2 3 4 5 6 4 6 7 8 9 10 8 10 11 12 13 14 12 14 15 4 16 17 4 17 15 18 5 14 18 14 19 "
							                    >
								<Coordinate point="0.012892 -0.281397 -0.243418 -0.083888 -0.265251 0.247401 -0.012892 0.281397 0.243418 0.083888 0.265251 -0.247401 0.083888 0.265251 -0.247401 -0.012892 0.281397 0.243418 0.615271 0.200735 0.369933 0.712051 0.184589 -0.120886 0.712051 0.184589 -0.120886 0.615271 0.200735 0.369933 0.544275 -0.345912 0.373916 0.641055 -0.362058 -0.116902 0.641055 -0.362058 -0.116902 0.544275 -0.345912 0.373916 -0.083888 -0.265251 0.247401 0.012892 -0.281397 -0.243418 0.712051 0.184589 -0.120886 0.641055 -0.362058 -0.116902 0.615271 0.200735 0.369933 0.544275 -0.345912 0.373916 " />
								<Normal vector="-0.524247 -0.519028 -0.675069 -0.747520 -0.481765 0.457198 -0.598804 0.663259 0.448866 -0.375561 0.625996 -0.683401 -0.375561 0.625996 -0.683401 -0.598804 0.663259 0.448866 0.524247 0.519028 0.675069 0.747520 0.481765 -0.457198 0.747520 0.481765 -0.457198 0.524247 0.519028 0.675069 0.375561 -0.625996 0.683401 0.598804 -0.663259 -0.448866 0.598804 -0.663259 -0.448866 0.375561 -0.625996 0.683401 -0.747520 -0.481765 0.457198 -0.524247 -0.519028 -0.675069 0.747520 0.481765 -0.457198 0.598804 -0.663259 -0.448866 0.524247 0.519028 0.675069 0.375561 -0.625996 0.683401 " />
								<TextureCoordinate point="0.0084 0.7013 0.1483 0.7013 0.1483 0.8344 0.0084 0.8344 0.0084 0.7013 0.1483 0.7013 0.1483 0.8344 0.0084 0.8344 0.0084 0.7013 0.1483 0.7013 0.1483 0.8344 0.0084 0.8344 0.0084 0.7013 0.1483 0.7013 0.1483 0.8344 0.0084 0.8344 0.1483 0.7013 0.1483 0.8344 0.0084 0.7013 0.0084 0.8344 " />
							</IndexedTriangleSet>
						</Shape>
					</Group>
				</Transform>
			</Transform>
			<Transform DEF="wing1_TRANSFORM"
			           translation="0.345742 0.494342 1.460102"
			           scale="1.000000 1.000000 1.000000"
			           rotation="0.000000 1.000000 0.000000 0.000000"
			           >
				<Transform DEF="wing1_ifs_TRANSFORM"
				           translation="0.000000 0.000000 0.000000"
				           scale="1.000000 1.000000 1.000000"
				           rotation="0.000000 1.000000 0.000000 0.000000"
				           >
					<Group DEF="group_ME_wing1">
						<Shape>
							<Appearance>
								<Material USE="MA_Body" />
							</Appearance>
							<IndexedTriangleSet solid="false"
							                    normalPerVertex="true"
							                    index="0 1 2 0 2 3 "
							                    >
								<Coordinate point="0.000000 0.000000 -0.267726 0.000000 0.000000 0.267726 1.404327 0.000000 0.267726 1.404327 0.000000 -0.267726 " />
								<Normal vector="0.000000 1.000000 0.000000 0.000000 1.000000 0.000000 0.000000 1.000000 0.000000 0.000000 1.000000 0.000000 " />
								<TextureCoordinate point="0.3491 0.5631 0.3491 0.9143 0.9954 0.9143 0.9954 0.5631 " />
							</IndexedTriangleSet>
						</Shape>
					</Group>
				</Transform>
			</Transform>
			<Transform DEF="Object_TRANSFORM"
			           translation="0.000000 0.637256 0.066573"
			           scale="1.000000 1.000000 1.000000"
			           rotation="0.000000 1.000000 0.000000 0.000000"
			           >
				<Transform DEF="Object_ifs_TRANSFORM"
				           translation="0.000000 0.000000 0.000000"
				           scale="1.000000 1.000000 1.000000"
				           rotation="0.000000 1.000000 0.000000 0.000000"
				           >
					<Group DEF="group_ME_Cube_015">
						<Shape>
							<Appearance>
								<Material DEF="MA_Glow"
								          diffuseColor="0.800 0.800 0.800"
								          specularColor="0.401 0.401 0.401"
								          emissiveColor="0.000 0.000 0.000"
								          ambientIntensity="0.000"
								          shininess="0.500"
								          transparency="0.0"
								          />
							</Appearance>
							<IndexedTriangleSet solid="false"
							                    normalPerVertex="true"
							                    index="0 1 2 0 2 3 4 0 3 4 3 5 "
							                    >
								<Coordinate point="0.000000 -0.000477 -0.000050 0.458028 -0.000477 -0.000050 0.458028 -0.059682 0.566684 0.000000 -0.059682 0.566684 -0.458028 -0.000477 -0.000050 -0.458028 -0.059682 0.566684 " />
								<Normal vector="0.000000 -0.994568 -0.103885 0.000000 -0.994568 -0.103885 0.000000 -0.994568 -0.103885 0.000000 -0.994568 -0.103885 0.000000 -0.994568 -0.103885 0.000000 -0.994568 -0.103885 " />
								<TextureCoordinate point="0.4605 0.0210 0.0227 0.0210 0.0227 0.4770 0.4605 0.4770 0.0227 0.0210 0.0227 0.4770 " />
							</IndexedTriangleSet>
						</Shape>
					</Group>
				</Transform>
			</Transform>
			<Transform DEF="Cube_015_TRANSFORM"
			           translation="-0.457287 -0.029644 0.331633"
			           scale="1.000000 1.000000 1.000000"
			           rotation="0.000000 1.000000 0.000000 0.000000"
			           >
				<Transform DEF="Cube_015_ifs_TRANSFORM"
				           translation="0.000000 0.000000 0.000000"
				           scale="1.000000 1.000000 1.000000"
				           rotation="0.000000 1.000000 0.000000 0.000000"
				           >
					<Group DEF="group_ME_Cube_020">
						<Shape>
							<Appearance>
								<Material USE="MA_Body" />
							</Appearance>
							<IndexedTriangleSet solid="false"
							                    normalPerVertex="true"
							                    index="0 1 2 0 2 3 4 5 6 4 6 7 8 9 10 8 10 11 12 13 14 12 14 15 4 13 16 4 16 17 18 19 14 18 14 7 "
							                    >
								<Coordinate point="0.423356 -0.464709 -0.187286 0.398068 0.464709 -0.236323 -0.423356 0.464709 0.187286 -0.398068 -0.464709 0.236323 0.398068 0.464709 -0.236323 0.251894 0.445777 -0.519770 -0.569530 0.445777 -0.096161 -0.423356 0.464709 0.187286 0.251894 0.445777 -0.519770 0.277182 -0.483641 -0.470733 -0.544242 -0.483641 -0.047124 -0.569530 0.445777 -0.096161 0.277182 -0.483641 -0.470733 0.423356 -0.464709 -0.187286 -0.398068 -0.464709 0.236323 -0.544242 -0.483641 -0.047124 0.277182 -0.483641 -0.470733 0.251894 0.445777 -0.519770 -0.569530 0.445777 -0.096161 -0.544242 -0.483641 -0.047124 " />
								<Normal vector="0.792962 -0.542100 0.277993 0.761589 0.610523 0.217200 -0.264657 0.610523 0.746422 -0.233283 -0.542100 0.807245 0.761589 0.610523 0.217200 0.233283 0.542100 -0.807245 -0.792962 0.542100 -0.277993 -0.264657 0.610523 0.746422 0.233283 0.542100 -0.807245 0.264657 -0.610523 -0.746422 -0.761589 -0.610523 -0.217200 -0.792962 0.542100 -0.277993 0.264657 -0.610523 -0.746422 0.792962 -0.542100 0.277993 -0.233283 -0.542100 0.807245 -0.761589 -0.610523 -0.217200 0.264657 -0.610523 -0.746422 0.233283 0.542100 -0.807245 -0.792962 0.542100 -0.277993 -0.761589 -0.610523 -0.217200 " />
								<TextureCoordinate point="0.1737 0.5148 0.1737 0.6715 0.3325 0.6715 0.3325 0.5148 0.1737 0.5148 0.1737 0.6715 0.3325 0.6715 0.3325 0.5148 0.1737 0.5148 0.1737 0.6715 0.3325 0.6715 0.3325 0.5148 0.1737 0.5148 0.1737 0.6715 0.3325 0.6715 0.3325 0.5148 0.3325 0.6715 0.3325 0.5148 0.1737 0.5148 0.1737 0.6715 " />
							</IndexedTriangleSet>
						</Shape>
					</Group>
				</Transform>
			</Transform>
			<Transform DEF="leg2_TRANSFORM"
			           translation="-0.542478 -0.040677 0.166439"
			           scale="1.000000 1.000000 1.000000"
			           rotation="0.000000 1.000000 0.000000 0.000000"
			           >
				<Transform DEF="leg2_ifs_TRANSFORM"
				           translation="0.000000 0.000000 0.000000"
				           scale="1.000000 1.000000 1.000000"
				           rotation="0.000000 1.000000 0.000000 0.000000"
				           >
					<Group DEF="group_ME_leg2">
						<Shape>
							<Appearance>
								<Material USE="MA_Body" />
							</Appearance>
							<IndexedTriangleSet solid="false"
							                    normalPerVertex="true"
							                    index="0 1 2 0 2 3 4 5 6 4 6 7 8 9 10 8 10 11 12 13 14 12 14 15 4 13 16 4 16 17 18 19 14 18 14 7 "
							                    >
								<Coordinate point="0.264251 -0.287392 -0.060815 0.248451 0.293308 -0.091453 -0.264251 0.287392 0.060815 -0.248451 -0.293308 0.091453 0.248451 0.293308 -0.091453 0.066659 0.255989 -0.705018 -0.446044 0.250073 -0.552750 -0.264251 0.287392 0.060815 0.066659 0.255989 -0.705018 0.082459 -0.324710 -0.674380 -0.430244 -0.330626 -0.522112 -0.446044 0.250073 -0.552750 0.082459 -0.324710 -0.674380 0.264251 -0.287392 -0.060815 -0.248451 -0.293308 0.091453 -0.430244 -0.330626 -0.522112 0.082459 -0.324710 -0.674380 0.066659 0.255989 -0.705018 -0.446044 0.250073 -0.552750 -0.430244 -0.330626 -0.522112 " />
								<Normal vector="0.732841 -0.536332 0.418653 0.701468 0.616321 0.357830 -0.405347 0.603534 0.686575 -0.374004 -0.549089 0.747368 0.701468 0.616321 0.357830 0.374004 0.549089 -0.747368 -0.732841 0.536332 -0.418653 -0.405347 0.603534 0.686575 0.374004 0.549089 -0.747368 0.405347 -0.603534 -0.686575 -0.701468 -0.616321 -0.357830 -0.732841 0.536332 -0.418653 0.405347 -0.603534 -0.686575 0.732841 -0.536332 0.418653 -0.374004 -0.549089 0.747368 -0.701468 -0.616321 -0.357830 0.405347 -0.603534 -0.686575 0.374004 0.549089 -0.747368 -0.732841 0.536332 -0.418653 -0.701468 -0.616321 -0.357830 " />
								<TextureCoordinate point="0.0084 0.7013 0.0084 0.8344 0.1483 0.8344 0.1483 0.7013 0.0084 0.7013 0.0084 0.8344 0.1483 0.8344 0.1483 0.7013 0.0084 0.7013 0.0084 0.8344 0.1483 0.8344 0.1483 0.7013 0.0084 0.7013 0.0084 0.8344 0.1483 0.8344 0.1483 0.7013 0.1483 0.8344 0.1483 0.7013 0.0084 0.7013 0.0084 0.8344 " />
							</IndexedTriangleSet>
						</Shape>
					</Group>
				</Transform>
			</Transform>
			<Transform DEF="Cube_016_TRANSFORM"
			           translation="-0.742425 -0.077449 1.325602"
			           scale="1.000000 1.000000 1.000000"
			           rotation="0.000000 1.000000 0.000000 0.000000"
			           >
				<Transform DEF="Cube_016_ifs_TRANSFORM"
				           translation="0.000000 0.000000 0.000000"
				           scale="1.000000 1.000000 1.000000"
				           rotation="0.000000 1.000000 0.000000 0.000000"
				           >
					<Group DEF="group_ME_Cube_022">
						<Shape>
							<Appearance>
								<Material USE="MA_Body" />
							</Appearance>
							<IndexedTriangleSet solid="false"
							                    normalPerVertex="true"
							                    index="0 1 2 0 2 3 4 5 6 4 6 7 8 9 10 8 10 11 12 13 14 12 14 15 4 13 16 4 16 17 18 19 14 18 14 7 "
							                    >
								<Coordinate point="-0.010338 -0.414203 -0.360906 -0.115124 0.392606 -0.366786 0.010338 0.414203 0.360906 0.115124 -0.392606 0.366786 -0.115124 0.392606 -0.366786 -0.328604 0.365154 -0.329164 -0.203143 0.386751 0.398527 0.010338 0.414203 0.360906 -0.328604 0.365154 -0.329164 -0.223819 -0.441655 -0.323285 -0.098357 -0.420058 0.404407 -0.203143 0.386751 0.398527 -0.223819 -0.441655 -0.323285 -0.010338 -0.414203 -0.360906 0.115124 -0.392606 0.366786 -0.098357 -0.420058 0.404407 -0.223819 -0.441655 -0.323285 -0.328604 0.365154 -0.329164 -0.203143 0.386751 0.398527 -0.098357 -0.420058 0.404407 " />
								<Normal vector="0.540361 -0.516861 -0.663930 0.391644 0.628163 -0.672262 0.587756 0.661916 0.465133 0.736473 -0.483108 0.473464 0.391644 0.628163 -0.672262 -0.736473 0.483108 -0.473464 -0.540361 0.516861 0.663930 0.587756 0.661916 0.465133 -0.736473 0.483108 -0.473464 -0.587756 -0.661916 -0.465133 -0.391644 -0.628163 0.672262 -0.540361 0.516861 0.663930 -0.587756 -0.661916 -0.465133 0.540361 -0.516861 -0.663930 0.736473 -0.483108 0.473464 -0.391644 -0.628163 0.672262 -0.587756 -0.661916 -0.465133 -0.736473 0.483108 -0.473464 -0.540361 0.516861 0.663930 -0.391644 -0.628163 0.672262 " />
								<TextureCoordinate point="0.1737 0.5148 0.1737 0.6715 0.3325 0.6715 0.3325 0.5148 0.1737 0.5148 0.1737 0.6715 0.3325 0.6715 0.3325 0.5148 0.1737 0.5148 0.1737 0.6715 0.3325 0.6715 0.3325 0.5148 0.1737 0.5148 0.1737 0.6715 0.3325 0.6715 0.3325 0.5148 0.3325 0.6715 0.3325 0.5148 0.1737 0.5148 0.1737 0.6715 " />
							</IndexedTriangleSet>
						</Shape>
					</Group>
				</Transform>
			</Transform>
			<Transform DEF="arm2_TRANSFORM"
			           translation="-0.871775 -0.093843 1.381180"
			           scale="1.000000 1.000000 1.000000"
			           rotation="0.000000 1.000000 0.000000 0.000000"
			           >
				<Transform DEF="arm2_ifs_TRANSFORM"
				           translation="0.000000 0.000000 0.000000"
				           scale="1.000000 1.000000 1.000000"
				           rotation="0.000000 1.000000 0.000000 0.000000"
				           >
					<Group DEF="group_ME_arm2">
						<Shape>
							<Appearance>
								<Material USE="MA_Body" />
							</Appearance>
							<IndexedTriangleSet solid="false"
							                    normalPerVertex="true"
							                    index="0 1 2 0 2 3 4 5 6 4 6 7 8 9 10 8 10 11 12 13 14 12 14 15 4 13 16 4 16 17 18 19 14 18 14 7 "
							                    >
								<Coordinate point="-0.012892 -0.281397 -0.243418 -0.083888 0.265251 -0.247401 0.012892 0.281397 0.243418 0.083888 -0.265251 0.247401 -0.083888 0.265251 -0.247401 -0.712051 0.184589 -0.120886 -0.615271 0.200735 0.369933 0.012892 0.281397 0.243418 -0.712051 0.184589 -0.120886 -0.641055 -0.362058 -0.116902 -0.544275 -0.345912 0.373916 -0.615271 0.200735 0.369933 -0.641055 -0.362058 -0.116902 -0.012892 -0.281397 -0.243418 0.083888 -0.265251 0.247401 -0.544275 -0.345912 0.373916 -0.641055 -0.362058 -0.116902 -0.712051 0.184589 -0.120886 -0.615271 0.200735 0.369933 -0.544275 -0.345912 0.373916 " />
								<Normal vector="0.524277 -0.519028 -0.675069 0.375561 0.625996 -0.683401 0.598804 0.663259 0.448866 0.747520 -0.481765 0.457198 0.375561 0.625996 -0.683401 -0.747520 0.481765 -0.457198 -0.524247 0.519028 0.675069 0.598804 0.663259 0.448866 -0.747520 0.481765 -0.457198 -0.598804 -0.663259 -0.448866 -0.375561 -0.625996 0.683401 -0.524247 0.519028 0.675069 -0.598804 -0.663259 -0.448866 0.524277 -0.519028 -0.675069 0.747520 -0.481765 0.457198 -0.375561 -0.625996 0.683401 -0.598804 -0.663259 -0.448866 -0.747520 0.481765 -0.457198 -0.524247 0.519028 0.675069 -0.375561 -0.625996 0.683401 " />
								<TextureCoordinate point="0.0084 0.7013 0.0084 0.8344 0.1483 0.8344 0.1483 0.7013 0.0084 0.7013 0.0084 0.8344 0.1483 0.8344 0.1483 0.7013 0.0084 0.7013 0.0084 0.8344 0.1483 0.8344 0.1483 0.7013 0.0084 0.7013 0.0084 0.8344 0.1483 0.8344 0.1483 0.7013 0.1483 0.8344 0.1483 0.7013 0.0084 0.7013 0.0084 0.8344 " />
							</IndexedTriangleSet>
						</Shape>
					</Group>
				</Transform>
			</Transform>
			<Transform DEF="wing2_TRANSFORM"
			           translation="-0.345742 0.494342 1.460102"
			           scale="1.000000 1.000000 1.000000"
			           rotation="0.000000 1.000000 0.000000 0.000000"
			           >
				<Transform DEF="wing2_ifs_TRANSFORM"
				           translation="0.000000 0.000000 0.000000"
				           scale="1.000000 1.000000 1.000000"
				           rotation="0.000000 1.000000 0.000000 0.000000"
				           >
					<Group DEF="group_ME_wing2">
						<Shape>
							<Appearance>
								<Material USE="MA_Body" />
							</Appearance>
							<IndexedTriangleSet solid="false"
							                    normalPerVertex="true"
							                    index="0 1 2 0 2 3 "
							                    >
								<Coordinate point="-0.000000 0.000000 -0.267726 -1.404327 0.000000 -0.267726 -1.404327 0.000000 0.267726 -0.000000 0.000000 0.267726 " />
								<Normal vector="0.000000 1.000000 0.000000 0.000000 1.000000 0.000000 0.000000 1.000000 0.000000 0.000000 1.000000 0.000000 " />
								<TextureCoordinate point="0.3491 0.5631 0.9954 0.5631 0.9954 0.9143 0.3491 0.9143 " />
							</IndexedTriangleSet>
						</Shape>
					</Group>
				</Transform>
			</Transform>
		</Transform>
	</Scene>
</X3D>