<?xml version="1.0" encoding="UTF-8"?>
<!DOCTYPE X3D PUBLIC "ISO//Web3D//DTD X3D 3.0//EN" "http://www.web3d.org/specifications/x3d-3.0.dtd">
<X3D version="3.0" profile="Immersive" xmlns:xsd="http://www.w3.org/2001/XMLSchema-instance" xsd:noNamespaceSchemaLocation="http://www.web3d.org/specifications/x3d-3.0.xsd">
	<head>
		<meta name="filename" content="kakuna.x3d" />
		<meta name="generator" content="Blender 2.93.18" />
	</head>
	<Scene>
		<NavigationInfo headlight="true"
		                visibilityLimit="0.0"
		                type='"EXAMINE", "ANY"'
		                avatarSize="0.25, 1.75, 0.75"
		                />
		<Background DEF="WO_World"
		            groundColor="0.051 0.051 0.051"
		            skyColor="0.051 0.051 0.051"
		            />
		<Transform DEF="body_TRANSFORM"
		           translation="0.000000 0.145214 0.059010"
		           scale="1.000000 1.000000 1.000000"
		           rotation="0.000000 0.000000 1.000000 3.141593"
		           >
			<Transform DEF="body_ifs_TRANSFORM"
			           translation="0.000000 0.000000 0.000000"
			           scale="1.000000 1.000000 1.000000"
			           rotation="0.000000 1.000000 0.000000 0.000000"
			           >
				<Group DEF="group_ME_body">
					<Shape>
						<Appearance>
							<Material DEF="MA_Body"
							          diffuseColor="0.800 0.800 0.800"
							          specularColor="0.401 0.401 0.401"
							          emissiveColor="0.000 0.000 0.000"
							          ambientIntensity="0.000"
							          shininess="0.500"
							          transparency="0.0"
							          />
						</Appearance>
						<IndexedTriangleSet solid="false"
						                    normalPerVertex="true"
						                    index="0 1 2 0 2 3 4 5 6 4 6 7 8 9 10 8 10 11 12 13 14 12 14 15 4 16 17 4 17 15 18 5 14 18 14 19 "
						                    >
							<Coordinate point="-0.130394 -0.066365 0.077953 -0.130394 0.053602 0.180087 -0.130394 0.186332 0.024180 -0.130394 0.066365 -0.077953 -0.130394 0.066365 -0.077953 -0.130394 0.186332 0.024180 0.130394 0.186332 0.024180 0.130394 0.066365 -0.077953 0.130394 0.066365 -0.077953 0.130394 0.186332 0.024180 0.130394 0.053602 0.180087 0.130394 -0.066365 0.077953 0.130394 -0.066365 0.077953 0.130394 0.053602 0.180087 -0.130394 0.053602 0.180087 -0.130394 -0.066365 0.077953 0.130394 0.066365 -0.077953 0.130394 -0.066365 0.077953 0.130394 0.186332 0.024180 0.130394 0.053602 0.180087 " />
							<Normal vector="-0.577349 -0.813868 0.065340 -0.577349 0.065340 0.813868 -0.577349 0.813868 -0.065340 -0.577349 -0.065340 -0.813868 -0.577349 -0.065340 -0.813868 -0.577349 0.813868 -0.065340 0.577349 0.813868 -0.065340 0.577349 -0.065340 -0.813868 0.577349 -0.065340 -0.813868 0.577349 0.813868 -0.065340 0.577349 0.065340 0.813868 0.577349 -0.813868 0.065340 0.577349 -0.813868 0.065340 0.577349 0.065340 0.813868 -0.577349 0.065340 0.813868 -0.577349 -0.813868 0.065340 0.577349 -0.065340 -0.813868 0.577349 -0.813868 0.065340 0.577349 0.813868 -0.065340 0.577349 0.065340 0.813868 " />
							<TextureCoordinate point="0.0307 0.5753 0.2212 0.5753 0.2212 0.9365 0.0307 0.9365 0.0307 0.5753 0.2212 0.5753 0.2212 0.9365 0.0307 0.9365 0.0307 0.5753 0.2212 0.5753 0.2212 0.9365 0.0307 0.9365 0.0307 0.5753 0.2212 0.5753 0.2212 0.9365 0.0307 0.9365 0.2212 0.5753 0.2212 0.9365 0.0307 0.5753 0.0307 0.9365 " />
						</IndexedTriangleSet>
					</Shape>
				</Group>
			</Transform>
			<Transform DEF="Cube_001_TRANSFORM"
			           translation="0.000000 0.082843 0.082538"
			           scale="1.000000 1.000000 1.000000"
			           rotation="0.000000 1.000000 0.000000 0.000000"
			           >
				<Transform DEF="Cube_001_ifs_TRANSFORM"
				           translation="0.000000 0.000000 0.000000"
				           scale="1.000000 1.000000 1.000000"
				           rotation="0.000000 1.000000 0.000000 0.000000"
				           >
					<Group DEF="group_ME_Cube_011">
						<Shape>
							<Appearance>
								<Material USE="MA_Body" />
							</Appearance>
							<IndexedTriangleSet solid="false"
							                    normalPerVertex="true"
							                    index="0 1 2 0 2 3 4 5 6 4 6 7 8 9 10 8 10 11 12 13 14 12 14 15 16 17 18 16 18 19 20 5 14 20 14 21 "
							                    >
								<Coordinate point="-0.165435 -0.127374 0.132956 -0.165435 -0.024166 0.231832 -0.165435 0.230583 -0.034081 -0.165435 0.127374 -0.132956 -0.165435 0.127374 -0.132956 -0.165435 0.230583 -0.034081 0.165435 0.230583 -0.034081 0.165435 0.127374 -0.132956 0.165435 0.127374 -0.132956 0.165435 0.230583 -0.034081 0.165435 -0.024166 0.231832 0.165435 -0.127374 0.132956 0.165435 -0.127374 0.132956 0.165435 -0.024166 0.231832 -0.165435 -0.024166 0.231832 -0.165435 -0.127374 0.132956 -0.165435 0.127374 -0.132956 0.165435 0.127374 -0.132956 0.165435 -0.127374 0.132956 -0.165435 -0.127374 0.132956 0.165435 0.230583 -0.034081 0.165435 -0.024166 0.231832 " />
								<Normal vector="-0.577349 -0.816279 0.017487 -0.577349 0.017487 0.816279 -0.577349 0.816279 -0.017487 -0.577349 -0.017487 -0.816279 -0.577349 -0.017487 -0.816279 -0.577349 0.816279 -0.017487 0.577349 0.816279 -0.017487 0.577349 -0.017487 -0.816279 0.577349 -0.017487 -0.816279 0.577349 0.816279 -0.017487 0.577349 0.017487 0.816279 0.577349 -0.816279 0.017487 0.577349 -0.816279 0.017487 0.577349 0.017487 0.816279 -0.577349 0.017487 0.816279 -0.577349 -0.816279 0.017487 -0.577349 -0.017487 -0.816279 0.577349 -0.017487 -0.816279 0.577349 -0.816279 0.017487 -0.577349 -0.816279 0.017487 0.577349 0.816279 -0.017487 0.577349 0.017487 0.816279 " />
								<TextureCoordinate point="0.0307 0.5753 0.2212 0.5753 0.2212 0.9365 0.0307 0.9365 0.0307 0.5753 0.2212 0.5753 0.2212 0.9365 0.0307 0.9365 0.0307 0.5753 0.2212 0.5753 0.2212 0.9365 0.0307 0.9365 0.0307 0.5753 0.2212 0.5753 0.2212 0.9365 0.0307 0.9365 0.0377 0.0807 0.2142 0.0807 0.2142 0.4155 0.0377 0.4155 0.0307 0.5753 0.0307 0.9365 " />
							</IndexedTriangleSet>
						</Shape>
					</Group>
				</Transform>
				<Transform DEF="Cube_002_TRANSFORM"
				           translation="0.000000 0.077444 0.092524"
				           scale="1.000000 1.000000 1.000000"
				           rotation="0.000000 1.000000 0.000000 0.000000"
				           >
					<Transform DEF="Cube_002_ifs_TRANSFORM"
					           translation="0.000000 0.000000 0.000000"
					           scale="1.000000 1.000000 1.000000"
					           rotation="0.000000 1.000000 0.000000 0.000000"
					           >
						<Group DEF="group_ME_Cube_012">
							<Shape>
								<Appearance>
									<Material USE="MA_Body" />
								</Appearance>
								<IndexedTriangleSet solid="false"
								                    normalPerVertex="true"
								                    index="0 1 2 0 2 3 4 5 6 4 6 7 8 9 10 8 10 11 12 13 14 12 14 15 16 17 18 16 18 19 20 5 14 20 14 21 "
								                    >
									<Coordinate point="-0.195804 -0.146372 0.152787 -0.195804 -0.043164 0.251662 -0.195804 0.249581 -0.053911 -0.195804 0.146372 -0.152787 -0.195804 0.146372 -0.152787 -0.195804 0.249581 -0.053911 0.195804 0.249581 -0.053911 0.195804 0.146372 -0.152787 0.195804 0.146372 -0.152787 0.195804 0.249581 -0.053911 0.195804 -0.043164 0.251662 0.195804 -0.146372 0.152787 0.195804 -0.146372 0.152787 0.195804 -0.043164 0.251662 -0.195804 -0.043164 0.251662 -0.195804 -0.146372 0.152787 -0.195804 0.146372 -0.152787 0.195804 0.146372 -0.152787 0.195804 -0.146372 0.152787 -0.195804 -0.146372 0.152787 0.195804 0.249581 -0.053911 0.195804 -0.043164 0.251662 " />
									<Normal vector="-0.577349 -0.816279 0.017487 -0.577349 0.017487 0.816279 -0.577349 0.816279 -0.017487 -0.577349 -0.017487 -0.816279 -0.577349 -0.017487 -0.816279 -0.577349 0.816279 -0.017487 0.577349 0.816279 -0.017487 0.577349 -0.017487 -0.816279 0.577349 -0.017487 -0.816279 0.577349 0.816279 -0.017487 0.577349 0.017487 0.816279 0.577349 -0.816279 0.017487 0.577349 -0.816279 0.017487 0.577349 0.017487 0.816279 -0.577349 0.017487 0.816279 -0.577349 -0.816279 0.017487 -0.577349 -0.017487 -0.816279 0.577349 -0.017487 -0.816279 0.577349 -0.816279 0.017487 -0.577349 -0.816279 0.017487 0.577349 0.816279 -0.017487 0.577349 0.017487 0.816279 " />
									<TextureCoordinate point="0.0307 0.5753 0.2212 0.5753 0.2212 0.9365 0.0307 0.9365 0.0307 0.5753 0.2212 0.5753 0.2212 0.9365 0.0307 0.9365 0.0307 0.5753 0.2212 0.5753 0.2212 0.9365 0.0307 0.9365 0.0307 0.5753 0.2212 0.5753 0.2212 0.9365 0.0307 0.9365 0.0377 0.0807 0.2142 0.0807 0.2142 0.4155 0.0377 0.4155 0.0307 0.5753 0.0307 0.9365 " />
								</IndexedTriangleSet>
							</Shape>
						</Group>
					</Transform>
					<Transform DEF="Cube_003_TRANSFORM"
					           translation="0.000000 0.079730 0.026699"
					           scale="1.000000 1.000000 1.000000"
					           rotation="0.000000 1.000000 0.000000 0.000000"
					           >
						<Transform DEF="Cube_003_ifs_TRANSFORM"
						           translation="0.000000 0.000000 0.000000"
						           scale="1.000000 1.000000 1.000000"
						           rotation="0.000000 1.000000 0.000000 0.000000"
						           >
							<Group DEF="group_ME_Cube_013">
								<Shape>
									<Appearance>
										<Material USE="MA_Body" />
									</Appearance>
									<IndexedTriangleSet solid="false"
									                    normalPerVertex="true"
									                    index="0 1 2 0 2 3 4 5 6 4 6 7 8 9 10 8 10 11 12 13 14 12 14 15 16 17 18 16 18 19 20 5 14 20 14 21 "
									                    >
										<Coordinate point="-0.281998 -0.161060 0.113993 -0.281998 0.027084 0.379820 -0.281998 0.349204 0.151833 -0.281998 0.161060 -0.113993 -0.281998 0.161060 -0.113993 -0.281998 0.349204 0.151833 0.281998 0.349204 0.151833 0.281998 0.161060 -0.113993 0.281998 0.161060 -0.113993 0.281998 0.349204 0.151833 0.281998 0.027084 0.379820 0.281998 -0.161060 0.113993 0.281998 -0.161060 0.113993 0.281998 0.027084 0.379820 -0.281998 0.027084 0.379820 -0.281998 -0.161060 0.113993 -0.281998 0.161060 -0.113993 0.281998 0.161060 -0.113993 0.281998 -0.161060 0.113993 -0.281998 -0.161060 0.113993 0.281998 0.349204 0.151833 0.281998 0.027084 0.379820 " />
										<Normal vector="-0.577349 -0.804773 -0.137700 -0.577349 -0.137700 0.804773 -0.577349 0.804773 0.137700 -0.577349 0.137700 -0.804773 -0.577349 0.137700 -0.804773 -0.577349 0.804773 0.137700 0.577349 0.804773 0.137700 0.577349 0.137700 -0.804773 0.577349 0.137700 -0.804773 0.577349 0.804773 0.137700 0.577349 -0.137700 0.804773 0.577349 -0.804773 -0.137700 0.577349 -0.804773 -0.137700 0.577349 -0.137700 0.804773 -0.577349 -0.137700 0.804773 -0.577349 -0.804773 -0.137700 -0.577349 0.137700 -0.804773 0.577349 0.137700 -0.804773 0.577349 -0.804773 -0.137700 -0.577349 -0.804773 -0.137700 0.577349 0.804773 0.137700 0.577349 -0.137700 0.804773 " />
										<TextureCoordinate point="0.0307 0.5753 0.2212 0.5753 0.2212 0.9365 0.0307 0.9365 0.0307 0.5753 0.2212 0.5753 0.2212 0.9365 0.0307 0.9365 0.0307 0.5753 0.2212 0.5753 0.2212 0.9365 0.0307 0.9365 0.0307 0.5753 0.2212 0.5753 0.2212 0.9365 0.0307 0.9365 0.0377 0.0807 0.2142 0.0807 0.2142 0.4155 0.0377 0.4155 0.0307 0.5753 0.0307 0.9365 " />
									</IndexedTriangleSet>
								</Shape>
							</Group>
						</Transform>
						<Transform DEF="Cube_004_TRANSFORM"
						           translation="0.000000 0.111913 0.156703"
						           scale="1.000000 1.000000 1.000000"
						           rotation="0.000000 1.000000 0.000000 0.000000"
						           >
							<Transform DEF="Cube_004_ifs_TRANSFORM"
							           translation="0.000000 0.000000 0.000000"
							           scale="1.000000 1.000000 1.000000"
							           rotation="0.000000 1.000000 0.000000 0.000000"
							           >
								<Group DEF="group_ME_Cube_014">
									<Shape>
										<Appearance>
											<Material USE="MA_Body" />
										</Appearance>
										<IndexedTriangleSet solid="false"
										                    normalPerVertex="true"
										                    index="0 1 2 0 2 3 4 5 6 4 6 7 8 9 10 8 10 11 12 13 14 12 14 15 4 16 17 4 17 15 18 5 14 18 14 19 "
										                    >
											<Coordinate point="-0.323588 -0.268940 0.025497 -0.323588 -0.226061 0.477781 -0.323588 0.311819 0.426788 -0.323588 0.268940 -0.025497 -0.323588 0.268940 -0.025497 -0.323588 0.311819 0.426788 0.323588 0.311819 0.426788 0.323588 0.268940 -0.025497 0.323588 0.268940 -0.025497 0.323588 0.311819 0.426788 0.323588 -0.226061 0.477781 0.323588 -0.268940 0.025497 0.323588 -0.268940 0.025497 0.323588 -0.226061 0.477781 -0.323588 -0.226061 0.477781 -0.323588 -0.268940 0.025497 0.323588 0.268940 -0.025497 0.323588 -0.268940 0.025497 0.323588 0.311819 0.426788 0.323588 -0.226061 0.477781 " />
											<Normal vector="-0.577349 -0.629261 -0.520280 -0.577349 -0.520280 0.629261 -0.577349 0.629261 0.520280 -0.577349 0.520280 -0.629261 -0.577349 0.520280 -0.629261 -0.577349 0.629261 0.520280 0.577349 0.629261 0.520280 0.577349 0.520280 -0.629261 0.577349 0.520280 -0.629261 0.577349 0.629261 0.520280 0.577349 -0.520280 0.629261 0.577349 -0.629261 -0.520280 0.577349 -0.629261 -0.520280 0.577349 -0.520280 0.629261 -0.577349 -0.520280 0.629261 -0.577349 -0.629261 -0.520280 0.577349 0.520280 -0.629261 0.577349 -0.629261 -0.520280 0.577349 0.629261 0.520280 0.577349 -0.520280 0.629261 " />
											<TextureCoordinate point="0.0307 0.5753 0.2212 0.5753 0.2212 0.9365 0.0307 0.9365 0.0307 0.5753 0.2212 0.5753 0.2212 0.9365 0.0307 0.9365 0.0307 0.5753 0.2212 0.5753 0.2212 0.9365 0.0307 0.9365 0.0307 0.5753 0.2212 0.5753 0.2212 0.9365 0.0307 0.9365 0.2212 0.5753 0.2212 0.9365 0.0307 0.5753 0.0307 0.9365 " />
										</IndexedTriangleSet>
									</Shape>
								</Group>
							</Transform>
							<Transform DEF="Cube_005_TRANSFORM"
							           translation="0.000000 -0.234491 0.042937"
							           scale="1.000000 1.000000 1.000000"
							           rotation="0.000000 1.000000 0.000000 0.000000"
							           >
								<Transform DEF="Cube_005_ifs_TRANSFORM"
								           translation="0.000000 0.000000 0.000000"
								           scale="1.000000 1.000000 1.000000"
								           rotation="0.000000 1.000000 0.000000 0.000000"
								           >
									<Group DEF="group_ME_Cube_015">
										<Shape>
											<Appearance>
												<Material USE="MA_Body" />
											</Appearance>
											<IndexedTriangleSet solid="false"
											                    normalPerVertex="true"
											                    index="0 1 2 0 2 3 4 5 6 4 6 7 8 9 10 8 10 11 12 13 14 12 14 15 4 16 17 4 17 15 18 5 14 18 14 19 "
											                    >
												<Coordinate point="-0.117810 -0.098246 -0.029769 -0.117810 -0.180764 0.242561 -0.117810 0.015728 0.302099 -0.117810 0.098246 0.029769 -0.117810 0.098246 0.029769 -0.117810 0.015728 0.302099 0.117810 0.015728 0.302099 0.117810 0.098246 0.029769 0.117810 0.098246 0.029769 0.117810 0.015728 0.302099 0.117810 -0.180764 0.242561 0.117810 -0.098246 -0.029769 0.117810 -0.098246 -0.029769 0.117810 -0.180764 0.242561 -0.117810 -0.180764 0.242561 -0.117810 -0.098246 -0.029769 0.117810 0.098246 0.029769 0.117810 -0.098246 -0.029769 0.117810 0.015728 0.302099 0.117810 -0.180764 0.242561 " />
												<Normal vector="-0.577349 -0.385113 -0.719962 -0.577349 -0.719962 0.385113 -0.577349 0.385113 0.719962 -0.577349 0.719962 -0.385113 -0.577349 0.719962 -0.385113 -0.577349 0.385113 0.719962 0.577349 0.385113 0.719962 0.577349 0.719962 -0.385113 0.577349 0.719962 -0.385113 0.577349 0.385113 0.719962 0.577349 -0.719962 0.385113 0.577349 -0.385113 -0.719962 0.577349 -0.385113 -0.719962 0.577349 -0.719962 0.385113 -0.577349 -0.719962 0.385113 -0.577349 -0.385113 -0.719962 0.577349 0.719962 -0.385113 0.577349 -0.385113 -0.719962 0.577349 0.385113 0.719962 0.577349 -0.719962 0.385113 " />
												<TextureCoordinate point="0.0307 0.5753 0.2212 0.5753 0.2212 0.9365 0.0307 0.9365 0.0307 0.5753 0.2212 0.5753 0.2212 0.9365 0.0307 0.9365 0.0307 0.5753 0.2212 0.5753 0.2212 0.9365 0.0307 0.9365 0.0307 0.5753 0.2212 0.5753 0.2212 0.9365 0.0307 0.9365 0.2212 0.5753 0.2212 0.9365 0.0307 0.5753 0.0307 0.9365 " />
											</IndexedTriangleSet>
										</Shape>
									</Group>
								</Transform>
								<Transform DEF="Cube_008_TRANSFORM"
								           translation="0.000000 -0.072192 0.225129"
								           scale="1.000000 1.000000 1.000000"
								           rotation="0.000000 1.000000 0.000000 0.000000"
								           >
									<Transform DEF="Cube_008_ifs_TRANSFORM"
									           translation="0.000000 0.000000 0.000000"
									           scale="1.000000 1.000000 1.000000"
									           rotation="0.000000 1.000000 0.000000 0.000000"
									           >
										<Group DEF="group_ME_Cube_018">
											<Shape>
												<Appearance>
													<Material USE="MA_Body" />
												</Appearance>
												<IndexedTriangleSet solid="false"
												                    normalPerVertex="true"
												                    index="0 1 2 0 2 3 4 5 6 4 6 7 8 9 10 8 10 11 12 13 14 12 14 15 4 16 17 4 17 15 18 5 14 18 14 19 "
												                    >
													<Coordinate point="-0.091535 -0.099813 0.023998 -0.091535 -0.016896 0.368874 -0.091535 0.182730 0.320878 -0.091535 0.099813 -0.023998 -0.091535 0.099813 -0.023998 -0.091535 0.182730 0.320878 0.091535 0.182730 0.320878 0.091535 0.099813 -0.023998 0.091535 0.099813 -0.023998 0.091535 0.182730 0.320878 0.091535 -0.016896 0.368874 0.091535 -0.099813 0.023998 0.091535 -0.099813 0.023998 0.091535 -0.016896 0.368874 -0.091535 -0.016896 0.368874 -0.091535 -0.099813 0.023998 0.091535 0.099813 -0.023998 0.091535 -0.099813 0.023998 0.091535 0.182730 0.320878 0.091535 -0.016896 0.368874 " />
													<Normal vector="-0.577349 -0.696310 -0.426374 -0.577349 -0.426374 0.696310 -0.577349 0.696310 0.426374 -0.577349 0.426374 -0.696310 -0.577349 0.426374 -0.696310 -0.577349 0.696310 0.426374 0.577349 0.696310 0.426374 0.577349 0.426374 -0.696310 0.577349 0.426374 -0.696310 0.577349 0.696310 0.426374 0.577349 -0.426374 0.696310 0.577349 -0.696310 -0.426374 0.577349 -0.696310 -0.426374 0.577349 -0.426374 0.696310 -0.577349 -0.426374 0.696310 -0.577349 -0.696310 -0.426374 0.577349 0.426374 -0.696310 0.577349 -0.696310 -0.426374 0.577349 0.696310 0.426374 0.577349 -0.426374 0.696310 " />
													<TextureCoordinate point="0.0307 0.5753 0.2212 0.5753 0.2212 0.9365 0.0307 0.9365 0.0307 0.5753 0.2212 0.5753 0.2212 0.9365 0.0307 0.9365 0.0307 0.5753 0.2212 0.5753 0.2212 0.9365 0.0307 0.9365 0.0307 0.5753 0.2212 0.5753 0.2212 0.9365 0.0307 0.9365 0.2212 0.5753 0.2212 0.9365 0.0307 0.5753 0.0307 0.9365 " />
												</IndexedTriangleSet>
											</Shape>
										</Group>
									</Transform>
								</Transform>
							</Transform>
							<Transform DEF="Cube_010_TRANSFORM"
							           translation="0.000000 -0.038509 0.652575"
							           scale="1.000000 1.000000 1.000000"
							           rotation="0.000000 1.000000 0.000000 0.000000"
							           >
								<Transform DEF="Cube_010_ifs_TRANSFORM"
								           translation="0.000000 0.000000 0.000000"
								           scale="1.000000 1.000000 1.000000"
								           rotation="0.000000 1.000000 0.000000 0.000000"
								           >
									<Group DEF="group_ME_Cube_020">
										<Shape>
											<Appearance>
												<Material USE="MA_Body" />
											</Appearance>
											<IndexedTriangleSet solid="false"
											                    normalPerVertex="true"
											                    index="0 1 2 0 2 3 4 5 6 4 6 7 8 9 10 8 10 11 12 13 14 12 14 15 16 17 18 16 18 19 20 21 14 20 14 22 23 5 24 23 24 25 26 27 28 26 28 29 30 31 32 30 32 33 34 35 36 34 36 37 38 39 24 38 24 40 41 42 28 41 28 43 44 21 45 44 45 46 47 48 49 47 49 50 51 27 52 51 52 53 54 55 56 54 56 57 58 59 60 58 60 61 62 63 64 62 64 65 66 67 68 66 68 69 70 71 72 70 72 73 74 48 60 74 60 75 76 55 64 76 64 77 78 79 80 78 80 81 82 83 84 82 84 85 86 87 88 86 88 89 90 91 92 90 92 93 94 95 96 94 96 97 98 99 100 98 100 101 102 103 104 102 104 105 106 107 108 106 108 109 110 111 112 110 112 113 114 115 116 114 116 117 118 119 120 118 120 121 122 123 124 122 124 125 126 127 128 126 128 129 130 131 132 130 132 133 134 135 136 134 136 137 138 139 140 138 140 141 142 143 144 142 144 145 146 147 148 146 148 149 150 151 152 150 152 153 154 155 156 154 156 157 158 159 160 158 160 161 162 163 164 162 164 165 166 167 168 166 168 169 170 171 172 170 172 173 "
											                    >
												<Coordinate point="-0.339561 -0.387640 0.201917 -0.339561 -0.409611 0.351222 -0.339561 0.291067 0.454333 -0.339561 0.313039 0.305027 0.325392 0.313039 0.305027 0.325392 0.291067 0.454333 0.339561 0.291067 0.454333 0.339561 0.313039 0.305027 0.339561 0.313039 0.305027 0.339561 0.291067 0.454333 0.339561 -0.409611 0.351222 0.339561 -0.387640 0.201917 -0.325392 -0.387640 0.201917 -0.325392 -0.409611 0.351222 -0.339561 -0.409611 0.351222 -0.339561 -0.387640 0.201917 0.325392 0.350339 0.051555 0.339561 0.350339 0.051555 0.339561 -0.350339 -0.051555 0.325392 -0.350339 -0.051555 -0.325392 0.291067 0.454333 -0.339561 0.291067 0.454333 -0.325392 -0.409611 0.351222 0.339561 0.291067 0.454333 0.325392 -0.409611 0.351222 0.339561 -0.409611 0.351222 -0.063945 0.291068 0.454333 -0.325392 0.291067 0.454333 -0.325392 -0.409611 0.351222 -0.063945 -0.409611 0.351222 -0.339561 0.350339 0.051555 -0.325392 0.350339 0.051555 -0.325392 -0.350339 -0.051555 -0.339561 -0.350339 -0.051555 0.063945 0.350339 0.051555 0.325392 0.350339 0.051555 0.325392 -0.350339 -0.051555 0.063945 -0.350339 -0.051555 0.339561 -0.387640 0.201917 0.339561 -0.409611 0.351222 0.325392 -0.387640 0.201917 -0.063945 -0.387640 0.201917 -0.063945 -0.409611 0.351222 -0.325392 -0.387640 0.201917 -0.339561 0.313039 0.305027 -0.325392 0.291067 0.454333 -0.325392 0.313039 0.305027 0.063945 0.313039 0.305027 0.063945 0.291068 0.454333 0.325392 0.291067 0.454333 0.325392 0.313039 0.305027 -0.325392 0.313039 0.305027 -0.063945 0.291068 0.454333 -0.063945 0.313039 0.305027 -0.063945 0.313039 0.305027 -0.063945 0.291068 0.454333 0.063945 0.291068 0.454333 0.063945 0.313039 0.305027 0.325392 -0.387640 0.201917 0.325392 -0.409611 0.351222 0.063945 -0.409611 0.351222 0.063945 -0.387640 0.201917 0.063945 -0.387640 0.201917 0.063945 -0.409611 0.351222 -0.063945 -0.409611 0.351222 -0.063945 -0.387640 0.201917 -0.325392 0.350339 0.051555 -0.063945 0.350339 0.051555 -0.063945 -0.350339 -0.051555 -0.325392 -0.350339 -0.051555 -0.063945 0.350339 0.051555 0.063945 0.350339 0.051555 0.063945 -0.350339 -0.051555 -0.063945 -0.350339 -0.051555 0.325392 0.291067 0.454333 0.325392 -0.409611 0.351222 0.063945 0.291068 0.454333 0.063945 -0.409611 0.351222 0.063945 -0.350339 -0.051555 0.063945 -0.365668 0.052611 -0.063945 -0.365668 0.052611 -0.063945 -0.350339 -0.051555 0.325392 -0.350339 -0.051555 0.325392 -0.365668 0.052611 0.063945 -0.365668 0.052611 0.063945 -0.350339 -0.051555 -0.063945 0.350339 0.051555 -0.063945 0.335010 0.155722 0.063945 0.335010 0.155722 0.063945 0.350339 0.051555 -0.325392 0.350339 0.051555 -0.325392 0.335010 0.155722 -0.063945 0.335010 0.155722 -0.063945 0.350339 0.051555 0.063945 0.350339 0.051555 0.063945 0.335010 0.155722 0.325392 0.335010 0.155722 0.325392 0.350339 0.051555 -0.339561 0.350339 0.051555 -0.339561 0.335010 0.155722 -0.325392 0.335010 0.155722 -0.325392 0.350339 0.051555 -0.063945 -0.350339 -0.051555 -0.063945 -0.365668 0.052611 -0.325392 -0.365668 0.052611 -0.325392 -0.350339 -0.051555 0.339561 -0.350339 -0.051555 0.339561 -0.365668 0.052611 0.325392 -0.365668 0.052611 0.325392 -0.350339 -0.051555 -0.325392 -0.350339 -0.051555 -0.325392 -0.365668 0.052611 -0.339561 -0.365668 0.052611 -0.339561 -0.350339 -0.051555 0.339561 0.350339 0.051555 0.339561 0.335010 0.155722 0.339561 -0.365668 0.052611 0.339561 -0.350339 -0.051555 0.325392 0.350339 0.051555 0.325392 0.335010 0.155722 0.339561 0.335010 0.155722 0.339561 0.350339 0.051555 -0.339561 -0.350339 -0.051555 -0.339561 -0.365668 0.052611 -0.339561 0.335010 0.155722 -0.339561 0.350339 0.051555 0.063945 -0.365668 0.052611 0.063945 -0.387640 0.201917 -0.063945 -0.387640 0.201917 -0.063945 -0.365668 0.052611 0.325392 -0.365668 0.052611 0.325392 -0.387640 0.201917 0.063945 -0.387640 0.201917 0.063945 -0.365668 0.052611 -0.063945 0.335010 0.155722 -0.063945 0.313039 0.305027 0.063945 0.313039 0.305027 0.063945 0.335010 0.155722 -0.325392 0.335010 0.155722 -0.325392 0.313039 0.305027 -0.063945 0.313039 0.305027 -0.063945 0.335010 0.155722 0.063945 0.335010 0.155722 0.063945 0.313039 0.305027 0.325392 0.313039 0.305027 0.325392 0.335010 0.155722 -0.339561 0.335010 0.155722 -0.339561 0.313039 0.305027 -0.325392 0.313039 0.305027 -0.325392 0.335010 0.155722 -0.063945 -0.365668 0.052611 -0.063945 -0.387640 0.201917 -0.325392 -0.387640 0.201917 -0.325392 -0.365668 0.052611 0.339561 -0.365668 0.052611 0.339561 -0.387640 0.201917 0.325392 -0.387640 0.201917 0.325392 -0.365668 0.052611 -0.325392 -0.365668 0.052611 -0.325392 -0.387640 0.201917 -0.339561 -0.387640 0.201917 -0.339561 -0.365668 0.052611 0.339561 0.335010 0.155722 0.339561 0.313039 0.305027 0.339561 -0.387640 0.201917 0.339561 -0.365668 0.052611 0.325392 0.335010 0.155722 0.325392 0.313039 0.305027 0.339561 0.313039 0.305027 0.339561 0.335010 0.155722 -0.339561 -0.365668 0.052611 -0.339561 -0.387640 0.201917 -0.339561 0.313039 0.305027 -0.339561 0.335010 0.155722 " />
												<Normal vector="-0.707083 -0.699545 -0.102939 -0.577349 -0.655232 0.487136 -0.577349 0.487136 0.655232 -0.707083 0.699545 0.102939 0.000000 0.989319 0.145573 0.000000 0.596606 0.802515 0.577349 0.487136 0.655232 0.707083 0.699545 0.102939 0.707083 0.699545 0.102939 0.577349 0.487136 0.655232 0.577349 -0.655232 0.487136 0.707083 -0.699545 -0.102939 0.000000 -0.989319 -0.145573 0.000000 -0.802515 0.596606 -0.577349 -0.655232 0.487136 -0.707083 -0.699545 -0.102939 0.000000 0.802515 -0.596606 0.577349 0.655232 -0.487136 0.577349 -0.487136 -0.655232 0.000000 -0.596606 -0.802515 0.000000 0.596606 0.802515 -0.577349 0.487136 0.655232 0.000000 -0.802515 0.596606 0.577349 0.487136 0.655232 0.000000 -0.802515 0.596606 0.577349 -0.655232 0.487136 0.000000 0.596606 0.802515 0.000000 0.596606 0.802515 0.000000 -0.802515 0.596606 0.000000 -0.802515 0.596606 -0.577349 0.655232 -0.487136 0.000000 0.802515 -0.596606 0.000000 -0.596606 -0.802515 -0.577349 -0.487136 -0.655232 0.000000 0.802515 -0.596606 0.000000 0.802515 -0.596606 0.000000 -0.596606 -0.802515 0.000000 -0.596606 -0.802515 0.707083 -0.699545 -0.102939 0.577349 -0.655232 0.487136 0.000000 -0.989319 -0.145573 0.000000 -0.989319 -0.145573 0.000000 -0.802515 0.596606 0.000000 -0.989319 -0.145573 -0.707083 0.699545 0.102939 0.000000 0.596606 0.802515 0.000000 0.989319 0.145573 0.000000 0.989319 0.145573 0.000000 0.596606 0.802515 0.000000 0.596606 0.802515 0.000000 0.989319 0.145573 0.000000 0.989319 0.145573 0.000000 0.596606 0.802515 0.000000 0.989319 0.145573 0.000000 0.989319 0.145573 0.000000 0.596606 0.802515 0.000000 0.596606 0.802515 0.000000 0.989319 0.145573 0.000000 -0.989319 -0.145573 0.000000 -0.802515 0.596606 0.000000 -0.802515 0.596606 0.000000 -0.989319 -0.145573 0.000000 -0.989319 -0.145573 0.000000 -0.802515 0.596606 0.000000 -0.802515 0.596606 0.000000 -0.989319 -0.145573 0.000000 0.802515 -0.596606 0.000000 0.802515 -0.596606 0.000000 -0.596606 -0.802515 0.000000 -0.596606 -0.802515 0.000000 0.802515 -0.596606 0.000000 0.802515 -0.596606 0.000000 -0.596606 -0.802515 0.000000 -0.596606 -0.802515 0.000000 0.596606 0.802515 0.000000 -0.802515 0.596606 0.000000 0.596606 0.802515 0.000000 -0.802515 0.596606 0.000000 -0.596606 -0.802515 0.000000 -0.989319 -0.145573 0.000000 -0.989319 -0.145573 0.000000 -0.596606 -0.802515 0.000000 -0.596606 -0.802515 0.000000 -0.989319 -0.145573 0.000000 -0.989319 -0.145573 0.000000 -0.596606 -0.802515 0.000000 0.802515 -0.596606 0.000000 0.989319 0.145573 0.000000 0.989319 0.145573 0.000000 0.802515 -0.596606 0.000000 0.802515 -0.596606 0.000000 0.989319 0.145573 0.000000 0.989319 0.145573 0.000000 0.802515 -0.596606 0.000000 0.802515 -0.596606 0.000000 0.989319 0.145573 0.000000 0.989319 0.145573 0.000000 0.802515 -0.596606 -0.577349 0.655232 -0.487136 -0.707083 0.699545 0.102939 0.000000 0.989319 0.145573 0.000000 0.802515 -0.596606 0.000000 -0.596606 -0.802515 0.000000 -0.989319 -0.145573 0.000000 -0.989319 -0.145573 0.000000 -0.596606 -0.802515 0.577349 -0.487136 -0.655232 0.707083 -0.699545 -0.102939 0.000000 -0.989319 -0.145573 0.000000 -0.596606 -0.802515 0.000000 -0.596606 -0.802515 0.000000 -0.989319 -0.145573 -0.707083 -0.699545 -0.102939 -0.577349 -0.487136 -0.655232 0.577349 0.655232 -0.487136 0.707083 0.699545 0.102939 0.707083 -0.699545 -0.102939 0.577349 -0.487136 -0.655232 0.000000 0.802515 -0.596606 0.000000 0.989319 0.145573 0.707083 0.699545 0.102939 0.577349 0.655232 -0.487136 -0.577349 -0.487136 -0.655232 -0.707083 -0.699545 -0.102939 -0.707083 0.699545 0.102939 -0.577349 0.655232 -0.487136 0.000000 -0.989319 -0.145573 0.000000 -0.989319 -0.145573 0.000000 -0.989319 -0.145573 0.000000 -0.989319 -0.145573 0.000000 -0.989319 -0.145573 0.000000 -0.989319 -0.145573 0.000000 -0.989319 -0.145573 0.000000 -0.989319 -0.145573 0.000000 0.989319 0.145573 0.000000 0.989319 0.145573 0.000000 0.989319 0.145573 0.000000 0.989319 0.145573 0.000000 0.989319 0.145573 0.000000 0.989319 0.145573 0.000000 0.989319 0.145573 0.000000 0.989319 0.145573 0.000000 0.989319 0.145573 0.000000 0.989319 0.145573 0.000000 0.989319 0.145573 0.000000 0.989319 0.145573 -0.707083 0.699545 0.102939 -0.707083 0.699545 0.102939 0.000000 0.989319 0.145573 0.000000 0.989319 0.145573 0.000000 -0.989319 -0.145573 0.000000 -0.989319 -0.145573 0.000000 -0.989319 -0.145573 0.000000 -0.989319 -0.145573 0.707083 -0.699545 -0.102939 0.707083 -0.699545 -0.102939 0.000000 -0.989319 -0.145573 0.000000 -0.989319 -0.145573 0.000000 -0.989319 -0.145573 0.000000 -0.989319 -0.145573 -0.707083 -0.699545 -0.102939 -0.707083 -0.699545 -0.102939 0.707083 0.699545 0.102939 0.707083 0.699545 0.102939 0.707083 -0.699545 -0.102939 0.707083 -0.699545 -0.102939 0.000000 0.989319 0.145573 0.000000 0.989319 0.145573 0.707083 0.699545 0.102939 0.707083 0.699545 0.102939 -0.707083 -0.699545 -0.102939 -0.707083 -0.699545 -0.102939 -0.707083 0.699545 0.102939 -0.707083 0.699545 0.102939 " />
												<TextureCoordinate point="0.0307 0.5753 0.2212 0.5753 0.2212 0.9365 0.0307 0.9365 0.0307 0.5753 0.2212 0.5753 0.2212 0.9365 0.0307 0.9365 0.0307 0.5753 0.2212 0.5753 0.2212 0.9365 0.0307 0.9365 0.0307 0.5753 0.2212 0.5753 0.2212 0.9365 0.0307 0.9365 0.0408 0.0865 0.2112 0.0865 0.2112 0.4097 0.0408 0.4097 0.0307 0.5753 0.2212 0.5753 0.0307 0.9365 0.0307 0.5753 0.2212 0.9365 0.0307 0.9365 0.0307 0.5753 0.2212 0.5753 0.2212 0.9365 0.0307 0.9365 0.0408 0.0865 0.2112 0.0865 0.2112 0.4097 0.0408 0.4097 0.0408 0.0865 0.2112 0.0865 0.2112 0.4097 0.0408 0.4097 0.0307 0.5753 0.2212 0.5753 0.0307 0.9365 0.0307 0.5753 0.2212 0.5753 0.0307 0.9365 0.0307 0.5753 0.2212 0.9365 0.0307 0.9365 0.0307 0.5753 0.2212 0.5753 0.2212 0.9365 0.0307 0.9365 0.0307 0.5753 0.2212 0.9365 0.0307 0.9365 0.0307 0.5753 0.2212 0.5753 0.2212 0.9365 0.0307 0.9365 0.0307 0.5753 0.2212 0.5753 0.2212 0.9365 0.0307 0.9365 0.0307 0.5753 0.2212 0.5753 0.2212 0.9365 0.0307 0.9365 0.0408 0.0865 0.2112 0.0865 0.2112 0.4097 0.0408 0.4097 0.0408 0.0865 0.2112 0.0865 0.2112 0.4097 0.0408 0.4097 0.0307 0.5753 0.0307 0.9365 0.0307 0.5753 0.0307 0.9365 0.0307 0.5753 0.2212 0.5753 0.2212 0.9365 0.0307 0.9365 0.0307 0.5753 0.2212 0.5753 0.2212 0.9365 0.0307 0.9365 0.0307 0.5753 0.2212 0.5753 0.2212 0.9365 0.0307 0.9365 0.0307 0.5753 0.2212 0.5753 0.2212 0.9365 0.0307 0.9365 0.0307 0.5753 0.2212 0.5753 0.2212 0.9365 0.0307 0.9365 0.0307 0.5753 0.2212 0.5753 0.2212 0.9365 0.0307 0.9365 0.0307 0.5753 0.2212 0.5753 0.2212 0.9365 0.0307 0.9365 0.0307 0.5753 0.2212 0.5753 0.2212 0.9365 0.0307 0.9365 0.0307 0.5753 0.2212 0.5753 0.2212 0.9365 0.0307 0.9365 0.0307 0.5753 0.2212 0.5753 0.2212 0.9365 0.0307 0.9365 0.0307 0.5753 0.2212 0.5753 0.2212 0.9365 0.0307 0.9365 0.0307 0.5753 0.2212 0.5753 0.2212 0.9365 0.0307 0.9365 0.0307 0.5753 0.2212 0.5753 0.2212 0.9365 0.0307 0.9365 0.9839 0.0549 0.9839 0.7851 0.3227 0.7851 0.3227 0.0549 0.0307 0.5753 0.2212 0.5753 0.2212 0.9365 0.0307 0.9365 0.0307 0.5753 0.2212 0.5753 0.2212 0.9365 0.0307 0.9365 0.0307 0.5753 0.2212 0.5753 0.2212 0.9365 0.0307 0.9365 0.0307 0.5753 0.2212 0.5753 0.2212 0.9365 0.0307 0.9365 0.3227 0.0549 0.3227 0.7851 0.9839 0.7851 0.9839 0.0549 0.0307 0.5753 0.2212 0.5753 0.2212 0.9365 0.0307 0.9365 0.0307 0.5753 0.2212 0.5753 0.2212 0.9365 0.0307 0.9365 0.0307 0.5753 0.2212 0.5753 0.2212 0.9365 0.0307 0.9365 0.0307 0.5753 0.2212 0.5753 0.2212 0.9365 0.0307 0.9365 0.0307 0.5753 0.2212 0.5753 0.2212 0.9365 0.0307 0.9365 " />
											</IndexedTriangleSet>
										</Shape>
									</Group>
								</Transform>
								<Transform DEF="Cube_009_TRANSFORM"
								           translation="-0.000000 -0.312170 -0.007802"
								           scale="1.000000 1.000000 1.000000"
								           rotation="0.000000 1.000000 0.000000 0.000000"
								           >
									<Transform DEF="Cube_009_ifs_TRANSFORM"
									           translation="0.000000 0.000000 0.000000"
									           scale="1.000000 1.000000 1.000000"
									           rotation="0.000000 1.000000 0.000000 0.000000"
									           >
										<Group DEF="group_ME_Cube_019">
											<Shape>
												<Appearance>
													<Material USE="MA_Body" />
												</Appearance>
												<IndexedTriangleSet solid="false"
												                    normalPerVertex="true"
												                    index="0 1 2 0 2 3 4 5 6 4 6 7 8 9 10 8 10 11 12 13 14 12 14 15 16 17 18 16 18 19 20 21 22 20 22 23 "
												                    >
													<Coordinate point="-0.080296 0.043786 -0.005246 -0.080296 0.026155 -0.152407 -0.080296 -0.061417 -0.141915 -0.080296 -0.043786 0.005246 -0.080296 -0.043786 0.005246 -0.080296 -0.061417 -0.141915 0.080296 -0.061417 -0.141915 0.080296 -0.043786 0.005246 0.080296 -0.043786 0.005246 0.080296 -0.061417 -0.141915 0.080296 0.026155 -0.152407 0.080296 0.043786 -0.005246 0.080296 0.043786 -0.005246 0.080296 0.026155 -0.152407 -0.080296 0.026155 -0.152407 -0.080296 0.043786 -0.005246 -0.080296 -0.043786 0.005246 0.080296 -0.043786 0.005246 0.080296 0.043786 -0.005246 -0.080296 0.043786 -0.005246 0.080296 -0.061417 -0.141915 -0.080296 -0.061417 -0.141915 -0.080296 0.026155 -0.152407 0.080296 0.026155 -0.152407 " />
													<Normal vector="-0.577349 0.641926 0.504562 -0.577349 0.504562 -0.641926 -0.577349 -0.641926 -0.504562 -0.577349 -0.504562 0.641926 -0.577349 -0.504562 0.641926 -0.577349 -0.641926 -0.504562 0.577349 -0.641926 -0.504562 0.577349 -0.504562 0.641926 0.577349 -0.504562 0.641926 0.577349 -0.641926 -0.504562 0.577349 0.504562 -0.641926 0.577349 0.641926 0.504562 0.577349 0.641926 0.504562 0.577349 0.504562 -0.641926 -0.577349 0.504562 -0.641926 -0.577349 0.641926 0.504562 -0.577349 -0.504562 0.641926 0.577349 -0.504562 0.641926 0.577349 0.641926 0.504562 -0.577349 0.641926 0.504562 0.577349 -0.641926 -0.504562 -0.577349 -0.641926 -0.504562 -0.577349 0.504562 -0.641926 0.577349 0.504562 -0.641926 " />
													<TextureCoordinate point="0.0365 0.0629 0.2154 0.0629 0.2154 0.4021 0.0365 0.4021 0.0307 0.5753 0.2212 0.5753 0.2212 0.9365 0.0307 0.9365 0.0365 0.0629 0.2154 0.0629 0.2154 0.4021 0.0365 0.4021 0.0307 0.5753 0.2212 0.5753 0.2212 0.9365 0.0307 0.9365 0.0365 0.0629 0.2154 0.0629 0.2154 0.4021 0.0365 0.4021 0.0365 0.0629 0.2154 0.0629 0.2154 0.4021 0.0365 0.4021 " />
												</IndexedTriangleSet>
											</Shape>
										</Group>
									</Transform>
								</Transform>
							</Transform>
							<Transform DEF="Cube_011_TRANSFORM"
							           translation="0.000000 0.297530 0.418945"
							           scale="1.000000 1.000000 1.000000"
							           rotation="0.000000 1.000000 0.000000 0.000000"
							           >
								<Transform DEF="Cube_011_ifs_TRANSFORM"
								           translation="0.000000 0.000000 0.000000"
								           scale="1.000000 1.000000 1.000000"
								           rotation="0.000000 1.000000 0.000000 0.000000"
								           >
									<Group DEF="group_ME_Cube_021">
										<Shape>
											<Appearance>
												<Material USE="MA_Body" />
											</Appearance>
											<IndexedTriangleSet solid="false"
											                    normalPerVertex="true"
											                    index="0 1 2 0 2 3 4 5 6 4 6 7 8 9 10 8 10 11 12 13 14 12 14 15 16 17 18 16 18 19 20 5 14 20 14 21 "
											                    >
												<Coordinate point="-0.156619 -0.066781 -0.018199 -0.156619 -0.108857 0.136194 -0.156619 0.024705 0.172593 -0.156619 0.066781 0.018199 -0.156619 0.066781 0.018199 -0.156619 0.024705 0.172593 0.156619 0.024705 0.172593 0.156619 0.066781 0.018199 0.156619 0.066781 0.018199 0.156619 0.024705 0.172593 0.156619 -0.108857 0.136194 0.156619 -0.066781 -0.018199 0.156619 -0.066781 -0.018199 0.156619 -0.108857 0.136194 -0.156619 -0.108857 0.136194 -0.156619 -0.066781 -0.018199 -0.156619 0.066781 0.018199 0.156619 0.066781 0.018199 0.156619 -0.066781 -0.018199 -0.156619 -0.066781 -0.018199 0.156619 0.024705 0.172593 0.156619 -0.108857 0.136194 " />
												<Normal vector="-0.577349 -0.405225 -0.708823 -0.577349 -0.708823 0.405225 -0.577349 0.405225 0.708823 -0.577349 0.708823 -0.405225 -0.577349 0.708823 -0.405225 -0.577349 0.405225 0.708823 0.577349 0.405225 0.708823 0.577349 0.708823 -0.405225 0.577349 0.708823 -0.405225 0.577349 0.405225 0.708823 0.577349 -0.708823 0.405225 0.577349 -0.405225 -0.708823 0.577349 -0.405225 -0.708823 0.577349 -0.708823 0.405225 -0.577349 -0.708823 0.405225 -0.577349 -0.405225 -0.708823 -0.577349 0.708823 -0.405225 0.577349 0.708823 -0.405225 0.577349 -0.405225 -0.708823 -0.577349 -0.405225 -0.708823 0.577349 0.405225 0.708823 0.577349 -0.708823 0.405225 " />
												<TextureCoordinate point="0.0307 0.5753 0.2212 0.5753 0.2212 0.9365 0.0307 0.9365 0.0307 0.5753 0.2212 0.5753 0.2212 0.9365 0.0307 0.9365 0.0307 0.5753 0.2212 0.5753 0.2212 0.9365 0.0307 0.9365 0.0307 0.5753 0.2212 0.5753 0.2212 0.9365 0.0307 0.9365 0.0282 0.0627 0.2237 0.0627 0.2237 0.4335 0.0282 0.4335 0.0307 0.5753 0.0307 0.9365 " />
											</IndexedTriangleSet>
										</Shape>
									</Group>
								</Transform>
								<Transform DEF="Cube_006_TRANSFORM"
								           translation="0.159481 -0.259019 -0.041205"
								           scale="1.000000 1.000000 1.000000"
								           rotation="0.000000 1.000000 0.000000 0.000000"
								           >
									<Transform DEF="Cube_006_ifs_TRANSFORM"
									           translation="0.000000 0.000000 0.000000"
									           scale="1.000000 1.000000 1.000000"
									           rotation="0.000000 1.000000 0.000000 0.000000"
									           >
										<Group DEF="group_ME_Cube_016">
											<Shape>
												<Appearance>
													<Material USE="MA_Body" />
												</Appearance>
												<IndexedTriangleSet solid="false"
												                    normalPerVertex="true"
												                    index="0 1 2 0 2 3 4 5 6 4 6 7 8 9 10 8 10 11 12 13 14 12 14 15 16 17 18 16 18 19 20 5 14 20 14 21 "
												                    >
													<Coordinate point="-0.169667 -0.320019 0.004433 -0.115730 -0.346409 0.163675 -0.115730 0.275090 0.266672 -0.169667 0.301480 0.107430 -0.169667 0.301480 0.107430 -0.115730 0.275090 0.266672 0.223603 0.293628 0.154809 0.169667 0.320019 -0.004433 0.169667 0.320019 -0.004433 0.223603 0.293628 0.154809 0.223603 -0.327871 0.051812 0.169667 -0.301480 -0.107430 0.169667 -0.301480 -0.107430 0.223603 -0.327871 0.051812 -0.115730 -0.346409 0.163675 -0.169667 -0.320019 0.004433 -0.169667 0.301480 0.107430 0.169667 0.320019 -0.004433 0.169667 -0.301480 -0.107430 -0.169667 -0.320019 0.004433 0.223603 0.293628 0.154809 0.223603 -0.327871 0.051812 " />
													<Normal vector="-0.730552 -0.509964 -0.454085 -0.364605 -0.689016 0.626331 -0.364605 0.450117 0.815119 -0.730552 0.629170 -0.265297 -0.730552 0.629170 -0.265297 -0.364605 0.450117 0.815119 0.730552 0.509964 0.454085 0.364605 0.689016 -0.626331 0.364605 0.689016 -0.626331 0.730552 0.509964 0.454085 0.730552 -0.629170 0.265297 0.364605 -0.450117 -0.815119 0.364605 -0.450117 -0.815119 0.730552 -0.629170 0.265297 -0.364605 -0.689016 0.626331 -0.730552 -0.509964 -0.454085 -0.730552 0.629170 -0.265297 0.364605 0.689016 -0.626331 0.364605 -0.450117 -0.815119 -0.730552 -0.509964 -0.454085 0.730552 0.509964 0.454085 0.730552 -0.629170 0.265297 " />
													<TextureCoordinate point="0.0307 0.5753 0.2212 0.5753 0.2212 0.9365 0.0307 0.9365 0.0307 0.5753 0.2212 0.5753 0.2212 0.9365 0.0307 0.9365 0.0307 0.5753 0.2212 0.5753 0.2212 0.9365 0.0307 0.9365 0.0307 0.5753 0.2212 0.5753 0.2212 0.9365 0.0307 0.9365 0.0282 0.0627 0.2237 0.0627 0.2237 0.4335 0.0282 0.4335 0.0307 0.5753 0.0307 0.9365 " />
												</IndexedTriangleSet>
											</Shape>
										</Group>
									</Transform>
								</Transform>
								<Transform DEF="Cube_013_TRANSFORM"
								           translation="-0.159481 -0.259019 -0.041205"
								           scale="1.000000 1.000000 1.000000"
								           rotation="0.000000 1.000000 0.000000 0.000000"
								           >
									<Transform DEF="Cube_013_ifs_TRANSFORM"
									           translation="0.000000 0.000000 0.000000"
									           scale="1.000000 1.000000 1.000000"
									           rotation="0.000000 1.000000 0.000000 0.000000"
									           >
										<Group DEF="group_ME_Cube_023">
											<Shape>
												<Appearance>
													<Material USE="MA_Body" />
												</Appearance>
												<IndexedTriangleSet solid="false"
												                    normalPerVertex="true"
												                    index="0 1 2 0 2 3 4 5 6 4 6 7 8 9 10 8 10 11 12 13 14 12 14 15 16 17 18 16 18 19 20 21 14 20 14 7 "
												                    >
													<Coordinate point="0.169667 -0.320019 0.004433 0.169667 0.301480 0.107430 0.115730 0.275090 0.266672 0.115730 -0.346409 0.163675 0.169667 0.301480 0.107430 -0.169667 0.320019 -0.004433 -0.223603 0.293628 0.154809 0.115730 0.275090 0.266672 -0.169667 0.320019 -0.004433 -0.169667 -0.301480 -0.107430 -0.223603 -0.327871 0.051812 -0.223603 0.293628 0.154809 -0.169667 -0.301480 -0.107430 0.169667 -0.320019 0.004433 0.115730 -0.346409 0.163675 -0.223603 -0.327871 0.051812 0.169667 0.301480 0.107430 0.169667 -0.320019 0.004433 -0.169667 -0.301480 -0.107430 -0.169667 0.320019 -0.004433 -0.223603 0.293628 0.154809 -0.223603 -0.327871 0.051812 " />
													<Normal vector="0.730552 -0.509964 -0.454085 0.730552 0.629170 -0.265297 0.364605 0.450117 0.815119 0.364605 -0.689016 0.626331 0.730552 0.629170 -0.265297 -0.364605 0.689016 -0.626331 -0.730552 0.509964 0.454085 0.364605 0.450117 0.815119 -0.364605 0.689016 -0.626331 -0.364605 -0.450117 -0.815119 -0.730552 -0.629170 0.265297 -0.730552 0.509964 0.454085 -0.364605 -0.450117 -0.815119 0.730552 -0.509964 -0.454085 0.364605 -0.689016 0.626331 -0.730552 -0.629170 0.265297 0.730552 0.629170 -0.265297 0.730552 -0.509964 -0.454085 -0.364605 -0.450117 -0.815119 -0.364605 0.689016 -0.626331 -0.730552 0.509964 0.454085 -0.730552 -0.629170 0.265297 " />
													<TextureCoordinate point="0.0307 0.5753 0.0307 0.9365 0.2212 0.9365 0.2212 0.5753 0.0307 0.5753 0.0307 0.9365 0.2212 0.9365 0.2212 0.5753 0.0307 0.5753 0.0307 0.9365 0.2212 0.9365 0.2212 0.5753 0.0307 0.5753 0.0307 0.9365 0.2212 0.9365 0.2212 0.5753 0.0282 0.0627 0.0282 0.4335 0.2237 0.4335 0.2237 0.0627 0.0307 0.5753 0.0307 0.9365 " />
												</IndexedTriangleSet>
											</Shape>
										</Group>
									</Transform>
								</Transform>
							</Transform>
							<Transform DEF="Cube_012_TRANSFORM"
							           translation="0.000000 0.306057 0.563553"
							           scale="1.000000 1.000000 1.000000"
							           rotation="0.000000 1.000000 0.000000 0.000000"
							           >
								<Transform DEF="Cube_012_ifs_TRANSFORM"
								           translation="0.000000 0.000000 0.000000"
								           scale="1.000000 1.000000 1.000000"
								           rotation="0.000000 1.000000 0.000000 0.000000"
								           >
									<Group DEF="group_ME_Cube_022">
										<Shape>
											<Appearance>
												<Material USE="MA_Body" />
											</Appearance>
											<IndexedTriangleSet solid="false"
											                    normalPerVertex="true"
											                    index="0 1 2 0 2 3 4 5 6 4 6 7 8 9 10 8 10 11 12 13 14 12 14 15 16 17 18 16 18 19 20 5 14 20 14 21 "
											                    >
												<Coordinate point="-0.121170 -0.042577 -0.017787 -0.121170 -0.102615 0.125929 -0.121170 -0.017462 0.161502 -0.121170 0.042577 0.017787 -0.121170 0.042577 0.017787 -0.121170 -0.017462 0.161502 0.121170 -0.017462 0.161502 0.121170 0.042577 0.017787 0.121170 0.042577 0.017787 0.121170 -0.017462 0.161502 0.121170 -0.102615 0.125929 0.121170 -0.042577 -0.017787 0.121170 -0.042577 -0.017787 0.121170 -0.102615 0.125929 -0.121170 -0.102615 0.125929 -0.121170 -0.042577 -0.017787 -0.121170 0.042577 0.017787 0.121170 0.042577 0.017787 0.121170 -0.042577 -0.017787 -0.121170 -0.042577 -0.017787 0.121170 -0.017462 0.161502 0.121170 -0.102615 0.125929 " />
												<Normal vector="-0.577349 -0.310160 -0.755272 -0.577349 -0.755272 0.310160 -0.577349 0.310160 0.755272 -0.577349 0.755272 -0.310160 -0.577349 0.755272 -0.310160 -0.577349 0.310160 0.755272 0.577349 0.310160 0.755272 0.577349 0.755272 -0.310160 0.577349 0.755272 -0.310160 0.577349 0.310160 0.755272 0.577349 -0.755272 0.310160 0.577349 -0.310160 -0.755272 0.577349 -0.310160 -0.755272 0.577349 -0.755272 0.310160 -0.577349 -0.755272 0.310160 -0.577349 -0.310160 -0.755272 -0.577349 0.755272 -0.310160 0.577349 0.755272 -0.310160 0.577349 -0.310160 -0.755272 -0.577349 -0.310160 -0.755272 0.577349 0.310160 0.755272 0.577349 -0.755272 0.310160 " />
												<TextureCoordinate point="0.0307 0.5753 0.2212 0.5753 0.2212 0.9365 0.0307 0.9365 0.0307 0.5753 0.2212 0.5753 0.2212 0.9365 0.0307 0.9365 0.0307 0.5753 0.2212 0.5753 0.2212 0.9365 0.0307 0.9365 0.0307 0.5753 0.2212 0.5753 0.2212 0.9365 0.0307 0.9365 0.0282 0.0627 0.2237 0.0627 0.2237 0.4335 0.0282 0.4335 0.0307 0.5753 0.0307 0.9365 " />
											</IndexedTriangleSet>
										</Shape>
									</Group>
								</Transform>
								<Transform DEF="Cube_007_TRANSFORM"
								           translation="0.162134 -0.286247 -0.023931"
								           scale="1.000000 1.000000 1.000000"
								           rotation="0.000000 1.000000 0.000000 0.000000"
								           >
									<Transform DEF="Cube_007_ifs_TRANSFORM"
									           translation="0.000000 0.000000 0.000000"
									           scale="1.000000 1.000000 1.000000"
									           rotation="0.000000 1.000000 0.000000 0.000000"
									           >
										<Group DEF="group_ME_Cube_017">
											<Shape>
												<Appearance>
													<Material USE="MA_Body" />
												</Appearance>
												<IndexedTriangleSet solid="false"
												                    normalPerVertex="true"
												                    index="0 1 2 0 2 3 4 5 6 4 6 7 8 9 10 8 10 11 12 13 14 12 14 15 4 16 17 4 17 15 18 5 14 18 14 19 "
												                    >
													<Coordinate point="-0.172617 -0.302193 -0.002488 -0.132990 -0.326011 0.141237 -0.132990 0.263021 0.238853 -0.172617 0.286840 0.095129 -0.172617 0.286840 0.095129 -0.132990 0.263021 0.238853 0.212243 0.278374 0.146213 0.172617 0.302193 0.002488 0.172617 0.302193 0.002488 0.212243 0.278374 0.146213 0.212243 -0.310658 0.048596 0.172617 -0.286840 -0.095129 0.172617 -0.286840 -0.095129 0.212243 -0.310658 0.048596 -0.132990 -0.326011 0.141237 -0.172617 -0.302193 -0.002488 0.172617 0.302193 0.002488 0.172617 -0.286840 -0.095129 0.212243 0.278374 0.146213 0.212243 -0.310658 0.048596 " />
													<Normal vector="-0.708640 -0.503250 -0.494491 -0.405560 -0.685415 0.604694 -0.405560 0.453719 0.793481 -0.708640 0.635884 -0.305704 -0.708640 0.635884 -0.305704 -0.405560 0.453719 0.793481 0.708640 0.503250 0.494491 0.405560 0.685415 -0.604694 0.405560 0.685415 -0.604694 0.708640 0.503250 0.494491 0.708640 -0.635884 0.305704 0.405560 -0.453719 -0.793481 0.405560 -0.453719 -0.793481 0.708640 -0.635884 0.305704 -0.405560 -0.685415 0.604694 -0.708640 -0.503250 -0.494491 0.405560 0.685415 -0.604694 0.405560 -0.453719 -0.793481 0.708640 0.503250 0.494491 0.708640 -0.635884 0.305704 " />
													<TextureCoordinate point="0.0307 0.5753 0.2212 0.5753 0.2212 0.9365 0.0307 0.9365 0.0307 0.5753 0.2212 0.5753 0.2212 0.9365 0.0307 0.9365 0.0307 0.5753 0.2212 0.5753 0.2212 0.9365 0.0307 0.9365 0.0307 0.5753 0.2212 0.5753 0.2212 0.9365 0.0307 0.9365 0.2212 0.5753 0.2212 0.9365 0.0307 0.5753 0.0307 0.9365 " />
												</IndexedTriangleSet>
											</Shape>
										</Group>
									</Transform>
								</Transform>
								<Transform DEF="Cube_014_TRANSFORM"
								           translation="-0.162134 -0.286247 -0.023931"
								           scale="1.000000 1.000000 1.000000"
								           rotation="0.000000 1.000000 0.000000 0.000000"
								           >
									<Transform DEF="Cube_014_ifs_TRANSFORM"
									           translation="0.000000 0.000000 0.000000"
									           scale="1.000000 1.000000 1.000000"
									           rotation="0.000000 1.000000 0.000000 0.000000"
									           >
										<Group DEF="group_ME_Cube_024">
											<Shape>
												<Appearance>
													<Material USE="MA_Body" />
												</Appearance>
												<IndexedTriangleSet solid="false"
												                    normalPerVertex="true"
												                    index="0 1 2 0 2 3 4 5 6 4 6 7 8 9 10 8 10 11 12 13 14 12 14 15 4 13 16 4 16 17 18 19 14 18 14 7 "
												                    >
													<Coordinate point="0.172617 -0.302193 -0.002488 0.172617 0.286840 0.095129 0.132990 0.263021 0.238853 0.132990 -0.326011 0.141237 0.172617 0.286840 0.095129 -0.172617 0.302193 0.002488 -0.212243 0.278374 0.146213 0.132990 0.263021 0.238853 -0.172617 0.302193 0.002488 -0.172617 -0.286840 -0.095129 -0.212243 -0.310658 0.048596 -0.212243 0.278374 0.146213 -0.172617 -0.286840 -0.095129 0.172617 -0.302193 -0.002488 0.132990 -0.326011 0.141237 -0.212243 -0.310658 0.048596 -0.172617 -0.286840 -0.095129 -0.172617 0.302193 0.002488 -0.212243 0.278374 0.146213 -0.212243 -0.310658 0.048596 " />
													<Normal vector="0.708640 -0.503250 -0.494491 0.708640 0.635884 -0.305704 0.405560 0.453719 0.793481 0.405560 -0.685415 0.604694 0.708640 0.635884 -0.305704 -0.405560 0.685415 -0.604694 -0.708640 0.503250 0.494491 0.405560 0.453719 0.793481 -0.405560 0.685415 -0.604694 -0.405560 -0.453719 -0.793481 -0.708640 -0.635884 0.305704 -0.708640 0.503250 0.494491 -0.405560 -0.453719 -0.793481 0.708640 -0.503250 -0.494491 0.405560 -0.685415 0.604694 -0.708640 -0.635884 0.305704 -0.405560 -0.453719 -0.793481 -0.405560 0.685415 -0.604694 -0.708640 0.503250 0.494491 -0.708640 -0.635884 0.305704 " />
													<TextureCoordinate point="0.0307 0.5753 0.0307 0.9365 0.2212 0.9365 0.2212 0.5753 0.0307 0.5753 0.0307 0.9365 0.2212 0.9365 0.2212 0.5753 0.0307 0.5753 0.0307 0.9365 0.2212 0.9365 0.2212 0.5753 0.0307 0.5753 0.0307 0.9365 0.2212 0.9365 0.2212 0.5753 0.2212 0.9365 0.2212 0.5753 0.0307 0.5753 0.0307 0.9365 " />
												</IndexedTriangleSet>
											</Shape>
										</Group>
									</Transform>
								</Transform>
							</Transform>
						</Transform>
					</Transform>
				</Transform>
			</Transform>
		</Transform>
	</Scene>
</X3D>