<?xml version="1.0" encoding="UTF-8"?>
<!DOCTYPE X3D PUBLIC "ISO//Web3D//DTD X3D 3.0//EN" "http://www.web3d.org/specifications/x3d-3.0.dtd">
<X3D version="3.0" profile="Immersive" xmlns:xsd="http://www.w3.org/2001/XMLSchema-instance" xsd:noNamespaceSchemaLocation="http://www.web3d.org/specifications/x3d-3.0.xsd">
	<head>
		<meta name="filename" content="lanturm.x3d" />
		<meta name="generator" content="Blender 2.93.18" />
	</head>
	<Scene>
		<NavigationInfo headlight="true"
		                visibilityLimit="0.0"
		                type='"EXAMINE", "ANY"'
		                avatarSize="0.25, 1.75, 0.75"
		                />
		<Background DEF="WO_World"
		            groundColor="0.051 0.051 0.051"
		            skyColor="0.051 0.051 0.051"
		            />
		<Transform DEF="body_TRANSFORM"
		           translation="0.000000 0.000000 0.087981"
		           scale="1.000000 1.000000 1.000000"
		           rotation="0.000000 0.000000 1.000000 3.141593"
		           >
			<Transform DEF="body_ifs_TRANSFORM"
			           translation="0.000000 0.000000 0.000000"
			           scale="1.000000 1.000000 1.000000"
			           rotation="0.000000 1.000000 0.000000 0.000000"
			           >
				<Group DEF="group_ME_body">
					<Shape>
						<Appearance>
							<Material DEF="MA_Body"
							          diffuseColor="0.800 0.800 0.800"
							          specularColor="0.401 0.401 0.401"
							          emissiveColor="0.000 0.000 0.000"
							          ambientIntensity="0.000"
							          shininess="0.500"
							          transparency="0.0"
							          />
						</Appearance>
						<IndexedTriangleSet solid="false"
						                    normalPerVertex="true"
						                    index="0 1 2 0 2 3 4 5 6 4 6 7 8 9 10 8 10 11 12 13 14 12 14 15 4 16 17 4 17 15 18 5 14 18 14 19 "
						                    >
							<Coordinate point="-0.874533 -0.699054 0.034735 -0.874533 -0.607026 1.886835 -0.874533 0.791083 1.817365 -0.874533 0.699054 -0.034735 -0.874533 0.699054 -0.034735 -0.874533 0.791083 1.817365 0.874533 0.791083 1.817365 0.874533 0.699054 -0.034735 0.874533 0.699054 -0.034735 0.874533 0.791083 1.817365 0.874533 -0.607026 1.886835 0.874533 -0.699054 0.034735 0.874533 -0.699054 0.034735 0.874533 -0.607026 1.886835 -0.874533 -0.607026 1.886835 -0.874533 -0.699054 0.034735 0.874533 0.699054 -0.034735 0.874533 -0.699054 0.034735 0.874533 0.791083 1.817365 0.874533 -0.607026 1.886835 " />
							<Normal vector="-0.577349 -0.605274 -0.547960 -0.577349 -0.547960 0.605274 -0.577349 0.605274 0.547960 -0.577349 0.547960 -0.605274 -0.577349 0.547960 -0.605274 -0.577349 0.605274 0.547960 0.577349 0.605274 0.547960 0.577349 0.547960 -0.605274 0.577349 0.547960 -0.605274 0.577349 0.605274 0.547960 0.577349 -0.547960 0.605274 0.577349 -0.605274 -0.547960 0.577349 -0.605274 -0.547960 0.577349 -0.547960 0.605274 -0.577349 -0.547960 0.605274 -0.577349 -0.605274 -0.547960 0.577349 0.547960 -0.605274 0.577349 -0.605274 -0.547960 0.577349 0.605274 0.547960 0.577349 -0.547960 0.605274 " />
							<TextureCoordinate point="0.0169 0.3439 0.5402 0.3439 0.5402 0.9710 0.0169 0.9710 0.0169 0.3439 0.5402 0.3439 0.5402 0.9710 0.0169 0.9710 0.0169 0.3439 0.5402 0.3439 0.5402 0.9710 0.0169 0.9710 0.0169 0.3439 0.5402 0.3439 0.5402 0.9710 0.0169 0.9710 0.5402 0.3439 0.5402 0.9710 0.0169 0.3439 0.0169 0.9710 " />
						</IndexedTriangleSet>
					</Shape>
				</Group>
			</Transform>
			<Transform DEF="Cube_002_TRANSFORM"
			           translation="0.000000 -0.486291 0.951452"
			           scale="1.000000 1.000000 1.000000"
			           rotation="0.000000 1.000000 0.000000 0.000000"
			           >
				<Transform DEF="Cube_002_ifs_TRANSFORM"
				           translation="0.000000 0.000000 0.000000"
				           scale="1.000000 1.000000 1.000000"
				           rotation="0.000000 1.000000 0.000000 0.000000"
				           >
					<Group DEF="group_ME_Cube_010">
						<Shape>
							<Appearance>
								<Material USE="MA_Body" />
							</Appearance>
							<IndexedTriangleSet solid="false"
							                    normalPerVertex="true"
							                    index="0 1 2 0 2 3 4 5 6 4 6 7 8 9 10 8 10 11 12 13 14 12 14 15 4 16 17 4 17 15 18 5 14 18 14 19 "
							                    >
								<Coordinate point="-0.826872 -0.138599 -0.830438 -0.826872 -0.804468 -0.719305 -0.826872 -0.527270 0.941570 -0.826872 0.138599 0.830438 -0.826872 0.138599 0.830438 -0.826872 -0.527270 0.941570 0.826872 -0.527270 0.941570 0.826872 0.138599 0.830438 0.826872 0.138599 0.830438 0.826872 -0.527270 0.941570 0.826872 -0.804468 -0.719305 0.826872 -0.138599 -0.830438 0.826872 -0.138599 -0.830438 0.826872 -0.804468 -0.719305 -0.826872 -0.804468 -0.719305 -0.826872 -0.138599 -0.830438 0.826872 0.138599 0.830438 0.826872 -0.138599 -0.830438 0.826872 -0.527270 0.941570 0.826872 -0.804468 -0.719305 " />
								<Normal vector="-0.577349 0.474410 -0.664510 -0.577349 -0.664510 -0.474410 -0.577349 -0.474410 0.664510 -0.577349 0.664510 0.474410 -0.577349 0.664510 0.474410 -0.577349 -0.474410 0.664510 0.577349 -0.474410 0.664510 0.577349 0.664510 0.474410 0.577349 0.664510 0.474410 0.577349 -0.474410 0.664510 0.577349 -0.664510 -0.474410 0.577349 0.474410 -0.664510 0.577349 0.474410 -0.664510 0.577349 -0.664510 -0.474410 -0.577349 -0.664510 -0.474410 -0.577349 0.474410 -0.664510 0.577349 0.664510 0.474410 0.577349 0.474410 -0.664510 0.577349 -0.474410 0.664510 0.577349 -0.664510 -0.474410 " />
								<TextureCoordinate point="0.0169 0.3439 0.5402 0.3439 0.5402 0.9710 0.0169 0.9710 0.0169 0.3439 0.5402 0.3439 0.5402 0.9710 0.0169 0.9710 0.0169 0.3439 0.5402 0.3439 0.5402 0.9710 0.0169 0.9710 0.0169 0.3439 0.5402 0.3439 0.5402 0.9710 0.0169 0.9710 0.5402 0.3439 0.5402 0.9710 0.0169 0.3439 0.0169 0.9710 " />
							</IndexedTriangleSet>
						</Shape>
					</Group>
				</Transform>
			</Transform>
			<Transform DEF="head_TRANSFORM"
			           translation="0.000000 -0.892541 1.128086"
			           scale="1.000000 1.000000 1.000000"
			           rotation="0.000000 1.000000 0.000000 0.000000"
			           >
				<Transform DEF="head_ifs_TRANSFORM"
				           translation="0.000000 0.000000 0.000000"
				           scale="1.000000 1.000000 1.000000"
				           rotation="0.000000 1.000000 0.000000 0.000000"
				           >
					<Group DEF="group_ME_head">
						<Shape>
							<Appearance>
								<Material USE="MA_Body" />
							</Appearance>
							<IndexedTriangleSet solid="false"
							                    normalPerVertex="true"
							                    index="0 1 2 0 2 3 4 5 6 4 6 7 8 9 10 8 10 11 12 13 14 12 14 15 4 16 17 4 17 15 18 5 14 18 14 19 "
							                    >
								<Coordinate point="-0.707011 0.029047 -0.625381 -0.707011 -0.469342 -0.648530 -0.707011 -0.527436 0.602233 -0.707011 -0.029047 0.625381 -0.707011 -0.029047 0.625381 -0.707011 -0.527436 0.602233 0.707011 -0.527436 0.602233 0.707011 -0.029047 0.625381 0.707011 -0.029047 0.625381 0.707011 -0.527436 0.602233 0.707011 -0.469342 -0.648530 0.707011 0.029047 -0.625381 0.707011 0.029047 -0.625381 0.707011 -0.469342 -0.648530 -0.707011 -0.469342 -0.648530 -0.707011 0.029047 -0.625381 0.707011 -0.029047 0.625381 0.707011 0.029047 -0.625381 0.707011 -0.527436 0.602233 0.707011 -0.469342 -0.648530 " />
								<Normal vector="-0.577349 0.603504 -0.549913 -0.577349 -0.549913 -0.603504 -0.577349 -0.603504 0.549913 -0.577349 0.549913 0.603504 -0.577349 0.549913 0.603504 -0.577349 -0.603504 0.549913 0.577349 -0.603504 0.549913 0.577349 0.549913 0.603504 0.577349 0.549913 0.603504 0.577349 -0.603504 0.549913 0.577349 -0.549913 -0.603504 0.577349 0.603504 -0.549913 0.577349 0.603504 -0.549913 0.577349 -0.549913 -0.603504 -0.577349 -0.549913 -0.603504 -0.577349 0.603504 -0.549913 0.577349 0.549913 0.603504 0.577349 0.603504 -0.549913 0.577349 -0.603504 0.549913 0.577349 -0.549913 -0.603504 " />
								<TextureCoordinate point="0.0169 0.3439 0.5402 0.3439 0.5402 0.9710 0.0169 0.9710 0.0169 0.3439 0.5402 0.3439 0.5402 0.9710 0.0169 0.9710 0.0169 0.3439 0.5402 0.3439 0.5402 0.9710 0.0169 0.9710 0.0169 0.3439 0.5402 0.3439 0.5402 0.9710 0.0169 0.9710 0.5402 0.3439 0.5402 0.9710 0.0169 0.3439 0.0169 0.9710 " />
							</IndexedTriangleSet>
						</Shape>
					</Group>
				</Transform>
				<Transform DEF="Cube_004_TRANSFORM"
				           translation="0.000000 -0.462922 -0.021501"
				           scale="1.000000 1.000000 1.000000"
				           rotation="0.000000 1.000000 0.000000 0.000000"
				           >
					<Transform DEF="Cube_004_ifs_TRANSFORM"
					           translation="0.000000 0.000000 0.000000"
					           scale="1.000000 1.000000 1.000000"
					           rotation="0.000000 1.000000 0.000000 0.000000"
					           >
						<Group DEF="group_ME_Cube_020">
							<Shape>
								<Appearance>
									<Material USE="MA_Body" />
								</Appearance>
								<IndexedTriangleSet solid="false"
								                    normalPerVertex="true"
								                    index="0 1 2 0 2 3 4 5 6 4 6 7 8 9 10 8 10 11 12 13 14 12 14 15 16 17 18 16 18 19 20 21 14 20 14 22 23 24 25 23 25 26 27 28 29 27 29 30 31 32 33 31 33 34 35 36 37 35 37 38 39 40 41 39 41 42 43 44 45 43 45 46 47 48 49 47 49 50 51 25 52 51 52 53 54 55 56 54 56 57 55 58 59 55 59 56 58 47 50 58 50 59 60 61 62 60 62 63 61 64 65 61 65 62 64 43 46 64 46 65 66 67 68 66 68 51 67 69 70 67 70 68 69 27 30 69 30 70 71 72 73 71 73 74 72 75 76 72 76 73 75 23 26 75 26 76 77 78 79 77 79 80 78 81 82 78 82 79 81 20 22 81 22 82 83 84 85 83 85 15 84 86 87 84 87 85 86 16 19 86 19 87 88 89 90 88 90 91 91 90 92 91 92 93 93 92 13 93 13 12 60 48 94 60 94 95 95 94 96 95 96 97 97 96 5 97 5 4 98 99 16 98 16 86 100 98 86 100 86 84 38 100 84 38 84 83 101 102 78 101 78 77 103 104 36 103 36 35 105 37 21 105 21 20 99 106 17 99 17 16 107 108 9 107 9 8 "
								                    >
									<Coordinate point="-0.354513 -0.002980 0.064154 -0.354513 -0.698507 0.031850 -0.354513 -0.720767 0.511117 -0.354513 -0.025240 0.543422 0.265477 -0.025240 0.543422 0.265477 -0.720767 0.511117 0.354513 -0.720767 0.511117 0.354513 -0.025240 0.543422 0.354513 0.021793 -0.469209 0.354513 -0.673734 -0.501514 0.354513 -0.670287 -0.575727 0.354513 0.025240 -0.543422 -0.265477 0.025240 -0.543422 -0.265477 -0.670287 -0.575727 -0.354513 -0.670287 -0.575727 -0.354513 0.025240 -0.543422 0.265477 0.021793 -0.469209 0.354513 0.021793 -0.469209 0.354513 0.025240 -0.543422 0.265477 0.025240 -0.543422 -0.265477 -0.673734 -0.501514 -0.354513 -0.673734 -0.501514 -0.265477 -0.670287 -0.575727 -0.265477 -0.698507 0.031850 -0.354513 -0.698507 0.031850 -0.354513 -0.680756 -0.350338 -0.265477 -0.680755 -0.350338 0.265477 -0.002980 0.064154 0.354513 -0.002980 0.064154 0.354513 0.014772 -0.318034 0.265477 0.014771 -0.318034 0.354513 -0.002980 0.064154 0.354513 -0.698507 0.031850 0.354513 -0.680756 -0.350338 0.354513 0.014772 -0.318034 -0.354513 0.021793 -0.469209 -0.354513 -0.673734 -0.501514 -0.354513 -0.680756 -0.350338 -0.354513 0.014772 -0.318034 0.354513 -0.025240 0.543422 0.354513 -0.720767 0.511117 0.354513 -0.698507 0.031850 0.354513 -0.002980 0.064154 0.265477 -0.025240 0.543422 0.354513 -0.025240 0.543422 0.354513 -0.002980 0.064154 0.265477 -0.002980 0.064154 -0.265477 -0.720767 0.511117 -0.354513 -0.720767 0.511117 -0.354513 -0.698507 0.031850 -0.265477 -0.698507 0.031850 -0.354513 0.014772 -0.318034 -0.354513 -0.698507 0.031850 -0.354513 -0.002980 0.064154 0.354513 -0.720767 0.511117 0.265477 -0.720767 0.511117 0.265477 -0.698507 0.031850 0.354513 -0.698507 0.031850 0.000000 -0.720767 0.511117 0.000000 -0.698507 0.031850 -0.354513 -0.025240 0.543422 -0.265477 -0.025240 0.543422 -0.265477 -0.002980 0.064154 -0.354513 -0.002980 0.064154 0.000000 -0.025240 0.543422 0.000000 -0.002980 0.064154 -0.354513 -0.002980 0.064154 -0.265477 -0.002980 0.064154 -0.265477 0.014771 -0.318034 0.000000 -0.002980 0.064154 0.000000 0.014771 -0.318034 0.354513 -0.698507 0.031850 0.265477 -0.698507 0.031850 0.265477 -0.680755 -0.350338 0.354513 -0.680756 -0.350338 0.000000 -0.698507 0.031850 0.000000 -0.680755 -0.350338 0.354513 -0.673734 -0.501514 0.265477 -0.673734 -0.501514 0.265477 -0.670287 -0.575727 0.354513 -0.670287 -0.575727 0.000000 -0.673734 -0.501514 0.000000 -0.670287 -0.575727 -0.354513 0.021793 -0.469209 -0.265477 0.021793 -0.469209 -0.265477 0.025240 -0.543422 0.000000 0.021793 -0.469209 0.000000 0.025240 -0.543422 0.354513 0.025240 -0.543422 0.354513 -0.670287 -0.575727 0.265477 -0.670287 -0.575727 0.265477 0.025240 -0.543422 0.000000 -0.670287 -0.575727 0.000000 0.025240 -0.543422 -0.265477 -0.720767 0.511117 -0.265477 -0.025240 0.543422 0.000000 -0.720767 0.511117 0.000000 -0.025240 0.543422 0.000000 0.014771 -0.318034 0.265477 0.014771 -0.318034 -0.265477 0.014771 -0.318034 0.354513 -0.680756 -0.350338 0.265477 -0.680755 -0.350338 -0.354513 0.025240 -0.543422 -0.354513 -0.670287 -0.575727 -0.265477 -0.680755 -0.350338 0.354513 0.014772 -0.318034 0.354513 0.014772 -0.318034 0.354513 -0.680756 -0.350338 " />
									<Normal vector="-0.707083 0.706320 0.032777 -0.707083 -0.706320 -0.032777 -0.577349 -0.603504 0.549913 -0.577349 0.549913 0.603504 0.000000 0.673513 0.739128 0.000000 -0.739128 0.673513 0.577349 -0.603504 0.549913 0.577349 0.549913 0.603504 0.707083 0.706320 0.032777 0.707083 -0.706320 -0.032777 0.577349 -0.549913 -0.603504 0.577349 0.603504 -0.549913 0.000000 0.739128 -0.673513 0.000000 -0.673513 -0.739128 -0.577349 -0.549913 -0.603504 -0.577349 0.603504 -0.549913 0.000000 0.998901 0.046388 0.707083 0.706320 0.032777 0.577349 0.603504 -0.549913 0.000000 0.739128 -0.673513 0.000000 -0.998901 -0.046388 -0.707083 -0.706320 -0.032777 0.000000 -0.673513 -0.739128 0.000000 -0.998901 -0.046388 -0.707083 -0.706320 -0.032777 -0.707083 -0.706320 -0.032777 0.000000 -0.998901 -0.046388 0.000000 0.998901 0.046388 0.707083 0.706320 0.032777 0.707083 0.706320 0.032777 0.000000 0.998901 0.046388 0.707083 0.706320 0.032777 0.707083 -0.706320 -0.032777 0.707083 -0.706320 -0.032777 0.707083 0.706320 0.032777 -0.707083 0.706320 0.032777 -0.707083 -0.706320 -0.032777 -0.707083 -0.706320 -0.032777 -0.707083 0.706320 0.032777 0.577349 0.549913 0.603504 0.577349 -0.603504 0.549913 0.707083 -0.706320 -0.032777 0.707083 0.706320 0.032777 0.000000 0.673513 0.739128 0.577349 0.549913 0.603504 0.707083 0.706320 0.032777 0.000000 0.998901 0.046388 0.000000 -0.739128 0.673513 -0.577349 -0.603504 0.549913 -0.707083 -0.706320 -0.032777 0.000000 -0.998901 -0.046388 -0.707083 0.706320 0.032777 -0.707083 -0.706320 -0.032777 -0.707083 0.706320 0.032777 0.577349 -0.603504 0.549913 0.000000 -0.739128 0.673513 0.000000 -0.998901 -0.046388 0.707083 -0.706320 -0.032777 0.000000 -0.739128 0.673513 0.000000 -0.998901 -0.046388 -0.577349 0.549913 0.603504 0.000000 0.673513 0.739128 0.000000 0.998901 0.046388 -0.707083 0.706320 0.032777 0.000000 0.673513 0.739128 0.000000 0.998901 0.046388 -0.707083 0.706320 0.032777 0.000000 0.998901 0.046388 0.000000 0.998901 0.046388 0.000000 0.998901 0.046388 0.000000 0.998901 0.046388 0.707083 -0.706320 -0.032777 0.000000 -0.998901 -0.046388 0.000000 -0.998901 -0.046388 0.707083 -0.706320 -0.032777 0.000000 -0.998901 -0.046388 0.000000 -0.998901 -0.046388 0.707083 -0.706320 -0.032777 0.000000 -0.998901 -0.046388 0.000000 -0.673513 -0.739128 0.577349 -0.549913 -0.603504 0.000000 -0.998901 -0.046388 0.000000 -0.673513 -0.739128 -0.707083 0.706320 0.032777 0.000000 0.998901 0.046388 0.000000 0.739128 -0.673513 0.000000 0.998901 0.046388 0.000000 0.739128 -0.673513 0.577349 0.603504 -0.549913 0.577349 -0.549913 -0.603504 0.000000 -0.673513 -0.739128 0.000000 0.739128 -0.673513 0.000000 -0.673513 -0.739128 0.000000 0.739128 -0.673513 0.000000 -0.739128 0.673513 0.000000 0.673513 0.739128 0.000000 -0.739128 0.673513 0.000000 0.673513 0.739128 0.000000 0.998901 0.046388 0.000000 0.998901 0.046388 0.000000 0.998901 0.046388 0.707083 -0.706320 -0.032777 0.000000 -0.998901 -0.046388 -0.577349 0.603504 -0.549913 -0.577349 -0.549913 -0.603504 0.000000 -0.998901 -0.046388 0.707083 0.706320 0.032777 0.707083 0.706320 0.032777 0.707083 -0.706320 -0.032777 " />
									<TextureCoordinate point="0.0169 0.8143 0.5402 0.8143 0.5402 0.9710 0.0169 0.9710 0.0169 0.8143 0.5402 0.8143 0.5402 0.9710 0.0169 0.9710 0.0169 0.8143 0.5402 0.8143 0.5402 0.9710 0.0169 0.9710 0.0169 0.8143 0.5402 0.8143 0.5402 0.9710 0.0169 0.9710 0.4093 0.8143 0.5402 0.8143 0.5402 0.9710 0.4093 0.9710 0.4093 0.8143 0.5402 0.8143 0.4093 0.9710 0.8866 0.0099 0.9927 0.0099 0.9927 0.1536 0.8866 0.1536 0.8866 0.0099 0.9927 0.0099 0.9927 0.1536 0.8866 0.1536 0.5684 0.0099 0.9927 0.0099 0.9927 0.1536 0.5684 0.1536 0.0169 0.5007 0.5402 0.5007 0.5402 0.6575 0.0169 0.6575 0.0169 0.3439 0.5402 0.3439 0.5402 0.5007 0.0169 0.5007 0.4093 0.3439 0.5402 0.3439 0.5402 0.5007 0.4093 0.5007 0.4093 0.3439 0.5402 0.3439 0.5402 0.5007 0.4093 0.5007 0.5684 0.1536 0.9927 0.2973 0.5684 0.2973 0.0169 0.3439 0.1477 0.3439 0.1477 0.5007 0.0169 0.5007 0.2785 0.3439 0.2785 0.5007 0.0169 0.3439 0.1477 0.3439 0.1477 0.5007 0.0169 0.5007 0.2785 0.3439 0.2785 0.5007 0.5684 0.0099 0.6744 0.0099 0.6744 0.1536 0.7805 0.0099 0.7805 0.1536 0.5684 0.0099 0.6744 0.0099 0.6744 0.1536 0.5684 0.1536 0.7805 0.0099 0.7805 0.1536 0.0169 0.8143 0.1477 0.8143 0.1477 0.9710 0.0169 0.9710 0.2785 0.8143 0.2785 0.9710 0.0169 0.8143 0.1477 0.8143 0.1477 0.9710 0.2785 0.8143 0.2785 0.9710 0.0169 0.3439 0.5402 0.3439 0.5402 0.5007 0.0169 0.5007 0.5402 0.6575 0.0169 0.6575 0.5402 0.5007 0.0169 0.5007 0.5402 0.6575 0.0169 0.6575 0.2785 0.6575 0.4093 0.6575 0.1477 0.6575 0.0169 0.6575 0.1477 0.6575 0.0169 0.3439 0.5402 0.3439 0.4093 0.6575 0.5402 0.6575 0.0169 0.6575 0.5402 0.6575 " />
								</IndexedTriangleSet>
							</Shape>
							<Shape>
								<Appearance>
									<Material DEF="MA_Face"
									          diffuseColor="0.800 0.800 0.800"
									          specularColor="0.401 0.401 0.401"
									          emissiveColor="0.000 0.000 0.000"
									          ambientIntensity="0.000"
									          shininess="0.500"
									          transparency="0.0"
									          />
								</Appearance>
								<IndexedTriangleSet solid="false"
								                    normalPerVertex="true"
								                    index="0 1 2 0 2 3 4 0 3 4 3 5 "
								                    >
									<Coordinate point="0.000000 -0.680755 -0.350338 -0.265477 -0.680755 -0.350338 -0.265477 -0.673734 -0.501514 0.000000 -0.673734 -0.501514 0.265477 -0.680755 -0.350338 0.265477 -0.673734 -0.501514 " />
									<Normal vector="0.000000 -0.998901 -0.046388 0.000000 -0.998901 -0.046388 0.000000 -0.998901 -0.046388 0.000000 -0.998901 -0.046388 0.000000 -0.998901 -0.046388 0.000000 -0.998901 -0.046388 " />
									<TextureCoordinate point="0.9905 0.9913 0.5173 0.9913 0.5173 0.5137 0.9905 0.5137 0.5173 0.9913 0.5173 0.5137 " />
								</IndexedTriangleSet>
							</Shape>
						</Group>
					</Transform>
				</Transform>
				<Transform DEF="Cube_005_TRANSFORM"
				           translation="0.639907 -0.191180 -0.008880"
				           scale="1.000000 1.000000 1.000000"
				           rotation="0.000000 1.000000 0.000000 0.000000"
				           >
					<Transform DEF="Cube_005_ifs_TRANSFORM"
					           translation="0.000000 0.000000 0.000000"
					           scale="1.000000 1.000000 1.000000"
					           rotation="0.000000 1.000000 0.000000 0.000000"
					           >
						<Group DEF="group_ME_Cube_021">
							<Shape>
								<Appearance>
									<Material USE="MA_Body" />
								</Appearance>
								<IndexedTriangleSet solid="false"
								                    normalPerVertex="true"
								                    index="0 1 2 0 2 3 4 5 6 4 6 7 8 9 10 8 10 11 12 13 14 12 14 15 4 16 17 4 17 15 18 5 14 18 14 19 "
								                    >
									<Coordinate point="-0.185009 0.121523 -0.500769 -0.626188 -0.709121 -0.539349 -0.626188 -0.756062 0.471297 -0.185009 0.074582 0.509877 -0.185009 0.074582 0.509877 -0.626188 -0.756062 0.471297 -0.256171 -0.952166 0.462188 0.185009 -0.121523 0.500769 0.185009 -0.121523 0.500769 -0.256171 -0.952166 0.462188 -0.256171 -0.905225 -0.548458 0.185009 -0.074582 -0.509877 0.185009 -0.074582 -0.509877 -0.256171 -0.905225 -0.548458 -0.626188 -0.709121 -0.539349 -0.185009 0.121523 -0.500769 0.185009 -0.121523 0.500769 0.185009 -0.074582 -0.509877 -0.256171 -0.952166 0.462188 -0.256171 -0.905225 -0.548458 " />
									<Normal vector="-0.239418 0.806543 -0.540483 -0.780602 -0.212348 -0.587817 -0.780602 -0.265938 0.565600 -0.239418 0.752953 0.612934 -0.239418 0.752953 0.612934 -0.780602 -0.265938 0.565600 0.239418 -0.806543 0.540483 0.780602 0.212348 0.587817 0.780602 0.212348 0.587817 0.239418 -0.806543 0.540483 0.239418 -0.752953 -0.612934 0.780602 0.265938 -0.565600 0.780602 0.265938 -0.565600 0.239418 -0.752953 -0.612934 -0.780602 -0.212348 -0.587817 -0.239418 0.806543 -0.540483 0.780602 0.212348 0.587817 0.780602 0.265938 -0.565600 0.239418 -0.806543 0.540483 0.239418 -0.752953 -0.612934 " />
									<TextureCoordinate point="0.0169 0.3439 0.5402 0.3439 0.5402 0.9710 0.0169 0.9710 0.0169 0.3439 0.5402 0.3439 0.5402 0.9710 0.0169 0.9710 0.0169 0.3439 0.5402 0.3439 0.5402 0.9710 0.0169 0.9710 0.0169 0.3439 0.5402 0.3439 0.5402 0.9710 0.0169 0.9710 0.5402 0.3439 0.5402 0.9710 0.0169 0.3439 0.0169 0.9710 " />
								</IndexedTriangleSet>
							</Shape>
						</Group>
					</Transform>
					<Transform DEF="Cube_026_TRANSFORM"
					           translation="0.040410 -0.240578 -0.022324"
					           scale="1.000000 1.000000 1.000000"
					           rotation="0.000000 1.000000 0.000000 0.000000"
					           >
						<Transform DEF="Cube_026_ifs_TRANSFORM"
						           translation="0.000000 0.000000 0.000000"
						           scale="1.000000 1.000000 1.000000"
						           rotation="0.000000 1.000000 0.000000 0.000000"
						           >
							<Group DEF="group_ME_Cube_001">
								<Shape>
									<Appearance>
										<Material USE="MA_Body" />
									</Appearance>
									<IndexedTriangleSet solid="false"
									                    normalPerVertex="true"
									                    index="0 1 2 0 2 3 4 5 6 4 6 7 8 9 10 8 10 11 12 13 14 12 14 15 16 17 18 16 18 19 20 21 14 20 14 22 23 24 25 23 25 19 24 12 15 24 15 25 26 27 28 26 28 29 27 8 11 27 11 28 30 31 32 30 32 33 31 4 7 31 7 32 34 35 36 34 36 37 35 0 3 35 3 36 38 39 40 38 40 41 41 40 0 41 0 35 42 38 41 42 41 43 43 41 35 43 35 34 44 45 46 44 46 47 48 44 47 48 47 49 49 47 27 49 27 26 50 5 51 50 51 52 52 51 21 52 21 20 30 53 54 30 54 55 55 54 17 55 17 16 45 56 57 45 57 46 46 57 9 46 9 8 39 58 59 39 59 40 40 59 1 40 1 0 "
									                    >
										<Coordinate point="-0.423708 -0.509950 0.156654 -0.485175 -0.614635 0.146826 -0.486724 -0.621310 0.227620 -0.425257 -0.516626 0.237448 -0.425257 -0.516626 0.237448 -0.486724 -0.621310 0.227620 -0.292684 -0.734713 0.221970 -0.231217 -0.630028 0.231798 -0.221790 -0.589406 -0.259863 -0.283257 -0.694090 -0.269691 -0.281708 -0.687414 -0.350484 -0.220241 -0.582730 -0.340657 -0.220241 -0.582730 -0.340657 -0.281708 -0.687414 -0.350484 -0.475748 -0.574012 -0.344835 -0.414282 -0.469328 -0.335007 -0.093081 0.073675 -0.202609 0.100959 -0.039728 -0.208258 0.102508 -0.033052 -0.289052 -0.091532 0.080350 -0.283403 -0.283257 -0.694090 -0.269691 -0.477297 -0.580687 -0.264041 -0.281708 -0.687414 -0.350484 0.102508 -0.033052 -0.289052 0.041042 -0.137736 -0.298880 -0.152999 -0.024334 -0.293231 0.100959 -0.039728 -0.208258 0.039493 -0.144412 -0.218086 0.041042 -0.137736 -0.298880 0.102508 -0.033052 -0.289052 -0.102508 0.033052 0.289052 -0.163974 -0.071632 0.279224 0.030066 -0.185034 0.273575 0.091532 -0.080350 0.283403 -0.100959 0.039728 0.208258 -0.162425 -0.064956 0.198430 -0.163974 -0.071632 0.279224 -0.102508 0.033052 0.289052 -0.152999 -0.024334 -0.293231 -0.414282 -0.469328 -0.335007 -0.415831 -0.476003 -0.254213 -0.154548 -0.031009 -0.212437 -0.091532 0.080350 -0.283403 -0.093081 0.073675 -0.202609 0.030066 -0.185034 0.273575 -0.231217 -0.630028 0.231798 -0.229668 -0.623353 0.151004 0.031615 -0.178359 0.192781 0.091532 -0.080350 0.283403 0.093081 -0.073675 0.202609 -0.292684 -0.734713 0.221970 -0.485175 -0.614635 0.146826 -0.291135 -0.728037 0.141177 0.091532 -0.080350 0.283403 0.093081 -0.073675 0.202609 -0.100959 0.039728 0.208258 -0.292684 -0.734713 0.221970 -0.291135 -0.728037 0.141177 -0.475748 -0.574012 -0.344835 -0.477297 -0.580687 -0.264041 " />
										<Normal vector="-0.863094 0.504410 0.025117 -0.967162 -0.251076 -0.039277 -0.800714 -0.252541 0.543199 -0.623798 0.298441 0.722343 -0.623798 0.298441 0.722343 -0.800714 -0.252541 0.543199 0.195898 -0.834986 0.514176 0.596789 -0.414869 0.686789 0.863094 -0.504410 -0.025117 0.253426 -0.964446 -0.074801 0.217933 -0.739921 -0.636372 0.623798 -0.298441 -0.722343 0.623798 -0.298441 -0.722343 0.217933 -0.739921 -0.636372 -0.778649 -0.157476 -0.607349 -0.596789 0.414869 -0.686789 -0.253426 0.964446 0.074801 0.967162 0.251076 0.039277 0.800714 0.252541 -0.543199 -0.195898 0.834986 -0.514176 0.253426 -0.964446 -0.074801 -0.967162 -0.251076 -0.039277 0.217933 -0.739921 -0.636372 0.800714 0.252541 -0.543199 0.623798 -0.298441 -0.722343 -0.596789 0.414869 -0.686789 0.967162 0.251076 0.039277 0.863094 -0.504410 -0.025117 0.623798 -0.298441 -0.722343 0.800714 0.252541 -0.543199 -0.217933 0.739921 0.636372 -0.623798 0.298441 0.722343 0.596789 -0.414869 0.686789 0.778649 0.157476 0.607349 -0.253426 0.964446 0.074801 -0.863094 0.504410 0.025117 -0.623798 0.298441 0.722343 -0.217933 0.739921 0.636372 -0.596789 0.414869 -0.686789 -0.596789 0.414869 -0.686789 -0.863094 0.504410 0.025117 -0.863094 0.504410 0.025117 -0.195898 0.834986 -0.514176 -0.253426 0.964446 0.074801 0.596789 -0.414869 0.686789 0.596789 -0.414869 0.686789 0.863094 -0.504410 -0.025117 0.863094 -0.504410 -0.025117 0.778649 0.157476 0.607349 0.967162 0.251076 0.039277 0.195898 -0.834986 0.514176 -0.967162 -0.251076 -0.039277 0.253426 -0.964446 -0.074801 0.778649 0.157476 0.607349 0.967162 0.251076 0.039277 -0.253426 0.964446 0.074801 0.195898 -0.834986 0.514176 0.253426 -0.964446 -0.074801 -0.778649 -0.157476 -0.607349 -0.967162 -0.251076 -0.039277 " />
										<TextureCoordinate point="0.8523 0.2001 0.9859 0.2001 0.9859 0.2893 0.8523 0.2893 0.8523 0.0217 0.9859 0.0217 0.9859 0.2893 0.8523 0.2893 0.8523 0.2001 0.9859 0.2001 0.9859 0.2893 0.8523 0.2893 0.8523 0.0217 0.9859 0.0217 0.9859 0.2893 0.8523 0.2893 0.5850 0.2001 0.9859 0.2001 0.9859 0.2893 0.5850 0.2893 0.5850 0.2001 0.9859 0.2001 0.5850 0.2893 0.5850 0.0217 0.7186 0.0217 0.7186 0.2893 0.5850 0.2001 0.7186 0.2001 0.7186 0.2893 0.5850 0.2893 0.5850 0.0217 0.7186 0.0217 0.7186 0.2893 0.5850 0.2893 0.5850 0.2001 0.7186 0.2001 0.7186 0.2893 0.5850 0.2893 0.7186 0.0217 0.8523 0.0217 0.8523 0.1109 0.7186 0.1109 0.5850 0.0217 0.5850 0.1109 0.7186 0.0217 0.8523 0.0217 0.8523 0.1109 0.7186 0.1109 0.5850 0.0217 0.5850 0.1109 0.5850 0.0217 0.9859 0.1109 0.5850 0.1109 0.9859 0.0217 0.9859 0.1109 0.5850 0.1109 0.9859 0.0217 0.9859 0.1109 0.9859 0.0217 0.9859 0.1109 " />
									</IndexedTriangleSet>
								</Shape>
								<Shape>
									<Appearance>
										<Material USE="MA_Face" />
									</Appearance>
									<IndexedTriangleSet solid="false"
									                    normalPerVertex="true"
									                    index="0 1 2 0 2 3 "
									                    >
										<Coordinate point="0.031615 -0.178359 0.192781 -0.229668 -0.623353 0.151004 -0.221790 -0.589406 -0.259863 0.039493 -0.144412 -0.218086 " />
										<Normal vector="0.863094 -0.504410 -0.025117 0.863094 -0.504410 -0.025117 0.863094 -0.504410 -0.025117 0.863094 -0.504410 -0.025117 " />
										<TextureCoordinate point="0.4927 0.9753 0.0102 0.9753 0.0102 0.5169 0.4927 0.5169 " />
									</IndexedTriangleSet>
								</Shape>
							</Group>
						</Transform>
					</Transform>
				</Transform>
				<Transform DEF="ant_1_TRANSFORM"
				           translation="0.000000 -0.199272 0.489205"
				           scale="1.000000 1.000000 1.000000"
				           rotation="0.000000 1.000000 0.000000 0.000000"
				           >
					<Transform DEF="ant_1_ifs_TRANSFORM"
					           translation="0.000000 0.000000 0.000000"
					           scale="1.000000 1.000000 1.000000"
					           rotation="0.000000 1.000000 0.000000 0.000000"
					           >
						<Group DEF="group_ME_ant_1">
							<Shape>
								<Appearance>
									<Material USE="MA_Body" />
								</Appearance>
								<IndexedTriangleSet solid="false"
								                    normalPerVertex="true"
								                    index="0 1 2 0 2 3 4 5 6 4 6 7 8 9 10 8 10 11 12 13 14 12 14 15 4 16 17 4 17 15 18 5 14 18 14 19 "
								                    >
									<Coordinate point="-0.107095 -0.108229 -0.066423 -0.107095 -0.283259 0.218768 -0.107095 -0.066801 0.351615 -0.107095 0.108229 0.066423 -0.107095 0.108229 0.066423 -0.107095 -0.066801 0.351615 0.107095 -0.066801 0.351615 0.107095 0.108229 0.066423 0.107095 0.108229 0.066423 0.107095 -0.066801 0.351615 0.107095 -0.283259 0.218768 0.107095 -0.108229 -0.066423 0.107095 -0.108229 -0.066423 0.107095 -0.283259 0.218768 -0.107095 -0.283259 0.218768 -0.107095 -0.108229 -0.066423 0.107095 0.108229 0.066423 0.107095 -0.108229 -0.066423 0.107095 -0.066801 0.351615 0.107095 -0.283259 0.218768 " />
									<Normal vector="-0.577349 -0.190069 -0.794061 -0.577349 -0.794061 0.190069 -0.577349 0.190069 0.794061 -0.577349 0.794061 -0.190069 -0.577349 0.794061 -0.190069 -0.577349 0.190069 0.794061 0.577349 0.190069 0.794061 0.577349 0.794061 -0.190069 0.577349 0.794061 -0.190069 0.577349 0.190069 0.794061 0.577349 -0.794061 0.190069 0.577349 -0.190069 -0.794061 0.577349 -0.190069 -0.794061 0.577349 -0.794061 0.190069 -0.577349 -0.794061 0.190069 -0.577349 -0.190069 -0.794061 0.577349 0.794061 -0.190069 0.577349 -0.190069 -0.794061 0.577349 0.190069 0.794061 0.577349 -0.794061 0.190069 " />
									<TextureCoordinate point="0.0169 0.3439 0.5402 0.3439 0.5402 0.9710 0.0169 0.9710 0.0169 0.3439 0.5402 0.3439 0.5402 0.9710 0.0169 0.9710 0.0169 0.3439 0.5402 0.3439 0.5402 0.9710 0.0169 0.9710 0.0169 0.3439 0.5402 0.3439 0.5402 0.9710 0.0169 0.9710 0.5402 0.3439 0.5402 0.9710 0.0169 0.3439 0.0169 0.9710 " />
								</IndexedTriangleSet>
							</Shape>
						</Group>
					</Transform>
					<Transform DEF="Cube_016_TRANSFORM"
					           translation="0.000000 -0.130243 0.248254"
					           scale="1.000000 1.000000 1.000000"
					           rotation="0.000000 1.000000 0.000000 0.000000"
					           >
						<Transform DEF="Cube_016_ifs_TRANSFORM"
						           translation="0.000000 0.000000 0.000000"
						           scale="1.000000 1.000000 1.000000"
						           rotation="0.000000 1.000000 0.000000 0.000000"
						           >
							<Group DEF="group_ME_Cube_032">
								<Shape>
									<Appearance>
										<Material USE="MA_Body" />
									</Appearance>
									<IndexedTriangleSet solid="false"
									                    normalPerVertex="true"
									                    index="0 1 2 0 2 3 4 5 6 4 6 7 8 9 10 8 10 11 12 13 14 12 14 15 4 16 17 4 17 15 18 5 14 18 14 19 "
									                    >
										<Coordinate point="-0.083248 -0.050654 -0.065652 -0.083248 -0.345169 0.161582 -0.083248 -0.243860 0.292886 -0.083248 0.050654 0.065652 -0.083248 0.050654 0.065652 -0.083248 -0.243860 0.292886 0.083248 -0.243860 0.292886 0.083248 0.050654 0.065652 0.083248 0.050654 0.065652 0.083248 -0.243860 0.292886 0.083248 -0.345169 0.161582 0.083248 -0.050654 -0.065652 0.083248 -0.050654 -0.065652 0.083248 -0.345169 0.161582 -0.083248 -0.345169 0.161582 -0.083248 -0.050654 -0.065652 0.083248 0.050654 0.065652 0.083248 -0.050654 -0.065652 0.083248 -0.243860 0.292886 0.083248 -0.345169 0.161582 " />
										<Normal vector="-0.577349 0.104404 -0.809778 -0.577349 -0.809778 -0.104404 -0.577349 -0.104404 0.809778 -0.577349 0.809778 0.104404 -0.577349 0.809778 0.104404 -0.577349 -0.104404 0.809778 0.577349 -0.104404 0.809778 0.577349 0.809778 0.104404 0.577349 0.809778 0.104404 0.577349 -0.104404 0.809778 0.577349 -0.809778 -0.104404 0.577349 0.104404 -0.809778 0.577349 0.104404 -0.809778 0.577349 -0.809778 -0.104404 -0.577349 -0.809778 -0.104404 -0.577349 0.104404 -0.809778 0.577349 0.809778 0.104404 0.577349 0.104404 -0.809778 0.577349 -0.104404 0.809778 0.577349 -0.809778 -0.104404 " />
										<TextureCoordinate point="0.0169 0.3439 0.5402 0.3439 0.5402 0.9710 0.0169 0.9710 0.0169 0.3439 0.5402 0.3439 0.5402 0.9710 0.0169 0.9710 0.0169 0.3439 0.5402 0.3439 0.5402 0.9710 0.0169 0.9710 0.0169 0.3439 0.5402 0.3439 0.5402 0.9710 0.0169 0.9710 0.5402 0.3439 0.5402 0.9710 0.0169 0.3439 0.0169 0.9710 " />
									</IndexedTriangleSet>
								</Shape>
							</Group>
						</Transform>
						<Transform DEF="Cube_017_TRANSFORM"
						           translation="0.000000 -0.272252 0.210058"
						           scale="1.000000 1.000000 1.000000"
						           rotation="0.000000 1.000000 0.000000 0.000000"
						           >
							<Transform DEF="Cube_017_ifs_TRANSFORM"
							           translation="0.000000 0.000000 0.000000"
							           scale="1.000000 1.000000 1.000000"
							           rotation="0.000000 1.000000 0.000000 0.000000"
							           >
								<Group DEF="group_ME_Cube_033">
									<Shape>
										<Appearance>
											<Material USE="MA_Body" />
										</Appearance>
										<IndexedTriangleSet solid="false"
										                    normalPerVertex="true"
										                    index="0 1 2 0 2 3 4 5 6 4 6 7 8 9 10 8 10 11 12 13 14 12 14 15 4 16 17 4 17 15 18 5 14 18 14 19 "
										                    >
											<Coordinate point="-0.054483 -0.010400 -0.053264 -0.054483 -0.410501 0.024859 -0.054483 -0.389700 0.131386 -0.054483 0.010400 0.053264 -0.054483 0.010400 0.053264 -0.054483 -0.389700 0.131386 0.054483 -0.389700 0.131386 0.054483 0.010400 0.053264 0.054483 0.010400 0.053264 0.054483 -0.389700 0.131386 0.054483 -0.410501 0.024859 0.054483 -0.010400 -0.053264 0.054483 -0.010400 -0.053264 0.054483 -0.410501 0.024859 -0.054483 -0.410501 0.024859 -0.054483 -0.010400 -0.053264 0.054483 0.010400 0.053264 0.054483 -0.010400 -0.053264 0.054483 -0.389700 0.131386 0.054483 -0.410501 0.024859 " />
											<Normal vector="-0.577349 0.455977 -0.677267 -0.577349 -0.677267 -0.455977 -0.577349 -0.455977 0.677267 -0.577349 0.677267 0.455977 -0.577349 0.677267 0.455977 -0.577349 -0.455977 0.677267 0.577349 -0.455977 0.677267 0.577349 0.677267 0.455977 0.577349 0.677267 0.455977 0.577349 -0.455977 0.677267 0.577349 -0.677267 -0.455977 0.577349 0.455977 -0.677267 0.577349 0.455977 -0.677267 0.577349 -0.677267 -0.455977 -0.577349 -0.677267 -0.455977 -0.577349 0.455977 -0.677267 0.577349 0.677267 0.455977 0.577349 0.455977 -0.677267 0.577349 -0.455977 0.677267 0.577349 -0.677267 -0.455977 " />
											<TextureCoordinate point="0.0169 0.3439 0.5402 0.3439 0.5402 0.9710 0.0169 0.9710 0.0169 0.3439 0.5402 0.3439 0.5402 0.9710 0.0169 0.9710 0.0169 0.3439 0.5402 0.3439 0.5402 0.9710 0.0169 0.9710 0.0169 0.3439 0.5402 0.3439 0.5402 0.9710 0.0169 0.9710 0.5402 0.3439 0.5402 0.9710 0.0169 0.3439 0.0169 0.9710 " />
										</IndexedTriangleSet>
									</Shape>
								</Group>
							</Transform>
							<Transform DEF="Cube_018_TRANSFORM"
							           translation="0.000000 -0.367294 0.071717"
							           scale="1.000000 1.000000 1.000000"
							           rotation="0.000000 1.000000 0.000000 0.000000"
							           >
								<Transform DEF="Cube_018_ifs_TRANSFORM"
								           translation="0.000000 0.000000 0.000000"
								           scale="1.000000 1.000000 1.000000"
								           rotation="0.000000 1.000000 0.000000 0.000000"
								           >
									<Group DEF="group_ME_Cube_034">
										<Shape>
											<Appearance>
												<Material USE="MA_Body" />
											</Appearance>
											<IndexedTriangleSet solid="false"
											                    normalPerVertex="true"
											                    index="0 1 2 0 2 3 4 5 6 4 6 7 8 9 10 8 10 11 12 13 14 12 14 15 4 16 17 4 17 15 18 5 14 18 14 19 "
											                    >
												<Coordinate point="-0.045700 0.009151 -0.044592 -0.045700 -0.377974 -0.124034 -0.045700 -0.396275 -0.034850 -0.045700 -0.009151 0.044592 -0.045700 -0.009151 0.044592 -0.045700 -0.396275 -0.034850 0.045700 -0.396275 -0.034850 0.045700 -0.009151 0.044592 0.045700 -0.009151 0.044592 0.045700 -0.396275 -0.034850 0.045700 -0.377974 -0.124034 0.045700 0.009151 -0.044592 0.045700 0.009151 -0.044592 0.045700 -0.377974 -0.124034 -0.045700 -0.377974 -0.124034 -0.045700 0.009151 -0.044592 0.045700 -0.009151 0.044592 0.045700 0.009151 -0.044592 0.045700 -0.396275 -0.034850 0.045700 -0.377974 -0.124034 " />
												<Normal vector="-0.577349 0.681600 -0.449477 -0.577349 -0.449477 -0.681600 -0.577349 -0.681600 0.449477 -0.577349 0.449477 0.681600 -0.577349 0.449477 0.681600 -0.577349 -0.681600 0.449477 0.577349 -0.681600 0.449477 0.577349 0.449477 0.681600 0.577349 0.449477 0.681600 0.577349 -0.681600 0.449477 0.577349 -0.449477 -0.681600 0.577349 0.681600 -0.449477 0.577349 0.681600 -0.449477 0.577349 -0.449477 -0.681600 -0.577349 -0.449477 -0.681600 -0.577349 0.681600 -0.449477 0.577349 0.449477 0.681600 0.577349 0.681600 -0.449477 0.577349 -0.681600 0.449477 0.577349 -0.449477 -0.681600 " />
												<TextureCoordinate point="0.0169 0.3439 0.5402 0.3439 0.5402 0.9710 0.0169 0.9710 0.0169 0.3439 0.5402 0.3439 0.5402 0.9710 0.0169 0.9710 0.0169 0.3439 0.5402 0.3439 0.5402 0.9710 0.0169 0.9710 0.0169 0.3439 0.5402 0.3439 0.5402 0.9710 0.0169 0.9710 0.5402 0.3439 0.5402 0.9710 0.0169 0.3439 0.0169 0.9710 " />
											</IndexedTriangleSet>
										</Shape>
									</Group>
								</Transform>
								<Transform DEF="Cube_019_TRANSFORM"
								           translation="0.000000 -0.351702 -0.072173"
								           scale="1.000000 1.000000 1.000000"
								           rotation="0.000000 1.000000 0.000000 0.000000"
								           >
									<Transform DEF="Cube_019_ifs_TRANSFORM"
									           translation="0.000000 0.000000 0.000000"
									           scale="1.000000 1.000000 1.000000"
									           rotation="0.000000 1.000000 0.000000 0.000000"
									           >
										<Group DEF="group_ME_Cube_035">
											<Shape>
												<Appearance>
													<Material USE="MA_Body" />
												</Appearance>
												<IndexedTriangleSet solid="false"
												                    normalPerVertex="true"
												                    index="0 1 2 0 2 3 4 5 6 4 6 7 8 9 10 8 10 11 12 13 14 12 14 15 4 16 17 4 17 15 18 5 14 18 14 19 "
												                    >
													<Coordinate point="-0.035724 0.018921 -0.030137 -0.035724 -0.206810 -0.171857 -0.035724 -0.244652 -0.111582 -0.035724 -0.018921 0.030137 -0.035724 -0.018921 0.030137 -0.035724 -0.244652 -0.111582 0.035724 -0.244652 -0.111582 0.035724 -0.018921 0.030137 0.035724 -0.018921 0.030137 0.035724 -0.244652 -0.111582 0.035724 -0.206810 -0.171857 0.035724 0.018921 -0.030137 0.035724 0.018921 -0.030137 0.035724 -0.206810 -0.171857 -0.035724 -0.206810 -0.171857 -0.035724 0.018921 -0.030137 0.035724 -0.018921 0.030137 0.035724 0.018921 -0.030137 0.035724 -0.244652 -0.111582 0.035724 -0.206810 -0.171857 " />
													<Normal vector="-0.577349 0.795953 -0.181951 -0.577349 -0.181951 -0.795953 -0.577349 -0.795953 0.181951 -0.577349 0.181951 0.795953 -0.577349 0.181951 0.795953 -0.577349 -0.795953 0.181951 0.577349 -0.795953 0.181951 0.577349 0.181951 0.795953 0.577349 0.181951 0.795953 0.577349 -0.795953 0.181951 0.577349 -0.181951 -0.795953 0.577349 0.795953 -0.181951 0.577349 0.795953 -0.181951 0.577349 -0.181951 -0.795953 -0.577349 -0.181951 -0.795953 -0.577349 0.795953 -0.181951 0.577349 0.181951 0.795953 0.577349 0.795953 -0.181951 0.577349 -0.795953 0.181951 0.577349 -0.181951 -0.795953 " />
													<TextureCoordinate point="0.0169 0.3439 0.5402 0.3439 0.5402 0.9710 0.0169 0.9710 0.0169 0.3439 0.5402 0.3439 0.5402 0.9710 0.0169 0.9710 0.0169 0.3439 0.5402 0.3439 0.5402 0.9710 0.0169 0.9710 0.0169 0.3439 0.5402 0.3439 0.5402 0.9710 0.0169 0.9710 0.5402 0.3439 0.5402 0.9710 0.0169 0.3439 0.0169 0.9710 " />
												</IndexedTriangleSet>
											</Shape>
										</Group>
									</Transform>
									<Transform DEF="Cube_020_TRANSFORM"
									           translation="0.000000 -0.217759 -0.135328"
									           scale="1.000000 1.000000 1.000000"
									           rotation="0.000000 1.000000 0.000000 0.000000"
									           >
										<Transform DEF="Cube_020_ifs_TRANSFORM"
										           translation="0.000000 0.000000 0.000000"
										           scale="1.000000 1.000000 1.000000"
										           rotation="0.000000 1.000000 0.000000 0.000000"
										           >
											<Group DEF="group_ME_Cube_036">
												<Shape>
													<Appearance>
														<Material USE="MA_Body" />
													</Appearance>
													<IndexedTriangleSet solid="false"
													                    normalPerVertex="true"
													                    index="0 1 2 0 2 3 4 5 6 4 6 7 8 9 10 8 10 11 12 13 14 12 14 15 4 16 17 4 17 15 18 5 14 18 14 19 "
													                    >
														<Coordinate point="-0.029386 0.020349 -0.021042 -0.029386 -0.189786 -0.224255 -0.029386 -0.230483 -0.182171 -0.029386 -0.020349 0.021042 -0.029386 -0.020349 0.021042 -0.029386 -0.230483 -0.182171 0.029386 -0.230483 -0.182171 0.029386 -0.020349 0.021042 0.029386 -0.020349 0.021042 0.029386 -0.230483 -0.182171 0.029386 -0.189786 -0.224255 0.029386 0.020349 -0.021042 0.029386 0.020349 -0.021042 0.029386 -0.189786 -0.224255 -0.029386 -0.189786 -0.224255 -0.029386 0.020349 -0.021042 0.029386 -0.020349 0.021042 0.029386 0.020349 -0.021042 0.029386 -0.230483 -0.182171 0.029386 -0.189786 -0.224255 " />
														<Normal vector="-0.577349 0.816370 -0.013642 -0.577349 -0.013642 -0.816370 -0.577349 -0.816370 0.013642 -0.577349 0.013642 0.816370 -0.577349 0.013642 0.816370 -0.577349 -0.816370 0.013642 0.577349 -0.816370 0.013642 0.577349 0.013642 0.816370 0.577349 0.013642 0.816370 0.577349 -0.816370 0.013642 0.577349 -0.013642 -0.816370 0.577349 0.816370 -0.013642 0.577349 0.816370 -0.013642 0.577349 -0.013642 -0.816370 -0.577349 -0.013642 -0.816370 -0.577349 0.816370 -0.013642 0.577349 0.013642 0.816370 0.577349 0.816370 -0.013642 0.577349 -0.816370 0.013642 0.577349 -0.013642 -0.816370 " />
														<TextureCoordinate point="0.0169 0.3439 0.5402 0.3439 0.5402 0.9710 0.0169 0.9710 0.0169 0.3439 0.5402 0.3439 0.5402 0.9710 0.0169 0.9710 0.0169 0.3439 0.5402 0.3439 0.5402 0.9710 0.0169 0.9710 0.0169 0.3439 0.5402 0.3439 0.5402 0.9710 0.0169 0.9710 0.5402 0.3439 0.5402 0.9710 0.0169 0.3439 0.0169 0.9710 " />
													</IndexedTriangleSet>
												</Shape>
											</Group>
										</Transform>
										<Transform DEF="Cube_021_TRANSFORM"
										           translation="0.000000 -0.372689 -0.383735"
										           scale="1.000000 1.000000 1.000000"
										           rotation="0.000000 1.000000 0.000000 0.000000"
										           >
											<Transform DEF="Cube_021_ifs_TRANSFORM"
											           translation="0.000000 0.000000 0.000000"
											           scale="1.000000 1.000000 1.000000"
											           rotation="0.000000 1.000000 0.000000 0.000000"
											           >
												<Group DEF="group_ME_Cube_037">
													<Shape>
														<Appearance>
															<Material DEF="MA_Glow"
															          diffuseColor="0.800 0.800 0.800"
															          specularColor="0.401 0.401 0.401"
															          emissiveColor="0.000 0.000 0.000"
															          ambientIntensity="0.000"
															          shininess="0.500"
															          transparency="0.0"
															          />
														</Appearance>
														<IndexedTriangleSet solid="false"
														                    normalPerVertex="true"
														                    index="0 1 2 0 2 3 4 5 6 4 6 7 8 9 10 8 10 11 12 13 14 12 14 15 4 16 17 4 17 15 18 5 14 18 14 19 "
														                    >
															<Coordinate point="-0.321115 -0.286457 -0.352380 -0.321115 -0.352380 0.286457 -0.321115 0.286457 0.352380 -0.321115 0.352380 -0.286457 -0.321115 0.352380 -0.286457 -0.321115 0.286457 0.352380 0.321115 0.286457 0.352380 0.321115 0.352380 -0.286457 0.321115 0.352380 -0.286457 0.321115 0.286457 0.352380 0.321115 -0.352380 0.286457 0.321115 -0.286457 -0.352380 0.321115 -0.286457 -0.352380 0.321115 -0.352380 0.286457 -0.321115 -0.352380 0.286457 -0.321115 -0.286457 -0.352380 0.321115 0.352380 -0.286457 0.321115 -0.286457 -0.352380 0.321115 0.286457 0.352380 0.321115 -0.352380 0.286457 " />
															<Normal vector="-0.577349 -0.515030 -0.633564 -0.577349 -0.633564 0.515030 -0.577349 0.515030 0.633564 -0.577349 0.633564 -0.515030 -0.577349 0.633564 -0.515030 -0.577349 0.515030 0.633564 0.577349 0.515030 0.633564 0.577349 0.633564 -0.515030 0.577349 0.633564 -0.515030 0.577349 0.515030 0.633564 0.577349 -0.633564 0.515030 0.577349 -0.515030 -0.633564 0.577349 -0.515030 -0.633564 0.577349 -0.633564 0.515030 -0.577349 -0.633564 0.515030 -0.577349 -0.515030 -0.633564 0.577349 0.633564 -0.515030 0.577349 -0.515030 -0.633564 0.577349 0.515030 0.633564 0.577349 -0.633564 0.515030 " />
															<TextureCoordinate point="0.6015 0.7179 0.9694 0.7179 0.9694 0.9711 0.6015 0.9711 0.6015 0.7179 0.9694 0.7179 0.9694 0.9711 0.6015 0.9711 0.6015 0.7179 0.9694 0.7179 0.9694 0.9711 0.6015 0.9711 0.6015 0.7179 0.9694 0.7179 0.9694 0.9711 0.6015 0.9711 0.9694 0.7179 0.9694 0.9711 0.6015 0.7179 0.6015 0.9711 " />
														</IndexedTriangleSet>
													</Shape>
												</Group>
											</Transform>
										</Transform>
									</Transform>
								</Transform>
							</Transform>
						</Transform>
					</Transform>
					<Transform DEF="Cube_022_TRANSFORM"
					           translation="0.000000 -0.296398 0.458312"
					           scale="1.000000 1.000000 1.000000"
					           rotation="0.000000 1.000000 0.000000 0.000000"
					           >
						<Transform DEF="Cube_022_ifs_TRANSFORM"
						           translation="0.000000 0.000000 0.000000"
						           scale="1.000000 1.000000 1.000000"
						           rotation="0.000000 1.000000 0.000000 0.000000"
						           >
							<Group DEF="group_ME_Cube_038">
								<Shape>
									<Appearance>
										<Material USE="MA_Body" />
									</Appearance>
									<IndexedTriangleSet solid="false"
									                    normalPerVertex="true"
									                    index="0 1 2 0 2 3 4 5 6 4 6 7 8 9 10 8 10 11 12 13 14 12 14 15 4 16 17 4 17 15 18 5 14 18 14 19 "
									                    >
										<Coordinate point="-0.050318 -0.044125 0.023772 -0.050318 0.090248 0.273190 -0.050318 0.178498 0.225645 -0.050318 0.044125 -0.023772 -0.050318 0.044125 -0.023772 -0.050318 0.178498 0.225645 0.050318 0.178498 0.225645 0.050318 0.044125 -0.023772 0.050318 0.044125 -0.023772 0.050318 0.178498 0.225645 0.050318 0.090248 0.273190 0.050318 -0.044125 0.023772 0.050318 -0.044125 0.023772 0.050318 0.090248 0.273190 -0.050318 0.090248 0.273190 -0.050318 -0.044125 0.023772 0.050318 0.044125 -0.023772 0.050318 -0.044125 0.023772 0.050318 0.178498 0.225645 0.050318 0.090248 0.273190 " />
										<Normal vector="-0.577349 -0.782098 -0.234443 -0.577349 -0.234443 0.782098 -0.577349 0.782098 0.234443 -0.577349 0.234443 -0.782098 -0.577349 0.234443 -0.782098 -0.577349 0.782098 0.234443 0.577349 0.782098 0.234443 0.577349 0.234443 -0.782098 0.577349 0.234443 -0.782098 0.577349 0.782098 0.234443 0.577349 -0.234443 0.782098 0.577349 -0.782098 -0.234443 0.577349 -0.782098 -0.234443 0.577349 -0.234443 0.782098 -0.577349 -0.234443 0.782098 -0.577349 -0.782098 -0.234443 0.577349 0.234443 -0.782098 0.577349 -0.782098 -0.234443 0.577349 0.782098 0.234443 0.577349 -0.234443 0.782098 " />
										<TextureCoordinate point="0.0169 0.3439 0.5402 0.3439 0.5402 0.9710 0.0169 0.9710 0.0169 0.3439 0.5402 0.3439 0.5402 0.9710 0.0169 0.9710 0.0169 0.3439 0.5402 0.3439 0.5402 0.9710 0.0169 0.9710 0.0169 0.3439 0.5402 0.3439 0.5402 0.9710 0.0169 0.9710 0.5402 0.3439 0.5402 0.9710 0.0169 0.3439 0.0169 0.9710 " />
									</IndexedTriangleSet>
								</Shape>
							</Group>
						</Transform>
						<Transform DEF="Cube_023_TRANSFORM"
						           translation="0.000000 0.108149 0.222006"
						           scale="1.000000 1.000000 1.000000"
						           rotation="0.000000 1.000000 0.000000 0.000000"
						           >
							<Transform DEF="Cube_023_ifs_TRANSFORM"
							           translation="0.000000 0.000000 0.000000"
							           scale="1.000000 1.000000 1.000000"
							           rotation="0.000000 1.000000 0.000000 0.000000"
							           >
								<Group DEF="group_ME_Cube_039">
									<Shape>
										<Appearance>
											<Material USE="MA_Body" />
										</Appearance>
										<IndexedTriangleSet solid="false"
										                    normalPerVertex="true"
										                    index="0 1 2 0 2 3 4 5 6 4 6 7 8 9 10 8 10 11 12 13 14 12 14 15 4 16 17 4 17 15 18 5 14 18 14 19 "
										                    >
											<Coordinate point="-0.036260 -0.016721 0.032015 -0.036260 0.230321 0.161039 -0.036260 0.263762 0.097010 -0.036260 0.016721 -0.032015 -0.036260 0.016721 -0.032015 -0.036260 0.263762 0.097010 0.036260 0.263762 0.097010 0.036260 0.016721 -0.032015 0.036260 0.016721 -0.032015 0.036260 0.263762 0.097010 0.036260 0.230321 0.161039 0.036260 -0.016721 0.032015 0.036260 -0.016721 0.032015 0.036260 0.230321 0.161039 -0.036260 0.230321 0.161039 -0.036260 -0.016721 0.032015 0.036260 0.016721 -0.032015 0.036260 -0.016721 0.032015 0.036260 0.263762 0.097010 0.036260 0.230321 0.161039 " />
											<Normal vector="-0.577349 -0.779015 0.244453 -0.577349 0.244453 0.779015 -0.577349 0.779015 -0.244453 -0.577349 -0.244453 -0.779015 -0.577349 -0.244453 -0.779015 -0.577349 0.779015 -0.244453 0.577349 0.779015 -0.244453 0.577349 -0.244453 -0.779015 0.577349 -0.244453 -0.779015 0.577349 0.779015 -0.244453 0.577349 0.244453 0.779015 0.577349 -0.779015 0.244453 0.577349 -0.779015 0.244453 0.577349 0.244453 0.779015 -0.577349 0.244453 0.779015 -0.577349 -0.779015 0.244453 0.577349 -0.244453 -0.779015 0.577349 -0.779015 0.244453 0.577349 0.779015 -0.244453 0.577349 0.244453 0.779015 " />
											<TextureCoordinate point="0.0169 0.3439 0.5402 0.3439 0.5402 0.9710 0.0169 0.9710 0.0169 0.3439 0.5402 0.3439 0.5402 0.9710 0.0169 0.9710 0.0169 0.3439 0.5402 0.3439 0.5402 0.9710 0.0169 0.9710 0.0169 0.3439 0.5402 0.3439 0.5402 0.9710 0.0169 0.9710 0.5402 0.3439 0.5402 0.9710 0.0169 0.3439 0.0169 0.9710 " />
										</IndexedTriangleSet>
									</Shape>
								</Group>
							</Transform>
							<Transform DEF="Cube_024_TRANSFORM"
							           translation="0.000000 0.225369 0.117705"
							           scale="1.000000 1.000000 1.000000"
							           rotation="0.000000 1.000000 0.000000 0.000000"
							           >
								<Transform DEF="Cube_024_ifs_TRANSFORM"
								           translation="0.000000 0.000000 0.000000"
								           scale="1.000000 1.000000 1.000000"
								           rotation="0.000000 1.000000 0.000000 0.000000"
								           >
									<Group DEF="group_ME_Cube_040">
										<Shape>
											<Appearance>
												<Material USE="MA_Body" />
											</Appearance>
											<IndexedTriangleSet solid="false"
											                    normalPerVertex="true"
											                    index="0 1 2 0 2 3 4 5 6 4 6 7 8 9 10 8 10 11 12 13 14 12 14 15 4 16 17 4 17 15 18 5 14 18 14 19 "
											                    >
												<Coordinate point="-0.028319 -0.002988 0.028190 -0.028319 0.213471 0.051131 -0.028319 0.219446 -0.005250 -0.028319 0.002988 -0.028190 -0.028319 0.002988 -0.028190 -0.028319 0.219446 -0.005250 0.028319 0.219446 -0.005250 0.028319 0.002988 -0.028190 0.028319 0.002988 -0.028190 0.028319 0.219446 -0.005250 0.028319 0.213471 0.051131 0.028319 -0.002988 0.028190 0.028319 -0.002988 0.028190 0.028319 0.213471 0.051131 -0.028319 0.213471 0.051131 -0.028319 -0.002988 0.028190 0.028319 0.002988 -0.028190 0.028319 -0.002988 0.028190 0.028319 0.219446 -0.005250 0.028319 0.213471 0.051131 " />
												<Normal vector="-0.577349 -0.634968 0.513260 -0.577349 0.513260 0.634968 -0.577349 0.634968 -0.513260 -0.577349 -0.513260 -0.634968 -0.577349 -0.513260 -0.634968 -0.577349 0.634968 -0.513260 0.577349 0.634968 -0.513260 0.577349 -0.513260 -0.634968 0.577349 -0.513260 -0.634968 0.577349 0.634968 -0.513260 0.577349 0.513260 0.634968 0.577349 -0.634968 0.513260 0.577349 -0.634968 0.513260 0.577349 0.513260 0.634968 -0.577349 0.513260 0.634968 -0.577349 -0.634968 0.513260 0.577349 -0.513260 -0.634968 0.577349 -0.634968 0.513260 0.577349 0.634968 -0.513260 0.577349 0.513260 0.634968 " />
												<TextureCoordinate point="0.0169 0.3439 0.5402 0.3439 0.5402 0.9710 0.0169 0.9710 0.0169 0.3439 0.5402 0.3439 0.5402 0.9710 0.0169 0.9710 0.0169 0.3439 0.5402 0.3439 0.5402 0.9710 0.0169 0.9710 0.0169 0.3439 0.5402 0.3439 0.5402 0.9710 0.0169 0.9710 0.5402 0.3439 0.5402 0.9710 0.0169 0.3439 0.0169 0.9710 " />
											</IndexedTriangleSet>
										</Shape>
									</Group>
								</Transform>
								<Transform DEF="Cube_025_TRANSFORM"
								           translation="0.000000 0.371082 0.063904"
								           scale="1.000000 1.000000 1.000000"
								           rotation="0.000000 1.000000 0.000000 0.000000"
								           >
									<Transform DEF="Cube_025_ifs_TRANSFORM"
									           translation="0.000000 0.000000 0.000000"
									           scale="1.000000 1.000000 1.000000"
									           rotation="0.000000 1.000000 0.000000 0.000000"
									           >
										<Group DEF="group_ME_Cube_041">
											<Shape>
												<Appearance>
													<Material USE="MA_Glow" />
												</Appearance>
												<IndexedTriangleSet solid="false"
												                    normalPerVertex="true"
												                    index="0 1 2 0 2 3 4 5 6 4 6 7 8 9 10 8 10 11 12 13 14 12 14 15 4 16 17 4 17 15 18 5 14 18 14 19 "
												                    >
													<Coordinate point="-0.209894 -0.207607 -0.212157 -0.209894 -0.212157 0.207607 -0.209894 0.207607 0.212157 -0.209894 0.212157 -0.207607 -0.209894 0.212157 -0.207607 -0.209894 0.207607 0.212157 0.209894 0.207607 0.212157 0.209894 0.212157 -0.207607 0.209894 0.212157 -0.207607 0.209894 0.207607 0.212157 0.209894 -0.212157 0.207607 0.209894 -0.207607 -0.212157 0.209894 -0.207607 -0.212157 0.209894 -0.212157 0.207607 -0.209894 -0.212157 0.207607 -0.209894 -0.207607 -0.212157 0.209894 0.212157 -0.207607 0.209894 -0.207607 -0.212157 0.209894 0.207607 0.212157 0.209894 -0.212157 0.207607 " />
													<Normal vector="-0.577349 -0.571032 -0.583544 -0.577349 -0.583544 0.571032 -0.577349 0.571032 0.583544 -0.577349 0.583544 -0.571032 -0.577349 0.583544 -0.571032 -0.577349 0.571032 0.583544 0.577349 0.571032 0.583544 0.577349 0.583544 -0.571032 0.577349 0.583544 -0.571032 0.577349 0.571032 0.583544 0.577349 -0.583544 0.571032 0.577349 -0.571032 -0.583544 0.577349 -0.571032 -0.583544 0.577349 -0.583544 0.571032 -0.577349 -0.583544 0.571032 -0.577349 -0.571032 -0.583544 0.577349 0.583544 -0.571032 0.577349 -0.571032 -0.583544 0.577349 0.571032 0.583544 0.577349 -0.583544 0.571032 " />
													<TextureCoordinate point="0.6015 0.7179 0.9694 0.7179 0.9694 0.9711 0.6015 0.9711 0.6015 0.7179 0.9694 0.7179 0.9694 0.9711 0.6015 0.9711 0.6015 0.7179 0.9694 0.7179 0.9694 0.9711 0.6015 0.9711 0.6015 0.7179 0.9694 0.7179 0.9694 0.9711 0.6015 0.9711 0.9694 0.7179 0.9694 0.9711 0.6015 0.7179 0.6015 0.9711 " />
												</IndexedTriangleSet>
											</Shape>
										</Group>
									</Transform>
								</Transform>
							</Transform>
						</Transform>
					</Transform>
				</Transform>
				<Transform DEF="Cube_001_TRANSFORM"
				           translation="-0.639907 -0.191180 -0.008880"
				           scale="1.000000 1.000000 1.000000"
				           rotation="0.000000 1.000000 0.000000 0.000000"
				           >
					<Transform DEF="Cube_001_ifs_TRANSFORM"
					           translation="0.000000 0.000000 0.000000"
					           scale="1.000000 1.000000 1.000000"
					           rotation="0.000000 1.000000 0.000000 0.000000"
					           >
						<Group DEF="group_ME_Cube_002">
							<Shape>
								<Appearance>
									<Material USE="MA_Body" />
								</Appearance>
								<IndexedTriangleSet solid="false"
								                    normalPerVertex="true"
								                    index="0 1 2 0 2 3 4 5 6 4 6 7 8 9 10 8 10 11 12 13 14 12 14 15 4 13 16 4 16 17 18 19 14 18 14 7 "
								                    >
									<Coordinate point="0.185009 0.121523 -0.500769 0.185009 0.074581 0.509877 0.626188 -0.756062 0.471296 0.626188 -0.709121 -0.539349 0.185009 0.074581 0.509877 -0.185009 -0.121523 0.500769 0.256171 -0.952166 0.462188 0.626188 -0.756062 0.471296 -0.185009 -0.121523 0.500769 -0.185009 -0.074581 -0.509877 0.256171 -0.905225 -0.548458 0.256171 -0.952166 0.462188 -0.185009 -0.074581 -0.509877 0.185009 0.121523 -0.500769 0.626188 -0.709121 -0.539349 0.256171 -0.905225 -0.548458 -0.185009 -0.074581 -0.509877 -0.185009 -0.121523 0.500769 0.256171 -0.952166 0.462188 0.256171 -0.905225 -0.548458 " />
									<Normal vector="0.239418 0.806543 -0.540483 0.239418 0.752953 0.612934 0.780602 -0.265938 0.565600 0.780602 -0.212348 -0.587817 0.239418 0.752953 0.612934 -0.780602 0.212348 0.587817 -0.239418 -0.806543 0.540483 0.780602 -0.265938 0.565600 -0.780602 0.212348 0.587817 -0.780602 0.265938 -0.565600 -0.239418 -0.752953 -0.612934 -0.239418 -0.806543 0.540483 -0.780602 0.265938 -0.565600 0.239418 0.806543 -0.540483 0.780602 -0.212348 -0.587817 -0.239418 -0.752953 -0.612934 -0.780602 0.265938 -0.565600 -0.780602 0.212348 0.587817 -0.239418 -0.806543 0.540483 -0.239418 -0.752953 -0.612934 " />
									<TextureCoordinate point="0.0169 0.3439 0.0169 0.9710 0.5402 0.9710 0.5402 0.3439 0.0169 0.3439 0.0169 0.9710 0.5402 0.9710 0.5402 0.3439 0.0169 0.3439 0.0169 0.9710 0.5402 0.9710 0.5402 0.3439 0.0169 0.3439 0.0169 0.9710 0.5402 0.9710 0.5402 0.3439 0.5402 0.9710 0.5402 0.3439 0.0169 0.3439 0.0169 0.9710 " />
								</IndexedTriangleSet>
							</Shape>
						</Group>
					</Transform>
					<Transform DEF="Cube_003_TRANSFORM"
					           translation="-0.040410 -0.240578 -0.022324"
					           scale="1.000000 1.000000 1.000000"
					           rotation="0.000000 1.000000 0.000000 0.000000"
					           >
						<Transform DEF="Cube_003_ifs_TRANSFORM"
						           translation="0.000000 0.000000 0.000000"
						           scale="1.000000 1.000000 1.000000"
						           rotation="0.000000 1.000000 0.000000 0.000000"
						           >
							<Group DEF="group_ME_Cube_003">
								<Shape>
									<Appearance>
										<Material USE="MA_Body" />
									</Appearance>
									<IndexedTriangleSet solid="false"
									                    normalPerVertex="true"
									                    index="0 1 2 0 2 3 4 5 6 4 6 7 8 9 10 8 10 11 12 13 14 12 14 15 16 17 18 16 18 19 20 21 14 20 14 22 23 17 24 23 24 25 25 24 13 25 13 12 26 27 28 26 28 29 29 28 9 29 9 8 30 31 32 30 32 33 33 32 5 33 5 4 34 35 36 34 36 37 37 36 1 37 1 0 38 39 40 38 40 41 39 37 0 39 0 40 42 43 39 42 39 38 43 34 37 43 37 39 44 45 46 44 46 47 48 49 45 48 45 44 49 26 29 49 29 45 50 51 52 50 52 7 51 20 22 51 22 52 30 53 54 30 54 55 53 16 19 53 19 54 47 46 56 47 56 57 46 8 11 46 11 56 41 40 58 41 58 59 40 0 3 40 3 58 "
									                    >
										<Coordinate point="0.423708 -0.509950 0.156654 0.425257 -0.516626 0.237448 0.486724 -0.621310 0.227620 0.485175 -0.614635 0.146826 0.425257 -0.516626 0.237448 0.231217 -0.630028 0.231798 0.292684 -0.734713 0.221970 0.486724 -0.621310 0.227620 0.221790 -0.589406 -0.259863 0.220241 -0.582730 -0.340657 0.281708 -0.687414 -0.350485 0.283257 -0.694090 -0.269691 0.220241 -0.582730 -0.340657 0.414282 -0.469328 -0.335007 0.475748 -0.574012 -0.344835 0.281708 -0.687414 -0.350485 0.093081 0.073675 -0.202609 0.091532 0.080350 -0.283403 -0.102508 -0.033052 -0.289052 -0.100959 -0.039728 -0.208258 0.283257 -0.694090 -0.269691 0.281708 -0.687414 -0.350485 0.477297 -0.580687 -0.264041 -0.102508 -0.033052 -0.289052 0.152999 -0.024334 -0.293231 -0.041042 -0.137736 -0.298880 -0.100959 -0.039728 -0.208258 -0.102508 -0.033052 -0.289052 -0.041042 -0.137736 -0.298880 -0.039493 -0.144412 -0.218086 0.102508 0.033052 0.289052 -0.091532 -0.080350 0.283403 -0.030066 -0.185034 0.273575 0.163974 -0.071632 0.279224 0.100959 0.039728 0.208258 0.102508 0.033052 0.289052 0.163974 -0.071632 0.279224 0.162425 -0.064956 0.198430 0.152999 -0.024334 -0.293231 0.154548 -0.031009 -0.212437 0.415831 -0.476003 -0.254213 0.414282 -0.469328 -0.335007 0.091532 0.080350 -0.283403 0.093081 0.073675 -0.202609 -0.030066 -0.185034 0.273575 -0.031615 -0.178359 0.192781 0.229668 -0.623353 0.151004 0.231217 -0.630028 0.231798 -0.091532 -0.080350 0.283403 -0.093081 -0.073675 0.202609 0.292684 -0.734713 0.221970 0.291135 -0.728037 0.141177 0.485175 -0.614635 0.146826 0.100959 0.039728 0.208258 -0.093081 -0.073675 0.202609 -0.091532 -0.080350 0.283403 0.291135 -0.728037 0.141177 0.292684 -0.734713 0.221970 0.477297 -0.580687 -0.264041 0.475748 -0.574012 -0.344835 " />
										<Normal vector="0.863094 0.504410 0.025117 0.623798 0.298441 0.722343 0.800714 -0.252541 0.543199 0.967162 -0.251076 -0.039277 0.623798 0.298441 0.722343 -0.596789 -0.414869 0.686789 -0.195898 -0.834986 0.514176 0.800714 -0.252541 0.543199 -0.863094 -0.504410 -0.025117 -0.623798 -0.298441 -0.722343 -0.217933 -0.739921 -0.636372 -0.253426 -0.964446 -0.074801 -0.623798 -0.298441 -0.722343 0.596789 0.414869 -0.686789 0.778649 -0.157476 -0.607349 -0.217933 -0.739921 -0.636372 0.253426 0.964446 0.074801 0.195898 0.834986 -0.514176 -0.800714 0.252541 -0.543199 -0.967162 0.251076 0.039277 -0.253426 -0.964446 -0.074801 -0.217933 -0.739921 -0.636372 0.967162 -0.251076 -0.039277 -0.800714 0.252541 -0.543199 0.596789 0.414869 -0.686789 -0.623798 -0.298441 -0.722343 -0.967162 0.251076 0.039277 -0.800714 0.252541 -0.543199 -0.623798 -0.298441 -0.722343 -0.863094 -0.504410 -0.025117 0.217933 0.739921 0.636372 -0.778649 0.157476 0.607349 -0.596789 -0.414869 0.686789 0.623798 0.298441 0.722343 0.253426 0.964446 0.074801 0.217933 0.739921 0.636372 0.623798 0.298441 0.722343 0.863094 0.504410 0.025117 0.596789 0.414869 -0.686789 0.863094 0.504410 0.025117 0.863094 0.504410 0.025117 0.596789 0.414869 -0.686789 0.195898 0.834986 -0.514176 0.253426 0.964446 0.074801 -0.596789 -0.414869 0.686789 -0.863094 -0.504410 -0.025117 -0.863094 -0.504410 -0.025117 -0.596789 -0.414869 0.686789 -0.778649 0.157476 0.607349 -0.967162 0.251076 0.039277 -0.195898 -0.834986 0.514176 -0.253426 -0.964446 -0.074801 0.967162 -0.251076 -0.039277 0.253426 0.964446 0.074801 -0.967162 0.251076 0.039277 -0.778649 0.157476 0.607349 -0.253426 -0.964446 -0.074801 -0.195898 -0.834986 0.514176 0.967162 -0.251076 -0.039277 0.778649 -0.157476 -0.607349 " />
										<TextureCoordinate point="0.8523 0.2001 0.8523 0.2893 0.9859 0.2893 0.9859 0.2001 0.8523 0.0217 0.8523 0.2893 0.9859 0.2893 0.9859 0.0217 0.8523 0.2001 0.8523 0.2893 0.9859 0.2893 0.9859 0.2001 0.8523 0.0217 0.8523 0.2893 0.9859 0.2893 0.9859 0.0217 0.5850 0.2001 0.5850 0.2893 0.9859 0.2893 0.9859 0.2001 0.5850 0.2001 0.5850 0.2893 0.9859 0.2001 0.5850 0.0217 0.7186 0.2893 0.7186 0.0217 0.5850 0.2001 0.5850 0.2893 0.7186 0.2893 0.7186 0.2001 0.5850 0.0217 0.5850 0.2893 0.7186 0.2893 0.7186 0.0217 0.5850 0.2001 0.5850 0.2893 0.7186 0.2893 0.7186 0.2001 0.7186 0.0217 0.7186 0.1109 0.8523 0.1109 0.8523 0.0217 0.5850 0.0217 0.5850 0.1109 0.7186 0.0217 0.7186 0.1109 0.8523 0.1109 0.8523 0.0217 0.5850 0.0217 0.5850 0.1109 0.5850 0.0217 0.5850 0.1109 0.9859 0.1109 0.5850 0.1109 0.9859 0.1109 0.9859 0.0217 0.9859 0.1109 0.9859 0.0217 0.9859 0.1109 0.9859 0.0217 " />
									</IndexedTriangleSet>
								</Shape>
								<Shape>
									<Appearance>
										<Material USE="MA_Face" />
									</Appearance>
									<IndexedTriangleSet solid="false"
									                    normalPerVertex="true"
									                    index="0 1 2 0 2 3 "
									                    >
										<Coordinate point="-0.031615 -0.178359 0.192781 -0.039493 -0.144412 -0.218086 0.221790 -0.589406 -0.259863 0.229668 -0.623353 0.151004 " />
										<Normal vector="-0.863094 -0.504410 -0.025117 -0.863094 -0.504410 -0.025117 -0.863094 -0.504410 -0.025117 -0.863094 -0.504410 -0.025117 " />
										<TextureCoordinate point="0.4927 0.9753 0.4927 0.5169 0.0102 0.5169 0.0102 0.9753 " />
									</IndexedTriangleSet>
								</Shape>
							</Group>
						</Transform>
					</Transform>
				</Transform>
			</Transform>
			<Transform DEF="tail_TRANSFORM"
			           translation="0.000000 0.593353 0.837767"
			           scale="1.000000 1.000000 1.000000"
			           rotation="0.000000 1.000000 0.000000 0.000000"
			           >
				<Transform DEF="tail_ifs_TRANSFORM"
				           translation="0.000000 0.000000 0.000000"
				           scale="1.000000 1.000000 1.000000"
				           rotation="0.000000 1.000000 0.000000 0.000000"
				           >
					<Group DEF="group_ME_tail">
						<Shape>
							<Appearance>
								<Material USE="MA_Body" />
							</Appearance>
							<IndexedTriangleSet solid="false"
							                    normalPerVertex="true"
							                    index="0 1 2 0 2 3 4 5 6 4 6 7 8 9 10 8 10 11 12 13 14 12 14 15 4 16 17 4 17 15 18 5 14 18 14 19 "
							                    >
								<Coordinate point="-0.497231 0.030667 -0.551290 -0.497231 -0.030667 0.551290 -0.497231 0.642972 0.588763 -0.497231 0.704306 -0.513817 -0.497231 0.704306 -0.513817 -0.497231 0.642972 0.588763 0.497231 0.642972 0.588763 0.497231 0.704306 -0.513817 0.497231 0.704306 -0.513817 0.497231 0.642972 0.588763 0.497231 -0.030667 0.551290 0.497231 0.030667 -0.551290 0.497231 0.030667 -0.551290 0.497231 -0.030667 0.551290 -0.497231 -0.030667 0.551290 -0.497231 0.030667 -0.551290 0.497231 0.704306 -0.513817 0.497231 0.030667 -0.551290 0.497231 0.642972 0.588763 0.497231 -0.030667 0.551290 " />
								<Normal vector="-0.577349 -0.544389 -0.608509 -0.577349 -0.608509 0.544389 -0.577349 0.544389 0.608509 -0.577349 0.608509 -0.544389 -0.577349 0.608509 -0.544389 -0.577349 0.544389 0.608509 0.577349 0.544389 0.608509 0.577349 0.608509 -0.544389 0.577349 0.608509 -0.544389 0.577349 0.544389 0.608509 0.577349 -0.608509 0.544389 0.577349 -0.544389 -0.608509 0.577349 -0.544389 -0.608509 0.577349 -0.608509 0.544389 -0.577349 -0.608509 0.544389 -0.577349 -0.544389 -0.608509 0.577349 0.608509 -0.544389 0.577349 -0.544389 -0.608509 0.577349 0.544389 0.608509 0.577349 -0.608509 0.544389 " />
								<TextureCoordinate point="0.0169 0.3439 0.5402 0.3439 0.5402 0.9710 0.0169 0.9710 0.0169 0.3439 0.5402 0.3439 0.5402 0.9710 0.0169 0.9710 0.0169 0.3439 0.5402 0.3439 0.5402 0.9710 0.0169 0.9710 0.0169 0.3439 0.5402 0.3439 0.5402 0.9710 0.0169 0.9710 0.5402 0.3439 0.5402 0.9710 0.0169 0.3439 0.0169 0.9710 " />
							</IndexedTriangleSet>
						</Shape>
					</Group>
				</Transform>
				<Transform DEF="tail1_TRANSFORM"
				           translation="0.000000 0.638495 0.070370"
				           scale="1.000000 1.000000 1.000000"
				           rotation="0.000000 1.000000 0.000000 0.000000"
				           >
					<Transform DEF="tail1_ifs_TRANSFORM"
					           translation="0.000000 0.000000 0.000000"
					           scale="1.000000 1.000000 1.000000"
					           rotation="0.000000 1.000000 0.000000 0.000000"
					           >
						<Group DEF="group_ME_tail1">
							<Shape>
								<Appearance>
									<Material USE="MA_Body" />
								</Appearance>
								<IndexedTriangleSet solid="false"
								                    normalPerVertex="true"
								                    index="0 1 2 0 2 3 4 5 6 4 6 7 8 9 10 8 10 11 12 13 14 12 14 15 4 16 17 4 17 15 18 5 14 18 14 19 "
								                    >
									<Coordinate point="-0.233025 0.014929 -0.268378 -0.233025 -0.014929 0.268378 -0.233025 0.668833 0.306414 -0.233025 0.698692 -0.230342 -0.233025 0.698692 -0.230342 -0.233025 0.668833 0.306414 0.233025 0.668833 0.306414 0.233025 0.698692 -0.230342 0.233025 0.698692 -0.230342 0.233025 0.668833 0.306414 0.233025 -0.014929 0.268378 0.233025 0.014929 -0.268378 0.233025 0.014929 -0.268378 0.233025 -0.014929 0.268378 -0.233025 -0.014929 0.268378 -0.233025 0.014929 -0.268378 0.233025 0.698692 -0.230342 0.233025 0.014929 -0.268378 0.233025 0.668833 0.306414 0.233025 -0.014929 0.268378 " />
									<Normal vector="-0.577349 -0.544389 -0.608509 -0.577349 -0.608509 0.544389 -0.577349 0.544389 0.608509 -0.577349 0.608509 -0.544389 -0.577349 0.608509 -0.544389 -0.577349 0.544389 0.608509 0.577349 0.544389 0.608509 0.577349 0.608509 -0.544389 0.577349 0.608509 -0.544389 0.577349 0.544389 0.608509 0.577349 -0.608509 0.544389 0.577349 -0.544389 -0.608509 0.577349 -0.544389 -0.608509 0.577349 -0.608509 0.544389 -0.577349 -0.608509 0.544389 -0.577349 -0.544389 -0.608509 0.577349 0.608509 -0.544389 0.577349 -0.544389 -0.608509 0.577349 0.544389 0.608509 0.577349 -0.608509 0.544389 " />
									<TextureCoordinate point="0.0169 0.3439 0.5402 0.3439 0.5402 0.9710 0.0169 0.9710 0.0169 0.3439 0.5402 0.3439 0.5402 0.9710 0.0169 0.9710 0.0169 0.3439 0.5402 0.3439 0.5402 0.9710 0.0169 0.9710 0.0169 0.3439 0.5402 0.3439 0.5402 0.9710 0.0169 0.9710 0.5402 0.3439 0.5402 0.9710 0.0169 0.3439 0.0169 0.9710 " />
								</IndexedTriangleSet>
							</Shape>
						</Group>
					</Transform>
					<Transform DEF="tail2_TRANSFORM"
					           translation="0.000000 0.642103 0.071228"
					           scale="1.000000 1.000000 1.000000"
					           rotation="0.000000 1.000000 0.000000 0.000000"
					           >
						<Transform DEF="tail2_ifs_TRANSFORM"
						           translation="0.000000 0.000000 0.000000"
						           scale="1.000000 1.000000 1.000000"
						           rotation="0.000000 1.000000 0.000000 0.000000"
						           >
							<Group DEF="group_ME_tail2">
								<Shape>
									<Appearance>
										<Material USE="MA_Body" />
									</Appearance>
									<IndexedTriangleSet solid="false"
									                    normalPerVertex="true"
									                    index="0 1 2 0 2 3 4 5 6 4 6 7 8 9 10 8 10 11 12 13 14 12 14 15 4 16 17 4 17 15 18 5 14 18 14 19 "
									                    >
										<Coordinate point="-0.075034 0.053850 -0.263343 -0.075034 -0.053850 0.263343 -0.075034 0.634019 0.404002 -0.075034 0.741719 -0.122685 -0.075034 0.741719 -0.122685 -0.075034 0.634019 0.404002 0.075034 0.634019 0.404002 0.075034 0.741719 -0.122685 0.075034 0.741719 -0.122685 0.075034 0.634019 0.404002 0.075034 -0.053850 0.263343 0.075034 0.053850 -0.263343 0.075034 0.053850 -0.263343 0.075034 -0.053850 0.263343 -0.075034 -0.053850 0.263343 -0.075034 0.053850 -0.263343 0.075034 0.741719 -0.122685 0.075034 0.053850 -0.263343 0.075034 0.634019 0.404002 0.075034 -0.053850 0.263343 " />
										<Normal vector="-0.577349 -0.449965 -0.681295 -0.577349 -0.681295 0.449965 -0.577349 0.449965 0.681295 -0.577349 0.681295 -0.449965 -0.577349 0.681295 -0.449965 -0.577349 0.449965 0.681295 0.577349 0.449965 0.681295 0.577349 0.681295 -0.449965 0.577349 0.681295 -0.449965 0.577349 0.449965 0.681295 0.577349 -0.681295 0.449965 0.577349 -0.449965 -0.681295 0.577349 -0.449965 -0.681295 0.577349 -0.681295 0.449965 -0.577349 -0.681295 0.449965 -0.577349 -0.449965 -0.681295 0.577349 0.681295 -0.449965 0.577349 -0.449965 -0.681295 0.577349 0.449965 0.681295 0.577349 -0.681295 0.449965 " />
										<TextureCoordinate point="0.0169 0.3439 0.5402 0.3439 0.5402 0.9710 0.0169 0.9710 0.0169 0.3439 0.5402 0.3439 0.5402 0.9710 0.0169 0.9710 0.0169 0.3439 0.5402 0.3439 0.5402 0.9710 0.0169 0.9710 0.0169 0.3439 0.5402 0.3439 0.5402 0.9710 0.0169 0.9710 0.5402 0.3439 0.5402 0.9710 0.0169 0.3439 0.0169 0.9710 " />
									</IndexedTriangleSet>
								</Shape>
							</Group>
						</Transform>
						<Transform DEF="Cube_009_TRANSFORM"
						           translation="0.000000 0.294181 0.175175"
						           scale="1.000000 1.000000 1.000000"
						           rotation="0.000000 1.000000 0.000000 0.000000"
						           >
							<Transform DEF="Cube_009_ifs_TRANSFORM"
							           translation="0.000000 0.000000 0.000000"
							           scale="1.000000 1.000000 1.000000"
							           rotation="0.000000 1.000000 0.000000 0.000000"
							           >
								<Group DEF="group_ME_Cube_025">
									<Shape>
										<Appearance>
											<Material USE="MA_Body" />
										</Appearance>
										<IndexedTriangleSet solid="false"
										                    normalPerVertex="true"
										                    index="0 1 2 0 2 3 4 5 6 4 6 7 8 9 10 8 10 11 12 13 14 12 14 15 4 16 17 4 17 15 18 5 14 18 14 19 "
										                    >
											<Coordinate point="-0.043838 0.266192 -0.058429 -0.043838 -0.266192 0.058429 -0.043838 -0.116239 0.741597 -0.043838 0.416146 0.624739 -0.043838 0.416146 0.624739 -0.043838 -0.116239 0.741597 0.043838 -0.116239 0.741597 0.043838 0.416146 0.624739 0.043838 0.416146 0.624739 0.043838 -0.116239 0.741597 0.043838 -0.266192 0.058429 0.043838 0.266192 -0.058429 0.043838 0.266192 -0.058429 0.043838 -0.266192 0.058429 -0.043838 -0.266192 0.058429 -0.043838 0.266192 -0.058429 0.043838 0.416146 0.624739 0.043838 0.266192 -0.058429 0.043838 -0.116239 0.741597 0.043838 -0.266192 0.058429 " />
											<Normal vector="-0.577349 0.440138 -0.687704 -0.577349 -0.687704 -0.440138 -0.577349 -0.440138 0.687704 -0.577349 0.687704 0.440138 -0.577349 0.687704 0.440138 -0.577349 -0.440138 0.687704 0.577349 -0.440138 0.687704 0.577349 0.687704 0.440138 0.577349 0.687704 0.440138 0.577349 -0.440138 0.687704 0.577349 -0.687704 -0.440138 0.577349 0.440138 -0.687704 0.577349 0.440138 -0.687704 0.577349 -0.687704 -0.440138 -0.577349 -0.687704 -0.440138 -0.577349 0.440138 -0.687704 0.577349 0.687704 0.440138 0.577349 0.440138 -0.687704 0.577349 -0.440138 0.687704 0.577349 -0.687704 -0.440138 " />
											<TextureCoordinate point="0.0169 0.3439 0.5402 0.3439 0.5402 0.9710 0.0169 0.9710 0.0169 0.3439 0.5402 0.3439 0.5402 0.9710 0.0169 0.9710 0.0169 0.3439 0.5402 0.3439 0.5402 0.9710 0.0169 0.9710 0.0169 0.3439 0.5402 0.3439 0.5402 0.9710 0.0169 0.9710 0.5402 0.3439 0.5402 0.9710 0.0169 0.3439 0.0169 0.9710 " />
										</IndexedTriangleSet>
									</Shape>
								</Group>
							</Transform>
							<Transform DEF="Cube_010_TRANSFORM"
							           translation="0.000000 0.136609 0.605575"
							           scale="1.000000 1.000000 1.000000"
							           rotation="0.000000 1.000000 0.000000 0.000000"
							           >
								<Transform DEF="Cube_010_ifs_TRANSFORM"
								           translation="0.000000 0.000000 0.000000"
								           scale="1.000000 1.000000 1.000000"
								           rotation="0.000000 1.000000 0.000000 0.000000"
								           >
									<Group DEF="group_ME_Cube_026">
										<Shape>
											<Appearance>
												<Material USE="MA_Body" />
											</Appearance>
											<IndexedTriangleSet solid="false"
											                    normalPerVertex="true"
											                    index="0 1 2 0 2 3 4 5 6 4 6 7 8 9 10 8 10 11 12 13 14 12 14 15 4 16 17 4 17 15 18 5 14 18 14 19 "
											                    >
												<Coordinate point="-0.038285 0.194759 -0.091830 -0.038285 -0.194759 0.091830 -0.038285 0.052809 0.616889 -0.038285 0.442328 0.433229 -0.038285 0.442328 0.433229 -0.038285 0.052809 0.616889 0.038285 0.052809 0.616889 0.038285 0.442328 0.433229 0.038285 0.442328 0.433229 0.038285 0.052809 0.616889 0.038285 -0.194759 0.091830 0.038285 0.194759 -0.091830 0.038285 0.194759 -0.091830 0.038285 -0.194759 0.091830 -0.038285 -0.194759 0.091830 -0.038285 0.194759 -0.091830 0.038285 0.442328 0.433229 0.038285 0.194759 -0.091830 0.038285 0.052809 0.616889 0.038285 -0.194759 0.091830 " />
												<Normal vector="-0.577349 0.275979 -0.768426 -0.577349 -0.768426 -0.275979 -0.577349 -0.275979 0.768426 -0.577349 0.768426 0.275979 -0.577349 0.768426 0.275979 -0.577349 -0.275979 0.768426 0.577349 -0.275979 0.768426 0.577349 0.768426 0.275979 0.577349 0.768426 0.275979 0.577349 -0.275979 0.768426 0.577349 -0.768426 -0.275979 0.577349 0.275979 -0.768426 0.577349 0.275979 -0.768426 0.577349 -0.768426 -0.275979 -0.577349 -0.768426 -0.275979 -0.577349 0.275979 -0.768426 0.577349 0.768426 0.275979 0.577349 0.275979 -0.768426 0.577349 -0.275979 0.768426 0.577349 -0.768426 -0.275979 " />
												<TextureCoordinate point="0.0169 0.3439 0.5402 0.3439 0.5402 0.9710 0.0169 0.9710 0.0169 0.3439 0.5402 0.3439 0.5402 0.9710 0.0169 0.9710 0.0169 0.3439 0.5402 0.3439 0.5402 0.9710 0.0169 0.9710 0.0169 0.3439 0.5402 0.3439 0.5402 0.9710 0.0169 0.9710 0.5402 0.3439 0.5402 0.9710 0.0169 0.3439 0.0169 0.9710 " />
											</IndexedTriangleSet>
										</Shape>
									</Group>
								</Transform>
								<Transform DEF="Cube_011_TRANSFORM"
								           translation="0.000000 0.233044 0.456471"
								           scale="1.000000 1.000000 1.000000"
								           rotation="0.000000 1.000000 0.000000 0.000000"
								           >
									<Transform DEF="Cube_011_ifs_TRANSFORM"
									           translation="0.000000 0.000000 0.000000"
									           scale="1.000000 1.000000 1.000000"
									           rotation="0.000000 1.000000 0.000000 0.000000"
									           >
										<Group DEF="group_ME_Cube_027">
											<Shape>
												<Appearance>
													<Material USE="MA_Body" />
												</Appearance>
												<IndexedTriangleSet solid="false"
												                    normalPerVertex="true"
												                    index="0 1 2 0 2 3 4 5 6 4 6 7 8 9 10 8 10 11 12 13 14 12 14 15 4 16 17 4 17 15 18 5 14 18 14 19 "
												                    >
													<Coordinate point="-0.028615 0.113789 -0.069942 -0.028615 -0.113789 0.069942 -0.028615 0.113405 0.439566 -0.028615 0.340983 0.299682 -0.028615 0.340983 0.299682 -0.028615 0.113405 0.439566 0.028615 0.113405 0.439566 0.028615 0.340983 0.299682 0.028615 0.340983 0.299682 0.028615 0.113405 0.439566 0.028615 -0.113789 0.069942 0.028615 0.113789 -0.069942 0.028615 0.113789 -0.069942 0.028615 -0.113789 0.069942 -0.028615 -0.113789 0.069942 -0.028615 0.113789 -0.069942 0.028615 0.340983 0.299682 0.028615 0.113789 -0.069942 0.028615 0.113405 0.439566 0.028615 -0.113789 0.069942 " />
													<Normal vector="-0.577349 0.189520 -0.794183 -0.577349 -0.794183 -0.189520 -0.577349 -0.189520 0.794183 -0.577349 0.794183 0.189520 -0.577349 0.794183 0.189520 -0.577349 -0.189520 0.794183 0.577349 -0.189520 0.794183 0.577349 0.794183 0.189520 0.577349 0.794183 0.189520 0.577349 -0.189520 0.794183 0.577349 -0.794183 -0.189520 0.577349 0.189520 -0.794183 0.577349 0.189520 -0.794183 0.577349 -0.794183 -0.189520 -0.577349 -0.794183 -0.189520 -0.577349 0.189520 -0.794183 0.577349 0.794183 0.189520 0.577349 0.189520 -0.794183 0.577349 -0.189520 0.794183 0.577349 -0.794183 -0.189520 " />
													<TextureCoordinate point="0.0169 0.3439 0.5402 0.3439 0.5402 0.9710 0.0169 0.9710 0.0169 0.3439 0.5402 0.3439 0.5402 0.9710 0.0169 0.9710 0.0169 0.3439 0.5402 0.3439 0.5402 0.9710 0.0169 0.9710 0.0169 0.3439 0.5402 0.3439 0.5402 0.9710 0.0169 0.9710 0.5402 0.3439 0.5402 0.9710 0.0169 0.3439 0.0169 0.9710 " />
												</IndexedTriangleSet>
											</Shape>
										</Group>
									</Transform>
								</Transform>
							</Transform>
						</Transform>
						<Transform DEF="Cube_012_TRANSFORM"
						           translation="0.000000 0.354048 -0.017223"
						           scale="1.000000 1.000000 1.000000"
						           rotation="0.000000 1.000000 0.000000 0.000000"
						           >
							<Transform DEF="Cube_012_ifs_TRANSFORM"
							           translation="0.000000 0.000000 0.000000"
							           scale="1.000000 1.000000 1.000000"
							           rotation="0.000000 1.000000 0.000000 0.000000"
							           >
								<Group DEF="group_ME_Cube_028">
									<Shape>
										<Appearance>
											<Material USE="MA_Body" />
										</Appearance>
										<IndexedTriangleSet solid="false"
										                    normalPerVertex="true"
										                    index="0 1 2 0 2 3 4 5 6 4 6 7 8 9 10 8 10 11 12 13 14 12 14 15 16 17 18 16 18 19 20 1 14 20 14 21 22 23 24 22 24 19 25 26 27 25 27 28 29 30 31 29 31 32 16 33 34 16 34 35 23 12 15 23 15 24 36 37 38 36 38 39 30 4 7 30 7 31 33 0 3 33 3 34 40 41 42 40 42 43 44 45 8 44 8 26 46 47 33 46 33 16 48 44 26 48 26 25 49 5 1 49 1 20 29 50 17 29 17 16 45 51 9 45 9 8 52 53 1 52 1 0 "
										                    >
											<Coordinate point="-0.054344 0.323956 -0.109952 -0.054344 0.432854 -0.017714 -0.054344 0.870326 -0.534206 -0.054344 0.761427 -0.626444 -0.054344 0.761427 -0.626444 -0.054344 0.870326 -0.534206 0.054344 0.870326 -0.534206 0.054344 0.761427 -0.626444 0.054344 0.323956 -0.109952 0.054344 0.432854 -0.017714 0.054344 0.243302 0.206078 0.054344 0.134403 0.113840 0.054344 0.134403 0.113840 0.054344 0.243302 0.206078 -0.054344 0.243302 0.206078 -0.054344 0.134403 0.113840 -0.054344 -0.053749 -0.429869 0.054344 -0.053749 -0.429869 0.054344 -0.243302 -0.206078 -0.054344 -0.243302 -0.206078 0.054344 0.432854 -0.017714 0.054344 0.243302 0.206078 0.054344 -0.243302 -0.206078 0.054344 -0.141552 -0.119895 -0.054344 -0.141552 -0.119895 0.054344 -0.053749 -0.429869 0.054344 0.048001 -0.343687 0.054344 -0.141552 -0.119895 0.054344 -0.243302 -0.206078 -0.054344 0.383722 -0.946361 -0.054344 0.485472 -0.860179 0.054344 0.485472 -0.860179 0.054344 0.383722 -0.946361 -0.054344 0.048001 -0.343687 -0.054344 0.485472 -0.860179 -0.054344 0.383722 -0.946361 0.054344 0.048001 -0.343687 0.054344 0.323956 -0.109952 0.054344 0.134403 0.113840 0.054344 -0.141552 -0.119895 -0.054344 -0.141552 -0.119895 -0.054344 0.134403 0.113840 -0.054344 0.323956 -0.109952 -0.054344 0.048001 -0.343687 0.054344 0.485472 -0.860179 0.054344 0.761427 -0.626444 -0.054344 -0.243302 -0.206078 -0.054344 -0.141552 -0.119895 0.054344 0.383722 -0.946361 0.054344 0.870326 -0.534206 0.054344 0.383722 -0.946361 0.054344 0.870326 -0.534206 -0.054344 0.134403 0.113840 -0.054344 0.243302 0.206078 " />
											<Normal vector="-1.000000 0.000000 0.000000 -0.707083 0.539567 0.457015 -0.577349 0.813685 -0.067385 -0.707083 0.457015 -0.539567 -0.707083 0.457015 -0.539567 -0.577349 0.813685 -0.067385 0.577349 0.813685 -0.067385 0.707083 0.457015 -0.539567 1.000000 0.000000 0.000000 0.707083 0.539567 0.457015 0.577349 0.067385 0.813685 0.707083 -0.457015 0.539567 0.707083 -0.457015 0.539567 0.577349 0.067385 0.813685 -0.577349 0.067385 0.813685 -0.707083 -0.457015 0.539567 -0.707083 -0.539567 -0.457015 0.707083 -0.539567 -0.457015 0.577349 -0.813685 0.067385 -0.577349 -0.813685 0.067385 0.707083 0.539567 0.457015 0.577349 0.067385 0.813685 0.577349 -0.813685 0.067385 0.707083 -0.457015 0.539567 -0.707083 -0.457015 0.539567 0.707083 -0.539567 -0.457015 1.000000 0.000000 0.000000 0.707083 -0.457015 0.539567 0.577349 -0.813685 0.067385 -0.577349 -0.067385 -0.813685 -0.707083 0.457015 -0.539567 0.707083 0.457015 -0.539567 0.577349 -0.067385 -0.813685 -1.000000 0.000000 0.000000 -0.707083 0.457015 -0.539567 -0.577349 -0.067385 -0.813685 1.000000 0.000000 0.000000 1.000000 0.000000 0.000000 0.707083 -0.457015 0.539567 0.707083 -0.457015 0.539567 -0.707083 -0.457015 0.539567 -0.707083 -0.457015 0.539567 -1.000000 0.000000 0.000000 -1.000000 0.000000 0.000000 0.707083 0.457015 -0.539567 0.707083 0.457015 -0.539567 -0.577349 -0.813685 0.067385 -0.707083 -0.457015 0.539567 0.577349 -0.067385 -0.813685 0.577349 0.813685 -0.067385 0.577349 -0.067385 -0.813685 0.577349 0.813685 -0.067385 -0.707083 -0.457015 0.539567 -0.577349 0.067385 0.813685 " />
											<TextureCoordinate point="0.8799 0.1555 0.9743 0.1555 0.9743 0.2855 0.8799 0.2855 0.8799 0.0254 0.9743 0.0254 0.9743 0.2855 0.8799 0.2855 0.8799 0.1555 0.9743 0.1555 0.9743 0.2855 0.8799 0.2855 0.8799 0.0254 0.9743 0.0254 0.9743 0.2855 0.8799 0.2855 0.5966 0.1555 0.9743 0.1555 0.9743 0.2855 0.5966 0.2855 0.5966 0.1555 0.5966 0.2855 0.5966 0.0254 0.7854 0.0254 0.7854 0.2855 0.5966 0.1555 0.7854 0.1555 0.7854 0.2855 0.5966 0.2855 0.5966 0.0254 0.7854 0.0254 0.7854 0.2855 0.5966 0.2855 0.7854 0.1555 0.7854 0.2855 0.5966 0.2855 0.0517 0.3624 0.4851 0.3624 0.4851 0.9591 0.0517 0.9591 0.2785 0.3439 0.4093 0.3439 0.4093 0.6575 0.2785 0.6575 0.7854 0.0254 0.8799 0.0254 0.5966 0.0254 0.7854 0.0254 0.5966 0.0254 0.5966 0.0254 0.9743 0.0254 0.9743 0.0254 0.8799 0.0254 0.9743 0.0254 " />
										</IndexedTriangleSet>
									</Shape>
								</Group>
							</Transform>
							<Transform DEF="Cube_013_TRANSFORM"
							           translation="0.000000 0.417511 -0.806991"
							           scale="1.000000 1.000000 1.000000"
							           rotation="0.000000 1.000000 0.000000 0.000000"
							           >
								<Transform DEF="Cube_013_ifs_TRANSFORM"
								           translation="0.000000 0.000000 0.000000"
								           scale="1.000000 1.000000 1.000000"
								           rotation="0.000000 1.000000 0.000000 0.000000"
								           >
									<Group DEF="group_ME_Cube_029">
										<Shape>
											<Appearance>
												<Material USE="MA_Body" />
											</Appearance>
											<IndexedTriangleSet solid="false"
											                    normalPerVertex="true"
											                    index="0 1 2 0 2 3 4 5 6 4 6 7 8 9 10 8 10 11 12 13 14 12 14 15 4 16 17 4 17 15 18 5 14 18 14 19 "
											                    >
												<Coordinate point="-0.039597 -0.079657 -0.052833 -0.039597 0.079657 0.052833 -0.039597 0.304694 -0.286457 -0.039597 0.145379 -0.392124 -0.039597 0.145379 -0.392124 -0.039597 0.304694 -0.286457 0.039597 0.304694 -0.286457 0.039597 0.145379 -0.392124 0.039597 0.145379 -0.392124 0.039597 0.304694 -0.286457 0.039597 0.079657 0.052833 0.039597 -0.079657 -0.052833 0.039597 -0.079657 -0.052833 0.039597 0.079657 0.052833 -0.039597 0.079657 0.052833 -0.039597 -0.079657 -0.052833 0.039597 0.145379 -0.392124 0.039597 -0.079657 -0.052833 0.039597 0.304694 -0.286457 0.039597 0.079657 0.052833 " />
												<Normal vector="-0.577349 -0.800256 0.161992 -0.577349 0.161992 0.800256 -0.577349 0.800256 -0.161992 -0.577349 -0.161992 -0.800256 -0.577349 -0.161992 -0.800256 -0.577349 0.800256 -0.161992 0.577349 0.800256 -0.161992 0.577349 -0.161992 -0.800256 0.577349 -0.161992 -0.800256 0.577349 0.800256 -0.161992 0.577349 0.161992 0.800256 0.577349 -0.800256 0.161992 0.577349 -0.800256 0.161992 0.577349 0.161992 0.800256 -0.577349 0.161992 0.800256 -0.577349 -0.800256 0.161992 0.577349 -0.161992 -0.800256 0.577349 -0.800256 0.161992 0.577349 0.800256 -0.161992 0.577349 0.161992 0.800256 " />
												<TextureCoordinate point="0.5932 0.0210 0.9777 0.0210 0.9777 0.2703 0.5932 0.2703 0.5932 0.0210 0.9777 0.0210 0.9777 0.2703 0.5932 0.2703 0.5932 0.0210 0.9777 0.0210 0.9777 0.2703 0.5932 0.2703 0.5932 0.0210 0.9777 0.0210 0.9777 0.2703 0.5932 0.2703 0.9777 0.0210 0.9777 0.2703 0.5932 0.0210 0.5932 0.2703 " />
											</IndexedTriangleSet>
										</Shape>
									</Group>
								</Transform>
							</Transform>
							<Transform DEF="Cube_014_TRANSFORM"
							           translation="0.000000 0.429801 -0.116440"
							           scale="1.000000 1.000000 1.000000"
							           rotation="0.000000 1.000000 0.000000 0.000000"
							           >
								<Transform DEF="Cube_014_ifs_TRANSFORM"
								           translation="0.000000 0.000000 0.000000"
								           scale="1.000000 1.000000 1.000000"
								           rotation="0.000000 1.000000 0.000000 0.000000"
								           >
									<Group DEF="group_ME_Cube_030">
										<Shape>
											<Appearance>
												<Material USE="MA_Body" />
											</Appearance>
											<IndexedTriangleSet solid="false"
											                    normalPerVertex="true"
											                    index="0 1 2 0 2 3 4 5 6 4 6 7 8 9 10 8 10 11 12 13 14 12 14 15 4 16 17 4 17 15 18 5 14 18 14 19 "
											                    >
												<Coordinate point="-0.039533 0.048045 -0.084726 -0.039533 -0.048045 0.084726 -0.039533 0.331066 0.299705 -0.039533 0.427156 0.130254 -0.039533 0.427156 0.130254 -0.039533 0.331066 0.299705 0.039533 0.331066 0.299705 0.039533 0.427156 0.130254 0.039533 0.427156 0.130254 0.039533 0.331066 0.299705 0.039533 -0.048045 0.084726 0.039533 0.048045 -0.084726 0.039533 0.048045 -0.084726 0.039533 -0.048045 0.084726 -0.039533 -0.048045 0.084726 -0.039533 0.048045 -0.084726 0.039533 0.427156 0.130254 0.039533 0.048045 -0.084726 0.039533 0.331066 0.299705 0.039533 -0.048045 0.084726 " />
												<Normal vector="-0.577349 -0.217414 -0.787011 -0.577349 -0.787011 0.217414 -0.577349 0.217414 0.787011 -0.577349 0.787011 -0.217414 -0.577349 0.787011 -0.217414 -0.577349 0.217414 0.787011 0.577349 0.217414 0.787011 0.577349 0.787011 -0.217414 0.577349 0.787011 -0.217414 0.577349 0.217414 0.787011 0.577349 -0.787011 0.217414 0.577349 -0.217414 -0.787011 0.577349 -0.217414 -0.787011 0.577349 -0.787011 0.217414 -0.577349 -0.787011 0.217414 -0.577349 -0.217414 -0.787011 0.577349 0.787011 -0.217414 0.577349 -0.217414 -0.787011 0.577349 0.217414 0.787011 0.577349 -0.787011 0.217414 " />
												<TextureCoordinate point="0.5932 0.0210 0.9777 0.0210 0.9777 0.2703 0.5932 0.2703 0.5932 0.0210 0.9777 0.0210 0.9777 0.2703 0.5932 0.2703 0.5932 0.0210 0.9777 0.0210 0.9777 0.2703 0.5932 0.2703 0.5932 0.0210 0.9777 0.0210 0.9777 0.2703 0.5932 0.2703 0.9777 0.0210 0.9777 0.2703 0.5932 0.0210 0.5932 0.2703 " />
											</IndexedTriangleSet>
										</Shape>
									</Group>
								</Transform>
							</Transform>
						</Transform>
					</Transform>
				</Transform>
			</Transform>
			<Transform DEF="arm1_TRANSFORM"
			           translation="0.769355 -0.896216 0.550443"
			           scale="1.000000 1.000000 1.000000"
			           rotation="0.000000 1.000000 0.000000 0.000000"
			           >
				<Transform DEF="arm1_ifs_TRANSFORM"
				           translation="0.000000 0.000000 0.000000"
				           scale="1.000000 1.000000 1.000000"
				           rotation="0.000000 1.000000 0.000000 0.000000"
				           >
					<Group DEF="group_ME_arm1">
						<Shape>
							<Appearance>
								<Material USE="MA_Body" />
							</Appearance>
							<IndexedTriangleSet solid="false"
							                    normalPerVertex="true"
							                    index="0 1 2 0 2 3 4 5 6 4 6 7 8 9 10 8 10 11 12 13 14 12 14 15 4 16 17 4 17 15 18 5 14 18 14 19 "
							                    >
								<Coordinate point="-0.067238 -0.165090 -0.128167 -0.036116 -0.208252 -0.059406 0.067238 0.165090 0.128167 0.036116 0.208252 0.059406 0.036116 0.208252 0.059406 0.067238 0.165090 0.128167 0.834767 0.136248 -0.237340 0.803644 0.179410 -0.306100 0.803644 0.179410 -0.306100 0.834767 0.136248 -0.237340 0.731413 -0.237094 -0.424913 0.700290 -0.193932 -0.493673 0.700290 -0.193932 -0.493673 0.731413 -0.237094 -0.424913 -0.036116 -0.208252 -0.059406 -0.067238 -0.165090 -0.128167 0.803644 0.179410 -0.306100 0.700290 -0.193932 -0.493673 0.834767 0.136248 -0.237340 0.731413 -0.237094 -0.424913 " />
								<Normal vector="-0.866237 -0.194586 -0.460097 -0.452925 -0.767815 0.453047 -0.175634 0.233741 0.956267 -0.588977 0.806970 0.043092 -0.588977 0.806970 0.043092 -0.175634 0.233741 0.956267 0.866237 0.194586 0.460097 0.452925 0.767815 -0.453047 0.452925 0.767815 -0.453047 0.866237 0.194586 0.460097 0.588977 -0.806970 -0.043092 0.175634 -0.233741 -0.956267 0.175634 -0.233741 -0.956267 0.588977 -0.806970 -0.043092 -0.452925 -0.767815 0.453047 -0.866237 -0.194586 -0.460097 0.452925 0.767815 -0.453047 0.175634 -0.233741 -0.956267 0.866237 0.194586 0.460097 0.588977 -0.806970 -0.043092 " />
								<TextureCoordinate point="0.5902 0.3423 0.9709 0.3423 0.9709 0.6577 0.5902 0.6577 0.5902 0.3423 0.9709 0.3423 0.9709 0.6577 0.5902 0.6577 0.5902 0.3423 0.9709 0.3423 0.9709 0.6577 0.5902 0.6577 0.5902 0.3423 0.9709 0.3423 0.9709 0.6577 0.5902 0.6577 0.9709 0.3423 0.9709 0.6577 0.5902 0.3423 0.5902 0.6577 " />
							</IndexedTriangleSet>
						</Shape>
					</Group>
				</Transform>
			</Transform>
			<Transform DEF="arm2_TRANSFORM"
			           translation="-0.769355 -0.896216 0.550443"
			           scale="1.000000 1.000000 1.000000"
			           rotation="0.000000 1.000000 0.000000 0.000000"
			           >
				<Transform DEF="arm2_ifs_TRANSFORM"
				           translation="0.000000 0.000000 0.000000"
				           scale="1.000000 1.000000 1.000000"
				           rotation="0.000000 1.000000 0.000000 0.000000"
				           >
					<Group DEF="group_ME_arm2">
						<Shape>
							<Appearance>
								<Material USE="MA_Body" />
							</Appearance>
							<IndexedTriangleSet solid="false"
							                    normalPerVertex="true"
							                    index="0 1 2 0 2 3 4 5 6 4 6 7 8 9 10 8 10 11 12 13 14 12 14 15 4 13 16 4 16 17 18 19 14 18 14 7 "
							                    >
								<Coordinate point="0.067238 -0.165090 -0.128167 -0.036116 0.208252 0.059406 -0.067238 0.165090 0.128167 0.036116 -0.208252 -0.059406 -0.036116 0.208252 0.059406 -0.803644 0.179410 -0.306100 -0.834767 0.136248 -0.237340 -0.067238 0.165090 0.128167 -0.803644 0.179410 -0.306100 -0.700290 -0.193932 -0.493673 -0.731413 -0.237094 -0.424913 -0.834767 0.136248 -0.237340 -0.700290 -0.193932 -0.493673 0.067238 -0.165090 -0.128167 0.036116 -0.208252 -0.059406 -0.731413 -0.237094 -0.424913 -0.700290 -0.193932 -0.493673 -0.803644 0.179410 -0.306100 -0.834767 0.136248 -0.237340 -0.731413 -0.237094 -0.424913 " />
								<Normal vector="0.866237 -0.194586 -0.460097 0.588977 0.806970 0.043092 0.175634 0.233741 0.956267 0.452925 -0.767815 0.453047 0.588977 0.806970 0.043092 -0.452925 0.767815 -0.453047 -0.866237 0.194586 0.460097 0.175634 0.233741 0.956267 -0.452925 0.767815 -0.453047 -0.175634 -0.233741 -0.956267 -0.588977 -0.806970 -0.043092 -0.866237 0.194586 0.460097 -0.175634 -0.233741 -0.956267 0.866237 -0.194586 -0.460097 0.452925 -0.767815 0.453047 -0.588977 -0.806970 -0.043092 -0.175634 -0.233741 -0.956267 -0.452925 0.767815 -0.453047 -0.866237 0.194586 0.460097 -0.588977 -0.806970 -0.043092 " />
								<TextureCoordinate point="0.5902 0.3423 0.5902 0.6577 0.9709 0.6577 0.9709 0.3423 0.5902 0.3423 0.5902 0.6577 0.9709 0.6577 0.9709 0.3423 0.5902 0.3423 0.5902 0.6577 0.9709 0.6577 0.9709 0.3423 0.5902 0.3423 0.5902 0.6577 0.9709 0.6577 0.9709 0.3423 0.9709 0.6577 0.9709 0.3423 0.5902 0.3423 0.5902 0.6577 " />
							</IndexedTriangleSet>
						</Shape>
					</Group>
				</Transform>
			</Transform>
		</Transform>
	</Scene>
</X3D>