<?xml version="1.0" encoding="UTF-8"?>
<!DOCTYPE X3D PUBLIC "ISO//Web3D//DTD X3D 3.0//EN" "http://www.web3d.org/specifications/x3d-3.0.dtd">
<X3D version="3.0" profile="Immersive" xmlns:xsd="http://www.w3.org/2001/XMLSchema-instance" xsd:noNamespaceSchemaLocation="http://www.web3d.org/specifications/x3d-3.0.xsd">
	<head>
		<meta name="filename" content="litwick.x3d" />
		<meta name="generator" content="Blender 2.93.18" />
	</head>
	<Scene>
		<NavigationInfo headlight="true"
		                visibilityLimit="0.0"
		                type='"EXAMINE", "ANY"'
		                avatarSize="0.25, 1.75, 0.75"
		                />
		<Background DEF="WO_World"
		            groundColor="0.051 0.051 0.051"
		            skyColor="0.051 0.051 0.051"
		            />
		<Transform DEF="base_TRANSFORM"
		           translation="0.000000 -0.139322 0.307669"
		           scale="1.000000 1.000000 1.000000"
		           rotation="0.000000 0.000000 1.000000 3.141593"
		           >
			<Transform DEF="base_ifs_TRANSFORM"
			           translation="0.000000 0.000000 0.000000"
			           scale="1.000000 1.000000 1.000000"
			           rotation="0.000000 1.000000 0.000000 0.000000"
			           >
				<Group DEF="group_ME_base">
					<Shape>
						<Appearance>
							<Material DEF="MA_Body"
							          diffuseColor="0.800 0.800 0.800"
							          specularColor="0.401 0.401 0.401"
							          emissiveColor="0.000 0.000 0.000"
							          ambientIntensity="0.000"
							          shininess="0.500"
							          transparency="0.0"
							          />
						</Appearance>
						<IndexedTriangleSet solid="false"
						                    normalPerVertex="true"
						                    index="0 1 2 0 2 3 4 5 6 4 6 7 8 9 10 8 10 11 12 13 14 12 14 15 16 17 18 16 18 19 20 5 14 20 14 21 "
						                    >
							<Coordinate point="-0.565839 -1.154362 -0.308040 -0.565839 -1.154362 0.000000 -0.565839 1.154362 0.000000 -0.565839 1.154362 -0.308040 -0.565839 1.154362 -0.308040 -0.565839 1.154362 0.000000 0.565839 1.154362 0.000000 0.565839 1.154362 -0.308040 0.565839 1.154362 -0.308040 0.565839 1.154362 0.000000 0.565839 -1.154362 0.000000 0.565839 -1.154362 -0.308040 0.565839 -1.154362 -0.308040 0.565839 -1.154362 0.000000 -0.565839 -1.154362 0.000000 -0.565839 -1.154362 -0.308040 -0.565839 1.154362 -0.308040 0.565839 1.154362 -0.308040 0.565839 -1.154362 -0.308040 -0.565839 -1.154362 -0.308040 0.565839 1.154362 0.000000 0.565839 -1.154362 0.000000 " />
							<Normal vector="-0.577349 -0.577349 -0.577349 -0.577349 -0.577349 0.577349 -0.577349 0.577349 0.577349 -0.577349 0.577349 -0.577349 -0.577349 0.577349 -0.577349 -0.577349 0.577349 0.577349 0.577349 0.577349 0.577349 0.577349 0.577349 -0.577349 0.577349 0.577349 -0.577349 0.577349 0.577349 0.577349 0.577349 -0.577349 0.577349 0.577349 -0.577349 -0.577349 0.577349 -0.577349 -0.577349 0.577349 -0.577349 0.577349 -0.577349 -0.577349 0.577349 -0.577349 -0.577349 -0.577349 -0.577349 0.577349 -0.577349 0.577349 0.577349 -0.577349 0.577349 -0.577349 -0.577349 -0.577349 -0.577349 -0.577349 0.577349 0.577349 0.577349 0.577349 -0.577349 0.577349 " />
							<TextureCoordinate point="0.0548 0.5356 0.9649 0.5356 0.9649 0.9664 0.0548 0.9664 0.0548 0.5356 0.9649 0.5356 0.9649 0.9664 0.0548 0.9664 0.0548 0.5356 0.9649 0.5356 0.9649 0.9664 0.0548 0.9664 0.0548 0.5356 0.9649 0.5356 0.9649 0.9664 0.0548 0.9664 0.0315 0.0336 0.4665 0.0336 0.4665 0.4644 0.0315 0.4644 0.0548 0.5356 0.0548 0.9664 " />
						</IndexedTriangleSet>
					</Shape>
				</Group>
			</Transform>
			<Transform DEF="body_TRANSFORM"
			           translation="0.000000 -0.139322 -0.023220"
			           scale="1.000000 1.000000 1.000000"
			           rotation="0.000000 1.000000 0.000000 0.000000"
			           >
				<Transform DEF="body_ifs_TRANSFORM"
				           translation="0.000000 0.000000 0.000000"
				           scale="1.000000 1.000000 1.000000"
				           rotation="0.000000 1.000000 0.000000 0.000000"
				           >
					<Group DEF="group_ME_body">
						<Shape>
							<Appearance>
								<Material USE="MA_Body" />
							</Appearance>
							<IndexedTriangleSet solid="false"
							                    normalPerVertex="true"
							                    index="0 1 2 0 2 3 4 5 6 4 6 7 8 9 10 8 10 11 12 13 14 12 14 15 4 16 17 4 17 15 18 5 14 18 14 19 "
							                    >
								<Coordinate point="-0.813459 -0.852480 0.000000 -0.813459 -0.852480 0.434020 -0.813459 0.852480 0.434020 -0.813459 0.852480 0.000000 -0.813459 0.852480 0.000000 -0.813459 0.852480 0.434020 0.813459 0.852480 0.434020 0.813459 0.852480 0.000000 0.813459 0.852480 0.000000 0.813459 0.852480 0.434020 0.813459 -0.852480 0.434020 0.813459 -0.852480 0.000000 0.813459 -0.852480 0.000000 0.813459 -0.852480 0.434020 -0.813459 -0.852480 0.434020 -0.813459 -0.852480 0.000000 0.813459 0.852480 0.000000 0.813459 -0.852480 0.000000 0.813459 0.852480 0.434020 0.813459 -0.852480 0.434020 " />
								<Normal vector="-0.577349 -0.577349 -0.577349 -0.577349 -0.577349 0.577349 -0.577349 0.577349 0.577349 -0.577349 0.577349 -0.577349 -0.577349 0.577349 -0.577349 -0.577349 0.577349 0.577349 0.577349 0.577349 0.577349 0.577349 0.577349 -0.577349 0.577349 0.577349 -0.577349 0.577349 0.577349 0.577349 0.577349 -0.577349 0.577349 0.577349 -0.577349 -0.577349 0.577349 -0.577349 -0.577349 0.577349 -0.577349 0.577349 -0.577349 -0.577349 0.577349 -0.577349 -0.577349 -0.577349 0.577349 0.577349 -0.577349 0.577349 -0.577349 -0.577349 0.577349 0.577349 0.577349 0.577349 -0.577349 0.577349 " />
								<TextureCoordinate point="0.0548 0.5356 0.9649 0.5356 0.9649 0.9664 0.0548 0.9664 0.0548 0.5356 0.9649 0.5356 0.9649 0.9664 0.0548 0.9664 0.0548 0.5356 0.9649 0.5356 0.9649 0.9664 0.0548 0.9664 0.0548 0.5356 0.9649 0.5356 0.9649 0.9664 0.0548 0.9664 0.9649 0.5356 0.9649 0.9664 0.0548 0.5356 0.0548 0.9664 " />
							</IndexedTriangleSet>
						</Shape>
					</Group>
				</Transform>
				<Transform DEF="body1_TRANSFORM"
				           translation="0.000000 0.000000 0.342500"
				           scale="1.000000 1.000000 1.000000"
				           rotation="0.000000 1.000000 0.000000 0.000000"
				           >
					<Transform DEF="body1_ifs_TRANSFORM"
					           translation="0.000000 0.000000 0.000000"
					           scale="1.000000 1.000000 1.000000"
					           rotation="0.000000 1.000000 0.000000 0.000000"
					           >
						<Group DEF="group_ME_body1">
							<Shape>
								<Appearance>
									<Material USE="MA_Body" />
								</Appearance>
								<IndexedTriangleSet solid="false"
								                    normalPerVertex="true"
								                    index="0 1 2 0 2 3 4 5 6 4 6 7 8 9 10 8 10 11 12 13 14 12 14 15 16 17 18 16 18 19 20 21 14 20 14 22 23 5 24 23 24 25 26 27 28 26 28 29 30 31 32 30 32 33 34 35 36 34 36 37 38 39 24 38 24 40 41 42 28 41 28 43 44 21 45 44 45 46 47 27 48 47 48 49 34 50 51 34 51 52 30 53 54 30 54 55 56 57 58 56 58 19 59 60 61 59 61 33 62 63 64 62 64 65 16 66 67 16 67 68 69 70 71 69 71 72 "
								                    >
									<Coordinate point="-1.004201 -0.992991 0.212911 -1.004201 -0.992991 1.242227 -1.004201 0.992991 1.242227 -1.004201 0.992991 0.212911 0.205690 0.992991 0.212911 0.205690 0.992991 1.242227 1.004201 0.992991 1.242227 1.004201 0.992991 0.212911 1.004201 0.992991 0.212911 1.004201 0.992991 1.242227 1.004201 -0.992991 1.242227 1.004201 -0.992991 0.212911 -0.205690 -0.992991 0.212911 -0.205690 -0.992991 1.242227 -1.004201 -0.992991 1.242227 -1.004201 -0.992991 0.212911 0.205690 0.992991 0.000000 1.004201 0.992991 0.000000 1.004201 -0.992991 0.000000 0.205690 -0.992991 0.000000 -0.205690 0.992991 1.242227 -1.004201 0.992991 1.242227 -0.205690 -0.992991 1.242227 1.004201 0.992991 1.242227 0.205690 -0.992991 1.242227 1.004201 -0.992991 1.242227 0.205690 0.992991 1.242227 -0.205690 0.992991 1.242227 -0.205690 -0.992991 1.242227 0.205690 -0.992991 1.242227 -1.004201 0.992991 0.000000 -0.205690 0.992991 0.000000 -0.205690 -0.992991 0.000000 -1.004201 -0.992991 0.000000 -0.205690 0.992991 0.000000 0.205690 0.992991 0.000000 0.205690 -0.992991 0.000000 -0.205690 -0.992991 0.000000 1.004201 -0.992991 0.212911 1.004201 -0.992991 1.242227 0.205690 -0.992991 0.212911 0.205690 -0.992991 0.212911 0.205690 -0.992991 1.242227 -0.205690 -0.992991 0.212911 -1.004201 0.992991 0.212911 -0.205690 0.992991 1.242227 -0.205690 0.992991 0.212911 -0.205690 0.992991 0.212911 0.205690 0.992991 1.242227 0.205690 0.992991 0.212911 -0.205690 0.992991 0.212911 0.205690 0.992991 0.212911 0.205690 0.992991 0.000000 -1.004201 0.992991 0.212911 -0.205690 0.992991 0.212911 -0.205690 0.992991 0.000000 1.004201 -0.992991 0.000000 1.004201 -0.992991 0.212911 0.205690 -0.992991 0.212911 -0.205690 -0.992991 0.000000 -0.205690 -0.992991 0.212911 -1.004201 -0.992991 0.212911 1.004201 0.992991 0.000000 1.004201 0.992991 0.212911 1.004201 -0.992991 0.212911 1.004201 -0.992991 0.000000 0.205690 0.992991 0.212911 1.004201 0.992991 0.212911 1.004201 0.992991 0.000000 -1.004201 -0.992991 0.000000 -1.004201 -0.992991 0.212911 -1.004201 0.992991 0.212911 -1.004201 0.992991 0.000000 " />
									<Normal vector="-0.707083 -0.707083 0.000000 -0.577349 -0.577349 0.577349 -0.577349 0.577349 0.577349 -0.707083 0.707083 0.000000 0.000000 1.000000 0.000000 0.000000 0.707083 0.707083 0.577349 0.577349 0.577349 0.707083 0.707083 0.000000 0.707083 0.707083 0.000000 0.577349 0.577349 0.577349 0.577349 -0.577349 0.577349 0.707083 -0.707083 0.000000 0.000000 -1.000000 0.000000 0.000000 -0.707083 0.707083 -0.577349 -0.577349 0.577349 -0.707083 -0.707083 0.000000 0.000000 0.707083 -0.707083 0.577349 0.577349 -0.577349 0.577349 -0.577349 -0.577349 0.000000 -0.707083 -0.707083 0.000000 0.707083 0.707083 -0.577349 0.577349 0.577349 0.000000 -0.707083 0.707083 0.577349 0.577349 0.577349 0.000000 -0.707083 0.707083 0.577349 -0.577349 0.577349 0.000000 0.707083 0.707083 0.000000 0.707083 0.707083 0.000000 -0.707083 0.707083 0.000000 -0.707083 0.707083 -0.577349 0.577349 -0.577349 0.000000 0.707083 -0.707083 0.000000 -0.707083 -0.707083 -0.577349 -0.577349 -0.577349 0.000000 0.707083 -0.707083 0.000000 0.707083 -0.707083 0.000000 -0.707083 -0.707083 0.000000 -0.707083 -0.707083 0.707083 -0.707083 0.000000 0.577349 -0.577349 0.577349 0.000000 -1.000000 0.000000 0.000000 -1.000000 0.000000 0.000000 -0.707083 0.707083 0.000000 -1.000000 0.000000 -0.707083 0.707083 0.000000 0.000000 0.707083 0.707083 0.000000 1.000000 0.000000 0.000000 1.000000 0.000000 0.000000 0.707083 0.707083 0.000000 1.000000 0.000000 0.000000 1.000000 0.000000 0.000000 1.000000 0.000000 0.000000 0.707083 -0.707083 -0.707083 0.707083 0.000000 0.000000 1.000000 0.000000 0.000000 0.707083 -0.707083 0.577349 -0.577349 -0.577349 0.707083 -0.707083 0.000000 0.000000 -1.000000 0.000000 0.000000 -0.707083 -0.707083 0.000000 -1.000000 0.000000 -0.707083 -0.707083 0.000000 0.577349 0.577349 -0.577349 0.707083 0.707083 0.000000 0.707083 -0.707083 0.000000 0.577349 -0.577349 -0.577349 0.000000 1.000000 0.000000 0.707083 0.707083 0.000000 0.577349 0.577349 -0.577349 -0.577349 -0.577349 -0.577349 -0.707083 -0.707083 0.000000 -0.707083 0.707083 0.000000 -0.577349 0.577349 -0.577349 " />
									<TextureCoordinate point="0.0548 0.5356 0.9649 0.5356 0.9649 0.9664 0.0548 0.9664 0.0548 0.5356 0.9649 0.5356 0.9649 0.9664 0.0548 0.9664 0.0548 0.5356 0.9649 0.5356 0.9649 0.9664 0.0548 0.9664 0.0548 0.5356 0.9649 0.5356 0.9649 0.9664 0.0548 0.9664 0.0548 0.5356 0.9649 0.5356 0.9649 0.9664 0.0548 0.9664 0.0548 0.5356 0.9649 0.5356 0.0548 0.9664 0.0548 0.5356 0.9649 0.9664 0.0548 0.9664 0.0548 0.5356 0.9649 0.5356 0.9649 0.9664 0.0548 0.9664 0.0548 0.5356 0.9649 0.5356 0.9649 0.9664 0.0548 0.9664 0.0548 0.5356 0.9649 0.5356 0.9649 0.9664 0.0548 0.9664 0.0548 0.5356 0.9649 0.5356 0.0548 0.9664 0.0548 0.5356 0.9649 0.5356 0.0548 0.9664 0.0548 0.5356 0.9649 0.9664 0.0548 0.9664 0.0548 0.5356 0.9649 0.9664 0.0548 0.9664 0.9649 0.5356 0.9649 0.9664 0.0548 0.9664 0.9649 0.5356 0.9649 0.9664 0.0548 0.9664 0.0548 0.5356 0.9649 0.5356 0.9649 0.9664 0.0548 0.5356 0.9649 0.5356 0.9649 0.9664 0.0548 0.5356 0.9649 0.5356 0.9649 0.9664 0.0548 0.9664 0.9649 0.5356 0.9649 0.9664 0.0548 0.9664 0.0548 0.5356 0.9649 0.5356 0.9649 0.9664 0.0548 0.9664 " />
								</IndexedTriangleSet>
							</Shape>
							<Shape>
								<Appearance>
									<Material DEF="MA_Mouth"
									          diffuseColor="0.800 0.800 0.800"
									          specularColor="0.401 0.401 0.401"
									          emissiveColor="0.000 0.000 0.000"
									          ambientIntensity="0.000"
									          shininess="0.500"
									          transparency="0.0"
									          />
								</Appearance>
								<IndexedTriangleSet solid="false"
								                    normalPerVertex="true"
								                    index="0 1 2 0 2 3 "
								                    >
									<Coordinate point="0.205690 -0.992991 0.000000 0.205690 -0.992991 0.212911 -0.205690 -0.992991 0.212911 -0.205690 -0.992991 0.000000 " />
									<Normal vector="0.000000 -0.707083 -0.707083 0.000000 -1.000000 0.000000 0.000000 -1.000000 0.000000 0.000000 -0.707083 -0.707083 " />
									<TextureCoordinate point="0.9803 0.5168 0.9803 0.9696 0.5237 0.9696 0.5237 0.5168 " />
								</IndexedTriangleSet>
							</Shape>
						</Group>
					</Transform>
					<Transform DEF="Cube_002_TRANSFORM"
					           translation="0.000000 0.000000 1.213773"
					           scale="1.000000 1.000000 1.000000"
					           rotation="0.000000 1.000000 0.000000 0.000000"
					           >
						<Transform DEF="Cube_002_ifs_TRANSFORM"
						           translation="0.000000 0.000000 0.000000"
						           scale="1.000000 1.000000 1.000000"
						           rotation="0.000000 1.000000 0.000000 0.000000"
						           >
							<Group DEF="group_ME_Cube_008">
								<Shape>
									<Appearance>
										<Material USE="MA_Body" />
									</Appearance>
									<IndexedTriangleSet solid="false"
									                    normalPerVertex="true"
									                    index="0 1 2 0 2 3 4 5 6 4 6 7 8 9 10 8 10 11 12 13 14 12 14 15 16 17 18 16 18 19 20 5 14 20 14 21 "
									                    >
										<Coordinate point="-1.051789 -1.110123 0.000000 -1.051789 -1.110123 0.623553 -1.051789 1.110123 0.623553 -1.051789 1.110123 0.000000 -1.051789 1.110123 0.000000 -1.051789 1.110123 0.623553 1.051789 1.110123 0.623553 1.051789 1.110123 0.000000 1.051789 1.110123 0.000000 1.051789 1.110123 0.623553 1.051789 -1.110123 0.623553 1.051789 -1.110123 0.000000 1.051789 -1.110123 0.000000 1.051789 -1.110123 0.623553 -1.051789 -1.110123 0.623553 -1.051789 -1.110123 0.000000 -1.051789 1.110123 0.000000 1.051789 1.110123 0.000000 1.051789 -1.110123 0.000000 -1.051789 -1.110123 0.000000 1.051789 1.110123 0.623553 1.051789 -1.110123 0.623553 " />
										<Normal vector="-0.577349 -0.577349 -0.577349 -0.577349 -0.577349 0.577349 -0.577349 0.577349 0.577349 -0.577349 0.577349 -0.577349 -0.577349 0.577349 -0.577349 -0.577349 0.577349 0.577349 0.577349 0.577349 0.577349 0.577349 0.577349 -0.577349 0.577349 0.577349 -0.577349 0.577349 0.577349 0.577349 0.577349 -0.577349 0.577349 0.577349 -0.577349 -0.577349 0.577349 -0.577349 -0.577349 0.577349 -0.577349 0.577349 -0.577349 -0.577349 0.577349 -0.577349 -0.577349 -0.577349 -0.577349 0.577349 -0.577349 0.577349 0.577349 -0.577349 0.577349 -0.577349 -0.577349 -0.577349 -0.577349 -0.577349 0.577349 0.577349 0.577349 0.577349 -0.577349 0.577349 " />
										<TextureCoordinate point="0.0548 0.5356 0.9649 0.5356 0.9649 0.9664 0.0548 0.9664 0.0548 0.5356 0.9649 0.5356 0.9649 0.9664 0.0548 0.9664 0.0548 0.5356 0.9649 0.5356 0.9649 0.9664 0.0548 0.9664 0.0548 0.5356 0.9649 0.5356 0.9649 0.9664 0.0548 0.9664 0.0315 0.0336 0.4665 0.0336 0.4665 0.4644 0.0315 0.4644 0.0548 0.5356 0.0548 0.9664 " />
									</IndexedTriangleSet>
								</Shape>
							</Group>
						</Transform>
					</Transform>
					<Transform DEF="Cube_003_TRANSFORM"
					           translation="0.000000 0.000000 1.779652"
					           scale="1.000000 1.000000 1.000000"
					           rotation="0.000000 1.000000 0.000000 0.000000"
					           >
						<Transform DEF="Cube_003_ifs_TRANSFORM"
						           translation="0.000000 0.000000 0.000000"
						           scale="1.000000 1.000000 1.000000"
						           rotation="0.000000 1.000000 0.000000 0.000000"
						           >
							<Group DEF="group_ME_Cube_009">
								<Shape>
									<Appearance>
										<Material USE="MA_Body" />
									</Appearance>
									<IndexedTriangleSet solid="false"
									                    normalPerVertex="true"
									                    index="0 1 2 0 2 3 4 5 6 4 6 7 8 9 10 8 10 11 12 13 14 12 14 15 4 16 17 4 17 15 18 5 14 18 14 19 "
									                    >
										<Coordinate point="-0.703831 -0.677395 0.000000 -0.703831 -0.677395 0.208096 -0.703831 0.677395 0.208096 -0.703831 0.677395 0.000000 -0.703831 0.677395 0.000000 -0.703831 0.677395 0.208096 0.703831 0.677395 0.208096 0.703831 0.677395 0.000000 0.703831 0.677395 0.000000 0.703831 0.677395 0.208096 0.703831 -0.677395 0.208096 0.703831 -0.677395 0.000000 0.703831 -0.677395 0.000000 0.703831 -0.677395 0.208096 -0.703831 -0.677395 0.208096 -0.703831 -0.677395 0.000000 0.703831 0.677395 0.000000 0.703831 -0.677395 0.000000 0.703831 0.677395 0.208096 0.703831 -0.677395 0.208096 " />
										<Normal vector="-0.577349 -0.577349 -0.577349 -0.577349 -0.577349 0.577349 -0.577349 0.577349 0.577349 -0.577349 0.577349 -0.577349 -0.577349 0.577349 -0.577349 -0.577349 0.577349 0.577349 0.577349 0.577349 0.577349 0.577349 0.577349 -0.577349 0.577349 0.577349 -0.577349 0.577349 0.577349 0.577349 0.577349 -0.577349 0.577349 0.577349 -0.577349 -0.577349 0.577349 -0.577349 -0.577349 0.577349 -0.577349 0.577349 -0.577349 -0.577349 0.577349 -0.577349 -0.577349 -0.577349 0.577349 0.577349 -0.577349 0.577349 -0.577349 -0.577349 0.577349 0.577349 0.577349 0.577349 -0.577349 0.577349 " />
										<TextureCoordinate point="0.5311 0.0336 0.9807 0.0336 0.9807 0.4644 0.5311 0.4644 0.5311 0.0336 0.9807 0.0336 0.9807 0.4644 0.5311 0.4644 0.5311 0.0336 0.9807 0.0336 0.9807 0.4644 0.5311 0.4644 0.5311 0.0336 0.9807 0.0336 0.9807 0.4644 0.5311 0.4644 0.9807 0.0336 0.9807 0.4644 0.5311 0.0336 0.5311 0.4644 " />
									</IndexedTriangleSet>
								</Shape>
							</Group>
						</Transform>
					</Transform>
					<Transform DEF="Cube_004_TRANSFORM"
					           translation="0.299346 -1.093399 1.651264"
					           scale="1.000000 1.000000 1.000000"
					           rotation="0.000000 1.000000 0.000000 0.000000"
					           >
						<Transform DEF="Cube_004_ifs_TRANSFORM"
						           translation="0.000000 0.000000 0.000000"
						           scale="1.000000 1.000000 1.000000"
						           rotation="0.000000 1.000000 0.000000 0.000000"
						           >
							<Group DEF="group_ME_Cube_010">
								<Shape>
									<Appearance>
										<Material USE="MA_Body" />
									</Appearance>
									<IndexedTriangleSet solid="false"
									                    normalPerVertex="true"
									                    index="0 1 2 0 2 3 4 5 6 4 6 7 8 9 10 8 10 11 12 13 14 12 14 15 16 17 18 16 18 19 20 5 14 20 14 21 "
									                    >
										<Coordinate point="-0.727006 -0.208366 -1.122534 -0.422392 -0.208366 0.104831 -0.422392 0.208366 0.104831 -0.727006 0.208366 -1.122534 -0.727006 0.208366 -1.122534 -0.422392 0.208366 0.104831 0.422392 0.208366 -0.104831 0.117778 0.208366 -1.332197 0.117778 0.208366 -1.332197 0.422392 0.208366 -0.104831 0.422392 -0.208366 -0.104831 0.117778 -0.208366 -1.332197 0.117778 -0.208366 -1.332197 0.422392 -0.208366 -0.104831 -0.422392 -0.208366 0.104831 -0.727006 -0.208366 -1.122534 -0.727006 0.208366 -1.122534 0.117778 0.208366 -1.332197 0.117778 -0.208366 -1.332197 -0.727006 -0.208366 -1.122534 0.422392 0.208366 -0.104831 0.422392 -0.208366 -0.104831 " />
										<Normal vector="-0.699393 -0.577349 -0.421277 -0.421277 -0.577349 0.699393 -0.421277 0.577349 0.699393 -0.699393 0.577349 -0.421277 -0.699393 0.577349 -0.421277 -0.421277 0.577349 0.699393 0.699393 0.577349 0.421277 0.421277 0.577349 -0.699393 0.421277 0.577349 -0.699393 0.699393 0.577349 0.421277 0.699393 -0.577349 0.421277 0.421277 -0.577349 -0.699393 0.421277 -0.577349 -0.699393 0.699393 -0.577349 0.421277 -0.421277 -0.577349 0.699393 -0.699393 -0.577349 -0.421277 -0.699393 0.577349 -0.421277 0.421277 0.577349 -0.699393 0.421277 -0.577349 -0.699393 -0.699393 -0.577349 -0.421277 0.699393 0.577349 0.421277 0.699393 -0.577349 0.421277 " />
										<TextureCoordinate point="0.0548 0.5356 0.9649 0.5356 0.9649 0.9664 0.0548 0.9664 0.0548 0.5356 0.9649 0.5356 0.9649 0.9664 0.0548 0.9664 0.0548 0.5356 0.9649 0.5356 0.9649 0.9664 0.0548 0.9664 0.0548 0.5356 0.9649 0.5356 0.9649 0.9664 0.0548 0.9664 0.0315 0.0336 0.4665 0.0336 0.4665 0.4644 0.0315 0.4644 0.0548 0.5356 0.0548 0.9664 " />
									</IndexedTriangleSet>
								</Shape>
							</Group>
						</Transform>
					</Transform>
					<Transform DEF="Cube_005_TRANSFORM"
					           translation="-0.563799 0.000000 1.650048"
					           scale="1.000000 1.000000 1.000000"
					           rotation="0.000000 1.000000 0.000000 0.000000"
					           >
						<Transform DEF="Cube_005_ifs_TRANSFORM"
						           translation="0.000000 0.000000 0.000000"
						           scale="1.000000 1.000000 1.000000"
						           rotation="0.000000 1.000000 0.000000 0.000000"
						           >
							<Group DEF="group_ME_Cube_013">
								<Shape>
									<Appearance>
										<Material USE="MA_Body" />
									</Appearance>
									<IndexedTriangleSet solid="false"
									                    normalPerVertex="true"
									                    index="0 1 2 0 2 3 4 5 6 4 6 7 8 9 10 8 10 11 12 13 14 12 14 15 16 17 18 16 18 19 20 5 14 20 14 21 "
									                    >
										<Coordinate point="-1.026344 -1.253399 -1.254494 -0.595977 -1.253399 0.178934 -0.595977 1.253399 0.178934 -1.026344 1.253399 -1.254494 -1.026344 1.253399 -1.254494 -0.595977 1.253399 0.178934 0.595977 1.253399 -0.178934 0.165610 1.253399 -1.612362 0.165610 1.253399 -1.612362 0.595977 1.253399 -0.178934 0.595977 -1.253399 -0.178934 0.165610 -1.253399 -1.612362 0.165610 -1.253399 -1.612362 0.595977 -1.253399 -0.178934 -0.595977 -1.253399 0.178934 -1.026344 -1.253399 -1.254494 -1.026344 1.253399 -1.254494 0.165610 1.253399 -1.612362 0.165610 -1.253399 -1.612362 -1.026344 -1.253399 -1.254494 0.595977 1.253399 -0.178934 0.595977 -1.253399 -0.178934 " />
										<Normal vector="-0.718955 -0.577349 -0.386944 -0.386944 -0.577349 0.718955 -0.386944 0.577349 0.718955 -0.718986 0.577349 -0.386944 -0.718986 0.577349 -0.386944 -0.386944 0.577349 0.718955 0.718955 0.577349 0.386944 0.386944 0.577349 -0.718955 0.386944 0.577349 -0.718955 0.718955 0.577349 0.386944 0.718955 -0.577349 0.386944 0.386944 -0.577349 -0.718955 0.386944 -0.577349 -0.718955 0.718955 -0.577349 0.386944 -0.386944 -0.577349 0.718955 -0.718955 -0.577349 -0.386944 -0.718986 0.577349 -0.386944 0.386944 0.577349 -0.718955 0.386944 -0.577349 -0.718955 -0.718955 -0.577349 -0.386944 0.718955 0.577349 0.386944 0.718955 -0.577349 0.386944 " />
										<TextureCoordinate point="0.0548 0.5356 0.9649 0.5356 0.9649 0.9664 0.0548 0.9664 0.0548 0.5356 0.9649 0.5356 0.9649 0.9664 0.0548 0.9664 0.0548 0.5356 0.9649 0.5356 0.9649 0.9664 0.0548 0.9664 0.0548 0.5356 0.9649 0.5356 0.9649 0.9664 0.0548 0.9664 0.0315 0.0336 0.4665 0.0336 0.4665 0.4644 0.0315 0.4644 0.0548 0.5356 0.0548 0.9664 " />
									</IndexedTriangleSet>
								</Shape>
							</Group>
						</Transform>
					</Transform>
					<Transform DEF="Cube_006_TRANSFORM"
					           translation="0.299346 1.021509 1.651264"
					           scale="1.000000 1.000000 1.000000"
					           rotation="0.000000 1.000000 0.000000 0.000000"
					           >
						<Transform DEF="Cube_006_ifs_TRANSFORM"
						           translation="0.000000 0.000000 0.000000"
						           scale="1.000000 1.000000 1.000000"
						           rotation="0.000000 1.000000 0.000000 0.000000"
						           >
							<Group DEF="group_ME_Cube_014">
								<Shape>
									<Appearance>
										<Material USE="MA_Body" />
									</Appearance>
									<IndexedTriangleSet solid="false"
									                    normalPerVertex="true"
									                    index="0 1 2 0 2 3 4 5 6 4 6 7 8 9 10 8 10 11 12 13 14 12 14 15 4 16 17 4 17 15 18 5 14 18 14 19 "
									                    >
										<Coordinate point="-0.366137 -0.208366 -1.208441 -0.515983 -0.208366 -0.067784 -0.515983 0.208366 -0.067784 -0.366137 0.208366 -1.208441 -0.366137 0.208366 -1.208441 -0.515983 0.208366 -0.067784 0.515983 0.208366 0.067784 0.665829 0.208366 -1.072873 0.665829 0.208366 -1.072873 0.515983 0.208366 0.067784 0.515983 -0.208366 0.067784 0.665829 -0.208366 -1.072873 0.665829 -0.208366 -1.072873 0.515983 -0.208366 0.067784 -0.515983 -0.208366 -0.067784 -0.366137 -0.208366 -1.208441 0.665829 0.208366 -1.072873 0.665829 -0.208366 -1.072873 0.515983 0.208366 0.067784 0.515983 -0.208366 0.067784 " />
										<Normal vector="-0.497208 -0.577349 -0.647603 -0.647603 -0.577349 0.497208 -0.647603 0.577349 0.497208 -0.497208 0.577349 -0.647603 -0.497208 0.577349 -0.647603 -0.647603 0.577349 0.497208 0.497208 0.577349 0.647603 0.647603 0.577349 -0.497208 0.647603 0.577349 -0.497208 0.497208 0.577349 0.647603 0.497208 -0.577349 0.647603 0.647603 -0.577349 -0.497208 0.647603 -0.577349 -0.497208 0.497208 -0.577349 0.647603 -0.647603 -0.577349 0.497208 -0.497208 -0.577349 -0.647603 0.647603 0.577349 -0.497208 0.647603 -0.577349 -0.497208 0.497208 0.577349 0.647603 0.497208 -0.577349 0.647603 " />
										<TextureCoordinate point="0.0548 0.5356 0.9649 0.5356 0.9649 0.9664 0.0548 0.9664 0.0548 0.5356 0.9649 0.5356 0.9649 0.9664 0.0548 0.9664 0.0548 0.5356 0.9649 0.5356 0.9649 0.9664 0.0548 0.9664 0.0548 0.5356 0.9649 0.5356 0.9649 0.9664 0.0548 0.9664 0.9649 0.5356 0.9649 0.9664 0.0548 0.5356 0.0548 0.9664 " />
									</IndexedTriangleSet>
								</Shape>
							</Group>
						</Transform>
					</Transform>
					<Transform DEF="Cube_007_TRANSFORM"
					           translation="0.952962 0.020062 1.800598"
					           scale="1.000000 1.000000 1.000000"
					           rotation="0.000000 1.000000 0.000000 0.000000"
					           >
						<Transform DEF="Cube_007_ifs_TRANSFORM"
						           translation="0.000000 0.000000 0.000000"
						           scale="1.000000 1.000000 1.000000"
						           rotation="0.000000 1.000000 0.000000 0.000000"
						           >
							<Group DEF="group_ME_Cube_015">
								<Shape>
									<Appearance>
										<Material USE="MA_Body" />
									</Appearance>
									<IndexedTriangleSet solid="false"
									                    normalPerVertex="true"
									                    index="0 1 2 0 2 3 4 5 6 4 6 7 8 9 10 8 10 11 12 13 14 12 14 15 16 17 18 16 18 19 20 5 14 20 14 21 "
									                    >
										<Coordinate point="-0.192989 -0.719097 -1.370299 -0.293069 -0.802359 -0.074172 -0.300982 0.802359 0.028302 -0.200902 0.885621 -1.267824 -0.200902 0.885621 -1.267824 -0.300982 0.802359 0.028302 0.293069 0.802359 0.074172 0.393149 0.885621 -1.221955 0.393149 0.885621 -1.221955 0.293069 0.802359 0.074172 0.300982 -0.802359 -0.028302 0.401061 -0.719097 -1.324429 0.401061 -0.719097 -1.324429 0.300982 -0.802359 -0.028302 -0.293069 -0.802359 -0.074172 -0.192989 -0.719097 -1.370299 -0.200902 0.885621 -1.267824 0.393149 0.885621 -1.221955 0.401061 -0.719097 -1.324429 -0.192989 -0.719097 -1.370299 0.293069 0.802359 0.074172 0.300982 -0.802359 -0.028302 " />
										<Normal vector="-0.528428 -0.539262 -0.655690 -0.617145 -0.613056 0.493210 -0.622822 0.539262 0.566790 -0.534104 0.613056 -0.582110 -0.534104 0.613056 -0.582110 -0.622822 0.539262 0.566790 0.528428 0.539262 0.655690 0.617145 0.613056 -0.493210 0.617145 0.613056 -0.493210 0.528428 0.539262 0.655690 0.534104 -0.613056 0.582110 0.622822 -0.539262 -0.566790 0.622822 -0.539262 -0.566790 0.534104 -0.613056 0.582110 -0.617145 -0.613056 0.493210 -0.528428 -0.539262 -0.655690 -0.534104 0.613056 -0.582110 0.617145 0.613056 -0.493210 0.622822 -0.539262 -0.566790 -0.528428 -0.539262 -0.655690 0.528428 0.539262 0.655690 0.534104 -0.613056 0.582110 " />
										<TextureCoordinate point="0.0548 0.5356 0.9649 0.5356 0.9649 0.9664 0.0548 0.9664 0.0548 0.5356 0.9649 0.5356 0.9649 0.9664 0.0548 0.9664 0.0548 0.5356 0.9649 0.5356 0.9649 0.9664 0.0548 0.9664 0.0548 0.5356 0.9649 0.5356 0.9649 0.9664 0.0548 0.9664 0.0315 0.0336 0.4665 0.0336 0.4665 0.4644 0.0315 0.4644 0.0548 0.5356 0.0548 0.9664 " />
									</IndexedTriangleSet>
								</Shape>
							</Group>
						</Transform>
					</Transform>
					<Transform DEF="arm1_TRANSFORM"
					           translation="0.822425 0.000000 0.221312"
					           scale="1.000000 1.000000 1.000000"
					           rotation="0.000000 1.000000 0.000000 0.000000"
					           >
						<Transform DEF="arm1_ifs_TRANSFORM"
						           translation="0.000000 0.000000 0.000000"
						           scale="1.000000 1.000000 1.000000"
						           rotation="0.000000 1.000000 0.000000 0.000000"
						           >
							<Group DEF="group_ME_arm1">
								<Shape>
									<Appearance>
										<Material USE="MA_Body" />
									</Appearance>
									<IndexedTriangleSet solid="false"
									                    normalPerVertex="true"
									                    index="0 1 2 0 2 3 4 5 6 4 6 7 8 9 10 8 10 11 12 13 14 12 14 15 4 16 17 4 17 15 18 5 14 18 14 19 "
									                    >
										<Coordinate point="0.000000 -0.167282 -0.138626 0.000000 -0.167282 0.138626 0.000000 0.167282 0.138626 0.000000 0.167282 -0.138626 0.000000 0.167282 -0.138626 0.000000 0.167282 0.138626 0.572453 0.167282 0.138626 0.572453 0.167282 -0.138626 0.572453 0.167282 -0.138626 0.572453 0.167282 0.138626 0.572453 -0.167282 0.138626 0.572453 -0.167282 -0.138626 0.572453 -0.167282 -0.138626 0.572453 -0.167282 0.138626 0.000000 -0.167282 0.138626 0.000000 -0.167282 -0.138626 0.572453 0.167282 -0.138626 0.572453 -0.167282 -0.138626 0.572453 0.167282 0.138626 0.572453 -0.167282 0.138626 " />
										<Normal vector="-0.577349 -0.577349 -0.577349 -0.577349 -0.577349 0.577349 -0.577349 0.577349 0.577349 -0.577349 0.577349 -0.577349 -0.577349 0.577349 -0.577349 -0.577349 0.577349 0.577349 0.577349 0.577349 0.577349 0.577349 0.577349 -0.577349 0.577349 0.577349 -0.577349 0.577349 0.577349 0.577349 0.577349 -0.577349 0.577349 0.577349 -0.577349 -0.577349 0.577349 -0.577349 -0.577349 0.577349 -0.577349 0.577349 -0.577349 -0.577349 0.577349 -0.577349 -0.577349 -0.577349 0.577349 0.577349 -0.577349 0.577349 -0.577349 -0.577349 0.577349 0.577349 0.577349 0.577349 -0.577349 0.577349 " />
										<TextureCoordinate point="0.0548 0.5356 0.9649 0.5356 0.9649 0.9664 0.0548 0.9664 0.0548 0.5356 0.9649 0.5356 0.9649 0.9664 0.0548 0.9664 0.0548 0.5356 0.9649 0.5356 0.9649 0.9664 0.0548 0.9664 0.0548 0.5356 0.9649 0.5356 0.9649 0.9664 0.0548 0.9664 0.9649 0.5356 0.9649 0.9664 0.0548 0.5356 0.0548 0.9664 " />
									</IndexedTriangleSet>
								</Shape>
							</Group>
						</Transform>
					</Transform>
					<Transform DEF="Cube_009_TRANSFORM"
					           translation="0.000000 -0.890474 0.308525"
					           scale="1.000000 1.000000 1.000000"
					           rotation="0.000000 1.000000 0.000000 0.000000"
					           >
						<Transform DEF="Cube_009_ifs_TRANSFORM"
						           translation="0.000000 0.000000 0.000000"
						           scale="1.000000 1.000000 1.000000"
						           rotation="0.000000 1.000000 0.000000 0.000000"
						           >
							<Group DEF="group_ME_Cube_017">
								<Shape>
									<Appearance>
										<Material USE="MA_Body" />
									</Appearance>
									<IndexedTriangleSet solid="false"
									                    normalPerVertex="true"
									                    index="0 1 2 0 2 3 4 5 6 4 6 7 8 9 10 8 10 11 12 13 14 12 14 15 4 16 17 4 17 15 18 5 14 18 14 19 "
									                    >
										<Coordinate point="-0.224599 -0.099365 -0.230995 -0.224599 -0.237042 -0.083922 -0.224599 -0.068838 0.073536 -0.224599 0.068838 -0.073536 -0.224599 0.068838 -0.073536 -0.224599 -0.068838 0.073536 0.224599 -0.068838 0.073536 0.224599 0.068838 -0.073536 0.224599 0.068838 -0.073536 0.224599 -0.068838 0.073536 0.224599 -0.237042 -0.083922 0.224599 -0.099365 -0.230995 0.224599 -0.099365 -0.230995 0.224599 -0.237042 -0.083922 -0.224599 -0.237042 -0.083922 -0.224599 -0.099365 -0.230995 0.224599 0.068838 -0.073536 0.224599 -0.099365 -0.230995 0.224599 -0.068838 0.073536 0.224599 -0.237042 -0.083922 " />
										<Normal vector="-0.577349 -0.026917 -0.816034 -0.577349 -0.816034 0.026917 -0.577349 0.026917 0.816034 -0.577349 0.816034 -0.026917 -0.577349 0.816034 -0.026917 -0.577349 0.026917 0.816034 0.577349 0.026917 0.816034 0.577349 0.816034 -0.026917 0.577349 0.816034 -0.026917 0.577349 0.026917 0.816034 0.577349 -0.816034 0.026917 0.577349 -0.026917 -0.816034 0.577349 -0.026917 -0.816034 0.577349 -0.816034 0.026917 -0.577349 -0.816034 0.026917 -0.577349 -0.026917 -0.816034 0.577349 0.816034 -0.026917 0.577349 -0.026917 -0.816034 0.577349 0.026917 0.816034 0.577349 -0.816034 0.026917 " />
										<TextureCoordinate point="0.0548 0.5356 0.9649 0.5356 0.9649 0.9664 0.0548 0.9664 0.0548 0.5356 0.9649 0.5356 0.9649 0.9664 0.0548 0.9664 0.0548 0.5356 0.9649 0.5356 0.9649 0.9664 0.0548 0.9664 0.0548 0.5356 0.9649 0.5356 0.9649 0.9664 0.0548 0.9664 0.9649 0.5356 0.9649 0.9664 0.0548 0.5356 0.0548 0.9664 " />
									</IndexedTriangleSet>
								</Shape>
							</Group>
						</Transform>
					</Transform>
					<Transform DEF="fire_TRANSFORM"
					           translation="0.000000 0.000000 1.976517"
					           scale="1.000000 1.000000 1.000000"
					           rotation="0.000000 1.000000 0.000000 0.000000"
					           >
						<Transform DEF="fire_ifs_TRANSFORM"
						           translation="0.000000 0.000000 0.000000"
						           scale="1.000000 1.000000 1.000000"
						           rotation="0.000000 1.000000 0.000000 0.000000"
						           >
							<Group DEF="group_ME_fire">
								<Shape>
									<Appearance>
										<Material DEF="MA_Fire"
										          diffuseColor="0.800 0.800 0.800"
										          specularColor="0.001 0.001 0.001"
										          emissiveColor="0.000 0.000 0.000"
										          ambientIntensity="0.000"
										          shininess="0.000"
										          transparency="0.0"
										          />
									</Appearance>
									<IndexedTriangleSet solid="false"
									                    normalPerVertex="true"
									                    index="0 1 2 0 2 3 4 5 6 4 6 7 "
									                    >
										<Coordinate point="-0.709872 -0.709872 0.000000 0.709872 0.709872 0.000000 0.709872 0.709872 2.332259 -0.709872 -0.709872 2.332259 0.709872 -0.709871 0.000000 -0.709872 0.709871 0.000000 -0.709872 0.709871 2.332259 0.709872 -0.709871 2.332259 " />
										<Normal vector="0.707083 -0.707083 0.000000 0.707083 -0.707083 0.000000 0.707083 -0.707083 0.000000 0.707083 -0.707083 0.000000 0.707083 0.707083 0.000000 0.707083 0.707083 0.000000 0.707083 0.707083 0.000000 0.707083 0.707083 0.000000 " />
										<TextureCoordinate point="0.1056 0.6260 0.8944 0.6260 0.8944 0.7495 0.1056 0.7495 0.1056 0.6260 0.8944 0.6260 0.8944 0.7495 0.1056 0.7495 " />
									</IndexedTriangleSet>
								</Shape>
							</Group>
						</Transform>
					</Transform>
					<Transform DEF="Plane_TRANSFORM"
					           translation="0.649122 -0.993374 0.490316"
					           scale="1.000000 1.000000 1.000000"
					           rotation="0.000000 1.000000 0.000000 0.000000"
					           >
						<Transform DEF="Plane_ifs_TRANSFORM"
						           translation="0.000000 0.000000 0.000000"
						           scale="1.000000 1.000000 1.000000"
						           rotation="0.000000 1.000000 0.000000 0.000000"
						           >
							<Group DEF="group_ME_Plane">
								<Shape>
									<Appearance>
										<Material DEF="MA_Eye"
										          diffuseColor="0.800 0.800 0.800"
										          specularColor="0.401 0.401 0.401"
										          emissiveColor="0.000 0.000 0.000"
										          ambientIntensity="0.000"
										          shininess="0.500"
										          transparency="0.0"
										          />
									</Appearance>
									<IndexedTriangleSet solid="false"
									                    normalPerVertex="true"
									                    index="0 1 2 0 2 3 "
									                    >
										<Coordinate point="-0.189686 0.000000 -0.240958 0.189686 0.000000 -0.240958 0.189686 0.000000 0.240958 -0.189686 0.000000 0.240958 " />
										<Normal vector="0.000000 -1.000000 0.000000 0.000000 -1.000000 0.000000 0.000000 -1.000000 0.000000 0.000000 -1.000000 0.000000 " />
										<TextureCoordinate point="0.0188 0.5058 0.4812 0.5058 0.4812 0.9942 0.0188 0.9942 " />
									</IndexedTriangleSet>
								</Shape>
							</Group>
						</Transform>
					</Transform>
					<Transform DEF="arm2_TRANSFORM"
					           translation="-0.822425 0.000000 0.221312"
					           scale="1.000000 1.000000 1.000000"
					           rotation="0.000000 1.000000 0.000000 0.000000"
					           >
						<Transform DEF="arm2_ifs_TRANSFORM"
						           translation="0.000000 0.000000 0.000000"
						           scale="1.000000 1.000000 1.000000"
						           rotation="0.000000 1.000000 0.000000 0.000000"
						           >
							<Group DEF="group_ME_arm2">
								<Shape>
									<Appearance>
										<Material USE="MA_Body" />
									</Appearance>
									<IndexedTriangleSet solid="false"
									                    normalPerVertex="true"
									                    index="0 1 2 0 2 3 4 5 6 4 6 7 8 9 10 8 10 11 12 13 14 12 14 15 4 13 16 4 16 17 18 19 14 18 14 7 "
									                    >
										<Coordinate point="0.000000 -0.167282 -0.138626 0.000000 0.167282 -0.138626 0.000000 0.167282 0.138626 0.000000 -0.167282 0.138626 0.000000 0.167282 -0.138626 -0.572453 0.167282 -0.138626 -0.572453 0.167282 0.138626 0.000000 0.167282 0.138626 -0.572453 0.167282 -0.138626 -0.572453 -0.167282 -0.138626 -0.572453 -0.167282 0.138626 -0.572453 0.167282 0.138626 -0.572453 -0.167282 -0.138626 0.000000 -0.167282 -0.138626 0.000000 -0.167282 0.138626 -0.572453 -0.167282 0.138626 -0.572453 -0.167282 -0.138626 -0.572453 0.167282 -0.138626 -0.572453 0.167282 0.138626 -0.572453 -0.167282 0.138626 " />
										<Normal vector="0.577349 -0.577349 -0.577349 0.577349 0.577349 -0.577349 0.577349 0.577349 0.577349 0.577349 -0.577349 0.577349 0.577349 0.577349 -0.577349 -0.577349 0.577349 -0.577349 -0.577349 0.577349 0.577349 0.577349 0.577349 0.577349 -0.577349 0.577349 -0.577349 -0.577349 -0.577349 -0.577349 -0.577349 -0.577349 0.577349 -0.577349 0.577349 0.577349 -0.577349 -0.577349 -0.577349 0.577349 -0.577349 -0.577349 0.577349 -0.577349 0.577349 -0.577349 -0.577349 0.577349 -0.577349 -0.577349 -0.577349 -0.577349 0.577349 -0.577349 -0.577349 0.577349 0.577349 -0.577349 -0.577349 0.577349 " />
										<TextureCoordinate point="0.0548 0.5356 0.0548 0.9664 0.9649 0.9664 0.9649 0.5356 0.0548 0.5356 0.0548 0.9664 0.9649 0.9664 0.9649 0.5356 0.0548 0.5356 0.0548 0.9664 0.9649 0.9664 0.9649 0.5356 0.0548 0.5356 0.0548 0.9664 0.9649 0.9664 0.9649 0.5356 0.9649 0.9664 0.9649 0.5356 0.0548 0.5356 0.0548 0.9664 " />
									</IndexedTriangleSet>
								</Shape>
							</Group>
						</Transform>
					</Transform>
				</Transform>
			</Transform>
			<Transform DEF="Cube_011_TRANSFORM"
			           translation="0.000000 -0.552289 -0.056438"
			           scale="1.000000 1.000000 1.000000"
			           rotation="0.000000 1.000000 0.000000 0.000000"
			           >
				<Transform DEF="Cube_011_ifs_TRANSFORM"
				           translation="0.000000 0.000000 0.000000"
				           scale="1.000000 1.000000 1.000000"
				           rotation="0.000000 1.000000 0.000000 0.000000"
				           >
					<Group DEF="group_ME_Cube_019">
						<Shape>
							<Appearance>
								<Material USE="MA_Body" />
							</Appearance>
							<IndexedTriangleSet solid="false"
							                    normalPerVertex="true"
							                    index="0 1 2 0 2 3 4 5 6 4 6 7 8 9 10 8 10 11 12 13 14 12 14 15 16 17 18 16 18 19 20 5 14 20 14 21 "
							                    >
								<Coordinate point="-0.979081 -0.443166 -0.236542 -0.979081 -0.443166 0.000000 -0.979081 0.443166 0.000000 -0.979081 0.443166 -0.236542 -0.979081 0.443166 -0.236542 -0.979081 0.443166 0.000000 0.979081 0.443166 0.000000 0.979081 0.443166 -0.236542 0.979081 0.443166 -0.236542 0.979081 0.443166 0.000000 0.979081 -0.443166 0.000000 0.979081 -0.443166 -0.236542 0.979081 -0.443166 -0.236542 0.979081 -0.443166 0.000000 -0.979081 -0.443166 0.000000 -0.979081 -0.443166 -0.236542 -0.979081 0.443166 -0.236542 0.979081 0.443166 -0.236542 0.979081 -0.443166 -0.236542 -0.979081 -0.443166 -0.236542 0.979081 0.443166 0.000000 0.979081 -0.443166 0.000000 " />
								<Normal vector="-0.577349 -0.577349 -0.577349 -0.577349 -0.577349 0.577349 -0.577349 0.577349 0.577349 -0.577349 0.577349 -0.577349 -0.577349 0.577349 -0.577349 -0.577349 0.577349 0.577349 0.577349 0.577349 0.577349 0.577349 0.577349 -0.577349 0.577349 0.577349 -0.577349 0.577349 0.577349 0.577349 0.577349 -0.577349 0.577349 0.577349 -0.577349 -0.577349 0.577349 -0.577349 -0.577349 0.577349 -0.577349 0.577349 -0.577349 -0.577349 0.577349 -0.577349 -0.577349 -0.577349 -0.577349 0.577349 -0.577349 0.577349 0.577349 -0.577349 0.577349 -0.577349 -0.577349 -0.577349 -0.577349 -0.577349 0.577349 0.577349 0.577349 0.577349 -0.577349 0.577349 " />
								<TextureCoordinate point="0.0548 0.5356 0.9649 0.5356 0.9649 0.9664 0.0548 0.9664 0.0548 0.5356 0.9649 0.5356 0.9649 0.9664 0.0548 0.9664 0.0548 0.5356 0.9649 0.5356 0.9649 0.9664 0.0548 0.9664 0.0548 0.5356 0.9649 0.5356 0.9649 0.9664 0.0548 0.9664 0.0315 0.0336 0.4665 0.0336 0.4665 0.4644 0.0315 0.4644 0.0548 0.5356 0.0548 0.9664 " />
							</IndexedTriangleSet>
						</Shape>
					</Group>
				</Transform>
			</Transform>
			<Transform DEF="Cube_012_TRANSFORM"
			           translation="0.000000 0.286223 -0.074243"
			           scale="1.000000 1.000000 1.000000"
			           rotation="0.000000 1.000000 0.000000 0.000000"
			           >
				<Transform DEF="Cube_012_ifs_TRANSFORM"
				           translation="0.000000 0.000000 0.000000"
				           scale="1.000000 1.000000 1.000000"
				           rotation="0.000000 1.000000 0.000000 0.000000"
				           >
					<Group DEF="group_ME_Cube_020">
						<Shape>
							<Appearance>
								<Material USE="MA_Body" />
							</Appearance>
							<IndexedTriangleSet solid="false"
							                    normalPerVertex="true"
							                    index="0 1 2 0 2 3 4 5 6 4 6 7 8 9 10 8 10 11 12 13 14 12 14 15 16 17 18 16 18 19 20 5 14 20 14 21 "
							                    >
								<Coordinate point="-0.820434 -0.439467 -0.215849 -0.820434 -0.439467 0.000000 -0.820434 0.439467 0.000000 -0.820434 0.439467 -0.215849 -0.820434 0.439467 -0.215849 -0.820434 0.439467 0.000000 0.820434 0.439467 0.000000 0.820434 0.439467 -0.215849 0.820434 0.439467 -0.215849 0.820434 0.439467 0.000000 0.820434 -0.439467 0.000000 0.820434 -0.439467 -0.215849 0.820434 -0.439467 -0.215849 0.820434 -0.439467 0.000000 -0.820434 -0.439467 0.000000 -0.820434 -0.439467 -0.215849 -0.820434 0.439467 -0.215849 0.820434 0.439467 -0.215849 0.820434 -0.439467 -0.215849 -0.820434 -0.439467 -0.215849 0.820434 0.439467 0.000000 0.820434 -0.439467 0.000000 " />
								<Normal vector="-0.577349 -0.577349 -0.577349 -0.577349 -0.577349 0.577349 -0.577349 0.577349 0.577349 -0.577349 0.577349 -0.577349 -0.577349 0.577349 -0.577349 -0.577349 0.577349 0.577349 0.577349 0.577349 0.577349 0.577349 0.577349 -0.577349 0.577349 0.577349 -0.577349 0.577349 0.577349 0.577349 0.577349 -0.577349 0.577349 0.577349 -0.577349 -0.577349 0.577349 -0.577349 -0.577349 0.577349 -0.577349 0.577349 -0.577349 -0.577349 0.577349 -0.577349 -0.577349 -0.577349 -0.577349 0.577349 -0.577349 0.577349 0.577349 -0.577349 0.577349 -0.577349 -0.577349 -0.577349 -0.577349 -0.577349 0.577349 0.577349 0.577349 0.577349 -0.577349 0.577349 " />
								<TextureCoordinate point="0.0548 0.5356 0.9649 0.5356 0.9649 0.9664 0.0548 0.9664 0.0548 0.5356 0.9649 0.5356 0.9649 0.9664 0.0548 0.9664 0.0548 0.5356 0.9649 0.5356 0.9649 0.9664 0.0548 0.9664 0.0548 0.5356 0.9649 0.5356 0.9649 0.9664 0.0548 0.9664 0.0315 0.0336 0.4665 0.0336 0.4665 0.4644 0.0315 0.4644 0.0548 0.5356 0.0548 0.9664 " />
							</IndexedTriangleSet>
						</Shape>
					</Group>
				</Transform>
			</Transform>
		</Transform>
	</Scene>
</X3D>