<?xml version="1.0" encoding="UTF-8"?>
<!DOCTYPE X3D PUBLIC "ISO//Web3D//DTD X3D 3.0//EN" "http://www.web3d.org/specifications/x3d-3.0.dtd">
<X3D version="3.0" profile="Immersive" xmlns:xsd="http://www.w3.org/2001/XMLSchema-instance" xsd:noNamespaceSchemaLocation="http://www.web3d.org/specifications/x3d-3.0.xsd">
	<head>
		<meta name="filename" content="masquerain.x3d" />
		<meta name="generator" content="Blender 2.93.18" />
	</head>
	<Scene>
		<NavigationInfo headlight="true"
		                visibilityLimit="0.0"
		                type='"EXAMINE", "ANY"'
		                avatarSize="0.25, 1.75, 0.75"
		                />
		<Background DEF="WO_World"
		            groundColor="0.051 0.051 0.051"
		            skyColor="0.051 0.051 0.051"
		            />
		<Transform DEF="body_TRANSFORM"
		           translation="0.000000 -0.249494 0.128419"
		           scale="1.000000 1.000000 1.000000"
		           rotation="0.000000 0.000000 1.000000 3.141593"
		           >
			<Transform DEF="body_ifs_TRANSFORM"
			           translation="0.000000 0.000000 0.000000"
			           scale="1.000000 1.000000 1.000000"
			           rotation="0.000000 1.000000 0.000000 0.000000"
			           >
				<Group DEF="group_ME_body">
					<Shape>
						<Appearance>
							<Material DEF="MA_Body"
							          diffuseColor="0.800 0.800 0.800"
							          specularColor="0.401 0.401 0.401"
							          emissiveColor="0.000 0.000 0.000"
							          ambientIntensity="0.000"
							          shininess="0.500"
							          transparency="0.0"
							          />
						</Appearance>
						<IndexedTriangleSet solid="false"
						                    normalPerVertex="true"
						                    index="0 1 2 0 2 3 4 5 6 4 6 7 8 9 10 8 10 11 12 13 14 12 14 15 4 16 17 4 17 15 18 5 14 18 14 19 "
						                    >
							<Coordinate point="-0.688724 -0.590108 0.298750 -0.688724 0.005933 1.476084 -0.688724 1.186148 0.878584 -0.688724 0.590108 -0.298750 -0.688724 0.590108 -0.298750 -0.688724 1.186148 0.878584 0.688724 1.186148 0.878584 0.688724 0.590108 -0.298750 0.688724 0.590108 -0.298750 0.688724 1.186148 0.878584 0.688724 0.005933 1.476084 0.688724 -0.590108 0.298750 0.688724 -0.590108 0.298750 0.688724 0.005933 1.476084 -0.688724 0.005933 1.476084 -0.688724 -0.590108 0.298750 0.688724 0.590108 -0.298750 0.688724 -0.590108 0.298750 0.688724 1.186148 0.878584 0.688724 0.005933 1.476084 " />
							<Normal vector="-0.577349 -0.775872 -0.254311 -0.577349 -0.254311 0.775872 -0.577349 0.775872 0.254311 -0.577349 0.254311 -0.775872 -0.577349 0.254311 -0.775872 -0.577349 0.775872 0.254311 0.577349 0.775872 0.254311 0.577349 0.254311 -0.775872 0.577349 0.254311 -0.775872 0.577349 0.775872 0.254311 0.577349 -0.254311 0.775872 0.577349 -0.775872 -0.254311 0.577349 -0.775872 -0.254311 0.577349 -0.254311 0.775872 -0.577349 -0.254311 0.775872 -0.577349 -0.775872 -0.254311 0.577349 0.254311 -0.775872 0.577349 -0.775872 -0.254311 0.577349 0.775872 0.254311 0.577349 -0.254311 0.775872 " />
							<TextureCoordinate point="0.0374 0.4640 0.1318 0.4640 0.1318 0.9452 0.0374 0.9452 0.0374 0.4640 0.1318 0.4640 0.1318 0.9452 0.0374 0.9452 0.0374 0.4640 0.1318 0.4640 0.1318 0.9452 0.0374 0.9452 0.0374 0.4640 0.1318 0.4640 0.1318 0.9452 0.0374 0.9452 0.1318 0.4640 0.1318 0.9452 0.0374 0.4640 0.0374 0.9452 " />
						</IndexedTriangleSet>
					</Shape>
				</Group>
			</Transform>
			<Transform DEF="Cube_001_TRANSFORM"
			           translation="0.000000 -0.209022 0.864513"
			           scale="1.000000 1.000000 1.000000"
			           rotation="0.000000 1.000000 0.000000 0.000000"
			           >
				<Transform DEF="Cube_001_ifs_TRANSFORM"
				           translation="0.000000 0.000000 0.000000"
				           scale="1.000000 1.000000 1.000000"
				           rotation="0.000000 1.000000 0.000000 0.000000"
				           >
					<Group DEF="group_ME_Cube_001">
						<Shape>
							<Appearance>
								<Material USE="MA_Body" />
							</Appearance>
							<IndexedTriangleSet solid="false"
							                    normalPerVertex="true"
							                    index="0 1 2 0 2 3 4 5 6 4 6 7 8 9 10 8 10 11 12 13 14 12 14 15 4 16 17 4 17 15 18 5 14 18 14 19 "
							                    >
								<Coordinate point="-0.411080 -0.233689 -0.461595 -0.411080 -0.588553 -0.281940 -0.411080 -0.121176 0.641250 -0.411080 0.233689 0.461595 -0.411080 0.233689 0.461595 -0.411080 -0.121176 0.641250 0.411080 -0.121176 0.641250 0.411080 0.233689 0.461595 0.411080 0.233689 0.461595 0.411080 -0.121176 0.641250 0.411080 -0.588553 -0.281940 0.411080 -0.233689 -0.461595 0.411080 -0.233689 -0.461595 0.411080 -0.588553 -0.281940 -0.411080 -0.588553 -0.281940 -0.411080 -0.233689 -0.461595 0.411080 0.233689 0.461595 0.411080 -0.233689 -0.461595 0.411080 -0.121176 0.641250 0.411080 -0.588553 -0.281940 " />
								<Normal vector="-0.577349 0.254311 -0.775872 -0.577349 -0.775872 -0.254311 -0.577349 -0.254311 0.775872 -0.577349 0.775872 0.254311 -0.577349 0.775872 0.254311 -0.577349 -0.254311 0.775872 0.577349 -0.254311 0.775872 0.577349 0.775872 0.254311 0.577349 0.775872 0.254311 0.577349 -0.254311 0.775872 0.577349 -0.775872 -0.254311 0.577349 0.254311 -0.775872 0.577349 0.254311 -0.775872 0.577349 -0.775872 -0.254311 -0.577349 -0.775872 -0.254311 -0.577349 0.254311 -0.775872 0.577349 0.775872 0.254311 0.577349 0.254311 -0.775872 0.577349 -0.254311 0.775872 0.577349 -0.775872 -0.254311 " />
								<TextureCoordinate point="0.0374 0.4640 0.1318 0.4640 0.1318 0.9452 0.0374 0.9452 0.0374 0.4640 0.1318 0.4640 0.1318 0.9452 0.0374 0.9452 0.0374 0.4640 0.1318 0.4640 0.1318 0.9452 0.0374 0.9452 0.0374 0.4640 0.1318 0.4640 0.1318 0.9452 0.0374 0.9452 0.1318 0.4640 0.1318 0.9452 0.0374 0.4640 0.0374 0.9452 " />
							</IndexedTriangleSet>
						</Shape>
					</Group>
				</Transform>
			</Transform>
			<Transform DEF="head_TRANSFORM"
			           translation="0.000000 -0.175693 0.880069"
			           scale="1.000000 1.000000 1.000000"
			           rotation="0.000000 1.000000 0.000000 0.000000"
			           >
				<Transform DEF="head_ifs_TRANSFORM"
				           translation="0.000000 0.000000 0.000000"
				           scale="1.000000 1.000000 1.000000"
				           rotation="0.000000 1.000000 0.000000 0.000000"
				           >
					<Group DEF="group_ME_head">
						<Shape>
							<Appearance>
								<Material USE="MA_Body" />
							</Appearance>
							<IndexedTriangleSet solid="false"
							                    normalPerVertex="true"
							                    index="0 1 2 0 2 3 4 5 6 4 6 7 8 9 10 8 10 11 12 13 14 12 14 15 16 17 18 16 18 19 20 21 14 20 14 22 23 5 24 23 24 25 26 27 28 26 28 29 30 31 24 30 24 32 33 21 34 33 34 35 26 36 37 26 37 38 39 40 41 39 41 42 43 44 45 43 45 19 46 47 48 46 48 29 49 50 51 49 51 52 53 54 55 53 55 56 16 57 58 16 58 59 60 61 62 60 62 63 64 65 66 64 66 67 68 69 70 68 70 71 "
							                    >
								<Coordinate point="-0.875887 -1.647174 0.811855 -0.875887 -1.647174 1.214205 -0.875887 -0.002105 1.214205 -0.875887 -0.002105 0.811855 0.000000 -0.002105 0.811855 0.000000 -0.002105 1.214205 0.875887 -0.002105 1.214205 0.875887 -0.002105 0.811855 0.875887 -0.002105 0.811855 0.875887 -0.002105 1.214205 0.875887 -1.647174 1.214205 0.875887 -1.647174 0.811855 0.000000 -1.647174 0.811855 0.000000 -1.647174 1.214205 -0.875887 -1.647174 1.214205 -0.875887 -1.647174 0.811855 0.000000 -0.002105 -0.365496 0.875887 -0.002105 -0.365496 0.875887 -1.647174 -0.365496 0.000000 -1.647174 -0.365496 0.000000 -0.002105 1.214205 -0.875887 -0.002105 1.214205 0.000000 -1.647174 1.214205 0.875887 -0.002105 1.214205 0.000000 -1.647174 1.214205 0.875887 -1.647174 1.214205 -0.875887 -0.002105 -0.365496 0.000000 -0.002105 -0.365496 0.000000 -1.647174 -0.365496 -0.875887 -1.647174 -0.365496 0.875887 -1.647174 0.811855 0.875887 -1.647174 1.214205 0.000000 -1.647174 0.811855 -0.875887 -0.002105 0.811855 0.000000 -0.002105 1.214205 0.000000 -0.002105 0.811855 -0.875887 -0.002105 -0.239060 0.000000 -0.002105 -0.239060 0.000000 -0.002105 -0.365496 -0.875887 -0.002105 -0.239060 -0.875887 -0.002105 0.811855 0.000000 -0.002105 0.811855 0.000000 -0.002105 -0.239060 0.875887 -1.647174 -0.365496 0.875887 -1.647174 -0.239060 0.000000 -1.647174 -0.239060 0.000000 -1.647174 -0.365496 0.000000 -1.647174 -0.239060 -0.875887 -1.647174 -0.239060 0.875887 -0.002105 -0.365496 0.875887 -0.002105 -0.239060 0.875887 -1.647174 -0.239060 0.875887 -1.647174 -0.365496 0.875887 -0.002105 -0.239060 0.875887 -0.002105 0.811855 0.875887 -1.647174 0.811855 0.875887 -1.647174 -0.239060 0.000000 -0.002105 -0.239060 0.875887 -0.002105 -0.239060 0.875887 -0.002105 -0.365496 0.000000 -0.002105 -0.239060 0.000000 -0.002105 0.811855 0.875887 -0.002105 0.811855 0.875887 -0.002105 -0.239060 -0.875887 -1.647174 -0.365496 -0.875887 -1.647174 -0.239060 -0.875887 -0.002105 -0.239060 -0.875887 -0.002105 -0.365496 -0.875887 -1.647174 -0.239060 -0.875887 -1.647174 0.811855 -0.875887 -0.002105 0.811855 -0.875887 -0.002105 -0.239060 " />
								<Normal vector="-0.707083 -0.707083 0.000000 -0.577349 -0.577349 0.577349 -0.577349 0.577349 0.577349 -0.707083 0.707083 0.000000 0.000000 1.000000 0.000000 0.000000 0.707083 0.707083 0.577349 0.577349 0.577349 0.707083 0.707083 0.000000 0.707083 0.707083 0.000000 0.577349 0.577349 0.577349 0.577349 -0.577349 0.577349 0.707083 -0.707083 0.000000 0.000000 -1.000000 0.000000 0.000000 -0.707083 0.707083 -0.577349 -0.577349 0.577349 -0.707083 -0.707083 0.000000 0.000000 0.707083 -0.707083 0.577349 0.577349 -0.577349 0.577349 -0.577349 -0.577349 0.000000 -0.707083 -0.707083 0.000000 0.707083 0.707083 -0.577349 0.577349 0.577349 0.000000 -0.707083 0.707083 0.577349 0.577349 0.577349 0.000000 -0.707083 0.707083 0.577349 -0.577349 0.577349 -0.577349 0.577349 -0.577349 0.000000 0.707083 -0.707083 0.000000 -0.707083 -0.707083 -0.577349 -0.577349 -0.577349 0.707083 -0.707083 0.000000 0.577349 -0.577349 0.577349 0.000000 -1.000000 0.000000 -0.707083 0.707083 0.000000 0.000000 0.707083 0.707083 0.000000 1.000000 0.000000 -0.707083 0.707083 0.000000 0.000000 1.000000 0.000000 0.000000 0.707083 -0.707083 -0.707083 0.707083 0.000000 -0.707083 0.707083 0.000000 0.000000 1.000000 0.000000 0.000000 1.000000 0.000000 0.577349 -0.577349 -0.577349 0.707083 -0.707083 0.000000 0.000000 -1.000000 0.000000 0.000000 -0.707083 -0.707083 0.000000 -1.000000 0.000000 -0.707083 -0.707083 0.000000 0.577349 0.577349 -0.577349 0.707083 0.707083 0.000000 0.707083 -0.707083 0.000000 0.577349 -0.577349 -0.577349 0.707083 0.707083 0.000000 0.707083 0.707083 0.000000 0.707083 -0.707083 0.000000 0.707083 -0.707083 0.000000 0.000000 1.000000 0.000000 0.707083 0.707083 0.000000 0.577349 0.577349 -0.577349 0.000000 1.000000 0.000000 0.000000 1.000000 0.000000 0.707083 0.707083 0.000000 0.707083 0.707083 0.000000 -0.577349 -0.577349 -0.577349 -0.707083 -0.707083 0.000000 -0.707083 0.707083 0.000000 -0.577349 0.577349 -0.577349 -0.707083 -0.707083 0.000000 -0.707083 -0.707083 0.000000 -0.707083 0.707083 0.000000 -0.707083 0.707083 0.000000 " />
								<TextureCoordinate point="0.0374 0.4640 0.1318 0.4640 0.1318 0.9452 0.0374 0.9452 0.0374 0.4640 0.1318 0.4640 0.1318 0.9452 0.0374 0.9452 0.0374 0.4640 0.1318 0.4640 0.1318 0.9452 0.0374 0.9452 0.0374 0.4640 0.1318 0.4640 0.1318 0.9452 0.0374 0.9452 0.0374 0.4640 0.1318 0.4640 0.1318 0.9452 0.0374 0.9452 0.0374 0.4640 0.1318 0.4640 0.0374 0.9452 0.0374 0.4640 0.1318 0.9452 0.0374 0.9452 0.0374 0.4640 0.1318 0.4640 0.1318 0.9452 0.0374 0.9452 0.0374 0.4640 0.1318 0.4640 0.0374 0.9452 0.0374 0.4640 0.1318 0.9452 0.0374 0.9452 0.1318 0.4640 0.1318 0.9452 0.0374 0.9452 0.0374 0.4640 0.1318 0.4640 0.1318 0.9452 0.0374 0.9452 0.0374 0.4640 0.1318 0.4640 0.1318 0.9452 0.0374 0.4640 0.1318 0.4640 0.1318 0.9452 0.0374 0.4640 0.1318 0.4640 0.1318 0.9452 0.0374 0.9452 0.0374 0.4640 0.1318 0.4640 0.1318 0.9452 0.0374 0.9452 0.1318 0.4640 0.1318 0.9452 0.0374 0.9452 0.0374 0.4640 0.1318 0.4640 0.1318 0.9452 0.0374 0.9452 0.0374 0.4640 0.1318 0.4640 0.1318 0.9452 0.0374 0.9452 0.0374 0.4640 0.1318 0.4640 0.1318 0.9452 0.0374 0.9452 " />
							</IndexedTriangleSet>
						</Shape>
						<Shape>
							<Appearance>
								<Material DEF="MA_Face"
								          diffuseColor="0.800 0.800 0.800"
								          specularColor="0.401 0.401 0.401"
								          emissiveColor="0.000 0.000 0.000"
								          ambientIntensity="0.000"
								          shininess="0.500"
								          transparency="0.0"
								          />
							</Appearance>
							<IndexedTriangleSet solid="false"
							                    normalPerVertex="true"
							                    index="0 1 2 0 2 3 3 2 4 3 4 5 "
							                    >
								<Coordinate point="0.875887 -1.647174 -0.239060 0.875887 -1.647174 0.811855 0.000000 -1.647174 0.811855 0.000000 -1.647174 -0.239060 -0.875887 -1.647174 0.811855 -0.875887 -1.647174 -0.239060 " />
								<Normal vector="0.707083 -0.707083 0.000000 0.707083 -0.707083 0.000000 0.000000 -1.000000 0.000000 0.000000 -1.000000 0.000000 -0.707083 -0.707083 0.000000 -0.707083 -0.707083 0.000000 " />
								<TextureCoordinate point="0.0286 0.4980 0.0286 0.9980 0.9714 0.9980 0.9714 0.4980 0.0286 0.9980 0.0286 0.4980 " />
							</IndexedTriangleSet>
						</Shape>
					</Group>
				</Transform>
				<Transform DEF="Cube_003_TRANSFORM"
				           translation="0.000000 -0.811808 1.140959"
				           scale="1.000000 1.000000 1.000000"
				           rotation="0.000000 1.000000 0.000000 0.000000"
				           >
					<Transform DEF="Cube_003_ifs_TRANSFORM"
					           translation="0.000000 0.000000 0.000000"
					           scale="1.000000 1.000000 1.000000"
					           rotation="0.000000 1.000000 0.000000 0.000000"
					           >
						<Group DEF="group_ME_Cube_003">
							<Shape>
								<Appearance>
									<Material USE="MA_Body" />
								</Appearance>
								<IndexedTriangleSet solid="false"
								                    normalPerVertex="true"
								                    index="0 1 2 0 2 3 4 5 6 4 6 7 8 9 10 8 10 11 12 13 14 12 14 15 4 16 17 4 17 15 18 5 14 18 14 19 "
								                    >
									<Coordinate point="-0.506228 -0.464168 -0.000000 -0.506228 -0.464168 0.308386 -0.506228 0.464168 0.308386 -0.506228 0.464168 0.000000 -0.506228 0.464168 0.000000 -0.506228 0.464168 0.308386 0.506228 0.464168 0.308386 0.506228 0.464168 0.000000 0.506228 0.464168 0.000000 0.506228 0.464168 0.308386 0.506228 -0.464168 0.308386 0.506228 -0.464168 -0.000000 0.506228 -0.464168 -0.000000 0.506228 -0.464168 0.308386 -0.506228 -0.464168 0.308386 -0.506228 -0.464168 -0.000000 0.506228 0.464168 0.000000 0.506228 -0.464168 -0.000000 0.506228 0.464168 0.308386 0.506228 -0.464168 0.308386 " />
									<Normal vector="-0.577349 -0.577349 -0.577349 -0.577349 -0.577349 0.577349 -0.577349 0.577349 0.577349 -0.577349 0.577349 -0.577349 -0.577349 0.577349 -0.577349 -0.577349 0.577349 0.577349 0.577349 0.577349 0.577349 0.577349 0.577349 -0.577349 0.577349 0.577349 -0.577349 0.577349 0.577349 0.577349 0.577349 -0.577349 0.577349 0.577349 -0.577349 -0.577349 0.577349 -0.577349 -0.577349 0.577349 -0.577349 0.577349 -0.577349 -0.577349 0.577349 -0.577349 -0.577349 -0.577349 0.577349 0.577349 -0.577349 0.577349 -0.577349 -0.577349 0.577349 0.577349 0.577349 0.577349 -0.577349 0.577349 " />
									<TextureCoordinate point="0.0374 0.4640 0.1318 0.4640 0.1318 0.9452 0.0374 0.9452 0.0374 0.4640 0.1318 0.4640 0.1318 0.9452 0.0374 0.9452 0.0374 0.4640 0.1318 0.4640 0.1318 0.9452 0.0374 0.9452 0.0374 0.4640 0.1318 0.4640 0.1318 0.9452 0.0374 0.9452 0.1318 0.4640 0.1318 0.9452 0.0374 0.4640 0.0374 0.9452 " />
								</IndexedTriangleSet>
							</Shape>
						</Group>
					</Transform>
					<Transform DEF="Cube_004_TRANSFORM"
					           translation="0.000000 -0.000000 0.267528"
					           scale="1.000000 1.000000 1.000000"
					           rotation="0.000000 1.000000 0.000000 0.000000"
					           >
						<Transform DEF="Cube_004_ifs_TRANSFORM"
						           translation="0.000000 0.000000 0.000000"
						           scale="1.000000 1.000000 1.000000"
						           rotation="0.000000 1.000000 0.000000 0.000000"
						           >
							<Group DEF="group_ME_Cube_004">
								<Shape>
									<Appearance>
										<Material USE="MA_Body" />
									</Appearance>
									<IndexedTriangleSet solid="false"
									                    normalPerVertex="true"
									                    index="0 1 2 0 2 3 4 5 6 4 6 7 8 9 10 8 10 11 12 13 14 12 14 15 4 16 17 4 17 15 18 5 14 18 14 19 "
									                    >
										<Coordinate point="-0.309473 -0.283760 -0.000000 -0.309473 -0.283760 0.741524 -0.309473 0.283760 0.741524 -0.309473 0.283760 0.000000 -0.309473 0.283760 0.000000 -0.309473 0.283760 0.741524 0.309473 0.283760 0.741524 0.309473 0.283760 0.000000 0.309473 0.283760 0.000000 0.309473 0.283760 0.741524 0.309473 -0.283760 0.741524 0.309473 -0.283760 -0.000000 0.309473 -0.283760 -0.000000 0.309473 -0.283760 0.741524 -0.309473 -0.283760 0.741524 -0.309473 -0.283760 -0.000000 0.309473 0.283760 0.000000 0.309473 -0.283760 -0.000000 0.309473 0.283760 0.741524 0.309473 -0.283760 0.741524 " />
										<Normal vector="-0.577349 -0.577349 -0.577349 -0.577349 -0.577349 0.577349 -0.577349 0.577349 0.577349 -0.577349 0.577349 -0.577349 -0.577349 0.577349 -0.577349 -0.577349 0.577349 0.577349 0.577349 0.577349 0.577349 0.577349 0.577349 -0.577349 0.577349 0.577349 -0.577349 0.577349 0.577349 0.577349 0.577349 -0.577349 0.577349 0.577349 -0.577349 -0.577349 0.577349 -0.577349 -0.577349 0.577349 -0.577349 0.577349 -0.577349 -0.577349 0.577349 -0.577349 -0.577349 -0.577349 0.577349 0.577349 -0.577349 0.577349 -0.577349 -0.577349 0.577349 0.577349 0.577349 0.577349 -0.577349 0.577349 " />
										<TextureCoordinate point="0.0374 0.4640 0.1318 0.4640 0.1318 0.9452 0.0374 0.9452 0.0374 0.4640 0.1318 0.4640 0.1318 0.9452 0.0374 0.9452 0.0374 0.4640 0.1318 0.4640 0.1318 0.9452 0.0374 0.9452 0.0374 0.4640 0.1318 0.4640 0.1318 0.9452 0.0374 0.9452 0.1318 0.4640 0.1318 0.9452 0.0374 0.4640 0.0374 0.9452 " />
									</IndexedTriangleSet>
								</Shape>
							</Group>
						</Transform>
						<Transform DEF="Cube_005_TRANSFORM"
						           translation="0.000000 0.000000 0.697417"
						           scale="1.000000 1.000000 1.000000"
						           rotation="0.000000 1.000000 0.000000 0.000000"
						           >
							<Transform DEF="Cube_005_ifs_TRANSFORM"
							           translation="0.000000 0.000000 0.000000"
							           scale="1.000000 1.000000 1.000000"
							           rotation="0.000000 1.000000 0.000000 0.000000"
							           >
								<Group DEF="group_ME_Cube_005">
									<Shape>
										<Appearance>
											<Material USE="MA_Body" />
										</Appearance>
										<IndexedTriangleSet solid="false"
										                    normalPerVertex="true"
										                    index="0 1 2 0 2 3 4 5 6 4 6 7 8 9 10 8 10 11 12 13 14 12 14 15 4 16 17 4 17 15 18 5 14 18 14 19 "
										                    >
											<Coordinate point="-0.175094 -0.160546 -0.000000 -0.175094 -0.160546 0.913978 -0.175094 0.160546 0.913978 -0.175094 0.160546 0.000000 -0.175094 0.160546 0.000000 -0.175094 0.160546 0.913978 0.175094 0.160546 0.913978 0.175094 0.160546 0.000000 0.175094 0.160546 0.000000 0.175094 0.160546 0.913978 0.175094 -0.160546 0.913978 0.175094 -0.160546 -0.000000 0.175094 -0.160546 -0.000000 0.175094 -0.160546 0.913978 -0.175094 -0.160546 0.913978 -0.175094 -0.160546 -0.000000 0.175094 0.160546 0.000000 0.175094 -0.160546 -0.000000 0.175094 0.160546 0.913978 0.175094 -0.160546 0.913978 " />
											<Normal vector="-0.577349 -0.577349 -0.577349 -0.577349 -0.577349 0.577349 -0.577349 0.577349 0.577349 -0.577349 0.577349 -0.577349 -0.577349 0.577349 -0.577349 -0.577349 0.577349 0.577349 0.577349 0.577349 0.577349 0.577349 0.577349 -0.577349 0.577349 0.577349 -0.577349 0.577349 0.577349 0.577349 0.577349 -0.577349 0.577349 0.577349 -0.577349 -0.577349 0.577349 -0.577349 -0.577349 0.577349 -0.577349 0.577349 -0.577349 -0.577349 0.577349 -0.577349 -0.577349 -0.577349 0.577349 0.577349 -0.577349 0.577349 -0.577349 -0.577349 0.577349 0.577349 0.577349 0.577349 -0.577349 0.577349 " />
											<TextureCoordinate point="0.0374 0.4640 0.1318 0.4640 0.1318 0.9452 0.0374 0.9452 0.0374 0.4640 0.1318 0.4640 0.1318 0.9452 0.0374 0.9452 0.0374 0.4640 0.1318 0.4640 0.1318 0.9452 0.0374 0.9452 0.0374 0.4640 0.1318 0.4640 0.1318 0.9452 0.0374 0.9452 0.1318 0.4640 0.1318 0.9452 0.0374 0.4640 0.0374 0.9452 " />
										</IndexedTriangleSet>
									</Shape>
								</Group>
							</Transform>
							<Transform DEF="Cube_006_TRANSFORM"
							           translation="0.000000 0.000000 0.841328"
							           scale="1.000000 1.000000 1.000000"
							           rotation="0.000000 1.000000 0.000000 0.000000"
							           >
								<Transform DEF="Cube_006_ifs_TRANSFORM"
								           translation="0.000000 0.000000 0.000000"
								           scale="1.000000 1.000000 1.000000"
								           rotation="0.000000 1.000000 0.000000 0.000000"
								           >
									<Group DEF="group_ME_Cube_006">
										<Shape>
											<Appearance>
												<Material USE="MA_Body" />
											</Appearance>
											<IndexedTriangleSet solid="false"
											                    normalPerVertex="true"
											                    index="0 1 2 0 2 3 4 5 6 4 6 7 8 9 10 8 10 11 12 13 14 12 14 15 4 16 17 4 17 15 18 5 14 18 14 19 "
											                    >
												<Coordinate point="-0.097772 -0.089649 -0.000000 -0.097772 -0.089649 1.083356 -0.097772 0.089649 1.083356 -0.097772 0.089649 0.000000 -0.097772 0.089649 0.000000 -0.097772 0.089649 1.083356 0.097772 0.089649 1.083356 0.097772 0.089649 0.000000 0.097772 0.089649 0.000000 0.097772 0.089649 1.083356 0.097772 -0.089649 1.083356 0.097772 -0.089649 -0.000000 0.097772 -0.089649 -0.000000 0.097772 -0.089649 1.083356 -0.097772 -0.089649 1.083356 -0.097772 -0.089649 -0.000000 0.097772 0.089649 0.000000 0.097772 -0.089649 -0.000000 0.097772 0.089649 1.083356 0.097772 -0.089649 1.083356 " />
												<Normal vector="-0.577349 -0.577349 -0.577349 -0.577349 -0.577349 0.577349 -0.577349 0.577349 0.577349 -0.577349 0.577349 -0.577349 -0.577349 0.577349 -0.577349 -0.577349 0.577349 0.577349 0.577349 0.577349 0.577349 0.577349 0.577349 -0.577349 0.577349 0.577349 -0.577349 0.577349 0.577349 0.577349 0.577349 -0.577349 0.577349 0.577349 -0.577349 -0.577349 0.577349 -0.577349 -0.577349 0.577349 -0.577349 0.577349 -0.577349 -0.577349 0.577349 -0.577349 -0.577349 -0.577349 0.577349 0.577349 -0.577349 0.577349 -0.577349 -0.577349 0.577349 0.577349 0.577349 0.577349 -0.577349 0.577349 " />
												<TextureCoordinate point="0.0374 0.4640 0.1318 0.4640 0.1318 0.9452 0.0374 0.9452 0.0374 0.4640 0.1318 0.4640 0.1318 0.9452 0.0374 0.9452 0.0374 0.4640 0.1318 0.4640 0.1318 0.9452 0.0374 0.9452 0.0374 0.4640 0.1318 0.4640 0.1318 0.9452 0.0374 0.9452 0.1318 0.4640 0.1318 0.9452 0.0374 0.4640 0.0374 0.9452 " />
											</IndexedTriangleSet>
										</Shape>
									</Group>
								</Transform>
							</Transform>
						</Transform>
					</Transform>
				</Transform>
				<Transform DEF="ant1_TRANSFORM"
				           translation="0.609338 -1.224049 0.665383"
				           scale="1.000000 1.000000 1.000000"
				           rotation="0.000000 1.000000 0.000000 0.000000"
				           >
					<Transform DEF="ant1_ifs_TRANSFORM"
					           translation="0.000000 0.000000 0.000000"
					           scale="1.000000 1.000000 1.000000"
					           rotation="0.000000 1.000000 0.000000 0.000000"
					           >
						<Group DEF="group_ME_ant1">
							<Shape>
								<Appearance>
									<Material USE="MA_Body" />
								</Appearance>
								<IndexedTriangleSet solid="false"
								                    normalPerVertex="true"
								                    index="0 1 2 0 2 3 "
								                    >
									<Coordinate point="-0.050639 0.000000 -0.197709 3.982994 0.000000 -0.166021 3.949731 -0.000000 4.068126 -0.083902 -0.000000 4.036438 " />
									<Normal vector="0.000000 -1.000000 0.000000 0.000000 -1.000000 0.000000 0.000000 -1.000000 0.000000 0.000000 -1.000000 0.000000 " />
									<TextureCoordinate point="0.5363 0.0000 0.9970 0.0000 0.9970 1.0000 0.5363 1.0000 " />
								</IndexedTriangleSet>
							</Shape>
						</Group>
					</Transform>
				</Transform>
				<Transform DEF="ant2_TRANSFORM"
				           translation="-0.609338 -1.224049 0.665383"
				           scale="1.000000 1.000000 1.000000"
				           rotation="0.000000 1.000000 0.000000 0.000000"
				           >
					<Transform DEF="ant2_ifs_TRANSFORM"
					           translation="0.000000 0.000000 0.000000"
					           scale="1.000000 1.000000 1.000000"
					           rotation="0.000000 1.000000 0.000000 0.000000"
					           >
						<Group DEF="group_ME_ant2">
							<Shape>
								<Appearance>
									<Material USE="MA_Body" />
								</Appearance>
								<IndexedTriangleSet solid="false"
								                    normalPerVertex="true"
								                    index="0 1 2 0 2 3 "
								                    >
									<Coordinate point="0.050639 0.000000 -0.197709 0.083902 -0.000000 4.036438 -3.949731 -0.000000 4.068126 -3.982994 0.000000 -0.166021 " />
									<Normal vector="0.000000 -1.000000 0.000000 0.000000 -1.000000 0.000000 0.000000 -1.000000 0.000000 0.000000 -1.000000 0.000000 " />
									<TextureCoordinate point="0.5363 0.0000 0.5363 1.0000 0.9970 1.0000 0.9970 0.0000 " />
								</IndexedTriangleSet>
							</Shape>
						</Group>
					</Transform>
				</Transform>
			</Transform>
			<Transform DEF="arm4_TRANSFORM"
			           translation="0.575763 0.365449 0.551535"
			           scale="1.000000 1.000000 1.000000"
			           rotation="0.000000 1.000000 0.000000 0.000000"
			           >
				<Transform DEF="arm4_ifs_TRANSFORM"
				           translation="0.000000 0.000000 0.000000"
				           scale="1.000000 1.000000 1.000000"
				           rotation="0.000000 1.000000 0.000000 0.000000"
				           >
					<Group DEF="group_ME_arm4">
						<Shape>
							<Appearance>
								<Material USE="MA_Body" />
							</Appearance>
							<IndexedTriangleSet solid="false"
							                    normalPerVertex="true"
							                    index="0 1 2 0 2 3 "
							                    >
								<Coordinate point="0.000000 0.314831 -0.371320 2.554016 0.314831 -0.371320 2.554016 -0.314831 0.371320 0.000000 -0.314831 0.371320 " />
								<Normal vector="0.000000 -0.762719 -0.646687 0.000000 -0.762719 -0.646687 0.000000 -0.762719 -0.646687 0.000000 -0.762719 -0.646687 " />
								<TextureCoordinate point="0.2141 0.0176 0.4882 0.0176 0.4882 0.9886 0.2141 0.9886 " />
							</IndexedTriangleSet>
						</Shape>
					</Group>
				</Transform>
			</Transform>
			<Transform DEF="arm1_TRANSFORM"
			           translation="0.575763 0.088124 0.744811"
			           scale="1.000000 1.000000 1.000000"
			           rotation="0.000000 1.000000 0.000000 0.000000"
			           >
				<Transform DEF="arm1_ifs_TRANSFORM"
				           translation="0.000000 0.000000 0.000000"
				           scale="1.000000 1.000000 1.000000"
				           rotation="0.000000 1.000000 0.000000 0.000000"
				           >
					<Group DEF="group_ME_arm1">
						<Shape>
							<Appearance>
								<Material USE="MA_Body" />
							</Appearance>
							<IndexedTriangleSet solid="false"
							                    normalPerVertex="true"
							                    index="0 1 2 0 2 3 "
							                    >
								<Coordinate point="0.000000 0.314831 -0.371320 2.554016 0.314831 -0.371320 2.554016 -0.314831 0.371320 0.000000 -0.314831 0.371320 " />
								<Normal vector="0.000000 -0.762719 -0.646687 0.000000 -0.762719 -0.646687 0.000000 -0.762719 -0.646687 0.000000 -0.762719 -0.646687 " />
								<TextureCoordinate point="0.2141 0.0176 0.4882 0.0176 0.4882 0.9886 0.2141 0.9886 " />
							</IndexedTriangleSet>
						</Shape>
					</Group>
				</Transform>
			</Transform>
			<Transform DEF="arm3_TRANSFORM"
			           translation="-0.575763 0.365449 0.551535"
			           scale="1.000000 1.000000 1.000000"
			           rotation="0.000000 1.000000 0.000000 0.000000"
			           >
				<Transform DEF="arm3_ifs_TRANSFORM"
				           translation="0.000000 0.000000 0.000000"
				           scale="1.000000 1.000000 1.000000"
				           rotation="0.000000 1.000000 0.000000 0.000000"
				           >
					<Group DEF="group_ME_arm3">
						<Shape>
							<Appearance>
								<Material USE="MA_Body" />
							</Appearance>
							<IndexedTriangleSet solid="false"
							                    normalPerVertex="true"
							                    index="0 1 2 0 2 3 "
							                    >
								<Coordinate point="-0.000000 0.314831 -0.371320 -0.000000 -0.314831 0.371320 -2.554016 -0.314831 0.371320 -2.554016 0.314831 -0.371320 " />
								<Normal vector="0.000000 -0.762719 -0.646687 0.000000 -0.762719 -0.646687 0.000000 -0.762719 -0.646687 0.000000 -0.762719 -0.646687 " />
								<TextureCoordinate point="0.2141 0.0176 0.2141 0.9886 0.4882 0.9886 0.4882 0.0176 " />
							</IndexedTriangleSet>
						</Shape>
					</Group>
				</Transform>
			</Transform>
			<Transform DEF="arm2_TRANSFORM"
			           translation="-0.575763 0.088124 0.744811"
			           scale="1.000000 1.000000 1.000000"
			           rotation="0.000000 1.000000 0.000000 0.000000"
			           >
				<Transform DEF="arm2_ifs_TRANSFORM"
				           translation="0.000000 0.000000 0.000000"
				           scale="1.000000 1.000000 1.000000"
				           rotation="0.000000 1.000000 0.000000 0.000000"
				           >
					<Group DEF="group_ME_arm2">
						<Shape>
							<Appearance>
								<Material USE="MA_Body" />
							</Appearance>
							<IndexedTriangleSet solid="false"
							                    normalPerVertex="true"
							                    index="0 1 2 0 2 3 "
							                    >
								<Coordinate point="-0.000000 0.314831 -0.371320 -0.000000 -0.314831 0.371320 -2.554016 -0.314831 0.371320 -2.554016 0.314831 -0.371320 " />
								<Normal vector="0.000000 -0.762719 -0.646687 0.000000 -0.762719 -0.646687 0.000000 -0.762719 -0.646687 0.000000 -0.762719 -0.646687 " />
								<TextureCoordinate point="0.2141 0.0176 0.2141 0.9886 0.4882 0.9886 0.4882 0.0176 " />
							</IndexedTriangleSet>
						</Shape>
					</Group>
				</Transform>
			</Transform>
		</Transform>
	</Scene>
</X3D>