<?xml version="1.0" encoding="UTF-8"?>
<!DOCTYPE X3D PUBLIC "ISO//Web3D//DTD X3D 3.0//EN" "http://www.web3d.org/specifications/x3d-3.0.dtd">
<X3D version="3.0" profile="Immersive" xmlns:xsd="http://www.w3.org/2001/XMLSchema-instance" xsd:noNamespaceSchemaLocation="http://www.web3d.org/specifications/x3d-3.0.xsd">
	<head>
		<meta name="filename" content="metapod.x3d" />
		<meta name="generator" content="Blender 2.93.18" />
	</head>
	<Scene>
		<NavigationInfo headlight="true"
		                visibilityLimit="0.0"
		                type='"EXAMINE", "ANY"'
		                avatarSize="0.25, 1.75, 0.75"
		                />
		<Background DEF="WO_World"
		            groundColor="0.051 0.051 0.051"
		            skyColor="0.051 0.051 0.051"
		            />
		<Transform DEF="body_TRANSFORM"
		           translation="0.000000 -0.127064 0.470842"
		           scale="1.000000 1.000000 1.000000"
		           rotation="0.000000 0.000000 1.000000 3.141593"
		           >
			<Transform DEF="body_ifs_TRANSFORM"
			           translation="0.000000 0.000000 0.000000"
			           scale="1.000000 1.000000 1.000000"
			           rotation="0.000000 1.000000 0.000000 0.000000"
			           >
				<Group DEF="group_ME_body">
					<Shape>
						<Appearance>
							<Material DEF="MA_Body"
							          diffuseColor="0.800 0.800 0.800"
							          specularColor="0.401 0.401 0.401"
							          emissiveColor="0.000 0.000 0.000"
							          ambientIntensity="0.000"
							          shininess="0.500"
							          transparency="0.0"
							          />
						</Appearance>
						<IndexedTriangleSet solid="false"
						                    normalPerVertex="true"
						                    index="0 1 2 0 2 3 4 5 6 4 6 7 8 9 10 8 10 11 12 13 14 12 14 15 4 16 17 4 17 15 18 5 14 18 14 19 "
						                    >
							<Coordinate point="-0.524938 -0.763078 -0.092947 -0.524938 -0.497686 0.585864 -0.524938 0.132696 0.339405 -0.524938 -0.132696 -0.339405 -0.524938 -0.132696 -0.339405 -0.524938 0.132696 0.339405 0.524938 0.132696 0.339405 0.524938 -0.132696 -0.339405 0.524938 -0.132696 -0.339405 0.524938 0.132696 0.339405 0.524938 -0.497686 0.585864 0.524938 -0.763078 -0.092947 0.524938 -0.763078 -0.092947 0.524938 -0.497686 0.585864 -0.524938 -0.497686 0.585864 -0.524938 -0.763078 -0.092947 0.524938 -0.132696 -0.339405 0.524938 -0.763078 -0.092947 0.524938 0.132696 0.339405 0.524938 -0.497686 0.585864 " />
							<Normal vector="-0.577349 -0.747917 -0.327464 -0.577349 -0.327464 0.747917 -0.577349 0.747917 0.327464 -0.577349 0.327464 -0.747917 -0.577349 0.327464 -0.747917 -0.577349 0.747917 0.327464 0.577349 0.747917 0.327464 0.577349 0.327464 -0.747917 0.577349 0.327464 -0.747917 0.577349 0.747917 0.327464 0.577349 -0.327464 0.747917 0.577349 -0.747917 -0.327464 0.577349 -0.747917 -0.327464 0.577349 -0.327464 0.747917 -0.577349 -0.327464 0.747917 -0.577349 -0.747917 -0.327464 0.577349 0.327464 -0.747917 0.577349 -0.747917 -0.327464 0.577349 0.747917 0.327464 0.577349 -0.327464 0.747917 " />
							<TextureCoordinate point="0.0345 0.5266 0.4635 0.5266 0.4635 0.9557 0.0345 0.9557 0.0345 0.5266 0.4635 0.5266 0.4635 0.9557 0.0345 0.9557 0.0345 0.5266 0.4635 0.5266 0.4635 0.9557 0.0345 0.9557 0.0345 0.5266 0.4635 0.5266 0.4635 0.9557 0.0345 0.9557 0.4635 0.5266 0.4635 0.9557 0.0345 0.5266 0.0345 0.9557 " />
						</IndexedTriangleSet>
					</Shape>
				</Group>
			</Transform>
			<Transform DEF="Cube_001_TRANSFORM"
			           translation="0.000000 -0.288859 0.123067"
			           scale="1.000000 1.000000 1.000000"
			           rotation="0.000000 1.000000 0.000000 0.000000"
			           >
				<Transform DEF="Cube_001_ifs_TRANSFORM"
				           translation="0.000000 0.000000 0.000000"
				           scale="1.000000 1.000000 1.000000"
				           rotation="0.000000 1.000000 0.000000 0.000000"
				           >
					<Group DEF="group_ME_Cube_011">
						<Shape>
							<Appearance>
								<Material USE="MA_Body" />
							</Appearance>
							<IndexedTriangleSet solid="false"
							                    normalPerVertex="true"
							                    index="0 1 2 0 2 3 4 5 6 4 6 7 8 9 10 8 10 11 12 13 14 12 14 15 16 17 18 16 18 19 20 5 14 20 14 21 "
							                    >
								<Coordinate point="-0.480501 -0.910171 0.510551 -0.480501 -0.189952 1.026154 -0.480501 0.360110 0.257802 -0.480501 -0.360110 -0.257802 -0.480501 -0.360110 -0.257802 -0.480501 0.360110 0.257802 0.480501 0.360110 0.257802 0.480501 -0.360110 -0.257802 0.480501 -0.360110 -0.257802 0.480501 0.360110 0.257802 0.480501 -0.189952 1.026154 0.480501 -0.910171 0.510551 0.480501 -0.910171 0.510551 0.480501 -0.189952 1.026154 -0.480501 -0.189952 1.026154 -0.480501 -0.910171 0.510551 -0.480501 -0.360110 -0.257802 0.480501 -0.360110 -0.257802 0.480501 -0.910171 0.510551 -0.480501 -0.910171 0.510551 0.480501 0.360110 0.257802 0.480501 -0.189952 1.026154 " />
								<Normal vector="-0.577349 -0.805506 0.133366 -0.577349 0.133366 0.805506 -0.577349 0.805506 -0.133366 -0.577349 -0.133366 -0.805506 -0.577349 -0.133366 -0.805506 -0.577349 0.805506 -0.133366 0.577349 0.805506 -0.133366 0.577349 -0.133366 -0.805506 0.577349 -0.133366 -0.805506 0.577349 0.805506 -0.133366 0.577349 0.133366 0.805506 0.577349 -0.805506 0.133366 0.577349 -0.805506 0.133366 0.577349 0.133366 0.805506 -0.577349 0.133366 0.805506 -0.577349 -0.805506 0.133366 -0.577349 -0.133366 -0.805506 0.577349 -0.133366 -0.805506 0.577349 -0.805506 0.133366 -0.577349 -0.805506 0.133366 0.577349 0.805506 -0.133366 0.577349 0.133366 0.805506 " />
								<TextureCoordinate point="0.0345 0.5266 0.4635 0.5266 0.4635 0.9557 0.0345 0.9557 0.0345 0.5266 0.4635 0.5266 0.4635 0.9557 0.0345 0.9557 0.0345 0.5266 0.4635 0.5266 0.4635 0.9557 0.0345 0.9557 0.0345 0.5266 0.4635 0.5266 0.4635 0.9557 0.0345 0.9557 0.5797 0.5748 0.9419 0.5748 0.9419 0.9370 0.5797 0.9370 0.0345 0.5266 0.0345 0.9557 " />
							</IndexedTriangleSet>
						</Shape>
					</Group>
				</Transform>
				<Transform DEF="Cube_002_TRANSFORM"
				           translation="0.000000 -0.271576 0.627347"
				           scale="1.000000 1.000000 1.000000"
				           rotation="0.000000 1.000000 0.000000 0.000000"
				           >
					<Transform DEF="Cube_002_ifs_TRANSFORM"
					           translation="0.000000 0.000000 0.000000"
					           scale="1.000000 1.000000 1.000000"
					           rotation="0.000000 1.000000 0.000000 0.000000"
					           >
						<Group DEF="group_ME_Cube_012">
							<Shape>
								<Appearance>
									<Material USE="MA_Body" />
								</Appearance>
								<IndexedTriangleSet solid="false"
								                    normalPerVertex="true"
								                    index="0 1 2 0 2 3 4 5 6 4 6 7 8 9 10 8 10 11 12 13 14 12 14 15 4 16 17 4 17 15 18 5 14 18 14 19 "
								                    >
									<Coordinate point="-0.180408 0.645158 0.187066 -0.180408 0.556912 -0.375596 -0.180408 -0.044123 -0.281331 -0.180408 0.044123 0.281331 -0.180408 0.044123 0.281331 -0.180408 -0.044123 -0.281331 0.180408 -0.044123 -0.281331 0.180408 0.044123 0.281331 0.180408 0.044123 0.281331 0.180408 -0.044123 -0.281331 0.180408 0.556912 -0.375596 0.180408 0.645158 0.187066 0.180408 0.645158 0.187066 0.180408 0.556912 -0.375596 -0.180408 0.556912 -0.375596 -0.180408 0.645158 0.187066 0.180408 0.044123 0.281331 0.180408 0.645158 0.187066 0.180408 -0.044123 -0.281331 0.180408 0.556912 -0.375596 " />
									<Normal vector="-0.577349 0.659810 0.480911 -0.577349 0.480911 -0.659810 -0.577349 -0.659810 -0.480911 -0.577349 -0.480911 0.659810 -0.577349 -0.480911 0.659810 -0.577349 -0.659810 -0.480911 0.577349 -0.659810 -0.480911 0.577349 -0.480911 0.659810 0.577349 -0.480911 0.659810 0.577349 -0.659810 -0.480911 0.577349 0.480911 -0.659810 0.577349 0.659810 0.480911 0.577349 0.659810 0.480911 0.577349 0.480911 -0.659810 -0.577349 0.480911 -0.659810 -0.577349 0.659810 0.480911 0.577349 -0.480911 0.659810 0.577349 0.659810 0.480911 0.577349 -0.659810 -0.480911 0.577349 0.480911 -0.659810 " />
									<TextureCoordinate point="0.0345 0.5266 0.4635 0.5266 0.4635 0.9557 0.0345 0.9557 0.0345 0.5266 0.4635 0.5266 0.4635 0.9557 0.0345 0.9557 0.0345 0.5266 0.4635 0.5266 0.4635 0.9557 0.0345 0.9557 0.0345 0.5266 0.4635 0.5266 0.4635 0.9557 0.0345 0.9557 0.4635 0.5266 0.4635 0.9557 0.0345 0.5266 0.0345 0.9557 " />
								</IndexedTriangleSet>
							</Shape>
						</Group>
					</Transform>
				</Transform>
				<Transform DEF="Cube_004_TRANSFORM"
				           translation="0.171927 -0.525892 0.176731"
				           scale="1.000000 1.000000 1.000000"
				           rotation="0.000000 1.000000 0.000000 0.000000"
				           >
					<Transform DEF="Cube_004_ifs_TRANSFORM"
					           translation="0.000000 0.000000 0.000000"
					           scale="1.000000 1.000000 1.000000"
					           rotation="0.000000 1.000000 0.000000 0.000000"
					           >
						<Group DEF="group_ME_Cube_014">
							<Shape>
								<Appearance>
									<Material USE="MA_Body" />
								</Appearance>
								<IndexedTriangleSet solid="false"
								                    normalPerVertex="true"
								                    index="0 1 2 0 2 3 4 5 6 4 6 7 8 9 10 8 10 11 12 13 14 12 14 15 16 17 18 16 18 19 20 21 22 20 22 23 "
								                    >
									<Coordinate point="0.200297 -0.021681 -0.549071 0.200297 -0.547689 -0.044559 -0.128008 -0.416513 0.092206 -0.128008 0.109495 -0.412306 -0.128008 0.109495 -0.412306 -0.128008 -0.416513 0.092206 0.128008 -0.109495 0.412306 0.128008 0.416513 -0.092206 0.128008 0.416513 -0.092206 0.128008 -0.109495 0.412306 0.456314 -0.240671 0.275541 0.456314 0.285337 -0.228971 0.456314 0.285337 -0.228971 0.456314 -0.240671 0.275541 0.200297 -0.547689 -0.044559 0.200297 -0.021681 -0.549071 -0.128008 0.109495 -0.412306 0.128008 0.416513 -0.092206 0.456314 0.285337 -0.228971 0.200297 -0.021681 -0.549071 0.128008 -0.109495 0.412306 -0.128008 -0.416513 0.092206 0.200297 -0.547689 -0.044559 0.456314 -0.240671 0.275541 " />
									<Normal vector="0.211402 -0.129215 -0.968810 0.211402 -0.962584 -0.169500 -0.788629 -0.563005 0.247047 -0.788629 0.270333 -0.552202 -0.788629 0.270333 -0.552202 -0.788629 -0.563005 0.247047 -0.211402 0.129215 0.968810 -0.211402 0.962584 0.169500 -0.211402 0.962584 0.169500 -0.211402 0.129215 0.968810 0.788629 -0.270333 0.552202 0.788629 0.563005 -0.247047 0.788629 0.563005 -0.247047 0.788629 -0.270333 0.552202 0.211402 -0.962584 -0.169500 0.211402 -0.129215 -0.968810 -0.788629 0.270333 -0.552202 -0.211402 0.962584 0.169500 0.788629 0.563005 -0.247047 0.211402 -0.129215 -0.968810 -0.211402 0.129215 0.968810 -0.788629 -0.563005 0.247047 0.211402 -0.962584 -0.169500 0.788629 -0.270333 0.552202 " />
									<TextureCoordinate point="0.5923 0.5677 0.9490 0.5677 0.9490 0.9244 0.5923 0.9244 0.0345 0.5266 0.4635 0.5266 0.4635 0.9557 0.0345 0.9557 0.5923 0.5677 0.9490 0.5677 0.9490 0.9244 0.5923 0.9244 0.0345 0.5266 0.4635 0.5266 0.4635 0.9557 0.0345 0.9557 0.5923 0.5677 0.9490 0.5677 0.9490 0.9244 0.5923 0.9244 0.5923 0.5677 0.9490 0.5677 0.9490 0.9244 0.5923 0.9244 " />
								</IndexedTriangleSet>
							</Shape>
						</Group>
					</Transform>
				</Transform>
				<Transform DEF="Cube_005_TRANSFORM"
				           translation="0.000000 -0.697157 -0.179504"
				           scale="1.000000 1.000000 1.000000"
				           rotation="0.000000 1.000000 0.000000 0.000000"
				           >
					<Transform DEF="Cube_005_ifs_TRANSFORM"
					           translation="0.000000 0.000000 0.000000"
					           scale="1.000000 1.000000 1.000000"
					           rotation="0.000000 1.000000 0.000000 0.000000"
					           >
						<Group DEF="group_ME_Cube_015">
							<Shape>
								<Appearance>
									<Material USE="MA_Body" />
								</Appearance>
								<IndexedTriangleSet solid="false"
								                    normalPerVertex="true"
								                    index="0 1 2 0 2 3 4 5 6 4 6 7 8 9 10 8 10 11 12 13 14 12 14 15 4 16 17 4 17 15 18 5 14 18 14 19 "
								                    >
									<Coordinate point="-0.364952 -0.542377 0.574339 -0.364952 -0.210451 0.761412 -0.364952 0.165963 0.093536 -0.364952 -0.165963 -0.093536 -0.364952 -0.165963 -0.093536 -0.364952 0.165963 0.093536 0.364952 0.165963 0.093536 0.364952 -0.165963 -0.093536 0.364952 -0.165963 -0.093536 0.364952 0.165963 0.093536 0.364952 -0.210451 0.761412 0.364952 -0.542377 0.574339 0.364952 -0.542377 0.574339 0.364952 -0.210451 0.761412 -0.364952 -0.210451 0.761412 -0.364952 -0.542377 0.574339 0.364952 -0.165963 -0.093536 0.364952 -0.542377 0.574339 0.364952 0.165963 0.093536 0.364952 -0.210451 0.761412 " />
									<Normal vector="-0.577349 -0.786431 0.219489 -0.577349 0.219489 0.786431 -0.577349 0.786431 -0.219489 -0.577349 -0.219489 -0.786431 -0.577349 -0.219489 -0.786431 -0.577349 0.786431 -0.219489 0.577349 0.786431 -0.219489 0.577349 -0.219489 -0.786431 0.577349 -0.219489 -0.786431 0.577349 0.786431 -0.219489 0.577349 0.219489 0.786431 0.577349 -0.786431 0.219489 0.577349 -0.786431 0.219489 0.577349 0.219489 0.786431 -0.577349 0.219489 0.786431 -0.577349 -0.786431 0.219489 0.577349 -0.219489 -0.786431 0.577349 -0.786431 0.219489 0.577349 0.786431 -0.219489 0.577349 0.219489 0.786431 " />
									<TextureCoordinate point="0.0345 0.5266 0.4635 0.5266 0.4635 0.9557 0.0345 0.9557 0.0345 0.5266 0.4635 0.5266 0.4635 0.9557 0.0345 0.9557 0.0345 0.5266 0.4635 0.5266 0.4635 0.9557 0.0345 0.9557 0.0345 0.5266 0.4635 0.5266 0.4635 0.9557 0.0345 0.9557 0.4635 0.5266 0.4635 0.9557 0.0345 0.5266 0.0345 0.9557 " />
								</IndexedTriangleSet>
							</Shape>
						</Group>
					</Transform>
				</Transform>
				<Transform DEF="Cube_016_TRANSFORM"
				           translation="-0.171927 -0.525892 0.176731"
				           scale="1.000000 1.000000 1.000000"
				           rotation="0.000000 1.000000 0.000000 0.000000"
				           >
					<Transform DEF="Cube_016_ifs_TRANSFORM"
					           translation="0.000000 0.000000 0.000000"
					           scale="1.000000 1.000000 1.000000"
					           rotation="0.000000 1.000000 0.000000 0.000000"
					           >
						<Group DEF="group_ME_Cube_007">
							<Shape>
								<Appearance>
									<Material USE="MA_Body" />
								</Appearance>
								<IndexedTriangleSet solid="false"
								                    normalPerVertex="true"
								                    index="0 1 2 0 2 3 4 5 6 4 6 7 8 9 10 8 10 11 12 13 14 12 14 15 16 17 18 16 18 19 20 21 22 20 22 23 "
								                    >
									<Coordinate point="-0.200297 -0.021681 -0.549071 0.128008 0.109495 -0.412306 0.128008 -0.416513 0.092206 -0.200297 -0.547689 -0.044559 0.128008 0.109495 -0.412306 -0.128008 0.416513 -0.092206 -0.128008 -0.109495 0.412306 0.128008 -0.416513 0.092206 -0.128008 0.416513 -0.092206 -0.456314 0.285337 -0.228971 -0.456314 -0.240671 0.275541 -0.128008 -0.109495 0.412306 -0.456314 0.285337 -0.228971 -0.200297 -0.021681 -0.549071 -0.200297 -0.547689 -0.044559 -0.456314 -0.240671 0.275541 0.128008 0.109495 -0.412306 -0.200297 -0.021681 -0.549071 -0.456314 0.285337 -0.228971 -0.128008 0.416513 -0.092206 -0.128008 -0.109495 0.412306 -0.456314 -0.240671 0.275541 -0.200297 -0.547689 -0.044559 0.128008 -0.416513 0.092206 " />
									<Normal vector="-0.211402 -0.129215 -0.968810 0.788629 0.270333 -0.552202 0.788629 -0.563005 0.247047 -0.211402 -0.962584 -0.169500 0.788629 0.270333 -0.552202 0.211402 0.962584 0.169500 0.211402 0.129215 0.968810 0.788629 -0.563005 0.247047 0.211402 0.962584 0.169500 -0.788629 0.563005 -0.247047 -0.788629 -0.270333 0.552202 0.211402 0.129215 0.968810 -0.788629 0.563005 -0.247047 -0.211402 -0.129215 -0.968810 -0.211402 -0.962584 -0.169500 -0.788629 -0.270333 0.552202 0.788629 0.270333 -0.552202 -0.211402 -0.129215 -0.968810 -0.788629 0.563005 -0.247047 0.211402 0.962584 0.169500 0.211402 0.129215 0.968810 -0.788629 -0.270333 0.552202 -0.211402 -0.962584 -0.169500 0.788629 -0.563005 0.247047 " />
									<TextureCoordinate point="0.5923 0.5677 0.5923 0.9244 0.9490 0.9244 0.9490 0.5677 0.0345 0.5266 0.0345 0.9557 0.4635 0.9557 0.4635 0.5266 0.5923 0.5677 0.5923 0.9244 0.9490 0.9244 0.9490 0.5677 0.0345 0.5266 0.0345 0.9557 0.4635 0.9557 0.4635 0.5266 0.5923 0.5677 0.5923 0.9244 0.9490 0.9244 0.9490 0.5677 0.5923 0.5677 0.5923 0.9244 0.9490 0.9244 0.9490 0.5677 " />
								</IndexedTriangleSet>
							</Shape>
						</Group>
					</Transform>
				</Transform>
			</Transform>
			<Transform DEF="Cube_003_TRANSFORM"
			           translation="0.000000 -0.177894 -0.352619"
			           scale="1.000000 1.000000 1.000000"
			           rotation="0.000000 1.000000 0.000000 0.000000"
			           >
				<Transform DEF="Cube_003_ifs_TRANSFORM"
				           translation="0.000000 0.000000 0.000000"
				           scale="1.000000 1.000000 1.000000"
				           rotation="0.000000 1.000000 0.000000 0.000000"
				           >
					<Group DEF="group_ME_Cube_013">
						<Shape>
							<Appearance>
								<Material USE="MA_Body" />
							</Appearance>
							<IndexedTriangleSet solid="false"
							                    normalPerVertex="true"
							                    index="0 1 2 0 2 3 4 5 6 4 6 7 8 9 10 8 10 11 12 13 14 12 14 15 16 17 18 16 18 19 20 21 22 20 22 23 "
							                    >
								<Coordinate point="-0.375191 -0.797792 0.159411 -0.375191 -0.700937 0.413002 -0.375191 0.048427 0.126796 -0.375191 -0.048427 -0.126796 -0.375191 -0.048427 -0.126796 -0.375191 0.048427 0.126796 0.375191 0.048427 0.126796 0.375191 -0.048427 -0.126796 0.375191 -0.048427 -0.126796 0.375191 0.048427 0.126796 0.375191 -0.700937 0.413002 0.375191 -0.797792 0.159411 0.375191 -0.797792 0.159411 0.375191 -0.700937 0.413002 -0.375191 -0.700937 0.413002 -0.375191 -0.797792 0.159411 -0.375191 -0.048427 -0.126796 0.375191 -0.048427 -0.126796 0.375191 -0.797792 0.159411 -0.375191 -0.797792 0.159411 0.375191 0.048427 0.126796 -0.375191 0.048427 0.126796 -0.375191 -0.700937 0.413002 0.375191 -0.700937 0.413002 " />
								<Normal vector="-0.577349 -0.745323 -0.333354 -0.577349 -0.333354 0.745323 -0.577349 0.745323 0.333354 -0.577349 0.333354 -0.745323 -0.577349 0.333354 -0.745323 -0.577349 0.745323 0.333354 0.577349 0.745323 0.333354 0.577349 0.333354 -0.745323 0.577349 0.333354 -0.745323 0.577349 0.745323 0.333354 0.577349 -0.333354 0.745323 0.577349 -0.745323 -0.333354 0.577349 -0.745323 -0.333354 0.577349 -0.333354 0.745323 -0.577349 -0.333354 0.745323 -0.577349 -0.745323 -0.333354 -0.577349 0.333354 -0.745323 0.577349 0.333354 -0.745323 0.577349 -0.745323 -0.333354 -0.577349 -0.745323 -0.333354 0.577349 0.745323 0.333354 -0.577349 0.745323 0.333354 -0.577349 -0.333354 0.745323 0.577349 -0.333354 0.745323 " />
								<TextureCoordinate point="0.6141 0.5845 0.9273 0.5845 0.9273 0.8978 0.6141 0.8978 0.6141 0.5845 0.9273 0.5845 0.9273 0.8978 0.6141 0.8978 0.6141 0.5845 0.9273 0.5845 0.9273 0.8978 0.6141 0.8978 0.6141 0.5845 0.9273 0.5845 0.9273 0.8978 0.6141 0.8978 0.0345 0.5266 0.4635 0.5266 0.4635 0.9557 0.0345 0.9557 0.0345 0.5266 0.4635 0.5266 0.4635 0.9557 0.0345 0.9557 " />
							</IndexedTriangleSet>
						</Shape>
					</Group>
				</Transform>
				<Transform DEF="Cube_010_TRANSFORM"
				           translation="0.000000 -0.044212 -0.005693"
				           scale="1.000000 1.000000 1.000000"
				           rotation="0.000000 1.000000 0.000000 0.000000"
				           >
					<Transform DEF="Cube_010_ifs_TRANSFORM"
					           translation="0.000000 0.000000 0.000000"
					           scale="1.000000 1.000000 1.000000"
					           rotation="0.000000 1.000000 0.000000 0.000000"
					           >
						<Group DEF="group_ME_Cube_020">
							<Shape>
								<Appearance>
									<Material USE="MA_Body" />
								</Appearance>
								<IndexedTriangleSet solid="false"
								                    normalPerVertex="true"
								                    index="0 1 2 0 2 3 4 5 6 4 6 7 8 9 10 8 10 11 12 13 14 12 14 15 4 16 17 4 17 15 18 5 14 18 14 19 "
								                    >
									<Coordinate point="-0.266192 0.608599 0.041340 -0.266192 0.595218 -0.133482 -0.266192 -0.006691 -0.087411 -0.266192 0.006691 0.087411 -0.266192 0.006691 0.087411 -0.266192 -0.006691 -0.087411 0.266192 -0.006691 -0.087411 0.266192 0.006691 0.087411 0.266192 0.006691 0.087411 0.266192 -0.006691 -0.087411 0.266192 0.595218 -0.133482 0.266192 0.608599 0.041340 0.266192 0.608599 0.041340 0.266192 0.595218 -0.133482 -0.266192 0.595218 -0.133482 -0.266192 0.608599 0.041340 0.266192 0.006691 0.087411 0.266192 0.608599 0.041340 0.266192 -0.006691 -0.087411 0.266192 0.595218 -0.133482 " />
									<Normal vector="-0.577349 0.619709 0.531602 -0.577349 0.531602 -0.619709 -0.577349 -0.619709 -0.531602 -0.577349 -0.531602 0.619709 -0.577349 -0.531602 0.619709 -0.577349 -0.619709 -0.531602 0.577349 -0.619709 -0.531602 0.577349 -0.531602 0.619709 0.577349 -0.531602 0.619709 0.577349 -0.619709 -0.531602 0.577349 0.531602 -0.619709 0.577349 0.619709 0.531602 0.577349 0.619709 0.531602 0.577349 0.531602 -0.619709 -0.577349 0.531602 -0.619709 -0.577349 0.619709 0.531602 0.577349 -0.531602 0.619709 0.577349 0.619709 0.531602 0.577349 -0.619709 -0.531602 0.577349 0.531602 -0.619709 " />
									<TextureCoordinate point="0.0345 0.5266 0.4635 0.5266 0.4635 0.9557 0.0345 0.9557 0.0345 0.5266 0.4635 0.5266 0.4635 0.9557 0.0345 0.9557 0.0345 0.5266 0.4635 0.5266 0.4635 0.9557 0.0345 0.9557 0.0345 0.5266 0.4635 0.5266 0.4635 0.9557 0.0345 0.9557 0.4635 0.5266 0.4635 0.9557 0.0345 0.5266 0.0345 0.9557 " />
								</IndexedTriangleSet>
							</Shape>
						</Group>
					</Transform>
				</Transform>
			</Transform>
			<Transform DEF="Cube_007_TRANSFORM"
			           translation="0.000000 -0.885166 0.691880"
			           scale="1.000000 1.000000 1.000000"
			           rotation="0.000000 1.000000 0.000000 0.000000"
			           >
				<Transform DEF="Cube_007_ifs_TRANSFORM"
				           translation="0.000000 0.000000 0.000000"
				           scale="1.000000 1.000000 1.000000"
				           rotation="0.000000 1.000000 0.000000 0.000000"
				           >
					<Group DEF="group_ME_Cube_017">
						<Shape>
							<Appearance>
								<Material USE="MA_Body" />
							</Appearance>
							<IndexedTriangleSet solid="false"
							                    normalPerVertex="true"
							                    index="0 1 2 0 2 3 4 5 6 4 6 7 8 9 10 8 10 11 12 13 14 12 14 15 4 16 17 4 17 15 18 5 14 18 14 19 "
							                    >
								<Coordinate point="-0.379257 -0.609754 0.494206 -0.379257 0.312046 0.720186 -0.379257 0.460900 0.112990 -0.379257 -0.460900 -0.112990 -0.379257 -0.460900 -0.112990 -0.379257 0.460900 0.112990 0.379257 0.460900 0.112990 0.379257 -0.460900 -0.112990 0.379257 -0.460900 -0.112990 0.379257 0.460900 0.112990 0.379257 0.312046 0.720186 0.379257 -0.609754 0.494206 0.379257 -0.609754 0.494206 0.379257 0.312046 0.720186 -0.379257 0.312046 0.720186 -0.379257 -0.609754 0.494206 0.379257 -0.460900 -0.112990 0.379257 -0.609754 0.494206 0.379257 0.460900 0.112990 0.379257 0.312046 0.720186 " />
								<Normal vector="-0.577349 -0.698202 0.423261 -0.577349 0.423261 0.698202 -0.577349 0.698202 -0.423261 -0.577349 -0.423261 -0.698202 -0.577349 -0.423261 -0.698202 -0.577349 0.698202 -0.423261 0.577349 0.698202 -0.423261 0.577349 -0.423261 -0.698202 0.577349 -0.423261 -0.698202 0.577349 0.698202 -0.423261 0.577349 0.423261 0.698202 0.577349 -0.698202 0.423261 0.577349 -0.698202 0.423261 0.577349 0.423261 0.698202 -0.577349 0.423261 0.698202 -0.577349 -0.698202 0.423261 0.577349 -0.423261 -0.698202 0.577349 -0.698202 0.423261 0.577349 0.698202 -0.423261 0.577349 0.423261 0.698202 " />
								<TextureCoordinate point="0.0345 0.5266 0.4635 0.5266 0.4635 0.9557 0.0345 0.9557 0.0345 0.5266 0.4635 0.5266 0.4635 0.9557 0.0345 0.9557 0.0345 0.5266 0.4635 0.5266 0.4635 0.9557 0.0345 0.9557 0.0345 0.5266 0.4635 0.5266 0.4635 0.9557 0.0345 0.9557 0.4635 0.5266 0.4635 0.9557 0.0345 0.5266 0.0345 0.9557 " />
							</IndexedTriangleSet>
						</Shape>
					</Group>
				</Transform>
				<Transform DEF="Cube_006_TRANSFORM"
				           translation="0.000000 -0.091953 0.505035"
				           scale="1.000000 1.000000 1.000000"
				           rotation="0.000000 1.000000 0.000000 0.000000"
				           >
					<Transform DEF="Cube_006_ifs_TRANSFORM"
					           translation="0.000000 0.000000 0.000000"
					           scale="1.000000 1.000000 1.000000"
					           rotation="0.000000 1.000000 0.000000 0.000000"
					           >
						<Group DEF="group_ME_Cube_016">
							<Shape>
								<Appearance>
									<Material USE="MA_Body" />
								</Appearance>
								<IndexedTriangleSet solid="false"
								                    normalPerVertex="true"
								                    index="0 1 2 0 2 3 4 5 6 4 6 7 8 9 10 8 10 11 12 13 14 12 14 15 4 16 17 4 17 15 18 5 14 18 14 19 "
								                    >
									<Coordinate point="-0.291723 -0.292949 0.296856 -0.291723 0.246423 0.336480 -0.291723 0.269686 0.019812 -0.291723 -0.269686 -0.019812 -0.291723 -0.269686 -0.019812 -0.291723 0.269686 0.019812 0.291723 0.269686 0.019812 0.291723 -0.269686 -0.019812 0.291723 -0.269686 -0.019812 0.291723 0.269686 0.019812 0.291723 0.246423 0.336480 0.291723 -0.292949 0.296856 0.291723 -0.292949 0.296856 0.291723 0.246423 0.336480 -0.291723 0.246423 0.336480 -0.291723 -0.292949 0.296856 0.291723 -0.269686 -0.019812 0.291723 -0.292949 0.296856 0.291723 0.269686 0.019812 0.291723 0.246423 0.336480 " />
									<Normal vector="-0.577349 -0.618091 0.533494 -0.577349 0.533494 0.618091 -0.577349 0.618091 -0.533494 -0.577349 -0.533494 -0.618091 -0.577349 -0.533494 -0.618091 -0.577349 0.618091 -0.533494 0.577349 0.618091 -0.533494 0.577349 -0.533494 -0.618091 0.577349 -0.533494 -0.618091 0.577349 0.618091 -0.533494 0.577349 0.533494 0.618091 0.577349 -0.618091 0.533494 0.577349 -0.618091 0.533494 0.577349 0.533494 0.618091 -0.577349 0.533494 0.618091 -0.577349 -0.618091 0.533494 0.577349 -0.533494 -0.618091 0.577349 -0.618091 0.533494 0.577349 0.618091 -0.533494 0.577349 0.533494 0.618091 " />
									<TextureCoordinate point="0.0345 0.5266 0.4635 0.5266 0.4635 0.9557 0.0345 0.9557 0.0345 0.5266 0.4635 0.5266 0.4635 0.9557 0.0345 0.9557 0.0345 0.5266 0.4635 0.5266 0.4635 0.9557 0.0345 0.9557 0.0345 0.5266 0.4635 0.5266 0.4635 0.9557 0.0345 0.9557 0.4635 0.5266 0.4635 0.9557 0.0345 0.5266 0.0345 0.9557 " />
								</IndexedTriangleSet>
							</Shape>
						</Group>
					</Transform>
					<Transform DEF="Cube_015_TRANSFORM"
					           translation="0.000000 -0.013567 0.261228"
					           scale="1.000000 1.000000 1.000000"
					           rotation="0.000000 1.000000 0.000000 0.000000"
					           >
						<Transform DEF="Cube_015_ifs_TRANSFORM"
						           translation="0.000000 0.000000 0.000000"
						           scale="1.000000 1.000000 1.000000"
						           rotation="0.000000 1.000000 0.000000 0.000000"
						           >
							<Group DEF="group_ME_Cube_025">
								<Shape>
									<Appearance>
										<Material USE="MA_Body" />
									</Appearance>
									<IndexedTriangleSet solid="false"
									                    normalPerVertex="true"
									                    index="0 1 2 0 2 3 4 5 6 4 6 7 8 9 10 8 10 11 12 13 14 12 14 15 4 16 17 4 17 15 18 5 14 18 14 19 "
									                    >
										<Coordinate point="-0.168398 -0.286460 0.392437 -0.168398 0.077980 0.479568 -0.168398 0.182220 0.043565 -0.168398 -0.182220 -0.043565 -0.168398 -0.182220 -0.043565 -0.168398 0.182220 0.043565 0.168398 0.182220 0.043565 0.168398 -0.182220 -0.043565 0.168398 -0.182220 -0.043565 0.168398 0.182220 0.043565 0.168398 0.077980 0.479568 0.168398 -0.286460 0.392437 0.168398 -0.286460 0.392437 0.168398 0.077980 0.479568 -0.168398 0.077980 0.479568 -0.168398 -0.286460 0.392437 0.168398 -0.182220 -0.043565 0.168398 -0.286460 0.392437 0.168398 0.182220 0.043565 0.168398 0.077980 0.479568 " />
										<Normal vector="-0.577349 -0.695761 0.427259 -0.577349 0.427259 0.695761 -0.577349 0.695761 -0.427259 -0.577349 -0.427259 -0.695761 -0.577349 -0.427259 -0.695761 -0.577349 0.695761 -0.427259 0.577349 0.695761 -0.427259 0.577349 -0.427259 -0.695761 0.577349 -0.427259 -0.695761 0.577349 0.695761 -0.427259 0.577349 0.427259 0.695761 0.577349 -0.695761 0.427259 0.577349 -0.695761 0.427259 0.577349 0.427259 0.695761 -0.577349 0.427259 0.695761 -0.577349 -0.695761 0.427259 0.577349 -0.427259 -0.695761 0.577349 -0.695761 0.427259 0.577349 0.695761 -0.427259 0.577349 0.427259 0.695761 " />
										<TextureCoordinate point="0.0345 0.5266 0.4635 0.5266 0.4635 0.9557 0.0345 0.9557 0.0345 0.5266 0.4635 0.5266 0.4635 0.9557 0.0345 0.9557 0.0345 0.5266 0.4635 0.5266 0.4635 0.9557 0.0345 0.9557 0.0345 0.5266 0.4635 0.5266 0.4635 0.9557 0.0345 0.9557 0.4635 0.5266 0.4635 0.9557 0.0345 0.5266 0.0345 0.9557 " />
									</IndexedTriangleSet>
								</Shape>
							</Group>
						</Transform>
					</Transform>
				</Transform>
				<Transform DEF="Cube_014_TRANSFORM"
				           translation="0.308424 -0.041273 0.415313"
				           scale="1.000000 1.000000 1.000000"
				           rotation="0.000000 1.000000 0.000000 0.000000"
				           >
					<Transform DEF="Cube_014_ifs_TRANSFORM"
					           translation="0.000000 0.000000 0.000000"
					           scale="1.000000 1.000000 1.000000"
					           rotation="0.000000 1.000000 0.000000 0.000000"
					           >
						<Group DEF="group_ME_Cube_024">
							<Shape>
								<Appearance>
									<Material DEF="MA_Eye"
									          diffuseColor="0.800 0.800 0.800"
									          specularColor="0.401 0.401 0.401"
									          emissiveColor="0.000 0.000 0.000"
									          ambientIntensity="0.000"
									          shininess="0.500"
									          transparency="0.0"
									          />
								</Appearance>
								<IndexedTriangleSet solid="false"
								                    normalPerVertex="true"
								                    index="0 1 2 0 2 3 4 5 6 4 6 7 8 9 10 8 10 11 12 13 14 12 14 15 16 17 18 16 18 19 20 21 14 20 14 22 23 24 25 23 25 26 27 28 29 27 29 30 31 32 33 31 33 34 35 36 37 35 37 38 39 40 41 39 41 42 43 44 45 43 45 46 47 48 49 47 49 50 51 52 53 51 53 54 55 5 56 55 56 57 58 1 59 58 59 60 61 62 63 61 63 64 65 66 67 65 67 68 69 70 71 69 71 72 73 74 75 73 75 76 77 78 59 77 59 79 80 21 56 80 56 81 82 83 84 82 84 85 86 87 88 86 88 89 90 91 92 90 92 93 94 95 96 94 96 97 98 99 100 98 100 101 61 102 103 61 103 104 105 106 107 105 107 108 109 110 111 109 111 19 "
								                    >
									<Coordinate point="0.011468 0.052339 0.059365 0.005415 0.022141 0.184603 0.032562 0.147825 0.216221 0.038616 0.178023 0.090983 0.038616 0.178023 0.090983 0.032562 0.147825 0.216221 0.152883 0.121942 0.215797 0.158937 0.152141 0.090559 0.104641 -0.099227 0.027322 0.098588 -0.129426 0.152560 0.071440 -0.255110 0.120941 0.077494 -0.224911 -0.004297 0.077494 -0.224911 -0.004297 0.071440 -0.255110 0.120941 -0.048881 -0.229227 0.121366 -0.042827 -0.199029 -0.003872 -0.005415 -0.022141 -0.184603 0.114906 -0.048023 -0.185028 0.087758 -0.173707 -0.216646 -0.032562 -0.147825 -0.216221 0.098588 -0.129426 0.152560 -0.021733 -0.103543 0.152985 0.071440 -0.255110 0.120941 0.082264 -0.201116 -0.102977 0.077494 -0.224911 -0.004297 -0.042827 -0.199029 -0.003872 -0.038057 -0.175234 -0.102552 0.109412 -0.075432 -0.071358 0.104641 -0.099227 0.027322 0.077494 -0.224911 -0.004297 0.082264 -0.201116 -0.102977 0.043386 0.201818 -0.007697 0.038616 0.178023 0.090983 0.158937 0.152141 0.090559 0.163707 0.175936 -0.008122 0.016239 0.076134 -0.039315 0.011468 0.052339 0.059365 0.038616 0.178023 0.090983 0.043386 0.201818 -0.007697 -0.038057 -0.175234 -0.102552 -0.042827 -0.199029 -0.003872 -0.015679 -0.073345 0.027747 -0.010909 -0.049550 -0.070933 -0.010909 -0.049550 -0.070933 -0.015679 -0.073345 0.027747 0.011468 0.052339 0.059365 0.016239 0.076134 -0.039315 0.163707 0.175936 -0.008122 0.158937 0.152141 0.090559 0.131789 0.026457 0.058940 0.136559 0.050252 -0.039740 0.136559 0.050252 -0.039740 0.131789 0.026457 0.058940 0.104641 -0.099227 0.027322 0.109412 -0.075432 -0.071358 0.152883 0.121942 0.215797 0.005415 0.022141 0.184603 0.125735 -0.003742 0.184178 0.125735 -0.003742 0.184178 -0.021733 -0.103543 0.152985 0.098588 -0.129426 0.152560 0.048881 0.229227 -0.121366 0.169202 0.203345 -0.121791 0.142054 0.077661 -0.153410 0.021733 0.103543 -0.152985 0.021733 0.103543 -0.152985 0.142054 0.077661 -0.153410 0.114906 -0.048023 -0.185028 -0.005415 -0.022141 -0.184603 0.158937 0.152141 0.090559 0.152883 0.121942 0.215797 0.125735 -0.003742 0.184178 0.131789 0.026457 0.058940 0.131789 0.026457 0.058940 0.125735 -0.003742 0.184178 0.098588 -0.129426 0.152560 0.104641 -0.099227 0.027322 -0.042827 -0.199029 -0.003872 -0.048881 -0.229227 0.121366 -0.015679 -0.073345 0.027747 -0.015679 -0.073345 0.027747 0.011468 0.052339 0.059365 0.142054 0.077661 -0.153410 0.136559 0.050252 -0.039740 0.109412 -0.075432 -0.071358 0.114906 -0.048023 -0.185028 0.169202 0.203345 -0.121791 0.163707 0.175936 -0.008122 0.136559 0.050252 -0.039740 0.142054 0.077661 -0.153410 -0.005415 -0.022141 -0.184603 -0.010909 -0.049550 -0.070933 0.016239 0.076134 -0.039315 0.021733 0.103543 -0.152985 -0.032562 -0.147825 -0.216221 -0.038057 -0.175234 -0.102552 -0.010909 -0.049550 -0.070933 -0.005415 -0.022141 -0.184603 0.021733 0.103543 -0.152985 0.016239 0.076134 -0.039315 0.043386 0.201818 -0.007697 0.048881 0.229227 -0.121366 0.043386 0.201818 -0.007697 0.163707 0.175936 -0.008122 0.169202 0.203345 -0.121791 0.114906 -0.048023 -0.185028 0.109412 -0.075432 -0.071358 0.082264 -0.201116 -0.102977 0.087758 -0.173707 -0.216646 0.087758 -0.173707 -0.216646 0.082264 -0.201116 -0.102977 -0.038057 -0.175234 -0.102552 " />
									<Normal vector="-0.977630 0.210273 0.003449 -0.724479 -0.016846 0.689077 -0.473159 0.534227 0.700491 -0.546312 0.819849 0.171270 -0.546312 0.819849 0.171270 -0.473159 0.534227 0.700491 0.655690 0.291391 0.696493 0.836238 0.522446 0.166387 0.977630 -0.210273 -0.003449 0.658071 -0.314249 0.684194 0.418958 -0.804590 0.420759 0.546312 -0.819849 -0.171270 0.546312 -0.819849 -0.171270 0.418958 -0.804590 0.420759 -0.709891 -0.561754 0.424757 -0.836238 -0.522446 -0.166387 -0.658071 0.314249 -0.684194 0.724479 0.016846 -0.689077 0.473159 -0.534227 -0.700491 -0.655690 -0.291391 -0.696493 0.658071 -0.314249 0.684194 -0.724479 -0.016846 0.689077 0.418958 -0.804590 0.420759 0.546312 -0.819849 -0.171270 0.546312 -0.819849 -0.171270 -0.836238 -0.522446 -0.166387 -0.836238 -0.522446 -0.166387 0.977630 -0.210273 -0.003449 0.977630 -0.210273 -0.003449 0.546312 -0.819849 -0.171270 0.546312 -0.819849 -0.171270 -0.546312 0.819849 0.171270 -0.546312 0.819849 0.171270 0.836238 0.522446 0.166387 0.836238 0.522446 0.166387 -0.977630 0.210273 0.003449 -0.977630 0.210273 0.003449 -0.546312 0.819849 0.171270 -0.546312 0.819849 0.171270 -0.836238 -0.522446 -0.166387 -0.836238 -0.522446 -0.166387 -0.977630 0.210273 0.003449 -0.977630 0.210273 0.003449 -0.977630 0.210273 0.003449 -0.977630 0.210273 0.003449 -0.977630 0.210273 0.003449 -0.977630 0.210273 0.003449 0.836238 0.522446 0.166387 0.836238 0.522446 0.166387 0.977630 -0.210273 -0.003449 0.977630 -0.210273 -0.003449 0.977630 -0.210273 -0.003449 0.977630 -0.210273 -0.003449 0.977630 -0.210273 -0.003449 0.977630 -0.210273 -0.003449 0.655690 0.291391 0.696493 -0.724479 -0.016846 0.689077 0.658071 -0.314249 0.684194 0.658071 -0.314249 0.684194 -0.724479 -0.016846 0.689077 0.658071 -0.314249 0.684194 -0.418958 0.804590 -0.420759 0.709891 0.561754 -0.424757 0.724479 0.016846 -0.689077 -0.658071 0.314249 -0.684194 -0.658071 0.314249 -0.684194 0.724479 0.016846 -0.689077 0.724479 0.016846 -0.689077 -0.658071 0.314249 -0.684194 0.836238 0.522446 0.166387 0.655690 0.291391 0.696493 0.658071 -0.314249 0.684194 0.977630 -0.210273 -0.003449 0.977630 -0.210273 -0.003449 0.658071 -0.314249 0.684194 0.658071 -0.314249 0.684194 0.977630 -0.210273 -0.003449 -0.836238 -0.522446 -0.166387 -0.709891 -0.561754 0.424757 -0.977630 0.210273 0.003449 -0.977630 0.210273 0.003449 -0.977630 0.210273 0.003449 0.724479 0.016846 -0.689077 0.977630 -0.210273 -0.003449 0.977630 -0.210273 -0.003449 0.724479 0.016846 -0.689077 0.709891 0.561754 -0.424757 0.836238 0.522446 0.166387 0.977630 -0.210273 -0.003449 0.724479 0.016846 -0.689077 -0.658071 0.314249 -0.684194 -0.977630 0.210273 0.003449 -0.977630 0.210273 0.003449 -0.658071 0.314249 -0.684194 -0.655690 -0.291391 -0.696493 -0.836238 -0.522446 -0.166387 -0.977630 0.210273 0.003449 -0.658071 0.314249 -0.684194 -0.658071 0.314249 -0.684194 -0.977630 0.210273 0.003449 -0.546312 0.819849 0.171270 -0.418958 0.804590 -0.420759 -0.546312 0.819849 0.171270 0.836238 0.522446 0.166387 0.709891 0.561754 -0.424757 0.724479 0.016846 -0.689077 0.977630 -0.210273 -0.003449 0.546312 -0.819849 -0.171270 0.473159 -0.534227 -0.700491 0.473159 -0.534227 -0.700491 0.546312 -0.819849 -0.171270 -0.836238 -0.522446 -0.166387 " />
									<TextureCoordinate point="0.5677 0.0558 0.9442 0.0558 0.9442 0.4323 0.5677 0.4323 0.5677 0.0558 0.9442 0.0558 0.9442 0.4323 0.5677 0.4323 0.5677 0.0558 0.9442 0.0558 0.9442 0.4323 0.5677 0.4323 0.5677 0.0558 0.9442 0.0558 0.9442 0.4323 0.5677 0.4323 0.0657 0.0583 0.4421 0.0583 0.4421 0.2034 0.0657 0.2034 0.5677 0.0558 0.9442 0.0558 0.5677 0.4323 0.0657 0.0583 0.4421 0.0583 0.4421 0.2034 0.0657 0.2034 0.0657 0.0583 0.4421 0.0583 0.4421 0.2034 0.0657 0.2034 0.0657 0.0583 0.4421 0.0583 0.4421 0.2034 0.0657 0.2034 0.5677 0.0558 0.9442 0.0558 0.9442 0.4323 0.5677 0.4323 0.5677 0.0558 0.9442 0.0558 0.9442 0.4323 0.5677 0.4323 0.5677 0.0558 0.9442 0.0558 0.9442 0.4323 0.5677 0.4323 0.0657 0.0583 0.4421 0.0583 0.4421 0.2034 0.0657 0.2034 0.0657 0.3241 0.4421 0.3241 0.4421 0.4692 0.0657 0.4692 0.5677 0.0558 0.9442 0.4323 0.5677 0.4323 0.5677 0.0558 0.9442 0.4323 0.5677 0.4323 0.0657 0.0583 0.4421 0.0583 0.4421 0.2034 0.0657 0.2034 0.0657 0.0583 0.4421 0.0583 0.4421 0.2034 0.0657 0.2034 0.5677 0.0558 0.9442 0.0558 0.9442 0.4323 0.5677 0.4323 0.5677 0.0558 0.9442 0.0558 0.9442 0.4323 0.5677 0.4323 0.5677 0.0558 0.9442 0.0558 0.5677 0.4323 0.5677 0.0558 0.5677 0.4323 0.0657 0.0583 0.4421 0.0583 0.4421 0.2034 0.0657 0.2034 0.0657 0.0583 0.4421 0.0583 0.4421 0.2034 0.0657 0.2034 0.5677 0.0558 0.9442 0.0558 0.9442 0.4323 0.5677 0.4323 0.5677 0.0558 0.9442 0.0558 0.9442 0.4323 0.5677 0.4323 0.5677 0.0558 0.9442 0.0558 0.9442 0.4323 0.5677 0.4323 0.4421 0.0583 0.4421 0.2034 0.0657 0.2034 0.0657 0.0583 0.4421 0.0583 0.4421 0.2034 0.0657 0.2034 0.0657 0.0583 0.4421 0.0583 0.4421 0.2034 " />
								</IndexedTriangleSet>
							</Shape>
						</Group>
					</Transform>
				</Transform>
				<Transform DEF="Cube_017_TRANSFORM"
				           translation="-0.308424 -0.041273 0.415313"
				           scale="1.000000 1.000000 1.000000"
				           rotation="0.000000 1.000000 0.000000 0.000000"
				           >
					<Transform DEF="Cube_017_ifs_TRANSFORM"
					           translation="0.000000 0.000000 0.000000"
					           scale="1.000000 1.000000 1.000000"
					           rotation="0.000000 1.000000 0.000000 0.000000"
					           >
						<Group DEF="group_ME_Cube_026">
							<Shape>
								<Appearance>
									<Material USE="MA_Eye" />
								</Appearance>
								<IndexedTriangleSet solid="false"
								                    normalPerVertex="true"
								                    index="0 1 2 0 2 3 4 5 6 4 6 7 8 9 10 8 10 11 12 13 14 12 14 15 16 17 18 16 18 19 20 21 14 20 14 22 23 24 25 23 25 26 27 28 29 27 29 30 31 32 33 31 33 34 35 36 37 35 37 38 39 40 41 39 41 42 43 44 45 43 45 46 47 48 49 47 49 50 51 52 53 51 53 54 55 56 57 55 57 7 58 59 60 58 60 3 61 62 63 61 63 64 65 66 67 65 67 68 69 70 71 69 71 72 73 74 75 73 75 76 77 78 60 77 60 79 80 81 57 80 57 22 82 83 84 82 84 85 86 87 88 86 88 89 90 91 92 90 92 93 94 95 96 94 96 97 98 99 100 98 100 101 61 102 103 61 103 104 105 106 107 105 107 108 109 17 110 109 110 111 "
								                    >
									<Coordinate point="-0.011468 0.052339 0.059365 -0.038616 0.178023 0.090984 -0.032562 0.147825 0.216221 -0.005415 0.022141 0.184603 -0.038616 0.178023 0.090984 -0.158937 0.152141 0.090559 -0.152883 0.121942 0.215797 -0.032562 0.147825 0.216221 -0.104641 -0.099227 0.027322 -0.077494 -0.224911 -0.004297 -0.071440 -0.255110 0.120941 -0.098588 -0.129426 0.152560 -0.077494 -0.224911 -0.004297 0.042827 -0.199029 -0.003872 0.048881 -0.229227 0.121366 -0.071440 -0.255110 0.120941 0.005415 -0.022141 -0.184603 0.032562 -0.147825 -0.216221 -0.087758 -0.173707 -0.216646 -0.114906 -0.048023 -0.185028 -0.098588 -0.129426 0.152560 -0.071440 -0.255110 0.120941 0.021733 -0.103543 0.152985 -0.082264 -0.201116 -0.102977 0.038057 -0.175234 -0.102552 0.042827 -0.199029 -0.003872 -0.077494 -0.224911 -0.004297 -0.109412 -0.075432 -0.071358 -0.082264 -0.201116 -0.102977 -0.077494 -0.224911 -0.004297 -0.104641 -0.099227 0.027322 -0.043386 0.201818 -0.007697 -0.163707 0.175936 -0.008122 -0.158937 0.152141 0.090559 -0.038616 0.178023 0.090984 -0.016239 0.076134 -0.039315 -0.043386 0.201818 -0.007697 -0.038616 0.178023 0.090984 -0.011468 0.052339 0.059365 0.038057 -0.175234 -0.102552 0.010909 -0.049550 -0.070933 0.015679 -0.073345 0.027747 0.042827 -0.199029 -0.003872 0.010909 -0.049550 -0.070933 -0.016239 0.076134 -0.039315 -0.011468 0.052339 0.059365 0.015679 -0.073345 0.027747 -0.163707 0.175936 -0.008122 -0.136559 0.050252 -0.039740 -0.131789 0.026457 0.058940 -0.158937 0.152141 0.090559 -0.136559 0.050252 -0.039740 -0.109412 -0.075432 -0.071358 -0.104641 -0.099227 0.027322 -0.131789 0.026457 0.058940 -0.152883 0.121942 0.215797 -0.125735 -0.003742 0.184178 -0.005415 0.022141 0.184603 -0.125735 -0.003742 0.184178 -0.098588 -0.129426 0.152560 0.021733 -0.103543 0.152985 -0.048881 0.229227 -0.121366 -0.021733 0.103543 -0.152985 -0.142054 0.077661 -0.153410 -0.169202 0.203345 -0.121791 -0.021733 0.103543 -0.152985 0.005415 -0.022141 -0.184603 -0.114906 -0.048023 -0.185028 -0.142054 0.077661 -0.153410 -0.158937 0.152141 0.090559 -0.131789 0.026457 0.058940 -0.125735 -0.003742 0.184178 -0.152883 0.121942 0.215797 -0.131789 0.026457 0.058940 -0.104641 -0.099227 0.027322 -0.098588 -0.129426 0.152560 -0.125735 -0.003742 0.184178 0.042827 -0.199029 -0.003872 0.015679 -0.073345 0.027747 0.048881 -0.229227 0.121366 0.015679 -0.073345 0.027747 -0.011468 0.052339 0.059365 -0.142054 0.077661 -0.153410 -0.114906 -0.048023 -0.185028 -0.109412 -0.075432 -0.071358 -0.136559 0.050252 -0.039740 -0.169202 0.203345 -0.121791 -0.142054 0.077661 -0.153410 -0.136559 0.050252 -0.039740 -0.163707 0.175936 -0.008122 0.005415 -0.022141 -0.184603 -0.021733 0.103543 -0.152985 -0.016239 0.076134 -0.039315 0.010909 -0.049550 -0.070933 0.032562 -0.147825 -0.216221 0.005415 -0.022141 -0.184603 0.010909 -0.049550 -0.070933 0.038057 -0.175234 -0.102552 -0.021733 0.103543 -0.152985 -0.048881 0.229227 -0.121366 -0.043386 0.201818 -0.007697 -0.016239 0.076134 -0.039315 -0.169202 0.203345 -0.121791 -0.163707 0.175936 -0.008122 -0.043386 0.201818 -0.007697 -0.114906 -0.048023 -0.185028 -0.087758 -0.173707 -0.216646 -0.082264 -0.201116 -0.102977 -0.109412 -0.075432 -0.071358 -0.087758 -0.173707 -0.216646 0.038057 -0.175234 -0.102552 -0.082264 -0.201116 -0.102977 " />
									<Normal vector="0.977630 0.210273 0.003449 0.546312 0.819849 0.171270 0.473159 0.534227 0.700491 0.724479 -0.016846 0.689077 0.546312 0.819849 0.171270 -0.836238 0.522446 0.166387 -0.655690 0.291391 0.696493 0.473159 0.534227 0.700491 -0.977630 -0.210273 -0.003449 -0.546312 -0.819849 -0.171270 -0.418958 -0.804590 0.420759 -0.658071 -0.314249 0.684194 -0.546312 -0.819849 -0.171270 0.836238 -0.522446 -0.166387 0.709891 -0.561754 0.424757 -0.418958 -0.804590 0.420759 0.658071 0.314249 -0.684194 0.655690 -0.291391 -0.696493 -0.473159 -0.534227 -0.700491 -0.724479 0.016846 -0.689077 -0.658071 -0.314249 0.684194 -0.418958 -0.804590 0.420759 0.724479 -0.016846 0.689077 -0.546312 -0.819849 -0.171270 0.836238 -0.522446 -0.166387 0.836238 -0.522446 -0.166387 -0.546312 -0.819849 -0.171270 -0.977630 -0.210273 -0.003449 -0.546312 -0.819849 -0.171270 -0.546312 -0.819849 -0.171270 -0.977630 -0.210273 -0.003449 0.546312 0.819849 0.171270 -0.836238 0.522446 0.166387 -0.836238 0.522446 0.166387 0.546312 0.819849 0.171270 0.977630 0.210273 0.003449 0.546312 0.819849 0.171270 0.546312 0.819849 0.171270 0.977630 0.210273 0.003449 0.836238 -0.522446 -0.166387 0.977630 0.210273 0.003449 0.977630 0.210273 0.003449 0.836238 -0.522446 -0.166387 0.977630 0.210273 0.003449 0.977630 0.210273 0.003449 0.977630 0.210273 0.003449 0.977630 0.210273 0.003449 -0.836238 0.522446 0.166387 -0.977630 -0.210273 -0.003449 -0.977630 -0.210273 -0.003449 -0.836238 0.522446 0.166387 -0.977630 -0.210273 -0.003449 -0.977630 -0.210273 -0.003449 -0.977630 -0.210273 -0.003449 -0.977630 -0.210273 -0.003449 -0.655690 0.291391 0.696493 -0.658071 -0.314249 0.684194 0.724479 -0.016846 0.689077 -0.658071 -0.314249 0.684194 -0.658071 -0.314249 0.684194 0.724479 -0.016846 0.689077 0.418958 0.804590 -0.420759 0.658071 0.314249 -0.684194 -0.724479 0.016846 -0.689077 -0.709891 0.561754 -0.424757 0.658071 0.314249 -0.684194 0.658071 0.314249 -0.684194 -0.724479 0.016846 -0.689077 -0.724479 0.016846 -0.689077 -0.836238 0.522446 0.166387 -0.977630 -0.210273 -0.003449 -0.658071 -0.314249 0.684194 -0.655690 0.291391 0.696493 -0.977630 -0.210273 -0.003449 -0.977630 -0.210273 -0.003449 -0.658071 -0.314249 0.684194 -0.658071 -0.314249 0.684194 0.836238 -0.522446 -0.166387 0.977630 0.210273 0.003449 0.709891 -0.561754 0.424757 0.977630 0.210273 0.003449 0.977630 0.210273 0.003449 -0.724479 0.016846 -0.689077 -0.724479 0.016846 -0.689077 -0.977630 -0.210273 -0.003449 -0.977630 -0.210273 -0.003449 -0.709891 0.561754 -0.424757 -0.724479 0.016846 -0.689077 -0.977630 -0.210273 -0.003449 -0.836238 0.522446 0.166387 0.658071 0.314249 -0.684194 0.658071 0.314249 -0.684194 0.977630 0.210273 0.003449 0.977630 0.210273 0.003449 0.655690 -0.291391 -0.696493 0.658071 0.314249 -0.684194 0.977630 0.210273 0.003449 0.836238 -0.522446 -0.166387 0.658071 0.314249 -0.684194 0.418958 0.804590 -0.420759 0.546312 0.819849 0.171270 0.977630 0.210273 0.003449 -0.709891 0.561754 -0.424757 -0.836238 0.522446 0.166387 0.546312 0.819849 0.171270 -0.724479 0.016846 -0.689077 -0.473159 -0.534227 -0.700491 -0.546312 -0.819849 -0.171270 -0.977630 -0.210273 -0.003449 -0.473159 -0.534227 -0.700491 0.836238 -0.522446 -0.166387 -0.546312 -0.819849 -0.171270 " />
									<TextureCoordinate point="0.5677 0.0558 0.5677 0.4323 0.9442 0.4323 0.9442 0.0558 0.5677 0.0558 0.5677 0.4323 0.9442 0.4323 0.9442 0.0558 0.5677 0.0558 0.5677 0.4323 0.9442 0.4323 0.9442 0.0558 0.5677 0.0558 0.5677 0.4323 0.9442 0.4323 0.9442 0.0558 0.0657 0.0583 0.0657 0.2034 0.4421 0.2034 0.4421 0.0583 0.5677 0.0558 0.5677 0.4323 0.9442 0.0558 0.0657 0.0583 0.0657 0.2034 0.4421 0.2034 0.4421 0.0583 0.0657 0.0583 0.0657 0.2034 0.4421 0.2034 0.4421 0.0583 0.0657 0.0583 0.0657 0.2034 0.4421 0.2034 0.4421 0.0583 0.5677 0.0558 0.5677 0.4323 0.9442 0.4323 0.9442 0.0558 0.5677 0.0558 0.5677 0.4323 0.9442 0.4323 0.9442 0.0558 0.5677 0.0558 0.5677 0.4323 0.9442 0.4323 0.9442 0.0558 0.0657 0.0583 0.0657 0.2034 0.4421 0.2034 0.4421 0.0583 0.0657 0.3241 0.0657 0.4692 0.4421 0.4692 0.4421 0.3241 0.5677 0.0558 0.5677 0.4323 0.9442 0.4323 0.5677 0.0558 0.5677 0.4323 0.9442 0.4323 0.0657 0.0583 0.0657 0.2034 0.4421 0.2034 0.4421 0.0583 0.0657 0.0583 0.0657 0.2034 0.4421 0.2034 0.4421 0.0583 0.5677 0.0558 0.5677 0.4323 0.9442 0.4323 0.9442 0.0558 0.5677 0.0558 0.5677 0.4323 0.9442 0.4323 0.9442 0.0558 0.5677 0.0558 0.5677 0.4323 0.9442 0.0558 0.5677 0.0558 0.5677 0.4323 0.0657 0.0583 0.0657 0.2034 0.4421 0.2034 0.4421 0.0583 0.0657 0.0583 0.0657 0.2034 0.4421 0.2034 0.4421 0.0583 0.5677 0.0558 0.5677 0.4323 0.9442 0.4323 0.9442 0.0558 0.5677 0.0558 0.5677 0.4323 0.9442 0.4323 0.9442 0.0558 0.5677 0.0558 0.5677 0.4323 0.9442 0.4323 0.9442 0.0558 0.0657 0.2034 0.4421 0.2034 0.4421 0.0583 0.0657 0.0583 0.0657 0.2034 0.4421 0.2034 0.4421 0.0583 0.0657 0.0583 0.4421 0.2034 0.4421 0.0583 " />
								</IndexedTriangleSet>
							</Shape>
						</Group>
					</Transform>
				</Transform>
			</Transform>
			<Transform DEF="Cube_008_TRANSFORM"
			           translation="0.000000 -1.417364 0.563674"
			           scale="1.000000 1.000000 1.000000"
			           rotation="0.000000 1.000000 0.000000 0.000000"
			           >
				<Transform DEF="Cube_008_ifs_TRANSFORM"
				           translation="0.000000 0.000000 0.000000"
				           scale="1.000000 1.000000 1.000000"
				           rotation="0.000000 1.000000 0.000000 0.000000"
				           >
					<Group DEF="group_ME_Cube_018">
						<Shape>
							<Appearance>
								<Material USE="MA_Body" />
							</Appearance>
							<IndexedTriangleSet solid="false"
							                    normalPerVertex="true"
							                    index="0 1 2 0 2 3 4 5 6 4 6 7 8 9 10 8 10 11 12 13 14 12 14 15 16 17 18 16 18 19 20 21 22 20 22 23 "
							                    >
								<Coordinate point="-0.122528 -0.029633 0.311055 -0.122528 0.073693 0.303649 -0.122528 0.051663 -0.003703 -0.122528 -0.051663 0.003703 -0.122528 -0.051663 0.003703 -0.122528 0.051663 -0.003703 0.122528 0.051663 -0.003703 0.122528 -0.051663 0.003703 0.122528 -0.051663 0.003703 0.122528 0.051663 -0.003703 0.122528 0.073693 0.303649 0.122528 -0.029633 0.311055 0.122528 -0.029633 0.311055 0.122528 0.073693 0.303649 -0.122528 0.073693 0.303649 -0.122528 -0.029633 0.311055 -0.122528 -0.051663 0.003703 0.122528 -0.051663 0.003703 0.122528 -0.029633 0.311055 -0.122528 -0.029633 0.311055 0.122528 0.051663 -0.003703 -0.122528 0.051663 -0.003703 -0.122528 0.073693 0.303649 0.122528 0.073693 0.303649 " />
								<Normal vector="-0.577349 -0.534593 0.617145 -0.577349 0.617145 0.534593 -0.577349 0.534593 -0.617145 -0.577349 -0.617145 -0.534593 -0.577349 -0.617145 -0.534593 -0.577349 0.534593 -0.617145 0.577349 0.534593 -0.617145 0.577349 -0.617145 -0.534593 0.577349 -0.617145 -0.534593 0.577349 0.534593 -0.617145 0.577349 0.617145 0.534593 0.577349 -0.534593 0.617145 0.577349 -0.534593 0.617145 0.577349 0.617145 0.534593 -0.577349 0.617145 0.534593 -0.577349 -0.534593 0.617145 -0.577349 -0.617145 -0.534593 0.577349 -0.617145 -0.534593 0.577349 -0.534593 0.617145 -0.577349 -0.534593 0.617145 0.577349 0.534593 -0.617145 -0.577349 0.534593 -0.617145 -0.577349 0.617145 0.534593 0.577349 0.617145 0.534593 " />
								<TextureCoordinate point="0.5766 0.5963 0.8762 0.5963 0.8762 0.8959 0.5766 0.8959 0.5766 0.5963 0.8762 0.5963 0.8762 0.8959 0.5766 0.8959 0.5766 0.5963 0.8762 0.5963 0.8762 0.8959 0.5766 0.8959 0.5766 0.5963 0.8762 0.5963 0.8762 0.8959 0.5766 0.8959 0.0345 0.5266 0.4635 0.5266 0.4635 0.9557 0.0345 0.9557 0.0345 0.5266 0.4635 0.5266 0.4635 0.9557 0.0345 0.9557 " />
							</IndexedTriangleSet>
						</Shape>
					</Group>
				</Transform>
			</Transform>
			<Transform DEF="Cube_009_TRANSFORM"
			           translation="0.000000 -0.101992 -0.034718"
			           scale="1.000000 1.000000 1.000000"
			           rotation="0.000000 1.000000 0.000000 0.000000"
			           >
				<Transform DEF="Cube_009_ifs_TRANSFORM"
				           translation="0.000000 0.000000 0.000000"
				           scale="1.000000 1.000000 1.000000"
				           rotation="0.000000 1.000000 0.000000 0.000000"
				           >
					<Group DEF="group_ME_Cube_019">
						<Shape>
							<Appearance>
								<Material USE="MA_Body" />
							</Appearance>
							<IndexedTriangleSet solid="false"
							                    normalPerVertex="true"
							                    index="0 1 2 0 2 3 4 5 6 4 6 7 8 9 10 8 10 11 12 13 14 12 14 15 4 16 17 4 17 15 18 5 14 18 14 19 "
							                    >
								<Coordinate point="-0.402805 0.643564 0.240703 -0.402805 0.532204 -0.434592 -0.402805 -0.055680 -0.337648 -0.402805 0.055680 0.337648 -0.402805 0.055680 0.337648 -0.402805 -0.055680 -0.337648 0.402805 -0.055680 -0.337648 0.402805 0.055680 0.337648 0.402805 0.055680 0.337648 0.402805 -0.055680 -0.337648 0.402805 0.532204 -0.434592 0.402805 0.643564 0.240703 0.402805 0.643564 0.240703 0.402805 0.532204 -0.434592 -0.402805 0.532204 -0.434592 -0.402805 0.643564 0.240703 0.402805 0.055680 0.337648 0.402805 0.643564 0.240703 0.402805 -0.055680 -0.337648 0.402805 0.532204 -0.434592 " />
								<Normal vector="-0.577349 0.663594 0.475692 -0.577349 0.475692 -0.663594 -0.577349 -0.663594 -0.475692 -0.577349 -0.475692 0.663594 -0.577349 -0.475692 0.663594 -0.577349 -0.663594 -0.475692 0.577349 -0.663594 -0.475692 0.577349 -0.475692 0.663594 0.577349 -0.475692 0.663594 0.577349 -0.663594 -0.475692 0.577349 0.475692 -0.663594 0.577349 0.663594 0.475692 0.577349 0.663594 0.475692 0.577349 0.475692 -0.663594 -0.577349 0.475692 -0.663594 -0.577349 0.663594 0.475692 0.577349 -0.475692 0.663594 0.577349 0.663594 0.475692 0.577349 -0.663594 -0.475692 0.577349 0.475692 -0.663594 " />
								<TextureCoordinate point="0.0345 0.5266 0.4635 0.5266 0.4635 0.9557 0.0345 0.9557 0.0345 0.5266 0.4635 0.5266 0.4635 0.9557 0.0345 0.9557 0.0345 0.5266 0.4635 0.5266 0.4635 0.9557 0.0345 0.9557 0.0345 0.5266 0.4635 0.5266 0.4635 0.9557 0.0345 0.9557 0.4635 0.5266 0.4635 0.9557 0.0345 0.5266 0.0345 0.9557 " />
							</IndexedTriangleSet>
						</Shape>
					</Group>
				</Transform>
				<Transform DEF="Cube_011_TRANSFORM"
				           translation="0.000000 0.524378 -0.113562"
				           scale="1.000000 1.000000 1.000000"
				           rotation="0.000000 1.000000 0.000000 0.000000"
				           >
					<Transform DEF="Cube_011_ifs_TRANSFORM"
					           translation="0.000000 0.000000 0.000000"
					           scale="1.000000 1.000000 1.000000"
					           rotation="0.000000 1.000000 0.000000 0.000000"
					           >
						<Group DEF="group_ME_Cube_021">
							<Shape>
								<Appearance>
									<Material USE="MA_Body" />
								</Appearance>
								<IndexedTriangleSet solid="false"
								                    normalPerVertex="true"
								                    index="0 1 2 0 2 3 4 5 6 4 6 7 8 9 10 8 10 11 12 13 14 12 14 15 4 16 17 4 17 18 19 5 20 19 20 21 "
								                    >
									<Coordinate point="-0.276983 0.483117 0.212284 -0.276983 0.453003 -0.270655 -0.276983 -0.015057 -0.241469 -0.276983 0.015057 0.241469 -0.276983 0.015057 0.241469 -0.276983 -0.015057 -0.241469 0.276983 -0.015057 -0.241469 0.276983 0.015057 0.241469 0.276983 0.015057 0.241469 0.276983 -0.015057 -0.241469 0.276983 0.453003 -0.270655 0.276983 0.483117 0.212284 0.276983 0.483117 0.212284 0.276983 0.453003 -0.270655 -0.276983 0.453003 -0.270655 -0.276983 0.483117 0.212284 0.276983 0.015057 0.241469 0.276983 0.483117 0.212284 -0.276983 0.483117 0.212284 0.276983 -0.015057 -0.241469 -0.276983 0.453003 -0.270655 0.276983 0.453003 -0.270655 " />
									<Normal vector="-0.577349 0.612140 0.540300 -0.577349 0.540300 -0.612140 -0.577349 -0.612140 -0.540300 -0.577349 -0.540300 0.612140 -0.577349 -0.540300 0.612140 -0.577349 -0.612140 -0.540300 0.577349 -0.612140 -0.540300 0.577349 -0.540300 0.612140 0.577349 -0.540300 0.612140 0.577349 -0.612140 -0.540300 0.577349 0.540300 -0.612140 0.577349 0.612140 0.540300 0.577349 0.612140 0.540300 0.577349 0.540300 -0.612140 -0.577349 0.540300 -0.612140 -0.577349 0.612140 0.540300 0.577349 -0.540300 0.612140 0.577349 0.612140 0.540300 -0.577349 0.612140 0.540300 0.577349 -0.612140 -0.540300 -0.577349 0.540300 -0.612140 0.577349 0.540300 -0.612140 " />
									<TextureCoordinate point="0.0345 0.5266 0.4635 0.5266 0.4635 0.9557 0.0345 0.9557 0.0345 0.5266 0.4635 0.5266 0.4635 0.9557 0.0345 0.9557 0.0345 0.5266 0.4635 0.5266 0.4635 0.9557 0.0345 0.9557 0.5837 0.5886 0.9282 0.5886 0.9282 0.9331 0.5837 0.9331 0.4635 0.5266 0.4635 0.9557 0.0345 0.9557 0.0345 0.5266 0.4635 0.9557 0.0345 0.9557 " />
								</IndexedTriangleSet>
							</Shape>
						</Group>
					</Transform>
					<Transform DEF="Cube_012_TRANSFORM"
					           translation="0.000000 0.437177 -0.020801"
					           scale="1.000000 1.000000 1.000000"
					           rotation="0.000000 1.000000 0.000000 0.000000"
					           >
						<Transform DEF="Cube_012_ifs_TRANSFORM"
						           translation="0.000000 0.000000 0.000000"
						           scale="1.000000 1.000000 1.000000"
						           rotation="0.000000 1.000000 0.000000 0.000000"
						           >
							<Group DEF="group_ME_Cube_022">
								<Shape>
									<Appearance>
										<Material USE="MA_Body" />
									</Appearance>
									<IndexedTriangleSet solid="false"
									                    normalPerVertex="true"
									                    index="0 1 2 0 2 3 4 5 6 4 6 7 8 9 10 8 10 11 12 13 14 12 14 15 4 16 17 4 17 18 19 5 20 19 20 21 "
									                    >
										<Coordinate point="-0.228503 0.356695 0.178432 -0.228503 0.357630 -0.176549 -0.228503 0.000468 -0.177490 -0.228503 -0.000468 0.177490 -0.228503 -0.000468 0.177490 -0.228503 0.000468 -0.177490 0.228503 0.000468 -0.177490 0.228503 -0.000468 0.177490 0.228503 -0.000468 0.177490 0.228503 0.000468 -0.177490 0.228503 0.357630 -0.176549 0.228503 0.356695 0.178432 0.228503 0.356695 0.178432 0.228503 0.357630 -0.176549 -0.228503 0.357630 -0.176549 -0.228503 0.356695 0.178432 0.228503 -0.000468 0.177490 0.228503 0.356695 0.178432 -0.228503 0.356695 0.178432 0.228503 0.000468 -0.177490 -0.228503 0.357630 -0.176549 0.228503 0.357630 -0.176549 " />
										<Normal vector="-0.577349 0.575823 0.578845 -0.577349 0.578845 -0.575823 -0.577349 -0.575823 -0.578845 -0.577349 -0.578845 0.575823 -0.577349 -0.578845 0.575823 -0.577349 -0.575823 -0.578845 0.577349 -0.575823 -0.578845 0.577349 -0.578845 0.575823 0.577349 -0.578845 0.575823 0.577349 -0.575823 -0.578845 0.577349 0.578845 -0.575823 0.577349 0.575823 0.578845 0.577349 0.575823 0.578845 0.577349 0.578845 -0.575823 -0.577349 0.578845 -0.575823 -0.577349 0.575823 0.578845 0.577349 -0.578845 0.575823 0.577349 0.575823 0.578845 -0.577349 0.575823 0.578845 0.577349 -0.575823 -0.578845 -0.577349 0.578845 -0.575823 0.577349 0.578845 -0.575823 " />
										<TextureCoordinate point="0.0345 0.5266 0.4635 0.5266 0.4635 0.9557 0.0345 0.9557 0.0345 0.5266 0.4635 0.5266 0.4635 0.9557 0.0345 0.9557 0.0345 0.5266 0.4635 0.5266 0.4635 0.9557 0.0345 0.9557 0.5837 0.5886 0.9282 0.5886 0.9282 0.9331 0.5837 0.9331 0.4635 0.5266 0.4635 0.9557 0.0345 0.9557 0.0345 0.5266 0.4635 0.9557 0.0345 0.9557 " />
									</IndexedTriangleSet>
								</Shape>
							</Group>
						</Transform>
						<Transform DEF="Cube_013_TRANSFORM"
						           translation="0.000000 0.329478 -0.012051"
						           scale="1.000000 1.000000 1.000000"
						           rotation="0.000000 1.000000 0.000000 0.000000"
						           >
							<Transform DEF="Cube_013_ifs_TRANSFORM"
							           translation="0.000000 0.000000 0.000000"
							           scale="1.000000 1.000000 1.000000"
							           rotation="0.000000 1.000000 0.000000 0.000000"
							           >
								<Group DEF="group_ME_Cube_023">
									<Shape>
										<Appearance>
											<Material USE="MA_Body" />
										</Appearance>
										<IndexedTriangleSet solid="false"
										                    normalPerVertex="true"
										                    index="0 1 2 0 2 3 4 5 6 4 6 7 8 9 10 8 10 11 12 13 14 12 14 15 4 16 17 4 17 15 18 5 14 18 14 19 "
										                    >
											<Coordinate point="-0.125183 0.263462 0.152078 -0.125183 0.294769 -0.075174 -0.125183 0.015654 -0.113626 -0.125183 -0.015654 0.113626 -0.125183 -0.015654 0.113626 -0.125183 0.015654 -0.113626 0.125183 0.015654 -0.113626 0.125183 -0.015654 0.113626 0.125183 -0.015654 0.113626 0.125183 0.015654 -0.113626 0.125183 0.294769 -0.075174 0.125183 0.263462 0.152078 0.125183 0.263462 0.152078 0.125183 0.294769 -0.075174 -0.125183 0.294769 -0.075174 -0.125183 0.263462 0.152078 0.125183 -0.015654 0.113626 0.125183 0.263462 0.152078 0.125183 0.015654 -0.113626 0.125183 0.294769 -0.075174 " />
											<Normal vector="-0.577349 0.493149 0.650716 -0.577349 0.650716 -0.493149 -0.577349 -0.493149 -0.650716 -0.577349 -0.650716 0.493149 -0.577349 -0.650716 0.493149 -0.577349 -0.493149 -0.650716 0.577349 -0.493149 -0.650716 0.577349 -0.650716 0.493149 0.577349 -0.650716 0.493149 0.577349 -0.493149 -0.650716 0.577349 0.650716 -0.493149 0.577349 0.493149 0.650716 0.577349 0.493149 0.650716 0.577349 0.650716 -0.493149 -0.577349 0.650716 -0.493149 -0.577349 0.493149 0.650716 0.577349 -0.650716 0.493149 0.577349 0.493149 0.650716 0.577349 -0.493149 -0.650716 0.577349 0.650716 -0.493149 " />
											<TextureCoordinate point="0.0345 0.5266 0.4635 0.5266 0.4635 0.9557 0.0345 0.9557 0.0345 0.5266 0.4635 0.5266 0.4635 0.9557 0.0345 0.9557 0.0345 0.5266 0.4635 0.5266 0.4635 0.9557 0.0345 0.9557 0.0345 0.5266 0.4635 0.5266 0.4635 0.9557 0.0345 0.9557 0.4635 0.5266 0.4635 0.9557 0.0345 0.5266 0.0345 0.9557 " />
										</IndexedTriangleSet>
									</Shape>
								</Group>
							</Transform>
						</Transform>
					</Transform>
				</Transform>
			</Transform>
		</Transform>
	</Scene>
</X3D>