<?xml version="1.0" encoding="UTF-8"?>
<!DOCTYPE X3D PUBLIC "ISO//Web3D//DTD X3D 3.0//EN" "http://www.web3d.org/specifications/x3d-3.0.dtd">
<X3D version="3.0" profile="Immersive" xmlns:xsd="http://www.w3.org/2001/XMLSchema-instance" xsd:noNamespaceSchemaLocation="http://www.web3d.org/specifications/x3d-3.0.xsd">
	<head>
		<meta name="filename" content="natu.x3d" />
		<meta name="generator" content="Blender 2.93.18" />
	</head>
	<Scene>
		<NavigationInfo headlight="true"
		                visibilityLimit="0.0"
		                type='"EXAMINE", "ANY"'
		                avatarSize="0.25, 1.75, 0.75"
		                />
		<Background DEF="WO_World"
		            groundColor="0.051 0.051 0.051"
		            skyColor="0.051 0.051 0.051"
		            />
		<Transform DEF="body_TRANSFORM"
		           translation="0.000000 0.000000 0.361724"
		           scale="1.000000 1.000000 1.000000"
		           rotation="0.000000 0.000000 1.000000 3.141593"
		           >
			<Transform DEF="body_ifs_TRANSFORM"
			           translation="0.000000 0.000000 0.000000"
			           scale="1.000000 1.000000 1.000000"
			           rotation="0.000000 1.000000 0.000000 0.000000"
			           >
				<Group DEF="group_ME_body">
					<Shape>
						<Appearance>
							<Material DEF="MA_Body"
							          diffuseColor="0.800 0.800 0.800"
							          specularColor="0.401 0.401 0.401"
							          emissiveColor="0.000 0.000 0.000"
							          ambientIntensity="0.000"
							          shininess="0.500"
							          transparency="0.0"
							          />
						</Appearance>
						<IndexedTriangleSet solid="false"
						                    normalPerVertex="true"
						                    index="0 1 2 0 2 3 4 5 6 4 6 7 8 9 10 8 10 11 12 13 14 12 14 15 16 17 18 16 18 19 20 21 14 20 14 22 23 24 25 23 25 26 27 28 29 27 29 30 31 32 33 31 33 34 35 36 37 35 37 38 39 40 41 39 41 42 42 41 32 42 32 31 43 44 45 43 45 46 46 45 24 46 24 23 47 48 49 47 49 50 48 20 22 48 22 49 39 51 52 39 52 26 51 16 19 51 19 52 53 54 55 53 55 56 56 55 13 56 13 12 57 21 58 57 58 59 59 58 5 59 5 4 41 59 4 41 4 32 40 57 59 40 59 41 45 56 12 45 12 24 28 8 11 28 11 29 32 4 7 32 7 33 36 0 3 36 3 37 "
						                    >
							<Coordinate point="-1.419756 -1.397453 2.220189 -1.419756 -1.397453 2.694588 -1.419756 1.397453 2.694588 -1.419756 1.397453 2.220189 0.313136 1.397453 2.220189 0.313136 1.397453 2.694588 1.419756 1.397453 2.694588 1.419756 1.397453 2.220189 1.419756 1.397453 2.220189 1.419756 1.397453 2.694588 1.419756 -1.397453 2.694588 1.419756 -1.397453 2.220189 -0.313136 -1.397453 2.220189 -0.313136 -1.397453 2.694588 -1.419756 -1.397453 2.694588 -1.419756 -1.397453 2.220189 0.313136 1.397453 0.000000 1.419756 1.397453 0.000000 1.419756 -1.397453 0.000000 0.313136 -1.397453 0.000000 -0.313136 1.397453 2.694588 -1.419756 1.397453 2.694588 -0.313136 -1.397453 2.694588 -0.313136 -1.397453 0.000000 -0.313136 -1.397453 1.347294 -1.419756 -1.397453 1.347294 -1.419756 -1.397453 0.000000 1.419756 1.397453 0.000000 1.419756 1.397453 1.347294 1.419756 -1.397453 1.347294 1.419756 -1.397453 0.000000 0.313136 1.397453 0.000000 0.313136 1.397453 1.347294 1.419756 1.397453 1.347294 1.419756 1.397453 0.000000 -1.419756 -1.397453 0.000000 -1.419756 -1.397453 1.347294 -1.419756 1.397453 1.347294 -1.419756 1.397453 0.000000 -1.419756 1.397453 0.000000 -1.419756 1.397453 1.347294 -0.313136 1.397453 1.347294 -0.313136 1.397453 0.000000 1.419756 -1.397453 0.000000 1.419756 -1.397453 1.347294 0.313136 -1.397453 1.347294 0.313136 -1.397453 0.000000 1.419756 1.397453 2.694588 0.313136 1.397453 2.694588 0.313136 -1.397453 2.694588 1.419756 -1.397453 2.694588 -0.313136 1.397453 0.000000 -0.313136 -1.397453 0.000000 1.419756 -1.397453 2.220189 1.419756 -1.397453 2.694588 0.313136 -1.397453 2.694588 0.313136 -1.397453 2.220189 -1.419756 1.397453 2.220189 -0.313136 1.397453 2.694588 -0.313136 1.397453 2.220189 " />
							<Normal vector="-0.707083 -0.707083 0.000000 -0.577349 -0.577349 0.577349 -0.577349 0.577349 0.577349 -0.707083 0.707083 0.000000 0.000000 1.000000 0.000000 0.000000 0.707083 0.707083 0.577349 0.577349 0.577349 0.707083 0.707083 0.000000 0.707083 0.707083 0.000000 0.577349 0.577349 0.577349 0.577349 -0.577349 0.577349 0.707083 -0.707083 0.000000 0.000000 -1.000000 0.000000 0.000000 -0.707083 0.707083 -0.577349 -0.577349 0.577349 -0.707083 -0.707083 0.000000 0.000000 0.707083 -0.707083 0.577349 0.577349 -0.577349 0.577349 -0.577349 -0.577349 0.000000 -0.707083 -0.707083 0.000000 0.707083 0.707083 -0.577349 0.577349 0.577349 0.000000 -0.707083 0.707083 0.000000 -0.707083 -0.707083 0.000000 -1.000000 0.000000 -0.707083 -0.707083 0.000000 -0.577349 -0.577349 -0.577349 0.577349 0.577349 -0.577349 0.707083 0.707083 0.000000 0.707083 -0.707083 0.000000 0.577349 -0.577349 -0.577349 0.000000 0.707083 -0.707083 0.000000 1.000000 0.000000 0.707083 0.707083 0.000000 0.577349 0.577349 -0.577349 -0.577349 -0.577349 -0.577349 -0.707083 -0.707083 0.000000 -0.707083 0.707083 0.000000 -0.577349 0.577349 -0.577349 -0.577349 0.577349 -0.577349 -0.707083 0.707083 0.000000 0.000000 1.000000 0.000000 0.000000 0.707083 -0.707083 0.577349 -0.577349 -0.577349 0.707083 -0.707083 0.000000 0.000000 -1.000000 0.000000 0.000000 -0.707083 -0.707083 0.577349 0.577349 0.577349 0.000000 0.707083 0.707083 0.000000 -0.707083 0.707083 0.577349 -0.577349 0.577349 0.000000 0.707083 -0.707083 0.000000 -0.707083 -0.707083 0.707083 -0.707083 0.000000 0.577349 -0.577349 0.577349 0.000000 -0.707083 0.707083 0.000000 -1.000000 0.000000 -0.707083 0.707083 0.000000 0.000000 0.707083 0.707083 0.000000 1.000000 0.000000 " />
							<TextureCoordinate point="0.3477 0.5917 0.4531 0.5917 0.4531 0.9708 0.3477 0.9708 0.3477 0.8445 0.4531 0.8445 0.4531 0.9708 0.3477 0.9708 0.3477 0.5917 0.4531 0.5917 0.4531 0.9708 0.3477 0.9708 0.3477 0.8445 0.4531 0.8445 0.4531 0.9708 0.3477 0.9708 0.3125 0.5917 0.4531 0.5917 0.4531 0.9708 0.3125 0.9708 0.3125 0.5917 0.4531 0.5917 0.3125 0.9708 0.0312 0.8445 0.2422 0.8445 0.2422 0.9708 0.0312 0.9708 0.0312 0.5917 0.2422 0.5917 0.2422 0.9708 0.0312 0.9708 0.0312 0.8445 0.2422 0.8445 0.2422 0.9708 0.0312 0.9708 0.0312 0.5917 0.2422 0.5917 0.2422 0.9708 0.0312 0.9708 0.0312 0.5917 0.2422 0.5917 0.2422 0.7180 0.0312 0.7180 0.0312 0.5917 0.2422 0.5917 0.2422 0.7180 0.0312 0.7180 0.0312 0.5917 0.1719 0.5917 0.1719 0.9708 0.0312 0.9708 0.1719 0.5917 0.1719 0.9708 0.3477 0.5917 0.4531 0.5917 0.4531 0.7180 0.3477 0.7180 0.3477 0.5917 0.4531 0.7180 0.3477 0.7180 " />
						</IndexedTriangleSet>
					</Shape>
					<Shape>
						<Appearance>
							<Material DEF="MA_Eye"
							          diffuseColor="0.800 0.800 0.800"
							          specularColor="0.401 0.401 0.401"
							          emissiveColor="0.000 0.000 0.000"
							          ambientIntensity="0.000"
							          shininess="0.500"
							          transparency="0.0"
							          />
						</Appearance>
						<IndexedTriangleSet solid="false"
						                    normalPerVertex="true"
						                    index="0 1 2 0 2 3 4 5 6 4 6 7 "
						                    >
							<Coordinate point="1.419756 -1.397453 1.347294 1.419756 -1.397453 2.220189 0.313136 -1.397453 2.220189 0.313136 -1.397453 1.347294 -0.313136 -1.397453 1.347294 -0.313136 -1.397453 2.220189 -1.419756 -1.397453 2.220189 -1.419756 -1.397453 1.347294 " />
							<Normal vector="0.707083 -0.707083 0.000000 0.707083 -0.707083 0.000000 0.000000 -1.000000 0.000000 0.000000 -1.000000 0.000000 0.000000 -1.000000 0.000000 0.000000 -1.000000 0.000000 -0.707083 -0.707083 0.000000 -0.707083 -0.707083 0.000000 " />
							<TextureCoordinate point="1.0000 0.5402 1.0000 0.9558 0.0000 0.9558 0.0000 0.5402 0.0000 0.5402 0.0000 0.9558 1.0000 0.9558 1.0000 0.5402 " />
						</IndexedTriangleSet>
					</Shape>
				</Group>
			</Transform>
			<Transform DEF="top_TRANSFORM"
			           translation="0.000000 -0.429548 2.599894"
			           scale="1.000000 1.000000 1.000000"
			           rotation="0.000000 1.000000 0.000000 0.000000"
			           >
				<Transform DEF="top_ifs_TRANSFORM"
				           translation="0.000000 0.000000 0.000000"
				           scale="1.000000 1.000000 1.000000"
				           rotation="0.000000 1.000000 0.000000 0.000000"
				           >
					<Group DEF="group_ME_top">
						<Shape>
							<Appearance>
								<Material USE="MA_Body" />
							</Appearance>
							<IndexedTriangleSet solid="false"
							                    normalPerVertex="true"
							                    index="0 1 2 0 2 3 4 5 6 4 6 7 8 9 10 8 10 11 12 13 14 12 14 15 4 16 17 4 17 15 18 5 14 18 14 19 "
							                    >
								<Coordinate point="-0.303914 -0.045193 0.055746 -0.303914 1.585329 1.377586 -0.303914 1.675714 1.266093 -0.303914 0.045193 -0.055746 -0.303914 0.045193 -0.055746 -0.303914 1.675714 1.266093 0.303914 1.675714 1.266093 0.303914 0.045193 -0.055746 0.303914 0.045193 -0.055746 0.303914 1.675714 1.266093 0.303914 1.585329 1.377586 0.303914 -0.045193 0.055746 0.303914 -0.045193 0.055746 0.303914 1.585329 1.377586 -0.303914 1.585329 1.377586 -0.303914 -0.045193 0.055746 0.303914 0.045193 -0.055746 0.303914 -0.045193 0.055746 0.303914 1.675714 1.266093 0.303914 1.585329 1.377586 " />
								<Normal vector="-0.577349 -0.812067 0.084902 -0.577349 0.084902 0.812067 -0.577349 0.812067 -0.084902 -0.577349 -0.084902 -0.812067 -0.577349 -0.084902 -0.812067 -0.577349 0.812067 -0.084902 0.577349 0.812067 -0.084902 0.577349 -0.084902 -0.812067 0.577349 -0.084902 -0.812067 0.577349 0.812067 -0.084902 0.577349 0.084902 0.812067 0.577349 -0.812067 0.084902 0.577349 -0.812067 0.084902 0.577349 0.084902 0.812067 -0.577349 0.084902 0.812067 -0.577349 -0.812067 0.084902 0.577349 -0.084902 -0.812067 0.577349 -0.812067 0.084902 0.577349 0.812067 -0.084902 0.577349 0.084902 0.812067 " />
								<TextureCoordinate point="0.5539 0.0735 0.9695 0.0735 0.9695 0.4890 0.5539 0.4890 0.5539 0.0735 0.9695 0.0735 0.9695 0.4890 0.5539 0.4890 0.5539 0.0735 0.9695 0.0735 0.9695 0.4890 0.5539 0.4890 0.5539 0.0735 0.9695 0.0735 0.9695 0.4890 0.5539 0.4890 0.9695 0.0735 0.9695 0.4890 0.5539 0.0735 0.5539 0.4890 " />
							</IndexedTriangleSet>
						</Shape>
					</Group>
				</Transform>
			</Transform>
			<Transform DEF="Cube_002_TRANSFORM"
			           translation="0.000000 -1.322555 1.096477"
			           scale="1.000000 1.000000 1.000000"
			           rotation="0.000000 1.000000 0.000000 0.000000"
			           >
				<Transform DEF="Cube_002_ifs_TRANSFORM"
				           translation="0.000000 0.000000 0.000000"
				           scale="1.000000 1.000000 1.000000"
				           rotation="0.000000 1.000000 0.000000 0.000000"
				           >
					<Group DEF="group_ME_Cube_017">
						<Shape>
							<Appearance>
								<Material USE="MA_Body" />
							</Appearance>
							<IndexedTriangleSet solid="false"
							                    normalPerVertex="true"
							                    index="0 1 2 0 2 3 4 5 6 4 6 7 8 9 10 8 10 11 12 13 14 12 14 15 4 16 17 4 17 15 18 5 14 18 14 19 "
							                    >
								<Coordinate point="-0.556207 -0.566734 -0.409800 -0.556207 -0.599174 0.360714 -0.556207 -0.016220 0.385257 -0.556207 0.016220 -0.385257 -0.556207 0.016220 -0.385257 -0.556207 -0.016220 0.385257 0.556207 -0.016220 0.385257 0.556207 0.016220 -0.385257 0.556207 0.016220 -0.385257 0.556207 -0.016220 0.385257 0.556207 -0.599174 0.360714 0.556207 -0.566734 -0.409800 0.556207 -0.566734 -0.409800 0.556207 -0.599174 0.360714 -0.556207 -0.599174 0.360714 -0.556207 -0.566734 -0.409800 0.556207 0.016220 -0.385257 0.556207 -0.566734 -0.409800 0.556207 -0.016220 0.385257 0.556207 -0.599174 0.360714 " />
								<Normal vector="-0.577349 -0.552538 -0.601123 -0.577349 -0.601123 0.552538 -0.577349 0.552538 0.601123 -0.577349 0.601123 -0.552538 -0.577349 0.601123 -0.552538 -0.577349 0.552538 0.601123 0.577349 0.552538 0.601123 0.577349 0.601123 -0.552538 0.577349 0.601123 -0.552538 0.577349 0.552538 0.601123 0.577349 -0.601123 0.552538 0.577349 -0.552538 -0.601123 0.577349 -0.552538 -0.601123 0.577349 -0.601123 0.552538 -0.577349 -0.601123 0.552538 -0.577349 -0.552538 -0.601123 0.577349 0.601123 -0.552538 0.577349 -0.552538 -0.601123 0.577349 0.552538 0.601123 0.577349 -0.601123 0.552538 " />
								<TextureCoordinate point="0.5706 0.6019 0.9450 0.6019 0.9450 0.9762 0.5706 0.9762 0.5706 0.6019 0.9450 0.6019 0.9450 0.9762 0.5706 0.9762 0.5706 0.6019 0.9450 0.6019 0.9450 0.9762 0.5706 0.9762 0.5706 0.6019 0.9450 0.6019 0.9450 0.9762 0.5706 0.9762 0.9450 0.6019 0.9450 0.9762 0.5706 0.6019 0.5706 0.9762 " />
							</IndexedTriangleSet>
						</Shape>
					</Group>
				</Transform>
				<Transform DEF="Cube_003_TRANSFORM"
				           translation="0.000000 -0.507596 -0.031880"
				           scale="1.000000 1.000000 1.000000"
				           rotation="0.000000 1.000000 0.000000 0.000000"
				           >
					<Transform DEF="Cube_003_ifs_TRANSFORM"
					           translation="0.000000 0.000000 0.000000"
					           scale="1.000000 1.000000 1.000000"
					           rotation="0.000000 1.000000 0.000000 0.000000"
					           >
						<Group DEF="group_ME_Cube_018">
							<Shape>
								<Appearance>
									<Material USE="MA_Body" />
								</Appearance>
								<IndexedTriangleSet solid="false"
								                    normalPerVertex="true"
								                    index="0 1 2 0 2 3 4 5 6 4 6 7 8 9 10 8 10 11 12 13 14 12 14 15 4 16 17 4 17 15 18 5 14 18 14 19 "
								                    >
									<Coordinate point="-0.400482 -0.559066 -0.321579 -0.400482 -0.605879 0.221084 -0.400482 -0.023407 0.271331 -0.400482 0.023407 -0.271331 -0.400482 0.023407 -0.271331 -0.400482 -0.023407 0.271331 0.400482 -0.023407 0.271331 0.400482 0.023407 -0.271331 0.400482 0.023407 -0.271331 0.400482 -0.023407 0.271331 0.400482 -0.605879 0.221084 0.400482 -0.559066 -0.321579 0.400482 -0.559066 -0.321579 0.400482 -0.605879 0.221084 -0.400482 -0.605879 0.221084 -0.400482 -0.559066 -0.321579 0.400482 0.023407 -0.271331 0.400482 -0.559066 -0.321579 0.400482 -0.023407 0.271331 0.400482 -0.605879 0.221084 " />
									<Normal vector="-0.577349 -0.525590 -0.624805 -0.577349 -0.624805 0.525590 -0.577349 0.525590 0.624805 -0.577349 0.624805 -0.525590 -0.577349 0.624805 -0.525590 -0.577349 0.525590 0.624805 0.577349 0.525590 0.624805 0.577349 0.624805 -0.525590 0.577349 0.624805 -0.525590 0.577349 0.525590 0.624805 0.577349 -0.624805 0.525590 0.577349 -0.525590 -0.624805 0.577349 -0.525590 -0.624805 0.577349 -0.624805 0.525590 -0.577349 -0.624805 0.525590 -0.577349 -0.525590 -0.624805 0.577349 0.624805 -0.525590 0.577349 -0.525590 -0.624805 0.577349 0.525590 0.624805 0.577349 -0.624805 0.525590 " />
									<TextureCoordinate point="0.5706 0.6019 0.9450 0.6019 0.9450 0.9762 0.5706 0.9762 0.5706 0.6019 0.9450 0.6019 0.9450 0.9762 0.5706 0.9762 0.5706 0.6019 0.9450 0.6019 0.9450 0.9762 0.5706 0.9762 0.5706 0.6019 0.9450 0.6019 0.9450 0.9762 0.5706 0.9762 0.9450 0.6019 0.9450 0.9762 0.5706 0.6019 0.5706 0.9762 " />
								</IndexedTriangleSet>
							</Shape>
						</Group>
					</Transform>
				</Transform>
			</Transform>
			<Transform DEF="leg1_TRANSFORM"
			           translation="0.404307 0.083707 0.056519"
			           scale="1.000000 1.000000 1.000000"
			           rotation="0.000000 1.000000 0.000000 0.000000"
			           >
				<Transform DEF="leg1_ifs_TRANSFORM"
				           translation="0.000000 0.000000 0.000000"
				           scale="1.000000 1.000000 1.000000"
				           rotation="0.000000 1.000000 0.000000 0.000000"
				           >
					<Group DEF="group_ME_leg1">
						<Shape>
							<Appearance>
								<Material USE="MA_Body" />
							</Appearance>
							<IndexedTriangleSet solid="false"
							                    normalPerVertex="true"
							                    index="0 1 2 0 2 3 4 5 6 4 6 7 8 9 10 8 10 11 12 13 14 12 14 15 4 16 17 4 17 15 18 5 14 18 14 19 "
							                    >
								<Coordinate point="-0.106575 -0.107483 -0.219220 -0.106575 -0.107483 0.000000 -0.106575 0.107483 0.000000 -0.106575 0.107483 -0.219220 -0.106575 0.107483 -0.219220 -0.106575 0.107483 0.000000 0.106575 0.107483 0.000000 0.106575 0.107483 -0.219220 0.106575 0.107483 -0.219220 0.106575 0.107483 0.000000 0.106575 -0.107483 0.000000 0.106575 -0.107483 -0.219220 0.106575 -0.107483 -0.219220 0.106575 -0.107483 0.000000 -0.106575 -0.107483 0.000000 -0.106575 -0.107483 -0.219220 0.106575 0.107483 -0.219220 0.106575 -0.107483 -0.219220 0.106575 0.107483 0.000000 0.106575 -0.107483 0.000000 " />
								<Normal vector="-0.577349 -0.577349 -0.577349 -0.577349 -0.577349 0.577349 -0.577349 0.577349 0.577349 -0.577349 0.577349 -0.577349 -0.577349 0.577349 -0.577349 -0.577349 0.577349 0.577349 0.577349 0.577349 0.577349 0.577349 0.577349 -0.577349 0.577349 0.577349 -0.577349 0.577349 0.577349 0.577349 0.577349 -0.577349 0.577349 0.577349 -0.577349 -0.577349 0.577349 -0.577349 -0.577349 0.577349 -0.577349 0.577349 -0.577349 -0.577349 0.577349 -0.577349 -0.577349 -0.577349 0.577349 0.577349 -0.577349 0.577349 -0.577349 -0.577349 0.577349 0.577349 0.577349 0.577349 -0.577349 0.577349 " />
								<TextureCoordinate point="0.5477 0.0473 0.9679 0.0473 0.9679 0.4996 0.5477 0.4996 0.5477 0.0473 0.9679 0.0473 0.9679 0.4996 0.5477 0.4996 0.5477 0.0473 0.9679 0.0473 0.9679 0.4996 0.5477 0.4996 0.5477 0.0473 0.9679 0.0473 0.9679 0.4996 0.5477 0.4996 0.9679 0.0473 0.9679 0.4996 0.5477 0.0473 0.5477 0.4996 " />
							</IndexedTriangleSet>
						</Shape>
					</Group>
				</Transform>
				<Transform DEF="foot1_TRANSFORM"
				           translation="-0.006814 0.022291 -0.153248"
				           scale="1.000000 1.000000 1.000000"
				           rotation="0.000000 1.000000 0.000000 0.000000"
				           >
					<Transform DEF="foot1_ifs_TRANSFORM"
					           translation="0.000000 0.000000 0.000000"
					           scale="1.000000 1.000000 1.000000"
					           rotation="0.000000 1.000000 0.000000 0.000000"
					           >
						<Group DEF="group_ME_foot1">
							<Shape>
								<Appearance>
									<Material USE="MA_Body" />
								</Appearance>
								<IndexedTriangleSet solid="false"
								                    normalPerVertex="true"
								                    index="0 1 2 0 2 3 4 5 6 4 6 7 8 9 10 8 10 11 12 13 14 12 14 15 4 16 17 4 17 15 18 5 14 18 14 19 "
								                    >
									<Coordinate point="-0.231918 -0.356486 -0.269305 -0.231918 -0.356486 0.000000 -0.231918 0.248792 0.000000 -0.231918 0.248792 -0.269305 -0.231918 0.248792 -0.269305 -0.231918 0.248792 0.000000 0.231918 0.248792 0.000000 0.231918 0.248792 -0.269305 0.231918 0.248792 -0.269305 0.231918 0.248792 0.000000 0.231918 -0.356486 0.000000 0.231918 -0.356486 -0.269305 0.231918 -0.356486 -0.269305 0.231918 -0.356486 0.000000 -0.231918 -0.356486 0.000000 -0.231918 -0.356486 -0.269305 0.231918 0.248792 -0.269305 0.231918 -0.356486 -0.269305 0.231918 0.248792 0.000000 0.231918 -0.356486 0.000000 " />
									<Normal vector="-0.577349 -0.577349 -0.577349 -0.577349 -0.577349 0.577349 -0.577349 0.577349 0.577349 -0.577349 0.577349 -0.577349 -0.577349 0.577349 -0.577349 -0.577349 0.577349 0.577349 0.577349 0.577349 0.577349 0.577349 0.577349 -0.577349 0.577349 0.577349 -0.577349 0.577349 0.577349 0.577349 0.577349 -0.577349 0.577349 0.577349 -0.577349 -0.577349 0.577349 -0.577349 -0.577349 0.577349 -0.577349 0.577349 -0.577349 -0.577349 0.577349 -0.577349 -0.577349 -0.577349 0.577349 0.577349 -0.577349 0.577349 -0.577349 -0.577349 0.577349 0.577349 0.577349 0.577349 -0.577349 0.577349 " />
									<TextureCoordinate point="0.5477 0.0473 0.9679 0.0473 0.9679 0.4996 0.5477 0.4996 0.5477 0.0473 0.9679 0.0473 0.9679 0.4996 0.5477 0.4996 0.5477 0.0473 0.9679 0.0473 0.9679 0.4996 0.5477 0.4996 0.5477 0.0473 0.9679 0.0473 0.9679 0.4996 0.5477 0.4996 0.9679 0.0473 0.9679 0.4996 0.5477 0.0473 0.5477 0.4996 " />
								</IndexedTriangleSet>
							</Shape>
						</Group>
					</Transform>
					<Transform DEF="Cube_006_TRANSFORM"
					           translation="0.121373 -0.277019 -0.151232"
					           scale="1.000000 1.000000 1.000000"
					           rotation="0.000000 1.000000 0.000000 0.000000"
					           >
						<Transform DEF="Cube_006_ifs_TRANSFORM"
						           translation="0.000000 0.000000 0.000000"
						           scale="1.000000 1.000000 1.000000"
						           rotation="0.000000 1.000000 0.000000 0.000000"
						           >
							<Group DEF="group_ME_Cube_021">
								<Shape>
									<Appearance>
										<Material USE="MA_Body" />
									</Appearance>
									<IndexedTriangleSet solid="false"
									                    normalPerVertex="true"
									                    index="0 1 2 0 2 3 4 5 6 4 6 7 8 9 10 8 10 11 12 13 14 12 14 15 16 17 18 16 18 15 19 20 14 19 14 21 22 5 1 22 1 23 4 24 25 4 25 0 26 27 28 26 28 29 30 31 20 30 20 16 "
									                    >
										<Coordinate point="-0.040243 -0.657836 -0.127583 -0.039416 -0.664365 0.087809 -0.121226 -0.018677 0.107696 -0.122053 -0.012147 -0.107696 -0.122053 -0.012147 -0.107696 -0.121226 -0.018677 0.107696 0.122053 0.012147 0.107696 0.121226 0.018677 -0.107696 0.203036 -0.627012 -0.127583 0.203863 -0.633541 0.087809 0.236689 -0.892622 0.079830 0.235862 -0.886093 -0.135562 0.235862 -0.886093 -0.135562 0.236689 -0.892622 0.079830 -0.006590 -0.923446 0.079830 -0.007417 -0.916917 -0.135562 -0.040243 -0.657836 -0.127583 0.203036 -0.627012 -0.127583 0.235862 -0.886093 -0.135562 0.203863 -0.633541 0.087809 -0.039416 -0.664365 0.087809 0.236689 -0.892622 0.079830 0.122053 0.012147 0.107696 0.203863 -0.633541 0.087809 0.121226 0.018677 -0.107696 0.203036 -0.627012 -0.127583 0.121226 0.018677 -0.107696 0.122053 0.012147 0.107696 0.203863 -0.633541 0.087809 0.203036 -0.627012 -0.127583 -0.007417 -0.916917 -0.135562 -0.006590 -0.923446 0.079830 " />
										<Normal vector="-0.704184 -0.067446 -0.706748 -0.698782 -0.110294 0.706748 -0.643086 0.482437 0.594684 -0.647511 0.517411 -0.559435 -0.647511 0.517411 -0.559435 -0.643086 0.482437 0.594684 0.502426 0.627552 0.594684 0.498001 0.662557 -0.559435 0.698782 0.110294 -0.706748 0.704184 0.067446 0.706748 0.647511 -0.517411 0.559435 0.643086 -0.482437 -0.594684 0.643086 -0.482437 -0.594684 0.647511 -0.517411 0.559435 -0.498001 -0.662557 0.559435 -0.502426 -0.627552 -0.594684 -0.704184 -0.067446 -0.706748 0.698782 0.110294 -0.706748 0.643086 -0.482437 -0.594684 0.704184 0.067446 0.706748 -0.698782 -0.110294 0.706748 0.647511 -0.517411 0.559435 0.502426 0.627552 0.594684 0.704184 0.067446 0.706748 0.498001 0.662557 -0.559435 0.698782 0.110294 -0.706748 0.498001 0.662557 -0.559435 0.502426 0.627552 0.594684 0.704184 0.067446 0.706748 0.698782 0.110294 -0.706748 -0.502426 -0.627552 -0.594684 -0.498001 -0.662557 0.559435 " />
										<TextureCoordinate point="0.5477 0.2734 0.9679 0.2734 0.9679 0.4996 0.5477 0.4996 0.5477 0.0473 0.9679 0.0473 0.9679 0.4996 0.5477 0.4996 0.0624 0.1562 0.4533 0.1562 0.4533 0.2786 0.0624 0.2786 0.0624 0.0339 0.4533 0.0339 0.4533 0.2786 0.0624 0.2786 0.0624 0.1562 0.4533 0.1562 0.4533 0.2786 0.0624 0.1562 0.4533 0.1562 0.0624 0.2786 0.5477 0.0473 0.5477 0.2734 0.9679 0.0473 0.9679 0.2734 0.5477 0.0473 0.9679 0.0473 0.9679 0.2734 0.5477 0.2734 0.0624 0.0339 0.4533 0.0339 " />
									</IndexedTriangleSet>
								</Shape>
							</Group>
						</Transform>
					</Transform>
					<Transform DEF="Cube_007_TRANSFORM"
					           translation="-0.107129 -0.277019 -0.151232"
					           scale="1.000000 1.000000 1.000000"
					           rotation="0.000000 1.000000 0.000000 0.000000"
					           >
						<Transform DEF="Cube_007_ifs_TRANSFORM"
						           translation="0.000000 0.000000 0.000000"
						           scale="1.000000 1.000000 1.000000"
						           rotation="0.000000 1.000000 0.000000 0.000000"
						           >
							<Group DEF="group_ME_Cube_022">
								<Shape>
									<Appearance>
										<Material USE="MA_Body" />
									</Appearance>
									<IndexedTriangleSet solid="false"
									                    normalPerVertex="true"
									                    index="0 1 2 0 2 3 4 5 6 4 6 7 8 9 10 8 10 11 12 13 14 12 14 15 16 13 17 16 17 18 19 20 14 19 14 21 22 23 3 22 3 7 4 0 24 4 24 25 26 27 28 26 28 29 30 16 21 30 21 31 "
									                    >
										<Coordinate point="0.040243 -0.657836 -0.127583 0.122053 -0.012147 -0.107696 0.121226 -0.018677 0.107696 0.039416 -0.664365 0.087809 0.122053 -0.012147 -0.107696 -0.121226 0.018677 -0.107696 -0.122053 0.012147 0.107696 0.121226 -0.018677 0.107696 -0.203036 -0.627012 -0.127583 -0.235862 -0.886093 -0.135562 -0.236689 -0.892622 0.079830 -0.203863 -0.633541 0.087809 -0.235862 -0.886093 -0.135562 0.007417 -0.916917 -0.135562 0.006590 -0.923446 0.079830 -0.236689 -0.892622 0.079830 0.040243 -0.657836 -0.127583 -0.235862 -0.886093 -0.135562 -0.203036 -0.627012 -0.127583 -0.203863 -0.633541 0.087809 -0.236689 -0.892622 0.079830 0.039416 -0.664365 0.087809 -0.122053 0.012147 0.107696 -0.203863 -0.633541 0.087809 -0.203036 -0.627012 -0.127583 -0.121226 0.018677 -0.107696 -0.121226 0.018677 -0.107696 -0.203036 -0.627012 -0.127583 -0.203863 -0.633541 0.087809 -0.122053 0.012147 0.107696 0.007417 -0.916917 -0.135562 0.006590 -0.923446 0.079830 " />
										<Normal vector="0.704184 -0.067446 -0.706748 0.647511 0.517411 -0.559435 0.643086 0.482437 0.594684 0.698782 -0.110294 0.706748 0.647511 0.517411 -0.559435 -0.498001 0.662557 -0.559435 -0.502426 0.627552 0.594684 0.643086 0.482437 0.594684 -0.698782 0.110294 -0.706748 -0.643086 -0.482437 -0.594684 -0.647511 -0.517411 0.559435 -0.704184 0.067446 0.706748 -0.643086 -0.482437 -0.594684 0.502426 -0.627552 -0.594684 0.498001 -0.662557 0.559435 -0.647511 -0.517411 0.559435 0.704184 -0.067446 -0.706748 -0.643086 -0.482437 -0.594684 -0.698782 0.110294 -0.706748 -0.704184 0.067446 0.706748 -0.647511 -0.517411 0.559435 0.698782 -0.110294 0.706748 -0.502426 0.627552 0.594684 -0.704184 0.067446 0.706748 -0.698782 0.110294 -0.706748 -0.498001 0.662557 -0.559435 -0.498001 0.662557 -0.559435 -0.698782 0.110294 -0.706748 -0.704184 0.067446 0.706748 -0.502426 0.627552 0.594684 0.502426 -0.627552 -0.594684 0.498001 -0.662557 0.559435 " />
										<TextureCoordinate point="0.5477 0.2734 0.5477 0.4996 0.9679 0.4996 0.9679 0.2734 0.5477 0.0473 0.5477 0.4996 0.9679 0.4996 0.9679 0.0473 0.0624 0.1562 0.0624 0.2786 0.4533 0.2786 0.4533 0.1562 0.0624 0.0339 0.0624 0.2786 0.4533 0.2786 0.4533 0.0339 0.0624 0.1562 0.4533 0.2786 0.4533 0.1562 0.0624 0.1562 0.0624 0.2786 0.4533 0.1562 0.5477 0.0473 0.5477 0.2734 0.9679 0.2734 0.9679 0.0473 0.5477 0.0473 0.5477 0.2734 0.9679 0.2734 0.9679 0.0473 0.0624 0.0339 0.4533 0.0339 " />
									</IndexedTriangleSet>
								</Shape>
							</Group>
						</Transform>
					</Transform>
					<Transform DEF="Cube_008_TRANSFORM"
					           translation="0.012346 0.177259 -0.151232"
					           scale="1.000000 1.000000 1.000000"
					           rotation="0.000000 1.000000 0.000000 0.000000"
					           >
						<Transform DEF="Cube_008_ifs_TRANSFORM"
						           translation="0.000000 0.000000 0.000000"
						           scale="1.000000 1.000000 1.000000"
						           rotation="0.000000 1.000000 0.000000 0.000000"
						           >
							<Group DEF="group_ME_Cube_023">
								<Shape>
									<Appearance>
										<Material USE="MA_Body" />
									</Appearance>
									<IndexedTriangleSet solid="false"
									                    normalPerVertex="true"
									                    index="0 1 2 0 2 3 4 5 6 4 6 7 8 9 10 8 10 11 12 13 14 12 14 15 16 17 18 16 18 15 19 20 14 19 14 21 22 5 1 22 1 23 4 24 25 4 25 0 26 27 28 26 28 29 30 31 20 30 20 16 "
									                    >
										<Coordinate point="0.122612 0.427935 -0.120872 0.122612 0.434517 0.094520 0.122612 0.003291 0.107696 0.122612 -0.003291 -0.107696 0.122612 -0.003291 -0.107696 0.122612 0.003291 0.107696 -0.122612 0.003291 0.107696 -0.122612 -0.003291 -0.107696 -0.122612 0.427935 -0.120872 -0.122612 0.434517 0.094520 -0.122612 0.666715 0.087425 -0.122612 0.660134 -0.127967 -0.122612 0.660134 -0.127967 -0.122612 0.666715 0.087425 0.122612 0.666716 0.087425 0.122612 0.660134 -0.127967 0.122612 0.427935 -0.120872 -0.122612 0.427935 -0.120872 -0.122612 0.660134 -0.127967 -0.122612 0.434517 0.094520 0.122612 0.434517 0.094520 -0.122612 0.666715 0.087425 -0.122612 0.003291 0.107696 -0.122612 0.434517 0.094520 -0.122612 -0.003291 -0.107696 -0.122612 0.427935 -0.120872 -0.122612 -0.003291 -0.107696 -0.122612 0.003291 0.107696 -0.122612 0.434517 0.094520 -0.122612 0.427935 -0.120872 0.122612 0.660134 -0.127967 0.122612 0.666716 0.087425 " />
										<Normal vector="0.707083 -0.021577 -0.706748 0.707083 0.021577 0.706748 0.577349 -0.559435 0.594684 0.577349 -0.594684 -0.559435 0.577349 -0.594684 -0.559435 0.577349 -0.559435 0.594684 -0.577349 -0.559435 0.594684 -0.577349 -0.594684 -0.559435 -0.707083 -0.021577 -0.706748 -0.707083 0.021577 0.706748 -0.577349 0.594684 0.559435 -0.577349 0.559435 -0.594684 -0.577349 0.559435 -0.594684 -0.577349 0.594684 0.559435 0.577349 0.594684 0.559435 0.577349 0.559435 -0.594684 0.707083 -0.021577 -0.706748 -0.707083 -0.021577 -0.706748 -0.577349 0.559435 -0.594684 -0.707083 0.021577 0.706748 0.707083 0.021577 0.706748 -0.577349 0.594684 0.559435 -0.577349 -0.559435 0.594684 -0.707083 0.021577 0.706748 -0.577349 -0.594684 -0.559435 -0.707083 -0.021577 -0.706748 -0.577349 -0.594684 -0.559435 -0.577349 -0.559435 0.594684 -0.707083 0.021577 0.706748 -0.707083 -0.021577 -0.706748 0.577349 0.559435 -0.594684 0.577349 0.594684 0.559435 " />
										<TextureCoordinate point="0.5477 0.2734 0.9679 0.2734 0.9679 0.4996 0.5477 0.4996 0.5477 0.0473 0.9679 0.0473 0.9679 0.4996 0.5477 0.4996 0.0527 0.1562 0.4629 0.1562 0.4629 0.2744 0.0527 0.2744 0.0527 0.0381 0.4629 0.0381 0.4629 0.2744 0.0527 0.2744 0.0527 0.1562 0.4629 0.1562 0.4629 0.2744 0.0527 0.1562 0.4629 0.1562 0.0527 0.2744 0.5477 0.0473 0.5477 0.2734 0.9679 0.0473 0.9679 0.2734 0.5477 0.0473 0.9679 0.0473 0.9679 0.2734 0.5477 0.2734 0.0527 0.0381 0.4629 0.0381 " />
									</IndexedTriangleSet>
								</Shape>
							</Group>
						</Transform>
					</Transform>
				</Transform>
			</Transform>
			<Transform DEF="tail_TRANSFORM"
			           translation="0.000000 1.299947 0.893007"
			           scale="1.000000 1.000000 1.000000"
			           rotation="0.000000 1.000000 0.000000 0.000000"
			           >
				<Transform DEF="tail_ifs_TRANSFORM"
				           translation="0.000000 0.000000 0.000000"
				           scale="1.000000 1.000000 1.000000"
				           rotation="0.000000 1.000000 0.000000 0.000000"
				           >
					<Group DEF="group_ME_tail">
						<Shape>
							<Appearance>
								<Material USE="MA_Body" />
							</Appearance>
							<IndexedTriangleSet solid="false"
							                    normalPerVertex="true"
							                    index="0 1 2 0 2 3 4 5 6 4 6 7 8 9 10 8 10 11 12 13 14 12 14 15 4 16 17 4 17 15 18 5 14 18 14 19 "
							                    >
								<Coordinate point="-0.308553 -0.010761 -0.048253 -0.308553 0.010761 0.048253 -0.308553 1.344907 -0.249281 -0.308553 1.323385 -0.345787 -0.308553 1.323385 -0.345787 -0.308553 1.344907 -0.249281 0.308553 1.344907 -0.249281 0.308553 1.323385 -0.345787 0.308553 1.323385 -0.345787 0.308553 1.344907 -0.249281 0.308553 0.010761 0.048253 0.308553 -0.010761 -0.048253 0.308553 -0.010761 -0.048253 0.308553 0.010761 0.048253 -0.308553 0.010761 0.048253 -0.308553 -0.010761 -0.048253 0.308553 1.323385 -0.345787 0.308553 -0.010761 -0.048253 0.308553 1.344907 -0.249281 0.308553 0.010761 0.048253 " />
								<Normal vector="-0.577349 -0.689169 -0.437819 -0.577349 -0.437819 0.689169 -0.577349 0.689169 0.437819 -0.577349 0.437819 -0.689169 -0.577349 0.437819 -0.689169 -0.577349 0.689169 0.437819 0.577349 0.689169 0.437819 0.577349 0.437819 -0.689169 0.577349 0.437819 -0.689169 0.577349 0.689169 0.437819 0.577349 -0.437819 0.689169 0.577349 -0.689169 -0.437819 0.577349 -0.689169 -0.437819 0.577349 -0.437819 0.689169 -0.577349 -0.437819 0.689169 -0.577349 -0.689169 -0.437819 0.577349 0.437819 -0.689169 0.577349 -0.689169 -0.437819 0.577349 0.689169 0.437819 0.577349 -0.437819 0.689169 " />
								<TextureCoordinate point="0.5539 0.0735 0.9695 0.0735 0.9695 0.4890 0.5539 0.4890 0.5539 0.0735 0.9695 0.0735 0.9695 0.4890 0.5539 0.4890 0.5539 0.0735 0.9695 0.0735 0.9695 0.4890 0.5539 0.4890 0.5539 0.0735 0.9695 0.0735 0.9695 0.4890 0.5539 0.4890 0.9695 0.0735 0.9695 0.4890 0.5539 0.0735 0.5539 0.4890 " />
							</IndexedTriangleSet>
						</Shape>
					</Group>
				</Transform>
				<Transform DEF="Cube_010_TRANSFORM"
				           translation="0.140285 0.001634 -0.270944"
				           scale="1.000000 1.000000 1.000000"
				           rotation="0.000000 1.000000 0.000000 0.000000"
				           >
					<Transform DEF="Cube_010_ifs_TRANSFORM"
					           translation="0.000000 0.000000 0.000000"
					           scale="1.000000 1.000000 1.000000"
					           rotation="0.000000 1.000000 0.000000 0.000000"
					           >
						<Group DEF="group_ME_Cube_025">
							<Shape>
								<Appearance>
									<Material USE="MA_Body" />
								</Appearance>
								<IndexedTriangleSet solid="false"
								                    normalPerVertex="true"
								                    index="0 1 2 0 2 3 4 5 6 4 6 7 8 9 10 8 10 11 12 13 14 12 14 15 4 16 17 4 17 15 18 5 14 18 14 19 "
								                    >
									<Coordinate point="-0.077253 0.078652 0.234578 0.023078 0.065358 0.249754 0.220606 1.197170 -0.064681 0.120275 1.210465 -0.079857 0.120275 1.210465 -0.079857 0.220606 1.197170 -0.064681 0.274782 1.053160 -0.549014 0.174451 1.066455 -0.564189 0.174451 1.066455 -0.564189 0.274782 1.053160 -0.549014 0.077253 -0.078652 -0.234578 -0.023078 -0.065358 -0.249754 -0.023078 -0.065358 -0.249754 0.077253 -0.078652 -0.234578 0.023078 0.065358 0.249754 -0.077253 0.078652 0.234578 0.174451 1.066455 -0.564189 -0.023078 -0.065358 -0.249754 0.274782 1.053160 -0.549014 0.077253 -0.078652 -0.234578 " />
									<Normal vector="-0.723289 -0.309946 0.617023 0.408704 -0.459944 0.788263 0.600208 0.637165 0.483444 -0.531816 0.787164 0.312204 -0.531816 0.787164 0.312204 0.600208 0.637165 0.483444 0.723289 0.309946 -0.617023 -0.408704 0.459944 -0.788263 -0.408704 0.459944 -0.788263 0.723289 0.309946 -0.617023 0.531816 -0.787164 -0.312204 -0.600208 -0.637165 -0.483444 -0.600208 -0.637165 -0.483444 0.531816 -0.787164 -0.312204 0.408704 -0.459944 0.788263 -0.723289 -0.309946 0.617023 -0.408704 0.459944 -0.788263 -0.600208 -0.637165 -0.483444 0.723289 0.309946 -0.617023 0.531816 -0.787164 -0.312204 " />
									<TextureCoordinate point="0.5539 0.0735 0.9695 0.0735 0.9695 0.4890 0.5539 0.4890 0.5539 0.0735 0.9695 0.0735 0.9695 0.4890 0.5539 0.4890 0.5539 0.0735 0.9695 0.0735 0.9695 0.4890 0.5539 0.4890 0.5539 0.0735 0.9695 0.0735 0.9695 0.4890 0.5539 0.4890 0.9695 0.0735 0.9695 0.4890 0.5539 0.0735 0.5539 0.4890 " />
								</IndexedTriangleSet>
							</Shape>
						</Group>
					</Transform>
				</Transform>
				<Transform DEF="Cube_009_TRANSFORM"
				           translation="-0.140285 0.001634 -0.270944"
				           scale="1.000000 1.000000 1.000000"
				           rotation="0.000000 1.000000 0.000000 0.000000"
				           >
					<Transform DEF="Cube_009_ifs_TRANSFORM"
					           translation="0.000000 0.000000 0.000000"
					           scale="1.000000 1.000000 1.000000"
					           rotation="0.000000 1.000000 0.000000 0.000000"
					           >
						<Group DEF="group_ME_Cube_024">
							<Shape>
								<Appearance>
									<Material USE="MA_Body" />
								</Appearance>
								<IndexedTriangleSet solid="false"
								                    normalPerVertex="true"
								                    index="0 1 2 0 2 3 4 5 6 4 6 7 8 9 10 8 10 11 12 13 14 12 14 15 4 13 16 4 16 17 18 19 14 18 14 7 "
								                    >
									<Coordinate point="0.077253 0.078652 0.234578 -0.120275 1.210465 -0.079857 -0.220606 1.197170 -0.064681 -0.023078 0.065358 0.249754 -0.120275 1.210465 -0.079857 -0.174451 1.066455 -0.564189 -0.274782 1.053160 -0.549013 -0.220606 1.197170 -0.064681 -0.174451 1.066455 -0.564189 0.023078 -0.065358 -0.249754 -0.077253 -0.078652 -0.234578 -0.274782 1.053160 -0.549013 0.023078 -0.065358 -0.249754 0.077253 0.078652 0.234578 -0.023078 0.065358 0.249754 -0.077253 -0.078652 -0.234578 0.023078 -0.065358 -0.249754 -0.174451 1.066455 -0.564189 -0.274782 1.053160 -0.549013 -0.077253 -0.078652 -0.234578 " />
									<Normal vector="0.723289 -0.309946 0.617023 0.531816 0.787164 0.312204 -0.600208 0.637165 0.483444 -0.408704 -0.459944 0.788263 0.531816 0.787164 0.312204 0.408704 0.459944 -0.788263 -0.723289 0.309946 -0.617023 -0.600208 0.637165 0.483444 0.408704 0.459944 -0.788263 0.600208 -0.637165 -0.483444 -0.531816 -0.787164 -0.312204 -0.723289 0.309946 -0.617023 0.600208 -0.637165 -0.483444 0.723289 -0.309946 0.617023 -0.408704 -0.459944 0.788263 -0.531816 -0.787164 -0.312204 0.600208 -0.637165 -0.483444 0.408704 0.459944 -0.788263 -0.723289 0.309946 -0.617023 -0.531816 -0.787164 -0.312204 " />
									<TextureCoordinate point="0.5539 0.0735 0.5539 0.4890 0.9695 0.4890 0.9695 0.0735 0.5539 0.0735 0.5539 0.4890 0.9695 0.4890 0.9695 0.0735 0.5539 0.0735 0.5539 0.4890 0.9695 0.4890 0.9695 0.0735 0.5539 0.0735 0.5539 0.4890 0.9695 0.4890 0.9695 0.0735 0.9695 0.4890 0.9695 0.0735 0.5539 0.0735 0.5539 0.4890 " />
								</IndexedTriangleSet>
							</Shape>
						</Group>
					</Transform>
				</Transform>
			</Transform>
			<Transform DEF="wing1_TRANSFORM"
			           translation="1.478930 -0.719162 0.922597"
			           scale="1.000000 1.000000 1.000000"
			           rotation="0.000000 1.000000 0.000000 0.000000"
			           >
				<Transform DEF="wing1_ifs_TRANSFORM"
				           translation="0.000000 0.000000 0.000000"
				           scale="1.000000 1.000000 1.000000"
				           rotation="0.000000 1.000000 0.000000 0.000000"
				           >
					<Group DEF="group_ME_wing1">
						<Shape>
							<Appearance>
								<Material USE="MA_Body" />
							</Appearance>
							<IndexedTriangleSet solid="false"
							                    normalPerVertex="true"
							                    index="0 1 2 0 2 3 4 5 6 4 6 7 8 9 10 8 10 11 12 13 14 12 14 15 16 17 18 16 18 19 20 21 14 20 14 22 23 24 25 23 25 26 27 28 29 27 29 30 31 32 33 31 33 34 35 36 37 35 37 38 39 40 41 39 41 42 43 44 45 43 45 46 47 5 48 47 48 49 38 37 1 38 1 0 50 51 52 50 52 53 51 54 55 51 55 52 54 56 57 54 57 55 56 38 0 56 0 57 58 59 60 58 60 61 62 63 64 62 64 65 66 67 68 66 68 69 70 71 72 70 72 73 74 75 51 74 51 50 75 76 54 75 54 51 76 77 56 76 56 54 77 35 38 77 38 56 78 79 80 78 80 81 82 83 84 82 84 85 86 87 88 86 88 89 90 91 92 90 92 93 94 95 96 94 96 19 95 97 98 95 98 96 97 99 100 97 100 98 99 12 15 99 15 100 101 102 103 101 103 104 102 105 106 102 106 103 105 107 108 105 108 106 107 8 11 107 11 108 43 109 110 43 110 111 112 113 114 112 114 115 116 117 118 116 118 119 120 121 122 120 122 123 53 52 124 53 124 125 126 127 128 126 128 129 55 57 130 55 130 131 132 133 134 132 134 135 "
							                    >
								<Coordinate point="-0.201623 1.083016 0.341414 -0.201623 1.105206 0.623983 -0.201623 1.823944 0.567538 -0.201623 1.801753 0.284970 -0.201623 1.801753 0.284970 -0.201623 1.823944 0.567538 0.201623 1.823944 0.567538 0.201623 1.801753 0.284970 0.201623 0.771722 0.365861 0.201623 0.793913 0.648429 0.201623 0.055477 0.706421 0.201623 0.033286 0.423852 0.201623 0.033286 0.423852 0.201623 0.055477 0.706421 -0.201623 0.055477 0.706421 -0.201623 0.033286 0.423852 -0.201623 0.682959 -0.764412 0.201623 0.682959 -0.764412 0.201623 -0.055477 -0.706421 -0.201623 -0.055477 -0.706421 0.201623 0.793913 0.648429 -0.201623 0.793913 0.648429 0.201623 0.055477 0.706421 0.201623 1.105206 0.623983 -0.201623 1.105206 0.623983 -0.201623 0.793913 0.648429 0.201623 0.793913 0.648429 -0.201623 0.994252 -0.788859 0.201623 0.994252 -0.788859 0.201623 0.682959 -0.764412 -0.201623 0.682959 -0.764412 0.201623 1.083016 0.341414 0.201623 1.105206 0.623983 0.201623 0.793913 0.648429 0.201623 0.771722 0.365861 -0.201623 0.033286 0.423852 -0.201623 0.055477 0.706421 -0.201623 0.793913 0.648429 -0.201623 0.771722 0.365861 0.201623 1.801753 0.284970 0.201623 1.823944 0.567538 0.201623 1.105206 0.623983 0.201623 1.083016 0.341414 -0.201623 1.712990 -0.845303 0.201623 1.712990 -0.845303 0.201623 0.994252 -0.788859 -0.201623 0.994252 -0.788859 0.201623 1.823944 0.567538 -0.201623 1.105206 0.623983 0.201623 1.105206 0.623983 -0.201623 0.682959 -0.764412 -0.201623 0.705150 -0.481844 -0.201623 1.016443 -0.506290 -0.201623 0.994252 -0.788859 -0.201623 0.727340 -0.199275 -0.201623 1.038634 -0.223722 -0.201623 0.749531 0.083293 -0.201623 1.060825 0.058846 0.201623 1.712990 -0.845303 0.201623 1.735181 -0.562735 0.201623 1.016443 -0.506290 0.201623 0.994252 -0.788859 0.201623 1.735181 -0.562735 0.201623 1.757372 -0.280166 0.201623 1.038634 -0.223722 0.201623 1.016443 -0.506290 0.201623 1.757372 -0.280166 0.201623 1.779563 0.002402 0.201623 1.060825 0.058846 0.201623 1.038634 -0.223722 0.201623 1.779563 0.002402 0.201623 1.801753 0.284970 0.201623 1.083016 0.341414 0.201623 1.060825 0.058846 -0.201623 -0.055477 -0.706421 -0.201623 -0.033286 -0.423852 -0.201623 -0.011095 -0.141284 -0.201623 0.011095 0.141284 0.201623 0.994252 -0.788859 0.201623 1.016443 -0.506290 0.201623 0.705150 -0.481844 0.201623 0.682959 -0.764412 0.201623 1.016443 -0.506290 0.201623 1.038634 -0.223722 0.201623 0.727340 -0.199275 0.201623 0.705150 -0.481844 0.201623 1.038634 -0.223722 0.201623 1.060825 0.058846 0.201623 0.749531 0.083293 0.201623 0.727340 -0.199275 0.201623 1.060825 0.058846 0.201623 1.083016 0.341414 0.201623 0.771722 0.365861 0.201623 0.749531 0.083293 0.201623 -0.055477 -0.706421 0.201623 -0.033286 -0.423852 -0.201623 -0.033286 -0.423852 0.201623 -0.011095 -0.141284 -0.201623 -0.011095 -0.141284 0.201623 0.011095 0.141284 -0.201623 0.011095 0.141284 0.201623 0.682959 -0.764412 0.201623 0.705150 -0.481844 0.201623 -0.033286 -0.423852 0.201623 -0.055477 -0.706421 0.201623 0.727340 -0.199275 0.201623 -0.011095 -0.141284 0.201623 0.749531 0.083293 0.201623 0.011095 0.141284 -0.201623 1.735181 -0.562735 0.201623 1.735181 -0.562735 0.201623 1.712990 -0.845303 -0.201623 1.735181 -0.562735 -0.201623 1.757372 -0.280166 0.201623 1.757372 -0.280166 0.201623 1.735181 -0.562735 -0.201623 1.757372 -0.280166 -0.201623 1.779563 0.002402 0.201623 1.779563 0.002402 0.201623 1.757372 -0.280166 -0.201623 1.779563 0.002402 -0.201623 1.801753 0.284970 0.201623 1.801753 0.284970 0.201623 1.779563 0.002402 -0.201623 1.735181 -0.562735 -0.201623 1.712990 -0.845303 -0.201623 1.016443 -0.506290 -0.201623 1.038634 -0.223722 -0.201623 1.757372 -0.280166 -0.201623 1.735181 -0.562735 -0.201623 1.779563 0.002402 -0.201623 1.757372 -0.280166 -0.201623 1.060825 0.058846 -0.201623 1.083016 0.341414 -0.201623 1.801753 0.284970 -0.201623 1.779563 0.002402 " />
								<Normal vector="-1.000000 0.000000 0.000000 -0.707083 0.055330 0.704917 -0.577349 0.620777 0.530351 -0.707083 0.704917 -0.055330 -0.707083 0.704917 -0.055330 -0.577349 0.620777 0.530351 0.577349 0.620777 0.530351 0.707083 0.704917 -0.055330 1.000000 0.000000 0.000000 0.707083 0.055330 0.704917 0.577349 -0.530351 0.620777 0.707083 -0.704917 0.055330 0.707083 -0.704917 0.055330 0.577349 -0.530351 0.620777 -0.577349 -0.530351 0.620777 -0.707083 -0.704917 0.055330 -0.707083 -0.055330 -0.704917 0.707083 -0.055330 -0.704917 0.577349 -0.620777 -0.530351 -0.577349 -0.620777 -0.530351 0.707083 0.055330 0.704917 -0.707083 0.055330 0.704917 0.577349 -0.530351 0.620777 0.707083 0.055330 0.704917 -0.707083 0.055330 0.704917 -0.707083 0.055330 0.704917 0.707083 0.055330 0.704917 -0.707083 -0.055330 -0.704917 0.707083 -0.055330 -0.704917 0.707083 -0.055330 -0.704917 -0.707083 -0.055330 -0.704917 1.000000 0.000000 0.000000 0.707083 0.055330 0.704917 0.707083 0.055330 0.704917 1.000000 0.000000 0.000000 -0.707083 -0.704917 0.055330 -0.577349 -0.530351 0.620777 -0.707083 0.055330 0.704917 -1.000000 0.000000 0.000000 0.707083 0.704917 -0.055330 0.577349 0.620777 0.530351 0.707083 0.055330 0.704917 1.000000 0.000000 0.000000 -0.577349 0.530351 -0.620777 0.577349 0.530351 -0.620777 0.707083 -0.055330 -0.704917 -0.707083 -0.055330 -0.704917 0.577349 0.620777 0.530351 -0.707083 0.055330 0.704917 0.707083 0.055330 0.704917 -0.707083 -0.055330 -0.704917 -1.000000 0.000000 0.000000 -1.000000 0.000000 0.000000 -0.707083 -0.055330 -0.704917 -1.000000 0.000000 0.000000 -1.000000 0.000000 0.000000 -1.000000 0.000000 0.000000 -1.000000 0.000000 0.000000 0.577349 0.530351 -0.620777 0.707083 0.704917 -0.055330 1.000000 0.000000 0.000000 0.707083 -0.055330 -0.704917 0.707083 0.704917 -0.055330 0.707083 0.704917 -0.055330 1.000000 0.000000 0.000000 1.000000 0.000000 0.000000 0.707083 0.704917 -0.055330 0.707083 0.704917 -0.055330 1.000000 0.000000 0.000000 1.000000 0.000000 0.000000 0.707083 0.704917 -0.055330 0.707083 0.704917 -0.055330 1.000000 0.000000 0.000000 1.000000 0.000000 0.000000 -0.577349 -0.620777 -0.530351 -0.707083 -0.704917 0.055330 -0.707083 -0.704917 0.055330 -0.707083 -0.704917 0.055330 0.707083 -0.055330 -0.704917 1.000000 0.000000 0.000000 1.000000 0.000000 0.000000 0.707083 -0.055330 -0.704917 1.000000 0.000000 0.000000 1.000000 0.000000 0.000000 1.000000 0.000000 0.000000 1.000000 0.000000 0.000000 1.000000 0.000000 0.000000 1.000000 0.000000 0.000000 1.000000 0.000000 0.000000 1.000000 0.000000 0.000000 1.000000 0.000000 0.000000 1.000000 0.000000 0.000000 1.000000 0.000000 0.000000 1.000000 0.000000 0.000000 0.577349 -0.620777 -0.530351 0.707083 -0.704917 0.055330 -0.707083 -0.704917 0.055330 0.707083 -0.704917 0.055330 -0.707083 -0.704917 0.055330 0.707083 -0.704917 0.055330 -0.707083 -0.704917 0.055330 0.707083 -0.055330 -0.704917 1.000000 0.000000 0.000000 0.707083 -0.704917 0.055330 0.577349 -0.620777 -0.530351 1.000000 0.000000 0.000000 0.707083 -0.704917 0.055330 1.000000 0.000000 0.000000 0.707083 -0.704917 0.055330 -0.707083 0.704917 -0.055330 0.707083 0.704917 -0.055330 0.577349 0.530351 -0.620777 -0.707083 0.704917 -0.055330 -0.707083 0.704917 -0.055330 0.707083 0.704917 -0.055330 0.707083 0.704917 -0.055330 -0.707083 0.704917 -0.055330 -0.707083 0.704917 -0.055330 0.707083 0.704917 -0.055330 0.707083 0.704917 -0.055330 -0.707083 0.704917 -0.055330 -0.707083 0.704917 -0.055330 0.707083 0.704917 -0.055330 0.707083 0.704917 -0.055330 -0.707083 0.704917 -0.055330 -0.577349 0.530351 -0.620777 -1.000000 0.000000 0.000000 -1.000000 0.000000 0.000000 -0.707083 0.704917 -0.055330 -0.707083 0.704917 -0.055330 -0.707083 0.704917 -0.055330 -0.707083 0.704917 -0.055330 -1.000000 0.000000 0.000000 -1.000000 0.000000 0.000000 -0.707083 0.704917 -0.055330 -0.707083 0.704917 -0.055330 " />
								<TextureCoordinate point="0.8804 0.3756 0.9622 0.3756 0.9622 0.4778 0.8804 0.4778 0.8804 0.0691 0.9622 0.0691 0.9622 0.4778 0.8804 0.4778 0.8804 0.7812 0.9622 0.7812 0.9622 0.9572 0.8804 0.9572 0.8804 0.6053 0.9622 0.6053 0.9622 0.9572 0.8804 0.9572 0.5534 0.7812 0.9622 0.7812 0.9622 0.9572 0.5534 0.9572 0.5534 0.7812 0.9622 0.7812 0.5534 0.9572 0.0234 0.3511 0.4532 0.3511 0.4532 0.5161 0.0234 0.5161 0.0234 0.3511 0.4532 0.3511 0.4532 0.5161 0.0234 0.5161 0.0234 0.3511 0.4532 0.3511 0.4532 0.5161 0.0234 0.5161 0.8804 0.0691 0.9622 0.0691 0.9622 0.2734 0.8804 0.2734 0.8804 0.0691 0.9622 0.0691 0.9622 0.1713 0.8804 0.1713 0.5534 0.0691 0.9622 0.0691 0.9622 0.1713 0.5534 0.1713 0.5534 0.0691 0.9622 0.1713 0.5534 0.1713 0.5534 0.2734 0.6352 0.2734 0.6352 0.3756 0.5534 0.3756 0.7169 0.2734 0.7169 0.3756 0.7987 0.2734 0.7987 0.3756 0.5534 0.0691 0.6352 0.0691 0.6352 0.1713 0.5534 0.1713 0.0234 0.3511 0.4532 0.3511 0.4532 0.5161 0.0234 0.5161 0.7169 0.0691 0.7987 0.0691 0.7987 0.1713 0.7169 0.1713 0.0234 0.3511 0.4532 0.3511 0.4532 0.5161 0.0234 0.5161 0.5534 0.0691 0.6352 0.0691 0.7169 0.0691 0.7987 0.0691 0.0234 0.3511 0.4532 0.3511 0.4532 0.5161 0.0234 0.5161 0.0234 0.3511 0.4532 0.3511 0.4532 0.5161 0.0234 0.5161 0.0234 0.3511 0.4532 0.3511 0.4532 0.5161 0.0234 0.5161 0.0234 0.3511 0.4532 0.3511 0.4532 0.5161 0.0234 0.5161 0.5534 0.6053 0.6352 0.6053 0.6352 0.9572 0.7169 0.6053 0.7169 0.9572 0.7987 0.6053 0.7987 0.9572 0.5534 0.7812 0.6352 0.7812 0.6352 0.9572 0.5534 0.9572 0.7169 0.7812 0.7169 0.9572 0.7987 0.7812 0.7987 0.9572 0.6352 0.0691 0.6352 0.4778 0.5534 0.4778 0.0234 0.3511 0.4532 0.3511 0.4532 0.5161 0.0234 0.5161 0.7169 0.0691 0.7987 0.0691 0.7987 0.4778 0.7169 0.4778 0.0234 0.3511 0.4532 0.3511 0.4532 0.5161 0.0234 0.5161 0.6352 0.4778 0.5534 0.4778 0.0234 0.3511 0.4532 0.3511 0.4532 0.5161 0.0234 0.5161 0.7987 0.4778 0.7169 0.4778 0.0234 0.3511 0.4532 0.3511 0.4532 0.5161 0.0234 0.5161 " />
							</IndexedTriangleSet>
						</Shape>
					</Group>
				</Transform>
			</Transform>
			<Transform DEF="leg2_TRANSFORM"
			           translation="-0.404307 0.083707 0.056519"
			           scale="1.000000 1.000000 1.000000"
			           rotation="0.000000 1.000000 0.000000 0.000000"
			           >
				<Transform DEF="leg2_ifs_TRANSFORM"
				           translation="0.000000 0.000000 0.000000"
				           scale="1.000000 1.000000 1.000000"
				           rotation="0.000000 1.000000 0.000000 0.000000"
				           >
					<Group DEF="group_ME_leg2">
						<Shape>
							<Appearance>
								<Material USE="MA_Body" />
							</Appearance>
							<IndexedTriangleSet solid="false"
							                    normalPerVertex="true"
							                    index="0 1 2 0 2 3 4 5 6 4 6 7 8 9 10 8 10 11 12 13 14 12 14 15 4 13 16 4 16 17 18 19 14 18 14 7 "
							                    >
								<Coordinate point="0.106575 -0.107483 -0.219220 0.106575 0.107483 -0.219220 0.106575 0.107483 0.000000 0.106575 -0.107483 -0.000000 0.106575 0.107483 -0.219220 -0.106575 0.107483 -0.219220 -0.106575 0.107483 0.000000 0.106575 0.107483 0.000000 -0.106575 0.107483 -0.219220 -0.106575 -0.107483 -0.219220 -0.106575 -0.107483 -0.000000 -0.106575 0.107483 0.000000 -0.106575 -0.107483 -0.219220 0.106575 -0.107483 -0.219220 0.106575 -0.107483 -0.000000 -0.106575 -0.107483 -0.000000 -0.106575 -0.107483 -0.219220 -0.106575 0.107483 -0.219220 -0.106575 0.107483 0.000000 -0.106575 -0.107483 -0.000000 " />
								<Normal vector="0.577349 -0.577349 -0.577349 0.577349 0.577349 -0.577349 0.577349 0.577349 0.577349 0.577349 -0.577349 0.577349 0.577349 0.577349 -0.577349 -0.577349 0.577349 -0.577349 -0.577349 0.577349 0.577349 0.577349 0.577349 0.577349 -0.577349 0.577349 -0.577349 -0.577349 -0.577349 -0.577349 -0.577349 -0.577349 0.577349 -0.577349 0.577349 0.577349 -0.577349 -0.577349 -0.577349 0.577349 -0.577349 -0.577349 0.577349 -0.577349 0.577349 -0.577349 -0.577349 0.577349 -0.577349 -0.577349 -0.577349 -0.577349 0.577349 -0.577349 -0.577349 0.577349 0.577349 -0.577349 -0.577349 0.577349 " />
								<TextureCoordinate point="0.5477 0.0473 0.5477 0.4996 0.9679 0.4996 0.9679 0.0473 0.5477 0.0473 0.5477 0.4996 0.9679 0.4996 0.9679 0.0473 0.5477 0.0473 0.5477 0.4996 0.9679 0.4996 0.9679 0.0473 0.5477 0.0473 0.5477 0.4996 0.9679 0.4996 0.9679 0.0473 0.9679 0.4996 0.9679 0.0473 0.5477 0.0473 0.5477 0.4996 " />
							</IndexedTriangleSet>
						</Shape>
					</Group>
				</Transform>
				<Transform DEF="foot2_TRANSFORM"
				           translation="0.006814 0.022291 -0.153248"
				           scale="1.000000 1.000000 1.000000"
				           rotation="0.000000 1.000000 0.000000 0.000000"
				           >
					<Transform DEF="foot2_ifs_TRANSFORM"
					           translation="0.000000 0.000000 0.000000"
					           scale="1.000000 1.000000 1.000000"
					           rotation="0.000000 1.000000 0.000000 0.000000"
					           >
						<Group DEF="group_ME_foot2">
							<Shape>
								<Appearance>
									<Material USE="MA_Body" />
								</Appearance>
								<IndexedTriangleSet solid="false"
								                    normalPerVertex="true"
								                    index="0 1 2 0 2 3 4 5 6 4 6 7 8 9 10 8 10 11 12 13 14 12 14 15 4 13 16 4 16 17 18 19 14 18 14 7 "
								                    >
									<Coordinate point="0.231918 -0.356486 -0.269305 0.231918 0.248792 -0.269305 0.231918 0.248792 0.000000 0.231918 -0.356486 -0.000000 0.231918 0.248792 -0.269305 -0.231918 0.248792 -0.269305 -0.231918 0.248792 0.000000 0.231918 0.248792 0.000000 -0.231918 0.248792 -0.269305 -0.231918 -0.356486 -0.269305 -0.231918 -0.356486 -0.000000 -0.231918 0.248792 0.000000 -0.231918 -0.356486 -0.269305 0.231918 -0.356486 -0.269305 0.231918 -0.356486 -0.000000 -0.231918 -0.356486 -0.000000 -0.231918 -0.356486 -0.269305 -0.231918 0.248792 -0.269305 -0.231918 0.248792 0.000000 -0.231918 -0.356486 -0.000000 " />
									<Normal vector="0.577349 -0.577349 -0.577349 0.577349 0.577349 -0.577349 0.577349 0.577349 0.577349 0.577349 -0.577349 0.577349 0.577349 0.577349 -0.577349 -0.577349 0.577349 -0.577349 -0.577349 0.577349 0.577349 0.577349 0.577349 0.577349 -0.577349 0.577349 -0.577349 -0.577349 -0.577349 -0.577349 -0.577349 -0.577349 0.577349 -0.577349 0.577349 0.577349 -0.577349 -0.577349 -0.577349 0.577349 -0.577349 -0.577349 0.577349 -0.577349 0.577349 -0.577349 -0.577349 0.577349 -0.577349 -0.577349 -0.577349 -0.577349 0.577349 -0.577349 -0.577349 0.577349 0.577349 -0.577349 -0.577349 0.577349 " />
									<TextureCoordinate point="0.5477 0.0473 0.5477 0.4996 0.9679 0.4996 0.9679 0.0473 0.5477 0.0473 0.5477 0.4996 0.9679 0.4996 0.9679 0.0473 0.5477 0.0473 0.5477 0.4996 0.9679 0.4996 0.9679 0.0473 0.5477 0.0473 0.5477 0.4996 0.9679 0.4996 0.9679 0.0473 0.9679 0.4996 0.9679 0.0473 0.5477 0.0473 0.5477 0.4996 " />
								</IndexedTriangleSet>
							</Shape>
						</Group>
					</Transform>
					<Transform DEF="Cube_001_TRANSFORM"
					           translation="-0.121373 -0.277019 -0.151232"
					           scale="1.000000 1.000000 1.000000"
					           rotation="0.000000 1.000000 0.000000 0.000000"
					           >
						<Transform DEF="Cube_001_ifs_TRANSFORM"
						           translation="0.000000 0.000000 0.000000"
						           scale="1.000000 1.000000 1.000000"
						           rotation="0.000000 1.000000 0.000000 0.000000"
						           >
							<Group DEF="group_ME_Cube_016">
								<Shape>
									<Appearance>
										<Material USE="MA_Body" />
									</Appearance>
									<IndexedTriangleSet solid="false"
									                    normalPerVertex="true"
									                    index="0 1 2 0 2 3 4 5 6 4 6 7 8 9 10 8 10 11 12 13 14 12 14 15 16 13 17 16 17 18 19 20 14 19 14 21 22 23 3 22 3 7 4 0 24 4 24 25 26 27 28 26 28 29 30 16 21 30 21 31 "
									                    >
										<Coordinate point="0.040243 -0.657836 -0.127583 0.122053 -0.012147 -0.107696 0.121226 -0.018677 0.107696 0.039416 -0.664365 0.087809 0.122053 -0.012147 -0.107696 -0.121226 0.018677 -0.107696 -0.122053 0.012147 0.107696 0.121226 -0.018677 0.107696 -0.203036 -0.627012 -0.127583 -0.235862 -0.886093 -0.135562 -0.236689 -0.892622 0.079830 -0.203863 -0.633541 0.087809 -0.235862 -0.886093 -0.135562 0.007417 -0.916917 -0.135562 0.006590 -0.923446 0.079830 -0.236689 -0.892622 0.079830 0.040243 -0.657836 -0.127583 -0.235862 -0.886093 -0.135562 -0.203036 -0.627012 -0.127583 -0.203863 -0.633541 0.087809 -0.236689 -0.892622 0.079830 0.039416 -0.664365 0.087809 -0.122053 0.012147 0.107696 -0.203863 -0.633541 0.087809 -0.203036 -0.627012 -0.127583 -0.121226 0.018677 -0.107696 -0.121226 0.018677 -0.107696 -0.203036 -0.627012 -0.127583 -0.203863 -0.633541 0.087809 -0.122053 0.012147 0.107696 0.007417 -0.916917 -0.135562 0.006590 -0.923446 0.079830 " />
										<Normal vector="0.704184 -0.067446 -0.706748 0.647511 0.517411 -0.559435 0.643086 0.482437 0.594684 0.698782 -0.110294 0.706748 0.647511 0.517411 -0.559435 -0.498001 0.662557 -0.559435 -0.502426 0.627552 0.594684 0.643086 0.482437 0.594684 -0.698782 0.110294 -0.706748 -0.643086 -0.482437 -0.594684 -0.647511 -0.517411 0.559435 -0.704184 0.067446 0.706748 -0.643086 -0.482437 -0.594684 0.502426 -0.627552 -0.594684 0.498001 -0.662557 0.559435 -0.647511 -0.517411 0.559435 0.704184 -0.067446 -0.706748 -0.643086 -0.482437 -0.594684 -0.698782 0.110294 -0.706748 -0.704184 0.067446 0.706748 -0.647511 -0.517411 0.559435 0.698782 -0.110294 0.706748 -0.502426 0.627552 0.594684 -0.704184 0.067446 0.706748 -0.698782 0.110294 -0.706748 -0.498001 0.662557 -0.559435 -0.498001 0.662557 -0.559435 -0.698782 0.110294 -0.706748 -0.704184 0.067446 0.706748 -0.502426 0.627552 0.594684 0.502426 -0.627552 -0.594684 0.498001 -0.662557 0.559435 " />
										<TextureCoordinate point="0.5477 0.2734 0.5477 0.4996 0.9679 0.4996 0.9679 0.2734 0.5477 0.0473 0.5477 0.4996 0.9679 0.4996 0.9679 0.0473 0.0624 0.1562 0.0624 0.2786 0.4533 0.2786 0.4533 0.1562 0.0624 0.0339 0.0624 0.2786 0.4533 0.2786 0.4533 0.0339 0.0624 0.1562 0.4533 0.2786 0.4533 0.1562 0.0624 0.1562 0.0624 0.2786 0.4533 0.1562 0.5477 0.0473 0.5477 0.2734 0.9679 0.2734 0.9679 0.0473 0.5477 0.0473 0.5477 0.2734 0.9679 0.2734 0.9679 0.0473 0.0624 0.0339 0.4533 0.0339 " />
									</IndexedTriangleSet>
								</Shape>
							</Group>
						</Transform>
					</Transform>
					<Transform DEF="Cube_004_TRANSFORM"
					           translation="0.107129 -0.277019 -0.151232"
					           scale="1.000000 1.000000 1.000000"
					           rotation="0.000000 1.000000 0.000000 0.000000"
					           >
						<Transform DEF="Cube_004_ifs_TRANSFORM"
						           translation="0.000000 0.000000 0.000000"
						           scale="1.000000 1.000000 1.000000"
						           rotation="0.000000 1.000000 0.000000 0.000000"
						           >
							<Group DEF="group_ME_Cube_019">
								<Shape>
									<Appearance>
										<Material USE="MA_Body" />
									</Appearance>
									<IndexedTriangleSet solid="false"
									                    normalPerVertex="true"
									                    index="0 1 2 0 2 3 4 5 6 4 6 7 8 9 10 8 10 11 12 13 14 12 14 15 16 17 18 16 18 15 19 20 14 19 14 21 22 5 1 22 1 23 4 24 25 4 25 0 26 27 28 26 28 29 30 31 20 30 20 16 "
									                    >
										<Coordinate point="-0.040243 -0.657836 -0.127583 -0.039416 -0.664365 0.087809 -0.121226 -0.018677 0.107696 -0.122053 -0.012147 -0.107696 -0.122053 -0.012147 -0.107696 -0.121226 -0.018677 0.107696 0.122053 0.012147 0.107696 0.121226 0.018677 -0.107696 0.203036 -0.627012 -0.127583 0.203863 -0.633541 0.087809 0.236689 -0.892622 0.079830 0.235862 -0.886093 -0.135562 0.235862 -0.886093 -0.135562 0.236689 -0.892622 0.079830 -0.006590 -0.923446 0.079830 -0.007417 -0.916917 -0.135562 -0.040243 -0.657836 -0.127583 0.203036 -0.627012 -0.127583 0.235862 -0.886093 -0.135562 0.203863 -0.633541 0.087809 -0.039416 -0.664365 0.087809 0.236689 -0.892622 0.079830 0.122053 0.012147 0.107696 0.203863 -0.633541 0.087809 0.121226 0.018677 -0.107696 0.203036 -0.627012 -0.127583 0.121226 0.018677 -0.107696 0.122053 0.012147 0.107696 0.203863 -0.633541 0.087809 0.203036 -0.627012 -0.127583 -0.007417 -0.916917 -0.135562 -0.006590 -0.923446 0.079830 " />
										<Normal vector="-0.704184 -0.067446 -0.706748 -0.698782 -0.110294 0.706748 -0.643086 0.482437 0.594684 -0.647511 0.517411 -0.559435 -0.647511 0.517411 -0.559435 -0.643086 0.482437 0.594684 0.502426 0.627552 0.594684 0.498001 0.662557 -0.559435 0.698782 0.110294 -0.706748 0.704184 0.067446 0.706748 0.647511 -0.517411 0.559435 0.643086 -0.482437 -0.594684 0.643086 -0.482437 -0.594684 0.647511 -0.517411 0.559435 -0.498001 -0.662557 0.559435 -0.502426 -0.627552 -0.594684 -0.704184 -0.067446 -0.706748 0.698782 0.110294 -0.706748 0.643086 -0.482437 -0.594684 0.704184 0.067446 0.706748 -0.698782 -0.110294 0.706748 0.647511 -0.517411 0.559435 0.502426 0.627552 0.594684 0.704184 0.067446 0.706748 0.498001 0.662557 -0.559435 0.698782 0.110294 -0.706748 0.498001 0.662557 -0.559435 0.502426 0.627552 0.594684 0.704184 0.067446 0.706748 0.698782 0.110294 -0.706748 -0.502426 -0.627552 -0.594684 -0.498001 -0.662557 0.559435 " />
										<TextureCoordinate point="0.5477 0.2734 0.9679 0.2734 0.9679 0.4996 0.5477 0.4996 0.5477 0.0473 0.9679 0.0473 0.9679 0.4996 0.5477 0.4996 0.0624 0.1562 0.4533 0.1562 0.4533 0.2786 0.0624 0.2786 0.0624 0.0339 0.4533 0.0339 0.4533 0.2786 0.0624 0.2786 0.0624 0.1562 0.4533 0.1562 0.4533 0.2786 0.0624 0.1562 0.4533 0.1562 0.0624 0.2786 0.5477 0.0473 0.5477 0.2734 0.9679 0.0473 0.9679 0.2734 0.5477 0.0473 0.9679 0.0473 0.9679 0.2734 0.5477 0.2734 0.0624 0.0339 0.4533 0.0339 " />
									</IndexedTriangleSet>
								</Shape>
							</Group>
						</Transform>
					</Transform>
					<Transform DEF="Cube_005_TRANSFORM"
					           translation="-0.012346 0.177259 -0.151232"
					           scale="1.000000 1.000000 1.000000"
					           rotation="0.000000 1.000000 0.000000 0.000000"
					           >
						<Transform DEF="Cube_005_ifs_TRANSFORM"
						           translation="0.000000 0.000000 0.000000"
						           scale="1.000000 1.000000 1.000000"
						           rotation="0.000000 1.000000 0.000000 0.000000"
						           >
							<Group DEF="group_ME_Cube_020">
								<Shape>
									<Appearance>
										<Material USE="MA_Body" />
									</Appearance>
									<IndexedTriangleSet solid="false"
									                    normalPerVertex="true"
									                    index="0 1 2 0 2 3 4 5 6 4 6 7 8 9 10 8 10 11 12 13 14 12 14 15 16 13 17 16 17 18 19 20 14 19 14 21 22 23 3 22 3 7 4 0 24 4 24 25 26 27 28 26 28 29 30 16 21 30 21 31 "
									                    >
										<Coordinate point="-0.122612 0.427935 -0.120872 -0.122612 -0.003291 -0.107696 -0.122612 0.003291 0.107696 -0.122612 0.434517 0.094520 -0.122612 -0.003291 -0.107696 0.122612 -0.003291 -0.107696 0.122612 0.003291 0.107696 -0.122612 0.003291 0.107696 0.122612 0.427935 -0.120872 0.122612 0.660134 -0.127967 0.122612 0.666715 0.087425 0.122612 0.434517 0.094520 0.122612 0.660134 -0.127967 -0.122612 0.660134 -0.127967 -0.122612 0.666716 0.087425 0.122612 0.666715 0.087425 -0.122612 0.427935 -0.120872 0.122612 0.660134 -0.127967 0.122612 0.427935 -0.120872 0.122612 0.434517 0.094520 0.122612 0.666715 0.087425 -0.122612 0.434517 0.094520 0.122612 0.003291 0.107696 0.122612 0.434517 0.094520 0.122612 0.427935 -0.120872 0.122612 -0.003291 -0.107696 0.122612 -0.003291 -0.107696 0.122612 0.427935 -0.120872 0.122612 0.434517 0.094520 0.122612 0.003291 0.107696 -0.122612 0.660134 -0.127967 -0.122612 0.666716 0.087425 " />
										<Normal vector="-0.707083 -0.021577 -0.706748 -0.577349 -0.594684 -0.559435 -0.577349 -0.559435 0.594684 -0.707083 0.021577 0.706748 -0.577349 -0.594684 -0.559435 0.577349 -0.594684 -0.559435 0.577349 -0.559435 0.594684 -0.577349 -0.559435 0.594684 0.707083 -0.021577 -0.706748 0.577349 0.559435 -0.594684 0.577349 0.594684 0.559435 0.707083 0.021577 0.706748 0.577349 0.559435 -0.594684 -0.577349 0.559435 -0.594684 -0.577349 0.594684 0.559435 0.577349 0.594684 0.559435 -0.707083 -0.021577 -0.706748 0.577349 0.559435 -0.594684 0.707083 -0.021577 -0.706748 0.707083 0.021577 0.706748 0.577349 0.594684 0.559435 -0.707083 0.021577 0.706748 0.577349 -0.559435 0.594684 0.707083 0.021577 0.706748 0.707083 -0.021577 -0.706748 0.577349 -0.594684 -0.559435 0.577349 -0.594684 -0.559435 0.707083 -0.021577 -0.706748 0.707083 0.021577 0.706748 0.577349 -0.559435 0.594684 -0.577349 0.559435 -0.594684 -0.577349 0.594684 0.559435 " />
										<TextureCoordinate point="0.5477 0.2734 0.5477 0.4996 0.9679 0.4996 0.9679 0.2734 0.5477 0.0473 0.5477 0.4996 0.9679 0.4996 0.9679 0.0473 0.0527 0.1562 0.0527 0.2744 0.4629 0.2744 0.4629 0.1562 0.0527 0.0381 0.0527 0.2744 0.4629 0.2744 0.4629 0.0381 0.0527 0.1562 0.4629 0.2744 0.4629 0.1562 0.0527 0.1562 0.0527 0.2744 0.4629 0.1562 0.5477 0.0473 0.5477 0.2734 0.9679 0.2734 0.9679 0.0473 0.5477 0.0473 0.5477 0.2734 0.9679 0.2734 0.9679 0.0473 0.0527 0.0381 0.4629 0.0381 " />
									</IndexedTriangleSet>
								</Shape>
							</Group>
						</Transform>
					</Transform>
				</Transform>
			</Transform>
			<Transform DEF="wing2_TRANSFORM"
			           translation="-1.478930 -0.719162 0.922597"
			           scale="1.000000 1.000000 1.000000"
			           rotation="0.000000 1.000000 0.000000 0.000000"
			           >
				<Transform DEF="wing2_ifs_TRANSFORM"
				           translation="0.000000 0.000000 0.000000"
				           scale="1.000000 1.000000 1.000000"
				           rotation="0.000000 1.000000 0.000000 0.000000"
				           >
					<Group DEF="group_ME_wing2">
						<Shape>
							<Appearance>
								<Material USE="MA_Body" />
							</Appearance>
							<IndexedTriangleSet solid="false"
							                    normalPerVertex="true"
							                    index="0 1 2 0 2 3 4 5 6 4 6 7 8 9 10 8 10 11 12 13 14 12 14 15 16 17 18 16 18 19 20 21 14 20 14 22 23 24 25 23 25 26 27 28 29 27 29 30 31 32 33 31 33 34 35 36 37 35 37 38 39 40 41 39 41 42 43 44 45 43 45 46 47 48 49 47 49 7 36 0 3 36 3 37 50 51 52 50 52 53 53 52 54 53 54 55 55 54 56 55 56 57 57 56 0 57 0 36 58 59 60 58 60 61 62 63 64 62 64 65 66 67 68 66 68 69 70 71 72 70 72 73 74 50 53 74 53 75 75 53 55 75 55 76 76 55 57 76 57 77 77 57 36 77 36 35 78 79 80 78 80 81 82 83 84 82 84 85 86 87 88 86 88 89 90 91 92 90 92 93 94 17 95 94 95 96 96 95 97 96 97 98 98 97 99 98 99 100 100 99 13 100 13 12 101 102 103 101 103 104 104 103 105 104 105 106 106 105 107 106 107 108 108 107 9 108 9 8 43 109 110 43 110 111 112 113 114 112 114 115 116 117 118 116 118 119 120 121 122 120 122 123 51 124 125 51 125 52 126 127 128 126 128 129 54 130 131 54 131 56 132 133 134 132 134 135 "
							                    >
								<Coordinate point="0.201623 1.083016 0.341415 0.201623 1.801753 0.284970 0.201623 1.823944 0.567538 0.201623 1.105206 0.623983 0.201623 1.801753 0.284970 -0.201623 1.801753 0.284970 -0.201623 1.823944 0.567538 0.201623 1.823944 0.567538 -0.201623 0.771722 0.365861 -0.201623 0.033286 0.423852 -0.201623 0.055477 0.706421 -0.201623 0.793913 0.648429 -0.201623 0.033286 0.423852 0.201623 0.033286 0.423852 0.201623 0.055477 0.706421 -0.201623 0.055477 0.706421 0.201623 0.682959 -0.764412 0.201623 -0.055477 -0.706421 -0.201623 -0.055477 -0.706421 -0.201623 0.682959 -0.764412 -0.201623 0.793913 0.648429 -0.201623 0.055477 0.706421 0.201623 0.793913 0.648429 -0.201623 1.105206 0.623983 -0.201623 0.793913 0.648429 0.201623 0.793913 0.648429 0.201623 1.105206 0.623983 0.201623 0.994252 -0.788859 0.201623 0.682959 -0.764412 -0.201623 0.682959 -0.764412 -0.201623 0.994252 -0.788859 -0.201623 1.083016 0.341415 -0.201623 0.771722 0.365861 -0.201623 0.793913 0.648429 -0.201623 1.105206 0.623983 0.201623 0.033286 0.423852 0.201623 0.771722 0.365861 0.201623 0.793913 0.648429 0.201623 0.055477 0.706421 -0.201623 1.801753 0.284970 -0.201623 1.083016 0.341415 -0.201623 1.105206 0.623983 -0.201623 1.823944 0.567538 0.201623 1.712990 -0.845303 0.201623 0.994252 -0.788859 -0.201623 0.994252 -0.788859 -0.201623 1.712990 -0.845303 -0.201623 1.823944 0.567538 -0.201623 1.105206 0.623983 0.201623 1.105206 0.623983 0.201623 0.682959 -0.764412 0.201623 0.994252 -0.788859 0.201623 1.016443 -0.506290 0.201623 0.705150 -0.481844 0.201623 1.038634 -0.223722 0.201623 0.727340 -0.199275 0.201623 1.060825 0.058846 0.201623 0.749531 0.083293 -0.201623 1.712990 -0.845303 -0.201623 0.994252 -0.788859 -0.201623 1.016443 -0.506290 -0.201623 1.735181 -0.562735 -0.201623 1.735181 -0.562735 -0.201623 1.016443 -0.506290 -0.201623 1.038634 -0.223722 -0.201623 1.757372 -0.280166 -0.201623 1.757372 -0.280166 -0.201623 1.038634 -0.223722 -0.201623 1.060825 0.058846 -0.201623 1.779563 0.002402 -0.201623 1.779563 0.002402 -0.201623 1.060825 0.058846 -0.201623 1.083016 0.341415 -0.201623 1.801753 0.284970 0.201623 -0.055477 -0.706421 0.201623 -0.033286 -0.423852 0.201623 -0.011095 -0.141284 0.201623 0.011095 0.141284 -0.201623 0.994252 -0.788859 -0.201623 0.682959 -0.764412 -0.201623 0.705150 -0.481844 -0.201623 1.016443 -0.506290 -0.201623 1.016443 -0.506290 -0.201623 0.705150 -0.481844 -0.201623 0.727340 -0.199275 -0.201623 1.038634 -0.223722 -0.201623 1.038634 -0.223722 -0.201623 0.727340 -0.199275 -0.201623 0.749531 0.083293 -0.201623 1.060825 0.058846 -0.201623 1.060825 0.058846 -0.201623 0.749531 0.083293 -0.201623 0.771722 0.365861 -0.201623 1.083016 0.341415 -0.201623 -0.055477 -0.706421 0.201623 -0.033286 -0.423852 -0.201623 -0.033286 -0.423852 0.201623 -0.011095 -0.141284 -0.201623 -0.011095 -0.141284 0.201623 0.011095 0.141284 -0.201623 0.011095 0.141284 -0.201623 0.682959 -0.764412 -0.201623 -0.055477 -0.706421 -0.201623 -0.033286 -0.423852 -0.201623 0.705150 -0.481844 -0.201623 -0.011095 -0.141284 -0.201623 0.727340 -0.199275 -0.201623 0.011095 0.141284 -0.201623 0.749531 0.083293 -0.201623 1.712990 -0.845303 -0.201623 1.735181 -0.562735 0.201623 1.735181 -0.562735 0.201623 1.735181 -0.562735 -0.201623 1.735181 -0.562735 -0.201623 1.757372 -0.280166 0.201623 1.757372 -0.280166 0.201623 1.757372 -0.280166 -0.201623 1.757372 -0.280166 -0.201623 1.779563 0.002402 0.201623 1.779563 0.002402 0.201623 1.779563 0.002402 -0.201623 1.779563 0.002402 -0.201623 1.801753 0.284970 0.201623 1.801753 0.284970 0.201623 1.712990 -0.845303 0.201623 1.735181 -0.562735 0.201623 1.016443 -0.506290 0.201623 1.735181 -0.562735 0.201623 1.757372 -0.280166 0.201623 1.038634 -0.223722 0.201623 1.757372 -0.280166 0.201623 1.779563 0.002402 0.201623 1.060825 0.058846 0.201623 1.779563 0.002402 0.201623 1.801753 0.284970 0.201623 1.083016 0.341415 " />
								<Normal vector="1.000000 0.000000 0.000000 0.707083 0.704917 -0.055330 0.577349 0.620777 0.530351 0.707083 0.055330 0.704917 0.707083 0.704917 -0.055330 -0.707083 0.704917 -0.055330 -0.577349 0.620777 0.530351 0.577349 0.620777 0.530351 -1.000000 0.000000 0.000000 -0.707083 -0.704917 0.055330 -0.577349 -0.530351 0.620777 -0.707083 0.055330 0.704917 -0.707083 -0.704917 0.055330 0.707083 -0.704917 0.055330 0.577349 -0.530351 0.620777 -0.577349 -0.530351 0.620777 0.707083 -0.055330 -0.704917 0.577349 -0.620777 -0.530351 -0.577349 -0.620777 -0.530351 -0.707083 -0.055330 -0.704917 -0.707083 0.055330 0.704917 -0.577349 -0.530351 0.620777 0.707083 0.055330 0.704917 -0.707083 0.055330 0.704917 -0.707083 0.055330 0.704917 0.707083 0.055330 0.704917 0.707083 0.055330 0.704917 0.707083 -0.055330 -0.704917 0.707083 -0.055330 -0.704917 -0.707083 -0.055330 -0.704917 -0.707083 -0.055330 -0.704917 -1.000000 0.000000 0.000000 -1.000000 0.000000 0.000000 -0.707083 0.055330 0.704917 -0.707083 0.055330 0.704917 0.707083 -0.704917 0.055330 1.000000 0.000000 0.000000 0.707083 0.055330 0.704917 0.577349 -0.530351 0.620777 -0.707083 0.704917 -0.055330 -1.000000 0.000000 0.000000 -0.707083 0.055330 0.704917 -0.577349 0.620777 0.530351 0.577349 0.530351 -0.620777 0.707083 -0.055330 -0.704917 -0.707083 -0.055330 -0.704917 -0.577349 0.530351 -0.620777 -0.577349 0.620777 0.530351 -0.707083 0.055330 0.704917 0.707083 0.055330 0.704917 0.707083 -0.055330 -0.704917 0.707083 -0.055330 -0.704917 1.000000 0.000000 0.000000 1.000000 0.000000 0.000000 1.000000 0.000000 0.000000 1.000000 0.000000 0.000000 1.000000 0.000000 0.000000 1.000000 0.000000 0.000000 -0.577349 0.530351 -0.620777 -0.707083 -0.055330 -0.704917 -1.000000 0.000000 0.000000 -0.707083 0.704917 -0.055330 -0.707083 0.704917 -0.055330 -1.000000 0.000000 0.000000 -1.000000 0.000000 0.000000 -0.707083 0.704917 -0.055330 -0.707083 0.704917 -0.055330 -1.000000 0.000000 0.000000 -1.000000 0.000000 0.000000 -0.707083 0.704917 -0.055330 -0.707083 0.704917 -0.055330 -1.000000 0.000000 0.000000 -1.000000 0.000000 0.000000 -0.707083 0.704917 -0.055330 0.577349 -0.620777 -0.530351 0.707083 -0.704917 0.055330 0.707083 -0.704917 0.055330 0.707083 -0.704917 0.055330 -0.707083 -0.055330 -0.704917 -0.707083 -0.055330 -0.704917 -1.000000 0.000000 0.000000 -1.000000 0.000000 0.000000 -1.000000 0.000000 0.000000 -1.000000 0.000000 0.000000 -1.000000 0.000000 0.000000 -1.000000 0.000000 0.000000 -1.000000 0.000000 0.000000 -1.000000 0.000000 0.000000 -1.000000 0.000000 0.000000 -1.000000 0.000000 0.000000 -1.000000 0.000000 0.000000 -1.000000 0.000000 0.000000 -1.000000 0.000000 0.000000 -1.000000 0.000000 0.000000 -0.577349 -0.620777 -0.530351 0.707083 -0.704917 0.055330 -0.707083 -0.704917 0.055330 0.707083 -0.704917 0.055330 -0.707083 -0.704917 0.055330 0.707083 -0.704917 0.055330 -0.707083 -0.704917 0.055330 -0.707083 -0.055330 -0.704917 -0.577349 -0.620777 -0.530351 -0.707083 -0.704917 0.055330 -1.000000 0.000000 0.000000 -0.707083 -0.704917 0.055330 -1.000000 0.000000 0.000000 -0.707083 -0.704917 0.055330 -1.000000 0.000000 0.000000 -0.577349 0.530351 -0.620777 -0.707083 0.704917 -0.055330 0.707083 0.704917 -0.055330 0.707083 0.704917 -0.055330 -0.707083 0.704917 -0.055330 -0.707083 0.704917 -0.055330 0.707083 0.704917 -0.055330 0.707083 0.704917 -0.055330 -0.707083 0.704917 -0.055330 -0.707083 0.704917 -0.055330 0.707083 0.704917 -0.055330 0.707083 0.704917 -0.055330 -0.707083 0.704917 -0.055330 -0.707083 0.704917 -0.055330 0.707083 0.704917 -0.055330 0.577349 0.530351 -0.620777 0.707083 0.704917 -0.055330 1.000000 0.000000 0.000000 0.707083 0.704917 -0.055330 0.707083 0.704917 -0.055330 1.000000 0.000000 0.000000 0.707083 0.704917 -0.055330 0.707083 0.704917 -0.055330 1.000000 0.000000 0.000000 0.707083 0.704917 -0.055330 0.707083 0.704917 -0.055330 1.000000 0.000000 0.000000 " />
								<TextureCoordinate point="0.8804 0.3756 0.8804 0.4778 0.9622 0.4778 0.9622 0.3756 0.8804 0.0691 0.8804 0.4778 0.9622 0.4778 0.9622 0.0691 0.8804 0.7812 0.8804 0.9572 0.9622 0.9572 0.9622 0.7812 0.8804 0.6053 0.8804 0.9572 0.9622 0.9572 0.9622 0.6053 0.5534 0.7812 0.5534 0.9572 0.9622 0.9572 0.9622 0.7812 0.5534 0.7812 0.5534 0.9572 0.9622 0.7812 0.0234 0.3511 0.0234 0.5161 0.4532 0.5161 0.4532 0.3511 0.0234 0.3511 0.0234 0.5161 0.4532 0.5161 0.4532 0.3511 0.0234 0.3511 0.0234 0.5161 0.4532 0.5161 0.4532 0.3511 0.8804 0.0691 0.8804 0.2734 0.9622 0.2734 0.9622 0.0691 0.8804 0.0691 0.8804 0.1713 0.9622 0.1713 0.9622 0.0691 0.5534 0.0691 0.5534 0.1713 0.9622 0.1713 0.9622 0.0691 0.5534 0.0691 0.5534 0.1713 0.9622 0.1713 0.5534 0.2734 0.5534 0.3756 0.6352 0.3756 0.6352 0.2734 0.7169 0.3756 0.7169 0.2734 0.7987 0.3756 0.7987 0.2734 0.5534 0.0691 0.5534 0.1713 0.6352 0.1713 0.6352 0.0691 0.0234 0.3511 0.0234 0.5161 0.4532 0.5161 0.4532 0.3511 0.7169 0.0691 0.7169 0.1713 0.7987 0.1713 0.7987 0.0691 0.0234 0.3511 0.0234 0.5161 0.4532 0.5161 0.4532 0.3511 0.5534 0.0691 0.6352 0.0691 0.7169 0.0691 0.7987 0.0691 0.0234 0.3511 0.0234 0.5161 0.4532 0.5161 0.4532 0.3511 0.0234 0.3511 0.0234 0.5161 0.4532 0.5161 0.4532 0.3511 0.0234 0.3511 0.0234 0.5161 0.4532 0.5161 0.4532 0.3511 0.0234 0.3511 0.0234 0.5161 0.4532 0.5161 0.4532 0.3511 0.5534 0.6053 0.6352 0.9572 0.6352 0.6053 0.7169 0.9572 0.7169 0.6053 0.7987 0.9572 0.7987 0.6053 0.5534 0.7812 0.5534 0.9572 0.6352 0.9572 0.6352 0.7812 0.7169 0.9572 0.7169 0.7812 0.7987 0.9572 0.7987 0.7812 0.5534 0.4778 0.6352 0.4778 0.6352 0.0691 0.0234 0.3511 0.0234 0.5161 0.4532 0.5161 0.4532 0.3511 0.7169 0.0691 0.7169 0.4778 0.7987 0.4778 0.7987 0.0691 0.0234 0.3511 0.0234 0.5161 0.4532 0.5161 0.4532 0.3511 0.5534 0.4778 0.6352 0.4778 0.0234 0.3511 0.0234 0.5161 0.4532 0.5161 0.4532 0.3511 0.7169 0.4778 0.7987 0.4778 0.0234 0.3511 0.0234 0.5161 0.4532 0.5161 0.4532 0.3511 " />
							</IndexedTriangleSet>
						</Shape>
					</Group>
				</Transform>
			</Transform>
		</Transform>
	</Scene>
</X3D>