<?xml version="1.0" encoding="UTF-8"?>
<!DOCTYPE X3D PUBLIC "ISO//Web3D//DTD X3D 3.0//EN" "http://www.web3d.org/specifications/x3d-3.0.dtd">
<X3D version="3.0" profile="Immersive" xmlns:xsd="http://www.w3.org/2001/XMLSchema-instance" xsd:noNamespaceSchemaLocation="http://www.web3d.org/specifications/x3d-3.0.xsd">
	<head>
		<meta name="filename" content="oshawott.x3d" />
		<meta name="generator" content="Blender 2.93.18" />
	</head>
	<Scene>
		<NavigationInfo headlight="true"
		                visibilityLimit="0.0"
		                type='"EXAMINE", "ANY"'
		                avatarSize="0.25, 1.75, 0.75"
		                />
		<Background DEF="WO_World"
		            groundColor="0.051 0.051 0.051"
		            skyColor="0.051 0.051 0.051"
		            />
		<Transform DEF="body_TRANSFORM"
		           translation="0.000000 0.057565 0.376384"
		           scale="1.000000 1.000000 1.000000"
		           rotation="0.000000 0.000000 1.000000 3.141593"
		           >
			<Transform DEF="body_ifs_TRANSFORM"
			           translation="0.000000 0.000000 0.000000"
			           scale="1.000000 1.000000 1.000000"
			           rotation="0.000000 1.000000 0.000000 0.000000"
			           >
				<Group DEF="group_ME_body">
					<Shape>
						<Appearance>
							<Material DEF="MA_Body"
							          diffuseColor="0.800 0.800 0.800"
							          specularColor="0.401 0.401 0.401"
							          emissiveColor="0.000 0.000 0.000"
							          ambientIntensity="0.000"
							          shininess="0.500"
							          transparency="0.0"
							          />
						</Appearance>
						<IndexedTriangleSet solid="false"
						                    normalPerVertex="true"
						                    index="0 1 2 0 2 3 4 5 6 4 6 7 8 9 10 8 10 11 12 13 14 12 14 15 4 16 17 4 17 15 18 5 14 18 14 19 "
						                    >
							<Coordinate point="-1.420574 -1.418500 0.000000 -1.420574 -1.418500 2.023063 -1.420574 1.418500 2.023063 -1.420574 1.418500 0.000000 -1.420574 1.418500 0.000000 -1.420574 1.418500 2.023063 1.420574 1.418500 2.023063 1.420574 1.418500 0.000000 1.420574 1.418500 0.000000 1.420574 1.418500 2.023063 1.420574 -1.418500 2.023063 1.420574 -1.418500 0.000000 1.420574 -1.418500 0.000000 1.420574 -1.418500 2.023063 -1.420574 -1.418500 2.023063 -1.420574 -1.418500 0.000000 1.420574 1.418500 0.000000 1.420574 -1.418500 0.000000 1.420574 1.418500 2.023063 1.420574 -1.418500 2.023063 " />
							<Normal vector="-0.577349 -0.577349 -0.577349 -0.577349 -0.577349 0.577349 -0.577349 0.577349 0.577349 -0.577349 0.577349 -0.577349 -0.577349 0.577349 -0.577349 -0.577349 0.577349 0.577349 0.577349 0.577349 0.577349 0.577349 0.577349 -0.577349 0.577349 0.577349 -0.577349 0.577349 0.577349 0.577349 0.577349 -0.577349 0.577349 0.577349 -0.577349 -0.577349 0.577349 -0.577349 -0.577349 0.577349 -0.577349 0.577349 -0.577349 -0.577349 0.577349 -0.577349 -0.577349 -0.577349 0.577349 0.577349 -0.577349 0.577349 -0.577349 -0.577349 0.577349 0.577349 0.577349 0.577349 -0.577349 0.577349 " />
							<TextureCoordinate point="0.0348 0.5543 0.2467 0.5543 0.2467 0.9508 0.0348 0.9508 0.0348 0.5543 0.2467 0.5543 0.2467 0.9508 0.0348 0.9508 0.0348 0.5543 0.2467 0.5543 0.2467 0.9508 0.0348 0.9508 0.0348 0.5543 0.2467 0.5543 0.2467 0.9508 0.0348 0.9508 0.2467 0.5543 0.2467 0.9508 0.0348 0.5543 0.0348 0.9508 " />
						</IndexedTriangleSet>
					</Shape>
				</Group>
			</Transform>
			<Transform DEF="Cube_001_TRANSFORM"
			           translation="0.000000 0.000000 1.881919"
			           scale="1.000000 1.000000 1.000000"
			           rotation="0.000000 1.000000 0.000000 0.000000"
			           >
				<Transform DEF="Cube_001_ifs_TRANSFORM"
				           translation="0.000000 0.000000 0.000000"
				           scale="1.000000 1.000000 1.000000"
				           rotation="0.000000 1.000000 0.000000 0.000000"
				           >
					<Group DEF="group_ME_Cube_001">
						<Shape>
							<Appearance>
								<Material USE="MA_Body" />
							</Appearance>
							<IndexedTriangleSet solid="false"
							                    normalPerVertex="true"
							                    index="0 1 2 0 2 3 4 5 6 4 6 7 8 9 10 8 10 11 12 13 14 12 14 15 4 16 17 4 17 15 18 5 14 18 14 19 "
							                    >
								<Coordinate point="-1.142846 -1.151750 0.000000 -1.142846 -1.151750 0.733537 -1.142846 1.151750 0.733537 -1.142846 1.151750 0.000000 -1.142846 1.151750 0.000000 -1.142846 1.151750 0.733537 1.142846 1.151750 0.733537 1.142846 1.151750 0.000000 1.142846 1.151750 0.000000 1.142846 1.151750 0.733537 1.142846 -1.151750 0.733537 1.142846 -1.151750 0.000000 1.142846 -1.151750 0.000000 1.142846 -1.151750 0.733537 -1.142846 -1.151750 0.733537 -1.142846 -1.151750 0.000000 1.142846 1.151750 0.000000 1.142846 -1.151750 0.000000 1.142846 1.151750 0.733537 1.142846 -1.151750 0.733537 " />
								<Normal vector="-0.577349 -0.577349 -0.577349 -0.577349 -0.577349 0.577349 -0.577349 0.577349 0.577349 -0.577349 0.577349 -0.577349 -0.577349 0.577349 -0.577349 -0.577349 0.577349 0.577349 0.577349 0.577349 0.577349 0.577349 0.577349 -0.577349 0.577349 0.577349 -0.577349 0.577349 0.577349 0.577349 0.577349 -0.577349 0.577349 0.577349 -0.577349 -0.577349 0.577349 -0.577349 -0.577349 0.577349 -0.577349 0.577349 -0.577349 -0.577349 0.577349 -0.577349 -0.577349 -0.577349 0.577349 0.577349 -0.577349 0.577349 -0.577349 -0.577349 0.577349 0.577349 0.577349 0.577349 -0.577349 0.577349 " />
								<TextureCoordinate point="0.0348 0.5543 0.2467 0.5543 0.2467 0.9508 0.0348 0.9508 0.0348 0.5543 0.2467 0.5543 0.2467 0.9508 0.0348 0.9508 0.0348 0.5543 0.2467 0.5543 0.2467 0.9508 0.0348 0.9508 0.0348 0.5543 0.2467 0.5543 0.2467 0.9508 0.0348 0.9508 0.2467 0.5543 0.2467 0.9508 0.0348 0.5543 0.0348 0.9508 " />
							</IndexedTriangleSet>
						</Shape>
					</Group>
				</Transform>
			</Transform>
			<Transform DEF="neck_TRANSFORM"
			           translation="0.000000 0.000000 2.457564"
			           scale="1.000000 1.000000 1.000000"
			           rotation="0.000000 1.000000 0.000000 0.000000"
			           >
				<Transform DEF="neck_ifs_TRANSFORM"
				           translation="0.000000 0.000000 0.000000"
				           scale="1.000000 1.000000 1.000000"
				           rotation="0.000000 1.000000 0.000000 0.000000"
				           >
					<Group DEF="group_ME_neck">
						<Shape>
							<Appearance>
								<Material USE="MA_Body" />
							</Appearance>
							<IndexedTriangleSet solid="false"
							                    normalPerVertex="true"
							                    index="0 1 2 0 2 3 4 5 6 4 6 7 8 9 10 8 10 11 12 13 14 12 14 15 4 16 17 4 17 15 18 5 14 18 14 19 "
							                    >
								<Coordinate point="-0.589394 -0.708737 0.000000 -0.589394 -0.708737 0.377881 -0.589394 0.708737 0.377881 -0.589394 0.708737 0.000000 -0.589394 0.708737 0.000000 -0.589394 0.708737 0.377881 0.589394 0.708737 0.377881 0.589394 0.708737 0.000000 0.589394 0.708737 0.000000 0.589394 0.708737 0.377881 0.589394 -0.708737 0.377881 0.589394 -0.708737 0.000000 0.589394 -0.708737 0.000000 0.589394 -0.708737 0.377881 -0.589394 -0.708737 0.377881 -0.589394 -0.708737 0.000000 0.589394 0.708737 0.000000 0.589394 -0.708737 0.000000 0.589394 0.708737 0.377881 0.589394 -0.708737 0.377881 " />
								<Normal vector="-0.577349 -0.577349 -0.577349 -0.577349 -0.577349 0.577349 -0.577349 0.577349 0.577349 -0.577349 0.577349 -0.577349 -0.577349 0.577349 -0.577349 -0.577349 0.577349 0.577349 0.577349 0.577349 0.577349 0.577349 0.577349 -0.577349 0.577349 0.577349 -0.577349 0.577349 0.577349 0.577349 0.577349 -0.577349 0.577349 0.577349 -0.577349 -0.577349 0.577349 -0.577349 -0.577349 0.577349 -0.577349 0.577349 -0.577349 -0.577349 0.577349 -0.577349 -0.577349 -0.577349 0.577349 0.577349 -0.577349 0.577349 -0.577349 -0.577349 0.577349 0.577349 0.577349 0.577349 -0.577349 0.577349 " />
								<TextureCoordinate point="0.0348 0.5543 0.2467 0.5543 0.2467 0.9508 0.0348 0.9508 0.0348 0.5543 0.2467 0.5543 0.2467 0.9508 0.0348 0.9508 0.0348 0.5543 0.2467 0.5543 0.2467 0.9508 0.0348 0.9508 0.0348 0.5543 0.2467 0.5543 0.2467 0.9508 0.0348 0.9508 0.2467 0.5543 0.2467 0.9508 0.0348 0.5543 0.0348 0.9508 " />
							</IndexedTriangleSet>
						</Shape>
					</Group>
				</Transform>
				<Transform DEF="Cube_003_TRANSFORM"
				           translation="0.659995 -0.575923 0.037690"
				           scale="1.000000 1.000000 1.000000"
				           rotation="0.000000 1.000000 0.000000 0.000000"
				           >
					<Transform DEF="Cube_003_ifs_TRANSFORM"
					           translation="0.000000 0.000000 0.000000"
					           scale="1.000000 1.000000 1.000000"
					           rotation="0.000000 1.000000 0.000000 0.000000"
					           >
						<Group DEF="group_ME_Cube_003">
							<Shape>
								<Appearance>
									<Material USE="MA_Body" />
								</Appearance>
								<IndexedTriangleSet solid="false"
								                    normalPerVertex="true"
								                    index="0 1 2 0 2 3 4 5 6 4 6 7 8 9 10 8 10 11 12 13 14 12 14 15 4 16 17 4 17 15 18 5 14 18 14 19 "
								                    >
									<Coordinate point="-0.334136 -0.361773 -0.214584 0.348174 -1.088000 -0.052665 0.299712 -1.038589 0.373160 -0.382597 -0.312362 0.211240 -0.382597 -0.312362 0.211240 0.299712 -1.038589 0.373160 1.016445 -0.364454 0.376504 0.334136 0.361773 0.214584 0.334136 0.361773 0.214584 1.016445 -0.364454 0.376504 1.064907 -0.413865 -0.049320 0.382597 0.312362 -0.211240 0.382597 0.312362 -0.211240 1.064907 -0.413865 -0.049320 0.348174 -1.088000 -0.052665 -0.334136 -0.361773 -0.214584 0.334136 0.361773 0.214584 0.382597 0.312362 -0.211240 1.016445 -0.364454 0.376504 1.064907 -0.413865 -0.049320 " />
									<Normal vector="-0.745903 -0.046327 -0.664418 0.034486 -0.876980 -0.479232 -0.095187 -0.744743 0.660482 -0.875607 0.085879 0.475295 -0.875607 0.085879 0.475295 -0.095187 -0.744743 0.660482 0.745903 0.046327 0.664418 -0.034486 0.876980 0.479232 -0.034486 0.876980 0.479232 0.745903 0.046327 0.664418 0.875607 -0.085879 -0.475295 0.095187 0.744743 -0.660482 0.095187 0.744743 -0.660482 0.875607 -0.085879 -0.475295 0.034486 -0.876980 -0.479232 -0.745903 -0.046327 -0.664418 -0.034486 0.876980 0.479232 0.095187 0.744743 -0.660482 0.745903 0.046327 0.664418 0.875607 -0.085879 -0.475295 " />
									<TextureCoordinate point="0.0348 0.5543 0.2467 0.5543 0.2467 0.9508 0.0348 0.9508 0.0348 0.5543 0.2467 0.5543 0.2467 0.9508 0.0348 0.9508 0.0348 0.5543 0.2467 0.5543 0.2467 0.9508 0.0348 0.9508 0.0348 0.5543 0.2467 0.5543 0.2467 0.9508 0.0348 0.9508 0.2467 0.5543 0.2467 0.9508 0.0348 0.5543 0.0348 0.9508 " />
								</IndexedTriangleSet>
							</Shape>
						</Group>
					</Transform>
				</Transform>
				<Transform DEF="Cube_004_TRANSFORM"
				           translation="0.914555 0.319216 0.129362"
				           scale="1.000000 1.000000 1.000000"
				           rotation="0.000000 1.000000 0.000000 0.000000"
				           >
					<Transform DEF="Cube_004_ifs_TRANSFORM"
					           translation="0.000000 0.000000 0.000000"
					           scale="1.000000 1.000000 1.000000"
					           rotation="0.000000 1.000000 0.000000 0.000000"
					           >
						<Group DEF="group_ME_Cube_004">
							<Shape>
								<Appearance>
									<Material USE="MA_Body" />
								</Appearance>
								<IndexedTriangleSet solid="false"
								                    normalPerVertex="true"
								                    index="0 1 2 0 2 3 4 5 6 4 6 7 8 9 10 8 10 11 12 13 14 12 14 15 4 16 17 4 17 15 18 5 14 18 14 19 "
								                    >
									<Coordinate point="0.303427 -0.386673 -0.216769 1.115582 0.208168 -0.141014 1.090335 0.187853 0.289179 0.278180 -0.406988 0.213424 0.278180 -0.406988 0.213424 1.090335 0.187853 0.289179 0.508728 0.981514 0.292523 -0.303427 0.386673 0.216769 -0.303427 0.386673 0.216769 0.508728 0.981514 0.292523 0.533975 1.001829 -0.137670 -0.278180 0.406988 -0.213424 -0.278180 0.406988 -0.213424 0.533975 1.001829 -0.137670 1.115582 0.208168 -0.141014 0.303427 -0.386673 -0.216769 -0.303427 0.386673 0.216769 -0.278180 0.406988 -0.213424 0.508728 0.981514 0.292523 0.533975 1.001829 -0.137670 " />
									<Normal vector="-0.089389 -0.778680 -0.620991 0.839503 -0.098300 -0.534349 0.771935 -0.152684 0.617054 -0.156987 -0.833033 0.530412 -0.156987 -0.833033 0.530412 0.771935 -0.152684 0.617054 0.089389 0.778680 0.620991 -0.839503 0.098300 0.534349 -0.839503 0.098300 0.534349 0.089389 0.778680 0.620991 0.156987 0.833033 -0.530412 -0.771935 0.152684 -0.617054 -0.771935 0.152684 -0.617054 0.156987 0.833033 -0.530412 0.839503 -0.098300 -0.534349 -0.089389 -0.778680 -0.620991 -0.839503 0.098300 0.534349 -0.771935 0.152684 -0.617054 0.089389 0.778680 0.620991 0.156987 0.833033 -0.530412 " />
									<TextureCoordinate point="0.0348 0.5543 0.2467 0.5543 0.2467 0.9508 0.0348 0.9508 0.0348 0.5543 0.2467 0.5543 0.2467 0.9508 0.0348 0.9508 0.0348 0.5543 0.2467 0.5543 0.2467 0.9508 0.0348 0.9508 0.0348 0.5543 0.2467 0.5543 0.2467 0.9508 0.0348 0.9508 0.2467 0.5543 0.2467 0.9508 0.0348 0.5543 0.0348 0.9508 " />
								</IndexedTriangleSet>
							</Shape>
						</Group>
					</Transform>
				</Transform>
				<Transform DEF="Cube_005_TRANSFORM"
				           translation="0.000000 0.974295 0.115686"
				           scale="1.000000 1.000000 1.000000"
				           rotation="0.000000 1.000000 0.000000 0.000000"
				           >
					<Transform DEF="Cube_005_ifs_TRANSFORM"
					           translation="0.000000 0.000000 0.000000"
					           scale="1.000000 1.000000 1.000000"
					           rotation="0.000000 1.000000 0.000000 0.000000"
					           >
						<Group DEF="group_ME_Cube_005">
							<Shape>
								<Appearance>
									<Material USE="MA_Body" />
								</Appearance>
								<IndexedTriangleSet solid="false"
								                    normalPerVertex="true"
								                    index="0 1 2 0 2 3 4 5 6 4 6 7 8 9 10 8 10 11 12 13 14 12 14 15 4 16 17 4 17 15 18 5 14 18 14 19 "
								                    >
									<Coordinate point="-0.713004 -0.076438 0.307341 -0.713004 0.830258 0.532842 -0.713004 0.983134 -0.081840 -0.713004 0.076438 -0.307341 -0.713004 0.076438 -0.307341 -0.713004 0.983134 -0.081840 0.713004 0.983134 -0.081840 0.713004 0.076438 -0.307341 0.713004 0.076438 -0.307341 0.713004 0.983134 -0.081840 0.713004 0.830258 0.532842 0.713004 -0.076438 0.307341 0.713004 -0.076438 0.307341 0.713004 0.830258 0.532842 -0.713004 0.830258 0.532842 -0.713004 -0.076438 0.307341 0.713004 0.076438 -0.307341 0.713004 -0.076438 0.307341 0.713004 0.983134 -0.081840 0.713004 0.830258 0.532842 " />
									<Normal vector="-0.577349 -0.699606 0.420911 -0.577349 0.420911 0.699606 -0.577349 0.699606 -0.420911 -0.577349 -0.420911 -0.699606 -0.577349 -0.420911 -0.699606 -0.577349 0.699606 -0.420911 0.577349 0.699606 -0.420911 0.577349 -0.420911 -0.699606 0.577349 -0.420911 -0.699606 0.577349 0.699606 -0.420911 0.577349 0.420911 0.699606 0.577349 -0.699606 0.420911 0.577349 -0.699606 0.420911 0.577349 0.420911 0.699606 -0.577349 0.420911 0.699606 -0.577349 -0.699606 0.420911 0.577349 -0.420911 -0.699606 0.577349 -0.699606 0.420911 0.577349 0.699606 -0.420911 0.577349 0.420911 0.699606 " />
									<TextureCoordinate point="0.0348 0.5543 0.2467 0.5543 0.2467 0.9508 0.0348 0.9508 0.0348 0.5543 0.2467 0.5543 0.2467 0.9508 0.0348 0.9508 0.0348 0.5543 0.2467 0.5543 0.2467 0.9508 0.0348 0.9508 0.0348 0.5543 0.2467 0.5543 0.2467 0.9508 0.0348 0.9508 0.2467 0.5543 0.2467 0.9508 0.0348 0.5543 0.0348 0.9508 " />
								</IndexedTriangleSet>
							</Shape>
						</Group>
					</Transform>
				</Transform>
				<Transform DEF="head_TRANSFORM"
				           translation="0.000000 0.057565 0.221402"
				           scale="1.000000 1.000000 1.000000"
				           rotation="0.000000 1.000000 0.000000 0.000000"
				           >
					<Transform DEF="head_ifs_TRANSFORM"
					           translation="0.000000 0.000000 0.000000"
					           scale="1.000000 1.000000 1.000000"
					           rotation="0.000000 1.000000 0.000000 0.000000"
					           >
						<Group DEF="group_ME_head">
							<Shape>
								<Appearance>
									<Material USE="MA_Body" />
								</Appearance>
								<IndexedTriangleSet solid="false"
								                    normalPerVertex="true"
								                    index="0 1 2 0 2 3 4 5 6 4 6 7 8 9 10 8 10 11 12 13 14 12 14 15 16 17 18 16 18 19 20 21 14 20 14 22 23 5 24 23 24 25 26 27 28 26 28 29 30 31 32 30 32 33 34 35 36 34 36 37 38 39 24 38 24 40 41 42 28 41 28 43 44 21 45 44 45 46 47 48 49 47 49 50 51 27 52 51 52 53 54 55 56 54 56 57 58 59 60 58 60 61 62 63 64 62 64 65 66 67 68 66 68 69 70 71 72 70 72 73 74 48 60 74 60 75 76 77 64 76 64 78 79 80 81 79 81 82 83 84 85 83 85 86 87 88 89 87 89 90 91 92 93 91 93 94 95 96 97 95 97 98 99 100 101 99 101 102 103 104 105 103 105 106 107 108 109 107 109 110 111 112 113 111 113 114 115 116 117 115 117 118 119 120 121 119 121 122 123 124 125 123 125 126 127 128 129 127 129 130 131 132 133 131 133 134 135 136 137 135 137 138 139 140 141 139 141 142 143 144 145 143 145 146 147 148 149 147 149 150 151 152 153 151 153 154 155 156 157 155 157 158 159 160 161 159 161 162 163 164 165 163 165 166 167 168 169 167 169 170 171 172 173 171 173 37 70 174 175 70 175 176 66 177 178 66 178 179 34 180 181 34 181 182 30 183 184 30 184 185 186 187 188 186 188 69 189 190 191 189 191 19 192 193 194 192 194 33 195 196 197 195 197 198 16 199 200 16 200 201 202 203 204 202 204 205 206 207 208 206 208 209 210 211 212 210 212 213 214 215 216 214 216 73 217 218 219 217 219 220 221 222 223 221 223 224 225 226 227 225 227 228 229 230 231 229 231 232 233 234 235 233 235 236 237 238 239 237 239 240 241 242 243 241 243 244 245 246 247 245 247 248 249 55 250 249 250 251 252 253 254 252 254 255 206 256 257 206 257 170 210 258 259 210 259 260 261 262 250 261 250 263 264 265 254 264 254 266 267 77 268 267 268 269 270 271 272 270 272 273 274 253 275 274 275 276 277 278 279 277 279 280 281 282 283 281 283 220 284 271 279 284 279 285 286 287 288 286 288 289 290 291 292 290 292 293 294 295 296 294 296 297 298 299 300 298 300 260 281 301 302 281 302 303 "
								                    >
									<Coordinate point="-1.990662 -1.811474 2.122382 -1.990662 -1.811474 3.333265 -1.990662 1.811474 3.333265 -1.990662 1.811474 2.122382 1.580237 1.811475 2.122382 1.580237 1.811475 3.333265 1.990662 1.811474 3.333265 1.990662 1.811474 2.122382 1.990662 1.811474 2.122382 1.990662 1.811474 3.333265 1.990662 -1.811474 3.333265 1.990662 -1.811474 2.122382 -1.580237 -1.811475 2.122382 -1.580237 -1.811475 3.333265 -1.990662 -1.811474 3.333265 -1.990662 -1.811474 2.122382 1.580237 1.811475 0.000000 1.990662 1.811474 0.000000 1.990662 -1.811474 0.000000 1.580237 -1.811475 0.000000 -1.580237 1.811475 3.333265 -1.990662 1.811474 3.333265 -1.580237 -1.811475 3.333265 1.990662 1.811474 3.333265 1.580237 -1.811475 3.333265 1.990662 -1.811474 3.333265 -0.907313 1.811475 3.333265 -1.580237 1.811475 3.333265 -1.580237 -1.811475 3.333265 -0.907313 -1.811475 3.333265 -1.990662 1.811474 0.000000 -1.580237 1.811475 0.000000 -1.580237 -1.811475 0.000000 -1.990662 -1.811474 0.000000 0.907313 1.811475 0.000000 1.580237 1.811475 0.000000 1.580237 -1.811475 0.000000 0.907313 -1.811475 0.000000 1.990662 -1.811474 2.122382 1.990662 -1.811474 3.333265 1.580237 -1.811475 2.122382 -0.907313 -1.811475 2.122382 -0.907313 -1.811475 3.333265 -1.580237 -1.811475 2.122382 -1.990662 1.811474 2.122382 -1.580237 1.811475 3.333265 -1.580237 1.811475 2.122382 0.907313 1.811475 2.122382 0.907313 1.811475 3.333265 1.580237 1.811475 3.333265 1.580237 1.811475 2.122382 -1.580237 1.811475 2.122382 -0.907313 1.811475 3.333265 -0.907313 1.811475 2.122382 0.789915 1.811475 2.122382 0.789915 1.811475 3.333265 0.907313 1.811475 3.333265 0.907313 1.811475 2.122382 1.580237 -1.811475 2.122382 1.580237 -1.811475 3.333265 0.907313 -1.811475 3.333265 0.907313 -1.811475 2.122382 -0.789915 -1.811475 2.122382 -0.789915 -1.811475 3.333265 -0.907313 -1.811475 3.333265 -0.907313 -1.811475 2.122382 -1.580237 1.811475 0.000000 -0.907313 1.811475 0.000000 -0.907313 -1.811475 0.000000 -1.580237 -1.811475 0.000000 0.789915 1.811475 0.000000 0.907313 1.811475 0.000000 0.907313 -1.811475 0.000000 0.789915 -1.811475 0.000000 1.580237 1.811475 3.333265 1.580237 -1.811475 3.333265 -0.789915 1.811475 3.333265 -0.907313 1.811475 3.333265 -0.789915 -1.811475 3.333265 -0.789915 -1.811475 1.098102 -0.789915 -1.811475 2.122382 -0.907313 -1.811475 2.122382 -0.907313 -1.811475 1.098102 0.789915 1.811475 1.098102 0.789915 1.811475 2.122382 0.907313 1.811475 2.122382 0.907313 1.811475 1.098102 -1.580237 1.811475 1.098102 -1.580237 1.811475 2.122382 -0.907313 1.811475 2.122382 -0.907313 1.811475 1.098102 0.907313 1.811475 1.098102 0.907313 1.811475 2.122382 1.580237 1.811475 2.122382 1.580237 1.811475 1.098102 -1.990662 1.811474 1.098102 -1.990662 1.811474 2.122382 -1.580237 1.811475 2.122382 -1.580237 1.811475 1.098102 1.990662 -1.811474 1.098102 1.990662 -1.811474 2.122382 1.580237 -1.811475 2.122382 1.580237 -1.811475 1.098102 -1.580237 -1.811475 1.098102 -1.580237 -1.811475 2.122382 -1.990662 -1.811474 2.122382 -1.990662 -1.811474 1.098102 1.990662 1.811474 1.098102 1.990662 1.811474 2.122382 1.990662 -1.811474 2.122382 1.990662 -1.811474 1.098102 1.580237 1.811475 1.098102 1.580237 1.811475 2.122382 1.990662 1.811474 2.122382 1.990662 1.811474 1.098102 -1.990662 -1.811474 1.098102 -1.990662 -1.811474 2.122382 -1.990662 1.811474 2.122382 -1.990662 1.811474 1.098102 -1.990662 -1.811474 0.613465 -1.990662 -1.811474 1.098102 -1.990662 1.811474 1.098102 -1.990662 1.811474 0.613465 1.580237 1.811475 0.613465 1.580237 1.811475 1.098102 1.990662 1.811474 1.098102 1.990662 1.811474 0.613465 1.990662 1.811474 0.613465 1.990662 1.811474 1.098102 1.990662 -1.811474 1.098102 1.990662 -1.811474 0.613465 -1.580237 -1.811475 0.613465 -1.580237 -1.811475 1.098102 -1.990662 -1.811474 1.098102 -1.990662 -1.811474 0.613465 1.990662 -1.811474 0.613465 1.990662 -1.811474 1.098102 1.580237 -1.811475 1.098102 1.580237 -1.811475 0.613465 -0.907313 -1.811475 0.613465 -0.907313 -1.811475 1.098102 -1.580237 -1.811475 1.098102 -1.580237 -1.811475 0.613465 -1.990662 1.811474 0.613465 -1.990662 1.811474 1.098102 -1.580237 1.811475 1.098102 -1.580237 1.811475 0.613465 0.907313 1.811475 0.613465 0.907313 1.811475 1.098102 1.580237 1.811475 1.098102 1.580237 1.811475 0.613465 -1.580237 1.811475 0.613465 -1.580237 1.811475 1.098102 -0.907313 1.811475 1.098102 -0.907313 1.811475 0.613465 0.789915 1.811475 0.613465 0.789915 1.811475 1.098102 0.907313 1.811475 1.098102 0.907313 1.811475 0.613465 1.580237 -1.811475 0.613465 1.580237 -1.811475 1.098102 0.907313 -1.811475 1.098102 0.907313 -1.811475 0.613465 -0.789915 -1.811475 0.336712 -0.789915 -1.811475 1.098102 -0.907313 -1.811475 1.098102 -0.907313 -1.811475 0.613465 -0.789915 -1.811475 0.000000 -0.789915 -1.811475 0.336712 -0.907313 -1.811475 0.613465 -0.907313 -1.811475 0.000000 1.580237 -1.811475 0.000000 1.580237 -1.811475 0.613465 0.907313 -1.811475 0.613465 0.789915 1.811475 0.613465 0.907313 1.811475 0.613465 0.907313 1.811475 0.000000 -1.580237 1.811475 0.613465 -0.907313 1.811475 0.613465 -0.907313 1.811475 0.000000 0.907313 1.811475 0.613465 1.580237 1.811475 0.613465 1.580237 1.811475 0.000000 -1.990662 1.811474 0.613465 -1.580237 1.811475 0.613465 -1.580237 1.811475 0.000000 -0.907313 -1.811475 0.000000 -0.907313 -1.811475 0.613465 -1.580237 -1.811475 0.613465 1.990662 -1.811474 0.000000 1.990662 -1.811474 0.613465 1.580237 -1.811475 0.613465 -1.580237 -1.811475 0.000000 -1.580237 -1.811475 0.613465 -1.990662 -1.811474 0.613465 1.990662 1.811474 0.000000 1.990662 1.811474 0.613465 1.990662 -1.811474 0.613465 1.990662 -1.811474 0.000000 1.580237 1.811475 0.613465 1.990662 1.811474 0.613465 1.990662 1.811474 0.000000 -1.990662 -1.811474 0.000000 -1.990662 -1.811474 0.613465 -1.990662 1.811474 0.613465 -1.990662 1.811474 0.000000 -0.907313 1.811475 0.000000 -0.907313 1.811475 0.613465 -0.789915 1.811475 0.613465 -0.789915 1.811475 0.000000 0.000000 1.811475 0.000000 0.000000 1.811475 0.613465 0.789915 1.811475 0.613465 0.789915 1.811475 0.000000 0.907313 -1.811475 0.000000 0.907313 -1.811475 0.613465 0.789915 -1.811475 0.336712 0.000000 -1.811475 0.000000 0.000000 -1.811475 0.336712 -0.789915 -1.811475 0.336712 -0.789915 -1.811475 0.000000 0.907313 -1.811475 0.613465 0.907313 -1.811475 1.098102 0.789915 -1.811475 1.098102 0.789915 -1.811475 0.336712 -0.907313 1.811475 0.613465 -0.907313 1.811475 1.098102 -0.789915 1.811475 1.098102 -0.789915 1.811475 0.613465 0.000000 1.811475 0.613465 0.000000 1.811475 1.098102 0.789915 1.811475 1.098102 0.789915 1.811475 0.613465 -0.907313 1.811475 1.098102 -0.907313 1.811475 2.122382 -0.789915 1.811475 2.122382 -0.789915 1.811475 1.098102 0.000000 1.811475 1.098102 0.000000 1.811475 2.122382 0.789915 1.811475 2.122382 0.789915 1.811475 1.098102 0.907313 -1.811475 1.098102 0.907313 -1.811475 2.122382 0.789915 -1.811475 2.122382 0.789915 -1.811475 1.098102 0.000000 -1.811475 1.098102 0.000000 -1.811475 2.122382 -0.789915 -1.811475 2.122382 -0.789915 -1.811475 1.098102 0.907313 1.811475 3.333265 0.789915 -1.811475 3.333265 0.907313 -1.811475 3.333265 0.000000 1.811475 3.333265 -0.789915 1.811475 3.333265 -0.789915 -1.811475 3.333265 0.000000 -1.811475 3.333265 -0.789915 1.811475 0.000000 -0.789915 -1.811475 0.000000 0.789915 1.811475 0.000000 0.789915 -1.811475 0.000000 0.000000 -1.811475 0.000000 0.907313 -1.811475 2.122382 0.907313 -1.811475 3.333265 0.789915 -1.811475 2.122382 0.000000 -1.811475 2.122382 0.000000 -1.811475 3.333265 -0.789915 -1.811475 2.122382 -0.907313 1.811475 2.122382 -0.789915 1.811475 3.333265 -0.789915 1.811475 2.122382 0.000000 1.811475 2.122382 0.000000 1.811475 3.333265 0.789915 1.811475 3.333265 0.789915 1.811475 2.122382 -0.789915 1.811475 2.122382 0.000000 1.811475 3.333265 0.000000 1.811475 2.122382 0.789915 -1.811475 2.122382 0.789915 -1.811475 3.333265 0.000000 -1.811475 3.333265 0.000000 -1.811475 2.122382 -0.789915 1.811475 0.000000 0.000000 1.811475 0.000000 0.000000 -1.811475 0.000000 0.789915 1.811475 3.333265 0.789915 -1.811475 3.333265 0.789915 -1.811475 1.098102 0.789915 -1.811475 2.122382 0.000000 -1.811475 2.122382 0.000000 -1.811475 1.098102 -0.789915 1.811475 1.098102 -0.789915 1.811475 2.122382 0.000000 1.811475 2.122382 0.000000 1.811475 1.098102 -0.789915 1.811475 0.613465 -0.789915 1.811475 1.098102 0.000000 1.811475 1.098102 0.000000 1.811475 0.613465 0.789915 -1.811475 0.000000 0.789915 -1.811475 0.336712 0.000000 -1.811475 0.336712 -0.789915 1.811475 0.613465 0.000000 1.811475 0.613465 0.000000 1.811475 0.000000 " />
									<Normal vector="-0.707083 -0.707083 0.000000 -0.577349 -0.577349 0.577349 -0.577349 0.577349 0.577349 -0.707083 0.707083 0.000000 0.000000 1.000000 0.000000 0.000000 0.707083 0.707083 0.577349 0.577349 0.577349 0.707083 0.707083 0.000000 0.707083 0.707083 0.000000 0.577349 0.577349 0.577349 0.577349 -0.577349 0.577349 0.707083 -0.707083 0.000000 0.000000 -1.000000 0.000000 0.000000 -0.707083 0.707083 -0.577349 -0.577349 0.577349 -0.707083 -0.707083 0.000000 0.000000 0.707083 -0.707083 0.577349 0.577349 -0.577349 0.577349 -0.577349 -0.577349 0.000000 -0.707083 -0.707083 0.000000 0.707083 0.707083 -0.577349 0.577349 0.577349 0.000000 -0.707083 0.707083 0.577349 0.577349 0.577349 0.000000 -0.707083 0.707083 0.577349 -0.577349 0.577349 0.000000 0.707083 0.707083 0.000000 0.707083 0.707083 0.000000 -0.707083 0.707083 0.000000 -0.707083 0.707083 -0.577349 0.577349 -0.577349 0.000000 0.707083 -0.707083 0.000000 -0.707083 -0.707083 -0.577349 -0.577349 -0.577349 0.000000 0.707083 -0.707083 0.000000 0.707083 -0.707083 0.000000 -0.707083 -0.707083 0.000000 -0.707083 -0.707083 0.707083 -0.707083 0.000000 0.577349 -0.577349 0.577349 0.000000 -1.000000 0.000000 0.000000 -1.000000 0.000000 0.000000 -0.707083 0.707083 0.000000 -1.000000 0.000000 -0.707083 0.707083 0.000000 0.000000 0.707083 0.707083 0.000000 1.000000 0.000000 0.000000 1.000000 0.000000 0.000000 0.707083 0.707083 0.000000 0.707083 0.707083 0.000000 1.000000 0.000000 0.000000 1.000000 0.000000 0.000000 0.707083 0.707083 0.000000 1.000000 0.000000 0.000000 1.000000 0.000000 0.000000 0.707083 0.707083 0.000000 0.707083 0.707083 0.000000 1.000000 0.000000 0.000000 -1.000000 0.000000 0.000000 -0.707083 0.707083 0.000000 -0.707083 0.707083 0.000000 -1.000000 0.000000 0.000000 -1.000000 0.000000 0.000000 -0.707083 0.707083 0.000000 -0.707083 0.707083 0.000000 -1.000000 0.000000 0.000000 0.707083 -0.707083 0.000000 0.707083 -0.707083 0.000000 -0.707083 -0.707083 0.000000 -0.707083 -0.707083 0.000000 0.707083 -0.707083 0.000000 0.707083 -0.707083 0.000000 -0.707083 -0.707083 0.000000 -0.707083 -0.707083 0.000000 0.707083 0.707083 0.000000 -0.707083 0.707083 0.000000 0.707083 0.707083 0.000000 0.707083 0.707083 0.000000 -0.707083 0.707083 0.000000 -1.000000 0.000000 0.000000 -1.000000 0.000000 0.000000 -1.000000 0.000000 0.000000 -1.000000 0.000000 0.000000 1.000000 0.000000 0.000000 1.000000 0.000000 0.000000 1.000000 0.000000 0.000000 1.000000 0.000000 0.000000 1.000000 0.000000 0.000000 1.000000 0.000000 0.000000 1.000000 0.000000 0.000000 1.000000 0.000000 0.000000 1.000000 0.000000 0.000000 1.000000 0.000000 0.000000 1.000000 0.000000 0.000000 1.000000 0.000000 -0.707083 0.707083 0.000000 -0.707083 0.707083 0.000000 0.000000 1.000000 0.000000 0.000000 1.000000 0.000000 0.707083 -0.707083 0.000000 0.707083 -0.707083 0.000000 0.000000 -1.000000 0.000000 0.000000 -1.000000 0.000000 0.000000 -1.000000 0.000000 0.000000 -1.000000 0.000000 -0.707083 -0.707083 0.000000 -0.707083 -0.707083 0.000000 0.707083 0.707083 0.000000 0.707083 0.707083 0.000000 0.707083 -0.707083 0.000000 0.707083 -0.707083 0.000000 0.000000 1.000000 0.000000 0.000000 1.000000 0.000000 0.707083 0.707083 0.000000 0.707083 0.707083 0.000000 -0.707083 -0.707083 0.000000 -0.707083 -0.707083 0.000000 -0.707083 0.707083 0.000000 -0.707083 0.707083 0.000000 -0.707083 -0.707083 0.000000 -0.707083 -0.707083 0.000000 -0.707083 0.707083 0.000000 -0.707083 0.707083 0.000000 0.000000 1.000000 0.000000 0.000000 1.000000 0.000000 0.707083 0.707083 0.000000 0.707083 0.707083 0.000000 0.707083 0.707083 0.000000 0.707083 0.707083 0.000000 0.707083 -0.707083 0.000000 0.707083 -0.707083 0.000000 0.000000 -1.000000 0.000000 0.000000 -1.000000 0.000000 -0.707083 -0.707083 0.000000 -0.707083 -0.707083 0.000000 0.707083 -0.707083 0.000000 0.707083 -0.707083 0.000000 0.000000 -1.000000 0.000000 0.000000 -1.000000 0.000000 0.000000 -1.000000 0.000000 0.000000 -1.000000 0.000000 0.000000 -1.000000 0.000000 0.000000 -1.000000 0.000000 -0.707083 0.707083 0.000000 -0.707083 0.707083 0.000000 0.000000 1.000000 0.000000 0.000000 1.000000 0.000000 0.000000 1.000000 0.000000 0.000000 1.000000 0.000000 0.000000 1.000000 0.000000 0.000000 1.000000 0.000000 0.000000 1.000000 0.000000 0.000000 1.000000 0.000000 0.000000 1.000000 0.000000 0.000000 1.000000 0.000000 0.000000 1.000000 0.000000 0.000000 1.000000 0.000000 0.000000 1.000000 0.000000 0.000000 1.000000 0.000000 0.000000 -1.000000 0.000000 0.000000 -1.000000 0.000000 0.000000 -1.000000 0.000000 0.000000 -1.000000 0.000000 0.000000 -1.000000 0.000000 0.000000 -1.000000 0.000000 0.000000 -1.000000 0.000000 0.000000 -1.000000 0.000000 0.000000 -0.707083 -0.707083 0.000000 -1.000000 0.000000 0.000000 -1.000000 0.000000 0.000000 -0.707083 -0.707083 0.000000 -0.707083 -0.707083 0.000000 -1.000000 0.000000 0.000000 -1.000000 0.000000 0.000000 1.000000 0.000000 0.000000 1.000000 0.000000 0.000000 0.707083 -0.707083 0.000000 1.000000 0.000000 0.000000 1.000000 0.000000 0.000000 0.707083 -0.707083 0.000000 1.000000 0.000000 0.000000 1.000000 0.000000 0.000000 0.707083 -0.707083 -0.707083 0.707083 0.000000 0.000000 1.000000 0.000000 0.000000 0.707083 -0.707083 0.000000 -0.707083 -0.707083 0.000000 -1.000000 0.000000 0.000000 -1.000000 0.000000 0.577349 -0.577349 -0.577349 0.707083 -0.707083 0.000000 0.000000 -1.000000 0.000000 0.000000 -0.707083 -0.707083 0.000000 -1.000000 0.000000 -0.707083 -0.707083 0.000000 0.577349 0.577349 -0.577349 0.707083 0.707083 0.000000 0.707083 -0.707083 0.000000 0.577349 -0.577349 -0.577349 0.000000 1.000000 0.000000 0.707083 0.707083 0.000000 0.577349 0.577349 -0.577349 -0.577349 -0.577349 -0.577349 -0.707083 -0.707083 0.000000 -0.707083 0.707083 0.000000 -0.577349 0.577349 -0.577349 0.000000 0.707083 -0.707083 0.000000 1.000000 0.000000 0.000000 1.000000 0.000000 0.000000 0.707083 -0.707083 0.000000 0.707083 -0.707083 0.000000 1.000000 0.000000 0.000000 1.000000 0.000000 0.000000 0.707083 -0.707083 0.000000 -0.707083 -0.707083 0.000000 -1.000000 0.000000 0.000000 -1.000000 0.000000 0.000000 -0.707083 -0.707083 0.000000 -1.000000 0.000000 0.000000 -1.000000 0.000000 0.000000 -0.707083 -0.707083 0.000000 -1.000000 0.000000 0.000000 -1.000000 0.000000 0.000000 -1.000000 0.000000 0.000000 -1.000000 0.000000 0.000000 1.000000 0.000000 0.000000 1.000000 0.000000 0.000000 1.000000 0.000000 0.000000 1.000000 0.000000 0.000000 1.000000 0.000000 0.000000 1.000000 0.000000 0.000000 1.000000 0.000000 0.000000 1.000000 0.000000 0.000000 1.000000 0.000000 0.000000 1.000000 0.000000 0.000000 1.000000 0.000000 0.000000 1.000000 0.000000 0.000000 1.000000 0.000000 0.000000 1.000000 0.000000 0.000000 1.000000 0.000000 0.000000 1.000000 0.000000 0.000000 -1.000000 0.000000 0.000000 -1.000000 0.000000 0.000000 -1.000000 0.000000 0.000000 -1.000000 0.000000 0.000000 -1.000000 0.000000 0.000000 -1.000000 0.000000 0.000000 -1.000000 0.000000 0.000000 -1.000000 0.000000 0.000000 0.707083 0.707083 0.000000 -0.707083 0.707083 0.000000 -0.707083 0.707083 0.000000 0.707083 0.707083 0.000000 0.707083 0.707083 0.000000 -0.707083 0.707083 0.000000 -0.707083 0.707083 0.000000 0.707083 -0.707083 0.000000 -0.707083 -0.707083 0.000000 0.707083 -0.707083 0.000000 -0.707083 -0.707083 0.000000 -0.707083 -0.707083 0.000000 -1.000000 0.000000 0.000000 -0.707083 0.707083 0.000000 -1.000000 0.000000 0.000000 -1.000000 0.000000 0.000000 -0.707083 0.707083 0.000000 -1.000000 0.000000 0.000000 1.000000 0.000000 0.000000 0.707083 0.707083 0.000000 1.000000 0.000000 0.000000 1.000000 0.000000 0.000000 0.707083 0.707083 0.000000 0.707083 0.707083 0.000000 1.000000 0.000000 0.000000 1.000000 0.000000 0.000000 0.707083 0.707083 0.000000 1.000000 0.000000 0.000000 -1.000000 0.000000 0.000000 -0.707083 0.707083 0.000000 -0.707083 0.707083 0.000000 -1.000000 0.000000 0.000000 0.707083 -0.707083 0.000000 0.707083 -0.707083 0.000000 -0.707083 -0.707083 0.000000 0.707083 0.707083 0.000000 -0.707083 0.707083 0.000000 -1.000000 0.000000 0.000000 -1.000000 0.000000 0.000000 -1.000000 0.000000 0.000000 -1.000000 0.000000 0.000000 1.000000 0.000000 0.000000 1.000000 0.000000 0.000000 1.000000 0.000000 0.000000 1.000000 0.000000 0.000000 1.000000 0.000000 0.000000 1.000000 0.000000 0.000000 1.000000 0.000000 0.000000 1.000000 0.000000 0.000000 -0.707083 -0.707083 0.000000 -1.000000 0.000000 0.000000 -1.000000 0.000000 0.000000 1.000000 0.000000 0.000000 1.000000 0.000000 0.000000 0.707083 -0.707083 " />
									<TextureCoordinate point="0.0348 0.0459 0.2467 0.0459 0.2467 0.4423 0.0348 0.4423 0.0348 0.0459 0.2467 0.0459 0.2467 0.4423 0.0348 0.4423 0.0348 0.0459 0.2467 0.0459 0.2467 0.4423 0.0348 0.4423 0.0348 0.0459 0.2467 0.0459 0.2467 0.4423 0.0348 0.4423 0.0348 0.0459 0.2467 0.0459 0.2467 0.4423 0.0348 0.4423 0.0348 0.0459 0.2467 0.0459 0.0348 0.4423 0.0348 0.0459 0.2467 0.4423 0.0348 0.4423 0.0348 0.0459 0.2467 0.0459 0.2467 0.4423 0.0348 0.4423 0.0348 0.0459 0.2467 0.0459 0.2467 0.4423 0.0348 0.4423 0.0348 0.0459 0.2467 0.0459 0.2467 0.4423 0.0348 0.4423 0.0348 0.0459 0.2467 0.0459 0.0348 0.4423 0.0348 0.0459 0.2467 0.0459 0.0348 0.4423 0.0348 0.0459 0.2467 0.4423 0.0348 0.4423 0.0348 0.0459 0.2467 0.0459 0.2467 0.4423 0.0348 0.4423 0.0348 0.0459 0.2467 0.4423 0.0348 0.4423 0.0348 0.0459 0.2467 0.0459 0.2467 0.4423 0.0348 0.4423 0.0348 0.0459 0.2467 0.0459 0.2467 0.4423 0.0348 0.4423 0.0348 0.0459 0.2467 0.0459 0.2467 0.4423 0.0348 0.4423 0.0348 0.0459 0.2467 0.0459 0.2467 0.4423 0.0348 0.4423 0.0348 0.0459 0.2467 0.0459 0.2467 0.4423 0.0348 0.4423 0.0348 0.0459 0.0348 0.4423 0.0348 0.0459 0.2467 0.0459 0.0348 0.4423 0.0348 0.0459 0.2467 0.0459 0.2467 0.4423 0.0348 0.4423 0.0348 0.0459 0.2467 0.0459 0.2467 0.4423 0.0348 0.4423 0.0348 0.0459 0.2467 0.0459 0.2467 0.4423 0.0348 0.4423 0.0348 0.0459 0.2467 0.0459 0.2467 0.4423 0.0348 0.4423 0.0348 0.0459 0.2467 0.0459 0.2467 0.4423 0.0348 0.4423 0.0348 0.0459 0.2467 0.0459 0.2467 0.4423 0.0348 0.4423 0.0348 0.0459 0.2467 0.0459 0.2467 0.4423 0.0348 0.4423 0.0348 0.0459 0.2467 0.0459 0.2467 0.4423 0.0348 0.4423 0.0348 0.0459 0.2467 0.0459 0.2467 0.4423 0.0348 0.4423 0.0348 0.0459 0.2467 0.0459 0.2467 0.4423 0.0348 0.4423 0.0348 0.0459 0.2467 0.0459 0.2467 0.4423 0.0348 0.4423 0.0348 0.0459 0.2467 0.0459 0.2467 0.4423 0.0348 0.4423 0.0348 0.0459 0.2467 0.0459 0.2467 0.4423 0.0348 0.4423 0.0348 0.0459 0.2467 0.0459 0.2467 0.4423 0.0348 0.4423 0.0348 0.0459 0.2467 0.0459 0.2467 0.4423 0.0348 0.4423 0.6113 0.2818 0.6113 0.7644 0.9413 0.7644 0.9413 0.2818 0.0348 0.0459 0.2467 0.0459 0.2467 0.4423 0.0348 0.4423 0.0348 0.0459 0.2467 0.0459 0.2467 0.4423 0.0348 0.4423 0.0348 0.0459 0.2467 0.0459 0.2467 0.4423 0.0348 0.4423 0.0348 0.0459 0.2467 0.0459 0.2467 0.4423 0.0348 0.4423 0.9413 0.2818 0.9413 0.7644 0.6113 0.7644 0.6113 0.2818 0.0348 0.0459 0.2467 0.0459 0.2467 0.4423 0.0348 0.4423 0.0348 0.0459 0.2467 0.0459 0.2467 0.4423 0.0348 0.4423 0.0348 0.0459 0.2467 0.0459 0.2467 0.4423 0.2467 0.0459 0.2467 0.4423 0.0348 0.4423 0.2467 0.0459 0.2467 0.4423 0.0348 0.4423 0.2467 0.0459 0.2467 0.4423 0.0348 0.4423 0.2467 0.0459 0.2467 0.4423 0.0348 0.4423 0.0348 0.0459 0.2467 0.0459 0.2467 0.4423 0.0348 0.0459 0.2467 0.0459 0.2467 0.4423 0.0348 0.0459 0.2467 0.0459 0.2467 0.4423 0.0348 0.0459 0.2467 0.0459 0.2467 0.4423 0.0348 0.4423 0.2467 0.0459 0.2467 0.4423 0.0348 0.4423 0.0348 0.0459 0.2467 0.0459 0.2467 0.4423 0.0348 0.4423 0.0348 0.0459 0.2467 0.0459 0.2467 0.4423 0.0348 0.4423 0.0348 0.0459 0.2467 0.0459 0.2467 0.4423 0.0348 0.4423 0.0348 0.0459 0.2467 0.0459 0.2467 0.4423 0.0348 0.0459 0.2467 0.0459 0.2467 0.4423 0.0348 0.4423 0.0348 0.0459 0.2467 0.0459 0.2467 0.4423 0.0348 0.4423 0.0348 0.0459 0.2467 0.0459 0.2467 0.4423 0.0348 0.4423 0.0348 0.0459 0.2467 0.0459 0.2467 0.4423 0.0348 0.4423 0.0348 0.0459 0.2467 0.0459 0.2467 0.4423 0.0348 0.4423 0.0348 0.0459 0.2467 0.0459 0.2467 0.4423 0.0348 0.4423 0.0348 0.0459 0.2467 0.0459 0.2467 0.4423 0.0348 0.4423 0.0348 0.0459 0.2467 0.0459 0.2467 0.4423 0.0348 0.4423 0.0348 0.0459 0.2467 0.4423 0.0348 0.4423 0.0348 0.0459 0.2467 0.0459 0.2467 0.4423 0.0348 0.4423 0.2467 0.0459 0.2467 0.4423 0.2467 0.0459 0.2467 0.4423 0.0348 0.4423 0.0348 0.0459 0.2467 0.0459 0.0348 0.4423 0.0348 0.0459 0.2467 0.0459 0.0348 0.4423 0.0348 0.0459 0.2467 0.4423 0.0348 0.4423 0.0348 0.0459 0.2467 0.0459 0.2467 0.4423 0.0348 0.4423 0.0348 0.0459 0.2467 0.4423 0.0348 0.4423 0.0348 0.0459 0.2467 0.0459 0.2467 0.4423 0.0348 0.4423 0.0348 0.0459 0.2467 0.0459 0.2467 0.4423 0.0348 0.0459 0.0348 0.4423 0.0348 0.0459 0.2467 0.0459 0.2467 0.4423 0.0348 0.4423 0.0348 0.0459 0.2467 0.0459 0.2467 0.4423 0.0348 0.4423 0.0348 0.0459 0.2467 0.0459 0.2467 0.4423 0.0348 0.4423 0.0348 0.0459 0.2467 0.0459 0.2467 0.4423 0.2467 0.0459 0.2467 0.4423 0.0348 0.4423 " />
								</IndexedTriangleSet>
							</Shape>
							<Shape>
								<Appearance>
									<Material DEF="MA_Face"
									          diffuseColor="0.800 0.800 0.800"
									          specularColor="0.401 0.401 0.401"
									          emissiveColor="0.000 0.000 0.000"
									          ambientIntensity="0.000"
									          shininess="0.500"
									          transparency="0.0"
									          />
								</Appearance>
								<IndexedTriangleSet solid="false"
								                    normalPerVertex="true"
								                    index="0 1 2 0 2 3 4 5 6 4 6 7 8 9 10 8 10 11 12 13 14 12 14 15 "
								                    >
									<Coordinate point="1.580237 -1.811475 1.098102 1.580237 -1.811475 2.122382 0.907313 -1.811475 2.122382 0.907313 -1.811475 1.098102 -0.907313 -1.811475 1.098102 -0.907313 -1.811475 2.122382 -1.580237 -1.811475 2.122382 -1.580237 -1.811475 1.098102 0.000000 -1.811475 0.336712 0.000000 -1.811475 1.098102 -0.789915 -1.811475 1.098102 -0.789915 -1.811475 0.336712 0.789915 -1.811475 0.336712 0.789915 -1.811475 1.098102 0.000000 -1.811475 1.098102 0.000000 -1.811475 0.336712 " />
									<Normal vector="0.000000 -1.000000 0.000000 0.000000 -1.000000 0.000000 0.000000 -1.000000 0.000000 0.000000 -1.000000 0.000000 0.000000 -1.000000 0.000000 0.000000 -1.000000 0.000000 0.000000 -1.000000 0.000000 0.000000 -1.000000 0.000000 0.000000 -1.000000 0.000000 0.000000 -1.000000 0.000000 0.000000 -1.000000 0.000000 0.000000 -1.000000 0.000000 0.000000 -1.000000 0.000000 0.000000 -1.000000 0.000000 0.000000 -1.000000 0.000000 0.000000 -1.000000 0.000000 " />
									<TextureCoordinate point="0.4294 0.5136 0.4294 0.9884 0.0784 0.9884 0.0784 0.5136 0.4294 0.5136 0.4294 0.9884 0.0784 0.9884 0.0784 0.5136 0.9849 0.5387 0.9849 0.9830 0.5269 0.9830 0.5269 0.5387 0.5269 0.5387 0.5269 0.9830 0.9849 0.9830 0.9849 0.5387 " />
								</IndexedTriangleSet>
							</Shape>
						</Group>
					</Transform>
					<Transform DEF="Cube_007_TRANSFORM"
					           translation="1.633950 -0.210512 2.338007"
					           scale="1.000000 1.000000 1.000000"
					           rotation="0.000000 1.000000 0.000000 0.000000"
					           >
						<Transform DEF="Cube_007_ifs_TRANSFORM"
						           translation="0.000000 0.000000 0.000000"
						           scale="1.000000 1.000000 1.000000"
						           rotation="0.000000 1.000000 0.000000 0.000000"
						           >
							<Group DEF="group_ME_Cube_007">
								<Shape>
									<Appearance>
										<Material USE="MA_Body" />
									</Appearance>
									<IndexedTriangleSet solid="false"
									                    normalPerVertex="true"
									                    index="0 1 2 0 2 3 4 5 6 4 6 7 8 9 10 8 10 11 12 13 14 12 14 15 4 16 17 4 17 15 18 5 14 18 14 19 "
									                    >
										<Coordinate point="-0.258826 -0.279910 0.369748 0.518831 -0.279910 0.914112 0.518831 0.279910 0.914112 -0.258826 0.279910 0.369748 -0.258826 0.279910 0.369748 0.518831 0.279910 0.914112 1.036482 0.279910 0.174617 0.258826 0.279910 -0.369748 0.258826 0.279910 -0.369748 1.036482 0.279910 0.174617 1.036482 -0.279910 0.174617 0.258826 -0.279910 -0.369748 0.258826 -0.279910 -0.369748 1.036482 -0.279910 0.174617 0.518831 -0.279910 0.914112 -0.258826 -0.279910 0.369748 0.258826 0.279910 -0.369748 0.258826 -0.279910 -0.369748 1.036482 0.279910 0.174617 1.036482 -0.279910 0.174617 " />
										<Normal vector="-0.804071 -0.577349 0.141881 0.141881 -0.577349 0.804071 0.141881 0.577349 0.804071 -0.804071 0.577349 0.141881 -0.804071 0.577349 0.141881 0.141881 0.577349 0.804071 0.804071 0.577349 -0.141881 -0.141881 0.577349 -0.804071 -0.141881 0.577349 -0.804071 0.804071 0.577349 -0.141881 0.804071 -0.577349 -0.141881 -0.141881 -0.577349 -0.804071 -0.141881 -0.577349 -0.804071 0.804071 -0.577349 -0.141881 0.141881 -0.577349 0.804071 -0.804071 -0.577349 0.141881 -0.141881 0.577349 -0.804071 -0.141881 -0.577349 -0.804071 0.804071 0.577349 -0.141881 0.804071 -0.577349 -0.141881 " />
										<TextureCoordinate point="0.3231 0.0459 0.5350 0.0459 0.5350 0.4423 0.3231 0.4423 0.3231 0.0459 0.5350 0.0459 0.5350 0.4423 0.3231 0.4423 0.3231 0.0459 0.5350 0.0459 0.5350 0.4423 0.3231 0.4423 0.3231 0.0459 0.5350 0.0459 0.5350 0.4423 0.3231 0.4423 0.5350 0.0459 0.5350 0.4423 0.3231 0.0459 0.3231 0.4423 " />
									</IndexedTriangleSet>
								</Shape>
							</Group>
						</Transform>
					</Transform>
					<Transform DEF="Cube_008_TRANSFORM"
					           translation="0.000000 -1.687085 1.580812"
					           scale="1.000000 1.000000 1.000000"
					           rotation="0.000000 1.000000 0.000000 0.000000"
					           >
						<Transform DEF="Cube_008_ifs_TRANSFORM"
						           translation="0.000000 0.000000 0.000000"
						           scale="1.000000 1.000000 1.000000"
						           rotation="0.000000 1.000000 0.000000 0.000000"
						           >
							<Group DEF="group_ME_Cube_008">
								<Shape>
									<Appearance>
										<Material USE="MA_Body" />
									</Appearance>
									<IndexedTriangleSet solid="false"
									                    normalPerVertex="true"
									                    index="0 1 2 0 2 3 4 5 6 4 6 7 8 9 10 8 10 11 12 13 14 12 14 15 4 16 17 4 17 15 18 5 14 18 14 19 "
									                    >
										<Coordinate point="-0.556480 0.000000 -0.395192 -0.556480 -0.482333 -0.395192 -0.556480 -0.482334 0.395191 -0.556480 -0.000000 0.395192 -0.556480 -0.000000 0.395192 -0.556480 -0.482334 0.395191 0.556480 -0.482334 0.395191 0.556480 -0.000000 0.395192 0.556480 -0.000000 0.395192 0.556480 -0.482334 0.395191 0.556480 -0.482333 -0.395192 0.556480 0.000000 -0.395192 0.556480 0.000000 -0.395192 0.556480 -0.482333 -0.395192 -0.556480 -0.482333 -0.395192 -0.556480 0.000000 -0.395192 0.556480 -0.000000 0.395192 0.556480 0.000000 -0.395192 0.556480 -0.482334 0.395191 0.556480 -0.482333 -0.395192 " />
										<Normal vector="-0.577349 0.577349 -0.577349 -0.577349 -0.577349 -0.577349 -0.577349 -0.577349 0.577349 -0.577349 0.577349 0.577349 -0.577349 0.577349 0.577349 -0.577349 -0.577349 0.577349 0.577349 -0.577349 0.577349 0.577349 0.577349 0.577349 0.577349 0.577349 0.577349 0.577349 -0.577349 0.577349 0.577349 -0.577349 -0.577349 0.577349 0.577349 -0.577349 0.577349 0.577349 -0.577349 0.577349 -0.577349 -0.577349 -0.577349 -0.577349 -0.577349 -0.577349 0.577349 -0.577349 0.577349 0.577349 0.577349 0.577349 0.577349 -0.577349 0.577349 -0.577349 0.577349 0.577349 -0.577349 -0.577349 " />
										<TextureCoordinate point="0.3153 0.5317 0.5272 0.5317 0.5272 0.7097 0.3153 0.7097 0.3153 0.5317 0.5272 0.5317 0.5272 0.7097 0.3153 0.7097 0.3153 0.5317 0.5272 0.5317 0.5272 0.7097 0.3153 0.7097 0.3153 0.5317 0.5272 0.5317 0.5272 0.7097 0.3153 0.7097 0.5272 0.5317 0.5272 0.7097 0.3153 0.5317 0.3153 0.7097 " />
									</IndexedTriangleSet>
								</Shape>
							</Group>
						</Transform>
					</Transform>
					<Transform DEF="Cube_009_TRANSFORM"
					           translation="-1.633950 -0.210512 2.338007"
					           scale="1.000000 1.000000 1.000000"
					           rotation="0.000000 1.000000 0.000000 0.000000"
					           >
						<Transform DEF="Cube_009_ifs_TRANSFORM"
						           translation="0.000000 0.000000 0.000000"
						           scale="1.000000 1.000000 1.000000"
						           rotation="0.000000 1.000000 0.000000 0.000000"
						           >
							<Group DEF="group_ME_Cube_009">
								<Shape>
									<Appearance>
										<Material USE="MA_Body" />
									</Appearance>
									<IndexedTriangleSet solid="false"
									                    normalPerVertex="true"
									                    index="0 1 2 0 2 3 4 5 6 4 6 7 8 9 10 8 10 11 12 13 14 12 14 15 4 13 16 4 16 17 18 19 14 18 14 7 "
									                    >
										<Coordinate point="0.258826 -0.279910 0.369748 0.258826 0.279910 0.369748 -0.518831 0.279910 0.914112 -0.518831 -0.279910 0.914112 0.258826 0.279910 0.369748 -0.258826 0.279910 -0.369748 -1.036482 0.279910 0.174617 -0.518831 0.279910 0.914112 -0.258826 0.279910 -0.369748 -0.258826 -0.279910 -0.369748 -1.036482 -0.279910 0.174617 -1.036482 0.279910 0.174617 -0.258826 -0.279910 -0.369748 0.258826 -0.279910 0.369748 -0.518831 -0.279910 0.914112 -1.036482 -0.279910 0.174617 -0.258826 -0.279910 -0.369748 -0.258826 0.279910 -0.369748 -1.036482 0.279910 0.174617 -1.036482 -0.279910 0.174617 " />
										<Normal vector="0.804071 -0.577349 0.141881 0.804071 0.577349 0.141881 -0.141881 0.577349 0.804071 -0.141881 -0.577349 0.804071 0.804071 0.577349 0.141881 0.141881 0.577349 -0.804071 -0.804071 0.577349 -0.141881 -0.141881 0.577349 0.804071 0.141881 0.577349 -0.804071 0.141881 -0.577349 -0.804071 -0.804071 -0.577349 -0.141881 -0.804071 0.577349 -0.141881 0.141881 -0.577349 -0.804071 0.804071 -0.577349 0.141881 -0.141881 -0.577349 0.804071 -0.804071 -0.577349 -0.141881 0.141881 -0.577349 -0.804071 0.141881 0.577349 -0.804071 -0.804071 0.577349 -0.141881 -0.804071 -0.577349 -0.141881 " />
										<TextureCoordinate point="0.3231 0.0459 0.3231 0.4423 0.5350 0.4423 0.5350 0.0459 0.3231 0.0459 0.3231 0.4423 0.5350 0.4423 0.5350 0.0459 0.3231 0.0459 0.3231 0.4423 0.5350 0.4423 0.5350 0.0459 0.3231 0.0459 0.3231 0.4423 0.5350 0.4423 0.5350 0.0459 0.5350 0.4423 0.5350 0.0459 0.3231 0.0459 0.3231 0.4423 " />
									</IndexedTriangleSet>
								</Shape>
							</Group>
						</Transform>
					</Transform>
				</Transform>
				<Transform DEF="Cube_002_TRANSFORM"
				           translation="-0.659995 -0.575923 0.037690"
				           scale="1.000000 1.000000 1.000000"
				           rotation="0.000000 1.000000 0.000000 0.000000"
				           >
					<Transform DEF="Cube_002_ifs_TRANSFORM"
					           translation="0.000000 0.000000 0.000000"
					           scale="1.000000 1.000000 1.000000"
					           rotation="0.000000 1.000000 0.000000 0.000000"
					           >
						<Group DEF="group_ME_Cube_002">
							<Shape>
								<Appearance>
									<Material USE="MA_Body" />
								</Appearance>
								<IndexedTriangleSet solid="false"
								                    normalPerVertex="true"
								                    index="0 1 2 0 2 3 4 5 6 4 6 7 8 9 10 8 10 11 12 13 14 12 14 15 4 13 16 4 16 17 18 19 14 18 14 7 "
								                    >
									<Coordinate point="0.334136 -0.361773 -0.214584 0.382597 -0.312362 0.211240 -0.299712 -1.038589 0.373159 -0.348174 -1.088000 -0.052665 0.382597 -0.312362 0.211240 -0.334136 0.361773 0.214584 -1.016445 -0.364454 0.376504 -0.299712 -1.038589 0.373159 -0.334136 0.361773 0.214584 -0.382597 0.312362 -0.211240 -1.064907 -0.413865 -0.049320 -1.016445 -0.364454 0.376504 -0.382597 0.312362 -0.211240 0.334136 -0.361773 -0.214584 -0.348174 -1.088000 -0.052665 -1.064907 -0.413865 -0.049320 -0.382597 0.312362 -0.211240 -0.334136 0.361773 0.214584 -1.016445 -0.364454 0.376504 -1.064907 -0.413865 -0.049320 " />
									<Normal vector="0.745903 -0.046327 -0.664418 0.875607 0.085879 0.475295 0.095187 -0.744743 0.660482 -0.034486 -0.876980 -0.479232 0.875607 0.085879 0.475295 0.034486 0.876980 0.479232 -0.745903 0.046327 0.664418 0.095187 -0.744743 0.660482 0.034486 0.876980 0.479232 -0.095187 0.744743 -0.660482 -0.875607 -0.085879 -0.475295 -0.745903 0.046327 0.664418 -0.095187 0.744743 -0.660482 0.745903 -0.046327 -0.664418 -0.034486 -0.876980 -0.479232 -0.875607 -0.085879 -0.475295 -0.095187 0.744743 -0.660482 0.034486 0.876980 0.479232 -0.745903 0.046327 0.664418 -0.875607 -0.085879 -0.475295 " />
									<TextureCoordinate point="0.0348 0.5543 0.0348 0.9508 0.2467 0.9508 0.2467 0.5543 0.0348 0.5543 0.0348 0.9508 0.2467 0.9508 0.2467 0.5543 0.0348 0.5543 0.0348 0.9508 0.2467 0.9508 0.2467 0.5543 0.0348 0.5543 0.0348 0.9508 0.2467 0.9508 0.2467 0.5543 0.2467 0.9508 0.2467 0.5543 0.0348 0.5543 0.0348 0.9508 " />
								</IndexedTriangleSet>
							</Shape>
						</Group>
					</Transform>
				</Transform>
				<Transform DEF="Cube_006_TRANSFORM"
				           translation="-0.914555 0.319216 0.129362"
				           scale="1.000000 1.000000 1.000000"
				           rotation="0.000000 1.000000 0.000000 0.000000"
				           >
					<Transform DEF="Cube_006_ifs_TRANSFORM"
					           translation="0.000000 0.000000 0.000000"
					           scale="1.000000 1.000000 1.000000"
					           rotation="0.000000 1.000000 0.000000 0.000000"
					           >
						<Group DEF="group_ME_Cube_006">
							<Shape>
								<Appearance>
									<Material USE="MA_Body" />
								</Appearance>
								<IndexedTriangleSet solid="false"
								                    normalPerVertex="true"
								                    index="0 1 2 0 2 3 4 5 6 4 6 7 8 9 10 8 10 11 12 13 14 12 14 15 4 13 16 4 16 17 18 19 14 18 14 7 "
								                    >
									<Coordinate point="-0.303427 -0.386673 -0.216769 -0.278180 -0.406988 0.213424 -1.090335 0.187853 0.289179 -1.115582 0.208168 -0.141014 -0.278180 -0.406988 0.213424 0.303427 0.386673 0.216769 -0.508728 0.981514 0.292523 -1.090335 0.187853 0.289179 0.303427 0.386673 0.216769 0.278180 0.406988 -0.213424 -0.533975 1.001829 -0.137670 -0.508728 0.981514 0.292523 0.278180 0.406988 -0.213424 -0.303427 -0.386673 -0.216769 -1.115582 0.208168 -0.141014 -0.533975 1.001829 -0.137670 0.278180 0.406988 -0.213424 0.303427 0.386673 0.216769 -0.508728 0.981514 0.292523 -0.533975 1.001829 -0.137670 " />
									<Normal vector="0.089389 -0.778680 -0.620991 0.156987 -0.833033 0.530412 -0.771935 -0.152684 0.617054 -0.839503 -0.098300 -0.534349 0.156987 -0.833033 0.530412 0.839503 0.098300 0.534349 -0.089389 0.778680 0.620991 -0.771935 -0.152684 0.617054 0.839503 0.098300 0.534349 0.771935 0.152684 -0.617054 -0.156987 0.833033 -0.530412 -0.089389 0.778680 0.620991 0.771935 0.152684 -0.617054 0.089389 -0.778680 -0.620991 -0.839503 -0.098300 -0.534349 -0.156987 0.833033 -0.530412 0.771935 0.152684 -0.617054 0.839503 0.098300 0.534349 -0.089389 0.778680 0.620991 -0.156987 0.833033 -0.530412 " />
									<TextureCoordinate point="0.0348 0.5543 0.0348 0.9508 0.2467 0.9508 0.2467 0.5543 0.0348 0.5543 0.0348 0.9508 0.2467 0.9508 0.2467 0.5543 0.0348 0.5543 0.0348 0.9508 0.2467 0.9508 0.2467 0.5543 0.0348 0.5543 0.0348 0.9508 0.2467 0.9508 0.2467 0.5543 0.2467 0.9508 0.2467 0.5543 0.0348 0.5543 0.0348 0.9508 " />
								</IndexedTriangleSet>
							</Shape>
						</Group>
					</Transform>
				</Transform>
			</Transform>
			<Transform DEF="tail_TRANSFORM"
			           translation="0.000000 1.364723 0.541815"
			           scale="1.000000 1.000000 1.000000"
			           rotation="0.000000 1.000000 0.000000 0.000000"
			           >
				<Transform DEF="tail_ifs_TRANSFORM"
				           translation="0.000000 0.000000 0.000000"
				           scale="1.000000 1.000000 1.000000"
				           rotation="0.000000 1.000000 0.000000 0.000000"
				           >
					<Group DEF="group_ME_tail">
						<Shape>
							<Appearance>
								<Material USE="MA_Body" />
							</Appearance>
							<IndexedTriangleSet solid="false"
							                    normalPerVertex="true"
							                    index="0 1 2 0 2 3 4 5 6 4 6 7 8 9 10 8 10 11 12 13 14 12 14 15 4 16 17 4 17 15 18 5 14 18 14 19 "
							                    >
								<Coordinate point="-0.354454 0.000000 -0.162697 -0.354454 0.000000 0.162697 -0.354454 0.716582 0.162697 -0.354454 0.716582 -0.162697 -0.354454 0.716582 -0.162697 -0.354454 0.716582 0.162697 0.354454 0.716582 0.162697 0.354454 0.716582 -0.162697 0.354454 0.716582 -0.162697 0.354454 0.716582 0.162697 0.354454 0.000000 0.162697 0.354454 0.000000 -0.162697 0.354454 0.000000 -0.162697 0.354454 0.000000 0.162697 -0.354454 0.000000 0.162697 -0.354454 0.000000 -0.162697 0.354454 0.716582 -0.162697 0.354454 0.000000 -0.162697 0.354454 0.716582 0.162697 0.354454 0.000000 0.162697 " />
								<Normal vector="-0.577349 -0.577349 -0.577349 -0.577349 -0.577349 0.577349 -0.577349 0.577349 0.577349 -0.577349 0.577349 -0.577349 -0.577349 0.577349 -0.577349 -0.577349 0.577349 0.577349 0.577349 0.577349 0.577349 0.577349 0.577349 -0.577349 0.577349 0.577349 -0.577349 0.577349 0.577349 0.577349 0.577349 -0.577349 0.577349 0.577349 -0.577349 -0.577349 0.577349 -0.577349 -0.577349 0.577349 -0.577349 0.577349 -0.577349 -0.577349 0.577349 -0.577349 -0.577349 -0.577349 0.577349 0.577349 -0.577349 0.577349 -0.577349 -0.577349 0.577349 0.577349 0.577349 0.577349 -0.577349 0.577349 " />
								<TextureCoordinate point="0.3231 0.0459 0.5350 0.0459 0.5350 0.4423 0.3231 0.4423 0.3231 0.0459 0.5350 0.0459 0.5350 0.4423 0.3231 0.4423 0.3231 0.0459 0.5350 0.0459 0.5350 0.4423 0.3231 0.4423 0.3231 0.0459 0.5350 0.0459 0.5350 0.4423 0.3231 0.4423 0.5350 0.0459 0.5350 0.4423 0.3231 0.0459 0.3231 0.4423 " />
							</IndexedTriangleSet>
						</Shape>
					</Group>
				</Transform>
				<Transform DEF="tail1_TRANSFORM"
				           translation="0.000000 0.557933 0.000000"
				           scale="1.000000 1.000000 1.000000"
				           rotation="0.000000 1.000000 0.000000 0.000000"
				           >
					<Transform DEF="tail1_ifs_TRANSFORM"
					           translation="0.000000 0.000000 0.000000"
					           scale="1.000000 1.000000 1.000000"
					           rotation="0.000000 1.000000 0.000000 0.000000"
					           >
						<Group DEF="group_ME_tail1">
							<Shape>
								<Appearance>
									<Material USE="MA_Body" />
								</Appearance>
								<IndexedTriangleSet solid="false"
								                    normalPerVertex="true"
								                    index="0 1 2 0 2 3 4 5 6 4 6 7 8 9 10 8 10 11 12 13 14 12 14 15 4 16 17 4 17 15 18 5 14 18 14 19 "
								                    >
									<Coordinate point="-0.554943 0.000000 -0.214527 -0.554943 0.000000 0.214527 -0.554943 1.029009 0.214527 -0.554943 1.029009 -0.214527 -0.554943 1.029009 -0.214527 -0.554943 1.029009 0.214527 0.554943 1.029009 0.214527 0.554943 1.029009 -0.214527 0.554943 1.029009 -0.214527 0.554943 1.029009 0.214527 0.554943 0.000000 0.214527 0.554943 0.000000 -0.214527 0.554943 0.000000 -0.214527 0.554943 0.000000 0.214527 -0.554943 0.000000 0.214527 -0.554943 0.000000 -0.214527 0.554943 1.029009 -0.214527 0.554943 0.000000 -0.214527 0.554943 1.029009 0.214527 0.554943 0.000000 0.214527 " />
									<Normal vector="-0.577349 -0.577349 -0.577349 -0.577349 -0.577349 0.577349 -0.577349 0.577349 0.577349 -0.577349 0.577349 -0.577349 -0.577349 0.577349 -0.577349 -0.577349 0.577349 0.577349 0.577349 0.577349 0.577349 0.577349 0.577349 -0.577349 0.577349 0.577349 -0.577349 0.577349 0.577349 0.577349 0.577349 -0.577349 0.577349 0.577349 -0.577349 -0.577349 0.577349 -0.577349 -0.577349 0.577349 -0.577349 0.577349 -0.577349 -0.577349 0.577349 -0.577349 -0.577349 -0.577349 0.577349 0.577349 -0.577349 0.577349 -0.577349 -0.577349 0.577349 0.577349 0.577349 0.577349 -0.577349 0.577349 " />
									<TextureCoordinate point="0.3231 0.0459 0.5350 0.0459 0.5350 0.4423 0.3231 0.4423 0.3231 0.0459 0.5350 0.0459 0.5350 0.4423 0.3231 0.4423 0.3231 0.0459 0.5350 0.0459 0.5350 0.4423 0.3231 0.4423 0.3231 0.0459 0.5350 0.0459 0.5350 0.4423 0.3231 0.4423 0.5350 0.0459 0.5350 0.4423 0.3231 0.0459 0.3231 0.4423 " />
								</IndexedTriangleSet>
							</Shape>
						</Group>
					</Transform>
					<Transform DEF="tail2_TRANSFORM"
					           translation="0.000000 0.876752 0.000000"
					           scale="1.000000 1.000000 1.000000"
					           rotation="0.000000 1.000000 0.000000 0.000000"
					           >
						<Transform DEF="tail2_ifs_TRANSFORM"
						           translation="0.000000 0.000000 0.000000"
						           scale="1.000000 1.000000 1.000000"
						           rotation="0.000000 1.000000 0.000000 0.000000"
						           >
							<Group DEF="group_ME_tail2">
								<Shape>
									<Appearance>
										<Material USE="MA_Body" />
									</Appearance>
									<IndexedTriangleSet solid="false"
									                    normalPerVertex="true"
									                    index="0 1 2 0 2 3 4 5 6 4 6 7 8 9 10 8 10 11 12 13 14 12 14 15 4 16 17 4 17 15 18 5 14 18 14 19 "
									                    >
										<Coordinate point="-0.736322 0.000000 -0.282289 -0.736322 0.000000 0.282289 -0.736322 1.354041 0.282289 -0.736322 1.354041 -0.282289 -0.736322 1.354041 -0.282289 -0.736322 1.354041 0.282289 0.736322 1.354041 0.282289 0.736322 1.354041 -0.282289 0.736322 1.354041 -0.282289 0.736322 1.354041 0.282289 0.736322 0.000000 0.282289 0.736322 0.000000 -0.282289 0.736322 0.000000 -0.282289 0.736322 0.000000 0.282289 -0.736322 0.000000 0.282289 -0.736322 0.000000 -0.282289 0.736322 1.354041 -0.282289 0.736322 0.000000 -0.282289 0.736322 1.354041 0.282289 0.736322 0.000000 0.282289 " />
										<Normal vector="-0.577349 -0.577349 -0.577349 -0.577349 -0.577349 0.577349 -0.577349 0.577349 0.577349 -0.577349 0.577349 -0.577349 -0.577349 0.577349 -0.577349 -0.577349 0.577349 0.577349 0.577349 0.577349 0.577349 0.577349 0.577349 -0.577349 0.577349 0.577349 -0.577349 0.577349 0.577349 0.577349 0.577349 -0.577349 0.577349 0.577349 -0.577349 -0.577349 0.577349 -0.577349 -0.577349 0.577349 -0.577349 0.577349 -0.577349 -0.577349 0.577349 -0.577349 -0.577349 -0.577349 0.577349 0.577349 -0.577349 0.577349 -0.577349 -0.577349 0.577349 0.577349 0.577349 0.577349 -0.577349 0.577349 " />
										<TextureCoordinate point="0.3231 0.0459 0.5350 0.0459 0.5350 0.4423 0.3231 0.4423 0.3231 0.0459 0.5350 0.0459 0.5350 0.4423 0.3231 0.4423 0.3231 0.0459 0.5350 0.0459 0.5350 0.4423 0.3231 0.4423 0.3231 0.0459 0.5350 0.0459 0.5350 0.4423 0.3231 0.4423 0.5350 0.0459 0.5350 0.4423 0.3231 0.0459 0.3231 0.4423 " />
									</IndexedTriangleSet>
								</Shape>
							</Group>
						</Transform>
					</Transform>
				</Transform>
			</Transform>
			<Transform DEF="foot1_TRANSFORM"
			           translation="0.711101 -0.141031 0.033620"
			           scale="1.000000 1.000000 1.000000"
			           rotation="0.000000 1.000000 0.000000 0.000000"
			           >
				<Transform DEF="foot1_ifs_TRANSFORM"
				           translation="0.000000 0.000000 0.000000"
				           scale="1.000000 1.000000 1.000000"
				           rotation="0.000000 1.000000 0.000000 0.000000"
				           >
					<Group DEF="group_ME_foot1">
						<Shape>
							<Appearance>
								<Material USE="MA_Body" />
							</Appearance>
							<IndexedTriangleSet solid="false"
							                    normalPerVertex="true"
							                    index="0 1 2 0 2 3 4 5 6 4 6 7 8 9 10 8 10 11 12 13 14 12 14 15 4 16 17 4 17 15 18 5 14 18 14 19 "
							                    >
								<Coordinate point="-0.432391 -0.514799 -0.405300 -0.432391 -0.514799 0.000000 -0.432391 0.514799 0.000000 -0.432391 0.514799 -0.405300 -0.432391 0.514799 -0.405300 -0.432391 0.514799 0.000000 0.432391 0.514799 0.000000 0.432391 0.514799 -0.405300 0.432391 0.514799 -0.405300 0.432391 0.514799 0.000000 0.432391 -0.514799 0.000000 0.432391 -0.514799 -0.405300 0.432391 -0.514799 -0.405300 0.432391 -0.514799 0.000000 -0.432391 -0.514799 0.000000 -0.432391 -0.514799 -0.405300 0.432391 0.514799 -0.405300 0.432391 -0.514799 -0.405300 0.432391 0.514799 0.000000 0.432391 -0.514799 0.000000 " />
								<Normal vector="-0.577349 -0.577349 -0.577349 -0.577349 -0.577349 0.577349 -0.577349 0.577349 0.577349 -0.577349 0.577349 -0.577349 -0.577349 0.577349 -0.577349 -0.577349 0.577349 0.577349 0.577349 0.577349 0.577349 0.577349 0.577349 -0.577349 0.577349 0.577349 -0.577349 0.577349 0.577349 0.577349 0.577349 -0.577349 0.577349 0.577349 -0.577349 -0.577349 0.577349 -0.577349 -0.577349 0.577349 -0.577349 0.577349 -0.577349 -0.577349 0.577349 -0.577349 -0.577349 -0.577349 0.577349 0.577349 -0.577349 0.577349 -0.577349 -0.577349 0.577349 0.577349 0.577349 0.577349 -0.577349 0.577349 " />
								<TextureCoordinate point="0.3231 0.0459 0.5350 0.0459 0.5350 0.4423 0.3231 0.4423 0.3231 0.0459 0.5350 0.0459 0.5350 0.4423 0.3231 0.4423 0.3231 0.0459 0.5350 0.0459 0.5350 0.4423 0.3231 0.4423 0.3231 0.0459 0.5350 0.0459 0.5350 0.4423 0.3231 0.4423 0.5350 0.0459 0.5350 0.4423 0.3231 0.0459 0.3231 0.4423 " />
							</IndexedTriangleSet>
						</Shape>
					</Group>
				</Transform>
				<Transform DEF="Cube_012_TRANSFORM"
				           translation="0.000000 -0.371566 -0.249846"
				           scale="1.000000 1.000000 1.000000"
				           rotation="0.000000 1.000000 0.000000 0.000000"
				           >
					<Transform DEF="Cube_012_ifs_TRANSFORM"
					           translation="0.000000 0.000000 0.000000"
					           scale="1.000000 1.000000 1.000000"
					           rotation="0.000000 1.000000 0.000000 0.000000"
					           >
						<Group DEF="group_ME_Cube_013">
							<Shape>
								<Appearance>
									<Material USE="MA_Body" />
								</Appearance>
								<IndexedTriangleSet solid="false"
								                    normalPerVertex="true"
								                    index="0 1 2 0 2 3 4 5 6 4 6 7 8 9 10 8 10 11 12 13 14 12 14 15 4 16 17 4 17 15 18 5 14 18 14 19 "
								                    >
									<Coordinate point="-0.479201 -0.605798 0.132531 -0.479201 -0.002235 0.142030 -0.479201 0.002235 -0.142030 -0.479201 -0.601327 -0.151528 -0.479201 -0.601327 -0.151528 -0.479201 0.002235 -0.142030 0.479201 0.002235 -0.142030 0.479201 -0.601327 -0.151528 0.479201 -0.601327 -0.151528 0.479201 0.002235 -0.142030 0.479201 -0.002235 0.142030 0.479201 -0.605798 0.132531 0.479201 -0.605798 0.132531 0.479201 -0.002235 0.142030 -0.479201 -0.002235 0.142030 -0.479201 -0.605798 0.132531 0.479201 -0.601327 -0.151528 0.479201 -0.605798 0.132531 0.479201 0.002235 -0.142030 0.479201 -0.002235 0.142030 " />
									<Normal vector="-0.577349 -0.586352 0.568194 -0.577349 0.568194 0.586352 -0.577349 0.586352 -0.568194 -0.577349 -0.568194 -0.586352 -0.577349 -0.568194 -0.586352 -0.577349 0.586352 -0.568194 0.577349 0.586352 -0.568194 0.577349 -0.568194 -0.586352 0.577349 -0.568194 -0.586352 0.577349 0.586352 -0.568194 0.577349 0.568194 0.586352 0.577349 -0.586352 0.568194 0.577349 -0.586352 0.568194 0.577349 0.568194 0.586352 -0.577349 0.568194 0.586352 -0.577349 -0.586352 0.568194 0.577349 -0.568194 -0.586352 0.577349 -0.586352 0.568194 0.577349 0.586352 -0.568194 0.577349 0.568194 0.586352 " />
									<TextureCoordinate point="0.3231 0.0459 0.5350 0.0459 0.5350 0.4423 0.3231 0.4423 0.3231 0.0459 0.5350 0.0459 0.5350 0.4423 0.3231 0.4423 0.3231 0.0459 0.5350 0.0459 0.5350 0.4423 0.3231 0.4423 0.3231 0.0459 0.5350 0.0459 0.5350 0.4423 0.3231 0.4423 0.5350 0.0459 0.5350 0.4423 0.3231 0.0459 0.3231 0.4423 " />
								</IndexedTriangleSet>
							</Shape>
						</Group>
					</Transform>
				</Transform>
			</Transform>
			<Transform DEF="shell_TRANSFORM"
			           translation="0.000000 -1.518821 0.827577"
			           scale="1.000000 1.000000 1.000000"
			           rotation="0.000000 1.000000 0.000000 0.000000"
			           >
				<Transform DEF="shell_ifs_TRANSFORM"
				           translation="0.000000 0.000000 0.000000"
				           scale="1.000000 1.000000 1.000000"
				           rotation="0.000000 1.000000 0.000000 0.000000"
				           >
					<Group DEF="group_ME_shell">
						<Shape>
							<Appearance>
								<Material USE="MA_Body" />
							</Appearance>
							<IndexedTriangleSet solid="false"
							                    normalPerVertex="true"
							                    index="0 1 2 0 2 3 4 5 6 4 6 7 8 9 10 8 10 11 12 13 14 12 14 15 4 16 17 4 17 15 18 5 14 18 14 19 "
							                    >
								<Coordinate point="-0.320569 -0.144548 0.000000 -0.320569 -0.144548 0.931553 -0.320569 0.144548 0.931553 -0.320569 0.144548 0.000000 -0.320569 0.144548 0.000000 -0.320569 0.144548 0.931553 0.320569 0.144548 0.931553 0.320569 0.144548 0.000000 0.320569 0.144548 0.000000 0.320569 0.144548 0.931553 0.320569 -0.144548 0.931553 0.320569 -0.144548 0.000000 0.320569 -0.144548 0.000000 0.320569 -0.144548 0.931553 -0.320569 -0.144548 0.931553 -0.320569 -0.144548 0.000000 0.320569 0.144548 0.000000 0.320569 -0.144548 0.000000 0.320569 0.144548 0.931553 0.320569 -0.144548 0.931553 " />
								<Normal vector="-0.577349 -0.577349 -0.577349 -0.577349 -0.577349 0.577349 -0.577349 0.577349 0.577349 -0.577349 0.577349 -0.577349 -0.577349 0.577349 -0.577349 -0.577349 0.577349 0.577349 0.577349 0.577349 0.577349 0.577349 0.577349 -0.577349 0.577349 0.577349 -0.577349 0.577349 0.577349 0.577349 0.577349 -0.577349 0.577349 0.577349 -0.577349 -0.577349 0.577349 -0.577349 -0.577349 0.577349 -0.577349 0.577349 -0.577349 -0.577349 0.577349 -0.577349 -0.577349 -0.577349 0.577349 0.577349 -0.577349 0.577349 -0.577349 -0.577349 0.577349 0.577349 0.577349 0.577349 -0.577349 0.577349 " />
								<TextureCoordinate point="0.3047 0.7908 0.5410 0.7908 0.5410 0.9747 0.3047 0.9747 0.3047 0.7908 0.5410 0.7908 0.5410 0.9747 0.3047 0.9747 0.3047 0.7908 0.5410 0.7908 0.5410 0.9747 0.3047 0.9747 0.3047 0.7908 0.5410 0.7908 0.5410 0.9747 0.3047 0.9747 0.5410 0.7908 0.5410 0.9747 0.3047 0.7908 0.3047 0.9747 " />
							</IndexedTriangleSet>
						</Shape>
					</Group>
				</Transform>
				<Transform DEF="Cube_013_TRANSFORM"
				           translation="0.140000 0.000000 0.275798"
				           scale="1.000000 1.000000 1.000000"
				           rotation="0.000000 1.000000 0.000000 0.000000"
				           >
					<Transform DEF="Cube_013_ifs_TRANSFORM"
					           translation="0.000000 0.000000 0.000000"
					           scale="1.000000 1.000000 1.000000"
					           rotation="0.000000 1.000000 0.000000 0.000000"
					           >
						<Group DEF="group_ME_Cube_015">
							<Shape>
								<Appearance>
									<Material USE="MA_Body" />
								</Appearance>
								<IndexedTriangleSet solid="false"
								                    normalPerVertex="true"
								                    index="0 1 2 0 2 3 4 5 6 4 6 7 8 9 10 8 10 11 12 13 14 12 14 15 4 16 17 4 17 15 18 5 14 18 14 19 "
								                    >
									<Coordinate point="-0.205341 -0.103974 0.252305 0.220492 -0.103974 0.598873 0.220492 0.103974 0.598873 -0.205341 0.103974 0.252305 -0.205341 0.103974 0.252305 0.220492 0.103974 0.598873 0.631173 0.103974 0.094263 0.205341 0.103974 -0.252305 0.205341 0.103974 -0.252305 0.631173 0.103974 0.094263 0.631173 -0.103974 0.094263 0.205341 -0.103974 -0.252305 0.205341 -0.103974 -0.252305 0.631173 -0.103974 0.094263 0.220492 -0.103974 0.598873 -0.205341 -0.103974 0.252305 0.205341 0.103974 -0.252305 0.205341 -0.103974 -0.252305 0.631173 0.103974 0.094263 0.631173 -0.103974 0.094263 " />
									<Normal vector="-0.812220 -0.577349 0.083346 0.083346 -0.577349 0.812220 0.083346 0.577349 0.812220 -0.812220 0.577349 0.083346 -0.812220 0.577349 0.083346 0.083346 0.577349 0.812220 0.812220 0.577349 -0.083346 -0.083346 0.577349 -0.812220 -0.083346 0.577349 -0.812220 0.812220 0.577349 -0.083346 0.812220 -0.577349 -0.083346 -0.083346 -0.577349 -0.812220 -0.083346 -0.577349 -0.812220 0.812220 -0.577349 -0.083346 0.083346 -0.577349 0.812220 -0.812220 -0.577349 0.083346 -0.083346 0.577349 -0.812220 -0.083346 -0.577349 -0.812220 0.812220 0.577349 -0.083346 0.812220 -0.577349 -0.083346 " />
									<TextureCoordinate point="0.3047 0.7908 0.5410 0.7908 0.5410 0.9747 0.3047 0.9747 0.3047 0.7908 0.5410 0.7908 0.5410 0.9747 0.3047 0.9747 0.3047 0.7908 0.5410 0.7908 0.5410 0.9747 0.3047 0.9747 0.3047 0.7908 0.5410 0.7908 0.5410 0.9747 0.3047 0.9747 0.5410 0.7908 0.5410 0.9747 0.3047 0.7908 0.3047 0.9747 " />
								</IndexedTriangleSet>
							</Shape>
						</Group>
					</Transform>
				</Transform>
				<Transform DEF="Cube_014_TRANSFORM"
				           translation="0.000000 0.005161 0.019354"
				           scale="1.000000 1.000000 1.000000"
				           rotation="0.000000 1.000000 0.000000 0.000000"
				           >
					<Transform DEF="Cube_014_ifs_TRANSFORM"
					           translation="0.000000 0.000000 0.000000"
					           scale="1.000000 1.000000 1.000000"
					           rotation="0.000000 1.000000 0.000000 0.000000"
					           >
						<Group DEF="group_ME_Cube_016">
							<Shape>
								<Appearance>
									<Material USE="MA_Body" />
								</Appearance>
								<IndexedTriangleSet solid="false"
								                    normalPerVertex="true"
								                    index="0 1 2 0 2 3 4 5 6 4 6 7 8 9 10 8 10 11 12 13 14 12 14 15 4 16 17 4 17 15 18 5 14 18 14 19 "
								                    >
									<Coordinate point="0.209210 -0.057693 -0.000000 0.209210 -0.057693 -0.207359 0.209210 0.057693 -0.207359 0.209210 0.057693 -0.000000 0.209210 0.057693 -0.000000 0.209210 0.057693 -0.207359 -0.209210 0.057693 -0.207359 -0.209210 0.057693 0.000000 -0.209210 0.057693 0.000000 -0.209210 0.057693 -0.207359 -0.209210 -0.057693 -0.207359 -0.209210 -0.057693 0.000000 -0.209210 -0.057693 0.000000 -0.209210 -0.057693 -0.207359 0.209210 -0.057693 -0.207359 0.209210 -0.057693 -0.000000 -0.209210 0.057693 0.000000 -0.209210 -0.057693 0.000000 -0.209210 0.057693 -0.207359 -0.209210 -0.057693 -0.207359 " />
									<Normal vector="0.577349 -0.577349 0.577349 0.577349 -0.577349 -0.577349 0.577349 0.577349 -0.577349 0.577349 0.577349 0.577349 0.577349 0.577349 0.577349 0.577349 0.577349 -0.577349 -0.577349 0.577349 -0.577349 -0.577349 0.577349 0.577349 -0.577349 0.577349 0.577349 -0.577349 0.577349 -0.577349 -0.577349 -0.577349 -0.577349 -0.577349 -0.577349 0.577349 -0.577349 -0.577349 0.577349 -0.577349 -0.577349 -0.577349 0.577349 -0.577349 -0.577349 0.577349 -0.577349 0.577349 -0.577349 0.577349 0.577349 -0.577349 -0.577349 0.577349 -0.577349 0.577349 -0.577349 -0.577349 -0.577349 -0.577349 " />
									<TextureCoordinate point="0.3047 0.7908 0.5410 0.7908 0.5410 0.9747 0.3047 0.9747 0.3047 0.7908 0.5410 0.7908 0.5410 0.9747 0.3047 0.9747 0.3047 0.7908 0.5410 0.7908 0.5410 0.9747 0.3047 0.9747 0.3047 0.7908 0.5410 0.7908 0.5410 0.9747 0.3047 0.9747 0.5410 0.7908 0.5410 0.9747 0.3047 0.7908 0.3047 0.9747 " />
								</IndexedTriangleSet>
							</Shape>
						</Group>
					</Transform>
				</Transform>
				<Transform DEF="Cube_016_TRANSFORM"
				           translation="-0.140000 0.000000 0.275798"
				           scale="1.000000 1.000000 1.000000"
				           rotation="0.000000 1.000000 0.000000 0.000000"
				           >
					<Transform DEF="Cube_016_ifs_TRANSFORM"
					           translation="0.000000 0.000000 0.000000"
					           scale="1.000000 1.000000 1.000000"
					           rotation="0.000000 1.000000 0.000000 0.000000"
					           >
						<Group DEF="group_ME_Cube_014">
							<Shape>
								<Appearance>
									<Material USE="MA_Body" />
								</Appearance>
								<IndexedTriangleSet solid="false"
								                    normalPerVertex="true"
								                    index="0 1 2 0 2 3 4 5 6 4 6 7 8 9 10 8 10 11 12 13 14 12 14 15 4 13 16 4 16 17 18 19 14 18 14 7 "
								                    >
									<Coordinate point="0.205341 -0.103974 0.252305 0.205341 0.103974 0.252305 -0.220492 0.103974 0.598873 -0.220492 -0.103974 0.598873 0.205341 0.103974 0.252305 -0.205341 0.103974 -0.252305 -0.631173 0.103974 0.094263 -0.220492 0.103974 0.598873 -0.205341 0.103974 -0.252305 -0.205341 -0.103974 -0.252305 -0.631173 -0.103974 0.094263 -0.631173 0.103974 0.094263 -0.205341 -0.103974 -0.252305 0.205341 -0.103974 0.252305 -0.220492 -0.103974 0.598873 -0.631173 -0.103974 0.094263 -0.205341 -0.103974 -0.252305 -0.205341 0.103974 -0.252305 -0.631173 0.103974 0.094263 -0.631173 -0.103974 0.094263 " />
									<Normal vector="0.812220 -0.577349 0.083346 0.812220 0.577349 0.083346 -0.083346 0.577349 0.812220 -0.083346 -0.577349 0.812220 0.812220 0.577349 0.083346 0.083346 0.577349 -0.812220 -0.812220 0.577349 -0.083346 -0.083346 0.577349 0.812220 0.083346 0.577349 -0.812220 0.083346 -0.577349 -0.812220 -0.812220 -0.577349 -0.083346 -0.812220 0.577349 -0.083346 0.083346 -0.577349 -0.812220 0.812220 -0.577349 0.083346 -0.083346 -0.577349 0.812220 -0.812220 -0.577349 -0.083346 0.083346 -0.577349 -0.812220 0.083346 0.577349 -0.812220 -0.812220 0.577349 -0.083346 -0.812220 -0.577349 -0.083346 " />
									<TextureCoordinate point="0.3047 0.7908 0.3047 0.9747 0.5410 0.9747 0.5410 0.7908 0.3047 0.7908 0.3047 0.9747 0.5410 0.9747 0.5410 0.7908 0.3047 0.7908 0.3047 0.9747 0.5410 0.9747 0.5410 0.7908 0.3047 0.7908 0.3047 0.9747 0.5410 0.9747 0.5410 0.7908 0.5410 0.9747 0.5410 0.7908 0.3047 0.7908 0.3047 0.9747 " />
								</IndexedTriangleSet>
							</Shape>
						</Group>
					</Transform>
				</Transform>
			</Transform>
			<Transform DEF="arm1_TRANSFORM"
			           translation="1.003930 0.032522 2.091677"
			           scale="1.000000 1.000000 1.000000"
			           rotation="0.000000 1.000000 0.000000 0.000000"
			           >
				<Transform DEF="arm1_ifs_TRANSFORM"
				           translation="0.000000 0.000000 0.000000"
				           scale="1.000000 1.000000 1.000000"
				           rotation="0.000000 1.000000 0.000000 0.000000"
				           >
					<Group DEF="group_ME_arm1">
						<Shape>
							<Appearance>
								<Material USE="MA_Body" />
							</Appearance>
							<IndexedTriangleSet solid="false"
							                    normalPerVertex="true"
							                    index="0 1 2 0 2 3 4 5 6 4 6 7 8 9 10 8 10 11 12 13 14 12 14 15 4 16 17 4 17 15 18 5 14 18 14 19 "
							                    >
								<Coordinate point="0.000000 -0.428747 -0.363877 0.000000 -0.428747 0.363877 0.000000 0.428747 0.363877 0.000000 0.428747 -0.363877 0.000000 0.428747 -0.363877 0.000000 0.428747 0.363877 1.359090 0.428747 0.363877 1.359090 0.428747 -0.363877 1.359090 0.428747 -0.363877 1.359090 0.428747 0.363877 1.359090 -0.428747 0.363877 1.359090 -0.428747 -0.363877 1.359090 -0.428747 -0.363877 1.359090 -0.428747 0.363877 0.000000 -0.428747 0.363877 0.000000 -0.428747 -0.363877 1.359090 0.428747 -0.363877 1.359090 -0.428747 -0.363877 1.359090 0.428747 0.363877 1.359090 -0.428747 0.363877 " />
								<Normal vector="-0.577349 -0.577349 -0.577349 -0.577349 -0.577349 0.577349 -0.577349 0.577349 0.577349 -0.577349 0.577349 -0.577349 -0.577349 0.577349 -0.577349 -0.577349 0.577349 0.577349 0.577349 0.577349 0.577349 0.577349 0.577349 -0.577349 0.577349 0.577349 -0.577349 0.577349 0.577349 0.577349 0.577349 -0.577349 0.577349 0.577349 -0.577349 -0.577349 0.577349 -0.577349 -0.577349 0.577349 -0.577349 0.577349 -0.577349 -0.577349 0.577349 -0.577349 -0.577349 -0.577349 0.577349 0.577349 -0.577349 0.577349 -0.577349 -0.577349 0.577349 0.577349 0.577349 0.577349 -0.577349 0.577349 " />
								<TextureCoordinate point="0.0348 0.0622 0.2467 0.0622 0.2467 0.4586 0.0348 0.4586 0.0348 0.0622 0.2467 0.0622 0.2467 0.4586 0.0348 0.4586 0.0348 0.0622 0.2467 0.0622 0.2467 0.4586 0.0348 0.4586 0.0348 0.0622 0.2467 0.0622 0.2467 0.4586 0.0348 0.4586 0.2467 0.0622 0.2467 0.4586 0.0348 0.0622 0.0348 0.4586 " />
							</IndexedTriangleSet>
						</Shape>
					</Group>
				</Transform>
			</Transform>
			<Transform DEF="foot2_TRANSFORM"
			           translation="-0.711101 -0.141031 0.033620"
			           scale="1.000000 1.000000 1.000000"
			           rotation="0.000000 1.000000 0.000000 0.000000"
			           >
				<Transform DEF="foot2_ifs_TRANSFORM"
				           translation="0.000000 0.000000 0.000000"
				           scale="1.000000 1.000000 1.000000"
				           rotation="0.000000 1.000000 0.000000 0.000000"
				           >
					<Group DEF="group_ME_foot2">
						<Shape>
							<Appearance>
								<Material USE="MA_Body" />
							</Appearance>
							<IndexedTriangleSet solid="false"
							                    normalPerVertex="true"
							                    index="0 1 2 0 2 3 4 5 6 4 6 7 8 9 10 8 10 11 12 13 14 12 14 15 4 13 16 4 16 17 18 19 14 18 14 7 "
							                    >
								<Coordinate point="0.432391 -0.514799 -0.405301 0.432391 0.514799 -0.405300 0.432391 0.514799 0.000000 0.432391 -0.514799 -0.000000 0.432391 0.514799 -0.405300 -0.432391 0.514799 -0.405300 -0.432391 0.514799 0.000000 0.432391 0.514799 0.000000 -0.432391 0.514799 -0.405300 -0.432391 -0.514799 -0.405301 -0.432391 -0.514799 -0.000000 -0.432391 0.514799 0.000000 -0.432391 -0.514799 -0.405301 0.432391 -0.514799 -0.405301 0.432391 -0.514799 -0.000000 -0.432391 -0.514799 -0.000000 -0.432391 -0.514799 -0.405301 -0.432391 0.514799 -0.405300 -0.432391 0.514799 0.000000 -0.432391 -0.514799 -0.000000 " />
								<Normal vector="0.577349 -0.577349 -0.577349 0.577349 0.577349 -0.577349 0.577349 0.577349 0.577349 0.577349 -0.577349 0.577349 0.577349 0.577349 -0.577349 -0.577349 0.577349 -0.577349 -0.577349 0.577349 0.577349 0.577349 0.577349 0.577349 -0.577349 0.577349 -0.577349 -0.577349 -0.577349 -0.577349 -0.577349 -0.577349 0.577349 -0.577349 0.577349 0.577349 -0.577349 -0.577349 -0.577349 0.577349 -0.577349 -0.577349 0.577349 -0.577349 0.577349 -0.577349 -0.577349 0.577349 -0.577349 -0.577349 -0.577349 -0.577349 0.577349 -0.577349 -0.577349 0.577349 0.577349 -0.577349 -0.577349 0.577349 " />
								<TextureCoordinate point="0.3231 0.0459 0.3231 0.4423 0.5350 0.4423 0.5350 0.0459 0.3231 0.0459 0.3231 0.4423 0.5350 0.4423 0.5350 0.0459 0.3231 0.0459 0.3231 0.4423 0.5350 0.4423 0.5350 0.0459 0.3231 0.0459 0.3231 0.4423 0.5350 0.4423 0.5350 0.0459 0.5350 0.4423 0.5350 0.0459 0.3231 0.0459 0.3231 0.4423 " />
							</IndexedTriangleSet>
						</Shape>
					</Group>
				</Transform>
				<Transform DEF="Cube_015_TRANSFORM"
				           translation="0.000000 -0.371566 -0.249846"
				           scale="1.000000 1.000000 1.000000"
				           rotation="0.000000 1.000000 0.000000 0.000000"
				           >
					<Transform DEF="Cube_015_ifs_TRANSFORM"
					           translation="0.000000 0.000000 0.000000"
					           scale="1.000000 1.000000 1.000000"
					           rotation="0.000000 1.000000 0.000000 0.000000"
					           >
						<Group DEF="group_ME_Cube_012">
							<Shape>
								<Appearance>
									<Material USE="MA_Body" />
								</Appearance>
								<IndexedTriangleSet solid="false"
								                    normalPerVertex="true"
								                    index="0 1 2 0 2 3 4 5 6 4 6 7 8 9 10 8 10 11 12 13 14 12 14 15 4 13 16 4 16 17 18 19 14 18 14 7 "
								                    >
									<Coordinate point="0.479201 -0.605798 0.132531 0.479201 -0.601327 -0.151528 0.479201 0.002235 -0.142030 0.479201 -0.002235 0.142030 0.479201 -0.601327 -0.151528 -0.479201 -0.601327 -0.151528 -0.479201 0.002235 -0.142030 0.479201 0.002235 -0.142030 -0.479201 -0.601327 -0.151528 -0.479201 -0.605798 0.132531 -0.479201 -0.002235 0.142030 -0.479201 0.002235 -0.142030 -0.479201 -0.605798 0.132531 0.479201 -0.605798 0.132531 0.479201 -0.002235 0.142030 -0.479201 -0.002235 0.142030 -0.479201 -0.605798 0.132531 -0.479201 -0.601327 -0.151528 -0.479201 0.002235 -0.142030 -0.479201 -0.002235 0.142030 " />
									<Normal vector="0.577349 -0.586352 0.568194 0.577349 -0.568194 -0.586352 0.577349 0.586352 -0.568194 0.577349 0.568194 0.586352 0.577349 -0.568194 -0.586352 -0.577349 -0.568194 -0.586352 -0.577349 0.586352 -0.568194 0.577349 0.586352 -0.568194 -0.577349 -0.568194 -0.586352 -0.577349 -0.586352 0.568194 -0.577349 0.568194 0.586352 -0.577349 0.586352 -0.568194 -0.577349 -0.586352 0.568194 0.577349 -0.586352 0.568194 0.577349 0.568194 0.586352 -0.577349 0.568194 0.586352 -0.577349 -0.586352 0.568194 -0.577349 -0.568194 -0.586352 -0.577349 0.586352 -0.568194 -0.577349 0.568194 0.586352 " />
									<TextureCoordinate point="0.3231 0.0459 0.3231 0.4423 0.5350 0.4423 0.5350 0.0459 0.3231 0.0459 0.3231 0.4423 0.5350 0.4423 0.5350 0.0459 0.3231 0.0459 0.3231 0.4423 0.5350 0.4423 0.5350 0.0459 0.3231 0.0459 0.3231 0.4423 0.5350 0.4423 0.5350 0.0459 0.5350 0.4423 0.5350 0.0459 0.3231 0.0459 0.3231 0.4423 " />
								</IndexedTriangleSet>
							</Shape>
						</Group>
					</Transform>
				</Transform>
			</Transform>
			<Transform DEF="arm2_TRANSFORM"
			           translation="-1.003930 0.032522 2.091677"
			           scale="1.000000 1.000000 1.000000"
			           rotation="0.000000 1.000000 0.000000 0.000000"
			           >
				<Transform DEF="arm2_ifs_TRANSFORM"
				           translation="0.000000 0.000000 0.000000"
				           scale="1.000000 1.000000 1.000000"
				           rotation="0.000000 1.000000 0.000000 0.000000"
				           >
					<Group DEF="group_ME_arm2">
						<Shape>
							<Appearance>
								<Material USE="MA_Body" />
							</Appearance>
							<IndexedTriangleSet solid="false"
							                    normalPerVertex="true"
							                    index="0 1 2 0 2 3 4 5 6 4 6 7 8 9 10 8 10 11 12 13 14 12 14 15 4 13 16 4 16 17 18 19 14 18 14 7 "
							                    >
								<Coordinate point="0.000000 -0.428747 -0.363877 0.000000 0.428747 -0.363877 0.000000 0.428747 0.363877 0.000000 -0.428747 0.363877 0.000000 0.428747 -0.363877 -1.359090 0.428747 -0.363877 -1.359090 0.428747 0.363877 0.000000 0.428747 0.363877 -1.359090 0.428747 -0.363877 -1.359090 -0.428747 -0.363877 -1.359090 -0.428747 0.363877 -1.359090 0.428747 0.363877 -1.359090 -0.428747 -0.363877 0.000000 -0.428747 -0.363877 0.000000 -0.428747 0.363877 -1.359090 -0.428747 0.363877 -1.359090 -0.428747 -0.363877 -1.359090 0.428747 -0.363877 -1.359090 0.428747 0.363877 -1.359090 -0.428747 0.363877 " />
								<Normal vector="0.577349 -0.577349 -0.577349 0.577349 0.577349 -0.577349 0.577349 0.577349 0.577349 0.577349 -0.577349 0.577349 0.577349 0.577349 -0.577349 -0.577349 0.577349 -0.577349 -0.577349 0.577349 0.577349 0.577349 0.577349 0.577349 -0.577349 0.577349 -0.577349 -0.577349 -0.577349 -0.577349 -0.577349 -0.577349 0.577349 -0.577349 0.577349 0.577349 -0.577349 -0.577349 -0.577349 0.577349 -0.577349 -0.577349 0.577349 -0.577349 0.577349 -0.577349 -0.577349 0.577349 -0.577349 -0.577349 -0.577349 -0.577349 0.577349 -0.577349 -0.577349 0.577349 0.577349 -0.577349 -0.577349 0.577349 " />
								<TextureCoordinate point="0.0348 0.0622 0.0348 0.4586 0.2467 0.4586 0.2467 0.0622 0.0348 0.0622 0.0348 0.4586 0.2467 0.4586 0.2467 0.0622 0.0348 0.0622 0.0348 0.4586 0.2467 0.4586 0.2467 0.0622 0.0348 0.0622 0.0348 0.4586 0.2467 0.4586 0.2467 0.0622 0.2467 0.4586 0.2467 0.0622 0.0348 0.0622 0.0348 0.4586 " />
							</IndexedTriangleSet>
						</Shape>
					</Group>
				</Transform>
			</Transform>
		</Transform>
	</Scene>
</X3D>