<?xml version="1.0" encoding="UTF-8"?>
<!DOCTYPE X3D PUBLIC "ISO//Web3D//DTD X3D 3.0//EN" "http://www.web3d.org/specifications/x3d-3.0.dtd">
<X3D version="3.0" profile="Immersive" xmlns:xsd="http://www.w3.org/2001/XMLSchema-instance" xsd:noNamespaceSchemaLocation="http://www.web3d.org/specifications/x3d-3.0.xsd">
	<head>
		<meta name="filename" content="paras.x3d" />
		<meta name="generator" content="Blender 2.93.18" />
	</head>
	<Scene>
		<NavigationInfo headlight="true"
		                visibilityLimit="0.0"
		                type='"EXAMINE", "ANY"'
		                avatarSize="0.25, 1.75, 0.75"
		                />
		<Background DEF="WO_World"
		            groundColor="0.051 0.051 0.051"
		            skyColor="0.051 0.051 0.051"
		            />
		<Transform DEF="body_TRANSFORM"
		           translation="0.000000 -0.395466 0.287184"
		           scale="1.000000 1.000000 1.000000"
		           rotation="0.000000 0.000000 1.000000 3.141593"
		           >
			<Transform DEF="body_ifs_TRANSFORM"
			           translation="0.000000 0.000000 0.000000"
			           scale="1.000000 1.000000 1.000000"
			           rotation="0.000000 1.000000 0.000000 0.000000"
			           >
				<Group DEF="group_ME_body">
					<Shape>
						<Appearance>
							<Material DEF="MA_Body"
							          diffuseColor="0.800 0.800 0.800"
							          specularColor="0.401 0.401 0.401"
							          emissiveColor="0.000 0.000 0.000"
							          ambientIntensity="0.000"
							          shininess="0.500"
							          transparency="0.0"
							          />
						</Appearance>
						<IndexedTriangleSet solid="false"
						                    normalPerVertex="true"
						                    index="0 1 2 0 2 3 4 5 6 4 6 7 8 9 10 8 10 11 12 13 14 12 14 15 4 16 17 4 17 15 18 5 14 18 14 19 "
						                    >
							<Coordinate point="-0.777651 -0.292473 0.013892 -0.777651 -0.236168 1.199295 -0.777651 0.348778 1.171511 -0.777651 0.292473 -0.013892 -0.777651 0.292473 -0.013892 -0.777651 0.348778 1.171511 0.777651 0.348778 1.171511 0.777651 0.292473 -0.013892 0.777651 0.292473 -0.013892 0.777651 0.348778 1.171511 0.777651 -0.236168 1.199295 0.777651 -0.292473 0.013892 0.777651 -0.292473 0.013892 0.777651 -0.236168 1.199295 -0.777651 -0.236168 1.199295 -0.777651 -0.292473 0.013892 0.777651 0.292473 -0.013892 0.777651 -0.292473 0.013892 0.777651 0.348778 1.171511 0.777651 -0.236168 1.199295 " />
							<Normal vector="-0.577349 -0.604083 -0.549303 -0.577349 -0.549303 0.604083 -0.577349 0.604083 0.549303 -0.577349 0.549303 -0.604083 -0.577349 0.549303 -0.604083 -0.577349 0.604083 0.549303 0.577349 0.604083 0.549303 0.577349 0.549303 -0.604083 0.577349 0.549303 -0.604083 0.577349 0.604083 0.549303 0.577349 -0.549303 0.604083 0.577349 -0.604083 -0.549303 0.577349 -0.604083 -0.549303 0.577349 -0.549303 0.604083 -0.577349 -0.549303 0.604083 -0.577349 -0.604083 -0.549303 0.577349 0.549303 -0.604083 0.577349 -0.604083 -0.549303 0.577349 0.604083 0.549303 0.577349 -0.549303 0.604083 " />
							<TextureCoordinate point="0.0605 0.5921 0.4079 0.5921 0.4079 0.9395 0.0605 0.9395 0.0605 0.5921 0.4079 0.5921 0.4079 0.9395 0.0605 0.9395 0.0605 0.5921 0.4079 0.5921 0.4079 0.9395 0.0605 0.9395 0.0605 0.5921 0.4079 0.5921 0.4079 0.9395 0.0605 0.9395 0.4079 0.5921 0.4079 0.9395 0.0605 0.5921 0.0605 0.9395 " />
						</IndexedTriangleSet>
					</Shape>
				</Group>
			</Transform>
			<Transform DEF="Cube_001_TRANSFORM"
			           translation="0.000000 0.471305 0.053388"
			           scale="1.000000 1.000000 1.000000"
			           rotation="0.000000 1.000000 0.000000 0.000000"
			           >
				<Transform DEF="Cube_001_ifs_TRANSFORM"
				           translation="0.000000 0.000000 0.000000"
				           scale="1.000000 1.000000 1.000000"
				           rotation="0.000000 1.000000 0.000000 0.000000"
				           >
					<Group DEF="group_ME_Cube_021">
						<Shape>
							<Appearance>
								<Material USE="MA_Body" />
							</Appearance>
							<IndexedTriangleSet solid="false"
							                    normalPerVertex="true"
							                    index="0 1 2 0 2 3 4 5 6 4 6 7 8 9 10 8 10 11 12 13 14 12 14 15 4 16 17 4 17 15 18 5 14 18 14 19 "
							                    >
								<Coordinate point="-0.666762 -0.227662 0.010814 -0.666762 -0.182645 0.958565 -0.666762 0.272679 0.936938 -0.666762 0.227662 -0.010814 -0.666762 0.227662 -0.010814 -0.666762 0.272679 0.936938 0.666762 0.272679 0.936938 0.666762 0.227662 -0.010814 0.666762 0.227662 -0.010814 0.666762 0.272679 0.936938 0.666762 -0.182645 0.958565 0.666762 -0.227662 0.010814 0.666762 -0.227662 0.010814 0.666762 -0.182645 0.958565 -0.666762 -0.182645 0.958565 -0.666762 -0.227662 0.010814 0.666762 0.227662 -0.010814 0.666762 -0.227662 0.010814 0.666762 0.272679 0.936938 0.666762 -0.182645 0.958565 " />
								<Normal vector="-0.577349 -0.604083 -0.549303 -0.577349 -0.549303 0.604083 -0.577349 0.604083 0.549303 -0.577349 0.549303 -0.604083 -0.577349 0.549303 -0.604083 -0.577349 0.604083 0.549303 0.577349 0.604083 0.549303 0.577349 0.549303 -0.604083 0.577349 0.549303 -0.604083 0.577349 0.604083 0.549303 0.577349 -0.549303 0.604083 0.577349 -0.604083 -0.549303 0.577349 -0.604083 -0.549303 0.577349 -0.549303 0.604083 -0.577349 -0.549303 0.604083 -0.577349 -0.604083 -0.549303 0.577349 0.549303 -0.604083 0.577349 -0.604083 -0.549303 0.577349 0.604083 0.549303 0.577349 -0.549303 0.604083 " />
								<TextureCoordinate point="0.0605 0.5921 0.4079 0.5921 0.4079 0.9395 0.0605 0.9395 0.0605 0.5921 0.4079 0.5921 0.4079 0.9395 0.0605 0.9395 0.0605 0.5921 0.4079 0.5921 0.4079 0.9395 0.0605 0.9395 0.0605 0.5921 0.4079 0.5921 0.4079 0.9395 0.0605 0.9395 0.4079 0.5921 0.4079 0.9395 0.0605 0.5921 0.0605 0.9395 " />
							</IndexedTriangleSet>
						</Shape>
					</Group>
				</Transform>
				<Transform DEF="Cube_002_TRANSFORM"
				           translation="0.000000 0.338905 0.058998"
				           scale="1.000000 1.000000 1.000000"
				           rotation="0.000000 1.000000 0.000000 0.000000"
				           >
					<Transform DEF="Cube_002_ifs_TRANSFORM"
					           translation="0.000000 0.000000 0.000000"
					           scale="1.000000 1.000000 1.000000"
					           rotation="0.000000 1.000000 0.000000 0.000000"
					           >
						<Group DEF="group_ME_Cube_022">
							<Shape>
								<Appearance>
									<Material USE="MA_Body" />
								</Appearance>
								<IndexedTriangleSet solid="false"
								                    normalPerVertex="true"
								                    index="0 1 2 0 2 3 4 5 6 4 6 7 8 9 10 8 10 11 12 13 14 12 14 15 4 16 17 4 17 15 18 5 14 18 14 19 "
								                    >
									<Coordinate point="-0.391748 -0.143465 -0.007788 -0.391748 -0.175562 0.583442 -0.391748 0.111369 0.599018 -0.391748 0.143465 0.007788 -0.391748 0.143465 0.007788 -0.391748 0.111369 0.599018 0.391748 0.111369 0.599018 0.391748 0.143465 0.007788 0.391748 0.143465 0.007788 0.391748 0.111369 0.599018 0.391748 -0.175562 0.583442 0.391748 -0.143465 -0.007788 0.391748 -0.143465 -0.007788 0.391748 -0.175562 0.583442 -0.391748 -0.175562 0.583442 -0.391748 -0.143465 -0.007788 0.391748 0.143465 0.007788 0.391748 -0.143465 -0.007788 0.391748 0.111369 0.599018 0.391748 -0.175562 0.583442 " />
									<Normal vector="-0.577349 -0.545183 -0.607776 -0.577349 -0.607776 0.545183 -0.577349 0.545183 0.607776 -0.577349 0.607776 -0.545183 -0.577349 0.607776 -0.545183 -0.577349 0.545183 0.607776 0.577349 0.545183 0.607776 0.577349 0.607776 -0.545183 0.577349 0.607776 -0.545183 0.577349 0.545183 0.607776 0.577349 -0.607776 0.545183 0.577349 -0.545183 -0.607776 0.577349 -0.545183 -0.607776 0.577349 -0.607776 0.545183 -0.577349 -0.607776 0.545183 -0.577349 -0.545183 -0.607776 0.577349 0.607776 -0.545183 0.577349 -0.545183 -0.607776 0.577349 0.545183 0.607776 0.577349 -0.607776 0.545183 " />
									<TextureCoordinate point="0.0605 0.5921 0.4079 0.5921 0.4079 0.9395 0.0605 0.9395 0.0605 0.5921 0.4079 0.5921 0.4079 0.9395 0.0605 0.9395 0.0605 0.5921 0.4079 0.5921 0.4079 0.9395 0.0605 0.9395 0.0605 0.5921 0.4079 0.5921 0.4079 0.9395 0.0605 0.9395 0.4079 0.5921 0.4079 0.9395 0.0605 0.5921 0.0605 0.9395 " />
								</IndexedTriangleSet>
							</Shape>
						</Group>
					</Transform>
				</Transform>
			</Transform>
			<Transform DEF="Cube_003_TRANSFORM"
			           translation="0.000000 -0.477512 0.061239"
			           scale="1.000000 1.000000 1.000000"
			           rotation="0.000000 1.000000 0.000000 0.000000"
			           >
				<Transform DEF="Cube_003_ifs_TRANSFORM"
				           translation="0.000000 0.000000 0.000000"
				           scale="1.000000 1.000000 1.000000"
				           rotation="0.000000 1.000000 0.000000 0.000000"
				           >
					<Group DEF="group_ME_Cube_023">
						<Shape>
							<Appearance>
								<Material USE="MA_Body" />
							</Appearance>
							<IndexedTriangleSet solid="false"
							                    normalPerVertex="true"
							                    index="0 1 2 0 2 3 4 5 6 4 6 7 8 9 10 8 10 11 12 13 14 12 14 15 4 16 17 4 17 15 18 5 14 18 14 19 "
							                    >
								<Coordinate point="-0.737330 -0.248649 0.007021 -0.737330 -0.217722 1.102245 -0.737330 0.279576 1.088202 -0.737330 0.248649 -0.007021 -0.737330 0.248649 -0.007021 -0.737330 0.279576 1.088202 0.737330 0.279576 1.088202 0.737330 0.248649 -0.007021 0.737330 0.248649 -0.007021 0.737330 0.279576 1.088202 0.737330 -0.217722 1.102245 0.737330 -0.248649 0.007021 0.737330 -0.248649 0.007021 0.737330 -0.217722 1.102245 -0.737330 -0.217722 1.102245 -0.737330 -0.248649 0.007021 0.737330 0.248649 -0.007021 0.737330 -0.248649 0.007021 0.737330 0.279576 1.088202 0.737330 -0.217722 1.102245 " />
								<Normal vector="-0.577349 -0.593402 -0.560808 -0.577349 -0.560808 0.593402 -0.577349 0.593402 0.560808 -0.577349 0.560808 -0.593402 -0.577349 0.560808 -0.593402 -0.577349 0.593402 0.560808 0.577349 0.593402 0.560808 0.577349 0.560808 -0.593402 0.577349 0.560808 -0.593402 0.577349 0.593402 0.560808 0.577349 -0.560808 0.593402 0.577349 -0.593402 -0.560808 0.577349 -0.593402 -0.560808 0.577349 -0.560808 0.593402 -0.577349 -0.560808 0.593402 -0.577349 -0.593402 -0.560808 0.577349 0.560808 -0.593402 0.577349 -0.593402 -0.560808 0.577349 0.593402 0.560808 0.577349 -0.560808 0.593402 " />
								<TextureCoordinate point="0.0605 0.5921 0.4079 0.5921 0.4079 0.9395 0.0605 0.9395 0.0605 0.5921 0.4079 0.5921 0.4079 0.9395 0.0605 0.9395 0.0605 0.5921 0.4079 0.5921 0.4079 0.9395 0.0605 0.9395 0.0605 0.5921 0.4079 0.5921 0.4079 0.9395 0.0605 0.9395 0.4079 0.5921 0.4079 0.9395 0.0605 0.5921 0.0605 0.9395 " />
							</IndexedTriangleSet>
						</Shape>
					</Group>
				</Transform>
			</Transform>
			<Transform DEF="head_TRANSFORM"
			           translation="0.000000 -0.630221 0.625895"
			           scale="1.000000 1.000000 1.000000"
			           rotation="0.000000 1.000000 0.000000 0.000000"
			           >
				<Transform DEF="head_ifs_TRANSFORM"
				           translation="0.000000 0.000000 0.000000"
				           scale="1.000000 1.000000 1.000000"
				           rotation="0.000000 1.000000 0.000000 0.000000"
				           >
					<Group DEF="group_ME_head">
						<Shape>
							<Appearance>
								<Material USE="MA_Body" />
							</Appearance>
							<IndexedTriangleSet solid="false"
							                    normalPerVertex="true"
							                    index="0 1 2 0 2 3 4 5 6 4 6 7 8 9 10 8 10 11 12 13 14 12 14 15 16 17 18 16 18 19 20 21 14 20 14 22 23 24 25 23 25 26 27 28 29 27 29 30 31 32 33 31 33 34 35 36 37 35 37 38 39 40 41 39 41 42 42 41 32 42 32 31 43 44 45 43 45 46 46 45 24 46 24 23 47 48 49 47 49 50 48 20 22 48 22 49 39 51 52 39 52 26 51 16 19 51 19 52 53 54 55 53 55 56 56 55 13 56 13 12 57 21 58 57 58 59 59 58 5 59 5 4 41 59 4 41 4 32 40 57 59 40 59 41 60 61 62 60 62 63 44 53 56 44 56 45 24 12 15 24 15 25 28 8 11 28 11 29 32 4 7 32 7 33 36 0 3 36 3 37 "
							                    >
								<Coordinate point="-0.662328 -0.708378 -0.141593 -0.662328 -0.760990 0.335200 -0.662328 -0.045697 0.414129 -0.662328 0.006915 -0.062664 0.169403 0.006915 -0.062664 0.169403 -0.045697 0.414129 0.662328 -0.045697 0.414129 0.662328 0.006915 -0.062664 0.662328 0.006915 -0.062664 0.662328 -0.045697 0.414129 0.662328 -0.760990 0.335200 0.662328 -0.708378 -0.141593 -0.169403 -0.708378 -0.141593 -0.169403 -0.760990 0.335200 -0.662328 -0.760990 0.335200 -0.662328 -0.708378 -0.141593 0.169403 0.045697 -0.414129 0.662328 0.045697 -0.414129 0.662328 -0.669596 -0.493059 0.169403 -0.669596 -0.493059 -0.169403 -0.045697 0.414129 -0.662328 -0.045697 0.414129 -0.169403 -0.760990 0.335200 -0.169403 -0.669596 -0.493059 -0.169403 -0.681020 -0.389526 -0.662328 -0.681020 -0.389526 -0.662328 -0.669596 -0.493059 0.662328 0.045697 -0.414129 0.662328 0.034273 -0.310597 0.662328 -0.681020 -0.389526 0.662328 -0.669596 -0.493059 0.169403 0.045697 -0.414129 0.169403 0.034273 -0.310597 0.662328 0.034273 -0.310597 0.662328 0.045697 -0.414129 -0.662328 -0.669596 -0.493059 -0.662328 -0.681020 -0.389526 -0.662328 0.034273 -0.310597 -0.662328 0.045697 -0.414129 -0.662328 0.045697 -0.414129 -0.662328 0.034273 -0.310597 -0.169403 0.034273 -0.310597 -0.169403 0.045697 -0.414129 0.662328 -0.669596 -0.493059 0.662328 -0.681020 -0.389526 0.169403 -0.681020 -0.389526 0.169403 -0.669596 -0.493059 0.662328 -0.045697 0.414129 0.169403 -0.045697 0.414129 0.169403 -0.760990 0.335200 0.662328 -0.760990 0.335200 -0.169403 0.045697 -0.414129 -0.169403 -0.669596 -0.493059 0.662328 -0.708378 -0.141593 0.662328 -0.760990 0.335200 0.169403 -0.760990 0.335200 0.169403 -0.708378 -0.141593 -0.662328 0.006915 -0.062664 -0.169403 -0.045697 0.414129 -0.169403 0.006915 -0.062664 0.169403 -0.681020 -0.389526 0.169403 -0.708378 -0.141593 -0.169403 -0.708378 -0.141593 -0.169403 -0.681020 -0.389526 " />
								<Normal vector="-0.707083 -0.702811 -0.077548 -0.577349 -0.637165 0.510514 -0.577349 0.510514 0.637165 -0.707083 0.702811 0.077548 0.000000 0.993957 0.109653 0.000000 0.625263 0.780389 0.577349 0.510514 0.637165 0.707083 0.702811 0.077548 0.707083 0.702811 0.077548 0.577349 0.510514 0.637165 0.577349 -0.637165 0.510514 0.707083 -0.702811 -0.077548 0.000000 -0.993957 -0.109653 0.000000 -0.780389 0.625263 -0.577349 -0.637165 0.510514 -0.707083 -0.702811 -0.077548 0.000000 0.780389 -0.625263 0.577349 0.637165 -0.510514 0.577349 -0.510514 -0.637165 0.000000 -0.625263 -0.780389 0.000000 0.625263 0.780389 -0.577349 0.510514 0.637165 0.000000 -0.780389 0.625263 0.000000 -0.625263 -0.780389 0.000000 -0.993957 -0.109653 -0.707083 -0.702811 -0.077548 -0.577349 -0.510514 -0.637165 0.577349 0.637165 -0.510514 0.707083 0.702811 0.077548 0.707083 -0.702811 -0.077548 0.577349 -0.510514 -0.637165 0.000000 0.780389 -0.625263 0.000000 0.993957 0.109653 0.707083 0.702811 0.077548 0.577349 0.637165 -0.510514 -0.577349 -0.510514 -0.637165 -0.707083 -0.702811 -0.077548 -0.707083 0.702811 0.077548 -0.577349 0.637165 -0.510514 -0.577349 0.637165 -0.510514 -0.707083 0.702811 0.077548 0.000000 0.993957 0.109653 0.000000 0.780389 -0.625263 0.577349 -0.510514 -0.637165 0.707083 -0.702811 -0.077548 0.000000 -0.993957 -0.109653 0.000000 -0.625263 -0.780389 0.577349 0.510514 0.637165 0.000000 0.625263 0.780389 0.000000 -0.780389 0.625263 0.577349 -0.637165 0.510514 0.000000 0.780389 -0.625263 0.000000 -0.625263 -0.780389 0.707083 -0.702811 -0.077548 0.577349 -0.637165 0.510514 0.000000 -0.780389 0.625263 0.000000 -0.993957 -0.109653 -0.707083 0.702811 0.077548 0.000000 0.625263 0.780389 0.000000 0.993957 0.109653 0.000000 -0.993957 -0.109653 0.000000 -0.993957 -0.109653 0.000000 -0.993957 -0.109653 0.000000 -0.993957 -0.109653 " />
								<TextureCoordinate point="0.3211 0.5921 0.4079 0.5921 0.4079 0.9395 0.3211 0.9395 0.3211 0.8237 0.4079 0.8237 0.4079 0.9395 0.3211 0.9395 0.3211 0.5921 0.4079 0.5921 0.4079 0.9395 0.3211 0.9395 0.3211 0.8237 0.4079 0.8237 0.4079 0.9395 0.3211 0.9395 0.2921 0.5921 0.4079 0.5921 0.4079 0.9395 0.2921 0.9395 0.2921 0.5921 0.4079 0.5921 0.2921 0.9395 0.0605 0.8237 0.2342 0.8237 0.2342 0.9395 0.0605 0.9395 0.0605 0.5921 0.2342 0.5921 0.2342 0.9395 0.0605 0.9395 0.0605 0.8237 0.2342 0.8237 0.2342 0.9395 0.0605 0.9395 0.0605 0.5921 0.2342 0.5921 0.2342 0.9395 0.0605 0.9395 0.0605 0.5921 0.2342 0.5921 0.2342 0.7079 0.0605 0.7079 0.0605 0.5921 0.2342 0.5921 0.2342 0.7079 0.0605 0.7079 0.0605 0.5921 0.1763 0.5921 0.1763 0.9395 0.0605 0.9395 0.1763 0.5921 0.1763 0.9395 0.3211 0.5921 0.4079 0.5921 0.4079 0.7079 0.3211 0.7079 0.3211 0.5921 0.4079 0.7079 0.3211 0.7079 0.2195 0.2551 0.3063 0.2551 0.3063 0.3709 0.2195 0.3709 " />
							</IndexedTriangleSet>
						</Shape>
					</Group>
				</Transform>
				<Transform DEF="Cube_005_TRANSFORM"
				           translation="0.000000 -0.655072 -0.059136"
				           scale="1.000000 1.000000 1.000000"
				           rotation="0.000000 1.000000 0.000000 0.000000"
				           >
					<Transform DEF="Cube_005_ifs_TRANSFORM"
					           translation="0.000000 0.000000 0.000000"
					           scale="1.000000 1.000000 1.000000"
					           rotation="0.000000 1.000000 0.000000 0.000000"
					           >
						<Group DEF="group_ME_Cube_025">
							<Shape>
								<Appearance>
									<Material USE="MA_Body" />
								</Appearance>
								<IndexedTriangleSet solid="false"
								                    normalPerVertex="true"
								                    index="0 1 2 0 2 3 4 5 6 4 6 7 8 9 10 8 10 11 12 13 14 12 14 15 4 16 17 4 17 15 18 5 14 18 14 19 "
								                    >
									<Coordinate point="-0.232519 -0.200807 -0.136409 -0.232519 -0.238813 0.043576 -0.232519 -0.019003 0.089992 -0.232519 0.019003 -0.089992 -0.232519 0.019003 -0.089992 -0.232519 -0.019003 0.089992 0.232519 -0.019003 0.089992 0.232519 0.019003 -0.089992 0.232519 0.019003 -0.089992 0.232519 -0.019003 0.089992 0.232519 -0.238813 0.043576 0.232519 -0.200807 -0.136409 0.232519 -0.200807 -0.136409 0.232519 -0.238813 0.043576 -0.232519 -0.238813 0.043576 -0.232519 -0.200807 -0.136409 0.232519 0.019003 -0.089992 0.232519 -0.200807 -0.136409 0.232519 -0.019003 0.089992 0.232519 -0.238813 0.043576 " />
									<Normal vector="-0.577349 -0.445601 -0.684164 -0.577349 -0.684164 0.445601 -0.577349 0.445601 0.684164 -0.577349 0.684164 -0.445601 -0.577349 0.684164 -0.445601 -0.577349 0.445601 0.684164 0.577349 0.445601 0.684164 0.577349 0.684164 -0.445601 0.577349 0.684164 -0.445601 0.577349 0.445601 0.684164 0.577349 -0.684164 0.445601 0.577349 -0.445601 -0.684164 0.577349 -0.445601 -0.684164 0.577349 -0.684164 0.445601 -0.577349 -0.684164 0.445601 -0.577349 -0.445601 -0.684164 0.577349 0.684164 -0.445601 0.577349 -0.445601 -0.684164 0.577349 0.445601 0.684164 0.577349 -0.684164 0.445601 " />
									<TextureCoordinate point="0.0605 0.5921 0.4079 0.5921 0.4079 0.9395 0.0605 0.9395 0.0605 0.5921 0.4079 0.5921 0.4079 0.9395 0.0605 0.9395 0.0605 0.5921 0.4079 0.5921 0.4079 0.9395 0.0605 0.9395 0.0605 0.5921 0.4079 0.5921 0.4079 0.9395 0.0605 0.9395 0.4079 0.5921 0.4079 0.9395 0.0605 0.5921 0.0605 0.9395 " />
								</IndexedTriangleSet>
							</Shape>
						</Group>
					</Transform>
				</Transform>
				<Transform DEF="eye1_TRANSFORM"
				           translation="0.504389 -0.667599 0.160782"
				           scale="1.000000 1.000000 1.000000"
				           rotation="0.000000 1.000000 0.000000 0.000000"
				           >
					<Transform DEF="eye1_ifs_TRANSFORM"
					           translation="0.000000 0.000000 0.000000"
					           scale="1.000000 1.000000 1.000000"
					           rotation="0.000000 1.000000 0.000000 0.000000"
					           >
						<Group DEF="group_ME_eye1">
							<Shape>
								<Appearance>
									<Material USE="MA_Body" />
								</Appearance>
								<IndexedTriangleSet solid="false"
								                    normalPerVertex="true"
								                    index="0 1 2 0 2 3 4 5 6 4 6 7 8 9 10 8 10 11 12 13 14 12 14 15 16 17 18 16 18 19 20 21 14 20 14 22 23 24 25 23 25 26 24 12 15 24 15 25 27 28 29 27 29 30 28 8 11 28 11 29 31 32 33 31 33 34 32 4 7 32 7 33 35 36 37 35 37 38 36 0 3 36 3 37 39 40 41 39 41 42 42 41 4 42 4 32 43 39 42 43 42 44 44 42 32 44 32 31 45 46 47 45 47 48 49 50 51 49 51 52 53 45 48 53 48 54 54 48 24 54 24 23 55 56 57 55 57 58 56 20 22 56 22 57 43 59 60 43 60 26 59 16 19 59 19 60 46 61 62 46 62 47 47 62 13 47 13 12 40 21 63 40 63 41 41 63 5 41 5 4 "
								                    >
									<Coordinate point="-0.228879 -0.198122 0.147928 -0.228879 -0.164195 0.278947 -0.228879 0.278947 0.164195 -0.228879 0.245019 0.033176 0.081960 0.245019 0.033176 0.081960 0.278947 0.164195 0.228879 0.278947 0.164195 0.228879 0.245019 0.033176 0.228879 0.245019 0.033176 0.228879 0.278947 0.164195 0.228879 -0.164195 0.278947 0.228879 -0.198122 0.147928 -0.081960 -0.198122 0.147928 -0.081960 -0.164195 0.278947 -0.228879 -0.164195 0.278947 -0.228879 -0.198122 0.147928 0.081960 0.164195 -0.278947 0.228879 0.164195 -0.278947 0.228879 -0.278947 -0.164195 0.081960 -0.278947 -0.164195 -0.081960 0.278947 0.164195 -0.228879 0.278947 0.164195 -0.081960 -0.164195 0.278947 -0.081960 -0.278947 -0.164195 -0.081960 -0.245019 -0.033176 -0.228879 -0.245019 -0.033176 -0.228879 -0.278947 -0.164195 0.228879 0.164195 -0.278947 0.228879 0.198122 -0.147928 0.228879 -0.245019 -0.033176 0.228879 -0.278947 -0.164195 0.081960 0.164195 -0.278947 0.081960 0.198122 -0.147928 0.228879 0.198122 -0.147928 0.228879 0.164195 -0.278947 -0.228879 -0.278947 -0.164195 -0.228879 -0.245019 -0.033176 -0.228879 0.198122 -0.147928 -0.228879 0.164195 -0.278947 -0.228879 0.198122 -0.147928 -0.228879 0.245019 0.033176 -0.081960 0.245019 0.033176 -0.081960 0.198122 -0.147928 -0.228879 0.164195 -0.278947 -0.081960 0.164195 -0.278947 0.228879 -0.245019 -0.033176 0.228879 -0.198122 0.147928 0.081960 -0.198122 0.147928 0.081960 -0.245019 -0.033176 0.081960 -0.245019 -0.033176 0.081960 -0.198122 0.147928 -0.081960 -0.198122 0.147928 -0.081960 -0.245019 -0.033176 0.228879 -0.278947 -0.164195 0.081960 -0.278947 -0.164195 0.228879 0.278947 0.164195 0.081960 0.278947 0.164195 0.081960 -0.164195 0.278947 0.228879 -0.164195 0.278947 -0.081960 0.164195 -0.278947 -0.081960 -0.278947 -0.164195 0.228879 -0.164195 0.278947 0.081960 -0.164195 0.278947 -0.081960 0.278947 0.164195 " />
									<Normal vector="-0.707083 -0.684500 0.177252 -0.577349 -0.414167 0.703635 -0.577349 0.703635 0.414167 -0.707083 0.684500 -0.177252 0.000000 0.968047 -0.250679 0.000000 0.861782 0.507248 0.577349 0.703635 0.414167 0.707083 0.684500 -0.177252 0.707083 0.684500 -0.177252 0.577349 0.703635 0.414167 0.577349 -0.414167 0.703635 0.707083 -0.684500 0.177252 0.000000 -0.968047 0.250679 0.000000 -0.507248 0.861782 -0.577349 -0.414167 0.703635 -0.707083 -0.684500 0.177252 0.000000 0.507248 -0.861782 0.577349 0.414167 -0.703635 0.577349 -0.703635 -0.414167 0.000000 -0.861782 -0.507248 0.000000 0.861782 0.507248 -0.577349 0.703635 0.414167 0.000000 -0.507248 0.861782 0.000000 -0.861782 -0.507248 0.000000 -0.968047 0.250679 -0.707083 -0.684500 0.177252 -0.577349 -0.703635 -0.414167 0.577349 0.414167 -0.703635 0.707083 0.684500 -0.177252 0.707083 -0.684500 0.177252 0.577349 -0.703635 -0.414167 0.000000 0.507248 -0.861782 0.000000 0.968047 -0.250679 0.707083 0.684500 -0.177252 0.577349 0.414167 -0.703635 -0.577349 -0.703635 -0.414167 -0.707083 -0.684500 0.177252 -0.707083 0.684500 -0.177252 -0.577349 0.414167 -0.703635 -0.707083 0.684500 -0.177252 -0.707083 0.684500 -0.177252 0.000000 0.968047 -0.250679 0.000000 0.968047 -0.250679 -0.577349 0.414167 -0.703635 0.000000 0.507248 -0.861782 0.707083 -0.684500 0.177252 0.707083 -0.684500 0.177252 0.000000 -0.968047 0.250679 0.000000 -0.968047 0.250679 0.000000 -0.968047 0.250679 0.000000 -0.968047 0.250679 0.000000 -0.968047 0.250679 0.000000 -0.968047 0.250679 0.577349 -0.703635 -0.414167 0.000000 -0.861782 -0.507248 0.577349 0.703635 0.414167 0.000000 0.861782 0.507248 0.000000 -0.507248 0.861782 0.577349 -0.414167 0.703635 0.000000 0.507248 -0.861782 0.000000 -0.861782 -0.507248 0.577349 -0.414167 0.703635 0.000000 -0.507248 0.861782 0.000000 0.861782 0.507248 " />
									<TextureCoordinate point="0.6445 0.5583 0.6874 0.5583 0.6874 0.9732 0.6445 0.9732 0.6445 0.8349 0.6874 0.8349 0.6874 0.9732 0.6445 0.9732 0.6445 0.5583 0.6874 0.5583 0.6874 0.9732 0.6445 0.9732 0.6445 0.8349 0.6874 0.8349 0.6874 0.9732 0.6445 0.9732 0.6445 0.5583 0.6874 0.5583 0.6874 0.9732 0.6445 0.9732 0.6445 0.5583 0.6874 0.5583 0.6445 0.9732 0.5587 0.8349 0.6016 0.8349 0.6016 0.9732 0.5587 0.9732 0.5587 0.5583 0.6016 0.5583 0.6016 0.9732 0.5587 0.9732 0.5587 0.8349 0.6016 0.8349 0.6016 0.9732 0.5587 0.9732 0.5587 0.5583 0.6016 0.5583 0.6016 0.9732 0.5587 0.9732 0.6016 0.5583 0.6445 0.5583 0.6445 0.6966 0.6016 0.6966 0.5587 0.5583 0.5587 0.6966 0.6016 0.5583 0.6445 0.5583 0.6445 0.6966 0.6016 0.6966 0.8519 0.6588 0.9061 0.6588 0.9061 0.8334 0.8519 0.8334 0.5587 0.5583 0.5587 0.6966 0.5587 0.5583 0.6016 0.5583 0.6016 0.9732 0.5587 0.9732 0.6016 0.5583 0.6016 0.9732 0.6874 0.5583 0.6874 0.6966 0.6874 0.6966 " />
								</IndexedTriangleSet>
							</Shape>
						</Group>
					</Transform>
				</Transform>
				<Transform DEF="Cube_013_TRANSFORM"
				           translation="0.262409 -0.697671 -0.231955"
				           scale="1.000000 1.000000 1.000000"
				           rotation="0.000000 1.000000 0.000000 0.000000"
				           >
					<Transform DEF="Cube_013_ifs_TRANSFORM"
					           translation="0.000000 0.000000 0.000000"
					           scale="1.000000 1.000000 1.000000"
					           rotation="0.000000 1.000000 0.000000 0.000000"
					           >
						<Group DEF="group_ME_Cube_033">
							<Shape>
								<Appearance>
									<Material USE="MA_Body" />
								</Appearance>
								<IndexedTriangleSet solid="false"
								                    normalPerVertex="true"
								                    index="0 1 2 0 2 3 4 5 6 4 6 7 8 9 10 8 10 11 12 13 14 12 14 15 4 16 17 4 17 15 18 5 14 18 14 19 "
								                    >
									<Coordinate point="-0.172306 -0.175391 -0.039570 -0.172306 -0.175391 0.039570 -0.226855 -0.094807 0.039570 -0.226855 -0.094807 -0.039570 -0.226855 -0.094807 -0.039570 -0.226855 -0.094807 0.039570 -0.027274 0.040292 0.039570 -0.027274 0.040292 -0.039570 -0.027274 0.040292 -0.039570 -0.027274 0.040292 0.039570 0.027274 -0.040292 0.039570 0.027274 -0.040292 -0.039570 0.027274 -0.040292 -0.039570 0.027274 -0.040292 0.039570 -0.172306 -0.175391 0.039570 -0.172306 -0.175391 -0.039570 -0.027274 0.040292 -0.039570 0.027274 -0.040292 -0.039570 -0.027274 0.040292 0.039570 0.027274 -0.040292 0.039570 " />
									<Normal vector="-0.154454 -0.801721 -0.577349 -0.154454 -0.801721 0.577349 -0.801721 0.154454 0.577349 -0.801721 0.154454 -0.577349 -0.801721 0.154454 -0.577349 -0.801721 0.154454 0.577349 0.154454 0.801721 0.577349 0.154454 0.801721 -0.577349 0.154454 0.801721 -0.577349 0.154454 0.801721 0.577349 0.801721 -0.154454 0.577349 0.801721 -0.154454 -0.577349 0.801721 -0.154454 -0.577349 0.801721 -0.154454 0.577349 -0.154454 -0.801721 0.577349 -0.154454 -0.801721 -0.577349 0.154454 0.801721 -0.577349 0.801721 -0.154454 -0.577349 0.154454 0.801721 0.577349 0.801721 -0.154454 0.577349 " />
									<TextureCoordinate point="0.1035 0.0396 0.3945 0.0396 0.3945 0.1533 0.1035 0.1533 0.1035 0.0396 0.3945 0.0396 0.3945 0.1533 0.1035 0.1533 0.1035 0.0396 0.3945 0.0396 0.3945 0.1533 0.1035 0.1533 0.1035 0.0396 0.3945 0.0396 0.3945 0.1533 0.1035 0.1533 0.3945 0.0396 0.3945 0.1533 0.1035 0.0396 0.1035 0.1533 " />
								</IndexedTriangleSet>
							</Shape>
						</Group>
					</Transform>
				</Transform>
				<Transform DEF="Cube_014_TRANSFORM"
				           translation="0.240367 -0.683798 -0.317648"
				           scale="1.000000 1.000000 1.000000"
				           rotation="0.000000 1.000000 0.000000 0.000000"
				           >
					<Transform DEF="Cube_014_ifs_TRANSFORM"
					           translation="0.000000 0.000000 0.000000"
					           scale="1.000000 1.000000 1.000000"
					           rotation="0.000000 1.000000 0.000000 0.000000"
					           >
						<Group DEF="group_ME_Cube_034">
							<Shape>
								<Appearance>
									<Material USE="MA_Body" />
								</Appearance>
								<IndexedTriangleSet solid="false"
								                    normalPerVertex="true"
								                    index="0 1 2 0 2 3 4 5 6 4 6 7 8 9 10 8 10 11 12 13 14 12 14 15 4 16 17 4 17 15 18 5 14 18 14 19 "
								                    >
									<Coordinate point="-0.149613 -0.152291 -0.034359 -0.149613 -0.152291 0.034359 -0.196977 -0.082320 0.034359 -0.196977 -0.082320 -0.034359 -0.196977 -0.082320 -0.034359 -0.196977 -0.082320 0.034359 -0.023682 0.034986 0.034359 -0.023682 0.034986 -0.034359 -0.023682 0.034986 -0.034359 -0.023682 0.034986 0.034359 0.023682 -0.034986 0.034359 0.023682 -0.034986 -0.034359 0.023682 -0.034986 -0.034359 0.023682 -0.034986 0.034359 -0.149613 -0.152291 0.034359 -0.149613 -0.152291 -0.034359 -0.023682 0.034986 -0.034359 0.023682 -0.034986 -0.034359 -0.023682 0.034986 0.034359 0.023682 -0.034986 0.034359 " />
									<Normal vector="-0.154454 -0.801721 -0.577349 -0.154454 -0.801721 0.577349 -0.801721 0.154454 0.577349 -0.801721 0.154454 -0.577349 -0.801721 0.154454 -0.577349 -0.801721 0.154454 0.577349 0.154454 0.801721 0.577349 0.154454 0.801721 -0.577349 0.154454 0.801721 -0.577349 0.154454 0.801721 0.577349 0.801721 -0.154454 0.577349 0.801721 -0.154454 -0.577349 0.801721 -0.154454 -0.577349 0.801721 -0.154454 0.577349 -0.154454 -0.801721 0.577349 -0.154454 -0.801721 -0.577349 0.154454 0.801721 -0.577349 0.801721 -0.154454 -0.577349 0.154454 0.801721 0.577349 0.801721 -0.154454 0.577349 " />
									<TextureCoordinate point="0.1035 0.0396 0.3945 0.0396 0.3945 0.1533 0.1035 0.1533 0.1035 0.0396 0.3945 0.0396 0.3945 0.1533 0.1035 0.1533 0.1035 0.0396 0.3945 0.0396 0.3945 0.1533 0.1035 0.1533 0.1035 0.0396 0.3945 0.0396 0.3945 0.1533 0.1035 0.1533 0.3945 0.0396 0.3945 0.1533 0.1035 0.0396 0.1035 0.1533 " />
								</IndexedTriangleSet>
							</Shape>
						</Group>
					</Transform>
				</Transform>
				<Transform DEF="Cube_015_TRANSFORM"
				           translation="0.212660 -0.661217 -0.381097"
				           scale="1.000000 1.000000 1.000000"
				           rotation="0.000000 1.000000 0.000000 0.000000"
				           >
					<Transform DEF="Cube_015_ifs_TRANSFORM"
					           translation="0.000000 0.000000 0.000000"
					           scale="1.000000 1.000000 1.000000"
					           rotation="0.000000 1.000000 0.000000 0.000000"
					           >
						<Group DEF="group_ME_Cube_035">
							<Shape>
								<Appearance>
									<Material USE="MA_Body" />
								</Appearance>
								<IndexedTriangleSet solid="false"
								                    normalPerVertex="true"
								                    index="0 1 2 0 2 3 4 5 6 4 6 7 8 9 10 8 10 11 12 13 14 12 14 15 4 16 17 4 17 15 18 5 14 18 14 19 "
								                    >
									<Coordinate point="-0.139315 -0.141810 -0.031994 -0.139315 -0.141810 0.031994 -0.183420 -0.076654 0.031994 -0.183420 -0.076654 -0.031994 -0.183420 -0.076654 -0.031994 -0.183420 -0.076654 0.031994 -0.022052 0.032578 0.031994 -0.022052 0.032578 -0.031994 -0.022052 0.032578 -0.031994 -0.022052 0.032578 0.031994 0.022052 -0.032578 0.031994 0.022052 -0.032578 -0.031994 0.022052 -0.032578 -0.031994 0.022052 -0.032578 0.031994 -0.139315 -0.141810 0.031994 -0.139315 -0.141810 -0.031994 -0.022052 0.032578 -0.031994 0.022052 -0.032578 -0.031994 -0.022052 0.032578 0.031994 0.022052 -0.032578 0.031994 " />
									<Normal vector="-0.154454 -0.801721 -0.577349 -0.154454 -0.801721 0.577349 -0.801721 0.154454 0.577349 -0.801721 0.154454 -0.577349 -0.801721 0.154454 -0.577349 -0.801721 0.154454 0.577349 0.154454 0.801721 0.577349 0.154454 0.801721 -0.577349 0.154454 0.801721 -0.577349 0.154454 0.801721 0.577349 0.801721 -0.154454 0.577349 0.801721 -0.154454 -0.577349 0.801721 -0.154454 -0.577349 0.801721 -0.154454 0.577349 -0.154454 -0.801721 0.577349 -0.154454 -0.801721 -0.577349 0.154454 0.801721 -0.577349 0.801721 -0.154454 -0.577349 0.154454 0.801721 0.577349 0.801721 -0.154454 0.577349 " />
									<TextureCoordinate point="0.1035 0.0396 0.3945 0.0396 0.3945 0.1533 0.1035 0.1533 0.1035 0.0396 0.3945 0.0396 0.3945 0.1533 0.1035 0.1533 0.1035 0.0396 0.3945 0.0396 0.3945 0.1533 0.1035 0.1533 0.1035 0.0396 0.3945 0.0396 0.3945 0.1533 0.1035 0.1533 0.3945 0.0396 0.3945 0.1533 0.1035 0.0396 0.1035 0.1533 " />
								</IndexedTriangleSet>
							</Shape>
						</Group>
					</Transform>
				</Transform>
				<Transform DEF="eye1_001_TRANSFORM"
				           translation="-0.504389 -0.667599 0.160782"
				           scale="1.000000 1.000000 1.000000"
				           rotation="0.000000 1.000000 0.000000 0.000000"
				           >
					<Transform DEF="eye1_001_ifs_TRANSFORM"
					           translation="0.000000 0.000000 0.000000"
					           scale="1.000000 1.000000 1.000000"
					           rotation="0.000000 1.000000 0.000000 0.000000"
					           >
						<Group DEF="group_ME_eye1_003">
							<Shape>
								<Appearance>
									<Material USE="MA_Body" />
								</Appearance>
								<IndexedTriangleSet solid="false"
								                    normalPerVertex="true"
								                    index="0 1 2 0 2 3 4 5 6 4 6 7 8 9 10 8 10 11 12 13 14 12 14 15 16 17 18 16 18 19 20 21 14 20 14 22 23 24 25 23 25 26 26 25 13 26 13 12 27 28 29 27 29 30 30 29 9 30 9 8 31 32 33 31 33 34 34 33 5 34 5 4 35 36 37 35 37 38 38 37 1 38 1 0 39 40 41 39 41 42 40 34 4 40 4 41 43 44 40 43 40 39 44 31 34 44 34 40 45 46 47 45 47 48 49 50 51 49 51 52 53 54 46 53 46 45 54 23 26 54 26 46 55 56 57 55 57 58 58 57 21 58 21 20 43 24 59 43 59 60 60 59 17 60 17 16 48 47 61 48 61 62 47 12 15 47 15 61 42 41 63 42 63 22 41 4 7 41 7 63 "
								                    >
									<Coordinate point="0.228879 -0.198122 0.147928 0.228879 0.245019 0.033176 0.228879 0.278947 0.164195 0.228879 -0.164195 0.278947 -0.081960 0.245019 0.033176 -0.228879 0.245019 0.033176 -0.228879 0.278947 0.164195 -0.081960 0.278947 0.164195 -0.228879 0.245019 0.033176 -0.228879 -0.198122 0.147928 -0.228879 -0.164195 0.278947 -0.228879 0.278947 0.164195 0.081960 -0.198122 0.147928 0.228879 -0.198122 0.147928 0.228879 -0.164195 0.278947 0.081960 -0.164195 0.278947 -0.081960 0.164195 -0.278947 -0.081960 -0.278947 -0.164195 -0.228879 -0.278947 -0.164195 -0.228879 0.164195 -0.278947 0.081960 0.278947 0.164195 0.081960 -0.164195 0.278947 0.228879 0.278947 0.164195 0.081960 -0.278947 -0.164195 0.228879 -0.278947 -0.164195 0.228879 -0.245019 -0.033176 0.081960 -0.245019 -0.033176 -0.228879 0.164195 -0.278947 -0.228879 -0.278947 -0.164195 -0.228879 -0.245019 -0.033176 -0.228879 0.198122 -0.147928 -0.081960 0.164195 -0.278947 -0.228879 0.164195 -0.278947 -0.228879 0.198122 -0.147928 -0.081960 0.198122 -0.147928 0.228879 -0.278947 -0.164195 0.228879 0.164195 -0.278947 0.228879 0.198122 -0.147928 0.228879 -0.245019 -0.033176 0.228879 0.198122 -0.147928 0.081960 0.198122 -0.147928 0.081960 0.245019 0.033176 0.228879 0.245019 0.033176 0.228879 0.164195 -0.278947 0.081960 0.164195 -0.278947 -0.228879 -0.245019 -0.033176 -0.081960 -0.245019 -0.033176 -0.081960 -0.198122 0.147928 -0.228879 -0.198122 0.147928 -0.081960 -0.245019 -0.033176 0.081960 -0.245019 -0.033176 0.081960 -0.198122 0.147928 -0.081960 -0.198122 0.147928 -0.228879 -0.278947 -0.164195 -0.081960 -0.278947 -0.164195 -0.228879 0.278947 0.164195 -0.228879 -0.164195 0.278947 -0.081960 -0.164195 0.278947 -0.081960 0.278947 0.164195 0.081960 -0.278947 -0.164195 0.081960 0.164195 -0.278947 -0.081960 -0.164195 0.278947 -0.228879 -0.164195 0.278947 0.081960 0.278947 0.164195 " />
									<Normal vector="0.707083 -0.684500 0.177252 0.707083 0.684500 -0.177252 0.577349 0.703635 0.414167 0.577349 -0.414167 0.703635 0.000000 0.968047 -0.250679 -0.707083 0.684500 -0.177252 -0.577349 0.703635 0.414167 0.000000 0.861782 0.507248 -0.707083 0.684500 -0.177252 -0.707083 -0.684500 0.177252 -0.577349 -0.414167 0.703635 -0.577349 0.703635 0.414167 0.000000 -0.968047 0.250679 0.707083 -0.684500 0.177252 0.577349 -0.414167 0.703635 0.000000 -0.507248 0.861782 0.000000 0.507248 -0.861782 0.000000 -0.861782 -0.507248 -0.577349 -0.703635 -0.414167 -0.577349 0.414167 -0.703635 0.000000 0.861782 0.507248 0.000000 -0.507248 0.861782 0.577349 0.703635 0.414167 0.000000 -0.861782 -0.507248 0.577349 -0.703635 -0.414167 0.707083 -0.684500 0.177252 0.000000 -0.968047 0.250679 -0.577349 0.414167 -0.703635 -0.577349 -0.703635 -0.414167 -0.707083 -0.684500 0.177252 -0.707083 0.684500 -0.177252 0.000000 0.507248 -0.861782 -0.577349 0.414167 -0.703635 -0.707083 0.684500 -0.177252 0.000000 0.968047 -0.250679 0.577349 -0.703635 -0.414167 0.577349 0.414167 -0.703635 0.707083 0.684500 -0.177252 0.707083 -0.684500 0.177252 0.707083 0.684500 -0.177252 0.000000 0.968047 -0.250679 0.000000 0.968047 -0.250679 0.707083 0.684500 -0.177252 0.577349 0.414167 -0.703635 0.000000 0.507248 -0.861782 -0.707083 -0.684500 0.177252 0.000000 -0.968047 0.250679 0.000000 -0.968047 0.250679 -0.707083 -0.684500 0.177252 0.000000 -0.968047 0.250679 0.000000 -0.968047 0.250679 0.000000 -0.968047 0.250679 0.000000 -0.968047 0.250679 -0.577349 -0.703635 -0.414167 0.000000 -0.861782 -0.507248 -0.577349 0.703635 0.414167 -0.577349 -0.414167 0.703635 0.000000 -0.507248 0.861782 0.000000 0.861782 0.507248 0.000000 -0.861782 -0.507248 0.000000 0.507248 -0.861782 0.000000 -0.507248 0.861782 -0.577349 -0.414167 0.703635 0.000000 0.861782 0.507248 " />
									<TextureCoordinate point="0.6445 0.5583 0.6445 0.9732 0.6874 0.9732 0.6874 0.5583 0.6445 0.8349 0.6445 0.9732 0.6874 0.9732 0.6874 0.8349 0.6445 0.5583 0.6445 0.9732 0.6874 0.9732 0.6874 0.5583 0.6445 0.8349 0.6445 0.9732 0.6874 0.9732 0.6874 0.8349 0.6445 0.5583 0.6445 0.9732 0.6874 0.9732 0.6874 0.5583 0.6445 0.5583 0.6445 0.9732 0.6874 0.5583 0.5587 0.8349 0.5587 0.9732 0.6016 0.9732 0.6016 0.8349 0.5587 0.5583 0.5587 0.9732 0.6016 0.9732 0.6016 0.5583 0.5587 0.8349 0.5587 0.9732 0.6016 0.9732 0.6016 0.8349 0.5587 0.5583 0.5587 0.9732 0.6016 0.9732 0.6016 0.5583 0.6016 0.5583 0.6016 0.6966 0.6445 0.6966 0.6445 0.5583 0.5587 0.5583 0.5587 0.6966 0.6016 0.5583 0.6016 0.6966 0.6445 0.6966 0.6445 0.5583 0.8519 0.6588 0.8519 0.8334 0.9061 0.8334 0.9061 0.6588 0.5587 0.5583 0.5587 0.6966 0.5587 0.5583 0.5587 0.9732 0.6016 0.9732 0.6016 0.5583 0.6016 0.9732 0.6016 0.5583 0.6874 0.6966 0.6874 0.5583 0.6874 0.6966 " />
								</IndexedTriangleSet>
							</Shape>
						</Group>
					</Transform>
				</Transform>
				<Transform DEF="Cube_016_TRANSFORM"
				           translation="-0.262409 -0.697671 -0.231955"
				           scale="1.000000 1.000000 1.000000"
				           rotation="0.000000 1.000000 0.000000 0.000000"
				           >
					<Transform DEF="Cube_016_ifs_TRANSFORM"
					           translation="0.000000 0.000000 0.000000"
					           scale="1.000000 1.000000 1.000000"
					           rotation="0.000000 1.000000 0.000000 0.000000"
					           >
						<Group DEF="group_ME_Cube_036">
							<Shape>
								<Appearance>
									<Material USE="MA_Body" />
								</Appearance>
								<IndexedTriangleSet solid="false"
								                    normalPerVertex="true"
								                    index="0 1 2 0 2 3 4 5 6 4 6 7 8 9 10 8 10 11 12 13 14 12 14 15 4 13 16 4 16 17 18 19 14 18 14 7 "
								                    >
									<Coordinate point="0.172306 -0.175391 -0.039570 0.226855 -0.094807 -0.039570 0.226855 -0.094807 0.039570 0.172306 -0.175391 0.039570 0.226855 -0.094807 -0.039570 0.027274 0.040292 -0.039570 0.027274 0.040292 0.039570 0.226855 -0.094807 0.039570 0.027274 0.040292 -0.039570 -0.027274 -0.040292 -0.039570 -0.027274 -0.040292 0.039570 0.027274 0.040292 0.039570 -0.027274 -0.040292 -0.039570 0.172306 -0.175391 -0.039570 0.172306 -0.175391 0.039570 -0.027274 -0.040292 0.039570 -0.027274 -0.040292 -0.039570 0.027274 0.040292 -0.039570 0.027274 0.040292 0.039570 -0.027274 -0.040292 0.039570 " />
									<Normal vector="0.154454 -0.801721 -0.577349 0.801721 0.154454 -0.577349 0.801721 0.154454 0.577349 0.154454 -0.801721 0.577349 0.801721 0.154454 -0.577349 -0.154454 0.801721 -0.577349 -0.154454 0.801721 0.577349 0.801721 0.154454 0.577349 -0.154454 0.801721 -0.577349 -0.801721 -0.154454 -0.577349 -0.801721 -0.154454 0.577349 -0.154454 0.801721 0.577349 -0.801721 -0.154454 -0.577349 0.154454 -0.801721 -0.577349 0.154454 -0.801721 0.577349 -0.801721 -0.154454 0.577349 -0.801721 -0.154454 -0.577349 -0.154454 0.801721 -0.577349 -0.154454 0.801721 0.577349 -0.801721 -0.154454 0.577349 " />
									<TextureCoordinate point="0.1035 0.0396 0.1035 0.1533 0.3945 0.1533 0.3945 0.0396 0.1035 0.0396 0.1035 0.1533 0.3945 0.1533 0.3945 0.0396 0.1035 0.0396 0.1035 0.1533 0.3945 0.1533 0.3945 0.0396 0.1035 0.0396 0.1035 0.1533 0.3945 0.1533 0.3945 0.0396 0.3945 0.1533 0.3945 0.0396 0.1035 0.0396 0.1035 0.1533 " />
								</IndexedTriangleSet>
							</Shape>
						</Group>
					</Transform>
				</Transform>
				<Transform DEF="Cube_017_TRANSFORM"
				           translation="-0.240367 -0.683798 -0.317648"
				           scale="1.000000 1.000000 1.000000"
				           rotation="0.000000 1.000000 0.000000 0.000000"
				           >
					<Transform DEF="Cube_017_ifs_TRANSFORM"
					           translation="0.000000 0.000000 0.000000"
					           scale="1.000000 1.000000 1.000000"
					           rotation="0.000000 1.000000 0.000000 0.000000"
					           >
						<Group DEF="group_ME_Cube_037">
							<Shape>
								<Appearance>
									<Material USE="MA_Body" />
								</Appearance>
								<IndexedTriangleSet solid="false"
								                    normalPerVertex="true"
								                    index="0 1 2 0 2 3 4 5 6 4 6 7 8 9 10 8 10 11 12 13 14 12 14 15 4 13 16 4 16 17 18 19 14 18 14 7 "
								                    >
									<Coordinate point="0.149613 -0.152291 -0.034359 0.196977 -0.082320 -0.034359 0.196977 -0.082320 0.034359 0.149613 -0.152291 0.034359 0.196977 -0.082320 -0.034359 0.023682 0.034986 -0.034359 0.023682 0.034986 0.034359 0.196977 -0.082320 0.034359 0.023682 0.034986 -0.034359 -0.023682 -0.034986 -0.034359 -0.023682 -0.034986 0.034359 0.023682 0.034986 0.034359 -0.023682 -0.034986 -0.034359 0.149613 -0.152291 -0.034359 0.149613 -0.152291 0.034359 -0.023682 -0.034986 0.034359 -0.023682 -0.034986 -0.034359 0.023682 0.034986 -0.034359 0.023682 0.034986 0.034359 -0.023682 -0.034986 0.034359 " />
									<Normal vector="0.154454 -0.801721 -0.577349 0.801721 0.154454 -0.577349 0.801721 0.154454 0.577349 0.154454 -0.801721 0.577349 0.801721 0.154454 -0.577349 -0.154454 0.801721 -0.577349 -0.154454 0.801721 0.577349 0.801721 0.154454 0.577349 -0.154454 0.801721 -0.577349 -0.801721 -0.154454 -0.577349 -0.801721 -0.154454 0.577349 -0.154454 0.801721 0.577349 -0.801721 -0.154454 -0.577349 0.154454 -0.801721 -0.577349 0.154454 -0.801721 0.577349 -0.801721 -0.154454 0.577349 -0.801721 -0.154454 -0.577349 -0.154454 0.801721 -0.577349 -0.154454 0.801721 0.577349 -0.801721 -0.154454 0.577349 " />
									<TextureCoordinate point="0.1035 0.0396 0.1035 0.1533 0.3945 0.1533 0.3945 0.0396 0.1035 0.0396 0.1035 0.1533 0.3945 0.1533 0.3945 0.0396 0.1035 0.0396 0.1035 0.1533 0.3945 0.1533 0.3945 0.0396 0.1035 0.0396 0.1035 0.1533 0.3945 0.1533 0.3945 0.0396 0.3945 0.1533 0.3945 0.0396 0.1035 0.0396 0.1035 0.1533 " />
								</IndexedTriangleSet>
							</Shape>
						</Group>
					</Transform>
				</Transform>
				<Transform DEF="Cube_018_TRANSFORM"
				           translation="-0.212660 -0.661217 -0.381097"
				           scale="1.000000 1.000000 1.000000"
				           rotation="0.000000 1.000000 0.000000 0.000000"
				           >
					<Transform DEF="Cube_018_ifs_TRANSFORM"
					           translation="0.000000 0.000000 0.000000"
					           scale="1.000000 1.000000 1.000000"
					           rotation="0.000000 1.000000 0.000000 0.000000"
					           >
						<Group DEF="group_ME_Cube_038">
							<Shape>
								<Appearance>
									<Material USE="MA_Body" />
								</Appearance>
								<IndexedTriangleSet solid="false"
								                    normalPerVertex="true"
								                    index="0 1 2 0 2 3 4 5 6 4 6 7 8 9 10 8 10 11 12 13 14 12 14 15 4 13 16 4 16 17 18 19 14 18 14 7 "
								                    >
									<Coordinate point="0.139315 -0.141810 -0.031994 0.183420 -0.076654 -0.031994 0.183420 -0.076654 0.031994 0.139315 -0.141810 0.031994 0.183420 -0.076654 -0.031994 0.022052 0.032578 -0.031994 0.022052 0.032578 0.031994 0.183420 -0.076654 0.031994 0.022052 0.032578 -0.031994 -0.022052 -0.032578 -0.031994 -0.022052 -0.032578 0.031994 0.022052 0.032578 0.031994 -0.022052 -0.032578 -0.031994 0.139315 -0.141810 -0.031994 0.139315 -0.141810 0.031994 -0.022052 -0.032578 0.031994 -0.022052 -0.032578 -0.031994 0.022052 0.032578 -0.031994 0.022052 0.032578 0.031994 -0.022052 -0.032578 0.031994 " />
									<Normal vector="0.154454 -0.801721 -0.577349 0.801721 0.154454 -0.577349 0.801721 0.154454 0.577349 0.154454 -0.801721 0.577349 0.801721 0.154454 -0.577349 -0.154454 0.801721 -0.577349 -0.154454 0.801721 0.577349 0.801721 0.154454 0.577349 -0.154454 0.801721 -0.577349 -0.801721 -0.154454 -0.577349 -0.801721 -0.154454 0.577349 -0.154454 0.801721 0.577349 -0.801721 -0.154454 -0.577349 0.154454 -0.801721 -0.577349 0.154454 -0.801721 0.577349 -0.801721 -0.154454 0.577349 -0.801721 -0.154454 -0.577349 -0.154454 0.801721 -0.577349 -0.154454 0.801721 0.577349 -0.801721 -0.154454 0.577349 " />
									<TextureCoordinate point="0.1035 0.0396 0.1035 0.1533 0.3945 0.1533 0.3945 0.0396 0.1035 0.0396 0.1035 0.1533 0.3945 0.1533 0.3945 0.0396 0.1035 0.0396 0.1035 0.1533 0.3945 0.1533 0.3945 0.0396 0.1035 0.0396 0.1035 0.1533 0.3945 0.1533 0.3945 0.0396 0.3945 0.1533 0.3945 0.0396 0.1035 0.0396 0.1035 0.1533 " />
								</IndexedTriangleSet>
							</Shape>
						</Group>
					</Transform>
				</Transform>
			</Transform>
			<Transform DEF="mush1_TRANSFORM"
			           translation="0.538993 -0.003238 1.053372"
			           scale="1.000000 1.000000 1.000000"
			           rotation="0.000000 1.000000 0.000000 0.000000"
			           >
				<Transform DEF="mush1_ifs_TRANSFORM"
				           translation="0.000000 0.000000 0.000000"
				           scale="1.000000 1.000000 1.000000"
				           rotation="0.000000 1.000000 0.000000 0.000000"
				           >
					<Group DEF="group_ME_mush1">
						<Shape>
							<Appearance>
								<Material USE="MA_Body" />
							</Appearance>
							<IndexedTriangleSet solid="false"
							                    normalPerVertex="true"
							                    index="0 1 2 0 2 3 4 5 6 4 6 7 "
							                    >
								<Coordinate point="-0.339069 -0.678326 0.397239 0.654544 -0.454268 1.627953 1.332681 0.902385 0.833474 0.339069 0.678326 -0.397239 0.578284 -0.508282 -0.374340 -0.578284 0.508282 0.374340 0.415328 0.732340 1.605054 1.571897 -0.284223 0.856373 " />
								<Normal vector="-0.675466 0.593707 0.437239 -0.675466 0.593707 0.437239 -0.675466 0.593707 0.437239 -0.675466 0.593707 0.437239 0.396039 0.792352 -0.464003 0.396039 0.792352 -0.464003 0.396039 0.792352 -0.464003 0.396039 0.792352 -0.464003 " />
								<TextureCoordinate point="0.5440 0.0321 0.5440 0.4560 0.9679 0.4560 0.9679 0.0321 0.5440 0.0321 0.9679 0.0321 0.9679 0.4560 0.5440 0.4560 " />
							</IndexedTriangleSet>
						</Shape>
					</Group>
				</Transform>
			</Transform>
			<Transform DEF="arm1_TRANSFORM"
			           translation="0.647720 -0.665729 0.462896"
			           scale="1.000000 1.000000 1.000000"
			           rotation="0.000000 1.000000 0.000000 0.000000"
			           >
				<Transform DEF="arm1_ifs_TRANSFORM"
				           translation="0.000000 0.000000 0.000000"
				           scale="1.000000 1.000000 1.000000"
				           rotation="0.000000 1.000000 0.000000 0.000000"
				           >
					<Group DEF="group_ME_arm1">
						<Shape>
							<Appearance>
								<Material USE="MA_Body" />
							</Appearance>
							<IndexedTriangleSet solid="false"
							                    normalPerVertex="true"
							                    index="0 1 2 0 2 3 4 5 6 4 6 7 8 9 10 8 10 11 12 13 14 12 14 15 4 16 17 4 17 15 18 5 14 18 14 19 "
							                    >
								<Coordinate point="-0.042710 -0.066694 -0.071206 -0.042710 -0.066694 0.071206 0.042710 0.066694 0.071206 0.042710 0.066694 -0.071206 0.042710 0.066694 -0.071206 0.042710 0.066694 0.071206 0.314713 -0.107495 0.071206 0.314713 -0.107495 -0.071206 0.314713 -0.107495 -0.071206 0.314713 -0.107495 0.071206 0.229292 -0.240883 0.071206 0.229292 -0.240883 -0.071206 0.229292 -0.240883 -0.071206 0.229292 -0.240883 0.071206 -0.042710 -0.066694 0.071206 -0.042710 -0.066694 -0.071206 0.314713 -0.107495 -0.071206 0.229292 -0.240883 -0.071206 0.314713 -0.107495 0.071206 0.229292 -0.240883 0.071206 " />
								<Normal vector="-0.797540 -0.174810 -0.577349 -0.797540 -0.174810 0.577349 -0.174810 0.797540 0.577349 -0.174810 0.797540 -0.577349 -0.174810 0.797540 -0.577349 -0.174810 0.797540 0.577349 0.797540 0.174810 0.577349 0.797540 0.174810 -0.577349 0.797540 0.174810 -0.577349 0.797540 0.174810 0.577349 0.174810 -0.797540 0.577349 0.174810 -0.797540 -0.577349 0.174810 -0.797540 -0.577349 0.174810 -0.797540 0.577349 -0.797540 -0.174810 0.577349 -0.797540 -0.174810 -0.577349 0.797540 0.174810 -0.577349 0.174810 -0.797540 -0.577349 0.797540 0.174810 0.577349 0.174810 -0.797540 0.577349 " />
								<TextureCoordinate point="0.0605 0.5921 0.4079 0.5921 0.4079 0.9395 0.0605 0.9395 0.0605 0.5921 0.4079 0.5921 0.4079 0.9395 0.0605 0.9395 0.0605 0.5921 0.4079 0.5921 0.4079 0.9395 0.0605 0.9395 0.0605 0.5921 0.4079 0.5921 0.4079 0.9395 0.0605 0.9395 0.4079 0.5921 0.4079 0.9395 0.0605 0.5921 0.0605 0.9395 " />
							</IndexedTriangleSet>
						</Shape>
					</Group>
				</Transform>
				<Transform DEF="hand1_TRANSFORM"
				           translation="0.625809 0.109130 0.241364"
				           scale="1.000000 1.000000 1.000000"
				           rotation="0.000000 1.000000 0.000000 0.000000"
				           >
					<Transform DEF="hand1_ifs_TRANSFORM"
					           translation="0.000000 0.000000 0.000000"
					           scale="1.000000 1.000000 1.000000"
					           rotation="0.000000 1.000000 0.000000 0.000000"
					           >
						<Group DEF="group_ME_hand1">
							<Shape>
								<Appearance>
									<Material USE="MA_Body" />
								</Appearance>
								<IndexedTriangleSet solid="false"
								                    normalPerVertex="true"
								                    index="0 1 2 0 2 3 4 5 6 4 6 7 8 9 10 8 10 11 12 13 14 12 14 15 4 16 17 4 17 15 18 5 14 18 14 19 "
								                    >
									<Coordinate point="-0.692221 -0.838590 -0.986513 -0.701030 -1.183030 -0.514401 -0.289930 -0.099223 0.283984 -0.281121 0.245216 -0.188127 -0.281121 0.245216 -0.188127 -0.289930 -0.099223 0.283984 0.281121 -0.245216 0.188127 0.289930 0.099223 -0.283984 0.289930 0.099223 -0.283984 0.281121 -0.245216 0.188127 -0.129979 -1.329022 -0.610259 -0.121170 -0.984583 -1.082370 -0.121170 -0.984583 -1.082370 -0.129979 -1.329022 -0.610259 -0.701030 -1.183030 -0.514401 -0.692221 -0.838590 -0.986513 0.289930 0.099223 -0.283984 -0.121170 -0.984583 -1.082370 0.281121 -0.245216 0.188127 -0.129979 -1.329022 -0.610259 " />
									<Normal vector="-0.712027 0.036805 -0.701163 -0.729423 -0.643666 0.231513 -0.392163 0.245460 0.886502 -0.374767 0.925962 -0.046175 -0.374767 0.925962 -0.046175 -0.392163 0.245460 0.886502 0.712027 -0.036805 0.701163 0.729423 0.643666 -0.231513 0.729423 0.643666 -0.231513 0.712027 -0.036805 0.701163 0.374767 -0.925962 0.046175 0.392163 -0.245460 -0.886502 0.392163 -0.245460 -0.886502 0.374767 -0.925962 0.046175 -0.729423 -0.643666 0.231513 -0.712027 0.036805 -0.701163 0.729423 0.643666 -0.231513 0.392163 -0.245460 -0.886502 0.712027 -0.036805 0.701163 0.374767 -0.925962 0.046175 " />
									<TextureCoordinate point="0.0605 0.5921 0.4079 0.5921 0.4079 0.9395 0.0605 0.9395 0.0605 0.5921 0.4079 0.5921 0.4079 0.9395 0.0605 0.9395 0.0605 0.5921 0.4079 0.5921 0.4079 0.9395 0.0605 0.9395 0.0605 0.5921 0.4079 0.5921 0.4079 0.9395 0.0605 0.9395 0.4079 0.5921 0.4079 0.9395 0.0605 0.5921 0.0605 0.9395 " />
								</IndexedTriangleSet>
							</Shape>
						</Group>
					</Transform>
					<Transform DEF="Cube_008_TRANSFORM"
					           translation="-0.359963 -1.021532 -0.784225"
					           scale="1.000000 1.000000 1.000000"
					           rotation="0.000000 1.000000 0.000000 0.000000"
					           >
						<Transform DEF="Cube_008_ifs_TRANSFORM"
						           translation="0.000000 0.000000 0.000000"
						           scale="1.000000 1.000000 1.000000"
						           rotation="0.000000 1.000000 0.000000 0.000000"
						           >
							<Group DEF="group_ME_Cube_028">
								<Shape>
									<Appearance>
										<Material USE="MA_Body" />
									</Appearance>
									<IndexedTriangleSet solid="false"
									                    normalPerVertex="true"
									                    index="0 1 2 0 2 3 4 5 6 4 6 7 8 9 10 8 10 11 12 13 14 12 14 15 4 16 17 4 17 15 18 5 14 18 14 19 "
									                    >
										<Coordinate point="-0.192976 -0.090353 -0.264276 -0.208884 -0.229635 -0.137405 -0.090298 -0.041673 0.083813 -0.074389 0.097608 -0.043057 -0.074389 0.097608 -0.043057 -0.090298 -0.041673 0.083813 0.074389 -0.097608 0.043057 0.090298 0.041673 -0.083813 0.090298 0.041673 -0.083813 0.074389 -0.097608 0.043057 -0.044197 -0.285570 -0.178161 -0.028289 -0.146288 -0.305032 -0.028289 -0.146288 -0.305032 -0.044197 -0.285570 -0.178161 -0.208884 -0.229635 -0.137405 -0.192976 -0.090353 -0.264276 0.090298 0.041673 -0.083813 -0.028289 -0.146288 -0.305032 0.074389 -0.097608 0.043057 -0.044197 -0.285570 -0.178161 " />
										<Normal vector="-0.702017 0.259987 -0.662984 -0.799158 -0.590594 0.111820 -0.362499 0.101535 0.926420 -0.265328 0.952147 0.151585 -0.265328 0.952147 0.151585 -0.362499 0.101535 0.926420 0.702017 -0.259987 0.662984 0.799158 0.590594 -0.111820 0.799158 0.590594 -0.111820 0.702017 -0.259987 0.662984 0.265328 -0.952147 -0.151585 0.362499 -0.101535 -0.926420 0.362499 -0.101535 -0.926420 0.265328 -0.952147 -0.151585 -0.799158 -0.590594 0.111820 -0.702017 0.259987 -0.662984 0.799158 0.590594 -0.111820 0.362499 -0.101535 -0.926420 0.702017 -0.259987 0.662984 0.265328 -0.952147 -0.151585 " />
										<TextureCoordinate point="0.0605 0.5921 0.4079 0.5921 0.4079 0.9395 0.0605 0.9395 0.0605 0.5921 0.4079 0.5921 0.4079 0.9395 0.0605 0.9395 0.0605 0.5921 0.4079 0.5921 0.4079 0.9395 0.0605 0.9395 0.0605 0.5921 0.4079 0.5921 0.4079 0.9395 0.0605 0.9395 0.4079 0.5921 0.4079 0.9395 0.0605 0.5921 0.0605 0.9395 " />
									</IndexedTriangleSet>
								</Shape>
							</Group>
						</Transform>
					</Transform>
				</Transform>
			</Transform>
			<Transform DEF="leg1_TRANSFORM"
			           translation="0.675403 -0.302833 0.159128"
			           scale="1.000000 1.000000 1.000000"
			           rotation="0.000000 1.000000 0.000000 0.000000"
			           >
				<Transform DEF="leg1_ifs_TRANSFORM"
				           translation="0.000000 0.000000 0.000000"
				           scale="1.000000 1.000000 1.000000"
				           rotation="0.000000 1.000000 0.000000 0.000000"
				           >
					<Group DEF="group_ME_leg1">
						<Shape>
							<Appearance>
								<Material USE="MA_Body" />
							</Appearance>
							<IndexedTriangleSet solid="false"
							                    normalPerVertex="true"
							                    index="0 1 2 0 2 3 4 5 6 4 6 7 8 9 10 8 10 11 12 13 14 12 14 15 4 16 17 4 17 15 18 5 14 18 14 19 "
							                    >
								<Coordinate point="0.049064 -0.092709 -0.086236 -0.057726 -0.087578 0.086236 -0.049064 0.092709 0.086236 0.057726 0.087578 -0.086236 0.057726 0.087578 -0.086236 -0.049064 0.092709 0.086236 0.412022 0.070555 0.372386 0.518812 0.065424 0.199915 0.518812 0.065424 0.199915 0.412022 0.070555 0.372386 0.403360 -0.109732 0.372386 0.510149 -0.114863 0.199915 0.510149 -0.114863 0.199915 0.403360 -0.109732 0.372386 -0.057726 -0.087578 0.086236 0.049064 -0.092709 -0.086236 0.518812 0.065424 0.199915 0.510149 -0.114863 0.199915 0.412022 0.070555 0.372386 0.403360 -0.109732 0.372386 " />
								<Normal vector="-0.213996 -0.567705 -0.794885 -0.821680 -0.538530 0.186499 -0.766259 0.614826 0.186499 -0.158605 0.585620 -0.794885 -0.158605 0.585620 -0.794885 -0.766259 0.614826 0.186499 0.213996 0.567705 0.794885 0.821680 0.538530 -0.186499 0.821680 0.538530 -0.186499 0.213996 0.567705 0.794885 0.158605 -0.585620 0.794885 0.766259 -0.614826 -0.186499 0.766259 -0.614826 -0.186499 0.158605 -0.585620 0.794885 -0.821680 -0.538530 0.186499 -0.213996 -0.567705 -0.794885 0.821680 0.538530 -0.186499 0.766259 -0.614826 -0.186499 0.213996 0.567705 0.794885 0.158605 -0.585620 0.794885 " />
								<TextureCoordinate point="0.0605 0.5921 0.4079 0.5921 0.4079 0.9395 0.0605 0.9395 0.0605 0.5921 0.4079 0.5921 0.4079 0.9395 0.0605 0.9395 0.0605 0.5921 0.4079 0.5921 0.4079 0.9395 0.0605 0.9395 0.0605 0.5921 0.4079 0.5921 0.4079 0.9395 0.0605 0.9395 0.4079 0.5921 0.4079 0.9395 0.0605 0.5921 0.0605 0.9395 " />
							</IndexedTriangleSet>
						</Shape>
					</Group>
				</Transform>
				<Transform DEF="Cube_011_TRANSFORM"
				           translation="0.350813 -0.016856 0.196059"
				           scale="1.000000 1.000000 1.000000"
				           rotation="0.000000 1.000000 0.000000 0.000000"
				           >
					<Transform DEF="Cube_011_ifs_TRANSFORM"
					           translation="0.000000 0.000000 0.000000"
					           scale="1.000000 1.000000 1.000000"
					           rotation="0.000000 1.000000 0.000000 0.000000"
					           >
						<Group DEF="group_ME_Cube_031">
							<Shape>
								<Appearance>
									<Material USE="MA_Body" />
								</Appearance>
								<IndexedTriangleSet solid="false"
								                    normalPerVertex="true"
								                    index="0 1 2 0 2 3 4 5 6 4 6 7 8 9 10 8 10 11 12 13 14 12 14 15 4 16 17 4 17 15 18 5 14 18 14 19 "
								                    >
									<Coordinate point="-0.058641 -0.068654 -0.073267 0.051788 -0.073960 0.073267 0.058641 0.068654 0.073267 -0.051788 0.073960 -0.073267 -0.051788 0.073960 -0.073267 0.058641 0.068654 0.073267 0.424736 0.051064 -0.203264 0.314308 0.056370 -0.349797 0.314308 0.056370 -0.349797 0.424736 0.051064 -0.203264 0.417884 -0.091549 -0.203264 0.307455 -0.086244 -0.349797 0.307455 -0.086244 -0.349797 0.417884 -0.091549 -0.203264 0.051788 -0.073960 0.073267 -0.058641 -0.068654 -0.073267 0.314308 0.056370 -0.349797 0.307455 -0.086244 -0.349797 0.424736 0.051064 -0.203264 0.417884 -0.091549 -0.203264 " />
									<Normal vector="-0.835383 -0.537858 -0.113132 -0.140721 -0.571245 0.808588 -0.085299 0.582110 0.808588 -0.779962 0.615467 -0.113132 -0.779962 0.615467 -0.113132 -0.085299 0.582110 0.808588 0.835383 0.537858 0.113132 0.140721 0.571245 -0.808588 0.140721 0.571245 -0.808588 0.835383 0.537858 0.113132 0.779962 -0.615467 0.113132 0.085299 -0.582110 -0.808588 0.085299 -0.582110 -0.808588 0.779962 -0.615467 0.113132 -0.140721 -0.571245 0.808588 -0.835383 -0.537858 -0.113132 0.140721 0.571245 -0.808588 0.085299 -0.582110 -0.808588 0.835383 0.537858 0.113132 0.779962 -0.615467 0.113132 " />
									<TextureCoordinate point="0.0605 0.5921 0.4079 0.5921 0.4079 0.9395 0.0605 0.9395 0.0605 0.5921 0.4079 0.5921 0.4079 0.9395 0.0605 0.9395 0.0605 0.5921 0.4079 0.5921 0.4079 0.9395 0.0605 0.9395 0.0605 0.5921 0.4079 0.5921 0.4079 0.9395 0.0605 0.9395 0.4079 0.5921 0.4079 0.9395 0.0605 0.5921 0.0605 0.9395 " />
								</IndexedTriangleSet>
							</Shape>
						</Group>
					</Transform>
					<Transform DEF="Cube_012_TRANSFORM"
					           translation="0.342929 -0.016477 -0.214093"
					           scale="1.000000 1.000000 1.000000"
					           rotation="0.000000 1.000000 0.000000 0.000000"
					           >
						<Transform DEF="Cube_012_ifs_TRANSFORM"
						           translation="0.000000 0.000000 0.000000"
						           scale="1.000000 1.000000 1.000000"
						           rotation="0.000000 1.000000 0.000000 0.000000"
						           >
							<Group DEF="group_ME_Cube_032">
								<Shape>
									<Appearance>
										<Material USE="MA_Body" />
									</Appearance>
									<IndexedTriangleSet solid="false"
									                    normalPerVertex="true"
									                    index="0 1 2 0 2 3 4 5 6 4 6 7 8 9 10 8 10 11 12 13 14 12 14 15 4 16 17 4 17 15 18 5 14 18 14 19 "
									                    >
										<Coordinate point="-0.068630 -0.048487 0.002520 0.063665 -0.054843 -0.002520 0.068630 0.048487 -0.002520 -0.063665 0.054843 0.002520 -0.063665 0.054843 0.002520 0.068630 0.048487 -0.002520 0.052286 0.049272 -0.432550 -0.080009 0.055628 -0.427510 -0.080009 0.055628 -0.427510 0.052286 0.049272 -0.432550 0.047321 -0.054058 -0.432550 -0.084973 -0.047701 -0.427510 -0.084973 -0.047701 -0.427510 0.047321 -0.054058 -0.432550 0.063665 -0.054843 -0.002520 -0.068630 -0.048487 0.002520 -0.080009 0.055628 -0.427510 -0.084973 -0.047701 -0.427510 0.052286 0.049272 -0.432550 0.047321 -0.054058 -0.432550 " />
										<Normal vector="-0.582049 -0.550035 0.598865 0.570482 -0.605426 0.554979 0.625874 0.547929 0.554979 -0.526627 0.603290 0.598865 -0.526627 0.603290 0.598865 0.625874 0.547929 0.554979 0.582049 0.550035 -0.598865 -0.570482 0.605426 -0.554979 -0.570482 0.605426 -0.554979 0.582049 0.550035 -0.598865 0.526627 -0.603290 -0.598865 -0.625874 -0.547929 -0.554979 -0.625874 -0.547929 -0.554979 0.526627 -0.603290 -0.598865 0.570482 -0.605426 0.554979 -0.582049 -0.550035 0.598865 -0.570482 0.605426 -0.554979 -0.625874 -0.547929 -0.554979 0.582049 0.550035 -0.598865 0.526627 -0.603290 -0.598865 " />
										<TextureCoordinate point="0.0605 0.5921 0.4079 0.5921 0.4079 0.9395 0.0605 0.9395 0.0605 0.5921 0.4079 0.5921 0.4079 0.9395 0.0605 0.9395 0.0605 0.5921 0.4079 0.5921 0.4079 0.9395 0.0605 0.9395 0.0605 0.5921 0.4079 0.5921 0.4079 0.9395 0.0605 0.9395 0.4079 0.5921 0.4079 0.9395 0.0605 0.5921 0.0605 0.9395 " />
									</IndexedTriangleSet>
								</Shape>
							</Group>
						</Transform>
					</Transform>
				</Transform>
			</Transform>
			<Transform DEF="leg4_TRANSFORM"
			           translation="0.675403 0.171883 0.159128"
			           scale="1.000000 1.000000 1.000000"
			           rotation="0.000000 1.000000 0.000000 0.000000"
			           >
				<Transform DEF="leg4_ifs_TRANSFORM"
				           translation="0.000000 0.000000 0.000000"
				           scale="1.000000 1.000000 1.000000"
				           rotation="0.000000 1.000000 0.000000 0.000000"
				           >
					<Group DEF="group_ME_leg4">
						<Shape>
							<Appearance>
								<Material USE="MA_Body" />
							</Appearance>
							<IndexedTriangleSet solid="false"
							                    normalPerVertex="true"
							                    index="0 1 2 0 2 3 4 5 6 4 6 7 8 9 10 8 10 11 12 13 14 12 14 15 4 13 16 4 16 17 18 19 14 18 14 7 "
							                    >
								<Coordinate point="0.031163 0.106082 -0.078831 0.070824 -0.069452 -0.092731 -0.031163 -0.106082 0.078831 -0.070824 0.069452 0.092731 0.070824 -0.069452 -0.092731 0.524938 0.010425 0.194275 0.422951 -0.026205 0.365838 -0.031163 -0.106082 0.078831 0.524938 0.010425 0.194275 0.485277 0.185958 0.208176 0.383290 0.149329 0.379738 0.422951 -0.026205 0.365838 0.485277 0.185958 0.208176 0.031163 0.106082 -0.078831 -0.070824 0.069452 0.092731 0.383290 0.149329 0.379738 0.485277 0.185958 0.208176 0.524938 0.010425 0.194275 0.422951 -0.026205 0.365838 0.383290 0.149329 0.379738 " />
								<Normal vector="-0.319407 0.580767 -0.748741 -0.065676 -0.542161 -0.837672 -0.646046 -0.750603 0.138554 -0.899777 0.372326 0.227485 -0.065676 -0.542161 -0.837672 0.899777 -0.372326 -0.227485 0.319407 -0.580767 0.748741 -0.646046 -0.750603 0.138554 0.899777 -0.372326 -0.227485 0.646046 0.750603 -0.138554 0.065676 0.542161 0.837672 0.319407 -0.580767 0.748741 0.646046 0.750603 -0.138554 -0.319407 0.580767 -0.748741 -0.899777 0.372326 0.227485 0.065676 0.542161 0.837672 0.646046 0.750603 -0.138554 0.899777 -0.372326 -0.227485 0.319407 -0.580767 0.748741 0.065676 0.542161 0.837672 " />
								<TextureCoordinate point="0.0605 0.5921 0.0605 0.9395 0.4079 0.9395 0.4079 0.5921 0.0605 0.5921 0.0605 0.9395 0.4079 0.9395 0.4079 0.5921 0.0605 0.5921 0.0605 0.9395 0.4079 0.9395 0.4079 0.5921 0.0605 0.5921 0.0605 0.9395 0.4079 0.9395 0.4079 0.5921 0.4079 0.9395 0.4079 0.5921 0.0605 0.5921 0.0605 0.9395 " />
							</IndexedTriangleSet>
						</Shape>
					</Group>
				</Transform>
				<Transform DEF="Cube_004_TRANSFORM"
				           translation="0.345220 0.062418 0.196775"
				           scale="1.000000 1.000000 1.000000"
				           rotation="0.000000 1.000000 0.000000 0.000000"
				           >
					<Transform DEF="Cube_004_ifs_TRANSFORM"
					           translation="0.000000 0.000000 0.000000"
					           scale="1.000000 1.000000 1.000000"
					           rotation="0.000000 1.000000 0.000000 0.000000"
					           >
						<Group DEF="group_ME_Cube_024">
							<Shape>
								<Appearance>
									<Material USE="MA_Body" />
								</Appearance>
								<IndexedTriangleSet solid="false"
								                    normalPerVertex="true"
								                    index="0 1 2 0 2 3 4 5 6 4 6 7 8 9 10 8 10 11 12 13 14 12 14 15 4 13 16 4 16 17 18 19 14 18 14 7 "
								                    >
									<Coordinate point="-0.070587 0.062823 -0.067755 -0.039214 -0.076030 -0.078751 0.070587 -0.062823 0.067755 0.039214 0.076030 0.078751 -0.039214 -0.076030 -0.078751 0.314621 0.025643 -0.353102 0.424421 0.038850 -0.206596 0.070587 -0.062823 0.067755 0.314621 0.025643 -0.353102 0.283247 0.164496 -0.342106 0.393048 0.177703 -0.195600 0.424421 0.038850 -0.206596 0.283247 0.164496 -0.342106 -0.070587 0.062823 -0.067755 0.039214 0.076030 0.078751 0.393048 0.177703 -0.195600 0.283247 0.164496 -0.342106 0.314621 0.025643 -0.353102 0.424421 0.038850 -0.206596 0.393048 0.177703 -0.195600 " />
									<Normal vector="-0.917142 0.392071 -0.071322 -0.663411 -0.730857 -0.160253 0.027253 -0.647786 0.761315 -0.226447 0.475143 0.850246 -0.663411 -0.730857 -0.160253 0.226447 -0.475143 -0.850246 0.917142 -0.392071 0.071322 0.027253 -0.647786 0.761315 0.226447 -0.475143 -0.850246 -0.027253 0.647786 -0.761315 0.663411 0.730857 0.160253 0.917142 -0.392071 0.071322 -0.027253 0.647786 -0.761315 -0.917142 0.392071 -0.071322 -0.226447 0.475143 0.850246 0.663411 0.730857 0.160253 -0.027253 0.647786 -0.761315 0.226447 -0.475143 -0.850246 0.917142 -0.392071 0.071322 0.663411 0.730857 0.160253 " />
									<TextureCoordinate point="0.0605 0.5921 0.0605 0.9395 0.4079 0.9395 0.4079 0.5921 0.0605 0.5921 0.0605 0.9395 0.4079 0.9395 0.4079 0.5921 0.0605 0.5921 0.0605 0.9395 0.4079 0.9395 0.4079 0.5921 0.0605 0.5921 0.0605 0.9395 0.4079 0.9395 0.4079 0.5921 0.4079 0.9395 0.4079 0.5921 0.0605 0.5921 0.0605 0.9395 " />
								</IndexedTriangleSet>
							</Shape>
						</Group>
					</Transform>
					<Transform DEF="Cube_006_TRANSFORM"
					           translation="0.332043 0.091826 -0.212185"
					           scale="1.000000 1.000000 1.000000"
					           rotation="0.000000 1.000000 0.000000 0.000000"
					           >
						<Transform DEF="Cube_006_ifs_TRANSFORM"
						           translation="0.000000 0.000000 0.000000"
						           scale="1.000000 1.000000 1.000000"
						           rotation="0.000000 1.000000 0.000000 0.000000"
						           >
							<Group DEF="group_ME_Cube_026">
								<Shape>
									<Appearance>
										<Material USE="MA_Body" />
									</Appearance>
									<IndexedTriangleSet solid="false"
									                    normalPerVertex="true"
									                    index="0 1 2 0 2 3 4 5 6 4 6 7 8 9 10 8 10 11 12 13 14 12 14 15 4 13 16 4 16 17 18 19 14 18 14 7 "
									                    >
										<Coordinate point="-0.075931 0.035535 0.006251 -0.053200 -0.065070 -0.001716 0.075931 -0.035535 -0.006251 0.053200 0.065070 0.001716 -0.053200 -0.065070 -0.001716 -0.074903 -0.036017 -0.430527 0.054228 -0.006481 -0.435061 0.075931 -0.035535 -0.006251 -0.074903 -0.036017 -0.430527 -0.097634 0.064589 -0.422560 0.031497 0.094124 -0.427094 0.054228 -0.006481 -0.435061 -0.097634 0.064589 -0.422560 -0.075931 0.035535 0.006251 0.053200 0.065070 0.001716 0.031497 0.094124 -0.427094 -0.097634 0.064589 -0.422560 -0.074903 -0.036017 -0.430527 0.054228 -0.006481 -0.435061 0.031497 0.094124 -0.427094 " />
										<Normal vector="-0.660207 0.393841 0.639485 -0.406476 -0.729087 0.550584 0.718467 -0.471786 0.511063 0.464736 0.651143 0.599994 -0.406476 -0.729087 0.550584 -0.464736 -0.651143 -0.599994 0.660207 -0.393841 -0.639485 0.718467 -0.471786 0.511063 -0.464736 -0.651143 -0.599994 -0.718467 0.471786 -0.511063 0.406476 0.729087 -0.550584 0.660207 -0.393841 -0.639485 -0.718467 0.471786 -0.511063 -0.660207 0.393841 0.639485 0.464736 0.651143 0.599994 0.406476 0.729087 -0.550584 -0.718467 0.471786 -0.511063 -0.464736 -0.651143 -0.599994 0.660207 -0.393841 -0.639485 0.406476 0.729087 -0.550584 " />
										<TextureCoordinate point="0.0605 0.5921 0.0605 0.9395 0.4079 0.9395 0.4079 0.5921 0.0605 0.5921 0.0605 0.9395 0.4079 0.9395 0.4079 0.5921 0.0605 0.5921 0.0605 0.9395 0.4079 0.9395 0.4079 0.5921 0.0605 0.5921 0.0605 0.9395 0.4079 0.9395 0.4079 0.5921 0.4079 0.9395 0.4079 0.5921 0.0605 0.5921 0.0605 0.9395 " />
									</IndexedTriangleSet>
								</Shape>
							</Group>
						</Transform>
					</Transform>
				</Transform>
			</Transform>
			<Transform DEF="mush2_TRANSFORM"
			           translation="-0.538993 -0.003238 1.053372"
			           scale="1.000000 1.000000 1.000000"
			           rotation="0.000000 1.000000 0.000000 0.000000"
			           >
				<Transform DEF="mush2_ifs_TRANSFORM"
				           translation="0.000000 0.000000 0.000000"
				           scale="1.000000 1.000000 1.000000"
				           rotation="0.000000 1.000000 0.000000 0.000000"
				           >
					<Group DEF="group_ME_mush2">
						<Shape>
							<Appearance>
								<Material USE="MA_Body" />
							</Appearance>
							<IndexedTriangleSet solid="false"
							                    normalPerVertex="true"
							                    index="0 1 2 0 2 3 4 5 6 4 6 7 "
							                    >
								<Coordinate point="0.339069 -0.678326 0.397239 -0.654544 -0.454268 1.627953 -1.332681 0.902385 0.833474 -0.339069 0.678326 -0.397239 -0.578284 -0.508282 -0.374340 -1.571897 -0.284223 0.856373 -0.415328 0.732340 1.605054 0.578284 0.508282 0.374340 " />
								<Normal vector="-0.675466 -0.593707 -0.437239 -0.675466 -0.593707 -0.437239 -0.675466 -0.593707 -0.437239 -0.675466 -0.593707 -0.437239 -0.396039 0.792352 -0.464003 -0.396039 0.792352 -0.464003 -0.396039 0.792352 -0.464003 -0.396039 0.792352 -0.464003 " />
								<TextureCoordinate point="0.5440 0.0321 0.5440 0.4560 0.9679 0.4560 0.9679 0.0321 0.5440 0.0321 0.5440 0.4560 0.9679 0.4560 0.9679 0.0321 " />
							</IndexedTriangleSet>
						</Shape>
					</Group>
				</Transform>
			</Transform>
			<Transform DEF="arm2_TRANSFORM"
			           translation="-0.647720 -0.665729 0.462896"
			           scale="1.000000 1.000000 1.000000"
			           rotation="0.000000 1.000000 0.000000 0.000000"
			           >
				<Transform DEF="arm2_ifs_TRANSFORM"
				           translation="0.000000 0.000000 0.000000"
				           scale="1.000000 1.000000 1.000000"
				           rotation="0.000000 1.000000 0.000000 0.000000"
				           >
					<Group DEF="group_ME_arm2">
						<Shape>
							<Appearance>
								<Material USE="MA_Body" />
							</Appearance>
							<IndexedTriangleSet solid="false"
							                    normalPerVertex="true"
							                    index="0 1 2 0 2 3 4 5 6 4 6 7 8 9 10 8 10 11 12 13 14 12 14 15 4 13 16 4 16 17 18 19 14 18 14 7 "
							                    >
								<Coordinate point="0.042710 -0.066694 -0.071206 -0.042710 0.066694 -0.071206 -0.042710 0.066694 0.071206 0.042710 -0.066694 0.071206 -0.042710 0.066694 -0.071206 -0.314713 -0.107495 -0.071206 -0.314713 -0.107495 0.071206 -0.042710 0.066694 0.071206 -0.314713 -0.107495 -0.071206 -0.229292 -0.240883 -0.071206 -0.229292 -0.240883 0.071206 -0.314713 -0.107495 0.071206 -0.229292 -0.240883 -0.071206 0.042710 -0.066694 -0.071206 0.042710 -0.066694 0.071206 -0.229292 -0.240883 0.071206 -0.229292 -0.240883 -0.071206 -0.314713 -0.107495 -0.071206 -0.314713 -0.107495 0.071206 -0.229292 -0.240883 0.071206 " />
								<Normal vector="0.797540 -0.174810 -0.577349 0.174810 0.797540 -0.577349 0.174810 0.797540 0.577349 0.797540 -0.174810 0.577349 0.174810 0.797540 -0.577349 -0.797540 0.174810 -0.577349 -0.797540 0.174810 0.577349 0.174810 0.797540 0.577349 -0.797540 0.174810 -0.577349 -0.174810 -0.797540 -0.577349 -0.174810 -0.797540 0.577349 -0.797540 0.174810 0.577349 -0.174810 -0.797540 -0.577349 0.797540 -0.174810 -0.577349 0.797540 -0.174810 0.577349 -0.174810 -0.797540 0.577349 -0.174810 -0.797540 -0.577349 -0.797540 0.174810 -0.577349 -0.797540 0.174810 0.577349 -0.174810 -0.797540 0.577349 " />
								<TextureCoordinate point="0.0605 0.5921 0.0605 0.9395 0.4079 0.9395 0.4079 0.5921 0.0605 0.5921 0.0605 0.9395 0.4079 0.9395 0.4079 0.5921 0.0605 0.5921 0.0605 0.9395 0.4079 0.9395 0.4079 0.5921 0.0605 0.5921 0.0605 0.9395 0.4079 0.9395 0.4079 0.5921 0.4079 0.9395 0.4079 0.5921 0.0605 0.5921 0.0605 0.9395 " />
							</IndexedTriangleSet>
						</Shape>
					</Group>
				</Transform>
				<Transform DEF="hand2_TRANSFORM"
				           translation="-0.625809 0.109130 0.241364"
				           scale="1.000000 1.000000 1.000000"
				           rotation="0.000000 1.000000 0.000000 0.000000"
				           >
					<Transform DEF="hand2_ifs_TRANSFORM"
					           translation="0.000000 0.000000 0.000000"
					           scale="1.000000 1.000000 1.000000"
					           rotation="0.000000 1.000000 0.000000 0.000000"
					           >
						<Group DEF="group_ME_hand2">
							<Shape>
								<Appearance>
									<Material USE="MA_Body" />
								</Appearance>
								<IndexedTriangleSet solid="false"
								                    normalPerVertex="true"
								                    index="0 1 2 0 2 3 4 5 6 4 6 7 8 9 10 8 10 11 12 13 14 12 14 15 4 13 16 4 16 17 18 19 14 18 14 7 "
								                    >
									<Coordinate point="0.692221 -0.838590 -0.986513 0.281121 0.245216 -0.188127 0.289930 -0.099223 0.283984 0.701030 -1.183030 -0.514402 0.281121 0.245216 -0.188127 -0.289930 0.099223 -0.283984 -0.281121 -0.245216 0.188127 0.289930 -0.099223 0.283984 -0.289930 0.099223 -0.283984 0.121170 -0.984583 -1.082370 0.129979 -1.329022 -0.610259 -0.281121 -0.245216 0.188127 0.121170 -0.984583 -1.082370 0.692221 -0.838590 -0.986513 0.701030 -1.183030 -0.514402 0.129979 -1.329022 -0.610259 0.121170 -0.984583 -1.082370 -0.289930 0.099223 -0.283984 -0.281121 -0.245216 0.188127 0.129979 -1.329022 -0.610259 " />
									<Normal vector="0.712027 0.036805 -0.701163 0.374767 0.925962 -0.046175 0.392163 0.245460 0.886502 0.729423 -0.643666 0.231513 0.374767 0.925962 -0.046175 -0.729423 0.643666 -0.231513 -0.712027 -0.036805 0.701163 0.392163 0.245460 0.886502 -0.729423 0.643666 -0.231513 -0.392163 -0.245460 -0.886502 -0.374767 -0.925962 0.046175 -0.712027 -0.036805 0.701163 -0.392163 -0.245460 -0.886502 0.712027 0.036805 -0.701163 0.729423 -0.643666 0.231513 -0.374767 -0.925962 0.046175 -0.392163 -0.245460 -0.886502 -0.729423 0.643666 -0.231513 -0.712027 -0.036805 0.701163 -0.374767 -0.925962 0.046175 " />
									<TextureCoordinate point="0.0605 0.5921 0.0605 0.9395 0.4079 0.9395 0.4079 0.5921 0.0605 0.5921 0.0605 0.9395 0.4079 0.9395 0.4079 0.5921 0.0605 0.5921 0.0605 0.9395 0.4079 0.9395 0.4079 0.5921 0.0605 0.5921 0.0605 0.9395 0.4079 0.9395 0.4079 0.5921 0.4079 0.9395 0.4079 0.5921 0.0605 0.5921 0.0605 0.9395 " />
								</IndexedTriangleSet>
							</Shape>
						</Group>
					</Transform>
					<Transform DEF="Cube_007_TRANSFORM"
					           translation="0.359963 -1.021532 -0.784225"
					           scale="1.000000 1.000000 1.000000"
					           rotation="0.000000 1.000000 0.000000 0.000000"
					           >
						<Transform DEF="Cube_007_ifs_TRANSFORM"
						           translation="0.000000 0.000000 0.000000"
						           scale="1.000000 1.000000 1.000000"
						           rotation="0.000000 1.000000 0.000000 0.000000"
						           >
							<Group DEF="group_ME_Cube_027">
								<Shape>
									<Appearance>
										<Material USE="MA_Body" />
									</Appearance>
									<IndexedTriangleSet solid="false"
									                    normalPerVertex="true"
									                    index="0 1 2 0 2 3 4 5 6 4 6 7 8 9 10 8 10 11 12 13 14 12 14 15 4 13 16 4 16 17 18 19 14 18 14 7 "
									                    >
										<Coordinate point="0.192976 -0.090353 -0.264276 0.074389 0.097608 -0.043057 0.090298 -0.041673 0.083813 0.208884 -0.229635 -0.137405 0.074389 0.097608 -0.043057 -0.090298 0.041673 -0.083813 -0.074389 -0.097608 0.043057 0.090298 -0.041673 0.083813 -0.090298 0.041673 -0.083813 0.028289 -0.146288 -0.305032 0.044197 -0.285570 -0.178161 -0.074389 -0.097608 0.043057 0.028289 -0.146288 -0.305032 0.192976 -0.090353 -0.264276 0.208884 -0.229635 -0.137405 0.044197 -0.285570 -0.178161 0.028289 -0.146288 -0.305032 -0.090298 0.041673 -0.083813 -0.074389 -0.097608 0.043057 0.044197 -0.285570 -0.178161 " />
										<Normal vector="0.702017 0.259987 -0.662984 0.265328 0.952147 0.151585 0.362499 0.101535 0.926420 0.799158 -0.590594 0.111820 0.265328 0.952147 0.151585 -0.799158 0.590594 -0.111820 -0.702017 -0.259987 0.662984 0.362499 0.101535 0.926420 -0.799158 0.590594 -0.111820 -0.362499 -0.101535 -0.926420 -0.265328 -0.952147 -0.151585 -0.702017 -0.259987 0.662984 -0.362499 -0.101535 -0.926420 0.702017 0.259987 -0.662984 0.799158 -0.590594 0.111820 -0.265328 -0.952147 -0.151585 -0.362499 -0.101535 -0.926420 -0.799158 0.590594 -0.111820 -0.702017 -0.259987 0.662984 -0.265328 -0.952147 -0.151585 " />
										<TextureCoordinate point="0.0605 0.5921 0.0605 0.9395 0.4079 0.9395 0.4079 0.5921 0.0605 0.5921 0.0605 0.9395 0.4079 0.9395 0.4079 0.5921 0.0605 0.5921 0.0605 0.9395 0.4079 0.9395 0.4079 0.5921 0.0605 0.5921 0.0605 0.9395 0.4079 0.9395 0.4079 0.5921 0.4079 0.9395 0.4079 0.5921 0.0605 0.5921 0.0605 0.9395 " />
									</IndexedTriangleSet>
								</Shape>
							</Group>
						</Transform>
					</Transform>
				</Transform>
			</Transform>
			<Transform DEF="leg2_TRANSFORM"
			           translation="-0.675403 -0.302833 0.159128"
			           scale="1.000000 1.000000 1.000000"
			           rotation="0.000000 1.000000 0.000000 0.000000"
			           >
				<Transform DEF="leg2_ifs_TRANSFORM"
				           translation="0.000000 0.000000 0.000000"
				           scale="1.000000 1.000000 1.000000"
				           rotation="0.000000 1.000000 0.000000 0.000000"
				           >
					<Group DEF="group_ME_leg2">
						<Shape>
							<Appearance>
								<Material USE="MA_Body" />
							</Appearance>
							<IndexedTriangleSet solid="false"
							                    normalPerVertex="true"
							                    index="0 1 2 0 2 3 4 5 6 4 6 7 8 9 10 8 10 11 12 13 14 12 14 15 4 13 16 4 16 17 18 19 14 18 14 7 "
							                    >
								<Coordinate point="-0.049064 -0.092709 -0.086236 -0.057726 0.087578 -0.086236 0.049064 0.092709 0.086236 0.057726 -0.087578 0.086236 -0.057726 0.087578 -0.086236 -0.518812 0.065424 0.199915 -0.412022 0.070555 0.372386 0.049064 0.092709 0.086236 -0.518812 0.065424 0.199915 -0.510149 -0.114863 0.199915 -0.403360 -0.109732 0.372386 -0.412022 0.070555 0.372386 -0.510149 -0.114863 0.199915 -0.049064 -0.092709 -0.086236 0.057726 -0.087578 0.086236 -0.403360 -0.109732 0.372386 -0.510149 -0.114863 0.199915 -0.518812 0.065424 0.199915 -0.412022 0.070555 0.372386 -0.403360 -0.109732 0.372386 " />
								<Normal vector="0.213996 -0.567705 -0.794885 0.158605 0.585620 -0.794885 0.766259 0.614826 0.186499 0.821680 -0.538530 0.186499 0.158605 0.585620 -0.794885 -0.821680 0.538530 -0.186499 -0.213996 0.567705 0.794885 0.766259 0.614826 0.186499 -0.821680 0.538530 -0.186499 -0.766259 -0.614826 -0.186499 -0.158605 -0.585620 0.794885 -0.213996 0.567705 0.794885 -0.766259 -0.614826 -0.186499 0.213996 -0.567705 -0.794885 0.821680 -0.538530 0.186499 -0.158605 -0.585620 0.794885 -0.766259 -0.614826 -0.186499 -0.821680 0.538530 -0.186499 -0.213996 0.567705 0.794885 -0.158605 -0.585620 0.794885 " />
								<TextureCoordinate point="0.0605 0.5921 0.0605 0.9395 0.4079 0.9395 0.4079 0.5921 0.0605 0.5921 0.0605 0.9395 0.4079 0.9395 0.4079 0.5921 0.0605 0.5921 0.0605 0.9395 0.4079 0.9395 0.4079 0.5921 0.0605 0.5921 0.0605 0.9395 0.4079 0.9395 0.4079 0.5921 0.4079 0.9395 0.4079 0.5921 0.0605 0.5921 0.0605 0.9395 " />
							</IndexedTriangleSet>
						</Shape>
					</Group>
				</Transform>
				<Transform DEF="Cube_009_TRANSFORM"
				           translation="-0.350813 -0.016856 0.196059"
				           scale="1.000000 1.000000 1.000000"
				           rotation="0.000000 1.000000 0.000000 0.000000"
				           >
					<Transform DEF="Cube_009_ifs_TRANSFORM"
					           translation="0.000000 0.000000 0.000000"
					           scale="1.000000 1.000000 1.000000"
					           rotation="0.000000 1.000000 0.000000 0.000000"
					           >
						<Group DEF="group_ME_Cube_029">
							<Shape>
								<Appearance>
									<Material USE="MA_Body" />
								</Appearance>
								<IndexedTriangleSet solid="false"
								                    normalPerVertex="true"
								                    index="0 1 2 0 2 3 4 5 6 4 6 7 8 9 10 8 10 11 12 13 14 12 14 15 4 13 16 4 16 17 18 19 14 18 14 7 "
								                    >
									<Coordinate point="0.058641 -0.068654 -0.073267 0.051788 0.073960 -0.073267 -0.058641 0.068654 0.073267 -0.051788 -0.073960 0.073267 0.051788 0.073960 -0.073267 -0.314308 0.056370 -0.349797 -0.424736 0.051064 -0.203264 -0.058641 0.068654 0.073267 -0.314308 0.056370 -0.349797 -0.307455 -0.086244 -0.349797 -0.417884 -0.091549 -0.203264 -0.424736 0.051064 -0.203264 -0.307455 -0.086244 -0.349797 0.058641 -0.068654 -0.073267 -0.051788 -0.073960 0.073267 -0.417884 -0.091549 -0.203264 -0.307455 -0.086244 -0.349797 -0.314308 0.056370 -0.349797 -0.424736 0.051064 -0.203264 -0.417884 -0.091549 -0.203264 " />
									<Normal vector="0.835383 -0.537858 -0.113132 0.779962 0.615467 -0.113132 0.085299 0.582110 0.808588 0.140721 -0.571245 0.808588 0.779962 0.615467 -0.113132 -0.140721 0.571245 -0.808588 -0.835383 0.537858 0.113132 0.085299 0.582110 0.808588 -0.140721 0.571245 -0.808588 -0.085299 -0.582110 -0.808588 -0.779962 -0.615467 0.113132 -0.835383 0.537858 0.113132 -0.085299 -0.582110 -0.808588 0.835383 -0.537858 -0.113132 0.140721 -0.571245 0.808588 -0.779962 -0.615467 0.113132 -0.085299 -0.582110 -0.808588 -0.140721 0.571245 -0.808588 -0.835383 0.537858 0.113132 -0.779962 -0.615467 0.113132 " />
									<TextureCoordinate point="0.0605 0.5921 0.0605 0.9395 0.4079 0.9395 0.4079 0.5921 0.0605 0.5921 0.0605 0.9395 0.4079 0.9395 0.4079 0.5921 0.0605 0.5921 0.0605 0.9395 0.4079 0.9395 0.4079 0.5921 0.0605 0.5921 0.0605 0.9395 0.4079 0.9395 0.4079 0.5921 0.4079 0.9395 0.4079 0.5921 0.0605 0.5921 0.0605 0.9395 " />
								</IndexedTriangleSet>
							</Shape>
						</Group>
					</Transform>
					<Transform DEF="Cube_010_TRANSFORM"
					           translation="-0.342929 -0.016477 -0.214093"
					           scale="1.000000 1.000000 1.000000"
					           rotation="0.000000 1.000000 0.000000 0.000000"
					           >
						<Transform DEF="Cube_010_ifs_TRANSFORM"
						           translation="0.000000 0.000000 0.000000"
						           scale="1.000000 1.000000 1.000000"
						           rotation="0.000000 1.000000 0.000000 0.000000"
						           >
							<Group DEF="group_ME_Cube_030">
								<Shape>
									<Appearance>
										<Material USE="MA_Body" />
									</Appearance>
									<IndexedTriangleSet solid="false"
									                    normalPerVertex="true"
									                    index="0 1 2 0 2 3 4 5 6 4 6 7 8 9 10 8 10 11 12 13 14 12 14 15 4 13 16 4 16 17 18 19 14 18 14 7 "
									                    >
										<Coordinate point="0.068630 -0.048487 0.002520 0.063665 0.054843 0.002520 -0.068630 0.048487 -0.002520 -0.063665 -0.054843 -0.002520 0.063665 0.054843 0.002520 0.080009 0.055628 -0.427510 -0.052286 0.049272 -0.432550 -0.068630 0.048487 -0.002520 0.080009 0.055628 -0.427510 0.084973 -0.047701 -0.427510 -0.047321 -0.054058 -0.432550 -0.052286 0.049272 -0.432550 0.084973 -0.047701 -0.427510 0.068630 -0.048487 0.002520 -0.063665 -0.054843 -0.002520 -0.047321 -0.054058 -0.432550 0.084973 -0.047701 -0.427510 0.080009 0.055628 -0.427510 -0.052286 0.049272 -0.432550 -0.047321 -0.054058 -0.432550 " />
										<Normal vector="0.582049 -0.550035 0.598865 0.526627 0.603290 0.598865 -0.625874 0.547929 0.554979 -0.570482 -0.605426 0.554979 0.526627 0.603290 0.598865 0.570482 0.605426 -0.554979 -0.582049 0.550035 -0.598865 -0.625874 0.547929 0.554979 0.570482 0.605426 -0.554979 0.625874 -0.547929 -0.554979 -0.526627 -0.603290 -0.598865 -0.582049 0.550035 -0.598865 0.625874 -0.547929 -0.554979 0.582049 -0.550035 0.598865 -0.570482 -0.605426 0.554979 -0.526627 -0.603290 -0.598865 0.625874 -0.547929 -0.554979 0.570482 0.605426 -0.554979 -0.582049 0.550035 -0.598865 -0.526627 -0.603290 -0.598865 " />
										<TextureCoordinate point="0.0605 0.5921 0.0605 0.9395 0.4079 0.9395 0.4079 0.5921 0.0605 0.5921 0.0605 0.9395 0.4079 0.9395 0.4079 0.5921 0.0605 0.5921 0.0605 0.9395 0.4079 0.9395 0.4079 0.5921 0.0605 0.5921 0.0605 0.9395 0.4079 0.9395 0.4079 0.5921 0.4079 0.9395 0.4079 0.5921 0.0605 0.5921 0.0605 0.9395 " />
									</IndexedTriangleSet>
								</Shape>
							</Group>
						</Transform>
					</Transform>
				</Transform>
			</Transform>
			<Transform DEF="leg3_TRANSFORM"
			           translation="-0.675403 0.171883 0.159128"
			           scale="1.000000 1.000000 1.000000"
			           rotation="0.000000 1.000000 0.000000 0.000000"
			           >
				<Transform DEF="leg3_ifs_TRANSFORM"
				           translation="0.000000 0.000000 0.000000"
				           scale="1.000000 1.000000 1.000000"
				           rotation="0.000000 1.000000 0.000000 0.000000"
				           >
					<Group DEF="group_ME_leg3">
						<Shape>
							<Appearance>
								<Material USE="MA_Body" />
							</Appearance>
							<IndexedTriangleSet solid="false"
							                    normalPerVertex="true"
							                    index="0 1 2 0 2 3 4 5 6 4 6 7 8 9 10 8 10 11 12 13 14 12 14 15 4 16 17 4 17 15 18 5 14 18 14 19 "
							                    >
								<Coordinate point="-0.031163 0.106082 -0.078831 0.070824 0.069452 0.092731 0.031163 -0.106082 0.078831 -0.070824 -0.069452 -0.092731 -0.070824 -0.069452 -0.092731 0.031163 -0.106082 0.078831 -0.422951 -0.026205 0.365838 -0.524938 0.010425 0.194275 -0.524938 0.010425 0.194275 -0.422951 -0.026205 0.365838 -0.383290 0.149329 0.379738 -0.485277 0.185958 0.208176 -0.485277 0.185958 0.208176 -0.383290 0.149329 0.379738 0.070824 0.069452 0.092731 -0.031163 0.106082 -0.078831 -0.524938 0.010425 0.194275 -0.485277 0.185958 0.208176 -0.422951 -0.026205 0.365838 -0.383290 0.149329 0.379738 " />
								<Normal vector="0.319407 0.580767 -0.748741 0.899777 0.372326 0.227485 0.646046 -0.750603 0.138554 0.065676 -0.542161 -0.837672 0.065676 -0.542161 -0.837672 0.646046 -0.750603 0.138554 -0.319407 -0.580767 0.748741 -0.899777 -0.372326 -0.227485 -0.899777 -0.372326 -0.227485 -0.319407 -0.580767 0.748741 -0.065676 0.542161 0.837672 -0.646046 0.750603 -0.138554 -0.646046 0.750603 -0.138554 -0.065676 0.542161 0.837672 0.899777 0.372326 0.227485 0.319407 0.580767 -0.748741 -0.899777 -0.372326 -0.227485 -0.646046 0.750603 -0.138554 -0.319407 -0.580767 0.748741 -0.065676 0.542161 0.837672 " />
								<TextureCoordinate point="0.0605 0.5921 0.4079 0.5921 0.4079 0.9395 0.0605 0.9395 0.0605 0.5921 0.4079 0.5921 0.4079 0.9395 0.0605 0.9395 0.0605 0.5921 0.4079 0.5921 0.4079 0.9395 0.0605 0.9395 0.0605 0.5921 0.4079 0.5921 0.4079 0.9395 0.0605 0.9395 0.4079 0.5921 0.4079 0.9395 0.0605 0.5921 0.0605 0.9395 " />
							</IndexedTriangleSet>
						</Shape>
					</Group>
				</Transform>
				<Transform DEF="Cube_019_TRANSFORM"
				           translation="-0.345220 0.062418 0.196775"
				           scale="1.000000 1.000000 1.000000"
				           rotation="0.000000 1.000000 0.000000 0.000000"
				           >
					<Transform DEF="Cube_019_ifs_TRANSFORM"
					           translation="0.000000 0.000000 0.000000"
					           scale="1.000000 1.000000 1.000000"
					           rotation="0.000000 1.000000 0.000000 0.000000"
					           >
						<Group DEF="group_ME_Cube_039">
							<Shape>
								<Appearance>
									<Material USE="MA_Body" />
								</Appearance>
								<IndexedTriangleSet solid="false"
								                    normalPerVertex="true"
								                    index="0 1 2 0 2 3 4 5 6 4 6 7 8 9 10 8 10 11 12 13 14 12 14 15 4 16 17 4 17 15 18 5 14 18 14 19 "
								                    >
									<Coordinate point="0.070587 0.062823 -0.067755 -0.039214 0.076030 0.078751 -0.070587 -0.062823 0.067755 0.039214 -0.076030 -0.078751 0.039214 -0.076030 -0.078751 -0.070587 -0.062823 0.067755 -0.424421 0.038850 -0.206596 -0.314621 0.025643 -0.353102 -0.314621 0.025643 -0.353102 -0.424421 0.038850 -0.206596 -0.393048 0.177703 -0.195600 -0.283247 0.164496 -0.342106 -0.283247 0.164496 -0.342106 -0.393048 0.177703 -0.195600 -0.039214 0.076030 0.078751 0.070587 0.062823 -0.067755 -0.314621 0.025643 -0.353102 -0.283247 0.164496 -0.342106 -0.424421 0.038850 -0.206596 -0.393048 0.177703 -0.195600 " />
									<Normal vector="0.917142 0.392071 -0.071322 0.226447 0.475143 0.850246 -0.027253 -0.647786 0.761315 0.663411 -0.730857 -0.160253 0.663411 -0.730857 -0.160253 -0.027253 -0.647786 0.761315 -0.917142 -0.392071 0.071322 -0.226447 -0.475143 -0.850246 -0.226447 -0.475143 -0.850246 -0.917142 -0.392071 0.071322 -0.663411 0.730857 0.160253 0.027253 0.647786 -0.761315 0.027253 0.647786 -0.761315 -0.663411 0.730857 0.160253 0.226447 0.475143 0.850246 0.917142 0.392071 -0.071322 -0.226447 -0.475143 -0.850246 0.027253 0.647786 -0.761315 -0.917142 -0.392071 0.071322 -0.663411 0.730857 0.160253 " />
									<TextureCoordinate point="0.0605 0.5921 0.4079 0.5921 0.4079 0.9395 0.0605 0.9395 0.0605 0.5921 0.4079 0.5921 0.4079 0.9395 0.0605 0.9395 0.0605 0.5921 0.4079 0.5921 0.4079 0.9395 0.0605 0.9395 0.0605 0.5921 0.4079 0.5921 0.4079 0.9395 0.0605 0.9395 0.4079 0.5921 0.4079 0.9395 0.0605 0.5921 0.0605 0.9395 " />
								</IndexedTriangleSet>
							</Shape>
						</Group>
					</Transform>
					<Transform DEF="Cube_020_TRANSFORM"
					           translation="-0.332043 0.091826 -0.212185"
					           scale="1.000000 1.000000 1.000000"
					           rotation="0.000000 1.000000 0.000000 0.000000"
					           >
						<Transform DEF="Cube_020_ifs_TRANSFORM"
						           translation="0.000000 0.000000 0.000000"
						           scale="1.000000 1.000000 1.000000"
						           rotation="0.000000 1.000000 0.000000 0.000000"
						           >
							<Group DEF="group_ME_Cube_040">
								<Shape>
									<Appearance>
										<Material USE="MA_Body" />
									</Appearance>
									<IndexedTriangleSet solid="false"
									                    normalPerVertex="true"
									                    index="0 1 2 0 2 3 4 5 6 4 6 7 8 9 10 8 10 11 12 13 14 12 14 15 4 16 17 4 17 15 18 5 14 18 14 19 "
									                    >
										<Coordinate point="0.075931 0.035535 0.006251 -0.053200 0.065070 0.001716 -0.075931 -0.035535 -0.006251 0.053200 -0.065070 -0.001716 0.053200 -0.065070 -0.001716 -0.075931 -0.035535 -0.006251 -0.054228 -0.006481 -0.435061 0.074903 -0.036017 -0.430527 0.074903 -0.036017 -0.430527 -0.054228 -0.006481 -0.435061 -0.031497 0.094124 -0.427094 0.097634 0.064589 -0.422560 0.097634 0.064589 -0.422560 -0.031497 0.094124 -0.427094 -0.053200 0.065070 0.001716 0.075931 0.035535 0.006251 0.074903 -0.036017 -0.430527 0.097634 0.064589 -0.422560 -0.054228 -0.006481 -0.435061 -0.031497 0.094124 -0.427094 " />
										<Normal vector="0.660207 0.393841 0.639485 -0.464736 0.651143 0.599994 -0.718467 -0.471786 0.511063 0.406476 -0.729087 0.550584 0.406476 -0.729087 0.550584 -0.718467 -0.471786 0.511063 -0.660207 -0.393841 -0.639485 0.464736 -0.651143 -0.599994 0.464736 -0.651143 -0.599994 -0.660207 -0.393841 -0.639485 -0.406476 0.729087 -0.550584 0.718467 0.471786 -0.511063 0.718467 0.471786 -0.511063 -0.406476 0.729087 -0.550584 -0.464736 0.651143 0.599994 0.660207 0.393841 0.639485 0.464736 -0.651143 -0.599994 0.718467 0.471786 -0.511063 -0.660207 -0.393841 -0.639485 -0.406476 0.729087 -0.550584 " />
										<TextureCoordinate point="0.0605 0.5921 0.4079 0.5921 0.4079 0.9395 0.0605 0.9395 0.0605 0.5921 0.4079 0.5921 0.4079 0.9395 0.0605 0.9395 0.0605 0.5921 0.4079 0.5921 0.4079 0.9395 0.0605 0.9395 0.0605 0.5921 0.4079 0.5921 0.4079 0.9395 0.0605 0.9395 0.4079 0.5921 0.4079 0.9395 0.0605 0.5921 0.0605 0.9395 " />
									</IndexedTriangleSet>
								</Shape>
							</Group>
						</Transform>
					</Transform>
				</Transform>
			</Transform>
		</Transform>
	</Scene>
</X3D>