<?xml version="1.0" encoding="UTF-8"?>
<!DOCTYPE X3D PUBLIC "ISO//Web3D//DTD X3D 3.0//EN" "http://www.web3d.org/specifications/x3d-3.0.dtd">
<X3D version="3.0" profile="Immersive" xmlns:xsd="http://www.w3.org/2001/XMLSchema-instance" xsd:noNamespaceSchemaLocation="http://www.web3d.org/specifications/x3d-3.0.xsd">
	<head>
		<meta name="filename" content="pawniard.x3d" />
		<meta name="generator" content="Blender 2.93.18" />
	</head>
	<Scene>
		<NavigationInfo headlight="true"
		                visibilityLimit="0.0"
		                type='"EXAMINE", "ANY"'
		                avatarSize="0.25, 1.75, 0.75"
		                />
		<Background DEF="WO_World"
		            groundColor="0.051 0.051 0.051"
		            skyColor="0.051 0.051 0.051"
		            />
		<Transform DEF="body_TRANSFORM"
		           translation="0.000000 -0.046125 1.343911"
		           scale="1.000000 1.000000 1.000000"
		           rotation="0.000000 0.000000 1.000000 3.141593"
		           >
			<Transform DEF="body_ifs_TRANSFORM"
			           translation="0.000000 0.000000 0.000000"
			           scale="1.000000 1.000000 1.000000"
			           rotation="0.000000 1.000000 0.000000 0.000000"
			           >
				<Group DEF="group_ME_body">
					<Shape>
						<Appearance>
							<Material DEF="MA_Body"
							          diffuseColor="0.800 0.800 0.800"
							          specularColor="0.401 0.401 0.401"
							          emissiveColor="0.000 0.000 0.000"
							          ambientIntensity="0.000"
							          shininess="0.500"
							          transparency="0.0"
							          />
						</Appearance>
						<IndexedTriangleSet solid="false"
						                    normalPerVertex="true"
						                    index="0 1 2 0 2 3 4 5 6 4 6 7 8 9 10 8 10 11 12 13 14 12 14 15 4 16 17 4 17 15 18 5 14 18 14 19 "
						                    >
							<Coordinate point="-0.741109 -0.681650 0.000000 -0.741109 -0.681650 0.540287 -0.741109 0.681650 0.540287 -0.741109 0.681650 0.000000 -0.741109 0.681650 0.000000 -0.741109 0.681650 0.540287 0.741109 0.681650 0.540287 0.741109 0.681650 0.000000 0.741109 0.681650 0.000000 0.741109 0.681650 0.540287 0.741109 -0.681650 0.540287 0.741109 -0.681650 0.000000 0.741109 -0.681650 0.000000 0.741109 -0.681650 0.540287 -0.741109 -0.681650 0.540287 -0.741109 -0.681650 0.000000 0.741109 0.681650 0.000000 0.741109 -0.681650 0.000000 0.741109 0.681650 0.540287 0.741109 -0.681650 0.540287 " />
							<Normal vector="-0.577349 -0.577349 -0.577349 -0.577349 -0.577349 0.577349 -0.577349 0.577349 0.577349 -0.577349 0.577349 -0.577349 -0.577349 0.577349 -0.577349 -0.577349 0.577349 0.577349 0.577349 0.577349 0.577349 0.577349 0.577349 -0.577349 0.577349 0.577349 -0.577349 0.577349 0.577349 0.577349 0.577349 -0.577349 0.577349 0.577349 -0.577349 -0.577349 0.577349 -0.577349 -0.577349 0.577349 -0.577349 0.577349 -0.577349 -0.577349 0.577349 -0.577349 -0.577349 -0.577349 0.577349 0.577349 -0.577349 0.577349 -0.577349 -0.577349 0.577349 0.577349 0.577349 0.577349 -0.577349 0.577349 " />
							<TextureCoordinate point="0.0277 0.5268 0.4701 0.5268 0.4701 0.9692 0.0277 0.9692 0.0277 0.5268 0.4701 0.5268 0.4701 0.9692 0.0277 0.9692 0.0277 0.5268 0.4701 0.5268 0.4701 0.9692 0.0277 0.9692 0.0277 0.5268 0.4701 0.5268 0.4701 0.9692 0.0277 0.9692 0.4701 0.5268 0.4701 0.9692 0.0277 0.5268 0.0277 0.9692 " />
						</IndexedTriangleSet>
					</Shape>
				</Group>
			</Transform>
			<Transform DEF="body1_TRANSFORM"
			           translation="0.000000 0.000000 0.507380"
			           scale="1.000000 1.000000 1.000000"
			           rotation="0.000000 1.000000 0.000000 0.000000"
			           >
				<Transform DEF="body1_ifs_TRANSFORM"
				           translation="0.000000 0.000000 0.000000"
				           scale="1.000000 1.000000 1.000000"
				           rotation="0.000000 1.000000 0.000000 0.000000"
				           >
					<Group DEF="group_ME_body1">
						<Shape>
							<Appearance>
								<Material USE="MA_Body" />
							</Appearance>
							<IndexedTriangleSet solid="false"
							                    normalPerVertex="true"
							                    index="0 1 2 0 2 3 4 5 6 4 6 7 8 9 10 8 10 11 12 13 14 12 14 15 4 16 17 4 17 15 18 5 14 18 14 19 "
							                    >
								<Coordinate point="-0.816619 -0.780965 0.000000 -0.816619 -0.780965 0.695155 -0.816619 0.780965 0.695155 -0.816619 0.780965 0.000000 -0.816619 0.780965 0.000000 -0.816619 0.780965 0.695155 0.816619 0.780965 0.695155 0.816619 0.780965 0.000000 0.816619 0.780965 0.000000 0.816619 0.780965 0.695155 0.816619 -0.780965 0.695155 0.816619 -0.780965 0.000000 0.816619 -0.780965 0.000000 0.816619 -0.780965 0.695155 -0.816619 -0.780965 0.695155 -0.816619 -0.780965 0.000000 0.816619 0.780965 0.000000 0.816619 -0.780965 0.000000 0.816619 0.780965 0.695155 0.816619 -0.780965 0.695155 " />
								<Normal vector="-0.577349 -0.577349 -0.577349 -0.577349 -0.577349 0.577349 -0.577349 0.577349 0.577349 -0.577349 0.577349 -0.577349 -0.577349 0.577349 -0.577349 -0.577349 0.577349 0.577349 0.577349 0.577349 0.577349 0.577349 0.577349 -0.577349 0.577349 0.577349 -0.577349 0.577349 0.577349 0.577349 0.577349 -0.577349 0.577349 0.577349 -0.577349 -0.577349 0.577349 -0.577349 -0.577349 0.577349 -0.577349 0.577349 -0.577349 -0.577349 0.577349 -0.577349 -0.577349 -0.577349 0.577349 0.577349 -0.577349 0.577349 -0.577349 -0.577349 0.577349 0.577349 0.577349 0.577349 -0.577349 0.577349 " />
								<TextureCoordinate point="0.0277 0.5268 0.4701 0.5268 0.4701 0.9692 0.0277 0.9692 0.0277 0.5268 0.4701 0.5268 0.4701 0.9692 0.0277 0.9692 0.0277 0.5268 0.4701 0.5268 0.4701 0.9692 0.0277 0.9692 0.0277 0.5268 0.4701 0.5268 0.4701 0.9692 0.0277 0.9692 0.4701 0.5268 0.4701 0.9692 0.0277 0.5268 0.0277 0.9692 " />
							</IndexedTriangleSet>
						</Shape>
					</Group>
				</Transform>
				<Transform DEF="Cube_002_TRANSFORM"
				           translation="0.000000 0.000000 0.673432"
				           scale="1.000000 1.000000 1.000000"
				           rotation="0.000000 1.000000 0.000000 0.000000"
				           >
					<Transform DEF="Cube_002_ifs_TRANSFORM"
					           translation="0.000000 0.000000 0.000000"
					           scale="1.000000 1.000000 1.000000"
					           rotation="0.000000 1.000000 0.000000 0.000000"
					           >
						<Group DEF="group_ME_Cube_002">
							<Shape>
								<Appearance>
									<Material USE="MA_Body" />
								</Appearance>
								<IndexedTriangleSet solid="false"
								                    normalPerVertex="true"
								                    index="0 1 2 0 2 3 4 5 6 4 6 7 8 9 10 8 10 11 12 13 14 12 14 15 4 16 17 4 17 15 18 5 14 18 14 19 "
								                    >
									<Coordinate point="-0.714346 -0.698006 0.000000 -0.714346 -0.698006 0.751023 -0.714346 0.698006 0.751023 -0.714346 0.698006 0.000000 -0.714346 0.698006 0.000000 -0.714346 0.698006 0.751023 0.714346 0.698006 0.751023 0.714346 0.698006 0.000000 0.714346 0.698006 0.000000 0.714346 0.698006 0.751023 0.714346 -0.698006 0.751023 0.714346 -0.698006 0.000000 0.714346 -0.698006 0.000000 0.714346 -0.698006 0.751023 -0.714346 -0.698006 0.751023 -0.714346 -0.698006 0.000000 0.714346 0.698006 0.000000 0.714346 -0.698006 0.000000 0.714346 0.698006 0.751023 0.714346 -0.698006 0.751023 " />
									<Normal vector="-0.577349 -0.577349 -0.577349 -0.577349 -0.577349 0.577349 -0.577349 0.577349 0.577349 -0.577349 0.577349 -0.577349 -0.577349 0.577349 -0.577349 -0.577349 0.577349 0.577349 0.577349 0.577349 0.577349 0.577349 0.577349 -0.577349 0.577349 0.577349 -0.577349 0.577349 0.577349 0.577349 0.577349 -0.577349 0.577349 0.577349 -0.577349 -0.577349 0.577349 -0.577349 -0.577349 0.577349 -0.577349 0.577349 -0.577349 -0.577349 0.577349 -0.577349 -0.577349 -0.577349 0.577349 0.577349 -0.577349 0.577349 -0.577349 -0.577349 0.577349 0.577349 0.577349 0.577349 -0.577349 0.577349 " />
									<TextureCoordinate point="0.0277 0.5268 0.4701 0.5268 0.4701 0.9692 0.0277 0.9692 0.0277 0.5268 0.4701 0.5268 0.4701 0.9692 0.0277 0.9692 0.0277 0.5268 0.4701 0.5268 0.4701 0.9692 0.0277 0.9692 0.0277 0.5268 0.4701 0.5268 0.4701 0.9692 0.0277 0.9692 0.4701 0.5268 0.4701 0.9692 0.0277 0.5268 0.0277 0.9692 " />
								</IndexedTriangleSet>
							</Shape>
						</Group>
					</Transform>
				</Transform>
				<Transform DEF="head_TRANSFORM"
				           translation="0.000000 0.000000 1.420664"
				           scale="1.000000 1.000000 1.000000"
				           rotation="0.000000 1.000000 0.000000 0.000000"
				           >
					<Transform DEF="head_ifs_TRANSFORM"
					           translation="0.000000 0.000000 0.000000"
					           scale="1.000000 1.000000 1.000000"
					           rotation="0.000000 1.000000 0.000000 0.000000"
					           >
						<Group DEF="group_ME_head">
							<Shape>
								<Appearance>
									<Material USE="MA_Body" />
								</Appearance>
								<IndexedTriangleSet solid="false"
								                    normalPerVertex="true"
								                    index="0 1 2 0 2 3 4 5 6 4 6 7 8 9 10 8 10 11 12 13 14 12 14 15 4 16 17 4 17 15 18 5 14 18 14 19 "
								                    >
									<Coordinate point="-1.123914 -0.839598 0.000000 -1.123914 -0.839598 1.337093 -1.123914 1.028621 1.337093 -1.123914 1.028621 0.000000 -1.123914 1.028621 0.000000 -1.123914 1.028621 1.337093 1.123914 1.028621 1.337093 1.123914 1.028621 0.000000 1.123914 1.028621 0.000000 1.123914 1.028621 1.337093 1.123914 -0.839598 1.337093 1.123914 -0.839598 0.000000 1.123914 -0.839598 0.000000 1.123914 -0.839598 1.337093 -1.123914 -0.839598 1.337093 -1.123914 -0.839598 0.000000 1.123914 1.028621 0.000000 1.123914 -0.839598 0.000000 1.123914 1.028621 1.337093 1.123914 -0.839598 1.337093 " />
									<Normal vector="-0.577349 -0.577349 -0.577349 -0.577349 -0.577349 0.577349 -0.577349 0.577349 0.577349 -0.577349 0.577349 -0.577349 -0.577349 0.577349 -0.577349 -0.577349 0.577349 0.577349 0.577349 0.577349 0.577349 0.577349 0.577349 -0.577349 0.577349 0.577349 -0.577349 0.577349 0.577349 0.577349 0.577349 -0.577349 0.577349 0.577349 -0.577349 -0.577349 0.577349 -0.577349 -0.577349 0.577349 -0.577349 0.577349 -0.577349 -0.577349 0.577349 -0.577349 -0.577349 -0.577349 0.577349 0.577349 -0.577349 0.577349 -0.577349 -0.577349 0.577349 0.577349 0.577349 0.577349 -0.577349 0.577349 " />
									<TextureCoordinate point="0.0277 0.5268 0.4701 0.5268 0.4701 0.9692 0.0277 0.9692 0.0277 0.5268 0.4701 0.5268 0.4701 0.9692 0.0277 0.9692 0.0277 0.5268 0.4701 0.5268 0.4701 0.9692 0.0277 0.9692 0.0277 0.5268 0.4701 0.5268 0.4701 0.9692 0.0277 0.9692 0.4701 0.5268 0.4701 0.9692 0.0277 0.5268 0.0277 0.9692 " />
								</IndexedTriangleSet>
							</Shape>
						</Group>
					</Transform>
					<Transform DEF="Cube_004_TRANSFORM"
					           translation="0.000000 -0.110701 1.057196"
					           scale="1.000000 1.000000 1.000000"
					           rotation="0.000000 1.000000 0.000000 0.000000"
					           >
						<Transform DEF="Cube_004_ifs_TRANSFORM"
						           translation="0.000000 0.000000 0.000000"
						           scale="1.000000 1.000000 1.000000"
						           rotation="0.000000 1.000000 0.000000 0.000000"
						           >
							<Group DEF="group_ME_Cube_004">
								<Shape>
									<Appearance>
										<Material USE="MA_Body" />
									</Appearance>
									<IndexedTriangleSet solid="false"
									                    normalPerVertex="true"
									                    index="0 1 2 0 2 3 4 5 6 4 6 7 8 9 10 8 10 11 12 13 14 12 14 15 4 16 17 4 17 15 18 5 14 18 14 19 "
									                    >
										<Coordinate point="-1.259032 -1.326941 0.000000 -1.259032 -1.326941 1.273992 -1.259032 1.326941 1.273992 -1.259032 1.326941 0.000000 -1.259032 1.326941 0.000000 -1.259032 1.326941 1.273992 1.259032 1.326941 1.273992 1.259032 1.326941 0.000000 1.259032 1.326941 0.000000 1.259032 1.326941 1.273992 1.259032 -1.326941 1.273992 1.259032 -1.326941 0.000000 1.259032 -1.326941 0.000000 1.259032 -1.326941 1.273992 -1.259032 -1.326941 1.273992 -1.259032 -1.326941 0.000000 1.259032 1.326941 0.000000 1.259032 -1.326941 0.000000 1.259032 1.326941 1.273992 1.259032 -1.326941 1.273992 " />
										<Normal vector="-0.577349 -0.577349 -0.577349 -0.577349 -0.577349 0.577349 -0.577349 0.577349 0.577349 -0.577349 0.577349 -0.577349 -0.577349 0.577349 -0.577349 -0.577349 0.577349 0.577349 0.577349 0.577349 0.577349 0.577349 0.577349 -0.577349 0.577349 0.577349 -0.577349 0.577349 0.577349 0.577349 0.577349 -0.577349 0.577349 0.577349 -0.577349 -0.577349 0.577349 -0.577349 -0.577349 0.577349 -0.577349 0.577349 -0.577349 -0.577349 0.577349 -0.577349 -0.577349 -0.577349 0.577349 0.577349 -0.577349 0.577349 -0.577349 -0.577349 0.577349 0.577349 0.577349 0.577349 -0.577349 0.577349 " />
										<TextureCoordinate point="0.0277 0.5268 0.4701 0.5268 0.4701 0.9692 0.0277 0.9692 0.0277 0.5268 0.4701 0.5268 0.4701 0.9692 0.0277 0.9692 0.0277 0.5268 0.4701 0.5268 0.4701 0.9692 0.0277 0.9692 0.0277 0.5268 0.4701 0.5268 0.4701 0.9692 0.0277 0.9692 0.4701 0.5268 0.4701 0.9692 0.0277 0.5268 0.0277 0.9692 " />
									</IndexedTriangleSet>
								</Shape>
							</Group>
						</Transform>
						<Transform DEF="Cube_005_TRANSFORM"
						           translation="0.000000 0.461255 0.035977"
						           scale="1.000000 1.000000 1.000000"
						           rotation="0.000000 1.000000 0.000000 0.000000"
						           >
							<Transform DEF="Cube_005_ifs_TRANSFORM"
							           translation="0.000000 0.000000 0.000000"
							           scale="1.000000 1.000000 1.000000"
							           rotation="0.000000 1.000000 0.000000 0.000000"
							           >
								<Group DEF="group_ME_Cube_005">
									<Shape>
										<Appearance>
											<Material USE="MA_Body" />
										</Appearance>
										<IndexedTriangleSet solid="false"
										                    normalPerVertex="true"
										                    index="0 1 2 0 2 3 4 5 6 4 6 7 8 9 10 8 10 11 12 13 14 12 14 15 4 16 17 4 17 15 18 5 14 18 14 19 "
										                    >
											<Coordinate point="-1.435869 0.969757 0.000001 -1.435869 0.969758 -0.829448 -1.435869 -0.969757 -0.829449 -1.435869 -0.969757 -0.000001 -1.435869 -0.969757 -0.000001 -1.435869 -0.969757 -0.829449 1.435869 -0.969757 -0.829449 1.435869 -0.969757 -0.000001 1.435869 -0.969757 -0.000001 1.435869 -0.969757 -0.829449 1.435869 0.969758 -0.829448 1.435869 0.969757 0.000001 1.435869 0.969757 0.000001 1.435869 0.969758 -0.829448 -1.435869 0.969758 -0.829448 -1.435869 0.969757 0.000001 1.435869 -0.969757 -0.000001 1.435869 0.969757 0.000001 1.435869 -0.969757 -0.829449 1.435869 0.969758 -0.829448 " />
											<Normal vector="-0.577349 0.577349 0.577349 -0.577349 0.577349 -0.577349 -0.577349 -0.577349 -0.577349 -0.577349 -0.577349 0.577349 -0.577349 -0.577349 0.577349 -0.577349 -0.577349 -0.577349 0.577349 -0.577349 -0.577349 0.577349 -0.577349 0.577349 0.577349 -0.577349 0.577349 0.577349 -0.577349 -0.577349 0.577349 0.577349 -0.577349 0.577349 0.577349 0.577349 0.577349 0.577349 0.577349 0.577349 0.577349 -0.577349 -0.577349 0.577349 -0.577349 -0.577349 0.577349 0.577349 0.577349 -0.577349 0.577349 0.577349 0.577349 0.577349 0.577349 -0.577349 -0.577349 0.577349 0.577349 -0.577349 " />
											<TextureCoordinate point="0.0277 0.5268 0.4701 0.5268 0.4701 0.9692 0.0277 0.9692 0.0277 0.5268 0.4701 0.5268 0.4701 0.9692 0.0277 0.9692 0.0277 0.5268 0.4701 0.5268 0.4701 0.9692 0.0277 0.9692 0.0277 0.5268 0.4701 0.5268 0.4701 0.9692 0.0277 0.9692 0.4701 0.5268 0.4701 0.9692 0.0277 0.5268 0.0277 0.9692 " />
										</IndexedTriangleSet>
									</Shape>
								</Group>
							</Transform>
						</Transform>
						<Transform DEF="Cube_006_TRANSFORM"
						           translation="0.000000 -0.557433 0.191360"
						           scale="1.000000 1.000000 1.000000"
						           rotation="0.000000 1.000000 0.000000 0.000000"
						           >
							<Transform DEF="Cube_006_ifs_TRANSFORM"
							           translation="0.000000 0.000000 0.000000"
							           scale="1.000000 1.000000 1.000000"
							           rotation="0.000000 1.000000 0.000000 0.000000"
							           >
								<Group DEF="group_ME_Cube_006">
									<Shape>
										<Appearance>
											<Material USE="MA_Body" />
										</Appearance>
										<IndexedTriangleSet solid="false"
										                    normalPerVertex="true"
										                    index="0 1 2 0 2 3 4 5 6 4 6 7 8 9 10 8 10 11 12 13 14 12 14 15 16 17 18 16 18 19 20 5 14 20 14 21 22 23 24 22 24 19 25 26 27 25 27 28 16 29 30 16 30 31 32 33 34 32 34 35 "
										                    >
											<Coordinate point="-0.078061 -1.147161 0.107942 -0.078061 -0.464312 1.246075 -0.078061 0.426829 0.711414 -0.078061 -0.256020 -0.426719 -0.078061 -0.256020 -0.426719 -0.078061 0.426829 0.711414 0.078061 0.426829 0.711414 0.078061 -0.256020 -0.426719 0.078061 -0.256020 -0.426719 0.078061 0.426829 0.711414 0.078061 -0.464312 1.246075 0.078061 -1.147161 0.107942 0.078061 -1.147161 0.107942 0.078061 -0.464312 1.246075 -0.078061 -0.464312 1.246075 -0.078061 -1.147161 0.107942 -0.078061 -0.426829 -0.711414 0.078061 -0.426829 -0.711414 0.078061 -1.317970 -0.176754 -0.078061 -1.317970 -0.176754 0.078061 0.426829 0.711414 0.078061 -0.464312 1.246075 0.078061 -1.317970 -0.176754 0.078061 -1.147161 0.107942 -0.078061 -1.147161 0.107942 0.078061 -0.426829 -0.711414 0.078061 -0.256020 -0.426719 0.078061 -1.147161 0.107942 0.078061 -1.317970 -0.176754 -0.078061 -0.256020 -0.426719 0.078061 -0.256020 -0.426719 0.078061 -0.426829 -0.711414 -0.078061 -1.317970 -0.176754 -0.078061 -1.147161 0.107942 -0.078061 -0.256020 -0.426719 -0.078061 -0.426829 -0.711414 " />
											<Normal vector="-0.707083 -0.606342 0.363781 -0.577349 -0.198035 0.792108 -0.577349 0.792108 0.198035 -0.707083 0.606342 -0.363781 -0.707083 0.606342 -0.363781 -0.577349 0.792108 0.198035 0.577349 0.792108 0.198035 0.707083 0.606342 -0.363781 0.707083 0.606342 -0.363781 0.577349 0.792108 0.198035 0.577349 -0.198035 0.792108 0.707083 -0.606342 0.363781 0.707083 -0.606342 0.363781 0.577349 -0.198035 0.792108 -0.577349 -0.198035 0.792108 -0.707083 -0.606342 0.363781 -0.577349 0.198035 -0.792108 0.577349 0.198035 -0.792108 0.577349 -0.792108 -0.198035 -0.577349 -0.792108 -0.198035 0.577349 0.792108 0.198035 0.577349 -0.198035 0.792108 0.577349 -0.792108 -0.198035 0.707083 -0.606342 0.363781 -0.707083 -0.606342 0.363781 0.577349 0.198035 -0.792108 0.707083 0.606342 -0.363781 0.707083 -0.606342 0.363781 0.577349 -0.792108 -0.198035 -0.707083 0.606342 -0.363781 0.707083 0.606342 -0.363781 0.577349 0.198035 -0.792108 -0.577349 -0.792108 -0.198035 -0.707083 -0.606342 0.363781 -0.707083 0.606342 -0.363781 -0.577349 0.198035 -0.792108 " />
											<TextureCoordinate point="0.0277 0.2973 0.4701 0.2973 0.4701 0.4485 0.0277 0.4485 0.0277 0.2973 0.4701 0.2973 0.4701 0.4485 0.0277 0.4485 0.0277 0.2973 0.4701 0.2973 0.4701 0.4485 0.0277 0.4485 0.0277 0.2973 0.4701 0.2973 0.4701 0.4485 0.0277 0.4485 0.0277 0.0616 0.4701 0.0616 0.4701 0.2129 0.0277 0.2129 0.0277 0.2973 0.0277 0.4485 0.0277 0.0616 0.4701 0.0616 0.4701 0.2129 0.0277 0.0616 0.4701 0.0616 0.4701 0.2129 0.0277 0.2129 0.4701 0.0616 0.4701 0.2129 0.0277 0.2129 0.0277 0.0616 0.4701 0.0616 0.4701 0.2129 0.0277 0.2129 " />
										</IndexedTriangleSet>
									</Shape>
								</Group>
							</Transform>
							<Transform DEF="Cube_007_TRANSFORM"
							           translation="0.000000 -0.731376 0.414989"
							           scale="1.000000 1.000000 1.000000"
							           rotation="0.000000 1.000000 0.000000 0.000000"
							           >
								<Transform DEF="Cube_007_ifs_TRANSFORM"
								           translation="0.000000 0.000000 0.000000"
								           scale="1.000000 1.000000 1.000000"
								           rotation="0.000000 1.000000 0.000000 0.000000"
								           >
									<Group DEF="group_ME_Cube_007">
										<Shape>
											<Appearance>
												<Material USE="MA_Body" />
											</Appearance>
											<IndexedTriangleSet solid="false"
											                    normalPerVertex="true"
											                    index="0 1 2 0 2 3 4 5 6 4 6 7 8 9 10 8 10 11 12 13 14 12 14 15 16 17 18 16 18 19 20 5 14 20 14 21 22 23 24 22 24 19 25 26 27 25 27 28 16 29 30 16 30 31 32 33 34 32 34 35 "
											                    >
												<Coordinate point="-0.071569 -0.849351 0.341652 -0.071569 -0.164721 1.120401 -0.071569 0.483775 0.550282 -0.071569 -0.200855 -0.228467 -0.071569 -0.200855 -0.228467 -0.071569 0.483775 0.550282 0.071569 0.483775 0.550282 0.071569 -0.200855 -0.228467 0.071569 -0.200855 -0.228467 0.071569 0.483775 0.550282 0.071569 -0.164721 1.120401 0.071569 -0.849351 0.341652 0.071569 -0.849351 0.341652 0.071569 -0.164721 1.120401 -0.071569 -0.164721 1.120401 -0.071569 -0.849351 0.341652 -0.071569 -0.483775 -0.550282 0.071569 -0.483775 -0.550282 0.071569 -1.132271 0.019837 -0.071569 -1.132271 0.019837 0.071569 0.483775 0.550282 0.071569 -0.164721 1.120401 0.071569 -1.132271 0.019837 0.071569 -0.849351 0.341652 -0.071569 -0.849351 0.341652 0.071569 -0.483775 -0.550282 0.071569 -0.200855 -0.228467 0.071569 -0.849351 0.341652 0.071569 -1.132271 0.019837 -0.071569 -0.200855 -0.228467 0.071569 -0.200855 -0.228467 0.071569 -0.483775 -0.550282 -0.071569 -1.132271 0.019837 -0.071569 -0.849351 0.341652 -0.071569 -0.200855 -0.228467 -0.071569 -0.483775 -0.550282 " />
												<Normal vector="-0.707083 -0.531053 0.466872 -0.577349 -0.052400 0.814783 -0.577349 0.814783 0.052400 -0.707083 0.531053 -0.466872 -0.707083 0.531053 -0.466872 -0.577349 0.814783 0.052400 0.577349 0.814783 0.052400 0.707083 0.531053 -0.466872 0.707083 0.531053 -0.466872 0.577349 0.814783 0.052400 0.577349 -0.052400 0.814783 0.707083 -0.531053 0.466872 0.707083 -0.531053 0.466872 0.577349 -0.052400 0.814783 -0.577349 -0.052400 0.814783 -0.707083 -0.531053 0.466872 -0.577349 0.052400 -0.814783 0.577349 0.052400 -0.814783 0.577349 -0.814783 -0.052400 -0.577349 -0.814783 -0.052400 0.577349 0.814783 0.052400 0.577349 -0.052400 0.814783 0.577349 -0.814783 -0.052400 0.707083 -0.531053 0.466872 -0.707083 -0.531053 0.466872 0.577349 0.052400 -0.814783 0.707083 0.531053 -0.466872 0.707083 -0.531053 0.466872 0.577349 -0.814783 -0.052400 -0.707083 0.531053 -0.466872 0.707083 0.531053 -0.466872 0.577349 0.052400 -0.814783 -0.577349 -0.814783 -0.052400 -0.707083 -0.531053 0.466872 -0.707083 0.531053 -0.466872 -0.577349 0.052400 -0.814783 " />
												<TextureCoordinate point="0.1570 0.2973 0.4701 0.2973 0.4701 0.4485 0.1570 0.4485 0.1570 0.2973 0.4701 0.2973 0.4701 0.4485 0.1570 0.4485 0.1570 0.2973 0.4701 0.2973 0.4701 0.4485 0.1570 0.4485 0.1570 0.2973 0.4701 0.2973 0.4701 0.4485 0.1570 0.4485 0.0277 0.0616 0.4701 0.0616 0.4701 0.2129 0.0277 0.2129 0.0277 0.2973 0.0277 0.4485 0.0277 0.0616 0.1570 0.0616 0.1570 0.2129 0.0277 0.0616 0.1570 0.0616 0.1570 0.2129 0.0277 0.2129 0.1570 0.0616 0.1570 0.2129 0.0277 0.2129 0.0277 0.0616 0.1570 0.0616 0.1570 0.2129 0.0277 0.2129 " />
											</IndexedTriangleSet>
										</Shape>
									</Group>
								</Transform>
								<Transform DEF="Cube_008_TRANSFORM"
								           translation="0.000000 -0.474760 0.574819"
								           scale="1.000000 1.000000 1.000000"
								           rotation="0.000000 1.000000 0.000000 0.000000"
								           >
									<Transform DEF="Cube_008_ifs_TRANSFORM"
									           translation="0.000000 0.000000 0.000000"
									           scale="1.000000 1.000000 1.000000"
									           rotation="0.000000 1.000000 0.000000 0.000000"
									           >
										<Group DEF="group_ME_Cube_008">
											<Shape>
												<Appearance>
													<Material USE="MA_Body" />
												</Appearance>
												<IndexedTriangleSet solid="false"
												                    normalPerVertex="true"
												                    index="0 1 2 0 2 3 4 5 6 4 6 7 8 9 10 8 10 11 12 13 14 12 14 15 16 17 18 16 18 19 20 5 14 20 14 21 22 23 24 22 24 19 25 26 27 25 27 28 16 29 30 16 30 31 32 33 34 32 34 35 "
												                    >
													<Coordinate point="-0.056814 -0.572317 0.713283 -0.056814 -0.151637 1.013459 -0.056814 0.378699 0.270220 -0.056814 -0.041981 -0.029955 -0.056814 -0.041981 -0.029955 -0.056814 0.378699 0.270220 0.056814 0.378699 0.270220 0.056814 -0.041981 -0.029955 0.056814 -0.041981 -0.029955 0.056814 0.378699 0.270220 0.056814 -0.151637 1.013459 0.056814 -0.572317 0.713283 0.056814 -0.572317 0.713283 0.056814 -0.151637 1.013459 -0.056814 -0.151637 1.013459 -0.056814 -0.572317 0.713283 -0.056814 -0.378699 -0.270220 0.056814 -0.378699 -0.270220 0.056814 -0.909036 0.473018 -0.056814 -0.909036 0.473018 0.056814 0.378699 0.270220 0.056814 -0.151637 1.013459 0.056814 -0.909036 0.473018 0.056814 -0.572317 0.713283 -0.056814 -0.572317 0.713283 0.056814 -0.378699 -0.270220 0.056814 -0.041981 -0.029955 0.056814 -0.572317 0.713283 0.056814 -0.909036 0.473018 -0.056814 -0.041981 -0.029955 0.056814 -0.041981 -0.029955 0.056814 -0.378699 -0.270220 -0.056814 -0.909036 0.473018 -0.056814 -0.572317 0.713283 -0.056814 -0.041981 -0.029955 -0.056814 -0.378699 -0.270220 " />
													<Normal vector="-0.707083 -0.410688 0.575579 -0.577349 0.134617 0.805292 -0.577349 0.805292 -0.134617 -0.707083 0.410688 -0.575579 -0.707083 0.410688 -0.575579 -0.577349 0.805292 -0.134617 0.577349 0.805292 -0.134617 0.707083 0.410688 -0.575579 0.707083 0.410688 -0.575579 0.577349 0.805292 -0.134617 0.577349 0.134617 0.805292 0.707083 -0.410688 0.575579 0.707083 -0.410688 0.575579 0.577349 0.134617 0.805292 -0.577349 0.134617 0.805292 -0.707083 -0.410688 0.575579 -0.577349 -0.134617 -0.805292 0.577349 -0.134617 -0.805292 0.577349 -0.805292 0.134617 -0.577349 -0.805292 0.134617 0.577349 0.805292 -0.134617 0.577349 0.134617 0.805292 0.577349 -0.805292 0.134617 0.707083 -0.410688 0.575579 -0.707083 -0.410688 0.575579 0.577349 -0.134617 -0.805292 0.707083 0.410688 -0.575579 0.707083 -0.410688 0.575579 0.577349 -0.805292 0.134617 -0.707083 0.410688 -0.575579 0.707083 0.410688 -0.575579 0.577349 -0.134617 -0.805292 -0.577349 -0.805292 0.134617 -0.707083 -0.410688 0.575579 -0.707083 0.410688 -0.575579 -0.577349 -0.134617 -0.805292 " />
													<TextureCoordinate point="0.2243 0.2973 0.4701 0.2973 0.4701 0.4485 0.2243 0.4485 0.2243 0.2973 0.4701 0.2973 0.4701 0.4485 0.2243 0.4485 0.2243 0.2973 0.4701 0.2973 0.4701 0.4485 0.2243 0.4485 0.2243 0.2973 0.4701 0.2973 0.4701 0.4485 0.2243 0.4485 0.0277 0.0616 0.4701 0.0616 0.4701 0.2129 0.0277 0.2129 0.0277 0.2973 0.0277 0.4485 0.0277 0.0616 0.2243 0.0616 0.2243 0.2129 0.0277 0.0616 0.2243 0.0616 0.2243 0.2129 0.0277 0.2129 0.2243 0.0616 0.2243 0.2129 0.0277 0.2129 0.0277 0.0616 0.2243 0.0616 0.2243 0.2129 0.0277 0.2129 " />
												</IndexedTriangleSet>
											</Shape>
										</Group>
									</Transform>
								</Transform>
							</Transform>
						</Transform>
					</Transform>
					<Transform DEF="Cube_TRANSFORM"
					           translation="0.000000 -0.945076 0.200486"
					           scale="1.000000 1.000000 1.000000"
					           rotation="0.000000 1.000000 0.000000 0.000000"
					           >
						<Transform DEF="Cube_ifs_TRANSFORM"
						           translation="0.000000 0.000000 0.000000"
						           scale="1.000000 1.000000 1.000000"
						           rotation="0.000000 1.000000 0.000000 0.000000"
						           >
							<Group DEF="group_ME_Cube">
								<Shape>
									<Appearance>
										<Material USE="MA_Body" />
									</Appearance>
									<IndexedTriangleSet solid="false"
									                    normalPerVertex="true"
									                    index="0 1 2 0 2 3 4 5 6 4 6 7 8 9 10 8 10 11 12 13 14 12 14 15 13 8 11 13 11 14 16 17 18 16 18 19 17 4 7 17 7 18 20 21 22 20 22 23 24 9 25 24 25 26 26 25 1 26 1 0 27 26 0 27 0 28 16 24 26 16 26 27 29 20 23 29 23 30 31 32 20 31 20 29 30 23 33 30 33 19 34 35 36 34 36 37 28 0 3 28 3 38 39 40 41 39 41 42 "
									                    >
										<Coordinate point="0.299216 0.259395 0.337042 0.299216 0.259395 0.966836 0.986814 0.259395 0.966836 0.986814 0.259395 0.337042 0.299216 0.259395 0.000000 0.986814 0.259395 0.000000 0.986814 -0.259395 0.000000 0.299216 -0.259395 0.000000 -0.299216 0.259395 0.966836 -0.986814 0.259395 0.966836 -0.986814 -0.259395 0.966836 -0.299216 -0.259395 0.966836 0.986814 0.259395 0.966836 0.299216 0.259395 0.966836 0.299216 -0.259395 0.966836 0.986814 -0.259395 0.966836 -0.986814 0.259395 0.000000 -0.299216 0.259395 0.000000 -0.299216 -0.259395 0.000000 -0.986814 -0.259395 0.000000 0.299216 -0.259395 0.337042 0.299216 -0.259395 0.966836 -0.299216 -0.259395 0.966836 -0.299216 -0.259395 0.337042 -0.986814 0.259395 0.337042 -0.299216 0.259395 0.966836 -0.299216 0.259395 0.337042 -0.299216 0.259395 0.000000 0.299216 0.259395 0.000000 0.299216 -0.259395 0.000000 -0.299216 -0.259395 0.000000 0.986814 -0.259395 0.000000 0.986814 -0.259395 0.337042 -0.986814 -0.259395 0.337042 0.986814 0.259395 0.000000 0.986814 0.259395 0.337042 0.986814 -0.259395 0.337042 0.986814 -0.259395 0.000000 0.986814 0.259395 0.000000 -0.986814 -0.259395 0.000000 -0.986814 -0.259395 0.337042 -0.986814 0.259395 0.337042 -0.986814 0.259395 0.000000 " />
										<Normal vector="0.000000 1.000000 0.000000 0.000000 0.707083 0.707083 0.577349 0.577349 0.577349 0.707083 0.707083 0.000000 0.000000 0.707083 -0.707083 0.577349 0.577349 -0.577349 0.577349 -0.577349 -0.577349 0.000000 -0.707083 -0.707083 0.000000 0.707083 0.707083 -0.577349 0.577349 0.577349 -0.577349 -0.577349 0.577349 0.000000 -0.707083 0.707083 0.577349 0.577349 0.577349 0.000000 0.707083 0.707083 0.000000 -0.707083 0.707083 0.577349 -0.577349 0.577349 -0.577349 0.577349 -0.577349 0.000000 0.707083 -0.707083 0.000000 -0.707083 -0.707083 -0.577349 -0.577349 -0.577349 0.000000 -1.000000 0.000000 0.000000 -0.707083 0.707083 0.000000 -0.707083 0.707083 0.000000 -1.000000 0.000000 -0.707083 0.707083 0.000000 0.000000 0.707083 0.707083 0.000000 1.000000 0.000000 0.000000 0.707083 -0.707083 0.000000 0.707083 -0.707083 0.000000 -0.707083 -0.707083 0.000000 -0.707083 -0.707083 0.577349 -0.577349 -0.577349 0.707083 -0.707083 0.000000 -0.707083 -0.707083 0.000000 0.577349 0.577349 -0.577349 0.707083 0.707083 0.000000 0.707083 -0.707083 0.000000 0.577349 -0.577349 -0.577349 0.577349 0.577349 -0.577349 -0.577349 -0.577349 -0.577349 -0.707083 -0.707083 0.000000 -0.707083 0.707083 0.000000 -0.577349 0.577349 -0.577349 " />
										<TextureCoordinate point="0.6977 0.4082 0.9676 0.4082 0.9676 0.4727 0.6977 0.4727 0.8295 0.2793 0.9676 0.2793 0.9676 0.4727 0.8295 0.4727 0.8295 0.2793 0.9676 0.2793 0.9676 0.4727 0.8295 0.4727 0.5533 0.2793 0.6914 0.2793 0.6914 0.4727 0.5533 0.4727 0.5533 0.2793 0.6914 0.2793 0.6914 0.4727 0.5533 0.4727 0.6977 0.3438 0.9676 0.3438 0.9676 0.4082 0.6977 0.4082 0.6977 0.2793 0.9676 0.3438 0.6977 0.3438 0.5533 0.3438 0.5533 0.4082 0.5533 0.3438 0.5533 0.4082 0.5533 0.2793 0.6977 0.2793 0.6977 0.4727 0.5533 0.2793 0.6977 0.2793 0.6977 0.4727 0.5533 0.4727 0.5533 0.4727 0.5533 0.2793 0.6977 0.2793 0.6977 0.4727 0.5533 0.4727 " />
									</IndexedTriangleSet>
								</Shape>
								<Shape>
									<Appearance>
										<Material DEF="MA_Eye"
										          diffuseColor="0.800 0.800 0.800"
										          specularColor="0.401 0.401 0.401"
										          emissiveColor="0.000 0.000 0.000"
										          ambientIntensity="0.000"
										          shininess="0.500"
										          transparency="0.0"
										          />
									</Appearance>
									<IndexedTriangleSet solid="false"
									                    normalPerVertex="true"
									                    index="0 1 2 0 2 3 4 5 6 4 6 7 8 9 1 8 1 0 7 6 10 7 10 11 "
									                    >
										<Coordinate point="-0.986814 -0.259395 0.337042 -0.986814 -0.259395 0.966836 -0.986814 0.259395 0.966836 -0.986814 0.259395 0.337042 0.986814 0.259395 0.337042 0.986814 0.259395 0.966836 0.986814 -0.259395 0.966836 0.986814 -0.259395 0.337042 -0.299216 -0.259395 0.337042 -0.299216 -0.259395 0.966836 0.299216 -0.259395 0.966836 0.299216 -0.259395 0.337042 " />
										<Normal vector="-0.707083 -0.707083 0.000000 -0.577349 -0.577349 0.577349 -0.577349 0.577349 0.577349 -0.707083 0.707083 0.000000 0.707083 0.707083 0.000000 0.577349 0.577349 0.577349 0.577349 -0.577349 0.577349 0.707083 -0.707083 0.000000 0.000000 -1.000000 0.000000 0.000000 -0.707083 0.707083 0.000000 -0.707083 0.707083 0.000000 -1.000000 0.000000 " />
										<TextureCoordinate point="0.6680 0.5494 0.6680 0.8578 1.0000 0.8578 1.0000 0.5494 1.0000 0.5494 1.0000 0.8578 0.6680 0.8578 0.6680 0.5494 0.0001 0.5494 0.0001 0.8578 0.0001 0.8578 0.0001 0.5494 " />
									</IndexedTriangleSet>
								</Shape>
							</Group>
						</Transform>
					</Transform>
				</Transform>
				<Transform DEF="arm1_TRANSFORM"
				           translation="0.663028 0.017938 1.057687"
				           scale="1.000000 1.000000 1.000000"
				           rotation="0.000000 1.000000 0.000000 0.000000"
				           >
					<Transform DEF="arm1_ifs_TRANSFORM"
					           translation="0.000000 0.000000 0.000000"
					           scale="1.000000 1.000000 1.000000"
					           rotation="0.000000 1.000000 0.000000 0.000000"
					           >
						<Group DEF="group_ME_arm1">
							<Shape>
								<Appearance>
									<Material USE="MA_Body" />
								</Appearance>
								<IndexedTriangleSet solid="false"
								                    normalPerVertex="true"
								                    index="0 1 2 0 2 3 4 5 6 4 6 7 8 9 10 8 10 11 12 13 14 12 14 15 4 16 17 4 17 15 18 5 14 18 14 19 "
								                    >
									<Coordinate point="0.000000 -0.161600 -0.161600 0.000000 -0.161600 0.161600 0.000000 0.161600 0.161600 0.000000 0.161600 -0.161600 0.000000 0.161600 -0.161600 0.000000 0.161600 0.161600 0.929272 0.161600 0.161600 0.929272 0.161600 -0.161600 0.929272 0.161600 -0.161600 0.929272 0.161600 0.161600 0.929272 -0.161600 0.161600 0.929272 -0.161600 -0.161600 0.929272 -0.161600 -0.161600 0.929272 -0.161600 0.161600 0.000000 -0.161600 0.161600 0.000000 -0.161600 -0.161600 0.929272 0.161600 -0.161600 0.929272 -0.161600 -0.161600 0.929272 0.161600 0.161600 0.929272 -0.161600 0.161600 " />
									<Normal vector="-0.577349 -0.577349 -0.577349 -0.577349 -0.577349 0.577349 -0.577349 0.577349 0.577349 -0.577349 0.577349 -0.577349 -0.577349 0.577349 -0.577349 -0.577349 0.577349 0.577349 0.577349 0.577349 0.577349 0.577349 0.577349 -0.577349 0.577349 0.577349 -0.577349 0.577349 0.577349 0.577349 0.577349 -0.577349 0.577349 0.577349 -0.577349 -0.577349 0.577349 -0.577349 -0.577349 0.577349 -0.577349 0.577349 -0.577349 -0.577349 0.577349 -0.577349 -0.577349 -0.577349 0.577349 0.577349 -0.577349 0.577349 -0.577349 -0.577349 0.577349 0.577349 0.577349 0.577349 -0.577349 0.577349 " />
									<TextureCoordinate point="0.5392 0.5268 0.9817 0.5268 0.9817 0.9692 0.5392 0.9692 0.5392 0.5268 0.9817 0.5268 0.9817 0.9692 0.5392 0.9692 0.5392 0.5268 0.9817 0.5268 0.9817 0.9692 0.5392 0.9692 0.5392 0.5268 0.9817 0.5268 0.9817 0.9692 0.5392 0.9692 0.9817 0.5268 0.9817 0.9692 0.5392 0.5268 0.5392 0.9692 " />
								</IndexedTriangleSet>
							</Shape>
						</Group>
					</Transform>
					<Transform DEF="hand1_TRANSFORM"
					           translation="0.909697 0.000000 0.000000"
					           scale="1.000000 1.000000 1.000000"
					           rotation="0.000000 1.000000 0.000000 0.000000"
					           >
						<Transform DEF="hand1_ifs_TRANSFORM"
						           translation="0.000000 0.000000 0.000000"
						           scale="1.000000 1.000000 1.000000"
						           rotation="0.000000 1.000000 0.000000 0.000000"
						           >
							<Group DEF="group_ME_hand1">
								<Shape>
									<Appearance>
										<Material USE="MA_Body" />
									</Appearance>
									<IndexedTriangleSet solid="false"
									                    normalPerVertex="true"
									                    index="0 1 2 0 2 3 4 5 6 4 6 7 8 9 10 8 10 11 12 13 14 12 14 15 4 16 17 4 17 15 18 5 14 18 14 19 "
									                    >
										<Coordinate point="0.000000 -0.278370 -0.163050 0.000000 -0.278370 0.163050 0.000000 0.278370 0.163050 0.000000 0.278370 -0.163050 0.000000 0.278370 -0.163050 0.000000 0.278370 0.163050 1.032101 0.278370 0.163050 1.032101 0.278370 -0.163050 1.032101 0.278370 -0.163050 1.032101 0.278370 0.163050 1.032101 -0.278370 0.163050 1.032101 -0.278370 -0.163050 1.032101 -0.278370 -0.163050 1.032101 -0.278370 0.163050 0.000000 -0.278370 0.163050 0.000000 -0.278370 -0.163050 1.032101 0.278370 -0.163050 1.032101 -0.278370 -0.163050 1.032101 0.278370 0.163050 1.032101 -0.278370 0.163050 " />
										<Normal vector="-0.577349 -0.577349 -0.577349 -0.577349 -0.577349 0.577349 -0.577349 0.577349 0.577349 -0.577349 0.577349 -0.577349 -0.577349 0.577349 -0.577349 -0.577349 0.577349 0.577349 0.577349 0.577349 0.577349 0.577349 0.577349 -0.577349 0.577349 0.577349 -0.577349 0.577349 0.577349 0.577349 0.577349 -0.577349 0.577349 0.577349 -0.577349 -0.577349 0.577349 -0.577349 -0.577349 0.577349 -0.577349 0.577349 -0.577349 -0.577349 0.577349 -0.577349 -0.577349 -0.577349 0.577349 0.577349 -0.577349 0.577349 -0.577349 -0.577349 0.577349 0.577349 0.577349 0.577349 -0.577349 0.577349 " />
										<TextureCoordinate point="0.5392 0.5268 0.9817 0.5268 0.9817 0.9692 0.5392 0.9692 0.5392 0.5268 0.9817 0.5268 0.9817 0.9692 0.5392 0.9692 0.5392 0.5268 0.9817 0.5268 0.9817 0.9692 0.5392 0.9692 0.5392 0.5268 0.9817 0.5268 0.9817 0.9692 0.5392 0.9692 0.9817 0.5268 0.9817 0.9692 0.5392 0.5268 0.5392 0.9692 " />
									</IndexedTriangleSet>
								</Shape>
							</Group>
						</Transform>
						<Transform DEF="Cube_011_TRANSFORM"
						           translation="0.999385 -0.000000 0.000000"
						           scale="1.000000 1.000000 1.000000"
						           rotation="0.000000 1.000000 0.000000 0.000000"
						           >
							<Transform DEF="Cube_011_ifs_TRANSFORM"
							           translation="0.000000 0.000000 0.000000"
							           scale="1.000000 1.000000 1.000000"
							           rotation="0.000000 1.000000 0.000000 0.000000"
							           >
								<Group DEF="group_ME_Cube_011">
									<Shape>
										<Appearance>
											<Material USE="MA_Body" />
										</Appearance>
										<IndexedTriangleSet solid="false"
										                    normalPerVertex="true"
										                    index="0 1 2 0 2 3 4 5 6 4 6 7 8 9 10 8 10 11 12 13 14 12 14 15 4 16 17 4 17 15 18 5 14 18 14 19 "
										                    >
											<Coordinate point="0.000000 -0.234785 -0.057907 0.000000 -0.234785 0.057907 0.000000 0.234785 0.057907 0.000000 0.234785 -0.057907 0.000000 0.234785 -0.057907 0.000000 0.234785 0.057907 0.870502 0.234785 0.057907 0.870502 0.234785 -0.057907 0.870502 0.234785 -0.057907 0.870502 0.234785 0.057907 0.870502 -0.234785 0.057907 0.870502 -0.234785 -0.057907 0.870502 -0.234785 -0.057907 0.870502 -0.234785 0.057907 0.000000 -0.234785 0.057907 0.000000 -0.234785 -0.057907 0.870502 0.234785 -0.057907 0.870502 -0.234785 -0.057907 0.870502 0.234785 0.057907 0.870502 -0.234785 0.057907 " />
											<Normal vector="-0.577349 -0.577349 -0.577349 -0.577349 -0.577349 0.577349 -0.577349 0.577349 0.577349 -0.577349 0.577349 -0.577349 -0.577349 0.577349 -0.577349 -0.577349 0.577349 0.577349 0.577349 0.577349 0.577349 0.577349 0.577349 -0.577349 0.577349 0.577349 -0.577349 0.577349 0.577349 0.577349 0.577349 -0.577349 0.577349 0.577349 -0.577349 -0.577349 0.577349 -0.577349 -0.577349 0.577349 -0.577349 0.577349 -0.577349 -0.577349 0.577349 -0.577349 -0.577349 -0.577349 0.577349 0.577349 -0.577349 0.577349 -0.577349 -0.577349 0.577349 0.577349 0.577349 0.577349 -0.577349 0.577349 " />
											<TextureCoordinate point="0.5467 0.0256 0.9742 0.0256 0.9742 0.2241 0.5467 0.2241 0.5467 0.0256 0.9742 0.0256 0.9742 0.2241 0.5467 0.2241 0.5467 0.0256 0.9742 0.0256 0.9742 0.2241 0.5467 0.2241 0.5467 0.0256 0.9742 0.0256 0.9742 0.2241 0.5467 0.2241 0.9742 0.0256 0.9742 0.2241 0.5467 0.0256 0.5467 0.2241 " />
										</IndexedTriangleSet>
									</Shape>
								</Group>
							</Transform>
							<Transform DEF="Cube_012_TRANSFORM"
							           translation="0.804582 0.004965 -0.000000"
							           scale="1.000000 1.000000 1.000000"
							           rotation="0.000000 1.000000 0.000000 0.000000"
							           >
								<Transform DEF="Cube_012_ifs_TRANSFORM"
								           translation="0.000000 0.000000 0.000000"
								           scale="1.000000 1.000000 1.000000"
								           rotation="0.000000 1.000000 0.000000 0.000000"
								           >
									<Group DEF="group_ME_Cube_012">
										<Shape>
											<Appearance>
												<Material USE="MA_Body" />
											</Appearance>
											<IndexedTriangleSet solid="false"
											                    normalPerVertex="true"
											                    index="0 1 2 0 2 3 4 5 6 4 6 7 8 9 10 8 10 11 12 13 14 12 14 15 4 16 17 4 17 15 18 5 14 18 14 19 "
											                    >
												<Coordinate point="-0.024364 -0.190975 -0.043209 -0.024364 -0.190975 0.043209 0.024364 0.190975 0.043209 0.024364 0.190975 -0.043209 0.024364 0.190975 -0.043209 0.024364 0.190975 0.043209 0.625062 0.114340 0.043209 0.625062 0.114340 -0.043209 0.625062 0.114340 -0.043209 0.625062 0.114340 0.043209 0.576334 -0.267611 0.043209 0.576334 -0.267611 -0.043209 0.576334 -0.267611 -0.043209 0.576334 -0.267611 0.043209 -0.024364 -0.190975 0.043209 -0.024364 -0.190975 -0.043209 0.625062 0.114340 -0.043209 0.576334 -0.267611 -0.043209 0.625062 0.114340 0.043209 0.576334 -0.267611 0.043209 " />
												<Normal vector="-0.645772 -0.499619 -0.577349 -0.645772 -0.499619 0.577349 -0.499619 0.645772 0.577349 -0.499619 0.645772 -0.577349 -0.499619 0.645772 -0.577349 -0.499619 0.645772 0.577349 0.645772 0.499619 0.577349 0.645772 0.499619 -0.577349 0.645772 0.499619 -0.577349 0.645772 0.499619 0.577349 0.499619 -0.645772 0.577349 0.499619 -0.645772 -0.577349 0.499619 -0.645772 -0.577349 0.499619 -0.645772 0.577349 -0.645772 -0.499619 0.577349 -0.645772 -0.499619 -0.577349 0.645772 0.499619 -0.577349 0.499619 -0.645772 -0.577349 0.645772 0.499619 0.577349 0.499619 -0.645772 0.577349 " />
												<TextureCoordinate point="0.5467 0.0256 0.9742 0.0256 0.9742 0.2241 0.5467 0.2241 0.5467 0.0256 0.9742 0.0256 0.9742 0.2241 0.5467 0.2241 0.5467 0.0256 0.9742 0.0256 0.9742 0.2241 0.5467 0.2241 0.5467 0.0256 0.9742 0.0256 0.9742 0.2241 0.5467 0.2241 0.9742 0.0256 0.9742 0.2241 0.5467 0.0256 0.5467 0.2241 " />
											</IndexedTriangleSet>
										</Shape>
									</Group>
								</Transform>
								<Transform DEF="Cube_013_TRANSFORM"
								           translation="0.547740 -0.069879 -0.000000"
								           scale="1.000000 1.000000 1.000000"
								           rotation="0.000000 1.000000 0.000000 0.000000"
								           >
									<Transform DEF="Cube_013_ifs_TRANSFORM"
									           translation="0.000000 0.000000 0.000000"
									           scale="1.000000 1.000000 1.000000"
									           rotation="0.000000 1.000000 0.000000 0.000000"
									           >
										<Group DEF="group_ME_Cube_013">
											<Shape>
												<Appearance>
													<Material USE="MA_Body" />
												</Appearance>
												<IndexedTriangleSet solid="false"
												                    normalPerVertex="true"
												                    index="0 1 2 0 2 3 4 5 6 4 6 7 8 9 10 8 10 11 12 13 14 12 14 15 4 16 17 4 17 15 18 5 14 18 14 19 "
												                    >
													<Coordinate point="-0.026900 -0.110741 -0.029908 -0.026900 -0.110741 0.029908 0.026900 0.110741 0.029908 0.026900 0.110741 -0.029908 0.026900 0.110741 -0.029908 0.026900 0.110741 0.029908 0.677738 -0.047351 0.029908 0.677738 -0.047351 -0.029908 0.677738 -0.047351 -0.029908 0.677738 -0.047351 0.029908 0.623939 -0.268833 0.029908 0.623939 -0.268833 -0.029908 0.623939 -0.268833 -0.029908 0.623939 -0.268833 0.029908 -0.026900 -0.110741 0.029908 -0.026900 -0.110741 -0.029908 0.677738 -0.047351 -0.029908 0.623939 -0.268833 -0.029908 0.677738 -0.047351 0.029908 0.623939 -0.268833 0.029908 " />
													<Normal vector="-0.697287 -0.424757 -0.577349 -0.697287 -0.424757 0.577349 -0.424757 0.697287 0.577349 -0.424757 0.697287 -0.577349 -0.424757 0.697287 -0.577349 -0.424757 0.697287 0.577349 0.697287 0.424757 0.577349 0.697287 0.424757 -0.577349 0.697287 0.424757 -0.577349 0.697287 0.424757 0.577349 0.424757 -0.697287 0.577349 0.424757 -0.697287 -0.577349 0.424757 -0.697287 -0.577349 0.424757 -0.697287 0.577349 -0.697287 -0.424757 0.577349 -0.697287 -0.424757 -0.577349 0.697287 0.424757 -0.577349 0.424757 -0.697287 -0.577349 0.697287 0.424757 0.577349 0.424757 -0.697287 0.577349 " />
													<TextureCoordinate point="0.5467 0.0256 0.9742 0.0256 0.9742 0.2241 0.5467 0.2241 0.5467 0.0256 0.9742 0.0256 0.9742 0.2241 0.5467 0.2241 0.5467 0.0256 0.9742 0.0256 0.9742 0.2241 0.5467 0.2241 0.5467 0.0256 0.9742 0.0256 0.9742 0.2241 0.5467 0.2241 0.9742 0.0256 0.9742 0.2241 0.5467 0.0256 0.5467 0.2241 " />
												</IndexedTriangleSet>
											</Shape>
										</Group>
									</Transform>
								</Transform>
							</Transform>
						</Transform>
					</Transform>
				</Transform>
				<Transform DEF="Cube_016_TRANSFORM"
				           translation="0.000000 0.773883 0.698524"
				           scale="1.000000 1.000000 1.000000"
				           rotation="0.000000 1.000000 0.000000 0.000000"
				           >
					<Transform DEF="Cube_016_ifs_TRANSFORM"
					           translation="0.000000 0.000000 0.000000"
					           scale="1.000000 1.000000 1.000000"
					           rotation="0.000000 1.000000 0.000000 0.000000"
					           >
						<Group DEF="group_ME_Cube_016">
							<Shape>
								<Appearance>
									<Material USE="MA_Body" />
								</Appearance>
								<IndexedTriangleSet solid="false"
								                    normalPerVertex="true"
								                    index="0 1 2 0 2 3 4 5 6 4 6 7 8 9 10 8 10 11 12 13 14 12 14 15 4 16 17 4 17 15 18 5 14 18 14 19 "
								                    >
									<Coordinate point="-0.893346 -1.556897 -0.029674 -0.893346 -1.556897 0.029674 -0.893346 0.065596 0.029674 -0.893346 0.065596 -0.029674 -0.893346 0.065596 -0.029674 -0.893346 0.065596 0.029674 0.893346 0.065596 0.029674 0.893346 0.065596 -0.029674 0.893346 0.065596 -0.029674 0.893346 0.065596 0.029674 0.893346 -1.556897 0.029674 0.893346 -1.556897 -0.029674 0.893346 -1.556897 -0.029674 0.893346 -1.556897 0.029674 -0.893346 -1.556897 0.029674 -0.893346 -1.556897 -0.029674 0.893346 0.065596 -0.029674 0.893346 -1.556897 -0.029674 0.893346 0.065596 0.029674 0.893346 -1.556897 0.029674 " />
									<Normal vector="-0.577349 -0.577349 -0.577349 -0.577349 -0.577349 0.577349 -0.577349 0.577349 0.577349 -0.577349 0.577349 -0.577349 -0.577349 0.577349 -0.577349 -0.577349 0.577349 0.577349 0.577349 0.577349 0.577349 0.577349 0.577349 -0.577349 0.577349 0.577349 -0.577349 0.577349 0.577349 0.577349 0.577349 -0.577349 0.577349 0.577349 -0.577349 -0.577349 0.577349 -0.577349 -0.577349 0.577349 -0.577349 0.577349 -0.577349 -0.577349 0.577349 -0.577349 -0.577349 -0.577349 0.577349 0.577349 -0.577349 0.577349 -0.577349 -0.577349 0.577349 0.577349 0.577349 0.577349 -0.577349 0.577349 " />
									<TextureCoordinate point="0.5467 0.0256 0.9742 0.0256 0.9742 0.2241 0.5467 0.2241 0.5467 0.0256 0.9742 0.0256 0.9742 0.2241 0.5467 0.2241 0.5467 0.0256 0.9742 0.0256 0.9742 0.2241 0.5467 0.2241 0.5467 0.0256 0.9742 0.0256 0.9742 0.2241 0.5467 0.2241 0.9742 0.0256 0.9742 0.2241 0.5467 0.0256 0.5467 0.2241 " />
								</IndexedTriangleSet>
							</Shape>
						</Group>
					</Transform>
					<Transform DEF="Cube_017_TRANSFORM"
					           translation="0.628294 -1.148847 -0.000000"
					           scale="1.000000 1.000000 1.000000"
					           rotation="0.000000 1.000000 0.000000 0.000000"
					           >
						<Transform DEF="Cube_017_ifs_TRANSFORM"
						           translation="0.000000 0.000000 0.000000"
						           scale="1.000000 1.000000 1.000000"
						           rotation="0.000000 1.000000 0.000000 0.000000"
						           >
							<Group DEF="group_ME_Cube_017">
								<Shape>
									<Appearance>
										<Material USE="MA_Body" />
									</Appearance>
									<IndexedTriangleSet solid="false"
									                    normalPerVertex="true"
									                    index="0 1 2 0 2 3 4 5 6 4 6 7 8 9 10 8 10 11 12 13 14 12 14 15 4 16 17 4 17 15 18 5 14 18 14 19 "
									                    >
										<Coordinate point="-0.201970 -0.709118 -0.027880 -0.201970 -0.709118 0.027880 -0.295134 -0.041165 0.027880 -0.295134 -0.041165 -0.027880 -0.295134 -0.041165 -0.027880 -0.295134 -0.041165 0.027880 0.295134 0.041165 0.027880 0.295134 0.041165 -0.027880 0.295134 0.041165 -0.027880 0.295134 0.041165 0.027880 0.388298 -0.626789 0.027880 0.388298 -0.626789 -0.027880 0.388298 -0.626789 -0.027880 0.388298 -0.626789 0.027880 -0.201970 -0.709118 0.027880 -0.201970 -0.709118 -0.027880 0.295134 0.041165 -0.027880 0.388298 -0.626789 -0.027880 0.295134 0.041165 0.027880 0.388298 -0.626789 0.027880 " />
										<Normal vector="-0.492050 -0.651570 -0.577349 -0.492050 -0.651570 0.577349 -0.651570 0.492050 0.577349 -0.651570 0.492050 -0.577349 -0.651570 0.492050 -0.577349 -0.651570 0.492050 0.577349 0.492050 0.651570 0.577349 0.492050 0.651570 -0.577349 0.492050 0.651570 -0.577349 0.492050 0.651570 0.577349 0.651570 -0.492050 0.577349 0.651570 -0.492050 -0.577349 0.651570 -0.492050 -0.577349 0.651570 -0.492050 0.577349 -0.492050 -0.651570 0.577349 -0.492050 -0.651570 -0.577349 0.492050 0.651570 -0.577349 0.651570 -0.492050 -0.577349 0.492050 0.651570 0.577349 0.651570 -0.492050 0.577349 " />
										<TextureCoordinate point="0.5467 0.0256 0.9742 0.0256 0.9742 0.2241 0.5467 0.2241 0.5467 0.0256 0.9742 0.0256 0.9742 0.2241 0.5467 0.2241 0.5467 0.0256 0.9742 0.0256 0.9742 0.2241 0.5467 0.2241 0.5467 0.0256 0.9742 0.0256 0.9742 0.2241 0.5467 0.2241 0.9742 0.0256 0.9742 0.2241 0.5467 0.0256 0.5467 0.2241 " />
									</IndexedTriangleSet>
								</Shape>
							</Group>
						</Transform>
						<Transform DEF="Cube_018_TRANSFORM"
						           translation="0.115262 -0.486723 0.000000"
						           scale="1.000000 1.000000 1.000000"
						           rotation="0.000000 1.000000 0.000000 0.000000"
						           >
							<Transform DEF="Cube_018_ifs_TRANSFORM"
							           translation="0.000000 0.000000 0.000000"
							           scale="1.000000 1.000000 1.000000"
							           rotation="0.000000 1.000000 0.000000 0.000000"
							           >
								<Group DEF="group_ME_Cube_018">
									<Shape>
										<Appearance>
											<Material USE="MA_Body" />
										</Appearance>
										<IndexedTriangleSet solid="false"
										                    normalPerVertex="true"
										                    index="0 1 2 0 2 3 4 5 6 4 6 7 8 9 10 8 10 11 12 13 14 12 14 15 4 16 17 4 17 15 18 5 14 18 14 19 "
										                    >
											<Coordinate point="-0.476631 -0.623835 -0.022506 -0.476631 -0.623835 0.022506 -0.160854 0.072903 0.022506 -0.160854 0.072903 -0.022506 -0.160854 0.072903 -0.022506 -0.160854 0.072903 0.022506 0.160854 -0.072903 0.022506 0.160854 -0.072903 -0.022506 0.160854 -0.072903 -0.022506 0.160854 -0.072903 0.022506 -0.154923 -0.769641 0.022506 -0.154923 -0.769641 -0.022506 -0.154923 -0.769641 -0.022506 -0.154923 -0.769641 0.022506 -0.476631 -0.623835 0.022506 -0.476631 -0.623835 -0.022506 0.160854 -0.072903 -0.022506 -0.154923 -0.769641 -0.022506 0.160854 -0.072903 0.022506 -0.154923 -0.769641 0.022506 " />
											<Normal vector="-0.764183 -0.287515 -0.577349 -0.764183 -0.287515 0.577349 -0.287515 0.764183 0.577349 -0.287515 0.764183 -0.577349 -0.287515 0.764183 -0.577349 -0.287515 0.764183 0.577349 0.764183 0.287515 0.577349 0.764183 0.287515 -0.577349 0.764183 0.287515 -0.577349 0.764183 0.287515 0.577349 0.287515 -0.764183 0.577349 0.287515 -0.764183 -0.577349 0.287515 -0.764183 -0.577349 0.287515 -0.764183 0.577349 -0.764183 -0.287515 0.577349 -0.764183 -0.287515 -0.577349 0.764183 0.287515 -0.577349 0.287515 -0.764183 -0.577349 0.764183 0.287515 0.577349 0.287515 -0.764183 0.577349 " />
											<TextureCoordinate point="0.5467 0.0256 0.9742 0.0256 0.9742 0.2241 0.5467 0.2241 0.5467 0.0256 0.9742 0.0256 0.9742 0.2241 0.5467 0.2241 0.5467 0.0256 0.9742 0.0256 0.9742 0.2241 0.5467 0.2241 0.5467 0.0256 0.9742 0.0256 0.9742 0.2241 0.5467 0.2241 0.9742 0.0256 0.9742 0.2241 0.5467 0.0256 0.5467 0.2241 " />
										</IndexedTriangleSet>
									</Shape>
								</Group>
							</Transform>
						</Transform>
					</Transform>
					<Transform DEF="Cube_003_TRANSFORM"
					           translation="-0.628294 -1.148847 -0.000000"
					           scale="1.000000 1.000000 1.000000"
					           rotation="0.000000 1.000000 0.000000 0.000000"
					           >
						<Transform DEF="Cube_003_ifs_TRANSFORM"
						           translation="0.000000 0.000000 0.000000"
						           scale="1.000000 1.000000 1.000000"
						           rotation="0.000000 1.000000 0.000000 0.000000"
						           >
							<Group DEF="group_ME_Cube_019">
								<Shape>
									<Appearance>
										<Material USE="MA_Body" />
									</Appearance>
									<IndexedTriangleSet solid="false"
									                    normalPerVertex="true"
									                    index="0 1 2 0 2 3 4 5 6 4 6 7 8 9 10 8 10 11 12 13 14 12 14 15 4 13 16 4 16 17 18 19 14 18 14 7 "
									                    >
										<Coordinate point="0.201970 -0.709118 -0.027880 0.295134 -0.041164 -0.027880 0.295134 -0.041165 0.027880 0.201970 -0.709118 0.027880 0.295134 -0.041164 -0.027880 -0.295134 0.041165 -0.027880 -0.295134 0.041164 0.027880 0.295134 -0.041165 0.027880 -0.295134 0.041165 -0.027880 -0.388298 -0.626789 -0.027880 -0.388298 -0.626789 0.027880 -0.295134 0.041164 0.027880 -0.388298 -0.626789 -0.027880 0.201970 -0.709118 -0.027880 0.201970 -0.709118 0.027880 -0.388298 -0.626789 0.027880 -0.388298 -0.626789 -0.027880 -0.295134 0.041165 -0.027880 -0.295134 0.041164 0.027880 -0.388298 -0.626789 0.027880 " />
										<Normal vector="0.492050 -0.651570 -0.577349 0.651570 0.492050 -0.577349 0.651570 0.492050 0.577349 0.492050 -0.651570 0.577349 0.651570 0.492050 -0.577349 -0.492050 0.651570 -0.577349 -0.492050 0.651570 0.577349 0.651570 0.492050 0.577349 -0.492050 0.651570 -0.577349 -0.651570 -0.492050 -0.577349 -0.651570 -0.492050 0.577349 -0.492050 0.651570 0.577349 -0.651570 -0.492050 -0.577349 0.492050 -0.651570 -0.577349 0.492050 -0.651570 0.577349 -0.651570 -0.492050 0.577349 -0.651570 -0.492050 -0.577349 -0.492050 0.651570 -0.577349 -0.492050 0.651570 0.577349 -0.651570 -0.492050 0.577349 " />
										<TextureCoordinate point="0.5467 0.0256 0.5467 0.2241 0.9742 0.2241 0.9742 0.0256 0.5467 0.0256 0.5467 0.2241 0.9742 0.2241 0.9742 0.0256 0.5467 0.0256 0.5467 0.2241 0.9742 0.2241 0.9742 0.0256 0.5467 0.0256 0.5467 0.2241 0.9742 0.2241 0.9742 0.0256 0.9742 0.2241 0.9742 0.0256 0.5467 0.0256 0.5467 0.2241 " />
									</IndexedTriangleSet>
								</Shape>
							</Group>
						</Transform>
						<Transform DEF="Cube_009_TRANSFORM"
						           translation="-0.115262 -0.486722 0.000000"
						           scale="1.000000 1.000000 1.000000"
						           rotation="0.000000 1.000000 0.000000 0.000000"
						           >
							<Transform DEF="Cube_009_ifs_TRANSFORM"
							           translation="0.000000 0.000000 0.000000"
							           scale="1.000000 1.000000 1.000000"
							           rotation="0.000000 1.000000 0.000000 0.000000"
							           >
								<Group DEF="group_ME_Cube_020">
									<Shape>
										<Appearance>
											<Material USE="MA_Body" />
										</Appearance>
										<IndexedTriangleSet solid="false"
										                    normalPerVertex="true"
										                    index="0 1 2 0 2 3 4 5 6 4 6 7 8 9 10 8 10 11 12 13 14 12 14 15 4 13 16 4 16 17 18 19 14 18 14 7 "
										                    >
											<Coordinate point="0.476631 -0.623835 -0.022506 0.160854 0.072903 -0.022506 0.160854 0.072903 0.022506 0.476631 -0.623835 0.022506 0.160854 0.072903 -0.022506 -0.160854 -0.072903 -0.022506 -0.160854 -0.072903 0.022506 0.160854 0.072903 0.022506 -0.160854 -0.072903 -0.022506 0.154923 -0.769641 -0.022506 0.154923 -0.769641 0.022506 -0.160854 -0.072903 0.022506 0.154923 -0.769641 -0.022506 0.476631 -0.623835 -0.022506 0.476631 -0.623835 0.022506 0.154923 -0.769641 0.022506 0.154923 -0.769641 -0.022506 -0.160854 -0.072903 -0.022506 -0.160854 -0.072903 0.022506 0.154923 -0.769641 0.022506 " />
											<Normal vector="0.764183 -0.287515 -0.577349 0.287515 0.764183 -0.577349 0.287515 0.764183 0.577349 0.764183 -0.287515 0.577349 0.287515 0.764183 -0.577349 -0.764183 0.287515 -0.577349 -0.764183 0.287515 0.577349 0.287515 0.764183 0.577349 -0.764183 0.287515 -0.577349 -0.287515 -0.764183 -0.577349 -0.287515 -0.764183 0.577349 -0.764183 0.287515 0.577349 -0.287515 -0.764183 -0.577349 0.764183 -0.287515 -0.577349 0.764183 -0.287515 0.577349 -0.287515 -0.764183 0.577349 -0.287515 -0.764183 -0.577349 -0.764183 0.287515 -0.577349 -0.764183 0.287515 0.577349 -0.287515 -0.764183 0.577349 " />
											<TextureCoordinate point="0.5467 0.0256 0.5467 0.2241 0.9742 0.2241 0.9742 0.0256 0.5467 0.0256 0.5467 0.2241 0.9742 0.2241 0.9742 0.0256 0.5467 0.0256 0.5467 0.2241 0.9742 0.2241 0.9742 0.0256 0.5467 0.0256 0.5467 0.2241 0.9742 0.2241 0.9742 0.0256 0.9742 0.2241 0.9742 0.0256 0.5467 0.0256 0.5467 0.2241 " />
										</IndexedTriangleSet>
									</Shape>
								</Group>
							</Transform>
						</Transform>
					</Transform>
				</Transform>
				<Transform DEF="arm2_TRANSFORM"
				           translation="-0.663028 0.017938 1.057687"
				           scale="1.000000 1.000000 1.000000"
				           rotation="0.000000 1.000000 0.000000 0.000000"
				           >
					<Transform DEF="arm2_ifs_TRANSFORM"
					           translation="0.000000 0.000000 0.000000"
					           scale="1.000000 1.000000 1.000000"
					           rotation="0.000000 1.000000 0.000000 0.000000"
					           >
						<Group DEF="group_ME_arm2">
							<Shape>
								<Appearance>
									<Material USE="MA_Body" />
								</Appearance>
								<IndexedTriangleSet solid="false"
								                    normalPerVertex="true"
								                    index="0 1 2 0 2 3 4 5 6 4 6 7 8 9 10 8 10 11 12 13 14 12 14 15 4 13 16 4 16 17 18 19 14 18 14 7 "
								                    >
									<Coordinate point="0.000000 -0.161600 -0.161600 0.000000 0.161600 -0.161600 0.000000 0.161600 0.161600 0.000000 -0.161600 0.161600 0.000000 0.161600 -0.161600 -0.929272 0.161600 -0.161600 -0.929272 0.161600 0.161600 0.000000 0.161600 0.161600 -0.929272 0.161600 -0.161600 -0.929272 -0.161600 -0.161600 -0.929272 -0.161600 0.161600 -0.929272 0.161600 0.161600 -0.929272 -0.161600 -0.161600 0.000000 -0.161600 -0.161600 0.000000 -0.161600 0.161600 -0.929272 -0.161600 0.161600 -0.929272 -0.161600 -0.161600 -0.929272 0.161600 -0.161600 -0.929272 0.161600 0.161600 -0.929272 -0.161600 0.161600 " />
									<Normal vector="0.577349 -0.577349 -0.577349 0.577349 0.577349 -0.577349 0.577349 0.577349 0.577349 0.577349 -0.577349 0.577349 0.577349 0.577349 -0.577349 -0.577349 0.577349 -0.577349 -0.577349 0.577349 0.577349 0.577349 0.577349 0.577349 -0.577349 0.577349 -0.577349 -0.577349 -0.577349 -0.577349 -0.577349 -0.577349 0.577349 -0.577349 0.577349 0.577349 -0.577349 -0.577349 -0.577349 0.577349 -0.577349 -0.577349 0.577349 -0.577349 0.577349 -0.577349 -0.577349 0.577349 -0.577349 -0.577349 -0.577349 -0.577349 0.577349 -0.577349 -0.577349 0.577349 0.577349 -0.577349 -0.577349 0.577349 " />
									<TextureCoordinate point="0.5392 0.5268 0.5392 0.9692 0.9817 0.9692 0.9817 0.5268 0.5392 0.5268 0.5392 0.9692 0.9817 0.9692 0.9817 0.5268 0.5392 0.5268 0.5392 0.9692 0.9817 0.9692 0.9817 0.5268 0.5392 0.5268 0.5392 0.9692 0.9817 0.9692 0.9817 0.5268 0.9817 0.9692 0.9817 0.5268 0.5392 0.5268 0.5392 0.9692 " />
								</IndexedTriangleSet>
							</Shape>
						</Group>
					</Transform>
					<Transform DEF="hand2_TRANSFORM"
					           translation="-0.909697 0.000000 0.000000"
					           scale="1.000000 1.000000 1.000000"
					           rotation="0.000000 1.000000 0.000000 0.000000"
					           >
						<Transform DEF="hand2_ifs_TRANSFORM"
						           translation="0.000000 0.000000 0.000000"
						           scale="1.000000 1.000000 1.000000"
						           rotation="0.000000 1.000000 0.000000 0.000000"
						           >
							<Group DEF="group_ME_hand2">
								<Shape>
									<Appearance>
										<Material USE="MA_Body" />
									</Appearance>
									<IndexedTriangleSet solid="false"
									                    normalPerVertex="true"
									                    index="0 1 2 0 2 3 4 5 6 4 6 7 8 9 10 8 10 11 12 13 14 12 14 15 4 13 16 4 16 17 18 19 14 18 14 7 "
									                    >
										<Coordinate point="0.000000 -0.278370 -0.163050 0.000000 0.278370 -0.163050 0.000000 0.278370 0.163050 0.000000 -0.278370 0.163050 0.000000 0.278370 -0.163050 -1.032101 0.278370 -0.163050 -1.032101 0.278370 0.163050 0.000000 0.278370 0.163050 -1.032101 0.278370 -0.163050 -1.032101 -0.278370 -0.163050 -1.032101 -0.278370 0.163050 -1.032101 0.278370 0.163050 -1.032101 -0.278370 -0.163050 0.000000 -0.278370 -0.163050 0.000000 -0.278370 0.163050 -1.032101 -0.278370 0.163050 -1.032101 -0.278370 -0.163050 -1.032101 0.278370 -0.163050 -1.032101 0.278370 0.163050 -1.032101 -0.278370 0.163050 " />
										<Normal vector="0.577349 -0.577349 -0.577349 0.577349 0.577349 -0.577349 0.577349 0.577349 0.577349 0.577349 -0.577349 0.577349 0.577349 0.577349 -0.577349 -0.577349 0.577349 -0.577349 -0.577349 0.577349 0.577349 0.577349 0.577349 0.577349 -0.577349 0.577349 -0.577349 -0.577349 -0.577349 -0.577349 -0.577349 -0.577349 0.577349 -0.577349 0.577349 0.577349 -0.577349 -0.577349 -0.577349 0.577349 -0.577349 -0.577349 0.577349 -0.577349 0.577349 -0.577349 -0.577349 0.577349 -0.577349 -0.577349 -0.577349 -0.577349 0.577349 -0.577349 -0.577349 0.577349 0.577349 -0.577349 -0.577349 0.577349 " />
										<TextureCoordinate point="0.5392 0.5268 0.5392 0.9692 0.9817 0.9692 0.9817 0.5268 0.5392 0.5268 0.5392 0.9692 0.9817 0.9692 0.9817 0.5268 0.5392 0.5268 0.5392 0.9692 0.9817 0.9692 0.9817 0.5268 0.5392 0.5268 0.5392 0.9692 0.9817 0.9692 0.9817 0.5268 0.9817 0.9692 0.9817 0.5268 0.5392 0.5268 0.5392 0.9692 " />
									</IndexedTriangleSet>
								</Shape>
							</Group>
						</Transform>
						<Transform DEF="Cube_001_TRANSFORM"
						           translation="-0.999385 -0.000000 0.000000"
						           scale="1.000000 1.000000 1.000000"
						           rotation="0.000000 1.000000 0.000000 0.000000"
						           >
							<Transform DEF="Cube_001_ifs_TRANSFORM"
							           translation="0.000000 0.000000 0.000000"
							           scale="1.000000 1.000000 1.000000"
							           rotation="0.000000 1.000000 0.000000 0.000000"
							           >
								<Group DEF="group_ME_Cube_001">
									<Shape>
										<Appearance>
											<Material USE="MA_Body" />
										</Appearance>
										<IndexedTriangleSet solid="false"
										                    normalPerVertex="true"
										                    index="0 1 2 0 2 3 4 5 6 4 6 7 8 9 10 8 10 11 12 13 14 12 14 15 4 13 16 4 16 17 18 19 14 18 14 7 "
										                    >
											<Coordinate point="0.000000 -0.234785 -0.057907 0.000000 0.234785 -0.057907 0.000000 0.234785 0.057907 0.000000 -0.234785 0.057907 0.000000 0.234785 -0.057907 -0.870502 0.234785 -0.057907 -0.870502 0.234785 0.057907 0.000000 0.234785 0.057907 -0.870502 0.234785 -0.057907 -0.870502 -0.234785 -0.057907 -0.870502 -0.234785 0.057907 -0.870502 0.234785 0.057907 -0.870502 -0.234785 -0.057907 0.000000 -0.234785 -0.057907 0.000000 -0.234785 0.057907 -0.870502 -0.234785 0.057907 -0.870502 -0.234785 -0.057907 -0.870502 0.234785 -0.057907 -0.870502 0.234785 0.057907 -0.870502 -0.234785 0.057907 " />
											<Normal vector="0.577349 -0.577349 -0.577349 0.577349 0.577349 -0.577349 0.577349 0.577349 0.577349 0.577349 -0.577349 0.577349 0.577349 0.577349 -0.577349 -0.577349 0.577349 -0.577349 -0.577349 0.577349 0.577349 0.577349 0.577349 0.577349 -0.577349 0.577349 -0.577349 -0.577349 -0.577349 -0.577349 -0.577349 -0.577349 0.577349 -0.577349 0.577349 0.577349 -0.577349 -0.577349 -0.577349 0.577349 -0.577349 -0.577349 0.577349 -0.577349 0.577349 -0.577349 -0.577349 0.577349 -0.577349 -0.577349 -0.577349 -0.577349 0.577349 -0.577349 -0.577349 0.577349 0.577349 -0.577349 -0.577349 0.577349 " />
											<TextureCoordinate point="0.5467 0.0256 0.5467 0.2241 0.9742 0.2241 0.9742 0.0256 0.5467 0.0256 0.5467 0.2241 0.9742 0.2241 0.9742 0.0256 0.5467 0.0256 0.5467 0.2241 0.9742 0.2241 0.9742 0.0256 0.5467 0.0256 0.5467 0.2241 0.9742 0.2241 0.9742 0.0256 0.9742 0.2241 0.9742 0.0256 0.5467 0.0256 0.5467 0.2241 " />
										</IndexedTriangleSet>
									</Shape>
								</Group>
							</Transform>
							<Transform DEF="Cube_010_TRANSFORM"
							           translation="-0.804582 0.004965 -0.000000"
							           scale="1.000000 1.000000 1.000000"
							           rotation="0.000000 1.000000 0.000000 0.000000"
							           >
								<Transform DEF="Cube_010_ifs_TRANSFORM"
								           translation="0.000000 0.000000 0.000000"
								           scale="1.000000 1.000000 1.000000"
								           rotation="0.000000 1.000000 0.000000 0.000000"
								           >
									<Group DEF="group_ME_Cube_003">
										<Shape>
											<Appearance>
												<Material USE="MA_Body" />
											</Appearance>
											<IndexedTriangleSet solid="false"
											                    normalPerVertex="true"
											                    index="0 1 2 0 2 3 4 5 6 4 6 7 8 9 10 8 10 11 12 13 14 12 14 15 4 13 16 4 16 17 18 19 14 18 14 7 "
											                    >
												<Coordinate point="0.024364 -0.190975 -0.043209 -0.024364 0.190975 -0.043209 -0.024364 0.190975 0.043209 0.024364 -0.190975 0.043209 -0.024364 0.190975 -0.043209 -0.625062 0.114340 -0.043209 -0.625062 0.114340 0.043209 -0.024364 0.190975 0.043209 -0.625062 0.114340 -0.043209 -0.576334 -0.267611 -0.043209 -0.576334 -0.267611 0.043209 -0.625062 0.114340 0.043209 -0.576334 -0.267611 -0.043209 0.024364 -0.190975 -0.043209 0.024364 -0.190975 0.043209 -0.576334 -0.267611 0.043209 -0.576334 -0.267611 -0.043209 -0.625062 0.114340 -0.043209 -0.625062 0.114340 0.043209 -0.576334 -0.267611 0.043209 " />
												<Normal vector="0.645772 -0.499619 -0.577349 0.499619 0.645772 -0.577349 0.499619 0.645772 0.577349 0.645772 -0.499619 0.577349 0.499619 0.645772 -0.577349 -0.645772 0.499619 -0.577349 -0.645772 0.499619 0.577349 0.499619 0.645772 0.577349 -0.645772 0.499619 -0.577349 -0.499619 -0.645772 -0.577349 -0.499619 -0.645772 0.577349 -0.645772 0.499619 0.577349 -0.499619 -0.645772 -0.577349 0.645772 -0.499619 -0.577349 0.645772 -0.499619 0.577349 -0.499619 -0.645772 0.577349 -0.499619 -0.645772 -0.577349 -0.645772 0.499619 -0.577349 -0.645772 0.499619 0.577349 -0.499619 -0.645772 0.577349 " />
												<TextureCoordinate point="0.5467 0.0256 0.5467 0.2241 0.9742 0.2241 0.9742 0.0256 0.5467 0.0256 0.5467 0.2241 0.9742 0.2241 0.9742 0.0256 0.5467 0.0256 0.5467 0.2241 0.9742 0.2241 0.9742 0.0256 0.5467 0.0256 0.5467 0.2241 0.9742 0.2241 0.9742 0.0256 0.9742 0.2241 0.9742 0.0256 0.5467 0.0256 0.5467 0.2241 " />
											</IndexedTriangleSet>
										</Shape>
									</Group>
								</Transform>
								<Transform DEF="Cube_022_TRANSFORM"
								           translation="-0.547740 -0.069879 -0.000000"
								           scale="1.000000 1.000000 1.000000"
								           rotation="0.000000 1.000000 0.000000 0.000000"
								           >
									<Transform DEF="Cube_022_ifs_TRANSFORM"
									           translation="0.000000 0.000000 0.000000"
									           scale="1.000000 1.000000 1.000000"
									           rotation="0.000000 1.000000 0.000000 0.000000"
									           >
										<Group DEF="group_ME_Cube_009">
											<Shape>
												<Appearance>
													<Material USE="MA_Body" />
												</Appearance>
												<IndexedTriangleSet solid="false"
												                    normalPerVertex="true"
												                    index="0 1 2 0 2 3 4 5 6 4 6 7 8 9 10 8 10 11 12 13 14 12 14 15 4 13 16 4 16 17 18 19 14 18 14 7 "
												                    >
													<Coordinate point="0.026900 -0.110741 -0.029908 -0.026900 0.110741 -0.029908 -0.026900 0.110741 0.029908 0.026900 -0.110741 0.029908 -0.026900 0.110741 -0.029908 -0.677738 -0.047351 -0.029908 -0.677738 -0.047351 0.029908 -0.026900 0.110741 0.029908 -0.677738 -0.047351 -0.029908 -0.623939 -0.268833 -0.029908 -0.623939 -0.268833 0.029908 -0.677738 -0.047351 0.029908 -0.623939 -0.268833 -0.029908 0.026900 -0.110741 -0.029908 0.026900 -0.110741 0.029908 -0.623939 -0.268833 0.029908 -0.623939 -0.268833 -0.029908 -0.677738 -0.047351 -0.029908 -0.677738 -0.047351 0.029908 -0.623939 -0.268833 0.029908 " />
													<Normal vector="0.697287 -0.424757 -0.577349 0.424757 0.697287 -0.577349 0.424757 0.697287 0.577349 0.697287 -0.424757 0.577349 0.424757 0.697287 -0.577349 -0.697287 0.424757 -0.577349 -0.697287 0.424757 0.577349 0.424757 0.697287 0.577349 -0.697287 0.424757 -0.577349 -0.424757 -0.697287 -0.577349 -0.424757 -0.697287 0.577349 -0.697287 0.424757 0.577349 -0.424757 -0.697287 -0.577349 0.697287 -0.424757 -0.577349 0.697287 -0.424757 0.577349 -0.424757 -0.697287 0.577349 -0.424757 -0.697287 -0.577349 -0.697287 0.424757 -0.577349 -0.697287 0.424757 0.577349 -0.424757 -0.697287 0.577349 " />
													<TextureCoordinate point="0.5467 0.0256 0.5467 0.2241 0.9742 0.2241 0.9742 0.0256 0.5467 0.0256 0.5467 0.2241 0.9742 0.2241 0.9742 0.0256 0.5467 0.0256 0.5467 0.2241 0.9742 0.2241 0.9742 0.0256 0.5467 0.0256 0.5467 0.2241 0.9742 0.2241 0.9742 0.0256 0.9742 0.2241 0.9742 0.0256 0.5467 0.0256 0.5467 0.2241 " />
												</IndexedTriangleSet>
											</Shape>
										</Group>
									</Transform>
								</Transform>
							</Transform>
						</Transform>
					</Transform>
				</Transform>
			</Transform>
			<Transform DEF="leg1_TRANSFORM"
			           translation="0.535342 0.007794 0.006753"
			           scale="1.000000 1.000000 1.000000"
			           rotation="0.000000 1.000000 0.000000 0.000000"
			           >
				<Transform DEF="leg1_ifs_TRANSFORM"
				           translation="0.000000 0.000000 0.000000"
				           scale="1.000000 1.000000 1.000000"
				           rotation="0.000000 1.000000 0.000000 0.000000"
				           >
					<Group DEF="group_ME_leg1">
						<Shape>
							<Appearance>
								<Material USE="MA_Body" />
							</Appearance>
							<IndexedTriangleSet solid="false"
							                    normalPerVertex="true"
							                    index="0 1 2 0 2 3 4 5 6 4 6 7 8 9 10 8 10 11 12 13 14 12 14 15 4 16 17 4 17 15 18 5 14 18 14 19 "
							                    >
								<Coordinate point="-0.142900 -0.146665 -1.046765 -0.142900 -0.146665 0.000000 -0.142900 0.146665 0.000000 -0.142900 0.146665 -1.046765 -0.142900 0.146665 -1.046765 -0.142900 0.146665 0.000000 0.142900 0.146665 0.000000 0.142900 0.146665 -1.046765 0.142900 0.146665 -1.046765 0.142900 0.146665 0.000000 0.142900 -0.146665 0.000000 0.142900 -0.146665 -1.046765 0.142900 -0.146665 -1.046765 0.142900 -0.146665 0.000000 -0.142900 -0.146665 0.000000 -0.142900 -0.146665 -1.046765 0.142900 0.146665 -1.046765 0.142900 -0.146665 -1.046765 0.142900 0.146665 0.000000 0.142900 -0.146665 0.000000 " />
								<Normal vector="-0.577349 -0.577349 -0.577349 -0.577349 -0.577349 0.577349 -0.577349 0.577349 0.577349 -0.577349 0.577349 -0.577349 -0.577349 0.577349 -0.577349 -0.577349 0.577349 0.577349 0.577349 0.577349 0.577349 0.577349 0.577349 -0.577349 0.577349 0.577349 -0.577349 0.577349 0.577349 0.577349 0.577349 -0.577349 0.577349 0.577349 -0.577349 -0.577349 0.577349 -0.577349 -0.577349 0.577349 -0.577349 0.577349 -0.577349 -0.577349 0.577349 -0.577349 -0.577349 -0.577349 0.577349 0.577349 -0.577349 0.577349 -0.577349 -0.577349 0.577349 0.577349 0.577349 0.577349 -0.577349 0.577349 " />
								<TextureCoordinate point="0.5392 0.5268 0.9817 0.5268 0.9817 0.9692 0.5392 0.9692 0.5392 0.5268 0.9817 0.5268 0.9817 0.9692 0.5392 0.9692 0.5392 0.5268 0.9817 0.5268 0.9817 0.9692 0.5392 0.9692 0.5392 0.5268 0.9817 0.5268 0.9817 0.9692 0.5392 0.9692 0.9817 0.5268 0.9817 0.9692 0.5392 0.5268 0.5392 0.9692 " />
							</IndexedTriangleSet>
						</Shape>
					</Group>
				</Transform>
				<Transform DEF="foot1_TRANSFORM"
				           translation="-0.000865 -0.027227 -0.892435"
				           scale="1.000000 1.000000 1.000000"
				           rotation="0.000000 1.000000 0.000000 0.000000"
				           >
					<Transform DEF="foot1_ifs_TRANSFORM"
					           translation="0.000000 0.000000 0.000000"
					           scale="1.000000 1.000000 1.000000"
					           rotation="0.000000 1.000000 0.000000 0.000000"
					           >
						<Group DEF="group_ME_foot1">
							<Shape>
								<Appearance>
									<Material USE="MA_Body" />
								</Appearance>
								<IndexedTriangleSet solid="false"
								                    normalPerVertex="true"
								                    index="0 1 2 0 2 3 4 5 6 4 6 7 8 9 10 8 10 11 12 13 14 12 14 15 16 17 18 16 18 19 20 21 14 20 14 22 23 24 25 23 25 26 27 8 11 27 11 28 29 4 7 29 7 30 31 0 3 31 3 32 33 34 35 33 35 36 36 35 4 36 4 29 37 38 39 37 39 40 41 42 12 41 12 43 44 45 46 44 46 47 45 20 22 45 22 46 33 48 49 33 49 50 48 16 19 48 19 49 51 52 53 51 53 42 42 53 13 42 13 12 34 21 54 34 54 35 35 54 5 35 5 4 "
								                    >
									<Coordinate point="-0.422220 -0.646267 -0.158040 -0.422220 -0.646267 0.000000 -0.422220 0.457204 0.000000 -0.422220 0.457204 -0.158040 0.140740 0.457204 -0.158040 0.140740 0.457204 0.000000 0.422220 0.457204 0.000000 0.422220 0.457204 -0.158040 0.422220 0.457204 -0.158040 0.422220 0.457204 0.000000 0.422220 -0.646267 0.000000 0.422220 -0.646267 -0.158040 -0.140740 -0.646267 -0.158040 -0.140740 -0.646267 0.000000 -0.422220 -0.646267 0.000000 -0.422220 -0.646267 -0.158040 0.140740 0.457204 -0.455422 0.422220 0.457204 -0.455422 0.422220 -0.646267 -0.455422 0.140740 -0.646267 -0.455422 -0.140740 0.457204 0.000000 -0.422220 0.457204 0.000000 -0.140740 -0.646267 0.000000 -0.140740 -0.646267 -0.455422 -0.140740 -0.646267 -0.158040 -0.422220 -0.646267 -0.158040 -0.422220 -0.646267 -0.455422 0.422220 0.457204 -0.455422 0.422220 -0.646267 -0.455422 0.140740 0.457204 -0.455422 0.422220 0.457204 -0.455422 -0.422220 -0.646267 -0.455422 -0.422220 0.457204 -0.455422 -0.422220 0.457204 -0.455422 -0.422220 0.457204 -0.158040 -0.140740 0.457204 -0.158040 -0.140740 0.457204 -0.455422 0.422220 -0.646267 -0.455422 0.422220 -0.646267 -0.158040 0.140740 -0.646267 -0.158040 0.140740 -0.646267 -0.455422 0.140740 -0.646267 -0.455422 0.140740 -0.646267 -0.158040 -0.140740 -0.646267 -0.455422 0.422220 0.457204 0.000000 0.140740 0.457204 0.000000 0.140740 -0.646267 0.000000 0.422220 -0.646267 0.000000 -0.140740 0.457204 -0.455422 -0.140740 -0.646267 -0.455422 -0.422220 -0.646267 -0.455422 0.422220 -0.646267 -0.158040 0.422220 -0.646267 0.000000 0.140740 -0.646267 0.000000 -0.140740 0.457204 0.000000 " />
									<Normal vector="-0.707083 -0.707083 0.000000 -0.577349 -0.577349 0.577349 -0.577349 0.577349 0.577349 -0.707083 0.707083 0.000000 0.000000 1.000000 0.000000 0.000000 0.707083 0.707083 0.577349 0.577349 0.577349 0.707083 0.707083 0.000000 0.707083 0.707083 0.000000 0.577349 0.577349 0.577349 0.577349 -0.577349 0.577349 0.707083 -0.707083 0.000000 0.000000 -1.000000 0.000000 0.000000 -0.707083 0.707083 -0.577349 -0.577349 0.577349 -0.707083 -0.707083 0.000000 0.000000 0.707083 -0.707083 0.577349 0.577349 -0.577349 0.577349 -0.577349 -0.577349 0.000000 -0.707083 -0.707083 0.000000 0.707083 0.707083 -0.577349 0.577349 0.577349 0.000000 -0.707083 0.707083 0.000000 -0.707083 -0.707083 0.000000 -1.000000 0.000000 -0.707083 -0.707083 0.000000 -0.577349 -0.577349 -0.577349 0.577349 0.577349 -0.577349 0.577349 -0.577349 -0.577349 0.000000 0.707083 -0.707083 0.577349 0.577349 -0.577349 -0.577349 -0.577349 -0.577349 -0.577349 0.577349 -0.577349 -0.577349 0.577349 -0.577349 -0.707083 0.707083 0.000000 0.000000 1.000000 0.000000 0.000000 0.707083 -0.707083 0.577349 -0.577349 -0.577349 0.707083 -0.707083 0.000000 0.000000 -1.000000 0.000000 0.000000 -0.707083 -0.707083 0.000000 -0.707083 -0.707083 0.000000 -1.000000 0.000000 0.000000 -0.707083 -0.707083 0.577349 0.577349 0.577349 0.000000 0.707083 0.707083 0.000000 -0.707083 0.707083 0.577349 -0.577349 0.577349 0.000000 0.707083 -0.707083 0.000000 -0.707083 -0.707083 -0.577349 -0.577349 -0.577349 0.707083 -0.707083 0.000000 0.577349 -0.577349 0.577349 0.000000 -0.707083 0.707083 0.000000 0.707083 0.707083 " />
									<TextureCoordinate point="0.8281 0.5268 0.9817 0.5268 0.9817 0.9692 0.8281 0.9692 0.8281 0.8218 0.9817 0.8218 0.9817 0.9692 0.8281 0.9692 0.8281 0.5268 0.9817 0.5268 0.9817 0.9692 0.8281 0.9692 0.8281 0.8218 0.9817 0.8218 0.9817 0.9692 0.8281 0.9692 0.8342 0.5268 0.9817 0.5268 0.9817 0.9692 0.8342 0.9692 0.8342 0.5268 0.9817 0.5268 0.8342 0.9692 0.5442 0.0208 0.9643 0.0208 0.9643 0.2227 0.5442 0.2227 0.5392 0.5268 0.5392 0.9692 0.5392 0.8218 0.5392 0.9692 0.5392 0.5268 0.5392 0.9692 0.5392 0.5268 0.8281 0.5268 0.8281 0.6743 0.5392 0.6743 0.5442 0.0208 0.9643 0.0208 0.9643 0.2227 0.5442 0.2227 0.5392 0.6743 0.8281 0.6743 0.5392 0.8218 0.5392 0.5268 0.6867 0.5268 0.6867 0.9692 0.5392 0.9692 0.6867 0.5268 0.6867 0.9692 0.5392 0.9692 0.8281 0.5268 0.9817 0.5268 0.9817 0.6743 0.9817 0.6743 " />
								</IndexedTriangleSet>
							</Shape>
						</Group>
					</Transform>
				</Transform>
			</Transform>
			<Transform DEF="Cube_014_TRANSFORM"
			           translation="0.000000 0.773883 0.532285"
			           scale="1.000000 1.000000 1.000000"
			           rotation="0.000000 1.000000 0.000000 0.000000"
			           >
				<Transform DEF="Cube_014_ifs_TRANSFORM"
				           translation="0.000000 0.000000 0.000000"
				           scale="1.000000 1.000000 1.000000"
				           rotation="0.000000 1.000000 0.000000 0.000000"
				           >
					<Group DEF="group_ME_Cube_021">
						<Shape>
							<Appearance>
								<Material USE="MA_Body" />
							</Appearance>
							<IndexedTriangleSet solid="false"
							                    normalPerVertex="true"
							                    index="0 1 2 0 2 3 4 5 6 4 6 7 8 9 10 8 10 11 12 13 14 12 14 15 4 16 17 4 17 15 18 5 14 18 14 19 "
							                    >
								<Coordinate point="-0.893346 -1.556897 -0.029674 -0.893346 -1.556897 0.029674 -0.893346 0.032514 0.029674 -0.893346 0.032514 -0.029674 -0.893346 0.032514 -0.029674 -0.893346 0.032514 0.029674 0.893346 0.032514 0.029674 0.893346 0.032514 -0.029674 0.893346 0.032514 -0.029674 0.893346 0.032514 0.029674 0.893346 -1.556897 0.029674 0.893346 -1.556897 -0.029674 0.893346 -1.556897 -0.029674 0.893346 -1.556897 0.029674 -0.893346 -1.556897 0.029674 -0.893346 -1.556897 -0.029674 0.893346 0.032514 -0.029674 0.893346 -1.556897 -0.029674 0.893346 0.032514 0.029674 0.893346 -1.556897 0.029674 " />
								<Normal vector="-0.577349 -0.577349 -0.577349 -0.577349 -0.577349 0.577349 -0.577349 0.577349 0.577349 -0.577349 0.577349 -0.577349 -0.577349 0.577349 -0.577349 -0.577349 0.577349 0.577349 0.577349 0.577349 0.577349 0.577349 0.577349 -0.577349 0.577349 0.577349 -0.577349 0.577349 0.577349 0.577349 0.577349 -0.577349 0.577349 0.577349 -0.577349 -0.577349 0.577349 -0.577349 -0.577349 0.577349 -0.577349 0.577349 -0.577349 -0.577349 0.577349 -0.577349 -0.577349 -0.577349 0.577349 0.577349 -0.577349 0.577349 -0.577349 -0.577349 0.577349 0.577349 0.577349 0.577349 -0.577349 0.577349 " />
								<TextureCoordinate point="0.5467 0.0256 0.9742 0.0256 0.9742 0.2241 0.5467 0.2241 0.5467 0.0256 0.9742 0.0256 0.9742 0.2241 0.5467 0.2241 0.5467 0.0256 0.9742 0.0256 0.9742 0.2241 0.5467 0.2241 0.5467 0.0256 0.9742 0.0256 0.9742 0.2241 0.5467 0.2241 0.9742 0.0256 0.9742 0.2241 0.5467 0.0256 0.5467 0.2241 " />
							</IndexedTriangleSet>
						</Shape>
					</Group>
				</Transform>
				<Transform DEF="Cube_015_TRANSFORM"
				           translation="0.628294 -1.148847 -0.000000"
				           scale="1.000000 1.000000 1.000000"
				           rotation="0.000000 1.000000 0.000000 0.000000"
				           >
					<Transform DEF="Cube_015_ifs_TRANSFORM"
					           translation="0.000000 0.000000 0.000000"
					           scale="1.000000 1.000000 1.000000"
					           rotation="0.000000 1.000000 0.000000 0.000000"
					           >
						<Group DEF="group_ME_Cube_022">
							<Shape>
								<Appearance>
									<Material USE="MA_Body" />
								</Appearance>
								<IndexedTriangleSet solid="false"
								                    normalPerVertex="true"
								                    index="0 1 2 0 2 3 4 5 6 4 6 7 8 9 10 8 10 11 12 13 14 12 14 15 4 16 17 4 17 15 18 5 14 18 14 19 "
								                    >
									<Coordinate point="-0.201970 -0.709118 -0.027880 -0.201970 -0.709118 0.027880 -0.295134 -0.041165 0.027880 -0.295134 -0.041165 -0.027880 -0.295134 -0.041165 -0.027880 -0.295134 -0.041165 0.027880 0.295134 0.041165 0.027880 0.295134 0.041165 -0.027880 0.295134 0.041165 -0.027880 0.295134 0.041165 0.027880 0.388298 -0.626789 0.027880 0.388298 -0.626789 -0.027880 0.388298 -0.626789 -0.027880 0.388298 -0.626789 0.027880 -0.201970 -0.709118 0.027880 -0.201970 -0.709118 -0.027880 0.295134 0.041165 -0.027880 0.388298 -0.626789 -0.027880 0.295134 0.041165 0.027880 0.388298 -0.626789 0.027880 " />
									<Normal vector="-0.492050 -0.651570 -0.577349 -0.492050 -0.651570 0.577349 -0.651570 0.492050 0.577349 -0.651570 0.492050 -0.577349 -0.651570 0.492050 -0.577349 -0.651570 0.492050 0.577349 0.492050 0.651570 0.577349 0.492050 0.651570 -0.577349 0.492050 0.651570 -0.577349 0.492050 0.651570 0.577349 0.651570 -0.492050 0.577349 0.651570 -0.492050 -0.577349 0.651570 -0.492050 -0.577349 0.651570 -0.492050 0.577349 -0.492050 -0.651570 0.577349 -0.492050 -0.651570 -0.577349 0.492050 0.651570 -0.577349 0.651570 -0.492050 -0.577349 0.492050 0.651570 0.577349 0.651570 -0.492050 0.577349 " />
									<TextureCoordinate point="0.5467 0.0256 0.9742 0.0256 0.9742 0.2241 0.5467 0.2241 0.5467 0.0256 0.9742 0.0256 0.9742 0.2241 0.5467 0.2241 0.5467 0.0256 0.9742 0.0256 0.9742 0.2241 0.5467 0.2241 0.5467 0.0256 0.9742 0.0256 0.9742 0.2241 0.5467 0.2241 0.9742 0.0256 0.9742 0.2241 0.5467 0.0256 0.5467 0.2241 " />
								</IndexedTriangleSet>
							</Shape>
						</Group>
					</Transform>
					<Transform DEF="Cube_019_TRANSFORM"
					           translation="0.115262 -0.486723 0.000000"
					           scale="1.000000 1.000000 1.000000"
					           rotation="0.000000 1.000000 0.000000 0.000000"
					           >
						<Transform DEF="Cube_019_ifs_TRANSFORM"
						           translation="0.000000 0.000000 0.000000"
						           scale="1.000000 1.000000 1.000000"
						           rotation="0.000000 1.000000 0.000000 0.000000"
						           >
							<Group DEF="group_ME_Cube_023">
								<Shape>
									<Appearance>
										<Material USE="MA_Body" />
									</Appearance>
									<IndexedTriangleSet solid="false"
									                    normalPerVertex="true"
									                    index="0 1 2 0 2 3 4 5 6 4 6 7 8 9 10 8 10 11 12 13 14 12 14 15 4 16 17 4 17 15 18 5 14 18 14 19 "
									                    >
										<Coordinate point="-0.476631 -0.623835 -0.022506 -0.476631 -0.623835 0.022506 -0.160854 0.072903 0.022506 -0.160854 0.072903 -0.022506 -0.160854 0.072903 -0.022506 -0.160854 0.072903 0.022506 0.160854 -0.072903 0.022506 0.160854 -0.072903 -0.022506 0.160854 -0.072903 -0.022506 0.160854 -0.072903 0.022506 -0.154923 -0.769641 0.022506 -0.154923 -0.769641 -0.022506 -0.154923 -0.769641 -0.022506 -0.154923 -0.769641 0.022506 -0.476631 -0.623835 0.022506 -0.476631 -0.623835 -0.022506 0.160854 -0.072903 -0.022506 -0.154923 -0.769641 -0.022506 0.160854 -0.072903 0.022506 -0.154923 -0.769641 0.022506 " />
										<Normal vector="-0.764183 -0.287515 -0.577349 -0.764183 -0.287515 0.577349 -0.287515 0.764183 0.577349 -0.287515 0.764183 -0.577349 -0.287515 0.764183 -0.577349 -0.287515 0.764183 0.577349 0.764183 0.287515 0.577349 0.764183 0.287515 -0.577349 0.764183 0.287515 -0.577349 0.764183 0.287515 0.577349 0.287515 -0.764183 0.577349 0.287515 -0.764183 -0.577349 0.287515 -0.764183 -0.577349 0.287515 -0.764183 0.577349 -0.764183 -0.287515 0.577349 -0.764183 -0.287515 -0.577349 0.764183 0.287515 -0.577349 0.287515 -0.764183 -0.577349 0.764183 0.287515 0.577349 0.287515 -0.764183 0.577349 " />
										<TextureCoordinate point="0.5467 0.0256 0.9742 0.0256 0.9742 0.2241 0.5467 0.2241 0.5467 0.0256 0.9742 0.0256 0.9742 0.2241 0.5467 0.2241 0.5467 0.0256 0.9742 0.0256 0.9742 0.2241 0.5467 0.2241 0.5467 0.0256 0.9742 0.0256 0.9742 0.2241 0.5467 0.2241 0.9742 0.0256 0.9742 0.2241 0.5467 0.0256 0.5467 0.2241 " />
									</IndexedTriangleSet>
								</Shape>
							</Group>
						</Transform>
					</Transform>
				</Transform>
				<Transform DEF="Cube_020_TRANSFORM"
				           translation="-0.628294 -1.148847 -0.000000"
				           scale="1.000000 1.000000 1.000000"
				           rotation="0.000000 1.000000 0.000000 0.000000"
				           >
					<Transform DEF="Cube_020_ifs_TRANSFORM"
					           translation="0.000000 0.000000 0.000000"
					           scale="1.000000 1.000000 1.000000"
					           rotation="0.000000 1.000000 0.000000 0.000000"
					           >
						<Group DEF="group_ME_Cube_024">
							<Shape>
								<Appearance>
									<Material USE="MA_Body" />
								</Appearance>
								<IndexedTriangleSet solid="false"
								                    normalPerVertex="true"
								                    index="0 1 2 0 2 3 4 5 6 4 6 7 8 9 10 8 10 11 12 13 14 12 14 15 4 13 16 4 16 17 18 19 14 18 14 7 "
								                    >
									<Coordinate point="0.201970 -0.709118 -0.027880 0.295134 -0.041164 -0.027880 0.295134 -0.041165 0.027880 0.201970 -0.709118 0.027880 0.295134 -0.041164 -0.027880 -0.295134 0.041165 -0.027880 -0.295134 0.041164 0.027880 0.295134 -0.041165 0.027880 -0.295134 0.041165 -0.027880 -0.388298 -0.626789 -0.027880 -0.388298 -0.626789 0.027880 -0.295134 0.041164 0.027880 -0.388298 -0.626789 -0.027880 0.201970 -0.709118 -0.027880 0.201970 -0.709118 0.027880 -0.388298 -0.626789 0.027880 -0.388298 -0.626789 -0.027880 -0.295134 0.041165 -0.027880 -0.295134 0.041164 0.027880 -0.388298 -0.626789 0.027880 " />
									<Normal vector="0.492050 -0.651570 -0.577349 0.651570 0.492050 -0.577349 0.651570 0.492050 0.577349 0.492050 -0.651570 0.577349 0.651570 0.492050 -0.577349 -0.492050 0.651570 -0.577349 -0.492050 0.651570 0.577349 0.651570 0.492050 0.577349 -0.492050 0.651570 -0.577349 -0.651570 -0.492050 -0.577349 -0.651570 -0.492050 0.577349 -0.492050 0.651570 0.577349 -0.651570 -0.492050 -0.577349 0.492050 -0.651570 -0.577349 0.492050 -0.651570 0.577349 -0.651570 -0.492050 0.577349 -0.651570 -0.492050 -0.577349 -0.492050 0.651570 -0.577349 -0.492050 0.651570 0.577349 -0.651570 -0.492050 0.577349 " />
									<TextureCoordinate point="0.5467 0.0256 0.5467 0.2241 0.9742 0.2241 0.9742 0.0256 0.5467 0.0256 0.5467 0.2241 0.9742 0.2241 0.9742 0.0256 0.5467 0.0256 0.5467 0.2241 0.9742 0.2241 0.9742 0.0256 0.5467 0.0256 0.5467 0.2241 0.9742 0.2241 0.9742 0.0256 0.9742 0.2241 0.9742 0.0256 0.5467 0.0256 0.5467 0.2241 " />
								</IndexedTriangleSet>
							</Shape>
						</Group>
					</Transform>
					<Transform DEF="Cube_021_TRANSFORM"
					           translation="-0.115262 -0.486722 0.000000"
					           scale="1.000000 1.000000 1.000000"
					           rotation="0.000000 1.000000 0.000000 0.000000"
					           >
						<Transform DEF="Cube_021_ifs_TRANSFORM"
						           translation="0.000000 0.000000 0.000000"
						           scale="1.000000 1.000000 1.000000"
						           rotation="0.000000 1.000000 0.000000 0.000000"
						           >
							<Group DEF="group_ME_Cube_025">
								<Shape>
									<Appearance>
										<Material USE="MA_Body" />
									</Appearance>
									<IndexedTriangleSet solid="false"
									                    normalPerVertex="true"
									                    index="0 1 2 0 2 3 4 5 6 4 6 7 8 9 10 8 10 11 12 13 14 12 14 15 4 13 16 4 16 17 18 19 14 18 14 7 "
									                    >
										<Coordinate point="0.476631 -0.623835 -0.022506 0.160854 0.072903 -0.022506 0.160854 0.072903 0.022506 0.476631 -0.623835 0.022506 0.160854 0.072903 -0.022506 -0.160854 -0.072903 -0.022506 -0.160854 -0.072903 0.022506 0.160854 0.072903 0.022506 -0.160854 -0.072903 -0.022506 0.154923 -0.769641 -0.022506 0.154923 -0.769641 0.022506 -0.160854 -0.072903 0.022506 0.154923 -0.769641 -0.022506 0.476631 -0.623835 -0.022506 0.476631 -0.623835 0.022506 0.154923 -0.769641 0.022506 0.154923 -0.769641 -0.022506 -0.160854 -0.072903 -0.022506 -0.160854 -0.072903 0.022506 0.154923 -0.769641 0.022506 " />
										<Normal vector="0.764183 -0.287515 -0.577349 0.287515 0.764183 -0.577349 0.287515 0.764183 0.577349 0.764183 -0.287515 0.577349 0.287515 0.764183 -0.577349 -0.764183 0.287515 -0.577349 -0.764183 0.287515 0.577349 0.287515 0.764183 0.577349 -0.764183 0.287515 -0.577349 -0.287515 -0.764183 -0.577349 -0.287515 -0.764183 0.577349 -0.764183 0.287515 0.577349 -0.287515 -0.764183 -0.577349 0.764183 -0.287515 -0.577349 0.764183 -0.287515 0.577349 -0.287515 -0.764183 0.577349 -0.287515 -0.764183 -0.577349 -0.764183 0.287515 -0.577349 -0.764183 0.287515 0.577349 -0.287515 -0.764183 0.577349 " />
										<TextureCoordinate point="0.5467 0.0256 0.5467 0.2241 0.9742 0.2241 0.9742 0.0256 0.5467 0.0256 0.5467 0.2241 0.9742 0.2241 0.9742 0.0256 0.5467 0.0256 0.5467 0.2241 0.9742 0.2241 0.9742 0.0256 0.5467 0.0256 0.5467 0.2241 0.9742 0.2241 0.9742 0.0256 0.9742 0.2241 0.9742 0.0256 0.5467 0.0256 0.5467 0.2241 " />
									</IndexedTriangleSet>
								</Shape>
							</Group>
						</Transform>
					</Transform>
				</Transform>
			</Transform>
			<Transform DEF="leg2_TRANSFORM"
			           translation="-0.535342 0.007794 0.006753"
			           scale="1.000000 1.000000 1.000000"
			           rotation="0.000000 1.000000 0.000000 0.000000"
			           >
				<Transform DEF="leg2_ifs_TRANSFORM"
				           translation="0.000000 0.000000 0.000000"
				           scale="1.000000 1.000000 1.000000"
				           rotation="0.000000 1.000000 0.000000 0.000000"
				           >
					<Group DEF="group_ME_leg2">
						<Shape>
							<Appearance>
								<Material USE="MA_Body" />
							</Appearance>
							<IndexedTriangleSet solid="false"
							                    normalPerVertex="true"
							                    index="0 1 2 0 2 3 4 5 6 4 6 7 8 9 10 8 10 11 12 13 14 12 14 15 4 13 16 4 16 17 18 19 14 18 14 7 "
							                    >
								<Coordinate point="0.142900 -0.146665 -1.046765 0.142900 0.146665 -1.046765 0.142900 0.146665 0.000000 0.142900 -0.146665 -0.000000 0.142900 0.146665 -1.046765 -0.142900 0.146665 -1.046765 -0.142900 0.146665 0.000000 0.142900 0.146665 0.000000 -0.142900 0.146665 -1.046765 -0.142900 -0.146665 -1.046765 -0.142900 -0.146665 -0.000000 -0.142900 0.146665 0.000000 -0.142900 -0.146665 -1.046765 0.142900 -0.146665 -1.046765 0.142900 -0.146665 -0.000000 -0.142900 -0.146665 -0.000000 -0.142900 -0.146665 -1.046765 -0.142900 0.146665 -1.046765 -0.142900 0.146665 0.000000 -0.142900 -0.146665 -0.000000 " />
								<Normal vector="0.577349 -0.577349 -0.577349 0.577349 0.577349 -0.577349 0.577349 0.577349 0.577349 0.577349 -0.577349 0.577349 0.577349 0.577349 -0.577349 -0.577349 0.577349 -0.577349 -0.577349 0.577349 0.577349 0.577349 0.577349 0.577349 -0.577349 0.577349 -0.577349 -0.577349 -0.577349 -0.577349 -0.577349 -0.577349 0.577349 -0.577349 0.577349 0.577349 -0.577349 -0.577349 -0.577349 0.577349 -0.577349 -0.577349 0.577349 -0.577349 0.577349 -0.577349 -0.577349 0.577349 -0.577349 -0.577349 -0.577349 -0.577349 0.577349 -0.577349 -0.577349 0.577349 0.577349 -0.577349 -0.577349 0.577349 " />
								<TextureCoordinate point="0.5392 0.5268 0.5392 0.9692 0.9817 0.9692 0.9817 0.5268 0.5392 0.5268 0.5392 0.9692 0.9817 0.9692 0.9817 0.5268 0.5392 0.5268 0.5392 0.9692 0.9817 0.9692 0.9817 0.5268 0.5392 0.5268 0.5392 0.9692 0.9817 0.9692 0.9817 0.5268 0.9817 0.9692 0.9817 0.5268 0.5392 0.5268 0.5392 0.9692 " />
							</IndexedTriangleSet>
						</Shape>
					</Group>
				</Transform>
				<Transform DEF="foot2_TRANSFORM"
				           translation="0.000865 -0.027227 -0.892435"
				           scale="1.000000 1.000000 1.000000"
				           rotation="0.000000 1.000000 0.000000 0.000000"
				           >
					<Transform DEF="foot2_ifs_TRANSFORM"
					           translation="0.000000 0.000000 0.000000"
					           scale="1.000000 1.000000 1.000000"
					           rotation="0.000000 1.000000 0.000000 0.000000"
					           >
						<Group DEF="group_ME_foot2">
							<Shape>
								<Appearance>
									<Material USE="MA_Body" />
								</Appearance>
								<IndexedTriangleSet solid="false"
								                    normalPerVertex="true"
								                    index="0 1 2 0 2 3 4 5 6 4 6 7 8 9 10 8 10 11 12 13 14 12 14 15 16 17 18 16 18 19 20 21 14 20 14 22 23 24 25 23 25 26 27 28 9 27 9 8 29 30 5 29 5 4 31 32 1 31 1 0 33 34 35 33 35 36 34 29 4 34 4 35 37 38 39 37 39 40 41 42 12 41 12 43 44 45 46 44 46 47 47 46 21 47 21 20 33 48 49 33 49 50 50 49 17 50 17 16 51 43 52 51 52 53 43 12 15 43 15 52 36 35 54 36 54 22 35 4 7 35 7 54 "
								                    >
									<Coordinate point="0.422220 -0.646267 -0.158040 0.422220 0.457204 -0.158040 0.422220 0.457204 0.000000 0.422220 -0.646267 -0.000000 -0.140740 0.457204 -0.158040 -0.422220 0.457204 -0.158040 -0.422220 0.457204 0.000000 -0.140740 0.457204 0.000000 -0.422220 0.457204 -0.158040 -0.422220 -0.646267 -0.158040 -0.422220 -0.646267 -0.000000 -0.422220 0.457204 0.000000 0.140740 -0.646267 -0.158040 0.422220 -0.646267 -0.158040 0.422220 -0.646267 -0.000000 0.140740 -0.646267 -0.000000 -0.140740 0.457204 -0.455422 -0.140740 -0.646267 -0.455422 -0.422220 -0.646267 -0.455422 -0.422220 0.457204 -0.455422 0.140740 0.457204 0.000000 0.140740 -0.646267 -0.000000 0.422220 0.457204 0.000000 0.140740 -0.646267 -0.455422 0.422220 -0.646267 -0.455422 0.422220 -0.646267 -0.158040 0.140740 -0.646267 -0.158040 -0.422220 0.457204 -0.455422 -0.422220 -0.646267 -0.455422 -0.140740 0.457204 -0.455422 -0.422220 0.457204 -0.455422 0.422220 -0.646267 -0.455422 0.422220 0.457204 -0.455422 0.422220 0.457204 -0.455422 0.140740 0.457204 -0.455422 0.140740 0.457204 -0.158040 0.422220 0.457204 -0.158040 -0.422220 -0.646267 -0.455422 -0.140740 -0.646267 -0.455422 -0.140740 -0.646267 -0.158040 -0.422220 -0.646267 -0.158040 -0.140740 -0.646267 -0.455422 0.140740 -0.646267 -0.455422 -0.140740 -0.646267 -0.158040 -0.422220 0.457204 0.000000 -0.422220 -0.646267 -0.000000 -0.140740 -0.646267 -0.000000 -0.140740 0.457204 0.000000 0.422220 -0.646267 -0.455422 0.140740 -0.646267 -0.455422 0.140740 0.457204 -0.455422 -0.422220 -0.646267 -0.158040 -0.140740 -0.646267 -0.000000 -0.422220 -0.646267 -0.000000 0.140740 0.457204 0.000000 " />
									<Normal vector="0.707083 -0.707083 0.000000 0.707083 0.707083 0.000000 0.577349 0.577349 0.577349 0.577349 -0.577349 0.577349 0.000000 1.000000 0.000000 -0.707083 0.707083 0.000000 -0.577349 0.577349 0.577349 0.000000 0.707083 0.707083 -0.707083 0.707083 0.000000 -0.707083 -0.707083 0.000000 -0.577349 -0.577349 0.577349 -0.577349 0.577349 0.577349 0.000000 -1.000000 0.000000 0.707083 -0.707083 0.000000 0.577349 -0.577349 0.577349 0.000000 -0.707083 0.707083 0.000000 0.707083 -0.707083 0.000000 -0.707083 -0.707083 -0.577349 -0.577349 -0.577349 -0.577349 0.577349 -0.577349 0.000000 0.707083 0.707083 0.000000 -0.707083 0.707083 0.577349 0.577349 0.577349 0.000000 -0.707083 -0.707083 0.577349 -0.577349 -0.577349 0.707083 -0.707083 0.000000 0.000000 -1.000000 0.000000 -0.577349 0.577349 -0.577349 -0.577349 -0.577349 -0.577349 0.000000 0.707083 -0.707083 -0.577349 0.577349 -0.577349 0.577349 -0.577349 -0.577349 0.577349 0.577349 -0.577349 0.577349 0.577349 -0.577349 0.000000 0.707083 -0.707083 0.000000 1.000000 0.000000 0.707083 0.707083 0.000000 -0.577349 -0.577349 -0.577349 0.000000 -0.707083 -0.707083 0.000000 -1.000000 0.000000 -0.707083 -0.707083 0.000000 0.000000 -0.707083 -0.707083 0.000000 -0.707083 -0.707083 0.000000 -1.000000 0.000000 -0.577349 0.577349 0.577349 -0.577349 -0.577349 0.577349 0.000000 -0.707083 0.707083 0.000000 0.707083 0.707083 0.577349 -0.577349 -0.577349 0.000000 -0.707083 -0.707083 0.000000 0.707083 -0.707083 -0.707083 -0.707083 0.000000 0.000000 -0.707083 0.707083 -0.577349 -0.577349 0.577349 0.000000 0.707083 0.707083 " />
									<TextureCoordinate point="0.8281 0.5268 0.8281 0.9692 0.9817 0.9692 0.9817 0.5268 0.8281 0.8218 0.8281 0.9692 0.9817 0.9692 0.9817 0.8218 0.8281 0.5268 0.8281 0.9692 0.9817 0.9692 0.9817 0.5268 0.8281 0.8218 0.8281 0.9692 0.9817 0.9692 0.9817 0.8218 0.8342 0.5268 0.8342 0.9692 0.9817 0.9692 0.9817 0.5268 0.8342 0.5268 0.8342 0.9692 0.9817 0.5268 0.5442 0.0208 0.5442 0.2227 0.9643 0.2227 0.9643 0.0208 0.5392 0.5268 0.5392 0.9692 0.5392 0.8218 0.5392 0.9692 0.5392 0.5268 0.5392 0.9692 0.5392 0.5268 0.5392 0.6743 0.8281 0.6743 0.8281 0.5268 0.5442 0.0208 0.5442 0.2227 0.9643 0.2227 0.9643 0.0208 0.5392 0.6743 0.5392 0.8218 0.8281 0.6743 0.5392 0.5268 0.5392 0.9692 0.6867 0.9692 0.6867 0.5268 0.5392 0.9692 0.6867 0.9692 0.6867 0.5268 0.8281 0.5268 0.9817 0.6743 0.9817 0.5268 0.9817 0.6743 " />
								</IndexedTriangleSet>
							</Shape>
						</Group>
					</Transform>
				</Transform>
			</Transform>
		</Transform>
	</Scene>
</X3D>