<?xml version="1.0" encoding="UTF-8"?>
<!DOCTYPE X3D PUBLIC "ISO//Web3D//DTD X3D 3.0//EN" "http://www.web3d.org/specifications/x3d-3.0.dtd">
<X3D version="3.0" profile="Immersive" xmlns:xsd="http://www.w3.org/2001/XMLSchema-instance" xsd:noNamespaceSchemaLocation="http://www.web3d.org/specifications/x3d-3.0.xsd">
	<head>
		<meta name="filename" content="poliwrath.x3d" />
		<meta name="generator" content="Blender 2.93.18" />
	</head>
	<Scene>
		<NavigationInfo headlight="true"
		                visibilityLimit="0.0"
		                type='"EXAMINE", "ANY"'
		                avatarSize="0.25, 1.75, 0.75"
		                />
		<Background DEF="WO_World"
		            groundColor="0.051 0.051 0.051"
		            skyColor="0.051 0.051 0.051"
		            />
		<Transform DEF="body_TRANSFORM"
		           translation="0.000000 0.000000 1.055024"
		           scale="1.000000 1.000000 1.000000"
		           rotation="0.000000 0.000000 1.000000 3.141593"
		           >
			<Transform DEF="body_ifs_TRANSFORM"
			           translation="0.000000 0.000000 0.000000"
			           scale="1.000000 1.000000 1.000000"
			           rotation="0.000000 1.000000 0.000000 0.000000"
			           >
				<Group DEF="group_ME_body">
					<Shape>
						<Appearance>
							<Material DEF="MA_Body"
							          diffuseColor="0.800 0.800 0.800"
							          specularColor="0.401 0.401 0.401"
							          emissiveColor="0.000 0.000 0.000"
							          ambientIntensity="0.000"
							          shininess="0.500"
							          transparency="0.0"
							          />
						</Appearance>
						<IndexedTriangleSet solid="false"
						                    normalPerVertex="true"
						                    index="0 1 2 0 2 3 4 5 6 4 6 7 8 9 10 8 10 11 12 13 14 12 14 15 4 16 17 4 17 15 18 5 14 18 14 19 "
						                    >
							<Coordinate point="-1.127444 -0.754962 0.000000 -1.127444 -0.754962 0.403505 -1.127444 0.754962 0.403505 -1.127444 0.754962 0.000000 -1.127444 0.754962 0.000000 -1.127444 0.754962 0.403505 1.127444 0.754962 0.403505 1.127444 0.754962 0.000000 1.127444 0.754962 0.000000 1.127444 0.754962 0.403505 1.127444 -0.754962 0.403505 1.127444 -0.754962 0.000000 1.127444 -0.754962 0.000000 1.127444 -0.754962 0.403505 -1.127444 -0.754962 0.403505 -1.127444 -0.754962 0.000000 1.127444 0.754962 0.000000 1.127444 -0.754962 0.000000 1.127444 0.754962 0.403505 1.127444 -0.754962 0.403505 " />
							<Normal vector="-0.577349 -0.577349 -0.577349 -0.577349 -0.577349 0.577349 -0.577349 0.577349 0.577349 -0.577349 0.577349 -0.577349 -0.577349 0.577349 -0.577349 -0.577349 0.577349 0.577349 0.577349 0.577349 0.577349 0.577349 0.577349 -0.577349 0.577349 0.577349 -0.577349 0.577349 0.577349 0.577349 0.577349 -0.577349 0.577349 0.577349 -0.577349 -0.577349 0.577349 -0.577349 -0.577349 0.577349 -0.577349 0.577349 -0.577349 -0.577349 0.577349 -0.577349 -0.577349 -0.577349 0.577349 0.577349 -0.577349 0.577349 -0.577349 -0.577349 0.577349 0.577349 0.577349 0.577349 -0.577349 0.577349 " />
							<TextureCoordinate point="0.0490 0.8118 0.2030 0.8118 0.2030 0.9658 0.0490 0.9658 0.0490 0.8118 0.2030 0.8118 0.2030 0.9658 0.0490 0.9658 0.0490 0.8118 0.2030 0.8118 0.2030 0.9658 0.0490 0.9658 0.0490 0.8118 0.2030 0.8118 0.2030 0.9658 0.0490 0.9658 0.2030 0.8118 0.2030 0.9658 0.0490 0.8118 0.0490 0.9658 " />
						</IndexedTriangleSet>
					</Shape>
				</Group>
			</Transform>
			<Transform DEF="Cube_001_TRANSFORM"
			           translation="0.000000 0.000000 0.295407"
			           scale="1.000000 1.000000 1.000000"
			           rotation="0.000000 1.000000 0.000000 0.000000"
			           >
				<Transform DEF="Cube_001_ifs_TRANSFORM"
				           translation="0.000000 0.000000 0.000000"
				           scale="1.000000 1.000000 1.000000"
				           rotation="0.000000 1.000000 0.000000 0.000000"
				           >
					<Group DEF="group_ME_Cube_006">
						<Shape>
							<Appearance>
								<Material USE="MA_Body" />
							</Appearance>
							<IndexedTriangleSet solid="false"
							                    normalPerVertex="true"
							                    index="0 1 2 0 2 3 4 5 6 4 6 7 8 9 10 8 10 11 12 13 14 12 14 15 4 16 17 4 17 15 18 5 14 18 14 19 "
							                    >
								<Coordinate point="-1.464694 -0.828915 0.000000 -1.464694 -0.828915 2.059448 -1.464694 1.161052 2.059448 -1.464694 1.161052 0.000000 -1.464694 1.161052 0.000000 -1.464694 1.161052 2.059448 1.464694 1.161052 2.059448 1.464694 1.161052 0.000000 1.464694 1.161052 0.000000 1.464694 1.161052 2.059448 1.464694 -0.828915 2.059448 1.464694 -0.828915 0.000000 1.464694 -0.828915 0.000000 1.464694 -0.828915 2.059448 -1.464694 -0.828915 2.059448 -1.464694 -0.828915 0.000000 1.464694 1.161052 0.000000 1.464694 -0.828915 0.000000 1.464694 1.161052 2.059448 1.464694 -0.828915 2.059448 " />
								<Normal vector="-0.577349 -0.577349 -0.577349 -0.577349 -0.577349 0.577349 -0.577349 0.577349 0.577349 -0.577349 0.577349 -0.577349 -0.577349 0.577349 -0.577349 -0.577349 0.577349 0.577349 0.577349 0.577349 0.577349 0.577349 0.577349 -0.577349 0.577349 0.577349 -0.577349 0.577349 0.577349 0.577349 0.577349 -0.577349 0.577349 0.577349 -0.577349 -0.577349 0.577349 -0.577349 -0.577349 0.577349 -0.577349 0.577349 -0.577349 -0.577349 0.577349 -0.577349 -0.577349 -0.577349 0.577349 0.577349 -0.577349 0.577349 -0.577349 -0.577349 0.577349 0.577349 0.577349 0.577349 -0.577349 0.577349 " />
								<TextureCoordinate point="0.0490 0.8118 0.2030 0.8118 0.2030 0.9658 0.0490 0.9658 0.0490 0.8118 0.2030 0.8118 0.2030 0.9658 0.0490 0.9658 0.0490 0.8118 0.2030 0.8118 0.2030 0.9658 0.0490 0.9658 0.0490 0.8118 0.2030 0.8118 0.2030 0.9658 0.0490 0.9658 0.2030 0.8118 0.2030 0.9658 0.0490 0.8118 0.0490 0.9658 " />
							</IndexedTriangleSet>
						</Shape>
					</Group>
				</Transform>
			</Transform>
			<Transform DEF="Cube_002_TRANSFORM"
			           translation="0.000000 0.073634 2.193916"
			           scale="1.000000 1.000000 1.000000"
			           rotation="0.000000 1.000000 0.000000 0.000000"
			           >
				<Transform DEF="Cube_002_ifs_TRANSFORM"
				           translation="0.000000 0.000000 0.000000"
				           scale="1.000000 1.000000 1.000000"
				           rotation="0.000000 1.000000 0.000000 0.000000"
				           >
					<Group DEF="group_ME_Cube_018">
						<Shape>
							<Appearance>
								<Material USE="MA_Body" />
							</Appearance>
							<IndexedTriangleSet solid="false"
							                    normalPerVertex="true"
							                    index="0 1 2 0 2 3 4 5 6 4 6 7 8 9 10 8 10 11 12 13 14 12 14 15 16 17 18 16 18 19 20 21 14 20 14 22 23 24 25 23 25 26 24 20 22 24 22 25 27 28 29 27 29 30 28 16 19 28 19 29 31 32 33 31 33 34 34 33 13 34 13 12 35 21 36 35 36 37 37 36 5 37 5 4 38 39 40 38 40 41 27 42 39 27 39 38 43 44 45 43 45 46 47 48 44 47 44 43 46 45 49 46 49 30 50 51 52 50 52 53 41 40 54 41 54 55 56 57 58 56 58 59 39 37 4 39 4 40 42 35 37 42 37 39 60 61 62 60 62 63 48 31 34 48 34 44 45 12 15 45 15 49 51 8 11 51 11 52 40 4 7 40 7 54 57 0 3 57 3 58 "
							                    >
								<Coordinate point="-1.236477 -0.788816 0.349945 -1.236477 -0.791980 0.373513 -1.236477 0.665410 0.569187 -1.236477 0.668574 0.545620 0.381468 0.668574 0.545620 0.381468 0.665409 0.569187 1.236477 0.665410 0.569187 1.236477 0.668574 0.545620 1.236477 0.668574 0.545620 1.236477 0.665410 0.569187 1.236477 -0.791980 0.373513 1.236477 -0.788816 0.349945 -0.381468 -0.788816 0.349945 -0.381468 -0.791980 0.373513 -1.236477 -0.791980 0.373513 -1.236477 -0.788816 0.349945 0.381468 0.728695 0.097837 1.236477 0.728695 0.097837 1.236477 -0.728695 -0.097837 0.381468 -0.728695 -0.097837 -0.381468 0.665409 0.569187 -1.236477 0.665410 0.569187 -0.381468 -0.791980 0.373513 1.236477 0.665410 0.569187 0.381468 0.665409 0.569187 0.381468 -0.791980 0.373513 1.236477 -0.791980 0.373513 -1.236477 0.728695 0.097837 -0.381468 0.728695 0.097837 -0.381468 -0.728695 -0.097837 -1.236477 -0.728695 -0.097837 1.236477 -0.788816 0.349945 1.236477 -0.791980 0.373513 0.381468 -0.791980 0.373513 0.381468 -0.788816 0.349945 -1.236477 0.668574 0.545620 -0.381468 0.665409 0.569187 -0.381468 0.668574 0.545620 -0.381468 0.728695 0.097837 -0.381468 0.697052 0.333512 0.381468 0.697052 0.333512 0.381468 0.728695 0.097837 -1.236477 0.697052 0.333512 0.381468 -0.728695 -0.097837 0.381468 -0.760337 0.137838 -0.381468 -0.760337 0.137838 -0.381468 -0.728695 -0.097837 1.236477 -0.728695 -0.097837 1.236477 -0.760338 0.137838 -1.236477 -0.760338 0.137838 1.236477 0.728695 0.097837 1.236477 0.697052 0.333512 1.236477 -0.760338 0.137838 1.236477 -0.728695 -0.097837 1.236477 0.697052 0.333512 1.236477 0.728695 0.097837 -1.236477 -0.728695 -0.097837 -1.236477 -0.760338 0.137838 -1.236477 0.697052 0.333512 -1.236477 0.728695 0.097837 0.381468 -0.760337 0.137838 0.381468 -0.788816 0.349945 -0.381468 -0.788816 0.349945 -0.381468 -0.760337 0.137838 " />
								<Normal vector="-0.707083 -0.700797 -0.094089 -0.577349 -0.649037 0.495376 -0.577349 0.495376 0.649037 -0.707083 0.700797 0.094089 0.000000 0.991089 0.133061 0.000000 0.606708 0.794885 0.577349 0.495376 0.649037 0.707083 0.700797 0.094089 0.707083 0.700797 0.094089 0.577349 0.495376 0.649037 0.577349 -0.649037 0.495376 0.707083 -0.700797 -0.094089 0.000000 -0.991089 -0.133061 0.000000 -0.794885 0.606708 -0.577349 -0.649037 0.495376 -0.707083 -0.700797 -0.094089 0.000000 0.794885 -0.606708 0.577349 0.649037 -0.495376 0.577349 -0.495376 -0.649037 0.000000 -0.606708 -0.794885 0.000000 0.606708 0.794885 -0.577349 0.495376 0.649037 0.000000 -0.794885 0.606708 0.577349 0.495376 0.649037 0.000000 0.606708 0.794885 0.000000 -0.794885 0.606708 0.577349 -0.649037 0.495376 -0.577349 0.649037 -0.495376 0.000000 0.794885 -0.606708 0.000000 -0.606708 -0.794885 -0.577349 -0.495376 -0.649037 0.707083 -0.700797 -0.094089 0.577349 -0.649037 0.495376 0.000000 -0.794885 0.606708 0.000000 -0.991089 -0.133061 -0.707083 0.700797 0.094089 0.000000 0.606708 0.794885 0.000000 0.991089 0.133061 0.000000 0.794885 -0.606708 0.000000 0.991089 0.133061 0.000000 0.991089 0.133061 0.000000 0.794885 -0.606708 -0.707083 0.700797 0.094089 0.000000 -0.606708 -0.794885 0.000000 -0.991089 -0.133061 0.000000 -0.991089 -0.133061 0.000000 -0.606708 -0.794885 0.577349 -0.495376 -0.649037 0.707083 -0.700797 -0.094089 -0.707083 -0.700797 -0.094089 0.577349 0.649037 -0.495376 0.707083 0.700797 0.094089 0.707083 -0.700797 -0.094089 0.577349 -0.495376 -0.649037 0.707083 0.700797 0.094089 0.577349 0.649037 -0.495376 -0.577349 -0.495376 -0.649037 -0.707083 -0.700797 -0.094089 -0.707083 0.700797 0.094089 -0.577349 0.649037 -0.495376 0.000000 -0.991089 -0.133061 0.000000 -0.991089 -0.133061 0.000000 -0.991089 -0.133061 0.000000 -0.991089 -0.133061 " />
								<TextureCoordinate point="0.1645 0.8118 0.2030 0.8118 0.2030 0.9658 0.1645 0.9658 0.1645 0.9145 0.2030 0.9145 0.2030 0.9658 0.1645 0.9658 0.1645 0.8118 0.2030 0.8118 0.2030 0.9658 0.1645 0.9658 0.1645 0.9145 0.2030 0.9145 0.2030 0.9658 0.1645 0.9658 0.1516 0.8118 0.2030 0.8118 0.2030 0.9658 0.1516 0.9658 0.1516 0.8118 0.2030 0.8118 0.1516 0.9658 0.0490 0.8118 0.1003 0.8118 0.1003 0.9658 0.0490 0.9658 0.0490 0.8118 0.1003 0.8118 0.1003 0.9658 0.0490 0.9658 0.1645 0.8118 0.2030 0.8118 0.2030 0.8631 0.1645 0.8631 0.1645 0.8118 0.2030 0.8631 0.1645 0.8631 0.0490 0.8631 0.1260 0.8631 0.1260 0.9145 0.0490 0.9145 0.1260 0.8118 0.0490 0.8631 0.1260 0.8631 0.1260 0.9145 0.0490 0.9145 0.0490 0.8118 0.1260 0.8118 0.1260 0.9658 0.0490 0.8118 0.1260 0.8118 0.1260 0.9658 0.0490 0.9658 0.1260 0.9658 0.0490 0.9658 0.0490 0.8118 0.1260 0.8118 0.1260 0.9658 0.0490 0.9658 0.8493 0.8178 0.8493 0.9712 0.4163 0.9712 0.4163 0.8178 " />
							</IndexedTriangleSet>
						</Shape>
					</Group>
				</Transform>
			</Transform>
			<Transform DEF="Cube_003_TRANSFORM"
			           translation="0.000000 -0.527512 1.269936"
			           scale="1.000000 1.000000 1.000000"
			           rotation="0.000000 1.000000 0.000000 0.000000"
			           >
				<Transform DEF="Cube_003_ifs_TRANSFORM"
				           translation="0.000000 0.000000 0.000000"
				           scale="1.000000 1.000000 1.000000"
				           rotation="0.000000 1.000000 0.000000 0.000000"
				           >
					<Group DEF="group_ME_Cube_019">
						<Shape>
							<Appearance>
								<Material USE="MA_Body" />
							</Appearance>
							<IndexedTriangleSet solid="false"
							                    normalPerVertex="true"
							                    index="0 1 2 0 2 3 4 5 6 4 6 7 8 9 10 8 10 11 12 13 14 12 14 15 16 17 18 16 18 19 20 21 22 20 22 23 24 25 26 24 26 27 25 20 23 25 23 26 28 29 30 28 30 31 29 16 19 29 19 30 32 33 34 32 34 35 36 37 38 36 38 39 28 21 40 28 40 41 41 40 5 41 5 4 "
							                    >
								<Coordinate point="-1.254421 -0.439862 -0.990357 -1.254421 -0.751351 0.780869 -1.254421 -0.155744 0.885613 -1.254421 0.155744 -0.885613 0.951231 0.155744 -0.885613 0.951231 -0.155744 0.885613 1.254421 -0.155744 0.885613 1.254421 0.155744 -0.885613 1.254421 0.155744 -0.885613 1.254421 -0.155744 0.885613 1.254421 -0.751351 0.780869 1.254421 -0.439862 -0.990357 -0.951231 -0.439862 -0.990357 -0.951231 -0.751351 0.780869 -1.254421 -0.751351 0.780869 -1.254421 -0.439862 -0.990357 0.951231 0.155744 -0.885613 1.254421 0.155744 -0.885613 1.254421 -0.439862 -0.990357 0.951231 -0.439862 -0.990357 -0.951231 -0.155744 0.885613 -1.254421 -0.155744 0.885613 -1.254421 -0.751351 0.780869 -0.951231 -0.751351 0.780869 1.254421 -0.155744 0.885613 0.951231 -0.155744 0.885613 0.951231 -0.751351 0.780869 1.254421 -0.751351 0.780869 -1.254421 0.155744 -0.885613 -0.951231 0.155744 -0.885613 -0.951231 -0.439862 -0.990357 -1.254421 -0.439862 -0.990357 1.254421 -0.439862 -0.990357 1.254421 -0.751351 0.780869 0.951231 -0.751351 0.780869 0.951231 -0.439862 -0.990357 0.951231 -0.439862 -0.990357 0.951231 -0.751351 0.780869 -0.951231 -0.751351 0.780869 -0.951231 -0.439862 -0.990357 -0.951231 -0.155744 0.885613 -0.951231 0.155744 -0.885613 " />
								<Normal vector="-0.577349 -0.468612 -0.668599 -0.577349 -0.668599 0.468612 -0.577349 0.468612 0.668599 -0.577349 0.668599 -0.468612 0.000000 0.818873 -0.573931 0.000000 0.573931 0.818873 0.577349 0.468612 0.668599 0.577349 0.668599 -0.468612 0.577349 0.668599 -0.468612 0.577349 0.468612 0.668599 0.577349 -0.668599 0.468612 0.577349 -0.468612 -0.668599 0.000000 -0.573931 -0.818873 0.000000 -0.818873 0.573931 -0.577349 -0.668599 0.468612 -0.577349 -0.468612 -0.668599 0.000000 0.818873 -0.573931 0.577349 0.668599 -0.468612 0.577349 -0.468612 -0.668599 0.000000 -0.573931 -0.818873 0.000000 0.573931 0.818873 -0.577349 0.468612 0.668599 -0.577349 -0.668599 0.468612 0.000000 -0.818873 0.573931 0.577349 0.468612 0.668599 0.000000 0.573931 0.818873 0.000000 -0.818873 0.573931 0.577349 -0.668599 0.468612 -0.577349 0.668599 -0.468612 0.000000 0.818873 -0.573931 0.000000 -0.573931 -0.818873 -0.577349 -0.468612 -0.668599 0.577349 -0.468612 -0.668599 0.577349 -0.668599 0.468612 0.000000 -0.818873 0.573931 0.000000 -0.573931 -0.818873 0.000000 -0.573931 -0.818873 0.000000 -0.818873 0.573931 0.000000 -0.818873 0.573931 0.000000 -0.573931 -0.818873 0.000000 0.573931 0.818873 0.000000 0.818873 -0.573931 " />
								<TextureCoordinate point="0.0244 0.5903 0.1784 0.5903 0.1784 0.7443 0.0244 0.7443 0.0244 0.6930 0.1784 0.6930 0.1784 0.7443 0.0244 0.7443 0.0244 0.5903 0.1784 0.5903 0.1784 0.7443 0.0244 0.7443 0.0164 0.6694 0.1765 0.6694 0.1765 0.7228 0.0164 0.7228 0.1270 0.5903 0.1784 0.5903 0.1784 0.7443 0.1270 0.7443 0.1270 0.5903 0.1784 0.5903 0.1784 0.7443 0.1270 0.7443 0.0244 0.5903 0.0757 0.5903 0.0757 0.7443 0.0244 0.7443 0.0244 0.5903 0.0757 0.5903 0.0757 0.7443 0.0244 0.7443 0.0164 0.5627 0.1765 0.5627 0.1765 0.6160 0.0164 0.6160 0.9831 0.0363 0.9831 0.7471 0.2765 0.7471 0.2765 0.0363 0.1784 0.6417 0.0244 0.6417 " />
							</IndexedTriangleSet>
						</Shape>
					</Group>
				</Transform>
			</Transform>
			<Transform DEF="leg1_TRANSFORM"
			           translation="0.752193 0.009769 0.009768"
			           scale="1.000000 1.000000 1.000000"
			           rotation="0.000000 1.000000 0.000000 0.000000"
			           >
				<Transform DEF="leg1_ifs_TRANSFORM"
				           translation="0.000000 0.000000 0.000000"
				           scale="1.000000 1.000000 1.000000"
				           rotation="0.000000 1.000000 0.000000 0.000000"
				           >
					<Group DEF="group_ME_leg1">
						<Shape>
							<Appearance>
								<Material USE="MA_Body" />
							</Appearance>
							<IndexedTriangleSet solid="false"
							                    normalPerVertex="true"
							                    index="0 1 2 0 2 3 4 5 6 4 6 7 8 9 10 8 10 11 12 13 14 12 14 15 4 16 17 4 17 15 18 5 14 18 14 19 "
							                    >
								<Coordinate point="-0.262215 -0.292670 -0.755110 -0.262215 -0.292670 0.000000 -0.262215 0.292670 0.000000 -0.262215 0.292670 -0.755110 -0.262215 0.292670 -0.755110 -0.262215 0.292670 0.000000 0.262215 0.292670 0.000000 0.262215 0.292670 -0.755110 0.262215 0.292670 -0.755110 0.262215 0.292670 0.000000 0.262215 -0.292670 0.000000 0.262215 -0.292670 -0.755110 0.262215 -0.292670 -0.755110 0.262215 -0.292670 0.000000 -0.262215 -0.292670 0.000000 -0.262215 -0.292670 -0.755110 0.262215 0.292670 -0.755110 0.262215 -0.292670 -0.755110 0.262215 0.292670 0.000000 0.262215 -0.292670 0.000000 " />
								<Normal vector="-0.577349 -0.577349 -0.577349 -0.577349 -0.577349 0.577349 -0.577349 0.577349 0.577349 -0.577349 0.577349 -0.577349 -0.577349 0.577349 -0.577349 -0.577349 0.577349 0.577349 0.577349 0.577349 0.577349 0.577349 0.577349 -0.577349 0.577349 0.577349 -0.577349 0.577349 0.577349 0.577349 0.577349 -0.577349 0.577349 0.577349 -0.577349 -0.577349 0.577349 -0.577349 -0.577349 0.577349 -0.577349 0.577349 -0.577349 -0.577349 0.577349 -0.577349 -0.577349 -0.577349 0.577349 0.577349 -0.577349 0.577349 -0.577349 -0.577349 0.577349 0.577349 0.577349 0.577349 -0.577349 0.577349 " />
								<TextureCoordinate point="0.0490 0.8118 0.2030 0.8118 0.2030 0.9658 0.0490 0.9658 0.0490 0.8118 0.2030 0.8118 0.2030 0.9658 0.0490 0.9658 0.0490 0.8118 0.2030 0.8118 0.2030 0.9658 0.0490 0.9658 0.0490 0.8118 0.2030 0.8118 0.2030 0.9658 0.0490 0.9658 0.2030 0.8118 0.2030 0.9658 0.0490 0.8118 0.0490 0.9658 " />
							</IndexedTriangleSet>
						</Shape>
					</Group>
				</Transform>
				<Transform DEF="foot1_TRANSFORM"
				           translation="0.000000 -0.009769 -0.713118"
				           scale="1.000000 1.000000 1.000000"
				           rotation="0.000000 1.000000 0.000000 0.000000"
				           >
					<Transform DEF="foot1_ifs_TRANSFORM"
					           translation="0.000000 0.000000 0.000000"
					           scale="1.000000 1.000000 1.000000"
					           rotation="0.000000 1.000000 0.000000 0.000000"
					           >
						<Group DEF="group_ME_foot1">
							<Shape>
								<Appearance>
									<Material USE="MA_Body" />
								</Appearance>
								<IndexedTriangleSet solid="false"
								                    normalPerVertex="true"
								                    index="0 1 2 0 2 3 4 5 6 4 6 7 8 9 10 8 10 11 12 13 14 12 14 15 4 16 17 4 17 15 18 5 14 18 14 19 "
								                    >
									<Coordinate point="-0.353949 -0.991983 -0.357817 -0.353949 -0.991983 0.000000 -0.353949 0.386321 0.000000 -0.353949 0.386321 -0.357817 -0.353949 0.386321 -0.357817 -0.353949 0.386321 0.000000 0.353949 0.386321 0.000000 0.353949 0.386321 -0.357817 0.353949 0.386321 -0.357817 0.353949 0.386321 0.000000 0.353949 -0.991983 0.000000 0.353949 -0.991983 -0.357817 0.353949 -0.991983 -0.357817 0.353949 -0.991983 0.000000 -0.353949 -0.991983 0.000000 -0.353949 -0.991983 -0.357817 0.353949 0.386321 -0.357817 0.353949 -0.991983 -0.357817 0.353949 0.386321 0.000000 0.353949 -0.991983 0.000000 " />
									<Normal vector="-0.577349 -0.577349 -0.577349 -0.577349 -0.577349 0.577349 -0.577349 0.577349 0.577349 -0.577349 0.577349 -0.577349 -0.577349 0.577349 -0.577349 -0.577349 0.577349 0.577349 0.577349 0.577349 0.577349 0.577349 0.577349 -0.577349 0.577349 0.577349 -0.577349 0.577349 0.577349 0.577349 0.577349 -0.577349 0.577349 0.577349 -0.577349 -0.577349 0.577349 -0.577349 -0.577349 0.577349 -0.577349 0.577349 -0.577349 -0.577349 0.577349 -0.577349 -0.577349 -0.577349 0.577349 0.577349 -0.577349 0.577349 -0.577349 -0.577349 0.577349 0.577349 0.577349 0.577349 -0.577349 0.577349 " />
									<TextureCoordinate point="0.0490 0.8118 0.2030 0.8118 0.2030 0.9658 0.0490 0.9658 0.0490 0.8118 0.2030 0.8118 0.2030 0.9658 0.0490 0.9658 0.0490 0.8118 0.2030 0.8118 0.2030 0.9658 0.0490 0.9658 0.0490 0.8118 0.2030 0.8118 0.2030 0.9658 0.0490 0.9658 0.2030 0.8118 0.2030 0.9658 0.0490 0.8118 0.0490 0.9658 " />
								</IndexedTriangleSet>
							</Shape>
						</Group>
					</Transform>
				</Transform>
			</Transform>
			<Transform DEF="arm1_TRANSFORM"
			           translation="1.350430 0.149245 1.943873"
			           scale="1.000000 1.000000 1.000000"
			           rotation="0.000000 1.000000 0.000000 0.000000"
			           >
				<Transform DEF="arm1_ifs_TRANSFORM"
				           translation="0.000000 0.000000 0.000000"
				           scale="1.000000 1.000000 1.000000"
				           rotation="0.000000 1.000000 0.000000 0.000000"
				           >
					<Group DEF="group_ME_arm1">
						<Shape>
							<Appearance>
								<Material USE="MA_Body" />
							</Appearance>
							<IndexedTriangleSet solid="false"
							                    normalPerVertex="true"
							                    index="0 1 2 0 2 3 4 5 6 4 6 7 8 9 10 8 10 11 12 13 14 12 14 15 4 16 17 4 17 15 18 5 14 18 14 19 "
							                    >
								<Coordinate point="0.000000 -0.406296 -0.379917 0.000000 -0.406296 0.379917 0.000000 0.406296 0.379917 0.000000 0.406296 -0.379917 0.000000 0.406296 -0.379917 0.000000 0.406296 0.379917 0.773554 0.406296 0.379917 0.773554 0.406296 -0.379917 0.773554 0.406296 -0.379917 0.773554 0.406296 0.379917 0.773554 -0.406296 0.379917 0.773554 -0.406296 -0.379917 0.773554 -0.406296 -0.379917 0.773554 -0.406296 0.379917 0.000000 -0.406296 0.379917 0.000000 -0.406296 -0.379917 0.773554 0.406296 -0.379917 0.773554 -0.406296 -0.379917 0.773554 0.406296 0.379917 0.773554 -0.406296 0.379917 " />
								<Normal vector="-0.577349 -0.577349 -0.577349 -0.577349 -0.577349 0.577349 -0.577349 0.577349 0.577349 -0.577349 0.577349 -0.577349 -0.577349 0.577349 -0.577349 -0.577349 0.577349 0.577349 0.577349 0.577349 0.577349 0.577349 0.577349 -0.577349 0.577349 0.577349 -0.577349 0.577349 0.577349 0.577349 0.577349 -0.577349 0.577349 0.577349 -0.577349 -0.577349 0.577349 -0.577349 -0.577349 0.577349 -0.577349 0.577349 -0.577349 -0.577349 0.577349 -0.577349 -0.577349 -0.577349 0.577349 0.577349 -0.577349 0.577349 -0.577349 -0.577349 0.577349 0.577349 0.577349 0.577349 -0.577349 0.577349 " />
								<TextureCoordinate point="0.0490 0.8118 0.2030 0.8118 0.2030 0.9658 0.0490 0.9658 0.0490 0.8118 0.2030 0.8118 0.2030 0.9658 0.0490 0.9658 0.0490 0.8118 0.2030 0.8118 0.2030 0.9658 0.0490 0.9658 0.0490 0.8118 0.2030 0.8118 0.2030 0.9658 0.0490 0.9658 0.2030 0.8118 0.2030 0.9658 0.0490 0.8118 0.0490 0.9658 " />
							</IndexedTriangleSet>
						</Shape>
					</Group>
				</Transform>
				<Transform DEF="arm1_1_TRANSFORM"
				           translation="0.766575 -0.000000 0.000000"
				           scale="1.000000 1.000000 1.000000"
				           rotation="0.000000 1.000000 0.000000 0.000000"
				           >
					<Transform DEF="arm1_1_ifs_TRANSFORM"
					           translation="0.000000 0.000000 0.000000"
					           scale="1.000000 1.000000 1.000000"
					           rotation="0.000000 1.000000 0.000000 0.000000"
					           >
						<Group DEF="group_ME_arm1_1">
							<Shape>
								<Appearance>
									<Material USE="MA_Body" />
								</Appearance>
								<IndexedTriangleSet solid="false"
								                    normalPerVertex="true"
								                    index="0 1 2 0 2 3 4 5 6 4 6 7 8 9 10 8 10 11 12 13 14 12 14 15 4 16 17 4 17 15 18 5 14 18 14 19 "
								                    >
									<Coordinate point="0.000000 -0.384267 -0.361589 0.000000 -0.384267 0.361589 0.000000 0.384267 0.361589 0.000000 0.384267 -0.361589 0.000000 0.384267 -0.361589 0.000000 0.384267 0.361589 0.709723 0.384267 0.361589 0.709723 0.384267 -0.361589 0.709723 0.384267 -0.361589 0.709723 0.384267 0.361589 0.709723 -0.384267 0.361589 0.709723 -0.384267 -0.361589 0.709723 -0.384267 -0.361589 0.709723 -0.384267 0.361589 0.000000 -0.384267 0.361589 0.000000 -0.384267 -0.361589 0.709723 0.384267 -0.361589 0.709723 -0.384267 -0.361589 0.709723 0.384267 0.361589 0.709723 -0.384267 0.361589 " />
									<Normal vector="-0.577349 -0.577349 -0.577349 -0.577349 -0.577349 0.577349 -0.577349 0.577349 0.577349 -0.577349 0.577349 -0.577349 -0.577349 0.577349 -0.577349 -0.577349 0.577349 0.577349 0.577349 0.577349 0.577349 0.577349 0.577349 -0.577349 0.577349 0.577349 -0.577349 0.577349 0.577349 0.577349 0.577349 -0.577349 0.577349 0.577349 -0.577349 -0.577349 0.577349 -0.577349 -0.577349 0.577349 -0.577349 0.577349 -0.577349 -0.577349 0.577349 -0.577349 -0.577349 -0.577349 0.577349 0.577349 -0.577349 0.577349 -0.577349 -0.577349 0.577349 0.577349 0.577349 0.577349 -0.577349 0.577349 " />
									<TextureCoordinate point="0.0490 0.8118 0.2030 0.8118 0.2030 0.9658 0.0490 0.9658 0.0490 0.8118 0.2030 0.8118 0.2030 0.9658 0.0490 0.9658 0.0490 0.8118 0.2030 0.8118 0.2030 0.9658 0.0490 0.9658 0.0490 0.8118 0.2030 0.8118 0.2030 0.9658 0.0490 0.9658 0.2030 0.8118 0.2030 0.9658 0.0490 0.8118 0.0490 0.9658 " />
								</IndexedTriangleSet>
							</Shape>
						</Group>
					</Transform>
					<Transform DEF="hand1_TRANSFORM"
					           translation="0.610546 -0.000000 0.000000"
					           scale="1.000000 1.000000 1.000000"
					           rotation="0.000000 1.000000 0.000000 0.000000"
					           >
						<Transform DEF="hand1_ifs_TRANSFORM"
						           translation="0.000000 0.000000 0.000000"
						           scale="1.000000 1.000000 1.000000"
						           rotation="0.000000 1.000000 0.000000 0.000000"
						           >
							<Group DEF="group_ME_hand1">
								<Shape>
									<Appearance>
										<Material USE="MA_Body" />
									</Appearance>
									<IndexedTriangleSet solid="false"
									                    normalPerVertex="true"
									                    index="0 1 2 0 2 3 4 5 6 4 6 7 8 9 10 8 10 11 12 13 14 12 14 15 4 16 17 4 17 15 18 5 14 18 14 19 "
									                    >
										<Coordinate point="0.000000 -0.486289 -0.500855 0.000000 -0.486289 0.500855 0.000000 0.486289 0.500855 0.000000 0.486289 -0.500855 0.000000 0.486289 -0.500855 0.000000 0.486289 0.500855 0.209523 0.486289 0.500855 0.209523 0.486289 -0.500855 0.209523 0.486289 -0.500855 0.209523 0.486289 0.500855 0.209523 -0.486289 0.500855 0.209523 -0.486289 -0.500855 0.209523 -0.486289 -0.500855 0.209523 -0.486289 0.500855 0.000000 -0.486289 0.500855 0.000000 -0.486289 -0.500855 0.209523 0.486289 -0.500855 0.209523 -0.486289 -0.500855 0.209523 0.486289 0.500855 0.209523 -0.486289 0.500855 " />
										<Normal vector="-0.577349 -0.577349 -0.577349 -0.577349 -0.577349 0.577349 -0.577349 0.577349 0.577349 -0.577349 0.577349 -0.577349 -0.577349 0.577349 -0.577349 -0.577349 0.577349 0.577349 0.577349 0.577349 0.577349 0.577349 0.577349 -0.577349 0.577349 0.577349 -0.577349 0.577349 0.577349 0.577349 0.577349 -0.577349 0.577349 0.577349 -0.577349 -0.577349 0.577349 -0.577349 -0.577349 0.577349 -0.577349 0.577349 -0.577349 -0.577349 0.577349 -0.577349 -0.577349 -0.577349 0.577349 0.577349 -0.577349 0.577349 -0.577349 -0.577349 0.577349 0.577349 0.577349 0.577349 -0.577349 0.577349 " />
										<TextureCoordinate point="0.0293 0.6002 0.1833 0.6002 0.1833 0.7542 0.0293 0.7542 0.0293 0.6002 0.1833 0.6002 0.1833 0.7542 0.0293 0.7542 0.0293 0.6002 0.1833 0.6002 0.1833 0.7542 0.0293 0.7542 0.0293 0.6002 0.1833 0.6002 0.1833 0.7542 0.0293 0.7542 0.1833 0.6002 0.1833 0.7542 0.0293 0.6002 0.0293 0.7542 " />
									</IndexedTriangleSet>
								</Shape>
							</Group>
						</Transform>
						<Transform DEF="Cube_010_TRANSFORM"
						           translation="0.091565 0.000000 -0.018212"
						           scale="1.000000 1.000000 1.000000"
						           rotation="0.000000 1.000000 0.000000 0.000000"
						           >
							<Transform DEF="Cube_010_ifs_TRANSFORM"
							           translation="0.000000 0.000000 0.000000"
							           scale="1.000000 1.000000 1.000000"
							           rotation="0.000000 1.000000 0.000000 0.000000"
							           >
								<Group DEF="group_ME_Cube_026">
									<Shape>
										<Appearance>
											<Material USE="MA_Body" />
										</Appearance>
										<IndexedTriangleSet solid="false"
										                    normalPerVertex="true"
										                    index="0 1 2 0 2 3 4 5 6 4 6 7 8 9 10 8 10 11 12 13 14 12 14 15 4 16 17 4 17 15 18 5 14 18 14 19 "
										                    >
											<Coordinate point="0.070001 -0.458639 -0.432709 -0.070001 -0.458639 0.432709 -0.070001 0.458639 0.432709 0.070001 0.458639 -0.432709 0.070001 0.458639 -0.432709 -0.070001 0.458639 0.432709 0.523214 0.458639 0.528675 0.663215 0.458639 -0.336742 0.663215 0.458639 -0.336742 0.523214 0.458639 0.528675 0.523214 -0.458639 0.528675 0.663215 -0.458639 -0.336742 0.663215 -0.458639 -0.336742 0.523214 -0.458639 0.528675 -0.070001 -0.458639 0.432709 0.070001 -0.458639 -0.432709 0.663215 0.458639 -0.336742 0.663215 -0.458639 -0.336742 0.523214 0.458639 0.528675 0.523214 -0.458639 0.528675 " />
											<Normal vector="-0.477737 -0.577349 -0.662130 -0.662130 -0.577349 0.477737 -0.662130 0.577349 0.477737 -0.477737 0.577349 -0.662130 -0.477737 0.577349 -0.662130 -0.662130 0.577349 0.477737 0.477737 0.577349 0.662130 0.662130 0.577349 -0.477737 0.662130 0.577349 -0.477737 0.477737 0.577349 0.662130 0.477737 -0.577349 0.662130 0.662130 -0.577349 -0.477737 0.662130 -0.577349 -0.477737 0.477737 -0.577349 0.662130 -0.662130 -0.577349 0.477737 -0.477737 -0.577349 -0.662130 0.662130 0.577349 -0.477737 0.662130 -0.577349 -0.477737 0.477737 0.577349 0.662130 0.477737 -0.577349 0.662130 " />
											<TextureCoordinate point="0.0293 0.6002 0.1833 0.6002 0.1833 0.7542 0.0293 0.7542 0.0293 0.6002 0.1833 0.6002 0.1833 0.7542 0.0293 0.7542 0.0293 0.6002 0.1833 0.6002 0.1833 0.7542 0.0293 0.7542 0.0293 0.6002 0.1833 0.6002 0.1833 0.7542 0.0293 0.7542 0.1833 0.6002 0.1833 0.7542 0.0293 0.6002 0.0293 0.7542 " />
										</IndexedTriangleSet>
									</Shape>
								</Group>
							</Transform>
							<Transform DEF="Cube_011_TRANSFORM"
							           translation="0.493448 -0.273238 0.279409"
							           scale="1.000000 1.000000 1.000000"
							           rotation="0.000000 1.000000 0.000000 0.000000"
							           >
								<Transform DEF="Cube_011_ifs_TRANSFORM"
								           translation="0.000000 0.000000 0.000000"
								           scale="1.000000 1.000000 1.000000"
								           rotation="0.000000 1.000000 0.000000 0.000000"
								           >
									<Group DEF="group_ME_Cube_027">
										<Shape>
											<Appearance>
												<Material USE="MA_Body" />
											</Appearance>
											<IndexedTriangleSet solid="false"
											                    normalPerVertex="true"
											                    index="0 1 2 0 2 3 4 5 6 4 6 7 8 9 10 8 10 11 12 13 14 12 14 15 4 16 17 4 17 15 18 5 14 18 14 19 "
											                    >
												<Coordinate point="-0.044694 -0.282599 -0.238541 0.044694 -0.282599 0.238541 0.044694 0.282599 0.238541 -0.044694 0.282599 -0.238541 -0.044694 0.282599 -0.238541 0.044694 0.282599 0.238541 0.648263 0.282599 0.125455 0.558876 0.282599 -0.351627 0.558876 0.282599 -0.351627 0.648263 0.282599 0.125455 0.648263 -0.282599 0.125455 0.558876 -0.282599 -0.351627 0.558876 -0.282599 -0.351627 0.648263 -0.282599 0.125455 0.044694 -0.282599 0.238541 -0.044694 -0.282599 -0.238541 0.558876 0.282599 -0.351627 0.558876 -0.282599 -0.351627 0.648263 0.282599 0.125455 0.648263 -0.282599 0.125455 " />
												<Normal vector="-0.673788 -0.577349 -0.461135 -0.461135 -0.577349 0.673788 -0.461135 0.577349 0.673788 -0.673788 0.577349 -0.461135 -0.673788 0.577349 -0.461135 -0.461135 0.577349 0.673788 0.673788 0.577349 0.461135 0.461135 0.577349 -0.673788 0.461135 0.577349 -0.673788 0.673788 0.577349 0.461135 0.673788 -0.577349 0.461135 0.461135 -0.577349 -0.673788 0.461135 -0.577349 -0.673788 0.673788 -0.577349 0.461135 -0.461135 -0.577349 0.673788 -0.673788 -0.577349 -0.461135 0.461135 0.577349 -0.673788 0.461135 -0.577349 -0.673788 0.673788 0.577349 0.461135 0.673788 -0.577349 0.461135 " />
												<TextureCoordinate point="0.0293 0.6002 0.1833 0.6002 0.1833 0.7542 0.0293 0.7542 0.0293 0.6002 0.1833 0.6002 0.1833 0.7542 0.0293 0.7542 0.0293 0.6002 0.1833 0.6002 0.1833 0.7542 0.0293 0.7542 0.0293 0.6002 0.1833 0.6002 0.1833 0.7542 0.0293 0.7542 0.1833 0.6002 0.1833 0.7542 0.0293 0.6002 0.0293 0.7542 " />
											</IndexedTriangleSet>
										</Shape>
									</Group>
								</Transform>
								<Transform DEF="Cube_012_TRANSFORM"
								           translation="0.548707 -0.000000 -0.098850"
								           scale="1.000000 1.000000 1.000000"
								           rotation="0.000000 1.000000 0.000000 0.000000"
								           >
									<Transform DEF="Cube_012_ifs_TRANSFORM"
									           translation="0.000000 0.000000 0.000000"
									           scale="1.000000 1.000000 1.000000"
									           rotation="0.000000 1.000000 0.000000 0.000000"
									           >
										<Group DEF="group_ME_Cube_028">
											<Shape>
												<Appearance>
													<Material USE="MA_Body" />
												</Appearance>
												<IndexedTriangleSet solid="false"
												                    normalPerVertex="true"
												                    index="0 1 2 0 2 3 4 5 6 4 6 7 8 9 10 8 10 11 12 13 14 12 14 15 4 16 17 4 17 15 18 5 14 18 14 19 "
												                    >
													<Coordinate point="-0.136114 -0.234149 -0.148012 0.136114 -0.234149 0.148012 0.136114 0.234149 0.148012 -0.136114 0.234149 -0.148012 -0.136114 0.234149 -0.148012 0.136114 0.234149 0.148012 0.697481 0.234149 -0.368228 0.425252 0.234149 -0.664252 0.425252 0.234149 -0.664252 0.697481 0.234149 -0.368228 0.697481 -0.234149 -0.368228 0.425252 -0.234149 -0.664252 0.425252 -0.234149 -0.664252 0.697481 -0.234149 -0.368228 0.136114 -0.234149 0.148012 -0.136114 -0.234149 -0.148012 0.425252 0.234149 -0.664252 0.425252 -0.234149 -0.664252 0.697481 0.234149 -0.368228 0.697481 -0.234149 -0.368228 " />
													<Normal vector="-0.815760 -0.577349 -0.034150 -0.034150 -0.577349 0.815760 -0.034150 0.577349 0.815760 -0.815760 0.577349 -0.034150 -0.815760 0.577349 -0.034150 -0.034150 0.577349 0.815760 0.815760 0.577349 0.034150 0.034150 0.577349 -0.815760 0.034150 0.577349 -0.815760 0.815760 0.577349 0.034150 0.815760 -0.577349 0.034150 0.034150 -0.577349 -0.815760 0.034150 -0.577349 -0.815760 0.815760 -0.577349 0.034150 -0.034150 -0.577349 0.815760 -0.815760 -0.577349 -0.034150 0.034150 0.577349 -0.815760 0.034150 -0.577349 -0.815760 0.815760 0.577349 0.034150 0.815760 -0.577349 0.034150 " />
													<TextureCoordinate point="0.0293 0.6002 0.1833 0.6002 0.1833 0.7542 0.0293 0.7542 0.0293 0.6002 0.1833 0.6002 0.1833 0.7542 0.0293 0.7542 0.0293 0.6002 0.1833 0.6002 0.1833 0.7542 0.0293 0.7542 0.0293 0.6002 0.1833 0.6002 0.1833 0.7542 0.0293 0.7542 0.1833 0.6002 0.1833 0.7542 0.0293 0.6002 0.0293 0.7542 " />
												</IndexedTriangleSet>
											</Shape>
										</Group>
									</Transform>
								</Transform>
							</Transform>
							<Transform DEF="Cube_013_TRANSFORM"
							           translation="0.493448 0.282660 0.279409"
							           scale="1.000000 1.000000 1.000000"
							           rotation="0.000000 1.000000 0.000000 0.000000"
							           >
								<Transform DEF="Cube_013_ifs_TRANSFORM"
								           translation="0.000000 0.000000 0.000000"
								           scale="1.000000 1.000000 1.000000"
								           rotation="0.000000 1.000000 0.000000 0.000000"
								           >
									<Group DEF="group_ME_Cube_029">
										<Shape>
											<Appearance>
												<Material USE="MA_Body" />
											</Appearance>
											<IndexedTriangleSet solid="false"
											                    normalPerVertex="true"
											                    index="0 1 2 0 2 3 4 5 6 4 6 7 8 9 10 8 10 11 12 13 14 12 14 15 4 16 17 4 17 15 18 5 14 18 14 19 "
											                    >
												<Coordinate point="-0.113195 -0.282599 -0.214677 0.113195 -0.282599 0.214677 0.113195 0.282599 0.214677 -0.113195 0.282599 -0.214677 -0.113195 0.282599 -0.214677 0.113195 0.282599 0.214677 0.656383 0.282599 -0.071736 0.429992 0.282599 -0.501090 0.429992 0.282599 -0.501090 0.656383 0.282599 -0.071736 0.656383 -0.282599 -0.071736 0.429992 -0.282599 -0.501090 0.429992 -0.282599 -0.501090 0.656383 -0.282599 -0.071736 0.113195 -0.282599 0.214677 -0.113195 -0.282599 -0.214677 0.429992 0.282599 -0.501090 0.429992 -0.282599 -0.501090 0.656383 0.282599 -0.071736 0.656383 -0.282599 -0.071736 " />
												<Normal vector="-0.779962 -0.577349 -0.241401 -0.241401 -0.577349 0.779962 -0.241401 0.577349 0.779962 -0.779962 0.577349 -0.241401 -0.779962 0.577349 -0.241401 -0.241401 0.577349 0.779962 0.779962 0.577349 0.241401 0.241401 0.577349 -0.779962 0.241401 0.577349 -0.779962 0.779962 0.577349 0.241401 0.779962 -0.577349 0.241401 0.241401 -0.577349 -0.779962 0.241401 -0.577349 -0.779962 0.779962 -0.577349 0.241401 -0.241401 -0.577349 0.779962 -0.779962 -0.577349 -0.241401 0.241401 0.577349 -0.779962 0.241401 -0.577349 -0.779962 0.779962 0.577349 0.241401 0.779962 -0.577349 0.241401 " />
												<TextureCoordinate point="0.0293 0.6002 0.1833 0.6002 0.1833 0.7542 0.0293 0.7542 0.0293 0.6002 0.1833 0.6002 0.1833 0.7542 0.0293 0.7542 0.0293 0.6002 0.1833 0.6002 0.1833 0.7542 0.0293 0.7542 0.0293 0.6002 0.1833 0.6002 0.1833 0.7542 0.0293 0.7542 0.1833 0.6002 0.1833 0.7542 0.0293 0.6002 0.0293 0.7542 " />
											</IndexedTriangleSet>
										</Shape>
									</Group>
								</Transform>
								<Transform DEF="Cube_014_TRANSFORM"
								           translation="0.494983 0.000000 -0.256598"
								           scale="1.000000 1.000000 1.000000"
								           rotation="0.000000 1.000000 0.000000 0.000000"
								           >
									<Transform DEF="Cube_014_ifs_TRANSFORM"
									           translation="0.000000 0.000000 0.000000"
									           scale="1.000000 1.000000 1.000000"
									           rotation="0.000000 1.000000 0.000000 0.000000"
									           >
										<Group DEF="group_ME_Cube_030">
											<Shape>
												<Appearance>
													<Material USE="MA_Body" />
												</Appearance>
												<IndexedTriangleSet solid="false"
												                    normalPerVertex="true"
												                    index="0 1 2 0 2 3 4 5 6 4 6 7 8 9 10 8 10 11 12 13 14 12 14 15 4 16 17 4 17 15 18 5 14 18 14 19 "
												                    >
													<Coordinate point="-0.177767 -0.234149 -0.093987 0.177767 -0.234149 0.093987 0.177767 0.234149 0.093987 -0.177767 0.234149 -0.093987 -0.177767 0.234149 -0.093987 0.177767 0.234149 0.093987 0.534233 0.234149 -0.580229 0.178700 0.234149 -0.768204 0.178700 0.234149 -0.768204 0.534233 0.234149 -0.580229 0.534233 -0.234149 -0.580229 0.178700 -0.234149 -0.768204 0.178700 -0.234149 -0.768204 0.534233 -0.234149 -0.580229 0.177767 -0.234149 0.093987 -0.177767 -0.234149 -0.093987 0.178700 0.234149 -0.768204 0.178700 -0.234149 -0.768204 0.534233 0.234149 -0.580229 0.534233 -0.234149 -0.580229 " />
													<Normal vector="-0.780236 -0.577349 0.240516 0.240516 -0.577349 0.780236 0.240516 0.577349 0.780236 -0.780236 0.577349 0.240516 -0.780236 0.577349 0.240516 0.240516 0.577349 0.780236 0.780236 0.577349 -0.240516 -0.240516 0.577349 -0.780236 -0.240516 0.577349 -0.780236 0.780236 0.577349 -0.240516 0.780236 -0.577349 -0.240516 -0.240516 -0.577349 -0.780236 -0.240516 -0.577349 -0.780236 0.780236 -0.577349 -0.240516 0.240516 -0.577349 0.780236 -0.780236 -0.577349 0.240516 -0.240516 0.577349 -0.780236 -0.240516 -0.577349 -0.780236 0.780236 0.577349 -0.240516 0.780236 -0.577349 -0.240516 " />
													<TextureCoordinate point="0.0293 0.6002 0.1833 0.6002 0.1833 0.7542 0.0293 0.7542 0.0293 0.6002 0.1833 0.6002 0.1833 0.7542 0.0293 0.7542 0.0293 0.6002 0.1833 0.6002 0.1833 0.7542 0.0293 0.7542 0.0293 0.6002 0.1833 0.6002 0.1833 0.7542 0.0293 0.7542 0.1833 0.6002 0.1833 0.7542 0.0293 0.6002 0.0293 0.7542 " />
												</IndexedTriangleSet>
											</Shape>
										</Group>
									</Transform>
								</Transform>
							</Transform>
							<Transform DEF="Cube_015_TRANSFORM"
							           translation="0.236597 -0.268521 -0.083820"
							           scale="1.000000 1.000000 1.000000"
							           rotation="0.000000 1.000000 0.000000 0.000000"
							           >
								<Transform DEF="Cube_015_ifs_TRANSFORM"
								           translation="0.000000 0.000000 0.000000"
								           scale="1.000000 1.000000 1.000000"
								           rotation="0.000000 1.000000 0.000000 0.000000"
								           >
									<Group DEF="group_ME_Cube_031">
										<Shape>
											<Appearance>
												<Material USE="MA_Body" />
											</Appearance>
											<IndexedTriangleSet solid="false"
											                    normalPerVertex="true"
											                    index="0 1 2 0 2 3 4 5 6 4 6 7 8 9 10 8 10 11 12 13 14 12 14 15 4 16 17 4 17 15 18 5 14 18 14 19 "
											                    >
												<Coordinate point="-0.234543 -0.202305 -0.178247 0.068721 -0.188815 0.295526 0.234543 0.202305 0.178247 -0.068721 0.188815 -0.295526 -0.068721 0.188815 -0.295526 0.234543 0.202305 0.178247 0.768709 -0.123906 -0.154386 0.465446 -0.137396 -0.628160 0.465446 -0.137396 -0.628160 0.768709 -0.123906 -0.154386 0.602887 -0.515026 -0.037107 0.299624 -0.528516 -0.510880 0.299624 -0.528516 -0.510880 0.602887 -0.515026 -0.037107 0.068721 -0.188815 0.295526 -0.234543 -0.202305 -0.178247 0.465446 -0.137396 -0.628160 0.299624 -0.528516 -0.510880 0.768709 -0.123906 -0.154386 0.602887 -0.515026 -0.037107 " />
												<Normal vector="-0.963500 -0.260506 -0.061525 -0.341166 -0.232826 0.910703 0.093295 0.791925 0.603412 -0.529038 0.764244 -0.368816 -0.529038 0.764244 -0.368816 0.093295 0.791925 0.603412 0.963500 0.260506 0.061525 0.341166 0.232826 -0.910703 0.341166 0.232826 -0.910703 0.963500 0.260506 0.061525 0.529038 -0.764244 0.368816 -0.093295 -0.791925 -0.603412 -0.093295 -0.791925 -0.603412 0.529038 -0.764244 0.368816 -0.341166 -0.232826 0.910703 -0.963500 -0.260506 -0.061525 0.341166 0.232826 -0.910703 -0.093295 -0.791925 -0.603412 0.963500 0.260506 0.061525 0.529038 -0.764244 0.368816 " />
												<TextureCoordinate point="0.0293 0.6002 0.1833 0.6002 0.1833 0.7542 0.0293 0.7542 0.0293 0.6002 0.1833 0.6002 0.1833 0.7542 0.0293 0.7542 0.0293 0.6002 0.1833 0.6002 0.1833 0.7542 0.0293 0.7542 0.0293 0.6002 0.1833 0.6002 0.1833 0.7542 0.0293 0.7542 0.1833 0.6002 0.1833 0.7542 0.0293 0.6002 0.0293 0.7542 " />
											</IndexedTriangleSet>
										</Shape>
									</Group>
								</Transform>
								<Transform DEF="Cube_016_TRANSFORM"
								           translation="0.466255 -0.307004 -0.289709"
								           scale="1.000000 1.000000 1.000000"
								           rotation="0.000000 1.000000 0.000000 0.000000"
								           >
									<Transform DEF="Cube_016_ifs_TRANSFORM"
									           translation="0.000000 0.000000 0.000000"
									           scale="1.000000 1.000000 1.000000"
									           rotation="0.000000 1.000000 0.000000 0.000000"
									           >
										<Group DEF="group_ME_Cube_032">
											<Shape>
												<Appearance>
													<Material USE="MA_Body" />
												</Appearance>
												<IndexedTriangleSet solid="false"
												                    normalPerVertex="true"
												                    index="0 1 2 0 2 3 4 5 6 4 6 7 8 9 10 8 10 11 12 13 14 12 14 15 4 16 17 4 17 15 18 5 14 18 14 19 "
												                    >
													<Coordinate point="-0.051088 -0.227937 -0.214328 0.174372 -0.153977 0.215378 0.051088 0.227937 0.214328 -0.174372 0.153977 -0.215378 -0.174372 0.153977 -0.215378 0.051088 0.227937 0.214328 0.558816 0.391025 -0.080139 0.333356 0.317064 -0.509845 0.333356 0.317064 -0.509845 0.558816 0.391025 -0.080139 0.682100 0.009111 -0.079089 0.456640 -0.064850 -0.508795 0.456640 -0.064850 -0.508795 0.682100 0.009111 -0.079089 0.174372 -0.153977 0.215378 -0.051088 -0.227937 -0.214328 0.333356 0.317064 -0.509845 0.456640 -0.064850 -0.508795 0.558816 0.391025 -0.080139 0.682100 0.009111 -0.079089 " />
													<Normal vector="-0.569018 -0.790979 -0.224799 -0.038636 -0.616993 0.786004 -0.393353 0.481826 0.782983 -0.923734 0.307871 -0.227821 -0.923734 0.307871 -0.227821 -0.393353 0.481826 0.782983 0.569018 0.790979 0.224799 0.038636 0.616993 -0.786004 0.038636 0.616993 -0.786004 0.569018 0.790979 0.224799 0.923734 -0.307871 0.227821 0.393353 -0.481826 -0.782983 0.393353 -0.481826 -0.782983 0.923734 -0.307871 0.227821 -0.038636 -0.616993 0.786004 -0.569018 -0.790979 -0.224799 0.038636 0.616993 -0.786004 0.393353 -0.481826 -0.782983 0.569018 0.790979 0.224799 0.923734 -0.307871 0.227821 " />
													<TextureCoordinate point="0.0293 0.6002 0.1833 0.6002 0.1833 0.7542 0.0293 0.7542 0.0293 0.6002 0.1833 0.6002 0.1833 0.7542 0.0293 0.7542 0.0293 0.6002 0.1833 0.6002 0.1833 0.7542 0.0293 0.7542 0.0293 0.6002 0.1833 0.6002 0.1833 0.7542 0.0293 0.7542 0.1833 0.6002 0.1833 0.7542 0.0293 0.6002 0.0293 0.7542 " />
												</IndexedTriangleSet>
											</Shape>
										</Group>
									</Transform>
								</Transform>
							</Transform>
						</Transform>
					</Transform>
				</Transform>
			</Transform>
			<Transform DEF="Cube_007_TRANSFORM"
			           translation="0.000000 0.000000 0.844019"
			           scale="1.000000 1.000000 1.000000"
			           rotation="0.000000 1.000000 0.000000 0.000000"
			           >
				<Transform DEF="Cube_007_ifs_TRANSFORM"
				           translation="0.000000 0.000000 0.000000"
				           scale="1.000000 1.000000 1.000000"
				           rotation="0.000000 1.000000 0.000000 0.000000"
				           >
					<Group DEF="group_ME_Cube_023">
						<Shape>
							<Appearance>
								<Material USE="MA_Body" />
							</Appearance>
							<IndexedTriangleSet solid="false"
							                    normalPerVertex="true"
							                    index="0 1 2 0 2 3 4 5 6 4 6 7 8 9 10 8 10 11 12 13 14 12 14 15 4 16 17 4 17 15 18 5 14 18 14 19 "
							                    >
								<Coordinate point="-1.638578 -0.538521 0.000000 -1.638578 -0.538521 1.054741 -1.638578 0.754300 1.054741 -1.638578 0.754300 0.000000 -1.638578 0.754300 0.000000 -1.638578 0.754300 1.054741 1.638578 0.754300 1.054741 1.638578 0.754300 0.000000 1.638578 0.754300 0.000000 1.638578 0.754300 1.054741 1.638578 -0.538521 1.054741 1.638578 -0.538521 0.000000 1.638578 -0.538521 0.000000 1.638578 -0.538521 1.054741 -1.638578 -0.538521 1.054741 -1.638578 -0.538521 0.000000 1.638578 0.754300 0.000000 1.638578 -0.538521 0.000000 1.638578 0.754300 1.054741 1.638578 -0.538521 1.054741 " />
								<Normal vector="-0.577349 -0.577349 -0.577349 -0.577349 -0.577349 0.577349 -0.577349 0.577349 0.577349 -0.577349 0.577349 -0.577349 -0.577349 0.577349 -0.577349 -0.577349 0.577349 0.577349 0.577349 0.577349 0.577349 0.577349 0.577349 -0.577349 0.577349 0.577349 -0.577349 0.577349 0.577349 0.577349 0.577349 -0.577349 0.577349 0.577349 -0.577349 -0.577349 0.577349 -0.577349 -0.577349 0.577349 -0.577349 0.577349 -0.577349 -0.577349 0.577349 -0.577349 -0.577349 -0.577349 0.577349 0.577349 -0.577349 0.577349 -0.577349 -0.577349 0.577349 0.577349 0.577349 0.577349 -0.577349 0.577349 " />
								<TextureCoordinate point="0.0490 0.8118 0.2030 0.8118 0.2030 0.9658 0.0490 0.9658 0.0490 0.8118 0.2030 0.8118 0.2030 0.9658 0.0490 0.9658 0.0490 0.8118 0.2030 0.8118 0.2030 0.9658 0.0490 0.9658 0.0490 0.8118 0.2030 0.8118 0.2030 0.9658 0.0490 0.9658 0.2030 0.8118 0.2030 0.9658 0.0490 0.8118 0.0490 0.9658 " />
							</IndexedTriangleSet>
						</Shape>
					</Group>
				</Transform>
			</Transform>
			<Transform DEF="Cube_017_TRANSFORM"
			           translation="0.664274 -0.030996 2.500797"
			           scale="1.000000 1.000000 1.000000"
			           rotation="0.000000 1.000000 0.000000 0.000000"
			           >
				<Transform DEF="Cube_017_ifs_TRANSFORM"
				           translation="0.000000 0.000000 0.000000"
				           scale="1.000000 1.000000 1.000000"
				           rotation="0.000000 1.000000 0.000000 0.000000"
				           >
					<Group DEF="group_ME_Cube_033">
						<Shape>
							<Appearance>
								<Material USE="MA_Body" />
							</Appearance>
							<IndexedTriangleSet solid="false"
							                    normalPerVertex="true"
							                    index="0 1 2 0 2 3 4 5 6 4 6 7 8 9 10 8 10 11 12 13 14 12 14 15 16 17 18 16 18 19 20 21 22 20 22 23 24 8 11 24 11 25 26 4 7 26 7 27 28 0 3 28 3 29 30 31 4 30 4 26 32 33 21 32 21 20 34 16 19 34 19 35 30 12 15 30 15 23 33 36 37 33 37 21 31 17 5 31 5 4 "
							                    >
								<Coordinate point="-0.347902 -0.374375 0.084994 -0.347902 -0.374375 0.543962 -0.405980 0.310439 0.543962 -0.405980 0.310439 0.084994 0.244564 0.365611 0.084994 0.244564 0.365611 0.543962 0.347902 0.374375 0.543962 0.347902 0.374375 0.084994 0.347902 0.374375 0.084994 0.347902 0.374375 0.543962 0.405980 -0.310439 0.543962 0.405980 -0.310439 0.084994 0.244564 0.365611 0.000000 0.347902 0.374375 0.000000 0.405980 -0.310439 0.000000 0.302642 -0.319203 0.000000 0.244564 0.365611 0.543962 -0.405980 0.310439 0.543962 -0.347902 -0.374375 0.543962 0.302642 -0.319203 0.543962 0.302642 -0.319203 0.000000 0.302642 -0.319203 0.084994 -0.347902 -0.374375 0.084994 -0.347902 -0.374375 0.000000 0.347902 0.374375 0.000000 0.405980 -0.310439 0.000000 0.244564 0.365611 0.000000 0.347902 0.374375 0.000000 -0.347902 -0.374375 0.000000 -0.405980 0.310439 0.000000 -0.405980 0.310439 0.000000 -0.405980 0.310439 0.084994 0.405980 -0.310439 0.000000 0.405980 -0.310439 0.084994 0.347902 0.374375 0.543962 0.405980 -0.310439 0.543962 0.405980 -0.310439 0.543962 0.302642 -0.319203 0.543962 " />
								<Normal vector="-0.644795 -0.764306 0.000000 -0.526475 -0.624073 0.577349 -0.624073 0.526475 0.577349 -0.764306 0.644795 0.000000 -0.084475 0.996399 0.000000 -0.059725 0.704550 0.707083 0.526475 0.624073 0.577349 0.644795 0.764306 0.000000 0.644795 0.764306 0.000000 0.526475 0.624073 0.577349 0.624073 -0.526475 0.577349 0.764306 -0.644795 0.000000 -0.059725 0.704550 -0.707083 0.526475 0.624073 -0.577349 0.624073 -0.526475 -0.577349 0.059725 -0.704550 -0.707083 -0.059725 0.704550 0.707083 -0.624073 0.526475 0.577349 -0.526475 -0.624073 0.577349 0.059725 -0.704550 0.707083 0.059725 -0.704550 -0.707083 0.084475 -0.996399 0.000000 -0.644795 -0.764306 0.000000 -0.526475 -0.624073 -0.577349 0.526475 0.624073 -0.577349 0.624073 -0.526475 -0.577349 -0.059725 0.704550 -0.707083 0.526475 0.624073 -0.577349 -0.526475 -0.624073 -0.577349 -0.624073 0.526475 -0.577349 -0.624073 0.526475 -0.577349 -0.764306 0.644795 0.000000 0.624073 -0.526475 -0.577349 0.764306 -0.644795 0.000000 0.526475 0.624073 0.577349 0.624073 -0.526475 0.577349 0.624073 -0.526475 0.577349 0.059725 -0.704550 0.707083 " />
								<TextureCoordinate point="0.1260 0.8118 0.2030 0.8118 0.2030 0.9658 0.1260 0.9658 0.1260 0.8888 0.2030 0.8888 0.2030 0.9658 0.1260 0.9658 0.1260 0.8118 0.2030 0.8118 0.2030 0.9658 0.1260 0.9658 0.1260 0.8118 0.2030 0.8118 0.2030 0.9658 0.1260 0.9658 0.1260 0.8118 0.2030 0.8118 0.2030 0.9658 0.1260 0.9658 0.0490 0.8888 0.1260 0.8888 0.1260 0.9658 0.0490 0.9658 0.0490 0.8118 0.0490 0.9658 0.0490 0.8888 0.0490 0.9658 0.0490 0.8118 0.0490 0.9658 0.0490 0.8118 0.1260 0.8118 0.0490 0.8118 0.1260 0.8118 0.0490 0.8118 0.0490 0.9658 0.2030 0.8118 0.2030 0.8888 " />
							</IndexedTriangleSet>
						</Shape>
						<Shape>
							<Appearance>
								<Material DEF="MA_Head"
								          diffuseColor="0.800 0.800 0.800"
								          specularColor="0.401 0.401 0.401"
								          emissiveColor="0.000 0.000 0.000"
								          ambientIntensity="0.000"
								          shininess="0.500"
								          transparency="0.0"
								          />
							</Appearance>
							<IndexedTriangleSet solid="false"
							                    normalPerVertex="true"
							                    index="0 1 2 0 2 3 "
							                    >
								<Coordinate point="0.302642 -0.319203 0.084994 0.302642 -0.319203 0.543962 -0.347902 -0.374375 0.543962 -0.347902 -0.374375 0.084994 " />
								<Normal vector="0.084475 -0.996399 0.000000 0.059725 -0.704550 0.707083 -0.526475 -0.624073 0.577349 -0.644795 -0.764306 0.000000 " />
								<TextureCoordinate point="1.0000 0.6198 1.0000 0.9954 0.0000 0.9954 0.0000 0.6198 " />
							</IndexedTriangleSet>
						</Shape>
					</Group>
				</Transform>
			</Transform>
			<Transform DEF="leg2_TRANSFORM"
			           translation="-0.752193 0.009769 0.009768"
			           scale="1.000000 1.000000 1.000000"
			           rotation="0.000000 1.000000 0.000000 0.000000"
			           >
				<Transform DEF="leg2_ifs_TRANSFORM"
				           translation="0.000000 0.000000 0.000000"
				           scale="1.000000 1.000000 1.000000"
				           rotation="0.000000 1.000000 0.000000 0.000000"
				           >
					<Group DEF="group_ME_leg2">
						<Shape>
							<Appearance>
								<Material USE="MA_Body" />
							</Appearance>
							<IndexedTriangleSet solid="false"
							                    normalPerVertex="true"
							                    index="0 1 2 0 2 3 4 5 6 4 6 7 8 9 10 8 10 11 12 13 14 12 14 15 4 13 16 4 16 17 18 19 14 18 14 7 "
							                    >
								<Coordinate point="0.262215 -0.292670 -0.755110 0.262215 0.292670 -0.755110 0.262215 0.292670 0.000000 0.262215 -0.292670 -0.000000 0.262215 0.292670 -0.755110 -0.262215 0.292670 -0.755110 -0.262215 0.292670 0.000000 0.262215 0.292670 0.000000 -0.262215 0.292670 -0.755110 -0.262215 -0.292670 -0.755110 -0.262215 -0.292670 -0.000000 -0.262215 0.292670 0.000000 -0.262215 -0.292670 -0.755110 0.262215 -0.292670 -0.755110 0.262215 -0.292670 -0.000000 -0.262215 -0.292670 -0.000000 -0.262215 -0.292670 -0.755110 -0.262215 0.292670 -0.755110 -0.262215 0.292670 0.000000 -0.262215 -0.292670 -0.000000 " />
								<Normal vector="0.577349 -0.577349 -0.577349 0.577349 0.577349 -0.577349 0.577349 0.577349 0.577349 0.577349 -0.577349 0.577349 0.577349 0.577349 -0.577349 -0.577349 0.577349 -0.577349 -0.577349 0.577349 0.577349 0.577349 0.577349 0.577349 -0.577349 0.577349 -0.577349 -0.577349 -0.577349 -0.577349 -0.577349 -0.577349 0.577349 -0.577349 0.577349 0.577349 -0.577349 -0.577349 -0.577349 0.577349 -0.577349 -0.577349 0.577349 -0.577349 0.577349 -0.577349 -0.577349 0.577349 -0.577349 -0.577349 -0.577349 -0.577349 0.577349 -0.577349 -0.577349 0.577349 0.577349 -0.577349 -0.577349 0.577349 " />
								<TextureCoordinate point="0.0490 0.8118 0.0490 0.9658 0.2030 0.9658 0.2030 0.8118 0.0490 0.8118 0.0490 0.9658 0.2030 0.9658 0.2030 0.8118 0.0490 0.8118 0.0490 0.9658 0.2030 0.9658 0.2030 0.8118 0.0490 0.8118 0.0490 0.9658 0.2030 0.9658 0.2030 0.8118 0.2030 0.9658 0.2030 0.8118 0.0490 0.8118 0.0490 0.9658 " />
							</IndexedTriangleSet>
						</Shape>
					</Group>
				</Transform>
				<Transform DEF="foot2_TRANSFORM"
				           translation="-0.000000 -0.009769 -0.713118"
				           scale="1.000000 1.000000 1.000000"
				           rotation="0.000000 1.000000 0.000000 0.000000"
				           >
					<Transform DEF="foot2_ifs_TRANSFORM"
					           translation="0.000000 0.000000 0.000000"
					           scale="1.000000 1.000000 1.000000"
					           rotation="0.000000 1.000000 0.000000 0.000000"
					           >
						<Group DEF="group_ME_foot2">
							<Shape>
								<Appearance>
									<Material USE="MA_Body" />
								</Appearance>
								<IndexedTriangleSet solid="false"
								                    normalPerVertex="true"
								                    index="0 1 2 0 2 3 4 5 6 4 6 7 8 9 10 8 10 11 12 13 14 12 14 15 4 13 16 4 16 17 18 19 14 18 14 7 "
								                    >
									<Coordinate point="0.353949 -0.991983 -0.357817 0.353949 0.386321 -0.357817 0.353949 0.386321 0.000000 0.353949 -0.991983 -0.000000 0.353949 0.386321 -0.357817 -0.353949 0.386321 -0.357817 -0.353949 0.386321 0.000000 0.353949 0.386321 0.000000 -0.353949 0.386321 -0.357817 -0.353949 -0.991983 -0.357817 -0.353949 -0.991983 -0.000000 -0.353949 0.386321 0.000000 -0.353949 -0.991983 -0.357817 0.353949 -0.991983 -0.357817 0.353949 -0.991983 -0.000000 -0.353949 -0.991983 -0.000000 -0.353949 -0.991983 -0.357817 -0.353949 0.386321 -0.357817 -0.353949 0.386321 0.000000 -0.353949 -0.991983 -0.000000 " />
									<Normal vector="0.577349 -0.577349 -0.577349 0.577349 0.577349 -0.577349 0.577349 0.577349 0.577349 0.577349 -0.577349 0.577349 0.577349 0.577349 -0.577349 -0.577349 0.577349 -0.577349 -0.577349 0.577349 0.577349 0.577349 0.577349 0.577349 -0.577349 0.577349 -0.577349 -0.577349 -0.577349 -0.577349 -0.577349 -0.577349 0.577349 -0.577349 0.577349 0.577349 -0.577349 -0.577349 -0.577349 0.577349 -0.577349 -0.577349 0.577349 -0.577349 0.577349 -0.577349 -0.577349 0.577349 -0.577349 -0.577349 -0.577349 -0.577349 0.577349 -0.577349 -0.577349 0.577349 0.577349 -0.577349 -0.577349 0.577349 " />
									<TextureCoordinate point="0.0490 0.8118 0.0490 0.9658 0.2030 0.9658 0.2030 0.8118 0.0490 0.8118 0.0490 0.9658 0.2030 0.9658 0.2030 0.8118 0.0490 0.8118 0.0490 0.9658 0.2030 0.9658 0.2030 0.8118 0.0490 0.8118 0.0490 0.9658 0.2030 0.9658 0.2030 0.8118 0.2030 0.9658 0.2030 0.8118 0.0490 0.8118 0.0490 0.9658 " />
								</IndexedTriangleSet>
							</Shape>
						</Group>
					</Transform>
				</Transform>
			</Transform>
			<Transform DEF="arm2_TRANSFORM"
			           translation="-1.350430 0.149245 1.943873"
			           scale="1.000000 1.000000 1.000000"
			           rotation="0.000000 1.000000 0.000000 0.000000"
			           >
				<Transform DEF="arm2_ifs_TRANSFORM"
				           translation="0.000000 0.000000 0.000000"
				           scale="1.000000 1.000000 1.000000"
				           rotation="0.000000 1.000000 0.000000 0.000000"
				           >
					<Group DEF="group_ME_arm2">
						<Shape>
							<Appearance>
								<Material USE="MA_Body" />
							</Appearance>
							<IndexedTriangleSet solid="false"
							                    normalPerVertex="true"
							                    index="0 1 2 0 2 3 4 5 6 4 6 7 8 9 10 8 10 11 12 13 14 12 14 15 4 13 16 4 16 17 18 19 14 18 14 7 "
							                    >
								<Coordinate point="0.000000 -0.406296 -0.379918 0.000000 0.406296 -0.379917 0.000000 0.406296 0.379918 0.000000 -0.406296 0.379917 0.000000 0.406296 -0.379917 -0.773554 0.406296 -0.379917 -0.773554 0.406296 0.379918 0.000000 0.406296 0.379918 -0.773554 0.406296 -0.379917 -0.773554 -0.406296 -0.379918 -0.773554 -0.406296 0.379917 -0.773554 0.406296 0.379918 -0.773554 -0.406296 -0.379918 0.000000 -0.406296 -0.379918 0.000000 -0.406296 0.379917 -0.773554 -0.406296 0.379917 -0.773554 -0.406296 -0.379918 -0.773554 0.406296 -0.379917 -0.773554 0.406296 0.379918 -0.773554 -0.406296 0.379917 " />
								<Normal vector="0.577349 -0.577349 -0.577349 0.577349 0.577349 -0.577349 0.577349 0.577349 0.577349 0.577349 -0.577349 0.577349 0.577349 0.577349 -0.577349 -0.577349 0.577349 -0.577349 -0.577349 0.577349 0.577349 0.577349 0.577349 0.577349 -0.577349 0.577349 -0.577349 -0.577349 -0.577349 -0.577349 -0.577349 -0.577349 0.577349 -0.577349 0.577349 0.577349 -0.577349 -0.577349 -0.577349 0.577349 -0.577349 -0.577349 0.577349 -0.577349 0.577349 -0.577349 -0.577349 0.577349 -0.577349 -0.577349 -0.577349 -0.577349 0.577349 -0.577349 -0.577349 0.577349 0.577349 -0.577349 -0.577349 0.577349 " />
								<TextureCoordinate point="0.0490 0.8118 0.0490 0.9658 0.2030 0.9658 0.2030 0.8118 0.0490 0.8118 0.0490 0.9658 0.2030 0.9658 0.2030 0.8118 0.0490 0.8118 0.0490 0.9658 0.2030 0.9658 0.2030 0.8118 0.0490 0.8118 0.0490 0.9658 0.2030 0.9658 0.2030 0.8118 0.2030 0.9658 0.2030 0.8118 0.0490 0.8118 0.0490 0.9658 " />
							</IndexedTriangleSet>
						</Shape>
					</Group>
				</Transform>
				<Transform DEF="arm2_1_TRANSFORM"
				           translation="-0.766575 -0.000000 0.000000"
				           scale="1.000000 1.000000 1.000000"
				           rotation="0.000000 1.000000 0.000000 0.000000"
				           >
					<Transform DEF="arm2_1_ifs_TRANSFORM"
					           translation="0.000000 0.000000 0.000000"
					           scale="1.000000 1.000000 1.000000"
					           rotation="0.000000 1.000000 0.000000 0.000000"
					           >
						<Group DEF="group_ME_arm2_1">
							<Shape>
								<Appearance>
									<Material USE="MA_Body" />
								</Appearance>
								<IndexedTriangleSet solid="false"
								                    normalPerVertex="true"
								                    index="0 1 2 0 2 3 4 5 6 4 6 7 8 9 10 8 10 11 12 13 14 12 14 15 4 13 16 4 16 17 18 19 14 18 14 7 "
								                    >
									<Coordinate point="0.000000 -0.384267 -0.361589 0.000000 0.384267 -0.361589 0.000000 0.384267 0.361589 0.000000 -0.384267 0.361589 0.000000 0.384267 -0.361589 -0.709723 0.384267 -0.361589 -0.709723 0.384267 0.361589 0.000000 0.384267 0.361589 -0.709723 0.384267 -0.361589 -0.709723 -0.384267 -0.361589 -0.709723 -0.384267 0.361589 -0.709723 0.384267 0.361589 -0.709723 -0.384267 -0.361589 0.000000 -0.384267 -0.361589 0.000000 -0.384267 0.361589 -0.709723 -0.384267 0.361589 -0.709723 -0.384267 -0.361589 -0.709723 0.384267 -0.361589 -0.709723 0.384267 0.361589 -0.709723 -0.384267 0.361589 " />
									<Normal vector="0.577349 -0.577349 -0.577349 0.577349 0.577349 -0.577349 0.577349 0.577349 0.577349 0.577349 -0.577349 0.577349 0.577349 0.577349 -0.577349 -0.577349 0.577349 -0.577349 -0.577349 0.577349 0.577349 0.577349 0.577349 0.577349 -0.577349 0.577349 -0.577349 -0.577349 -0.577349 -0.577349 -0.577349 -0.577349 0.577349 -0.577349 0.577349 0.577349 -0.577349 -0.577349 -0.577349 0.577349 -0.577349 -0.577349 0.577349 -0.577349 0.577349 -0.577349 -0.577349 0.577349 -0.577349 -0.577349 -0.577349 -0.577349 0.577349 -0.577349 -0.577349 0.577349 0.577349 -0.577349 -0.577349 0.577349 " />
									<TextureCoordinate point="0.0490 0.8118 0.0490 0.9658 0.2030 0.9658 0.2030 0.8118 0.0490 0.8118 0.0490 0.9658 0.2030 0.9658 0.2030 0.8118 0.0490 0.8118 0.0490 0.9658 0.2030 0.9658 0.2030 0.8118 0.0490 0.8118 0.0490 0.9658 0.2030 0.9658 0.2030 0.8118 0.2030 0.9658 0.2030 0.8118 0.0490 0.8118 0.0490 0.9658 " />
								</IndexedTriangleSet>
							</Shape>
						</Group>
					</Transform>
					<Transform DEF="hand2_TRANSFORM"
					           translation="-0.610546 -0.000000 0.000000"
					           scale="1.000000 1.000000 1.000000"
					           rotation="0.000000 1.000000 0.000000 0.000000"
					           >
						<Transform DEF="hand2_ifs_TRANSFORM"
						           translation="0.000000 0.000000 0.000000"
						           scale="1.000000 1.000000 1.000000"
						           rotation="0.000000 1.000000 0.000000 0.000000"
						           >
							<Group DEF="group_ME_hand2">
								<Shape>
									<Appearance>
										<Material USE="MA_Body" />
									</Appearance>
									<IndexedTriangleSet solid="false"
									                    normalPerVertex="true"
									                    index="0 1 2 0 2 3 4 5 6 4 6 7 8 9 10 8 10 11 12 13 14 12 14 15 4 13 16 4 16 17 18 19 14 18 14 7 "
									                    >
										<Coordinate point="0.000000 -0.486289 -0.500855 0.000000 0.486289 -0.500855 0.000000 0.486289 0.500855 0.000000 -0.486289 0.500855 0.000000 0.486289 -0.500855 -0.209523 0.486289 -0.500855 -0.209523 0.486289 0.500855 0.000000 0.486289 0.500855 -0.209523 0.486289 -0.500855 -0.209523 -0.486289 -0.500855 -0.209523 -0.486289 0.500855 -0.209523 0.486289 0.500855 -0.209523 -0.486289 -0.500855 0.000000 -0.486289 -0.500855 0.000000 -0.486289 0.500855 -0.209523 -0.486289 0.500855 -0.209523 -0.486289 -0.500855 -0.209523 0.486289 -0.500855 -0.209523 0.486289 0.500855 -0.209523 -0.486289 0.500855 " />
										<Normal vector="0.577349 -0.577349 -0.577349 0.577349 0.577349 -0.577349 0.577349 0.577349 0.577349 0.577349 -0.577349 0.577349 0.577349 0.577349 -0.577349 -0.577349 0.577349 -0.577349 -0.577349 0.577349 0.577349 0.577349 0.577349 0.577349 -0.577349 0.577349 -0.577349 -0.577349 -0.577349 -0.577349 -0.577349 -0.577349 0.577349 -0.577349 0.577349 0.577349 -0.577349 -0.577349 -0.577349 0.577349 -0.577349 -0.577349 0.577349 -0.577349 0.577349 -0.577349 -0.577349 0.577349 -0.577349 -0.577349 -0.577349 -0.577349 0.577349 -0.577349 -0.577349 0.577349 0.577349 -0.577349 -0.577349 0.577349 " />
										<TextureCoordinate point="0.0293 0.6002 0.0293 0.7542 0.1833 0.7542 0.1833 0.6002 0.0293 0.6002 0.0293 0.7542 0.1833 0.7542 0.1833 0.6002 0.0293 0.6002 0.0293 0.7542 0.1833 0.7542 0.1833 0.6002 0.0293 0.6002 0.0293 0.7542 0.1833 0.7542 0.1833 0.6002 0.1833 0.7542 0.1833 0.6002 0.0293 0.6002 0.0293 0.7542 " />
									</IndexedTriangleSet>
								</Shape>
							</Group>
						</Transform>
						<Transform DEF="Cube_004_TRANSFORM"
						           translation="-0.091565 0.000000 -0.018212"
						           scale="1.000000 1.000000 1.000000"
						           rotation="0.000000 1.000000 0.000000 0.000000"
						           >
							<Transform DEF="Cube_004_ifs_TRANSFORM"
							           translation="0.000000 0.000000 0.000000"
							           scale="1.000000 1.000000 1.000000"
							           rotation="0.000000 1.000000 0.000000 0.000000"
							           >
								<Group DEF="group_ME_Cube_001">
									<Shape>
										<Appearance>
											<Material USE="MA_Body" />
										</Appearance>
										<IndexedTriangleSet solid="false"
										                    normalPerVertex="true"
										                    index="0 1 2 0 2 3 4 5 6 4 6 7 8 9 10 8 10 11 12 13 14 12 14 15 4 13 16 4 16 17 18 19 14 18 14 7 "
										                    >
											<Coordinate point="-0.070001 -0.458639 -0.432709 -0.070001 0.458639 -0.432709 0.070001 0.458639 0.432709 0.070001 -0.458639 0.432709 -0.070001 0.458639 -0.432709 -0.663215 0.458639 -0.336742 -0.523214 0.458639 0.528675 0.070001 0.458639 0.432709 -0.663215 0.458639 -0.336742 -0.663215 -0.458639 -0.336742 -0.523214 -0.458639 0.528675 -0.523214 0.458639 0.528675 -0.663215 -0.458639 -0.336742 -0.070001 -0.458639 -0.432709 0.070001 -0.458639 0.432709 -0.523214 -0.458639 0.528675 -0.663215 -0.458639 -0.336742 -0.663215 0.458639 -0.336742 -0.523214 0.458639 0.528675 -0.523214 -0.458639 0.528675 " />
											<Normal vector="0.477737 -0.577349 -0.662130 0.477737 0.577349 -0.662130 0.662130 0.577349 0.477737 0.662130 -0.577349 0.477737 0.477737 0.577349 -0.662130 -0.662130 0.577349 -0.477737 -0.477737 0.577349 0.662130 0.662130 0.577349 0.477737 -0.662130 0.577349 -0.477737 -0.662130 -0.577349 -0.477737 -0.477737 -0.577349 0.662130 -0.477737 0.577349 0.662130 -0.662130 -0.577349 -0.477737 0.477737 -0.577349 -0.662130 0.662130 -0.577349 0.477737 -0.477737 -0.577349 0.662130 -0.662130 -0.577349 -0.477737 -0.662130 0.577349 -0.477737 -0.477737 0.577349 0.662130 -0.477737 -0.577349 0.662130 " />
											<TextureCoordinate point="0.0293 0.6002 0.0293 0.7542 0.1833 0.7542 0.1833 0.6002 0.0293 0.6002 0.0293 0.7542 0.1833 0.7542 0.1833 0.6002 0.0293 0.6002 0.0293 0.7542 0.1833 0.7542 0.1833 0.6002 0.0293 0.6002 0.0293 0.7542 0.1833 0.7542 0.1833 0.6002 0.1833 0.7542 0.1833 0.6002 0.0293 0.6002 0.0293 0.7542 " />
										</IndexedTriangleSet>
									</Shape>
								</Group>
							</Transform>
							<Transform DEF="Cube_005_TRANSFORM"
							           translation="-0.493448 -0.273238 0.279409"
							           scale="1.000000 1.000000 1.000000"
							           rotation="0.000000 1.000000 0.000000 0.000000"
							           >
								<Transform DEF="Cube_005_ifs_TRANSFORM"
								           translation="0.000000 0.000000 0.000000"
								           scale="1.000000 1.000000 1.000000"
								           rotation="0.000000 1.000000 0.000000 0.000000"
								           >
									<Group DEF="group_ME_Cube_002">
										<Shape>
											<Appearance>
												<Material USE="MA_Body" />
											</Appearance>
											<IndexedTriangleSet solid="false"
											                    normalPerVertex="true"
											                    index="0 1 2 0 2 3 4 5 6 4 6 7 8 9 10 8 10 11 12 13 14 12 14 15 4 13 16 4 16 17 18 19 14 18 14 7 "
											                    >
												<Coordinate point="0.044694 -0.282599 -0.238541 0.044694 0.282599 -0.238541 -0.044694 0.282599 0.238541 -0.044694 -0.282599 0.238541 0.044694 0.282599 -0.238541 -0.558876 0.282599 -0.351627 -0.648263 0.282599 0.125455 -0.044694 0.282599 0.238541 -0.558876 0.282599 -0.351627 -0.558876 -0.282599 -0.351627 -0.648263 -0.282599 0.125455 -0.648263 0.282599 0.125455 -0.558876 -0.282599 -0.351627 0.044694 -0.282599 -0.238541 -0.044694 -0.282599 0.238541 -0.648263 -0.282599 0.125455 -0.558876 -0.282599 -0.351627 -0.558876 0.282599 -0.351627 -0.648263 0.282599 0.125455 -0.648263 -0.282599 0.125455 " />
												<Normal vector="0.673788 -0.577349 -0.461135 0.673788 0.577349 -0.461135 0.461135 0.577349 0.673788 0.461135 -0.577349 0.673788 0.673788 0.577349 -0.461135 -0.461135 0.577349 -0.673788 -0.673788 0.577349 0.461135 0.461135 0.577349 0.673788 -0.461135 0.577349 -0.673788 -0.461135 -0.577349 -0.673788 -0.673788 -0.577349 0.461135 -0.673788 0.577349 0.461135 -0.461135 -0.577349 -0.673788 0.673788 -0.577349 -0.461135 0.461135 -0.577349 0.673788 -0.673788 -0.577349 0.461135 -0.461135 -0.577349 -0.673788 -0.461135 0.577349 -0.673788 -0.673788 0.577349 0.461135 -0.673788 -0.577349 0.461135 " />
												<TextureCoordinate point="0.0293 0.6002 0.0293 0.7542 0.1833 0.7542 0.1833 0.6002 0.0293 0.6002 0.0293 0.7542 0.1833 0.7542 0.1833 0.6002 0.0293 0.6002 0.0293 0.7542 0.1833 0.7542 0.1833 0.6002 0.0293 0.6002 0.0293 0.7542 0.1833 0.7542 0.1833 0.6002 0.1833 0.7542 0.1833 0.6002 0.0293 0.6002 0.0293 0.7542 " />
											</IndexedTriangleSet>
										</Shape>
									</Group>
								</Transform>
								<Transform DEF="Cube_019_TRANSFORM"
								           translation="-0.548707 -0.000000 -0.098850"
								           scale="1.000000 1.000000 1.000000"
								           rotation="0.000000 1.000000 0.000000 0.000000"
								           >
									<Transform DEF="Cube_019_ifs_TRANSFORM"
									           translation="0.000000 0.000000 0.000000"
									           scale="1.000000 1.000000 1.000000"
									           rotation="0.000000 1.000000 0.000000 0.000000"
									           >
										<Group DEF="group_ME_Cube_008">
											<Shape>
												<Appearance>
													<Material USE="MA_Body" />
												</Appearance>
												<IndexedTriangleSet solid="false"
												                    normalPerVertex="true"
												                    index="0 1 2 0 2 3 4 5 6 4 6 7 8 9 10 8 10 11 12 13 14 12 14 15 4 13 16 4 16 17 18 19 14 18 14 7 "
												                    >
													<Coordinate point="0.136114 -0.234149 -0.148012 0.136114 0.234149 -0.148012 -0.136114 0.234149 0.148012 -0.136114 -0.234149 0.148012 0.136114 0.234149 -0.148012 -0.425252 0.234149 -0.664252 -0.697481 0.234149 -0.368228 -0.136114 0.234149 0.148012 -0.425252 0.234149 -0.664252 -0.425252 -0.234149 -0.664252 -0.697481 -0.234149 -0.368228 -0.697481 0.234149 -0.368228 -0.425252 -0.234149 -0.664252 0.136114 -0.234149 -0.148012 -0.136114 -0.234149 0.148012 -0.697481 -0.234149 -0.368228 -0.425252 -0.234149 -0.664252 -0.425252 0.234149 -0.664252 -0.697481 0.234149 -0.368228 -0.697481 -0.234149 -0.368228 " />
													<Normal vector="0.815760 -0.577349 -0.034150 0.815760 0.577349 -0.034150 0.034150 0.577349 0.815760 0.034150 -0.577349 0.815760 0.815760 0.577349 -0.034150 -0.034150 0.577349 -0.815760 -0.815760 0.577349 0.034150 0.034150 0.577349 0.815760 -0.034150 0.577349 -0.815760 -0.034150 -0.577349 -0.815760 -0.815760 -0.577349 0.034150 -0.815760 0.577349 0.034150 -0.034150 -0.577349 -0.815760 0.815760 -0.577349 -0.034150 0.034150 -0.577349 0.815760 -0.815760 -0.577349 0.034150 -0.034150 -0.577349 -0.815760 -0.034150 0.577349 -0.815760 -0.815760 0.577349 0.034150 -0.815760 -0.577349 0.034150 " />
													<TextureCoordinate point="0.0293 0.6002 0.0293 0.7542 0.1833 0.7542 0.1833 0.6002 0.0293 0.6002 0.0293 0.7542 0.1833 0.7542 0.1833 0.6002 0.0293 0.6002 0.0293 0.7542 0.1833 0.7542 0.1833 0.6002 0.0293 0.6002 0.0293 0.7542 0.1833 0.7542 0.1833 0.6002 0.1833 0.7542 0.1833 0.6002 0.0293 0.6002 0.0293 0.7542 " />
												</IndexedTriangleSet>
											</Shape>
										</Group>
									</Transform>
								</Transform>
							</Transform>
							<Transform DEF="Cube_006_TRANSFORM"
							           translation="-0.493448 0.282660 0.279409"
							           scale="1.000000 1.000000 1.000000"
							           rotation="0.000000 1.000000 0.000000 0.000000"
							           >
								<Transform DEF="Cube_006_ifs_TRANSFORM"
								           translation="0.000000 0.000000 0.000000"
								           scale="1.000000 1.000000 1.000000"
								           rotation="0.000000 1.000000 0.000000 0.000000"
								           >
									<Group DEF="group_ME_Cube_003">
										<Shape>
											<Appearance>
												<Material USE="MA_Body" />
											</Appearance>
											<IndexedTriangleSet solid="false"
											                    normalPerVertex="true"
											                    index="0 1 2 0 2 3 4 5 6 4 6 7 8 9 10 8 10 11 12 13 14 12 14 15 4 13 16 4 16 17 18 19 14 18 14 7 "
											                    >
												<Coordinate point="0.113195 -0.282599 -0.214677 0.113195 0.282599 -0.214677 -0.113195 0.282599 0.214677 -0.113195 -0.282599 0.214677 0.113195 0.282599 -0.214677 -0.429992 0.282599 -0.501090 -0.656383 0.282599 -0.071736 -0.113195 0.282599 0.214677 -0.429992 0.282599 -0.501090 -0.429992 -0.282599 -0.501090 -0.656383 -0.282599 -0.071736 -0.656383 0.282599 -0.071736 -0.429992 -0.282599 -0.501090 0.113195 -0.282599 -0.214677 -0.113195 -0.282599 0.214677 -0.656383 -0.282599 -0.071736 -0.429992 -0.282599 -0.501090 -0.429992 0.282599 -0.501090 -0.656383 0.282599 -0.071736 -0.656383 -0.282599 -0.071736 " />
												<Normal vector="0.779962 -0.577349 -0.241401 0.779962 0.577349 -0.241401 0.241401 0.577349 0.779962 0.241401 -0.577349 0.779962 0.779962 0.577349 -0.241401 -0.241401 0.577349 -0.779962 -0.779962 0.577349 0.241401 0.241401 0.577349 0.779962 -0.241401 0.577349 -0.779962 -0.241401 -0.577349 -0.779962 -0.779962 -0.577349 0.241401 -0.779962 0.577349 0.241401 -0.241401 -0.577349 -0.779962 0.779962 -0.577349 -0.241401 0.241401 -0.577349 0.779962 -0.779962 -0.577349 0.241401 -0.241401 -0.577349 -0.779962 -0.241401 0.577349 -0.779962 -0.779962 0.577349 0.241401 -0.779962 -0.577349 0.241401 " />
												<TextureCoordinate point="0.0293 0.6002 0.0293 0.7542 0.1833 0.7542 0.1833 0.6002 0.0293 0.6002 0.0293 0.7542 0.1833 0.7542 0.1833 0.6002 0.0293 0.6002 0.0293 0.7542 0.1833 0.7542 0.1833 0.6002 0.0293 0.6002 0.0293 0.7542 0.1833 0.7542 0.1833 0.6002 0.1833 0.7542 0.1833 0.6002 0.0293 0.6002 0.0293 0.7542 " />
											</IndexedTriangleSet>
										</Shape>
									</Group>
								</Transform>
								<Transform DEF="Cube_020_TRANSFORM"
								           translation="-0.494983 0.000000 -0.256598"
								           scale="1.000000 1.000000 1.000000"
								           rotation="0.000000 1.000000 0.000000 0.000000"
								           >
									<Transform DEF="Cube_020_ifs_TRANSFORM"
									           translation="0.000000 0.000000 0.000000"
									           scale="1.000000 1.000000 1.000000"
									           rotation="0.000000 1.000000 0.000000 0.000000"
									           >
										<Group DEF="group_ME_Cube_009">
											<Shape>
												<Appearance>
													<Material USE="MA_Body" />
												</Appearance>
												<IndexedTriangleSet solid="false"
												                    normalPerVertex="true"
												                    index="0 1 2 0 2 3 4 5 6 4 6 7 8 9 10 8 10 11 12 13 14 12 14 15 4 13 16 4 16 17 18 19 14 18 14 7 "
												                    >
													<Coordinate point="0.177767 -0.234149 -0.093987 0.177767 0.234149 -0.093987 -0.177767 0.234149 0.093987 -0.177767 -0.234149 0.093987 0.177767 0.234149 -0.093987 -0.178700 0.234149 -0.768204 -0.534233 0.234149 -0.580229 -0.177767 0.234149 0.093987 -0.178700 0.234149 -0.768204 -0.178700 -0.234149 -0.768204 -0.534233 -0.234149 -0.580229 -0.534233 0.234149 -0.580229 -0.178700 -0.234149 -0.768204 0.177767 -0.234149 -0.093987 -0.177767 -0.234149 0.093987 -0.534233 -0.234149 -0.580229 -0.178700 -0.234149 -0.768204 -0.178700 0.234149 -0.768204 -0.534233 0.234149 -0.580229 -0.534233 -0.234149 -0.580229 " />
													<Normal vector="0.780236 -0.577349 0.240516 0.780236 0.577349 0.240516 -0.240516 0.577349 0.780236 -0.240516 -0.577349 0.780236 0.780236 0.577349 0.240516 0.240516 0.577349 -0.780236 -0.780236 0.577349 -0.240516 -0.240516 0.577349 0.780236 0.240516 0.577349 -0.780236 0.240516 -0.577349 -0.780236 -0.780236 -0.577349 -0.240516 -0.780236 0.577349 -0.240516 0.240516 -0.577349 -0.780236 0.780236 -0.577349 0.240516 -0.240516 -0.577349 0.780236 -0.780236 -0.577349 -0.240516 0.240516 -0.577349 -0.780236 0.240516 0.577349 -0.780236 -0.780236 0.577349 -0.240516 -0.780236 -0.577349 -0.240516 " />
													<TextureCoordinate point="0.0293 0.6002 0.0293 0.7542 0.1833 0.7542 0.1833 0.6002 0.0293 0.6002 0.0293 0.7542 0.1833 0.7542 0.1833 0.6002 0.0293 0.6002 0.0293 0.7542 0.1833 0.7542 0.1833 0.6002 0.0293 0.6002 0.0293 0.7542 0.1833 0.7542 0.1833 0.6002 0.1833 0.7542 0.1833 0.6002 0.0293 0.6002 0.0293 0.7542 " />
												</IndexedTriangleSet>
											</Shape>
										</Group>
									</Transform>
								</Transform>
							</Transform>
							<Transform DEF="Cube_008_TRANSFORM"
							           translation="-0.236597 -0.268521 -0.083820"
							           scale="1.000000 1.000000 1.000000"
							           rotation="0.000000 1.000000 0.000000 0.000000"
							           >
								<Transform DEF="Cube_008_ifs_TRANSFORM"
								           translation="0.000000 0.000000 0.000000"
								           scale="1.000000 1.000000 1.000000"
								           rotation="0.000000 1.000000 0.000000 0.000000"
								           >
									<Group DEF="group_ME_Cube_004">
										<Shape>
											<Appearance>
												<Material USE="MA_Body" />
											</Appearance>
											<IndexedTriangleSet solid="false"
											                    normalPerVertex="true"
											                    index="0 1 2 0 2 3 4 5 6 4 6 7 8 9 10 8 10 11 12 13 14 12 14 15 4 13 16 4 16 17 18 19 14 18 14 7 "
											                    >
												<Coordinate point="0.234543 -0.202305 -0.178247 0.068721 0.188815 -0.295526 -0.234543 0.202305 0.178247 -0.068721 -0.188815 0.295526 0.068721 0.188815 -0.295526 -0.465446 -0.137396 -0.628160 -0.768709 -0.123906 -0.154386 -0.234543 0.202305 0.178247 -0.465446 -0.137396 -0.628160 -0.299624 -0.528516 -0.510881 -0.602887 -0.515026 -0.037107 -0.768709 -0.123906 -0.154386 -0.299624 -0.528516 -0.510881 0.234543 -0.202305 -0.178247 -0.068721 -0.188815 0.295526 -0.602887 -0.515026 -0.037107 -0.299624 -0.528516 -0.510881 -0.465446 -0.137396 -0.628160 -0.768709 -0.123906 -0.154386 -0.602887 -0.515026 -0.037107 " />
												<Normal vector="0.963500 -0.260506 -0.061525 0.529038 0.764244 -0.368816 -0.093295 0.791925 0.603412 0.341166 -0.232826 0.910703 0.529038 0.764244 -0.368816 -0.341166 0.232826 -0.910703 -0.963500 0.260506 0.061525 -0.093295 0.791925 0.603412 -0.341166 0.232826 -0.910703 0.093295 -0.791925 -0.603412 -0.529038 -0.764244 0.368816 -0.963500 0.260506 0.061525 0.093295 -0.791925 -0.603412 0.963500 -0.260506 -0.061525 0.341166 -0.232826 0.910703 -0.529038 -0.764244 0.368816 0.093295 -0.791925 -0.603412 -0.341166 0.232826 -0.910703 -0.963500 0.260506 0.061525 -0.529038 -0.764244 0.368816 " />
												<TextureCoordinate point="0.0293 0.6002 0.0293 0.7542 0.1833 0.7542 0.1833 0.6002 0.0293 0.6002 0.0293 0.7542 0.1833 0.7542 0.1833 0.6002 0.0293 0.6002 0.0293 0.7542 0.1833 0.7542 0.1833 0.6002 0.0293 0.6002 0.0293 0.7542 0.1833 0.7542 0.1833 0.6002 0.1833 0.7542 0.1833 0.6002 0.0293 0.6002 0.0293 0.7542 " />
											</IndexedTriangleSet>
										</Shape>
									</Group>
								</Transform>
								<Transform DEF="Cube_009_TRANSFORM"
								           translation="-0.466255 -0.307004 -0.289709"
								           scale="1.000000 1.000000 1.000000"
								           rotation="0.000000 1.000000 0.000000 0.000000"
								           >
									<Transform DEF="Cube_009_ifs_TRANSFORM"
									           translation="0.000000 0.000000 0.000000"
									           scale="1.000000 1.000000 1.000000"
									           rotation="0.000000 1.000000 0.000000 0.000000"
									           >
										<Group DEF="group_ME_Cube_005">
											<Shape>
												<Appearance>
													<Material USE="MA_Body" />
												</Appearance>
												<IndexedTriangleSet solid="false"
												                    normalPerVertex="true"
												                    index="0 1 2 0 2 3 4 5 6 4 6 7 8 9 10 8 10 11 12 13 14 12 14 15 4 13 16 4 16 17 18 19 14 18 14 7 "
												                    >
													<Coordinate point="0.051088 -0.227937 -0.214328 0.174372 0.153977 -0.215378 -0.051088 0.227937 0.214328 -0.174372 -0.153977 0.215378 0.174372 0.153977 -0.215378 -0.333356 0.317064 -0.509845 -0.558816 0.391025 -0.080139 -0.051088 0.227937 0.214328 -0.333356 0.317064 -0.509845 -0.456640 -0.064850 -0.508795 -0.682100 0.009111 -0.079089 -0.558816 0.391025 -0.080139 -0.456640 -0.064850 -0.508795 0.051088 -0.227937 -0.214328 -0.174372 -0.153977 0.215378 -0.682100 0.009111 -0.079089 -0.456640 -0.064850 -0.508795 -0.333356 0.317064 -0.509845 -0.558816 0.391025 -0.080139 -0.682100 0.009111 -0.079089 " />
													<Normal vector="0.569018 -0.790979 -0.224799 0.923734 0.307871 -0.227821 0.393353 0.481826 0.782983 0.038636 -0.616993 0.786004 0.923734 0.307871 -0.227821 -0.038636 0.616993 -0.786004 -0.569018 0.790979 0.224799 0.393353 0.481826 0.782983 -0.038636 0.616993 -0.786004 -0.393353 -0.481826 -0.782983 -0.923734 -0.307871 0.227821 -0.569018 0.790979 0.224799 -0.393353 -0.481826 -0.782983 0.569018 -0.790979 -0.224799 0.038636 -0.616993 0.786004 -0.923734 -0.307871 0.227821 -0.393353 -0.481826 -0.782983 -0.038636 0.616993 -0.786004 -0.569018 0.790979 0.224799 -0.923734 -0.307871 0.227821 " />
													<TextureCoordinate point="0.0293 0.6002 0.0293 0.7542 0.1833 0.7542 0.1833 0.6002 0.0293 0.6002 0.0293 0.7542 0.1833 0.7542 0.1833 0.6002 0.0293 0.6002 0.0293 0.7542 0.1833 0.7542 0.1833 0.6002 0.0293 0.6002 0.0293 0.7542 0.1833 0.7542 0.1833 0.6002 0.1833 0.7542 0.1833 0.6002 0.0293 0.6002 0.0293 0.7542 " />
												</IndexedTriangleSet>
											</Shape>
										</Group>
									</Transform>
								</Transform>
							</Transform>
						</Transform>
					</Transform>
				</Transform>
			</Transform>
			<Transform DEF="Cube_018_TRANSFORM"
			           translation="-0.664274 -0.030996 2.500797"
			           scale="1.000000 1.000000 1.000000"
			           rotation="0.000000 1.000000 0.000000 0.000000"
			           >
				<Transform DEF="Cube_018_ifs_TRANSFORM"
				           translation="0.000000 0.000000 0.000000"
				           scale="1.000000 1.000000 1.000000"
				           rotation="0.000000 1.000000 0.000000 0.000000"
				           >
					<Group DEF="group_ME_Cube_007">
						<Shape>
							<Appearance>
								<Material USE="MA_Body" />
							</Appearance>
							<IndexedTriangleSet solid="false"
							                    normalPerVertex="true"
							                    index="0 1 2 0 2 3 4 5 6 4 6 7 8 9 10 8 10 11 12 13 14 12 14 15 16 17 18 16 18 19 20 21 22 20 22 23 24 25 9 24 9 8 26 27 5 26 5 4 28 29 1 28 1 0 30 26 4 30 4 31 32 20 23 32 23 33 34 35 17 34 17 16 30 21 13 30 13 12 33 23 36 33 36 37 31 4 7 31 7 19 "
							                    >
								<Coordinate point="0.347902 -0.374375 0.084994 0.405980 0.310439 0.084994 0.405980 0.310439 0.543962 0.347902 -0.374375 0.543962 -0.244564 0.365611 0.084994 -0.347902 0.374375 0.084994 -0.347902 0.374374 0.543962 -0.244564 0.365610 0.543962 -0.347902 0.374375 0.084994 -0.405980 -0.310439 0.084994 -0.405980 -0.310439 0.543962 -0.347902 0.374374 0.543962 -0.244564 0.365611 0.000000 -0.302642 -0.319203 -0.000000 -0.405980 -0.310439 -0.000000 -0.347902 0.374375 0.000000 -0.244564 0.365610 0.543962 -0.302642 -0.319203 0.543962 0.347902 -0.374375 0.543962 0.405980 0.310439 0.543962 -0.302642 -0.319203 -0.000000 0.347902 -0.374375 -0.000000 0.347902 -0.374375 0.084994 -0.302642 -0.319203 0.084994 -0.347902 0.374375 0.000000 -0.405980 -0.310439 -0.000000 -0.244564 0.365611 0.000000 -0.347902 0.374375 0.000000 0.347902 -0.374375 -0.000000 0.405980 0.310439 0.000000 0.405980 0.310439 0.000000 0.405980 0.310439 0.084994 -0.405980 -0.310439 -0.000000 -0.405980 -0.310439 0.084994 -0.347902 0.374374 0.543962 -0.405980 -0.310439 0.543962 -0.302642 -0.319203 0.543962 -0.405980 -0.310439 0.543962 " />
								<Normal vector="0.644795 -0.764306 0.000000 0.764306 0.644795 0.000000 0.624073 0.526475 0.577349 0.526475 -0.624073 0.577349 0.084475 0.996399 0.000000 -0.644795 0.764306 0.000000 -0.526475 0.624073 0.577349 0.059725 0.704550 0.707083 -0.644795 0.764306 0.000000 -0.764306 -0.644795 0.000000 -0.624073 -0.526475 0.577349 -0.526475 0.624073 0.577349 0.059725 0.704550 -0.707083 -0.059725 -0.704550 -0.707083 -0.624073 -0.526475 -0.577349 -0.526475 0.624073 -0.577349 0.059725 0.704550 0.707083 -0.059725 -0.704550 0.707083 0.526475 -0.624073 0.577349 0.624073 0.526475 0.577349 -0.059725 -0.704550 -0.707083 0.526475 -0.624073 -0.577349 0.644795 -0.764306 0.000000 -0.084475 -0.996399 0.000000 -0.526475 0.624073 -0.577349 -0.624073 -0.526475 -0.577349 0.059725 0.704550 -0.707083 -0.526475 0.624073 -0.577349 0.526475 -0.624073 -0.577349 0.624073 0.526475 -0.577349 0.624073 0.526475 -0.577349 0.764306 0.644795 0.000000 -0.624073 -0.526475 -0.577349 -0.764306 -0.644795 0.000000 -0.526475 0.624073 0.577349 -0.624073 -0.526475 0.577349 -0.059725 -0.704550 0.707083 -0.624073 -0.526475 0.577349 " />
								<TextureCoordinate point="0.1260 0.8118 0.1260 0.9658 0.2030 0.9658 0.2030 0.8118 0.1260 0.8888 0.1260 0.9658 0.2030 0.9658 0.2030 0.8888 0.1260 0.8118 0.1260 0.9658 0.2030 0.9658 0.2030 0.8118 0.1260 0.8118 0.1260 0.9658 0.2030 0.9658 0.2030 0.8118 0.1260 0.8118 0.1260 0.9658 0.2030 0.9658 0.2030 0.8118 0.0490 0.8888 0.0490 0.9658 0.1260 0.9658 0.1260 0.8888 0.0490 0.8118 0.0490 0.9658 0.0490 0.8888 0.0490 0.9658 0.0490 0.8118 0.0490 0.9658 0.0490 0.8118 0.1260 0.8118 0.0490 0.8118 0.1260 0.8118 0.0490 0.8118 0.0490 0.9658 0.2030 0.8888 0.2030 0.8118 " />
							</IndexedTriangleSet>
						</Shape>
						<Shape>
							<Appearance>
								<Material USE="MA_Head" />
							</Appearance>
							<IndexedTriangleSet solid="false"
							                    normalPerVertex="true"
							                    index="0 1 2 0 2 3 "
							                    >
								<Coordinate point="-0.302642 -0.319203 0.084994 0.347902 -0.374375 0.084994 0.347902 -0.374375 0.543962 -0.302642 -0.319203 0.543962 " />
								<Normal vector="-0.084475 -0.996399 0.000000 0.644795 -0.764306 0.000000 0.526475 -0.624073 0.577349 -0.059725 -0.704550 0.707083 " />
								<TextureCoordinate point="1.0000 0.6198 0.0000 0.6198 0.0000 0.9954 1.0000 0.9954 " />
							</IndexedTriangleSet>
						</Shape>
					</Group>
				</Transform>
			</Transform>
		</Transform>
	</Scene>
</X3D>