<?xml version="1.0" encoding="UTF-8"?>
<!DOCTYPE X3D PUBLIC "ISO//Web3D//DTD X3D 3.0//EN" "http://www.web3d.org/specifications/x3d-3.0.dtd">
<X3D version="3.0" profile="Immersive" xmlns:xsd="http://www.w3.org/2001/XMLSchema-instance" xsd:noNamespaceSchemaLocation="http://www.web3d.org/specifications/x3d-3.0.xsd">
	<head>
		<meta name="filename" content="poliwag.x3d" />
		<meta name="generator" content="Blender 2.93.18" />
	</head>
	<Scene>
		<NavigationInfo headlight="true"
		                visibilityLimit="0.0"
		                type='"EXAMINE", "ANY"'
		                avatarSize="0.25, 1.75, 0.75"
		                />
		<Background DEF="WO_World"
		            groundColor="0.051 0.051 0.051"
		            skyColor="0.051 0.051 0.051"
		            />
		<Transform DEF="body_TRANSFORM"
		           translation="0.000000 0.002275 0.474584"
		           scale="1.000000 1.000000 1.000000"
		           rotation="0.000000 0.000000 1.000000 3.141593"
		           >
			<Transform DEF="body_ifs_TRANSFORM"
			           translation="0.000000 0.000000 0.000000"
			           scale="1.000000 1.000000 1.000000"
			           rotation="0.000000 1.000000 0.000000 0.000000"
			           >
				<Group DEF="group_ME_body">
					<Shape>
						<Appearance>
							<Material DEF="MA_Body"
							          diffuseColor="0.800 0.800 0.800"
							          specularColor="0.401 0.401 0.401"
							          emissiveColor="0.000 0.000 0.000"
							          ambientIntensity="0.000"
							          shininess="0.500"
							          transparency="0.0"
							          />
						</Appearance>
						<IndexedTriangleSet solid="false"
						                    normalPerVertex="true"
						                    index="0 1 2 0 2 3 4 5 6 4 6 7 8 9 10 8 10 11 12 13 14 12 14 15 4 16 17 4 17 15 18 5 14 18 14 19 "
						                    >
							<Coordinate point="-1.516564 -1.284005 -0.109788 -1.516564 -1.442834 1.747770 -1.516564 1.125175 1.967346 -1.516564 1.284005 0.109788 -1.516564 1.284005 0.109788 -1.516564 1.125175 1.967346 1.516564 1.125175 1.967346 1.516564 1.284005 0.109788 1.516564 1.284005 0.109788 1.516564 1.125175 1.967346 1.516564 -1.442834 1.747770 1.516564 -1.284005 -0.109788 1.516564 -1.284005 -0.109788 1.516564 -1.442834 1.747770 -1.516564 -1.442834 1.747770 -1.516564 -1.284005 -0.109788 1.516564 1.284005 0.109788 1.516564 -1.284005 -0.109788 1.516564 1.125175 1.967346 1.516564 -1.442834 1.747770 " />
							<Normal vector="-0.577349 -0.526048 -0.624409 -0.577349 -0.624409 0.526048 -0.577349 0.526048 0.624409 -0.577349 0.624409 -0.526048 -0.577349 0.624409 -0.526048 -0.577349 0.526048 0.624409 0.577349 0.526048 0.624409 0.577349 0.624409 -0.526048 0.577349 0.624409 -0.526048 0.577349 0.526048 0.624409 0.577349 -0.624409 0.526048 0.577349 -0.526048 -0.624409 0.577349 -0.526048 -0.624409 0.577349 -0.624409 0.526048 -0.577349 -0.624409 0.526048 -0.577349 -0.526048 -0.624409 0.577349 0.624409 -0.526048 0.577349 -0.526048 -0.624409 0.577349 0.526048 0.624409 0.577349 -0.624409 0.526048 " />
							<TextureCoordinate point="0.0160 0.8008 0.2262 0.8008 0.2262 0.9804 0.0160 0.9804 0.0160 0.8008 0.2262 0.8008 0.2262 0.9804 0.0160 0.9804 0.0160 0.8008 0.2262 0.8008 0.2262 0.9804 0.0160 0.9804 0.0160 0.8008 0.2262 0.8008 0.2262 0.9804 0.0160 0.9804 0.2262 0.8008 0.2262 0.9804 0.0160 0.8008 0.0160 0.9804 " />
						</IndexedTriangleSet>
					</Shape>
				</Group>
			</Transform>
			<Transform DEF="Cube_001_TRANSFORM"
			           translation="0.000000 -0.305929 1.602154"
			           scale="1.000000 1.000000 1.000000"
			           rotation="0.000000 1.000000 0.000000 0.000000"
			           >
				<Transform DEF="Cube_001_ifs_TRANSFORM"
				           translation="0.000000 0.000000 0.000000"
				           scale="1.000000 1.000000 1.000000"
				           rotation="0.000000 1.000000 0.000000 0.000000"
				           >
					<Group DEF="group_ME_Cube_001">
						<Shape>
							<Appearance>
								<Material USE="MA_Body" />
							</Appearance>
							<IndexedTriangleSet solid="false"
							                    normalPerVertex="true"
							                    index="0 1 2 0 2 3 4 5 6 4 6 7 8 9 10 8 10 11 12 13 14 12 14 15 16 17 18 16 18 19 20 21 14 20 14 22 23 24 25 23 25 26 27 28 29 27 29 30 31 32 33 31 33 34 35 36 37 35 37 38 24 12 15 24 15 25 28 8 11 28 11 29 32 4 7 32 7 33 36 0 3 36 3 37 39 40 41 39 41 42 43 44 4 43 4 32 45 46 47 45 47 48 49 39 42 49 42 50 51 43 32 51 32 31 52 45 48 52 48 53 54 55 24 54 24 23 56 57 58 56 58 59 60 20 22 60 22 61 49 62 63 49 63 26 64 16 19 64 19 65 46 66 67 46 67 47 68 69 13 68 13 12 40 21 70 40 70 41 44 71 5 44 5 4 41 70 72 41 72 73 73 72 71 73 71 44 47 67 74 47 74 75 75 74 69 75 69 68 62 76 77 62 77 63 76 64 65 76 65 77 57 78 79 57 79 58 78 60 61 78 61 79 53 48 80 53 80 81 81 80 55 81 55 54 50 42 82 50 82 83 83 82 43 83 43 51 80 75 68 80 68 55 42 41 73 42 73 82 82 73 44 82 44 43 "
							                    >
								<Coordinate point="-1.360366 -1.119572 1.332056 -1.360366 -1.114559 1.416812 -1.360366 1.273794 1.275557 -1.360366 1.268781 1.190801 1.234769 1.268781 1.190801 1.234769 1.273794 1.275557 1.360366 1.273794 1.275557 1.360366 1.268781 1.190801 1.360366 1.268781 1.190801 1.360366 1.273794 1.275557 1.360366 -1.114559 1.416812 1.360366 -1.119572 1.332056 -1.234769 -1.119572 1.332056 -1.234769 -1.114559 1.416812 -1.360366 -1.114559 1.416812 -1.360366 -1.119572 1.332056 1.234769 1.194177 -0.070627 1.360366 1.194177 -0.070627 1.360366 -1.194177 0.070627 1.234769 -1.194177 0.070627 -1.234769 1.273794 1.275557 -1.360366 1.273794 1.275557 -1.234769 -1.114559 1.416812 -1.234769 -1.194177 0.070627 -1.234769 -1.172901 0.430351 -1.360366 -1.172902 0.430351 -1.360366 -1.194177 0.070627 1.360366 1.194177 -0.070627 1.360366 1.215452 0.289096 1.360366 -1.172902 0.430351 1.360366 -1.194177 0.070627 1.234769 1.194177 -0.070627 1.234769 1.215452 0.289096 1.360366 1.215452 0.289096 1.360366 1.194177 -0.070627 -1.360366 -1.194177 0.070627 -1.360366 -1.172902 0.430351 -1.360366 1.215452 0.289096 -1.360366 1.194177 -0.070627 -1.360366 1.215452 0.289096 -1.360366 1.268781 1.190801 -1.234769 1.268781 1.190801 -1.234769 1.215452 0.289096 0.390196 1.215452 0.289096 0.390196 1.268781 1.190801 1.360366 -1.172902 0.430351 1.360366 -1.119572 1.332056 1.234769 -1.119572 1.332056 1.234769 -1.172901 0.430351 -1.360366 1.194177 -0.070627 -1.234769 1.194177 -0.070627 0.390196 1.194177 -0.070627 1.360366 -1.194177 0.070627 1.234769 -1.194177 0.070627 -0.390196 -1.194177 0.070627 -0.390196 -1.172901 0.430351 1.360366 1.273794 1.275557 1.234769 1.273794 1.275557 1.234769 -1.114559 1.416812 1.360366 -1.114559 1.416812 -0.390196 1.273794 1.275557 -0.390196 -1.114559 1.416812 -1.234769 1.194177 -0.070627 -1.234769 -1.194177 0.070627 0.390196 1.194177 -0.070627 0.390196 -1.194177 0.070627 1.360366 -1.114559 1.416812 1.234769 -1.114559 1.416812 -0.390196 -1.119572 1.332056 -0.390196 -1.114559 1.416812 -1.234769 1.273794 1.275557 0.390196 1.273794 1.275557 -0.390196 1.273794 1.275557 -0.390196 1.268781 1.190801 0.390196 -1.114559 1.416812 0.390196 -1.119572 1.332056 -0.390196 1.194177 -0.070627 -0.390196 -1.194177 0.070627 0.390196 1.273794 1.275557 0.390196 -1.114559 1.416812 0.390196 -1.172901 0.430351 0.390196 -1.194177 0.070627 -0.390196 1.215452 0.289096 -0.390196 1.194177 -0.070627 " />
								<Normal vector="-0.707083 -0.705863 0.041719 -0.577349 -0.542253 0.610401 -0.577349 0.610401 0.542253 -0.707083 0.705863 -0.041719 0.000000 0.998230 -0.059023 0.000000 0.747612 0.664113 0.577349 0.610401 0.542253 0.707083 0.705863 -0.041719 0.707083 0.705863 -0.041719 0.577349 0.610401 0.542253 0.577349 -0.542253 0.610401 0.707083 -0.705863 0.041719 0.000000 -0.998230 0.059023 0.000000 -0.664113 0.747612 -0.577349 -0.542253 0.610401 -0.707083 -0.705863 0.041719 0.000000 0.664113 -0.747612 0.577349 0.542253 -0.610401 0.577349 -0.610401 -0.542253 0.000000 -0.747612 -0.664113 0.000000 0.747612 0.664113 -0.577349 0.610401 0.542253 0.000000 -0.664113 0.747612 0.000000 -0.747612 -0.664113 0.000000 -0.998230 0.059023 -0.707083 -0.705863 0.041719 -0.577349 -0.610401 -0.542253 0.577349 0.542253 -0.610401 0.707083 0.705863 -0.041719 0.707083 -0.705863 0.041719 0.577349 -0.610401 -0.542253 0.000000 0.664113 -0.747612 0.000000 0.998230 -0.059023 0.707083 0.705863 -0.041719 0.577349 0.542253 -0.610401 -0.577349 -0.610401 -0.542253 -0.707083 -0.705863 0.041719 -0.707083 0.705863 -0.041719 -0.577349 0.542253 -0.610401 -0.707083 0.705863 -0.041719 -0.707083 0.705863 -0.041719 0.000000 0.998230 -0.059023 0.000000 0.998230 -0.059023 0.000000 0.998230 -0.059023 0.000000 0.998230 -0.059023 0.707083 -0.705863 0.041719 0.707083 -0.705863 0.041719 0.000000 -0.998230 0.059023 0.000000 -0.998230 0.059023 -0.577349 0.542253 -0.610401 0.000000 0.664113 -0.747612 0.000000 0.664113 -0.747612 0.577349 -0.610401 -0.542253 0.000000 -0.747612 -0.664113 0.000000 -0.747612 -0.664113 0.000000 -0.998230 0.059023 0.577349 0.610401 0.542253 0.000000 0.747612 0.664113 0.000000 -0.664113 0.747612 0.577349 -0.542253 0.610401 0.000000 0.747612 0.664113 0.000000 -0.664113 0.747612 0.000000 0.664113 -0.747612 0.000000 -0.747612 -0.664113 0.000000 0.664113 -0.747612 0.000000 -0.747612 -0.664113 0.577349 -0.542253 0.610401 0.000000 -0.664113 0.747612 0.000000 -0.998230 0.059023 0.000000 -0.664113 0.747612 0.000000 0.747612 0.664113 0.000000 0.747612 0.664113 0.000000 0.747612 0.664113 0.000000 0.998230 -0.059023 0.000000 -0.664113 0.747612 0.000000 -0.998230 0.059023 0.000000 0.664113 -0.747612 0.000000 -0.747612 -0.664113 0.000000 0.747612 0.664113 0.000000 -0.664113 0.747612 0.000000 -0.998230 0.059023 0.000000 -0.747612 -0.664113 0.000000 0.998230 -0.059023 0.000000 0.664113 -0.747612 " />
								<TextureCoordinate point="0.1736 0.8008 0.2262 0.8008 0.2262 0.9804 0.1736 0.9804 0.1736 0.9205 0.2262 0.9205 0.2262 0.9804 0.1736 0.9804 0.1736 0.8008 0.2262 0.8008 0.2262 0.9804 0.1736 0.9804 0.1736 0.9205 0.2262 0.9205 0.2262 0.9804 0.1736 0.9804 0.1561 0.8008 0.2262 0.8008 0.2262 0.9804 0.1561 0.9804 0.1561 0.8008 0.2262 0.8008 0.1561 0.9804 0.0160 0.9205 0.1211 0.9205 0.1211 0.9804 0.0160 0.9804 0.0160 0.8008 0.1211 0.8008 0.1211 0.9804 0.0160 0.9804 0.0160 0.9205 0.1211 0.9205 0.1211 0.9804 0.0160 0.9804 0.0160 0.8008 0.1211 0.8008 0.1211 0.9804 0.0160 0.9804 0.1211 0.8008 0.1736 0.8008 0.1736 0.8607 0.1211 0.8607 0.1211 0.9006 0.1736 0.9006 0.1211 0.8008 0.1736 0.8008 0.1736 0.8607 0.1211 0.8607 0.0160 0.8008 0.0160 0.8607 0.0160 0.9006 0.0160 0.8008 0.0160 0.8607 0.0160 0.9006 0.1211 0.9006 0.0160 0.8008 0.0861 0.8008 0.0861 0.9804 0.0160 0.9804 0.1328 0.8008 0.1328 0.9804 0.0861 0.8008 0.0861 0.9804 0.1328 0.8008 0.1328 0.9804 0.2262 0.8008 0.2262 0.8607 0.1736 0.9006 0.2262 0.9006 0.2262 0.8607 0.2262 0.9006 0.2262 0.8807 0.1736 0.8807 0.2262 0.8807 0.1736 0.8807 0.1094 0.8008 0.1094 0.9804 0.1094 0.8008 0.1094 0.9804 0.1211 0.8807 0.0160 0.8807 0.1211 0.8807 0.0160 0.8807 " />
							</IndexedTriangleSet>
						</Shape>
						<Shape>
							<Appearance>
								<Material DEF="MA_Face"
								          diffuseColor="0.800 0.800 0.800"
								          specularColor="0.401 0.401 0.401"
								          emissiveColor="0.000 0.000 0.000"
								          ambientIntensity="0.000"
								          shininess="0.500"
								          transparency="0.0"
								          />
							</Appearance>
							<IndexedTriangleSet solid="false"
							                    normalPerVertex="true"
							                    index="0 1 2 0 2 3 4 5 6 4 6 7 "
							                    >
								<Coordinate point="-0.390196 -1.172901 0.430351 -0.390196 -1.119572 1.332056 -1.234769 -1.119572 1.332056 -1.234769 -1.172901 0.430351 1.234769 -1.172901 0.430351 1.234769 -1.119572 1.332056 0.390196 -1.119572 1.332056 0.390196 -1.172901 0.430351 " />
								<Normal vector="0.000000 -0.998230 0.059023 0.000000 -0.998230 0.059023 0.000000 -0.998230 0.059023 0.000000 -0.998230 0.059023 0.000000 -0.998230 0.059023 0.000000 -0.998230 0.059023 0.000000 -0.998230 0.059023 0.000000 -0.998230 0.059023 " />
								<TextureCoordinate point="0.4897 0.5138 0.4897 0.9940 0.0095 0.9940 0.0095 0.5138 0.0095 0.5138 0.0095 0.9940 0.4897 0.9940 0.4897 0.5138 " />
							</IndexedTriangleSet>
						</Shape>
					</Group>
				</Transform>
			</Transform>
			<Transform DEF="Cube_002_TRANSFORM"
			           translation="0.000000 -1.396308 0.000000"
			           scale="1.000000 1.000000 1.000000"
			           rotation="0.000000 1.000000 0.000000 0.000000"
			           >
				<Transform DEF="Cube_002_ifs_TRANSFORM"
				           translation="0.000000 0.000000 0.000000"
				           scale="1.000000 1.000000 1.000000"
				           rotation="0.000000 1.000000 0.000000 0.000000"
				           >
					<Group DEF="group_ME_Cube_003">
						<Shape>
							<Appearance>
								<Material USE="MA_Body" />
							</Appearance>
							<IndexedTriangleSet solid="false"
							                    normalPerVertex="true"
							                    index="0 1 2 0 2 3 4 5 6 4 6 7 8 9 10 8 10 11 12 13 14 12 14 15 4 16 17 4 17 18 19 5 20 19 20 21 "
							                    >
								<Coordinate point="-1.173749 -0.200938 -0.004666 -1.173749 -0.247284 1.991231 -1.173749 0.154592 2.000563 -1.173749 0.200938 0.004666 -1.173749 0.200938 0.004666 -1.173749 0.154592 2.000563 1.173749 0.154592 2.000563 1.173749 0.200938 0.004666 1.173749 0.200938 0.004666 1.173749 0.154592 2.000563 1.173749 -0.247284 1.991231 1.173749 -0.200938 -0.004666 1.173749 -0.200938 -0.004666 1.173749 -0.247284 1.991231 -1.173749 -0.247284 1.991231 -1.173749 -0.200938 -0.004666 1.173749 0.200938 0.004666 1.173749 -0.200938 -0.004666 -1.173749 -0.200938 -0.004666 1.173749 0.154592 2.000563 -1.173749 -0.247284 1.991231 1.173749 -0.247284 1.991231 " />
								<Normal vector="-0.577349 -0.563768 -0.590594 -0.577349 -0.590594 0.563768 -0.577349 0.563768 0.590594 -0.577349 0.590594 -0.563768 -0.577349 0.590594 -0.563768 -0.577349 0.563768 0.590594 0.577349 0.563768 0.590594 0.577349 0.590594 -0.563768 0.577349 0.590594 -0.563768 0.577349 0.563768 0.590594 0.577349 -0.590594 0.563768 0.577349 -0.563768 -0.590594 0.577349 -0.563768 -0.590594 0.577349 -0.590594 0.563768 -0.577349 -0.590594 0.563768 -0.577349 -0.563768 -0.590594 0.577349 0.590594 -0.563768 0.577349 -0.563768 -0.590594 -0.577349 -0.563768 -0.590594 0.577349 0.563768 0.590594 -0.577349 -0.590594 0.563768 0.577349 -0.590594 0.563768 " />
								<TextureCoordinate point="0.5039 0.8105 0.6914 0.8105 0.6914 0.9707 0.5039 0.9707 0.5039 0.8105 0.6914 0.8105 0.6914 0.9707 0.5039 0.9707 0.5039 0.8105 0.6914 0.8105 0.6914 0.9707 0.5039 0.9707 0.9199 0.0174 0.9199 0.7717 0.0801 0.7717 0.0801 0.0174 0.6914 0.8105 0.6914 0.9707 0.5039 0.9707 0.5039 0.8105 0.6914 0.9707 0.5039 0.9707 " />
							</IndexedTriangleSet>
						</Shape>
					</Group>
				</Transform>
			</Transform>
			<Transform DEF="Cube_003_TRANSFORM"
			           translation="0.000000 -1.388549 2.035126"
			           scale="1.000000 1.000000 1.000000"
			           rotation="0.000000 1.000000 0.000000 0.000000"
			           >
				<Transform DEF="Cube_003_ifs_TRANSFORM"
				           translation="0.000000 0.000000 0.000000"
				           scale="1.000000 1.000000 1.000000"
				           rotation="0.000000 1.000000 0.000000 0.000000"
				           >
					<Group DEF="group_ME_Cube_004">
						<Shape>
							<Appearance>
								<Material USE="MA_Body" />
							</Appearance>
							<IndexedTriangleSet solid="false"
							                    normalPerVertex="true"
							                    index="0 1 2 0 2 3 4 5 6 4 6 7 8 9 10 8 10 11 12 13 14 12 14 15 16 17 18 16 18 19 20 21 14 20 14 22 23 24 25 23 25 26 27 20 22 27 22 28 29 30 31 29 31 32 33 16 19 33 19 34 35 36 37 35 37 38 39 40 13 39 13 12 41 21 42 41 42 43 44 45 5 44 5 4 46 47 48 46 48 49 47 44 4 47 4 48 29 50 51 29 51 52 50 41 43 50 43 51 53 54 55 53 55 56 57 58 59 57 59 60 58 35 38 58 38 59 56 55 61 56 61 32 55 12 15 55 15 61 62 63 64 62 64 65 63 8 11 63 11 64 49 48 66 49 66 67 48 4 7 48 7 66 68 69 70 68 70 71 69 0 3 69 3 70 60 59 54 60 54 53 51 43 44 51 44 47 52 51 47 52 47 46 43 42 45 43 45 44 38 37 40 38 40 39 30 33 34 30 34 31 24 27 28 24 28 25 "
							                    >
								<Coordinate point="-0.311902 -0.243780 0.197721 -0.311902 -0.224850 0.281891 -0.311902 0.049520 0.220185 -0.311902 0.030590 0.136014 0.235591 0.030590 0.136014 0.235591 0.049520 0.220185 0.311902 0.049520 0.220185 0.311902 0.030590 0.136014 0.311902 0.030590 0.136014 0.311902 0.049520 0.220185 0.311902 -0.224850 0.281891 0.311902 -0.243780 0.197721 -0.235591 -0.243780 0.197721 -0.235591 -0.224850 0.281891 -0.311902 -0.224850 0.281891 -0.311902 -0.243780 0.197721 0.235591 -0.049520 -0.220185 0.311902 -0.049520 -0.220185 0.311902 -0.323890 -0.158478 0.235591 -0.323890 -0.158478 -0.235591 0.049520 0.220185 -0.311902 0.049520 0.220185 -0.235591 -0.224850 0.281891 0.311902 0.049520 0.220185 0.235591 0.049520 0.220185 0.235591 -0.224850 0.281891 0.311902 -0.224850 0.281891 0.000000 0.049520 0.220185 0.000000 -0.224850 0.281891 -0.311902 -0.049520 -0.220185 -0.235591 -0.049520 -0.220185 -0.235591 -0.323890 -0.158478 -0.311902 -0.323890 -0.158478 0.000000 -0.049520 -0.220185 0.000000 -0.323890 -0.158478 0.311902 -0.243780 0.197721 0.311902 -0.224850 0.281891 0.235591 -0.224850 0.281891 0.235591 -0.243780 0.197721 0.000000 -0.243780 0.197721 0.000000 -0.224850 0.281891 -0.311902 0.030590 0.136014 -0.235591 0.049520 0.220185 -0.235591 0.030590 0.136014 0.000000 0.030590 0.136014 0.000000 0.049520 0.220185 0.000000 -0.049520 -0.220185 0.000000 -0.032388 -0.144011 0.235591 -0.032388 -0.144011 0.235591 -0.049520 -0.220185 -0.311902 -0.032388 -0.144011 -0.235591 -0.032388 -0.144011 -0.235591 -0.049520 -0.220185 0.000000 -0.323890 -0.158478 0.000000 -0.306758 -0.082304 -0.235591 -0.306758 -0.082304 -0.235591 -0.323890 -0.158478 0.311902 -0.323890 -0.158478 0.311902 -0.306758 -0.082304 0.235591 -0.306758 -0.082304 0.235591 -0.323890 -0.158478 -0.311902 -0.306758 -0.082304 0.311902 -0.049520 -0.220185 0.311902 -0.032388 -0.144011 0.311902 -0.306758 -0.082304 0.311902 -0.323890 -0.158478 0.311902 -0.032388 -0.144011 0.311902 -0.049520 -0.220185 -0.311902 -0.323890 -0.158478 -0.311902 -0.306758 -0.082304 -0.311902 -0.032388 -0.144011 -0.311902 -0.049520 -0.220185 " />
								<Normal vector="-0.707083 -0.689871 0.155126 -0.577349 -0.436567 0.689962 -0.577349 0.689962 0.436567 -0.707083 0.689871 -0.155126 0.000000 0.975616 -0.219398 0.000000 0.845027 0.534715 0.577349 0.689962 0.436567 0.707083 0.689871 -0.155126 0.707083 0.689871 -0.155126 0.577349 0.689962 0.436567 0.577349 -0.436567 0.689962 0.707083 -0.689871 0.155126 0.000000 -0.975616 0.219398 0.000000 -0.534715 0.845027 -0.577349 -0.436567 0.689962 -0.707083 -0.689871 0.155126 0.000000 0.534715 -0.845027 0.577349 0.436567 -0.689962 0.577349 -0.689962 -0.436567 0.000000 -0.845027 -0.534715 0.000000 0.845027 0.534715 -0.577349 0.689962 0.436567 0.000000 -0.534715 0.845027 0.577349 0.689962 0.436567 0.000000 0.845027 0.534715 0.000000 -0.534715 0.845027 0.577349 -0.436567 0.689962 0.000000 0.845027 0.534715 0.000000 -0.534715 0.845027 -0.577349 0.436567 -0.689962 0.000000 0.534715 -0.845027 0.000000 -0.845027 -0.534715 -0.577349 -0.689962 -0.436567 0.000000 0.534715 -0.845027 0.000000 -0.845027 -0.534715 0.707083 -0.689871 0.155126 0.577349 -0.436567 0.689962 0.000000 -0.534715 0.845027 0.000000 -0.975616 0.219398 0.000000 -0.975616 0.219398 0.000000 -0.534715 0.845027 -0.707083 0.689871 -0.155126 0.000000 0.845027 0.534715 0.000000 0.975616 -0.219398 0.000000 0.975616 -0.219398 0.000000 0.845027 0.534715 0.000000 0.534715 -0.845027 0.000000 0.975616 -0.219398 0.000000 0.975616 -0.219398 0.000000 0.534715 -0.845027 -0.707083 0.689871 -0.155126 0.000000 0.975616 -0.219398 0.000000 0.534715 -0.845027 0.000000 -0.845027 -0.534715 0.000000 -0.975616 0.219398 0.000000 -0.975616 0.219398 0.000000 -0.845027 -0.534715 0.577349 -0.689962 -0.436567 0.707083 -0.689871 0.155126 0.000000 -0.975616 0.219398 0.000000 -0.845027 -0.534715 -0.707083 -0.689871 0.155126 0.577349 0.436567 -0.689962 0.707083 0.689871 -0.155126 0.707083 -0.689871 0.155126 0.577349 -0.689962 -0.436567 0.707083 0.689871 -0.155126 0.577349 0.436567 -0.689962 -0.577349 -0.689962 -0.436567 -0.707083 -0.689871 0.155126 -0.707083 0.689871 -0.155126 -0.577349 0.436567 -0.689962 " />
								<TextureCoordinate point="0.3822 0.8055 0.4357 0.8055 0.4357 0.9758 0.3822 0.9758 0.3822 0.9190 0.4357 0.9190 0.4357 0.9758 0.3822 0.9758 0.3822 0.8055 0.4357 0.8055 0.4357 0.9758 0.3822 0.9758 0.3822 0.9190 0.4357 0.9190 0.4357 0.9758 0.3822 0.9758 0.3822 0.8055 0.4357 0.8055 0.4357 0.9758 0.3822 0.9758 0.3822 0.8055 0.4357 0.8055 0.3822 0.9758 0.2753 0.8055 0.3287 0.8055 0.3287 0.9758 0.2753 0.9758 0.3555 0.8055 0.3555 0.9758 0.2753 0.8055 0.3287 0.8055 0.3287 0.9758 0.2753 0.9758 0.3555 0.8055 0.3555 0.9758 0.3822 0.8055 0.4357 0.8055 0.4357 0.8622 0.3822 0.8622 0.3822 0.8906 0.4357 0.8906 0.3822 0.8055 0.4357 0.8622 0.3822 0.8622 0.3822 0.8906 0.4357 0.8906 0.2753 0.8906 0.3287 0.8906 0.3287 0.9190 0.2753 0.9190 0.3287 0.8055 0.3287 0.8622 0.2753 0.8622 0.2753 0.8906 0.3287 0.8906 0.3287 0.9190 0.2753 0.9190 0.2753 0.8055 0.3287 0.8055 0.3287 0.8622 0.2753 0.8622 0.3287 0.9758 0.2753 0.8055 0.3287 0.8055 0.3287 0.9758 0.2753 0.9758 0.3287 0.9758 0.2753 0.9758 0.2753 0.8055 0.3287 0.8055 0.3287 0.9758 0.2753 0.9758 " />
							</IndexedTriangleSet>
						</Shape>
						<Shape>
							<Appearance>
								<Material USE="MA_Face" />
							</Appearance>
							<IndexedTriangleSet solid="false"
							                    normalPerVertex="true"
							                    index="0 1 2 0 2 3 4 5 1 4 1 0 "
							                    >
								<Coordinate point="0.000000 -0.306758 -0.082304 0.000000 -0.243780 0.197721 -0.235591 -0.243780 0.197721 -0.235591 -0.306758 -0.082304 0.235591 -0.306758 -0.082304 0.235591 -0.243780 0.197721 " />
								<Normal vector="0.000000 -0.975616 0.219398 0.000000 -0.975616 0.219398 0.000000 -0.975616 0.219398 0.000000 -0.975616 0.219398 0.000000 -0.975616 0.219398 0.000000 -0.975616 0.219398 " />
								<TextureCoordinate point="0.9804 0.5378 0.9804 0.9935 0.5274 0.9935 0.5274 0.5378 0.5274 0.5378 0.5274 0.9935 " />
							</IndexedTriangleSet>
						</Shape>
					</Group>
				</Transform>
			</Transform>
			<Transform DEF="leg1_TRANSFORM"
			           translation="0.760675 0.023115 0.140208"
			           scale="1.000000 1.000000 1.000000"
			           rotation="0.000000 1.000000 0.000000 0.000000"
			           >
				<Transform DEF="leg1_ifs_TRANSFORM"
				           translation="0.000000 0.000000 0.000000"
				           scale="1.000000 1.000000 1.000000"
				           rotation="0.000000 1.000000 0.000000 0.000000"
				           >
					<Group DEF="group_ME_leg1">
						<Shape>
							<Appearance>
								<Material USE="MA_Body" />
							</Appearance>
							<IndexedTriangleSet solid="false"
							                    normalPerVertex="true"
							                    index="0 1 2 0 2 3 4 5 6 4 6 7 8 9 10 8 10 11 12 13 14 12 14 15 4 16 17 4 17 15 18 5 14 18 14 19 "
							                    >
								<Coordinate point="-0.143299 -0.112033 -0.363624 -0.143299 -0.142754 -0.012489 -0.143299 0.142754 0.012489 -0.143299 0.173474 -0.338646 -0.143299 0.173474 -0.338646 -0.143299 0.142754 0.012489 0.143299 0.142754 0.012489 0.143299 0.173474 -0.338646 0.143299 0.173474 -0.338646 0.143299 0.142754 0.012489 0.143299 -0.142754 -0.012489 0.143299 -0.112033 -0.363624 0.143299 -0.112033 -0.363624 0.143299 -0.142754 -0.012489 -0.143299 -0.142754 -0.012489 -0.143299 -0.112033 -0.363624 0.143299 0.173474 -0.338646 0.143299 -0.112033 -0.363624 0.143299 0.142754 0.012489 0.143299 -0.142754 -0.012489 " />
								<Normal vector="-0.577349 -0.524827 -0.625446 -0.577349 -0.625446 0.524827 -0.577349 0.524827 0.625446 -0.577349 0.625446 -0.524827 -0.577349 0.625446 -0.524827 -0.577349 0.524827 0.625446 0.577349 0.524827 0.625446 0.577349 0.625446 -0.524827 0.577349 0.625446 -0.524827 0.577349 0.524827 0.625446 0.577349 -0.625446 0.524827 0.577349 -0.524827 -0.625446 0.577349 -0.524827 -0.625446 0.577349 -0.625446 0.524827 -0.577349 -0.625446 0.524827 -0.577349 -0.524827 -0.625446 0.577349 0.625446 -0.524827 0.577349 -0.524827 -0.625446 0.577349 0.524827 0.625446 0.577349 -0.625446 0.524827 " />
								<TextureCoordinate point="0.0160 0.8008 0.2262 0.8008 0.2262 0.9804 0.0160 0.9804 0.0160 0.8008 0.2262 0.8008 0.2262 0.9804 0.0160 0.9804 0.0160 0.8008 0.2262 0.8008 0.2262 0.9804 0.0160 0.9804 0.0160 0.8008 0.2262 0.8008 0.2262 0.9804 0.0160 0.9804 0.2262 0.8008 0.2262 0.9804 0.0160 0.8008 0.0160 0.9804 " />
							</IndexedTriangleSet>
						</Shape>
					</Group>
				</Transform>
				<Transform DEF="foot1_TRANSFORM"
				           translation="0.001536 0.048550 -0.291271"
				           scale="1.000000 1.000000 1.000000"
				           rotation="0.000000 1.000000 0.000000 0.000000"
				           >
					<Transform DEF="foot1_ifs_TRANSFORM"
					           translation="0.000000 0.000000 0.000000"
					           scale="1.000000 1.000000 1.000000"
					           rotation="0.000000 1.000000 0.000000 0.000000"
					           >
						<Group DEF="group_ME_foot1">
							<Shape>
								<Appearance>
									<Material USE="MA_Body" />
								</Appearance>
								<IndexedTriangleSet solid="false"
								                    normalPerVertex="true"
								                    index="0 1 2 0 2 3 4 5 6 4 6 7 8 9 10 8 10 11 12 13 14 12 14 15 4 16 17 4 17 15 18 5 14 18 14 19 "
								                    >
									<Coordinate point="-0.357438 -1.240848 -0.330216 -0.357438 -1.244184 -0.013088 -0.357438 0.203388 0.002140 -0.357438 0.206724 -0.314988 -0.357438 0.206724 -0.314988 -0.357438 0.203388 0.002140 0.357438 0.203388 0.002140 0.357438 0.206724 -0.314988 0.357438 0.206724 -0.314988 0.357438 0.203388 0.002140 0.357438 -1.244184 -0.013088 0.357438 -1.240848 -0.330216 0.357438 -1.240848 -0.330216 0.357438 -1.244184 -0.013088 -0.357438 -1.244184 -0.013088 -0.357438 -1.240848 -0.330216 0.357438 0.206724 -0.314988 0.357438 -1.240848 -0.330216 0.357438 0.203388 0.002140 0.357438 -1.244184 -0.013088 " />
									<Normal vector="-0.577349 -0.571215 -0.583361 -0.577349 -0.583361 0.571215 -0.577349 0.571215 0.583361 -0.577349 0.583361 -0.571215 -0.577349 0.583361 -0.571215 -0.577349 0.571215 0.583361 0.577349 0.571215 0.583361 0.577349 0.583361 -0.571215 0.577349 0.583361 -0.571215 0.577349 0.571215 0.583361 0.577349 -0.583361 0.571215 0.577349 -0.571215 -0.583361 0.577349 -0.571215 -0.583361 0.577349 -0.583361 0.571215 -0.577349 -0.583361 0.571215 -0.577349 -0.571215 -0.583361 0.577349 0.583361 -0.571215 0.577349 -0.571215 -0.583361 0.577349 0.571215 0.583361 0.577349 -0.583361 0.571215 " />
									<TextureCoordinate point="0.0160 0.8008 0.2262 0.8008 0.2262 0.9804 0.0160 0.9804 0.0160 0.8008 0.2262 0.8008 0.2262 0.9804 0.0160 0.9804 0.0160 0.8008 0.2262 0.8008 0.2262 0.9804 0.0160 0.9804 0.0160 0.8008 0.2262 0.8008 0.2262 0.9804 0.0160 0.9804 0.2262 0.8008 0.2262 0.9804 0.0160 0.8008 0.0160 0.9804 " />
								</IndexedTriangleSet>
							</Shape>
						</Group>
					</Transform>
				</Transform>
			</Transform>
			<Transform DEF="tail_TRANSFORM"
			           translation="0.000000 1.190179 0.285223"
			           scale="1.000000 1.000000 1.000000"
			           rotation="0.000000 1.000000 0.000000 0.000000"
			           >
				<Transform DEF="tail_ifs_TRANSFORM"
				           translation="0.000000 0.000000 0.000000"
				           scale="1.000000 1.000000 1.000000"
				           rotation="0.000000 1.000000 0.000000 0.000000"
				           >
					<Group DEF="group_ME_tail">
						<Shape>
							<Appearance>
								<Material USE="MA_Body" />
							</Appearance>
							<IndexedTriangleSet solid="false"
							                    normalPerVertex="true"
							                    index="0 1 2 0 2 3 4 5 6 4 6 7 8 9 10 8 10 11 12 13 14 12 14 15 4 16 17 4 17 15 18 5 14 18 14 19 "
							                    >
								<Coordinate point="-0.107054 0.000000 -0.104474 -0.107054 0.000000 0.104474 -0.107054 1.068694 0.104474 -0.107054 1.068694 -0.104474 -0.107054 1.068694 -0.104474 -0.107054 1.068694 0.104474 0.107054 1.068694 0.104474 0.107054 1.068694 -0.104474 0.107054 1.068694 -0.104474 0.107054 1.068694 0.104474 0.107054 0.000000 0.104474 0.107054 0.000000 -0.104474 0.107054 0.000000 -0.104474 0.107054 0.000000 0.104474 -0.107054 0.000000 0.104474 -0.107054 0.000000 -0.104474 0.107054 1.068694 -0.104474 0.107054 0.000000 -0.104474 0.107054 1.068694 0.104474 0.107054 0.000000 0.104474 " />
								<Normal vector="-0.577349 -0.577349 -0.577349 -0.577349 -0.577349 0.577349 -0.577349 0.577349 0.577349 -0.577349 0.577349 -0.577349 -0.577349 0.577349 -0.577349 -0.577349 0.577349 0.577349 0.577349 0.577349 0.577349 0.577349 0.577349 -0.577349 0.577349 0.577349 -0.577349 0.577349 0.577349 0.577349 0.577349 -0.577349 0.577349 0.577349 -0.577349 -0.577349 0.577349 -0.577349 -0.577349 0.577349 -0.577349 0.577349 -0.577349 -0.577349 0.577349 -0.577349 -0.577349 -0.577349 0.577349 0.577349 -0.577349 0.577349 -0.577349 -0.577349 0.577349 0.577349 0.577349 0.577349 -0.577349 0.577349 " />
								<TextureCoordinate point="0.0160 0.8008 0.2262 0.8008 0.2262 0.9804 0.0160 0.9804 0.0160 0.8008 0.2262 0.8008 0.2262 0.9804 0.0160 0.9804 0.0160 0.8008 0.2262 0.8008 0.2262 0.9804 0.0160 0.9804 0.0160 0.8008 0.2262 0.8008 0.2262 0.9804 0.0160 0.9804 0.2262 0.8008 0.2262 0.9804 0.0160 0.8008 0.0160 0.9804 " />
							</IndexedTriangleSet>
						</Shape>
					</Group>
				</Transform>
				<Transform DEF="Cube_007_TRANSFORM"
				           translation="0.000000 1.042021 0.000000"
				           scale="1.000000 1.000000 1.000000"
				           rotation="0.000000 1.000000 0.000000 0.000000"
				           >
					<Transform DEF="Cube_007_ifs_TRANSFORM"
					           translation="0.000000 0.000000 0.000000"
					           scale="1.000000 1.000000 1.000000"
					           rotation="0.000000 1.000000 0.000000 0.000000"
					           >
						<Group DEF="group_ME_Cube_009">
							<Shape>
								<Appearance>
									<Material USE="MA_Body" />
								</Appearance>
								<IndexedTriangleSet solid="false"
								                    normalPerVertex="true"
								                    index="0 1 2 0 2 3 4 5 6 4 6 7 8 9 10 8 10 11 12 13 14 12 14 15 4 16 17 4 17 15 18 5 14 18 14 19 "
								                    >
									<Coordinate point="-0.074671 0.000000 -0.072872 -0.074671 0.000000 0.072872 -0.074671 0.891399 0.072872 -0.074671 0.891399 -0.072872 -0.074671 0.891399 -0.072872 -0.074671 0.891399 0.072872 0.074671 0.891399 0.072872 0.074671 0.891399 -0.072872 0.074671 0.891399 -0.072872 0.074671 0.891399 0.072872 0.074671 0.000000 0.072872 0.074671 0.000000 -0.072872 0.074671 0.000000 -0.072872 0.074671 0.000000 0.072872 -0.074671 0.000000 0.072872 -0.074671 0.000000 -0.072872 0.074671 0.891399 -0.072872 0.074671 0.000000 -0.072872 0.074671 0.891399 0.072872 0.074671 0.000000 0.072872 " />
									<Normal vector="-0.577349 -0.577349 -0.577349 -0.577349 -0.577349 0.577349 -0.577349 0.577349 0.577349 -0.577349 0.577349 -0.577349 -0.577349 0.577349 -0.577349 -0.577349 0.577349 0.577349 0.577349 0.577349 0.577349 0.577349 0.577349 -0.577349 0.577349 0.577349 -0.577349 0.577349 0.577349 0.577349 0.577349 -0.577349 0.577349 0.577349 -0.577349 -0.577349 0.577349 -0.577349 -0.577349 0.577349 -0.577349 0.577349 -0.577349 -0.577349 0.577349 -0.577349 -0.577349 -0.577349 0.577349 0.577349 -0.577349 0.577349 -0.577349 -0.577349 0.577349 0.577349 0.577349 0.577349 -0.577349 0.577349 " />
									<TextureCoordinate point="0.0160 0.8008 0.2262 0.8008 0.2262 0.9804 0.0160 0.9804 0.0160 0.8008 0.2262 0.8008 0.2262 0.9804 0.0160 0.9804 0.0160 0.8008 0.2262 0.8008 0.2262 0.9804 0.0160 0.9804 0.0160 0.8008 0.2262 0.8008 0.2262 0.9804 0.0160 0.9804 0.2262 0.8008 0.2262 0.9804 0.0160 0.8008 0.0160 0.9804 " />
								</IndexedTriangleSet>
							</Shape>
						</Group>
					</Transform>
					<Transform DEF="Cube_008_TRANSFORM"
					           translation="0.000000 0.853878 0.000000"
					           scale="1.000000 1.000000 1.000000"
					           rotation="0.000000 1.000000 0.000000 0.000000"
					           >
						<Transform DEF="Cube_008_ifs_TRANSFORM"
						           translation="0.000000 0.000000 0.000000"
						           scale="1.000000 1.000000 1.000000"
						           rotation="0.000000 1.000000 0.000000 0.000000"
						           >
							<Group DEF="group_ME_Cube_010">
								<Shape>
									<Appearance>
										<Material USE="MA_Body" />
									</Appearance>
									<IndexedTriangleSet solid="false"
									                    normalPerVertex="true"
									                    index="0 1 2 0 2 3 4 5 6 4 6 7 8 9 10 8 10 11 12 13 14 12 14 15 4 16 17 4 17 15 18 5 14 18 14 19 "
									                    >
										<Coordinate point="-0.049721 0.000000 -0.042669 -0.049721 0.000000 0.042669 -0.049721 1.306842 0.042669 -0.049721 1.306842 -0.042669 -0.049721 1.306842 -0.042669 -0.049721 1.306842 0.042669 0.049721 1.306842 0.042669 0.049721 1.306842 -0.042669 0.049721 1.306842 -0.042669 0.049721 1.306842 0.042669 0.049721 0.000000 0.042669 0.049721 0.000000 -0.042669 0.049721 0.000000 -0.042669 0.049721 0.000000 0.042669 -0.049721 0.000000 0.042669 -0.049721 0.000000 -0.042669 0.049721 1.306842 -0.042669 0.049721 0.000000 -0.042669 0.049721 1.306842 0.042669 0.049721 0.000000 0.042669 " />
										<Normal vector="-0.577349 -0.577349 -0.577349 -0.577349 -0.577349 0.577349 -0.577349 0.577349 0.577349 -0.577349 0.577349 -0.577349 -0.577349 0.577349 -0.577349 -0.577349 0.577349 0.577349 0.577349 0.577349 0.577349 0.577349 0.577349 -0.577349 0.577349 0.577349 -0.577349 0.577349 0.577349 0.577349 0.577349 -0.577349 0.577349 0.577349 -0.577349 -0.577349 0.577349 -0.577349 -0.577349 0.577349 -0.577349 0.577349 -0.577349 -0.577349 0.577349 -0.577349 -0.577349 -0.577349 0.577349 0.577349 -0.577349 0.577349 -0.577349 -0.577349 0.577349 0.577349 0.577349 0.577349 -0.577349 0.577349 " />
										<TextureCoordinate point="0.0160 0.8008 0.2262 0.8008 0.2262 0.9804 0.0160 0.9804 0.0160 0.8008 0.2262 0.8008 0.2262 0.9804 0.0160 0.9804 0.0160 0.8008 0.2262 0.8008 0.2262 0.9804 0.0160 0.9804 0.0160 0.8008 0.2262 0.8008 0.2262 0.9804 0.0160 0.9804 0.2262 0.8008 0.2262 0.9804 0.0160 0.8008 0.0160 0.9804 " />
									</IndexedTriangleSet>
								</Shape>
							</Group>
						</Transform>
					</Transform>
				</Transform>
				<Transform DEF="Cube_009_TRANSFORM"
				           translation="0.000000 0.108544 0.000000"
				           scale="1.000000 1.000000 1.000000"
				           rotation="0.000000 1.000000 0.000000 0.000000"
				           >
					<Transform DEF="Cube_009_ifs_TRANSFORM"
					           translation="0.000000 0.000000 0.000000"
					           scale="1.000000 1.000000 1.000000"
					           rotation="0.000000 1.000000 0.000000 0.000000"
					           >
						<Group DEF="group_ME_Cube_011">
							<Shape>
								<Appearance>
									<Material USE="MA_Body" />
								</Appearance>
								<IndexedTriangleSet solid="false"
								                    normalPerVertex="true"
								                    index="0 1 2 0 2 3 4 5 6 4 6 7 8 9 10 8 10 11 12 13 14 12 14 15 4 16 17 4 17 15 18 5 14 18 14 19 "
								                    >
									<Coordinate point="-0.760199 0.000000 -0.011322 -0.760199 0.000000 0.011322 -0.760199 3.535664 0.011322 -0.760199 3.535664 -0.011322 -0.760199 3.535664 -0.011322 -0.760199 3.535664 0.011322 0.760199 3.535664 0.011322 0.760199 3.535664 -0.011322 0.760199 3.535664 -0.011322 0.760199 3.535664 0.011322 0.760199 0.000000 0.011322 0.760199 0.000000 -0.011322 0.760199 0.000000 -0.011322 0.760199 0.000000 0.011322 -0.760199 0.000000 0.011322 -0.760199 0.000000 -0.011322 0.760199 3.535664 -0.011322 0.760199 0.000000 -0.011322 0.760199 3.535664 0.011322 0.760199 0.000000 0.011322 " />
									<Normal vector="-0.577349 -0.577349 -0.577349 -0.577349 -0.577349 0.577349 -0.577349 0.577349 0.577349 -0.577349 0.577349 -0.577349 -0.577349 0.577349 -0.577349 -0.577349 0.577349 0.577349 0.577349 0.577349 0.577349 0.577349 0.577349 -0.577349 0.577349 0.577349 -0.577349 0.577349 0.577349 0.577349 0.577349 -0.577349 0.577349 0.577349 -0.577349 -0.577349 0.577349 -0.577349 -0.577349 0.577349 -0.577349 0.577349 -0.577349 -0.577349 0.577349 -0.577349 -0.577349 -0.577349 0.577349 0.577349 -0.577349 0.577349 -0.577349 -0.577349 0.577349 0.577349 0.577349 0.577349 -0.577349 0.577349 " />
									<TextureCoordinate point="0.7778 0.8142 0.9566 0.8142 0.9566 0.9671 0.7778 0.9671 0.7778 0.8142 0.9566 0.8142 0.9566 0.9671 0.7778 0.9671 0.7778 0.8142 0.9566 0.8142 0.9566 0.9671 0.7778 0.9671 0.7778 0.8142 0.9566 0.8142 0.9566 0.9671 0.7778 0.9671 0.9566 0.8142 0.9566 0.9671 0.7778 0.8142 0.7778 0.9671 " />
								</IndexedTriangleSet>
							</Shape>
						</Group>
					</Transform>
				</Transform>
			</Transform>
			<Transform DEF="leg2_TRANSFORM"
			           translation="-0.760675 0.023115 0.140208"
			           scale="1.000000 1.000000 1.000000"
			           rotation="0.000000 1.000000 0.000000 0.000000"
			           >
				<Transform DEF="leg2_ifs_TRANSFORM"
				           translation="0.000000 0.000000 0.000000"
				           scale="1.000000 1.000000 1.000000"
				           rotation="0.000000 1.000000 0.000000 0.000000"
				           >
					<Group DEF="group_ME_leg2">
						<Shape>
							<Appearance>
								<Material USE="MA_Body" />
							</Appearance>
							<IndexedTriangleSet solid="false"
							                    normalPerVertex="true"
							                    index="0 1 2 0 2 3 4 5 6 4 6 7 8 9 10 8 10 11 12 13 14 12 14 15 4 13 16 4 16 17 18 19 14 18 14 7 "
							                    >
								<Coordinate point="0.143299 -0.112033 -0.363624 0.143299 0.173474 -0.338646 0.143299 0.142754 0.012489 0.143299 -0.142754 -0.012489 0.143299 0.173474 -0.338646 -0.143299 0.173474 -0.338646 -0.143299 0.142754 0.012489 0.143299 0.142754 0.012489 -0.143299 0.173474 -0.338646 -0.143299 -0.112033 -0.363624 -0.143299 -0.142754 -0.012489 -0.143299 0.142754 0.012489 -0.143299 -0.112033 -0.363624 0.143299 -0.112033 -0.363624 0.143299 -0.142754 -0.012489 -0.143299 -0.142754 -0.012489 -0.143299 -0.112033 -0.363624 -0.143299 0.173474 -0.338646 -0.143299 0.142754 0.012489 -0.143299 -0.142754 -0.012489 " />
								<Normal vector="0.577349 -0.524827 -0.625446 0.577349 0.625446 -0.524827 0.577349 0.524827 0.625446 0.577349 -0.625446 0.524827 0.577349 0.625446 -0.524827 -0.577349 0.625446 -0.524827 -0.577349 0.524827 0.625446 0.577349 0.524827 0.625446 -0.577349 0.625446 -0.524827 -0.577349 -0.524827 -0.625446 -0.577349 -0.625446 0.524827 -0.577349 0.524827 0.625446 -0.577349 -0.524827 -0.625446 0.577349 -0.524827 -0.625446 0.577349 -0.625446 0.524827 -0.577349 -0.625446 0.524827 -0.577349 -0.524827 -0.625446 -0.577349 0.625446 -0.524827 -0.577349 0.524827 0.625446 -0.577349 -0.625446 0.524827 " />
								<TextureCoordinate point="0.0160 0.8008 0.0160 0.9804 0.2262 0.9804 0.2262 0.8008 0.0160 0.8008 0.0160 0.9804 0.2262 0.9804 0.2262 0.8008 0.0160 0.8008 0.0160 0.9804 0.2262 0.9804 0.2262 0.8008 0.0160 0.8008 0.0160 0.9804 0.2262 0.9804 0.2262 0.8008 0.2262 0.9804 0.2262 0.8008 0.0160 0.8008 0.0160 0.9804 " />
							</IndexedTriangleSet>
						</Shape>
					</Group>
				</Transform>
				<Transform DEF="foot2_TRANSFORM"
				           translation="-0.001536 0.048550 -0.291271"
				           scale="1.000000 1.000000 1.000000"
				           rotation="0.000000 1.000000 0.000000 0.000000"
				           >
					<Transform DEF="foot2_ifs_TRANSFORM"
					           translation="0.000000 0.000000 0.000000"
					           scale="1.000000 1.000000 1.000000"
					           rotation="0.000000 1.000000 0.000000 0.000000"
					           >
						<Group DEF="group_ME_foot2">
							<Shape>
								<Appearance>
									<Material USE="MA_Body" />
								</Appearance>
								<IndexedTriangleSet solid="false"
								                    normalPerVertex="true"
								                    index="0 1 2 0 2 3 4 5 6 4 6 7 8 9 10 8 10 11 12 13 14 12 14 15 4 13 16 4 16 17 18 19 14 18 14 7 "
								                    >
									<Coordinate point="0.357438 -1.240848 -0.330216 0.357438 0.206724 -0.314988 0.357438 0.203388 0.002140 0.357438 -1.244184 -0.013088 0.357438 0.206724 -0.314988 -0.357438 0.206724 -0.314988 -0.357438 0.203388 0.002140 0.357438 0.203388 0.002140 -0.357438 0.206724 -0.314988 -0.357438 -1.240848 -0.330216 -0.357438 -1.244184 -0.013088 -0.357438 0.203388 0.002140 -0.357438 -1.240848 -0.330216 0.357438 -1.240848 -0.330216 0.357438 -1.244184 -0.013088 -0.357438 -1.244184 -0.013088 -0.357438 -1.240848 -0.330216 -0.357438 0.206724 -0.314988 -0.357438 0.203388 0.002140 -0.357438 -1.244184 -0.013088 " />
									<Normal vector="0.577349 -0.571215 -0.583361 0.577349 0.583361 -0.571215 0.577349 0.571215 0.583361 0.577349 -0.583361 0.571215 0.577349 0.583361 -0.571215 -0.577349 0.583361 -0.571215 -0.577349 0.571215 0.583361 0.577349 0.571215 0.583361 -0.577349 0.583361 -0.571215 -0.577349 -0.571215 -0.583361 -0.577349 -0.583361 0.571215 -0.577349 0.571215 0.583361 -0.577349 -0.571215 -0.583361 0.577349 -0.571215 -0.583361 0.577349 -0.583361 0.571215 -0.577349 -0.583361 0.571215 -0.577349 -0.571215 -0.583361 -0.577349 0.583361 -0.571215 -0.577349 0.571215 0.583361 -0.577349 -0.583361 0.571215 " />
									<TextureCoordinate point="0.0160 0.8008 0.0160 0.9804 0.2262 0.9804 0.2262 0.8008 0.0160 0.8008 0.0160 0.9804 0.2262 0.9804 0.2262 0.8008 0.0160 0.8008 0.0160 0.9804 0.2262 0.9804 0.2262 0.8008 0.0160 0.8008 0.0160 0.9804 0.2262 0.9804 0.2262 0.8008 0.2262 0.9804 0.2262 0.8008 0.0160 0.8008 0.0160 0.9804 " />
								</IndexedTriangleSet>
							</Shape>
						</Group>
					</Transform>
				</Transform>
			</Transform>
		</Transform>
	</Scene>
</X3D>