<?xml version="1.0" encoding="UTF-8"?>
<!DOCTYPE X3D PUBLIC "ISO//Web3D//DTD X3D 3.0//EN" "http://www.web3d.org/specifications/x3d-3.0.dtd">
<X3D version="3.0" profile="Immersive" xmlns:xsd="http://www.w3.org/2001/XMLSchema-instance" xsd:noNamespaceSchemaLocation="http://www.web3d.org/specifications/x3d-3.0.xsd">
	<head>
		<meta name="filename" content="poltchageist.x3d" />
		<meta name="generator" content="Blender 2.93.18" />
	</head>
	<Scene>
		<NavigationInfo headlight="true"
		                visibilityLimit="0.0"
		                type='"EXAMINE", "ANY"'
		                avatarSize="0.25, 1.75, 0.75"
		                />
		<Background DEF="WO_World"
		            groundColor="0.051 0.051 0.051"
		            skyColor="0.051 0.051 0.051"
		            />
		<Transform DEF="body_TRANSFORM"
		           translation="0.000000 0.000000 0.001536"
		           scale="1.000000 1.000000 1.000000"
		           rotation="0.000000 0.000000 1.000000 3.141593"
		           >
			<Transform DEF="body_ifs_TRANSFORM"
			           translation="0.000000 0.000000 0.000000"
			           scale="1.000000 1.000000 1.000000"
			           rotation="0.000000 1.000000 0.000000 0.000000"
			           >
				<Group DEF="group_ME_body">
					<Shape>
						<Appearance>
							<Material DEF="MA_Body"
							          diffuseColor="0.800 0.800 0.800"
							          specularColor="0.401 0.401 0.401"
							          emissiveColor="0.000 0.000 0.000"
							          ambientIntensity="0.000"
							          shininess="0.500"
							          transparency="0.0"
							          />
						</Appearance>
						<IndexedTriangleSet solid="false"
						                    normalPerVertex="true"
						                    index="0 1 2 0 2 3 4 5 6 4 6 7 8 9 10 8 10 11 12 13 14 12 14 15 4 7 16 4 16 17 18 5 14 18 14 19 20 21 22 20 22 23 0 3 24 0 24 25 8 11 26 8 26 27 12 15 28 12 28 29 "
						                    >
							<Coordinate point="-0.492956 -0.488561 0.000000 -0.492956 -0.488561 0.200241 -0.492956 0.488561 0.200241 -0.492956 0.488561 0.000000 -0.492956 0.488561 0.000000 -0.492956 0.488561 0.200241 0.492956 0.488561 0.200241 0.492956 0.488561 0.000000 0.492956 0.488561 0.000000 0.492956 0.488561 0.200241 0.492956 -0.488561 0.200241 0.492956 -0.488561 0.000000 0.492956 -0.488561 0.000000 0.492956 -0.488561 0.200241 -0.492956 -0.488561 0.200241 -0.492956 -0.488561 0.000000 0.297129 0.294480 0.000000 -0.297129 0.294480 0.000000 0.492956 0.488561 0.200241 0.492956 -0.488561 0.200241 -0.297129 0.294480 0.000000 0.297129 0.294480 0.000000 0.297129 -0.294480 0.000000 -0.297129 -0.294480 0.000000 -0.297129 0.294480 0.000000 -0.297129 -0.294480 0.000000 0.297129 -0.294480 0.000000 0.297129 0.294480 0.000000 -0.297129 -0.294480 0.000000 0.297129 -0.294480 0.000000 " />
							<Normal vector="-0.577349 -0.577349 -0.577349 -0.577349 -0.577349 0.577349 -0.577349 0.577349 0.577349 -0.577349 0.577349 -0.577349 -0.577349 0.577349 -0.577349 -0.577349 0.577349 0.577349 0.577349 0.577349 0.577349 0.577349 0.577349 -0.577349 0.577349 0.577349 -0.577349 0.577349 0.577349 0.577349 0.577349 -0.577349 0.577349 0.577349 -0.577349 -0.577349 0.577349 -0.577349 -0.577349 0.577349 -0.577349 0.577349 -0.577349 -0.577349 0.577349 -0.577349 -0.577349 -0.577349 0.000000 0.000000 -1.000000 0.000000 0.000000 -1.000000 0.577349 0.577349 0.577349 0.577349 -0.577349 0.577349 0.000000 0.000000 -1.000000 0.000000 0.000000 -1.000000 0.000000 0.000000 -1.000000 0.000000 0.000000 -1.000000 0.000000 0.000000 -1.000000 0.000000 0.000000 -1.000000 0.000000 0.000000 -1.000000 0.000000 0.000000 -1.000000 0.000000 0.000000 -1.000000 0.000000 0.000000 -1.000000 " />
							<TextureCoordinate point="0.0313 0.3630 0.1388 0.3630 0.1388 0.5936 0.0313 0.5936 0.0313 0.3630 0.1388 0.3630 0.1388 0.5936 0.0313 0.5936 0.0313 0.3630 0.1388 0.3630 0.1388 0.5936 0.0313 0.5936 0.0313 0.3630 0.1388 0.3630 0.1388 0.5936 0.0313 0.5936 0.0313 0.5936 0.0313 0.3630 0.0313 0.3630 0.0313 0.5936 0.0241 0.7350 0.1316 0.7350 0.1316 0.9657 0.0241 0.9657 0.0313 0.5936 0.0313 0.3630 0.0313 0.5936 0.0313 0.3630 0.0313 0.5936 0.0313 0.3630 " />
						</IndexedTriangleSet>
					</Shape>
				</Group>
			</Transform>
			<Transform DEF="Cube_002_TRANSFORM"
			           translation="0.000000 0.000000 1.734643"
			           scale="1.000000 1.000000 1.000000"
			           rotation="0.000000 1.000000 0.000000 0.000000"
			           >
				<Transform DEF="Cube_002_ifs_TRANSFORM"
				           translation="0.000000 0.000000 0.000000"
				           scale="1.000000 1.000000 1.000000"
				           rotation="0.000000 1.000000 0.000000 0.000000"
				           >
					<Group DEF="group_ME_Cube_002">
						<Shape>
							<Appearance>
								<Material USE="MA_Body" />
							</Appearance>
							<IndexedTriangleSet solid="false"
							                    normalPerVertex="true"
							                    index="0 1 2 0 2 3 4 5 6 4 6 7 8 9 10 8 10 11 12 13 14 12 14 15 4 16 17 4 17 15 18 5 14 18 14 19 "
							                    >
								<Coordinate point="-0.492956 -0.488561 0.000000 -0.492956 -0.488561 0.126808 -0.492956 0.488561 0.126808 -0.492956 0.488561 0.000000 -0.492956 0.488561 0.000000 -0.492956 0.488561 0.126808 0.492956 0.488561 0.126808 0.492956 0.488561 0.000000 0.492956 0.488561 0.000000 0.492956 0.488561 0.126808 0.492956 -0.488561 0.126808 0.492956 -0.488561 0.000000 0.492956 -0.488561 0.000000 0.492956 -0.488561 0.126808 -0.492956 -0.488561 0.126808 -0.492956 -0.488561 0.000000 0.492956 0.488561 0.000000 0.492956 -0.488561 0.000000 0.492956 0.488561 0.126808 0.492956 -0.488561 0.126808 " />
								<Normal vector="-0.577349 -0.577349 -0.577349 -0.577349 -0.577349 0.577349 -0.577349 0.577349 0.577349 -0.577349 0.577349 -0.577349 -0.577349 0.577349 -0.577349 -0.577349 0.577349 0.577349 0.577349 0.577349 0.577349 0.577349 0.577349 -0.577349 0.577349 0.577349 -0.577349 0.577349 0.577349 0.577349 0.577349 -0.577349 0.577349 0.577349 -0.577349 -0.577349 0.577349 -0.577349 -0.577349 0.577349 -0.577349 0.577349 -0.577349 -0.577349 0.577349 -0.577349 -0.577349 -0.577349 0.577349 0.577349 -0.577349 0.577349 -0.577349 -0.577349 0.577349 0.577349 0.577349 0.577349 -0.577349 0.577349 " />
								<TextureCoordinate point="0.2335 0.3527 0.2646 0.3527 0.2646 0.4076 0.2335 0.4076 0.2335 0.3527 0.2646 0.3527 0.2646 0.4076 0.2335 0.4076 0.2335 0.3527 0.2646 0.3527 0.2646 0.4076 0.2335 0.4076 0.2335 0.3527 0.2646 0.3527 0.2646 0.4076 0.2335 0.4076 0.2646 0.3527 0.2646 0.4076 0.2335 0.3527 0.2335 0.4076 " />
							</IndexedTriangleSet>
						</Shape>
					</Group>
				</Transform>
			</Transform>
			<Transform DEF="Cube_003_TRANSFORM"
			           translation="0.000000 0.000000 1.847449"
			           scale="1.000000 1.000000 1.000000"
			           rotation="0.000000 1.000000 0.000000 0.000000"
			           >
				<Transform DEF="Cube_003_ifs_TRANSFORM"
				           translation="0.000000 0.000000 0.000000"
				           scale="1.000000 1.000000 1.000000"
				           rotation="0.000000 1.000000 0.000000 0.000000"
				           >
					<Group DEF="group_ME_Cube_003">
						<Shape>
							<Appearance>
								<Material USE="MA_Body" />
							</Appearance>
							<IndexedTriangleSet solid="false"
							                    normalPerVertex="true"
							                    index="0 1 2 0 2 3 4 5 6 4 6 7 8 9 10 8 10 11 12 13 14 12 14 15 4 16 17 4 17 15 18 5 14 18 14 19 "
							                    >
								<Coordinate point="-0.395732 -0.395545 0.000000 -0.395732 -0.395545 0.098372 -0.395732 0.395545 0.098372 -0.395732 0.395545 0.000000 -0.395732 0.395545 0.000000 -0.395732 0.395545 0.098372 0.395732 0.395545 0.098372 0.395732 0.395545 0.000000 0.395732 0.395545 0.000000 0.395732 0.395545 0.098372 0.395732 -0.395545 0.098372 0.395732 -0.395545 0.000000 0.395732 -0.395545 0.000000 0.395732 -0.395545 0.098372 -0.395732 -0.395545 0.098372 -0.395732 -0.395545 0.000000 0.395732 0.395545 0.000000 0.395732 -0.395545 0.000000 0.395732 0.395545 0.098372 0.395732 -0.395545 0.098372 " />
								<Normal vector="-0.577349 -0.577349 -0.577349 -0.577349 -0.577349 0.577349 -0.577349 0.577349 0.577349 -0.577349 0.577349 -0.577349 -0.577349 0.577349 -0.577349 -0.577349 0.577349 0.577349 0.577349 0.577349 0.577349 0.577349 0.577349 -0.577349 0.577349 0.577349 -0.577349 0.577349 0.577349 0.577349 0.577349 -0.577349 0.577349 0.577349 -0.577349 -0.577349 0.577349 -0.577349 -0.577349 0.577349 -0.577349 0.577349 -0.577349 -0.577349 0.577349 -0.577349 -0.577349 -0.577349 0.577349 0.577349 -0.577349 0.577349 -0.577349 -0.577349 0.577349 0.577349 0.577349 0.577349 -0.577349 0.577349 " />
								<TextureCoordinate point="0.2114 0.5007 0.2867 0.5007 0.2867 0.6336 0.2114 0.6336 0.2114 0.5007 0.2867 0.5007 0.2867 0.6336 0.2114 0.6336 0.2114 0.5007 0.2867 0.5007 0.2867 0.6336 0.2114 0.6336 0.2114 0.5007 0.2867 0.5007 0.2867 0.6336 0.2114 0.6336 0.2867 0.5007 0.2867 0.6336 0.2114 0.5007 0.2114 0.6336 " />
							</IndexedTriangleSet>
						</Shape>
					</Group>
				</Transform>
			</Transform>
			<Transform DEF="top_TRANSFORM"
			           translation="0.000000 0.000000 2.855374"
			           scale="1.000000 1.000000 1.000000"
			           rotation="0.000000 1.000000 0.000000 0.000000"
			           >
				<Transform DEF="top_ifs_TRANSFORM"
				           translation="0.000000 0.000000 0.000000"
				           scale="1.000000 1.000000 1.000000"
				           rotation="0.000000 1.000000 0.000000 0.000000"
				           >
					<Group DEF="group_ME_top">
						<Shape>
							<Appearance>
								<Material USE="MA_Body" />
							</Appearance>
							<IndexedTriangleSet solid="false"
							                    normalPerVertex="true"
							                    index="0 1 2 0 2 3 4 5 6 4 6 7 8 9 10 8 10 11 12 13 14 12 14 15 4 16 17 4 17 15 18 5 14 18 14 19 "
							                    >
								<Coordinate point="-0.441716 -0.441508 0.000000 -0.441716 -0.441508 0.128329 -0.441716 0.441508 0.128329 -0.441716 0.441508 0.000000 -0.441716 0.441508 0.000000 -0.441716 0.441508 0.128329 0.441716 0.441508 0.128329 0.441716 0.441508 0.000000 0.441716 0.441508 0.000000 0.441716 0.441508 0.128329 0.441716 -0.441508 0.128329 0.441716 -0.441508 0.000000 0.441716 -0.441508 0.000000 0.441716 -0.441508 0.128329 -0.441716 -0.441508 0.128329 -0.441716 -0.441508 0.000000 0.441716 0.441508 0.000000 0.441716 -0.441508 0.000000 0.441716 0.441508 0.128329 0.441716 -0.441508 0.128329 " />
								<Normal vector="-0.577349 -0.577349 -0.577349 -0.577349 -0.577349 0.577349 -0.577349 0.577349 0.577349 -0.577349 0.577349 -0.577349 -0.577349 0.577349 -0.577349 -0.577349 0.577349 0.577349 0.577349 0.577349 0.577349 0.577349 0.577349 -0.577349 0.577349 0.577349 -0.577349 0.577349 0.577349 0.577349 0.577349 -0.577349 0.577349 0.577349 -0.577349 -0.577349 0.577349 -0.577349 -0.577349 0.577349 -0.577349 0.577349 -0.577349 -0.577349 0.577349 -0.577349 -0.577349 -0.577349 0.577349 0.577349 -0.577349 0.577349 -0.577349 -0.577349 0.577349 0.577349 0.577349 0.577349 -0.577349 0.577349 " />
								<TextureCoordinate point="0.0225 0.3780 0.1404 0.3780 0.1404 0.6034 0.0225 0.6034 0.0225 0.3780 0.1404 0.3780 0.1404 0.6034 0.0225 0.6034 0.0225 0.3780 0.1404 0.3780 0.1404 0.6034 0.0225 0.6034 0.0225 0.3780 0.1404 0.3780 0.1404 0.6034 0.0225 0.6034 0.1404 0.3780 0.1404 0.6034 0.0225 0.3780 0.0225 0.6034 " />
							</IndexedTriangleSet>
						</Shape>
					</Group>
				</Transform>
				<Transform DEF="Cube_005_TRANSFORM"
				           translation="0.000000 0.000000 0.125947"
				           scale="1.000000 1.000000 1.000000"
				           rotation="0.000000 1.000000 0.000000 0.000000"
				           >
					<Transform DEF="Cube_005_ifs_TRANSFORM"
					           translation="0.000000 0.000000 0.000000"
					           scale="1.000000 1.000000 1.000000"
					           rotation="0.000000 1.000000 0.000000 0.000000"
					           >
						<Group DEF="group_ME_Cube_005">
							<Shape>
								<Appearance>
									<Material USE="MA_Body" />
								</Appearance>
								<IndexedTriangleSet solid="false"
								                    normalPerVertex="true"
								                    index="0 1 2 0 2 3 4 5 6 4 6 7 8 9 10 8 10 11 12 13 14 12 14 15 4 16 17 4 17 15 18 5 14 18 14 19 "
								                    >
									<Coordinate point="-0.106864 -0.106814 0.000000 -0.106864 -0.106814 0.085602 -0.106864 0.106814 0.085602 -0.106864 0.106814 0.000000 -0.106864 0.106814 0.000000 -0.106864 0.106814 0.085602 0.106864 0.106814 0.085602 0.106864 0.106814 0.000000 0.106864 0.106814 0.000000 0.106864 0.106814 0.085602 0.106864 -0.106814 0.085602 0.106864 -0.106814 0.000000 0.106864 -0.106814 0.000000 0.106864 -0.106814 0.085602 -0.106864 -0.106814 0.085602 -0.106864 -0.106814 0.000000 0.106864 0.106814 0.000000 0.106864 -0.106814 0.000000 0.106864 0.106814 0.085602 0.106864 -0.106814 0.085602 " />
									<Normal vector="-0.577349 -0.577349 -0.577349 -0.577349 -0.577349 0.577349 -0.577349 0.577349 0.577349 -0.577349 0.577349 -0.577349 -0.577349 0.577349 -0.577349 -0.577349 0.577349 0.577349 0.577349 0.577349 0.577349 0.577349 0.577349 -0.577349 0.577349 0.577349 -0.577349 0.577349 0.577349 0.577349 0.577349 -0.577349 0.577349 0.577349 -0.577349 -0.577349 0.577349 -0.577349 -0.577349 0.577349 -0.577349 0.577349 -0.577349 -0.577349 0.577349 -0.577349 -0.577349 -0.577349 0.577349 0.577349 -0.577349 0.577349 -0.577349 -0.577349 0.577349 0.577349 0.577349 0.577349 -0.577349 0.577349 " />
									<TextureCoordinate point="0.0225 0.3780 0.1404 0.3780 0.1404 0.6034 0.0225 0.6034 0.0225 0.3780 0.1404 0.3780 0.1404 0.6034 0.0225 0.6034 0.0225 0.3780 0.1404 0.3780 0.1404 0.6034 0.0225 0.6034 0.0225 0.3780 0.1404 0.3780 0.1404 0.6034 0.0225 0.6034 0.1404 0.3780 0.1404 0.6034 0.0225 0.3780 0.0225 0.6034 " />
								</IndexedTriangleSet>
							</Shape>
						</Group>
					</Transform>
					<Transform DEF="Cube_006_TRANSFORM"
					           translation="0.000000 0.000000 0.072813"
					           scale="1.000000 1.000000 1.000000"
					           rotation="0.000000 1.000000 0.000000 0.000000"
					           >
						<Transform DEF="Cube_006_ifs_TRANSFORM"
						           translation="0.000000 0.000000 0.000000"
						           scale="1.000000 1.000000 1.000000"
						           rotation="0.000000 1.000000 0.000000 0.000000"
						           >
							<Group DEF="group_ME_Cube_006">
								<Shape>
									<Appearance>
										<Material USE="MA_Body" />
									</Appearance>
									<IndexedTriangleSet solid="false"
									                    normalPerVertex="true"
									                    index="0 1 2 0 2 3 4 5 6 4 6 7 8 9 10 8 10 11 12 13 14 12 14 15 4 16 17 4 17 15 18 5 14 18 14 19 "
									                    >
										<Coordinate point="-0.221412 -0.221308 0.000000 -0.221412 -0.221308 0.276375 -0.221412 0.221308 0.276375 -0.221412 0.221308 0.000000 -0.221412 0.221308 0.000000 -0.221412 0.221308 0.276375 0.221412 0.221308 0.276375 0.221412 0.221308 0.000000 0.221412 0.221308 0.000000 0.221412 0.221308 0.276375 0.221412 -0.221308 0.276375 0.221412 -0.221308 0.000000 0.221412 -0.221308 0.000000 0.221412 -0.221308 0.276375 -0.221412 -0.221308 0.276375 -0.221412 -0.221308 0.000000 0.221412 0.221308 0.000000 0.221412 -0.221308 0.000000 0.221412 0.221308 0.276375 0.221412 -0.221308 0.276375 " />
										<Normal vector="-0.577349 -0.577349 -0.577349 -0.577349 -0.577349 0.577349 -0.577349 0.577349 0.577349 -0.577349 0.577349 -0.577349 -0.577349 0.577349 -0.577349 -0.577349 0.577349 0.577349 0.577349 0.577349 0.577349 0.577349 0.577349 -0.577349 0.577349 0.577349 -0.577349 0.577349 0.577349 0.577349 0.577349 -0.577349 0.577349 0.577349 -0.577349 -0.577349 0.577349 -0.577349 -0.577349 0.577349 -0.577349 0.577349 -0.577349 -0.577349 0.577349 -0.577349 -0.577349 -0.577349 0.577349 0.577349 -0.577349 0.577349 -0.577349 -0.577349 0.577349 0.577349 0.577349 0.577349 -0.577349 0.577349 " />
										<TextureCoordinate point="0.0225 0.3780 0.1404 0.3780 0.1404 0.6034 0.0225 0.6034 0.0225 0.3780 0.1404 0.3780 0.1404 0.6034 0.0225 0.6034 0.0225 0.3780 0.1404 0.3780 0.1404 0.6034 0.0225 0.6034 0.0225 0.3780 0.1404 0.3780 0.1404 0.6034 0.0225 0.6034 0.1404 0.3780 0.1404 0.6034 0.0225 0.3780 0.0225 0.6034 " />
									</IndexedTriangleSet>
								</Shape>
							</Group>
						</Transform>
					</Transform>
				</Transform>
			</Transform>
			<Transform DEF="hand1_TRANSFORM"
			           translation="1.107670 0.000000 0.910170"
			           scale="1.000000 1.000000 1.000000"
			           rotation="0.000000 1.000000 0.000000 0.000000"
			           >
				<Transform DEF="hand1_ifs_TRANSFORM"
				           translation="0.000000 0.000000 0.000000"
				           scale="1.000000 1.000000 1.000000"
				           rotation="0.000000 1.000000 0.000000 0.000000"
				           >
					<Group DEF="group_ME_hand1">
						<Shape>
							<Appearance>
								<Material USE="MA_Body" />
							</Appearance>
							<IndexedTriangleSet solid="false"
							                    normalPerVertex="true"
							                    index="0 1 2 0 2 3 4 5 6 4 6 7 8 9 10 8 10 11 12 13 14 12 14 15 4 16 17 4 17 15 18 5 14 18 14 19 "
							                    >
								<Coordinate point="0.000000 -0.127424 -0.075472 0.000000 -0.127424 0.075472 0.000000 0.127424 0.075472 0.000000 0.127424 -0.075472 0.000000 0.127424 -0.075472 0.000000 0.127424 0.075472 0.237484 0.127424 0.075472 0.237484 0.127424 -0.075472 0.237484 0.127424 -0.075472 0.237484 0.127424 0.075472 0.237484 -0.127424 0.075472 0.237484 -0.127424 -0.075472 0.237484 -0.127424 -0.075472 0.237484 -0.127424 0.075472 0.000000 -0.127424 0.075472 0.000000 -0.127424 -0.075472 0.237484 0.127424 -0.075472 0.237484 -0.127424 -0.075472 0.237484 0.127424 0.075472 0.237484 -0.127424 0.075472 " />
								<Normal vector="-0.577349 -0.577349 -0.577349 -0.577349 -0.577349 0.577349 -0.577349 0.577349 0.577349 -0.577349 0.577349 -0.577349 -0.577349 0.577349 -0.577349 -0.577349 0.577349 0.577349 0.577349 0.577349 0.577349 0.577349 0.577349 -0.577349 0.577349 0.577349 -0.577349 0.577349 0.577349 0.577349 0.577349 -0.577349 0.577349 0.577349 -0.577349 -0.577349 0.577349 -0.577349 -0.577349 0.577349 -0.577349 0.577349 -0.577349 -0.577349 0.577349 -0.577349 -0.577349 -0.577349 0.577349 0.577349 -0.577349 0.577349 -0.577349 -0.577349 0.577349 0.577349 0.577349 0.577349 -0.577349 0.577349 " />
								<TextureCoordinate point="0.0441 0.7262 0.2924 0.7262 0.2924 0.9683 0.0441 0.9683 0.0441 0.7262 0.2924 0.7262 0.2924 0.9683 0.0441 0.9683 0.0441 0.7262 0.2924 0.7262 0.2924 0.9683 0.0441 0.9683 0.0441 0.7262 0.2924 0.7262 0.2924 0.9683 0.0441 0.9683 0.2924 0.7262 0.2924 0.9683 0.0441 0.7262 0.0441 0.9683 " />
							</IndexedTriangleSet>
						</Shape>
					</Group>
				</Transform>
				<Transform DEF="Cube_008_TRANSFORM"
				           translation="0.358396 0.000000 -0.018975"
				           scale="1.000000 1.000000 1.000000"
				           rotation="0.000000 1.000000 0.000000 0.000000"
				           >
					<Transform DEF="Cube_008_ifs_TRANSFORM"
					           translation="0.000000 0.000000 0.000000"
					           scale="1.000000 1.000000 1.000000"
					           rotation="0.000000 1.000000 0.000000 0.000000"
					           >
						<Group DEF="group_ME_Cube_008">
							<Shape>
								<Appearance>
									<Material USE="MA_Body" />
								</Appearance>
								<IndexedTriangleSet solid="false"
								                    normalPerVertex="true"
								                    index="0 1 2 0 2 3 4 5 6 4 6 7 8 9 10 8 10 11 12 13 14 12 14 15 4 16 17 4 17 15 18 5 14 18 14 19 "
								                    >
									<Coordinate point="-0.039570 -0.078099 0.047011 0.039570 -0.078099 -0.047011 0.039570 0.078099 -0.047011 -0.039570 0.078099 0.047011 -0.039570 0.078099 0.047011 0.039570 0.078099 -0.047011 -0.238524 0.078099 -0.281088 -0.317664 0.078099 -0.187066 -0.317664 0.078099 -0.187066 -0.238524 0.078099 -0.281088 -0.238524 -0.078099 -0.281088 -0.317664 -0.078099 -0.187066 -0.317664 -0.078099 -0.187066 -0.238524 -0.078099 -0.281088 0.039570 -0.078099 -0.047011 -0.039570 -0.078099 0.047011 -0.317664 0.078099 -0.187066 -0.317664 -0.078099 -0.187066 -0.238524 0.078099 -0.281088 -0.238524 -0.078099 -0.281088 " />
									<Normal vector="0.069887 -0.577349 0.813471 0.813471 -0.577349 -0.069887 0.813471 0.577349 -0.069887 0.069887 0.577349 0.813471 0.069887 0.577349 0.813471 0.813471 0.577349 -0.069887 -0.069887 0.577349 -0.813471 -0.813471 0.577349 0.069887 -0.813471 0.577349 0.069887 -0.069887 0.577349 -0.813471 -0.069887 -0.577349 -0.813471 -0.813471 -0.577349 0.069887 -0.813471 -0.577349 0.069887 -0.069887 -0.577349 -0.813471 0.813471 -0.577349 -0.069887 0.069887 -0.577349 0.813471 -0.813471 0.577349 0.069887 -0.813471 -0.577349 0.069887 -0.069887 0.577349 -0.813471 -0.069887 -0.577349 -0.813471 " />
									<TextureCoordinate point="0.0441 0.7262 0.2924 0.7262 0.2924 0.9683 0.0441 0.9683 0.0441 0.7262 0.2924 0.7262 0.2924 0.9683 0.0441 0.9683 0.0441 0.7262 0.2924 0.7262 0.2924 0.9683 0.0441 0.9683 0.0441 0.7262 0.2924 0.7262 0.2924 0.9683 0.0441 0.9683 0.2924 0.7262 0.2924 0.9683 0.0441 0.7262 0.0441 0.9683 " />
								</IndexedTriangleSet>
							</Shape>
						</Group>
					</Transform>
				</Transform>
				<Transform DEF="Cube_009_TRANSFORM"
				           translation="0.292666 -0.076520 -0.036981"
				           scale="1.000000 1.000000 1.000000"
				           rotation="0.000000 1.000000 0.000000 0.000000"
				           >
					<Transform DEF="Cube_009_ifs_TRANSFORM"
					           translation="0.000000 0.000000 0.000000"
					           scale="1.000000 1.000000 1.000000"
					           rotation="0.000000 1.000000 0.000000 0.000000"
					           >
						<Group DEF="group_ME_Cube_009">
							<Shape>
								<Appearance>
									<Material USE="MA_Body" />
								</Appearance>
								<IndexedTriangleSet solid="false"
								                    normalPerVertex="true"
								                    index="0 1 2 0 2 3 4 5 6 4 6 7 8 9 10 8 10 11 12 13 14 12 14 15 4 16 17 4 17 15 18 5 14 18 14 19 "
								                    >
									<Coordinate point="-0.010406 -0.056411 0.087195 0.087106 -0.056411 -0.011126 0.010406 0.056411 -0.087195 -0.087106 0.056411 0.011126 -0.087106 0.056411 0.011126 0.010406 0.056411 -0.087195 -0.203179 -0.231616 -0.299023 -0.300691 -0.231616 -0.200702 -0.300691 -0.231616 -0.200702 -0.203179 -0.231616 -0.299023 -0.126479 -0.344437 -0.222954 -0.223991 -0.344437 -0.124633 -0.223991 -0.344437 -0.124633 -0.126479 -0.344437 -0.222954 0.087106 -0.056411 -0.011126 -0.010406 -0.056411 0.087195 -0.300691 -0.231616 -0.200702 -0.223991 -0.344437 -0.124633 -0.203179 -0.231616 -0.299023 -0.126479 -0.344437 -0.222954 " />
									<Normal vector="0.173009 -0.017701 0.984741 0.986145 -0.017701 0.164892 0.419141 0.816279 -0.397443 -0.393963 0.816279 0.422407 -0.393963 0.816279 0.422407 0.419141 0.816279 -0.397443 -0.173009 0.017701 -0.984741 -0.986145 0.017701 -0.164892 -0.986145 0.017701 -0.164892 -0.173009 0.017701 -0.984741 0.393963 -0.816279 -0.422407 -0.419141 -0.816279 0.397443 -0.419141 -0.816279 0.397443 0.393963 -0.816279 -0.422407 0.986145 -0.017701 0.164892 0.173009 -0.017701 0.984741 -0.986145 0.017701 -0.164892 -0.419141 -0.816279 0.397443 -0.173009 0.017701 -0.984741 0.393963 -0.816279 -0.422407 " />
									<TextureCoordinate point="0.0441 0.7262 0.2924 0.7262 0.2924 0.9683 0.0441 0.9683 0.0441 0.7262 0.2924 0.7262 0.2924 0.9683 0.0441 0.9683 0.0441 0.7262 0.2924 0.7262 0.2924 0.9683 0.0441 0.9683 0.0441 0.7262 0.2924 0.7262 0.2924 0.9683 0.0441 0.9683 0.2924 0.7262 0.2924 0.9683 0.0441 0.7262 0.0441 0.9683 " />
								</IndexedTriangleSet>
							</Shape>
						</Group>
					</Transform>
				</Transform>
				<Transform DEF="Cube_010_TRANSFORM"
				           translation="0.292666 0.057574 -0.036981"
				           scale="1.000000 1.000000 1.000000"
				           rotation="0.000000 1.000000 0.000000 0.000000"
				           >
					<Transform DEF="Cube_010_ifs_TRANSFORM"
					           translation="0.000000 0.000000 0.000000"
					           scale="1.000000 1.000000 1.000000"
					           rotation="0.000000 1.000000 0.000000 0.000000"
					           >
						<Group DEF="group_ME_Cube_010">
							<Shape>
								<Appearance>
									<Material USE="MA_Body" />
								</Appearance>
								<IndexedTriangleSet solid="false"
								                    normalPerVertex="true"
								                    index="0 1 2 0 2 3 4 5 6 4 6 7 8 9 10 8 10 11 12 13 14 12 14 15 4 16 17 4 17 15 18 5 14 18 14 19 "
								                    >
									<Coordinate point="-0.088305 -0.055130 0.007499 0.012178 -0.055130 -0.087782 0.088305 0.055130 -0.007499 -0.012178 0.055130 0.087782 -0.012178 0.055130 0.087782 0.088305 0.055130 -0.007499 -0.118044 0.356049 -0.225114 -0.218527 0.356049 -0.129833 -0.218527 0.356049 -0.129833 -0.118044 0.356049 -0.225114 -0.194170 0.245789 -0.305398 -0.294654 0.245789 -0.210116 -0.294654 0.245789 -0.210116 -0.194170 0.245789 -0.305398 0.012178 -0.055130 -0.087782 -0.088305 -0.055130 0.007499 -0.218527 0.356049 -0.129833 -0.294654 0.245789 -0.210116 -0.118044 0.356049 -0.225114 -0.194170 0.245789 -0.305398 " />
									<Normal vector="-0.419904 -0.816492 0.396222 0.417982 -0.816492 -0.398267 0.980743 -0.001373 0.195196 0.142857 -0.001373 0.989715 0.142857 -0.001373 0.989715 0.980743 -0.001373 0.195196 0.419904 0.816492 -0.396222 -0.417982 0.816492 0.398267 -0.417982 0.816492 0.398267 0.419904 0.816492 -0.396222 -0.142857 0.001373 -0.989715 -0.980743 0.001373 -0.195196 -0.980743 0.001373 -0.195196 -0.142857 0.001373 -0.989715 0.417982 -0.816492 -0.398267 -0.419904 -0.816492 0.396222 -0.417982 0.816492 0.398267 -0.980743 0.001373 -0.195196 0.419904 0.816492 -0.396222 -0.142857 0.001373 -0.989715 " />
									<TextureCoordinate point="0.0441 0.7262 0.2924 0.7262 0.2924 0.9683 0.0441 0.9683 0.0441 0.7262 0.2924 0.7262 0.2924 0.9683 0.0441 0.9683 0.0441 0.7262 0.2924 0.7262 0.2924 0.9683 0.0441 0.9683 0.0441 0.7262 0.2924 0.7262 0.2924 0.9683 0.0441 0.9683 0.2924 0.7262 0.2924 0.9683 0.0441 0.7262 0.0441 0.9683 " />
								</IndexedTriangleSet>
							</Shape>
						</Group>
					</Transform>
				</Transform>
				<Transform DEF="Cube_011_TRANSFORM"
				           translation="0.012175 -0.043580 0.034398"
				           scale="1.000000 1.000000 1.000000"
				           rotation="0.000000 1.000000 0.000000 0.000000"
				           >
					<Transform DEF="Cube_011_ifs_TRANSFORM"
					           translation="0.000000 0.000000 0.000000"
					           scale="1.000000 1.000000 1.000000"
					           rotation="0.000000 1.000000 0.000000 0.000000"
					           >
						<Group DEF="group_ME_Cube_011">
							<Shape>
								<Appearance>
									<Material USE="MA_Body" />
								</Appearance>
								<IndexedTriangleSet solid="false"
								                    normalPerVertex="true"
								                    index="0 1 2 0 2 3 4 5 6 4 6 7 8 9 10 8 10 11 12 13 14 12 14 15 4 16 17 4 17 15 18 5 14 18 14 19 "
								                    >
									<Coordinate point="0.000035 0.039417 -0.033316 -0.005268 0.039417 0.032897 -0.000035 -0.039417 0.033316 0.005268 -0.039417 -0.032897 0.005268 -0.039417 -0.032897 -0.000035 -0.039417 0.033316 -0.090269 -0.045446 0.026089 -0.084967 -0.045446 -0.040123 -0.084967 -0.045446 -0.040123 -0.090269 -0.045446 0.026089 -0.095503 0.033389 0.025670 -0.090200 0.033389 -0.040542 -0.090200 0.033389 -0.040542 -0.095503 0.033389 0.025670 -0.005268 0.039417 0.032897 0.000035 0.039417 -0.033316 -0.084967 -0.045446 -0.040123 -0.090200 0.033389 -0.040542 -0.090269 -0.045446 0.026089 -0.095503 0.033389 0.025670 " />
									<Normal vector="0.582080 0.614429 -0.532579 0.489883 0.614429 0.618427 0.566363 -0.537706 0.624531 0.658559 -0.537706 -0.526444 0.658559 -0.537706 -0.526444 0.566363 -0.537706 0.624531 -0.582080 -0.614429 0.532579 -0.489883 -0.614429 -0.618427 -0.489883 -0.614429 -0.618427 -0.582080 -0.614429 0.532579 -0.658559 0.537706 0.526444 -0.566363 0.537706 -0.624531 -0.566363 0.537706 -0.624531 -0.658559 0.537706 0.526444 0.489883 0.614429 0.618427 0.582080 0.614429 -0.532579 -0.489883 -0.614429 -0.618427 -0.566363 0.537706 -0.624531 -0.582080 -0.614429 0.532579 -0.658559 0.537706 0.526444 " />
									<TextureCoordinate point="0.0441 0.7262 0.2924 0.7262 0.2924 0.9683 0.0441 0.9683 0.0441 0.7262 0.2924 0.7262 0.2924 0.9683 0.0441 0.9683 0.0441 0.7262 0.2924 0.7262 0.2924 0.9683 0.0441 0.9683 0.0441 0.7262 0.2924 0.7262 0.2924 0.9683 0.0441 0.9683 0.2924 0.7262 0.2924 0.9683 0.0441 0.7262 0.0441 0.9683 " />
								</IndexedTriangleSet>
							</Shape>
						</Group>
					</Transform>
				</Transform>
				<Transform DEF="Cube_012_TRANSFORM"
				           translation="0.012175 0.060054 0.031777"
				           scale="1.000000 1.000000 1.000000"
				           rotation="0.000000 1.000000 0.000000 0.000000"
				           >
					<Transform DEF="Cube_012_ifs_TRANSFORM"
					           translation="0.000000 0.000000 0.000000"
					           scale="1.000000 1.000000 1.000000"
					           rotation="0.000000 1.000000 0.000000 0.000000"
					           >
						<Group DEF="group_ME_Cube_012">
							<Shape>
								<Appearance>
									<Material USE="MA_Body" />
								</Appearance>
								<IndexedTriangleSet solid="false"
								                    normalPerVertex="true"
								                    index="0 1 2 0 2 3 4 5 6 4 6 7 8 9 10 8 10 11 12 13 14 12 14 15 4 16 17 4 17 15 18 5 14 18 14 19 "
								                    >
									<Coordinate point="0.001051 0.052396 -0.037844 0.001051 0.052396 0.037844 -0.001051 -0.052396 0.037844 -0.001051 -0.052396 -0.037844 -0.001051 -0.052396 -0.037844 -0.001051 -0.052396 0.037844 -0.189916 -0.048608 0.037844 -0.189916 -0.048608 -0.037844 -0.189916 -0.048608 -0.037844 -0.189916 -0.048608 0.037844 -0.187814 0.056185 0.037844 -0.187814 0.056185 -0.037844 -0.187814 0.056185 -0.037844 -0.187814 0.056185 0.037844 0.001051 0.052396 0.037844 0.001051 0.052396 -0.037844 -0.189916 -0.048608 -0.037844 -0.187814 0.056185 -0.037844 -0.189916 -0.048608 0.037844 -0.187814 0.056185 0.037844 " />
									<Normal vector="0.588794 0.565630 -0.577349 0.588794 0.565630 0.577349 0.565630 -0.588794 0.577349 0.565630 -0.588794 -0.577349 0.565630 -0.588794 -0.577349 0.565630 -0.588794 0.577349 -0.588794 -0.565630 0.577349 -0.588794 -0.565630 -0.577349 -0.588794 -0.565630 -0.577349 -0.588794 -0.565630 0.577349 -0.565630 0.588794 0.577349 -0.565630 0.588794 -0.577349 -0.565630 0.588794 -0.577349 -0.565630 0.588794 0.577349 0.588794 0.565630 0.577349 0.588794 0.565630 -0.577349 -0.588794 -0.565630 -0.577349 -0.565630 0.588794 -0.577349 -0.588794 -0.565630 0.577349 -0.565630 0.588794 0.577349 " />
									<TextureCoordinate point="0.0441 0.7262 0.2924 0.7262 0.2924 0.9683 0.0441 0.9683 0.0441 0.7262 0.2924 0.7262 0.2924 0.9683 0.0441 0.9683 0.0441 0.7262 0.2924 0.7262 0.2924 0.9683 0.0441 0.9683 0.0441 0.7262 0.2924 0.7262 0.2924 0.9683 0.0441 0.9683 0.2924 0.7262 0.2924 0.9683 0.0441 0.7262 0.0441 0.9683 " />
								</IndexedTriangleSet>
							</Shape>
						</Group>
					</Transform>
				</Transform>
				<Transform DEF="stick_TRANSFORM"
				           translation="0.146927 0.753134 -0.063870"
				           scale="1.000000 1.000000 1.000000"
				           rotation="0.000000 1.000000 0.000000 0.000000"
				           >
					<Transform DEF="stick_ifs_TRANSFORM"
					           translation="0.000000 0.000000 0.000000"
					           scale="1.000000 1.000000 1.000000"
					           rotation="0.000000 1.000000 0.000000 0.000000"
					           >
						<Group DEF="group_ME_stick">
							<Shape>
								<Appearance>
									<Material USE="MA_Body" />
								</Appearance>
								<IndexedTriangleSet solid="false"
								                    normalPerVertex="true"
								                    index="0 1 2 0 2 3 4 5 6 4 6 7 8 9 10 8 10 11 12 13 14 12 14 15 4 16 17 4 17 15 18 5 14 18 14 19 "
								                    >
									<Coordinate point="0.067729 -1.540460 0.017867 0.067729 -1.540125 -0.036757 0.067729 0.000167 -0.027312 0.067729 -0.000167 0.027312 0.067729 -0.000167 0.027312 0.067729 0.000167 -0.027312 -0.067729 0.000167 -0.027312 -0.067729 -0.000167 0.027312 -0.067729 -0.000167 0.027312 -0.067729 0.000167 -0.027312 -0.067729 -1.540125 -0.036757 -0.067729 -1.540460 0.017867 -0.067729 -1.540460 0.017867 -0.067729 -1.540125 -0.036757 0.067729 -1.540125 -0.036757 0.067729 -1.540460 0.017867 -0.067729 -0.000167 0.027312 -0.067729 -1.540460 0.017867 -0.067729 0.000167 -0.027312 -0.067729 -1.540125 -0.036757 " />
									<Normal vector="0.577349 -0.580859 0.573779 0.577349 -0.573779 -0.580859 0.577349 0.580859 -0.573779 0.577349 0.573779 0.580859 0.577349 0.573779 0.580859 0.577349 0.580859 -0.573779 -0.577349 0.580859 -0.573779 -0.577349 0.573779 0.580859 -0.577349 0.573779 0.580859 -0.577349 0.580859 -0.573779 -0.577349 -0.573779 -0.580859 -0.577349 -0.580859 0.573779 -0.577349 -0.580859 0.573779 -0.577349 -0.573779 -0.580859 0.577349 -0.573779 -0.580859 0.577349 -0.580859 0.573779 -0.577349 0.573779 0.580859 -0.577349 -0.580859 0.573779 -0.577349 0.580859 -0.573779 -0.577349 -0.573779 -0.580859 " />
									<TextureCoordinate point="0.0214 0.0486 0.1322 0.0486 0.1322 0.2507 0.0214 0.2507 0.0214 0.0486 0.1322 0.0486 0.1322 0.2507 0.0214 0.2507 0.0214 0.0486 0.1322 0.0486 0.1322 0.2507 0.0214 0.2507 0.0214 0.0486 0.1322 0.0486 0.1322 0.2507 0.0214 0.2507 0.1322 0.0486 0.1322 0.2507 0.0214 0.0486 0.0214 0.2507 " />
								</IndexedTriangleSet>
							</Shape>
						</Group>
					</Transform>
					<Transform DEF="Cube_017_TRANSFORM"
					           translation="0.000000 -1.511493 -0.003134"
					           scale="1.000000 1.000000 1.000000"
					           rotation="0.000000 1.000000 0.000000 0.000000"
					           >
						<Transform DEF="Cube_017_ifs_TRANSFORM"
						           translation="0.000000 0.000000 0.000000"
						           scale="1.000000 1.000000 1.000000"
						           rotation="0.000000 1.000000 0.000000 0.000000"
						           >
							<Group DEF="group_ME_Cube_017">
								<Shape>
									<Appearance>
										<Material USE="MA_Body" />
									</Appearance>
									<IndexedTriangleSet solid="false"
									                    normalPerVertex="true"
									                    index="0 1 2 0 2 3 4 5 6 4 6 7 8 9 10 8 10 11 12 13 14 12 14 15 4 16 17 4 17 15 18 5 14 18 14 19 "
									                    >
										<Coordinate point="0.101878 -0.745348 0.081772 0.101878 -0.749548 0.020224 0.101878 -0.002100 -0.030774 0.101878 0.002100 0.030774 0.101878 0.002100 0.030774 0.101878 -0.002100 -0.030774 -0.101878 -0.002100 -0.030774 -0.101878 0.002100 0.030774 -0.101878 0.002100 0.030774 -0.101878 -0.002100 -0.030774 -0.101878 -0.749548 0.020224 -0.101878 -0.745348 0.081772 -0.101878 -0.745348 0.081772 -0.101878 -0.749548 0.020224 0.101878 -0.749548 0.020224 0.101878 -0.745348 0.081772 -0.101878 0.002100 0.030774 -0.101878 -0.745348 0.081772 -0.101878 -0.002100 -0.030774 -0.101878 -0.749548 0.020224 " />
										<Normal vector="0.577349 -0.536699 0.615284 0.577349 -0.615284 -0.536699 0.577349 0.536699 -0.615284 0.577349 0.615284 0.536699 0.577349 0.615284 0.536699 0.577349 0.536699 -0.615284 -0.577349 0.536699 -0.615284 -0.577349 0.615284 0.536699 -0.577349 0.615284 0.536699 -0.577349 0.536699 -0.615284 -0.577349 -0.615284 -0.536699 -0.577349 -0.536699 0.615284 -0.577349 -0.536699 0.615284 -0.577349 -0.615284 -0.536699 0.577349 -0.615284 -0.536699 0.577349 -0.536699 0.615284 -0.577349 0.615284 0.536699 -0.577349 -0.536699 0.615284 -0.577349 0.536699 -0.615284 -0.577349 -0.615284 -0.536699 " />
										<TextureCoordinate point="0.0214 0.0486 0.1322 0.0486 0.1322 0.2507 0.0214 0.2507 0.0214 0.0486 0.1322 0.0486 0.1322 0.2507 0.0214 0.2507 0.0214 0.0486 0.1322 0.0486 0.1322 0.2507 0.0214 0.2507 0.0214 0.0486 0.1322 0.0486 0.1322 0.2507 0.0214 0.2507 0.1322 0.0486 0.1322 0.2507 0.0214 0.0486 0.0214 0.2507 " />
									</IndexedTriangleSet>
								</Shape>
							</Group>
						</Transform>
						<Transform DEF="Cube_018_TRANSFORM"
						           translation="0.000000 -0.731947 0.049941"
						           scale="1.000000 1.000000 1.000000"
						           rotation="0.000000 1.000000 0.000000 0.000000"
						           >
							<Transform DEF="Cube_018_ifs_TRANSFORM"
							           translation="0.000000 0.000000 0.000000"
							           scale="1.000000 1.000000 1.000000"
							           rotation="0.000000 1.000000 0.000000 0.000000"
							           >
								<Group DEF="group_ME_Cube_018">
									<Shape>
										<Appearance>
											<Material USE="MA_Body" />
										</Appearance>
										<IndexedTriangleSet solid="false"
										                    normalPerVertex="true"
										                    index="0 1 2 0 2 3 4 5 6 4 6 7 8 9 10 8 10 11 12 13 14 12 14 15 4 16 17 4 17 15 18 5 14 18 14 19 "
										                    >
											<Coordinate point="0.100177 -0.446487 -0.173076 0.100177 -0.428359 -0.214043 0.100177 0.009064 -0.020484 0.100178 -0.009064 0.020483 0.100178 -0.009064 0.020483 0.100177 0.009064 -0.020484 -0.100178 0.009064 -0.020483 -0.100177 -0.009064 0.020484 -0.100177 -0.009064 0.020484 -0.100178 0.009064 -0.020483 -0.100178 -0.428359 -0.214043 -0.100178 -0.446487 -0.173076 -0.100178 -0.446487 -0.173076 -0.100178 -0.428359 -0.214043 0.100177 -0.428359 -0.214043 0.100177 -0.446487 -0.173076 -0.100177 -0.009064 0.020484 -0.100178 -0.446487 -0.173076 -0.100178 0.009064 -0.020483 -0.100178 -0.428359 -0.214043 " />
											<Normal vector="0.577349 -0.761589 0.294320 0.577349 -0.294320 -0.761589 0.577349 0.761589 -0.294320 0.577349 0.294320 0.761589 0.577349 0.294320 0.761589 0.577349 0.761589 -0.294320 -0.577349 0.761589 -0.294320 -0.577349 0.294320 0.761589 -0.577349 0.294320 0.761589 -0.577349 0.761589 -0.294320 -0.577349 -0.294320 -0.761589 -0.577349 -0.761589 0.294320 -0.577349 -0.761589 0.294320 -0.577349 -0.294320 -0.761589 0.577349 -0.294320 -0.761589 0.577349 -0.761589 0.294320 -0.577349 0.294320 0.761589 -0.577349 -0.761589 0.294320 -0.577349 0.761589 -0.294320 -0.577349 -0.294320 -0.761589 " />
											<TextureCoordinate point="0.0214 0.0486 0.1322 0.0486 0.1322 0.2507 0.0214 0.2507 0.0214 0.0486 0.1322 0.0486 0.1322 0.2507 0.0214 0.2507 0.0214 0.0486 0.1322 0.0486 0.1322 0.2507 0.0214 0.2507 0.0214 0.0486 0.1322 0.0486 0.1322 0.2507 0.0214 0.2507 0.1322 0.0486 0.1322 0.2507 0.0214 0.0486 0.0214 0.2507 " />
										</IndexedTriangleSet>
									</Shape>
								</Group>
							</Transform>
						</Transform>
					</Transform>
					<Transform DEF="Cube_019_TRANSFORM"
					           translation="0.000000 -1.279220 -0.027192"
					           scale="1.000000 1.000000 1.000000"
					           rotation="0.000000 1.000000 0.000000 0.000000"
					           >
						<Transform DEF="Cube_019_ifs_TRANSFORM"
						           translation="0.000000 0.000000 0.000000"
						           scale="1.000000 1.000000 1.000000"
						           rotation="0.000000 1.000000 0.000000 0.000000"
						           >
							<Group DEF="group_ME_Cube_019">
								<Shape>
									<Appearance>
										<Material USE="MA_Body" />
									</Appearance>
									<IndexedTriangleSet solid="false"
									                    normalPerVertex="true"
									                    index="0 1 2 0 2 3 4 5 6 4 6 7 8 9 10 8 10 11 12 13 14 12 14 15 4 16 17 4 17 15 18 5 14 18 14 19 "
									                    >
										<Coordinate point="0.061663 -0.192461 0.018545 0.061663 -0.188506 -0.043019 0.061663 0.001977 -0.030782 0.061663 -0.001977 0.030782 0.061663 -0.001977 0.030782 0.061663 0.001977 -0.030782 -0.061663 0.001977 -0.030782 -0.061663 -0.001977 0.030782 -0.061663 -0.001977 0.030782 -0.061663 0.001977 -0.030782 -0.061663 -0.188506 -0.043019 -0.061663 -0.192461 0.018545 -0.061663 -0.192461 0.018545 -0.061663 -0.188506 -0.043019 0.061663 -0.188506 -0.043019 0.061663 -0.192461 0.018545 -0.061663 -0.001977 0.030782 -0.061663 -0.192461 0.018545 -0.061663 0.001977 -0.030782 -0.061663 -0.188506 -0.043019 " />
										<Normal vector="0.577349 -0.613147 0.539140 0.577349 -0.539140 -0.613147 0.577349 0.613147 -0.539140 0.577349 0.539140 0.613147 0.577349 0.539140 0.613147 0.577349 0.613147 -0.539140 -0.577349 0.613147 -0.539140 -0.577349 0.539140 0.613147 -0.577349 0.539140 0.613147 -0.577349 0.613147 -0.539140 -0.577349 -0.539140 -0.613147 -0.577349 -0.613147 0.539140 -0.577349 -0.613147 0.539140 -0.577349 -0.539140 -0.613147 0.577349 -0.539140 -0.613147 0.577349 -0.613147 0.539140 -0.577349 0.539140 0.613147 -0.577349 -0.613147 0.539140 -0.577349 0.613147 -0.539140 -0.577349 -0.539140 -0.613147 " />
										<TextureCoordinate point="0.0214 0.0486 0.1322 0.0486 0.1322 0.2507 0.0214 0.2507 0.0214 0.0486 0.1322 0.0486 0.1322 0.2507 0.0214 0.2507 0.0214 0.0486 0.1322 0.0486 0.1322 0.2507 0.0214 0.2507 0.0214 0.0486 0.1322 0.0486 0.1322 0.2507 0.0214 0.2507 0.1322 0.0486 0.1322 0.2507 0.0214 0.0486 0.0214 0.2507 " />
									</IndexedTriangleSet>
								</Shape>
							</Group>
						</Transform>
					</Transform>
				</Transform>
			</Transform>
			<Transform DEF="Cube_013_TRANSFORM"
			           translation="0.000000 0.000000 0.173962"
			           scale="1.000000 1.000000 1.000000"
			           rotation="0.000000 1.000000 0.000000 0.000000"
			           >
				<Transform DEF="Cube_013_ifs_TRANSFORM"
				           translation="0.000000 0.000000 0.000000"
				           scale="1.000000 1.000000 1.000000"
				           rotation="0.000000 1.000000 0.000000 0.000000"
				           >
					<Group DEF="group_ME_Cube_013">
						<Shape>
							<Appearance>
								<Material DEF="MA_Mark"
								          diffuseColor="0.800 0.800 0.800"
								          specularColor="0.401 0.401 0.401"
								          emissiveColor="0.000 0.000 0.000"
								          ambientIntensity="0.000"
								          shininess="0.500"
								          transparency="0.0"
								          />
							</Appearance>
							<IndexedTriangleSet solid="false"
							                    normalPerVertex="true"
							                    index="0 1 2 0 2 3 4 5 6 4 6 7 3 2 8 3 8 9 9 8 5 9 5 4 10 11 12 10 12 13 14 15 11 14 11 10 15 3 9 15 9 11 13 12 16 13 16 17 12 4 7 12 7 16 18 19 15 18 15 14 19 0 3 19 3 15 16 7 20 16 20 21 17 16 21 17 21 22 23 24 25 23 25 26 27 28 24 27 24 23 29 30 31 29 31 32 7 6 33 7 33 20 34 35 36 34 36 37 38 39 40 38 40 41 35 42 43 35 43 36 42 38 41 42 41 43 44 45 46 44 46 47 48 49 50 48 50 51 52 44 47 52 47 53 53 47 42 53 42 35 45 54 55 45 55 46 46 55 39 46 39 38 56 52 53 56 53 57 57 53 35 57 35 34 55 58 59 55 59 39 54 60 58 54 58 55 61 62 25 61 25 24 63 61 24 63 24 28 64 65 31 64 31 30 39 59 66 39 66 40 "
							                    >
								<Coordinate point="0.000000 0.703512 1.146374 0.000000 0.703512 1.613055 0.776629 0.703512 1.613055 0.776629 0.703512 1.146374 0.776629 -0.183995 1.146374 0.776629 -0.183995 1.613055 0.776629 -0.703512 1.613055 0.776629 -0.703512 1.146374 0.776629 0.285013 1.613055 0.776629 0.285013 1.146374 0.776629 0.285013 0.000000 0.776629 0.285013 0.486712 0.776629 -0.183995 0.486712 0.776629 -0.183995 0.000000 0.776629 0.703512 0.000000 0.776629 0.703512 0.486712 0.776629 -0.703512 0.486712 0.776629 -0.703512 0.000000 0.000000 0.703512 0.000000 0.000000 0.703512 0.486712 0.000000 -0.703512 1.146374 0.000000 -0.703512 0.486712 0.000000 -0.703512 0.000000 0.776629 0.285013 1.613055 0.000000 0.285013 1.613055 0.000000 -0.183995 1.613055 0.776629 -0.183995 1.613055 0.776629 0.703512 1.613055 0.000000 0.703512 1.613055 0.776629 -0.183995 1.613055 0.000000 -0.183995 1.613055 0.000000 -0.703512 1.613055 0.776629 -0.703512 1.613055 0.000000 -0.703512 1.613055 0.000000 0.703512 1.146374 -0.776629 0.703512 1.146374 -0.776629 0.703512 1.613055 0.000000 0.703512 1.613055 -0.776629 -0.183995 1.146374 -0.776629 -0.703512 1.146374 -0.776629 -0.703512 1.613055 -0.776629 -0.183995 1.613055 -0.776629 0.285013 1.146374 -0.776629 0.285013 1.613055 -0.776629 0.285013 0.000000 -0.776629 -0.183995 0.000000 -0.776629 -0.183995 0.486712 -0.776629 0.285013 0.486712 -0.776629 0.285013 0.486712 -0.776629 -0.183995 0.486712 -0.776629 -0.183995 1.146374 -0.776629 0.285013 1.146374 -0.776629 0.703512 0.000000 -0.776629 0.703512 0.486712 -0.776629 -0.703512 0.000000 -0.776629 -0.703512 0.486712 0.000000 0.703512 0.000000 0.000000 0.703512 0.486712 0.000000 -0.703512 0.486712 0.000000 -0.703512 1.146374 0.000000 -0.703512 0.000000 -0.776629 0.285013 1.613055 -0.776629 -0.183995 1.613055 -0.776629 0.703512 1.613055 -0.776629 -0.183995 1.613055 -0.776629 -0.703512 1.613055 0.000000 -0.703512 1.613055 " />
								<Normal vector="0.000000 1.000000 0.000000 0.000000 0.707083 0.707083 0.577349 0.577349 0.577349 0.707083 0.707083 0.000000 1.000000 0.000000 0.000000 0.707083 0.000000 0.707083 0.577349 -0.577349 0.577349 0.707083 -0.707083 0.000000 0.707083 0.000000 0.707083 1.000000 0.000000 0.000000 0.707083 0.000000 -0.707083 1.000000 0.000000 0.000000 1.000000 0.000000 0.000000 0.707083 0.000000 -0.707083 0.577349 0.577349 -0.577349 0.707083 0.707083 0.000000 0.707083 -0.707083 0.000000 0.577349 -0.577349 -0.577349 0.000000 0.707083 -0.707083 0.000000 1.000000 0.000000 0.000000 -1.000000 0.000000 0.000000 -1.000000 0.000000 0.000000 -0.707083 -0.707083 0.707083 0.000000 0.707083 0.000000 0.000000 1.000000 0.000000 0.000000 1.000000 0.707083 0.000000 0.707083 0.577349 0.577349 0.577349 0.000000 0.707083 0.707083 0.707083 0.000000 0.707083 0.000000 0.000000 1.000000 0.000000 -0.707083 0.707083 0.577349 -0.577349 0.577349 0.000000 -0.707083 0.707083 0.000000 1.000000 0.000000 -0.707083 0.707083 0.000000 -0.577349 0.577349 0.577349 0.000000 0.707083 0.707083 -1.000000 0.000000 0.000000 -0.707083 -0.707083 0.000000 -0.577349 -0.577349 0.577349 -0.707083 0.000000 0.707083 -1.000000 0.000000 0.000000 -0.707083 0.000000 0.707083 -0.707083 0.000000 -0.707083 -0.707083 0.000000 -0.707083 -1.000000 0.000000 0.000000 -1.000000 0.000000 0.000000 -1.000000 0.000000 0.000000 -1.000000 0.000000 0.000000 -1.000000 0.000000 0.000000 -1.000000 0.000000 0.000000 -0.577349 0.577349 -0.577349 -0.707083 0.707083 0.000000 -0.577349 -0.577349 -0.577349 -0.707083 -0.707083 0.000000 0.000000 0.707083 -0.707083 0.000000 1.000000 0.000000 0.000000 -1.000000 0.000000 0.000000 -1.000000 0.000000 0.000000 -0.707083 -0.707083 -0.707083 0.000000 0.707083 -0.707083 0.000000 0.707083 -0.577349 0.577349 0.577349 -0.707083 0.000000 0.707083 -0.577349 -0.577349 0.577349 0.000000 -0.707083 0.707083 " />
								<TextureCoordinate point="0.9959 0.5090 0.9959 0.7638 0.8488 0.7638 0.8488 0.5090 0.7526 0.5090 0.7526 0.7638 0.6973 0.7638 0.6973 0.5090 0.8212 0.7638 0.8212 0.5090 0.8212 0.0132 0.8212 0.1993 0.7526 0.1993 0.7526 0.0132 0.8488 0.0132 0.8488 0.1993 0.6973 0.1993 0.6973 0.0132 0.9959 0.0132 0.9959 0.1993 0.4843 0.5090 0.4843 0.1993 0.4843 0.0132 0.8508 0.6722 0.8508 0.7458 0.7995 0.7458 0.7995 0.6722 0.8966 0.6722 0.8966 0.7458 0.5462 0.8495 0.5094 0.8495 0.5094 0.7359 0.5462 0.7359 0.4843 0.7638 0.0068 0.5090 0.1539 0.5090 0.1539 0.7638 0.0068 0.7638 0.2501 0.5090 0.3055 0.5090 0.3055 0.7638 0.2501 0.7638 0.1815 0.5090 0.1815 0.7638 0.1815 0.0132 0.2501 0.0132 0.2501 0.1993 0.1815 0.1993 0.2451 0.3004 0.1452 0.3004 0.1452 0.5408 0.2451 0.5408 0.1539 0.0132 0.1539 0.1993 0.3055 0.0132 0.3055 0.1993 0.0068 0.0132 0.0068 0.1993 0.4937 0.1993 0.4937 0.5090 0.4937 0.0132 0.8508 0.6722 0.7995 0.6722 0.8966 0.6722 0.5462 0.8495 0.5462 0.7359 0.4937 0.7638 " />
							</IndexedTriangleSet>
						</Shape>
						<Shape>
							<Appearance>
								<Material USE="MA_Body" />
							</Appearance>
							<IndexedTriangleSet solid="false"
							                    normalPerVertex="true"
							                    index="0 1 2 0 2 3 4 5 6 4 6 7 7 6 1 7 1 0 8 9 10 8 10 11 0 3 12 0 12 13 4 7 14 4 14 15 7 0 13 7 13 14 "
							                    >
								<Coordinate point="0.000000 -0.183995 0.000000 0.776629 -0.183995 0.000000 0.776629 -0.703512 0.000000 0.000000 -0.703512 0.000000 0.000000 0.703512 0.000000 0.776629 0.703512 0.000000 0.776629 0.285013 0.000000 0.000000 0.285013 0.000000 0.776629 0.285013 0.486712 0.776629 0.285013 1.146374 0.776629 -0.183995 1.146374 0.776629 -0.183995 0.486712 -0.776629 -0.703512 0.000000 -0.776629 -0.183995 0.000000 -0.776629 0.285013 0.000000 -0.776629 0.703512 0.000000 " />
								<Normal vector="0.000000 0.000000 -1.000000 0.707083 0.000000 -0.707083 0.577349 -0.577349 -0.577349 0.000000 -0.707083 -0.707083 0.000000 0.707083 -0.707083 0.577349 0.577349 -0.577349 0.707083 0.000000 -0.707083 0.000000 0.000000 -1.000000 1.000000 0.000000 0.000000 1.000000 0.000000 0.000000 1.000000 0.000000 0.000000 1.000000 0.000000 0.000000 -0.577349 -0.577349 -0.577349 -0.707083 0.000000 -0.707083 -0.707083 0.000000 -0.707083 -0.577349 0.577349 -0.577349 " />
								<TextureCoordinate point="0.0131 0.5303 0.1376 0.5303 0.1376 0.6480 0.0131 0.6480 0.0131 0.3292 0.1376 0.3292 0.1376 0.4240 0.0131 0.4240 0.9640 0.0043 0.9640 0.5089 0.7543 0.5089 0.7543 0.0043 0.1376 0.6480 0.1376 0.5303 0.1376 0.4240 0.1376 0.3292 " />
							</IndexedTriangleSet>
						</Shape>
					</Group>
				</Transform>
			</Transform>
			<Transform DEF="neck_TRANSFORM"
			           translation="0.000000 0.000000 1.870013"
			           scale="1.000000 1.000000 1.000000"
			           rotation="0.000000 1.000000 0.000000 0.000000"
			           >
				<Transform DEF="neck_ifs_TRANSFORM"
				           translation="0.000000 0.000000 0.000000"
				           scale="1.000000 1.000000 1.000000"
				           rotation="0.000000 1.000000 0.000000 0.000000"
				           >
					<Group DEF="group_ME_neck">
						<Shape>
							<Appearance>
								<Material USE="MA_Body" />
							</Appearance>
							<IndexedTriangleSet solid="false"
							                    normalPerVertex="true"
							                    index="0 1 2 0 2 3 4 5 6 4 6 7 8 9 10 8 10 11 12 13 14 12 14 15 4 16 17 4 17 15 18 5 14 18 14 19 "
							                    >
								<Coordinate point="-0.257416 -0.257416 0.000000 -0.257416 -0.257416 0.375522 -0.257416 0.257416 0.375522 -0.257416 0.257416 0.000000 -0.257416 0.257416 0.000000 -0.257416 0.257416 0.375522 0.257416 0.257416 0.375522 0.257416 0.257416 0.000000 0.257416 0.257416 0.000000 0.257416 0.257416 0.375522 0.257416 -0.257416 0.375522 0.257416 -0.257416 0.000000 0.257416 -0.257416 0.000000 0.257416 -0.257416 0.375522 -0.257416 -0.257416 0.375522 -0.257416 -0.257416 0.000000 0.257416 0.257416 0.000000 0.257416 -0.257416 0.000000 0.257416 0.257416 0.375522 0.257416 -0.257416 0.375522 " />
								<Normal vector="-0.577349 -0.577349 -0.577349 -0.577349 -0.577349 0.577349 -0.577349 0.577349 0.577349 -0.577349 0.577349 -0.577349 -0.577349 0.577349 -0.577349 -0.577349 0.577349 0.577349 0.577349 0.577349 0.577349 0.577349 0.577349 -0.577349 0.577349 0.577349 -0.577349 0.577349 0.577349 0.577349 0.577349 -0.577349 0.577349 0.577349 -0.577349 -0.577349 0.577349 -0.577349 -0.577349 0.577349 -0.577349 0.577349 -0.577349 -0.577349 0.577349 -0.577349 -0.577349 -0.577349 0.577349 0.577349 -0.577349 0.577349 -0.577349 -0.577349 0.577349 0.577349 0.577349 0.577349 -0.577349 0.577349 " />
								<TextureCoordinate point="0.0628 0.7371 0.2777 0.7371 0.2777 0.9520 0.0628 0.9520 0.0628 0.7371 0.2777 0.7371 0.2777 0.9520 0.0628 0.9520 0.0628 0.7371 0.2777 0.7371 0.2777 0.9520 0.0628 0.9520 0.0628 0.7371 0.2777 0.7371 0.2777 0.9520 0.0628 0.9520 0.2777 0.7371 0.2777 0.9520 0.0628 0.7371 0.0628 0.9520 " />
							</IndexedTriangleSet>
						</Shape>
					</Group>
				</Transform>
				<Transform DEF="head_TRANSFORM"
				           translation="0.000000 0.000000 0.297241"
				           scale="1.000000 1.000000 1.000000"
				           rotation="0.000000 1.000000 0.000000 0.000000"
				           >
					<Transform DEF="head_ifs_TRANSFORM"
					           translation="0.000000 0.000000 0.000000"
					           scale="1.000000 1.000000 1.000000"
					           rotation="0.000000 1.000000 0.000000 0.000000"
					           >
						<Group DEF="group_ME_head">
							<Shape>
								<Appearance>
									<Material USE="MA_Body" />
								</Appearance>
								<IndexedTriangleSet solid="false"
								                    normalPerVertex="true"
								                    index="0 1 2 0 2 3 4 5 6 4 6 7 8 9 10 8 10 11 12 13 14 12 14 15 16 17 18 16 18 19 20 21 14 20 14 22 23 24 25 23 25 26 24 20 22 24 22 25 27 28 29 27 29 30 28 16 19 28 19 29 31 32 33 31 33 34 34 33 13 34 13 12 35 21 36 35 36 37 37 36 5 37 5 4 38 39 40 38 40 41 39 37 4 39 4 40 27 42 39 27 39 38 42 35 37 42 37 39 43 44 45 43 45 46 47 48 49 47 49 50 51 52 44 51 44 43 52 31 34 52 34 44 46 45 53 46 53 30 45 12 15 45 15 53 54 55 56 54 56 57 55 8 11 55 11 56 41 40 58 41 58 59 40 4 7 40 7 58 60 61 62 60 62 63 61 0 3 61 3 62 "
								                    >
									<Coordinate point="-0.476731 -0.458938 0.661408 -0.476731 -0.458938 0.698683 -0.476731 0.458938 0.698683 -0.476731 0.458938 0.661408 0.347577 0.458938 0.661408 0.347577 0.458938 0.698683 0.476731 0.458938 0.698683 0.476731 0.458938 0.661408 0.476731 0.458938 0.661408 0.476731 0.458938 0.698683 0.476731 -0.458938 0.698683 0.476731 -0.458938 0.661408 -0.347577 -0.458938 0.661408 -0.347577 -0.458938 0.698683 -0.476731 -0.458938 0.698683 -0.476731 -0.458938 0.661408 0.347577 0.458938 0.000000 0.476731 0.458938 0.000000 0.476731 -0.458938 0.000000 0.347577 -0.458938 0.000000 -0.347577 0.458938 0.698683 -0.476731 0.458938 0.698683 -0.347577 -0.458938 0.698683 0.476731 0.458938 0.698683 0.347577 0.458938 0.698683 0.347577 -0.458938 0.698683 0.476731 -0.458938 0.698683 -0.476731 0.458938 0.000000 -0.347577 0.458938 0.000000 -0.347577 -0.458938 0.000000 -0.476731 -0.458938 0.000000 0.476731 -0.458938 0.661408 0.476731 -0.458938 0.698683 0.347577 -0.458938 0.698683 0.347577 -0.458938 0.661408 -0.476731 0.458938 0.661408 -0.347577 0.458938 0.698683 -0.347577 0.458938 0.661408 -0.347577 0.458938 0.000000 -0.347577 0.458938 0.059707 0.347577 0.458938 0.059707 0.347577 0.458938 0.000000 -0.476731 0.458938 0.059707 0.347577 -0.458938 0.000000 0.347577 -0.458938 0.059707 -0.347577 -0.458938 0.059707 -0.347577 -0.458938 0.000000 0.347577 -0.458938 0.059707 0.347577 -0.458938 0.661408 -0.347577 -0.458938 0.661408 -0.347577 -0.458938 0.059707 0.476731 -0.458938 0.000000 0.476731 -0.458938 0.059707 -0.476731 -0.458938 0.059707 0.476731 0.458938 0.000000 0.476731 0.458938 0.059707 0.476731 -0.458938 0.059707 0.476731 -0.458938 0.000000 0.476731 0.458938 0.059707 0.476731 0.458938 0.000000 -0.476731 -0.458938 0.000000 -0.476731 -0.458938 0.059707 -0.476731 0.458938 0.059707 -0.476731 0.458938 0.000000 " />
									<Normal vector="-0.707083 -0.707083 0.000000 -0.577349 -0.577349 0.577349 -0.577349 0.577349 0.577349 -0.707083 0.707083 0.000000 0.000000 1.000000 0.000000 0.000000 0.707083 0.707083 0.577349 0.577349 0.577349 0.707083 0.707083 0.000000 0.707083 0.707083 0.000000 0.577349 0.577349 0.577349 0.577349 -0.577349 0.577349 0.707083 -0.707083 0.000000 0.000000 -1.000000 0.000000 0.000000 -0.707083 0.707083 -0.577349 -0.577349 0.577349 -0.707083 -0.707083 0.000000 0.000000 0.707083 -0.707083 0.577349 0.577349 -0.577349 0.577349 -0.577349 -0.577349 0.000000 -0.707083 -0.707083 0.000000 0.707083 0.707083 -0.577349 0.577349 0.577349 0.000000 -0.707083 0.707083 0.577349 0.577349 0.577349 0.000000 0.707083 0.707083 0.000000 -0.707083 0.707083 0.577349 -0.577349 0.577349 -0.577349 0.577349 -0.577349 0.000000 0.707083 -0.707083 0.000000 -0.707083 -0.707083 -0.577349 -0.577349 -0.577349 0.707083 -0.707083 0.000000 0.577349 -0.577349 0.577349 0.000000 -0.707083 0.707083 0.000000 -1.000000 0.000000 -0.707083 0.707083 0.000000 0.000000 0.707083 0.707083 0.000000 1.000000 0.000000 0.000000 0.707083 -0.707083 0.000000 1.000000 0.000000 0.000000 1.000000 0.000000 0.000000 0.707083 -0.707083 -0.707083 0.707083 0.000000 0.000000 -0.707083 -0.707083 0.000000 -1.000000 0.000000 0.000000 -1.000000 0.000000 0.000000 -0.707083 -0.707083 0.000000 -1.000000 0.000000 0.000000 -1.000000 0.000000 0.000000 -1.000000 0.000000 0.000000 -1.000000 0.000000 0.577349 -0.577349 -0.577349 0.707083 -0.707083 0.000000 -0.707083 -0.707083 0.000000 0.577349 0.577349 -0.577349 0.707083 0.707083 0.000000 0.707083 -0.707083 0.000000 0.577349 -0.577349 -0.577349 0.707083 0.707083 0.000000 0.577349 0.577349 -0.577349 -0.577349 -0.577349 -0.577349 -0.707083 -0.707083 0.000000 -0.707083 0.707083 0.000000 -0.577349 0.577349 -0.577349 " />
									<TextureCoordinate point="0.2061 0.7371 0.2777 0.7371 0.2777 0.9520 0.2061 0.9520 0.2061 0.8803 0.2777 0.8803 0.2777 0.9520 0.2061 0.9520 0.2061 0.7371 0.2777 0.7371 0.2777 0.9520 0.2061 0.9520 0.2061 0.8803 0.2777 0.8803 0.2777 0.9520 0.2061 0.9520 0.2061 0.7371 0.2777 0.7371 0.2777 0.9520 0.2061 0.9520 0.2061 0.7371 0.2777 0.7371 0.2061 0.9520 0.0628 0.7371 0.1344 0.7371 0.1344 0.9520 0.0628 0.9520 0.0628 0.7371 0.1344 0.7371 0.1344 0.9520 0.0628 0.9520 0.2061 0.7371 0.2777 0.7371 0.2777 0.8087 0.2061 0.8087 0.2061 0.7371 0.2777 0.8087 0.2061 0.8087 0.0628 0.8087 0.1344 0.8087 0.1344 0.8803 0.0628 0.8803 0.1344 0.7371 0.0628 0.8087 0.1344 0.8087 0.1344 0.8803 0.0628 0.8803 0.3056 0.0104 0.3056 0.2711 0.1776 0.2711 0.1776 0.0104 0.0628 0.7371 0.1344 0.7371 0.1344 0.9520 0.0628 0.7371 0.1344 0.7371 0.1344 0.9520 0.0628 0.9520 0.1344 0.9520 0.0628 0.9520 0.0628 0.7371 0.1344 0.7371 0.1344 0.9520 0.0628 0.9520 " />
								</IndexedTriangleSet>
							</Shape>
						</Group>
					</Transform>
				</Transform>
			</Transform>
			<Transform DEF="Plane_TRANSFORM"
			           translation="0.289504 -0.705282 0.904165"
			           scale="1.000000 1.000000 1.000000"
			           rotation="0.000000 1.000000 0.000000 0.000000"
			           >
				<Transform DEF="Plane_ifs_TRANSFORM"
				           translation="0.000000 0.000000 0.000000"
				           scale="1.000000 1.000000 1.000000"
				           rotation="0.000000 1.000000 0.000000 0.000000"
				           >
					<Group DEF="group_ME_Plane">
						<Shape>
							<Appearance>
								<Material USE="MA_Body" />
							</Appearance>
							<IndexedTriangleSet solid="false"
							                    normalPerVertex="true"
							                    index="0 1 2 0 2 3 "
							                    >
								<Coordinate point="-0.263966 0.000000 -0.435604 0.263966 0.000000 -0.435604 0.263966 0.000000 0.435604 -0.263966 0.000000 0.435604 " />
								<Normal vector="0.000000 -1.000000 0.000000 0.000000 -1.000000 0.000000 0.000000 -1.000000 0.000000 0.000000 -1.000000 0.000000 " />
								<TextureCoordinate point="0.3975 0.0358 0.6651 0.0358 0.6651 0.9642 0.3975 0.9642 " />
							</IndexedTriangleSet>
						</Shape>
					</Group>
				</Transform>
			</Transform>
			<Transform DEF="Plane_001_TRANSFORM"
			           translation="0.000000 -0.704813 0.408430"
			           scale="1.000000 1.000000 1.000000"
			           rotation="0.000000 1.000000 0.000000 0.000000"
			           >
				<Transform DEF="Plane_001_ifs_TRANSFORM"
				           translation="0.000000 0.000000 0.000000"
				           scale="1.000000 1.000000 1.000000"
				           rotation="0.000000 1.000000 0.000000 0.000000"
				           >
					<Group DEF="group_ME_Plane_001">
						<Shape>
							<Appearance>
								<Material DEF="MA_Mouth"
								          diffuseColor="0.800 0.800 0.800"
								          specularColor="0.401 0.401 0.401"
								          emissiveColor="0.000 0.000 0.000"
								          ambientIntensity="0.000"
								          shininess="0.500"
								          transparency="0.0"
								          />
							</Appearance>
							<IndexedTriangleSet solid="false"
							                    normalPerVertex="true"
							                    index="0 1 2 0 2 3 "
							                    >
								<Coordinate point="-0.205930 0.000000 -0.151312 0.205930 0.000000 -0.151312 0.205930 0.000000 0.151312 -0.205930 0.000000 0.151312 " />
								<Normal vector="0.000000 -1.000000 0.000000 0.000000 -1.000000 0.000000 0.000000 -1.000000 0.000000 0.000000 -1.000000 0.000000 " />
								<TextureCoordinate point="0.0000 0.5382 1.0000 0.5382 1.0000 0.9934 0.0000 0.9934 " />
							</IndexedTriangleSet>
						</Shape>
					</Group>
				</Transform>
			</Transform>
			<Transform DEF="Plane_002_TRANSFORM"
			           translation="-0.329734 -0.705282 0.904165"
			           scale="1.000000 1.000000 1.000000"
			           rotation="0.000000 1.000000 0.000000 0.000000"
			           >
				<Transform DEF="Plane_002_ifs_TRANSFORM"
				           translation="0.000000 0.000000 0.000000"
				           scale="1.000000 1.000000 1.000000"
				           rotation="0.000000 1.000000 0.000000 0.000000"
				           >
					<Group DEF="group_ME_Plane_002">
						<Shape>
							<Appearance>
								<Material USE="MA_Body" />
							</Appearance>
							<IndexedTriangleSet solid="false"
							                    normalPerVertex="true"
							                    index="0 1 2 0 2 3 "
							                    >
								<Coordinate point="0.263966 0.000000 -0.435604 0.263966 -0.000000 0.435604 -0.263966 -0.000000 0.435604 -0.263966 0.000000 -0.435604 " />
								<Normal vector="0.000000 -1.000000 0.000000 0.000000 -1.000000 0.000000 0.000000 -1.000000 0.000000 0.000000 -1.000000 0.000000 " />
								<TextureCoordinate point="0.3975 0.0358 0.3975 0.9642 0.6651 0.9642 0.6651 0.0358 " />
							</IndexedTriangleSet>
						</Shape>
					</Group>
				</Transform>
			</Transform>
			<Transform DEF="hand2_TRANSFORM"
			           translation="-1.107670 0.000000 0.910170"
			           scale="1.000000 1.000000 1.000000"
			           rotation="0.000000 1.000000 0.000000 0.000000"
			           >
				<Transform DEF="hand2_ifs_TRANSFORM"
				           translation="0.000000 0.000000 0.000000"
				           scale="1.000000 1.000000 1.000000"
				           rotation="0.000000 1.000000 0.000000 0.000000"
				           >
					<Group DEF="group_ME_hand2">
						<Shape>
							<Appearance>
								<Material USE="MA_Body" />
							</Appearance>
							<IndexedTriangleSet solid="false"
							                    normalPerVertex="true"
							                    index="0 1 2 0 2 3 4 5 6 4 6 7 8 9 10 8 10 11 12 13 14 12 14 15 4 13 16 4 16 17 18 19 14 18 14 7 "
							                    >
								<Coordinate point="0.000000 -0.127424 -0.075472 0.000000 0.127424 -0.075472 0.000000 0.127424 0.075472 0.000000 -0.127424 0.075472 0.000000 0.127424 -0.075472 -0.237484 0.127424 -0.075472 -0.237484 0.127424 0.075472 0.000000 0.127424 0.075472 -0.237484 0.127424 -0.075472 -0.237484 -0.127424 -0.075472 -0.237484 -0.127424 0.075472 -0.237484 0.127424 0.075472 -0.237484 -0.127424 -0.075472 0.000000 -0.127424 -0.075472 0.000000 -0.127424 0.075472 -0.237484 -0.127424 0.075472 -0.237484 -0.127424 -0.075472 -0.237484 0.127424 -0.075472 -0.237484 0.127424 0.075472 -0.237484 -0.127424 0.075472 " />
								<Normal vector="0.577349 -0.577349 -0.577349 0.577349 0.577349 -0.577349 0.577349 0.577349 0.577349 0.577349 -0.577349 0.577349 0.577349 0.577349 -0.577349 -0.577349 0.577349 -0.577349 -0.577349 0.577349 0.577349 0.577349 0.577349 0.577349 -0.577349 0.577349 -0.577349 -0.577349 -0.577349 -0.577349 -0.577349 -0.577349 0.577349 -0.577349 0.577349 0.577349 -0.577349 -0.577349 -0.577349 0.577349 -0.577349 -0.577349 0.577349 -0.577349 0.577349 -0.577349 -0.577349 0.577349 -0.577349 -0.577349 -0.577349 -0.577349 0.577349 -0.577349 -0.577349 0.577349 0.577349 -0.577349 -0.577349 0.577349 " />
								<TextureCoordinate point="0.0441 0.7262 0.0441 0.9683 0.2924 0.9683 0.2924 0.7262 0.0441 0.7262 0.0441 0.9683 0.2924 0.9683 0.2924 0.7262 0.0441 0.7262 0.0441 0.9683 0.2924 0.9683 0.2924 0.7262 0.0441 0.7262 0.0441 0.9683 0.2924 0.9683 0.2924 0.7262 0.2924 0.9683 0.2924 0.7262 0.0441 0.7262 0.0441 0.9683 " />
							</IndexedTriangleSet>
						</Shape>
					</Group>
				</Transform>
				<Transform DEF="Cube_001_TRANSFORM"
				           translation="-0.211256 0.000000 0.000000"
				           scale="1.000000 1.000000 1.000000"
				           rotation="0.000000 1.000000 0.000000 0.000000"
				           >
					<Transform DEF="Cube_001_ifs_TRANSFORM"
					           translation="0.000000 0.000000 0.000000"
					           scale="1.000000 1.000000 1.000000"
					           rotation="0.000000 1.000000 0.000000 0.000000"
					           >
						<Group DEF="group_ME_Cube_021">
							<Shape>
								<Appearance>
									<Material USE="MA_Body" />
								</Appearance>
								<IndexedTriangleSet solid="false"
								                    normalPerVertex="true"
								                    index="0 1 2 0 2 3 4 5 6 4 6 7 8 9 10 8 10 11 12 13 14 12 14 15 4 13 16 4 16 17 18 19 14 18 14 7 "
								                    >
									<Coordinate point="0.016909 -0.078099 -0.059076 0.016909 0.078099 -0.059076 -0.016909 0.078099 0.059076 -0.016909 -0.078099 0.059076 0.016909 0.078099 -0.059076 -0.332551 0.078099 -0.159103 -0.366370 0.078099 -0.040952 -0.016909 0.078099 0.059076 -0.332551 0.078099 -0.159103 -0.332551 -0.078099 -0.159103 -0.366370 -0.078099 -0.040952 -0.366370 0.078099 -0.040952 -0.332551 -0.078099 -0.159103 0.016909 -0.078099 -0.059076 -0.016909 -0.078099 0.059076 -0.366370 -0.078099 -0.040952 -0.332551 -0.078099 -0.159103 -0.332551 0.078099 -0.159103 -0.366370 0.078099 -0.040952 -0.366370 -0.078099 -0.040952 " />
									<Normal vector="0.713920 -0.577349 -0.396161 0.713920 0.577349 -0.396161 0.396161 0.577349 0.713920 0.396161 -0.577349 0.713920 0.713920 0.577349 -0.396161 -0.396161 0.577349 -0.713920 -0.713920 0.577349 0.396161 0.396161 0.577349 0.713920 -0.396161 0.577349 -0.713920 -0.396161 -0.577349 -0.713920 -0.713920 -0.577349 0.396161 -0.713920 0.577349 0.396161 -0.396161 -0.577349 -0.713920 0.713920 -0.577349 -0.396161 0.396161 -0.577349 0.713920 -0.713920 -0.577349 0.396161 -0.396161 -0.577349 -0.713920 -0.396161 0.577349 -0.713920 -0.713920 0.577349 0.396161 -0.713920 -0.577349 0.396161 " />
									<TextureCoordinate point="0.0441 0.7262 0.0441 0.9683 0.2924 0.9683 0.2924 0.7262 0.0441 0.7262 0.0441 0.9683 0.2924 0.9683 0.2924 0.7262 0.0441 0.7262 0.0441 0.9683 0.2924 0.9683 0.2924 0.7262 0.0441 0.7262 0.0441 0.9683 0.2924 0.9683 0.2924 0.7262 0.2924 0.9683 0.2924 0.7262 0.0441 0.7262 0.0441 0.9683 " />
								</IndexedTriangleSet>
							</Shape>
						</Group>
					</Transform>
				</Transform>
				<Transform DEF="Cube_004_TRANSFORM"
				           translation="-0.143104 -0.076520 0.000000"
				           scale="1.000000 1.000000 1.000000"
				           rotation="0.000000 1.000000 0.000000 0.000000"
				           >
					<Transform DEF="Cube_004_ifs_TRANSFORM"
					           translation="0.000000 0.000000 0.000000"
					           scale="1.000000 1.000000 1.000000"
					           rotation="0.000000 1.000000 0.000000 0.000000"
					           >
						<Group DEF="group_ME_Cube_022">
							<Shape>
								<Appearance>
									<Material USE="MA_Body" />
								</Appearance>
								<IndexedTriangleSet solid="false"
								                    normalPerVertex="true"
								                    index="0 1 2 0 2 3 4 5 6 4 6 7 8 9 10 8 10 11 12 13 14 12 14 15 4 13 16 4 16 17 18 19 14 18 14 7 "
								                    >
									<Coordinate point="0.054012 -0.004172 -0.089211 -0.054012 0.086528 -0.022113 -0.054012 0.004172 0.089211 0.054012 -0.086528 0.022113 -0.054012 0.086528 -0.022113 -0.354827 -0.145025 -0.193410 -0.354827 -0.227380 -0.082086 -0.054012 0.004172 0.089211 -0.354827 -0.145025 -0.193410 -0.246802 -0.235725 -0.260508 -0.246802 -0.318080 -0.149184 -0.354827 -0.227380 -0.082086 -0.246802 -0.235725 -0.260508 0.054012 -0.004172 -0.089211 0.054012 -0.086528 0.022113 -0.246802 -0.318080 -0.149184 -0.246802 -0.235725 -0.260508 -0.354827 -0.145025 -0.193410 -0.354827 -0.227380 -0.082086 -0.246802 -0.318080 -0.149184 " />
									<Normal vector="0.816279 0.329112 -0.474685 0.017701 0.999603 0.021302 0.017701 0.312876 0.949614 0.816279 -0.357616 0.453597 0.017701 0.999603 0.021302 -0.816279 0.357616 -0.453597 -0.816279 -0.329112 0.474685 0.017701 0.312876 0.949614 -0.816279 0.357616 -0.453597 -0.017701 -0.312876 -0.949614 -0.017701 -0.999603 -0.021302 -0.816279 -0.329112 0.474685 -0.017701 -0.312876 -0.949614 0.816279 0.329112 -0.474685 0.816279 -0.357616 0.453597 -0.017701 -0.999603 -0.021302 -0.017701 -0.312876 -0.949614 -0.816279 0.357616 -0.453597 -0.816279 -0.329112 0.474685 -0.017701 -0.999603 -0.021302 " />
									<TextureCoordinate point="0.0441 0.7262 0.0441 0.9683 0.2924 0.9683 0.2924 0.7262 0.0441 0.7262 0.0441 0.9683 0.2924 0.9683 0.2924 0.7262 0.0441 0.7262 0.0441 0.9683 0.2924 0.9683 0.2924 0.7262 0.0441 0.7262 0.0441 0.9683 0.2924 0.9683 0.2924 0.7262 0.2924 0.9683 0.2924 0.7262 0.0441 0.7262 0.0441 0.9683 " />
								</IndexedTriangleSet>
							</Shape>
						</Group>
					</Transform>
				</Transform>
				<Transform DEF="Cube_007_TRANSFORM"
				           translation="-0.143104 0.057574 0.000000"
				           scale="1.000000 1.000000 1.000000"
				           rotation="0.000000 1.000000 0.000000 0.000000"
				           >
					<Transform DEF="Cube_007_ifs_TRANSFORM"
					           translation="0.000000 0.000000 0.000000"
					           scale="1.000000 1.000000 1.000000"
					           rotation="0.000000 1.000000 0.000000 0.000000"
					           >
						<Group DEF="group_ME_Cube_023">
							<Shape>
								<Appearance>
									<Material USE="MA_Body" />
								</Appearance>
								<IndexedTriangleSet solid="false"
								                    normalPerVertex="true"
								                    index="0 1 2 0 2 3 4 5 6 4 6 7 8 9 10 8 10 11 12 13 14 12 14 15 4 13 16 4 16 17 18 19 14 18 14 7 "
								                    >
									<Coordinate point="-0.013773 -0.055130 -0.087546 0.082346 0.055130 -0.032758 0.013773 0.055130 0.087546 -0.082346 -0.055130 0.032758 0.082346 0.055130 -0.032758 -0.178195 0.356049 -0.181266 -0.246768 0.356049 -0.060961 0.013773 0.055130 0.087546 -0.178195 0.356049 -0.181266 -0.274315 0.245789 -0.236054 -0.342888 0.245789 -0.115749 -0.246768 0.356049 -0.060961 -0.274315 0.245789 -0.236054 -0.013773 -0.055130 -0.087546 -0.082346 -0.055130 0.032758 -0.342888 0.245789 -0.115749 -0.274315 0.245789 -0.236054 -0.178195 0.356049 -0.181266 -0.246768 0.356049 -0.060961 -0.342888 0.245789 -0.115749 " />
									<Normal vector="0.284677 -0.816492 -0.502274 0.995239 -0.001373 -0.097232 0.423444 -0.001373 0.905911 -0.287088 -0.816492 0.500870 0.995239 -0.001373 -0.097232 0.287088 0.816492 -0.500870 -0.284677 0.816492 0.502274 0.423444 -0.001373 0.905911 0.287088 0.816492 -0.500870 -0.423444 0.001373 -0.905911 -0.995239 0.001373 0.097232 -0.284677 0.816492 0.502274 -0.423444 0.001373 -0.905911 0.284677 -0.816492 -0.502274 -0.287088 -0.816492 0.500870 -0.995239 0.001373 0.097232 -0.423444 0.001373 -0.905911 0.287088 0.816492 -0.500870 -0.284677 0.816492 0.502274 -0.995239 0.001373 0.097232 " />
									<TextureCoordinate point="0.0441 0.7262 0.0441 0.9683 0.2924 0.9683 0.2924 0.7262 0.0441 0.7262 0.0441 0.9683 0.2924 0.9683 0.2924 0.7262 0.0441 0.7262 0.0441 0.9683 0.2924 0.9683 0.2924 0.7262 0.0441 0.7262 0.0441 0.9683 0.2924 0.9683 0.2924 0.7262 0.2924 0.9683 0.2924 0.7262 0.0441 0.7262 0.0441 0.9683 " />
								</IndexedTriangleSet>
							</Shape>
						</Group>
					</Transform>
				</Transform>
				<Transform DEF="Cube_014_TRANSFORM"
				           translation="-0.012175 -0.043580 0.034398"
				           scale="1.000000 1.000000 1.000000"
				           rotation="0.000000 1.000000 0.000000 0.000000"
				           >
					<Transform DEF="Cube_014_ifs_TRANSFORM"
					           translation="0.000000 0.000000 0.000000"
					           scale="1.000000 1.000000 1.000000"
					           rotation="0.000000 1.000000 0.000000 0.000000"
					           >
						<Group DEF="group_ME_Cube_024">
							<Shape>
								<Appearance>
									<Material USE="MA_Body" />
								</Appearance>
								<IndexedTriangleSet solid="false"
								                    normalPerVertex="true"
								                    index="0 1 2 0 2 3 4 5 6 4 6 7 8 9 10 8 10 11 12 13 14 12 14 15 4 13 16 4 16 17 18 19 14 18 14 7 "
								                    >
									<Coordinate point="-0.000035 0.039417 -0.033316 -0.005268 -0.039417 -0.032897 0.000035 -0.039417 0.033316 0.005268 0.039417 0.032897 -0.005268 -0.039417 -0.032897 0.084967 -0.045446 -0.040123 0.090269 -0.045446 0.026089 0.000035 -0.039417 0.033316 0.084967 -0.045446 -0.040123 0.090200 0.033389 -0.040542 0.095503 0.033389 0.025670 0.090269 -0.045446 0.026089 0.090200 0.033389 -0.040542 -0.000035 0.039417 -0.033316 0.005268 0.039417 0.032897 0.095503 0.033389 0.025670 0.090200 0.033389 -0.040542 0.084967 -0.045446 -0.040123 0.090269 -0.045446 0.026089 0.095503 0.033389 0.025670 " />
									<Normal vector="-0.582080 0.614429 -0.532579 -0.658559 -0.537706 -0.526444 -0.566363 -0.537706 0.624531 -0.489883 0.614429 0.618427 -0.658559 -0.537706 -0.526444 0.489883 -0.614429 -0.618427 0.582080 -0.614429 0.532579 -0.566363 -0.537706 0.624531 0.489883 -0.614429 -0.618427 0.566363 0.537706 -0.624531 0.658559 0.537706 0.526444 0.582080 -0.614429 0.532579 0.566363 0.537706 -0.624531 -0.582080 0.614429 -0.532579 -0.489883 0.614429 0.618427 0.658559 0.537706 0.526444 0.566363 0.537706 -0.624531 0.489883 -0.614429 -0.618427 0.582080 -0.614429 0.532579 0.658559 0.537706 0.526444 " />
									<TextureCoordinate point="0.0441 0.7262 0.0441 0.9683 0.2924 0.9683 0.2924 0.7262 0.0441 0.7262 0.0441 0.9683 0.2924 0.9683 0.2924 0.7262 0.0441 0.7262 0.0441 0.9683 0.2924 0.9683 0.2924 0.7262 0.0441 0.7262 0.0441 0.9683 0.2924 0.9683 0.2924 0.7262 0.2924 0.9683 0.2924 0.7262 0.0441 0.7262 0.0441 0.9683 " />
								</IndexedTriangleSet>
							</Shape>
						</Group>
					</Transform>
				</Transform>
				<Transform DEF="Cube_015_TRANSFORM"
				           translation="-0.012175 0.060054 0.031777"
				           scale="1.000000 1.000000 1.000000"
				           rotation="0.000000 1.000000 0.000000 0.000000"
				           >
					<Transform DEF="Cube_015_ifs_TRANSFORM"
					           translation="0.000000 0.000000 0.000000"
					           scale="1.000000 1.000000 1.000000"
					           rotation="0.000000 1.000000 0.000000 0.000000"
					           >
						<Group DEF="group_ME_Cube_025">
							<Shape>
								<Appearance>
									<Material USE="MA_Body" />
								</Appearance>
								<IndexedTriangleSet solid="false"
								                    normalPerVertex="true"
								                    index="0 1 2 0 2 3 4 5 6 4 6 7 8 9 10 8 10 11 12 13 14 12 14 15 4 13 16 4 16 17 18 19 14 18 14 7 "
								                    >
									<Coordinate point="-0.001051 0.052396 -0.037844 0.001051 -0.052396 -0.037844 0.001051 -0.052396 0.037844 -0.001051 0.052396 0.037844 0.001051 -0.052396 -0.037844 0.189916 -0.048608 -0.037844 0.189916 -0.048608 0.037844 0.001051 -0.052396 0.037844 0.189916 -0.048608 -0.037844 0.187814 0.056185 -0.037844 0.187814 0.056185 0.037844 0.189916 -0.048608 0.037844 0.187814 0.056185 -0.037844 -0.001051 0.052396 -0.037844 -0.001051 0.052396 0.037844 0.187814 0.056185 0.037844 0.187814 0.056185 -0.037844 0.189916 -0.048608 -0.037844 0.189916 -0.048608 0.037844 0.187814 0.056185 0.037844 " />
									<Normal vector="-0.588794 0.565630 -0.577349 -0.565630 -0.588794 -0.577349 -0.565630 -0.588794 0.577349 -0.588794 0.565630 0.577349 -0.565630 -0.588794 -0.577349 0.588794 -0.565630 -0.577349 0.588794 -0.565630 0.577349 -0.565630 -0.588794 0.577349 0.588794 -0.565630 -0.577349 0.565630 0.588794 -0.577349 0.565630 0.588794 0.577349 0.588794 -0.565630 0.577349 0.565630 0.588794 -0.577349 -0.588794 0.565630 -0.577349 -0.588794 0.565630 0.577349 0.565630 0.588794 0.577349 0.565630 0.588794 -0.577349 0.588794 -0.565630 -0.577349 0.588794 -0.565630 0.577349 0.565630 0.588794 0.577349 " />
									<TextureCoordinate point="0.0441 0.7262 0.0441 0.9683 0.2924 0.9683 0.2924 0.7262 0.0441 0.7262 0.0441 0.9683 0.2924 0.9683 0.2924 0.7262 0.0441 0.7262 0.0441 0.9683 0.2924 0.9683 0.2924 0.7262 0.0441 0.7262 0.0441 0.9683 0.2924 0.9683 0.2924 0.7262 0.2924 0.9683 0.2924 0.7262 0.0441 0.7262 0.0441 0.9683 " />
								</IndexedTriangleSet>
							</Shape>
						</Group>
					</Transform>
				</Transform>
			</Transform>
			<Transform DEF="Cube_TRANSFORM"
			           translation="0.392094 0.000000 0.008462"
			           scale="1.000000 1.000000 1.000000"
			           rotation="0.000000 1.000000 0.000000 0.000000"
			           >
				<Transform DEF="Cube_ifs_TRANSFORM"
				           translation="0.000000 0.000000 0.000000"
				           scale="1.000000 1.000000 1.000000"
				           rotation="0.000000 1.000000 0.000000 0.000000"
				           >
					<Group DEF="group_ME_Cube_001">
						<Shape>
							<Appearance>
								<Material USE="MA_Body" />
							</Appearance>
							<IndexedTriangleSet solid="false"
							                    normalPerVertex="true"
							                    index="0 1 2 0 2 3 4 5 6 4 6 7 8 9 10 8 10 11 12 13 14 12 14 15 16 17 18 16 18 19 20 5 14 20 14 21 "
							                    >
								<Coordinate point="-0.084587 -0.090204 -0.027804 -0.084587 -0.090204 0.000000 -0.084587 0.090204 0.000000 -0.084587 0.090204 -0.027804 -0.084587 0.090204 -0.027804 -0.084587 0.090204 0.000000 0.084587 0.090204 0.000000 0.084587 0.090204 -0.027804 0.084587 0.090204 -0.027804 0.084587 0.090204 0.000000 0.084587 -0.090204 0.000000 0.084587 -0.090204 -0.027804 0.084587 -0.090204 -0.027804 0.084587 -0.090204 0.000000 -0.084587 -0.090204 0.000000 -0.084587 -0.090204 -0.027804 -0.084587 0.090204 -0.027804 0.084587 0.090204 -0.027804 0.084587 -0.090204 -0.027804 -0.084587 -0.090204 -0.027804 0.084587 0.090204 0.000000 0.084587 -0.090204 0.000000 " />
								<Normal vector="-0.577349 -0.577349 -0.577349 -0.577349 -0.577349 0.577349 -0.577349 0.577349 0.577349 -0.577349 0.577349 -0.577349 -0.577349 0.577349 -0.577349 -0.577349 0.577349 0.577349 0.577349 0.577349 0.577349 0.577349 0.577349 -0.577349 0.577349 0.577349 -0.577349 0.577349 0.577349 0.577349 0.577349 -0.577349 0.577349 0.577349 -0.577349 -0.577349 0.577349 -0.577349 -0.577349 0.577349 -0.577349 0.577349 -0.577349 -0.577349 0.577349 -0.577349 -0.577349 -0.577349 -0.577349 0.577349 -0.577349 0.577349 0.577349 -0.577349 0.577349 -0.577349 -0.577349 -0.577349 -0.577349 -0.577349 0.577349 0.577349 0.577349 0.577349 -0.577349 0.577349 " />
								<TextureCoordinate point="0.7345 0.9091 0.7675 0.9091 0.7675 0.9768 0.7345 0.9768 0.7345 0.9091 0.7675 0.9091 0.7675 0.9768 0.7345 0.9768 0.7345 0.9091 0.7675 0.9091 0.7675 0.9768 0.7345 0.9768 0.7345 0.9091 0.7675 0.9091 0.7675 0.9768 0.7345 0.9768 0.7733 0.5724 0.9453 0.5724 0.9453 0.9296 0.7733 0.9296 0.7345 0.9091 0.7345 0.9768 " />
							</IndexedTriangleSet>
						</Shape>
					</Group>
				</Transform>
			</Transform>
		</Transform>
	</Scene>
</X3D>