<?xml version="1.0" encoding="UTF-8"?>
<!DOCTYPE X3D PUBLIC "ISO//Web3D//DTD X3D 3.0//EN" "http://www.web3d.org/specifications/x3d-3.0.dtd">
<X3D version="3.0" profile="Immersive" xmlns:xsd="http://www.w3.org/2001/XMLSchema-instance" xsd:noNamespaceSchemaLocation="http://www.web3d.org/specifications/x3d-3.0.xsd">
	<head>
		<meta name="filename" content="pyukumuku.x3d" />
		<meta name="generator" content="Blender 2.93.18" />
	</head>
	<Scene>
		<NavigationInfo headlight="true"
		                visibilityLimit="0.0"
		                type='"EXAMINE", "ANY"'
		                avatarSize="0.25, 1.75, 0.75"
		                />
		<Background DEF="WO_World"
		            groundColor="0.051 0.051 0.051"
		            skyColor="0.051 0.051 0.051"
		            />
		<Transform DEF="body_TRANSFORM"
		           translation="0.000000 0.000000 0.000000"
		           scale="1.000000 1.000000 1.000000"
		           rotation="0.000000 0.000000 1.000000 3.141593"
		           >
			<Transform DEF="body_ifs_TRANSFORM"
			           translation="0.000000 0.000000 0.000000"
			           scale="1.000000 1.000000 1.000000"
			           rotation="0.000000 1.000000 0.000000 0.000000"
			           >
				<Group DEF="group_ME_body">
					<Shape>
						<Appearance>
							<Material DEF="MA_Body"
							          diffuseColor="0.800 0.800 0.800"
							          specularColor="0.401 0.401 0.401"
							          emissiveColor="0.000 0.000 0.000"
							          ambientIntensity="0.000"
							          shininess="0.500"
							          transparency="0.0"
							          />
						</Appearance>
						<IndexedTriangleSet solid="false"
						                    normalPerVertex="true"
						                    index="0 1 2 0 2 3 4 5 6 4 6 7 8 9 10 8 10 11 12 13 14 12 14 15 4 16 17 4 17 15 18 5 14 18 14 19 "
						                    >
							<Coordinate point="-1.491606 -1.000000 0.000000 -1.491606 -1.000000 2.373466 -1.491606 1.000000 2.373466 -1.491606 1.000000 0.000000 -1.491606 1.000000 0.000000 -1.491606 1.000000 2.373466 1.491606 1.000000 2.373466 1.491606 1.000000 0.000000 1.491606 1.000000 0.000000 1.491606 1.000000 2.373466 1.491606 -1.000000 2.373466 1.491606 -1.000000 0.000000 1.491606 -1.000000 0.000000 1.491606 -1.000000 2.373466 -1.491606 -1.000000 2.373466 -1.491606 -1.000000 0.000000 1.491606 1.000000 0.000000 1.491606 -1.000000 0.000000 1.491606 1.000000 2.373466 1.491606 -1.000000 2.373466 " />
							<Normal vector="-0.577349 -0.577349 -0.577349 -0.577349 -0.577349 0.577349 -0.577349 0.577349 0.577349 -0.577349 0.577349 -0.577349 -0.577349 0.577349 -0.577349 -0.577349 0.577349 0.577349 0.577349 0.577349 0.577349 0.577349 0.577349 -0.577349 0.577349 0.577349 -0.577349 0.577349 0.577349 0.577349 0.577349 -0.577349 0.577349 0.577349 -0.577349 -0.577349 0.577349 -0.577349 -0.577349 0.577349 -0.577349 0.577349 -0.577349 -0.577349 0.577349 -0.577349 -0.577349 -0.577349 0.577349 0.577349 -0.577349 0.577349 -0.577349 -0.577349 0.577349 0.577349 0.577349 0.577349 -0.577349 0.577349 " />
							<TextureCoordinate point="0.0208 0.5436 0.1979 0.5436 0.1979 0.9525 0.0208 0.9525 0.0208 0.5436 0.1979 0.5436 0.1979 0.9525 0.0208 0.9525 0.0208 0.5436 0.1979 0.5436 0.1979 0.9525 0.0208 0.9525 0.0208 0.5436 0.1979 0.5436 0.1979 0.9525 0.0208 0.9525 0.1979 0.5436 0.1979 0.9525 0.0208 0.5436 0.0208 0.9525 " />
						</IndexedTriangleSet>
					</Shape>
				</Group>
			</Transform>
			<Transform DEF="head_TRANSFORM"
			           translation="0.000000 -0.929890 1.129152"
			           scale="1.000000 1.000000 1.000000"
			           rotation="0.000000 1.000000 0.000000 0.000000"
			           >
				<Transform DEF="head_ifs_TRANSFORM"
				           translation="0.000000 0.000000 0.000000"
				           scale="1.000000 1.000000 1.000000"
				           rotation="0.000000 1.000000 0.000000 0.000000"
				           >
					<Group DEF="group_ME_head">
						<Shape>
							<Appearance>
								<Material USE="MA_Body" />
							</Appearance>
							<IndexedTriangleSet solid="false"
							                    normalPerVertex="true"
							                    index="0 1 2 0 2 3 4 5 6 4 6 7 8 9 10 8 10 11 12 13 14 12 14 15 16 17 18 16 18 19 20 21 14 20 14 22 23 24 25 23 25 26 27 12 15 27 15 28 29 30 31 29 31 32 33 8 11 33 11 34 35 36 37 35 37 38 39 4 7 39 7 40 41 42 43 41 43 44 45 0 3 45 3 46 47 48 49 47 49 50 51 52 4 51 4 39 53 54 55 53 55 56 57 58 36 57 36 35 59 60 61 59 61 62 63 64 65 63 65 66 67 68 24 67 24 23 69 70 71 69 71 72 73 20 22 73 22 74 53 75 76 53 76 26 77 16 19 77 19 78 60 79 80 60 80 61 81 82 13 81 13 12 48 21 83 48 83 49 52 84 5 52 5 4 49 83 85 49 85 86 87 88 84 87 84 52 61 80 89 61 89 90 91 92 82 91 82 81 75 93 94 75 94 76 95 77 78 95 78 96 70 97 98 70 98 71 99 73 74 99 74 100 66 65 101 66 101 102 103 104 68 103 68 67 105 91 81 105 81 106 56 55 107 56 107 108 109 110 58 109 58 57 50 49 86 50 86 111 112 87 52 112 52 51 111 86 113 111 113 114 114 113 87 114 87 112 108 107 115 108 115 116 116 115 110 116 110 109 117 90 118 117 118 119 120 121 122 120 122 123 102 101 124 102 124 125 125 124 104 125 104 103 97 126 127 97 127 98 126 99 100 126 100 127 93 128 129 93 129 94 128 95 96 128 96 129 90 89 130 90 130 118 118 130 92 118 92 91 86 85 131 86 131 113 113 131 88 113 88 87 132 120 123 132 123 133 101 117 119 101 119 124 115 114 112 115 112 110 107 111 114 107 114 115 110 112 51 110 51 58 55 50 111 55 111 107 104 105 106 104 106 68 65 62 117 65 117 101 68 106 27 68 27 24 64 59 62 64 62 65 58 51 39 58 39 36 54 47 50 54 50 55 42 45 46 42 46 43 36 39 40 36 40 37 30 33 34 30 34 31 24 27 28 24 28 25 "
							                    >
								<Coordinate point="-1.189003 -1.145458 0.219890 -1.189003 -1.145458 1.001233 -1.189003 0.000000 1.001233 -1.189003 0.000000 0.219890 1.145277 0.000000 0.219890 1.145277 0.000000 1.001233 1.189003 0.000000 1.001233 1.189003 0.000000 0.219890 1.189003 0.000000 0.219890 1.189003 0.000000 1.001233 1.189003 -1.145458 1.001233 1.189003 -1.145458 0.219890 -1.145277 -1.145458 0.219890 -1.145277 -1.145458 1.001233 -1.189003 -1.145458 1.001233 -1.189003 -1.145458 0.219890 1.145277 0.000000 -1.001233 1.189003 0.000000 -1.001233 1.189003 -1.145458 -1.001233 1.145277 -1.145458 -1.001233 -1.145277 0.000000 1.001233 -1.189003 0.000000 1.001233 -1.145277 -1.145458 1.001233 -1.145277 -1.145458 -1.001233 -1.145277 -1.145458 -0.519885 -1.189003 -1.145458 -0.519885 -1.189003 -1.145458 -1.001233 -1.145277 -1.145458 -0.179596 -1.189003 -1.145458 -0.179596 1.189003 0.000000 -1.001233 1.189003 0.000000 -0.519885 1.189003 -1.145458 -0.519885 1.189003 -1.145458 -1.001233 1.189003 0.000000 -0.179596 1.189003 -1.145458 -0.179596 1.145277 0.000000 -1.001233 1.145277 0.000000 -0.519885 1.189003 0.000000 -0.519885 1.189003 0.000000 -1.001233 1.145277 0.000000 -0.179596 1.189003 0.000000 -0.179596 -1.189003 -1.145458 -1.001233 -1.189003 -1.145458 -0.519885 -1.189003 0.000000 -0.519885 -1.189003 0.000000 -1.001233 -1.189003 -1.145458 -0.179596 -1.189003 0.000000 -0.179596 -1.189003 0.000000 -0.179596 -1.189003 0.000000 0.219890 -1.145277 0.000000 0.219890 -1.145277 0.000000 -0.179596 0.812678 0.000000 -0.179596 0.812678 0.000000 0.219890 -1.189003 0.000000 -1.001233 -1.189003 0.000000 -0.519885 -1.145277 0.000000 -0.519885 -1.145277 0.000000 -1.001233 0.812678 0.000000 -1.001233 0.812678 0.000000 -0.519885 1.189003 -1.145458 -0.179596 1.189003 -1.145458 0.219890 1.145277 -1.145458 0.219890 1.145277 -1.145458 -0.179596 1.189003 -1.145458 -1.001233 1.189003 -1.145458 -0.519885 1.145277 -1.145458 -0.519885 1.145277 -1.145458 -1.001233 -0.812678 -1.145458 -1.001233 -0.812678 -1.145458 -0.519885 1.189003 0.000000 1.001233 1.145277 0.000000 1.001233 1.145277 -1.145458 1.001233 1.189003 -1.145458 1.001233 -0.812678 0.000000 1.001233 -0.812678 -1.145458 1.001233 -1.145277 0.000000 -1.001233 -1.145277 -1.145458 -1.001233 0.812678 0.000000 -1.001233 0.812678 -1.145458 -1.001233 1.189003 -1.145458 1.001233 1.145277 -1.145458 1.001233 -0.812678 -1.145458 0.219890 -0.812678 -1.145458 1.001233 -1.145277 0.000000 1.001233 0.812678 0.000000 1.001233 -0.812678 0.000000 1.001233 -0.812678 0.000000 0.219890 0.459485 0.000000 0.219890 0.459485 0.000000 1.001233 0.812678 -1.145458 1.001233 0.812678 -1.145458 0.219890 -0.459485 -1.145458 0.219890 -0.459485 -1.145458 1.001233 -0.812678 0.000000 -1.001233 -0.812678 -1.145458 -1.001233 0.459485 0.000000 -1.001233 0.459485 -1.145458 -1.001233 0.812678 0.000000 1.001233 0.812678 -1.145458 1.001233 -0.459485 0.000000 1.001233 -0.459485 -1.145458 1.001233 0.812678 -1.145458 -0.519885 0.812678 -1.145458 -1.001233 -0.459485 -1.145458 -1.001233 -0.459485 -1.145458 -0.519885 -0.459485 -1.145458 -0.179596 -0.812678 -1.145458 -0.179596 -0.812678 0.000000 -0.519885 -0.812678 0.000000 -1.001233 0.459485 0.000000 -1.001233 0.459485 0.000000 -0.519885 -0.812678 0.000000 -0.179596 0.459485 0.000000 -0.179596 -0.459485 0.000000 0.219890 -0.459485 0.000000 -0.179596 -0.459485 0.000000 -0.519885 -0.459485 0.000000 -1.001233 0.812678 -1.145458 -0.179596 0.459485 -1.145458 0.219890 0.459485 -1.145458 -0.179596 0.459485 -1.145458 -0.179596 0.459485 -1.145458 0.219890 -0.459485 -1.145458 0.219890 -0.459485 -1.145458 -0.179596 0.459485 -1.145458 -0.519885 0.459485 -1.145458 -1.001233 0.459485 0.000000 1.001233 0.459485 -1.145458 1.001233 -0.459485 0.000000 -1.001233 -0.459485 -1.145458 -1.001233 0.459485 -1.145458 1.001233 -0.459485 0.000000 1.001233 0.459485 -1.145458 -0.519885 -0.459485 -1.145458 -0.519885 " />
								<Normal vector="-0.707083 -0.707083 0.000000 -0.577349 -0.577349 0.577349 -0.577349 0.577349 0.577349 -0.707083 0.707083 0.000000 0.000000 1.000000 0.000000 0.000000 0.707083 0.707083 0.577349 0.577349 0.577349 0.707083 0.707083 0.000000 0.707083 0.707083 0.000000 0.577349 0.577349 0.577349 0.577349 -0.577349 0.577349 0.707083 -0.707083 0.000000 0.000000 -1.000000 0.000000 0.000000 -0.707083 0.707083 -0.577349 -0.577349 0.577349 -0.707083 -0.707083 0.000000 0.000000 0.707083 -0.707083 0.577349 0.577349 -0.577349 0.577349 -0.577349 -0.577349 0.000000 -0.707083 -0.707083 0.000000 0.707083 0.707083 -0.577349 0.577349 0.577349 0.000000 -0.707083 0.707083 0.000000 -0.707083 -0.707083 0.000000 -1.000000 0.000000 -0.707083 -0.707083 0.000000 -0.577349 -0.577349 -0.577349 0.000000 -1.000000 0.000000 -0.707083 -0.707083 0.000000 0.577349 0.577349 -0.577349 0.707083 0.707083 0.000000 0.707083 -0.707083 0.000000 0.577349 -0.577349 -0.577349 0.707083 0.707083 0.000000 0.707083 -0.707083 0.000000 0.000000 0.707083 -0.707083 0.000000 1.000000 0.000000 0.707083 0.707083 0.000000 0.577349 0.577349 -0.577349 0.000000 1.000000 0.000000 0.707083 0.707083 0.000000 -0.577349 -0.577349 -0.577349 -0.707083 -0.707083 0.000000 -0.707083 0.707083 0.000000 -0.577349 0.577349 -0.577349 -0.707083 -0.707083 0.000000 -0.707083 0.707083 0.000000 -0.707083 0.707083 0.000000 -0.707083 0.707083 0.000000 0.000000 1.000000 0.000000 0.000000 1.000000 0.000000 0.000000 1.000000 0.000000 0.000000 1.000000 0.000000 -0.577349 0.577349 -0.577349 -0.707083 0.707083 0.000000 0.000000 1.000000 0.000000 0.000000 0.707083 -0.707083 0.000000 0.707083 -0.707083 0.000000 1.000000 0.000000 0.707083 -0.707083 0.000000 0.707083 -0.707083 0.000000 0.000000 -1.000000 0.000000 0.000000 -1.000000 0.000000 0.577349 -0.577349 -0.577349 0.707083 -0.707083 0.000000 0.000000 -1.000000 0.000000 0.000000 -0.707083 -0.707083 0.000000 -0.707083 -0.707083 0.000000 -1.000000 0.000000 0.577349 0.577349 0.577349 0.000000 0.707083 0.707083 0.000000 -0.707083 0.707083 0.577349 -0.577349 0.577349 0.000000 0.707083 0.707083 0.000000 -0.707083 0.707083 0.000000 0.707083 -0.707083 0.000000 -0.707083 -0.707083 0.000000 0.707083 -0.707083 0.000000 -0.707083 -0.707083 0.577349 -0.577349 0.577349 0.000000 -0.707083 0.707083 0.000000 -1.000000 0.000000 0.000000 -0.707083 0.707083 0.000000 0.707083 0.707083 0.000000 0.707083 0.707083 0.000000 0.707083 0.707083 0.000000 1.000000 0.000000 0.000000 1.000000 0.000000 0.000000 0.707083 0.707083 0.000000 -0.707083 0.707083 0.000000 -1.000000 0.000000 0.000000 -1.000000 0.000000 0.000000 -0.707083 0.707083 0.000000 0.707083 -0.707083 0.000000 -0.707083 -0.707083 0.000000 0.707083 -0.707083 0.000000 -0.707083 -0.707083 0.000000 0.707083 0.707083 0.000000 -0.707083 0.707083 0.000000 0.707083 0.707083 0.000000 -0.707083 0.707083 0.000000 -1.000000 0.000000 0.000000 -0.707083 -0.707083 0.000000 -0.707083 -0.707083 0.000000 -1.000000 0.000000 0.000000 -1.000000 0.000000 0.000000 -1.000000 0.000000 0.000000 1.000000 0.000000 0.000000 0.707083 -0.707083 0.000000 0.707083 -0.707083 0.000000 1.000000 0.000000 0.000000 1.000000 0.000000 0.000000 1.000000 0.000000 0.000000 1.000000 0.000000 0.000000 1.000000 0.000000 0.000000 1.000000 0.000000 0.000000 0.707083 -0.707083 0.000000 -1.000000 0.000000 0.000000 -1.000000 0.000000 0.000000 -1.000000 0.000000 0.000000 -1.000000 0.000000 0.000000 -1.000000 0.000000 0.000000 -1.000000 0.000000 0.000000 -1.000000 0.000000 0.000000 -1.000000 0.000000 0.000000 -0.707083 -0.707083 0.000000 0.707083 0.707083 0.000000 -0.707083 0.707083 0.000000 0.707083 -0.707083 0.000000 -0.707083 -0.707083 0.000000 -0.707083 0.707083 0.000000 0.707083 0.707083 0.000000 -1.000000 0.000000 0.000000 -1.000000 0.000000 " />
								<TextureCoordinate point="0.1256 0.5436 0.1979 0.5436 0.1979 0.9525 0.1256 0.9525 0.1256 0.8162 0.1979 0.8162 0.1979 0.9525 0.1256 0.9525 0.1256 0.5436 0.1979 0.5436 0.1979 0.9525 0.1256 0.9525 0.1256 0.8162 0.1979 0.8162 0.1979 0.9525 0.1256 0.9525 0.1389 0.5436 0.1979 0.5436 0.1979 0.9525 0.1389 0.9525 0.1389 0.5436 0.1979 0.5436 0.1389 0.9525 0.0208 0.8162 0.0666 0.8162 0.0666 0.9525 0.0208 0.9525 0.0883 0.8162 0.0883 0.9525 0.0208 0.5436 0.0666 0.5436 0.0666 0.9525 0.0208 0.9525 0.0883 0.5436 0.0883 0.9525 0.0208 0.8162 0.0666 0.8162 0.0666 0.9525 0.0208 0.9525 0.0883 0.8162 0.0883 0.9525 0.0208 0.5436 0.0666 0.5436 0.0666 0.9525 0.0208 0.9525 0.0883 0.5436 0.0883 0.9525 0.0883 0.5436 0.1256 0.5436 0.1256 0.6799 0.0883 0.6799 0.0883 0.7708 0.1256 0.7708 0.0208 0.5436 0.0666 0.5436 0.0666 0.6799 0.0208 0.6799 0.0208 0.7708 0.0666 0.7708 0.0883 0.5436 0.1256 0.5436 0.1256 0.6799 0.0883 0.6799 0.0208 0.5436 0.0666 0.5436 0.0666 0.6799 0.0208 0.6799 0.0208 0.7708 0.0666 0.7708 0.0208 0.5436 0.0798 0.5436 0.0798 0.9525 0.0208 0.9525 0.1192 0.5436 0.1192 0.9525 0.0798 0.5436 0.0798 0.9525 0.1192 0.5436 0.1192 0.9525 0.1979 0.5436 0.1979 0.6799 0.1256 0.7708 0.1979 0.7708 0.1979 0.6799 0.1979 0.7708 0.1979 0.7253 0.1256 0.7253 0.1256 0.7556 0.1979 0.7556 0.1979 0.7253 0.1256 0.7253 0.1256 0.7556 0.1979 0.7556 0.0995 0.5436 0.0995 0.9525 0.1126 0.5436 0.1126 0.9525 0.0995 0.5436 0.0995 0.9525 0.1126 0.5436 0.1126 0.9525 0.0666 0.7253 0.0208 0.7253 0.0208 0.7556 0.0666 0.7556 0.0883 0.7556 0.0883 0.7708 0.0666 0.7253 0.0208 0.7253 0.0208 0.7556 0.0666 0.7556 0.0883 0.7253 0.0883 0.7556 0.1256 0.7405 0.0883 0.7405 0.0666 0.7405 0.0208 0.7405 0.0883 0.7253 0.1256 0.7405 0.0883 0.7405 0.9757 0.4249 0.9757 0.9585 0.4961 0.9585 0.4961 0.4249 0.0666 0.7405 0.0208 0.7405 0.1061 0.5436 0.1061 0.9525 0.1061 0.5436 0.1061 0.9525 0.1979 0.7405 0.1979 0.7405 0.9757 0.0415 0.4961 0.0415 " />
							</IndexedTriangleSet>
						</Shape>
						<Shape>
							<Appearance>
								<Material DEF="MA_Head"
								          diffuseColor="0.800 0.800 0.800"
								          specularColor="0.401 0.401 0.401"
								          emissiveColor="0.000 0.000 0.000"
								          ambientIntensity="0.000"
								          shininess="0.500"
								          transparency="0.0"
								          />
							</Appearance>
							<IndexedTriangleSet solid="false"
							                    normalPerVertex="true"
							                    index="0 1 2 0 2 3 4 5 6 4 6 7 "
							                    >
								<Coordinate point="-0.812678 -1.145458 -0.179596 -0.812678 -1.145458 0.219890 -1.145277 -1.145458 0.219890 -1.145277 -1.145458 -0.179596 1.145277 -1.145458 -0.179596 1.145277 -1.145458 0.219890 0.812678 -1.145458 0.219890 0.812678 -1.145458 -0.179596 " />
								<Normal vector="0.000000 -1.000000 0.000000 0.000000 -1.000000 0.000000 0.000000 -1.000000 0.000000 0.000000 -1.000000 0.000000 0.000000 -1.000000 0.000000 0.000000 -1.000000 0.000000 0.000000 -1.000000 0.000000 0.000000 -1.000000 0.000000 " />
								<TextureCoordinate point="0.9467 0.5178 0.9467 0.9907 0.0533 0.9907 0.0533 0.5178 0.9467 0.5178 0.9467 0.9907 0.0533 0.9907 0.0533 0.5178 " />
							</IndexedTriangleSet>
						</Shape>
					</Group>
				</Transform>
				<Transform DEF="Cube_007_TRANSFORM"
				           translation="0.952016 -0.451448 0.588938"
				           scale="1.000000 1.000000 1.000000"
				           rotation="0.000000 1.000000 0.000000 0.000000"
				           >
					<Transform DEF="Cube_007_ifs_TRANSFORM"
					           translation="0.000000 0.000000 0.000000"
					           scale="1.000000 1.000000 1.000000"
					           rotation="0.000000 1.000000 0.000000 0.000000"
					           >
						<Group DEF="group_ME_Cube_007">
							<Shape>
								<Appearance>
									<Material USE="MA_Body" />
								</Appearance>
								<IndexedTriangleSet solid="false"
								                    normalPerVertex="true"
								                    index="0 1 2 0 2 3 4 5 6 4 6 7 8 9 10 8 10 11 12 13 14 12 14 15 4 16 17 4 17 15 18 14 19 18 19 20 20 19 21 5 14 18 5 18 22 23 20 21 5 22 23 21 5 23 24 25 26 24 26 27 28 29 30 28 30 31 32 33 34 32 34 35 36 37 38 36 38 39 40 29 38 40 38 41 "
								                    >
									<Coordinate point="-0.233626 -0.194374 0.063156 0.044720 -0.391796 0.485206 0.132368 0.000852 0.611070 -0.145978 0.198274 0.189021 -0.145978 0.198274 0.189021 0.132368 0.000852 0.611070 0.511972 -0.003048 0.358893 0.233626 0.194374 -0.063156 0.233626 0.194374 -0.063156 0.511972 -0.003048 0.358893 0.424324 -0.395696 0.233028 0.145978 -0.198274 -0.189021 0.145978 -0.198274 -0.189021 0.424324 -0.395696 0.233028 0.044720 -0.391796 0.485206 -0.233626 -0.194374 0.063156 0.233626 0.194374 -0.063156 0.145978 -0.198274 -0.189021 0.106258 -0.340597 0.468570 0.424324 -0.395696 0.233028 0.385873 -0.343470 0.282817 0.511972 -0.003048 0.358893 0.170819 -0.051374 0.561281 0.450434 -0.054247 0.375528 0.281185 -0.464667 0.733808 0.345746 -0.175444 0.826519 0.170819 -0.051374 0.561281 0.106258 -0.340597 0.468570 0.170819 -0.051374 0.561281 0.345746 -0.175444 0.826519 0.625361 -0.178317 0.640766 0.450434 -0.054247 0.375528 0.450434 -0.054247 0.375528 0.625361 -0.178317 0.640766 0.560800 -0.467540 0.548055 0.385873 -0.343470 0.282817 0.385873 -0.343470 0.282817 0.560800 -0.467540 0.548055 0.281185 -0.464667 0.733808 0.106258 -0.340597 0.468570 0.625361 -0.178317 0.640766 0.560800 -0.467540 0.548055 " />
									<Normal vector="-0.897000 -0.322825 -0.301859 -0.304819 -0.742821 0.596026 -0.064730 0.332682 0.940794 -0.656911 0.752708 0.042879 -0.656911 0.752708 0.042879 -0.064730 0.332682 0.940794 0.897000 0.322825 0.301859 0.304819 0.742821 -0.596026 0.304819 0.742821 -0.596026 0.897000 0.322825 0.301859 0.656911 -0.752708 -0.042879 0.064730 -0.332682 -0.940794 0.064730 -0.332682 -0.940794 0.656911 -0.752708 -0.042879 -0.304819 -0.742821 0.596026 -0.897000 -0.322825 -0.301859 0.304819 0.742821 -0.596026 0.064730 -0.332682 -0.940794 0.150029 -0.607257 0.780175 0.656911 -0.752708 -0.042879 0.652303 -0.612415 0.446516 0.897000 0.322825 0.301859 -0.064730 0.332682 0.940794 0.897000 0.322825 0.301859 -0.304819 -0.742821 0.596026 -0.064730 0.332682 0.940794 -0.064730 0.332682 0.940794 0.150029 -0.607257 0.780175 -0.064730 0.332682 0.940794 -0.064730 0.332682 0.940794 0.897000 0.322825 0.301859 0.897000 0.322825 0.301859 0.897000 0.322825 0.301859 0.897000 0.322825 0.301859 0.656911 -0.752708 -0.042879 0.652303 -0.612415 0.446516 0.652303 -0.612415 0.446516 0.656911 -0.752708 -0.042879 -0.304819 -0.742821 0.596026 0.150029 -0.607257 0.780175 0.897000 0.322825 0.301859 0.656911 -0.752708 -0.042879 " />
									<TextureCoordinate point="0.0208 0.0475 0.1979 0.0475 0.1979 0.4564 0.0208 0.4564 0.0208 0.0475 0.1979 0.0475 0.1979 0.4564 0.0208 0.4564 0.0208 0.0475 0.1979 0.0475 0.1979 0.4564 0.0208 0.4564 0.0208 0.0475 0.1979 0.0475 0.1979 0.4564 0.0208 0.4564 0.1979 0.0475 0.1979 0.4564 0.1746 0.4026 0.0208 0.4564 0.0441 0.4026 0.0208 0.0475 0.1746 0.1014 0.0441 0.1014 0.1979 0.0475 0.1979 0.4564 0.0468 0.4564 0.0468 0.0475 0.0468 0.0475 0.1979 0.0475 0.1979 0.4564 0.0468 0.4564 0.0468 0.0475 0.1979 0.0475 0.1979 0.4564 0.0468 0.4564 0.0468 0.0475 0.1979 0.0475 0.1979 0.4564 0.0468 0.4564 0.0208 0.0475 0.0208 0.4564 " />
								</IndexedTriangleSet>
							</Shape>
						</Group>
					</Transform>
				</Transform>
				<Transform DEF="arm_TRANSFORM"
				           translation="0.000000 -1.110554 -0.160517"
				           scale="1.000000 1.000000 1.000000"
				           rotation="0.000000 1.000000 0.000000 0.000000"
				           >
					<Transform DEF="arm_ifs_TRANSFORM"
					           translation="0.000000 0.000000 0.000000"
					           scale="1.000000 1.000000 1.000000"
					           rotation="0.000000 1.000000 0.000000 0.000000"
					           >
						<Group DEF="group_ME_arm">
							<Shape>
								<Appearance>
									<Material USE="MA_Body" />
								</Appearance>
								<IndexedTriangleSet solid="false"
								                    normalPerVertex="true"
								                    index="0 1 2 0 2 3 4 5 6 4 6 7 8 9 10 8 10 11 12 13 14 12 14 15 4 16 17 4 17 15 18 5 14 18 14 19 "
								                    >
									<Coordinate point="-0.067126 -0.659723 -0.092789 -0.067126 -0.659723 0.092789 -0.067126 0.000000 0.092789 -0.067126 0.000000 -0.092789 -0.067126 0.000000 -0.092789 -0.067126 0.000000 0.092789 0.067126 0.000000 0.092789 0.067126 0.000000 -0.092789 0.067126 0.000000 -0.092789 0.067126 0.000000 0.092789 0.067126 -0.659723 0.092789 0.067126 -0.659723 -0.092789 0.067126 -0.659723 -0.092789 0.067126 -0.659723 0.092789 -0.067126 -0.659723 0.092789 -0.067126 -0.659723 -0.092789 0.067126 0.000000 -0.092789 0.067126 -0.659723 -0.092789 0.067126 0.000000 0.092789 0.067126 -0.659723 0.092789 " />
									<Normal vector="-0.577349 -0.577349 -0.577349 -0.577349 -0.577349 0.577349 -0.577349 0.577349 0.577349 -0.577349 0.577349 -0.577349 -0.577349 0.577349 -0.577349 -0.577349 0.577349 0.577349 0.577349 0.577349 0.577349 0.577349 0.577349 -0.577349 0.577349 0.577349 -0.577349 0.577349 0.577349 0.577349 0.577349 -0.577349 0.577349 0.577349 -0.577349 -0.577349 0.577349 -0.577349 -0.577349 0.577349 -0.577349 0.577349 -0.577349 -0.577349 0.577349 -0.577349 -0.577349 -0.577349 0.577349 0.577349 -0.577349 0.577349 -0.577349 -0.577349 0.577349 0.577349 0.577349 0.577349 -0.577349 0.577349 " />
									<TextureCoordinate point="0.2321 0.5295 0.4268 0.5295 0.4268 0.9666 0.2321 0.9666 0.2321 0.5295 0.4268 0.5295 0.4268 0.9666 0.2321 0.9666 0.2321 0.5295 0.4268 0.5295 0.4268 0.9666 0.2321 0.9666 0.2321 0.5295 0.4268 0.5295 0.4268 0.9666 0.2321 0.9666 0.4268 0.5295 0.4268 0.9666 0.2321 0.5295 0.2321 0.9666 " />
								</IndexedTriangleSet>
							</Shape>
						</Group>
					</Transform>
					<Transform DEF="arm1_TRANSFORM"
					           translation="0.000000 -0.638069 -0.000000"
					           scale="1.000000 1.000000 1.000000"
					           rotation="0.000000 1.000000 0.000000 0.000000"
					           >
						<Transform DEF="arm1_ifs_TRANSFORM"
						           translation="0.000000 0.000000 0.000000"
						           scale="1.000000 1.000000 1.000000"
						           rotation="0.000000 1.000000 0.000000 0.000000"
						           >
							<Group DEF="group_ME_arm1">
								<Shape>
									<Appearance>
										<Material USE="MA_Body" />
									</Appearance>
									<IndexedTriangleSet solid="false"
									                    normalPerVertex="true"
									                    index="0 1 2 0 2 3 4 5 6 4 6 7 8 9 10 8 10 11 12 13 14 12 14 15 4 16 17 4 17 15 18 5 14 18 14 19 "
									                    >
										<Coordinate point="-0.090268 -0.930834 -0.124777 -0.090268 -0.930834 0.124777 -0.090268 0.000000 0.124777 -0.090268 0.000000 -0.124777 -0.090268 0.000000 -0.124777 -0.090268 0.000000 0.124777 0.090268 0.000000 0.124777 0.090268 0.000000 -0.124777 0.090268 0.000000 -0.124777 0.090268 0.000000 0.124777 0.090268 -0.930834 0.124777 0.090268 -0.930834 -0.124777 0.090268 -0.930834 -0.124777 0.090268 -0.930834 0.124777 -0.090268 -0.930834 0.124777 -0.090268 -0.930834 -0.124777 0.090268 0.000000 -0.124777 0.090268 -0.930834 -0.124777 0.090268 0.000000 0.124777 0.090268 -0.930834 0.124777 " />
										<Normal vector="-0.577349 -0.577349 -0.577349 -0.577349 -0.577349 0.577349 -0.577349 0.577349 0.577349 -0.577349 0.577349 -0.577349 -0.577349 0.577349 -0.577349 -0.577349 0.577349 0.577349 0.577349 0.577349 0.577349 0.577349 0.577349 -0.577349 0.577349 0.577349 -0.577349 0.577349 0.577349 0.577349 0.577349 -0.577349 0.577349 0.577349 -0.577349 -0.577349 0.577349 -0.577349 -0.577349 0.577349 -0.577349 0.577349 -0.577349 -0.577349 0.577349 -0.577349 -0.577349 -0.577349 0.577349 0.577349 -0.577349 0.577349 -0.577349 -0.577349 0.577349 0.577349 0.577349 0.577349 -0.577349 0.577349 " />
										<TextureCoordinate point="0.2321 0.5295 0.4268 0.5295 0.4268 0.9666 0.2321 0.9666 0.2321 0.5295 0.4268 0.5295 0.4268 0.9666 0.2321 0.9666 0.2321 0.5295 0.4268 0.5295 0.4268 0.9666 0.2321 0.9666 0.2321 0.5295 0.4268 0.5295 0.4268 0.9666 0.2321 0.9666 0.4268 0.5295 0.4268 0.9666 0.2321 0.5295 0.2321 0.9666 " />
									</IndexedTriangleSet>
								</Shape>
							</Group>
						</Transform>
						<Transform DEF="arm2_TRANSFORM"
						           translation="0.000000 -0.907135 0.000000"
						           scale="1.000000 1.000000 1.000000"
						           rotation="0.000000 1.000000 0.000000 0.000000"
						           >
							<Transform DEF="arm2_ifs_TRANSFORM"
							           translation="0.000000 0.000000 0.000000"
							           scale="1.000000 1.000000 1.000000"
							           rotation="0.000000 1.000000 0.000000 0.000000"
							           >
								<Group DEF="group_ME_arm2">
									<Shape>
										<Appearance>
											<Material USE="MA_Body" />
										</Appearance>
										<IndexedTriangleSet solid="false"
										                    normalPerVertex="true"
										                    index="0 1 2 0 2 3 4 5 6 4 6 7 8 9 10 8 10 11 12 13 14 12 14 15 4 16 17 4 17 15 18 5 14 18 14 19 "
										                    >
											<Coordinate point="-0.191851 -1.348058 -0.170185 -0.191851 -1.345287 0.190856 -0.191851 0.001385 0.180520 -0.191851 -0.001385 -0.180520 -0.191851 -0.001385 -0.180520 -0.191851 0.001385 0.180520 0.191851 0.001385 0.180520 0.191851 -0.001385 -0.180520 0.191851 -0.001385 -0.180520 0.191851 0.001385 0.180520 0.191851 -1.345287 0.190856 0.191851 -1.348058 -0.170185 0.191851 -1.348058 -0.170185 0.191851 -1.345287 0.190856 -0.191851 -1.345287 0.190856 -0.191851 -1.348058 -0.170185 0.191851 -0.001385 -0.180520 0.191851 -1.348058 -0.170185 0.191851 0.001385 0.180520 0.191851 -1.345287 0.190856 " />
											<Normal vector="-0.577349 -0.581744 -0.572893 -0.577349 -0.572893 0.581744 -0.577349 0.581744 0.572893 -0.577349 0.572893 -0.581744 -0.577349 0.572893 -0.581744 -0.577349 0.581744 0.572893 0.577349 0.581744 0.572893 0.577349 0.572893 -0.581744 0.577349 0.572893 -0.581744 0.577349 0.581744 0.572893 0.577349 -0.572893 0.581744 0.577349 -0.581744 -0.572893 0.577349 -0.581744 -0.572893 0.577349 -0.572893 0.581744 -0.577349 -0.572893 0.581744 -0.577349 -0.581744 -0.572893 0.577349 0.572893 -0.581744 0.577349 -0.581744 -0.572893 0.577349 0.581744 0.572893 0.577349 -0.572893 0.581744 " />
											<TextureCoordinate point="0.2321 0.5295 0.4268 0.5295 0.4268 0.9666 0.2321 0.9666 0.2321 0.5295 0.4268 0.5295 0.4268 0.9666 0.2321 0.9666 0.2321 0.5295 0.4268 0.5295 0.4268 0.9666 0.2321 0.9666 0.2321 0.5295 0.4268 0.5295 0.4268 0.9666 0.2321 0.9666 0.4268 0.5295 0.4268 0.9666 0.2321 0.5295 0.2321 0.9666 " />
										</IndexedTriangleSet>
									</Shape>
								</Group>
							</Transform>
							<Transform DEF="arm3_TRANSFORM"
							           translation="0.000000 -1.180069 0.009057"
							           scale="1.000000 1.000000 1.000000"
							           rotation="0.000000 1.000000 0.000000 0.000000"
							           >
								<Transform DEF="arm3_ifs_TRANSFORM"
								           translation="0.000000 0.000000 0.000000"
								           scale="1.000000 1.000000 1.000000"
								           rotation="0.000000 1.000000 0.000000 0.000000"
								           >
									<Group DEF="group_ME_arm3">
										<Shape>
											<Appearance>
												<Material USE="MA_Body" />
											</Appearance>
											<IndexedTriangleSet solid="false"
											                    normalPerVertex="true"
											                    index="0 1 2 0 2 3 4 5 6 4 6 7 8 9 10 8 10 11 12 13 14 12 14 15 4 16 17 4 17 15 18 5 14 18 14 19 "
											                    >
												<Coordinate point="-0.283489 -1.127770 -0.225839 -0.283489 -1.124171 0.243123 -0.283489 0.001800 0.234481 -0.283489 -0.001800 -0.234481 -0.283489 -0.001800 -0.234481 -0.283489 0.001800 0.234481 0.283489 0.001800 0.234481 0.283489 -0.001800 -0.234481 0.283489 -0.001800 -0.234481 0.283489 0.001800 0.234481 0.283489 -1.124171 0.243123 0.283489 -1.127770 -0.225839 0.283489 -1.127770 -0.225839 0.283489 -1.124171 0.243123 -0.283489 -1.124171 0.243123 -0.283489 -1.127770 -0.225839 0.283489 -0.001800 -0.234481 0.283489 -1.127770 -0.225839 0.283489 0.001800 0.234481 0.283489 -1.124171 0.243123 " />
												<Normal vector="-0.577349 -0.581744 -0.572893 -0.577349 -0.572893 0.581744 -0.577349 0.581744 0.572893 -0.577349 0.572893 -0.581744 -0.577349 0.572893 -0.581744 -0.577349 0.581744 0.572893 0.577349 0.581744 0.572893 0.577349 0.572893 -0.581744 0.577349 0.572893 -0.581744 0.577349 0.581744 0.572893 0.577349 -0.572893 0.581744 0.577349 -0.581744 -0.572893 0.577349 -0.581744 -0.572893 0.577349 -0.572893 0.581744 -0.577349 -0.572893 0.581744 -0.577349 -0.581744 -0.572893 0.577349 0.572893 -0.581744 0.577349 -0.581744 -0.572893 0.577349 0.581744 0.572893 0.577349 -0.572893 0.581744 " />
												<TextureCoordinate point="0.2321 0.5295 0.4268 0.5295 0.4268 0.9666 0.2321 0.9666 0.2321 0.5295 0.4268 0.5295 0.4268 0.9666 0.2321 0.9666 0.2321 0.5295 0.4268 0.5295 0.4268 0.9666 0.2321 0.9666 0.2321 0.5295 0.4268 0.5295 0.4268 0.9666 0.2321 0.9666 0.4268 0.5295 0.4268 0.9666 0.2321 0.5295 0.2321 0.9666 " />
											</IndexedTriangleSet>
										</Shape>
									</Group>
								</Transform>
								<Transform DEF="arm4_TRANSFORM"
								           translation="0.000000 -0.993707 0.007627"
								           scale="1.000000 1.000000 1.000000"
								           rotation="0.000000 1.000000 0.000000 0.000000"
								           >
									<Transform DEF="arm4_ifs_TRANSFORM"
									           translation="0.000000 0.000000 0.000000"
									           scale="1.000000 1.000000 1.000000"
									           rotation="0.000000 1.000000 0.000000 0.000000"
									           >
										<Group DEF="group_ME_arm4">
											<Shape>
												<Appearance>
													<Material USE="MA_Body" />
												</Appearance>
												<IndexedTriangleSet solid="false"
												                    normalPerVertex="true"
												                    index="0 1 2 0 2 3 4 5 6 4 6 7 8 9 10 8 10 11 12 13 14 12 14 15 4 16 17 4 17 15 18 5 14 18 14 19 "
												                    >
													<Coordinate point="-0.386649 -1.288820 -0.377131 -0.386649 -1.282880 0.396869 -0.386649 0.002970 0.387000 -0.386649 -0.002970 -0.387000 -0.386649 -0.002970 -0.387000 -0.386649 0.002970 0.387000 0.386649 0.002970 0.387000 0.386649 -0.002970 -0.387000 0.386649 -0.002970 -0.387000 0.386649 0.002970 0.387000 0.386649 -1.282880 0.396869 0.386649 -1.288820 -0.377131 0.386649 -1.288820 -0.377131 0.386649 -1.282880 0.396869 -0.386649 -1.282880 0.396869 -0.386649 -1.288820 -0.377131 0.386649 -0.002970 -0.387000 0.386649 -1.288820 -0.377131 0.386649 0.002970 0.387000 0.386649 -1.282880 0.396869 " />
													<Normal vector="-0.577349 -0.581744 -0.572893 -0.577349 -0.572893 0.581744 -0.577349 0.581744 0.572893 -0.577349 0.572893 -0.581744 -0.577349 0.572893 -0.581744 -0.577349 0.581744 0.572893 0.577349 0.581744 0.572893 0.577349 0.572893 -0.581744 0.577349 0.572893 -0.581744 0.577349 0.581744 0.572893 0.577349 -0.572893 0.581744 0.577349 -0.581744 -0.572893 0.577349 -0.581744 -0.572893 0.577349 -0.572893 0.581744 -0.577349 -0.572893 0.581744 -0.577349 -0.581744 -0.572893 0.577349 0.572893 -0.581744 0.577349 -0.581744 -0.572893 0.577349 0.581744 0.572893 0.577349 -0.572893 0.581744 " />
													<TextureCoordinate point="0.2321 0.5295 0.4268 0.5295 0.4268 0.9666 0.2321 0.9666 0.2321 0.5295 0.4268 0.5295 0.4268 0.9666 0.2321 0.9666 0.2321 0.5295 0.4268 0.5295 0.4268 0.9666 0.2321 0.9666 0.2321 0.5295 0.4268 0.5295 0.4268 0.9666 0.2321 0.9666 0.4268 0.5295 0.4268 0.9666 0.2321 0.5295 0.2321 0.9666 " />
												</IndexedTriangleSet>
											</Shape>
										</Group>
									</Transform>
									<Transform DEF="hand_TRANSFORM"
									           translation="0.000000 -1.245388 0.009558"
									           scale="1.000000 1.000000 1.000000"
									           rotation="0.000000 1.000000 0.000000 0.000000"
									           >
										<Transform DEF="hand_ifs_TRANSFORM"
										           translation="0.000000 0.000000 0.000000"
										           scale="1.000000 1.000000 1.000000"
										           rotation="0.000000 1.000000 0.000000 0.000000"
										           >
											<Group DEF="group_ME_hand">
												<Shape>
													<Appearance>
														<Material USE="MA_Body" />
													</Appearance>
													<IndexedTriangleSet solid="false"
													                    normalPerVertex="true"
													                    index="0 1 2 0 2 3 4 5 6 4 6 7 8 9 10 8 10 11 12 13 14 12 14 15 4 16 17 4 17 15 18 5 14 18 14 19 "
													                    >
														<Coordinate point="-1.128272 -1.659448 -0.485583 -1.128272 -1.651799 0.510997 -1.128272 0.003824 0.498290 -1.128272 -0.003824 -0.498290 -1.128272 -0.003824 -0.498290 -1.128272 0.003824 0.498290 1.128272 0.003824 0.498290 1.128272 -0.003824 -0.498290 1.128272 -0.003824 -0.498290 1.128272 0.003824 0.498290 1.128272 -1.651799 0.510997 1.128272 -1.659448 -0.485583 1.128272 -1.659448 -0.485583 1.128272 -1.651799 0.510997 -1.128272 -1.651799 0.510997 -1.128272 -1.659448 -0.485583 1.128272 -0.003824 -0.498290 1.128272 -1.659448 -0.485583 1.128272 0.003824 0.498290 1.128272 -1.651799 0.510997 " />
														<Normal vector="-0.577349 -0.581744 -0.572893 -0.577349 -0.572893 0.581744 -0.577349 0.581744 0.572893 -0.577349 0.572893 -0.581744 -0.577349 0.572893 -0.581744 -0.577349 0.581744 0.572893 0.577349 0.581744 0.572893 0.577349 0.572893 -0.581744 0.577349 0.572893 -0.581744 0.577349 0.581744 0.572893 0.577349 -0.572893 0.581744 0.577349 -0.581744 -0.572893 0.577349 -0.581744 -0.572893 0.577349 -0.572893 0.581744 -0.577349 -0.572893 0.581744 -0.577349 -0.581744 -0.572893 0.577349 0.572893 -0.581744 0.577349 -0.581744 -0.572893 0.577349 0.581744 0.572893 0.577349 -0.572893 0.581744 " />
														<TextureCoordinate point="0.2321 0.5295 0.4268 0.5295 0.4268 0.9666 0.2321 0.9666 0.2321 0.5295 0.4268 0.5295 0.4268 0.9666 0.2321 0.9666 0.2321 0.5295 0.4268 0.5295 0.4268 0.9666 0.2321 0.9666 0.2321 0.5295 0.4268 0.5295 0.4268 0.9666 0.2321 0.9666 0.4268 0.5295 0.4268 0.9666 0.2321 0.5295 0.2321 0.9666 " />
													</IndexedTriangleSet>
												</Shape>
											</Group>
										</Transform>
										<Transform DEF="p3_TRANSFORM"
										           translation="-0.199262 -1.583026 0.012150"
										           scale="1.000000 1.000000 1.000000"
										           rotation="0.000000 1.000000 0.000000 0.000000"
										           >
											<Transform DEF="p3_ifs_TRANSFORM"
											           translation="0.000000 0.000000 0.000000"
											           scale="1.000000 1.000000 1.000000"
											           rotation="0.000000 1.000000 0.000000 0.000000"
											           >
												<Group DEF="group_ME_p3">
													<Shape>
														<Appearance>
															<Material USE="MA_Body" />
														</Appearance>
														<IndexedTriangleSet solid="false"
														                    normalPerVertex="true"
														                    index="0 1 2 0 2 3 4 5 6 4 6 7 8 9 10 8 10 11 12 13 14 12 14 15 4 16 17 4 17 15 18 5 14 18 14 19 "
														                    >
															<Coordinate point="-0.439157 -1.640045 -0.379397 -0.439157 -1.634029 0.404525 -0.383742 0.015896 0.391862 -0.383742 0.009879 -0.392060 -0.383742 0.009879 -0.392060 -0.383742 0.015896 0.391862 0.383742 -0.009879 0.392060 0.383742 -0.015896 -0.391862 0.383742 -0.015896 -0.391862 0.383742 -0.009879 0.392060 0.328326 -1.659804 0.404723 0.328326 -1.665821 -0.379199 0.328326 -1.665821 -0.379199 0.328326 -1.659804 0.404723 -0.439157 -1.634029 0.404525 -0.439157 -1.640045 -0.379397 0.383742 -0.015896 -0.391862 0.328326 -1.665821 -0.379199 0.383742 -0.009879 0.392060 0.328326 -1.659804 0.404723 " />
															<Normal vector="-0.596393 -0.562059 -0.573046 -0.596393 -0.553178 0.581591 -0.557634 0.600818 0.572741 -0.557634 0.591937 -0.581896 -0.557634 0.591937 -0.581896 -0.557634 0.600818 0.572741 0.596393 0.562059 0.573046 0.596393 0.553178 -0.581591 0.596393 0.553178 -0.581591 0.596393 0.562059 0.573046 0.557634 -0.591937 0.581896 0.557634 -0.600818 -0.572741 0.557634 -0.600818 -0.572741 0.557634 -0.591937 0.581896 -0.596393 -0.553178 0.581591 -0.596393 -0.562059 -0.573046 0.596393 0.553178 -0.581591 0.557634 -0.600818 -0.572741 0.596393 0.562059 0.573046 0.557634 -0.591937 0.581896 " />
															<TextureCoordinate point="0.2321 0.5295 0.4268 0.5295 0.4268 0.9666 0.2321 0.9666 0.2321 0.5295 0.4268 0.5295 0.4268 0.9666 0.2321 0.9666 0.2321 0.5295 0.4268 0.5295 0.4268 0.9666 0.2321 0.9666 0.2321 0.5295 0.4268 0.5295 0.4268 0.9666 0.2321 0.9666 0.4268 0.5295 0.4268 0.9666 0.2321 0.5295 0.2321 0.9666 " />
														</IndexedTriangleSet>
													</Shape>
												</Group>
											</Transform>
										</Transform>
										<Transform DEF="p4_TRANSFORM"
										           translation="0.324277 -1.477499 0.011439"
										           scale="1.000000 1.000000 1.000000"
										           rotation="0.000000 1.000000 0.000000 0.000000"
										           >
											<Transform DEF="p4_ifs_TRANSFORM"
											           translation="0.000000 0.000000 0.000000"
											           scale="1.000000 1.000000 1.000000"
											           rotation="0.000000 1.000000 0.000000 0.000000"
											           >
												<Group DEF="group_ME_p4">
													<Shape>
														<Appearance>
															<Material USE="MA_Body" />
														</Appearance>
														<IndexedTriangleSet solid="false"
														                    normalPerVertex="true"
														                    index="0 1 2 0 2 3 4 5 6 4 6 7 8 9 10 8 10 11 12 13 14 12 14 15 4 16 17 4 17 15 18 5 14 18 14 19 "
														                    >
															<Coordinate point="-0.095079 -1.700096 -0.351197 -0.096510 -1.694701 0.376005 -0.400005 -0.071983 0.363370 -0.398575 -0.077378 -0.363832 -0.398575 -0.077378 -0.363832 -0.400005 -0.071983 0.363370 0.398575 0.077378 0.363832 0.400005 0.071983 -0.363370 0.400005 0.071983 -0.363370 0.398575 0.077378 0.363832 0.702071 -1.545340 0.376468 0.703501 -1.550735 -0.350734 0.703501 -1.550735 -0.350734 0.702071 -1.545340 0.376468 -0.096510 -1.694701 0.376005 -0.095079 -1.700096 -0.351197 0.400005 0.071983 -0.363370 0.703501 -1.550735 -0.350734 0.398575 0.077378 0.363832 0.702071 -1.545340 0.376468 " />
															<Normal vector="-0.460219 -0.677908 -0.573229 -0.462478 -0.669332 0.581408 -0.674764 0.465621 0.572558 -0.672506 0.457045 -0.582080 -0.672506 0.457045 -0.582080 -0.674764 0.465621 0.572558 0.460219 0.677908 0.573229 0.462478 0.669332 -0.581408 0.462478 0.669332 -0.581408 0.460219 0.677908 0.573229 0.672506 -0.457045 0.582080 0.674764 -0.465621 -0.572558 0.674764 -0.465621 -0.572558 0.672506 -0.457045 0.582080 -0.462478 -0.669332 0.581408 -0.460219 -0.677908 -0.573229 0.462478 0.669332 -0.581408 0.674764 -0.465621 -0.572558 0.460219 0.677908 0.573229 0.672506 -0.457045 0.582080 " />
															<TextureCoordinate point="0.2321 0.5295 0.4268 0.5295 0.4268 0.9666 0.2321 0.9666 0.2321 0.5295 0.4268 0.5295 0.4268 0.9666 0.2321 0.9666 0.2321 0.5295 0.4268 0.5295 0.4268 0.9666 0.2321 0.9666 0.2321 0.5295 0.4268 0.5295 0.4268 0.9666 0.2321 0.9666 0.4268 0.5295 0.4268 0.9666 0.2321 0.5295 0.2321 0.9666 " />
														</IndexedTriangleSet>
													</Shape>
												</Group>
											</Transform>
										</Transform>
										<Transform DEF="p5_TRANSFORM"
										           translation="0.918374 -1.150327 0.010620"
										           scale="1.000000 1.000000 1.000000"
										           rotation="0.000000 1.000000 0.000000 0.000000"
										           >
											<Transform DEF="p5_ifs_TRANSFORM"
											           translation="0.000000 0.000000 0.000000"
											           scale="1.000000 1.000000 1.000000"
											           rotation="0.000000 1.000000 0.000000 0.000000"
											           >
												<Group DEF="group_ME_p5">
													<Shape>
														<Appearance>
															<Material USE="MA_Body" />
														</Appearance>
														<IndexedTriangleSet solid="false"
														                    normalPerVertex="true"
														                    index="0 1 2 0 2 3 4 5 6 4 6 7 8 9 10 8 10 11 12 13 14 12 14 15 4 16 17 4 17 15 18 5 14 18 14 19 "
														                    >
															<Coordinate point="0.043746 -1.436438 -0.320304 0.042026 -1.431661 0.341239 -0.331131 -0.089433 0.330577 -0.329412 -0.094210 -0.330967 -0.329412 -0.094210 -0.330967 -0.331131 -0.089433 0.330577 0.329412 0.094210 0.330967 0.331131 0.089433 -0.330577 0.331131 0.089433 -0.330577 0.329412 0.094210 0.330967 0.702570 -1.248018 0.341630 0.704289 -1.252795 -0.319914 0.704289 -1.252795 -0.319914 0.702570 -1.248018 0.341630 0.042026 -1.431661 0.341239 0.043746 -1.436438 -0.320304 0.331131 0.089433 -0.330577 0.704289 -1.252795 -0.319914 0.329412 0.094210 0.330967 0.702570 -1.248018 0.341630 " />
															<Normal vector="-0.400098 -0.715049 -0.573229 -0.403088 -0.706687 0.581408 -0.712394 0.405744 0.572558 -0.709372 0.397412 -0.582080 -0.709372 0.397412 -0.582080 -0.712394 0.405744 0.572558 0.400098 0.715049 0.573229 0.403088 0.706687 -0.581408 0.403088 0.706687 -0.581408 0.400098 0.715049 0.573229 0.709372 -0.397412 0.582080 0.712394 -0.405744 -0.572558 0.712394 -0.405744 -0.572558 0.709372 -0.397412 0.582080 -0.403088 -0.706687 0.581408 -0.400098 -0.715049 -0.573229 0.403088 0.706687 -0.581408 0.712394 -0.405744 -0.572558 0.400098 0.715049 0.573229 0.709372 -0.397412 0.582080 " />
															<TextureCoordinate point="0.2321 0.5295 0.4268 0.5295 0.4268 0.9666 0.2321 0.9666 0.2321 0.5295 0.4268 0.5295 0.4268 0.9666 0.2321 0.9666 0.2321 0.5295 0.4268 0.5295 0.4268 0.9666 0.2321 0.9666 0.2321 0.5295 0.4268 0.5295 0.4268 0.9666 0.2321 0.9666 0.4268 0.5295 0.4268 0.9666 0.2321 0.5295 0.2321 0.9666 " />
														</IndexedTriangleSet>
													</Shape>
												</Group>
											</Transform>
										</Transform>
										<Transform DEF="p2_TRANSFORM"
										           translation="-0.767788 -1.477072 0.012001"
										           scale="1.000000 1.000000 1.000000"
										           rotation="0.000000 1.000000 0.000000 0.000000"
										           >
											<Transform DEF="p2_ifs_TRANSFORM"
											           translation="0.000000 0.000000 0.000000"
											           scale="1.000000 1.000000 1.000000"
											           rotation="0.000000 1.000000 0.000000 0.000000"
											           >
												<Group DEF="group_ME_p2">
													<Shape>
														<Appearance>
															<Material USE="MA_Body" />
														</Appearance>
														<IndexedTriangleSet solid="false"
														                    normalPerVertex="true"
														                    index="0 1 2 0 2 3 4 5 6 4 6 7 8 9 10 8 10 11 12 13 14 12 14 15 4 16 17 4 17 15 18 5 14 18 14 19 "
														                    >
															<Coordinate point="-0.683336 -1.451144 -0.349019 -0.682505 -1.445668 0.372573 -0.375942 0.078438 0.360655 -0.376773 0.072963 -0.360937 -0.376773 0.072963 -0.360937 -0.375942 0.078438 0.360655 0.376773 -0.072963 0.360937 0.375942 -0.078438 -0.360655 0.375942 -0.078438 -0.360655 0.376773 -0.072963 0.360937 0.070210 -1.597069 0.372855 0.069378 -1.602545 -0.348737 0.069378 -1.602545 -0.348737 0.070210 -1.597069 0.372855 -0.682505 -1.445668 0.372573 -0.683336 -1.451144 -0.349019 0.375942 -0.078438 -0.360655 0.069378 -1.602545 -0.348737 0.376773 -0.072963 0.360937 0.070210 -1.597069 0.372855 " />
															<Normal vector="-0.680502 -0.456526 -0.573107 -0.679189 -0.447768 0.581530 -0.451491 0.684225 0.572680 -0.452803 0.675436 -0.581957 -0.452803 0.675436 -0.581957 -0.451491 0.684225 0.572680 0.680502 0.456526 0.573107 0.679189 0.447768 -0.581530 0.679189 0.447768 -0.581530 0.680502 0.456526 0.573107 0.452803 -0.675436 0.581957 0.451491 -0.684225 -0.572680 0.451491 -0.684225 -0.572680 0.452803 -0.675436 0.581957 -0.679189 -0.447768 0.581530 -0.680502 -0.456526 -0.573107 0.679189 0.447768 -0.581530 0.451491 -0.684225 -0.572680 0.680502 0.456526 0.573107 0.452803 -0.675436 0.581957 " />
															<TextureCoordinate point="0.2321 0.5295 0.4268 0.5295 0.4268 0.9666 0.2321 0.9666 0.2321 0.5295 0.4268 0.5295 0.4268 0.9666 0.2321 0.9666 0.2321 0.5295 0.4268 0.5295 0.4268 0.9666 0.2321 0.9666 0.2321 0.5295 0.4268 0.5295 0.4268 0.9666 0.2321 0.9666 0.4268 0.5295 0.4268 0.9666 0.2321 0.5295 0.2321 0.9666 " />
														</IndexedTriangleSet>
													</Shape>
												</Group>
											</Transform>
										</Transform>
										<Transform DEF="p1_TRANSFORM"
										           translation="-0.838774 -0.801023 -0.250179"
										           scale="1.000000 1.000000 1.000000"
										           rotation="0.000000 1.000000 0.000000 0.000000"
										           >
											<Transform DEF="p1_ifs_TRANSFORM"
											           translation="0.000000 0.000000 0.000000"
											           scale="1.000000 1.000000 1.000000"
											           rotation="0.000000 1.000000 0.000000 0.000000"
											           >
												<Group DEF="group_ME_p1">
													<Shape>
														<Appearance>
															<Material USE="MA_Body" />
														</Appearance>
														<IndexedTriangleSet solid="false"
														                    normalPerVertex="true"
														                    index="0 1 2 0 2 3 4 5 6 4 6 7 8 9 10 8 10 11 12 13 14 12 14 15 4 16 17 4 17 15 18 5 14 18 14 19 "
														                    >
															<Coordinate point="-1.458993 -0.150117 -0.699925 -1.610746 -0.215831 0.002484 -0.226135 0.339953 0.353620 -0.074382 0.405666 -0.348789 -0.074382 0.405666 -0.348789 -0.226135 0.339953 0.353620 0.074382 -0.405666 0.348789 0.226135 -0.339953 -0.353620 0.226135 -0.339953 -0.353620 0.074382 -0.405666 0.348789 -1.310229 -0.961450 -0.002347 -1.158476 -0.895736 -0.704756 -1.158476 -0.895736 -0.704756 -1.310229 -0.961450 -0.002347 -1.610746 -0.215831 0.002484 -1.458993 -0.150117 -0.699925 0.226135 -0.339953 -0.353620 -1.158476 -0.895736 -0.704756 0.074382 -0.405666 0.348789 -1.310229 -0.961450 -0.002347 " />
															<Normal vector="-0.615955 0.378704 -0.690756 -0.858760 0.273537 0.433180 0.184301 0.692251 0.697714 0.427137 0.797388 -0.426221 0.427137 0.797388 -0.426221 0.184301 0.692251 0.697714 0.615955 -0.378704 0.690756 0.858760 -0.273537 -0.433180 0.858760 -0.273537 -0.433180 0.615955 -0.378704 0.690756 -0.427137 -0.797388 0.426221 -0.184301 -0.692251 -0.697714 -0.184301 -0.692251 -0.697714 -0.427137 -0.797388 0.426221 -0.858760 0.273537 0.433180 -0.615955 0.378704 -0.690756 0.858760 -0.273537 -0.433180 -0.184301 -0.692251 -0.697714 0.615955 -0.378704 0.690756 -0.427137 -0.797388 0.426221 " />
															<TextureCoordinate point="0.2321 0.5295 0.4268 0.5295 0.4268 0.9666 0.2321 0.9666 0.2321 0.5295 0.4268 0.5295 0.4268 0.9666 0.2321 0.9666 0.2321 0.5295 0.4268 0.5295 0.4268 0.9666 0.2321 0.9666 0.2321 0.5295 0.4268 0.5295 0.4268 0.9666 0.2321 0.9666 0.4268 0.5295 0.4268 0.9666 0.2321 0.5295 0.2321 0.9666 " />
														</IndexedTriangleSet>
													</Shape>
												</Group>
											</Transform>
										</Transform>
									</Transform>
								</Transform>
							</Transform>
						</Transform>
					</Transform>
				</Transform>
				<Transform DEF="Cube_002_TRANSFORM"
				           translation="-0.952016 -0.451450 0.588938"
				           scale="1.000000 1.000000 1.000000"
				           rotation="0.000000 1.000000 0.000000 0.000000"
				           >
					<Transform DEF="Cube_002_ifs_TRANSFORM"
					           translation="0.000000 0.000000 0.000000"
					           scale="1.000000 1.000000 1.000000"
					           rotation="0.000000 1.000000 0.000000 0.000000"
					           >
						<Group DEF="group_ME_Cube_002">
							<Shape>
								<Appearance>
									<Material USE="MA_Body" />
								</Appearance>
								<IndexedTriangleSet solid="false"
								                    normalPerVertex="true"
								                    index="0 1 2 0 2 3 4 5 6 4 6 7 8 9 10 8 10 11 12 13 14 12 14 15 4 13 16 4 16 17 18 19 20 18 20 14 21 20 19 21 19 22 18 14 7 21 22 23 23 18 7 23 7 21 24 25 26 24 26 27 28 29 30 28 30 31 32 33 34 32 34 35 36 37 38 36 38 39 40 41 38 40 38 31 "
								                    >
									<Coordinate point="0.233626 -0.194374 0.063156 0.145978 0.198274 0.189021 -0.132368 0.000852 0.611070 -0.044720 -0.391796 0.485205 0.145978 0.198274 0.189021 -0.233626 0.194374 -0.063156 -0.511972 -0.003048 0.358893 -0.132368 0.000852 0.611070 -0.233626 0.194374 -0.063156 -0.145978 -0.198274 -0.189021 -0.424324 -0.395696 0.233028 -0.511972 -0.003048 0.358893 -0.145978 -0.198274 -0.189021 0.233626 -0.194374 0.063156 -0.044720 -0.391796 0.485205 -0.424324 -0.395696 0.233028 -0.145978 -0.198274 -0.189021 -0.233626 0.194374 -0.063156 -0.106258 -0.340597 0.468570 -0.385873 -0.343470 0.282817 -0.424324 -0.395696 0.233028 -0.511972 -0.003048 0.358893 -0.450434 -0.054247 0.375528 -0.170819 -0.051374 0.561281 -0.281185 -0.464668 0.733808 -0.106258 -0.340597 0.468570 -0.170819 -0.051374 0.561281 -0.345746 -0.175444 0.826519 -0.170819 -0.051374 0.561281 -0.450434 -0.054247 0.375528 -0.625361 -0.178317 0.640766 -0.345746 -0.175444 0.826519 -0.450434 -0.054247 0.375528 -0.385873 -0.343470 0.282817 -0.560800 -0.467540 0.548055 -0.625361 -0.178317 0.640766 -0.385873 -0.343470 0.282817 -0.106258 -0.340597 0.468570 -0.281185 -0.464668 0.733808 -0.560800 -0.467540 0.548055 -0.625361 -0.178317 0.640766 -0.560800 -0.467540 0.548055 " />
									<Normal vector="0.897000 -0.322825 -0.301859 0.656911 0.752708 0.042879 0.064730 0.332682 0.940794 0.304819 -0.742821 0.596026 0.656911 0.752708 0.042879 -0.304819 0.742821 -0.596026 -0.897000 0.322825 0.301859 0.064730 0.332682 0.940794 -0.304819 0.742821 -0.596026 -0.064730 -0.332682 -0.940794 -0.656911 -0.752708 -0.042879 -0.897000 0.322825 0.301859 -0.064730 -0.332682 -0.940794 0.897000 -0.322825 -0.301859 0.304819 -0.742821 0.596026 -0.656911 -0.752708 -0.042879 -0.064730 -0.332682 -0.940794 -0.304819 0.742821 -0.596026 -0.150029 -0.607257 0.780175 -0.652303 -0.612415 0.446516 -0.656911 -0.752708 -0.042879 -0.897000 0.322825 0.301859 -0.897000 0.322825 0.301859 0.064730 0.332682 0.940794 0.304819 -0.742821 0.596026 -0.150029 -0.607257 0.780175 0.064730 0.332682 0.940794 0.064730 0.332682 0.940794 0.064730 0.332682 0.940794 -0.897000 0.322825 0.301859 -0.897000 0.322825 0.301859 0.064730 0.332682 0.940794 -0.897000 0.322825 0.301859 -0.652303 -0.612415 0.446516 -0.656911 -0.752708 -0.042879 -0.897000 0.322825 0.301859 -0.652303 -0.612415 0.446516 -0.150029 -0.607257 0.780175 0.304819 -0.742821 0.596026 -0.656911 -0.752708 -0.042879 -0.897000 0.322825 0.301859 -0.656911 -0.752708 -0.042879 " />
									<TextureCoordinate point="0.0208 0.0475 0.0208 0.4564 0.1979 0.4564 0.1979 0.0475 0.0208 0.0475 0.0208 0.4564 0.1979 0.4564 0.1979 0.0475 0.0208 0.0475 0.0208 0.4564 0.1979 0.4564 0.1979 0.0475 0.0208 0.0475 0.0208 0.4564 0.1979 0.4564 0.1979 0.0475 0.1979 0.4564 0.1979 0.0475 0.1746 0.4026 0.0441 0.4026 0.0208 0.4564 0.0208 0.0475 0.0441 0.1014 0.1746 0.1014 0.1979 0.0475 0.0468 0.0475 0.0468 0.4564 0.1979 0.4564 0.0468 0.0475 0.0468 0.4564 0.1979 0.4564 0.1979 0.0475 0.0468 0.0475 0.0468 0.4564 0.1979 0.4564 0.1979 0.0475 0.0468 0.0475 0.0468 0.4564 0.1979 0.4564 0.1979 0.0475 0.0208 0.0475 0.0208 0.4564 " />
								</IndexedTriangleSet>
							</Shape>
						</Group>
					</Transform>
				</Transform>
			</Transform>
			<Transform DEF="back_TRANSFORM"
			           translation="0.000000 0.872219 1.129152"
			           scale="1.000000 1.000000 1.000000"
			           rotation="0.000000 1.000000 0.000000 0.000000"
			           >
				<Transform DEF="back_ifs_TRANSFORM"
				           translation="0.000000 0.000000 0.000000"
				           scale="1.000000 1.000000 1.000000"
				           rotation="0.000000 1.000000 0.000000 0.000000"
				           >
					<Group DEF="group_ME_back">
						<Shape>
							<Appearance>
								<Material USE="MA_Body" />
							</Appearance>
							<IndexedTriangleSet solid="false"
							                    normalPerVertex="true"
							                    index="0 1 2 0 2 3 4 5 6 4 6 7 8 9 10 8 10 11 12 13 14 12 14 15 4 16 17 4 17 15 18 5 14 18 14 19 "
							                    >
								<Coordinate point="1.189002 1.331344 -1.001233 1.189002 1.331344 1.001233 1.189003 0.000001 1.001233 1.189003 0.000001 -1.001233 1.189003 0.000001 -1.001233 1.189003 0.000001 1.001233 -1.189003 -0.000001 1.001233 -1.189003 -0.000001 -1.001233 -1.189003 -0.000001 -1.001233 -1.189003 -0.000001 1.001233 -1.189004 1.331343 1.001233 -1.189004 1.331343 -1.001233 -1.189004 1.331343 -1.001233 -1.189004 1.331343 1.001233 1.189002 1.331344 1.001233 1.189002 1.331344 -1.001233 -1.189003 -0.000001 -1.001233 -1.189004 1.331343 -1.001233 -1.189003 -0.000001 1.001233 -1.189004 1.331343 1.001233 " />
								<Normal vector="0.577349 0.577349 -0.577349 0.577349 0.577349 0.577349 0.577349 -0.577349 0.577349 0.577349 -0.577349 -0.577349 0.577349 -0.577349 -0.577349 0.577349 -0.577349 0.577349 -0.577349 -0.577349 0.577349 -0.577349 -0.577349 -0.577349 -0.577349 -0.577349 -0.577349 -0.577349 -0.577349 0.577349 -0.577349 0.577349 0.577349 -0.577349 0.577349 -0.577349 -0.577349 0.577349 -0.577349 -0.577349 0.577349 0.577349 0.577349 0.577349 0.577349 0.577349 0.577349 -0.577349 -0.577349 -0.577349 -0.577349 -0.577349 0.577349 -0.577349 -0.577349 -0.577349 0.577349 -0.577349 0.577349 0.577349 " />
								<TextureCoordinate point="0.0208 0.5436 0.1979 0.5436 0.1979 0.9525 0.0208 0.9525 0.0208 0.5436 0.1979 0.5436 0.1979 0.9525 0.0208 0.9525 0.0208 0.5436 0.1979 0.5436 0.1979 0.9525 0.0208 0.9525 0.0208 0.5436 0.1979 0.5436 0.1979 0.9525 0.0208 0.9525 0.1979 0.5436 0.1979 0.9525 0.0208 0.5436 0.0208 0.9525 " />
							</IndexedTriangleSet>
						</Shape>
					</Group>
				</Transform>
				<Transform DEF="tail_TRANSFORM"
				           translation="-0.000000 1.239853 -0.166138"
				           scale="1.000000 1.000000 1.000000"
				           rotation="0.000000 1.000000 0.000000 0.000000"
				           >
					<Transform DEF="tail_ifs_TRANSFORM"
					           translation="0.000000 0.000000 0.000000"
					           scale="1.000000 1.000000 1.000000"
					           rotation="0.000000 1.000000 0.000000 0.000000"
					           >
						<Group DEF="group_ME_tail">
							<Shape>
								<Appearance>
									<Material USE="MA_Body" />
								</Appearance>
								<IndexedTriangleSet solid="false"
								                    normalPerVertex="true"
								                    index="0 1 2 0 2 3 4 5 6 4 6 7 8 9 10 8 10 11 12 13 14 12 14 15 4 16 17 4 17 15 18 5 14 18 14 19 "
								                    >
									<Coordinate point="0.537512 0.987885 -0.378990 0.537512 0.987885 0.378990 0.537512 0.000000 0.378990 0.537512 0.000000 -0.378990 0.537512 0.000000 -0.378990 0.537512 0.000000 0.378990 -0.537512 -0.000000 0.378990 -0.537512 -0.000000 -0.378990 -0.537512 -0.000000 -0.378990 -0.537512 -0.000000 0.378990 -0.537513 0.987884 0.378990 -0.537513 0.987884 -0.378990 -0.537513 0.987884 -0.378990 -0.537513 0.987884 0.378990 0.537512 0.987885 0.378990 0.537512 0.987885 -0.378990 -0.537512 -0.000000 -0.378990 -0.537513 0.987884 -0.378990 -0.537512 -0.000000 0.378990 -0.537513 0.987884 0.378990 " />
									<Normal vector="0.577349 0.577349 -0.577349 0.577349 0.577349 0.577349 0.577349 -0.577349 0.577349 0.577349 -0.577349 -0.577349 0.577349 -0.577349 -0.577349 0.577349 -0.577349 0.577349 -0.577349 -0.577349 0.577349 -0.577349 -0.577349 -0.577349 -0.577349 -0.577349 -0.577349 -0.577349 -0.577349 0.577349 -0.577349 0.577349 0.577349 -0.577349 0.577349 -0.577349 -0.577349 0.577349 -0.577349 -0.577349 0.577349 0.577349 0.577349 0.577349 0.577349 0.577349 0.577349 -0.577349 -0.577349 -0.577349 -0.577349 -0.577349 0.577349 -0.577349 -0.577349 -0.577349 0.577349 -0.577349 0.577349 0.577349 " />
									<TextureCoordinate point="0.2321 0.5295 0.4268 0.5295 0.4268 0.9666 0.2321 0.9666 0.2321 0.5295 0.4268 0.5295 0.4268 0.9666 0.2321 0.9666 0.2321 0.5295 0.4268 0.5295 0.4268 0.9666 0.2321 0.9666 0.2321 0.5295 0.4268 0.5295 0.4268 0.9666 0.2321 0.9666 0.4268 0.5295 0.4268 0.9666 0.2321 0.5295 0.2321 0.9666 " />
								</IndexedTriangleSet>
							</Shape>
						</Group>
					</Transform>
					<Transform DEF="Cube_004_TRANSFORM"
					           translation="-0.000000 0.134073 0.000000"
					           scale="1.000000 1.000000 1.000000"
					           rotation="0.000000 1.000000 0.000000 0.000000"
					           >
						<Transform DEF="Cube_004_ifs_TRANSFORM"
						           translation="0.000000 0.000000 0.000000"
						           scale="1.000000 1.000000 1.000000"
						           rotation="0.000000 1.000000 0.000000 0.000000"
						           >
							<Group DEF="group_ME_Cube_004">
								<Shape>
									<Appearance>
										<Material USE="MA_Body" />
									</Appearance>
									<IndexedTriangleSet solid="false"
									                    normalPerVertex="true"
									                    index="0 1 2 0 2 3 4 5 6 4 6 7 8 9 10 8 10 11 12 13 14 12 14 15 4 16 17 4 17 15 18 5 14 18 14 19 "
									                    >
										<Coordinate point="0.395736 0.738282 -0.557697 0.395736 0.767427 0.516859 0.395736 0.014573 0.537278 0.395736 -0.014572 -0.537278 0.395736 -0.014572 -0.537278 0.395736 0.014573 0.537278 -0.395736 0.014572 0.537278 -0.395736 -0.014573 -0.537278 -0.395736 -0.014573 -0.537278 -0.395736 0.014572 0.537278 -0.395737 0.767426 0.516859 -0.395737 0.738282 -0.557697 -0.395737 0.738282 -0.557697 -0.395737 0.767426 0.516859 0.395736 0.767427 0.516859 0.395736 0.738282 -0.557697 -0.395736 -0.014573 -0.537278 -0.395737 0.738282 -0.557697 -0.395736 0.014572 0.537278 -0.395737 0.767426 0.516859 " />
										<Normal vector="0.577349 0.561480 -0.592761 0.577349 0.592792 0.561480 0.577349 -0.561480 0.592761 0.577349 -0.592761 -0.561480 0.577349 -0.592761 -0.561480 0.577349 -0.561480 0.592761 -0.577349 -0.561480 0.592761 -0.577349 -0.592792 -0.561480 -0.577349 -0.592792 -0.561480 -0.577349 -0.561480 0.592761 -0.577349 0.592761 0.561480 -0.577349 0.561480 -0.592761 -0.577349 0.561480 -0.592761 -0.577349 0.592761 0.561480 0.577349 0.592792 0.561480 0.577349 0.561480 -0.592761 -0.577349 -0.592792 -0.561480 -0.577349 0.561480 -0.592761 -0.577349 -0.561480 0.592761 -0.577349 0.592761 0.561480 " />
										<TextureCoordinate point="0.2321 0.5295 0.4268 0.5295 0.4268 0.9666 0.2321 0.9666 0.2321 0.5295 0.4268 0.5295 0.4268 0.9666 0.2321 0.9666 0.2321 0.5295 0.4268 0.5295 0.4268 0.9666 0.2321 0.9666 0.2321 0.5295 0.4268 0.5295 0.4268 0.9666 0.2321 0.9666 0.4268 0.5295 0.4268 0.9666 0.2321 0.5295 0.2321 0.9666 " />
									</IndexedTriangleSet>
								</Shape>
							</Group>
						</Transform>
					</Transform>
				</Transform>
				<Transform DEF="Cube_009_TRANSFORM"
				           translation="0.952016 0.537034 0.588937"
				           scale="1.000000 1.000000 1.000000"
				           rotation="0.000000 1.000000 0.000000 0.000000"
				           >
					<Transform DEF="Cube_009_ifs_TRANSFORM"
					           translation="0.000000 0.000000 0.000000"
					           scale="1.000000 1.000000 1.000000"
					           rotation="0.000000 1.000000 0.000000 0.000000"
					           >
						<Group DEF="group_ME_Cube_009">
							<Shape>
								<Appearance>
									<Material USE="MA_Body" />
								</Appearance>
								<IndexedTriangleSet solid="false"
								                    normalPerVertex="true"
								                    index="0 1 2 0 2 3 4 5 6 4 6 7 8 9 10 8 10 11 12 13 14 12 14 15 4 15 16 4 16 17 18 12 7 18 7 19 20 19 7 21 12 18 21 18 22 20 7 23 21 22 20 23 21 20 24 25 26 24 26 27 28 29 30 28 30 31 32 33 34 32 34 35 36 37 38 36 38 39 40 37 30 40 30 41 "
								                    >
									<Coordinate point="0.132368 -0.000852 0.611070 0.044720 0.391796 0.485206 -0.233626 0.194374 0.063157 -0.145978 -0.198274 0.189021 -0.145978 -0.198274 0.189021 0.233626 -0.194374 -0.063157 0.511972 0.003048 0.358893 0.132368 -0.000852 0.611070 0.233626 -0.194374 -0.063157 0.145978 0.198274 -0.189021 0.424324 0.395696 0.233028 0.511972 0.003048 0.358893 0.044720 0.391796 0.485206 0.424324 0.395696 0.233028 0.145978 0.198274 -0.189021 -0.233626 0.194374 0.063157 0.145978 0.198274 -0.189021 0.233626 -0.194374 -0.063157 0.106258 0.340597 0.468570 0.170819 0.051374 0.561281 0.450434 0.054247 0.375528 0.424324 0.395696 0.233028 0.385873 0.343470 0.282817 0.511972 0.003048 0.358893 0.170819 0.051374 0.561281 0.345746 0.175444 0.826519 0.281185 0.464668 0.733808 0.106258 0.340597 0.468570 0.450434 0.054247 0.375528 0.625361 0.178317 0.640766 0.345746 0.175444 0.826519 0.170819 0.051374 0.561281 0.385873 0.343470 0.282817 0.560800 0.467540 0.548055 0.625361 0.178317 0.640766 0.450434 0.054247 0.375528 0.106258 0.340597 0.468570 0.281185 0.464668 0.733808 0.560800 0.467540 0.548055 0.385873 0.343470 0.282817 0.560800 0.467540 0.548055 0.625361 0.178317 0.640766 " />
									<Normal vector="-0.064730 -0.332682 0.940794 -0.304819 0.742821 0.596026 -0.897000 0.322825 -0.301859 -0.656911 -0.752708 0.042879 -0.656911 -0.752708 0.042879 0.304819 -0.742821 -0.596026 0.897000 -0.322825 0.301859 -0.064730 -0.332682 0.940794 0.304819 -0.742821 -0.596026 0.064730 0.332682 -0.940794 0.656911 0.752708 -0.042879 0.897000 -0.322825 0.301859 -0.304819 0.742821 0.596026 0.656911 0.752708 -0.042879 0.064730 0.332682 -0.940794 -0.897000 0.322825 -0.301859 0.064730 0.332682 -0.940794 0.304819 -0.742821 -0.596026 0.150029 0.607257 0.780175 0.275430 0.045564 0.960234 0.897000 -0.322825 0.301859 0.656911 0.752708 -0.042879 0.656911 0.752708 -0.042879 0.897000 -0.322825 0.301859 0.275430 0.045564 0.960234 -0.064730 -0.332682 0.940794 -0.304819 0.742821 0.596026 0.150029 0.607257 0.780175 0.897000 -0.322825 0.301859 0.897000 -0.322825 0.301859 -0.064730 -0.332682 0.940794 0.275430 0.045564 0.960234 0.656911 0.752708 -0.042879 0.656911 0.752708 -0.042879 0.897000 -0.322825 0.301859 0.897000 -0.322825 0.301859 0.150029 0.607257 0.780175 -0.304819 0.742821 0.596026 0.656911 0.752708 -0.042879 0.656911 0.752708 -0.042879 0.656911 0.752708 -0.042879 0.897000 -0.322825 0.301859 " />
									<TextureCoordinate point="0.1979 0.4564 0.1979 0.0475 0.0208 0.0475 0.0208 0.4564 0.0208 0.0475 0.0208 0.4564 0.1979 0.4564 0.1979 0.0475 0.0208 0.0475 0.0208 0.4564 0.1979 0.4564 0.1979 0.0475 0.1979 0.4564 0.1979 0.0475 0.0208 0.0475 0.0208 0.4564 0.1979 0.4564 0.1979 0.0475 0.1746 0.4026 0.1746 0.1014 0.0441 0.1014 0.0208 0.4564 0.0441 0.4026 0.0208 0.0475 0.0468 0.4564 0.1979 0.4564 0.1979 0.0475 0.0468 0.0475 0.0468 0.4564 0.1979 0.4564 0.1979 0.0475 0.0468 0.0475 0.0468 0.4564 0.1979 0.4564 0.1979 0.0475 0.0468 0.0475 0.0468 0.4564 0.1979 0.4564 0.1979 0.0475 0.0468 0.0475 0.0208 0.4564 0.0208 0.0475 " />
								</IndexedTriangleSet>
							</Shape>
						</Group>
					</Transform>
				</Transform>
				<Transform DEF="Cube_003_TRANSFORM"
				           translation="-0.952016 0.537034 0.588937"
				           scale="1.000000 1.000000 1.000000"
				           rotation="0.000000 1.000000 0.000000 0.000000"
				           >
					<Transform DEF="Cube_003_ifs_TRANSFORM"
					           translation="0.000000 0.000000 0.000000"
					           scale="1.000000 1.000000 1.000000"
					           rotation="0.000000 1.000000 0.000000 0.000000"
					           >
						<Group DEF="group_ME_Cube_003">
							<Shape>
								<Appearance>
									<Material USE="MA_Body" />
								</Appearance>
								<IndexedTriangleSet solid="false"
								                    normalPerVertex="true"
								                    index="0 1 2 0 2 3 4 5 6 4 6 7 8 9 10 8 10 11 12 13 14 12 14 15 4 16 17 4 17 13 18 19 5 18 5 12 5 19 20 21 18 12 22 5 20 21 12 23 22 20 21 21 23 22 24 25 26 24 26 27 28 29 30 28 30 31 32 33 34 32 34 35 36 37 38 36 38 39 40 41 30 40 30 39 "
								                    >
									<Coordinate point="-0.132368 -0.000852 0.611070 0.145978 -0.198274 0.189021 0.233626 0.194374 0.063157 -0.044720 0.391796 0.485206 0.145978 -0.198274 0.189021 -0.132368 -0.000852 0.611070 -0.511972 0.003048 0.358893 -0.233626 -0.194374 -0.063157 -0.233626 -0.194374 -0.063157 -0.511972 0.003048 0.358893 -0.424324 0.395696 0.233028 -0.145978 0.198274 -0.189021 -0.044720 0.391796 0.485206 0.233626 0.194374 0.063157 -0.145978 0.198274 -0.189021 -0.424324 0.395696 0.233028 -0.233626 -0.194374 -0.063157 -0.145978 0.198274 -0.189021 -0.106258 0.340597 0.468570 -0.170819 0.051374 0.561281 -0.450434 0.054247 0.375528 -0.385873 0.343470 0.282817 -0.511972 0.003048 0.358893 -0.424324 0.395696 0.233028 -0.170819 0.051374 0.561281 -0.106258 0.340597 0.468570 -0.281185 0.464668 0.733808 -0.345746 0.175444 0.826519 -0.450434 0.054247 0.375528 -0.170819 0.051374 0.561281 -0.345746 0.175444 0.826519 -0.625361 0.178317 0.640766 -0.385873 0.343470 0.282817 -0.450434 0.054247 0.375528 -0.625361 0.178317 0.640766 -0.560800 0.467540 0.548055 -0.106258 0.340597 0.468570 -0.385873 0.343470 0.282817 -0.560800 0.467540 0.548055 -0.281185 0.464668 0.733808 -0.560800 0.467540 0.548055 -0.625361 0.178317 0.640766 " />
									<Normal vector="0.064730 -0.332682 0.940794 0.656911 -0.752708 0.042879 0.897000 0.322825 -0.301859 0.304819 0.742821 0.596026 0.656911 -0.752708 0.042879 0.064730 -0.332682 0.940794 -0.897000 -0.322825 0.301859 -0.304819 -0.742821 -0.596026 -0.304819 -0.742821 -0.596026 -0.897000 -0.322825 0.301859 -0.656911 0.752708 -0.042879 -0.064730 0.332682 -0.940794 0.304819 0.742821 0.596026 0.897000 0.322825 -0.301859 -0.064730 0.332682 -0.940794 -0.656911 0.752708 -0.042879 -0.304819 -0.742821 -0.596026 -0.064730 0.332682 -0.940794 -0.150029 0.607257 0.780175 -0.275430 0.045564 0.960234 -0.897000 -0.322825 0.301859 -0.656911 0.752708 -0.042879 -0.897000 -0.322825 0.301859 -0.656911 0.752708 -0.042879 -0.275430 0.045564 0.960234 -0.150029 0.607257 0.780175 0.304819 0.742821 0.596026 0.064730 -0.332682 0.940794 -0.897000 -0.322825 0.301859 -0.275430 0.045564 0.960234 0.064730 -0.332682 0.940794 -0.897000 -0.322825 0.301859 -0.656911 0.752708 -0.042879 -0.897000 -0.322825 0.301859 -0.897000 -0.322825 0.301859 -0.656911 0.752708 -0.042879 -0.150029 0.607257 0.780175 -0.656911 0.752708 -0.042879 -0.656911 0.752708 -0.042879 0.304819 0.742821 0.596026 -0.656911 0.752708 -0.042879 -0.897000 -0.322825 0.301859 " />
									<TextureCoordinate point="0.1979 0.4564 0.0208 0.4564 0.0208 0.0475 0.1979 0.0475 0.0208 0.0475 0.1979 0.0475 0.1979 0.4564 0.0208 0.4564 0.0208 0.0475 0.1979 0.0475 0.1979 0.4564 0.0208 0.4564 0.1979 0.4564 0.0208 0.4564 0.0208 0.0475 0.1979 0.0475 0.1979 0.0475 0.1979 0.4564 0.1746 0.4026 0.1746 0.1014 0.0441 0.1014 0.0441 0.4026 0.0208 0.0475 0.0208 0.4564 0.0468 0.4564 0.0468 0.0475 0.1979 0.0475 0.1979 0.4564 0.0468 0.4564 0.0468 0.0475 0.1979 0.0475 0.1979 0.4564 0.0468 0.4564 0.0468 0.0475 0.1979 0.0475 0.1979 0.4564 0.0468 0.4564 0.0468 0.0475 0.1979 0.0475 0.1979 0.4564 0.0208 0.4564 0.0208 0.0475 " />
								</IndexedTriangleSet>
							</Shape>
						</Group>
					</Transform>
				</Transform>
			</Transform>
			<Transform DEF="Cube_005_TRANSFORM"
			           translation="1.067530 0.000000 2.017162"
			           scale="1.000000 1.000000 1.000000"
			           rotation="0.000000 1.000000 0.000000 0.000000"
			           >
				<Transform DEF="Cube_005_ifs_TRANSFORM"
				           translation="0.000000 0.000000 0.000000"
				           scale="1.000000 1.000000 1.000000"
				           rotation="0.000000 1.000000 0.000000 0.000000"
				           >
					<Group DEF="group_ME_Cube_005">
						<Shape>
							<Appearance>
								<Material USE="MA_Body" />
							</Appearance>
							<IndexedTriangleSet solid="false"
							                    normalPerVertex="true"
							                    index="0 1 2 0 2 3 4 5 6 4 6 7 8 9 10 8 10 11 12 13 14 12 14 15 4 16 17 4 17 15 18 5 14 18 14 19 20 19 14 21 5 18 21 18 22 20 14 23 21 22 20 23 21 20 24 25 26 24 26 27 28 29 30 28 30 31 32 33 34 32 34 35 36 37 38 36 38 39 40 29 38 40 38 41 "
							                    >
								<Coordinate point="-0.265305 -0.299027 0.184749 0.174729 -0.299027 0.816648 0.174729 0.299027 0.816648 -0.265305 0.299027 0.184749 -0.265305 0.299027 0.184749 0.174729 0.299027 0.816648 0.705338 0.299027 0.447149 0.265305 0.299027 -0.184749 0.265305 0.299027 -0.184749 0.705338 0.299027 0.447149 0.705338 -0.299027 0.447149 0.265305 -0.299027 -0.184749 0.265305 -0.299027 -0.184749 0.705338 -0.299027 0.447149 0.174729 -0.299027 0.816648 -0.265305 -0.299027 0.184749 0.265305 0.299027 -0.184749 0.265305 -0.299027 -0.184749 0.244611 0.220262 0.767985 0.244611 -0.220262 0.767985 0.635456 -0.220262 0.495813 0.705338 0.299027 0.447149 0.635456 0.220262 0.495813 0.705338 -0.299027 0.447149 0.244611 -0.220262 0.767985 0.521152 -0.220262 1.165104 0.521152 0.220262 1.165104 0.244611 0.220262 0.767985 0.244611 0.220262 0.767985 0.521152 0.220262 1.165104 0.911996 0.220262 0.892932 0.635456 0.220262 0.495813 0.635456 0.220262 0.495813 0.911996 0.220262 0.892932 0.911996 -0.220262 0.892932 0.635456 -0.220262 0.495813 0.635456 -0.220262 0.495813 0.911996 -0.220262 0.892932 0.521152 -0.220262 1.165104 0.244611 -0.220262 0.767985 0.911996 0.220262 0.892932 0.911996 -0.220262 0.892932 " />
								<Normal vector="-0.803705 -0.577349 -0.143834 -0.143834 -0.577349 0.803705 -0.143834 0.577349 0.803705 -0.803705 0.577349 -0.143834 -0.803705 0.577349 -0.143834 -0.143834 0.577349 0.803705 0.803705 0.577349 0.143834 0.143834 0.577349 -0.803705 0.143834 0.577349 -0.803705 0.803705 0.577349 0.143834 0.803705 -0.577349 0.143834 0.143834 -0.577349 -0.803705 0.143834 -0.577349 -0.803705 0.803705 -0.577349 0.143834 -0.143834 -0.577349 0.803705 -0.803705 -0.577349 -0.143834 0.143834 0.577349 -0.803705 0.143834 -0.577349 -0.803705 0.269448 0.301492 0.914579 0.269448 -0.301492 0.914579 0.803705 -0.577349 0.143834 0.803705 0.577349 0.143834 0.803705 0.577349 0.143834 0.803705 -0.577349 0.143834 0.269448 -0.301492 0.914579 -0.143834 -0.577349 0.803705 -0.143834 0.577349 0.803705 0.269448 0.301492 0.914579 0.269448 0.301492 0.914579 -0.143834 0.577349 0.803705 0.803705 0.577349 0.143834 0.803705 0.577349 0.143834 0.803705 0.577349 0.143834 0.803705 0.577349 0.143834 0.803705 -0.577349 0.143834 0.803705 -0.577349 0.143834 0.803705 -0.577349 0.143834 0.803705 -0.577349 0.143834 -0.143834 -0.577349 0.803705 0.269448 -0.301492 0.914579 0.803705 0.577349 0.143834 0.803705 -0.577349 0.143834 " />
								<TextureCoordinate point="0.0208 0.0475 0.1979 0.0475 0.1979 0.4564 0.0208 0.4564 0.0208 0.0475 0.1979 0.0475 0.1979 0.4564 0.0208 0.4564 0.0208 0.0475 0.1979 0.0475 0.1979 0.4564 0.0208 0.4564 0.0208 0.0475 0.1979 0.0475 0.1979 0.4564 0.0208 0.4564 0.1979 0.0475 0.1979 0.4564 0.1746 0.1014 0.1746 0.4026 0.0441 0.4026 0.0208 0.0475 0.0441 0.1014 0.0208 0.4564 0.0468 0.0475 0.1979 0.0475 0.1979 0.4564 0.0468 0.4564 0.0468 0.0475 0.1979 0.0475 0.1979 0.4564 0.0468 0.4564 0.0468 0.0475 0.1979 0.0475 0.1979 0.4564 0.0468 0.4564 0.0468 0.0475 0.1979 0.0475 0.1979 0.4564 0.0468 0.4564 0.0208 0.0475 0.0208 0.4564 " />
							</IndexedTriangleSet>
						</Shape>
					</Group>
				</Transform>
			</Transform>
			<Transform DEF="Cube_001_TRANSFORM"
			           translation="-1.067530 0.000000 2.017162"
			           scale="1.000000 1.000000 1.000000"
			           rotation="0.000000 1.000000 0.000000 0.000000"
			           >
				<Transform DEF="Cube_001_ifs_TRANSFORM"
				           translation="0.000000 0.000000 0.000000"
				           scale="1.000000 1.000000 1.000000"
				           rotation="0.000000 1.000000 0.000000 0.000000"
				           >
					<Group DEF="group_ME_Cube_001">
						<Shape>
							<Appearance>
								<Material USE="MA_Body" />
							</Appearance>
							<IndexedTriangleSet solid="false"
							                    normalPerVertex="true"
							                    index="0 1 2 0 2 3 4 5 6 4 6 7 8 9 10 8 10 11 12 13 14 12 14 15 4 13 16 4 16 17 18 19 14 18 14 7 14 19 20 21 18 7 22 14 20 21 7 23 22 20 21 21 23 22 24 25 26 24 26 27 28 29 30 28 30 31 32 33 34 32 34 35 36 37 38 36 38 39 40 41 38 40 38 31 "
							                    >
								<Coordinate point="0.265305 -0.299027 0.184749 0.265305 0.299027 0.184749 -0.174729 0.299027 0.816648 -0.174729 -0.299027 0.816648 0.265305 0.299027 0.184749 -0.265305 0.299027 -0.184749 -0.705338 0.299027 0.447150 -0.174729 0.299027 0.816648 -0.265305 0.299027 -0.184749 -0.265305 -0.299027 -0.184749 -0.705338 -0.299027 0.447149 -0.705338 0.299027 0.447150 -0.265305 -0.299027 -0.184749 0.265305 -0.299027 0.184749 -0.174729 -0.299027 0.816648 -0.705338 -0.299027 0.447149 -0.265305 -0.299027 -0.184749 -0.265305 0.299027 -0.184749 -0.244611 0.220262 0.767985 -0.244611 -0.220262 0.767985 -0.635456 -0.220262 0.495813 -0.635456 0.220262 0.495813 -0.705338 -0.299027 0.447149 -0.705338 0.299027 0.447150 -0.244611 -0.220262 0.767985 -0.244611 0.220262 0.767985 -0.521152 0.220262 1.165104 -0.521152 -0.220262 1.165104 -0.244611 0.220262 0.767985 -0.635456 0.220262 0.495813 -0.911996 0.220262 0.892932 -0.521152 0.220262 1.165104 -0.635456 0.220262 0.495813 -0.635456 -0.220262 0.495813 -0.911996 -0.220262 0.892932 -0.911996 0.220262 0.892932 -0.635456 -0.220262 0.495813 -0.244611 -0.220262 0.767985 -0.521152 -0.220262 1.165104 -0.911996 -0.220262 0.892932 -0.911996 0.220262 0.892932 -0.911996 -0.220262 0.892932 " />
								<Normal vector="0.803705 -0.577349 -0.143834 0.803705 0.577349 -0.143834 0.143834 0.577349 0.803705 0.143834 -0.577349 0.803705 0.803705 0.577349 -0.143834 -0.143834 0.577349 -0.803705 -0.803705 0.577349 0.143834 0.143834 0.577349 0.803705 -0.143834 0.577349 -0.803705 -0.143834 -0.577349 -0.803705 -0.803705 -0.577349 0.143834 -0.803705 0.577349 0.143834 -0.143834 -0.577349 -0.803705 0.803705 -0.577349 -0.143834 0.143834 -0.577349 0.803705 -0.803705 -0.577349 0.143834 -0.143834 -0.577349 -0.803705 -0.143834 0.577349 -0.803705 -0.269448 0.301492 0.914579 -0.269448 -0.301492 0.914579 -0.803705 -0.577349 0.143834 -0.803705 0.577349 0.143834 -0.803705 -0.577349 0.143834 -0.803705 0.577349 0.143834 -0.269448 -0.301492 0.914579 -0.269448 0.301492 0.914579 0.143834 0.577349 0.803705 0.143834 -0.577349 0.803705 -0.269448 0.301492 0.914579 -0.803705 0.577349 0.143834 -0.803705 0.577349 0.143834 0.143834 0.577349 0.803705 -0.803705 0.577349 0.143834 -0.803705 -0.577349 0.143834 -0.803705 -0.577349 0.143834 -0.803705 0.577349 0.143834 -0.803705 -0.577349 0.143834 -0.269448 -0.301492 0.914579 0.143834 -0.577349 0.803705 -0.803705 -0.577349 0.143834 -0.803705 0.577349 0.143834 -0.803705 -0.577349 0.143834 " />
								<TextureCoordinate point="0.0208 0.0475 0.0208 0.4564 0.1979 0.4564 0.1979 0.0475 0.0208 0.0475 0.0208 0.4564 0.1979 0.4564 0.1979 0.0475 0.0208 0.0475 0.0208 0.4564 0.1979 0.4564 0.1979 0.0475 0.0208 0.0475 0.0208 0.4564 0.1979 0.4564 0.1979 0.0475 0.1979 0.4564 0.1979 0.0475 0.1746 0.1014 0.1746 0.4026 0.0441 0.4026 0.0441 0.1014 0.0208 0.4564 0.0208 0.0475 0.0468 0.0475 0.0468 0.4564 0.1979 0.4564 0.1979 0.0475 0.0468 0.0475 0.0468 0.4564 0.1979 0.4564 0.1979 0.0475 0.0468 0.0475 0.0468 0.4564 0.1979 0.4564 0.1979 0.0475 0.0468 0.0475 0.0468 0.4564 0.1979 0.4564 0.1979 0.0475 0.0208 0.0475 0.0208 0.4564 " />
							</IndexedTriangleSet>
						</Shape>
					</Group>
				</Transform>
			</Transform>
		</Transform>
	</Scene>
</X3D>