<?xml version="1.0" encoding="UTF-8"?>
<!DOCTYPE X3D PUBLIC "ISO//Web3D//DTD X3D 3.0//EN" "http://www.web3d.org/specifications/x3d-3.0.dtd">
<X3D version="3.0" profile="Immersive" xmlns:xsd="http://www.w3.org/2001/XMLSchema-instance" xsd:noNamespaceSchemaLocation="http://www.web3d.org/specifications/x3d-3.0.xsd">
	<head>
		<meta name="filename" content="remoraid.x3d" />
		<meta name="generator" content="Blender 2.93.18" />
	</head>
	<Scene>
		<NavigationInfo headlight="true"
		                visibilityLimit="0.0"
		                type='"EXAMINE", "ANY"'
		                avatarSize="0.25, 1.75, 0.75"
		                />
		<Background DEF="WO_World"
		            groundColor="0.051 0.051 0.051"
		            skyColor="0.051 0.051 0.051"
		            />
		<Transform DEF="body_TRANSFORM"
		           translation="0.000000 -0.393876 0.841814"
		           scale="1.000000 1.000000 1.000000"
		           rotation="0.000000 0.000000 1.000000 3.141593"
		           >
			<Transform DEF="body_ifs_TRANSFORM"
			           translation="0.000000 0.000000 0.000000"
			           scale="1.000000 1.000000 1.000000"
			           rotation="0.000000 1.000000 0.000000 0.000000"
			           >
				<Group DEF="group_ME_body">
					<Shape>
						<Appearance>
							<Material DEF="MA_Body"
							          diffuseColor="0.800 0.800 0.800"
							          specularColor="0.401 0.401 0.401"
							          emissiveColor="0.000 0.000 0.000"
							          ambientIntensity="0.000"
							          shininess="0.500"
							          transparency="0.0"
							          />
						</Appearance>
						<IndexedTriangleSet solid="false"
						                    normalPerVertex="true"
						                    index="0 1 2 0 2 3 4 5 6 4 6 7 8 9 10 8 10 11 12 13 14 12 14 15 16 17 18 16 18 19 20 5 14 20 14 21 22 23 24 22 24 25 26 27 28 26 28 29 30 31 32 30 32 33 34 35 36 34 36 37 38 39 40 38 40 41 16 42 43 16 43 44 45 46 47 45 47 48 49 50 51 49 51 19 52 12 15 52 15 53 54 55 56 54 56 57 58 4 7 58 7 59 60 61 62 60 62 63 "
						                    >
							<Coordinate point="-0.434534 -0.598196 0.583056 -0.434534 -0.598196 0.626928 -0.434534 0.598196 0.626928 -0.434534 0.598196 0.583056 -0.434534 0.598196 0.583056 -0.434534 0.598196 0.626928 0.434534 0.598196 0.626928 0.434534 0.598196 0.583056 0.434534 0.598196 0.583056 0.434534 0.598196 0.626928 0.434534 -0.598196 0.626928 0.434534 -0.598196 0.583056 0.434534 -0.598196 0.583056 0.434534 -0.598196 0.626928 -0.434534 -0.598196 0.626928 -0.434534 -0.598196 0.583056 -0.434534 0.598196 -0.626928 0.434534 0.598196 -0.626928 0.434534 -0.598196 -0.626928 -0.434534 -0.598196 -0.626928 0.434534 0.598196 0.626928 0.434534 -0.598196 0.626928 0.434534 -0.598196 -0.131667 0.434534 -0.598196 -0.106362 -0.434534 -0.598196 -0.106362 -0.434534 -0.598196 -0.131667 0.434534 0.598196 -0.131667 0.434534 0.598196 -0.106362 0.434534 -0.598196 -0.106362 0.434534 -0.598196 -0.131667 -0.434534 0.598196 -0.131667 -0.434534 0.598196 -0.106362 0.434534 0.598196 -0.106362 0.434534 0.598196 -0.131667 -0.434534 -0.598196 -0.131667 -0.434534 -0.598196 -0.106362 -0.434534 0.598196 -0.106362 -0.434534 0.598196 -0.131667 -0.434534 -0.598196 -0.626928 -0.434534 -0.598196 -0.131667 -0.434534 0.598196 -0.131667 -0.434534 0.598196 -0.626928 -0.434534 0.598196 -0.131667 0.434534 0.598196 -0.131667 0.434534 0.598196 -0.626928 0.434534 0.598196 -0.626928 0.434534 0.598196 -0.131667 0.434534 -0.598196 -0.131667 0.434534 -0.598196 -0.626928 0.434534 -0.598196 -0.626928 0.434534 -0.598196 -0.131667 -0.434534 -0.598196 -0.131667 0.434534 -0.598196 -0.106362 -0.434534 -0.598196 -0.106362 0.434534 0.598196 -0.106362 0.434534 0.598196 0.583056 0.434534 -0.598196 0.583056 0.434534 -0.598196 -0.106362 -0.434534 0.598196 -0.106362 0.434534 0.598196 -0.106362 -0.434534 -0.598196 -0.106362 -0.434534 -0.598196 0.583056 -0.434534 0.598196 0.583056 -0.434534 0.598196 -0.106362 " />
							<Normal vector="-0.707083 -0.707083 0.000000 -0.577349 -0.577349 0.577349 -0.577349 0.577349 0.577349 -0.707083 0.707083 0.000000 -0.707083 0.707083 0.000000 -0.577349 0.577349 0.577349 0.577349 0.577349 0.577349 0.707083 0.707083 0.000000 0.707083 0.707083 0.000000 0.577349 0.577349 0.577349 0.577349 -0.577349 0.577349 0.707083 -0.707083 0.000000 0.707083 -0.707083 0.000000 0.577349 -0.577349 0.577349 -0.577349 -0.577349 0.577349 -0.707083 -0.707083 0.000000 -0.577349 0.577349 -0.577349 0.577349 0.577349 -0.577349 0.577349 -0.577349 -0.577349 -0.577349 -0.577349 -0.577349 0.577349 0.577349 0.577349 0.577349 -0.577349 0.577349 0.707083 -0.707083 0.000000 0.707083 -0.707083 0.000000 -0.707083 -0.707083 0.000000 -0.707083 -0.707083 0.000000 0.707083 0.707083 0.000000 0.707083 0.707083 0.000000 0.707083 -0.707083 0.000000 0.707083 -0.707083 0.000000 -0.707083 0.707083 0.000000 -0.707083 0.707083 0.000000 0.707083 0.707083 0.000000 0.707083 0.707083 0.000000 -0.707083 -0.707083 0.000000 -0.707083 -0.707083 0.000000 -0.707083 0.707083 0.000000 -0.707083 0.707083 0.000000 -0.577349 -0.577349 -0.577349 -0.707083 -0.707083 0.000000 -0.707083 0.707083 0.000000 -0.577349 0.577349 -0.577349 -0.707083 0.707083 0.000000 0.707083 0.707083 0.000000 0.577349 0.577349 -0.577349 0.577349 0.577349 -0.577349 0.707083 0.707083 0.000000 0.707083 -0.707083 0.000000 0.577349 -0.577349 -0.577349 0.577349 -0.577349 -0.577349 0.707083 -0.707083 0.000000 -0.707083 -0.707083 0.000000 0.707083 -0.707083 0.000000 -0.707083 -0.707083 0.000000 0.707083 0.707083 0.000000 0.707083 0.707083 0.000000 0.707083 -0.707083 0.000000 0.707083 -0.707083 0.000000 -0.707083 0.707083 0.000000 0.707083 0.707083 0.000000 -0.707083 -0.707083 0.000000 -0.707083 -0.707083 0.000000 -0.707083 0.707083 0.000000 -0.707083 0.707083 0.000000 " />
							<TextureCoordinate point="0.1721 0.5445 0.2241 0.5445 0.2241 0.9693 0.1721 0.9693 0.1721 0.5445 0.2241 0.5445 0.2241 0.9693 0.1721 0.9693 0.1721 0.5445 0.2241 0.5445 0.2241 0.9693 0.1721 0.9693 0.1721 0.5445 0.2241 0.5445 0.2241 0.9693 0.1721 0.9693 0.0159 0.5445 0.2241 0.5445 0.2241 0.9693 0.0159 0.9693 0.0159 0.5445 0.0159 0.9693 0.1149 0.0620 0.2158 0.0620 0.2158 0.1821 0.1149 0.1821 0.1149 0.0620 0.2158 0.0620 0.2158 0.1821 0.1149 0.1821 0.1149 0.0620 0.2158 0.0620 0.2158 0.1821 0.1149 0.1821 0.1149 0.0620 0.2158 0.0620 0.2158 0.1821 0.1149 0.1821 0.0159 0.5445 0.0679 0.5445 0.0679 0.9693 0.0159 0.9693 0.0679 0.5445 0.0679 0.9693 0.0159 0.9693 0.0159 0.5445 0.0679 0.5445 0.0679 0.9693 0.0159 0.9693 0.0159 0.5445 0.0679 0.5445 0.0679 0.9693 0.1200 0.5445 0.1200 0.9693 0.9803 0.9761 0.5296 0.9761 0.5296 0.0341 0.9803 0.0341 0.1200 0.5445 0.1200 0.9693 0.9803 0.0341 0.5296 0.0341 0.5296 0.9761 0.9803 0.9761 " />
						</IndexedTriangleSet>
					</Shape>
				</Group>
			</Transform>
			<Transform DEF="body1_TRANSFORM"
			           translation="0.000000 -0.556060 -0.015446"
			           scale="1.000000 1.000000 1.000000"
			           rotation="0.000000 1.000000 0.000000 0.000000"
			           >
				<Transform DEF="body1_ifs_TRANSFORM"
				           translation="0.000000 0.000000 0.000000"
				           scale="1.000000 1.000000 1.000000"
				           rotation="0.000000 1.000000 0.000000 0.000000"
				           >
					<Group DEF="group_ME_body1">
						<Shape>
							<Appearance>
								<Material USE="MA_Body" />
							</Appearance>
							<IndexedTriangleSet solid="false"
							                    normalPerVertex="true"
							                    index="0 1 2 0 2 3 4 5 6 4 6 7 8 9 10 8 10 11 12 13 14 12 14 15 16 17 18 16 18 19 20 21 14 20 14 22 23 24 25 23 25 19 26 27 28 26 28 29 30 31 32 30 32 33 34 35 36 34 36 37 38 39 40 38 40 41 42 43 44 42 44 45 46 47 48 46 48 49 50 51 52 50 52 53 54 55 51 54 51 50 56 57 58 56 58 59 60 61 35 60 35 34 62 63 64 62 64 65 66 5 1 66 1 67 30 68 69 30 69 34 70 71 72 70 72 73 74 75 1 74 1 0 76 77 75 76 75 74 78 79 61 78 61 60 80 81 55 80 55 54 59 58 43 59 43 42 65 64 27 65 27 26 67 1 21 67 21 20 34 69 17 34 17 16 73 72 9 73 9 8 "
							                    >
								<Coordinate point="-0.370500 -0.126934 -0.094726 -0.370500 -0.126934 0.502199 -0.370500 0.000000 0.502199 -0.370500 0.000000 -0.094726 -0.370500 0.000000 -0.094726 -0.370500 0.000000 0.502199 0.370500 0.000000 0.502199 0.370500 0.000000 -0.094726 0.370500 -0.251351 0.162216 0.370500 -0.251351 0.502199 0.370500 -0.513710 0.502199 0.370500 -0.513710 0.162216 0.370500 -0.513710 0.162216 0.370500 -0.513710 0.502199 -0.370500 -0.513710 0.502199 -0.370500 -0.513710 0.162216 -0.370500 -0.251351 -0.502199 0.370500 -0.251351 -0.502199 0.370500 -0.513710 -0.502199 -0.370500 -0.513710 -0.502199 0.370500 -0.251351 0.502199 -0.370500 -0.251351 0.502199 0.370500 -0.513710 0.502199 0.370500 -0.513710 -0.502199 0.370500 -0.513710 0.139662 -0.370500 -0.513710 0.139662 0.370500 -0.251351 -0.502199 0.370500 -0.251351 0.139662 0.370500 -0.513710 0.139662 0.370500 -0.513710 -0.502199 -0.370500 0.000000 -0.502199 -0.370500 0.000000 -0.117280 0.370500 0.000000 -0.117280 0.370500 0.000000 -0.502199 -0.370500 -0.126934 -0.502199 -0.370500 -0.126934 -0.117280 -0.370500 0.000000 -0.117280 -0.370500 0.000000 -0.502199 0.370500 -0.513710 0.139662 0.370500 -0.513710 0.162216 -0.370500 -0.513710 0.162216 -0.370500 -0.513710 0.139662 0.370500 -0.251351 0.139662 0.370500 -0.251351 0.162216 0.370500 -0.513710 0.162216 0.370500 -0.513710 0.139662 -0.370500 0.000000 -0.117280 -0.370500 0.000000 -0.094726 0.370500 0.000000 -0.094726 0.370500 0.000000 -0.117280 -0.370500 -0.126934 -0.117280 -0.370500 -0.126934 -0.094726 -0.370500 0.000000 -0.094726 -0.370500 0.000000 -0.117280 -0.370500 -0.251351 0.139662 -0.370500 -0.251351 0.162216 0.370500 0.000000 -0.117280 0.370500 0.000000 -0.094726 0.370500 -0.126934 -0.094726 0.370500 -0.126934 -0.117280 -0.370500 -0.251351 -0.502199 -0.370500 -0.251351 0.139662 0.370500 0.000000 -0.502199 0.370500 0.000000 -0.117280 0.370500 -0.126934 -0.117280 0.370500 -0.126934 -0.502199 0.370500 0.000000 0.502199 0.370500 -0.126934 0.502199 0.370500 0.000000 -0.502199 0.370500 -0.126934 -0.502199 0.370500 0.000000 -0.094726 0.370500 0.000000 0.502199 0.370500 -0.126934 0.502199 0.370500 -0.126934 -0.094726 -0.370500 -0.251351 0.162216 -0.370500 -0.251351 0.502199 -0.370500 -0.513710 0.162216 -0.370500 -0.513710 0.502199 -0.370500 -0.513710 -0.502199 -0.370500 -0.513710 0.139662 -0.370500 -0.513710 0.139662 -0.370500 -0.513710 0.162216 " />
								<Normal vector="-1.000000 0.000000 0.000000 -0.707083 0.000000 0.707083 -0.577349 0.577349 0.577349 -0.707083 0.707083 0.000000 -0.707083 0.707083 0.000000 -0.577349 0.577349 0.577349 0.577349 0.577349 0.577349 0.707083 0.707083 0.000000 1.000000 0.000000 0.000000 0.707083 0.000000 0.707083 0.577349 -0.577349 0.577349 0.707083 -0.707083 0.000000 0.707083 -0.707083 0.000000 0.577349 -0.577349 0.577349 -0.577349 -0.577349 0.577349 -0.707083 -0.707083 0.000000 -0.707083 0.000000 -0.707083 0.707083 0.000000 -0.707083 0.577349 -0.577349 -0.577349 -0.577349 -0.577349 -0.577349 0.707083 0.000000 0.707083 -0.707083 0.000000 0.707083 0.577349 -0.577349 0.577349 0.577349 -0.577349 -0.577349 0.707083 -0.707083 0.000000 -0.707083 -0.707083 0.000000 0.707083 0.000000 -0.707083 1.000000 0.000000 0.000000 0.707083 -0.707083 0.000000 0.577349 -0.577349 -0.577349 -0.577349 0.577349 -0.577349 -0.707083 0.707083 0.000000 0.707083 0.707083 0.000000 0.577349 0.577349 -0.577349 -0.707083 0.000000 -0.707083 -1.000000 0.000000 0.000000 -0.707083 0.707083 0.000000 -0.577349 0.577349 -0.577349 0.707083 -0.707083 0.000000 0.707083 -0.707083 0.000000 -0.707083 -0.707083 0.000000 -0.707083 -0.707083 0.000000 1.000000 0.000000 0.000000 1.000000 0.000000 0.000000 0.707083 -0.707083 0.000000 0.707083 -0.707083 0.000000 -0.707083 0.707083 0.000000 -0.707083 0.707083 0.000000 0.707083 0.707083 0.000000 0.707083 0.707083 0.000000 -1.000000 0.000000 0.000000 -1.000000 0.000000 0.000000 -0.707083 0.707083 0.000000 -0.707083 0.707083 0.000000 -1.000000 0.000000 0.000000 -1.000000 0.000000 0.000000 0.707083 0.707083 0.000000 0.707083 0.707083 0.000000 1.000000 0.000000 0.000000 1.000000 0.000000 0.000000 -0.707083 0.000000 -0.707083 -1.000000 0.000000 0.000000 0.577349 0.577349 -0.577349 0.707083 0.707083 0.000000 1.000000 0.000000 0.000000 0.707083 0.000000 -0.707083 0.577349 0.577349 0.577349 0.707083 0.000000 0.707083 0.577349 0.577349 -0.577349 0.707083 0.000000 -0.707083 0.707083 0.707083 0.000000 0.577349 0.577349 0.577349 0.707083 0.000000 0.707083 1.000000 0.000000 0.000000 -1.000000 0.000000 0.000000 -0.707083 0.000000 0.707083 -0.707083 -0.707083 0.000000 -0.577349 -0.577349 0.577349 -0.577349 -0.577349 -0.577349 -0.707083 -0.707083 0.000000 -0.707083 -0.707083 0.000000 -0.707083 -0.707083 0.000000 " />
								<TextureCoordinate point="0.1721 0.7569 0.2241 0.7569 0.2241 0.9693 0.1721 0.9693 0.1721 0.5445 0.2241 0.5445 0.2241 0.9693 0.1721 0.9693 0.1721 0.8631 0.2241 0.8631 0.2241 0.9693 0.1721 0.9693 0.1721 0.5445 0.2241 0.5445 0.2241 0.9693 0.1721 0.9693 0.0159 0.8631 0.2241 0.8631 0.2241 0.9693 0.0159 0.9693 0.0159 0.8631 0.2241 0.8631 0.0159 0.9693 0.0159 0.5445 0.1200 0.5445 0.1200 0.9693 0.0159 0.8631 0.1200 0.8631 0.1200 0.9693 0.0159 0.9693 0.0159 0.5445 0.1200 0.5445 0.1200 0.9693 0.0159 0.9693 0.0159 0.7569 0.1200 0.7569 0.1200 0.9693 0.0159 0.9693 0.1070 0.0309 0.2392 0.0309 0.2392 0.2231 0.1070 0.2231 0.1070 0.1750 0.2392 0.1750 0.2392 0.2231 0.1070 0.2231 0.1070 0.0309 0.2392 0.0309 0.2392 0.2231 0.1070 0.2231 0.1070 0.1270 0.2392 0.1270 0.2392 0.2231 0.1070 0.2231 0.1070 0.0789 0.2392 0.0789 0.1070 0.0309 0.2392 0.0309 0.2392 0.1270 0.1070 0.1270 0.0159 0.6507 0.1200 0.6507 0.0159 0.5445 0.1200 0.5445 0.1200 0.7569 0.0159 0.7569 0.0159 0.5445 0.0159 0.7569 0.2241 0.5445 0.2241 0.7569 0.1721 0.5445 0.2241 0.5445 0.2241 0.7569 0.1721 0.7569 0.1721 0.6507 0.2241 0.6507 0.1721 0.5445 0.2241 0.5445 0.0159 0.5445 0.1200 0.5445 0.1070 0.0309 0.2392 0.0309 " />
							</IndexedTriangleSet>
						</Shape>
					</Group>
				</Transform>
				<Transform DEF="head_TRANSFORM"
				           translation="0.000000 -0.484181 0.003724"
				           scale="1.000000 1.000000 1.000000"
				           rotation="0.000000 1.000000 0.000000 0.000000"
				           >
					<Transform DEF="head_ifs_TRANSFORM"
					           translation="0.000000 0.000000 0.000000"
					           scale="1.000000 1.000000 1.000000"
					           rotation="0.000000 1.000000 0.000000 0.000000"
					           >
						<Group DEF="group_ME_head">
							<Shape>
								<Appearance>
									<Material USE="MA_Body" />
								</Appearance>
								<IndexedTriangleSet solid="false"
								                    normalPerVertex="true"
								                    index="0 1 2 0 2 3 4 5 6 4 6 7 8 9 10 8 10 11 12 13 14 12 14 15 16 17 18 16 18 19 20 5 14 20 14 21 22 23 24 22 24 19 25 26 27 25 27 28 16 29 30 16 30 31 32 33 34 32 34 35 23 12 15 23 15 24 29 4 7 29 7 30 "
								                    >
									<Coordinate point="-0.301489 -0.529086 0.352980 -0.301489 -0.529086 0.391010 -0.301489 0.000000 0.391010 -0.301489 0.000000 0.352980 -0.301489 0.000000 0.352980 -0.301489 0.000000 0.391010 0.301489 0.000000 0.391010 0.301489 0.000000 0.352980 0.301489 0.000000 0.352980 0.301489 0.000000 0.391010 0.301489 -0.529086 0.391010 0.301489 -0.529086 0.352980 0.301489 -0.529086 0.352980 0.301489 -0.529086 0.391010 -0.301489 -0.529086 0.391010 -0.301489 -0.529086 0.352980 -0.301489 0.000000 -0.391010 0.301489 0.000000 -0.391010 0.301489 -0.529086 -0.391010 -0.301489 -0.529086 -0.391010 0.301489 0.000000 0.391010 0.301489 -0.529086 0.391010 0.301489 -0.529086 -0.391010 0.301489 -0.529086 -0.122281 -0.301489 -0.529086 -0.122281 0.301489 0.000000 -0.391010 0.301489 0.000000 -0.122281 0.301489 -0.529086 -0.122281 0.301489 -0.529086 -0.391010 -0.301489 0.000000 -0.122281 0.301489 0.000000 -0.122281 0.301489 0.000000 -0.391010 -0.301489 -0.529086 -0.391010 -0.301489 -0.529086 -0.122281 -0.301489 0.000000 -0.122281 -0.301489 0.000000 -0.391010 " />
									<Normal vector="-0.707083 -0.707083 0.000000 -0.577349 -0.577349 0.577349 -0.577349 0.577349 0.577349 -0.707083 0.707083 0.000000 -0.707083 0.707083 0.000000 -0.577349 0.577349 0.577349 0.577349 0.577349 0.577349 0.707083 0.707083 0.000000 0.707083 0.707083 0.000000 0.577349 0.577349 0.577349 0.577349 -0.577349 0.577349 0.707083 -0.707083 0.000000 0.707083 -0.707083 0.000000 0.577349 -0.577349 0.577349 -0.577349 -0.577349 0.577349 -0.707083 -0.707083 0.000000 -0.577349 0.577349 -0.577349 0.577349 0.577349 -0.577349 0.577349 -0.577349 -0.577349 -0.577349 -0.577349 -0.577349 0.577349 0.577349 0.577349 0.577349 -0.577349 0.577349 0.577349 -0.577349 -0.577349 0.707083 -0.707083 0.000000 -0.707083 -0.707083 0.000000 0.577349 0.577349 -0.577349 0.707083 0.707083 0.000000 0.707083 -0.707083 0.000000 0.577349 -0.577349 -0.577349 -0.707083 0.707083 0.000000 0.707083 0.707083 0.000000 0.577349 0.577349 -0.577349 -0.577349 -0.577349 -0.577349 -0.707083 -0.707083 0.000000 -0.707083 0.707083 0.000000 -0.577349 0.577349 -0.577349 " />
									<TextureCoordinate point="0.1721 0.5445 0.2241 0.5445 0.2241 0.9693 0.1721 0.9693 0.1721 0.5445 0.2241 0.5445 0.2241 0.9693 0.1721 0.9693 0.1721 0.5445 0.2241 0.5445 0.2241 0.9693 0.1721 0.9693 0.1721 0.5445 0.2241 0.5445 0.2241 0.9693 0.1721 0.9693 0.0159 0.5445 0.2241 0.5445 0.2241 0.9693 0.0159 0.9693 0.0159 0.5445 0.0159 0.9693 0.0159 0.5445 0.1200 0.5445 0.1200 0.9693 0.0159 0.5445 0.1200 0.5445 0.1200 0.9693 0.0159 0.9693 0.1200 0.5445 0.1200 0.9693 0.0159 0.9693 0.0159 0.5445 0.1200 0.5445 0.1200 0.9693 0.0159 0.9693 " />
								</IndexedTriangleSet>
							</Shape>
							<Shape>
								<Appearance>
									<Material DEF="MA_Eye"
									          diffuseColor="0.800 0.800 0.800"
									          specularColor="0.401 0.401 0.401"
									          emissiveColor="0.000 0.000 0.000"
									          ambientIntensity="0.000"
									          shininess="0.500"
									          transparency="0.0"
									          />
								</Appearance>
								<IndexedTriangleSet solid="false"
								                    normalPerVertex="true"
								                    index="0 1 2 0 2 3 4 5 6 4 6 7 "
								                    >
									<Coordinate point="0.301489 0.000000 -0.122281 0.301489 0.000000 0.352980 0.301489 -0.529086 0.352980 0.301489 -0.529086 -0.122281 -0.301489 -0.529086 -0.122281 -0.301489 -0.529086 0.352980 -0.301489 0.000000 0.352980 -0.301489 0.000000 -0.122281 " />
									<Normal vector="0.707083 0.707083 0.000000 0.707083 0.707083 0.000000 0.707083 -0.707083 0.000000 0.707083 -0.707083 0.000000 -0.707083 -0.707083 0.000000 -0.707083 -0.707083 0.000000 -0.707083 0.707083 0.000000 -0.707083 0.707083 0.000000 " />
									<TextureCoordinate point="0.9680 0.5144 0.9680 0.9876 0.0320 0.9876 0.0320 0.5144 0.0320 0.5144 0.0320 0.9876 0.9680 0.9876 0.9680 0.5144 " />
								</IndexedTriangleSet>
							</Shape>
						</Group>
					</Transform>
					<Transform DEF="Cube_003_TRANSFORM"
					           translation="0.000000 -0.395945 0.011516"
					           scale="1.000000 1.000000 1.000000"
					           rotation="0.000000 1.000000 0.000000 0.000000"
					           >
						<Transform DEF="Cube_003_ifs_TRANSFORM"
						           translation="0.000000 0.000000 0.000000"
						           scale="1.000000 1.000000 1.000000"
						           rotation="0.000000 1.000000 0.000000 0.000000"
						           >
							<Group DEF="group_ME_Cube_017">
								<Shape>
									<Appearance>
										<Material USE="MA_Body" />
									</Appearance>
									<IndexedTriangleSet solid="false"
									                    normalPerVertex="true"
									                    index="0 1 2 0 2 3 4 5 6 4 6 7 8 9 10 8 10 11 12 13 14 12 14 15 16 17 18 16 18 19 20 21 14 20 14 22 23 5 1 23 1 24 25 26 27 25 27 28 29 30 31 29 31 32 33 34 35 33 35 36 37 38 39 37 39 40 24 1 21 24 21 20 28 27 17 28 17 16 41 42 43 41 43 44 "
									                    >
										<Coordinate point="-0.212325 -0.212049 -0.028263 -0.212325 -0.031301 0.211622 -0.212325 0.090374 0.119942 -0.212325 -0.090374 -0.119942 -0.212325 -0.090374 -0.119942 -0.212325 0.090374 0.119942 0.212325 0.090374 0.119942 0.212325 -0.090374 -0.119942 0.212325 -0.233602 -0.012023 0.212325 -0.052854 0.227862 0.212325 -0.207592 0.344453 0.212325 -0.388340 0.104568 0.212325 -0.388340 0.104568 0.212325 -0.207592 0.344453 -0.212325 -0.207592 0.344453 -0.212325 -0.388340 0.104568 -0.212325 -0.233602 -0.012023 0.212325 -0.233602 -0.012023 0.212325 -0.388340 0.104568 -0.212325 -0.388340 0.104568 0.212325 -0.052854 0.227862 -0.212325 -0.052854 0.227862 0.212325 -0.207592 0.344453 0.212325 0.090374 0.119942 0.212325 -0.031301 0.211622 -0.212325 -0.090374 -0.119942 0.212325 -0.090374 -0.119942 0.212325 -0.212049 -0.028263 -0.212325 -0.212049 -0.028263 0.212325 -0.090374 -0.119942 0.212325 0.090374 0.119942 0.212325 -0.031301 0.211622 0.212325 -0.212049 -0.028263 -0.212325 -0.233602 -0.012023 -0.212325 -0.052854 0.227862 -0.212325 -0.031301 0.211622 -0.212325 -0.212049 -0.028263 -0.212325 -0.388340 0.104568 -0.212325 -0.207592 0.344453 -0.212325 -0.052854 0.227862 -0.212325 -0.233602 -0.012023 0.212325 -0.212049 -0.028263 0.212325 -0.031301 0.211622 0.212325 -0.052854 0.227862 0.212325 -0.233602 -0.012023 " />
										<Normal vector="-0.707083 -0.425520 -0.564714 -0.707083 0.425520 0.564714 -0.577349 0.808527 0.113651 -0.577349 0.113651 -0.808527 -0.577349 0.113651 -0.808527 -0.577349 0.808527 0.113651 0.577349 0.808527 0.113651 0.577349 0.113651 -0.808527 0.707083 -0.425520 -0.564714 0.707083 0.425520 0.564714 0.577349 -0.113651 0.808527 0.577349 -0.808527 -0.113651 0.577349 -0.808527 -0.113651 0.577349 -0.113651 0.808527 -0.577349 -0.113651 0.808527 -0.577349 -0.808527 -0.113651 -0.707083 -0.425520 -0.564714 0.707083 -0.425520 -0.564714 0.577349 -0.808527 -0.113651 -0.577349 -0.808527 -0.113651 0.707083 0.425520 0.564714 -0.707083 0.425520 0.564714 0.577349 -0.113651 0.808527 0.577349 0.808527 0.113651 0.707083 0.425520 0.564714 -0.577349 0.113651 -0.808527 0.577349 0.113651 -0.808527 0.707083 -0.425520 -0.564714 -0.707083 -0.425520 -0.564714 0.577349 0.113651 -0.808527 0.577349 0.808527 0.113651 0.707083 0.425520 0.564714 0.707083 -0.425520 -0.564714 -0.707083 -0.425520 -0.564714 -0.707083 0.425520 0.564714 -0.707083 0.425520 0.564714 -0.707083 -0.425520 -0.564714 -0.577349 -0.808527 -0.113651 -0.577349 -0.113651 0.808527 -0.707083 0.425520 0.564714 -0.707083 -0.425520 -0.564714 0.707083 -0.425520 -0.564714 0.707083 0.425520 0.564714 0.707083 0.425520 0.564714 0.707083 -0.425520 -0.564714 " />
										<TextureCoordinate point="0.0159 0.7569 0.2241 0.7569 0.2241 0.9693 0.0159 0.9693 0.0159 0.5445 0.2241 0.5445 0.2241 0.9693 0.0159 0.9693 0.0159 0.8631 0.2241 0.8631 0.2241 0.9693 0.0159 0.9693 0.0159 0.5445 0.2241 0.5445 0.2241 0.9693 0.0159 0.9693 0.0262 0.4252 0.0698 0.4252 0.0698 0.4763 0.0262 0.4763 0.0159 0.8631 0.2241 0.8631 0.0159 0.9693 0.0159 0.5445 0.0159 0.7569 0.0262 0.2720 0.0698 0.2720 0.0698 0.3741 0.0262 0.3741 0.0159 0.5445 0.2241 0.5445 0.2241 0.7569 0.0159 0.7569 0.1117 0.0571 0.2337 0.0571 0.2337 0.1245 0.1117 0.1245 0.0159 0.5445 0.2241 0.5445 0.2241 0.6507 0.0159 0.6507 0.1117 0.1245 0.2337 0.1245 0.2337 0.1918 0.1117 0.1918 " />
									</IndexedTriangleSet>
								</Shape>
							</Group>
						</Transform>
						<Transform DEF="Cube_002_TRANSFORM"
						           translation="0.000000 -0.268158 0.038567"
						           scale="1.000000 1.000000 1.000000"
						           rotation="0.000000 1.000000 0.000000 0.000000"
						           >
							<Transform DEF="Cube_002_ifs_TRANSFORM"
							           translation="0.000000 0.000000 0.000000"
							           scale="1.000000 1.000000 1.000000"
							           rotation="0.000000 1.000000 0.000000 0.000000"
							           >
								<Group DEF="group_ME_Cube_002">
									<Shape>
										<Appearance>
											<Material USE="MA_Body" />
										</Appearance>
										<IndexedTriangleSet solid="false"
										                    normalPerVertex="true"
										                    index="0 1 2 0 2 3 4 5 6 4 6 7 8 9 10 8 10 11 12 13 14 12 14 15 4 13 16 4 16 17 18 19 14 18 14 7 20 21 22 20 22 23 24 25 26 24 26 27 28 29 30 28 30 31 32 33 34 32 34 35 24 36 37 24 37 35 38 25 34 38 34 39 "
										                    >
											<Coordinate point="-0.062634 0.017460 0.002763 -0.062634 -0.017460 -0.002763 -0.062634 -0.005934 -0.075588 -0.062634 0.028985 -0.070062 -0.062634 -0.017460 -0.002763 -0.116979 -0.017460 -0.002763 -0.116979 -0.005934 -0.075588 -0.062634 -0.005934 -0.075588 -0.116979 -0.017460 -0.002763 -0.116979 0.017460 0.002763 -0.116979 0.028985 -0.070062 -0.116979 -0.005934 -0.075588 -0.116979 0.017460 0.002763 -0.062634 0.017460 0.002763 -0.062634 0.028985 -0.070062 -0.116979 0.028985 -0.070062 -0.116979 0.017460 0.002763 -0.116979 -0.017460 -0.002763 -0.116979 -0.005934 -0.075588 -0.116979 0.028985 -0.070062 0.062634 0.017460 0.002763 0.062634 0.028985 -0.070062 0.062634 -0.005934 -0.075588 0.062634 -0.017460 -0.002763 0.062634 -0.017460 -0.002763 0.062634 -0.005934 -0.075588 0.116979 -0.005934 -0.075588 0.116979 -0.017460 -0.002763 0.116979 -0.017460 -0.002763 0.116979 -0.005934 -0.075588 0.116979 0.028985 -0.070062 0.116979 0.017460 0.002763 0.116979 0.017460 0.002763 0.116979 0.028985 -0.070062 0.062634 0.028985 -0.070062 0.062634 0.017460 0.002763 0.116979 -0.017460 -0.002763 0.116979 0.017460 0.002763 0.116979 -0.005934 -0.075588 0.116979 0.028985 -0.070062 " />
											<Normal vector="0.577349 0.479995 0.660482 0.577349 -0.660482 0.479995 0.577349 -0.479995 -0.660482 0.577349 0.660482 -0.479995 0.577349 -0.660482 0.479995 -0.577349 -0.660482 0.479995 -0.577349 -0.479995 -0.660482 0.577349 -0.479995 -0.660482 -0.577349 -0.660482 0.479995 -0.577349 0.479995 0.660482 -0.577349 0.660482 -0.479995 -0.577349 -0.479995 -0.660482 -0.577349 0.479995 0.660482 0.577349 0.479995 0.660482 0.577349 0.660482 -0.479995 -0.577349 0.660482 -0.479995 -0.577349 0.479995 0.660482 -0.577349 -0.660482 0.479995 -0.577349 -0.479995 -0.660482 -0.577349 0.660482 -0.479995 -0.577349 0.479995 0.660482 -0.577349 0.660482 -0.479995 -0.577349 -0.479995 -0.660482 -0.577349 -0.660482 0.479995 -0.577349 -0.660482 0.479995 -0.577349 -0.479995 -0.660482 0.577349 -0.479995 -0.660482 0.577349 -0.660482 0.479995 0.577349 -0.660482 0.479995 0.577349 -0.479995 -0.660482 0.577349 0.660482 -0.479995 0.577349 0.479995 0.660482 0.577349 0.479995 0.660482 0.577349 0.660482 -0.479995 -0.577349 0.660482 -0.479995 -0.577349 0.479995 0.660482 0.577349 -0.660482 0.479995 0.577349 0.479995 0.660482 0.577349 -0.479995 -0.660482 0.577349 0.660482 -0.479995 " />
											<TextureCoordinate point="0.1160 0.2931 0.1160 0.4630 0.2256 0.4630 0.2256 0.2931 0.1160 0.2931 0.1160 0.4630 0.2256 0.4630 0.2256 0.2931 0.1160 0.2931 0.1160 0.4630 0.2256 0.4630 0.2256 0.2931 0.1160 0.2931 0.1160 0.4630 0.2256 0.4630 0.2256 0.2931 0.2256 0.4630 0.2256 0.2931 0.1160 0.2931 0.1160 0.4630 0.1160 0.2931 0.2256 0.2931 0.2256 0.4630 0.1160 0.4630 0.1160 0.2931 0.2256 0.2931 0.2256 0.4630 0.1160 0.4630 0.1160 0.2931 0.2256 0.2931 0.2256 0.4630 0.1160 0.4630 0.1160 0.2931 0.2256 0.2931 0.2256 0.4630 0.1160 0.4630 0.2256 0.2931 0.2256 0.4630 0.1160 0.2931 0.1160 0.4630 " />
										</IndexedTriangleSet>
									</Shape>
								</Group>
							</Transform>
						</Transform>
					</Transform>
					<Transform DEF="mouth_TRANSFORM"
					           translation="0.000000 -0.389028 -0.009953"
					           scale="1.000000 1.000000 1.000000"
					           rotation="0.000000 1.000000 0.000000 0.000000"
					           >
						<Transform DEF="mouth_ifs_TRANSFORM"
						           translation="0.000000 0.000000 0.000000"
						           scale="1.000000 1.000000 1.000000"
						           rotation="0.000000 1.000000 0.000000 0.000000"
						           >
							<Group DEF="group_ME_mouth">
								<Shape>
									<Appearance>
										<Material USE="MA_Body" />
									</Appearance>
									<IndexedTriangleSet solid="false"
									                    normalPerVertex="true"
									                    index="0 1 2 0 2 3 4 5 6 4 6 7 8 9 10 8 10 11 12 13 14 12 14 15 4 16 17 4 17 15 18 19 20 18 20 21 "
									                    >
										<Coordinate point="-0.200704 -0.172893 -0.329798 -0.200704 -0.348644 -0.130790 -0.200704 -0.087876 0.099504 -0.200704 0.087876 -0.099504 -0.200704 0.087876 -0.099504 -0.200704 -0.087876 0.099504 0.200704 -0.087876 0.099504 0.200704 0.087876 -0.099504 0.200704 0.087876 -0.099504 0.200704 -0.087876 0.099504 0.200704 -0.348644 -0.130790 0.200704 -0.172893 -0.329798 0.200704 -0.172893 -0.329798 0.200704 -0.348644 -0.130790 -0.200704 -0.348644 -0.130790 -0.200704 -0.172893 -0.329798 0.200704 0.087876 -0.099504 0.200704 -0.172893 -0.329798 0.200704 -0.087876 0.099504 -0.200704 -0.087876 0.099504 -0.200704 -0.348644 -0.130790 0.200704 -0.348644 -0.130790 " />
										<Normal vector="-0.577349 -0.050569 -0.814905 -0.577349 -0.814905 0.050569 -0.577349 0.050569 0.814905 -0.577349 0.814905 -0.050569 -0.577349 0.814905 -0.050569 -0.577349 0.050569 0.814905 0.577349 0.050569 0.814905 0.577349 0.814905 -0.050569 0.577349 0.814905 -0.050569 0.577349 0.050569 0.814905 0.577349 -0.814905 0.050569 0.577349 -0.050569 -0.814905 0.577349 -0.050569 -0.814905 0.577349 -0.814905 0.050569 -0.577349 -0.814905 0.050569 -0.577349 -0.050569 -0.814905 0.577349 0.814905 -0.050569 0.577349 -0.050569 -0.814905 0.577349 0.050569 0.814905 -0.577349 0.050569 0.814905 -0.577349 -0.814905 0.050569 0.577349 -0.814905 0.050569 " />
										<TextureCoordinate point="0.0120 0.5328 0.2281 0.5328 0.2281 0.9811 0.0120 0.9811 0.0120 0.5328 0.2281 0.5328 0.2281 0.9811 0.0120 0.9811 0.0120 0.5328 0.2281 0.5328 0.2281 0.9811 0.0120 0.9811 0.0120 0.5328 0.2281 0.5328 0.2281 0.9811 0.0120 0.9811 0.2281 0.5328 0.2281 0.9811 0.0246 0.0324 0.0689 0.0324 0.0689 0.2158 0.0246 0.2158 " />
									</IndexedTriangleSet>
								</Shape>
							</Group>
						</Transform>
						<Transform DEF="Cube_005_TRANSFORM"
						           translation="0.000000 -0.275075 -0.090838"
						           scale="1.000000 1.000000 1.000000"
						           rotation="0.000000 1.000000 0.000000 0.000000"
						           >
							<Transform DEF="Cube_005_ifs_TRANSFORM"
							           translation="0.000000 0.000000 0.000000"
							           scale="1.000000 1.000000 1.000000"
							           rotation="0.000000 1.000000 0.000000 0.000000"
							           >
								<Group DEF="group_ME_Cube_019">
									<Shape>
										<Appearance>
											<Material USE="MA_Body" />
										</Appearance>
										<IndexedTriangleSet solid="false"
										                    normalPerVertex="true"
										                    index="0 1 2 0 2 3 4 5 6 4 6 7 8 9 10 8 10 11 12 13 14 12 14 15 4 16 17 4 17 15 18 5 14 18 14 19 20 21 22 20 22 23 24 25 26 24 26 27 28 29 30 28 30 31 32 33 34 32 34 35 24 33 36 24 36 37 38 39 34 38 34 27 "
										                    >
											<Coordinate point="0.062634 -0.019731 -0.004854 0.062634 -0.039687 0.076256 0.062634 -0.000225 0.085965 0.062634 0.019731 0.004854 0.062634 0.019731 0.004854 0.062634 -0.000225 0.085965 0.116979 -0.000225 0.085965 0.116979 0.019731 0.004854 0.116979 0.019731 0.004854 0.116979 -0.000225 0.085965 0.116979 -0.039687 0.076256 0.116979 -0.019731 -0.004854 0.116979 -0.019731 -0.004854 0.116979 -0.039687 0.076256 0.062634 -0.039687 0.076256 0.062634 -0.019731 -0.004854 0.116979 0.019731 0.004854 0.116979 -0.019731 -0.004854 0.116979 -0.000225 0.085965 0.116979 -0.039687 0.076256 -0.062634 -0.019731 -0.004854 -0.062634 0.019731 0.004854 -0.062634 -0.000225 0.085965 -0.062634 -0.039687 0.076256 -0.062634 0.019731 0.004854 -0.116979 0.019731 0.004854 -0.116979 -0.000225 0.085965 -0.062634 -0.000225 0.085965 -0.116979 0.019731 0.004854 -0.116979 -0.019731 -0.004854 -0.116979 -0.039687 0.076256 -0.116979 -0.000225 0.085965 -0.116979 -0.019731 -0.004854 -0.062634 -0.019731 -0.004854 -0.062634 -0.039687 0.076256 -0.116979 -0.039687 0.076256 -0.116979 -0.019731 -0.004854 -0.116979 0.019731 0.004854 -0.116979 -0.000225 0.085965 -0.116979 -0.039687 0.076256 " />
											<Normal vector="-0.577349 -0.422681 -0.698538 -0.577349 -0.698538 0.422681 -0.577349 0.422681 0.698538 -0.577349 0.698538 -0.422681 -0.577349 0.698538 -0.422681 -0.577349 0.422681 0.698538 0.577349 0.422681 0.698538 0.577349 0.698538 -0.422681 0.577349 0.698538 -0.422681 0.577349 0.422681 0.698538 0.577349 -0.698538 0.422681 0.577349 -0.422681 -0.698538 0.577349 -0.422681 -0.698538 0.577349 -0.698538 0.422681 -0.577349 -0.698538 0.422681 -0.577349 -0.422681 -0.698538 0.577349 0.698538 -0.422681 0.577349 -0.422681 -0.698538 0.577349 0.422681 0.698538 0.577349 -0.698538 0.422681 0.577349 -0.422681 -0.698538 0.577349 0.698538 -0.422681 0.577349 0.422681 0.698538 0.577349 -0.698538 0.422681 0.577349 0.698538 -0.422681 -0.577349 0.698538 -0.422681 -0.577349 0.422681 0.698538 0.577349 0.422681 0.698538 -0.577349 0.698538 -0.422681 -0.577349 -0.422681 -0.698538 -0.577349 -0.698538 0.422681 -0.577349 0.422681 0.698538 -0.577349 -0.422681 -0.698538 0.577349 -0.422681 -0.698538 0.577349 -0.698538 0.422681 -0.577349 -0.698538 0.422681 -0.577349 -0.422681 -0.698538 -0.577349 0.698538 -0.422681 -0.577349 0.422681 0.698538 -0.577349 -0.698538 0.422681 " />
											<TextureCoordinate point="0.1160 0.2931 0.2256 0.2931 0.2256 0.4630 0.1160 0.4630 0.1160 0.2931 0.2256 0.2931 0.2256 0.4630 0.1160 0.4630 0.1160 0.2931 0.2256 0.2931 0.2256 0.4630 0.1160 0.4630 0.1160 0.2931 0.2256 0.2931 0.2256 0.4630 0.1160 0.4630 0.2256 0.2931 0.2256 0.4630 0.1160 0.2931 0.1160 0.4630 0.1160 0.2931 0.1160 0.4630 0.2256 0.4630 0.2256 0.2931 0.1160 0.2931 0.1160 0.4630 0.2256 0.4630 0.2256 0.2931 0.1160 0.2931 0.1160 0.4630 0.2256 0.4630 0.2256 0.2931 0.1160 0.2931 0.1160 0.4630 0.2256 0.4630 0.2256 0.2931 0.2256 0.4630 0.2256 0.2931 0.1160 0.2931 0.1160 0.4630 " />
										</IndexedTriangleSet>
									</Shape>
								</Group>
							</Transform>
						</Transform>
					</Transform>
					<Transform DEF="Cube_007_TRANSFORM"
					           translation="0.000000 -0.235982 0.321794"
					           scale="1.000000 1.000000 1.000000"
					           rotation="0.000000 1.000000 0.000000 0.000000"
					           >
						<Transform DEF="Cube_007_ifs_TRANSFORM"
						           translation="0.000000 0.000000 0.000000"
						           scale="1.000000 1.000000 1.000000"
						           rotation="0.000000 1.000000 0.000000 0.000000"
						           >
							<Group DEF="group_ME_Cube_021">
								<Shape>
									<Appearance>
										<Material USE="MA_Body" />
									</Appearance>
									<IndexedTriangleSet solid="false"
									                    normalPerVertex="true"
									                    index="0 1 2 0 2 3 4 5 6 4 6 7 8 9 10 8 10 11 12 13 14 12 14 15 4 16 17 4 17 15 18 5 14 18 14 19 "
									                    >
										<Coordinate point="-0.093693 0.017350 0.396790 -0.093693 0.256462 0.303267 -0.093693 0.119556 -0.046762 -0.093693 -0.119556 0.046762 -0.093693 -0.119556 0.046762 -0.093693 0.119556 -0.046762 0.093693 0.119556 -0.046762 0.093693 -0.119556 0.046762 0.093693 -0.119556 0.046762 0.093693 0.119556 -0.046762 0.093693 0.256462 0.303267 0.093693 0.017350 0.396790 0.093693 0.017350 0.396790 0.093693 0.256462 0.303267 -0.093693 0.256462 0.303267 -0.093693 0.017350 0.396790 0.093693 -0.119556 0.046762 0.093693 0.017350 0.396790 0.093693 0.119556 -0.046762 0.093693 0.256462 0.303267 " />
										<Normal vector="-0.577349 -0.327372 0.747978 -0.577349 0.747978 0.327372 -0.577349 0.327372 -0.747978 -0.577349 -0.747978 -0.327372 -0.577349 -0.747978 -0.327372 -0.577349 0.327372 -0.747978 0.577349 0.327372 -0.747978 0.577349 -0.747978 -0.327372 0.577349 -0.747978 -0.327372 0.577349 0.327372 -0.747978 0.577349 0.747978 0.327372 0.577349 -0.327372 0.747978 0.577349 -0.327372 0.747978 0.577349 0.747978 0.327372 -0.577349 0.747978 0.327372 -0.577349 -0.327372 0.747978 0.577349 -0.747978 -0.327372 0.577349 -0.327372 0.747978 0.577349 0.327372 -0.747978 0.577349 0.747978 0.327372 " />
										<TextureCoordinate point="0.0159 0.5445 0.2241 0.5445 0.2241 0.9693 0.0159 0.9693 0.0159 0.5445 0.2241 0.5445 0.2241 0.9693 0.0159 0.9693 0.0159 0.5445 0.2241 0.5445 0.2241 0.9693 0.0159 0.9693 0.0159 0.5445 0.2241 0.5445 0.2241 0.9693 0.0159 0.9693 0.2241 0.5445 0.2241 0.9693 0.0159 0.5445 0.0159 0.9693 " />
									</IndexedTriangleSet>
								</Shape>
							</Group>
						</Transform>
					</Transform>
				</Transform>
				<Transform DEF="l1_TRANSFORM"
				           translation="0.000000 -0.403082 -0.417420"
				           scale="1.000000 1.000000 1.000000"
				           rotation="0.000000 1.000000 0.000000 0.000000"
				           >
					<Transform DEF="l1_ifs_TRANSFORM"
					           translation="0.000000 0.000000 0.000000"
					           scale="1.000000 1.000000 1.000000"
					           rotation="0.000000 1.000000 0.000000 0.000000"
					           >
						<Group DEF="group_ME_l1">
							<Shape>
								<Appearance>
									<Material USE="MA_Body" />
								</Appearance>
								<IndexedTriangleSet solid="false"
								                    normalPerVertex="true"
								                    index="0 1 2 0 2 3 4 5 6 4 6 7 8 9 10 8 10 11 12 13 14 12 14 15 4 16 17 4 17 15 18 5 14 18 14 19 "
								                    >
									<Coordinate point="-0.008953 -0.094896 -0.042095 -0.008953 0.094896 0.042095 -0.008953 0.177863 -0.144941 -0.008953 -0.011929 -0.229131 -0.008953 -0.011929 -0.229131 -0.008953 0.177863 -0.144941 0.008953 0.177863 -0.144941 0.008953 -0.011929 -0.229131 0.008953 -0.011929 -0.229131 0.008953 0.177863 -0.144941 0.008953 0.094896 0.042095 0.008953 -0.094896 -0.042095 0.008953 -0.094896 -0.042095 0.008953 0.094896 0.042095 -0.008953 0.094896 0.042095 -0.008953 -0.094896 -0.042095 0.008953 -0.011929 -0.229131 0.008953 -0.094896 -0.042095 0.008953 0.177863 -0.144941 0.008953 0.094896 0.042095 " />
									<Normal vector="-0.577349 -0.761864 0.293649 -0.577349 0.293649 0.761864 -0.577349 0.761864 -0.293649 -0.577349 -0.293649 -0.761864 -0.577349 -0.293649 -0.761864 -0.577349 0.761864 -0.293649 0.577349 0.761864 -0.293649 0.577349 -0.293649 -0.761864 0.577349 -0.293649 -0.761864 0.577349 0.761864 -0.293649 0.577349 0.293649 0.761864 0.577349 -0.761864 0.293649 0.577349 -0.761864 0.293649 0.577349 0.293649 0.761864 -0.577349 0.293649 0.761864 -0.577349 -0.761864 0.293649 0.577349 -0.293649 -0.761864 0.577349 -0.761864 0.293649 0.577349 0.761864 -0.293649 0.577349 0.293649 0.761864 " />
									<TextureCoordinate point="0.2732 0.0367 0.4721 0.0367 0.4721 0.4615 0.2732 0.4615 0.2732 0.0367 0.4721 0.0367 0.4721 0.4615 0.2732 0.4615 0.2732 0.0367 0.4721 0.0367 0.4721 0.4615 0.2732 0.4615 0.2732 0.0367 0.4721 0.0367 0.4721 0.4615 0.2732 0.4615 0.4721 0.0367 0.4721 0.4615 0.2732 0.0367 0.2732 0.4615 " />
								</IndexedTriangleSet>
							</Shape>
						</Group>
					</Transform>
					<Transform DEF="Cube_025_TRANSFORM"
					           translation="0.000000 0.080045 -0.180449"
					           scale="1.000000 1.000000 1.000000"
					           rotation="0.000000 1.000000 0.000000 0.000000"
					           >
						<Transform DEF="Cube_025_ifs_TRANSFORM"
						           translation="0.000000 0.000000 0.000000"
						           scale="1.000000 1.000000 1.000000"
						           rotation="0.000000 1.000000 0.000000 0.000000"
						           >
							<Group DEF="group_ME_Cube_025">
								<Shape>
									<Appearance>
										<Material USE="MA_Body" />
									</Appearance>
									<IndexedTriangleSet solid="false"
									                    normalPerVertex="true"
									                    index="0 1 2 0 2 3 4 5 6 4 6 7 8 9 10 8 10 11 12 13 14 12 14 15 4 16 17 4 17 15 18 5 14 18 14 19 "
									                    >
										<Coordinate point="-0.013562 -0.148300 -0.065784 -0.013562 0.148300 0.065784 -0.013562 0.328271 -0.339931 -0.013562 0.031671 -0.471500 -0.013562 0.031671 -0.471500 -0.013562 0.328271 -0.339931 0.013562 0.328271 -0.339931 0.013562 0.031671 -0.471500 0.013562 0.031671 -0.471500 0.013562 0.328271 -0.339931 0.013562 0.148300 0.065784 0.013562 -0.148300 -0.065784 0.013562 -0.148300 -0.065784 0.013562 0.148300 0.065784 -0.013562 0.148300 0.065784 -0.013562 -0.148300 -0.065784 0.013562 0.031671 -0.471500 0.013562 -0.148300 -0.065784 0.013562 0.328271 -0.339931 0.013562 0.148300 0.065784 " />
										<Normal vector="-0.577349 -0.761864 0.293619 -0.577349 0.293619 0.761864 -0.577349 0.761864 -0.293619 -0.577349 -0.293619 -0.761864 -0.577349 -0.293619 -0.761864 -0.577349 0.761864 -0.293619 0.577349 0.761864 -0.293619 0.577349 -0.293619 -0.761864 0.577349 -0.293619 -0.761864 0.577349 0.761864 -0.293619 0.577349 0.293619 0.761864 0.577349 -0.761864 0.293619 0.577349 -0.761864 0.293619 0.577349 0.293619 0.761864 -0.577349 0.293619 0.761864 -0.577349 -0.761864 0.293619 0.577349 -0.293619 -0.761864 0.577349 -0.761864 0.293619 0.577349 0.761864 -0.293619 0.577349 0.293619 0.761864 " />
										<TextureCoordinate point="0.2732 0.0367 0.4721 0.0367 0.4721 0.4615 0.2732 0.4615 0.2732 0.0367 0.4721 0.0367 0.4721 0.4615 0.2732 0.4615 0.2732 0.0367 0.4721 0.0367 0.4721 0.4615 0.2732 0.4615 0.2732 0.0367 0.4721 0.0367 0.4721 0.4615 0.2732 0.4615 0.4721 0.0367 0.4721 0.4615 0.2732 0.0367 0.2732 0.4615 " />
									</IndexedTriangleSet>
								</Shape>
							</Group>
						</Transform>
					</Transform>
				</Transform>
				<Transform DEF="arm1_TRANSFORM"
				           translation="0.299869 -0.372918 -0.030129"
				           scale="1.000000 1.000000 1.000000"
				           rotation="0.000000 1.000000 0.000000 0.000000"
				           >
					<Transform DEF="arm1_ifs_TRANSFORM"
					           translation="0.000000 0.000000 0.000000"
					           scale="1.000000 1.000000 1.000000"
					           rotation="0.000000 1.000000 0.000000 0.000000"
					           >
						<Group DEF="group_ME_arm1">
							<Shape>
								<Appearance>
									<Material USE="MA_Body" />
								</Appearance>
								<IndexedTriangleSet solid="false"
								                    normalPerVertex="true"
								                    index="0 1 2 0 2 3 4 5 6 4 6 7 8 9 10 8 10 11 12 13 14 12 14 15 4 16 17 4 17 15 18 5 14 18 14 19 "
								                    >
									<Coordinate point="0.000443 -0.133142 -0.018704 0.006525 -0.133154 0.017444 -0.000443 0.133142 0.018704 -0.006525 0.133154 -0.017444 -0.006525 0.133154 -0.017444 -0.000443 0.133142 0.018704 0.600763 0.149354 -0.082444 0.594681 0.149366 -0.118593 0.594681 0.149366 -0.118593 0.600763 0.149354 -0.082444 0.607732 -0.116942 -0.083704 0.601650 -0.116930 -0.119853 0.601650 -0.116930 -0.119853 0.607732 -0.116942 -0.083704 0.006525 -0.133154 0.017444 0.000443 -0.133142 -0.018704 0.594681 0.149366 -0.118593 0.601650 -0.116930 -0.119853 0.600763 0.149354 -0.082444 0.607732 -0.116942 -0.083704 " />
									<Normal vector="-0.649831 -0.592303 -0.476302 -0.458235 -0.592669 0.662343 -0.488449 0.561602 0.667806 -0.680044 0.561968 -0.470840 -0.680044 0.561968 -0.470840 -0.488449 0.561602 0.667806 0.649831 0.592303 0.476302 0.458235 0.592669 -0.662343 0.458235 0.592669 -0.662343 0.649831 0.592303 0.476302 0.680044 -0.561968 0.470840 0.488449 -0.561602 -0.667806 0.488449 -0.561602 -0.667806 0.680044 -0.561968 0.470840 -0.458235 -0.592669 0.662343 -0.649831 -0.592303 -0.476302 0.458235 0.592669 -0.662343 0.488449 -0.561602 -0.667806 0.649831 0.592303 0.476302 0.680044 -0.561968 0.470840 " />
									<TextureCoordinate point="0.2791 0.0375 0.4777 0.0375 0.4777 0.4428 0.2791 0.4428 0.2791 0.0375 0.4777 0.0375 0.4777 0.4428 0.2791 0.4428 0.2791 0.0375 0.4777 0.0375 0.4777 0.4428 0.2791 0.4428 0.2791 0.0375 0.4777 0.0375 0.4777 0.4428 0.2791 0.4428 0.4777 0.0375 0.4777 0.4428 0.2791 0.0375 0.2791 0.4428 " />
								</IndexedTriangleSet>
							</Shape>
						</Group>
					</Transform>
				</Transform>
				<Transform DEF="arm2_TRANSFORM"
				           translation="-0.299869 -0.372918 -0.030129"
				           scale="1.000000 1.000000 1.000000"
				           rotation="0.000000 1.000000 0.000000 0.000000"
				           >
					<Transform DEF="arm2_ifs_TRANSFORM"
					           translation="0.000000 0.000000 0.000000"
					           scale="1.000000 1.000000 1.000000"
					           rotation="0.000000 1.000000 0.000000 0.000000"
					           >
						<Group DEF="group_ME_arm2">
							<Shape>
								<Appearance>
									<Material USE="MA_Body" />
								</Appearance>
								<IndexedTriangleSet solid="false"
								                    normalPerVertex="true"
								                    index="0 1 2 0 2 3 4 5 6 4 6 7 8 9 10 8 10 11 12 13 14 12 14 15 4 13 16 4 16 17 18 19 14 18 14 7 "
								                    >
									<Coordinate point="-0.000443 -0.133142 -0.018704 0.006525 0.133154 -0.017444 0.000443 0.133142 0.018704 -0.006525 -0.133154 0.017444 0.006525 0.133154 -0.017444 -0.594681 0.149366 -0.118593 -0.600763 0.149354 -0.082444 0.000443 0.133142 0.018704 -0.594681 0.149366 -0.118593 -0.601650 -0.116930 -0.119853 -0.607732 -0.116942 -0.083704 -0.600763 0.149354 -0.082444 -0.601650 -0.116930 -0.119853 -0.000443 -0.133142 -0.018704 -0.006525 -0.133154 0.017444 -0.607732 -0.116942 -0.083704 -0.601650 -0.116930 -0.119853 -0.594681 0.149366 -0.118593 -0.600763 0.149354 -0.082444 -0.607732 -0.116942 -0.083704 " />
									<Normal vector="0.649831 -0.592303 -0.476302 0.680044 0.561968 -0.470840 0.488449 0.561602 0.667806 0.458235 -0.592669 0.662343 0.680044 0.561968 -0.470840 -0.458235 0.592669 -0.662343 -0.649831 0.592303 0.476302 0.488449 0.561602 0.667806 -0.458235 0.592669 -0.662343 -0.488449 -0.561602 -0.667806 -0.680044 -0.561968 0.470840 -0.649831 0.592303 0.476302 -0.488449 -0.561602 -0.667806 0.649831 -0.592303 -0.476302 0.458235 -0.592669 0.662343 -0.680044 -0.561968 0.470840 -0.488449 -0.561602 -0.667806 -0.458235 0.592669 -0.662343 -0.649831 0.592303 0.476302 -0.680044 -0.561968 0.470840 " />
									<TextureCoordinate point="0.2791 0.0375 0.2791 0.4428 0.4777 0.4428 0.4777 0.0375 0.2791 0.0375 0.2791 0.4428 0.4777 0.4428 0.4777 0.0375 0.2791 0.0375 0.2791 0.4428 0.4777 0.4428 0.4777 0.0375 0.2791 0.0375 0.2791 0.4428 0.4777 0.4428 0.4777 0.0375 0.4777 0.4428 0.4777 0.0375 0.2791 0.0375 0.2791 0.4428 " />
								</IndexedTriangleSet>
							</Shape>
						</Group>
					</Transform>
				</Transform>
			</Transform>
			<Transform DEF="Cube_008_TRANSFORM"
			           translation="0.000000 0.563783 -0.015446"
			           scale="1.000000 1.000000 1.000000"
			           rotation="0.000000 1.000000 0.000000 0.000000"
			           >
				<Transform DEF="Cube_008_ifs_TRANSFORM"
				           translation="0.000000 0.000000 0.000000"
				           scale="1.000000 1.000000 1.000000"
				           rotation="0.000000 1.000000 0.000000 0.000000"
				           >
					<Group DEF="group_ME_Cube_022">
						<Shape>
							<Appearance>
								<Material USE="MA_Body" />
							</Appearance>
							<IndexedTriangleSet solid="false"
							                    normalPerVertex="true"
							                    index="0 1 2 0 2 3 4 5 6 4 6 7 8 9 10 8 10 11 12 13 14 12 14 15 16 17 18 16 18 19 20 5 14 20 14 21 22 23 24 22 24 25 26 27 28 26 28 29 30 31 32 30 32 33 34 35 36 34 36 37 38 39 40 38 40 41 16 42 43 16 43 44 45 46 47 45 47 48 49 50 51 49 51 19 "
							                    >
								<Coordinate point="-0.264908 0.173500 -0.114743 -0.264908 0.173500 -0.436024 -0.264908 0.000000 -0.436024 -0.264908 0.000000 -0.114743 -0.264908 0.000000 -0.114743 -0.264908 0.000000 -0.436024 0.264908 0.000000 -0.436024 0.264908 0.000000 -0.114743 0.264908 0.000000 -0.114743 0.264908 0.000000 -0.436024 0.264908 0.173500 -0.436024 0.264908 0.173500 -0.114743 0.264908 0.173500 -0.114743 0.264908 0.173500 -0.436024 -0.264908 0.173500 -0.436024 -0.264908 0.173500 -0.114743 -0.264908 -0.000000 0.436024 0.264908 -0.000000 0.436024 0.264908 0.173499 0.436024 -0.264908 0.173499 0.436024 0.264908 0.000000 -0.436024 0.264908 0.173500 -0.436024 0.264908 0.173500 -0.092920 0.264908 0.173500 -0.114743 -0.264908 0.173500 -0.114743 -0.264908 0.173500 -0.092920 0.264908 0.000000 -0.092920 0.264908 0.000000 -0.114743 0.264908 0.173500 -0.114743 0.264908 0.173500 -0.092920 -0.264908 0.000000 -0.092920 -0.264908 0.000000 -0.114743 0.264908 0.000000 -0.114743 0.264908 0.000000 -0.092920 -0.264908 0.173500 -0.092920 -0.264908 0.173500 -0.114743 -0.264908 0.000000 -0.114743 -0.264908 0.000000 -0.092920 -0.264908 0.173499 0.436024 -0.264908 0.173500 -0.092920 -0.264908 0.000000 -0.092920 -0.264908 -0.000000 0.436024 -0.264908 0.000000 -0.092920 0.264908 0.000000 -0.092920 0.264908 -0.000000 0.436024 0.264908 -0.000000 0.436024 0.264908 0.000000 -0.092920 0.264908 0.173500 -0.092920 0.264908 0.173499 0.436024 0.264908 0.173499 0.436024 0.264908 0.173500 -0.092920 -0.264908 0.173500 -0.092920 " />
								<Normal vector="-0.707083 0.707083 0.000000 -0.577349 0.577349 -0.577349 -0.577349 -0.577349 -0.577349 -0.707083 -0.707083 0.000000 -0.707083 -0.707083 0.000000 -0.577349 -0.577349 -0.577349 0.577349 -0.577349 -0.577349 0.707083 -0.707083 0.000000 0.707083 -0.707083 0.000000 0.577349 -0.577349 -0.577349 0.577349 0.577349 -0.577349 0.707083 0.707083 0.000000 0.707083 0.707083 0.000000 0.577349 0.577349 -0.577349 -0.577349 0.577349 -0.577349 -0.707083 0.707083 0.000000 -0.577349 -0.577349 0.577349 0.577349 -0.577349 0.577349 0.577349 0.577349 0.577349 -0.577349 0.577349 0.577349 0.577349 -0.577349 -0.577349 0.577349 0.577349 -0.577349 0.707083 0.707083 0.000000 0.707083 0.707083 0.000000 -0.707083 0.707083 0.000000 -0.707083 0.707083 0.000000 0.707083 -0.707083 0.000000 0.707083 -0.707083 0.000000 0.707083 0.707083 0.000000 0.707083 0.707083 0.000000 -0.707083 -0.707083 0.000000 -0.707083 -0.707083 0.000000 0.707083 -0.707083 0.000000 0.707083 -0.707083 0.000000 -0.707083 0.707083 0.000000 -0.707083 0.707083 0.000000 -0.707083 -0.707083 0.000000 -0.707083 -0.707083 0.000000 -0.577349 0.577349 0.577349 -0.707083 0.707083 0.000000 -0.707083 -0.707083 0.000000 -0.577349 -0.577349 0.577349 -0.707083 -0.707083 0.000000 0.707083 -0.707083 0.000000 0.577349 -0.577349 0.577349 0.577349 -0.577349 0.577349 0.707083 -0.707083 0.000000 0.707083 0.707083 0.000000 0.577349 0.577349 0.577349 0.577349 0.577349 0.577349 0.707083 0.707083 0.000000 -0.707083 0.707083 0.000000 " />
								<TextureCoordinate point="0.1200 0.5445 0.2241 0.5445 0.2241 0.9693 0.1200 0.9693 0.1200 0.5445 0.2241 0.5445 0.2241 0.9693 0.1200 0.9693 0.1200 0.5445 0.2241 0.5445 0.2241 0.9693 0.1200 0.9693 0.1200 0.5445 0.2241 0.5445 0.2241 0.9693 0.1200 0.9693 0.0159 0.5445 0.2241 0.5445 0.2241 0.9693 0.0159 0.9693 0.0159 0.5445 0.0159 0.9693 0.1129 0.0291 0.2325 0.0291 0.2325 0.2051 0.1129 0.2051 0.1129 0.0291 0.2325 0.0291 0.2325 0.2051 0.1129 0.2051 0.1129 0.0291 0.2325 0.0291 0.2325 0.2051 0.1129 0.2051 0.1129 0.0291 0.2325 0.0291 0.2325 0.2051 0.1129 0.2051 0.0159 0.5445 0.0679 0.5445 0.0679 0.9693 0.0159 0.9693 0.0679 0.5445 0.0679 0.9693 0.0159 0.9693 0.0159 0.5445 0.0679 0.5445 0.0679 0.9693 0.0159 0.9693 0.0159 0.5445 0.0679 0.5445 0.0679 0.9693 " />
							</IndexedTriangleSet>
						</Shape>
					</Group>
				</Transform>
			</Transform>
			<Transform DEF="tail_TRANSFORM"
			           translation="0.000000 0.683910 0.293224"
			           scale="1.000000 1.000000 1.000000"
			           rotation="0.000000 1.000000 0.000000 0.000000"
			           >
				<Transform DEF="tail_ifs_TRANSFORM"
				           translation="0.000000 0.000000 0.000000"
				           scale="1.000000 1.000000 1.000000"
				           rotation="0.000000 1.000000 0.000000 0.000000"
				           >
					<Group DEF="group_ME_tail">
						<Shape>
							<Appearance>
								<Material USE="MA_Body" />
							</Appearance>
							<IndexedTriangleSet solid="false"
							                    normalPerVertex="true"
							                    index="0 1 2 0 2 3 4 5 6 4 6 7 8 9 10 8 10 11 12 13 14 12 14 15 4 16 17 4 17 15 18 5 14 18 14 19 "
							                    >
								<Coordinate point="-0.046974 0.047779 -0.080316 -0.046974 -0.047779 0.080316 -0.046974 0.090577 0.162622 -0.046974 0.186135 0.001991 -0.046974 0.186135 0.001991 -0.046974 0.090577 0.162622 0.046974 0.090577 0.162622 0.046974 0.186135 0.001991 0.046974 0.186135 0.001991 0.046974 0.090577 0.162622 0.046974 -0.047779 0.080316 0.046974 0.047779 -0.080316 0.046974 0.047779 -0.080316 0.046974 -0.047779 0.080316 -0.046974 -0.047779 0.080316 -0.046974 0.047779 -0.080316 0.046974 0.186135 0.001991 0.046974 0.047779 -0.080316 0.046974 0.090577 0.162622 0.046974 -0.047779 0.080316 " />
								<Normal vector="-0.577349 -0.200995 -0.791345 -0.577349 -0.791345 0.200995 -0.577349 0.200995 0.791345 -0.577349 0.791345 -0.200995 -0.577349 0.791345 -0.200995 -0.577349 0.200995 0.791345 0.577349 0.200995 0.791345 0.577349 0.791345 -0.200995 0.577349 0.791345 -0.200995 0.577349 0.200995 0.791345 0.577349 -0.791345 0.200995 0.577349 -0.200995 -0.791345 0.577349 -0.200995 -0.791345 0.577349 -0.791345 0.200995 -0.577349 -0.791345 0.200995 -0.577349 -0.200995 -0.791345 0.577349 0.791345 -0.200995 0.577349 -0.200995 -0.791345 0.577349 0.200995 0.791345 0.577349 -0.791345 0.200995 " />
								<TextureCoordinate point="0.0159 0.5445 0.2241 0.5445 0.2241 0.9693 0.0159 0.9693 0.0159 0.5445 0.2241 0.5445 0.2241 0.9693 0.0159 0.9693 0.0159 0.5445 0.2241 0.5445 0.2241 0.9693 0.0159 0.9693 0.0159 0.5445 0.2241 0.5445 0.2241 0.9693 0.0159 0.9693 0.2241 0.5445 0.2241 0.9693 0.0159 0.5445 0.0159 0.9693 " />
							</IndexedTriangleSet>
						</Shape>
					</Group>
				</Transform>
				<Transform DEF="Cube_010_TRANSFORM"
				           translation="0.000000 0.091923 0.085971"
				           scale="1.000000 1.000000 1.000000"
				           rotation="0.000000 1.000000 0.000000 0.000000"
				           >
					<Transform DEF="Cube_010_ifs_TRANSFORM"
					           translation="0.000000 0.000000 0.000000"
					           scale="1.000000 1.000000 1.000000"
					           rotation="0.000000 1.000000 0.000000 0.000000"
					           >
						<Group DEF="group_ME_Cube_003">
							<Shape>
								<Appearance>
									<Material USE="MA_Body" />
								</Appearance>
								<IndexedTriangleSet solid="false"
								                    normalPerVertex="true"
								                    index="0 1 2 0 2 3 4 5 6 4 6 7 8 9 10 8 10 11 12 13 14 12 14 15 4 16 17 4 17 15 18 5 14 18 14 19 "
								                    >
									<Coordinate point="-0.035176 0.042857 -0.033479 -0.035176 -0.042857 0.033479 -0.035176 0.402550 0.603655 -0.035176 0.488264 0.536697 -0.035176 0.488264 0.536697 -0.035176 0.402550 0.603655 0.035176 0.402550 0.603655 0.035176 0.488264 0.536697 0.035176 0.488264 0.536697 0.035176 0.402550 0.603655 0.035176 -0.042857 0.033479 0.035176 0.042857 -0.033479 0.035176 0.042857 -0.033479 0.035176 -0.042857 0.033479 -0.035176 -0.042857 0.033479 -0.035176 0.042857 -0.033479 0.035176 0.488264 0.536697 0.035176 0.042857 -0.033479 0.035176 0.402550 0.603655 0.035176 -0.042857 0.033479 " />
									<Normal vector="-0.577349 0.099551 -0.810389 -0.577349 -0.810389 -0.099551 -0.577349 -0.099551 0.810389 -0.577349 0.810389 0.099551 -0.577349 0.810389 0.099551 -0.577349 -0.099551 0.810389 0.577349 -0.099551 0.810389 0.577349 0.810389 0.099551 0.577349 0.810389 0.099551 0.577349 -0.099551 0.810389 0.577349 -0.810389 -0.099551 0.577349 0.099551 -0.810389 0.577349 0.099551 -0.810389 0.577349 -0.810389 -0.099551 -0.577349 -0.810389 -0.099551 -0.577349 0.099551 -0.810389 0.577349 0.810389 0.099551 0.577349 0.099551 -0.810389 0.577349 -0.099551 0.810389 0.577349 -0.810389 -0.099551 " />
									<TextureCoordinate point="0.0159 0.5445 0.2241 0.5445 0.2241 0.9693 0.0159 0.9693 0.0159 0.5445 0.2241 0.5445 0.2241 0.9693 0.0159 0.9693 0.0159 0.5445 0.2241 0.5445 0.2241 0.9693 0.0159 0.9693 0.0159 0.5445 0.2241 0.5445 0.2241 0.9693 0.0159 0.9693 0.2241 0.5445 0.2241 0.9693 0.0159 0.5445 0.0159 0.9693 " />
								</IndexedTriangleSet>
							</Shape>
						</Group>
					</Transform>
					<Transform DEF="Cube_011_TRANSFORM"
					           translation="0.000000 0.412345 0.547805"
					           scale="1.000000 1.000000 1.000000"
					           rotation="0.000000 1.000000 0.000000 0.000000"
					           >
						<Transform DEF="Cube_011_ifs_TRANSFORM"
						           translation="0.000000 0.000000 0.000000"
						           scale="1.000000 1.000000 1.000000"
						           rotation="0.000000 1.000000 0.000000 0.000000"
						           >
							<Group DEF="group_ME_Cube_004">
								<Shape>
									<Appearance>
										<Material USE="MA_Body" />
									</Appearance>
									<IndexedTriangleSet solid="false"
									                    normalPerVertex="true"
									                    index="0 1 2 0 2 3 4 5 6 4 6 7 8 9 10 8 10 11 12 13 14 12 14 15 4 16 17 4 17 15 18 5 14 18 14 19 "
									                    >
										<Coordinate point="-0.027741 0.019023 -0.038177 -0.027741 -0.019023 0.038177 -0.027741 0.510711 0.302135 -0.027741 0.548757 0.225782 -0.027741 0.548757 0.225782 -0.027741 0.510711 0.302135 0.027741 0.510711 0.302135 0.027741 0.548757 0.225782 0.027741 0.548757 0.225782 0.027741 0.510711 0.302135 0.027741 -0.019023 0.038177 0.027741 0.019023 -0.038177 0.027741 0.019023 -0.038177 0.027741 -0.019023 0.038177 -0.027741 -0.019023 0.038177 -0.027741 0.019023 -0.038177 0.027741 0.548757 0.225782 0.027741 0.019023 -0.038177 0.027741 0.510711 0.302135 0.027741 -0.019023 0.038177 " />
										<Normal vector="-0.577349 -0.259255 -0.774224 -0.577349 -0.774224 0.259255 -0.577349 0.259255 0.774224 -0.577349 0.774224 -0.259255 -0.577349 0.774224 -0.259255 -0.577349 0.259255 0.774224 0.577349 0.259255 0.774224 0.577349 0.774224 -0.259255 0.577349 0.774224 -0.259255 0.577349 0.259255 0.774224 0.577349 -0.774224 0.259255 0.577349 -0.259255 -0.774224 0.577349 -0.259255 -0.774224 0.577349 -0.774224 0.259255 -0.577349 -0.774224 0.259255 -0.577349 -0.259255 -0.774224 0.577349 0.774224 -0.259255 0.577349 -0.259255 -0.774224 0.577349 0.259255 0.774224 0.577349 -0.774224 0.259255 " />
										<TextureCoordinate point="0.0159 0.5445 0.2241 0.5445 0.2241 0.9693 0.0159 0.9693 0.0159 0.5445 0.2241 0.5445 0.2241 0.9693 0.0159 0.9693 0.0159 0.5445 0.2241 0.5445 0.2241 0.9693 0.0159 0.9693 0.0159 0.5445 0.2241 0.5445 0.2241 0.9693 0.0159 0.9693 0.2241 0.5445 0.2241 0.9693 0.0159 0.5445 0.0159 0.9693 " />
									</IndexedTriangleSet>
								</Shape>
							</Group>
						</Transform>
					</Transform>
				</Transform>
				<Transform DEF="Cube_012_TRANSFORM"
				           translation="0.000000 0.377882 0.449385"
				           scale="1.000000 1.000000 1.000000"
				           rotation="0.000000 1.000000 0.000000 0.000000"
				           >
					<Transform DEF="Cube_012_ifs_TRANSFORM"
					           translation="0.000000 0.000000 0.000000"
					           scale="1.000000 1.000000 1.000000"
					           rotation="0.000000 1.000000 0.000000 0.000000"
					           >
						<Group DEF="group_ME_Cube_005">
							<Shape>
								<Appearance>
									<Material USE="MA_Body" />
								</Appearance>
								<IndexedTriangleSet solid="false"
								                    normalPerVertex="true"
								                    index="0 1 2 0 2 3 4 5 6 4 6 7 8 9 10 8 10 11 12 13 14 12 14 15 4 16 17 4 17 15 18 5 14 18 14 19 "
								                    >
									<Coordinate point="-0.014870 -0.093361 -0.186248 -0.014870 0.093361 0.186248 -0.014870 0.367153 0.049003 -0.014870 0.180431 -0.323492 -0.014870 0.180431 -0.323492 -0.014870 0.367153 0.049003 0.014870 0.367153 0.049003 0.014870 0.180431 -0.323492 0.014870 0.180431 -0.323492 0.014870 0.367153 0.049003 0.014870 0.093361 0.186248 0.014870 -0.093361 -0.186248 0.014870 -0.093361 -0.186248 0.014870 0.093361 0.186248 -0.014870 0.093361 0.186248 -0.014870 -0.093361 -0.186248 0.014870 0.180431 -0.323492 0.014870 -0.093361 -0.186248 0.014870 0.367153 0.049003 0.014870 0.093361 0.186248 " />
									<Normal vector="-0.577349 -0.774834 -0.257393 -0.577349 -0.257393 0.774834 -0.577349 0.774834 0.257393 -0.577349 0.257393 -0.774834 -0.577349 0.257393 -0.774834 -0.577349 0.774834 0.257393 0.577349 0.774834 0.257393 0.577349 0.257393 -0.774834 0.577349 0.257393 -0.774834 0.577349 0.774834 0.257393 0.577349 -0.257393 0.774834 0.577349 -0.774834 -0.257393 0.577349 -0.774834 -0.257393 0.577349 -0.257393 0.774834 -0.577349 -0.257393 0.774834 -0.577349 -0.774834 -0.257393 0.577349 0.257393 -0.774834 0.577349 -0.774834 -0.257393 0.577349 0.774834 0.257393 0.577349 -0.257393 0.774834 " />
									<TextureCoordinate point="0.2732 0.0367 0.4721 0.0367 0.4721 0.4615 0.2732 0.4615 0.2732 0.0367 0.4721 0.0367 0.4721 0.4615 0.2732 0.4615 0.2732 0.0367 0.4721 0.0367 0.4721 0.4615 0.2732 0.4615 0.2732 0.0367 0.4721 0.0367 0.4721 0.4615 0.2732 0.4615 0.4721 0.0367 0.4721 0.4615 0.2732 0.0367 0.2732 0.4615 " />
								</IndexedTriangleSet>
							</Shape>
						</Group>
					</Transform>
				</Transform>
				<Transform DEF="Cube_013_TRANSFORM"
				           translation="0.000000 0.601279 0.550480"
				           scale="1.000000 1.000000 1.000000"
				           rotation="0.000000 1.000000 0.000000 0.000000"
				           >
					<Transform DEF="Cube_013_ifs_TRANSFORM"
					           translation="0.000000 0.000000 0.000000"
					           scale="1.000000 1.000000 1.000000"
					           rotation="0.000000 1.000000 0.000000 0.000000"
					           >
						<Group DEF="group_ME_Cube_006">
							<Shape>
								<Appearance>
									<Material USE="MA_Body" />
								</Appearance>
								<IndexedTriangleSet solid="false"
								                    normalPerVertex="true"
								                    index="0 1 2 0 2 3 4 5 6 4 6 7 8 9 10 8 10 11 12 13 14 12 14 15 4 16 17 4 17 15 18 5 14 18 14 19 "
								                    >
									<Coordinate point="-0.010369 0.058029 -0.084274 -0.010369 -0.058029 0.084274 -0.010369 0.139234 0.220103 -0.010369 0.255291 0.051556 -0.010369 0.255291 0.051556 -0.010369 0.139234 0.220103 0.010369 0.139234 0.220103 0.010369 0.255291 0.051556 0.010369 0.255291 0.051556 0.010369 0.139234 0.220103 0.010369 -0.058029 0.084274 0.010369 0.058029 -0.084274 0.010369 0.058029 -0.084274 0.010369 -0.058029 0.084274 -0.010369 -0.058029 0.084274 -0.010369 0.058029 -0.084274 0.010369 0.255291 0.051556 0.010369 0.058029 -0.084274 0.010369 0.139234 0.220103 0.010369 -0.058029 0.084274 " />
									<Normal vector="-0.577349 -0.148076 -0.802942 -0.577349 -0.802942 0.148076 -0.577349 0.148076 0.802942 -0.577349 0.802942 -0.148076 -0.577349 0.802942 -0.148076 -0.577349 0.148076 0.802942 0.577349 0.148076 0.802942 0.577349 0.802942 -0.148076 0.577349 0.802942 -0.148076 0.577349 0.148076 0.802942 0.577349 -0.802942 0.148076 0.577349 -0.148076 -0.802942 0.577349 -0.148076 -0.802942 0.577349 -0.802942 0.148076 -0.577349 -0.802942 0.148076 -0.577349 -0.148076 -0.802942 0.577349 0.802942 -0.148076 0.577349 -0.148076 -0.802942 0.577349 0.148076 0.802942 0.577349 -0.802942 0.148076 " />
									<TextureCoordinate point="0.2732 0.0367 0.4721 0.0367 0.4721 0.4615 0.2732 0.4615 0.2732 0.0367 0.4721 0.0367 0.4721 0.4615 0.2732 0.4615 0.2732 0.0367 0.4721 0.0367 0.4721 0.4615 0.2732 0.4615 0.2732 0.0367 0.4721 0.0367 0.4721 0.4615 0.2732 0.4615 0.4721 0.0367 0.4721 0.4615 0.2732 0.0367 0.2732 0.4615 " />
								</IndexedTriangleSet>
							</Shape>
						</Group>
					</Transform>
				</Transform>
				<Transform DEF="Cube_014_TRANSFORM"
				           translation="0.000000 0.780894 0.674158"
				           scale="1.000000 1.000000 1.000000"
				           rotation="0.000000 1.000000 0.000000 0.000000"
				           >
					<Transform DEF="Cube_014_ifs_TRANSFORM"
					           translation="0.000000 0.000000 0.000000"
					           scale="1.000000 1.000000 1.000000"
					           rotation="0.000000 1.000000 0.000000 0.000000"
					           >
						<Group DEF="group_ME_Cube_007">
							<Shape>
								<Appearance>
									<Material USE="MA_Body" />
								</Appearance>
								<IndexedTriangleSet solid="false"
								                    normalPerVertex="true"
								                    index="0 1 2 0 2 3 4 5 6 4 6 7 8 9 10 8 10 11 12 13 14 12 14 15 4 16 17 4 17 15 18 5 14 18 14 19 "
								                    >
									<Coordinate point="-0.005608 0.033297 -0.037629 -0.005608 -0.033297 0.037629 -0.005608 0.148255 0.198284 -0.005608 0.214850 0.123026 -0.005608 0.214850 0.123026 -0.005608 0.148255 0.198284 0.005608 0.148255 0.198284 0.005608 0.214850 0.123026 0.005608 0.214850 0.123026 0.005608 0.148255 0.198284 0.005608 -0.033297 0.037629 0.005608 0.033297 -0.037629 0.005608 0.033297 -0.037629 0.005608 -0.033297 0.037629 -0.005608 -0.033297 0.037629 -0.005608 0.033297 -0.037629 0.005608 0.214850 0.123026 0.005608 0.033297 -0.037629 0.005608 0.148255 0.198284 0.005608 -0.033297 0.037629 " />
									<Normal vector="-0.577349 -0.049745 -0.814966 -0.577349 -0.814966 0.049745 -0.577349 0.049745 0.814966 -0.577349 0.814966 -0.049745 -0.577349 0.814966 -0.049745 -0.577349 0.049745 0.814966 0.577349 0.049745 0.814966 0.577349 0.814966 -0.049745 0.577349 0.814966 -0.049745 0.577349 0.049745 0.814966 0.577349 -0.814966 0.049745 0.577349 -0.049745 -0.814966 0.577349 -0.049745 -0.814966 0.577349 -0.814966 0.049745 -0.577349 -0.814966 0.049745 -0.577349 -0.049745 -0.814966 0.577349 0.814966 -0.049745 0.577349 -0.049745 -0.814966 0.577349 0.049745 0.814966 0.577349 -0.814966 0.049745 " />
									<TextureCoordinate point="0.2732 0.0367 0.4721 0.0367 0.4721 0.4615 0.2732 0.4615 0.2732 0.0367 0.4721 0.0367 0.4721 0.4615 0.2732 0.4615 0.2732 0.0367 0.4721 0.0367 0.4721 0.4615 0.2732 0.4615 0.2732 0.0367 0.4721 0.0367 0.4721 0.4615 0.2732 0.4615 0.4721 0.0367 0.4721 0.4615 0.2732 0.0367 0.2732 0.4615 " />
								</IndexedTriangleSet>
							</Shape>
						</Group>
					</Transform>
				</Transform>
				<Transform DEF="Cube_015_TRANSFORM"
				           translation="0.000000 0.190966 0.168258"
				           scale="1.000000 1.000000 1.000000"
				           rotation="0.000000 1.000000 0.000000 0.000000"
				           >
					<Transform DEF="Cube_015_ifs_TRANSFORM"
					           translation="0.000000 0.000000 0.000000"
					           scale="1.000000 1.000000 1.000000"
					           rotation="0.000000 1.000000 0.000000 0.000000"
					           >
						<Group DEF="group_ME_Cube_008">
							<Shape>
								<Appearance>
									<Material USE="MA_Body" />
								</Appearance>
								<IndexedTriangleSet solid="false"
								                    normalPerVertex="true"
								                    index="0 1 2 0 2 3 4 5 6 4 6 7 8 9 10 8 10 11 12 13 14 12 14 15 4 16 17 4 17 15 18 5 14 18 14 19 "
								                    >
									<Coordinate point="-0.025312 -0.055788 -0.146584 -0.025312 0.055788 0.146584 -0.025312 0.473944 -0.012562 -0.025312 0.362367 -0.305730 -0.025312 0.362367 -0.305730 -0.025312 0.473944 -0.012562 0.025312 0.473944 -0.012562 0.025312 0.362367 -0.305730 0.025312 0.362367 -0.305730 0.025312 0.473944 -0.012562 0.025312 0.055788 0.146584 0.025312 -0.055788 -0.146584 0.025312 -0.055788 -0.146584 0.025312 0.055788 0.146584 -0.025312 0.055788 0.146584 -0.025312 -0.055788 -0.146584 0.025312 0.362367 -0.305730 0.025312 -0.055788 -0.146584 0.025312 0.473944 -0.012562 0.025312 0.055788 0.146584 " />
									<Normal vector="-0.577349 -0.744926 -0.334208 -0.577349 -0.334208 0.744926 -0.577349 0.744926 0.334208 -0.577349 0.334208 -0.744926 -0.577349 0.334208 -0.744926 -0.577349 0.744926 0.334208 0.577349 0.744926 0.334208 0.577349 0.334208 -0.744926 0.577349 0.334208 -0.744926 0.577349 0.744926 0.334208 0.577349 -0.334208 0.744926 0.577349 -0.744926 -0.334208 0.577349 -0.744926 -0.334208 0.577349 -0.334208 0.744926 -0.577349 -0.334208 0.744926 -0.577349 -0.744926 -0.334208 0.577349 0.334208 -0.744926 0.577349 -0.744926 -0.334208 0.577349 0.744926 0.334208 0.577349 -0.334208 0.744926 " />
									<TextureCoordinate point="0.2732 0.0367 0.4721 0.0367 0.4721 0.4615 0.2732 0.4615 0.2732 0.0367 0.4721 0.0367 0.4721 0.4615 0.2732 0.4615 0.2732 0.0367 0.4721 0.0367 0.4721 0.4615 0.2732 0.4615 0.2732 0.0367 0.4721 0.0367 0.4721 0.4615 0.2732 0.4615 0.4721 0.0367 0.4721 0.4615 0.2732 0.0367 0.2732 0.4615 " />
								</IndexedTriangleSet>
							</Shape>
						</Group>
					</Transform>
				</Transform>
			</Transform>
			<Transform DEF="tail1_TRANSFORM"
			           translation="0.000000 0.566163 -0.432866"
			           scale="1.000000 1.000000 1.000000"
			           rotation="0.000000 1.000000 0.000000 0.000000"
			           >
				<Transform DEF="tail1_ifs_TRANSFORM"
				           translation="0.000000 0.000000 0.000000"
				           scale="1.000000 1.000000 1.000000"
				           rotation="0.000000 1.000000 0.000000 0.000000"
				           >
					<Group DEF="group_ME_tail1">
						<Shape>
							<Appearance>
								<Material USE="MA_Body" />
							</Appearance>
							<IndexedTriangleSet solid="false"
							                    normalPerVertex="true"
							                    index="0 1 2 0 2 3 4 5 6 4 6 7 8 9 10 8 10 11 12 13 14 12 14 15 4 16 17 4 17 15 18 5 14 18 14 19 "
							                    >
								<Coordinate point="-0.011366 -0.084960 -0.112970 -0.011366 0.084960 0.112970 -0.011366 0.312911 -0.058463 -0.011366 0.142991 -0.284403 -0.011366 0.142991 -0.284403 -0.011366 0.312911 -0.058463 0.011366 0.312911 -0.058463 0.011366 0.142991 -0.284403 0.011366 0.142991 -0.284403 0.011366 0.312911 -0.058463 0.011366 0.084960 0.112970 0.011366 -0.084960 -0.112970 0.011366 -0.084960 -0.112970 0.011366 0.084960 0.112970 -0.011366 0.084960 0.112970 -0.011366 -0.084960 -0.112970 0.011366 0.142991 -0.284403 0.011366 -0.084960 -0.112970 0.011366 0.312911 -0.058463 0.011366 0.084960 0.112970 " />
								<Normal vector="-0.577349 -0.808435 -0.114383 -0.577349 -0.114383 0.808435 -0.577349 0.808435 0.114383 -0.577349 0.114383 -0.808435 -0.577349 0.114383 -0.808435 -0.577349 0.808435 0.114383 0.577349 0.808435 0.114383 0.577349 0.114383 -0.808435 0.577349 0.114383 -0.808435 0.577349 0.808435 0.114383 0.577349 -0.114383 0.808435 0.577349 -0.808435 -0.114383 0.577349 -0.808435 -0.114383 0.577349 -0.114383 0.808435 -0.577349 -0.114383 0.808435 -0.577349 -0.808435 -0.114383 0.577349 0.114383 -0.808435 0.577349 -0.808435 -0.114383 0.577349 0.808435 0.114383 0.577349 -0.114383 0.808435 " />
								<TextureCoordinate point="0.2732 0.0367 0.4721 0.0367 0.4721 0.4615 0.2732 0.4615 0.2732 0.0367 0.4721 0.0367 0.4721 0.4615 0.2732 0.4615 0.2732 0.0367 0.4721 0.0367 0.4721 0.4615 0.2732 0.4615 0.2732 0.0367 0.4721 0.0367 0.4721 0.4615 0.2732 0.4615 0.4721 0.0367 0.4721 0.4615 0.2732 0.0367 0.2732 0.4615 " />
							</IndexedTriangleSet>
						</Shape>
					</Group>
				</Transform>
				<Transform DEF="Cube_017_TRANSFORM"
				           translation="0.000000 0.184548 -0.138792"
				           scale="1.000000 1.000000 1.000000"
				           rotation="0.000000 1.000000 0.000000 0.000000"
				           >
					<Transform DEF="Cube_017_ifs_TRANSFORM"
					           translation="0.000000 0.000000 0.000000"
					           scale="1.000000 1.000000 1.000000"
					           rotation="0.000000 1.000000 0.000000 0.000000"
					           >
						<Group DEF="group_ME_Cube_010">
							<Shape>
								<Appearance>
									<Material USE="MA_Body" />
								</Appearance>
								<IndexedTriangleSet solid="false"
								                    normalPerVertex="true"
								                    index="0 1 2 0 2 3 4 5 6 4 6 7 8 9 10 8 10 11 12 13 14 12 14 15 4 16 17 4 17 15 18 5 14 18 14 19 "
								                    >
									<Coordinate point="-0.008425 -0.052007 -0.105078 -0.008425 0.052007 0.105078 -0.008425 0.443671 -0.088773 -0.008425 0.339656 -0.298928 -0.008425 0.339656 -0.298928 -0.008425 0.443671 -0.088773 0.008425 0.443671 -0.088773 0.008425 0.339656 -0.298928 0.008425 0.339656 -0.298928 0.008425 0.443671 -0.088773 0.008425 0.052007 0.105078 0.008425 -0.052007 -0.105078 0.008425 -0.052007 -0.105078 0.008425 0.052007 0.105078 -0.008425 0.052007 0.105078 -0.008425 -0.052007 -0.105078 0.008425 0.339656 -0.298928 0.008425 -0.052007 -0.105078 0.008425 0.443671 -0.088773 0.008425 0.052007 0.105078 " />
									<Normal vector="-0.577349 -0.773522 -0.261330 -0.577349 -0.261330 0.773522 -0.577349 0.773522 0.261330 -0.577349 0.261330 -0.773522 -0.577349 0.261330 -0.773522 -0.577349 0.773522 0.261330 0.577349 0.773522 0.261330 0.577349 0.261330 -0.773522 0.577349 0.261330 -0.773522 0.577349 0.773522 0.261330 0.577349 -0.261330 0.773522 0.577349 -0.773522 -0.261330 0.577349 -0.773522 -0.261330 0.577349 -0.261330 0.773522 -0.577349 -0.261330 0.773522 -0.577349 -0.773522 -0.261330 0.577349 0.261330 -0.773522 0.577349 -0.773522 -0.261330 0.577349 0.773522 0.261330 0.577349 -0.261330 0.773522 " />
									<TextureCoordinate point="0.2732 0.0367 0.4721 0.0367 0.4721 0.4615 0.2732 0.4615 0.2732 0.0367 0.4721 0.0367 0.4721 0.4615 0.2732 0.4615 0.2732 0.0367 0.4721 0.0367 0.4721 0.4615 0.2732 0.4615 0.2732 0.0367 0.4721 0.0367 0.4721 0.4615 0.2732 0.4615 0.4721 0.0367 0.4721 0.4615 0.2732 0.0367 0.2732 0.4615 " />
								</IndexedTriangleSet>
							</Shape>
						</Group>
					</Transform>
					<Transform DEF="Cube_018_TRANSFORM"
					           translation="0.000000 0.359991 -0.178175"
					           scale="1.000000 1.000000 1.000000"
					           rotation="0.000000 1.000000 0.000000 0.000000"
					           >
						<Transform DEF="Cube_018_ifs_TRANSFORM"
						           translation="0.000000 0.000000 0.000000"
						           scale="1.000000 1.000000 1.000000"
						           rotation="0.000000 1.000000 0.000000 0.000000"
						           >
							<Group DEF="group_ME_Cube_011">
								<Shape>
									<Appearance>
										<Material USE="MA_Body" />
									</Appearance>
									<IndexedTriangleSet solid="false"
									                    normalPerVertex="true"
									                    index="0 1 2 0 2 3 4 5 6 4 6 7 8 9 10 8 10 11 12 13 14 12 14 15 4 16 17 4 17 15 18 5 14 18 14 19 "
									                    >
										<Coordinate point="-0.008923 -0.075809 -0.185820 -0.008923 0.075809 0.185820 -0.008923 0.456297 0.030593 -0.008923 0.304680 -0.341047 -0.008923 0.304680 -0.341047 -0.008923 0.456297 0.030593 0.008923 0.456297 0.030593 0.008923 0.304680 -0.341047 0.008923 0.304680 -0.341047 0.008923 0.456297 0.030593 0.008923 0.075809 0.185820 0.008923 -0.075809 -0.185820 0.008923 -0.075809 -0.185820 0.008923 0.075809 0.185820 -0.008923 0.075809 0.185820 -0.008923 -0.075809 -0.185820 0.008923 0.304680 -0.341047 0.008923 -0.075809 -0.185820 0.008923 0.456297 0.030593 0.008923 0.075809 0.185820 " />
										<Normal vector="-0.577349 -0.752647 -0.316477 -0.577349 -0.316477 0.752647 -0.577349 0.752647 0.316477 -0.577349 0.316477 -0.752647 -0.577349 0.316477 -0.752647 -0.577349 0.752647 0.316477 0.577349 0.752647 0.316477 0.577349 0.316477 -0.752647 0.577349 0.316477 -0.752647 0.577349 0.752647 0.316477 0.577349 -0.316477 0.752647 0.577349 -0.752647 -0.316477 0.577349 -0.752647 -0.316477 0.577349 -0.316477 0.752647 -0.577349 -0.316477 0.752647 -0.577349 -0.752647 -0.316477 0.577349 0.316477 -0.752647 0.577349 -0.752647 -0.316477 0.577349 0.752647 0.316477 0.577349 -0.316477 0.752647 " />
										<TextureCoordinate point="0.2732 0.0367 0.4721 0.0367 0.4721 0.4615 0.2732 0.4615 0.2732 0.0367 0.4721 0.0367 0.4721 0.4615 0.2732 0.4615 0.2732 0.0367 0.4721 0.0367 0.4721 0.4615 0.2732 0.4615 0.2732 0.0367 0.4721 0.0367 0.4721 0.4615 0.2732 0.4615 0.4721 0.0367 0.4721 0.4615 0.2732 0.0367 0.2732 0.4615 " />
									</IndexedTriangleSet>
								</Shape>
							</Group>
						</Transform>
						<Transform DEF="Cube_019_TRANSFORM"
						           translation="0.000000 0.325770 -0.148301"
						           scale="1.000000 1.000000 1.000000"
						           rotation="0.000000 1.000000 0.000000 0.000000"
						           >
							<Transform DEF="Cube_019_ifs_TRANSFORM"
							           translation="0.000000 0.000000 0.000000"
							           scale="1.000000 1.000000 1.000000"
							           rotation="0.000000 1.000000 0.000000 0.000000"
							           >
								<Group DEF="group_ME_Cube_012">
									<Shape>
										<Appearance>
											<Material USE="MA_Body" />
										</Appearance>
										<IndexedTriangleSet solid="false"
										                    normalPerVertex="true"
										                    index="0 1 2 0 2 3 4 5 6 4 6 7 8 9 10 8 10 11 12 13 14 12 14 15 4 16 17 4 17 15 18 5 14 18 14 19 "
										                    >
											<Coordinate point="-0.009873 -0.077378 -0.278340 -0.009873 0.077378 0.278340 -0.009873 0.464932 0.170601 -0.009873 0.310176 -0.386079 -0.009873 0.310176 -0.386079 -0.009873 0.464932 0.170601 0.009873 0.464932 0.170601 0.009873 0.310176 -0.386079 0.009873 0.310176 -0.386079 0.009873 0.464932 0.170601 0.009873 0.077378 0.278340 0.009873 -0.077378 -0.278340 0.009873 -0.077378 -0.278340 0.009873 0.077378 0.278340 -0.009873 0.077378 0.278340 -0.009873 -0.077378 -0.278340 0.009873 0.310176 -0.386079 0.009873 -0.077378 -0.278340 0.009873 0.464932 0.170601 0.009873 0.077378 0.278340 " />
											<Normal vector="-0.577349 -0.710868 -0.401593 -0.577349 -0.401593 0.710868 -0.577349 0.710868 0.401593 -0.577349 0.401593 -0.710868 -0.577349 0.401593 -0.710868 -0.577349 0.710868 0.401593 0.577349 0.710868 0.401593 0.577349 0.401593 -0.710868 0.577349 0.401593 -0.710868 0.577349 0.710868 0.401593 0.577349 -0.401593 0.710868 0.577349 -0.710868 -0.401593 0.577349 -0.710868 -0.401593 0.577349 -0.401593 0.710868 -0.577349 -0.401593 0.710868 -0.577349 -0.710868 -0.401593 0.577349 0.401593 -0.710868 0.577349 -0.710868 -0.401593 0.577349 0.710868 0.401593 0.577349 -0.401593 0.710868 " />
											<TextureCoordinate point="0.2732 0.0367 0.4721 0.0367 0.4721 0.4615 0.2732 0.4615 0.2732 0.0367 0.4721 0.0367 0.4721 0.4615 0.2732 0.4615 0.2732 0.0367 0.4721 0.0367 0.4721 0.4615 0.2732 0.4615 0.2732 0.0367 0.4721 0.0367 0.4721 0.4615 0.2732 0.4615 0.4721 0.0367 0.4721 0.4615 0.2732 0.0367 0.2732 0.4615 " />
										</IndexedTriangleSet>
									</Shape>
								</Group>
							</Transform>
						</Transform>
					</Transform>
				</Transform>
				<Transform DEF="Cube_020_TRANSFORM"
				           translation="0.000000 0.264735 -0.084167"
				           scale="1.000000 1.000000 1.000000"
				           rotation="0.000000 1.000000 0.000000 0.000000"
				           >
					<Transform DEF="Cube_020_ifs_TRANSFORM"
					           translation="0.000000 0.000000 0.000000"
					           scale="1.000000 1.000000 1.000000"
					           rotation="0.000000 1.000000 0.000000 0.000000"
					           >
						<Group DEF="group_ME_Cube_013">
							<Shape>
								<Appearance>
									<Material USE="MA_Body" />
								</Appearance>
								<IndexedTriangleSet solid="false"
								                    normalPerVertex="true"
								                    index="0 1 2 0 2 3 4 5 6 4 6 7 8 9 10 8 10 11 12 13 14 12 14 15 4 16 17 4 17 15 18 5 14 18 14 19 "
								                    >
									<Coordinate point="-0.005002 -0.005280 -0.101984 -0.005002 0.005280 0.101984 -0.005002 0.366487 0.083285 -0.005002 0.355927 -0.120684 -0.005002 0.355927 -0.120684 -0.005002 0.366487 0.083285 0.005002 0.366487 0.083285 0.005002 0.355927 -0.120684 0.005002 0.355927 -0.120684 0.005002 0.366487 0.083285 0.005002 0.005280 0.101984 0.005002 -0.005280 -0.101984 0.005002 -0.005280 -0.101984 0.005002 0.005280 0.101984 -0.005002 0.005280 0.101984 -0.005002 -0.005280 -0.101984 0.005002 0.355927 -0.120684 0.005002 -0.005280 -0.101984 0.005002 0.366487 0.083285 0.005002 0.005280 0.101984 " />
									<Normal vector="-0.577349 -0.606403 -0.546709 -0.577349 -0.546709 0.606403 -0.577349 0.606403 0.546709 -0.577349 0.546709 -0.606403 -0.577349 0.546709 -0.606403 -0.577349 0.606403 0.546709 0.577349 0.606403 0.546709 0.577349 0.546709 -0.606403 0.577349 0.546709 -0.606403 0.577349 0.606403 0.546709 0.577349 -0.546709 0.606403 0.577349 -0.606403 -0.546709 0.577349 -0.606403 -0.546709 0.577349 -0.546709 0.606403 -0.577349 -0.546709 0.606403 -0.577349 -0.606403 -0.546709 0.577349 0.546709 -0.606403 0.577349 -0.606403 -0.546709 0.577349 0.606403 0.546709 0.577349 -0.546709 0.606403 " />
									<TextureCoordinate point="0.2732 0.0367 0.4721 0.0367 0.4721 0.4615 0.2732 0.4615 0.2732 0.0367 0.4721 0.0367 0.4721 0.4615 0.2732 0.4615 0.2732 0.0367 0.4721 0.0367 0.4721 0.4615 0.2732 0.4615 0.2732 0.0367 0.4721 0.0367 0.4721 0.4615 0.2732 0.4615 0.4721 0.0367 0.4721 0.4615 0.2732 0.0367 0.2732 0.4615 " />
								</IndexedTriangleSet>
							</Shape>
						</Group>
					</Transform>
					<Transform DEF="Cube_021_TRANSFORM"
					           translation="0.000000 0.336374 -0.021140"
					           scale="1.000000 1.000000 1.000000"
					           rotation="0.000000 1.000000 0.000000 0.000000"
					           >
						<Transform DEF="Cube_021_ifs_TRANSFORM"
						           translation="0.000000 0.000000 0.000000"
						           scale="1.000000 1.000000 1.000000"
						           rotation="0.000000 1.000000 0.000000 0.000000"
						           >
							<Group DEF="group_ME_Cube_015">
								<Shape>
									<Appearance>
										<Material USE="MA_Body" />
									</Appearance>
									<IndexedTriangleSet solid="false"
									                    normalPerVertex="true"
									                    index="0 1 2 0 2 3 4 5 6 4 6 7 8 9 10 8 10 11 12 13 14 12 14 15 4 16 17 4 17 15 18 5 14 18 14 19 "
									                    >
										<Coordinate point="-0.005557 -0.007318 -0.133463 -0.005557 0.007318 0.133463 -0.005557 0.439184 0.109783 -0.005557 0.424548 -0.157143 -0.005557 0.424548 -0.157143 -0.005557 0.439184 0.109783 0.005557 0.439184 0.109783 0.005557 0.424548 -0.157143 0.005557 0.424548 -0.157143 0.005557 0.439184 0.109783 0.005557 0.007318 0.133463 0.005557 -0.007318 -0.133463 0.005557 -0.007318 -0.133463 0.005557 0.007318 0.133463 -0.005557 0.007318 0.133463 -0.005557 -0.007318 -0.133463 0.005557 0.424548 -0.157143 0.005557 -0.007318 -0.133463 0.005557 0.439184 0.109783 0.005557 0.007318 0.133463 " />
										<Normal vector="-0.577349 -0.608081 -0.544847 -0.577349 -0.544847 0.608081 -0.577349 0.608081 0.544847 -0.577349 0.544847 -0.608081 -0.577349 0.544847 -0.608081 -0.577349 0.608081 0.544847 0.577349 0.608081 0.544847 0.577349 0.544847 -0.608081 0.577349 0.544847 -0.608081 0.577349 0.608081 0.544847 0.577349 -0.544847 0.608081 0.577349 -0.608081 -0.544847 0.577349 -0.608081 -0.544847 0.577349 -0.544847 0.608081 -0.577349 -0.544847 0.608081 -0.577349 -0.608081 -0.544847 0.577349 0.544847 -0.608081 0.577349 -0.608081 -0.544847 0.577349 0.608081 0.544847 0.577349 -0.544847 0.608081 " />
										<TextureCoordinate point="0.2732 0.0367 0.4721 0.0367 0.4721 0.4615 0.2732 0.4615 0.2732 0.0367 0.4721 0.0367 0.4721 0.4615 0.2732 0.4615 0.2732 0.0367 0.4721 0.0367 0.4721 0.4615 0.2732 0.4615 0.2732 0.0367 0.4721 0.0367 0.4721 0.4615 0.2732 0.4615 0.4721 0.0367 0.4721 0.4615 0.2732 0.0367 0.2732 0.4615 " />
									</IndexedTriangleSet>
								</Shape>
							</Group>
						</Transform>
					</Transform>
				</Transform>
				<Transform DEF="Cube_022_TRANSFORM"
				           translation="0.000000 0.198891 -0.211816"
				           scale="1.000000 1.000000 1.000000"
				           rotation="0.000000 1.000000 0.000000 0.000000"
				           >
					<Transform DEF="Cube_022_ifs_TRANSFORM"
					           translation="0.000000 0.000000 0.000000"
					           scale="1.000000 1.000000 1.000000"
					           rotation="0.000000 1.000000 0.000000 0.000000"
					           >
						<Group DEF="group_ME_Cube_016">
							<Shape>
								<Appearance>
									<Material USE="MA_Body" />
								</Appearance>
								<IndexedTriangleSet solid="false"
								                    normalPerVertex="true"
								                    index="0 1 2 0 2 3 4 5 6 4 6 7 8 9 10 8 10 11 12 13 14 12 14 15 4 16 17 4 17 15 18 5 14 18 14 19 "
								                    >
									<Coordinate point="-0.006181 -0.098647 -0.097123 -0.006181 0.098647 0.097123 -0.006181 0.676979 -0.490281 -0.006181 0.479685 -0.684527 -0.006181 0.479685 -0.684527 -0.006181 0.676979 -0.490281 0.006181 0.676979 -0.490281 0.006181 0.479685 -0.684527 0.006181 0.479685 -0.684527 0.006181 0.676979 -0.490281 0.006181 0.098647 0.097123 0.006181 -0.098647 -0.097123 0.006181 -0.098647 -0.097123 0.006181 0.098647 0.097123 -0.006181 0.098647 0.097123 -0.006181 -0.098647 -0.097123 0.006181 0.479685 -0.684527 0.006181 -0.098647 -0.097123 0.006181 0.676979 -0.490281 0.006181 0.098647 0.097123 " />
									<Normal vector="-0.577349 -0.816462 0.006348 -0.577349 0.006348 0.816462 -0.577349 0.816462 -0.006348 -0.577349 -0.006348 -0.816462 -0.577349 -0.006348 -0.816462 -0.577349 0.816462 -0.006348 0.577349 0.816462 -0.006348 0.577349 -0.006348 -0.816462 0.577349 -0.006348 -0.816462 0.577349 0.816462 -0.006348 0.577349 0.006348 0.816462 0.577349 -0.816462 0.006348 0.577349 -0.816462 0.006348 0.577349 0.006348 0.816462 -0.577349 0.006348 0.816462 -0.577349 -0.816462 0.006348 0.577349 -0.006348 -0.816462 0.577349 -0.816462 0.006348 0.577349 0.816462 -0.006348 0.577349 0.006348 0.816462 " />
									<TextureCoordinate point="0.2732 0.0367 0.4721 0.0367 0.4721 0.4615 0.2732 0.4615 0.2732 0.0367 0.4721 0.0367 0.4721 0.4615 0.2732 0.4615 0.2732 0.0367 0.4721 0.0367 0.4721 0.4615 0.2732 0.4615 0.2732 0.0367 0.4721 0.0367 0.4721 0.4615 0.2732 0.4615 0.4721 0.0367 0.4721 0.4615 0.2732 0.0367 0.2732 0.4615 " />
								</IndexedTriangleSet>
							</Shape>
						</Group>
					</Transform>
				</Transform>
				<Transform DEF="Cube_023_TRANSFORM"
				           translation="0.000000 0.750542 -0.772121"
				           scale="1.000000 1.000000 1.000000"
				           rotation="0.000000 1.000000 0.000000 0.000000"
				           >
					<Transform DEF="Cube_023_ifs_TRANSFORM"
					           translation="0.000000 0.000000 0.000000"
					           scale="1.000000 1.000000 1.000000"
					           rotation="0.000000 1.000000 0.000000 0.000000"
					           >
						<Group DEF="group_ME_Cube_023">
							<Shape>
								<Appearance>
									<Material USE="MA_Body" />
								</Appearance>
								<IndexedTriangleSet solid="false"
								                    normalPerVertex="true"
								                    index="0 1 2 0 2 3 4 5 6 4 6 7 8 9 10 8 10 11 12 13 14 12 14 15 4 16 17 4 17 15 18 5 14 18 14 19 "
								                    >
									<Coordinate point="-0.006276 -0.097067 -0.138520 -0.006276 0.097067 0.138520 -0.006276 0.682264 -0.271555 -0.006276 0.488129 -0.548595 -0.006276 0.488129 -0.548595 -0.006276 0.682264 -0.271555 0.006276 0.682264 -0.271555 0.006276 0.488129 -0.548595 0.006276 0.488129 -0.548595 0.006276 0.682264 -0.271555 0.006276 0.097067 0.138520 0.006276 -0.097067 -0.138520 0.006276 -0.097067 -0.138520 0.006276 0.097067 0.138520 -0.006276 0.097067 0.138520 -0.006276 -0.097067 -0.138520 0.006276 0.488129 -0.548595 0.006276 -0.097067 -0.138520 0.006276 0.682264 -0.271555 0.006276 0.097067 0.138520 " />
									<Normal vector="-0.577349 -0.804132 -0.141484 -0.577349 -0.141484 0.804132 -0.577349 0.804132 0.141484 -0.577349 0.141484 -0.804132 -0.577349 0.141484 -0.804132 -0.577349 0.804132 0.141484 0.577349 0.804132 0.141484 0.577349 0.141484 -0.804132 0.577349 0.141484 -0.804132 0.577349 0.804132 0.141484 0.577349 -0.141484 0.804132 0.577349 -0.804132 -0.141484 0.577349 -0.804132 -0.141484 0.577349 -0.141484 0.804132 -0.577349 -0.141484 0.804132 -0.577349 -0.804132 -0.141484 0.577349 0.141484 -0.804132 0.577349 -0.804132 -0.141484 0.577349 0.804132 0.141484 0.577349 -0.141484 0.804132 " />
									<TextureCoordinate point="0.2732 0.0367 0.4721 0.0367 0.4721 0.4615 0.2732 0.4615 0.2732 0.0367 0.4721 0.0367 0.4721 0.4615 0.2732 0.4615 0.2732 0.0367 0.4721 0.0367 0.4721 0.4615 0.2732 0.4615 0.2732 0.0367 0.4721 0.0367 0.4721 0.4615 0.2732 0.4615 0.4721 0.0367 0.4721 0.4615 0.2732 0.0367 0.2732 0.4615 " />
								</IndexedTriangleSet>
							</Shape>
						</Group>
					</Transform>
				</Transform>
			</Transform>
		</Transform>
	</Scene>
</X3D>