<?xml version="1.0" encoding="UTF-8"?>
<!DOCTYPE X3D PUBLIC "ISO//Web3D//DTD X3D 3.0//EN" "http://www.web3d.org/specifications/x3d-3.0.dtd">
<X3D version="3.0" profile="Immersive" xmlns:xsd="http://www.w3.org/2001/XMLSchema-instance" xsd:noNamespaceSchemaLocation="http://www.web3d.org/specifications/x3d-3.0.xsd">
	<head>
		<meta name="filename" content="rolycoly.x3d" />
		<meta name="generator" content="Blender 2.93.18" />
	</head>
	<Scene>
		<NavigationInfo headlight="true"
		                visibilityLimit="0.0"
		                type='"EXAMINE", "ANY"'
		                avatarSize="0.25, 1.75, 0.75"
		                />
		<Background DEF="WO_World"
		            groundColor="0.051 0.051 0.051"
		            skyColor="0.051 0.051 0.051"
		            />
		<Transform DEF="body_TRANSFORM"
		           translation="0.000000 0.000000 0.801246"
		           scale="1.000000 1.000000 1.000000"
		           rotation="0.000000 0.000000 1.000000 3.141593"
		           >
			<Transform DEF="body_ifs_TRANSFORM"
			           translation="0.000000 0.000000 0.000000"
			           scale="1.000000 1.000000 1.000000"
			           rotation="0.000000 1.000000 0.000000 0.000000"
			           >
				<Group DEF="group_ME_body">
					<Shape>
						<Appearance>
							<Material DEF="MA_Body"
							          diffuseColor="0.800 0.800 0.800"
							          specularColor="0.401 0.401 0.401"
							          emissiveColor="0.000 0.000 0.000"
							          ambientIntensity="0.000"
							          shininess="0.500"
							          transparency="0.0"
							          />
						</Appearance>
						<IndexedTriangleSet solid="false"
						                    normalPerVertex="true"
						                    index="0 1 2 0 2 3 4 5 6 4 6 7 8 9 10 8 10 11 12 13 14 12 14 15 4 16 17 4 17 15 18 5 14 18 14 19 "
						                    >
							<Coordinate point="-1.244777 -0.784251 0.042634 -1.244777 -0.731847 1.006602 -1.244777 0.836655 0.921334 -1.244777 0.784251 -0.042634 -1.244777 0.784251 -0.042634 -1.244777 0.836655 0.921334 1.244777 0.836655 0.921334 1.244777 0.784251 -0.042634 1.244777 0.784251 -0.042634 1.244777 0.836655 0.921334 1.244777 -0.731847 1.006602 1.244777 -0.784251 0.042634 1.244777 -0.784251 0.042634 1.244777 -0.731847 1.006602 -1.244777 -0.731847 1.006602 -1.244777 -0.784251 0.042634 1.244777 0.784251 -0.042634 1.244777 -0.784251 0.042634 1.244777 0.836655 0.921334 1.244777 -0.731847 1.006602 " />
							<Normal vector="-0.577349 -0.607837 -0.545152 -0.577349 -0.545152 0.607837 -0.577349 0.607837 0.545152 -0.577349 0.545152 -0.607837 -0.577349 0.545152 -0.607837 -0.577349 0.607837 0.545152 0.577349 0.607837 0.545152 0.577349 0.545152 -0.607837 0.577349 0.545152 -0.607837 0.577349 0.607837 0.545152 0.577349 -0.545152 0.607837 0.577349 -0.607837 -0.545152 0.577349 -0.607837 -0.545152 0.577349 -0.545152 0.607837 -0.577349 -0.545152 0.607837 -0.577349 -0.607837 -0.545152 0.577349 0.545152 -0.607837 0.577349 -0.607837 -0.545152 0.577349 0.607837 0.545152 0.577349 -0.545152 0.607837 " />
							<TextureCoordinate point="0.0416 0.3649 0.9584 0.3649 0.9584 0.6661 0.0416 0.6661 0.0416 0.3649 0.9584 0.3649 0.9584 0.6661 0.0416 0.6661 0.0416 0.3649 0.9584 0.3649 0.9584 0.6661 0.0416 0.6661 0.0416 0.3649 0.9584 0.3649 0.9584 0.6661 0.0416 0.6661 0.9584 0.3649 0.9584 0.6661 0.0416 0.3649 0.0416 0.6661 " />
						</IndexedTriangleSet>
					</Shape>
				</Group>
			</Transform>
			<Transform DEF="Cube_001_TRANSFORM"
			           translation="0.000000 0.043622 0.717106"
			           scale="1.000000 1.000000 1.000000"
			           rotation="0.000000 1.000000 0.000000 0.000000"
			           >
				<Transform DEF="Cube_001_ifs_TRANSFORM"
				           translation="0.000000 0.000000 0.000000"
				           scale="1.000000 1.000000 1.000000"
				           rotation="0.000000 1.000000 0.000000 0.000000"
				           >
					<Group DEF="group_ME_Cube_001">
						<Shape>
							<Appearance>
								<Material USE="MA_Body" />
							</Appearance>
							<IndexedTriangleSet solid="false"
							                    normalPerVertex="true"
							                    index="0 1 2 0 2 3 4 5 6 4 6 7 8 9 10 8 10 11 12 13 14 12 14 15 4 16 17 4 17 15 18 5 14 18 14 19 "
							                    >
								<Coordinate point="-1.086463 -0.721366 0.013455 -1.086463 -0.701468 1.080194 -1.086463 0.741263 1.053283 -1.086463 0.721366 -0.013455 -1.086463 0.721366 -0.013455 -1.086463 0.741263 1.053283 1.086463 0.741263 1.053283 1.086463 0.721366 -0.013455 1.086463 0.721366 -0.013455 1.086463 0.741263 1.053283 1.086463 -0.701468 1.080194 1.086463 -0.721366 0.013455 1.086463 -0.721366 0.013455 1.086463 -0.701468 1.080194 -1.086463 -0.701468 1.080194 -1.086463 -0.721366 0.013455 1.086463 0.721366 -0.013455 1.086463 -0.721366 0.013455 1.086463 0.741263 1.053283 1.086463 -0.701468 1.080194 " />
								<Normal vector="-0.577349 -0.588000 -0.566454 -0.577349 -0.566454 0.588000 -0.577349 0.588000 0.566454 -0.577349 0.566454 -0.588000 -0.577349 0.566454 -0.588000 -0.577349 0.588000 0.566454 0.577349 0.588000 0.566454 0.577349 0.566454 -0.588000 0.577349 0.566454 -0.588000 0.577349 0.588000 0.566454 0.577349 -0.566454 0.588000 0.577349 -0.588000 -0.566454 0.577349 -0.588000 -0.566454 0.577349 -0.566454 0.588000 -0.577349 -0.566454 0.588000 -0.577349 -0.588000 -0.566454 0.577349 0.566454 -0.588000 0.577349 -0.588000 -0.566454 0.577349 0.588000 0.566454 0.577349 -0.566454 0.588000 " />
								<TextureCoordinate point="0.0416 0.3649 0.9584 0.3649 0.9584 0.6661 0.0416 0.6661 0.0416 0.3649 0.9584 0.3649 0.9584 0.6661 0.0416 0.6661 0.0416 0.3649 0.9584 0.3649 0.9584 0.6661 0.0416 0.6661 0.0416 0.3649 0.9584 0.3649 0.9584 0.6661 0.0416 0.6661 0.9584 0.3649 0.9584 0.6661 0.0416 0.3649 0.0416 0.6661 " />
							</IndexedTriangleSet>
						</Shape>
					</Group>
				</Transform>
				<Transform DEF="Cube_002_TRANSFORM"
				           translation="0.000000 -1.079798 -0.617066"
				           scale="1.000000 1.000000 1.000000"
				           rotation="0.000000 1.000000 0.000000 0.000000"
				           >
					<Transform DEF="Cube_002_ifs_TRANSFORM"
					           translation="0.000000 0.000000 0.000000"
					           scale="1.000000 1.000000 1.000000"
					           rotation="0.000000 1.000000 0.000000 0.000000"
					           >
						<Group DEF="group_ME_Cube_002">
							<Shape>
								<Appearance>
									<Material USE="MA_Body" />
								</Appearance>
								<IndexedTriangleSet solid="false"
								                    normalPerVertex="true"
								                    index="0 1 2 0 2 3 4 5 6 4 6 7 8 9 10 8 10 11 12 13 14 12 14 15 4 16 17 4 17 15 18 5 14 18 14 19 "
								                    >
									<Coordinate point="-1.009701 -0.452518 -0.010807 -1.009701 -0.477580 1.038608 -1.009701 0.427455 1.060222 -1.009701 0.452518 0.010807 -1.009701 0.452518 0.010807 -1.009701 0.427455 1.060222 1.009701 0.427455 1.060222 1.009701 0.452518 0.010807 1.009701 0.452518 0.010807 1.009701 0.427455 1.060222 1.009701 -0.477580 1.038608 1.009701 -0.452518 -0.010807 1.009701 -0.452518 -0.010807 1.009701 -0.477580 1.038608 -1.009701 -0.477580 1.038608 -1.009701 -0.452518 -0.010807 1.009701 0.452518 0.010807 1.009701 -0.452518 -0.010807 1.009701 0.427455 1.060222 1.009701 -0.477580 1.038608 " />
									<Normal vector="-0.577349 -0.563372 -0.590960 -0.577349 -0.590960 0.563372 -0.577349 0.563372 0.590960 -0.577349 0.590960 -0.563372 -0.577349 0.590960 -0.563372 -0.577349 0.563372 0.590960 0.577349 0.563372 0.590960 0.577349 0.590960 -0.563372 0.577349 0.590960 -0.563372 0.577349 0.563372 0.590960 0.577349 -0.590960 0.563372 0.577349 -0.563372 -0.590960 0.577349 -0.563372 -0.590960 0.577349 -0.590960 0.563372 -0.577349 -0.590960 0.563372 -0.577349 -0.563372 -0.590960 0.577349 0.590960 -0.563372 0.577349 -0.563372 -0.590960 0.577349 0.563372 0.590960 0.577349 -0.590960 0.563372 " />
									<TextureCoordinate point="0.0416 0.3649 0.9584 0.3649 0.9584 0.6661 0.0416 0.6661 0.0416 0.3649 0.9584 0.3649 0.9584 0.6661 0.0416 0.6661 0.0416 0.3649 0.9584 0.3649 0.9584 0.6661 0.0416 0.6661 0.0416 0.3649 0.9584 0.3649 0.9584 0.6661 0.0416 0.6661 0.9584 0.3649 0.9584 0.6661 0.0416 0.3649 0.0416 0.6661 " />
								</IndexedTriangleSet>
							</Shape>
						</Group>
					</Transform>
					<Transform DEF="Cube_003_TRANSFORM"
					           translation="0.000000 0.421713 0.832896"
					           scale="1.000000 1.000000 1.000000"
					           rotation="0.000000 1.000000 0.000000 0.000000"
					           >
						<Transform DEF="Cube_003_ifs_TRANSFORM"
						           translation="0.000000 0.000000 0.000000"
						           scale="1.000000 1.000000 1.000000"
						           rotation="0.000000 1.000000 0.000000 0.000000"
						           >
							<Group DEF="group_ME_Cube_003">
								<Shape>
									<Appearance>
										<Material USE="MA_Body" />
									</Appearance>
									<IndexedTriangleSet solid="false"
									                    normalPerVertex="true"
									                    index="0 1 2 0 2 3 4 5 6 4 6 7 8 9 10 8 10 11 12 13 14 12 14 15 4 16 17 4 17 15 18 5 14 18 14 19 "
									                    >
										<Coordinate point="-0.811073 -0.396942 -0.321349 -0.811073 -0.813297 0.192949 -0.811073 -0.019414 0.835646 -0.811073 0.396942 0.321349 -0.811073 0.396942 0.321349 -0.811073 -0.019414 0.835646 0.811073 -0.019414 0.835646 0.811073 0.396942 0.321349 0.811073 0.396942 0.321349 0.811073 -0.019414 0.835646 0.811073 -0.813297 0.192949 0.811073 -0.396942 -0.321349 0.811073 -0.396942 -0.321349 0.811073 -0.813297 0.192949 -0.811073 -0.813297 0.192949 -0.811073 -0.396942 -0.321349 0.811073 0.396942 0.321349 0.811073 -0.396942 -0.321349 0.811073 -0.019414 0.835646 0.811073 -0.813297 0.192949 " />
										<Normal vector="-0.577349 -0.085452 -0.812006 -0.577349 -0.812006 0.085452 -0.577349 0.085452 0.812006 -0.577349 0.812006 -0.085452 -0.577349 0.812006 -0.085452 -0.577349 0.085452 0.812006 0.577349 0.085452 0.812006 0.577349 0.812006 -0.085452 0.577349 0.812006 -0.085452 0.577349 0.085452 0.812006 0.577349 -0.812006 0.085452 0.577349 -0.085452 -0.812006 0.577349 -0.085452 -0.812006 0.577349 -0.812006 0.085452 -0.577349 -0.812006 0.085452 -0.577349 -0.085452 -0.812006 0.577349 0.812006 -0.085452 0.577349 -0.085452 -0.812006 0.577349 0.085452 0.812006 0.577349 -0.812006 0.085452 " />
										<TextureCoordinate point="0.0416 0.3649 0.9584 0.3649 0.9584 0.6661 0.0416 0.6661 0.0416 0.3649 0.9584 0.3649 0.9584 0.6661 0.0416 0.6661 0.0416 0.3649 0.9584 0.3649 0.9584 0.6661 0.0416 0.6661 0.0416 0.3649 0.9584 0.3649 0.9584 0.6661 0.0416 0.6661 0.9584 0.3649 0.9584 0.6661 0.0416 0.3649 0.0416 0.6661 " />
									</IndexedTriangleSet>
								</Shape>
							</Group>
						</Transform>
					</Transform>
				</Transform>
				<Transform DEF="Cube_004_TRANSFORM"
				           translation="0.000000 0.829388 -0.657521"
				           scale="1.000000 1.000000 1.000000"
				           rotation="0.000000 1.000000 0.000000 0.000000"
				           >
					<Transform DEF="Cube_004_ifs_TRANSFORM"
					           translation="0.000000 0.000000 0.000000"
					           scale="1.000000 1.000000 1.000000"
					           rotation="0.000000 1.000000 0.000000 0.000000"
					           >
						<Group DEF="group_ME_Cube_004">
							<Shape>
								<Appearance>
									<Material USE="MA_Body" />
								</Appearance>
								<IndexedTriangleSet solid="false"
								                    normalPerVertex="true"
								                    index="0 1 2 0 2 3 4 5 6 4 6 7 8 9 10 8 10 11 12 13 14 12 14 15 4 16 17 4 17 15 18 5 14 18 14 19 "
								                    >
									<Coordinate point="-0.961276 -0.391377 0.048564 -0.961276 -0.278956 0.954566 -0.961276 0.503799 0.857437 -0.961276 0.391377 -0.048564 -0.961276 0.391377 -0.048564 -0.961276 0.503799 0.857437 0.961276 0.503799 0.857437 0.961276 0.391377 -0.048564 0.961276 0.391377 -0.048564 0.961276 0.503799 0.857437 0.961276 -0.278956 0.954566 0.961276 -0.391377 0.048564 0.961276 -0.391377 0.048564 0.961276 -0.278956 0.954566 -0.961276 -0.278956 0.954566 -0.961276 -0.391377 0.048564 0.961276 0.391377 -0.048564 0.961276 -0.391377 0.048564 0.961276 0.503799 0.857437 0.961276 -0.278956 0.954566 " />
									<Normal vector="-0.577349 -0.644032 -0.501846 -0.577349 -0.501846 0.644032 -0.577349 0.644032 0.501846 -0.577349 0.501846 -0.644032 -0.577349 0.501846 -0.644032 -0.577349 0.644032 0.501846 0.577349 0.644032 0.501846 0.577349 0.501846 -0.644032 0.577349 0.501846 -0.644032 0.577349 0.644032 0.501846 0.577349 -0.501846 0.644032 0.577349 -0.644032 -0.501846 0.577349 -0.644032 -0.501846 0.577349 -0.501846 0.644032 -0.577349 -0.501846 0.644032 -0.577349 -0.644032 -0.501846 0.577349 0.501846 -0.644032 0.577349 -0.644032 -0.501846 0.577349 0.644032 0.501846 0.577349 -0.501846 0.644032 " />
									<TextureCoordinate point="0.0416 0.3649 0.9584 0.3649 0.9584 0.6661 0.0416 0.6661 0.0416 0.3649 0.9584 0.3649 0.9584 0.6661 0.0416 0.6661 0.0416 0.3649 0.9584 0.3649 0.9584 0.6661 0.0416 0.6661 0.0416 0.3649 0.9584 0.3649 0.9584 0.6661 0.0416 0.6661 0.9584 0.3649 0.9584 0.6661 0.0416 0.3649 0.0416 0.6661 " />
								</IndexedTriangleSet>
							</Shape>
						</Group>
					</Transform>
					<Transform DEF="Cube_005_TRANSFORM"
					           translation="0.000000 0.234834 0.698943"
					           scale="1.000000 1.000000 1.000000"
					           rotation="0.000000 1.000000 0.000000 0.000000"
					           >
						<Transform DEF="Cube_005_ifs_TRANSFORM"
						           translation="0.000000 0.000000 0.000000"
						           scale="1.000000 1.000000 1.000000"
						           rotation="0.000000 1.000000 0.000000 0.000000"
						           >
							<Group DEF="group_ME_Cube_005">
								<Shape>
									<Appearance>
										<Material USE="MA_Body" />
									</Appearance>
									<IndexedTriangleSet solid="false"
									                    normalPerVertex="true"
									                    index="0 1 2 0 2 3 4 5 6 4 6 7 8 9 10 8 10 11 12 13 14 12 14 15 4 16 17 4 17 15 18 5 14 18 14 19 "
									                    >
										<Coordinate point="-0.766309 -0.254547 -0.181188 -0.766309 -0.810886 0.600402 -0.766309 -0.301792 0.962777 -0.766309 0.254547 0.181188 -0.766309 0.254547 0.181188 -0.766309 -0.301792 0.962777 0.766309 -0.301792 0.962777 0.766309 0.254547 0.181188 0.766309 0.254547 0.181188 0.766309 -0.301792 0.962777 0.766309 -0.810886 0.600402 0.766309 -0.254547 -0.181188 0.766309 -0.254547 -0.181188 0.766309 -0.810886 0.600402 -0.766309 -0.810886 0.600402 -0.766309 -0.254547 -0.181188 0.766309 0.254547 0.181188 0.766309 -0.254547 -0.181188 0.766309 -0.301792 0.962777 0.766309 -0.810886 0.600402 " />
										<Normal vector="-0.577349 -0.135533 -0.805139 -0.577349 -0.805139 0.135533 -0.577349 0.135533 0.805139 -0.577349 0.805139 -0.135533 -0.577349 0.805139 -0.135533 -0.577349 0.135533 0.805139 0.577349 0.135533 0.805139 0.577349 0.805139 -0.135533 0.577349 0.805139 -0.135533 0.577349 0.135533 0.805139 0.577349 -0.805139 0.135533 0.577349 -0.135533 -0.805139 0.577349 -0.135533 -0.805139 0.577349 -0.805139 0.135533 -0.577349 -0.805139 0.135533 -0.577349 -0.135533 -0.805139 0.577349 0.805139 -0.135533 0.577349 -0.135533 -0.805139 0.577349 0.135533 0.805139 0.577349 -0.805139 0.135533 " />
										<TextureCoordinate point="0.0416 0.3649 0.9584 0.3649 0.9584 0.6661 0.0416 0.6661 0.0416 0.3649 0.9584 0.3649 0.9584 0.6661 0.0416 0.6661 0.0416 0.3649 0.9584 0.3649 0.9584 0.6661 0.0416 0.6661 0.0416 0.3649 0.9584 0.3649 0.9584 0.6661 0.0416 0.6661 0.9584 0.3649 0.9584 0.6661 0.0416 0.3649 0.0416 0.6661 " />
									</IndexedTriangleSet>
								</Shape>
							</Group>
						</Transform>
					</Transform>
				</Transform>
			</Transform>
			<Transform DEF="Cube_006_TRANSFORM"
			           translation="0.555868 -0.094902 0.193172"
			           scale="1.000000 1.000000 1.000000"
			           rotation="0.000000 1.000000 0.000000 0.000000"
			           >
				<Transform DEF="Cube_006_ifs_TRANSFORM"
				           translation="0.000000 0.000000 0.000000"
				           scale="1.000000 1.000000 1.000000"
				           rotation="0.000000 1.000000 0.000000 0.000000"
				           >
					<Group DEF="group_ME_Cube_006">
						<Shape>
							<Appearance>
								<Material USE="MA_Body" />
							</Appearance>
							<IndexedTriangleSet solid="false"
							                    normalPerVertex="true"
							                    index="0 1 2 0 2 3 4 5 6 4 6 7 8 9 10 8 10 11 12 13 14 12 14 15 4 16 17 4 17 15 18 5 14 18 14 19 "
							                    >
								<Coordinate point="-0.176379 -0.571433 -0.493075 -0.176379 -0.571433 -0.000000 -0.176379 0.571433 0.000000 -0.176379 0.571433 -0.493075 -0.176379 0.571433 -0.493075 -0.176379 0.571433 0.000000 0.176379 0.571433 0.000000 0.176379 0.571433 -0.493075 0.176379 0.571433 -0.493075 0.176379 0.571433 0.000000 0.176379 -0.571433 -0.000000 0.176379 -0.571433 -0.493075 0.176379 -0.571433 -0.493075 0.176379 -0.571433 -0.000000 -0.176379 -0.571433 -0.000000 -0.176379 -0.571433 -0.493075 0.176379 0.571433 -0.493075 0.176379 -0.571433 -0.493075 0.176379 0.571433 0.000000 0.176379 -0.571433 -0.000000 " />
								<Normal vector="-0.577349 -0.577349 -0.577349 -0.577349 -0.577349 0.577349 -0.577349 0.577349 0.577349 -0.577349 0.577349 -0.577349 -0.577349 0.577349 -0.577349 -0.577349 0.577349 0.577349 0.577349 0.577349 0.577349 0.577349 0.577349 -0.577349 0.577349 0.577349 -0.577349 0.577349 0.577349 0.577349 0.577349 -0.577349 0.577349 0.577349 -0.577349 -0.577349 0.577349 -0.577349 -0.577349 0.577349 -0.577349 0.577349 -0.577349 -0.577349 0.577349 -0.577349 -0.577349 -0.577349 0.577349 0.577349 -0.577349 0.577349 -0.577349 -0.577349 0.577349 0.577349 0.577349 0.577349 -0.577349 0.577349 " />
								<TextureCoordinate point="0.0416 0.3649 0.9584 0.3649 0.9584 0.6661 0.0416 0.6661 0.0416 0.3649 0.9584 0.3649 0.9584 0.6661 0.0416 0.6661 0.0416 0.3649 0.9584 0.3649 0.9584 0.6661 0.0416 0.6661 0.0416 0.3649 0.9584 0.3649 0.9584 0.6661 0.0416 0.6661 0.9584 0.3649 0.9584 0.6661 0.0416 0.3649 0.0416 0.6661 " />
							</IndexedTriangleSet>
						</Shape>
					</Group>
				</Transform>
			</Transform>
			<Transform DEF="wheel_TRANSFORM"
			           translation="-0.011819 -0.096030 0.223325"
			           scale="1.000000 1.000000 1.000000"
			           rotation="0.000000 1.000000 0.000000 0.000000"
			           >
				<Transform DEF="wheel_ifs_TRANSFORM"
				           translation="0.000000 0.000000 0.000000"
				           scale="1.000000 1.000000 1.000000"
				           rotation="0.000000 1.000000 0.000000 0.000000"
				           >
					<Group DEF="group_ME_wheel">
						<Shape>
							<Appearance>
								<Material USE="MA_Body" />
							</Appearance>
							<IndexedTriangleSet solid="false"
							                    normalPerVertex="true"
							                    index="0 1 2 0 2 3 4 5 6 4 6 7 8 9 10 8 10 11 12 13 14 12 14 15 4 16 17 4 17 15 18 5 14 18 14 19 "
							                    >
								<Coordinate point="-0.380504 -1.000000 -1.000000 -0.380504 -1.000000 1.000000 -0.380504 1.000000 1.000000 -0.380504 1.000000 -1.000000 -0.380504 1.000000 -1.000000 -0.380504 1.000000 1.000000 0.380504 1.000000 1.000000 0.380504 1.000000 -1.000000 0.380504 1.000000 -1.000000 0.380504 1.000000 1.000000 0.380504 -1.000000 1.000000 0.380504 -1.000000 -1.000000 0.380504 -1.000000 -1.000000 0.380504 -1.000000 1.000000 -0.380504 -1.000000 1.000000 -0.380504 -1.000000 -1.000000 0.380504 1.000000 -1.000000 0.380504 -1.000000 -1.000000 0.380504 1.000000 1.000000 0.380504 -1.000000 1.000000 " />
								<Normal vector="-0.577349 -0.577349 -0.577349 -0.577349 -0.577349 0.577349 -0.577349 0.577349 0.577349 -0.577349 0.577349 -0.577349 -0.577349 0.577349 -0.577349 -0.577349 0.577349 0.577349 0.577349 0.577349 0.577349 0.577349 0.577349 -0.577349 0.577349 0.577349 -0.577349 0.577349 0.577349 0.577349 0.577349 -0.577349 0.577349 0.577349 -0.577349 -0.577349 0.577349 -0.577349 -0.577349 0.577349 -0.577349 0.577349 -0.577349 -0.577349 0.577349 -0.577349 -0.577349 -0.577349 0.577349 0.577349 -0.577349 0.577349 -0.577349 -0.577349 0.577349 0.577349 0.577349 0.577349 -0.577349 0.577349 " />
								<TextureCoordinate point="0.0416 0.7145 0.9584 0.7145 0.9584 0.9738 0.0416 0.9738 0.0416 0.7145 0.9584 0.7145 0.9584 0.9738 0.0416 0.9738 0.0416 0.7145 0.9584 0.7145 0.9584 0.9738 0.0416 0.9738 0.0416 0.7145 0.9584 0.7145 0.9584 0.9738 0.0416 0.9738 0.9584 0.7145 0.9584 0.9738 0.0416 0.7145 0.0416 0.9738 " />
							</IndexedTriangleSet>
						</Shape>
					</Group>
				</Transform>
			</Transform>
			<Transform DEF="Cube_008_TRANSFORM"
			           translation="0.000000 -1.300104 0.657062"
			           scale="1.000000 1.000000 1.000000"
			           rotation="0.000000 1.000000 0.000000 0.000000"
			           >
				<Transform DEF="Cube_008_ifs_TRANSFORM"
				           translation="0.000000 0.000000 0.000000"
				           scale="1.000000 1.000000 1.000000"
				           rotation="0.000000 1.000000 0.000000 0.000000"
				           >
					<Group DEF="group_ME_Cube_008">
						<Shape>
							<Appearance>
								<Material USE="MA_Body" />
							</Appearance>
							<IndexedTriangleSet solid="false"
							                    normalPerVertex="true"
							                    index="0 1 2 0 2 3 4 5 6 4 6 7 8 9 10 8 10 11 12 13 14 12 14 15 4 16 17 4 17 15 18 5 14 18 14 19 "
							                    >
								<Coordinate point="-0.367336 -0.538189 -0.621598 -0.637372 -0.538189 0.339229 -0.637372 -0.000000 0.339229 -0.367336 0.000000 -0.621598 -0.367336 0.000000 -0.621598 -0.637372 -0.000000 0.339229 0.367336 -0.000000 0.621598 0.637372 0.000000 -0.339229 0.637372 0.000000 -0.339229 0.367336 -0.000000 0.621598 0.367336 -0.538189 0.621598 0.637372 -0.538189 -0.339229 0.637372 -0.538189 -0.339229 0.367336 -0.538189 0.621598 -0.637372 -0.538189 0.339229 -0.367336 -0.538189 -0.621598 0.637372 0.000000 -0.339229 0.637372 -0.538189 -0.339229 0.367336 -0.000000 0.621598 0.367336 -0.538189 0.621598 " />
								<Normal vector="-0.399579 -0.577349 -0.711997 -0.711997 -0.577349 0.399579 -0.711997 0.577349 0.399579 -0.399579 0.577349 -0.711997 -0.399579 0.577349 -0.711997 -0.711997 0.577349 0.399579 0.399579 0.577349 0.711997 0.711997 0.577349 -0.399579 0.711997 0.577349 -0.399579 0.399579 0.577349 0.711997 0.399579 -0.577349 0.711997 0.711997 -0.577349 -0.399579 0.711997 -0.577349 -0.399579 0.399579 -0.577349 0.711997 -0.711997 -0.577349 0.399579 -0.399579 -0.577349 -0.711997 0.711997 0.577349 -0.399579 0.711997 -0.577349 -0.399579 0.399579 0.577349 0.711997 0.399579 -0.577349 0.711997 " />
								<TextureCoordinate point="0.0416 0.7145 0.9584 0.7145 0.9584 0.9738 0.0416 0.9738 0.0416 0.7145 0.9584 0.7145 0.9584 0.9738 0.0416 0.9738 0.0416 0.7145 0.9584 0.7145 0.9584 0.9738 0.0416 0.9738 0.0416 0.7145 0.9584 0.7145 0.9584 0.9738 0.0416 0.9738 0.9584 0.7145 0.9584 0.9738 0.0416 0.7145 0.0416 0.9738 " />
							</IndexedTriangleSet>
						</Shape>
					</Group>
				</Transform>
				<Transform DEF="Cube_009_TRANSFORM"
				           translation="-0.000000 -0.300453 0.000000"
				           scale="1.000000 1.000000 1.000000"
				           rotation="0.000000 1.000000 0.000000 0.000000"
				           >
					<Transform DEF="Cube_009_ifs_TRANSFORM"
					           translation="0.000000 0.000000 0.000000"
					           scale="1.000000 1.000000 1.000000"
					           rotation="0.000000 1.000000 0.000000 0.000000"
					           >
						<Group DEF="group_ME_Cube_009">
							<Shape>
								<Appearance>
									<Material USE="MA_Body" />
								</Appearance>
								<IndexedTriangleSet solid="false"
								                    normalPerVertex="true"
								                    index="0 1 2 0 2 3 4 5 6 4 6 7 8 9 10 8 10 11 12 13 14 12 14 15 4 16 17 4 17 15 18 5 14 18 14 19 "
								                    >
									<Coordinate point="-0.694387 -0.635847 -0.452779 -0.483317 -0.635847 0.673488 -0.483317 -0.000000 0.673488 -0.694387 0.000000 -0.452779 -0.694387 0.000000 -0.452779 -0.483317 -0.000000 0.673488 0.694387 -0.000000 0.452779 0.483317 0.000000 -0.673488 0.483317 0.000000 -0.673488 0.694387 -0.000000 0.452779 0.694387 -0.635847 0.452779 0.483317 -0.635847 -0.673488 0.483317 -0.635847 -0.673488 0.694387 -0.635847 0.452779 -0.483317 -0.635847 0.673488 -0.694387 -0.635847 -0.452779 0.483317 0.000000 -0.673488 0.483317 -0.635847 -0.673488 0.694387 -0.000000 0.452779 0.694387 -0.635847 0.452779 " />
									<Normal vector="-0.673818 -0.577349 -0.461104 -0.461104 -0.577349 0.673818 -0.461104 0.577349 0.673818 -0.673818 0.577349 -0.461104 -0.673818 0.577349 -0.461104 -0.461104 0.577349 0.673818 0.673818 0.577349 0.461104 0.461104 0.577349 -0.673818 0.461104 0.577349 -0.673818 0.673818 0.577349 0.461104 0.673818 -0.577349 0.461104 0.461104 -0.577349 -0.673818 0.461104 -0.577349 -0.673818 0.673818 -0.577349 0.461104 -0.461104 -0.577349 0.673818 -0.673818 -0.577349 -0.461104 0.461104 0.577349 -0.673818 0.461104 -0.577349 -0.673818 0.673818 0.577349 0.461104 0.673818 -0.577349 0.461104 " />
									<TextureCoordinate point="0.0416 0.7145 0.9584 0.7145 0.9584 0.9738 0.0416 0.9738 0.0416 0.7145 0.9584 0.7145 0.9584 0.9738 0.0416 0.9738 0.0416 0.7145 0.9584 0.7145 0.9584 0.9738 0.0416 0.9738 0.0416 0.7145 0.9584 0.7145 0.9584 0.9738 0.0416 0.9738 0.9584 0.7145 0.9584 0.9738 0.0416 0.7145 0.0416 0.9738 " />
								</IndexedTriangleSet>
							</Shape>
						</Group>
					</Transform>
				</Transform>
			</Transform>
			<Transform DEF="Cube_010_TRANSFORM"
			           translation="0.878889 -0.864609 0.559816"
			           scale="1.000000 1.000000 1.000000"
			           rotation="0.000000 1.000000 0.000000 0.000000"
			           >
				<Transform DEF="Cube_010_ifs_TRANSFORM"
				           translation="0.000000 0.000000 0.000000"
				           scale="1.000000 1.000000 1.000000"
				           rotation="0.000000 1.000000 0.000000 0.000000"
				           >
					<Group DEF="group_ME_Cube_010">
						<Shape>
							<Appearance>
								<Material USE="MA_Body" />
							</Appearance>
							<IndexedTriangleSet solid="false"
							                    normalPerVertex="true"
							                    index="0 1 2 0 2 3 4 5 6 4 6 7 8 9 10 8 10 11 12 13 14 12 14 15 4 16 17 4 17 15 18 5 14 18 14 19 "
							                    >
								<Coordinate point="-0.288807 -0.292326 -0.225717 -0.105977 -0.139157 0.434990 0.288807 0.292326 0.225717 0.105977 0.139157 -0.434990 0.105977 0.139157 -0.434990 0.288807 0.292326 0.225717 0.736591 -0.129987 0.199710 0.553761 -0.283156 -0.460997 0.553761 -0.283156 -0.460997 0.736591 -0.129987 0.199710 0.341807 -0.561469 0.408983 0.158977 -0.714638 -0.251724 0.158977 -0.714638 -0.251724 0.341807 -0.561469 0.408983 -0.105977 -0.139157 0.434990 -0.288807 -0.292326 -0.225717 0.553761 -0.283156 -0.460997 0.158977 -0.714638 -0.251724 0.736591 -0.129987 0.199710 0.341807 -0.561469 0.408983 " />
								<Normal vector="-0.936857 -0.131169 -0.324137 -0.636311 0.120609 0.761925 0.097568 0.922697 0.372906 -0.202948 0.670919 -0.713187 -0.202948 0.670919 -0.713187 0.097568 0.922697 0.372906 0.936857 0.131169 0.324137 0.636311 -0.120609 -0.761925 0.636311 -0.120609 -0.761925 0.936857 0.131169 0.324137 0.202948 -0.670919 0.713187 -0.097568 -0.922697 -0.372906 -0.097568 -0.922697 -0.372906 0.202948 -0.670919 0.713187 -0.636311 0.120609 0.761925 -0.936857 -0.131169 -0.324137 0.636311 -0.120609 -0.761925 -0.097568 -0.922697 -0.372906 0.936857 0.131169 0.324137 0.202948 -0.670919 0.713187 " />
								<TextureCoordinate point="0.0416 0.7145 0.9584 0.7145 0.9584 0.9738 0.0416 0.9738 0.0416 0.7145 0.9584 0.7145 0.9584 0.9738 0.0416 0.9738 0.0416 0.7145 0.9584 0.7145 0.9584 0.9738 0.0416 0.9738 0.0416 0.7145 0.9584 0.7145 0.9584 0.9738 0.0416 0.9738 0.9584 0.7145 0.9584 0.9738 0.0416 0.7145 0.0416 0.9738 " />
							</IndexedTriangleSet>
						</Shape>
					</Group>
				</Transform>
			</Transform>
			<Transform DEF="Cube_011_TRANSFORM"
			           translation="1.167470 -0.218161 0.513574"
			           scale="1.000000 1.000000 1.000000"
			           rotation="0.000000 1.000000 0.000000 0.000000"
			           >
				<Transform DEF="Cube_011_ifs_TRANSFORM"
				           translation="0.000000 0.000000 0.000000"
				           scale="1.000000 1.000000 1.000000"
				           rotation="0.000000 1.000000 0.000000 0.000000"
				           >
					<Group DEF="group_ME_Cube_011">
						<Shape>
							<Appearance>
								<Material USE="MA_Body" />
							</Appearance>
							<IndexedTriangleSet solid="false"
							                    normalPerVertex="true"
							                    index="0 1 2 0 2 3 4 5 6 4 6 7 8 9 10 8 10 11 12 13 14 12 14 15 4 16 17 4 17 15 18 5 14 18 14 19 "
							                    >
								<Coordinate point="0.019043 -0.088231 -0.342027 -0.058326 -0.340946 0.074050 -0.019043 0.088231 0.342027 0.058326 0.340946 -0.074050 0.058326 0.340946 -0.074050 -0.019043 0.088231 0.342027 0.480454 0.013034 0.389235 0.557823 0.265750 -0.026842 0.557823 0.265750 -0.026842 0.480454 0.013034 0.389235 0.441171 -0.416143 0.121259 0.518540 -0.163427 -0.294819 0.518540 -0.163427 -0.294819 0.441171 -0.416143 0.121259 -0.058326 -0.340946 0.074050 0.019043 -0.088231 -0.342027 0.557823 0.265750 -0.026842 0.518540 -0.163427 -0.294819 0.480454 0.013034 0.389235 0.441171 -0.416143 0.121259 " />
								<Normal vector="-0.522507 -0.106662 -0.845912 -0.703726 -0.698660 0.128727 -0.614368 0.277810 0.738456 -0.433119 0.869808 -0.236183 -0.433119 0.869808 -0.236183 -0.614368 0.277810 0.738456 0.522507 0.106662 0.845912 0.703726 0.698660 -0.128727 0.703726 0.698660 -0.128727 0.522507 0.106662 0.845912 0.433119 -0.869808 0.236183 0.614368 -0.277810 -0.738456 0.614368 -0.277810 -0.738456 0.433119 -0.869808 0.236183 -0.703726 -0.698660 0.128727 -0.522507 -0.106662 -0.845912 0.703726 0.698660 -0.128727 0.614368 -0.277810 -0.738456 0.522507 0.106662 0.845912 0.433119 -0.869808 0.236183 " />
								<TextureCoordinate point="0.0416 0.7145 0.9584 0.7145 0.9584 0.9738 0.0416 0.9738 0.0416 0.7145 0.9584 0.7145 0.9584 0.9738 0.0416 0.9738 0.0416 0.7145 0.9584 0.7145 0.9584 0.9738 0.0416 0.9738 0.0416 0.7145 0.9584 0.7145 0.9584 0.9738 0.0416 0.9738 0.9584 0.7145 0.9584 0.9738 0.0416 0.7145 0.0416 0.9738 " />
							</IndexedTriangleSet>
						</Shape>
					</Group>
				</Transform>
			</Transform>
			<Transform DEF="Cube_TRANSFORM"
			           translation="-0.151067 -1.207348 1.209713"
			           scale="1.000000 1.000000 1.000000"
			           rotation="0.000000 1.000000 0.000000 0.000000"
			           >
				<Transform DEF="Cube_ifs_TRANSFORM"
				           translation="0.000000 0.000000 0.000000"
				           scale="1.000000 1.000000 1.000000"
				           rotation="0.000000 1.000000 0.000000 0.000000"
				           >
					<Group DEF="group_ME_Cube_012">
						<Shape>
							<Appearance>
								<Material USE="MA_Body" />
							</Appearance>
							<IndexedTriangleSet solid="false"
							                    normalPerVertex="true"
							                    index="0 1 2 0 2 3 4 5 6 4 6 7 8 9 10 8 10 11 12 13 14 12 14 15 4 16 17 4 17 15 18 19 20 18 20 21 "
							                    >
								<Coordinate point="-0.127628 -0.129178 -0.125542 -0.127628 -0.329496 0.080579 -0.214965 -0.164271 0.241152 -0.214965 0.036047 0.035032 -0.214965 0.036047 0.035032 -0.214965 -0.164271 0.241152 0.127628 -0.071139 0.331662 0.127628 0.129178 0.125542 0.127628 0.129178 0.125542 0.127628 -0.071139 0.331662 0.214965 -0.236364 0.171088 0.214965 -0.036047 -0.035032 0.214965 -0.036047 -0.035032 0.214965 -0.236364 0.171088 -0.127628 -0.329496 0.080579 -0.127628 -0.129178 -0.125542 0.127628 0.129178 0.125542 0.214965 -0.036047 -0.035032 0.127628 -0.071139 0.331662 -0.214965 -0.164271 0.241152 -0.127628 -0.329496 0.080579 0.214965 -0.236364 0.171088 " />
								<Normal vector="-0.335215 -0.131504 -0.932890 -0.335215 -0.936277 -0.104831 -0.744499 -0.161962 0.647633 -0.744499 0.642750 -0.180395 -0.744499 0.642750 -0.180395 -0.744499 -0.161962 0.647633 0.335215 0.131504 0.932890 0.335215 0.936277 0.104831 0.335215 0.936277 0.104831 0.335215 0.131504 0.932890 0.744499 -0.642750 0.180395 0.744499 0.161962 -0.647633 0.744499 0.161962 -0.647633 0.744499 -0.642750 0.180395 -0.335215 -0.936277 -0.104831 -0.335215 -0.131504 -0.932890 0.335215 0.936277 0.104831 0.744499 0.161962 -0.647633 0.335215 0.131504 0.932890 -0.744499 -0.161962 0.647633 -0.335215 -0.936277 -0.104831 0.744499 -0.642750 0.180395 " />
								<TextureCoordinate point="0.0416 0.3751 0.9584 0.3751 0.9584 0.6683 0.0416 0.6683 0.0416 0.3751 0.9584 0.3751 0.9584 0.6683 0.0416 0.6683 0.0416 0.3751 0.9584 0.3751 0.9584 0.6683 0.0416 0.6683 0.0416 0.3751 0.9584 0.3751 0.9584 0.6683 0.0416 0.6683 0.9584 0.3751 0.9584 0.6683 0.0416 0.0355 0.9584 0.0355 0.9584 0.3287 0.0416 0.3287 " />
							</IndexedTriangleSet>
						</Shape>
					</Group>
				</Transform>
			</Transform>
			<Transform DEF="Cube_007_TRANSFORM"
			           translation="0.247308 -0.892219 1.442661"
			           scale="1.000000 1.000000 1.000000"
			           rotation="0.000000 1.000000 0.000000 0.000000"
			           >
				<Transform DEF="Cube_007_ifs_TRANSFORM"
				           translation="0.000000 0.000000 0.000000"
				           scale="1.000000 1.000000 1.000000"
				           rotation="0.000000 1.000000 0.000000 0.000000"
				           >
					<Group DEF="group_ME_Cube_013">
						<Shape>
							<Appearance>
								<Material USE="MA_Body" />
							</Appearance>
							<IndexedTriangleSet solid="false"
							                    normalPerVertex="true"
							                    index="0 1 2 0 2 3 4 5 6 4 6 7 8 9 10 8 10 11 12 13 14 12 14 15 4 16 17 4 17 15 18 19 20 18 20 21 "
							                    >
								<Coordinate point="-0.066711 -0.265368 -0.167707 0.037112 -0.409232 0.018633 -0.189032 -0.204222 0.302911 -0.292856 -0.060359 0.116571 -0.292856 -0.060359 0.116571 -0.189032 -0.204222 0.302911 0.170535 0.121505 0.354048 0.066711 0.265368 0.167707 0.066711 0.265368 0.167707 0.170535 0.121505 0.354048 0.396679 -0.083505 0.069769 0.292856 0.060359 -0.116571 0.292856 0.060359 -0.116571 0.396679 -0.083505 0.069769 0.037112 -0.409232 0.018633 -0.066711 -0.265368 -0.167707 0.066711 0.265368 0.167707 0.292856 0.060359 -0.116571 0.170535 0.121505 0.354048 -0.189032 -0.204222 0.302911 0.037112 -0.409232 0.018633 0.396679 -0.083505 0.069769 " />
								<Normal vector="-0.345470 -0.346416 -0.872127 0.120457 -0.992065 -0.035859 -0.505570 -0.424512 0.751091 -0.971496 0.221107 -0.085147 -0.971496 0.221107 -0.085147 -0.505570 -0.424512 0.751091 0.345470 0.346416 0.872127 -0.120457 0.992065 0.035859 -0.120457 0.992065 0.035859 0.345470 0.346416 0.872127 0.971496 -0.221107 0.085147 0.505570 0.424512 -0.751091 0.505570 0.424512 -0.751091 0.971496 -0.221107 0.085147 0.120457 -0.992065 -0.035859 -0.345470 -0.346416 -0.872127 -0.120457 0.992065 0.035859 0.505570 0.424512 -0.751091 0.345470 0.346416 0.872127 -0.505570 -0.424512 0.751091 0.120457 -0.992065 -0.035859 0.971496 -0.221107 0.085147 " />
								<TextureCoordinate point="0.0416 0.3649 0.9584 0.3649 0.9584 0.6661 0.0416 0.6661 0.0416 0.3649 0.9584 0.3649 0.9584 0.6661 0.0416 0.6661 0.0416 0.3649 0.9584 0.3649 0.9584 0.6661 0.0416 0.6661 0.0416 0.3649 0.9584 0.3649 0.9584 0.6661 0.0416 0.6661 0.9584 0.3649 0.9584 0.6661 0.0416 0.0254 0.9584 0.0254 0.9584 0.3265 0.0416 0.3265 " />
							</IndexedTriangleSet>
						</Shape>
					</Group>
				</Transform>
			</Transform>
			<Transform DEF="Cube_012_TRANSFORM"
			           translation="-0.434854 -0.339800 1.328236"
			           scale="1.000000 1.000000 1.000000"
			           rotation="0.000000 1.000000 0.000000 0.000000"
			           >
				<Transform DEF="Cube_012_ifs_TRANSFORM"
				           translation="0.000000 0.000000 0.000000"
				           scale="1.000000 1.000000 1.000000"
				           rotation="0.000000 1.000000 0.000000 0.000000"
				           >
					<Group DEF="group_ME_Cube_014">
						<Shape>
							<Appearance>
								<Material USE="MA_Body" />
							</Appearance>
							<IndexedTriangleSet solid="false"
							                    normalPerVertex="true"
							                    index="0 1 2 0 2 3 4 5 6 4 6 7 8 9 10 8 10 11 12 13 14 12 14 15 4 16 17 4 17 15 18 19 20 18 20 21 "
							                    >
								<Coordinate point="-0.364344 -0.384350 -0.209234 -0.508688 -0.572477 0.387693 -0.562828 0.197501 0.617266 -0.418483 0.385627 0.020339 -0.418483 0.385627 0.020339 -0.562828 0.197501 0.617266 0.219999 0.196224 0.806161 0.364344 0.384350 0.209234 0.364344 0.384350 0.209234 0.219999 0.196224 0.806161 0.274139 -0.573753 0.576588 0.418483 -0.385627 -0.020339 0.418483 -0.385627 -0.020339 0.274139 -0.573753 0.576588 -0.508688 -0.572477 0.387693 -0.364344 -0.384350 -0.209234 0.364344 0.384350 0.209234 0.418483 -0.385627 -0.020339 0.219999 0.196224 0.806161 -0.562828 0.197501 0.617266 -0.508688 -0.572477 0.387693 0.274139 -0.573753 0.576588 " />
								<Normal vector="-0.392651 -0.382000 -0.836573 -0.652150 -0.720206 0.236518 -0.729789 0.383831 0.565722 -0.470290 0.722037 -0.507401 -0.470290 0.722037 -0.507401 -0.729789 0.383831 0.565722 0.392651 0.382000 0.836573 0.652150 0.720206 -0.236518 0.652150 0.720206 -0.236518 0.392651 0.382000 0.836573 0.470290 -0.722037 0.507401 0.729789 -0.383831 -0.565722 0.729789 -0.383831 -0.565722 0.470290 -0.722037 0.507401 -0.652150 -0.720206 0.236518 -0.392651 -0.382000 -0.836573 0.652150 0.720206 -0.236518 0.729789 -0.383831 -0.565722 0.392651 0.382000 0.836573 -0.729789 0.383831 0.565722 -0.652150 -0.720206 0.236518 0.470290 -0.722037 0.507401 " />
								<TextureCoordinate point="0.0416 0.3649 0.9584 0.3649 0.9584 0.6661 0.0416 0.6661 0.0416 0.3649 0.9584 0.3649 0.9584 0.6661 0.0416 0.6661 0.0416 0.3649 0.9584 0.3649 0.9584 0.6661 0.0416 0.6661 0.0416 0.3649 0.9584 0.3649 0.9584 0.6661 0.0416 0.6661 0.9584 0.3649 0.9584 0.6661 0.0416 0.0254 0.9584 0.0254 0.9584 0.3265 0.0416 0.3265 " />
							</IndexedTriangleSet>
						</Shape>
					</Group>
				</Transform>
			</Transform>
			<Transform DEF="Cube_013_TRANSFORM"
			           translation="0.347289 -0.054989 1.716505"
			           scale="1.000000 1.000000 1.000000"
			           rotation="0.000000 1.000000 0.000000 0.000000"
			           >
				<Transform DEF="Cube_013_ifs_TRANSFORM"
				           translation="0.000000 0.000000 0.000000"
				           scale="1.000000 1.000000 1.000000"
				           rotation="0.000000 1.000000 0.000000 0.000000"
				           >
					<Group DEF="group_ME_Cube_015">
						<Shape>
							<Appearance>
								<Material USE="MA_Body" />
							</Appearance>
							<IndexedTriangleSet solid="false"
							                    normalPerVertex="true"
							                    index="0 1 2 0 2 3 4 5 6 4 6 7 8 9 10 8 10 11 12 13 14 12 14 15 4 16 17 4 17 15 18 19 20 18 20 21 "
							                    >
								<Coordinate point="-0.172996 -0.189594 0.111415 -0.061701 -0.154101 0.344625 -0.080745 0.229255 0.295369 -0.192041 0.193762 0.062159 -0.192041 0.193762 0.062159 -0.080745 0.229255 0.295369 0.284292 0.225088 0.121794 0.172996 0.189594 -0.111415 0.172996 0.189594 -0.111415 0.284292 0.225088 0.121794 0.303337 -0.158268 0.171051 0.192041 -0.193762 -0.062159 0.192041 -0.193762 -0.062159 0.303337 -0.158268 0.171051 -0.061701 -0.154101 0.344625 -0.172996 -0.189594 0.111415 0.172996 0.189594 -0.111415 0.192041 -0.193762 -0.062159 0.284292 0.225088 0.121794 -0.080745 0.229255 0.295369 -0.061701 -0.154101 0.344625 0.303337 -0.158268 0.171051 " />
								<Normal vector="-0.739311 -0.644551 -0.194800 -0.246590 -0.487411 0.837611 -0.303415 0.656453 0.690634 -0.796136 0.499313 -0.341777 -0.796136 0.499313 -0.341777 -0.303415 0.656453 0.690634 0.739311 0.644551 0.194800 0.246590 0.487411 -0.837611 0.246590 0.487411 -0.837611 0.739311 0.644551 0.194800 0.796136 -0.499313 0.341777 0.303415 -0.656453 -0.690634 0.303415 -0.656453 -0.690634 0.796136 -0.499313 0.341777 -0.246590 -0.487411 0.837611 -0.739311 -0.644551 -0.194800 0.246590 0.487411 -0.837611 0.303415 -0.656453 -0.690634 0.739311 0.644551 0.194800 -0.303415 0.656453 0.690634 -0.246590 -0.487411 0.837611 0.796136 -0.499313 0.341777 " />
								<TextureCoordinate point="0.0416 0.3649 0.9584 0.3649 0.9584 0.6661 0.0416 0.6661 0.0416 0.3649 0.9584 0.3649 0.9584 0.6661 0.0416 0.6661 0.0416 0.3649 0.9584 0.3649 0.9584 0.6661 0.0416 0.6661 0.0416 0.3649 0.9584 0.3649 0.9584 0.6661 0.0416 0.6661 0.9584 0.3649 0.9584 0.6661 0.0416 0.0254 0.9584 0.0254 0.9584 0.3265 0.0416 0.3265 " />
							</IndexedTriangleSet>
						</Shape>
					</Group>
				</Transform>
			</Transform>
			<Transform DEF="Cube_014_TRANSFORM"
			           translation="-0.434854 0.431398 1.328236"
			           scale="1.000000 1.000000 1.000000"
			           rotation="0.000000 1.000000 0.000000 0.000000"
			           >
				<Transform DEF="Cube_014_ifs_TRANSFORM"
				           translation="0.000000 0.000000 0.000000"
				           scale="1.000000 1.000000 1.000000"
				           rotation="0.000000 1.000000 0.000000 0.000000"
				           >
					<Group DEF="group_ME_Cube_016">
						<Shape>
							<Appearance>
								<Material USE="MA_Body" />
							</Appearance>
							<IndexedTriangleSet solid="false"
							                    normalPerVertex="true"
							                    index="0 1 2 0 2 3 4 5 6 4 6 7 8 9 10 8 10 11 12 13 14 12 14 15 4 16 17 4 17 15 18 19 20 18 20 21 "
							                    >
								<Coordinate point="-0.425889 -0.375151 0.046159 -0.531976 -0.195598 0.526631 -0.466041 0.560878 0.258494 -0.359954 0.381325 -0.221979 -0.359954 0.381325 -0.221979 -0.466041 0.560878 0.258494 0.319802 0.554704 0.434313 0.425889 0.375151 -0.046159 0.425889 0.375151 -0.046159 0.319802 0.554704 0.434313 0.253867 -0.201772 0.702451 0.359954 -0.381325 0.221979 0.359954 -0.381325 0.221979 0.253867 -0.201772 0.702451 -0.531976 -0.195598 0.526631 -0.425889 -0.375151 0.046159 0.425889 0.375151 -0.046159 0.359954 -0.381325 0.221979 0.319802 0.554704 0.434313 -0.466041 0.560878 0.258494 -0.531976 -0.195598 0.526631 0.253867 -0.201772 0.702451 " />
								<Normal vector="-0.493728 -0.735832 -0.463424 -0.727592 -0.339976 0.595782 -0.633045 0.744682 0.211310 -0.399182 0.348857 -0.847896 -0.399182 0.348857 -0.847896 -0.633045 0.744682 0.211310 0.493728 0.735832 0.463424 0.727592 0.339976 -0.595782 0.727592 0.339976 -0.595782 0.493728 0.735832 0.463424 0.399182 -0.348857 0.847896 0.633045 -0.744682 -0.211310 0.633045 -0.744682 -0.211310 0.399182 -0.348857 0.847896 -0.727592 -0.339976 0.595782 -0.493728 -0.735832 -0.463424 0.727592 0.339976 -0.595782 0.633045 -0.744682 -0.211310 0.493728 0.735832 0.463424 -0.633045 0.744682 0.211310 -0.727592 -0.339976 0.595782 0.399182 -0.348857 0.847896 " />
								<TextureCoordinate point="0.0416 0.3649 0.9584 0.3649 0.9584 0.6661 0.0416 0.6661 0.0416 0.3649 0.9584 0.3649 0.9584 0.6661 0.0416 0.6661 0.0416 0.3649 0.9584 0.3649 0.9584 0.6661 0.0416 0.6661 0.0416 0.3649 0.9584 0.3649 0.9584 0.6661 0.0416 0.6661 0.9584 0.3649 0.9584 0.6661 0.0416 0.0254 0.9584 0.0254 0.9584 0.3265 0.0416 0.3265 " />
							</IndexedTriangleSet>
						</Shape>
					</Group>
				</Transform>
			</Transform>
			<Transform DEF="Cube_015_TRANSFORM"
			           translation="-0.179544 1.117810 1.155435"
			           scale="1.000000 1.000000 1.000000"
			           rotation="0.000000 1.000000 0.000000 0.000000"
			           >
				<Transform DEF="Cube_015_ifs_TRANSFORM"
				           translation="0.000000 0.000000 0.000000"
				           scale="1.000000 1.000000 1.000000"
				           rotation="0.000000 1.000000 0.000000 0.000000"
				           >
					<Group DEF="group_ME_Cube_017">
						<Shape>
							<Appearance>
								<Material USE="MA_Body" />
							</Appearance>
							<IndexedTriangleSet solid="false"
							                    normalPerVertex="true"
							                    index="0 1 2 0 2 3 4 5 6 4 6 7 8 9 10 8 10 11 12 13 14 12 14 15 16 17 18 16 18 15 19 20 14 19 14 21 "
							                    >
								<Coordinate point="-0.152811 0.132137 -0.221561 -0.278028 -0.057498 0.096411 -0.278028 0.169859 0.232004 -0.152811 0.359494 -0.085968 -0.152811 0.359494 -0.085968 -0.278028 0.169859 0.232004 0.152811 0.095221 0.357155 0.278028 0.284856 0.039183 0.278028 0.284856 0.039183 0.152811 0.095221 0.357155 0.152811 -0.132137 0.221561 0.278028 0.057498 -0.096411 0.278028 0.057498 -0.096411 0.152811 -0.132137 0.221561 -0.278028 -0.057498 0.096411 -0.152811 0.132137 -0.221561 -0.152811 0.359494 -0.085968 0.278028 0.284856 0.039183 0.278028 0.057498 -0.096411 0.152811 0.095221 0.357155 -0.278028 0.169859 0.232004 0.152811 -0.132137 0.221561 " />
								<Normal vector="-0.361919 -0.120975 -0.924314 -0.731864 -0.681234 0.015107 -0.731864 0.310465 0.606555 -0.361919 0.870724 -0.332865 -0.361919 0.870724 -0.332865 -0.731864 0.310465 0.606555 0.361919 0.120975 0.924314 0.731864 0.681234 -0.015107 0.731864 0.681234 -0.015107 0.361919 0.120975 0.924314 0.361919 -0.870724 0.332865 0.731864 -0.310465 -0.606555 0.731864 -0.310465 -0.606555 0.361919 -0.870724 0.332865 -0.731864 -0.681234 0.015107 -0.361919 -0.120975 -0.924314 -0.361919 0.870724 -0.332865 0.731864 0.681234 -0.015107 0.731864 -0.310465 -0.606555 0.361919 0.120975 0.924314 -0.731864 0.310465 0.606555 0.361919 -0.870724 0.332865 " />
								<TextureCoordinate point="0.0416 0.3649 0.9584 0.3649 0.9584 0.6661 0.0416 0.6661 0.0416 0.0254 0.9584 0.0254 0.9584 0.3265 0.0416 0.3265 0.0416 0.3649 0.9584 0.3649 0.9584 0.6661 0.0416 0.6661 0.0416 0.3649 0.9584 0.3649 0.9584 0.6661 0.0416 0.6661 0.0416 0.3649 0.9584 0.3649 0.9584 0.6661 0.0416 0.3649 0.9584 0.3649 0.0416 0.6661 " />
							</IndexedTriangleSet>
						</Shape>
					</Group>
				</Transform>
			</Transform>
			<Transform DEF="Cube_016_TRANSFORM"
			           translation="0.280078 0.882646 1.286384"
			           scale="1.000000 1.000000 1.000000"
			           rotation="0.000000 1.000000 0.000000 0.000000"
			           >
				<Transform DEF="Cube_016_ifs_TRANSFORM"
				           translation="0.000000 0.000000 0.000000"
				           scale="1.000000 1.000000 1.000000"
				           rotation="0.000000 1.000000 0.000000 0.000000"
				           >
					<Group DEF="group_ME_Cube_018">
						<Shape>
							<Appearance>
								<Material USE="MA_Body" />
							</Appearance>
							<IndexedTriangleSet solid="false"
							                    normalPerVertex="true"
							                    index="0 1 2 0 2 3 4 5 6 4 6 7 8 9 10 8 10 11 12 13 14 12 14 15 4 16 17 4 17 15 18 19 20 18 20 21 "
							                    >
								<Coordinate point="-0.128600 -0.077054 0.125482 -0.031206 0.149788 0.364590 -0.044513 0.348396 0.181591 -0.141907 0.121554 -0.057517 -0.141907 0.121554 -0.057517 -0.044513 0.348396 0.181591 0.225993 0.303896 0.113626 0.128600 0.077054 -0.125482 0.128600 0.077054 -0.125482 0.225993 0.303896 0.113626 0.239300 0.105288 0.296625 0.141907 -0.121554 0.057517 0.141907 -0.121554 0.057517 0.239300 0.105288 0.296625 -0.031206 0.149788 0.364590 -0.128600 -0.077054 0.125482 0.128600 0.077054 -0.125482 0.141907 -0.121554 0.057517 0.225993 0.303896 0.113626 -0.044513 0.348396 0.181591 -0.031206 0.149788 0.364590 0.239300 0.105288 0.296625 " />
								<Normal vector="-0.688131 -0.714164 0.127995 -0.360912 0.047945 0.931333 -0.417737 0.896115 0.149846 -0.744957 0.133946 -0.653493 -0.744957 0.133946 -0.653493 -0.417737 0.896115 0.149846 0.688131 0.714164 -0.127995 0.360912 -0.047945 -0.931333 0.360912 -0.047945 -0.931333 0.688131 0.714164 -0.127995 0.744957 -0.133946 0.653493 0.417737 -0.896115 -0.149846 0.417737 -0.896115 -0.149846 0.744957 -0.133946 0.653493 -0.360912 0.047945 0.931333 -0.688131 -0.714164 0.127995 0.360912 -0.047945 -0.931333 0.417737 -0.896115 -0.149846 0.688131 0.714164 -0.127995 -0.417737 0.896115 0.149846 -0.360912 0.047945 0.931333 0.744957 -0.133946 0.653493 " />
								<TextureCoordinate point="0.0416 0.3649 0.9584 0.3649 0.9584 0.6661 0.0416 0.6661 0.0416 0.3649 0.9584 0.3649 0.9584 0.6661 0.0416 0.6661 0.0416 0.3649 0.9584 0.3649 0.9584 0.6661 0.0416 0.6661 0.0416 0.3649 0.9584 0.3649 0.9584 0.6661 0.0416 0.6661 0.9584 0.3649 0.9584 0.6661 0.0416 0.0254 0.9584 0.0254 0.9584 0.3265 0.0416 0.3265 " />
							</IndexedTriangleSet>
						</Shape>
					</Group>
				</Transform>
			</Transform>
			<Transform DEF="Cube_017_TRANSFORM"
			           translation="-0.190939 1.224713 0.577352"
			           scale="1.000000 1.000000 1.000000"
			           rotation="0.000000 1.000000 0.000000 0.000000"
			           >
				<Transform DEF="Cube_017_ifs_TRANSFORM"
				           translation="0.000000 0.000000 0.000000"
				           scale="1.000000 1.000000 1.000000"
				           rotation="0.000000 1.000000 0.000000 0.000000"
				           >
					<Group DEF="group_ME_Cube_019">
						<Shape>
							<Appearance>
								<Material USE="MA_Body" />
							</Appearance>
							<IndexedTriangleSet solid="false"
							                    normalPerVertex="true"
							                    index="0 1 2 0 2 3 4 5 6 4 6 7 8 9 10 8 10 11 12 13 14 12 14 15 16 17 18 16 18 15 19 20 14 19 14 21 "
							                    >
								<Coordinate point="-0.230246 -0.017190 -0.301320 -0.366176 0.005701 0.099927 -0.366176 0.382434 0.078435 -0.230246 0.359544 -0.322811 -0.230246 0.359544 -0.322811 -0.366176 0.382434 0.078435 0.230246 0.393923 0.279828 0.366176 0.371033 -0.121419 0.366176 0.371033 -0.121419 0.230246 0.393923 0.279828 0.230246 0.017190 0.301320 0.366176 -0.005701 -0.099927 0.366176 -0.005701 -0.099927 0.230246 0.017190 0.301320 -0.366176 0.005701 0.099927 -0.230246 -0.017190 -0.301320 -0.230246 0.359544 -0.322811 0.366176 0.371033 -0.121419 0.366176 -0.005701 -0.099927 0.230246 0.393923 0.279828 -0.366176 0.382434 0.078435 0.230246 0.017190 0.301320 " />
								<Normal vector="-0.361919 -0.618091 -0.697806 -0.731864 -0.555773 0.394208 -0.731864 0.597003 0.328440 -0.361919 0.534715 -0.763573 -0.361919 0.534715 -0.763573 -0.731864 0.597003 0.328440 0.361919 0.618091 0.697806 0.731864 0.555773 -0.394208 0.731864 0.555773 -0.394208 0.361919 0.618091 0.697806 0.361919 -0.534715 0.763573 0.731864 -0.597003 -0.328440 0.731864 -0.597003 -0.328440 0.361919 -0.534715 0.763573 -0.731864 -0.555773 0.394208 -0.361919 -0.618091 -0.697806 -0.361919 0.534715 -0.763573 0.731864 0.555773 -0.394208 0.731864 -0.597003 -0.328440 0.361919 0.618091 0.697806 -0.731864 0.597003 0.328440 0.361919 -0.534715 0.763573 " />
								<TextureCoordinate point="0.0416 0.3649 0.9584 0.3649 0.9584 0.6661 0.0416 0.6661 0.0416 0.0254 0.9584 0.0254 0.9584 0.3265 0.0416 0.3265 0.0416 0.3649 0.9584 0.3649 0.9584 0.6661 0.0416 0.6661 0.0416 0.3649 0.9584 0.3649 0.9584 0.6661 0.0416 0.6661 0.0416 0.3649 0.9584 0.3649 0.9584 0.6661 0.0416 0.3649 0.9584 0.3649 0.0416 0.6661 " />
							</IndexedTriangleSet>
						</Shape>
					</Group>
				</Transform>
			</Transform>
			<Transform DEF="Cube_018_TRANSFORM"
			           translation="-0.232962 0.794389 0.251311"
			           scale="1.000000 1.000000 1.000000"
			           rotation="0.000000 1.000000 0.000000 0.000000"
			           >
				<Transform DEF="Cube_018_ifs_TRANSFORM"
				           translation="0.000000 0.000000 0.000000"
				           scale="1.000000 1.000000 1.000000"
				           rotation="0.000000 1.000000 0.000000 0.000000"
				           >
					<Group DEF="group_ME_Cube_020">
						<Shape>
							<Appearance>
								<Material USE="MA_Body" />
							</Appearance>
							<IndexedTriangleSet solid="false"
							                    normalPerVertex="true"
							                    index="0 1 2 0 2 3 4 5 6 4 6 7 8 9 10 8 10 11 12 13 14 12 14 15 4 16 17 4 17 15 18 5 14 18 14 19 "
							                    >
								<Coordinate point="-0.116723 -0.091157 -0.159742 -0.217323 -0.004904 -0.014073 -0.210282 0.461254 -0.285234 -0.109682 0.375000 -0.430902 -0.109682 0.375000 -0.430902 -0.210282 0.461254 -0.285234 0.123765 0.557315 -0.111419 0.224365 0.471061 -0.257087 0.224365 0.471061 -0.257087 0.123765 0.557315 -0.111419 0.116723 0.091157 0.159742 0.217323 0.004904 0.014073 0.217323 0.004904 0.014073 0.116723 0.091157 0.159742 -0.217323 -0.004904 -0.014073 -0.116723 -0.091157 -0.159742 0.224365 0.471061 -0.257087 0.217323 0.004904 0.014073 0.123765 0.557315 -0.111419 0.116723 0.091157 0.159742 " />
								<Normal vector="-0.208838 -0.894589 -0.395001 -0.798730 -0.388836 0.459120 -0.783654 0.609180 -0.121403 -0.193762 0.103397 -0.975555 -0.193762 0.103397 -0.975555 -0.783654 0.609180 -0.121403 0.208838 0.894589 0.395001 0.798730 0.388836 -0.459120 0.798730 0.388836 -0.459120 0.208838 0.894589 0.395001 0.193762 -0.103397 0.975555 0.783654 -0.609180 0.121403 0.783654 -0.609180 0.121403 0.193762 -0.103397 0.975555 -0.798730 -0.388836 0.459120 -0.208838 -0.894589 -0.395001 0.798730 0.388836 -0.459120 0.783654 -0.609180 0.121403 0.208838 0.894589 0.395001 0.193762 -0.103397 0.975555 " />
								<TextureCoordinate point="0.0416 0.3649 0.9584 0.3649 0.9584 0.6661 0.0416 0.6661 0.0416 0.3649 0.9584 0.3649 0.9584 0.6661 0.0416 0.6661 0.0416 0.3649 0.9584 0.3649 0.9584 0.6661 0.0416 0.6661 0.0416 0.3649 0.9584 0.3649 0.9584 0.6661 0.0416 0.6661 0.9584 0.3649 0.9584 0.6661 0.0416 0.3649 0.0416 0.6661 " />
							</IndexedTriangleSet>
						</Shape>
					</Group>
				</Transform>
			</Transform>
			<Transform DEF="Cube_019_TRANSFORM"
			           translation="-0.956724 -0.177516 0.909506"
			           scale="1.000000 1.000000 1.000000"
			           rotation="0.000000 1.000000 0.000000 0.000000"
			           >
				<Transform DEF="Cube_019_ifs_TRANSFORM"
				           translation="0.000000 0.000000 0.000000"
				           scale="1.000000 1.000000 1.000000"
				           rotation="0.000000 1.000000 0.000000 0.000000"
				           >
					<Group DEF="group_ME_Cube_021">
						<Shape>
							<Appearance>
								<Material USE="MA_Body" />
							</Appearance>
							<IndexedTriangleSet solid="false"
							                    normalPerVertex="true"
							                    index="0 1 2 0 2 3 4 5 6 4 6 7 8 9 10 8 10 11 12 13 14 12 14 15 4 16 17 4 17 15 18 5 14 18 14 19 "
							                    >
								<Coordinate point="-0.489894 -0.261017 -0.078391 -0.460101 -0.261017 0.185602 -0.460101 0.261017 0.185602 -0.489894 0.261017 -0.078391 -0.489894 0.261017 -0.078391 -0.460101 0.261017 0.185602 0.014896 0.261017 0.131996 -0.014896 0.261017 -0.131996 -0.014896 0.261017 -0.131996 0.014896 0.261017 0.131996 0.014896 -0.261017 0.131996 -0.014896 -0.261017 -0.131996 -0.014896 -0.261017 -0.131996 0.014896 -0.261017 0.131996 -0.460101 -0.261017 0.185602 -0.489894 -0.261017 -0.078391 -0.014896 0.261017 -0.131996 -0.014896 -0.261017 -0.131996 0.014896 0.261017 0.131996 0.014896 -0.261017 0.131996 " />
								<Normal vector="-0.638447 -0.577349 -0.508957 -0.508957 -0.577349 0.638447 -0.508957 0.577349 0.638447 -0.638447 0.577349 -0.508957 -0.638447 0.577349 -0.508957 -0.508957 0.577349 0.638447 0.638447 0.577349 0.508957 0.508957 0.577349 -0.638447 0.508957 0.577349 -0.638447 0.638447 0.577349 0.508957 0.638447 -0.577349 0.508957 0.508957 -0.577349 -0.638447 0.508957 -0.577349 -0.638447 0.638447 -0.577349 0.508957 -0.508957 -0.577349 0.638447 -0.638447 -0.577349 -0.508957 0.508957 0.577349 -0.638447 0.508957 -0.577349 -0.638447 0.638447 0.577349 0.508957 0.638447 -0.577349 0.508957 " />
								<TextureCoordinate point="0.0416 0.0236 0.9584 0.0236 0.9584 0.3211 0.0416 0.3211 0.0416 0.3706 0.9584 0.3706 0.9584 0.6681 0.0416 0.6681 0.0416 0.3706 0.9584 0.3706 0.9584 0.6681 0.0416 0.6681 0.0416 0.3706 0.9584 0.3706 0.9584 0.6681 0.0416 0.6681 0.9584 0.3706 0.9584 0.6681 0.0416 0.3706 0.0416 0.6681 " />
							</IndexedTriangleSet>
						</Shape>
					</Group>
				</Transform>
			</Transform>
			<Transform DEF="Cube_020_TRANSFORM"
			           translation="-0.892146 0.074303 0.905263"
			           scale="1.000000 1.000000 1.000000"
			           rotation="0.000000 1.000000 0.000000 0.000000"
			           >
				<Transform DEF="Cube_020_ifs_TRANSFORM"
				           translation="0.000000 0.000000 0.000000"
				           scale="1.000000 1.000000 1.000000"
				           rotation="0.000000 1.000000 0.000000 0.000000"
				           >
					<Group DEF="group_ME_Cube_022">
						<Shape>
							<Appearance>
								<Material USE="MA_Body" />
							</Appearance>
							<IndexedTriangleSet solid="false"
							                    normalPerVertex="true"
							                    index="0 1 2 0 2 3 4 5 6 4 6 7 8 9 10 8 10 11 12 13 14 12 14 15 4 16 17 4 17 15 18 5 14 18 14 19 "
							                    >
								<Coordinate point="-0.408103 -0.329895 0.299662 -0.115932 -0.260300 0.532897 -0.137877 0.480676 0.339288 -0.430048 0.411081 0.106052 -0.430048 0.411081 0.106052 -0.137877 0.480676 0.339288 0.135113 0.405285 0.019813 -0.157058 0.335690 -0.213422 -0.157058 0.335690 -0.213422 0.135113 0.405285 0.019813 0.157058 -0.335690 0.213422 -0.135113 -0.405285 -0.019813 -0.135113 -0.405285 -0.019813 0.157058 -0.335690 0.213422 -0.115932 -0.260300 0.532897 -0.408103 -0.329895 0.299662 -0.157058 0.335690 -0.213422 -0.135113 -0.405285 -0.019813 0.135113 0.405285 0.019813 0.157058 -0.335690 0.213422 " />
								<Normal vector="-0.796197 -0.562059 0.223792 0.090945 -0.350749 0.932035 0.057863 0.765954 0.640248 -0.829279 0.554643 -0.067965 -0.829279 0.554643 -0.067965 0.057863 0.765954 0.640248 0.796197 0.562059 -0.223792 -0.090945 0.350749 -0.932035 -0.090945 0.350749 -0.932035 0.796197 0.562059 -0.223792 0.829279 -0.554643 0.067965 -0.057863 -0.765954 -0.640248 -0.057863 -0.765954 -0.640248 0.829279 -0.554643 0.067965 0.090945 -0.350749 0.932035 -0.796197 -0.562059 0.223792 -0.090945 0.350749 -0.932035 -0.057863 -0.765954 -0.640248 0.796197 0.562059 -0.223792 0.829279 -0.554643 0.067965 " />
								<TextureCoordinate point="0.0416 0.0180 0.9584 0.0180 0.9584 0.3191 0.0416 0.3191 0.0416 0.3649 0.9584 0.3649 0.9584 0.6661 0.0416 0.6661 0.0416 0.3649 0.9584 0.3649 0.9584 0.6661 0.0416 0.6661 0.0416 0.3649 0.9584 0.3649 0.9584 0.6661 0.0416 0.6661 0.9584 0.3649 0.9584 0.6661 0.0416 0.3649 0.0416 0.6661 " />
							</IndexedTriangleSet>
						</Shape>
					</Group>
				</Transform>
			</Transform>
			<Transform DEF="Cube_021_TRANSFORM"
			           translation="0.842338 -0.095919 0.991249"
			           scale="1.000000 1.000000 1.000000"
			           rotation="0.000000 1.000000 0.000000 0.000000"
			           >
				<Transform DEF="Cube_021_ifs_TRANSFORM"
				           translation="0.000000 0.000000 0.000000"
				           scale="1.000000 1.000000 1.000000"
				           rotation="0.000000 1.000000 0.000000 0.000000"
				           >
					<Group DEF="group_ME_Cube_023">
						<Shape>
							<Appearance>
								<Material USE="MA_Body" />
							</Appearance>
							<IndexedTriangleSet solid="false"
							                    normalPerVertex="true"
							                    index="0 1 2 0 2 3 4 5 6 4 6 7 8 9 10 8 10 11 12 13 14 12 14 15 4 16 17 4 17 15 18 5 14 18 14 19 "
							                    >
								<Coordinate point="0.090284 -0.311704 -0.128195 -0.063754 -0.253145 0.231512 -0.090284 0.311704 0.128195 0.063754 0.253145 -0.231512 0.063754 0.253145 -0.231512 -0.090284 0.311704 0.128195 0.363794 0.366953 0.313651 0.517832 0.308394 -0.046056 0.517832 0.308394 -0.046056 0.363794 0.366953 0.313651 0.390324 -0.197896 0.416968 0.544362 -0.256455 0.057260 0.544362 -0.256455 0.057260 0.390324 -0.197896 0.416968 -0.063754 -0.253145 0.231512 0.090284 -0.311704 -0.128195 0.517832 0.308394 -0.046056 0.544362 -0.256455 0.057260 0.363794 0.366953 0.313651 0.390324 -0.197896 0.416968 " />
								<Normal vector="-0.279702 -0.717368 -0.638020 -0.729240 -0.546495 0.411725 -0.782525 0.588122 0.204169 -0.332987 0.417219 -0.845576 -0.332987 0.417219 -0.845576 -0.782525 0.588122 0.204169 0.279702 0.717368 0.638020 0.729240 0.546495 -0.411725 0.729240 0.546495 -0.411725 0.279702 0.717368 0.638020 0.332987 -0.417219 0.845576 0.782525 -0.588122 -0.204169 0.782525 -0.588122 -0.204169 0.332987 -0.417219 0.845576 -0.729240 -0.546495 0.411725 -0.279702 -0.717368 -0.638020 0.729240 0.546495 -0.411725 0.782525 -0.588122 -0.204169 0.279702 0.717368 0.638020 0.332987 -0.417219 0.845576 " />
								<TextureCoordinate point="0.0416 0.3649 0.9584 0.3649 0.9584 0.6661 0.0416 0.6661 0.0416 0.3649 0.9584 0.3649 0.9584 0.6661 0.0416 0.6661 0.0416 0.0254 0.9584 0.0254 0.9584 0.3265 0.0416 0.3265 0.0416 0.3649 0.9584 0.3649 0.9584 0.6661 0.0416 0.6661 0.9584 0.3649 0.9584 0.6661 0.0416 0.3649 0.0416 0.6661 " />
							</IndexedTriangleSet>
						</Shape>
					</Group>
				</Transform>
			</Transform>
			<Transform DEF="Cube_022_TRANSFORM"
			           translation="0.880881 0.800253 0.859469"
			           scale="1.000000 1.000000 1.000000"
			           rotation="0.000000 1.000000 0.000000 0.000000"
			           >
				<Transform DEF="Cube_022_ifs_TRANSFORM"
				           translation="0.000000 0.000000 0.000000"
				           scale="1.000000 1.000000 1.000000"
				           rotation="0.000000 1.000000 0.000000 0.000000"
				           >
					<Group DEF="group_ME_Cube_024">
						<Shape>
							<Appearance>
								<Material USE="MA_Body" />
							</Appearance>
							<IndexedTriangleSet solid="false"
							                    normalPerVertex="true"
							                    index="0 1 2 0 2 3 4 5 6 4 6 7 8 9 10 8 10 11 12 13 14 12 14 15 4 16 17 4 17 15 18 19 20 18 20 21 "
							                    >
								<Coordinate point="-0.037137 -0.121849 0.171503 0.195508 0.023904 0.325433 0.092508 0.286683 0.232287 -0.140138 0.140930 0.078356 -0.140138 0.140930 0.078356 0.092508 0.286683 0.232287 0.269782 0.267602 -0.017572 0.037137 0.121849 -0.171503 0.037137 0.121849 -0.171503 0.269782 0.267602 -0.017572 0.372783 0.004823 0.075574 0.140138 -0.140930 -0.078356 0.140138 -0.140930 -0.078356 0.372783 0.004823 0.075574 0.195508 0.023904 0.325433 -0.037137 -0.121849 0.171503 0.037137 0.121849 -0.171503 0.140138 -0.140930 -0.078356 0.269782 0.267602 -0.017572 0.092508 0.286683 0.232287 0.195508 0.023904 0.325433 0.372783 0.004823 0.075574 " />
								<Normal vector="-0.560106 -0.741905 0.368511 0.293374 -0.207190 0.933256 -0.106754 0.813685 0.571368 -0.960265 0.278970 0.006653 -0.960265 0.278970 0.006653 -0.106754 0.813685 0.571368 0.560106 0.741905 -0.368511 -0.293374 0.207190 -0.933256 -0.293374 0.207190 -0.933256 0.560106 0.741905 -0.368511 0.960265 -0.278970 -0.006653 0.106754 -0.813685 -0.571368 0.106754 -0.813685 -0.571368 0.960265 -0.278970 -0.006653 0.293374 -0.207190 0.933256 -0.560106 -0.741905 0.368511 -0.293374 0.207190 -0.933256 0.106754 -0.813685 -0.571368 0.560106 0.741905 -0.368511 -0.106754 0.813685 0.571368 0.293374 -0.207190 0.933256 0.960265 -0.278970 -0.006653 " />
								<TextureCoordinate point="0.0416 0.3649 0.9584 0.3649 0.9584 0.6661 0.0416 0.6661 0.0416 0.3649 0.9584 0.3649 0.9584 0.6661 0.0416 0.6661 0.0416 0.3649 0.9584 0.3649 0.9584 0.6661 0.0416 0.6661 0.0416 0.3649 0.9584 0.3649 0.9584 0.6661 0.0416 0.6661 0.9584 0.3649 0.9584 0.6661 0.0416 0.0254 0.9584 0.0254 0.9584 0.3265 0.0416 0.3265 " />
							</IndexedTriangleSet>
						</Shape>
					</Group>
				</Transform>
			</Transform>
			<Transform DEF="Cube_023_TRANSFORM"
			           translation="0.960638 0.555346 1.254623"
			           scale="1.000000 1.000000 1.000000"
			           rotation="0.000000 1.000000 0.000000 0.000000"
			           >
				<Transform DEF="Cube_023_ifs_TRANSFORM"
				           translation="0.000000 0.000000 0.000000"
				           scale="1.000000 1.000000 1.000000"
				           rotation="0.000000 1.000000 0.000000 0.000000"
				           >
					<Group DEF="group_ME_Cube_025">
						<Shape>
							<Appearance>
								<Material USE="MA_Body" />
							</Appearance>
							<IndexedTriangleSet solid="false"
							                    normalPerVertex="true"
							                    index="0 1 2 0 2 3 4 5 6 4 6 7 8 9 10 8 10 11 12 13 14 12 14 15 4 16 17 4 17 15 18 19 20 18 20 21 "
							                    >
								<Coordinate point="0.046795 -0.149177 -0.017009 0.270502 -0.098989 0.158282 0.131896 0.023387 0.300133 -0.091811 -0.026801 0.124842 -0.091811 -0.026801 0.124842 0.131896 0.023387 0.300133 0.176911 0.199365 0.192300 -0.046795 0.149177 0.017009 -0.046795 0.149177 0.017009 0.176911 0.199365 0.192300 0.315517 0.076989 0.050449 0.091811 0.026801 -0.124842 0.091811 0.026801 -0.124842 0.315517 0.076989 0.050449 0.270502 -0.098989 0.158282 0.046795 -0.149177 -0.017009 -0.046795 0.149177 0.017009 0.091811 0.026801 -0.124842 0.176911 0.199365 0.192300 0.131896 0.023387 0.300133 0.270502 -0.098989 0.158282 0.315517 0.076989 0.050449 " />
								<Normal vector="-0.227149 -0.884548 -0.407361 0.667867 -0.683737 0.293954 -0.018891 -0.077364 0.996796 -0.913938 -0.278176 0.295450 -0.913938 -0.278176 0.295450 -0.018891 -0.077364 0.996796 0.227149 0.884548 0.407361 -0.667867 0.683737 -0.293954 -0.667867 0.683737 -0.293954 0.227149 0.884548 0.407361 0.913938 0.278176 -0.295450 0.018891 0.077364 -0.996796 0.018891 0.077364 -0.996796 0.913938 0.278176 -0.295450 0.667867 -0.683737 0.293954 -0.227149 -0.884548 -0.407361 -0.667867 0.683737 -0.293954 0.018891 0.077364 -0.996796 0.227149 0.884548 0.407361 -0.018891 -0.077364 0.996796 0.667867 -0.683737 0.293954 0.913938 0.278176 -0.295450 " />
								<TextureCoordinate point="0.0416 0.3649 0.9584 0.3649 0.9584 0.6661 0.0416 0.6661 0.0416 0.3649 0.9584 0.3649 0.9584 0.6661 0.0416 0.6661 0.0416 0.3649 0.9584 0.3649 0.9584 0.6661 0.0416 0.6661 0.0416 0.3649 0.9584 0.3649 0.9584 0.6661 0.0416 0.6661 0.9584 0.3649 0.9584 0.6661 0.0416 0.0254 0.9584 0.0254 0.9584 0.3265 0.0416 0.3265 " />
							</IndexedTriangleSet>
						</Shape>
					</Group>
				</Transform>
			</Transform>
			<Transform DEF="Plane_TRANSFORM"
			           translation="0.000000 -2.237512 0.594991"
			           scale="1.000000 1.000000 1.000000"
			           rotation="0.000000 1.000000 0.000000 0.000000"
			           >
				<Transform DEF="Plane_ifs_TRANSFORM"
				           translation="0.000000 0.000000 0.000000"
				           scale="1.000000 1.000000 1.000000"
				           rotation="0.000000 1.000000 0.000000 0.000000"
				           >
					<Group DEF="group_ME_Plane">
						<Shape>
							<Appearance>
								<Material DEF="MA_Eye"
								          diffuseColor="0.800 0.800 0.800"
								          specularColor="0.401 0.401 0.401"
								          emissiveColor="0.000 0.000 0.000"
								          ambientIntensity="0.000"
								          shininess="0.500"
								          transparency="0.0"
								          />
							</Appearance>
							<IndexedTriangleSet solid="false"
							                    normalPerVertex="true"
							                    index="0 1 2 0 2 3 "
							                    >
								<Coordinate point="-0.431557 0.000000 -0.310340 0.431557 0.000000 -0.310340 0.431557 -0.000000 0.310340 -0.431557 -0.000000 0.310340 " />
								<Normal vector="0.000000 -1.000000 0.000000 0.000000 -1.000000 0.000000 0.000000 -1.000000 0.000000 0.000000 -1.000000 0.000000 " />
								<TextureCoordinate point="0.0095 0.1075 0.4983 0.1075 0.4983 0.8432 0.0095 0.8432 " />
							</IndexedTriangleSet>
						</Shape>
					</Group>
				</Transform>
			</Transform>
			<Transform DEF="Cube_024_TRANSFORM"
			           translation="0.760206 0.995510 0.616842"
			           scale="1.000000 1.000000 1.000000"
			           rotation="0.000000 1.000000 0.000000 0.000000"
			           >
				<Transform DEF="Cube_024_ifs_TRANSFORM"
				           translation="0.000000 0.000000 0.000000"
				           scale="1.000000 1.000000 1.000000"
				           rotation="0.000000 1.000000 0.000000 0.000000"
				           >
					<Group DEF="group_ME_Cube_026">
						<Shape>
							<Appearance>
								<Material USE="MA_Body" />
							</Appearance>
							<IndexedTriangleSet solid="false"
							                    normalPerVertex="true"
							                    index="0 1 2 0 2 3 4 5 6 4 6 7 8 9 10 8 10 11 12 13 14 12 14 15 4 16 17 4 17 15 18 19 20 18 20 21 "
							                    >
								<Coordinate point="0.092497 -0.064440 0.181470 0.359477 0.078819 0.096259 0.204842 0.320064 0.017348 -0.062139 0.176805 0.102559 -0.062139 0.176805 0.102559 0.204842 0.320064 0.017348 0.174484 0.207699 -0.266681 -0.092497 0.064440 -0.181470 -0.092497 0.064440 -0.181470 0.174484 0.207699 -0.266681 0.329119 -0.033546 -0.187770 0.062139 -0.176805 -0.102559 0.062139 -0.176805 -0.102559 0.329119 -0.033546 -0.187770 0.359477 0.078819 0.096259 0.092497 -0.064440 0.181470 -0.092497 0.064440 -0.181470 0.062139 -0.176805 -0.102559 0.174484 0.207699 -0.266681 0.204842 0.320064 0.017348 0.359477 0.078819 0.096259 0.329119 -0.033546 -0.187770 " />
								<Normal vector="-0.132237 -0.520035 0.843806 0.847194 0.005493 0.531205 0.246437 0.942747 0.224616 -0.732994 0.417158 0.537248 -0.732994 0.417158 0.537248 0.246437 0.942747 0.224616 0.132237 0.520035 -0.843806 -0.847194 -0.005493 -0.531205 -0.847194 -0.005493 -0.531205 0.132237 0.520035 -0.843806 0.732994 -0.417158 -0.537248 -0.246437 -0.942747 -0.224616 -0.246437 -0.942747 -0.224616 0.732994 -0.417158 -0.537248 0.847194 0.005493 0.531205 -0.132237 -0.520035 0.843806 -0.847194 -0.005493 -0.531205 -0.246437 -0.942747 -0.224616 0.132237 0.520035 -0.843806 0.246437 0.942747 0.224616 0.847194 0.005493 0.531205 0.732994 -0.417158 -0.537248 " />
								<TextureCoordinate point="0.0416 0.3649 0.9584 0.3649 0.9584 0.6661 0.0416 0.6661 0.0416 0.3649 0.9584 0.3649 0.9584 0.6661 0.0416 0.6661 0.0416 0.3649 0.9584 0.3649 0.9584 0.6661 0.0416 0.6661 0.0416 0.3649 0.9584 0.3649 0.9584 0.6661 0.0416 0.6661 0.9584 0.3649 0.9584 0.6661 0.0416 0.0254 0.9584 0.0254 0.9584 0.3265 0.0416 0.3265 " />
							</IndexedTriangleSet>
						</Shape>
					</Group>
				</Transform>
			</Transform>
			<Transform DEF="Cube_025_TRANSFORM"
			           translation="1.175574 0.533509 0.440688"
			           scale="1.000000 1.000000 1.000000"
			           rotation="0.000000 1.000000 0.000000 0.000000"
			           >
				<Transform DEF="Cube_025_ifs_TRANSFORM"
				           translation="0.000000 0.000000 0.000000"
				           scale="1.000000 1.000000 1.000000"
				           rotation="0.000000 1.000000 0.000000 0.000000"
				           >
					<Group DEF="group_ME_Cube_027">
						<Shape>
							<Appearance>
								<Material USE="MA_Body" />
							</Appearance>
							<IndexedTriangleSet solid="false"
							                    normalPerVertex="true"
							                    index="0 1 2 0 2 3 4 5 6 4 6 7 8 9 10 8 10 11 12 13 14 12 14 15 4 16 17 4 17 15 18 19 20 18 20 21 "
							                    >
								<Coordinate point="-0.019217 -0.171809 -0.076664 0.087716 -0.185577 -0.072615 0.099124 -0.018872 0.192935 -0.007809 -0.005105 0.188887 -0.007809 -0.005105 0.188887 0.099124 -0.018872 0.192935 0.126150 0.158042 0.080713 0.019217 0.171809 0.076664 0.019217 0.171809 0.076664 0.126150 0.158042 0.080713 0.114742 -0.008663 -0.184838 0.007809 0.005105 -0.188887 0.007809 0.005105 -0.188887 0.114742 -0.008663 -0.184838 0.087716 -0.185577 -0.072615 -0.019217 -0.171809 -0.076664 0.019217 0.171809 0.076664 0.007809 0.005105 -0.188887 0.126150 0.158042 0.080713 0.099124 -0.018872 0.192935 0.087716 -0.185577 -0.072615 0.114742 -0.008663 -0.184838 " />
								<Normal vector="-0.667074 -0.716605 -0.203589 0.477340 -0.863948 -0.160253 0.519333 -0.250435 0.817042 -0.625080 -0.103092 0.773705 -0.625080 -0.103092 0.773705 0.519333 -0.250435 0.817042 0.667074 0.716605 0.203589 -0.477340 0.863948 0.160253 -0.477340 0.863948 0.160253 0.667074 0.716605 0.203589 0.625080 0.103092 -0.773705 -0.519333 0.250435 -0.817042 -0.519333 0.250435 -0.817042 0.625080 0.103092 -0.773705 0.477340 -0.863948 -0.160253 -0.667074 -0.716605 -0.203589 -0.477340 0.863948 0.160253 -0.519333 0.250435 -0.817042 0.667074 0.716605 0.203589 0.519333 -0.250435 0.817042 0.477340 -0.863948 -0.160253 0.625080 0.103092 -0.773705 " />
								<TextureCoordinate point="0.0416 0.3649 0.9584 0.3649 0.9584 0.6661 0.0416 0.6661 0.0416 0.3649 0.9584 0.3649 0.9584 0.6661 0.0416 0.6661 0.0416 0.3649 0.9584 0.3649 0.9584 0.6661 0.0416 0.6661 0.0416 0.3649 0.9584 0.3649 0.9584 0.6661 0.0416 0.6661 0.9584 0.3649 0.9584 0.6661 0.0416 0.0254 0.9584 0.0254 0.9584 0.3265 0.0416 0.3265 " />
							</IndexedTriangleSet>
						</Shape>
					</Group>
				</Transform>
			</Transform>
			<Transform DEF="Cube_026_TRANSFORM"
			           translation="1.165346 0.061979 0.204655"
			           scale="1.000000 1.000000 1.000000"
			           rotation="0.000000 1.000000 0.000000 0.000000"
			           >
				<Transform DEF="Cube_026_ifs_TRANSFORM"
				           translation="0.000000 0.000000 0.000000"
				           scale="1.000000 1.000000 1.000000"
				           rotation="0.000000 1.000000 0.000000 0.000000"
				           >
					<Group DEF="group_ME_Cube_028">
						<Shape>
							<Appearance>
								<Material USE="MA_Body" />
							</Appearance>
							<IndexedTriangleSet solid="false"
							                    normalPerVertex="true"
							                    index="0 1 2 0 2 3 4 5 6 4 6 7 8 9 10 8 10 11 12 13 14 12 14 15 4 16 17 4 17 15 18 19 20 18 20 21 "
							                    >
								<Coordinate point="-0.023457 -0.188539 -0.127767 0.114560 -0.206967 -0.125912 0.128280 -0.068890 0.224970 -0.009737 -0.050462 0.223115 -0.009737 -0.050462 0.223115 0.128280 -0.068890 0.224970 0.161474 0.170110 0.129622 0.023457 0.188539 0.127767 0.023457 0.188539 0.127767 0.161474 0.170110 0.129622 0.147754 0.032033 -0.221260 0.009737 0.050462 -0.223115 0.009737 0.050462 -0.223115 0.147754 0.032033 -0.221260 0.114560 -0.206967 -0.125912 -0.023457 -0.188539 -0.127767 0.023457 0.188539 0.127767 0.009737 0.050462 -0.223115 0.161474 0.170110 0.129622 0.128280 -0.068890 0.224970 0.114560 -0.206967 -0.125912 0.147754 0.032033 -0.221260 " />
								<Normal vector="-0.667074 -0.666707 -0.332408 0.477340 -0.819514 -0.316996 0.519333 -0.396954 0.756737 -0.625080 -0.244148 0.741356 -0.625080 -0.244148 0.741356 0.519333 -0.396954 0.756737 0.667074 0.666707 0.332408 -0.477340 0.819514 0.316996 -0.477340 0.819514 0.316996 0.667074 0.666707 0.332408 0.625080 0.244148 -0.741356 -0.519333 0.396954 -0.756737 -0.519333 0.396954 -0.756737 0.625080 0.244148 -0.741356 0.477340 -0.819514 -0.316996 -0.667074 -0.666707 -0.332408 -0.477340 0.819514 0.316996 -0.519333 0.396954 -0.756737 0.667074 0.666707 0.332408 0.519333 -0.396954 0.756737 0.477340 -0.819514 -0.316996 0.625080 0.244148 -0.741356 " />
								<TextureCoordinate point="0.0416 0.3649 0.9584 0.3649 0.9584 0.6661 0.0416 0.6661 0.0416 0.3649 0.9584 0.3649 0.9584 0.6661 0.0416 0.6661 0.0416 0.3649 0.9584 0.3649 0.9584 0.6661 0.0416 0.6661 0.0416 0.3649 0.9584 0.3649 0.9584 0.6661 0.0416 0.6661 0.9584 0.3649 0.9584 0.6661 0.0416 0.0254 0.9584 0.0254 0.9584 0.3265 0.0416 0.3265 " />
							</IndexedTriangleSet>
						</Shape>
					</Group>
				</Transform>
			</Transform>
			<Transform DEF="Cube_027_TRANSFORM"
			           translation="-0.802742 0.557088 0.482418"
			           scale="1.000000 1.000000 1.000000"
			           rotation="0.000000 1.000000 0.000000 0.000000"
			           >
				<Transform DEF="Cube_027_ifs_TRANSFORM"
				           translation="0.000000 0.000000 0.000000"
				           scale="1.000000 1.000000 1.000000"
				           rotation="0.000000 1.000000 0.000000 0.000000"
				           >
					<Group DEF="group_ME_Cube_029">
						<Shape>
							<Appearance>
								<Material USE="MA_Body" />
							</Appearance>
							<IndexedTriangleSet solid="false"
							                    normalPerVertex="true"
							                    index="0 1 2 0 2 3 4 5 6 4 6 7 8 9 10 8 10 11 12 13 14 12 14 15 4 16 17 4 17 15 18 19 20 18 20 21 "
							                    >
								<Coordinate point="-0.181995 -0.257783 -0.195560 -0.586093 0.010891 -0.173651 -0.268941 0.493384 -0.240875 0.135157 0.224711 -0.262784 0.135157 0.224711 -0.262784 -0.268941 0.493384 -0.240875 -0.222104 0.526456 0.217468 0.181995 0.257783 0.195560 0.181995 0.257783 0.195560 -0.222104 0.526456 0.217468 -0.539255 0.043963 0.284692 -0.135157 -0.224711 0.262784 -0.135157 -0.224711 0.262784 -0.539255 0.043963 0.284692 -0.586093 0.010891 -0.173651 -0.181995 -0.257783 -0.195560 0.181995 0.257783 0.195560 -0.135157 -0.224711 0.262784 -0.222104 0.526456 0.217468 -0.268941 0.493384 -0.240875 -0.586093 0.010891 -0.173651 -0.539255 0.043963 0.284692 " />
								<Normal vector="0.106723 -0.839869 -0.532151 -0.853816 -0.201209 -0.480056 -0.223823 0.757195 -0.613605 0.736747 0.118534 -0.665670 0.736747 0.118534 -0.665670 -0.223823 0.757195 -0.613605 -0.106723 0.839869 0.532151 0.853816 0.201209 0.480056 0.853816 0.201209 0.480056 -0.106723 0.839869 0.532151 -0.736747 -0.118534 0.665670 0.223823 -0.757195 0.613605 0.223823 -0.757195 0.613605 -0.736747 -0.118534 0.665670 -0.853816 -0.201209 -0.480056 0.106723 -0.839869 -0.532151 0.853816 0.201209 0.480056 0.223823 -0.757195 0.613605 -0.106723 0.839869 0.532151 -0.223823 0.757195 -0.613605 -0.853816 -0.201209 -0.480056 -0.736747 -0.118534 0.665670 " />
								<TextureCoordinate point="0.0416 0.3649 0.9584 0.3649 0.9584 0.6661 0.0416 0.6661 0.0416 0.3649 0.9584 0.3649 0.9584 0.6661 0.0416 0.6661 0.0416 0.3649 0.9584 0.3649 0.9584 0.6661 0.0416 0.6661 0.0416 0.3649 0.9584 0.3649 0.9584 0.6661 0.0416 0.6661 0.9584 0.3649 0.9584 0.6661 0.0416 0.0254 0.9584 0.0254 0.9584 0.3265 0.0416 0.3265 " />
							</IndexedTriangleSet>
						</Shape>
					</Group>
				</Transform>
			</Transform>
			<Transform DEF="Cube_028_TRANSFORM"
			           translation="-0.878889 -0.864609 0.559816"
			           scale="1.000000 1.000000 1.000000"
			           rotation="0.000000 1.000000 0.000000 0.000000"
			           >
				<Transform DEF="Cube_028_ifs_TRANSFORM"
				           translation="0.000000 0.000000 0.000000"
				           scale="1.000000 1.000000 1.000000"
				           rotation="0.000000 1.000000 0.000000 0.000000"
				           >
					<Group DEF="group_ME_Cube_007">
						<Shape>
							<Appearance>
								<Material USE="MA_Body" />
							</Appearance>
							<IndexedTriangleSet solid="false"
							                    normalPerVertex="true"
							                    index="0 1 2 0 2 3 4 5 6 4 6 7 8 9 10 8 10 11 12 13 14 12 14 15 4 13 16 4 16 17 18 19 14 18 14 7 "
							                    >
								<Coordinate point="0.288807 -0.292326 -0.225717 -0.105977 0.139157 -0.434990 -0.288807 0.292326 0.225717 0.105977 -0.139157 0.434990 -0.105977 0.139157 -0.434990 -0.553761 -0.283156 -0.460997 -0.736591 -0.129987 0.199710 -0.288807 0.292326 0.225717 -0.553761 -0.283156 -0.460997 -0.158977 -0.714638 -0.251724 -0.341807 -0.561469 0.408982 -0.736591 -0.129987 0.199710 -0.158977 -0.714638 -0.251724 0.288807 -0.292326 -0.225717 0.105977 -0.139157 0.434990 -0.341807 -0.561469 0.408982 -0.158977 -0.714638 -0.251724 -0.553761 -0.283156 -0.460997 -0.736591 -0.129987 0.199710 -0.341807 -0.561469 0.408982 " />
								<Normal vector="0.936857 -0.131169 -0.324137 0.202948 0.670919 -0.713187 -0.097568 0.922697 0.372906 0.636311 0.120609 0.761925 0.202948 0.670919 -0.713187 -0.636311 -0.120609 -0.761925 -0.936857 0.131169 0.324137 -0.097568 0.922697 0.372906 -0.636311 -0.120609 -0.761925 0.097568 -0.922697 -0.372906 -0.202948 -0.670919 0.713187 -0.936857 0.131169 0.324137 0.097568 -0.922697 -0.372906 0.936857 -0.131169 -0.324137 0.636311 0.120609 0.761925 -0.202948 -0.670919 0.713187 0.097568 -0.922697 -0.372906 -0.636311 -0.120609 -0.761925 -0.936857 0.131169 0.324137 -0.202948 -0.670919 0.713187 " />
								<TextureCoordinate point="0.0416 0.7145 0.0416 0.9738 0.9584 0.9738 0.9584 0.7145 0.0416 0.7145 0.0416 0.9738 0.9584 0.9738 0.9584 0.7145 0.0416 0.7145 0.0416 0.9738 0.9584 0.9738 0.9584 0.7145 0.0416 0.7145 0.0416 0.9738 0.9584 0.9738 0.9584 0.7145 0.9584 0.9738 0.9584 0.7145 0.0416 0.7145 0.0416 0.9738 " />
							</IndexedTriangleSet>
						</Shape>
					</Group>
				</Transform>
			</Transform>
			<Transform DEF="Cube_029_TRANSFORM"
			           translation="-1.167470 -0.218161 0.513574"
			           scale="1.000000 1.000000 1.000000"
			           rotation="0.000000 1.000000 0.000000 0.000000"
			           >
				<Transform DEF="Cube_029_ifs_TRANSFORM"
				           translation="0.000000 0.000000 0.000000"
				           scale="1.000000 1.000000 1.000000"
				           rotation="0.000000 1.000000 0.000000 0.000000"
				           >
					<Group DEF="group_ME_Cube_030">
						<Shape>
							<Appearance>
								<Material USE="MA_Body" />
							</Appearance>
							<IndexedTriangleSet solid="false"
							                    normalPerVertex="true"
							                    index="0 1 2 0 2 3 4 5 6 4 6 7 8 9 10 8 10 11 12 13 14 12 14 15 4 13 16 4 16 17 18 19 14 18 14 7 "
							                    >
								<Coordinate point="-0.019043 -0.088231 -0.342027 -0.058326 0.340946 -0.074050 0.019043 0.088231 0.342027 0.058326 -0.340946 0.074050 -0.058326 0.340946 -0.074050 -0.557823 0.265750 -0.026842 -0.480454 0.013034 0.389235 0.019043 0.088231 0.342027 -0.557823 0.265750 -0.026842 -0.518540 -0.163427 -0.294819 -0.441171 -0.416143 0.121258 -0.480454 0.013034 0.389235 -0.518540 -0.163427 -0.294819 -0.019043 -0.088231 -0.342027 0.058326 -0.340946 0.074050 -0.441171 -0.416143 0.121258 -0.518540 -0.163427 -0.294819 -0.557823 0.265750 -0.026842 -0.480454 0.013034 0.389235 -0.441171 -0.416143 0.121258 " />
								<Normal vector="0.522507 -0.106662 -0.845912 0.433119 0.869808 -0.236183 0.614368 0.277810 0.738456 0.703726 -0.698660 0.128727 0.433119 0.869808 -0.236183 -0.703726 0.698660 -0.128727 -0.522507 0.106662 0.845912 0.614368 0.277810 0.738456 -0.703726 0.698660 -0.128727 -0.614368 -0.277810 -0.738456 -0.433119 -0.869808 0.236183 -0.522507 0.106662 0.845912 -0.614368 -0.277810 -0.738456 0.522507 -0.106662 -0.845912 0.703726 -0.698660 0.128727 -0.433119 -0.869808 0.236183 -0.614368 -0.277810 -0.738456 -0.703726 0.698660 -0.128727 -0.522507 0.106662 0.845912 -0.433119 -0.869808 0.236183 " />
								<TextureCoordinate point="0.0416 0.7145 0.0416 0.9738 0.9584 0.9738 0.9584 0.7145 0.0416 0.7145 0.0416 0.9738 0.9584 0.9738 0.9584 0.7145 0.0416 0.7145 0.0416 0.9738 0.9584 0.9738 0.9584 0.7145 0.0416 0.7145 0.0416 0.9738 0.9584 0.9738 0.9584 0.7145 0.9584 0.9738 0.9584 0.7145 0.0416 0.7145 0.0416 0.9738 " />
							</IndexedTriangleSet>
						</Shape>
					</Group>
				</Transform>
			</Transform>
			<Transform DEF="Cube_030_TRANSFORM"
			           translation="-0.555868 -0.094902 0.193172"
			           scale="1.000000 1.000000 1.000000"
			           rotation="0.000000 1.000000 0.000000 0.000000"
			           >
				<Transform DEF="Cube_030_ifs_TRANSFORM"
				           translation="0.000000 0.000000 0.000000"
				           scale="1.000000 1.000000 1.000000"
				           rotation="0.000000 1.000000 0.000000 0.000000"
				           >
					<Group DEF="group_ME_Cube_031">
						<Shape>
							<Appearance>
								<Material USE="MA_Body" />
							</Appearance>
							<IndexedTriangleSet solid="false"
							                    normalPerVertex="true"
							                    index="0 1 2 0 2 3 4 5 6 4 6 7 8 9 10 8 10 11 12 13 14 12 14 15 4 13 16 4 16 17 18 19 14 18 14 7 "
							                    >
								<Coordinate point="0.176379 -0.571433 -0.493075 0.176379 0.571433 -0.493075 0.176379 0.571433 0.000000 0.176379 -0.571433 -0.000000 0.176379 0.571433 -0.493075 -0.176379 0.571433 -0.493075 -0.176379 0.571433 0.000000 0.176379 0.571433 0.000000 -0.176379 0.571433 -0.493075 -0.176379 -0.571433 -0.493075 -0.176379 -0.571433 -0.000000 -0.176379 0.571433 0.000000 -0.176379 -0.571433 -0.493075 0.176379 -0.571433 -0.493075 0.176379 -0.571433 -0.000000 -0.176379 -0.571433 -0.000000 -0.176379 -0.571433 -0.493075 -0.176379 0.571433 -0.493075 -0.176379 0.571433 0.000000 -0.176379 -0.571433 -0.000000 " />
								<Normal vector="0.577349 -0.577349 -0.577349 0.577349 0.577349 -0.577349 0.577349 0.577349 0.577349 0.577349 -0.577349 0.577349 0.577349 0.577349 -0.577349 -0.577349 0.577349 -0.577349 -0.577349 0.577349 0.577349 0.577349 0.577349 0.577349 -0.577349 0.577349 -0.577349 -0.577349 -0.577349 -0.577349 -0.577349 -0.577349 0.577349 -0.577349 0.577349 0.577349 -0.577349 -0.577349 -0.577349 0.577349 -0.577349 -0.577349 0.577349 -0.577349 0.577349 -0.577349 -0.577349 0.577349 -0.577349 -0.577349 -0.577349 -0.577349 0.577349 -0.577349 -0.577349 0.577349 0.577349 -0.577349 -0.577349 0.577349 " />
								<TextureCoordinate point="0.0416 0.3649 0.0416 0.6661 0.9584 0.6661 0.9584 0.3649 0.0416 0.3649 0.0416 0.6661 0.9584 0.6661 0.9584 0.3649 0.0416 0.3649 0.0416 0.6661 0.9584 0.6661 0.9584 0.3649 0.0416 0.3649 0.0416 0.6661 0.9584 0.6661 0.9584 0.3649 0.9584 0.6661 0.9584 0.3649 0.0416 0.3649 0.0416 0.6661 " />
							</IndexedTriangleSet>
						</Shape>
					</Group>
				</Transform>
			</Transform>
		</Transform>
	</Scene>
</X3D>