<?xml version="1.0" encoding="UTF-8"?>
<!DOCTYPE X3D PUBLIC "ISO//Web3D//DTD X3D 3.0//EN" "http://www.web3d.org/specifications/x3d-3.0.dtd">
<X3D version="3.0" profile="Immersive" xmlns:xsd="http://www.w3.org/2001/XMLSchema-instance" xsd:noNamespaceSchemaLocation="http://www.web3d.org/specifications/x3d-3.0.xsd">
	<head>
		<meta name="filename" content="rotom.x3d" />
		<meta name="generator" content="Blender 2.93.18" />
	</head>
	<Scene>
		<NavigationInfo headlight="true"
		                visibilityLimit="0.0"
		                type='"EXAMINE", "ANY"'
		                avatarSize="0.25, 1.75, 0.75"
		                />
		<Background DEF="WO_World"
		            groundColor="0.051 0.051 0.051"
		            skyColor="0.051 0.051 0.051"
		            />
		<Transform DEF="body_TRANSFORM"
		           translation="0.000000 0.000000 0.610136"
		           scale="1.000000 1.000000 1.000000"
		           rotation="0.000000 0.000000 1.000000 3.141593"
		           >
			<Transform DEF="body_ifs_TRANSFORM"
			           translation="0.000000 0.000000 0.000000"
			           scale="1.000000 1.000000 1.000000"
			           rotation="0.000000 1.000000 0.000000 0.000000"
			           >
				<Group DEF="group_ME_body">
					<Shape>
						<Appearance>
							<Material DEF="MA_Body"
							          diffuseColor="0.800 0.800 0.800"
							          specularColor="0.401 0.401 0.401"
							          emissiveColor="0.000 0.000 0.000"
							          ambientIntensity="0.000"
							          shininess="0.500"
							          transparency="0.0"
							          />
						</Appearance>
						<IndexedTriangleSet solid="false"
						                    normalPerVertex="true"
						                    index="0 1 2 0 2 3 4 5 6 4 6 7 8 9 10 8 10 11 12 13 14 12 14 15 4 16 17 4 17 15 18 5 14 18 14 19 "
						                    >
							<Coordinate point="-0.184157 -0.181657 0.000000 -0.184157 -0.181657 0.267375 -0.184157 0.181657 0.267375 -0.184157 0.181657 0.000000 -0.184157 0.181657 0.000000 -0.184157 0.181657 0.267375 0.184157 0.181657 0.267375 0.184157 0.181657 0.000000 0.184157 0.181657 0.000000 0.184157 0.181657 0.267375 0.184157 -0.181657 0.267375 0.184157 -0.181657 0.000000 0.184157 -0.181657 0.000000 0.184157 -0.181657 0.267375 -0.184157 -0.181657 0.267375 -0.184157 -0.181657 0.000000 0.184157 0.181657 0.000000 0.184157 -0.181657 0.000000 0.184157 0.181657 0.267375 0.184157 -0.181657 0.267375 " />
							<Normal vector="-0.577349 -0.577349 -0.577349 -0.577349 -0.577349 0.577349 -0.577349 0.577349 0.577349 -0.577349 0.577349 -0.577349 -0.577349 0.577349 -0.577349 -0.577349 0.577349 0.577349 0.577349 0.577349 0.577349 0.577349 0.577349 -0.577349 0.577349 0.577349 -0.577349 0.577349 0.577349 0.577349 0.577349 -0.577349 0.577349 0.577349 -0.577349 -0.577349 0.577349 -0.577349 -0.577349 0.577349 -0.577349 0.577349 -0.577349 -0.577349 0.577349 -0.577349 -0.577349 -0.577349 0.577349 0.577349 -0.577349 0.577349 -0.577349 -0.577349 0.577349 0.577349 0.577349 0.577349 -0.577349 0.577349 " />
							<TextureCoordinate point="0.7828 0.5433 0.9653 0.5433 0.9653 0.9587 0.7828 0.9587 0.7828 0.5433 0.9653 0.5433 0.9653 0.9587 0.7828 0.9587 0.7828 0.5433 0.9653 0.5433 0.9653 0.9587 0.7828 0.9587 0.7828 0.5433 0.9653 0.5433 0.9653 0.9587 0.7828 0.9587 0.9653 0.5433 0.9653 0.9587 0.7828 0.5433 0.7828 0.9587 " />
						</IndexedTriangleSet>
					</Shape>
				</Group>
			</Transform>
			<Transform DEF="Cube_001_TRANSFORM"
			           translation="0.000000 0.000000 0.269412"
			           scale="1.000000 1.000000 1.000000"
			           rotation="0.000000 1.000000 0.000000 0.000000"
			           >
				<Transform DEF="Cube_001_ifs_TRANSFORM"
				           translation="0.000000 0.000000 0.000000"
				           scale="1.000000 1.000000 1.000000"
				           rotation="0.000000 1.000000 0.000000 0.000000"
				           >
					<Group DEF="group_ME_Cube_004">
						<Shape>
							<Appearance>
								<Material USE="MA_Body" />
							</Appearance>
							<IndexedTriangleSet solid="false"
							                    normalPerVertex="true"
							                    index="0 1 2 0 2 3 4 5 6 4 6 7 8 9 10 8 10 11 12 13 14 12 14 15 16 17 18 16 18 19 20 21 14 20 14 22 23 24 25 23 25 26 27 20 22 27 22 28 29 30 31 29 31 32 33 16 19 33 19 34 35 36 37 35 37 38 39 40 13 39 13 12 41 21 42 41 42 43 44 45 5 44 5 4 43 42 46 43 46 47 47 46 45 47 45 44 38 37 48 38 48 49 49 48 40 49 40 39 30 50 51 30 51 31 50 33 34 50 34 51 24 52 53 24 53 25 52 27 28 52 28 53 54 55 56 54 56 57 58 59 60 58 60 61 62 63 59 62 59 58 61 60 64 61 64 65 66 67 63 66 63 62 68 69 70 68 70 71 72 73 55 72 55 54 71 70 74 71 74 75 76 77 78 76 78 79 65 64 80 65 80 81 82 83 84 82 84 85 86 82 85 86 85 87 88 65 81 88 81 89 90 76 79 90 79 91 92 71 75 92 75 32 93 72 54 93 54 94 95 68 71 95 71 92 29 66 62 29 62 96 97 61 65 97 65 88 96 62 58 96 58 98 98 58 61 98 61 97 94 54 57 94 57 99 99 57 68 99 68 95 56 49 39 56 39 69 100 101 102 100 102 103 59 47 44 59 44 60 63 43 47 63 47 59 60 44 4 60 4 64 67 41 43 67 43 63 104 105 106 104 106 107 73 35 38 73 38 55 70 12 15 70 15 74 77 8 11 77 11 78 64 4 7 64 7 80 83 0 3 83 3 84 "
							                    >
								<Coordinate point="-0.521208 -0.507131 0.718570 -0.521208 -0.507131 0.850053 -0.521208 0.507131 0.850053 -0.521208 0.507131 0.718570 0.447275 0.507131 0.718570 0.447275 0.507131 0.850053 0.521208 0.507131 0.850053 0.521208 0.507131 0.718570 0.521208 0.507131 0.718570 0.521208 0.507131 0.850053 0.521208 -0.507131 0.850053 0.521208 -0.507131 0.718570 -0.447275 -0.507131 0.718570 -0.447275 -0.507131 0.850053 -0.521208 -0.507131 0.850053 -0.521208 -0.507131 0.718570 0.447275 0.507131 0.000000 0.521208 0.507131 0.000000 0.521208 -0.507131 0.000000 0.447275 -0.507131 0.000000 -0.447275 0.507131 0.850053 -0.521208 0.507131 0.850053 -0.447275 -0.507131 0.850053 0.521208 0.507131 0.850053 0.447275 0.507131 0.850053 0.447275 -0.507131 0.850053 0.521208 -0.507131 0.850053 -0.146640 0.507131 0.850053 -0.146640 -0.507131 0.850053 -0.521208 0.507131 0.000000 -0.447275 0.507131 0.000000 -0.447275 -0.507131 0.000000 -0.521208 -0.507131 0.000000 0.146640 0.507131 0.000000 0.146640 -0.507131 0.000000 0.521208 -0.507131 0.718570 0.521208 -0.507131 0.850053 0.447275 -0.507131 0.850053 0.447275 -0.507131 0.718570 -0.146640 -0.507131 0.718570 -0.146640 -0.507131 0.850053 -0.521208 0.507131 0.718570 -0.447275 0.507131 0.850053 -0.447275 0.507131 0.718570 0.146640 0.507131 0.718570 0.146640 0.507131 0.850053 -0.146640 0.507131 0.850053 -0.146640 0.507131 0.718570 0.146640 -0.507131 0.850053 0.146640 -0.507131 0.718570 -0.146640 0.507131 0.000000 -0.146640 -0.507131 0.000000 0.146640 0.507131 0.850053 0.146640 -0.507131 0.850053 0.447275 -0.507131 0.119252 0.447275 -0.507131 0.299659 0.146640 -0.507131 0.299659 0.146640 -0.507131 0.119252 -0.146640 0.507131 0.119252 -0.146640 0.507131 0.299659 0.146640 0.507131 0.299659 0.146640 0.507131 0.119252 -0.447275 0.507131 0.119252 -0.447275 0.507131 0.299659 0.447275 0.507131 0.299659 0.447275 0.507131 0.119252 -0.521208 0.507131 0.119252 -0.521208 0.507131 0.299659 -0.146640 -0.507131 0.119252 -0.146640 -0.507131 0.299659 -0.447275 -0.507131 0.299659 -0.447275 -0.507131 0.119252 0.521208 -0.507131 0.119252 0.521208 -0.507131 0.299659 -0.521208 -0.507131 0.299659 -0.521208 -0.507131 0.119252 0.521208 0.507131 0.119252 0.521208 0.507131 0.299659 0.521208 -0.507131 0.299659 0.521208 -0.507131 0.119252 0.521208 0.507131 0.299659 0.521208 0.507131 0.119252 -0.521208 -0.507131 0.119252 -0.521208 -0.507131 0.299659 -0.521208 0.507131 0.299659 -0.521208 0.507131 0.119252 -0.521208 -0.507131 0.000000 -0.521208 0.507131 0.000000 0.447275 0.507131 0.000000 0.521208 0.507131 0.000000 0.521208 0.507131 0.000000 0.521208 -0.507131 0.000000 -0.447275 -0.507131 0.000000 0.521208 -0.507131 0.000000 0.447275 -0.507131 0.000000 -0.146640 -0.507131 0.000000 -0.447275 0.507131 0.000000 0.146640 0.507131 0.000000 -0.146640 0.507131 0.000000 0.146640 -0.507131 0.000000 0.447275 -0.507131 0.299659 0.447275 -0.507131 0.718570 0.146640 -0.507131 0.718570 0.146640 -0.507131 0.299659 -0.146640 -0.507131 0.299659 -0.146640 -0.507131 0.718570 -0.447275 -0.507131 0.718570 -0.447275 -0.507131 0.299659 " />
								<Normal vector="-0.707083 -0.707083 0.000000 -0.577349 -0.577349 0.577349 -0.577349 0.577349 0.577349 -0.707083 0.707083 0.000000 0.000000 1.000000 0.000000 0.000000 0.707083 0.707083 0.577349 0.577349 0.577349 0.707083 0.707083 0.000000 0.707083 0.707083 0.000000 0.577349 0.577349 0.577349 0.577349 -0.577349 0.577349 0.707083 -0.707083 0.000000 0.000000 -1.000000 0.000000 0.000000 -0.707083 0.707083 -0.577349 -0.577349 0.577349 -0.707083 -0.707083 0.000000 0.000000 0.707083 -0.707083 0.577349 0.577349 -0.577349 0.577349 -0.577349 -0.577349 0.000000 -0.707083 -0.707083 0.000000 0.707083 0.707083 -0.577349 0.577349 0.577349 0.000000 -0.707083 0.707083 0.577349 0.577349 0.577349 0.000000 0.707083 0.707083 0.000000 -0.707083 0.707083 0.577349 -0.577349 0.577349 0.000000 0.707083 0.707083 0.000000 -0.707083 0.707083 -0.577349 0.577349 -0.577349 0.000000 0.707083 -0.707083 0.000000 -0.707083 -0.707083 -0.577349 -0.577349 -0.577349 0.000000 0.707083 -0.707083 0.000000 -0.707083 -0.707083 0.707083 -0.707083 0.000000 0.577349 -0.577349 0.577349 0.000000 -0.707083 0.707083 0.000000 -1.000000 0.000000 0.000000 -1.000000 0.000000 0.000000 -0.707083 0.707083 -0.707083 0.707083 0.000000 0.000000 0.707083 0.707083 0.000000 1.000000 0.000000 0.000000 1.000000 0.000000 0.000000 0.707083 0.707083 0.000000 0.707083 0.707083 0.000000 1.000000 0.000000 0.000000 -0.707083 0.707083 0.000000 -1.000000 0.000000 0.000000 0.707083 -0.707083 0.000000 -0.707083 -0.707083 0.000000 0.707083 0.707083 0.000000 -0.707083 0.707083 0.000000 -1.000000 0.000000 0.000000 -1.000000 0.000000 0.000000 -1.000000 0.000000 0.000000 -1.000000 0.000000 0.000000 1.000000 0.000000 0.000000 1.000000 0.000000 0.000000 1.000000 0.000000 0.000000 1.000000 0.000000 0.000000 1.000000 0.000000 0.000000 1.000000 0.000000 0.000000 1.000000 0.000000 0.000000 1.000000 0.000000 -0.707083 0.707083 0.000000 -0.707083 0.707083 0.000000 0.000000 -1.000000 0.000000 0.000000 -1.000000 0.000000 0.000000 -1.000000 0.000000 0.000000 -1.000000 0.000000 0.707083 -0.707083 0.000000 0.707083 -0.707083 0.000000 -0.707083 -0.707083 0.000000 -0.707083 -0.707083 0.000000 0.707083 0.707083 0.000000 0.707083 0.707083 0.000000 0.707083 -0.707083 0.000000 0.707083 -0.707083 0.000000 0.707083 0.707083 0.000000 0.707083 0.707083 0.000000 -0.707083 -0.707083 0.000000 -0.707083 -0.707083 0.000000 -0.707083 0.707083 0.000000 -0.707083 0.707083 0.000000 -0.577349 -0.577349 -0.577349 -0.577349 0.577349 -0.577349 0.000000 0.707083 -0.707083 0.577349 0.577349 -0.577349 0.577349 0.577349 -0.577349 0.577349 -0.577349 -0.577349 0.000000 -0.707083 -0.707083 0.577349 -0.577349 -0.577349 0.000000 -0.707083 -0.707083 0.000000 -0.707083 -0.707083 0.000000 0.707083 -0.707083 0.000000 0.707083 -0.707083 0.000000 0.707083 -0.707083 0.000000 -0.707083 -0.707083 0.000000 -1.000000 0.000000 0.000000 -1.000000 0.000000 0.000000 -1.000000 0.000000 0.000000 -1.000000 0.000000 0.000000 -1.000000 0.000000 0.000000 -1.000000 0.000000 0.000000 -1.000000 0.000000 0.000000 -1.000000 0.000000 " />
								<TextureCoordinate point="0.9197 0.5433 0.9653 0.5433 0.9653 0.9587 0.9197 0.9587 0.9197 0.8202 0.9653 0.8202 0.9653 0.9587 0.9197 0.9587 0.9197 0.5433 0.9653 0.5433 0.9653 0.9587 0.9197 0.9587 0.9197 0.8202 0.9653 0.8202 0.9653 0.9587 0.9197 0.9587 0.9044 0.5433 0.9653 0.5433 0.9653 0.9587 0.9044 0.9587 0.9044 0.5433 0.9653 0.5433 0.9044 0.9587 0.7828 0.5433 0.8436 0.5433 0.8436 0.9587 0.7828 0.9587 0.8842 0.5433 0.8842 0.9587 0.7828 0.5433 0.8436 0.5433 0.8436 0.9587 0.7828 0.9587 0.8842 0.5433 0.8842 0.9587 0.9197 0.5433 0.9653 0.5433 0.9653 0.6818 0.9197 0.6818 0.9197 0.7741 0.9653 0.7741 0.9197 0.5433 0.9653 0.6818 0.9197 0.6818 0.9197 0.7741 0.9653 0.7741 0.9653 0.7279 0.9197 0.7279 0.9653 0.7279 0.9197 0.7279 0.8639 0.5433 0.8639 0.9587 0.8639 0.5433 0.8639 0.9587 0.8284 0.6818 0.8740 0.6818 0.8740 0.7279 0.8284 0.7279 0.8284 0.7279 0.8740 0.7279 0.8740 0.7741 0.8284 0.7741 0.8284 0.6818 0.8740 0.6818 0.8740 0.8202 0.8284 0.8202 0.8284 0.5433 0.8740 0.5433 0.8284 0.7741 0.8740 0.7741 0.8740 0.8202 0.8284 0.8202 0.8284 0.5433 0.8740 0.5433 0.8740 0.9587 0.8284 0.9587 0.8284 0.5433 0.8740 0.5433 0.8740 0.9587 0.8284 0.9587 0.8740 0.9587 0.8284 0.9587 0.8284 0.5433 0.8740 0.5433 0.8740 0.9587 0.8284 0.9587 0.7828 0.5433 0.7828 0.9587 0.7828 0.8202 0.7828 0.9587 0.7828 0.5433 0.7828 0.9587 0.7828 0.8202 0.7828 0.5433 0.7828 0.6818 0.7828 0.7741 0.7828 0.6818 0.7828 0.7741 0.7828 0.7279 0.7828 0.7279 0.0870 0.9970 0.0870 0.5099 0.4159 0.5099 0.4159 0.9970 0.4159 0.9970 0.4159 0.5099 0.0870 0.5099 0.0870 0.9970 " />
							</IndexedTriangleSet>
						</Shape>
						<Shape>
							<Appearance>
								<Material DEF="MA_Mouth"
								          diffuseColor="0.800 0.800 0.800"
								          specularColor="0.401 0.401 0.401"
								          emissiveColor="0.000 0.000 0.000"
								          ambientIntensity="0.000"
								          shininess="0.500"
								          transparency="0.0"
								          />
							</Appearance>
							<IndexedTriangleSet solid="false"
							                    normalPerVertex="true"
							                    index="0 1 2 0 2 3 "
							                    >
								<Coordinate point="0.146640 -0.507131 0.119252 0.146640 -0.507131 0.299659 -0.146640 -0.507131 0.299659 -0.146640 -0.507131 0.119252 " />
								<Normal vector="0.000000 -1.000000 0.000000 0.000000 -1.000000 0.000000 0.000000 -1.000000 0.000000 0.000000 -1.000000 0.000000 " />
								<TextureCoordinate point="0.9840 0.5288 0.9840 0.8600 0.0160 0.8600 0.0160 0.5288 " />
							</IndexedTriangleSet>
						</Shape>
					</Group>
				</Transform>
			</Transform>
			<Transform DEF="Cube_002_TRANSFORM"
			           translation="0.000000 0.000000 1.105256"
			           scale="1.000000 1.000000 1.000000"
			           rotation="0.000000 1.000000 0.000000 0.000000"
			           >
				<Transform DEF="Cube_002_ifs_TRANSFORM"
				           translation="0.000000 0.000000 0.000000"
				           scale="1.000000 1.000000 1.000000"
				           rotation="0.000000 1.000000 0.000000 0.000000"
				           >
					<Group DEF="group_ME_Cube_005">
						<Shape>
							<Appearance>
								<Material USE="MA_Body" />
							</Appearance>
							<IndexedTriangleSet solid="false"
							                    normalPerVertex="true"
							                    index="0 1 2 0 2 3 4 5 6 4 6 7 8 9 10 8 10 11 12 13 14 12 14 15 4 16 17 4 17 15 18 5 14 18 14 19 "
							                    >
								<Coordinate point="-0.177632 -0.177632 0.000000 -0.177632 -0.177632 0.322469 -0.177632 0.177632 0.322469 -0.177632 0.177632 0.000000 -0.177632 0.177632 0.000000 -0.177632 0.177632 0.322469 0.177632 0.177632 0.322469 0.177632 0.177632 0.000000 0.177632 0.177632 0.000000 0.177632 0.177632 0.322469 0.177632 -0.177632 0.322469 0.177632 -0.177632 0.000000 0.177632 -0.177632 0.000000 0.177632 -0.177632 0.322469 -0.177632 -0.177632 0.322469 -0.177632 -0.177632 0.000000 0.177632 0.177632 0.000000 0.177632 -0.177632 0.000000 0.177632 0.177632 0.322469 0.177632 -0.177632 0.322469 " />
								<Normal vector="-0.577349 -0.577349 -0.577349 -0.577349 -0.577349 0.577349 -0.577349 0.577349 0.577349 -0.577349 0.577349 -0.577349 -0.577349 0.577349 -0.577349 -0.577349 0.577349 0.577349 0.577349 0.577349 0.577349 0.577349 0.577349 -0.577349 0.577349 0.577349 -0.577349 0.577349 0.577349 0.577349 0.577349 -0.577349 0.577349 0.577349 -0.577349 -0.577349 0.577349 -0.577349 -0.577349 0.577349 -0.577349 0.577349 -0.577349 -0.577349 0.577349 -0.577349 -0.577349 -0.577349 0.577349 0.577349 -0.577349 0.577349 -0.577349 -0.577349 0.577349 0.577349 0.577349 0.577349 -0.577349 0.577349 " />
								<TextureCoordinate point="0.7828 0.5433 0.9653 0.5433 0.9653 0.9587 0.7828 0.9587 0.7828 0.5433 0.9653 0.5433 0.9653 0.9587 0.7828 0.9587 0.7828 0.5433 0.9653 0.5433 0.9653 0.9587 0.7828 0.9587 0.7828 0.5433 0.9653 0.5433 0.9653 0.9587 0.7828 0.9587 0.9653 0.5433 0.9653 0.9587 0.7828 0.5433 0.7828 0.9587 " />
							</IndexedTriangleSet>
						</Shape>
					</Group>
				</Transform>
				<Transform DEF="Cube_003_TRANSFORM"
				           translation="0.002545 0.000000 0.301036"
				           scale="1.000000 1.000000 1.000000"
				           rotation="0.000000 1.000000 0.000000 0.000000"
				           >
					<Transform DEF="Cube_003_ifs_TRANSFORM"
					           translation="0.000000 0.000000 0.000000"
					           scale="1.000000 1.000000 1.000000"
					           rotation="0.000000 1.000000 0.000000 0.000000"
					           >
						<Group DEF="group_ME_Cube_006">
							<Shape>
								<Appearance>
									<Material USE="MA_Body" />
								</Appearance>
								<IndexedTriangleSet solid="false"
								                    normalPerVertex="true"
								                    index="0 1 2 0 2 3 4 5 6 4 6 7 8 9 10 8 10 11 12 13 14 12 14 15 4 16 17 4 17 15 18 5 14 18 14 19 "
								                    >
									<Coordinate point="-0.134848 -0.134848 0.000000 -0.134848 -0.134848 0.347026 -0.134848 0.134848 0.347026 -0.134848 0.134848 0.000000 -0.134848 0.134848 0.000000 -0.134848 0.134848 0.347026 0.134848 0.134848 0.347026 0.134848 0.134848 0.000000 0.134848 0.134848 0.000000 0.134848 0.134848 0.347026 0.134848 -0.134848 0.347026 0.134848 -0.134848 0.000000 0.134848 -0.134848 0.000000 0.134848 -0.134848 0.347026 -0.134848 -0.134848 0.347026 -0.134848 -0.134848 0.000000 0.134848 0.134848 0.000000 0.134848 -0.134848 0.000000 0.134848 0.134848 0.347026 0.134848 -0.134848 0.347026 " />
									<Normal vector="-0.577349 -0.577349 -0.577349 -0.577349 -0.577349 0.577349 -0.577349 0.577349 0.577349 -0.577349 0.577349 -0.577349 -0.577349 0.577349 -0.577349 -0.577349 0.577349 0.577349 0.577349 0.577349 0.577349 0.577349 0.577349 -0.577349 0.577349 0.577349 -0.577349 0.577349 0.577349 0.577349 0.577349 -0.577349 0.577349 0.577349 -0.577349 -0.577349 0.577349 -0.577349 -0.577349 0.577349 -0.577349 0.577349 -0.577349 -0.577349 0.577349 -0.577349 -0.577349 -0.577349 0.577349 0.577349 -0.577349 0.577349 -0.577349 -0.577349 0.577349 0.577349 0.577349 0.577349 -0.577349 0.577349 " />
									<TextureCoordinate point="0.7828 0.5433 0.9653 0.5433 0.9653 0.9587 0.7828 0.9587 0.7828 0.5433 0.9653 0.5433 0.9653 0.9587 0.7828 0.9587 0.7828 0.5433 0.9653 0.5433 0.9653 0.9587 0.7828 0.9587 0.7828 0.5433 0.9653 0.5433 0.9653 0.9587 0.7828 0.9587 0.9653 0.5433 0.9653 0.9587 0.7828 0.5433 0.7828 0.9587 " />
								</IndexedTriangleSet>
							</Shape>
						</Group>
					</Transform>
					<Transform DEF="Cube_004_TRANSFORM"
					           translation="-0.000000 0.000000 0.315187"
					           scale="1.000000 1.000000 1.000000"
					           rotation="0.000000 1.000000 0.000000 0.000000"
					           >
						<Transform DEF="Cube_004_ifs_TRANSFORM"
						           translation="0.000000 0.000000 0.000000"
						           scale="1.000000 1.000000 1.000000"
						           rotation="0.000000 1.000000 0.000000 0.000000"
						           >
							<Group DEF="group_ME_Cube_007">
								<Shape>
									<Appearance>
										<Material USE="MA_Body" />
									</Appearance>
									<IndexedTriangleSet solid="false"
									                    normalPerVertex="true"
									                    index="0 1 2 0 2 3 4 5 6 4 6 7 8 9 10 8 10 11 12 13 14 12 14 15 4 16 17 4 17 15 18 5 14 18 14 19 "
									                    >
										<Coordinate point="-0.094083 -0.094083 0.000000 -0.094083 -0.094083 0.333998 -0.094083 0.094083 0.333998 -0.094083 0.094083 0.000000 -0.094083 0.094083 0.000000 -0.094083 0.094083 0.333998 0.094083 0.094083 0.333998 0.094083 0.094083 0.000000 0.094083 0.094083 0.000000 0.094083 0.094083 0.333998 0.094083 -0.094083 0.333998 0.094083 -0.094083 0.000000 0.094083 -0.094083 0.000000 0.094083 -0.094083 0.333998 -0.094083 -0.094083 0.333998 -0.094083 -0.094083 0.000000 0.094083 0.094083 0.000000 0.094083 -0.094083 0.000000 0.094083 0.094083 0.333998 0.094083 -0.094083 0.333998 " />
										<Normal vector="-0.577349 -0.577349 -0.577349 -0.577349 -0.577349 0.577349 -0.577349 0.577349 0.577349 -0.577349 0.577349 -0.577349 -0.577349 0.577349 -0.577349 -0.577349 0.577349 0.577349 0.577349 0.577349 0.577349 0.577349 0.577349 -0.577349 0.577349 0.577349 -0.577349 0.577349 0.577349 0.577349 0.577349 -0.577349 0.577349 0.577349 -0.577349 -0.577349 0.577349 -0.577349 -0.577349 0.577349 -0.577349 0.577349 -0.577349 -0.577349 0.577349 -0.577349 -0.577349 -0.577349 0.577349 0.577349 -0.577349 0.577349 -0.577349 -0.577349 0.577349 0.577349 0.577349 0.577349 -0.577349 0.577349 " />
										<TextureCoordinate point="0.7828 0.5433 0.9653 0.5433 0.9653 0.9587 0.7828 0.9587 0.7828 0.5433 0.9653 0.5433 0.9653 0.9587 0.7828 0.9587 0.7828 0.5433 0.9653 0.5433 0.9653 0.9587 0.7828 0.9587 0.7828 0.5433 0.9653 0.5433 0.9653 0.9587 0.7828 0.9587 0.9653 0.5433 0.9653 0.9587 0.7828 0.5433 0.7828 0.9587 " />
									</IndexedTriangleSet>
								</Shape>
							</Group>
						</Transform>
					</Transform>
				</Transform>
			</Transform>
			<Transform DEF="Cube_006_TRANSFORM"
			           translation="0.000000 0.000000 0.164036"
			           scale="1.000000 1.000000 1.000000"
			           rotation="0.000000 1.000000 0.000000 0.000000"
			           >
				<Transform DEF="Cube_006_ifs_TRANSFORM"
				           translation="0.000000 0.000000 0.000000"
				           scale="1.000000 1.000000 1.000000"
				           rotation="0.000000 1.000000 0.000000 0.000000"
				           >
					<Group DEF="group_ME_Cube_009">
						<Shape>
							<Appearance>
								<Material DEF="MA_Glow"
								          diffuseColor="0.800 0.800 0.800"
								          specularColor="0.401 0.401 0.401"
								          emissiveColor="0.000 0.000 0.000"
								          ambientIntensity="0.000"
								          shininess="0.500"
								          transparency="0.0"
								          />
							</Appearance>
							<IndexedTriangleSet solid="false"
							                    normalPerVertex="true"
							                    index="0 1 2 0 2 3 4 5 6 4 6 7 8 9 10 8 10 11 12 13 14 12 14 15 16 17 18 16 18 19 20 21 22 23 24 25 23 25 26 27 20 22 23 26 27 22 23 27 28 1 10 28 10 29 30 31 32 33 34 35 33 35 36 30 32 37 33 36 30 37 33 30 38 39 40 38 40 19 41 42 43 41 43 44 45 46 47 45 47 44 16 39 48 16 48 49 50 51 52 50 52 53 54 55 56 50 53 57 57 54 56 56 50 57 58 39 59 58 59 60 61 62 63 61 63 64 65 66 67 65 67 64 68 69 59 68 59 70 71 69 72 71 72 60 68 73 72 68 72 74 75 76 77 75 77 78 79 80 81 79 81 82 83 84 85 83 85 86 87 88 89 87 89 90 91 80 89 91 89 92 93 94 95 93 95 96 97 94 98 97 98 99 100 101 102 100 102 29 103 104 105 103 105 96 106 104 98 106 98 107 108 109 110 111 112 113 111 113 114 108 110 115 111 114 108 115 111 108 116 117 118 116 118 119 120 121 122 120 122 107 123 124 125 123 125 126 106 127 128 106 128 129 130 131 132 133 134 135 133 135 136 130 132 137 133 136 130 130 137 133 75 117 125 75 125 86 "
							                    >
								<Coordinate point="-0.645537 -0.659208 0.000000 -0.645537 -0.659208 1.037708 -0.645537 0.659208 1.037708 -0.645537 0.659208 0.000000 -0.645537 0.659208 0.000000 -0.645537 0.659208 1.037708 0.645537 0.659208 1.037708 0.645537 0.659208 0.000000 0.645537 0.659208 0.000000 0.645537 0.659208 1.037708 0.645537 -0.659208 1.037708 0.645537 -0.659208 0.000000 0.645537 -0.659208 0.000000 0.645537 -0.659208 1.037708 -0.645537 -0.659208 1.037708 -0.645537 -0.659208 0.000000 -0.327831 -0.327831 0.000000 -0.645537 -0.659208 0.000000 -0.645537 0.659208 0.000000 -0.327831 0.327831 0.000000 -0.327831 0.327831 0.000000 -0.645537 0.659208 0.000000 0.645537 0.659208 0.000000 0.645537 -0.659208 0.000000 -0.645537 -0.659208 0.000000 -0.327831 -0.327831 0.000000 0.327831 -0.327831 0.000000 0.327831 0.327831 0.000000 -0.276398 -0.300543 1.037708 0.276398 -0.300543 1.037708 0.276398 0.300543 1.037708 0.276398 -0.300543 1.037708 0.645537 -0.659208 1.037708 -0.645537 0.659208 1.037708 -0.645537 -0.659208 1.037708 -0.276398 -0.300543 1.037708 -0.276398 0.300543 1.037708 0.645537 0.659208 1.037708 -0.327831 0.327831 -0.250684 -0.327831 -0.327831 -0.250684 -0.327831 -0.327831 0.000000 0.327831 0.327831 -0.250684 -0.327831 0.327831 -0.250684 -0.327831 0.327831 0.000000 0.327831 0.327831 0.000000 0.327831 -0.327831 0.000000 0.327831 -0.327831 -0.250684 0.327831 0.327831 -0.250684 0.327831 -0.327831 -0.250684 0.327831 -0.327831 0.000000 0.327831 0.327831 -0.250684 0.327831 -0.327831 -0.250684 0.132034 -0.132034 -0.250684 0.132034 0.132034 -0.250684 -0.132034 -0.132034 -0.250684 -0.327831 -0.327831 -0.250684 -0.327831 0.327831 -0.250684 -0.132034 0.132034 -0.250684 0.327831 -0.327831 -0.250684 -0.132034 -0.132034 -0.250684 0.132034 -0.132034 -0.250684 0.132034 -0.132034 -0.250684 0.132034 -0.132034 -0.776857 0.132034 0.132034 -0.776857 0.132034 0.132034 -0.250684 0.132034 0.132034 -0.776857 -0.132034 0.132034 -0.776857 -0.132034 0.132034 -0.250684 -0.132034 0.132034 -0.776857 -0.132034 -0.132034 -0.776857 -0.132034 0.132034 -0.250684 -0.132034 -0.132034 -0.250684 0.132034 -0.132034 -0.776857 0.132034 0.132034 -0.776857 -0.132034 -0.132034 -0.776857 -0.140234 -0.169069 1.631354 -0.140234 -0.169069 2.155233 -0.140234 0.169069 2.155233 -0.140234 0.169069 1.631354 -0.140234 0.169069 1.631354 -0.140234 0.169069 2.155233 0.140234 0.169069 2.155233 0.140234 0.169069 1.631354 0.140234 0.169069 1.631354 0.140234 0.169069 2.155233 0.140234 -0.169069 2.155233 0.140234 -0.169069 1.631354 0.140234 -0.169069 1.631354 0.140234 -0.169069 2.155233 -0.140234 -0.169069 2.155233 -0.140234 -0.169069 1.631354 0.140234 0.169069 2.155233 0.140234 -0.169069 2.155233 -0.276398 -0.300543 1.294514 -0.276398 0.300543 1.294514 -0.276398 0.300543 1.037708 -0.276398 -0.300543 1.037708 -0.276398 0.300543 1.037708 0.276398 0.300543 1.294514 0.276398 0.300543 1.037708 0.276398 0.300543 1.037708 0.276398 0.300543 1.294514 0.276398 -0.300543 1.294514 0.276398 -0.300543 1.037708 0.276398 -0.300543 1.294514 -0.276398 -0.300543 1.294514 0.209390 -0.227681 1.294514 0.209390 0.227681 1.294514 -0.209390 0.227681 1.294514 0.209390 0.227681 1.294514 0.276398 0.300543 1.294514 -0.276398 -0.300543 1.294514 0.276398 -0.300543 1.294514 0.209390 -0.227681 1.294514 -0.209390 -0.227681 1.294514 -0.276398 0.300543 1.294514 -0.209390 -0.227681 1.294514 -0.209390 -0.227681 1.631354 -0.209390 0.227681 1.631354 -0.209390 0.227681 1.294514 -0.209390 0.227681 1.294514 -0.209390 0.227681 1.631354 0.209390 0.227681 1.631354 0.209390 0.227681 1.294514 0.209390 0.227681 1.631354 0.209390 -0.227681 1.631354 0.209390 -0.227681 1.294514 0.209390 -0.227681 1.631354 -0.209390 -0.227681 1.631354 -0.209390 -0.227681 1.294514 0.140234 0.169069 1.631354 0.140234 -0.169069 1.631354 0.209390 -0.227681 1.631354 -0.209390 0.227681 1.631354 -0.209390 -0.227681 1.631354 -0.140234 -0.169069 1.631354 -0.140234 0.169069 1.631354 0.209390 0.227681 1.631354 " />
								<Normal vector="-0.577349 -0.577349 -0.577349 -0.577349 -0.577349 0.577349 -0.577349 0.577349 0.577349 -0.577349 0.577349 -0.577349 -0.577349 0.577349 -0.577349 -0.577349 0.577349 0.577349 0.577349 0.577349 0.577349 0.577349 0.577349 -0.577349 0.577349 0.577349 -0.577349 0.577349 0.577349 0.577349 0.577349 -0.577349 0.577349 0.577349 -0.577349 -0.577349 0.577349 -0.577349 -0.577349 0.577349 -0.577349 0.577349 -0.577349 -0.577349 0.577349 -0.577349 -0.577349 -0.577349 -0.301492 -0.301492 -0.904508 -0.577349 -0.577349 -0.577349 -0.577349 0.577349 -0.577349 -0.301492 0.301492 -0.904508 -0.301492 0.301492 -0.904508 -0.577349 0.577349 -0.577349 0.577349 0.577349 -0.577349 0.577349 -0.577349 -0.577349 -0.577349 -0.577349 -0.577349 -0.301492 -0.301492 -0.904508 0.577349 -0.577349 -0.577349 0.577349 0.577349 -0.577349 -0.301492 -0.301492 0.904508 0.301492 -0.301492 0.904508 0.577349 0.577349 0.577349 0.301492 -0.301492 0.904508 0.577349 -0.577349 0.577349 -0.577349 0.577349 0.577349 -0.577349 -0.577349 0.577349 -0.301492 -0.301492 0.904508 -0.577349 0.577349 0.577349 0.577349 0.577349 0.577349 -0.577349 0.577349 -0.577349 -0.577349 -0.577349 -0.577349 -0.301492 -0.301492 -0.904508 0.577349 0.577349 -0.577349 -0.577349 0.577349 -0.577349 -0.301492 0.301492 -0.904508 0.577349 0.577349 -0.577349 0.577349 -0.577349 -0.577349 0.577349 -0.577349 -0.577349 0.577349 0.577349 -0.577349 0.577349 -0.577349 -0.577349 0.577349 -0.577349 -0.577349 0.577349 0.577349 -0.577349 0.577349 -0.577349 -0.577349 0.301492 -0.301492 -0.904508 0.577349 0.577349 -0.577349 -0.301492 -0.301492 -0.904508 -0.577349 -0.577349 -0.577349 -0.577349 0.577349 -0.577349 -0.577349 0.577349 -0.577349 0.577349 -0.577349 -0.577349 -0.301492 -0.301492 -0.904508 0.301492 -0.301492 -0.904508 0.301492 -0.301492 -0.904508 0.577349 -0.577349 -0.577349 0.577349 0.577349 -0.577349 0.577349 0.577349 -0.577349 0.577349 0.577349 -0.577349 -0.577349 0.577349 -0.577349 -0.577349 0.577349 -0.577349 -0.577349 0.577349 -0.577349 -0.577349 -0.577349 -0.577349 -0.577349 0.577349 -0.577349 -0.301492 -0.301492 -0.904508 0.577349 -0.577349 -0.577349 0.577349 0.577349 -0.577349 -0.577349 -0.577349 -0.577349 -0.301492 -0.301492 0.904508 -0.577349 -0.577349 0.577349 -0.577349 0.577349 0.577349 -0.577349 0.577349 0.577349 -0.577349 0.577349 0.577349 -0.577349 0.577349 0.577349 0.577349 0.577349 0.577349 0.577349 0.577349 0.577349 0.577349 0.577349 0.577349 0.577349 0.577349 0.577349 0.577349 -0.577349 0.577349 0.301492 -0.301492 0.904508 0.301492 -0.301492 0.904508 0.577349 -0.577349 0.577349 -0.577349 -0.577349 0.577349 -0.301492 -0.301492 0.904508 0.577349 0.577349 0.577349 0.577349 -0.577349 0.577349 -0.577349 -0.577349 0.577349 -0.577349 0.577349 0.577349 -0.577349 0.577349 0.577349 -0.301492 -0.301492 0.904508 -0.577349 0.577349 0.577349 0.577349 0.577349 0.577349 0.577349 0.577349 0.577349 0.577349 0.577349 0.577349 0.577349 0.577349 0.577349 0.577349 -0.577349 0.577349 0.301492 -0.301492 0.904508 0.577349 -0.577349 0.577349 -0.577349 -0.577349 0.577349 0.301492 -0.301492 0.904508 0.301492 0.301492 0.904508 -0.577349 0.577349 0.577349 0.301492 0.301492 0.904508 0.577349 0.577349 0.577349 -0.577349 -0.577349 0.577349 0.577349 -0.577349 0.577349 0.301492 -0.301492 0.904508 -0.577349 -0.577349 0.577349 -0.577349 0.577349 0.577349 -0.577349 -0.577349 0.577349 -0.577349 -0.577349 0.577349 -0.577349 0.577349 0.577349 -0.577349 0.577349 0.577349 -0.577349 0.577349 0.577349 -0.577349 0.577349 0.577349 0.577349 0.577349 0.577349 0.301492 0.301492 0.904508 0.577349 0.577349 0.577349 0.577349 -0.577349 0.577349 0.301492 -0.301492 0.904508 0.577349 -0.577349 0.577349 -0.577349 -0.577349 0.577349 -0.577349 -0.577349 0.577349 0.577349 0.577349 0.577349 0.301492 -0.301492 0.904508 0.577349 -0.577349 0.577349 -0.577349 0.577349 0.577349 -0.577349 -0.577349 0.577349 -0.301492 -0.301492 0.904508 -0.577349 0.577349 0.577349 0.577349 0.577349 0.577349 " />
								<TextureCoordinate point="0.5325 0.5458 0.7136 0.5458 0.7136 0.9660 0.5325 0.9660 0.5325 0.5458 0.7136 0.5458 0.7136 0.9660 0.5325 0.9660 0.5325 0.5458 0.7136 0.5458 0.7136 0.9660 0.5325 0.9660 0.5325 0.5458 0.7136 0.5458 0.7136 0.9660 0.5325 0.9660 0.5325 0.5458 0.7136 0.5458 0.7136 0.9660 0.5325 0.9660 0.5590 0.9045 0.6230 0.9660 0.6871 0.9045 0.7136 0.7559 0.6871 0.6074 0.6230 0.5458 0.5590 0.6074 0.5325 0.7559 0.5325 0.5458 0.5325 0.9660 0.5590 0.9045 0.6230 0.9660 0.6871 0.9045 0.6871 0.6074 0.6230 0.5458 0.5590 0.6074 0.5325 0.7559 0.7136 0.7559 0.5325 0.5458 0.7136 0.5458 0.7136 0.9660 0.5325 0.5458 0.7136 0.5458 0.7136 0.9660 0.5325 0.9660 0.5325 0.5458 0.7136 0.5458 0.7136 0.9660 0.7136 0.9660 0.5325 0.9660 0.6871 0.9045 0.7136 0.7559 0.6871 0.6074 0.6230 0.5458 0.5325 0.7559 0.5590 0.9045 0.6230 0.9660 0.5590 0.6074 0.5325 0.5458 0.7136 0.9660 0.5325 0.9660 0.5325 0.5458 0.7136 0.5458 0.7136 0.9660 0.5325 0.9660 0.5325 0.5458 0.7136 0.5458 0.7136 0.9660 0.5325 0.5458 0.7136 0.5458 0.5325 0.9660 0.5325 0.5458 0.7136 0.9660 0.7136 0.5458 0.5325 0.9660 0.5325 0.5458 0.7136 0.5458 0.7136 0.9660 0.5325 0.9660 0.5325 0.5458 0.7136 0.5458 0.7136 0.9660 0.5325 0.9660 0.5325 0.5458 0.7136 0.5458 0.7136 0.9660 0.5325 0.9660 0.5325 0.5458 0.7136 0.5458 0.7136 0.9660 0.5325 0.9660 0.5325 0.5458 0.5325 0.9660 0.5325 0.5458 0.7136 0.5458 0.7136 0.9660 0.5325 0.9660 0.5325 0.5458 0.7136 0.9660 0.5325 0.9660 0.5325 0.5458 0.7136 0.5458 0.7136 0.9660 0.5325 0.5458 0.7136 0.5458 0.7136 0.9660 0.5325 0.5458 0.5325 0.9660 0.5590 0.9045 0.6230 0.9660 0.6871 0.9045 0.6871 0.6074 0.6230 0.5458 0.5590 0.6074 0.5325 0.7559 0.7136 0.7559 0.5325 0.5458 0.7136 0.5458 0.7136 0.9660 0.5325 0.9660 0.5325 0.5458 0.7136 0.5458 0.7136 0.9660 0.5325 0.5458 0.7136 0.5458 0.7136 0.9660 0.5325 0.9660 0.7136 0.5458 0.7136 0.9660 0.5325 0.9660 0.6230 0.9660 0.6871 0.9045 0.7136 0.7559 0.6230 0.5458 0.5590 0.6074 0.5325 0.7559 0.5590 0.9045 0.6871 0.6074 " />
							</IndexedTriangleSet>
						</Shape>
					</Group>
				</Transform>
			</Transform>
			<Transform DEF="arm1_TRANSFORM"
			           translation="0.635275 0.000000 0.285717"
			           scale="1.000000 1.000000 1.000000"
			           rotation="0.000000 1.000000 0.000000 0.000000"
			           >
				<Transform DEF="arm1_ifs_TRANSFORM"
				           translation="0.000000 0.000000 0.000000"
				           scale="1.000000 1.000000 1.000000"
				           rotation="0.000000 1.000000 0.000000 0.000000"
				           >
					<Group DEF="group_ME_arm1">
						<Shape>
							<Appearance>
								<Material USE="MA_Glow" />
							</Appearance>
							<IndexedTriangleSet solid="false"
							                    normalPerVertex="true"
							                    index="0 1 2 0 2 3 "
							                    >
								<Coordinate point="0.004027 0.000000 -0.682473 2.460847 0.000000 -0.667977 2.454933 0.000000 0.334352 -0.001887 0.000000 0.319856 " />
								<Normal vector="0.000000 -1.000000 0.000000 0.000000 -1.000000 0.000000 0.000000 -0.999969 0.000000 0.000000 -1.000000 0.000000 " />
								<TextureCoordinate point="0.0000 0.0000 1.0000 0.0000 1.0000 0.4882 0.0000 0.4882 " />
							</IndexedTriangleSet>
						</Shape>
					</Group>
				</Transform>
			</Transform>
			<Transform DEF="arm2_TRANSFORM"
			           translation="-0.635275 0.000000 0.285717"
			           scale="1.000000 1.000000 1.000000"
			           rotation="0.000000 1.000000 0.000000 0.000000"
			           >
				<Transform DEF="arm2_ifs_TRANSFORM"
				           translation="0.000000 0.000000 0.000000"
				           scale="1.000000 1.000000 1.000000"
				           rotation="0.000000 1.000000 0.000000 0.000000"
				           >
					<Group DEF="group_ME_arm2">
						<Shape>
							<Appearance>
								<Material USE="MA_Glow" />
							</Appearance>
							<IndexedTriangleSet solid="false"
							                    normalPerVertex="true"
							                    index="0 1 2 0 2 3 "
							                    >
								<Coordinate point="-0.004027 0.000000 -0.682473 0.001887 0.000000 0.319856 -2.454933 0.000000 0.334352 -2.460847 0.000000 -0.667977 " />
								<Normal vector="0.000000 -1.000000 0.000000 0.000000 -1.000000 0.000000 0.000000 -0.999969 0.000000 0.000000 -1.000000 0.000000 " />
								<TextureCoordinate point="0.0000 0.0000 0.0000 0.4882 1.0000 0.4882 1.0000 0.0000 " />
							</IndexedTriangleSet>
						</Shape>
					</Group>
				</Transform>
			</Transform>
			<Transform DEF="tail_TRANSFORM"
			           translation="0.000000 0.604083 0.700777"
			           scale="1.000000 1.000000 1.000000"
			           rotation="0.000000 1.000000 0.000000 0.000000"
			           >
				<Transform DEF="tail_ifs_TRANSFORM"
				           translation="0.000000 0.000000 0.000000"
				           scale="1.000000 1.000000 1.000000"
				           rotation="0.000000 1.000000 0.000000 0.000000"
				           >
					<Group DEF="group_ME_tail">
						<Shape>
							<Appearance>
								<Material USE="MA_Glow" />
							</Appearance>
							<IndexedTriangleSet solid="false"
							                    normalPerVertex="true"
							                    index="0 1 2 0 2 3 "
							                    >
								<Coordinate point="0.000000 0.000000 0.202706 0.000000 0.000000 -0.202706 0.000000 1.378418 -0.202706 0.000000 1.378418 0.202706 " />
								<Normal vector="1.000000 0.000000 0.000000 1.000000 0.000000 0.000000 1.000000 0.000000 0.000000 1.000000 0.000000 0.000000 " />
								<TextureCoordinate point="0.5202 0.6604 0.7112 0.6604 0.7112 0.8514 0.5202 0.8514 " />
							</IndexedTriangleSet>
						</Shape>
					</Group>
				</Transform>
				<Transform DEF="tail1_TRANSFORM"
				           translation="-0.000000 1.367941 -0.007600"
				           scale="1.000000 1.000000 1.000000"
				           rotation="0.000000 1.000000 0.000000 0.000000"
				           >
					<Transform DEF="tail1_ifs_TRANSFORM"
					           translation="0.000000 0.000000 0.000000"
					           scale="1.000000 1.000000 1.000000"
					           rotation="0.000000 1.000000 0.000000 0.000000"
					           >
						<Group DEF="group_ME_tail1">
							<Shape>
								<Appearance>
									<Material USE="MA_Glow" />
								</Appearance>
								<IndexedTriangleSet solid="false"
								                    normalPerVertex="true"
								                    index="0 1 2 0 2 3 "
								                    >
									<Coordinate point="0.000000 0.000000 0.174700 0.000000 0.000000 -0.174700 0.000000 1.317954 -0.174700 0.000000 1.317954 0.174700 " />
									<Normal vector="1.000000 0.000000 0.000000 1.000000 0.000000 0.000000 1.000000 0.000000 0.000000 1.000000 0.000000 0.000000 " />
									<TextureCoordinate point="0.5202 0.6604 0.7112 0.6604 0.7112 0.8514 0.5202 0.8514 " />
								</IndexedTriangleSet>
							</Shape>
						</Group>
					</Transform>
					<Transform DEF="tail2_TRANSFORM"
					           translation="-0.000000 1.307143 0.000000"
					           scale="1.000000 1.000000 1.000000"
					           rotation="0.000000 1.000000 0.000000 0.000000"
					           >
						<Transform DEF="tail2_ifs_TRANSFORM"
						           translation="0.000000 0.000000 0.000000"
						           scale="1.000000 1.000000 1.000000"
						           rotation="0.000000 1.000000 0.000000 0.000000"
						           >
							<Group DEF="group_ME_tail2">
								<Shape>
									<Appearance>
										<Material USE="MA_Glow" />
									</Appearance>
									<IndexedTriangleSet solid="false"
									                    normalPerVertex="true"
									                    index="0 1 2 0 2 3 "
									                    >
										<Coordinate point="0.000000 0.000000 0.129871 0.000000 0.000000 -0.129871 0.000000 1.247928 -0.129871 0.000000 1.247928 0.129871 " />
										<Normal vector="1.000000 0.000000 0.000000 1.000000 0.000000 0.000000 1.000000 0.000000 0.000000 1.000000 0.000000 0.000000 " />
										<TextureCoordinate point="0.5202 0.6604 0.7112 0.6604 0.7112 0.8514 0.5202 0.8514 " />
									</IndexedTriangleSet>
								</Shape>
							</Group>
						</Transform>
						<Transform DEF="tail3_TRANSFORM"
						           translation="0.000000 1.231146 -0.000000"
						           scale="1.000000 1.000000 1.000000"
						           rotation="0.000000 1.000000 0.000000 0.000000"
						           >
							<Transform DEF="tail3_ifs_TRANSFORM"
							           translation="0.000000 0.000000 0.000000"
							           scale="1.000000 1.000000 1.000000"
							           rotation="0.000000 1.000000 0.000000 0.000000"
							           >
								<Group DEF="group_ME_tail3">
									<Shape>
										<Appearance>
											<Material USE="MA_Glow" />
										</Appearance>
										<IndexedTriangleSet solid="false"
										                    normalPerVertex="true"
										                    index="0 1 2 0 2 3 "
										                    >
											<Coordinate point="0.000000 0.000000 0.092441 0.000000 0.000000 -0.092441 0.000000 1.169259 -0.092441 0.000000 1.169259 0.092441 " />
											<Normal vector="1.000000 0.000000 0.000000 1.000000 0.000000 0.000000 1.000000 0.000000 0.000000 1.000000 0.000000 0.000000 " />
											<TextureCoordinate point="0.5202 0.6604 0.7112 0.6604 0.7112 0.8514 0.5202 0.8514 " />
										</IndexedTriangleSet>
									</Shape>
								</Group>
							</Transform>
							<Transform DEF="tail4_TRANSFORM"
							           translation="0.000000 1.158950 0.000000"
							           scale="1.000000 1.000000 1.000000"
							           rotation="0.000000 1.000000 0.000000 0.000000"
							           >
								<Transform DEF="tail4_ifs_TRANSFORM"
								           translation="0.000000 0.000000 0.000000"
								           scale="1.000000 1.000000 1.000000"
								           rotation="0.000000 1.000000 0.000000 0.000000"
								           >
									<Group DEF="group_ME_tail4">
										<Shape>
											<Appearance>
												<Material USE="MA_Glow" />
											</Appearance>
											<IndexedTriangleSet solid="false"
											                    normalPerVertex="true"
											                    index="0 1 2 0 2 3 "
											                    >
												<Coordinate point="0.000000 0.000000 0.059693 0.000000 0.000000 -0.059693 0.000000 1.124849 -0.059693 0.000000 1.124849 0.059693 " />
												<Normal vector="1.000000 0.000000 0.000000 1.000000 0.000000 0.000000 1.000000 0.000000 0.000000 1.000000 0.000000 0.000000 " />
												<TextureCoordinate point="0.5202 0.6604 0.7112 0.6604 0.7112 0.8514 0.5202 0.8514 " />
											</IndexedTriangleSet>
										</Shape>
									</Group>
								</Transform>
							</Transform>
						</Transform>
					</Transform>
				</Transform>
			</Transform>
		</Transform>
	</Scene>
</X3D>