<?xml version="1.0" encoding="UTF-8"?>
<!DOCTYPE X3D PUBLIC "ISO//Web3D//DTD X3D 3.0//EN" "http://www.web3d.org/specifications/x3d-3.0.dtd">
<X3D version="3.0" profile="Immersive" xmlns:xsd="http://www.w3.org/2001/XMLSchema-instance" xsd:noNamespaceSchemaLocation="http://www.web3d.org/specifications/x3d-3.0.xsd">
	<head>
		<meta name="filename" content="seel.x3d" />
		<meta name="generator" content="Blender 2.93.18" />
	</head>
	<Scene>
		<NavigationInfo headlight="true"
		                visibilityLimit="0.0"
		                type='"EXAMINE", "ANY"'
		                avatarSize="0.25, 1.75, 0.75"
		                />
		<Background DEF="WO_World"
		            groundColor="0.051 0.051 0.051"
		            skyColor="0.051 0.051 0.051"
		            />
		<Transform DEF="body_TRANSFORM"
		           translation="0.000000 0.285016 0.907156"
		           scale="1.000000 1.000000 1.000000"
		           rotation="0.000000 0.000000 1.000000 3.141593"
		           >
			<Transform DEF="body_ifs_TRANSFORM"
			           translation="0.000000 0.000000 0.000000"
			           scale="1.000000 1.000000 1.000000"
			           rotation="0.000000 1.000000 0.000000 0.000000"
			           >
				<Group DEF="group_ME_body">
					<Shape>
						<Appearance>
							<Material DEF="MA_Body"
							          diffuseColor="0.800 0.800 0.800"
							          specularColor="0.401 0.401 0.401"
							          emissiveColor="0.000 0.000 0.000"
							          ambientIntensity="0.000"
							          shininess="0.500"
							          transparency="0.0"
							          />
						</Appearance>
						<IndexedTriangleSet solid="false"
						                    normalPerVertex="true"
						                    index="0 1 2 0 2 3 4 5 6 4 6 7 8 9 10 8 10 11 12 13 14 12 14 15 4 16 17 4 17 15 18 5 14 18 14 19 "
						                    >
							<Coordinate point="-0.949098 -1.098471 -0.631886 -0.949098 -0.667650 1.077109 -0.949098 0.215411 0.854498 -0.949098 -0.215411 -0.854498 -0.949098 -0.215411 -0.854498 -0.949098 0.215411 0.854498 0.949098 0.215411 0.854498 0.949098 -0.215411 -0.854498 0.949098 -0.215411 -0.854498 0.949098 0.215411 0.854498 0.949098 -0.667650 1.077109 0.949098 -1.098471 -0.631886 0.949098 -1.098471 -0.631886 0.949098 -0.667650 1.077109 -0.949098 -0.667650 1.077109 -0.949098 -1.098471 -0.631886 0.949098 -0.215411 -0.854498 0.949098 -1.098471 -0.631886 0.949098 0.215411 0.854498 0.949098 -0.667650 1.077109 " />
							<Normal vector="-0.577349 -0.700949 -0.418683 -0.577349 -0.418683 0.700949 -0.577349 0.700949 0.418683 -0.577349 0.418683 -0.700949 -0.577349 0.418683 -0.700949 -0.577349 0.700949 0.418683 0.577349 0.700949 0.418683 0.577349 0.418683 -0.700949 0.577349 0.418683 -0.700949 0.577349 0.700949 0.418683 0.577349 -0.418683 0.700949 0.577349 -0.700949 -0.418683 0.577349 -0.700949 -0.418683 0.577349 -0.418683 0.700949 -0.577349 -0.418683 0.700949 -0.577349 -0.700949 -0.418683 0.577349 0.418683 -0.700949 0.577349 -0.700949 -0.418683 0.577349 0.700949 0.418683 0.577349 -0.418683 0.700949 " />
							<TextureCoordinate point="0.0294 0.5255 0.4784 0.5255 0.4784 0.9745 0.0294 0.9745 0.0294 0.5255 0.4784 0.5255 0.4784 0.9745 0.0294 0.9745 0.0294 0.5255 0.4784 0.5255 0.4784 0.9745 0.0294 0.9745 0.0294 0.5255 0.4784 0.5255 0.4784 0.9745 0.0294 0.9745 0.4784 0.5255 0.4784 0.9745 0.0294 0.5255 0.0294 0.9745 " />
						</IndexedTriangleSet>
					</Shape>
				</Group>
			</Transform>
			<Transform DEF="Cube_001_TRANSFORM"
			           translation="0.000000 -0.699495 -0.049293"
			           scale="1.000000 1.000000 1.000000"
			           rotation="0.000000 1.000000 0.000000 0.000000"
			           >
				<Transform DEF="Cube_001_ifs_TRANSFORM"
				           translation="0.000000 0.000000 0.000000"
				           scale="1.000000 1.000000 1.000000"
				           rotation="0.000000 1.000000 0.000000 0.000000"
				           >
					<Group DEF="group_ME_Cube_001">
						<Shape>
							<Appearance>
								<Material USE="MA_Body" />
							</Appearance>
							<IndexedTriangleSet solid="false"
							                    normalPerVertex="true"
							                    index="0 1 2 0 2 3 4 5 6 4 6 7 8 9 10 8 10 11 12 13 14 12 14 15 4 16 17 4 17 15 18 5 14 18 14 19 "
							                    >
								<Coordinate point="-0.879036 -0.890800 -0.100045 -0.879036 -0.261116 0.857527 -0.879036 0.314842 0.478786 -0.879036 -0.314842 -0.478786 -0.879036 -0.314842 -0.478786 -0.879036 0.314842 0.478786 0.879036 0.314842 0.478786 0.879036 -0.314842 -0.478786 0.879036 -0.314842 -0.478786 0.879036 0.314842 0.478786 0.879036 -0.261116 0.857527 0.879036 -0.890800 -0.100045 0.879036 -0.890800 -0.100045 0.879036 -0.261116 0.857527 -0.879036 -0.261116 0.857527 -0.879036 -0.890800 -0.100045 0.879036 -0.314842 -0.478786 0.879036 -0.890800 -0.100045 0.879036 0.314842 0.478786 0.879036 -0.261116 0.857527 " />
								<Normal vector="-0.577349 -0.799585 -0.165166 -0.577349 -0.165166 0.799585 -0.577349 0.799585 0.165166 -0.577349 0.165166 -0.799585 -0.577349 0.165166 -0.799585 -0.577349 0.799585 0.165166 0.577349 0.799585 0.165166 0.577349 0.165166 -0.799585 0.577349 0.165166 -0.799585 0.577349 0.799585 0.165166 0.577349 -0.165166 0.799585 0.577349 -0.799585 -0.165166 0.577349 -0.799585 -0.165166 0.577349 -0.165166 0.799585 -0.577349 -0.165166 0.799585 -0.577349 -0.799585 -0.165166 0.577349 0.165166 -0.799585 0.577349 -0.799585 -0.165166 0.577349 0.799585 0.165166 0.577349 -0.165166 0.799585 " />
								<TextureCoordinate point="0.0294 0.5255 0.4784 0.5255 0.4784 0.9745 0.0294 0.9745 0.0294 0.5255 0.4784 0.5255 0.4784 0.9745 0.0294 0.9745 0.0294 0.5255 0.4784 0.5255 0.4784 0.9745 0.0294 0.9745 0.0294 0.5255 0.4784 0.5255 0.4784 0.9745 0.0294 0.9745 0.4784 0.5255 0.4784 0.9745 0.0294 0.5255 0.0294 0.9745 " />
							</IndexedTriangleSet>
						</Shape>
					</Group>
				</Transform>
				<Transform DEF="Cube_002_TRANSFORM"
				           translation="0.000000 -0.117923 0.269854"
				           scale="1.000000 1.000000 1.000000"
				           rotation="0.000000 1.000000 0.000000 0.000000"
				           >
					<Transform DEF="Cube_002_ifs_TRANSFORM"
					           translation="0.000000 0.000000 0.000000"
					           scale="1.000000 1.000000 1.000000"
					           rotation="0.000000 1.000000 0.000000 0.000000"
					           >
						<Group DEF="group_ME_Cube_002">
							<Shape>
								<Appearance>
									<Material USE="MA_Body" />
								</Appearance>
								<IndexedTriangleSet solid="false"
								                    normalPerVertex="true"
								                    index="0 1 2 0 2 3 4 5 6 4 6 7 8 9 10 8 10 11 12 13 14 12 14 15 4 16 17 4 17 15 18 5 14 18 14 19 "
								                    >
									<Coordinate point="-0.673361 -0.982791 0.365501 -0.673361 0.259385 1.015967 -0.673361 0.621088 0.325233 -0.673361 -0.621088 -0.325233 -0.673361 -0.621088 -0.325233 -0.673361 0.621088 0.325233 0.673361 0.621088 0.325233 0.673361 -0.621088 -0.325233 0.673361 -0.621088 -0.325233 0.673361 0.621088 0.325233 0.673361 0.259385 1.015967 0.673361 -0.982791 0.365501 0.673361 -0.982791 0.365501 0.673361 0.259385 1.015967 -0.673361 0.259385 1.015967 -0.673361 -0.982791 0.365501 0.673361 -0.621088 -0.325233 0.673361 -0.982791 0.365501 0.673361 0.621088 0.325233 0.673361 0.259385 1.015967 " />
									<Normal vector="-0.577349 -0.779290 0.243629 -0.577349 0.243629 0.779290 -0.577349 0.779290 -0.243629 -0.577349 -0.243629 -0.779290 -0.577349 -0.243629 -0.779290 -0.577349 0.779290 -0.243629 0.577349 0.779290 -0.243629 0.577349 -0.243629 -0.779290 0.577349 -0.243629 -0.779290 0.577349 0.779290 -0.243629 0.577349 0.243629 0.779290 0.577349 -0.779290 0.243629 0.577349 -0.779290 0.243629 0.577349 0.243629 0.779290 -0.577349 0.243629 0.779290 -0.577349 -0.779290 0.243629 0.577349 -0.243629 -0.779290 0.577349 -0.779290 0.243629 0.577349 0.779290 -0.243629 0.577349 0.243629 0.779290 " />
									<TextureCoordinate point="0.0294 0.5255 0.4784 0.5255 0.4784 0.9745 0.0294 0.9745 0.0294 0.5255 0.4784 0.5255 0.4784 0.9745 0.0294 0.9745 0.0294 0.5255 0.4784 0.5255 0.4784 0.9745 0.0294 0.9745 0.0294 0.5255 0.4784 0.5255 0.4784 0.9745 0.0294 0.9745 0.4784 0.5255 0.4784 0.9745 0.0294 0.5255 0.0294 0.9745 " />
								</IndexedTriangleSet>
							</Shape>
						</Group>
					</Transform>
				</Transform>
			</Transform>
			<Transform DEF="head_TRANSFORM"
			           translation="0.000000 -1.137186 0.814861"
			           scale="1.000000 1.000000 1.000000"
			           rotation="0.000000 1.000000 0.000000 0.000000"
			           >
				<Transform DEF="head_ifs_TRANSFORM"
				           translation="0.000000 0.000000 0.000000"
				           scale="1.000000 1.000000 1.000000"
				           rotation="0.000000 1.000000 0.000000 0.000000"
				           >
					<Group DEF="group_ME_head">
						<Shape>
							<Appearance>
								<Material USE="MA_Body" />
							</Appearance>
							<IndexedTriangleSet solid="false"
							                    normalPerVertex="true"
							                    index="0 1 2 0 2 3 4 5 6 4 6 7 8 9 10 8 10 11 12 13 14 12 14 15 16 17 18 16 18 19 20 21 14 20 14 22 23 24 25 23 25 26 27 28 29 27 29 30 31 32 33 31 33 34 35 36 37 35 37 38 39 40 41 39 41 42 43 44 32 43 32 31 45 46 47 45 47 48 49 50 24 49 24 23 51 52 53 51 53 54 55 20 22 55 22 56 39 57 58 39 58 26 59 16 19 59 19 60 61 62 63 61 63 64 65 66 13 65 13 12 67 21 68 67 68 69 70 71 5 70 5 4 69 68 72 69 72 73 73 72 71 73 71 70 64 63 74 64 74 75 75 74 66 75 66 65 57 76 77 57 77 58 76 59 60 76 60 77 52 78 79 52 79 53 78 55 56 78 56 79 48 47 80 48 80 81 81 80 50 81 50 49 42 41 82 42 82 83 83 82 44 83 44 43 80 75 65 80 65 50 82 73 70 82 70 44 41 69 73 41 73 82 44 70 4 44 4 32 40 67 69 40 69 41 46 61 64 46 64 47 24 12 15 24 15 25 28 8 11 28 11 29 32 4 7 32 7 33 36 0 3 36 3 37 "
							                    >
								<Coordinate point="-0.674939 -0.908469 0.637970 -0.674939 -0.931678 0.711683 -0.674939 0.355888 1.117077 -0.674939 0.379097 1.043364 0.590485 0.379097 1.043364 0.590485 0.355888 1.117077 0.674939 0.355888 1.117077 0.674939 0.379097 1.043364 0.674939 0.379097 1.043364 0.674939 0.355888 1.117077 0.674939 -0.931678 0.711683 0.674939 -0.908469 0.637970 -0.590485 -0.908469 0.637970 -0.590485 -0.931678 0.711683 -0.674939 -0.931678 0.711683 -0.674939 -0.908469 0.637970 0.590485 0.643783 0.202697 0.674939 0.643783 0.202697 0.674939 -0.643783 -0.202697 0.590485 -0.643783 -0.202697 -0.590485 0.355888 1.117077 -0.674939 0.355888 1.117077 -0.590485 -0.931678 0.711683 -0.590485 -0.643783 -0.202697 -0.590485 -0.769832 0.197647 -0.674939 -0.769832 0.197647 -0.674939 -0.643783 -0.202697 0.674939 0.643783 0.202697 0.674939 0.517734 0.603040 0.674939 -0.769832 0.197647 0.674939 -0.643783 -0.202697 0.590485 0.643783 0.202697 0.590485 0.517734 0.603040 0.674939 0.517734 0.603040 0.674939 0.643783 0.202697 -0.674939 -0.643783 -0.202697 -0.674939 -0.769832 0.197647 -0.674939 0.517734 0.603040 -0.674939 0.643783 0.202697 -0.674939 0.643783 0.202697 -0.674939 0.517734 0.603040 -0.590485 0.517734 0.603040 -0.590485 0.643783 0.202697 0.235049 0.643783 0.202697 0.235049 0.517734 0.603040 0.674939 -0.643783 -0.202697 0.674939 -0.769832 0.197647 0.590485 -0.769832 0.197647 0.590485 -0.643783 -0.202697 -0.235049 -0.643783 -0.202697 -0.235049 -0.769832 0.197647 0.674939 0.355888 1.117077 0.590485 0.355888 1.117077 0.590485 -0.931678 0.711683 0.674939 -0.931678 0.711683 -0.235049 0.355888 1.117077 -0.235049 -0.931678 0.711683 -0.590485 0.643783 0.202697 -0.590485 -0.643783 -0.202697 0.235049 0.643783 0.202697 0.235049 -0.643783 -0.202697 0.674939 -0.908469 0.637970 0.674939 -0.931678 0.711683 0.590485 -0.931678 0.711683 0.590485 -0.908469 0.637970 -0.235049 -0.908469 0.637970 -0.235049 -0.931678 0.711683 -0.674939 0.379097 1.043364 -0.590485 0.355888 1.117077 -0.590485 0.379097 1.043364 0.235049 0.379097 1.043364 0.235049 0.355888 1.117077 -0.235049 0.355888 1.117077 -0.235049 0.379097 1.043364 0.235049 -0.931678 0.711683 0.235049 -0.908469 0.637970 -0.235049 0.643783 0.202697 -0.235049 -0.643783 -0.202697 0.235049 0.355888 1.117077 0.235049 -0.931678 0.711683 0.235049 -0.769832 0.197647 0.235049 -0.643783 -0.202697 -0.235049 0.517734 0.603040 -0.235049 0.643783 0.202697 " />
								<Normal vector="-0.707083 -0.674459 -0.212348 -0.577349 -0.724082 0.377300 -0.577349 0.377300 0.724082 -0.707083 0.674459 0.212348 0.000000 0.953825 0.300302 0.000000 0.462081 0.886807 0.577349 0.377300 0.724082 0.707083 0.674459 0.212348 0.707083 0.674459 0.212348 0.577349 0.377300 0.724082 0.577349 -0.724082 0.377300 0.707083 -0.674459 -0.212348 0.000000 -0.953825 -0.300302 0.000000 -0.886807 0.462081 -0.577349 -0.724082 0.377300 -0.707083 -0.674459 -0.212348 0.000000 0.886807 -0.462081 0.577349 0.724082 -0.377300 0.577349 -0.377300 -0.724082 0.000000 -0.462081 -0.886807 0.000000 0.462081 0.886807 -0.577349 0.377300 0.724082 0.000000 -0.886807 0.462081 0.000000 -0.462081 -0.886807 0.000000 -0.953825 -0.300302 -0.707083 -0.674459 -0.212348 -0.577349 -0.377300 -0.724082 0.577349 0.724082 -0.377300 0.707083 0.674459 0.212348 0.707083 -0.674459 -0.212348 0.577349 -0.377300 -0.724082 0.000000 0.886807 -0.462081 0.000000 0.953825 0.300302 0.707083 0.674459 0.212348 0.577349 0.724082 -0.377300 -0.577349 -0.377300 -0.724082 -0.707083 -0.674459 -0.212348 -0.707083 0.674459 0.212348 -0.577349 0.724082 -0.377300 -0.577349 0.724082 -0.377300 -0.707083 0.674459 0.212348 0.000000 0.953825 0.300302 0.000000 0.886807 -0.462081 0.000000 0.886807 -0.462081 0.000000 0.953825 0.300302 0.577349 -0.377300 -0.724082 0.707083 -0.674459 -0.212348 0.000000 -0.953825 -0.300302 0.000000 -0.462081 -0.886807 0.000000 -0.462081 -0.886807 0.000000 -0.953825 -0.300302 0.577349 0.377300 0.724082 0.000000 0.462081 0.886807 0.000000 -0.886807 0.462081 0.577349 -0.724082 0.377300 0.000000 0.462081 0.886807 0.000000 -0.886807 0.462081 0.000000 0.886807 -0.462081 0.000000 -0.462081 -0.886807 0.000000 0.886807 -0.462081 0.000000 -0.462081 -0.886807 0.707083 -0.674459 -0.212348 0.577349 -0.724082 0.377300 0.000000 -0.886807 0.462081 0.000000 -0.953825 -0.300302 0.000000 -0.953825 -0.300302 0.000000 -0.886807 0.462081 -0.707083 0.674459 0.212348 0.000000 0.462081 0.886807 0.000000 0.953825 0.300302 0.000000 0.953825 0.300302 0.000000 0.462081 0.886807 0.000000 0.462081 0.886807 0.000000 0.953825 0.300302 0.000000 -0.886807 0.462081 0.000000 -0.953825 -0.300302 0.000000 0.886807 -0.462081 0.000000 -0.462081 -0.886807 0.000000 0.462081 0.886807 0.000000 -0.886807 0.462081 0.000000 -0.953825 -0.300302 0.000000 -0.462081 -0.886807 0.000000 0.953825 0.300302 0.000000 0.886807 -0.462081 " />
								<TextureCoordinate point="0.4422 0.5255 0.4784 0.5255 0.4784 0.9745 0.4422 0.9745 0.4422 0.8248 0.4784 0.8248 0.4784 0.9745 0.4422 0.9745 0.4422 0.5255 0.4784 0.5255 0.4784 0.9745 0.4422 0.9745 0.4422 0.8248 0.4784 0.8248 0.4784 0.9745 0.4422 0.9745 0.3287 0.5255 0.4784 0.5255 0.4784 0.9745 0.3287 0.9745 0.3287 0.5255 0.4784 0.5255 0.3287 0.9745 0.0294 0.8248 0.2260 0.8248 0.2260 0.9745 0.0294 0.9745 0.0294 0.5255 0.2260 0.5255 0.2260 0.9745 0.0294 0.9745 0.0294 0.8248 0.2260 0.8248 0.2260 0.9745 0.0294 0.9745 0.0294 0.5255 0.2260 0.5255 0.2260 0.9745 0.0294 0.9745 0.0294 0.5255 0.2260 0.5255 0.2260 0.6752 0.0294 0.6752 0.0294 0.7750 0.2260 0.7750 0.0294 0.5255 0.2260 0.5255 0.2260 0.6752 0.0294 0.6752 0.0294 0.7750 0.2260 0.7750 0.0294 0.5255 0.1791 0.5255 0.1791 0.9745 0.0294 0.9745 0.2788 0.5255 0.2788 0.9745 0.1791 0.5255 0.1791 0.9745 0.2788 0.5255 0.2788 0.9745 0.4422 0.5255 0.4784 0.5255 0.4784 0.6752 0.4422 0.6752 0.4422 0.7750 0.4784 0.7750 0.4422 0.5255 0.4784 0.6752 0.4422 0.6752 0.4422 0.7750 0.4784 0.7750 0.4784 0.7250 0.4422 0.7250 0.4784 0.7250 0.4422 0.7250 0.2290 0.5255 0.2290 0.9745 0.2290 0.5255 0.2290 0.9745 0.2260 0.7250 0.0294 0.7250 0.2260 0.7250 0.0294 0.7250 " />
							</IndexedTriangleSet>
						</Shape>
						<Shape>
							<Appearance>
								<Material DEF="MA_Eye"
								          diffuseColor="0.800 0.800 0.800"
								          specularColor="0.401 0.401 0.401"
								          emissiveColor="0.000 0.000 0.000"
								          ambientIntensity="0.000"
								          shininess="0.500"
								          transparency="0.0"
								          />
							</Appearance>
							<IndexedTriangleSet solid="false"
							                    normalPerVertex="true"
							                    index="0 1 2 0 2 3 4 5 6 4 6 7 "
							                    >
								<Coordinate point="0.590485 -0.769832 0.197647 0.590485 -0.908469 0.637970 0.235049 -0.908469 0.637970 0.235049 -0.769832 0.197647 -0.235049 -0.769832 0.197647 -0.235049 -0.908469 0.637970 -0.590485 -0.908469 0.637970 -0.590485 -0.769832 0.197647 " />
								<Normal vector="0.000000 -0.953825 -0.300302 0.000000 -0.953825 -0.300302 0.000000 -0.953825 -0.300302 0.000000 -0.953825 -0.300302 0.000000 -0.953825 -0.300302 0.000000 -0.953825 -0.300302 0.000000 -0.953825 -0.300302 0.000000 -0.953825 -0.300302 " />
								<TextureCoordinate point="0.8723 0.5207 0.8723 0.9912 0.1277 0.9912 0.1277 0.5207 0.8723 0.5207 0.8723 0.9912 0.1277 0.9912 0.1277 0.5207 " />
							</IndexedTriangleSet>
						</Shape>
					</Group>
				</Transform>
				<Transform DEF="Cube_004_TRANSFORM"
				           translation="0.000000 -0.063487 -0.073375"
				           scale="1.000000 1.000000 1.000000"
				           rotation="0.000000 1.000000 0.000000 0.000000"
				           >
					<Transform DEF="Cube_004_ifs_TRANSFORM"
					           translation="0.000000 0.000000 0.000000"
					           scale="1.000000 1.000000 1.000000"
					           rotation="0.000000 1.000000 0.000000 0.000000"
					           >
						<Group DEF="group_ME_Cube_004">
							<Shape>
								<Appearance>
									<Material USE="MA_Body" />
								</Appearance>
								<IndexedTriangleSet solid="false"
								                    normalPerVertex="true"
								                    index="0 1 2 0 2 3 4 5 6 4 6 7 8 9 10 8 10 11 12 13 14 12 14 15 4 16 17 4 17 15 18 5 14 18 14 19 "
								                    >
									<Coordinate point="-0.786665 -0.367144 -0.115596 -0.786665 -0.557538 0.489112 -0.786665 0.176749 0.720304 -0.786665 0.367144 0.115596 -0.786665 0.367144 0.115596 -0.786665 0.176749 0.720304 0.786665 0.176749 0.720304 0.786665 0.367144 0.115596 0.786665 0.367144 0.115596 0.786665 0.176749 0.720304 0.786665 -0.557538 0.489112 0.786665 -0.367144 -0.115596 0.786665 -0.367144 -0.115596 0.786665 -0.557538 0.489112 -0.786665 -0.557538 0.489112 -0.786665 -0.367144 -0.115596 0.786665 0.367144 0.115596 0.786665 -0.367144 -0.115596 0.786665 0.176749 0.720304 0.786665 -0.557538 0.489112 " />
									<Normal vector="-0.577349 -0.377300 -0.724082 -0.577349 -0.724082 0.377300 -0.577349 0.377300 0.724082 -0.577349 0.724082 -0.377300 -0.577349 0.724082 -0.377300 -0.577349 0.377300 0.724082 0.577349 0.377300 0.724082 0.577349 0.724082 -0.377300 0.577349 0.724082 -0.377300 0.577349 0.377300 0.724082 0.577349 -0.724082 0.377300 0.577349 -0.377300 -0.724082 0.577349 -0.377300 -0.724082 0.577349 -0.724082 0.377300 -0.577349 -0.724082 0.377300 -0.577349 -0.377300 -0.724082 0.577349 0.724082 -0.377300 0.577349 -0.377300 -0.724082 0.577349 0.377300 0.724082 0.577349 -0.724082 0.377300 " />
									<TextureCoordinate point="0.0294 0.5255 0.4784 0.5255 0.4784 0.9745 0.0294 0.9745 0.0294 0.5255 0.4784 0.5255 0.4784 0.9745 0.0294 0.9745 0.0294 0.5255 0.4784 0.5255 0.4784 0.9745 0.0294 0.9745 0.0294 0.5255 0.4784 0.5255 0.4784 0.9745 0.0294 0.9745 0.4784 0.5255 0.4784 0.9745 0.0294 0.5255 0.0294 0.9745 " />
								</IndexedTriangleSet>
							</Shape>
						</Group>
					</Transform>
				</Transform>
				<Transform DEF="Cube_005_TRANSFORM"
				           translation="0.000000 -0.533955 -0.027326"
				           scale="1.000000 1.000000 1.000000"
				           rotation="0.000000 1.000000 0.000000 0.000000"
				           >
					<Transform DEF="Cube_005_ifs_TRANSFORM"
					           translation="0.000000 0.000000 0.000000"
					           scale="1.000000 1.000000 1.000000"
					           rotation="0.000000 1.000000 0.000000 0.000000"
					           >
						<Group DEF="group_ME_Cube_005">
							<Shape>
								<Appearance>
									<Material USE="MA_Body" />
								</Appearance>
								<IndexedTriangleSet solid="false"
								                    normalPerVertex="true"
								                    index="0 1 2 0 2 3 4 5 6 4 6 7 8 9 10 8 10 11 12 13 14 12 14 15 4 16 17 4 17 15 18 5 14 18 14 19 "
								                    >
									<Coordinate point="-0.346896 0.101491 -0.247568 -0.346896 -0.315821 -0.418647 -0.346896 -0.518804 0.076490 -0.346896 -0.101491 0.247568 -0.346896 -0.101491 0.247568 -0.346896 -0.518804 0.076490 0.346896 -0.518804 0.076490 0.346896 -0.101491 0.247568 0.346896 -0.101491 0.247568 0.346896 -0.518804 0.076490 0.346896 -0.315821 -0.418647 0.346896 0.101491 -0.247568 0.346896 0.101491 -0.247568 0.346896 -0.315821 -0.418647 -0.346896 -0.315821 -0.418647 -0.346896 0.101491 -0.247568 0.346896 -0.101491 0.247568 0.346896 0.101491 -0.247568 0.346896 -0.518804 0.076490 0.346896 -0.315821 -0.418647 " />
									<Normal vector="-0.577349 0.753197 -0.315195 -0.577349 -0.315195 -0.753197 -0.577349 -0.753197 0.315195 -0.577349 0.315195 0.753197 -0.577349 0.315195 0.753197 -0.577349 -0.753197 0.315195 0.577349 -0.753197 0.315195 0.577349 0.315195 0.753197 0.577349 0.315195 0.753197 0.577349 -0.753197 0.315195 0.577349 -0.315195 -0.753197 0.577349 0.753197 -0.315195 0.577349 0.753197 -0.315195 0.577349 -0.315195 -0.753197 -0.577349 -0.315195 -0.753197 -0.577349 0.753197 -0.315195 0.577349 0.315195 0.753197 0.577349 0.753197 -0.315195 0.577349 -0.753197 0.315195 0.577349 -0.315195 -0.753197 " />
									<TextureCoordinate point="0.5294 0.7075 0.9784 0.7075 0.9784 0.9800 0.5294 0.9800 0.5294 0.7075 0.9784 0.7075 0.9784 0.9800 0.5294 0.9800 0.5294 0.7075 0.9784 0.7075 0.9784 0.9800 0.5294 0.9800 0.5294 0.7075 0.9784 0.7075 0.9784 0.9800 0.5294 0.9800 0.9784 0.7075 0.9784 0.9800 0.5294 0.7075 0.5294 0.9800 " />
								</IndexedTriangleSet>
							</Shape>
						</Group>
					</Transform>
					<Transform DEF="Cube_006_TRANSFORM"
					           translation="0.393793 -0.066727 0.014273"
					           scale="1.000000 1.000000 1.000000"
					           rotation="0.000000 1.000000 0.000000 0.000000"
					           >
						<Transform DEF="Cube_006_ifs_TRANSFORM"
						           translation="0.000000 0.000000 0.000000"
						           scale="1.000000 1.000000 1.000000"
						           rotation="0.000000 1.000000 0.000000 0.000000"
						           >
							<Group DEF="group_ME_Cube_006">
								<Shape>
									<Appearance>
										<Material USE="MA_Body" />
									</Appearance>
									<IndexedTriangleSet solid="false"
									                    normalPerVertex="true"
									                    index="0 1 2 0 2 3 4 5 6 4 6 7 8 9 10 8 10 11 12 13 14 12 14 15 4 16 17 4 17 15 18 5 14 18 14 19 "
									                    >
										<Coordinate point="-0.310670 0.074535 -0.258619 -0.280111 -0.226977 -0.382225 -0.280111 -0.429959 0.112912 -0.310670 -0.128448 0.236517 -0.310670 -0.128448 0.236517 -0.280111 -0.429959 0.112912 0.341229 -0.376046 0.135013 0.310670 -0.074535 0.258619 0.310670 -0.074535 0.258619 0.341229 -0.376046 0.135013 0.341229 -0.173064 -0.360123 0.310670 0.128448 -0.236517 0.310670 0.128448 -0.236517 0.341229 -0.173064 -0.360123 -0.280111 -0.226977 -0.382225 -0.310670 0.074535 -0.258619 0.310670 -0.074535 0.258619 0.310670 0.128448 -0.236517 0.341229 -0.376046 0.135013 0.341229 -0.173064 -0.360123 " />
										<Normal vector="-0.628712 0.700980 -0.336589 -0.520920 -0.362743 -0.772668 -0.520920 -0.800745 0.295694 -0.628712 0.262978 0.731773 -0.628712 0.262978 0.731773 -0.520920 -0.800745 0.295694 0.628712 -0.700980 0.336589 0.520920 0.362743 0.772668 0.520920 0.362743 0.772668 0.628712 -0.700980 0.336589 0.628712 -0.262978 -0.731773 0.520920 0.800745 -0.295694 0.520920 0.800745 -0.295694 0.628712 -0.262978 -0.731773 -0.520920 -0.362743 -0.772668 -0.628712 0.700980 -0.336589 0.520920 0.362743 0.772668 0.520920 0.800745 -0.295694 0.628712 -0.700980 0.336589 0.628712 -0.262978 -0.731773 " />
										<TextureCoordinate point="0.5294 0.7075 0.9784 0.7075 0.9784 0.9800 0.5294 0.9800 0.5294 0.7075 0.9784 0.7075 0.9784 0.9800 0.5294 0.9800 0.5294 0.7075 0.9784 0.7075 0.9784 0.9800 0.5294 0.9800 0.5294 0.7075 0.9784 0.7075 0.9784 0.9800 0.5294 0.9800 0.9784 0.7075 0.9784 0.9800 0.5294 0.7075 0.5294 0.9800 " />
									</IndexedTriangleSet>
								</Shape>
							</Group>
						</Transform>
					</Transform>
					<Transform DEF="Cube_016_TRANSFORM"
					           translation="-0.393793 -0.066727 0.014273"
					           scale="1.000000 1.000000 1.000000"
					           rotation="0.000000 1.000000 0.000000 0.000000"
					           >
						<Transform DEF="Cube_016_ifs_TRANSFORM"
						           translation="0.000000 0.000000 0.000000"
						           scale="1.000000 1.000000 1.000000"
						           rotation="0.000000 1.000000 0.000000 0.000000"
						           >
							<Group DEF="group_ME_Cube_016">
								<Shape>
									<Appearance>
										<Material USE="MA_Body" />
									</Appearance>
									<IndexedTriangleSet solid="false"
									                    normalPerVertex="true"
									                    index="0 1 2 0 2 3 4 5 6 4 6 7 8 9 10 8 10 11 12 13 14 12 14 15 4 13 16 4 16 17 18 19 14 18 14 7 "
									                    >
										<Coordinate point="0.310670 0.074535 -0.258619 0.310670 -0.128448 0.236517 0.280111 -0.429959 0.112912 0.280111 -0.226977 -0.382225 0.310670 -0.128448 0.236517 -0.310670 -0.074535 0.258619 -0.341229 -0.376046 0.135013 0.280111 -0.429959 0.112912 -0.310670 -0.074535 0.258619 -0.310670 0.128448 -0.236517 -0.341229 -0.173064 -0.360123 -0.341229 -0.376046 0.135013 -0.310670 0.128448 -0.236517 0.310670 0.074535 -0.258619 0.280111 -0.226977 -0.382225 -0.341229 -0.173064 -0.360123 -0.310670 0.128448 -0.236517 -0.310670 -0.074535 0.258619 -0.341229 -0.376046 0.135013 -0.341229 -0.173064 -0.360123 " />
										<Normal vector="0.628712 0.700980 -0.336589 0.628712 0.262978 0.731773 0.520920 -0.800745 0.295694 0.520920 -0.362743 -0.772668 0.628712 0.262978 0.731773 -0.520920 0.362743 0.772668 -0.628712 -0.700980 0.336589 0.520920 -0.800745 0.295694 -0.520920 0.362743 0.772668 -0.520920 0.800745 -0.295694 -0.628712 -0.262978 -0.731773 -0.628712 -0.700980 0.336589 -0.520920 0.800745 -0.295694 0.628712 0.700980 -0.336589 0.520920 -0.362743 -0.772668 -0.628712 -0.262978 -0.731773 -0.520920 0.800745 -0.295694 -0.520920 0.362743 0.772668 -0.628712 -0.700980 0.336589 -0.628712 -0.262978 -0.731773 " />
										<TextureCoordinate point="0.5294 0.7075 0.5294 0.9800 0.9784 0.9800 0.9784 0.7075 0.5294 0.7075 0.5294 0.9800 0.9784 0.9800 0.9784 0.7075 0.5294 0.7075 0.5294 0.9800 0.9784 0.9800 0.9784 0.7075 0.5294 0.7075 0.5294 0.9800 0.9784 0.9800 0.9784 0.7075 0.9784 0.9800 0.9784 0.7075 0.5294 0.7075 0.5294 0.9800 " />
									</IndexedTriangleSet>
								</Shape>
							</Group>
						</Transform>
					</Transform>
				</Transform>
				<Transform DEF="Cube_007_TRANSFORM"
				           translation="0.000000 -0.809518 0.176850"
				           scale="1.000000 1.000000 1.000000"
				           rotation="0.000000 1.000000 0.000000 0.000000"
				           >
					<Transform DEF="Cube_007_ifs_TRANSFORM"
					           translation="0.000000 0.000000 0.000000"
					           scale="1.000000 1.000000 1.000000"
					           rotation="0.000000 1.000000 0.000000 0.000000"
					           >
						<Group DEF="group_ME_Cube_007">
							<Shape>
								<Appearance>
									<Material USE="MA_Body" />
								</Appearance>
								<IndexedTriangleSet solid="false"
								                    normalPerVertex="true"
								                    index="0 1 2 0 2 3 4 5 6 4 6 7 8 9 10 8 10 11 12 13 14 12 14 15 4 16 17 4 17 15 18 5 14 18 14 19 "
								                    >
									<Coordinate point="-0.087942 0.023597 -0.044918 -0.087942 -0.120827 -0.120788 -0.087942 -0.168020 -0.030952 -0.087942 -0.023597 0.044918 -0.087942 -0.023597 0.044918 -0.087942 -0.168020 -0.030952 0.087942 -0.168020 -0.030952 0.087942 -0.023597 0.044918 0.087942 -0.023597 0.044918 0.087942 -0.168020 -0.030952 0.087942 -0.120827 -0.120788 0.087942 0.023597 -0.044918 0.087942 0.023597 -0.044918 0.087942 -0.120827 -0.120788 -0.087942 -0.120827 -0.120788 -0.087942 0.023597 -0.044918 0.087942 -0.023597 0.044918 0.087942 0.023597 -0.044918 0.087942 -0.168020 -0.030952 0.087942 -0.120827 -0.120788 " />
									<Normal vector="-0.577349 0.779595 -0.242592 -0.577349 -0.242592 -0.779595 -0.577349 -0.779595 0.242592 -0.577349 0.242592 0.779595 -0.577349 0.242592 0.779595 -0.577349 -0.779595 0.242592 0.577349 -0.779595 0.242592 0.577349 0.242592 0.779595 0.577349 0.242592 0.779595 0.577349 -0.779595 0.242592 0.577349 -0.242592 -0.779595 0.577349 0.779595 -0.242592 0.577349 0.779595 -0.242592 0.577349 -0.242592 -0.779595 -0.577349 -0.242592 -0.779595 -0.577349 0.779595 -0.242592 0.577349 0.242592 0.779595 0.577349 0.779595 -0.242592 0.577349 -0.779595 0.242592 0.577349 -0.242592 -0.779595 " />
									<TextureCoordinate point="0.5212 0.3407 0.9788 0.3407 0.9788 0.6593 0.5212 0.6593 0.5212 0.3407 0.9788 0.3407 0.9788 0.6593 0.5212 0.6593 0.5212 0.3407 0.9788 0.3407 0.9788 0.6593 0.5212 0.6593 0.5212 0.3407 0.9788 0.3407 0.9788 0.6593 0.5212 0.6593 0.9788 0.3407 0.9788 0.6593 0.5212 0.3407 0.5212 0.6593 " />
								</IndexedTriangleSet>
							</Shape>
						</Group>
					</Transform>
				</Transform>
				<Transform DEF="l_TRANSFORM"
				           translation="0.000000 -0.904120 -0.109598"
				           scale="1.000000 1.000000 1.000000"
				           rotation="0.000000 1.000000 0.000000 0.000000"
				           >
					<Transform DEF="l_ifs_TRANSFORM"
					           translation="0.000000 0.000000 0.000000"
					           scale="1.000000 1.000000 1.000000"
					           rotation="0.000000 1.000000 0.000000 0.000000"
					           >
						<Group DEF="group_ME_l">
							<Shape>
								<Appearance>
									<Material USE="MA_Body" />
								</Appearance>
								<IndexedTriangleSet solid="false"
								                    normalPerVertex="true"
								                    index="0 1 2 0 2 3 4 5 6 4 6 7 8 9 10 8 10 11 12 13 14 12 14 15 4 16 17 4 17 15 18 5 14 18 14 19 "
								                    >
									<Coordinate point="-0.297777 -0.150042 -0.323884 -0.297777 -0.262444 -0.241944 -0.297777 -0.056201 0.040970 -0.297777 0.056201 -0.040970 -0.297777 0.056201 -0.040970 -0.297777 -0.056201 0.040970 0.297777 -0.056201 0.040970 0.297777 0.056201 -0.040970 0.297777 0.056201 -0.040970 0.297777 -0.056201 0.040970 0.297777 -0.262444 -0.241944 0.297777 -0.150042 -0.323884 0.297777 -0.150042 -0.323884 0.297777 -0.262444 -0.241944 -0.297777 -0.262444 -0.241944 -0.297777 -0.150042 -0.323884 0.297777 0.056201 -0.040970 0.297777 -0.150042 -0.323884 0.297777 -0.056201 0.040970 0.297777 -0.262444 -0.241944 " />
									<Normal vector="-0.577349 0.126408 -0.806635 -0.577349 -0.806635 -0.126408 -0.577349 -0.126408 0.806635 -0.577349 0.806635 0.126408 -0.577349 0.806635 0.126408 -0.577349 -0.126408 0.806635 0.577349 -0.126408 0.806635 0.577349 0.806635 0.126408 0.577349 0.806635 0.126408 0.577349 -0.126408 0.806635 0.577349 -0.806635 -0.126408 0.577349 0.126408 -0.806635 0.577349 0.126408 -0.806635 0.577349 -0.806635 -0.126408 -0.577349 -0.806635 -0.126408 -0.577349 0.126408 -0.806635 0.577349 0.806635 0.126408 0.577349 0.126408 -0.806635 0.577349 -0.126408 0.806635 0.577349 -0.806635 -0.126408 " />
									<TextureCoordinate point="0.0388 0.0427 0.4690 0.0427 0.4690 0.4729 0.0388 0.4729 0.0388 0.0427 0.4690 0.0427 0.4690 0.4729 0.0388 0.4729 0.0388 0.0427 0.4690 0.0427 0.4690 0.4729 0.0388 0.4729 0.0388 0.0427 0.4690 0.0427 0.4690 0.4729 0.0388 0.4729 0.4690 0.0427 0.4690 0.4729 0.0388 0.0427 0.0388 0.4729 " />
								</IndexedTriangleSet>
							</Shape>
						</Group>
					</Transform>
				</Transform>
				<Transform DEF="Cube_017_TRANSFORM"
				           translation="0.000000 -0.377845 0.873319"
				           scale="1.000000 1.000000 1.000000"
				           rotation="0.000000 1.000000 0.000000 0.000000"
				           >
					<Transform DEF="Cube_017_ifs_TRANSFORM"
					           translation="0.000000 0.000000 0.000000"
					           scale="1.000000 1.000000 1.000000"
					           rotation="0.000000 1.000000 0.000000 0.000000"
					           >
						<Group DEF="group_ME_Cube_017">
							<Shape>
								<Appearance>
									<Material USE="MA_Body" />
								</Appearance>
								<IndexedTriangleSet solid="false"
								                    normalPerVertex="true"
								                    index="0 1 2 0 2 3 4 5 6 4 6 7 8 9 10 8 10 11 12 13 14 12 14 15 4 16 17 4 17 15 18 5 14 18 14 19 "
								                    >
									<Coordinate point="-0.160186 -0.047509 0.161925 0.000000 0.106198 0.207023 0.000000 0.153707 0.045098 -0.160186 0.000000 0.000000 -0.160186 0.000000 0.000000 0.000000 0.153707 0.045098 0.160186 -0.000000 -0.000000 0.000000 -0.153707 -0.045098 0.000000 -0.153707 -0.045098 0.160186 -0.000000 -0.000000 0.160186 -0.047509 0.161925 0.000000 -0.201216 0.116828 0.000000 -0.201216 0.116828 0.160186 -0.047509 0.161925 0.000000 0.106198 0.207023 -0.160186 -0.047509 0.161925 0.000000 -0.153707 -0.045098 0.000000 -0.201216 0.116828 0.160186 -0.000000 -0.000000 0.160186 -0.047509 0.161925 " />
									<Normal vector="-0.816492 -0.162542 0.553972 0.000000 0.620899 0.783837 0.000000 0.946013 -0.324107 -0.816492 0.162542 -0.553972 -0.816492 0.162542 -0.553972 0.000000 0.946013 -0.324107 0.816492 0.162542 -0.553972 0.000000 -0.620899 -0.783837 0.000000 -0.620899 -0.783837 0.816492 0.162542 -0.553972 0.816492 -0.162542 0.553972 0.000000 -0.946013 0.324107 0.000000 -0.946013 0.324107 0.816492 -0.162542 0.553972 0.000000 0.620899 0.783837 -0.816492 -0.162542 0.553972 0.000000 -0.620899 -0.783837 0.000000 -0.946013 0.324107 0.816492 0.162542 -0.553972 0.816492 -0.162542 0.553972 " />
									<TextureCoordinate point="0.0294 0.5255 0.4784 0.5255 0.4784 0.9745 0.0294 0.9745 0.0294 0.5255 0.4784 0.5255 0.4784 0.9745 0.0294 0.9745 0.0294 0.5255 0.4784 0.5255 0.4784 0.9745 0.0294 0.9745 0.0294 0.5255 0.4784 0.5255 0.4784 0.9745 0.0294 0.9745 0.4784 0.5255 0.4784 0.9745 0.0294 0.5255 0.0294 0.9745 " />
								</IndexedTriangleSet>
							</Shape>
						</Group>
					</Transform>
					<Transform DEF="Cube_019_TRANSFORM"
					           translation="0.000000 -0.044531 0.151773"
					           scale="1.000000 1.000000 1.000000"
					           rotation="0.000000 1.000000 0.000000 0.000000"
					           >
						<Transform DEF="Cube_019_ifs_TRANSFORM"
						           translation="0.000000 0.000000 0.000000"
						           scale="1.000000 1.000000 1.000000"
						           rotation="0.000000 1.000000 0.000000 0.000000"
						           >
							<Group DEF="group_ME_Cube_019">
								<Shape>
									<Appearance>
										<Material USE="MA_Body" />
									</Appearance>
									<IndexedTriangleSet solid="false"
									                    normalPerVertex="true"
									                    index="0 1 2 0 2 3 4 5 6 4 6 7 8 9 10 8 10 11 12 13 14 12 14 15 4 16 17 4 17 15 18 5 14 18 14 19 "
									                    >
										<Coordinate point="-0.109855 -0.058650 0.199899 0.000000 0.046761 0.230827 0.000000 0.105411 0.030928 -0.109855 0.000000 0.000000 -0.109855 0.000000 0.000000 0.000000 0.105411 0.030928 0.109855 0.000000 -0.000000 -0.000000 -0.105411 -0.030928 -0.000000 -0.105411 -0.030928 0.109855 0.000000 -0.000000 0.109855 -0.058650 0.199899 0.000000 -0.164062 0.168971 0.000000 -0.164062 0.168971 0.109855 -0.058650 0.199899 0.000000 0.046761 0.230827 -0.109855 -0.058650 0.199899 -0.000000 -0.105411 -0.030928 0.000000 -0.164062 0.168971 0.109855 0.000000 -0.000000 0.109855 -0.058650 0.199899 " />
										<Normal vector="-0.816492 -0.162542 0.553972 0.000000 0.620899 0.783837 0.000000 0.946013 -0.324107 -0.816492 0.162542 -0.553972 -0.816492 0.162542 -0.553972 0.000000 0.946013 -0.324107 0.816492 0.162542 -0.553972 0.000000 -0.620899 -0.783837 0.000000 -0.620899 -0.783837 0.816492 0.162542 -0.553972 0.816492 -0.162542 0.553972 0.000000 -0.946013 0.324107 0.000000 -0.946013 0.324107 0.816492 -0.162542 0.553972 0.000000 0.620899 0.783837 -0.816492 -0.162542 0.553972 0.000000 -0.620899 -0.783837 0.000000 -0.946013 0.324107 0.816492 0.162542 -0.553972 0.816492 -0.162542 0.553972 " />
										<TextureCoordinate point="0.0294 0.5255 0.4784 0.5255 0.4784 0.9745 0.0294 0.9745 0.0294 0.5255 0.4784 0.5255 0.4784 0.9745 0.0294 0.9745 0.0294 0.5255 0.4784 0.5255 0.4784 0.9745 0.0294 0.9745 0.0294 0.5255 0.4784 0.5255 0.4784 0.9745 0.0294 0.9745 0.4784 0.5255 0.4784 0.9745 0.0294 0.5255 0.0294 0.9745 " />
									</IndexedTriangleSet>
								</Shape>
							</Group>
						</Transform>
					</Transform>
				</Transform>
				<Transform DEF="Cube_018_TRANSFORM"
				           translation="0.394179 -0.837159 -0.250775"
				           scale="1.000000 1.000000 1.000000"
				           rotation="0.000000 1.000000 0.000000 0.000000"
				           >
					<Transform DEF="Cube_018_ifs_TRANSFORM"
					           translation="0.000000 0.000000 0.000000"
					           scale="1.000000 1.000000 1.000000"
					           rotation="0.000000 1.000000 0.000000 0.000000"
					           >
						<Group DEF="group_ME_Cube_018">
							<Shape>
								<Appearance>
									<Material USE="MA_Body" />
								</Appearance>
								<IndexedTriangleSet solid="false"
								                    normalPerVertex="true"
								                    index="0 1 2 0 2 3 4 5 6 4 6 7 8 9 10 8 10 11 12 13 14 12 14 15 4 16 17 4 17 15 18 5 14 18 14 19 "
								                    >
									<Coordinate point="0.030334 -0.300297 0.272287 0.025307 -0.166184 0.370109 -0.084873 0.050675 0.067137 -0.079845 -0.083438 -0.030686 -0.079845 -0.083438 -0.030686 -0.084873 0.050675 0.067137 0.079845 0.083438 0.030686 0.084873 -0.050675 -0.067137 0.084873 -0.050675 -0.067137 0.079845 0.083438 0.030686 0.190025 -0.133422 0.333658 0.195052 -0.267535 0.235835 0.195052 -0.267535 0.235835 0.190025 -0.133422 0.333658 0.025307 -0.166184 0.370109 0.030334 -0.300297 0.272287 0.084873 -0.050675 -0.067137 0.195052 -0.267535 0.235835 0.079845 0.083438 0.030686 0.190025 -0.133422 0.333658 " />
									<Normal vector="-0.372173 -0.898526 0.232582 -0.407117 0.033906 0.912717 -0.734550 0.678396 0.012299 -0.699606 -0.254036 -0.667806 -0.699606 -0.254036 -0.667806 -0.734550 0.678396 0.012299 0.372173 0.898526 -0.232582 0.407117 -0.033906 -0.912717 0.407117 -0.033906 -0.912717 0.372173 0.898526 -0.232582 0.699606 0.254036 0.667806 0.734550 -0.678396 -0.012299 0.734550 -0.678396 -0.012299 0.699606 0.254036 0.667806 -0.407117 0.033906 0.912717 -0.372173 -0.898526 0.232582 0.407117 -0.033906 -0.912717 0.734550 -0.678396 -0.012299 0.372173 0.898526 -0.232582 0.699606 0.254036 0.667806 " />
									<TextureCoordinate point="0.5294 0.0274 0.9784 0.0274 0.9784 0.2851 0.5294 0.2851 0.5294 0.0274 0.9784 0.0274 0.9784 0.2851 0.5294 0.2851 0.5294 0.0274 0.9784 0.0274 0.9784 0.2851 0.5294 0.2851 0.5294 0.0274 0.9784 0.0274 0.9784 0.2851 0.5294 0.2851 0.9784 0.0274 0.9784 0.2851 0.5294 0.0274 0.5294 0.2851 " />
								</IndexedTriangleSet>
							</Shape>
						</Group>
					</Transform>
				</Transform>
				<Transform DEF="Cube_010_TRANSFORM"
				           translation="-0.394179 -0.837159 -0.250775"
				           scale="1.000000 1.000000 1.000000"
				           rotation="0.000000 1.000000 0.000000 0.000000"
				           >
					<Transform DEF="Cube_010_ifs_TRANSFORM"
					           translation="0.000000 0.000000 0.000000"
					           scale="1.000000 1.000000 1.000000"
					           rotation="0.000000 1.000000 0.000000 0.000000"
					           >
						<Group DEF="group_ME_Cube_010">
							<Shape>
								<Appearance>
									<Material USE="MA_Body" />
								</Appearance>
								<IndexedTriangleSet solid="false"
								                    normalPerVertex="true"
								                    index="0 1 2 0 2 3 4 5 6 4 6 7 8 9 10 8 10 11 12 13 14 12 14 15 4 13 16 4 16 17 18 19 14 18 14 7 "
								                    >
									<Coordinate point="-0.030334 -0.300297 0.272287 0.079845 -0.083438 -0.030686 0.084873 0.050675 0.067137 -0.025307 -0.166184 0.370109 0.079845 -0.083438 -0.030686 -0.084873 -0.050675 -0.067137 -0.079845 0.083438 0.030686 0.084873 0.050675 0.067137 -0.084873 -0.050675 -0.067137 -0.195052 -0.267535 0.235835 -0.190025 -0.133422 0.333658 -0.079845 0.083438 0.030686 -0.195052 -0.267535 0.235835 -0.030334 -0.300297 0.272287 -0.025307 -0.166184 0.370109 -0.190025 -0.133422 0.333658 -0.195052 -0.267535 0.235835 -0.084873 -0.050675 -0.067137 -0.079845 0.083438 0.030686 -0.190025 -0.133422 0.333658 " />
									<Normal vector="0.372173 -0.898526 0.232582 0.699606 -0.254036 -0.667806 0.734550 0.678396 0.012299 0.407117 0.033906 0.912717 0.699606 -0.254036 -0.667806 -0.407117 -0.033906 -0.912717 -0.372173 0.898526 -0.232582 0.734550 0.678396 0.012299 -0.407117 -0.033906 -0.912717 -0.734550 -0.678396 -0.012299 -0.699606 0.254036 0.667806 -0.372173 0.898526 -0.232582 -0.734550 -0.678396 -0.012299 0.372173 -0.898526 0.232582 0.407117 0.033906 0.912717 -0.699606 0.254036 0.667806 -0.734550 -0.678396 -0.012299 -0.407117 -0.033906 -0.912717 -0.372173 0.898526 -0.232582 -0.699606 0.254036 0.667806 " />
									<TextureCoordinate point="0.5294 0.0274 0.5294 0.2851 0.9784 0.2851 0.9784 0.0274 0.5294 0.0274 0.5294 0.2851 0.9784 0.2851 0.9784 0.0274 0.5294 0.0274 0.5294 0.2851 0.9784 0.2851 0.9784 0.0274 0.5294 0.0274 0.5294 0.2851 0.9784 0.2851 0.9784 0.0274 0.9784 0.2851 0.9784 0.0274 0.5294 0.0274 0.5294 0.2851 " />
								</IndexedTriangleSet>
							</Shape>
						</Group>
					</Transform>
				</Transform>
			</Transform>
			<Transform DEF="tail_TRANSFORM"
			           translation="0.000000 -0.410043 0.006390"
			           scale="1.000000 1.000000 1.000000"
			           rotation="0.000000 1.000000 0.000000 0.000000"
			           >
				<Transform DEF="tail_ifs_TRANSFORM"
				           translation="0.000000 0.000000 0.000000"
				           scale="1.000000 1.000000 1.000000"
				           rotation="0.000000 1.000000 0.000000 0.000000"
				           >
					<Group DEF="group_ME_tail">
						<Shape>
							<Appearance>
								<Material USE="MA_Body" />
							</Appearance>
							<IndexedTriangleSet solid="false"
							                    normalPerVertex="true"
							                    index="0 1 2 0 2 3 4 5 6 4 6 7 8 9 10 8 10 11 12 13 14 12 14 15 4 16 17 4 17 15 18 5 14 18 14 19 "
							                    >
								<Coordinate point="-0.849853 1.195664 0.770546 -0.849853 1.171074 -0.807427 -0.849853 -0.012295 -0.788986 -0.849853 0.012295 0.788986 -0.849853 0.012295 0.788986 -0.849853 -0.012295 -0.788986 0.849853 -0.012295 -0.788986 0.849853 0.012295 0.788986 0.849853 0.012295 0.788986 0.849853 -0.012295 -0.788986 0.849853 1.171074 -0.807427 0.849853 1.195664 0.770546 0.849853 1.195664 0.770546 0.849853 1.171074 -0.807427 -0.849853 1.171074 -0.807427 -0.849853 1.195664 0.770546 0.849853 0.012295 0.788986 0.849853 1.195664 0.770546 0.849853 -0.012295 -0.788986 0.849853 1.171074 -0.807427 " />
								<Normal vector="-0.577349 0.586261 0.568255 -0.577349 0.568255 -0.586261 -0.577349 -0.586261 -0.568255 -0.577349 -0.568255 0.586261 -0.577349 -0.568255 0.586261 -0.577349 -0.586261 -0.568255 0.577349 -0.586261 -0.568255 0.577349 -0.568255 0.586261 0.577349 -0.568255 0.586261 0.577349 -0.586261 -0.568255 0.577349 0.568255 -0.586261 0.577349 0.586261 0.568255 0.577349 0.586261 0.568255 0.577349 0.568255 -0.586261 -0.577349 0.568255 -0.586261 -0.577349 0.586261 0.568255 0.577349 -0.568255 0.586261 0.577349 0.586261 0.568255 0.577349 -0.586261 -0.568255 0.577349 0.568255 -0.586261 " />
								<TextureCoordinate point="0.0294 0.5255 0.4784 0.5255 0.4784 0.9745 0.0294 0.9745 0.0294 0.5255 0.4784 0.5255 0.4784 0.9745 0.0294 0.9745 0.0294 0.5255 0.4784 0.5255 0.4784 0.9745 0.0294 0.9745 0.0294 0.5255 0.4784 0.5255 0.4784 0.9745 0.0294 0.9745 0.4784 0.5255 0.4784 0.9745 0.0294 0.5255 0.0294 0.9745 " />
							</IndexedTriangleSet>
						</Shape>
					</Group>
				</Transform>
				<Transform DEF="tail1_TRANSFORM"
				           translation="0.000000 0.976212 -0.015212"
				           scale="1.000000 1.000000 1.000000"
				           rotation="0.000000 1.000000 0.000000 0.000000"
				           >
					<Transform DEF="tail1_ifs_TRANSFORM"
					           translation="0.000000 0.000000 0.000000"
					           scale="1.000000 1.000000 1.000000"
					           rotation="0.000000 1.000000 0.000000 0.000000"
					           >
						<Group DEF="group_ME_tail1">
							<Shape>
								<Appearance>
									<Material USE="MA_Body" />
								</Appearance>
								<IndexedTriangleSet solid="false"
								                    normalPerVertex="true"
								                    index="0 1 2 0 2 3 4 5 6 4 6 7 8 9 10 8 10 11 12 13 14 12 14 15 4 16 17 4 17 15 18 5 14 18 14 19 "
								                    >
									<Coordinate point="-0.639892 0.668890 0.743697 -0.639892 0.938372 -0.346348 -0.639892 0.134741 -0.545022 -0.639892 -0.134741 0.545022 -0.639892 -0.134741 0.545022 -0.639892 0.134741 -0.545022 0.639892 0.134741 -0.545022 0.639892 -0.134741 0.545022 0.639892 -0.134741 0.545022 0.639892 0.134741 -0.545022 0.639892 0.938372 -0.346348 0.639892 0.668890 0.743697 0.639892 0.668890 0.743697 0.639892 0.938372 -0.346348 -0.639892 0.938372 -0.346348 -0.639892 0.668890 0.743697 0.639892 -0.134741 0.545022 0.639892 0.668890 0.743697 0.639892 0.134741 -0.545022 0.639892 0.938372 -0.346348 " />
									<Normal vector="-0.577349 0.421888 0.699026 -0.577349 0.699026 -0.421888 -0.577349 -0.421888 -0.699026 -0.577349 -0.699026 0.421888 -0.577349 -0.699026 0.421888 -0.577349 -0.421888 -0.699026 0.577349 -0.421888 -0.699026 0.577349 -0.699026 0.421888 0.577349 -0.699026 0.421888 0.577349 -0.421888 -0.699026 0.577349 0.699026 -0.421888 0.577349 0.421888 0.699026 0.577349 0.421888 0.699026 0.577349 0.699026 -0.421888 -0.577349 0.699026 -0.421888 -0.577349 0.421888 0.699026 0.577349 -0.699026 0.421888 0.577349 0.421888 0.699026 0.577349 -0.421888 -0.699026 0.577349 0.699026 -0.421888 " />
									<TextureCoordinate point="0.0294 0.5255 0.4784 0.5255 0.4784 0.9745 0.0294 0.9745 0.0294 0.5255 0.4784 0.5255 0.4784 0.9745 0.0294 0.9745 0.0294 0.5255 0.4784 0.5255 0.4784 0.9745 0.0294 0.9745 0.0294 0.5255 0.4784 0.5255 0.4784 0.9745 0.0294 0.9745 0.4784 0.5255 0.4784 0.9745 0.0294 0.5255 0.0294 0.9745 " />
								</IndexedTriangleSet>
							</Shape>
						</Group>
					</Transform>
					<Transform DEF="tail2_TRANSFORM"
					           translation="0.000000 0.640651 0.192322"
					           scale="1.000000 1.000000 1.000000"
					           rotation="0.000000 1.000000 0.000000 0.000000"
					           >
						<Transform DEF="tail2_ifs_TRANSFORM"
						           translation="0.000000 0.000000 0.000000"
						           scale="1.000000 1.000000 1.000000"
						           rotation="0.000000 1.000000 0.000000 0.000000"
						           >
							<Group DEF="group_ME_tail2">
								<Shape>
									<Appearance>
										<Material USE="MA_Body" />
									</Appearance>
									<IndexedTriangleSet solid="false"
									                    normalPerVertex="true"
									                    index="0 1 2 0 2 3 4 5 6 4 6 7 8 9 10 8 10 11 12 13 14 12 14 15 4 16 17 4 17 15 18 5 14 18 14 19 "
									                    >
										<Coordinate point="-0.267313 0.219751 0.593685 -0.267313 0.581889 0.249312 -0.267313 0.181069 -0.172186 -0.267313 -0.181069 0.172186 -0.267313 -0.181069 0.172186 -0.267313 0.181069 -0.172186 0.267313 0.181069 -0.172186 0.267313 -0.181069 0.172186 0.267313 -0.181069 0.172186 0.267313 0.181069 -0.172186 0.267313 0.581889 0.249312 0.267313 0.219751 0.593685 0.267313 0.219751 0.593685 0.267313 0.581889 0.249312 -0.267313 0.581889 0.249312 -0.267313 0.219751 0.593685 0.267313 -0.181069 0.172186 0.267313 0.219751 0.593685 0.267313 0.181069 -0.172186 0.267313 0.581889 0.249312 " />
										<Normal vector="-0.577349 -0.020508 0.816218 -0.577349 0.816218 0.020508 -0.577349 0.020508 -0.816218 -0.577349 -0.816218 -0.020508 -0.577349 -0.816218 -0.020508 -0.577349 0.020508 -0.816218 0.577349 0.020508 -0.816218 0.577349 -0.816218 -0.020508 0.577349 -0.816218 -0.020508 0.577349 0.020508 -0.816218 0.577349 0.816218 0.020508 0.577349 -0.020508 0.816218 0.577349 -0.020508 0.816218 0.577349 0.816218 0.020508 -0.577349 0.816218 0.020508 -0.577349 -0.020508 0.816218 0.577349 -0.816218 -0.020508 0.577349 -0.020508 0.816218 0.577349 0.020508 -0.816218 0.577349 0.816218 0.020508 " />
										<TextureCoordinate point="0.0294 0.5255 0.4784 0.5255 0.4784 0.9745 0.0294 0.9745 0.0294 0.5255 0.4784 0.5255 0.4784 0.9745 0.0294 0.9745 0.0294 0.5255 0.4784 0.5255 0.4784 0.9745 0.0294 0.9745 0.0294 0.5255 0.4784 0.5255 0.4784 0.9745 0.0294 0.9745 0.4784 0.5255 0.4784 0.9745 0.0294 0.5255 0.0294 0.9745 " />
									</IndexedTriangleSet>
								</Shape>
							</Group>
						</Transform>
						<Transform DEF="tail3_TRANSFORM"
						           translation="0.000000 0.306154 0.342602"
						           scale="1.000000 1.000000 1.000000"
						           rotation="0.000000 1.000000 0.000000 0.000000"
						           >
							<Transform DEF="tail3_ifs_TRANSFORM"
							           translation="0.000000 0.000000 0.000000"
							           scale="1.000000 1.000000 1.000000"
							           rotation="0.000000 1.000000 0.000000 0.000000"
							           >
								<Group DEF="group_ME_tail3">
									<Shape>
										<Appearance>
											<Material USE="MA_Body" />
										</Appearance>
										<IndexedTriangleSet solid="false"
										                    normalPerVertex="true"
										                    index="0 1 2 0 2 3 4 5 6 4 6 7 8 9 10 8 10 11 12 13 14 12 14 15 4 16 17 4 17 15 18 5 14 18 14 19 "
										                    >
											<Coordinate point="-0.237481 0.131907 0.517540 -0.237481 0.426643 0.321282 -0.237481 0.147368 -0.098129 -0.237481 -0.147368 0.098129 -0.237481 -0.147368 0.098129 -0.237481 0.147368 -0.098129 0.237481 0.147368 -0.098129 0.237481 -0.147368 0.098129 0.237481 -0.147368 0.098129 0.237481 0.147368 -0.098129 0.237481 0.426643 0.321282 0.237481 0.131907 0.517540 0.237481 0.131907 0.517540 0.237481 0.426643 0.321282 -0.237481 0.426643 0.321282 -0.237481 0.131907 0.517540 0.237481 -0.147368 0.098129 0.237481 0.131907 0.517540 0.237481 0.147368 -0.098129 0.237481 0.426643 0.321282 " />
											<Normal vector="-0.577349 -0.160558 0.800531 -0.577349 0.800531 0.160558 -0.577349 0.160558 -0.800531 -0.577349 -0.800531 -0.160558 -0.577349 -0.800531 -0.160558 -0.577349 0.160558 -0.800531 0.577349 0.160558 -0.800531 0.577349 -0.800531 -0.160558 0.577349 -0.800531 -0.160558 0.577349 0.160558 -0.800531 0.577349 0.800531 0.160558 0.577349 -0.160558 0.800531 0.577349 -0.160558 0.800531 0.577349 0.800531 0.160558 -0.577349 0.800531 0.160558 -0.577349 -0.160558 0.800531 0.577349 -0.800531 -0.160558 0.577349 -0.160558 0.800531 0.577349 0.160558 -0.800531 0.577349 0.800531 0.160558 " />
											<TextureCoordinate point="0.0294 0.5255 0.4784 0.5255 0.4784 0.9745 0.0294 0.9745 0.0294 0.5255 0.4784 0.5255 0.4784 0.9745 0.0294 0.9745 0.0294 0.5255 0.4784 0.5255 0.4784 0.9745 0.0294 0.9745 0.0294 0.5255 0.4784 0.5255 0.4784 0.9745 0.0294 0.9745 0.4784 0.5255 0.4784 0.9745 0.0294 0.5255 0.0294 0.9745 " />
										</IndexedTriangleSet>
									</Shape>
								</Group>
							</Transform>
							<Transform DEF="tail_1_TRANSFORM"
							           translation="0.078239 0.163211 0.263701"
							           scale="1.000000 1.000000 1.000000"
							           rotation="0.000000 1.000000 0.000000 0.000000"
							           >
								<Transform DEF="tail_1_ifs_TRANSFORM"
								           translation="0.000000 0.000000 0.000000"
								           scale="1.000000 1.000000 1.000000"
								           rotation="0.000000 1.000000 0.000000 0.000000"
								           >
									<Group DEF="group_ME_tail_1">
										<Shape>
											<Appearance>
												<Material USE="MA_Body" />
											</Appearance>
											<IndexedTriangleSet solid="false"
											                    normalPerVertex="true"
											                    index="0 1 2 0 2 3 4 5 6 4 6 7 8 9 10 8 10 11 12 13 14 12 14 15 4 16 17 4 17 15 18 5 14 18 14 19 "
											                    >
												<Coordinate point="-0.152860 -0.186656 0.196433 0.133655 0.085493 0.677997 0.169224 0.547271 0.395866 -0.117291 0.275121 -0.085697 -0.117291 0.275121 -0.085697 0.169224 0.547271 0.395866 0.439375 0.458806 0.285130 0.152860 0.186656 -0.196433 0.152860 0.186656 -0.196433 0.439375 0.458806 0.285130 0.403806 -0.002972 0.567260 0.117291 -0.275121 0.085697 0.117291 -0.275121 0.085697 0.403806 -0.002972 0.567260 0.133655 0.085493 0.677997 -0.152860 -0.186656 0.196433 0.152860 0.186656 -0.196433 0.117291 -0.275121 0.085697 0.439375 0.458806 0.285130 0.403806 -0.002972 0.567260 " />
												<Normal vector="-0.814661 -0.576403 0.063601 -0.283578 -0.071963 0.956236 -0.207831 0.911252 0.355510 -0.738914 0.406781 -0.537095 -0.738914 0.406781 -0.537095 -0.207831 0.911252 0.355510 0.814661 0.576403 -0.063601 0.283578 0.071963 -0.956236 0.283578 0.071963 -0.956236 0.814661 0.576403 -0.063601 0.738914 -0.406781 0.537095 0.207831 -0.911252 -0.355510 0.207831 -0.911252 -0.355510 0.738914 -0.406781 0.537095 -0.283578 -0.071963 0.956236 -0.814661 -0.576403 0.063601 0.283578 0.071963 -0.956236 0.207831 -0.911252 -0.355510 0.814661 0.576403 -0.063601 0.738914 -0.406781 0.537095 " />
												<TextureCoordinate point="0.0294 0.5255 0.4784 0.5255 0.4784 0.9745 0.0294 0.9745 0.0294 0.5255 0.4784 0.5255 0.4784 0.9745 0.0294 0.9745 0.0294 0.5255 0.4784 0.5255 0.4784 0.9745 0.0294 0.9745 0.0294 0.5255 0.4784 0.5255 0.4784 0.9745 0.0294 0.9745 0.4784 0.5255 0.4784 0.9745 0.0294 0.5255 0.0294 0.9745 " />
											</IndexedTriangleSet>
										</Shape>
									</Group>
								</Transform>
								<Transform DEF="Cube_013_TRANSFORM"
								           translation="0.219009 0.227091 0.399303"
								           scale="1.000000 1.000000 1.000000"
								           rotation="0.000000 1.000000 0.000000 0.000000"
								           >
									<Transform DEF="Cube_013_ifs_TRANSFORM"
									           translation="0.000000 0.000000 0.000000"
									           scale="1.000000 1.000000 1.000000"
									           rotation="0.000000 1.000000 0.000000 0.000000"
									           >
										<Group DEF="group_ME_Cube_013">
											<Shape>
												<Appearance>
													<Material USE="MA_Body" />
												</Appearance>
												<IndexedTriangleSet solid="false"
												                    normalPerVertex="true"
												                    index="0 1 2 0 2 3 4 5 6 4 6 7 8 9 10 8 10 11 12 13 14 12 14 15 4 16 17 4 17 15 18 5 14 18 14 19 "
												                    >
													<Coordinate point="-0.221874 -0.337016 0.346200 0.129062 0.019138 0.917816 0.150063 0.819743 0.406092 -0.200874 0.463589 -0.165523 -0.200874 0.463589 -0.165523 0.150063 0.819743 0.406092 0.572810 0.693170 0.225415 0.221874 0.337016 -0.346200 0.221874 0.337016 -0.346200 0.572810 0.693170 0.225415 0.551810 -0.107434 0.737138 0.200873 -0.463589 0.165523 0.200873 -0.463589 0.165523 0.551810 -0.107434 0.737138 0.129062 0.019138 0.917816 -0.221874 -0.337016 0.346200 0.221874 0.337016 -0.346200 0.200873 -0.463589 0.165523 0.572810 0.693170 0.225415 0.551810 -0.107434 0.737138 " />
													<Normal vector="-0.791375 -0.603839 0.095035 -0.257790 -0.062319 0.964171 -0.232276 0.910337 0.342448 -0.765862 0.368816 -0.526658 -0.765862 0.368816 -0.526658 -0.232276 0.910337 0.342448 0.791375 0.603839 -0.095035 0.257790 0.062319 -0.964171 0.257790 0.062319 -0.964171 0.791375 0.603839 -0.095035 0.765862 -0.368816 0.526658 0.232276 -0.910337 -0.342448 0.232276 -0.910337 -0.342448 0.765862 -0.368816 0.526658 -0.257790 -0.062319 0.964171 -0.791375 -0.603839 0.095035 0.257790 0.062319 -0.964171 0.232276 -0.910337 -0.342448 0.791375 0.603839 -0.095035 0.765862 -0.368816 0.526658 " />
													<TextureCoordinate point="0.0294 0.5255 0.4784 0.5255 0.4784 0.9745 0.0294 0.9745 0.0294 0.5255 0.4784 0.5255 0.4784 0.9745 0.0294 0.9745 0.0294 0.5255 0.4784 0.5255 0.4784 0.9745 0.0294 0.9745 0.0294 0.5255 0.4784 0.5255 0.4784 0.9745 0.0294 0.9745 0.4784 0.5255 0.4784 0.9745 0.0294 0.5255 0.0294 0.9745 " />
												</IndexedTriangleSet>
											</Shape>
										</Group>
									</Transform>
									<Transform DEF="Cube_014_TRANSFORM"
									           translation="0.334292 0.339262 0.544504"
									           scale="1.000000 1.000000 1.000000"
									           rotation="0.000000 1.000000 0.000000 0.000000"
									           >
										<Transform DEF="Cube_014_ifs_TRANSFORM"
										           translation="0.000000 0.000000 0.000000"
										           scale="1.000000 1.000000 1.000000"
										           rotation="0.000000 1.000000 0.000000 0.000000"
										           >
											<Group DEF="group_ME_Cube_014">
												<Shape>
													<Appearance>
														<Material USE="MA_Body" />
													</Appearance>
													<IndexedTriangleSet solid="false"
													                    normalPerVertex="true"
													                    index="0 1 2 0 2 3 4 5 6 4 6 7 8 9 10 8 10 11 12 13 14 12 14 15 4 16 17 4 17 15 18 5 14 18 14 19 "
													                    >
														<Coordinate point="-0.212578 -0.128883 0.210812 -0.012706 0.073960 0.536369 -0.002684 0.456020 0.292168 -0.202556 0.253177 -0.033389 -0.202556 0.253177 -0.033389 -0.002684 0.456020 0.292168 0.412449 0.331727 0.114745 0.212578 0.128883 -0.210812 0.212578 0.128883 -0.210812 0.412449 0.331727 0.114745 0.402428 -0.050333 0.358946 0.202556 -0.253177 0.033389 0.202556 -0.253177 0.033389 0.402428 -0.050333 0.358946 -0.012706 0.073960 0.536369 -0.212578 -0.128883 0.210812 0.212578 0.128883 -0.210812 0.202556 -0.253177 0.033389 0.412449 0.331727 0.114745 0.402428 -0.050333 0.358946 " />
														<Normal vector="-0.791375 -0.603839 0.095035 -0.257790 -0.062319 0.964171 -0.232276 0.910337 0.342448 -0.765862 0.368816 -0.526658 -0.765862 0.368816 -0.526658 -0.232276 0.910337 0.342448 0.791375 0.603839 -0.095035 0.257790 0.062319 -0.964171 0.257790 0.062319 -0.964171 0.791375 0.603839 -0.095035 0.765862 -0.368816 0.526658 0.232276 -0.910337 -0.342448 0.232276 -0.910337 -0.342448 0.765862 -0.368816 0.526658 -0.257790 -0.062319 0.964171 -0.791375 -0.603839 0.095035 0.257790 0.062319 -0.964171 0.232276 -0.910337 -0.342448 0.791375 0.603839 -0.095035 0.765862 -0.368816 0.526658 " />
														<TextureCoordinate point="0.0294 0.5255 0.4784 0.5255 0.4784 0.9745 0.0294 0.9745 0.0294 0.5255 0.4784 0.5255 0.4784 0.9745 0.0294 0.9745 0.0294 0.5255 0.4784 0.5255 0.4784 0.9745 0.0294 0.9745 0.0294 0.5255 0.4784 0.5255 0.4784 0.9745 0.0294 0.9745 0.4784 0.5255 0.4784 0.9745 0.0294 0.5255 0.0294 0.9745 " />
													</IndexedTriangleSet>
												</Shape>
											</Group>
										</Transform>
										<Transform DEF="Cube_015_TRANSFORM"
										           translation="-0.013351 -0.013550 -0.021747"
										           scale="1.000000 1.000000 1.000000"
										           rotation="0.000000 1.000000 0.000000 0.000000"
										           >
											<Transform DEF="Cube_015_ifs_TRANSFORM"
											           translation="0.000000 0.000000 0.000000"
											           scale="1.000000 1.000000 1.000000"
											           rotation="0.000000 1.000000 0.000000 0.000000"
											           >
												<Group DEF="group_ME_Cube_015">
													<Shape>
														<Appearance>
															<Material USE="MA_Body" />
														</Appearance>
														<IndexedTriangleSet solid="false"
														                    normalPerVertex="true"
														                    index="0 1 2 0 2 3 4 5 6 4 6 7 8 9 10 8 10 11 12 13 14 12 14 15 4 16 17 4 17 15 18 5 14 18 14 19 "
														                    >
															<Coordinate point="-0.202618 -0.391919 0.368586 -0.036261 -0.223088 0.639553 -0.012703 0.675025 0.065506 -0.179060 0.506195 -0.205461 -0.179060 0.506195 -0.205461 -0.012703 0.675025 0.065506 0.368975 0.560749 -0.097619 0.202618 0.391919 -0.368586 0.202618 0.391919 -0.368586 0.368975 0.560749 -0.097619 0.345417 -0.337365 0.476428 0.179060 -0.506195 0.205461 0.179060 -0.506195 0.205461 0.345417 -0.337365 0.476428 -0.036261 -0.223088 0.639553 -0.202618 -0.391919 0.368586 0.202618 0.391919 -0.368586 0.179060 -0.506195 0.205461 0.368975 0.560749 -0.097619 0.345417 -0.337365 0.476428 " />
															<Normal vector="-0.791375 -0.603839 0.095035 -0.257790 -0.062319 0.964171 -0.232276 0.910337 0.342448 -0.765862 0.368816 -0.526658 -0.765862 0.368816 -0.526658 -0.232276 0.910337 0.342448 0.791375 0.603839 -0.095035 0.257790 0.062319 -0.964171 0.257790 0.062319 -0.964171 0.791375 0.603839 -0.095035 0.765862 -0.368816 0.526658 0.232276 -0.910337 -0.342448 0.232276 -0.910337 -0.342448 0.765862 -0.368816 0.526658 -0.257790 -0.062319 0.964171 -0.791375 -0.603839 0.095035 0.257790 0.062319 -0.964171 0.232276 -0.910337 -0.342448 0.791375 0.603839 -0.095035 0.765862 -0.368816 0.526658 " />
															<TextureCoordinate point="0.0294 0.5255 0.4784 0.5255 0.4784 0.9745 0.0294 0.9745 0.0294 0.5255 0.4784 0.5255 0.4784 0.9745 0.0294 0.9745 0.0294 0.5255 0.4784 0.5255 0.4784 0.9745 0.0294 0.9745 0.0294 0.5255 0.4784 0.5255 0.4784 0.9745 0.0294 0.9745 0.4784 0.5255 0.4784 0.9745 0.0294 0.5255 0.0294 0.9745 " />
														</IndexedTriangleSet>
													</Shape>
												</Group>
											</Transform>
										</Transform>
									</Transform>
								</Transform>
							</Transform>
							<Transform DEF="tail_2_TRANSFORM"
							           translation="-0.078239 0.163211 0.263701"
							           scale="1.000000 1.000000 1.000000"
							           rotation="0.000000 1.000000 0.000000 0.000000"
							           >
								<Transform DEF="tail_2_ifs_TRANSFORM"
								           translation="0.000000 0.000000 0.000000"
								           scale="1.000000 1.000000 1.000000"
								           rotation="0.000000 1.000000 0.000000 0.000000"
								           >
									<Group DEF="group_ME_tail_2">
										<Shape>
											<Appearance>
												<Material USE="MA_Body" />
											</Appearance>
											<IndexedTriangleSet solid="false"
											                    normalPerVertex="true"
											                    index="0 1 2 0 2 3 4 5 6 4 6 7 8 9 10 8 10 11 12 13 14 12 14 15 4 13 16 4 16 17 18 19 14 18 14 7 "
											                    >
												<Coordinate point="0.152860 -0.186656 0.196433 0.117291 0.275121 -0.085697 -0.169224 0.547271 0.395866 -0.133655 0.085493 0.677997 0.117291 0.275121 -0.085697 -0.152860 0.186656 -0.196433 -0.439375 0.458805 0.285130 -0.169224 0.547271 0.395866 -0.152860 0.186656 -0.196433 -0.117291 -0.275121 0.085697 -0.403806 -0.002972 0.567260 -0.439375 0.458805 0.285130 -0.117291 -0.275121 0.085697 0.152860 -0.186656 0.196433 -0.133655 0.085493 0.677997 -0.403806 -0.002972 0.567260 -0.117291 -0.275121 0.085697 -0.152860 0.186656 -0.196433 -0.439375 0.458805 0.285130 -0.403806 -0.002972 0.567260 " />
												<Normal vector="0.814661 -0.576403 0.063601 0.738914 0.406781 -0.537095 0.207831 0.911252 0.355510 0.283578 -0.071963 0.956236 0.738914 0.406781 -0.537095 -0.283578 0.071963 -0.956236 -0.814661 0.576403 -0.063601 0.207831 0.911252 0.355510 -0.283578 0.071963 -0.956236 -0.207831 -0.911252 -0.355510 -0.738914 -0.406781 0.537095 -0.814661 0.576403 -0.063601 -0.207831 -0.911252 -0.355510 0.814661 -0.576403 0.063601 0.283578 -0.071963 0.956236 -0.738914 -0.406781 0.537095 -0.207831 -0.911252 -0.355510 -0.283578 0.071963 -0.956236 -0.814661 0.576403 -0.063601 -0.738914 -0.406781 0.537095 " />
												<TextureCoordinate point="0.0294 0.5255 0.0294 0.9745 0.4784 0.9745 0.4784 0.5255 0.0294 0.5255 0.0294 0.9745 0.4784 0.9745 0.4784 0.5255 0.0294 0.5255 0.0294 0.9745 0.4784 0.9745 0.4784 0.5255 0.0294 0.5255 0.0294 0.9745 0.4784 0.9745 0.4784 0.5255 0.4784 0.9745 0.4784 0.5255 0.0294 0.5255 0.0294 0.9745 " />
											</IndexedTriangleSet>
										</Shape>
									</Group>
								</Transform>
								<Transform DEF="Cube_003_TRANSFORM"
								           translation="-0.219009 0.227091 0.399303"
								           scale="1.000000 1.000000 1.000000"
								           rotation="0.000000 1.000000 0.000000 0.000000"
								           >
									<Transform DEF="Cube_003_ifs_TRANSFORM"
									           translation="0.000000 0.000000 0.000000"
									           scale="1.000000 1.000000 1.000000"
									           rotation="0.000000 1.000000 0.000000 0.000000"
									           >
										<Group DEF="group_ME_Cube_003">
											<Shape>
												<Appearance>
													<Material USE="MA_Body" />
												</Appearance>
												<IndexedTriangleSet solid="false"
												                    normalPerVertex="true"
												                    index="0 1 2 0 2 3 4 5 6 4 6 7 8 9 10 8 10 11 12 13 14 12 14 15 4 13 16 4 16 17 18 19 14 18 14 7 "
												                    >
													<Coordinate point="0.221874 -0.337016 0.346200 0.200874 0.463589 -0.165523 -0.150063 0.819743 0.406092 -0.129062 0.019138 0.917816 0.200874 0.463589 -0.165523 -0.221874 0.337016 -0.346200 -0.572810 0.693170 0.225415 -0.150063 0.819743 0.406092 -0.221874 0.337016 -0.346200 -0.200873 -0.463589 0.165523 -0.551810 -0.107434 0.737138 -0.572810 0.693170 0.225415 -0.200873 -0.463589 0.165523 0.221874 -0.337016 0.346200 -0.129062 0.019138 0.917816 -0.551810 -0.107434 0.737138 -0.200873 -0.463589 0.165523 -0.221874 0.337016 -0.346200 -0.572810 0.693170 0.225415 -0.551810 -0.107434 0.737138 " />
													<Normal vector="0.791375 -0.603839 0.095035 0.765862 0.368816 -0.526658 0.232276 0.910337 0.342448 0.257790 -0.062319 0.964171 0.765862 0.368816 -0.526658 -0.257790 0.062319 -0.964171 -0.791375 0.603839 -0.095035 0.232276 0.910337 0.342448 -0.257790 0.062319 -0.964171 -0.232276 -0.910337 -0.342448 -0.765862 -0.368816 0.526658 -0.791375 0.603839 -0.095035 -0.232276 -0.910337 -0.342448 0.791375 -0.603839 0.095035 0.257790 -0.062319 0.964171 -0.765862 -0.368816 0.526658 -0.232276 -0.910337 -0.342448 -0.257790 0.062319 -0.964171 -0.791375 0.603839 -0.095035 -0.765862 -0.368816 0.526658 " />
													<TextureCoordinate point="0.0294 0.5255 0.0294 0.9745 0.4784 0.9745 0.4784 0.5255 0.0294 0.5255 0.0294 0.9745 0.4784 0.9745 0.4784 0.5255 0.0294 0.5255 0.0294 0.9745 0.4784 0.9745 0.4784 0.5255 0.0294 0.5255 0.0294 0.9745 0.4784 0.9745 0.4784 0.5255 0.4784 0.9745 0.4784 0.5255 0.0294 0.5255 0.0294 0.9745 " />
												</IndexedTriangleSet>
											</Shape>
										</Group>
									</Transform>
									<Transform DEF="Cube_008_TRANSFORM"
									           translation="-0.334292 0.339262 0.544504"
									           scale="1.000000 1.000000 1.000000"
									           rotation="0.000000 1.000000 0.000000 0.000000"
									           >
										<Transform DEF="Cube_008_ifs_TRANSFORM"
										           translation="0.000000 0.000000 0.000000"
										           scale="1.000000 1.000000 1.000000"
										           rotation="0.000000 1.000000 0.000000 0.000000"
										           >
											<Group DEF="group_ME_Cube_008">
												<Shape>
													<Appearance>
														<Material USE="MA_Body" />
													</Appearance>
													<IndexedTriangleSet solid="false"
													                    normalPerVertex="true"
													                    index="0 1 2 0 2 3 4 5 6 4 6 7 8 9 10 8 10 11 12 13 14 12 14 15 4 13 16 4 16 17 18 19 14 18 14 7 "
													                    >
														<Coordinate point="0.212578 -0.128883 0.210812 0.202556 0.253177 -0.033389 0.002684 0.456020 0.292168 0.012706 0.073960 0.536369 0.202556 0.253177 -0.033389 -0.212578 0.128883 -0.210812 -0.412449 0.331727 0.114745 0.002684 0.456020 0.292168 -0.212578 0.128883 -0.210812 -0.202556 -0.253177 0.033389 -0.402428 -0.050333 0.358946 -0.412449 0.331727 0.114745 -0.202556 -0.253177 0.033389 0.212578 -0.128883 0.210812 0.012706 0.073960 0.536369 -0.402428 -0.050333 0.358946 -0.202556 -0.253177 0.033389 -0.212578 0.128883 -0.210812 -0.412449 0.331727 0.114745 -0.402428 -0.050333 0.358946 " />
														<Normal vector="0.791375 -0.603839 0.095035 0.765862 0.368816 -0.526658 0.232276 0.910337 0.342448 0.257790 -0.062319 0.964171 0.765862 0.368816 -0.526658 -0.257790 0.062319 -0.964171 -0.791375 0.603839 -0.095035 0.232276 0.910337 0.342448 -0.257790 0.062319 -0.964171 -0.232276 -0.910337 -0.342448 -0.765862 -0.368816 0.526658 -0.791375 0.603839 -0.095035 -0.232276 -0.910337 -0.342448 0.791375 -0.603839 0.095035 0.257790 -0.062319 0.964171 -0.765862 -0.368816 0.526658 -0.232276 -0.910337 -0.342448 -0.257790 0.062319 -0.964171 -0.791375 0.603839 -0.095035 -0.765862 -0.368816 0.526658 " />
														<TextureCoordinate point="0.0294 0.5255 0.0294 0.9745 0.4784 0.9745 0.4784 0.5255 0.0294 0.5255 0.0294 0.9745 0.4784 0.9745 0.4784 0.5255 0.0294 0.5255 0.0294 0.9745 0.4784 0.9745 0.4784 0.5255 0.0294 0.5255 0.0294 0.9745 0.4784 0.9745 0.4784 0.5255 0.4784 0.9745 0.4784 0.5255 0.0294 0.5255 0.0294 0.9745 " />
													</IndexedTriangleSet>
												</Shape>
											</Group>
										</Transform>
										<Transform DEF="Cube_009_TRANSFORM"
										           translation="0.013351 -0.013550 -0.021747"
										           scale="1.000000 1.000000 1.000000"
										           rotation="0.000000 1.000000 0.000000 0.000000"
										           >
											<Transform DEF="Cube_009_ifs_TRANSFORM"
											           translation="0.000000 0.000000 0.000000"
											           scale="1.000000 1.000000 1.000000"
											           rotation="0.000000 1.000000 0.000000 0.000000"
											           >
												<Group DEF="group_ME_Cube_009">
													<Shape>
														<Appearance>
															<Material USE="MA_Body" />
														</Appearance>
														<IndexedTriangleSet solid="false"
														                    normalPerVertex="true"
														                    index="0 1 2 0 2 3 4 5 6 4 6 7 8 9 10 8 10 11 12 13 14 12 14 15 4 13 16 4 16 17 18 19 14 18 14 7 "
														                    >
															<Coordinate point="0.202618 -0.391919 0.368586 0.179060 0.506195 -0.205461 0.012703 0.675025 0.065506 0.036261 -0.223088 0.639553 0.179060 0.506195 -0.205461 -0.202618 0.391919 -0.368586 -0.368975 0.560749 -0.097619 0.012703 0.675025 0.065506 -0.202618 0.391919 -0.368586 -0.179060 -0.506195 0.205461 -0.345417 -0.337365 0.476428 -0.368975 0.560749 -0.097619 -0.179060 -0.506195 0.205461 0.202618 -0.391919 0.368586 0.036261 -0.223088 0.639553 -0.345417 -0.337365 0.476428 -0.179060 -0.506195 0.205461 -0.202618 0.391919 -0.368586 -0.368975 0.560749 -0.097619 -0.345417 -0.337365 0.476428 " />
															<Normal vector="0.791375 -0.603839 0.095035 0.765862 0.368816 -0.526658 0.232276 0.910337 0.342448 0.257790 -0.062319 0.964171 0.765862 0.368816 -0.526658 -0.257790 0.062319 -0.964171 -0.791375 0.603839 -0.095035 0.232276 0.910337 0.342448 -0.257790 0.062319 -0.964171 -0.232276 -0.910337 -0.342448 -0.765862 -0.368816 0.526658 -0.791375 0.603839 -0.095035 -0.232276 -0.910337 -0.342448 0.791375 -0.603839 0.095035 0.257790 -0.062319 0.964171 -0.765862 -0.368816 0.526658 -0.232276 -0.910337 -0.342448 -0.257790 0.062319 -0.964171 -0.791375 0.603839 -0.095035 -0.765862 -0.368816 0.526658 " />
															<TextureCoordinate point="0.0294 0.5255 0.0294 0.9745 0.4784 0.9745 0.4784 0.5255 0.0294 0.5255 0.0294 0.9745 0.4784 0.9745 0.4784 0.5255 0.0294 0.5255 0.0294 0.9745 0.4784 0.9745 0.4784 0.5255 0.0294 0.5255 0.0294 0.9745 0.4784 0.9745 0.4784 0.5255 0.4784 0.9745 0.4784 0.5255 0.0294 0.5255 0.0294 0.9745 " />
														</IndexedTriangleSet>
													</Shape>
												</Group>
											</Transform>
										</Transform>
									</Transform>
								</Transform>
							</Transform>
						</Transform>
					</Transform>
				</Transform>
			</Transform>
			<Transform DEF="arm1_TRANSFORM"
			           translation="0.845634 -0.896566 0.112173"
			           scale="1.000000 1.000000 1.000000"
			           rotation="0.000000 1.000000 0.000000 0.000000"
			           >
				<Transform DEF="arm1_ifs_TRANSFORM"
				           translation="0.000000 0.000000 0.000000"
				           scale="1.000000 1.000000 1.000000"
				           rotation="0.000000 1.000000 0.000000 0.000000"
				           >
					<Group DEF="group_ME_arm1">
						<Shape>
							<Appearance>
								<Material USE="MA_Body" />
							</Appearance>
							<IndexedTriangleSet solid="false"
							                    normalPerVertex="true"
							                    index="0 1 2 0 2 3 4 5 6 4 6 7 8 9 10 8 10 11 12 13 14 12 14 15 4 16 17 4 17 15 18 5 14 18 14 19 "
							                    >
								<Coordinate point="0.003184 -0.328250 -0.177809 -0.003184 -0.328250 0.177809 -0.003184 0.328250 0.177809 0.003184 0.328250 -0.177809 0.003184 0.328250 -0.177809 -0.003184 0.328250 0.177809 0.539382 0.328250 0.187525 0.545750 0.328250 -0.168092 0.545750 0.328250 -0.168092 0.539382 0.328250 0.187525 0.539382 -0.328250 0.187525 0.545750 -0.328250 -0.168092 0.545750 -0.328250 -0.168092 0.539382 -0.328250 0.187525 -0.003184 -0.328250 0.177809 0.003184 -0.328250 -0.177809 0.545750 0.328250 -0.168092 0.545750 -0.328250 -0.168092 0.539382 0.328250 0.187525 0.539382 -0.328250 0.187525 " />
								<Normal vector="-0.566912 -0.577349 -0.587573 -0.587573 -0.577349 0.566912 -0.587573 0.577349 0.566912 -0.566912 0.577349 -0.587573 -0.566912 0.577349 -0.587573 -0.587573 0.577349 0.566912 0.566912 0.577349 0.587573 0.587573 0.577349 -0.566912 0.587573 0.577349 -0.566912 0.566912 0.577349 0.587573 0.566912 -0.577349 0.587573 0.587573 -0.577349 -0.566912 0.587573 -0.577349 -0.566912 0.566912 -0.577349 0.587573 -0.587573 -0.577349 0.566912 -0.566912 -0.577349 -0.587573 0.587573 0.577349 -0.566912 0.587573 -0.577349 -0.566912 0.566912 0.577349 0.587573 0.566912 -0.577349 0.587573 " />
								<TextureCoordinate point="0.0294 0.5255 0.4784 0.5255 0.4784 0.9745 0.0294 0.9745 0.0294 0.5255 0.4784 0.5255 0.4784 0.9745 0.0294 0.9745 0.0294 0.5255 0.4784 0.5255 0.4784 0.9745 0.0294 0.9745 0.0294 0.5255 0.4784 0.5255 0.4784 0.9745 0.0294 0.9745 0.4784 0.5255 0.4784 0.9745 0.0294 0.5255 0.0294 0.9745 " />
							</IndexedTriangleSet>
						</Shape>
					</Group>
				</Transform>
				<Transform DEF="hand1_TRANSFORM"
				           translation="0.492008 0.000000 0.008811"
				           scale="1.000000 1.000000 1.000000"
				           rotation="0.000000 1.000000 0.000000 0.000000"
				           >
					<Transform DEF="hand1_ifs_TRANSFORM"
					           translation="0.000000 0.000000 0.000000"
					           scale="1.000000 1.000000 1.000000"
					           rotation="0.000000 1.000000 0.000000 0.000000"
					           >
						<Group DEF="group_ME_hand1">
							<Shape>
								<Appearance>
									<Material USE="MA_Body" />
								</Appearance>
								<IndexedTriangleSet solid="false"
								                    normalPerVertex="true"
								                    index="0 1 2 0 2 3 4 5 6 4 6 7 8 9 10 8 10 11 12 13 14 12 14 15 4 16 17 4 17 15 18 5 14 18 14 19 "
								                    >
									<Coordinate point="0.004082 -0.497420 -0.227947 -0.004082 -0.497420 0.227947 -0.004082 0.497420 0.227947 0.004082 0.497420 -0.227947 0.004082 0.497420 -0.227947 -0.004082 0.497420 0.227947 0.673560 0.497420 0.240082 0.681724 0.497420 -0.215811 0.681724 0.497420 -0.215811 0.673560 0.497420 0.240082 0.673560 -0.497420 0.240082 0.681724 -0.497420 -0.215811 0.681724 -0.497420 -0.215811 0.673560 -0.497420 0.240082 -0.004082 -0.497420 0.227947 0.004082 -0.497420 -0.227947 0.681724 0.497420 -0.215811 0.681724 -0.497420 -0.215811 0.673560 0.497420 0.240082 0.673560 -0.497420 0.240082 " />
									<Normal vector="-0.566912 -0.577349 -0.587573 -0.587573 -0.577349 0.566912 -0.587573 0.577349 0.566912 -0.566912 0.577349 -0.587573 -0.566912 0.577349 -0.587573 -0.587573 0.577349 0.566912 0.566912 0.577349 0.587573 0.587573 0.577349 -0.566912 0.587573 0.577349 -0.566912 0.566912 0.577349 0.587573 0.566912 -0.577349 0.587573 0.587573 -0.577349 -0.566912 0.587573 -0.577349 -0.566912 0.566912 -0.577349 0.587573 -0.587573 -0.577349 0.566912 -0.566912 -0.577349 -0.587573 0.587573 0.577349 -0.566912 0.587573 -0.577349 -0.566912 0.566912 0.577349 0.587573 0.566912 -0.577349 0.587573 " />
									<TextureCoordinate point="0.0294 0.5255 0.4784 0.5255 0.4784 0.9745 0.0294 0.9745 0.0294 0.5255 0.4784 0.5255 0.4784 0.9745 0.0294 0.9745 0.0294 0.5255 0.4784 0.5255 0.4784 0.9745 0.0294 0.9745 0.0294 0.5255 0.4784 0.5255 0.4784 0.9745 0.0294 0.9745 0.4784 0.5255 0.4784 0.9745 0.0294 0.5255 0.0294 0.9745 " />
								</IndexedTriangleSet>
							</Shape>
						</Group>
					</Transform>
					<Transform DEF="Cube_022_TRANSFORM"
					           translation="0.659070 0.000000 -0.001133"
					           scale="1.000000 1.000000 1.000000"
					           rotation="0.000000 1.000000 0.000000 0.000000"
					           >
						<Transform DEF="Cube_022_ifs_TRANSFORM"
						           translation="0.000000 0.000000 0.000000"
						           scale="1.000000 1.000000 1.000000"
						           rotation="0.000000 1.000000 0.000000 0.000000"
						           >
							<Group DEF="group_ME_Cube_022">
								<Shape>
									<Appearance>
										<Material USE="MA_Body" />
									</Appearance>
									<IndexedTriangleSet solid="false"
									                    normalPerVertex="true"
									                    index="0 1 2 0 2 3 4 5 6 4 6 7 8 9 10 8 10 11 12 13 14 12 14 15 4 16 17 4 17 15 18 5 14 18 14 19 "
									                    >
										<Coordinate point="0.003143 -0.445746 -0.175485 -0.003143 -0.445746 0.175485 -0.003143 0.445746 0.175485 0.003143 0.445746 -0.175485 0.003143 0.445746 -0.175485 -0.003143 0.445746 0.175485 0.204247 0.445746 0.179199 0.210532 0.445746 -0.171771 0.210532 0.445746 -0.171771 0.204247 0.445746 0.179199 0.204247 -0.445746 0.179199 0.210532 -0.445746 -0.171771 0.210532 -0.445746 -0.171771 0.204247 -0.445746 0.179199 -0.003143 -0.445746 0.175485 0.003143 -0.445746 -0.175485 0.210532 0.445746 -0.171771 0.210532 -0.445746 -0.171771 0.204247 0.445746 0.179199 0.204247 -0.445746 0.179199 " />
										<Normal vector="-0.566912 -0.577349 -0.587573 -0.587573 -0.577349 0.566912 -0.587573 0.577349 0.566912 -0.566912 0.577349 -0.587573 -0.566912 0.577349 -0.587573 -0.587573 0.577349 0.566912 0.566912 0.577349 0.587573 0.587573 0.577349 -0.566912 0.587573 0.577349 -0.566912 0.566912 0.577349 0.587573 0.566912 -0.577349 0.587573 0.587573 -0.577349 -0.566912 0.587573 -0.577349 -0.566912 0.566912 -0.577349 0.587573 -0.587573 -0.577349 0.566912 -0.566912 -0.577349 -0.587573 0.587573 0.577349 -0.566912 0.587573 -0.577349 -0.566912 0.566912 0.577349 0.587573 0.566912 -0.577349 0.587573 " />
										<TextureCoordinate point="0.0294 0.5255 0.4784 0.5255 0.4784 0.9745 0.0294 0.9745 0.0294 0.5255 0.4784 0.5255 0.4784 0.9745 0.0294 0.9745 0.0294 0.5255 0.4784 0.5255 0.4784 0.9745 0.0294 0.9745 0.0294 0.5255 0.4784 0.5255 0.4784 0.9745 0.0294 0.9745 0.4784 0.5255 0.4784 0.9745 0.0294 0.5255 0.0294 0.9745 " />
									</IndexedTriangleSet>
								</Shape>
							</Group>
						</Transform>
						<Transform DEF="Cube_023_TRANSFORM"
						           translation="-0.000225 0.000000 0.012581"
						           scale="1.000000 1.000000 1.000000"
						           rotation="0.000000 1.000000 0.000000 0.000000"
						           >
							<Transform DEF="Cube_023_ifs_TRANSFORM"
							           translation="0.000000 0.000000 0.000000"
							           scale="1.000000 1.000000 1.000000"
							           rotation="0.000000 1.000000 0.000000 0.000000"
							           >
								<Group DEF="group_ME_Cube_023">
									<Shape>
										<Appearance>
											<Material USE="MA_Body" />
										</Appearance>
										<IndexedTriangleSet solid="false"
										                    normalPerVertex="true"
										                    index="0 1 2 0 2 3 4 5 6 4 6 7 8 9 10 8 10 11 12 13 14 12 14 15 4 16 17 4 17 15 18 5 14 18 14 19 "
										                    >
											<Coordinate point="0.003764 -0.206533 -0.210204 -0.003764 -0.206533 0.210204 -0.003764 0.206533 0.210204 0.003764 0.206533 -0.210204 0.003764 0.206533 -0.210204 -0.003764 0.206533 0.210204 0.273068 0.206533 0.215161 0.280597 0.206533 -0.205246 0.280597 0.206533 -0.205246 0.273068 0.206533 0.215161 0.273068 -0.206533 0.215161 0.280597 -0.206533 -0.205246 0.280597 -0.206533 -0.205246 0.273068 -0.206533 0.215161 -0.003764 -0.206533 0.210204 0.003764 -0.206533 -0.210204 0.280597 0.206533 -0.205246 0.280597 -0.206533 -0.205246 0.273068 0.206533 0.215161 0.273068 -0.206533 0.215161 " />
											<Normal vector="-0.566912 -0.577349 -0.587573 -0.587573 -0.577349 0.566912 -0.587573 0.577349 0.566912 -0.566912 0.577349 -0.587573 -0.566912 0.577349 -0.587573 -0.587573 0.577349 0.566912 0.566912 0.577349 0.587573 0.587573 0.577349 -0.566912 0.587573 0.577349 -0.566912 0.566912 0.577349 0.587573 0.566912 -0.577349 0.587573 0.587573 -0.577349 -0.566912 0.587573 -0.577349 -0.566912 0.566912 -0.577349 0.587573 -0.587573 -0.577349 0.566912 -0.566912 -0.577349 -0.587573 0.587573 0.577349 -0.566912 0.587573 -0.577349 -0.566912 0.566912 0.577349 0.587573 0.566912 -0.577349 0.587573 " />
											<TextureCoordinate point="0.0294 0.5255 0.4784 0.5255 0.4784 0.9745 0.0294 0.9745 0.0294 0.5255 0.4784 0.5255 0.4784 0.9745 0.0294 0.9745 0.0294 0.5255 0.4784 0.5255 0.4784 0.9745 0.0294 0.9745 0.0294 0.5255 0.4784 0.5255 0.4784 0.9745 0.0294 0.9745 0.4784 0.5255 0.4784 0.9745 0.0294 0.5255 0.0294 0.9745 " />
										</IndexedTriangleSet>
									</Shape>
								</Group>
							</Transform>
						</Transform>
					</Transform>
				</Transform>
			</Transform>
			<Transform DEF="arm2_TRANSFORM"
			           translation="-0.845634 -0.896566 0.112173"
			           scale="1.000000 1.000000 1.000000"
			           rotation="0.000000 1.000000 0.000000 0.000000"
			           >
				<Transform DEF="arm2_ifs_TRANSFORM"
				           translation="0.000000 0.000000 0.000000"
				           scale="1.000000 1.000000 1.000000"
				           rotation="0.000000 1.000000 0.000000 0.000000"
				           >
					<Group DEF="group_ME_arm2">
						<Shape>
							<Appearance>
								<Material USE="MA_Body" />
							</Appearance>
							<IndexedTriangleSet solid="false"
							                    normalPerVertex="true"
							                    index="0 1 2 0 2 3 4 5 6 4 6 7 8 9 10 8 10 11 12 13 14 12 14 15 4 13 16 4 16 17 18 19 14 18 14 7 "
							                    >
								<Coordinate point="-0.003184 -0.328250 -0.177809 -0.003184 0.328251 -0.177809 0.003184 0.328250 0.177809 0.003184 -0.328251 0.177809 -0.003184 0.328251 -0.177809 -0.545750 0.328250 -0.168092 -0.539382 0.328250 0.187525 0.003184 0.328250 0.177809 -0.545750 0.328250 -0.168092 -0.545750 -0.328250 -0.168092 -0.539382 -0.328251 0.187525 -0.539382 0.328250 0.187525 -0.545750 -0.328250 -0.168092 -0.003184 -0.328250 -0.177809 0.003184 -0.328251 0.177809 -0.539382 -0.328251 0.187525 -0.545750 -0.328250 -0.168092 -0.545750 0.328250 -0.168092 -0.539382 0.328250 0.187525 -0.539382 -0.328251 0.187525 " />
								<Normal vector="0.566912 -0.577349 -0.587573 0.566912 0.577349 -0.587573 0.587573 0.577349 0.566912 0.587573 -0.577349 0.566912 0.566912 0.577349 -0.587573 -0.587573 0.577349 -0.566912 -0.566912 0.577349 0.587573 0.587573 0.577349 0.566912 -0.587573 0.577349 -0.566912 -0.587573 -0.577349 -0.566912 -0.566912 -0.577349 0.587573 -0.566912 0.577349 0.587573 -0.587573 -0.577349 -0.566912 0.566912 -0.577349 -0.587573 0.587573 -0.577349 0.566912 -0.566912 -0.577349 0.587573 -0.587573 -0.577349 -0.566912 -0.587573 0.577349 -0.566912 -0.566912 0.577349 0.587573 -0.566912 -0.577349 0.587573 " />
								<TextureCoordinate point="0.0294 0.5255 0.0294 0.9745 0.4784 0.9745 0.4784 0.5255 0.0294 0.5255 0.0294 0.9745 0.4784 0.9745 0.4784 0.5255 0.0294 0.5255 0.0294 0.9745 0.4784 0.9745 0.4784 0.5255 0.0294 0.5255 0.0294 0.9745 0.4784 0.9745 0.4784 0.5255 0.4784 0.9745 0.4784 0.5255 0.0294 0.5255 0.0294 0.9745 " />
							</IndexedTriangleSet>
						</Shape>
					</Group>
				</Transform>
				<Transform DEF="hand2_TRANSFORM"
				           translation="-0.492008 0.000000 0.008811"
				           scale="1.000000 1.000000 1.000000"
				           rotation="0.000000 1.000000 0.000000 0.000000"
				           >
					<Transform DEF="hand2_ifs_TRANSFORM"
					           translation="0.000000 0.000000 0.000000"
					           scale="1.000000 1.000000 1.000000"
					           rotation="0.000000 1.000000 0.000000 0.000000"
					           >
						<Group DEF="group_ME_hand2">
							<Shape>
								<Appearance>
									<Material USE="MA_Body" />
								</Appearance>
								<IndexedTriangleSet solid="false"
								                    normalPerVertex="true"
								                    index="0 1 2 0 2 3 4 5 6 4 6 7 8 9 10 8 10 11 12 13 14 12 14 15 4 13 16 4 16 17 18 19 14 18 14 7 "
								                    >
									<Coordinate point="-0.004082 -0.497420 -0.227947 -0.004082 0.497420 -0.227947 0.004082 0.497420 0.227947 0.004082 -0.497420 0.227947 -0.004082 0.497420 -0.227947 -0.681724 0.497420 -0.215811 -0.673560 0.497420 0.240082 0.004082 0.497420 0.227947 -0.681724 0.497420 -0.215811 -0.681724 -0.497420 -0.215811 -0.673560 -0.497420 0.240082 -0.673560 0.497420 0.240082 -0.681724 -0.497420 -0.215811 -0.004082 -0.497420 -0.227947 0.004082 -0.497420 0.227947 -0.673560 -0.497420 0.240082 -0.681724 -0.497420 -0.215811 -0.681724 0.497420 -0.215811 -0.673560 0.497420 0.240082 -0.673560 -0.497420 0.240082 " />
									<Normal vector="0.566912 -0.577349 -0.587573 0.566912 0.577349 -0.587573 0.587573 0.577349 0.566912 0.587573 -0.577349 0.566912 0.566912 0.577349 -0.587573 -0.587573 0.577349 -0.566912 -0.566912 0.577349 0.587573 0.587573 0.577349 0.566912 -0.587573 0.577349 -0.566912 -0.587573 -0.577349 -0.566912 -0.566912 -0.577349 0.587573 -0.566912 0.577349 0.587573 -0.587573 -0.577349 -0.566912 0.566912 -0.577349 -0.587573 0.587573 -0.577349 0.566912 -0.566912 -0.577349 0.587573 -0.587573 -0.577349 -0.566912 -0.587573 0.577349 -0.566912 -0.566912 0.577349 0.587573 -0.566912 -0.577349 0.587573 " />
									<TextureCoordinate point="0.0294 0.5255 0.0294 0.9745 0.4784 0.9745 0.4784 0.5255 0.0294 0.5255 0.0294 0.9745 0.4784 0.9745 0.4784 0.5255 0.0294 0.5255 0.0294 0.9745 0.4784 0.9745 0.4784 0.5255 0.0294 0.5255 0.0294 0.9745 0.4784 0.9745 0.4784 0.5255 0.4784 0.9745 0.4784 0.5255 0.0294 0.5255 0.0294 0.9745 " />
								</IndexedTriangleSet>
							</Shape>
						</Group>
					</Transform>
					<Transform DEF="Cube_011_TRANSFORM"
					           translation="-0.659070 0.000000 -0.001133"
					           scale="1.000000 1.000000 1.000000"
					           rotation="0.000000 1.000000 0.000000 0.000000"
					           >
						<Transform DEF="Cube_011_ifs_TRANSFORM"
						           translation="0.000000 0.000000 0.000000"
						           scale="1.000000 1.000000 1.000000"
						           rotation="0.000000 1.000000 0.000000 0.000000"
						           >
							<Group DEF="group_ME_Cube_011">
								<Shape>
									<Appearance>
										<Material USE="MA_Body" />
									</Appearance>
									<IndexedTriangleSet solid="false"
									                    normalPerVertex="true"
									                    index="0 1 2 0 2 3 4 5 6 4 6 7 8 9 10 8 10 11 12 13 14 12 14 15 4 13 16 4 16 17 18 19 14 18 14 7 "
									                    >
										<Coordinate point="-0.003143 -0.445746 -0.175485 -0.003143 0.445746 -0.175485 0.003143 0.445746 0.175485 0.003143 -0.445746 0.175485 -0.003143 0.445746 -0.175485 -0.210532 0.445746 -0.171771 -0.204247 0.445746 0.179199 0.003143 0.445746 0.175485 -0.210532 0.445746 -0.171771 -0.210532 -0.445746 -0.171771 -0.204247 -0.445746 0.179199 -0.204247 0.445746 0.179199 -0.210532 -0.445746 -0.171771 -0.003143 -0.445746 -0.175485 0.003143 -0.445746 0.175485 -0.204247 -0.445746 0.179199 -0.210532 -0.445746 -0.171771 -0.210532 0.445746 -0.171771 -0.204247 0.445746 0.179199 -0.204247 -0.445746 0.179199 " />
										<Normal vector="0.566912 -0.577349 -0.587573 0.566912 0.577349 -0.587573 0.587573 0.577349 0.566912 0.587573 -0.577349 0.566912 0.566912 0.577349 -0.587573 -0.587573 0.577349 -0.566912 -0.566912 0.577349 0.587573 0.587573 0.577349 0.566912 -0.587573 0.577349 -0.566912 -0.587573 -0.577349 -0.566912 -0.566912 -0.577349 0.587573 -0.566912 0.577349 0.587573 -0.587573 -0.577349 -0.566912 0.566912 -0.577349 -0.587573 0.587573 -0.577349 0.566912 -0.566912 -0.577349 0.587573 -0.587573 -0.577349 -0.566912 -0.587573 0.577349 -0.566912 -0.566912 0.577349 0.587573 -0.566912 -0.577349 0.587573 " />
										<TextureCoordinate point="0.0294 0.5255 0.0294 0.9745 0.4784 0.9745 0.4784 0.5255 0.0294 0.5255 0.0294 0.9745 0.4784 0.9745 0.4784 0.5255 0.0294 0.5255 0.0294 0.9745 0.4784 0.9745 0.4784 0.5255 0.0294 0.5255 0.0294 0.9745 0.4784 0.9745 0.4784 0.5255 0.4784 0.9745 0.4784 0.5255 0.0294 0.5255 0.0294 0.9745 " />
									</IndexedTriangleSet>
								</Shape>
							</Group>
						</Transform>
						<Transform DEF="Cube_012_TRANSFORM"
						           translation="0.000225 0.000000 0.012581"
						           scale="1.000000 1.000000 1.000000"
						           rotation="0.000000 1.000000 0.000000 0.000000"
						           >
							<Transform DEF="Cube_012_ifs_TRANSFORM"
							           translation="0.000000 0.000000 0.000000"
							           scale="1.000000 1.000000 1.000000"
							           rotation="0.000000 1.000000 0.000000 0.000000"
							           >
								<Group DEF="group_ME_Cube_012">
									<Shape>
										<Appearance>
											<Material USE="MA_Body" />
										</Appearance>
										<IndexedTriangleSet solid="false"
										                    normalPerVertex="true"
										                    index="0 1 2 0 2 3 4 5 6 4 6 7 8 9 10 8 10 11 12 13 14 12 14 15 4 13 16 4 16 17 18 19 14 18 14 7 "
										                    >
											<Coordinate point="-0.003764 -0.206533 -0.210204 -0.003764 0.206533 -0.210204 0.003764 0.206533 0.210204 0.003764 -0.206533 0.210204 -0.003764 0.206533 -0.210204 -0.280597 0.206533 -0.205246 -0.273068 0.206533 0.215161 0.003764 0.206533 0.210204 -0.280597 0.206533 -0.205246 -0.280597 -0.206533 -0.205246 -0.273068 -0.206533 0.215161 -0.273068 0.206533 0.215161 -0.280597 -0.206533 -0.205246 -0.003764 -0.206533 -0.210204 0.003764 -0.206533 0.210204 -0.273068 -0.206533 0.215161 -0.280597 -0.206533 -0.205246 -0.280597 0.206533 -0.205246 -0.273068 0.206533 0.215161 -0.273068 -0.206533 0.215161 " />
											<Normal vector="0.566912 -0.577349 -0.587573 0.566912 0.577349 -0.587573 0.587573 0.577349 0.566912 0.587573 -0.577349 0.566912 0.566912 0.577349 -0.587573 -0.587573 0.577349 -0.566912 -0.566912 0.577349 0.587573 0.587573 0.577349 0.566912 -0.587573 0.577349 -0.566912 -0.587573 -0.577349 -0.566912 -0.566912 -0.577349 0.587573 -0.566912 0.577349 0.587573 -0.587573 -0.577349 -0.566912 0.566912 -0.577349 -0.587573 0.587573 -0.577349 0.566912 -0.566912 -0.577349 0.587573 -0.587573 -0.577349 -0.566912 -0.587573 0.577349 -0.566912 -0.566912 0.577349 0.587573 -0.566912 -0.577349 0.587573 " />
											<TextureCoordinate point="0.0294 0.5255 0.0294 0.9745 0.4784 0.9745 0.4784 0.5255 0.0294 0.5255 0.0294 0.9745 0.4784 0.9745 0.4784 0.5255 0.0294 0.5255 0.0294 0.9745 0.4784 0.9745 0.4784 0.5255 0.0294 0.5255 0.0294 0.9745 0.4784 0.9745 0.4784 0.5255 0.4784 0.9745 0.4784 0.5255 0.0294 0.5255 0.0294 0.9745 " />
										</IndexedTriangleSet>
									</Shape>
								</Group>
							</Transform>
						</Transform>
					</Transform>
				</Transform>
			</Transform>
		</Transform>
	</Scene>
</X3D>