<?xml version="1.0" encoding="UTF-8"?>
<!DOCTYPE X3D PUBLIC "ISO//Web3D//DTD X3D 3.0//EN" "http://www.web3d.org/specifications/x3d-3.0.dtd">
<X3D version="3.0" profile="Immersive" xmlns:xsd="http://www.w3.org/2001/XMLSchema-instance" xsd:noNamespaceSchemaLocation="http://www.web3d.org/specifications/x3d-3.0.xsd">
	<head>
		<meta name="filename" content="shieldon.x3d" />
		<meta name="generator" content="Blender 2.93.18" />
	</head>
	<Scene>
		<NavigationInfo headlight="true"
		                visibilityLimit="0.0"
		                type='"EXAMINE", "ANY"'
		                avatarSize="0.25, 1.75, 0.75"
		                />
		<Background DEF="WO_World"
		            groundColor="0.051 0.051 0.051"
		            skyColor="0.051 0.051 0.051"
		            />
		<Transform DEF="body_TRANSFORM"
		           translation="0.000000 0.000000 0.421301"
		           scale="1.000000 1.000000 1.000000"
		           rotation="0.000000 0.000000 1.000000 3.141593"
		           >
			<Transform DEF="body_ifs_TRANSFORM"
			           translation="0.000000 0.000000 0.000000"
			           scale="1.000000 1.000000 1.000000"
			           rotation="0.000000 1.000000 0.000000 0.000000"
			           >
				<Group DEF="group_ME_body">
					<Shape>
						<Appearance>
							<Material DEF="MA_Body"
							          diffuseColor="0.800 0.800 0.800"
							          specularColor="0.401 0.401 0.401"
							          emissiveColor="0.000 0.000 0.000"
							          ambientIntensity="0.000"
							          shininess="0.500"
							          transparency="0.0"
							          />
						</Appearance>
						<IndexedTriangleSet solid="false"
						                    normalPerVertex="true"
						                    index="0 1 2 0 2 3 4 5 6 4 6 7 8 9 10 8 10 11 12 13 14 12 14 15 4 16 17 4 17 15 18 5 14 18 14 19 "
						                    >
							<Coordinate point="-1.000000 -0.754272 0.051970 -1.000000 -0.637264 1.750180 -1.000000 0.871281 1.646239 -1.000000 0.754272 -0.051970 -1.000000 0.754272 -0.051970 -1.000000 0.871281 1.646239 1.000000 0.871281 1.646239 1.000000 0.754272 -0.051970 1.000000 0.754272 -0.051970 1.000000 0.871281 1.646239 1.000000 -0.637264 1.750180 1.000000 -0.754272 0.051970 1.000000 -0.754272 0.051970 1.000000 -0.637264 1.750180 -1.000000 -0.637264 1.750180 -1.000000 -0.754272 0.051970 1.000000 0.754272 -0.051970 1.000000 -0.754272 0.051970 1.000000 0.871281 1.646239 1.000000 -0.637264 1.750180 " />
							<Normal vector="-0.577349 -0.615650 -0.536271 -0.577349 -0.536271 0.615650 -0.577349 0.615650 0.536271 -0.577349 0.536271 -0.615650 -0.577349 0.536271 -0.615650 -0.577349 0.615650 0.536271 0.577349 0.615650 0.536271 0.577349 0.536271 -0.615650 0.577349 0.536271 -0.615650 0.577349 0.615650 0.536271 0.577349 -0.536271 0.615650 0.577349 -0.615650 -0.536271 0.577349 -0.615650 -0.536271 0.577349 -0.536271 0.615650 -0.577349 -0.536271 0.615650 -0.577349 -0.615650 -0.536271 0.577349 0.536271 -0.615650 0.577349 -0.615650 -0.536271 0.577349 0.615650 0.536271 0.577349 -0.536271 0.615650 " />
							<TextureCoordinate point="0.0537 0.0537 0.4443 0.0537 0.4443 0.4443 0.0537 0.4443 0.0537 0.0537 0.4443 0.0537 0.4443 0.4443 0.0537 0.4443 0.0537 0.0537 0.4443 0.0537 0.4443 0.4443 0.0537 0.4443 0.0537 0.0537 0.4443 0.0537 0.4443 0.4443 0.0537 0.4443 0.4443 0.0537 0.4443 0.4443 0.0537 0.0537 0.0537 0.4443 " />
						</IndexedTriangleSet>
					</Shape>
				</Group>
			</Transform>
			<Transform DEF="Cube_001_TRANSFORM"
			           translation="0.000000 0.623248 0.726365"
			           scale="1.000000 1.000000 1.000000"
			           rotation="0.000000 1.000000 0.000000 0.000000"
			           >
				<Transform DEF="Cube_001_ifs_TRANSFORM"
				           translation="0.000000 0.000000 0.000000"
				           scale="1.000000 1.000000 1.000000"
				           rotation="0.000000 1.000000 0.000000 0.000000"
				           >
					<Group DEF="group_ME_Cube_023">
						<Shape>
							<Appearance>
								<Material USE="MA_Body" />
							</Appearance>
							<IndexedTriangleSet solid="false"
							                    normalPerVertex="true"
							                    index="0 1 2 0 2 3 4 5 6 4 6 7 8 9 10 8 10 11 12 13 14 12 14 15 4 16 17 4 17 15 18 5 14 18 14 19 "
							                    >
								<Coordinate point="-0.777064 -0.037500 0.664118 -0.777064 0.663591 0.703706 -0.777064 0.738591 -0.624530 -0.777064 0.037500 -0.664118 -0.777064 0.037500 -0.664118 -0.777064 0.738591 -0.624530 0.777064 0.738591 -0.624530 0.777064 0.037500 -0.664118 0.777064 0.037500 -0.664118 0.777064 0.738591 -0.624530 0.777064 0.663591 0.703706 0.777064 -0.037500 0.664118 0.777064 -0.037500 0.664118 0.777064 0.663591 0.703706 -0.777064 0.663591 0.703706 -0.777064 -0.037500 0.664118 0.777064 0.037500 -0.664118 0.777064 -0.037500 0.664118 0.777064 0.738591 -0.624530 0.777064 0.663591 0.703706 " />
								<Normal vector="-0.577349 -0.608966 0.543870 -0.577349 0.543870 0.608966 -0.577349 0.608966 -0.543870 -0.577349 -0.543870 -0.608966 -0.577349 -0.543870 -0.608966 -0.577349 0.608966 -0.543870 0.577349 0.608966 -0.543870 0.577349 -0.543870 -0.608966 0.577349 -0.543870 -0.608966 0.577349 0.608966 -0.543870 0.577349 0.543870 0.608966 0.577349 -0.608966 0.543870 0.577349 -0.608966 0.543870 0.577349 0.543870 0.608966 -0.577349 0.543870 0.608966 -0.577349 -0.608966 0.543870 0.577349 -0.543870 -0.608966 0.577349 -0.608966 0.543870 0.577349 0.608966 -0.543870 0.577349 0.543870 0.608966 " />
								<TextureCoordinate point="0.0537 0.0537 0.4443 0.0537 0.4443 0.4443 0.0537 0.4443 0.0537 0.0537 0.4443 0.0537 0.4443 0.4443 0.0537 0.4443 0.0537 0.0537 0.4443 0.0537 0.4443 0.4443 0.0537 0.4443 0.0537 0.0537 0.4443 0.0537 0.4443 0.4443 0.0537 0.4443 0.4443 0.0537 0.4443 0.4443 0.0537 0.0537 0.0537 0.4443 " />
							</IndexedTriangleSet>
						</Shape>
					</Group>
				</Transform>
			</Transform>
			<Transform DEF="tail_TRANSFORM"
			           translation="0.000000 1.194880 0.750113"
			           scale="1.000000 1.000000 1.000000"
			           rotation="0.000000 1.000000 0.000000 0.000000"
			           >
				<Transform DEF="tail_ifs_TRANSFORM"
				           translation="0.000000 0.000000 0.000000"
				           scale="1.000000 1.000000 1.000000"
				           rotation="0.000000 1.000000 0.000000 0.000000"
				           >
					<Group DEF="group_ME_tail">
						<Shape>
							<Appearance>
								<Material USE="MA_Body" />
							</Appearance>
							<IndexedTriangleSet solid="false"
							                    normalPerVertex="true"
							                    index="0 1 2 0 2 3 4 5 6 4 6 7 8 9 10 8 10 11 12 13 14 12 14 15 4 16 17 4 17 15 18 5 14 18 14 19 "
							                    >
								<Coordinate point="-0.548932 -0.099265 0.473760 -0.548932 0.467533 0.592518 -0.548932 0.666062 -0.355002 -0.548932 0.099265 -0.473760 -0.548932 0.099265 -0.473760 -0.548932 0.666062 -0.355002 0.548932 0.666062 -0.355002 0.548932 0.099265 -0.473760 0.548932 0.099265 -0.473760 0.548932 0.666062 -0.355002 0.548932 0.467533 0.592518 0.548932 -0.099265 0.473760 0.548932 -0.099265 0.473760 0.548932 0.467533 0.592518 -0.548932 0.467533 0.592518 -0.548932 -0.099265 0.473760 0.548932 0.099265 -0.473760 0.548932 -0.099265 0.473760 0.548932 0.666062 -0.355002 0.548932 0.467533 0.592518 " />
								<Normal vector="-0.577349 -0.683462 0.446669 -0.577349 0.446669 0.683462 -0.577349 0.683462 -0.446669 -0.577349 -0.446669 -0.683462 -0.577349 -0.446669 -0.683462 -0.577349 0.683462 -0.446669 0.577349 0.683462 -0.446669 0.577349 -0.446669 -0.683462 0.577349 -0.446669 -0.683462 0.577349 0.683462 -0.446669 0.577349 0.446669 0.683462 0.577349 -0.683462 0.446669 0.577349 -0.683462 0.446669 0.577349 0.446669 0.683462 -0.577349 0.446669 0.683462 -0.577349 -0.683462 0.446669 0.577349 -0.446669 -0.683462 0.577349 -0.683462 0.446669 0.577349 0.683462 -0.446669 0.577349 0.446669 0.683462 " />
								<TextureCoordinate point="0.0537 0.0537 0.4443 0.0537 0.4443 0.4443 0.0537 0.4443 0.0537 0.0537 0.4443 0.0537 0.4443 0.4443 0.0537 0.4443 0.0537 0.0537 0.4443 0.0537 0.4443 0.4443 0.0537 0.4443 0.0537 0.0537 0.4443 0.0537 0.4443 0.4443 0.0537 0.4443 0.4443 0.0537 0.4443 0.4443 0.0537 0.0537 0.0537 0.4443 " />
							</IndexedTriangleSet>
						</Shape>
					</Group>
				</Transform>
				<Transform DEF="tail1_TRANSFORM"
				           translation="0.000000 0.414864 0.086925"
				           scale="1.000000 1.000000 1.000000"
				           rotation="0.000000 1.000000 0.000000 0.000000"
				           >
					<Transform DEF="tail1_ifs_TRANSFORM"
					           translation="0.000000 0.000000 0.000000"
					           scale="1.000000 1.000000 1.000000"
					           rotation="0.000000 1.000000 0.000000 0.000000"
					           >
						<Group DEF="group_ME_tail1">
							<Shape>
								<Appearance>
									<Material USE="MA_Body" />
								</Appearance>
								<IndexedTriangleSet solid="false"
								                    normalPerVertex="true"
								                    index="0 1 2 0 2 3 4 5 6 4 6 7 8 9 10 8 10 11 12 13 14 12 14 15 4 16 17 4 17 15 18 5 14 18 14 19 "
								                    >
									<Coordinate point="-0.269089 -0.110880 0.226207 -0.269089 0.372713 0.463249 -0.269089 0.594472 0.010834 -0.269089 0.110880 -0.226207 -0.269089 0.110880 -0.226207 -0.269089 0.594472 0.010834 0.269089 0.594472 0.010834 0.269089 0.110880 -0.226207 0.269089 0.110880 -0.226207 0.269089 0.594472 0.010834 0.269089 0.372713 0.463249 0.269089 -0.110880 0.226207 0.269089 -0.110880 0.226207 0.269089 0.372713 0.463249 -0.269089 0.372713 0.463249 -0.269089 -0.110880 0.226207 0.269089 0.110880 -0.226207 0.269089 -0.110880 0.226207 0.269089 0.594472 0.010834 0.269089 0.372713 0.463249 " />
									<Normal vector="-0.577349 -0.772515 0.264290 -0.577349 0.264290 0.772515 -0.577349 0.772515 -0.264290 -0.577349 -0.264290 -0.772515 -0.577349 -0.264290 -0.772515 -0.577349 0.772515 -0.264290 0.577349 0.772515 -0.264290 0.577349 -0.264290 -0.772515 0.577349 -0.264290 -0.772515 0.577349 0.772515 -0.264290 0.577349 0.264290 0.772515 0.577349 -0.772515 0.264290 0.577349 -0.772515 0.264290 0.577349 0.264290 0.772515 -0.577349 0.264290 0.772515 -0.577349 -0.772515 0.264290 0.577349 -0.264290 -0.772515 0.577349 -0.772515 0.264290 0.577349 0.772515 -0.264290 0.577349 0.264290 0.772515 " />
									<TextureCoordinate point="0.0537 0.0537 0.4443 0.0537 0.4443 0.4443 0.0537 0.4443 0.0537 0.0537 0.4443 0.0537 0.4443 0.4443 0.0537 0.4443 0.0537 0.0537 0.4443 0.0537 0.4443 0.4443 0.0537 0.4443 0.0537 0.0537 0.4443 0.0537 0.4443 0.4443 0.0537 0.4443 0.4443 0.0537 0.4443 0.4443 0.0537 0.0537 0.0537 0.4443 " />
								</IndexedTriangleSet>
							</Shape>
						</Group>
					</Transform>
				</Transform>
			</Transform>
			<Transform DEF="Cube_004_TRANSFORM"
			           translation="0.000000 -0.265148 0.726365"
			           scale="1.000000 1.000000 1.000000"
			           rotation="0.000000 1.000000 0.000000 0.000000"
			           >
				<Transform DEF="Cube_004_ifs_TRANSFORM"
				           translation="0.000000 0.000000 0.000000"
				           scale="1.000000 1.000000 1.000000"
				           rotation="0.000000 1.000000 0.000000 0.000000"
				           >
					<Group DEF="group_ME_Cube_026">
						<Shape>
							<Appearance>
								<Material USE="MA_Body" />
							</Appearance>
							<IndexedTriangleSet solid="false"
							                    normalPerVertex="true"
							                    index="0 1 2 0 2 3 4 5 6 4 6 7 8 9 10 8 10 11 12 13 14 12 14 15 4 16 17 4 17 15 18 5 14 18 14 19 "
							                    >
								<Coordinate point="-0.784023 -0.386075 -0.646318 -0.784023 -1.113237 -0.211952 -0.784023 -0.341088 1.080685 -0.784023 0.386075 0.646318 -0.784023 0.386075 0.646318 -0.784023 -0.341088 1.080685 0.784023 -0.341088 1.080685 0.784023 0.386075 0.646318 0.784023 0.386075 0.646318 0.784023 -0.341088 1.080685 0.784023 -1.113237 -0.211952 0.784023 -0.386075 -0.646318 0.784023 -0.386075 -0.646318 0.784023 -1.113237 -0.211952 -0.784023 -1.113237 -0.211952 -0.784023 -0.386075 -0.646318 0.784023 0.386075 0.646318 0.784023 -0.386075 -0.646318 0.784023 -0.341088 1.080685 0.784023 -1.113237 -0.211952 " />
								<Normal vector="-0.577349 0.199561 -0.791711 -0.577349 -0.791711 -0.199561 -0.577349 -0.199561 0.791711 -0.577349 0.791711 0.199561 -0.577349 0.791711 0.199561 -0.577349 -0.199561 0.791711 0.577349 -0.199561 0.791711 0.577349 0.791711 0.199561 0.577349 0.791711 0.199561 0.577349 -0.199561 0.791711 0.577349 -0.791711 -0.199561 0.577349 0.199561 -0.791711 0.577349 0.199561 -0.791711 0.577349 -0.791711 -0.199561 -0.577349 -0.791711 -0.199561 -0.577349 0.199561 -0.791711 0.577349 0.791711 0.199561 0.577349 0.199561 -0.791711 0.577349 -0.199561 0.791711 0.577349 -0.791711 -0.199561 " />
								<TextureCoordinate point="0.0537 0.0537 0.4443 0.0537 0.4443 0.4443 0.0537 0.4443 0.0537 0.0537 0.4443 0.0537 0.4443 0.4443 0.0537 0.4443 0.0537 0.0537 0.4443 0.0537 0.4443 0.4443 0.0537 0.4443 0.0537 0.0537 0.4443 0.0537 0.4443 0.4443 0.0537 0.4443 0.4443 0.0537 0.4443 0.4443 0.0537 0.0537 0.0537 0.4443 " />
							</IndexedTriangleSet>
						</Shape>
					</Group>
				</Transform>
			</Transform>
			<Transform DEF="head_TRANSFORM"
			           translation="0.000000 -0.863546 1.136061"
			           scale="1.000000 1.000000 1.000000"
			           rotation="0.000000 1.000000 0.000000 0.000000"
			           >
				<Transform DEF="head_ifs_TRANSFORM"
				           translation="0.000000 0.000000 0.000000"
				           scale="1.000000 1.000000 1.000000"
				           rotation="0.000000 1.000000 0.000000 0.000000"
				           >
					<Group DEF="group_ME_head">
						<Shape>
							<Appearance>
								<Material USE="MA_Body" />
							</Appearance>
							<IndexedTriangleSet solid="false"
							                    normalPerVertex="true"
							                    index="0 1 2 0 2 3 4 5 6 4 6 7 8 9 10 8 10 11 12 13 14 12 14 15 4 16 17 4 17 15 18 5 14 18 14 19 "
							                    >
								<Coordinate point="-0.857240 -0.471533 -0.572815 -0.857240 -1.201134 0.027782 -0.857240 -0.258068 1.173412 -0.857240 0.471533 0.572815 -0.857240 0.471533 0.572815 -0.857240 -0.258068 1.173412 0.857240 -0.258068 1.173412 0.857240 0.471533 0.572815 0.857240 0.471533 0.572815 0.857240 -0.258068 1.173412 0.857240 -1.201134 0.027782 0.857240 -0.471533 -0.572815 0.857240 -0.471533 -0.572815 0.857240 -1.201134 0.027782 -0.857240 -1.201134 0.027782 -0.857240 -0.471533 -0.572815 0.857240 0.471533 0.572815 0.857240 -0.471533 -0.572815 0.857240 -0.258068 1.173412 0.857240 -1.201134 0.027782 " />
								<Normal vector="-0.577349 0.078799 -0.812677 -0.577349 -0.812677 -0.078799 -0.577349 -0.078799 0.812677 -0.577349 0.812677 0.078799 -0.577349 0.812677 0.078799 -0.577349 -0.078799 0.812677 0.577349 -0.078799 0.812677 0.577349 0.812677 0.078799 0.577349 0.812677 0.078799 0.577349 -0.078799 0.812677 0.577349 -0.812677 -0.078799 0.577349 0.078799 -0.812677 0.577349 0.078799 -0.812677 0.577349 -0.812677 -0.078799 -0.577349 -0.812677 -0.078799 -0.577349 0.078799 -0.812677 0.577349 0.812677 0.078799 0.577349 0.078799 -0.812677 0.577349 -0.078799 0.812677 0.577349 -0.812677 -0.078799 " />
								<TextureCoordinate point="0.0537 0.0537 0.4443 0.0537 0.4443 0.4443 0.0537 0.4443 0.0537 0.0537 0.4443 0.0537 0.4443 0.4443 0.0537 0.4443 0.0537 0.0537 0.4443 0.0537 0.4443 0.4443 0.0537 0.4443 0.0537 0.0537 0.4443 0.0537 0.4443 0.4443 0.0537 0.4443 0.4443 0.0537 0.4443 0.4443 0.0537 0.0537 0.0537 0.4443 " />
							</IndexedTriangleSet>
						</Shape>
					</Group>
				</Transform>
				<Transform DEF="Cube_006_TRANSFORM"
				           translation="0.000000 -0.584365 -0.262160"
				           scale="1.000000 1.000000 1.000000"
				           rotation="0.000000 1.000000 0.000000 0.000000"
				           >
					<Transform DEF="Cube_006_ifs_TRANSFORM"
					           translation="0.000000 0.000000 0.000000"
					           scale="1.000000 1.000000 1.000000"
					           rotation="0.000000 1.000000 0.000000 0.000000"
					           >
						<Group DEF="group_ME_Cube_028">
							<Shape>
								<Appearance>
									<Material USE="MA_Body" />
								</Appearance>
								<IndexedTriangleSet solid="false"
								                    normalPerVertex="true"
								                    index="0 1 2 0 2 3 4 5 6 4 6 7 8 9 10 8 10 11 12 13 14 12 14 15 4 16 17 4 17 15 18 5 14 18 14 19 "
								                    >
									<Coordinate point="-0.661679 0.055849 -0.274551 -0.661679 -0.659958 -0.420159 -0.661679 -0.771656 0.128943 -0.661679 -0.055849 0.274551 -0.661679 -0.055849 0.274551 -0.661679 -0.771656 0.128943 0.661679 -0.771656 0.128943 0.661679 -0.055849 0.274551 0.661679 -0.055849 0.274551 0.661679 -0.771656 0.128943 0.661679 -0.659958 -0.420159 0.661679 0.055849 -0.274551 0.661679 0.055849 -0.274551 0.661679 -0.659958 -0.420159 -0.661679 -0.659958 -0.420159 -0.661679 0.055849 -0.274551 0.661679 -0.055849 0.274551 0.661679 0.055849 -0.274551 0.661679 -0.771656 0.128943 0.661679 -0.659958 -0.420159 " />
									<Normal vector="-0.577349 0.680837 -0.450667 -0.577349 -0.450667 -0.680837 -0.577349 -0.680837 0.450667 -0.577349 0.450667 0.680837 -0.577349 0.450667 0.680837 -0.577349 -0.680837 0.450667 0.577349 -0.680837 0.450667 0.577349 0.450667 0.680837 0.577349 0.450667 0.680837 0.577349 -0.680837 0.450667 0.577349 -0.450667 -0.680837 0.577349 0.680837 -0.450667 0.577349 0.680837 -0.450667 0.577349 -0.450667 -0.680837 -0.577349 -0.450667 -0.680837 -0.577349 0.680837 -0.450667 0.577349 0.450667 0.680837 0.577349 0.680837 -0.450667 0.577349 -0.680837 0.450667 0.577349 -0.450667 -0.680837 " />
									<TextureCoordinate point="0.0537 0.0537 0.4443 0.0537 0.4443 0.4443 0.0537 0.4443 0.0537 0.0537 0.4443 0.0537 0.4443 0.4443 0.0537 0.4443 0.0537 0.0537 0.4443 0.0537 0.4443 0.4443 0.0537 0.4443 0.0537 0.0537 0.4443 0.0537 0.4443 0.4443 0.0537 0.4443 0.4443 0.0537 0.4443 0.4443 0.0537 0.0537 0.0537 0.4443 " />
								</IndexedTriangleSet>
							</Shape>
						</Group>
					</Transform>
				</Transform>
				<Transform DEF="Cube_007_TRANSFORM"
				           translation="0.000000 -0.380191 0.679711"
				           scale="1.000000 1.000000 1.000000"
				           rotation="0.000000 1.000000 0.000000 0.000000"
				           >
					<Transform DEF="Cube_007_ifs_TRANSFORM"
					           translation="0.000000 0.000000 0.000000"
					           scale="1.000000 1.000000 1.000000"
					           rotation="0.000000 1.000000 0.000000 0.000000"
					           >
						<Group DEF="group_ME_Cube_029">
							<Shape>
								<Appearance>
									<Material USE="MA_Body" />
								</Appearance>
								<IndexedTriangleSet solid="false"
								                    normalPerVertex="true"
								                    index="0 1 2 0 2 3 4 5 6 4 6 7 8 9 10 8 10 11 12 13 14 12 14 15 4 16 17 4 17 15 18 5 14 18 14 19 "
								                    >
									<Coordinate point="-1.282195 -0.999481 -0.444001 -1.282195 0.112664 1.087845 -1.282195 0.556073 0.765923 -1.282195 -0.556073 -0.765923 -1.282195 -0.556073 -0.765923 -1.282195 0.556073 0.765923 1.282195 0.556073 0.765923 1.282195 -0.556073 -0.765923 1.282195 -0.556073 -0.765923 1.282195 0.556073 0.765923 1.282195 0.112664 1.087845 1.282195 -0.999481 -0.444001 1.282195 -0.999481 -0.444001 1.282195 0.112664 1.087845 -1.282195 0.112664 1.087845 -1.282195 -0.999481 -0.444001 1.282195 -0.556073 -0.765923 1.282195 -0.999481 -0.444001 1.282195 0.556073 0.765923 1.282195 0.112664 1.087845 " />
									<Normal vector="-0.577349 -0.806391 -0.127995 -0.577349 -0.127995 0.806391 -0.577349 0.806391 0.127995 -0.577349 0.127995 -0.806391 -0.577349 0.127995 -0.806391 -0.577349 0.806391 0.127995 0.577349 0.806391 0.127995 0.577349 0.127995 -0.806391 0.577349 0.127995 -0.806391 0.577349 0.806391 0.127995 0.577349 -0.127995 0.806391 0.577349 -0.806391 -0.127995 0.577349 -0.806391 -0.127995 0.577349 -0.127995 0.806391 -0.577349 -0.127995 0.806391 -0.577349 -0.806391 -0.127995 0.577349 0.127995 -0.806391 0.577349 -0.806391 -0.127995 0.577349 0.806391 0.127995 0.577349 -0.127995 0.806391 " />
									<TextureCoordinate point="0.0286 0.5306 0.4694 0.5306 0.4694 0.9714 0.0286 0.9714 0.0286 0.5306 0.4694 0.5306 0.4694 0.9714 0.0286 0.9714 0.0286 0.5306 0.4694 0.5306 0.4694 0.9714 0.0286 0.9714 0.0286 0.5306 0.4694 0.5306 0.4694 0.9714 0.0286 0.9714 0.4694 0.5306 0.4694 0.9714 0.0286 0.5306 0.0286 0.9714 " />
								</IndexedTriangleSet>
							</Shape>
						</Group>
					</Transform>
					<Transform DEF="Cube_008_TRANSFORM"
					           translation="0.000000 0.856218 1.212442"
					           scale="1.000000 1.000000 1.000000"
					           rotation="0.000000 1.000000 0.000000 0.000000"
					           >
						<Transform DEF="Cube_008_ifs_TRANSFORM"
						           translation="0.000000 0.000000 0.000000"
						           scale="1.000000 1.000000 1.000000"
						           rotation="0.000000 1.000000 0.000000 0.000000"
						           >
							<Group DEF="group_ME_Cube_001">
								<Shape>
									<Appearance>
										<Material USE="MA_Body" />
									</Appearance>
									<IndexedTriangleSet solid="false"
									                    normalPerVertex="true"
									                    index="0 1 2 0 2 3 4 5 6 4 6 7 8 9 10 8 10 11 12 13 14 12 14 15 4 16 17 4 17 15 18 5 14 18 14 19 "
									                    >
										<Coordinate point="-1.030464 -0.787780 -0.287284 -1.030464 0.029209 0.838019 -1.030464 0.408494 0.562651 -1.030464 -0.408494 -0.562651 -1.030464 -0.408494 -0.562651 -1.030464 0.408494 0.562651 1.030464 0.408494 0.562651 1.030464 -0.408494 -0.562651 1.030464 -0.408494 -0.562651 1.030464 0.408494 0.562651 1.030464 0.029209 0.838019 1.030464 -0.787780 -0.287284 1.030464 -0.787780 -0.287284 1.030464 0.029209 0.838019 -1.030464 0.029209 0.838019 -1.030464 -0.787780 -0.287284 1.030464 -0.408494 -0.562651 1.030464 -0.787780 -0.287284 1.030464 0.408494 0.562651 1.030464 0.029209 0.838019 " />
										<Normal vector="-0.577349 -0.806391 -0.127995 -0.577349 -0.127995 0.806391 -0.577349 0.806391 0.127995 -0.577349 0.127995 -0.806391 -0.577349 0.127995 -0.806391 -0.577349 0.806391 0.127995 0.577349 0.806391 0.127995 0.577349 0.127995 -0.806391 0.577349 0.127995 -0.806391 0.577349 0.806391 0.127995 0.577349 -0.127995 0.806391 0.577349 -0.806391 -0.127995 0.577349 -0.806391 -0.127995 0.577349 -0.127995 0.806391 -0.577349 -0.127995 0.806391 -0.577349 -0.806391 -0.127995 0.577349 0.127995 -0.806391 0.577349 -0.806391 -0.127995 0.577349 0.806391 0.127995 0.577349 -0.127995 0.806391 " />
										<TextureCoordinate point="0.0286 0.5306 0.4694 0.5306 0.4694 0.9714 0.0286 0.9714 0.0286 0.5306 0.4694 0.5306 0.4694 0.9714 0.0286 0.9714 0.0286 0.5306 0.4694 0.5306 0.4694 0.9714 0.0286 0.9714 0.0286 0.5306 0.4694 0.5306 0.4694 0.9714 0.0286 0.9714 0.4694 0.5306 0.4694 0.9714 0.0286 0.5306 0.0286 0.9714 " />
									</IndexedTriangleSet>
								</Shape>
							</Group>
						</Transform>
					</Transform>
				</Transform>
				<Transform DEF="Cube_009_TRANSFORM"
				           translation="0.000000 -0.666783 0.815626"
				           scale="1.000000 1.000000 1.000000"
				           rotation="0.000000 1.000000 0.000000 0.000000"
				           >
					<Transform DEF="Cube_009_ifs_TRANSFORM"
					           translation="0.000000 0.000000 0.000000"
					           scale="1.000000 1.000000 1.000000"
					           rotation="0.000000 1.000000 0.000000 0.000000"
					           >
						<Group DEF="group_ME_Cube_002">
							<Shape>
								<Appearance>
									<Material USE="MA_Body" />
								</Appearance>
								<IndexedTriangleSet solid="false"
								                    normalPerVertex="true"
								                    index="0 1 2 0 2 3 4 5 6 4 6 7 8 9 10 8 10 11 12 13 14 12 14 15 4 16 17 4 17 15 18 5 14 18 14 19 "
								                    >
									<Coordinate point="-1.013388 -1.059124 -0.073458 -1.013388 -0.258133 1.029809 -1.013388 0.400495 0.551633 -1.013388 -0.400495 -0.551633 -1.013388 -0.400495 -0.551633 -1.013388 0.400495 0.551633 1.013388 0.400495 0.551633 1.013388 -0.400495 -0.551633 1.013388 -0.400495 -0.551633 1.013388 0.400495 0.551633 1.013388 -0.258133 1.029809 1.013388 -1.059124 -0.073458 1.013388 -1.059124 -0.073458 1.013388 -0.258133 1.029809 -1.013388 -0.258133 1.029809 -1.013388 -1.059124 -0.073458 1.013388 -0.400495 -0.551633 1.013388 -1.059124 -0.073458 1.013388 0.400495 0.551633 1.013388 -0.258133 1.029809 " />
									<Normal vector="-0.577349 -0.806391 -0.127995 -0.577349 -0.127995 0.806391 -0.577349 0.806391 0.127995 -0.577349 0.127995 -0.806391 -0.577349 0.127995 -0.806391 -0.577349 0.806391 0.127995 0.577349 0.806391 0.127995 0.577349 0.127995 -0.806391 0.577349 0.127995 -0.806391 0.577349 0.806391 0.127995 0.577349 -0.127995 0.806391 0.577349 -0.806391 -0.127995 0.577349 -0.806391 -0.127995 0.577349 -0.127995 0.806391 -0.577349 -0.127995 0.806391 -0.577349 -0.806391 -0.127995 0.577349 0.127995 -0.806391 0.577349 -0.806391 -0.127995 0.577349 0.806391 0.127995 0.577349 -0.127995 0.806391 " />
									<TextureCoordinate point="0.0286 0.5306 0.4694 0.5306 0.4694 0.9714 0.0286 0.9714 0.0286 0.5306 0.4694 0.5306 0.4694 0.9714 0.0286 0.9714 0.0286 0.5306 0.4694 0.5306 0.4694 0.9714 0.0286 0.9714 0.0286 0.5306 0.4694 0.5306 0.4694 0.9714 0.0286 0.9714 0.4694 0.5306 0.4694 0.9714 0.0286 0.5306 0.0286 0.9714 " />
								</IndexedTriangleSet>
							</Shape>
						</Group>
					</Transform>
					<Transform DEF="Cube_011_TRANSFORM"
					           translation="0.000000 0.543270 0.737125"
					           scale="1.000000 1.000000 1.000000"
					           rotation="0.000000 1.000000 0.000000 0.000000"
					           >
						<Transform DEF="Cube_011_ifs_TRANSFORM"
						           translation="0.000000 0.000000 0.000000"
						           scale="1.000000 1.000000 1.000000"
						           rotation="0.000000 1.000000 0.000000 0.000000"
						           >
							<Group DEF="group_ME_Cube_004">
								<Shape>
									<Appearance>
										<Material USE="MA_Body" />
									</Appearance>
									<IndexedTriangleSet solid="false"
									                    normalPerVertex="true"
									                    index="0 1 2 0 2 3 4 5 6 4 6 7 8 9 10 8 10 11 12 13 14 12 14 15 4 16 17 4 17 15 18 5 14 18 14 19 "
									                    >
										<Coordinate point="-0.773788 -0.815807 0.236347 -0.773788 0.264934 0.806976 -0.773788 0.540371 0.285315 -0.773788 -0.540371 -0.285315 -0.773788 -0.540371 -0.285315 -0.773788 0.540371 0.285315 0.773788 0.540371 0.285315 0.773788 -0.540371 -0.285315 0.773788 -0.540371 -0.285315 0.773788 0.540371 0.285315 0.773788 0.264934 0.806976 0.773788 -0.815807 0.236347 0.773788 -0.815807 0.236347 0.773788 0.264934 0.806976 -0.773788 0.264934 0.806976 -0.773788 -0.815807 0.236347 0.773788 -0.540371 -0.285315 0.773788 -0.815807 0.236347 0.773788 0.540371 0.285315 0.773788 0.264934 0.806976 " />
										<Normal vector="-0.577349 -0.780114 0.240974 -0.577349 0.240974 0.780114 -0.577349 0.780114 -0.240974 -0.577349 -0.240974 -0.780114 -0.577349 -0.240974 -0.780114 -0.577349 0.780114 -0.240974 0.577349 0.780114 -0.240974 0.577349 -0.240974 -0.780114 0.577349 -0.240974 -0.780114 0.577349 0.780114 -0.240974 0.577349 0.240974 0.780114 0.577349 -0.780114 0.240974 0.577349 -0.780114 0.240974 0.577349 0.240974 0.780114 -0.577349 0.240974 0.780114 -0.577349 -0.780114 0.240974 0.577349 -0.240974 -0.780114 0.577349 -0.780114 0.240974 0.577349 0.780114 -0.240974 0.577349 0.240974 0.780114 " />
										<TextureCoordinate point="0.0286 0.5306 0.4694 0.5306 0.4694 0.9714 0.0286 0.9714 0.0286 0.5306 0.4694 0.5306 0.4694 0.9714 0.0286 0.9714 0.0286 0.5306 0.4694 0.5306 0.4694 0.9714 0.0286 0.9714 0.0286 0.5306 0.4694 0.5306 0.4694 0.9714 0.0286 0.9714 0.4694 0.5306 0.4694 0.9714 0.0286 0.5306 0.0286 0.9714 " />
									</IndexedTriangleSet>
								</Shape>
							</Group>
						</Transform>
					</Transform>
				</Transform>
				<Transform DEF="Cube_010_TRANSFORM"
				           translation="0.000000 -0.798249 0.808130"
				           scale="1.000000 1.000000 1.000000"
				           rotation="0.000000 1.000000 0.000000 0.000000"
				           >
					<Transform DEF="Cube_010_ifs_TRANSFORM"
					           translation="0.000000 0.000000 0.000000"
					           scale="1.000000 1.000000 1.000000"
					           rotation="0.000000 1.000000 0.000000 0.000000"
					           >
						<Group DEF="group_ME_Cube_003">
							<Shape>
								<Appearance>
									<Material USE="MA_Body" />
								</Appearance>
								<IndexedTriangleSet solid="false"
								                    normalPerVertex="true"
								                    index="0 1 2 0 2 3 4 5 6 4 6 7 8 9 10 8 10 11 12 13 14 12 14 15 4 16 17 4 17 15 18 5 14 18 14 19 "
								                    >
									<Coordinate point="-1.178302 -0.897343 -0.453808 -1.178302 -1.003230 -0.068519 -1.178302 -0.052944 0.192645 -1.178302 0.052944 -0.192645 -1.178302 0.052944 -0.192645 -1.178302 -0.052944 0.192645 1.178302 -0.052944 0.192645 1.178302 0.052944 -0.192645 1.178302 0.052944 -0.192645 1.178302 -0.052944 0.192645 1.178302 -1.003230 -0.068519 1.178302 -0.897343 -0.453808 1.178302 -0.897343 -0.453808 1.178302 -1.003230 -0.068519 -1.178302 -1.003230 -0.068519 -1.178302 -0.897343 -0.453808 1.178302 0.052944 -0.192645 1.178302 -0.897343 -0.453808 1.178302 -0.052944 0.192645 1.178302 -1.003230 -0.068519 " />
									<Normal vector="-0.577349 -0.403699 -0.709677 -0.577349 -0.709677 0.403699 -0.577349 0.403699 0.709677 -0.577349 0.709677 -0.403699 -0.577349 0.709677 -0.403699 -0.577349 0.403699 0.709677 0.577349 0.403699 0.709677 0.577349 0.709677 -0.403699 0.577349 0.709677 -0.403699 0.577349 0.403699 0.709677 0.577349 -0.709677 0.403699 0.577349 -0.403699 -0.709677 0.577349 -0.403699 -0.709677 0.577349 -0.709677 0.403699 -0.577349 -0.709677 0.403699 -0.577349 -0.403699 -0.709677 0.577349 0.709677 -0.403699 0.577349 -0.403699 -0.709677 0.577349 0.403699 0.709677 0.577349 -0.709677 0.403699 " />
									<TextureCoordinate point="0.5408 0.5359 0.9612 0.5359 0.9612 0.9563 0.5408 0.9563 0.5408 0.5359 0.9612 0.5359 0.9612 0.9563 0.5408 0.9563 0.5408 0.5359 0.9612 0.5359 0.9612 0.9563 0.5408 0.9563 0.5408 0.5359 0.9612 0.5359 0.9612 0.9563 0.5408 0.9563 0.9612 0.5359 0.9612 0.9563 0.5408 0.5359 0.5408 0.9563 " />
								</IndexedTriangleSet>
							</Shape>
						</Group>
					</Transform>
				</Transform>
				<Transform DEF="Cube_012_TRANSFORM"
				           translation="0.000000 -1.038250 -0.152683"
				           scale="1.000000 1.000000 1.000000"
				           rotation="0.000000 1.000000 0.000000 0.000000"
				           >
					<Transform DEF="Cube_012_ifs_TRANSFORM"
					           translation="0.000000 0.000000 0.000000"
					           scale="1.000000 1.000000 1.000000"
					           rotation="0.000000 1.000000 0.000000 0.000000"
					           >
						<Group DEF="group_ME_Cube_005">
							<Shape>
								<Appearance>
									<Material USE="MA_Body" />
								</Appearance>
								<IndexedTriangleSet solid="false"
								                    normalPerVertex="true"
								                    index="0 1 2 0 2 3 4 5 6 4 6 7 8 9 10 8 10 11 12 13 14 12 14 15 4 16 17 4 17 15 18 5 14 18 14 19 "
								                    >
									<Coordinate point="-1.059615 -0.421011 -0.024499 -1.059615 -0.200110 0.371223 -1.059615 0.110451 0.197861 -1.059615 -0.110451 -0.197861 -1.059615 -0.110451 -0.197861 -1.059615 0.110451 0.197861 1.059615 0.110451 0.197861 1.059615 -0.110451 -0.197861 1.059615 -0.110451 -0.197861 1.059615 0.110451 0.197861 1.059615 -0.200110 0.371223 1.059615 -0.421011 -0.024499 1.059615 -0.421011 -0.024499 1.059615 -0.200110 0.371223 -1.059615 -0.200110 0.371223 -1.059615 -0.421011 -0.024499 1.059615 -0.110451 -0.197861 1.059615 -0.421011 -0.024499 1.059615 0.110451 0.197861 1.059615 -0.200110 0.371223 " />
									<Normal vector="-0.577349 -0.785516 -0.222694 -0.577349 -0.222694 0.785516 -0.577349 0.785516 0.222694 -0.577349 0.222694 -0.785516 -0.577349 0.222694 -0.785516 -0.577349 0.785516 0.222694 0.577349 0.785516 0.222694 0.577349 0.222694 -0.785516 0.577349 0.222694 -0.785516 0.577349 0.785516 0.222694 0.577349 -0.222694 0.785516 0.577349 -0.785516 -0.222694 0.577349 -0.785516 -0.222694 0.577349 -0.222694 0.785516 -0.577349 -0.222694 0.785516 -0.577349 -0.785516 -0.222694 0.577349 0.222694 -0.785516 0.577349 -0.785516 -0.222694 0.577349 0.785516 0.222694 0.577349 -0.222694 0.785516 " />
									<TextureCoordinate point="0.0286 0.5306 0.4694 0.5306 0.4694 0.9714 0.0286 0.9714 0.0286 0.5306 0.4694 0.5306 0.4694 0.9714 0.0286 0.9714 0.0286 0.5306 0.4694 0.5306 0.4694 0.9714 0.0286 0.9714 0.0286 0.5306 0.4694 0.5306 0.4694 0.9714 0.0286 0.9714 0.4694 0.5306 0.4694 0.9714 0.0286 0.5306 0.0286 0.9714 " />
								</IndexedTriangleSet>
							</Shape>
						</Group>
					</Transform>
				</Transform>
				<Transform DEF="Cube_013_TRANSFORM"
				           translation="0.000000 -1.449974 -0.176142"
				           scale="1.000000 1.000000 1.000000"
				           rotation="0.000000 1.000000 0.000000 0.000000"
				           >
					<Transform DEF="Cube_013_ifs_TRANSFORM"
					           translation="0.000000 0.000000 0.000000"
					           scale="1.000000 1.000000 1.000000"
					           rotation="0.000000 1.000000 0.000000 0.000000"
					           >
						<Group DEF="group_ME_Cube_006">
							<Shape>
								<Appearance>
									<Material USE="MA_Body" />
								</Appearance>
								<IndexedTriangleSet solid="false"
								                    normalPerVertex="true"
								                    index="0 1 2 0 2 3 4 5 6 4 6 7 8 9 10 8 10 11 12 13 14 12 14 15 4 16 17 4 17 15 18 5 14 18 14 19 "
								                    >
									<Coordinate point="-0.512759 -0.365545 0.069876 -0.512759 -0.156978 0.337437 -0.512759 0.104284 0.133781 -0.512759 -0.104284 -0.133781 -0.512759 -0.104284 -0.133781 -0.512759 0.104284 0.133781 0.512759 0.104284 0.133781 0.512759 -0.104284 -0.133781 0.512759 -0.104284 -0.133781 0.512759 0.104284 0.133781 0.512759 -0.156978 0.337437 0.512759 -0.365545 0.069876 0.512759 -0.365545 0.069876 0.512759 -0.156978 0.337437 -0.512759 -0.156978 0.337437 -0.512759 -0.365545 0.069876 0.512759 -0.104284 -0.133781 0.512759 -0.365545 0.069876 0.512759 0.104284 0.133781 0.512759 -0.156978 0.337437 " />
									<Normal vector="-0.577349 -0.810297 -0.100375 -0.577349 -0.100375 0.810297 -0.577349 0.810297 0.100375 -0.577349 0.100375 -0.810297 -0.577349 0.100375 -0.810297 -0.577349 0.810297 0.100375 0.577349 0.810297 0.100375 0.577349 0.100375 -0.810297 0.577349 0.100375 -0.810297 0.577349 0.810297 0.100375 0.577349 -0.100375 0.810297 0.577349 -0.810297 -0.100375 0.577349 -0.810297 -0.100375 0.577349 -0.100375 0.810297 -0.577349 -0.100375 0.810297 -0.577349 -0.810297 -0.100375 0.577349 0.100375 -0.810297 0.577349 -0.810297 -0.100375 0.577349 0.810297 0.100375 0.577349 -0.100375 0.810297 " />
									<TextureCoordinate point="0.5408 0.5359 0.9612 0.5359 0.9612 0.9563 0.5408 0.9563 0.5408 0.5359 0.9612 0.5359 0.9612 0.9563 0.5408 0.9563 0.5408 0.5359 0.9612 0.5359 0.9612 0.9563 0.5408 0.9563 0.5408 0.5359 0.9612 0.5359 0.9612 0.9563 0.5408 0.9563 0.9612 0.5359 0.9612 0.9563 0.5408 0.5359 0.5408 0.9563 " />
								</IndexedTriangleSet>
							</Shape>
						</Group>
					</Transform>
				</Transform>
				<Transform DEF="Cube_014_TRANSFORM"
				           translation="0.000000 -1.192430 -0.376901"
				           scale="1.000000 1.000000 1.000000"
				           rotation="0.000000 1.000000 0.000000 0.000000"
				           >
					<Transform DEF="Cube_014_ifs_TRANSFORM"
					           translation="0.000000 0.000000 0.000000"
					           scale="1.000000 1.000000 1.000000"
					           rotation="0.000000 1.000000 0.000000 0.000000"
					           >
						<Group DEF="group_ME_Cube_007">
							<Shape>
								<Appearance>
									<Material USE="MA_Body" />
								</Appearance>
								<IndexedTriangleSet solid="false"
								                    normalPerVertex="true"
								                    index="0 1 2 0 2 3 4 5 6 4 6 7 8 9 10 8 10 11 12 13 14 12 14 15 4 16 17 4 17 15 18 5 14 18 14 19 "
								                    >
									<Coordinate point="-0.700074 -0.466384 0.115701 -0.700074 -0.226028 0.424042 -0.700074 0.120178 0.154171 -0.700074 -0.120178 -0.154171 -0.700074 -0.120178 -0.154171 -0.700074 0.120178 0.154171 0.700074 0.120178 0.154171 0.700074 -0.120178 -0.154171 0.700074 -0.120178 -0.154171 0.700074 0.120178 0.154171 0.700074 -0.226028 0.424042 0.700074 -0.466384 0.115701 0.700074 -0.466384 0.115701 0.700074 -0.226028 0.424042 -0.700074 -0.226028 0.424042 -0.700074 -0.466384 0.115701 0.700074 -0.120178 -0.154171 0.700074 -0.466384 0.115701 0.700074 0.120178 0.154171 0.700074 -0.226028 0.424042 " />
									<Normal vector="-0.577349 -0.810297 -0.100375 -0.577349 -0.100375 0.810297 -0.577349 0.810297 0.100375 -0.577349 0.100375 -0.810297 -0.577349 0.100375 -0.810297 -0.577349 0.810297 0.100375 0.577349 0.810297 0.100375 0.577349 0.100375 -0.810297 0.577349 0.100375 -0.810297 0.577349 0.810297 0.100375 0.577349 -0.100375 0.810297 0.577349 -0.810297 -0.100375 0.577349 -0.810297 -0.100375 0.577349 -0.100375 0.810297 -0.577349 -0.100375 0.810297 -0.577349 -0.810297 -0.100375 0.577349 0.100375 -0.810297 0.577349 -0.810297 -0.100375 0.577349 0.810297 0.100375 0.577349 -0.100375 0.810297 " />
									<TextureCoordinate point="0.5408 0.5359 0.9612 0.5359 0.9612 0.9563 0.5408 0.9563 0.5408 0.5359 0.9612 0.5359 0.9612 0.9563 0.5408 0.9563 0.5408 0.5359 0.9612 0.5359 0.9612 0.9563 0.5408 0.9563 0.5408 0.5359 0.9612 0.5359 0.9612 0.9563 0.5408 0.9563 0.9612 0.5359 0.9612 0.9563 0.5408 0.5359 0.5408 0.9563 " />
								</IndexedTriangleSet>
							</Shape>
						</Group>
					</Transform>
				</Transform>
				<Transform DEF="Cube_015_TRANSFORM"
				           translation="0.000000 -1.417127 -0.181139"
				           scale="1.000000 1.000000 1.000000"
				           rotation="0.000000 1.000000 0.000000 0.000000"
				           >
					<Transform DEF="Cube_015_ifs_TRANSFORM"
					           translation="0.000000 0.000000 0.000000"
					           scale="1.000000 1.000000 1.000000"
					           rotation="0.000000 1.000000 0.000000 0.000000"
					           >
						<Group DEF="group_ME_Cube_008">
							<Shape>
								<Appearance>
									<Material USE="MA_Body" />
								</Appearance>
								<IndexedTriangleSet solid="false"
								                    normalPerVertex="true"
								                    index="0 1 2 0 2 3 4 5 6 4 6 7 8 9 10 8 10 11 12 13 14 12 14 15 4 16 17 4 17 15 18 5 14 18 14 19 "
								                    >
									<Coordinate point="-0.476057 0.006697 -0.543878 -0.476057 -0.492671 -0.230486 -0.476057 -0.249684 0.156696 -0.476057 0.249684 -0.156696 -0.476057 0.249684 -0.156696 -0.476057 -0.249684 0.156696 0.476057 -0.249684 0.156696 0.476057 0.249684 -0.156696 0.476057 0.249684 -0.156696 0.476057 -0.249684 0.156696 0.476057 -0.492671 -0.230486 0.476057 0.006697 -0.543878 0.476057 0.006697 -0.543878 0.476057 -0.492671 -0.230486 -0.476057 -0.492671 -0.230486 -0.476057 0.006697 -0.543878 0.476057 0.249684 -0.156696 0.476057 0.006697 -0.543878 0.476057 -0.249684 0.156696 0.476057 -0.492671 -0.230486 " />
									<Normal vector="-0.577349 0.182104 -0.795923 -0.577349 -0.795923 -0.182104 -0.577349 -0.182104 0.795923 -0.577349 0.795923 0.182104 -0.577349 0.795923 0.182104 -0.577349 -0.182104 0.795923 0.577349 -0.182104 0.795923 0.577349 0.795923 0.182104 0.577349 0.795923 0.182104 0.577349 -0.182104 0.795923 0.577349 -0.795923 -0.182104 0.577349 0.182104 -0.795923 0.577349 0.182104 -0.795923 0.577349 -0.795923 -0.182104 -0.577349 -0.795923 -0.182104 -0.577349 0.182104 -0.795923 0.577349 0.795923 0.182104 0.577349 0.182104 -0.795923 0.577349 -0.182104 0.795923 0.577349 -0.795923 -0.182104 " />
									<TextureCoordinate point="0.0286 0.5306 0.4694 0.5306 0.4694 0.9714 0.0286 0.9714 0.0286 0.5306 0.4694 0.5306 0.4694 0.9714 0.0286 0.9714 0.0286 0.5306 0.4694 0.5306 0.4694 0.9714 0.0286 0.9714 0.0286 0.5306 0.4694 0.5306 0.4694 0.9714 0.0286 0.9714 0.4694 0.5306 0.4694 0.9714 0.0286 0.5306 0.0286 0.9714 " />
								</IndexedTriangleSet>
							</Shape>
						</Group>
					</Transform>
				</Transform>
				<Transform DEF="Cube_016_TRANSFORM"
				           translation="0.000000 -1.223718 0.217121"
				           scale="1.000000 1.000000 1.000000"
				           rotation="0.000000 1.000000 0.000000 0.000000"
				           >
					<Transform DEF="Cube_016_ifs_TRANSFORM"
					           translation="0.000000 0.000000 0.000000"
					           scale="1.000000 1.000000 1.000000"
					           rotation="0.000000 1.000000 0.000000 0.000000"
					           >
						<Group DEF="group_ME_Cube_009">
							<Shape>
								<Appearance>
									<Material USE="MA_Body" />
								</Appearance>
								<IndexedTriangleSet solid="false"
								                    normalPerVertex="true"
								                    index="0 1 2 0 2 3 4 5 6 4 6 7 8 9 10 8 10 11 12 13 14 12 14 15 4 16 17 4 17 15 18 5 14 18 14 19 "
								                    >
									<Coordinate point="-0.348382 -0.359658 -0.330034 -0.348382 -0.437154 0.217192 -0.348382 -0.038748 0.273613 -0.348382 0.038748 -0.273613 -0.348382 0.038748 -0.273613 -0.348382 -0.038748 0.273613 0.348382 -0.038748 0.273613 0.348382 0.038748 -0.273613 0.348382 0.038748 -0.273613 0.348382 -0.038748 0.273613 0.348382 -0.437154 0.217192 0.348382 -0.359658 -0.330034 0.348382 -0.359658 -0.330034 0.348382 -0.437154 0.217192 -0.348382 -0.437154 0.217192 -0.348382 -0.359658 -0.330034 0.348382 0.038748 -0.273613 0.348382 -0.359658 -0.330034 0.348382 -0.038748 0.273613 0.348382 -0.437154 0.217192 " />
									<Normal vector="-0.577349 -0.490677 -0.652577 -0.577349 -0.652577 0.490677 -0.577349 0.490677 0.652577 -0.577349 0.652577 -0.490677 -0.577349 0.652577 -0.490677 -0.577349 0.490677 0.652577 0.577349 0.490677 0.652577 0.577349 0.652577 -0.490677 0.577349 0.652577 -0.490677 0.577349 0.490677 0.652577 0.577349 -0.652577 0.490677 0.577349 -0.490677 -0.652577 0.577349 -0.490677 -0.652577 0.577349 -0.652577 0.490677 -0.577349 -0.652577 0.490677 -0.577349 -0.490677 -0.652577 0.577349 0.652577 -0.490677 0.577349 -0.490677 -0.652577 0.577349 0.490677 0.652577 0.577349 -0.652577 0.490677 " />
									<TextureCoordinate point="0.0537 0.0537 0.4443 0.0537 0.4443 0.4443 0.0537 0.4443 0.0537 0.0537 0.4443 0.0537 0.4443 0.4443 0.0537 0.4443 0.0537 0.0537 0.4443 0.0537 0.4443 0.4443 0.0537 0.4443 0.0537 0.0537 0.4443 0.0537 0.4443 0.4443 0.0537 0.4443 0.4443 0.0537 0.4443 0.4443 0.0537 0.0537 0.0537 0.4443 " />
								</IndexedTriangleSet>
							</Shape>
						</Group>
					</Transform>
				</Transform>
				<Transform DEF="Cube_017_TRANSFORM"
				           translation="0.558137 -1.100350 0.234591"
				           scale="1.000000 1.000000 1.000000"
				           rotation="0.000000 1.000000 0.000000 0.000000"
				           >
					<Transform DEF="Cube_017_ifs_TRANSFORM"
					           translation="0.000000 0.000000 0.000000"
					           scale="1.000000 1.000000 1.000000"
					           rotation="0.000000 1.000000 0.000000 0.000000"
					           >
						<Group DEF="group_ME_Cube_010">
							<Shape>
								<Appearance>
									<Material USE="MA_Body" />
								</Appearance>
								<IndexedTriangleSet solid="false"
								                    normalPerVertex="true"
								                    index="0 1 2 0 2 3 4 5 6 4 6 7 8 9 10 8 10 11 4 12 13 4 13 14 15 5 16 15 16 17 "
								                    >
									<Coordinate point="-0.217941 -0.400470 -0.335813 -0.217941 -0.477966 0.211412 -0.283201 -0.084835 0.267086 -0.283201 -0.007339 -0.280139 -0.283201 -0.007339 -0.280139 -0.283201 -0.084835 0.267086 0.283201 0.007339 0.280139 0.283201 0.084835 -0.267086 0.283201 0.084835 -0.267086 0.283201 0.007339 0.280139 0.348460 -0.385793 0.224465 0.348460 -0.308296 -0.322760 0.283201 0.084835 -0.267086 0.348460 -0.308296 -0.322760 -0.217941 -0.400470 -0.335813 0.283201 0.007339 0.280139 -0.217941 -0.477966 0.211412 0.348460 -0.385793 0.224465 " />
									<Normal vector="-0.476058 -0.575823 -0.664632 -0.476058 -0.737724 0.478622 -0.663320 0.390393 0.638386 -0.663320 0.552293 -0.504868 -0.663320 0.552293 -0.504868 -0.663320 0.390393 0.638386 0.476058 0.575823 0.664632 0.476058 0.737724 -0.478622 0.476058 0.737724 -0.478622 0.476058 0.575823 0.664632 0.663320 -0.552293 0.504868 0.663320 -0.390393 -0.638386 0.476058 0.737724 -0.478622 0.663320 -0.390393 -0.638386 -0.476058 -0.575823 -0.664632 0.476058 0.575823 0.664632 -0.476058 -0.737724 0.478622 0.663320 -0.552293 0.504868 " />
									<TextureCoordinate point="0.0286 0.5306 0.4694 0.5306 0.4694 0.9714 0.0286 0.9714 0.0286 0.5306 0.4694 0.5306 0.4694 0.9714 0.0286 0.9714 0.0286 0.5306 0.4694 0.5306 0.4694 0.9714 0.0286 0.9714 0.4694 0.5306 0.4694 0.9714 0.0286 0.9714 0.0286 0.5306 0.4694 0.9714 0.0286 0.9714 " />
								</IndexedTriangleSet>
							</Shape>
							<Shape>
								<Appearance>
									<Material DEF="MA_Eye"
									          diffuseColor="0.800 0.800 0.800"
									          specularColor="0.401 0.401 0.401"
									          emissiveColor="0.000 0.000 0.000"
									          ambientIntensity="0.000"
									          shininess="0.500"
									          transparency="0.0"
									          />
								</Appearance>
								<IndexedTriangleSet solid="false"
								                    normalPerVertex="true"
								                    index="0 1 2 0 2 3 "
								                    >
									<Coordinate point="0.348460 -0.308296 -0.322760 0.348460 -0.385793 0.224465 -0.217941 -0.477966 0.211412 -0.217941 -0.400470 -0.335813 " />
									<Normal vector="0.663320 -0.390393 -0.638386 0.663320 -0.552293 0.504868 -0.476058 -0.737724 0.478622 -0.476058 -0.575823 -0.664632 " />
									<TextureCoordinate point="0.9890 0.5083 0.9890 0.9937 0.0110 0.9937 0.0110 0.5083 " />
								</IndexedTriangleSet>
							</Shape>
						</Group>
					</Transform>
				</Transform>
				<Transform DEF="Cube_018_TRANSFORM"
				           translation="-0.558137 -1.100350 0.234591"
				           scale="1.000000 1.000000 1.000000"
				           rotation="0.000000 1.000000 0.000000 0.000000"
				           >
					<Transform DEF="Cube_018_ifs_TRANSFORM"
					           translation="0.000000 0.000000 0.000000"
					           scale="1.000000 1.000000 1.000000"
					           rotation="0.000000 1.000000 0.000000 0.000000"
					           >
						<Group DEF="group_ME_Cube_014">
							<Shape>
								<Appearance>
									<Material USE="MA_Body" />
								</Appearance>
								<IndexedTriangleSet solid="false"
								                    normalPerVertex="true"
								                    index="0 1 2 0 2 3 4 5 6 4 6 7 8 9 10 8 10 11 4 12 13 4 13 14 15 16 17 15 17 7 "
								                    >
									<Coordinate point="0.217941 -0.400470 -0.335814 0.283201 -0.007339 -0.280139 0.283201 -0.084835 0.267086 0.217941 -0.477966 0.211412 0.283201 -0.007339 -0.280139 -0.283201 0.084835 -0.267086 -0.283201 0.007339 0.280139 0.283201 -0.084835 0.267086 -0.283201 0.084835 -0.267086 -0.348460 -0.308296 -0.322760 -0.348460 -0.385793 0.224465 -0.283201 0.007339 0.280139 0.217941 -0.400470 -0.335814 -0.348460 -0.308296 -0.322760 -0.283201 0.084835 -0.267086 -0.283201 0.007339 0.280139 -0.348460 -0.385793 0.224465 0.217941 -0.477966 0.211412 " />
									<Normal vector="0.476058 -0.575823 -0.664632 0.663320 0.552293 -0.504868 0.663320 0.390393 0.638386 0.476058 -0.737724 0.478622 0.663320 0.552293 -0.504868 -0.476058 0.737724 -0.478622 -0.476058 0.575823 0.664632 0.663320 0.390393 0.638386 -0.476058 0.737724 -0.478622 -0.663320 -0.390393 -0.638386 -0.663320 -0.552293 0.504868 -0.476058 0.575823 0.664632 0.476058 -0.575823 -0.664632 -0.663320 -0.390393 -0.638386 -0.476058 0.737724 -0.478622 -0.476058 0.575823 0.664632 -0.663320 -0.552293 0.504868 0.476058 -0.737724 0.478622 " />
									<TextureCoordinate point="0.0286 0.5306 0.0286 0.9714 0.4694 0.9714 0.4694 0.5306 0.0286 0.5306 0.0286 0.9714 0.4694 0.9714 0.4694 0.5306 0.0286 0.5306 0.0286 0.9714 0.4694 0.9714 0.4694 0.5306 0.0286 0.9714 0.4694 0.9714 0.4694 0.5306 0.0286 0.5306 0.0286 0.9714 0.4694 0.9714 " />
								</IndexedTriangleSet>
							</Shape>
							<Shape>
								<Appearance>
									<Material USE="MA_Eye" />
								</Appearance>
								<IndexedTriangleSet solid="false"
								                    normalPerVertex="true"
								                    index="0 1 2 0 2 3 "
								                    >
									<Coordinate point="-0.348460 -0.308296 -0.322760 0.217941 -0.400470 -0.335814 0.217941 -0.477966 0.211412 -0.348460 -0.385793 0.224465 " />
									<Normal vector="-0.663320 -0.390393 -0.638386 0.476058 -0.575823 -0.664632 0.476058 -0.737724 0.478622 -0.663320 -0.552293 0.504868 " />
									<TextureCoordinate point="0.9890 0.5083 0.0110 0.5083 0.0110 0.9937 0.9890 0.9937 " />
								</IndexedTriangleSet>
							</Shape>
						</Group>
					</Transform>
				</Transform>
			</Transform>
			<Transform DEF="leg1_TRANSFORM"
			           translation="0.814109 -0.790004 0.934148"
			           scale="1.000000 1.000000 1.000000"
			           rotation="0.000000 1.000000 0.000000 0.000000"
			           >
				<Transform DEF="leg1_ifs_TRANSFORM"
				           translation="0.000000 0.000000 0.000000"
				           scale="1.000000 1.000000 1.000000"
				           rotation="0.000000 1.000000 0.000000 0.000000"
				           >
					<Group DEF="group_ME_leg1">
						<Shape>
							<Appearance>
								<Material USE="MA_Body" />
							</Appearance>
							<IndexedTriangleSet solid="false"
							                    normalPerVertex="true"
							                    index="0 1 2 0 2 3 4 5 6 4 6 7 8 9 10 8 10 11 12 13 14 12 14 15 4 16 17 4 17 15 18 5 14 18 14 19 "
							                    >
								<Coordinate point="-0.347534 -0.419245 -1.349074 -0.347534 -0.419245 0.000000 -0.347534 0.419245 0.000000 -0.347534 0.419245 -1.349074 -0.347534 0.419245 -1.349074 -0.347534 0.419245 0.000000 0.347534 0.419245 0.000000 0.347534 0.419245 -1.349074 0.347534 0.419245 -1.349074 0.347534 0.419245 0.000000 0.347534 -0.419245 0.000000 0.347534 -0.419245 -1.349074 0.347534 -0.419245 -1.349074 0.347534 -0.419245 0.000000 -0.347534 -0.419245 0.000000 -0.347534 -0.419245 -1.349074 0.347534 0.419245 -1.349074 0.347534 -0.419245 -1.349074 0.347534 0.419245 0.000000 0.347534 -0.419245 0.000000 " />
								<Normal vector="-0.577349 -0.577349 -0.577349 -0.577349 -0.577349 0.577349 -0.577349 0.577349 0.577349 -0.577349 0.577349 -0.577349 -0.577349 0.577349 -0.577349 -0.577349 0.577349 0.577349 0.577349 0.577349 0.577349 0.577349 0.577349 -0.577349 0.577349 0.577349 -0.577349 0.577349 0.577349 0.577349 0.577349 -0.577349 0.577349 0.577349 -0.577349 -0.577349 0.577349 -0.577349 -0.577349 0.577349 -0.577349 0.577349 -0.577349 -0.577349 0.577349 -0.577349 -0.577349 -0.577349 0.577349 0.577349 -0.577349 0.577349 -0.577349 -0.577349 0.577349 0.577349 0.577349 0.577349 -0.577349 0.577349 " />
								<TextureCoordinate point="0.0537 0.0537 0.4443 0.0537 0.4443 0.4443 0.0537 0.4443 0.0537 0.0537 0.4443 0.0537 0.4443 0.4443 0.0537 0.4443 0.0537 0.0537 0.4443 0.0537 0.4443 0.4443 0.0537 0.4443 0.0537 0.0537 0.4443 0.0537 0.4443 0.4443 0.0537 0.4443 0.4443 0.0537 0.4443 0.4443 0.0537 0.0537 0.0537 0.4443 " />
							</IndexedTriangleSet>
						</Shape>
					</Group>
				</Transform>
				<Transform DEF="Cube_019_TRANSFORM"
				           translation="0.012269 -0.397661 -0.916712"
				           scale="1.000000 1.000000 1.000000"
				           rotation="0.000000 1.000000 0.000000 0.000000"
				           >
					<Transform DEF="Cube_019_ifs_TRANSFORM"
					           translation="0.000000 0.000000 0.000000"
					           scale="1.000000 1.000000 1.000000"
					           rotation="0.000000 1.000000 0.000000 0.000000"
					           >
						<Group DEF="group_ME_Cube_012">
							<Shape>
								<Appearance>
									<Material USE="MA_Body" />
								</Appearance>
								<IndexedTriangleSet solid="false"
								                    normalPerVertex="true"
								                    index="0 1 2 0 2 3 4 5 6 4 6 7 8 9 10 8 10 11 12 13 14 12 14 15 4 16 17 4 17 15 18 5 14 18 14 19 "
								                    >
									<Coordinate point="-0.120977 -0.185099 -0.396975 -0.120977 -0.146608 0.013740 -0.120977 0.146608 -0.013740 -0.120977 0.108117 -0.424454 -0.120977 0.108117 -0.424454 -0.120977 0.146608 -0.013740 0.120977 0.146608 -0.013740 0.120977 0.108117 -0.424454 0.120977 0.108117 -0.424454 0.120977 0.146608 -0.013740 0.120977 -0.146608 0.013740 0.120977 -0.185099 -0.396975 0.120977 -0.185099 -0.396975 0.120977 -0.146608 0.013740 -0.120977 -0.146608 0.013740 -0.120977 -0.185099 -0.396975 0.120977 0.108117 -0.424454 0.120977 -0.185099 -0.396975 0.120977 0.146608 -0.013740 0.120977 -0.146608 0.013740 " />
									<Normal vector="-0.577349 -0.628681 -0.520951 -0.577349 -0.520951 0.628681 -0.577349 0.628681 0.520951 -0.577349 0.520951 -0.628681 -0.577349 0.520951 -0.628681 -0.577349 0.628681 0.520951 0.577349 0.628681 0.520951 0.577349 0.520951 -0.628681 0.577349 0.520951 -0.628681 0.577349 0.628681 0.520951 0.577349 -0.520951 0.628681 0.577349 -0.628681 -0.520951 0.577349 -0.628681 -0.520951 0.577349 -0.520951 0.628681 -0.577349 -0.520951 0.628681 -0.577349 -0.628681 -0.520951 0.577349 0.520951 -0.628681 0.577349 -0.628681 -0.520951 0.577349 0.628681 0.520951 0.577349 -0.520951 0.628681 " />
									<TextureCoordinate point="0.5359 0.0536 0.9563 0.0536 0.9563 0.4739 0.5359 0.4739 0.5359 0.0536 0.9563 0.0536 0.9563 0.4739 0.5359 0.4739 0.5359 0.0536 0.9563 0.0536 0.9563 0.4739 0.5359 0.4739 0.5359 0.0536 0.9563 0.0536 0.9563 0.4739 0.5359 0.4739 0.9563 0.0536 0.9563 0.4739 0.5359 0.0536 0.5359 0.4739 " />
								</IndexedTriangleSet>
							</Shape>
						</Group>
					</Transform>
				</Transform>
			</Transform>
			<Transform DEF="Cube_002_TRANSFORM"
			           translation="0.000000 0.225088 1.468114"
			           scale="1.000000 1.000000 1.000000"
			           rotation="0.000000 1.000000 0.000000 0.000000"
			           >
				<Transform DEF="Cube_002_ifs_TRANSFORM"
				           translation="0.000000 0.000000 0.000000"
				           scale="1.000000 1.000000 1.000000"
				           rotation="0.000000 1.000000 0.000000 0.000000"
				           >
					<Group DEF="group_ME_Cube_013">
						<Shape>
							<Appearance>
								<Material USE="MA_Body" />
							</Appearance>
							<IndexedTriangleSet solid="false"
							                    normalPerVertex="true"
							                    index="0 1 2 0 2 3 4 5 6 4 6 7 8 9 10 8 10 11 12 13 14 12 14 15 4 16 17 4 17 15 18 5 14 18 14 19 "
							                    >
								<Coordinate point="-0.182281 -0.711521 0.100081 -0.182281 -0.664316 0.435684 -0.182281 0.758726 0.235523 -0.182281 0.711521 -0.100081 -0.182281 0.711521 -0.100081 -0.182281 0.758726 0.235523 0.182281 0.758726 0.235523 0.182281 0.711521 -0.100081 0.182281 0.711521 -0.100081 0.182281 0.758726 0.235523 0.182281 -0.664316 0.435684 0.182281 -0.711521 0.100081 0.182281 -0.711521 0.100081 0.182281 -0.664316 0.435684 -0.182281 -0.664316 0.435684 -0.182281 -0.711521 0.100081 0.182281 0.711521 -0.100081 0.182281 -0.711521 0.100081 0.182281 0.758726 0.235523 0.182281 -0.664316 0.435684 " />
								<Normal vector="-0.577349 -0.652120 -0.491287 -0.577349 -0.491287 0.652120 -0.577349 0.652120 0.491287 -0.577349 0.491287 -0.652120 -0.577349 0.491287 -0.652120 -0.577349 0.652120 0.491287 0.577349 0.652120 0.491287 0.577349 0.491287 -0.652120 0.577349 0.491287 -0.652120 0.577349 0.652120 0.491287 0.577349 -0.491287 0.652120 0.577349 -0.652120 -0.491287 0.577349 -0.652120 -0.491287 0.577349 -0.491287 0.652120 -0.577349 -0.491287 0.652120 -0.577349 -0.652120 -0.491287 0.577349 0.491287 -0.652120 0.577349 -0.652120 -0.491287 0.577349 0.652120 0.491287 0.577349 -0.491287 0.652120 " />
								<TextureCoordinate point="0.5359 0.0536 0.9563 0.0536 0.9563 0.4739 0.5359 0.4739 0.5359 0.0536 0.9563 0.0536 0.9563 0.4739 0.5359 0.4739 0.5359 0.0536 0.9563 0.0536 0.9563 0.4739 0.5359 0.4739 0.5359 0.0536 0.9563 0.0536 0.9563 0.4739 0.5359 0.4739 0.9563 0.0536 0.9563 0.4739 0.5359 0.0536 0.5359 0.4739 " />
							</IndexedTriangleSet>
						</Shape>
					</Group>
				</Transform>
			</Transform>
			<Transform DEF="leg4_TRANSFORM"
			           translation="0.798844 0.867726 0.934148"
			           scale="1.000000 1.000000 1.000000"
			           rotation="0.000000 1.000000 0.000000 0.000000"
			           >
				<Transform DEF="leg4_ifs_TRANSFORM"
				           translation="0.000000 0.000000 0.000000"
				           scale="1.000000 1.000000 1.000000"
				           rotation="0.000000 1.000000 0.000000 0.000000"
				           >
					<Group DEF="group_ME_leg4">
						<Shape>
							<Appearance>
								<Material USE="MA_Body" />
							</Appearance>
							<IndexedTriangleSet solid="false"
							                    normalPerVertex="true"
							                    index="0 1 2 0 2 3 4 5 6 4 6 7 8 9 10 8 10 11 12 13 14 12 14 15 4 16 17 4 17 15 18 5 14 18 14 19 "
							                    >
								<Coordinate point="-0.347534 -0.419245 -1.349074 -0.347534 -0.419245 0.000000 -0.347534 0.419245 0.000000 -0.347534 0.419245 -1.349074 -0.347534 0.419245 -1.349074 -0.347534 0.419245 0.000000 0.347534 0.419245 0.000000 0.347534 0.419245 -1.349074 0.347534 0.419245 -1.349074 0.347534 0.419245 0.000000 0.347534 -0.419245 0.000000 0.347534 -0.419245 -1.349074 0.347534 -0.419245 -1.349074 0.347534 -0.419245 0.000000 -0.347534 -0.419245 0.000000 -0.347534 -0.419245 -1.349074 0.347534 0.419245 -1.349074 0.347534 -0.419245 -1.349074 0.347534 0.419245 0.000000 0.347534 -0.419245 0.000000 " />
								<Normal vector="-0.577349 -0.577349 -0.577349 -0.577349 -0.577349 0.577349 -0.577349 0.577349 0.577349 -0.577349 0.577349 -0.577349 -0.577349 0.577349 -0.577349 -0.577349 0.577349 0.577349 0.577349 0.577349 0.577349 0.577349 0.577349 -0.577349 0.577349 0.577349 -0.577349 0.577349 0.577349 0.577349 0.577349 -0.577349 0.577349 0.577349 -0.577349 -0.577349 0.577349 -0.577349 -0.577349 0.577349 -0.577349 0.577349 -0.577349 -0.577349 0.577349 -0.577349 -0.577349 -0.577349 0.577349 0.577349 -0.577349 0.577349 -0.577349 -0.577349 0.577349 0.577349 0.577349 0.577349 -0.577349 0.577349 " />
								<TextureCoordinate point="0.0537 0.0537 0.4443 0.0537 0.4443 0.4443 0.0537 0.4443 0.0537 0.0537 0.4443 0.0537 0.4443 0.4443 0.0537 0.4443 0.0537 0.0537 0.4443 0.0537 0.4443 0.4443 0.0537 0.4443 0.0537 0.0537 0.4443 0.0537 0.4443 0.4443 0.0537 0.4443 0.4443 0.0537 0.4443 0.4443 0.0537 0.0537 0.0537 0.4443 " />
							</IndexedTriangleSet>
						</Shape>
					</Group>
				</Transform>
				<Transform DEF="Cube_005_TRANSFORM"
				           translation="0.012269 -0.397661 -0.916712"
				           scale="1.000000 1.000000 1.000000"
				           rotation="0.000000 1.000000 0.000000 0.000000"
				           >
					<Transform DEF="Cube_005_ifs_TRANSFORM"
					           translation="0.000000 0.000000 0.000000"
					           scale="1.000000 1.000000 1.000000"
					           rotation="0.000000 1.000000 0.000000 0.000000"
					           >
						<Group DEF="group_ME_Cube_011">
							<Shape>
								<Appearance>
									<Material USE="MA_Body" />
								</Appearance>
								<IndexedTriangleSet solid="false"
								                    normalPerVertex="true"
								                    index="0 1 2 0 2 3 4 5 6 4 6 7 8 9 10 8 10 11 12 13 14 12 14 15 4 16 17 4 17 15 18 5 14 18 14 19 "
								                    >
									<Coordinate point="-0.120977 -0.185099 -0.396975 -0.120977 -0.146608 0.013740 -0.120977 0.146608 -0.013740 -0.120977 0.108117 -0.424454 -0.120977 0.108117 -0.424454 -0.120977 0.146608 -0.013740 0.120977 0.146608 -0.013740 0.120977 0.108117 -0.424454 0.120977 0.108117 -0.424454 0.120977 0.146608 -0.013740 0.120977 -0.146608 0.013740 0.120977 -0.185099 -0.396975 0.120977 -0.185099 -0.396975 0.120977 -0.146608 0.013740 -0.120977 -0.146608 0.013740 -0.120977 -0.185099 -0.396975 0.120977 0.108117 -0.424454 0.120977 -0.185099 -0.396975 0.120977 0.146608 -0.013740 0.120977 -0.146608 0.013740 " />
									<Normal vector="-0.577349 -0.628681 -0.520951 -0.577349 -0.520951 0.628681 -0.577349 0.628681 0.520951 -0.577349 0.520951 -0.628681 -0.577349 0.520951 -0.628681 -0.577349 0.628681 0.520951 0.577349 0.628681 0.520951 0.577349 0.520951 -0.628681 0.577349 0.520951 -0.628681 0.577349 0.628681 0.520951 0.577349 -0.520951 0.628681 0.577349 -0.628681 -0.520951 0.577349 -0.628681 -0.520951 0.577349 -0.520951 0.628681 -0.577349 -0.520951 0.628681 -0.577349 -0.628681 -0.520951 0.577349 0.520951 -0.628681 0.577349 -0.628681 -0.520951 0.577349 0.628681 0.520951 0.577349 -0.520951 0.628681 " />
									<TextureCoordinate point="0.5359 0.0536 0.9563 0.0536 0.9563 0.4739 0.5359 0.4739 0.5359 0.0536 0.9563 0.0536 0.9563 0.4739 0.5359 0.4739 0.5359 0.0536 0.9563 0.0536 0.9563 0.4739 0.5359 0.4739 0.5359 0.0536 0.9563 0.0536 0.9563 0.4739 0.5359 0.4739 0.9563 0.0536 0.9563 0.4739 0.5359 0.0536 0.5359 0.4739 " />
								</IndexedTriangleSet>
							</Shape>
						</Group>
					</Transform>
				</Transform>
			</Transform>
			<Transform DEF="leg2_TRANSFORM"
			           translation="-0.814109 -0.790004 0.934148"
			           scale="1.000000 1.000000 1.000000"
			           rotation="0.000000 1.000000 0.000000 0.000000"
			           >
				<Transform DEF="leg2_ifs_TRANSFORM"
				           translation="0.000000 0.000000 0.000000"
				           scale="1.000000 1.000000 1.000000"
				           rotation="0.000000 1.000000 0.000000 0.000000"
				           >
					<Group DEF="group_ME_leg2">
						<Shape>
							<Appearance>
								<Material USE="MA_Body" />
							</Appearance>
							<IndexedTriangleSet solid="false"
							                    normalPerVertex="true"
							                    index="0 1 2 0 2 3 4 5 6 4 6 7 8 9 10 8 10 11 12 13 14 12 14 15 4 13 16 4 16 17 18 19 14 18 14 7 "
							                    >
								<Coordinate point="0.347534 -0.419245 -1.349074 0.347534 0.419245 -1.349074 0.347534 0.419245 0.000000 0.347534 -0.419245 0.000000 0.347534 0.419245 -1.349074 -0.347534 0.419245 -1.349074 -0.347534 0.419245 0.000000 0.347534 0.419245 0.000000 -0.347534 0.419245 -1.349074 -0.347534 -0.419245 -1.349074 -0.347534 -0.419245 0.000000 -0.347534 0.419245 0.000000 -0.347534 -0.419245 -1.349074 0.347534 -0.419245 -1.349074 0.347534 -0.419245 0.000000 -0.347534 -0.419245 0.000000 -0.347534 -0.419245 -1.349074 -0.347534 0.419245 -1.349074 -0.347534 0.419245 0.000000 -0.347534 -0.419245 0.000000 " />
								<Normal vector="0.577349 -0.577349 -0.577349 0.577349 0.577349 -0.577349 0.577349 0.577349 0.577349 0.577349 -0.577349 0.577349 0.577349 0.577349 -0.577349 -0.577349 0.577349 -0.577349 -0.577349 0.577349 0.577349 0.577349 0.577349 0.577349 -0.577349 0.577349 -0.577349 -0.577349 -0.577349 -0.577349 -0.577349 -0.577349 0.577349 -0.577349 0.577349 0.577349 -0.577349 -0.577349 -0.577349 0.577349 -0.577349 -0.577349 0.577349 -0.577349 0.577349 -0.577349 -0.577349 0.577349 -0.577349 -0.577349 -0.577349 -0.577349 0.577349 -0.577349 -0.577349 0.577349 0.577349 -0.577349 -0.577349 0.577349 " />
								<TextureCoordinate point="0.0537 0.0537 0.0537 0.4443 0.4443 0.4443 0.4443 0.0537 0.0537 0.0537 0.0537 0.4443 0.4443 0.4443 0.4443 0.0537 0.0537 0.0537 0.0537 0.4443 0.4443 0.4443 0.4443 0.0537 0.0537 0.0537 0.0537 0.4443 0.4443 0.4443 0.4443 0.0537 0.4443 0.4443 0.4443 0.0537 0.0537 0.0537 0.0537 0.4443 " />
							</IndexedTriangleSet>
						</Shape>
					</Group>
				</Transform>
				<Transform DEF="Cube_020_TRANSFORM"
				           translation="-0.012269 -0.397661 -0.916712"
				           scale="1.000000 1.000000 1.000000"
				           rotation="0.000000 1.000000 0.000000 0.000000"
				           >
					<Transform DEF="Cube_020_ifs_TRANSFORM"
					           translation="0.000000 0.000000 0.000000"
					           scale="1.000000 1.000000 1.000000"
					           rotation="0.000000 1.000000 0.000000 0.000000"
					           >
						<Group DEF="group_ME_Cube_015">
							<Shape>
								<Appearance>
									<Material USE="MA_Body" />
								</Appearance>
								<IndexedTriangleSet solid="false"
								                    normalPerVertex="true"
								                    index="0 1 2 0 2 3 4 5 6 4 6 7 8 9 10 8 10 11 12 13 14 12 14 15 4 13 16 4 16 17 18 19 14 18 14 7 "
								                    >
									<Coordinate point="0.120977 -0.185099 -0.396975 0.120977 0.108117 -0.424454 0.120977 0.146608 -0.013740 0.120977 -0.146608 0.013740 0.120977 0.108117 -0.424454 -0.120977 0.108117 -0.424454 -0.120977 0.146608 -0.013740 0.120977 0.146608 -0.013740 -0.120977 0.108117 -0.424454 -0.120977 -0.185099 -0.396975 -0.120977 -0.146608 0.013740 -0.120977 0.146608 -0.013740 -0.120977 -0.185099 -0.396975 0.120977 -0.185099 -0.396975 0.120977 -0.146608 0.013740 -0.120977 -0.146608 0.013740 -0.120977 -0.185099 -0.396975 -0.120977 0.108117 -0.424454 -0.120977 0.146608 -0.013740 -0.120977 -0.146608 0.013740 " />
									<Normal vector="0.577349 -0.628681 -0.520951 0.577349 0.520951 -0.628681 0.577349 0.628681 0.520951 0.577349 -0.520951 0.628681 0.577349 0.520951 -0.628681 -0.577349 0.520951 -0.628681 -0.577349 0.628681 0.520951 0.577349 0.628681 0.520951 -0.577349 0.520951 -0.628681 -0.577349 -0.628681 -0.520951 -0.577349 -0.520951 0.628681 -0.577349 0.628681 0.520951 -0.577349 -0.628681 -0.520951 0.577349 -0.628681 -0.520951 0.577349 -0.520951 0.628681 -0.577349 -0.520951 0.628681 -0.577349 -0.628681 -0.520951 -0.577349 0.520951 -0.628681 -0.577349 0.628681 0.520951 -0.577349 -0.520951 0.628681 " />
									<TextureCoordinate point="0.5359 0.0536 0.5359 0.4739 0.9563 0.4739 0.9563 0.0536 0.5359 0.0536 0.5359 0.4739 0.9563 0.4739 0.9563 0.0536 0.5359 0.0536 0.5359 0.4739 0.9563 0.4739 0.9563 0.0536 0.5359 0.0536 0.5359 0.4739 0.9563 0.4739 0.9563 0.0536 0.9563 0.4739 0.9563 0.0536 0.5359 0.0536 0.5359 0.4739 " />
								</IndexedTriangleSet>
							</Shape>
						</Group>
					</Transform>
				</Transform>
			</Transform>
			<Transform DEF="leg3_TRANSFORM"
			           translation="-0.798844 0.867726 0.934148"
			           scale="1.000000 1.000000 1.000000"
			           rotation="0.000000 1.000000 0.000000 0.000000"
			           >
				<Transform DEF="leg3_ifs_TRANSFORM"
				           translation="0.000000 0.000000 0.000000"
				           scale="1.000000 1.000000 1.000000"
				           rotation="0.000000 1.000000 0.000000 0.000000"
				           >
					<Group DEF="group_ME_leg3">
						<Shape>
							<Appearance>
								<Material USE="MA_Body" />
							</Appearance>
							<IndexedTriangleSet solid="false"
							                    normalPerVertex="true"
							                    index="0 1 2 0 2 3 4 5 6 4 6 7 8 9 10 8 10 11 12 13 14 12 14 15 4 13 16 4 16 17 18 19 14 18 14 7 "
							                    >
								<Coordinate point="0.347534 -0.419245 -1.349074 0.347534 0.419245 -1.349074 0.347534 0.419245 0.000000 0.347534 -0.419245 0.000000 0.347534 0.419245 -1.349074 -0.347534 0.419245 -1.349074 -0.347534 0.419245 0.000000 0.347534 0.419245 0.000000 -0.347534 0.419245 -1.349074 -0.347534 -0.419245 -1.349074 -0.347534 -0.419245 0.000000 -0.347534 0.419245 0.000000 -0.347534 -0.419245 -1.349074 0.347534 -0.419245 -1.349074 0.347534 -0.419245 0.000000 -0.347534 -0.419245 0.000000 -0.347534 -0.419245 -1.349074 -0.347534 0.419245 -1.349074 -0.347534 0.419245 0.000000 -0.347534 -0.419245 0.000000 " />
								<Normal vector="0.577349 -0.577349 -0.577349 0.577349 0.577349 -0.577349 0.577349 0.577349 0.577349 0.577349 -0.577349 0.577349 0.577349 0.577349 -0.577349 -0.577349 0.577349 -0.577349 -0.577349 0.577349 0.577349 0.577349 0.577349 0.577349 -0.577349 0.577349 -0.577349 -0.577349 -0.577349 -0.577349 -0.577349 -0.577349 0.577349 -0.577349 0.577349 0.577349 -0.577349 -0.577349 -0.577349 0.577349 -0.577349 -0.577349 0.577349 -0.577349 0.577349 -0.577349 -0.577349 0.577349 -0.577349 -0.577349 -0.577349 -0.577349 0.577349 -0.577349 -0.577349 0.577349 0.577349 -0.577349 -0.577349 0.577349 " />
								<TextureCoordinate point="0.0537 0.0537 0.0537 0.4443 0.4443 0.4443 0.4443 0.0537 0.0537 0.0537 0.0537 0.4443 0.4443 0.4443 0.4443 0.0537 0.0537 0.0537 0.0537 0.4443 0.4443 0.4443 0.4443 0.0537 0.0537 0.0537 0.0537 0.4443 0.4443 0.4443 0.4443 0.0537 0.4443 0.4443 0.4443 0.0537 0.0537 0.0537 0.0537 0.4443 " />
							</IndexedTriangleSet>
						</Shape>
					</Group>
				</Transform>
				<Transform DEF="Cube_021_TRANSFORM"
				           translation="-0.012269 -0.397661 -0.916712"
				           scale="1.000000 1.000000 1.000000"
				           rotation="0.000000 1.000000 0.000000 0.000000"
				           >
					<Transform DEF="Cube_021_ifs_TRANSFORM"
					           translation="0.000000 0.000000 0.000000"
					           scale="1.000000 1.000000 1.000000"
					           rotation="0.000000 1.000000 0.000000 0.000000"
					           >
						<Group DEF="group_ME_Cube_016">
							<Shape>
								<Appearance>
									<Material USE="MA_Body" />
								</Appearance>
								<IndexedTriangleSet solid="false"
								                    normalPerVertex="true"
								                    index="0 1 2 0 2 3 4 5 6 4 6 7 8 9 10 8 10 11 12 13 14 12 14 15 4 13 16 4 16 17 18 19 14 18 14 7 "
								                    >
									<Coordinate point="0.120977 -0.185099 -0.396975 0.120977 0.108117 -0.424454 0.120977 0.146608 -0.013740 0.120977 -0.146608 0.013740 0.120977 0.108117 -0.424454 -0.120977 0.108117 -0.424454 -0.120977 0.146608 -0.013740 0.120977 0.146608 -0.013740 -0.120977 0.108117 -0.424454 -0.120977 -0.185099 -0.396975 -0.120977 -0.146608 0.013740 -0.120977 0.146608 -0.013740 -0.120977 -0.185099 -0.396975 0.120977 -0.185099 -0.396975 0.120977 -0.146608 0.013740 -0.120977 -0.146608 0.013740 -0.120977 -0.185099 -0.396975 -0.120977 0.108117 -0.424454 -0.120977 0.146608 -0.013740 -0.120977 -0.146608 0.013740 " />
									<Normal vector="0.577349 -0.628681 -0.520951 0.577349 0.520951 -0.628681 0.577349 0.628681 0.520951 0.577349 -0.520951 0.628681 0.577349 0.520951 -0.628681 -0.577349 0.520951 -0.628681 -0.577349 0.628681 0.520951 0.577349 0.628681 0.520951 -0.577349 0.520951 -0.628681 -0.577349 -0.628681 -0.520951 -0.577349 -0.520951 0.628681 -0.577349 0.628681 0.520951 -0.577349 -0.628681 -0.520951 0.577349 -0.628681 -0.520951 0.577349 -0.520951 0.628681 -0.577349 -0.520951 0.628681 -0.577349 -0.628681 -0.520951 -0.577349 0.520951 -0.628681 -0.577349 0.628681 0.520951 -0.577349 -0.520951 0.628681 " />
									<TextureCoordinate point="0.5359 0.0536 0.5359 0.4739 0.9563 0.4739 0.9563 0.0536 0.5359 0.0536 0.5359 0.4739 0.9563 0.4739 0.9563 0.0536 0.5359 0.0536 0.5359 0.4739 0.9563 0.4739 0.9563 0.0536 0.5359 0.0536 0.5359 0.4739 0.9563 0.4739 0.9563 0.0536 0.9563 0.4739 0.9563 0.0536 0.5359 0.0536 0.5359 0.4739 " />
								</IndexedTriangleSet>
							</Shape>
						</Group>
					</Transform>
				</Transform>
			</Transform>
		</Transform>
	</Scene>
</X3D>