<?xml version="1.0" encoding="UTF-8"?>
<!DOCTYPE X3D PUBLIC "ISO//Web3D//DTD X3D 3.0//EN" "http://www.web3d.org/specifications/x3d-3.0.dtd">
<X3D version="3.0" profile="Immersive" xmlns:xsd="http://www.w3.org/2001/XMLSchema-instance" xsd:noNamespaceSchemaLocation="http://www.web3d.org/specifications/x3d-3.0.xsd">
	<head>
		<meta name="filename" content="shuppet.x3d" />
		<meta name="generator" content="Blender 2.93.18" />
	</head>
	<Scene>
		<NavigationInfo headlight="true"
		                visibilityLimit="0.0"
		                type='"EXAMINE", "ANY"'
		                avatarSize="0.25, 1.75, 0.75"
		                />
		<Background DEF="WO_World"
		            groundColor="0.051 0.051 0.051"
		            skyColor="0.051 0.051 0.051"
		            />
		<Transform DEF="body_TRANSFORM"
		           translation="0.000000 0.000000 0.683391"
		           scale="1.000000 1.000000 1.000000"
		           rotation="0.000000 0.000000 1.000000 3.141593"
		           >
			<Transform DEF="body_ifs_TRANSFORM"
			           translation="0.000000 0.000000 0.000000"
			           scale="1.000000 1.000000 1.000000"
			           rotation="0.000000 1.000000 0.000000 0.000000"
			           >
				<Group DEF="group_ME_body">
					<Shape>
						<Appearance>
							<Material DEF="MA_Body"
							          diffuseColor="0.800 0.800 0.800"
							          specularColor="0.401 0.401 0.401"
							          emissiveColor="0.000 0.000 0.000"
							          ambientIntensity="0.000"
							          shininess="0.500"
							          transparency="0.0"
							          />
						</Appearance>
						<IndexedTriangleSet solid="false"
						                    normalPerVertex="true"
						                    index="0 1 2 0 2 3 3 2 4 3 4 5 5 4 6 5 6 7 7 6 8 7 8 9 10 5 7 10 7 11 4 12 13 4 13 6 "
						                    >
							<Coordinate point="-0.268932 -0.268932 0.000000 -0.268932 -0.268932 0.311103 -0.268932 0.268932 0.311103 -0.268932 0.268932 0.000000 0.268932 0.268932 0.311103 0.268932 0.268932 0.000000 0.268932 -0.268932 0.311103 0.268932 -0.268932 0.000000 -0.268932 -0.268932 0.311103 -0.268932 -0.268932 0.000000 -0.268932 0.268932 0.000000 -0.268932 -0.268932 0.000000 -0.268932 0.268932 0.311103 -0.268932 -0.268932 0.311103 " />
							<Normal vector="-0.577349 -0.577349 -0.577349 -0.577349 -0.577349 0.577349 -0.577349 0.577349 0.577349 -0.577349 0.577349 -0.577349 0.577349 0.577349 0.577349 0.577349 0.577349 -0.577349 0.577349 -0.577349 0.577349 0.577349 -0.577349 -0.577349 -0.577349 -0.577349 0.577349 -0.577349 -0.577349 -0.577349 -0.577349 0.577349 -0.577349 -0.577349 -0.577349 -0.577349 -0.577349 0.577349 0.577349 -0.577349 -0.577349 0.577349 " />
							<TextureCoordinate point="0.3750 0.0000 0.6250 0.0000 0.6250 0.2500 0.3750 0.2500 0.6250 0.5000 0.3750 0.5000 0.6250 0.7500 0.3750 0.7500 0.6250 1.0000 0.3750 1.0000 0.1250 0.5000 0.1250 0.7500 0.8750 0.5000 0.8750 0.7500 " />
						</IndexedTriangleSet>
					</Shape>
				</Group>
			</Transform>
			<Transform DEF="head_TRANSFORM"
			           translation="0.000000 0.000000 0.255630"
			           scale="1.000000 1.000000 1.000000"
			           rotation="0.000000 1.000000 0.000000 0.000000"
			           >
				<Transform DEF="head_ifs_TRANSFORM"
				           translation="0.000000 0.000000 0.000000"
				           scale="1.000000 1.000000 1.000000"
				           rotation="0.000000 1.000000 0.000000 0.000000"
				           >
					<Group DEF="group_ME_head">
						<Shape>
							<Appearance>
								<Material USE="MA_Body" />
							</Appearance>
							<IndexedTriangleSet solid="false"
							                    normalPerVertex="true"
							                    index="0 1 2 0 2 3 4 5 6 4 6 7 7 6 8 7 8 9 10 11 12 10 12 13 14 15 16 14 16 17 18 19 20 18 20 21 6 22 23 6 23 8 24 18 21 24 21 25 26 27 28 26 28 29 30 14 17 30 17 31 9 8 32 9 32 33 34 35 11 34 11 10 3 2 36 3 36 37 38 39 5 38 5 4 40 41 42 40 42 43 41 38 4 41 4 42 44 45 46 44 46 47 45 3 37 45 37 46 48 49 50 48 50 51 49 34 10 49 10 50 52 53 54 52 54 55 51 50 56 51 56 57 58 59 53 58 53 52 59 7 9 59 9 53 43 42 59 43 59 58 42 4 7 42 7 59 60 61 45 60 45 44 61 0 3 61 3 45 62 63 64 62 64 65 66 67 68 66 68 15 15 68 69 15 69 16 70 71 72 70 72 73 16 69 74 16 74 75 76 77 71 76 71 70 65 64 78 65 78 79 80 81 67 80 67 66 63 60 44 63 44 64 67 43 58 67 58 68 68 58 52 68 52 69 71 51 57 71 57 72 69 52 55 69 55 74 64 44 47 64 47 78 81 40 43 81 43 67 78 47 40 78 40 81 79 78 81 79 81 80 75 74 77 75 77 76 54 33 34 54 34 49 55 54 49 55 49 48 46 37 38 46 38 41 47 46 41 47 41 40 37 36 39 37 39 38 33 32 35 33 35 34 27 30 31 27 31 28 22 24 25 22 25 23 "
							                    >
								<Coordinate point="-0.931062 -0.854868 1.218259 -0.931062 -0.854868 1.368641 -0.931062 0.854868 1.368641 -0.931062 0.854868 1.218259 0.254959 0.854868 1.218259 0.254959 0.854868 1.368641 0.931062 0.854868 1.368641 0.931062 0.854868 1.218259 0.931062 -0.854868 1.368641 0.931062 -0.854868 1.218259 -0.254959 -0.854868 1.218259 -0.254959 -0.854868 1.368641 -0.931062 -0.854868 1.368641 -0.931062 -0.854868 1.218259 0.487758 0.854868 0.000000 0.931062 0.854868 0.000000 0.931062 -0.854868 0.000000 0.487758 -0.854868 0.000000 -0.254959 0.854868 1.368641 -0.931062 0.854868 1.368641 -0.931062 -0.854868 1.368641 -0.254959 -0.854868 1.368641 0.254959 0.854868 1.368641 0.254959 -0.854868 1.368641 0.000000 0.854868 1.368641 0.000000 -0.854868 1.368641 -0.931062 0.854868 0.000000 -0.487758 0.854868 0.000000 -0.487758 -0.854868 0.000000 -0.931062 -0.854868 0.000000 0.000000 0.854868 0.000000 0.000000 -0.854868 0.000000 0.254959 -0.854868 1.368641 0.254959 -0.854868 1.218259 0.000000 -0.854868 1.218259 0.000000 -0.854868 1.368641 -0.254959 0.854868 1.368641 -0.254959 0.854868 1.218259 0.000000 0.854868 1.218259 0.000000 0.854868 1.368641 0.000000 0.854868 0.570227 0.000000 0.854868 0.609748 0.254959 0.854868 0.609748 0.254959 0.854868 0.570227 -0.931062 0.854868 0.570227 -0.931062 0.854868 0.609748 -0.254959 0.854868 0.609748 -0.254959 0.854868 0.570227 0.000000 -0.854868 0.570227 0.000000 -0.854868 0.609748 -0.254959 -0.854868 0.609748 -0.487890 -0.854868 0.570227 0.931062 -0.854868 0.570227 0.931062 -0.854868 0.609748 0.254959 -0.854868 0.609748 0.487890 -0.854868 0.570227 -0.931062 -0.854868 0.609748 -0.931062 -0.854868 0.570227 0.931062 0.854868 0.570227 0.931062 0.854868 0.609748 -0.931062 -0.854868 0.570227 -0.931062 -0.854868 0.609748 -0.931062 -0.854868 0.000000 -0.931062 -0.854868 0.232099 -0.931062 0.854868 0.232099 -0.931062 0.854868 0.000000 0.487758 0.854868 0.000000 0.254959 0.854868 0.232099 0.931062 0.854868 0.232099 0.931062 -0.854868 0.232099 -0.487758 -0.854868 0.000000 -0.487890 -0.854868 0.232099 -0.931062 -0.854868 0.232099 -0.931062 -0.854868 0.000000 0.487890 -0.854868 0.232099 0.487758 -0.854868 0.000000 0.000000 -0.854868 0.000000 0.000000 -0.854868 0.232099 -0.254959 0.854868 0.232099 -0.487758 0.854868 0.000000 0.000000 0.854868 0.000000 0.000000 0.854868 0.232099 " />
								<Normal vector="-0.707083 -0.707083 0.000000 -0.577349 -0.577349 0.577349 -0.577349 0.577349 0.577349 -0.707083 0.707083 0.000000 0.000000 1.000000 0.000000 0.000000 0.707083 0.707083 0.577349 0.577349 0.577349 0.707083 0.707083 0.000000 0.577349 -0.577349 0.577349 0.707083 -0.707083 0.000000 0.000000 -1.000000 0.000000 0.000000 -0.707083 0.707083 -0.577349 -0.577349 0.577349 -0.707083 -0.707083 0.000000 0.000000 0.707083 -0.707083 0.577349 0.577349 -0.577349 0.577349 -0.577349 -0.577349 0.000000 -0.707083 -0.707083 0.000000 0.707083 0.707083 -0.577349 0.577349 0.577349 -0.577349 -0.577349 0.577349 0.000000 -0.707083 0.707083 0.000000 0.707083 0.707083 0.000000 -0.707083 0.707083 0.000000 0.707083 0.707083 0.000000 -0.707083 0.707083 -0.577349 0.577349 -0.577349 0.000000 0.707083 -0.707083 0.000000 -0.707083 -0.707083 -0.577349 -0.577349 -0.577349 0.000000 0.707083 -0.707083 0.000000 -0.707083 -0.707083 0.000000 -0.707083 0.707083 0.000000 -1.000000 0.000000 0.000000 -1.000000 0.000000 0.000000 -0.707083 0.707083 0.000000 0.707083 0.707083 0.000000 1.000000 0.000000 0.000000 1.000000 0.000000 0.000000 0.707083 0.707083 0.000000 1.000000 0.000000 0.000000 1.000000 0.000000 0.000000 1.000000 0.000000 0.000000 1.000000 0.000000 -0.707083 0.707083 0.000000 -0.707083 0.707083 0.000000 0.000000 1.000000 0.000000 0.000000 1.000000 0.000000 0.000000 -1.000000 0.000000 0.000000 -1.000000 0.000000 0.000000 -1.000000 0.000000 0.000000 -0.999969 0.000000 0.707083 -0.707083 0.000000 0.707083 -0.707083 0.000000 0.000000 -1.000000 0.000000 0.000000 -0.999969 0.000000 -0.707083 -0.707083 0.000000 -0.707083 -0.707083 0.000000 0.707083 0.707083 0.000000 0.707083 0.707083 0.000000 -0.707083 -0.707083 0.000000 -0.707083 -0.707083 0.000000 -0.577349 -0.577349 -0.577349 -0.707083 -0.707083 0.000000 -0.707083 0.707083 0.000000 -0.577349 0.577349 -0.577349 0.000000 0.707083 -0.707083 0.000000 1.000000 0.000000 0.707083 0.707083 0.000000 0.707083 -0.707083 0.000000 0.000000 -0.707083 -0.707083 0.000000 -1.000000 0.000000 -0.707083 -0.707083 0.000000 -0.577349 -0.577349 -0.577349 0.000000 -1.000000 0.000000 0.000000 -0.707083 -0.707083 0.000000 -0.707083 -0.707083 0.000000 -1.000000 0.000000 0.000000 1.000000 0.000000 0.000000 0.707083 -0.707083 0.000000 0.707083 -0.707083 0.000000 1.000000 0.000000 " />
								<TextureCoordinate point="0.5417 0.0000 0.6250 0.0000 0.6250 0.2500 0.5417 0.2500 0.5417 0.4167 0.6250 0.4167 0.6250 0.5000 0.5417 0.5000 0.6250 0.7500 0.5417 0.7500 0.5417 0.9167 0.6250 0.9167 0.6250 1.0000 0.5417 1.0000 0.2917 0.5000 0.3750 0.5000 0.3750 0.7500 0.2917 0.7500 0.7917 0.5000 0.8750 0.5000 0.8750 0.7500 0.7917 0.7500 0.7083 0.5000 0.7083 0.7500 0.7500 0.5000 0.7500 0.7500 0.1250 0.5000 0.2083 0.5000 0.2083 0.7500 0.1250 0.7500 0.2500 0.5000 0.2500 0.7500 0.6250 0.8333 0.5417 0.8333 0.5417 0.8750 0.6250 0.8750 0.6250 0.3333 0.5417 0.3333 0.5417 0.3750 0.6250 0.3750 0.4375 0.3750 0.4583 0.3750 0.4583 0.4167 0.4375 0.4167 0.4375 0.2500 0.4583 0.2500 0.4583 0.3333 0.4375 0.3333 0.4375 0.8750 0.4583 0.8750 0.4583 0.9167 0.4375 0.9167 0.4375 0.7500 0.4583 0.7500 0.4583 0.8333 0.4375 0.8333 0.4583 1.0000 0.4375 1.0000 0.4375 0.5000 0.4583 0.5000 0.4375 0.0000 0.4583 0.0000 0.3750 0.0000 0.4167 0.0000 0.4167 0.2500 0.3750 0.2500 0.3750 0.4167 0.4167 0.4167 0.4167 0.5000 0.4167 0.7500 0.3750 0.9167 0.4167 0.9167 0.4167 1.0000 0.3750 1.0000 0.4167 0.8333 0.3750 0.8333 0.3750 0.8750 0.4167 0.8750 0.4167 0.3333 0.3750 0.3333 0.3750 0.3750 0.4167 0.3750 " />
							</IndexedTriangleSet>
						</Shape>
						<Shape>
							<Appearance>
								<Material DEF="MA_Eye"
								          diffuseColor="0.800 0.800 0.800"
								          specularColor="0.401 0.401 0.401"
								          emissiveColor="0.000 0.000 0.000"
								          ambientIntensity="0.000"
								          shininess="0.500"
								          transparency="0.0"
								          />
							</Appearance>
							<IndexedTriangleSet solid="false"
							                    normalPerVertex="true"
							                    index="0 1 2 0 2 3 4 5 6 4 6 7 "
							                    >
								<Coordinate point="0.931062 -0.854868 0.609748 0.931062 -0.854868 1.218259 0.254959 -0.854868 1.218259 0.254959 -0.854868 0.609748 -0.254959 -0.854868 0.609748 -0.254959 -0.854868 1.218259 -0.931062 -0.854868 1.218259 -0.931062 -0.854868 0.609748 " />
								<Normal vector="0.707083 -0.707083 0.000000 0.707083 -0.707083 0.000000 0.000000 -1.000000 0.000000 0.000000 -1.000000 0.000000 0.000000 -1.000000 0.000000 0.000000 -1.000000 0.000000 -0.707083 -0.707083 0.000000 -0.707083 -0.707083 0.000000 " />
								<TextureCoordinate point="0.0136 0.5644 0.0136 0.9524 0.9864 0.9524 0.9864 0.5644 0.9864 0.5644 0.9864 0.9524 0.0136 0.9524 0.0136 0.5644 " />
							</IndexedTriangleSet>
						</Shape>
						<Shape>
							<Appearance>
								<Material DEF="MA_Mouth"
								          diffuseColor="0.800 0.800 0.800"
								          specularColor="0.401 0.401 0.401"
								          emissiveColor="0.000 0.000 0.000"
								          ambientIntensity="0.000"
								          shininess="0.500"
								          transparency="0.0"
								          />
							</Appearance>
							<IndexedTriangleSet solid="false"
							                    normalPerVertex="true"
							                    index="0 1 2 0 2 3 4 5 1 4 1 0 "
							                    >
								<Coordinate point="0.000000 -0.854868 0.232099 0.000000 -0.854868 0.570227 -0.487890 -0.854868 0.570227 -0.487890 -0.854868 0.232099 0.487890 -0.854868 0.232099 0.487890 -0.854868 0.570227 " />
								<Normal vector="0.000000 -1.000000 0.000000 0.000000 -1.000000 0.000000 0.000000 -0.999969 0.000000 0.000000 -1.000000 0.000000 0.000000 -1.000000 0.000000 0.000000 -0.999969 0.000000 " />
								<TextureCoordinate point="0.9755 0.6109 0.9755 0.9108 0.3395 0.9108 0.3395 0.6109 0.3395 0.6109 0.3395 0.9108 " />
							</IndexedTriangleSet>
						</Shape>
					</Group>
				</Transform>
				<Transform DEF="Cube_002_TRANSFORM"
				           translation="0.000000 0.000000 1.300379"
				           scale="1.000000 1.000000 1.000000"
				           rotation="0.000000 1.000000 0.000000 0.000000"
				           >
					<Transform DEF="Cube_002_ifs_TRANSFORM"
					           translation="0.000000 0.000000 0.000000"
					           scale="1.000000 1.000000 1.000000"
					           rotation="0.000000 1.000000 0.000000 0.000000"
					           >
						<Group DEF="group_ME_Cube_010">
							<Shape>
								<Appearance>
									<Material USE="MA_Body" />
								</Appearance>
								<IndexedTriangleSet solid="false"
								                    normalPerVertex="true"
								                    index="0 1 2 0 2 3 3 2 4 3 4 5 5 4 6 5 6 7 7 6 8 7 8 9 10 5 7 10 7 11 12 13 14 12 14 15 16 15 14 4 13 12 4 12 17 16 14 6 4 17 16 6 4 16 18 19 20 18 20 21 21 20 22 21 22 23 23 22 24 23 24 25 25 24 26 25 26 27 28 24 22 28 22 29 30 29 22 31 24 28 31 28 32 30 22 33 31 32 30 33 31 30 34 35 36 34 36 37 37 36 38 37 38 39 39 38 40 39 40 41 41 40 42 41 42 43 38 44 45 38 45 40 "
								                    >
									<Coordinate point="-0.274278 -0.278944 0.000000 -0.274278 -0.278944 0.331980 -0.274278 0.278944 0.331980 -0.274278 0.278944 0.000000 0.274278 0.278944 0.331980 0.274278 0.278944 0.000000 0.274278 -0.278944 0.331980 0.274278 -0.278944 0.000000 -0.274278 -0.278944 0.331980 -0.274278 -0.278944 0.000000 -0.274278 0.278944 0.000000 -0.274278 -0.278944 0.000000 -0.182590 0.180045 0.331980 -0.274278 0.278944 0.331980 -0.274278 -0.278944 0.331980 -0.182590 -0.180045 0.331980 0.171475 -0.180045 0.331980 0.171475 0.180045 0.331980 -0.182590 -0.180045 0.331980 -0.182590 -0.180045 0.565980 -0.182590 0.180045 0.565980 -0.182590 0.180045 0.331980 0.171475 0.180045 0.565980 0.171475 0.180045 0.331980 0.171475 -0.180045 0.565980 0.171475 -0.180045 0.331980 -0.182590 -0.180045 0.565980 -0.182590 -0.180045 0.331980 0.102270 -0.109662 0.565980 0.102270 0.109662 0.565980 -0.113384 0.109662 0.565980 -0.182590 -0.180045 0.565980 -0.113384 -0.109662 0.565980 -0.182590 0.180045 0.565980 -0.113384 -0.109662 0.565980 -0.113384 -0.109662 0.870191 -0.113384 0.109662 0.870191 -0.113384 0.109662 0.565980 0.102270 0.109662 0.870191 0.102270 0.109662 0.565980 0.102270 -0.109662 0.870191 0.102270 -0.109662 0.565980 -0.113384 -0.109662 0.870191 -0.113384 -0.109662 0.565980 -0.113384 0.109662 0.870191 -0.113384 -0.109662 0.870191 " />
									<Normal vector="-0.577349 -0.577349 -0.577349 -0.577349 -0.577349 0.577349 -0.577349 0.577349 0.577349 -0.577349 0.577349 -0.577349 0.577349 0.577349 0.577349 0.577349 0.577349 -0.577349 0.577349 -0.577349 0.577349 0.577349 -0.577349 -0.577349 -0.577349 -0.577349 0.577349 -0.577349 -0.577349 -0.577349 -0.577349 0.577349 -0.577349 -0.577349 -0.577349 -0.577349 -0.301492 0.301492 0.904508 -0.577349 0.577349 0.577349 -0.577349 -0.577349 0.577349 -0.301492 -0.301492 0.904508 0.577349 -0.577349 0.577349 0.577349 0.577349 0.577349 -0.301492 -0.301492 0.904508 -0.577349 -0.577349 0.577349 -0.577349 0.577349 0.577349 -0.301492 0.301492 0.904508 0.577349 0.577349 0.577349 0.577349 0.577349 0.577349 0.577349 -0.577349 0.577349 0.577349 -0.577349 0.577349 -0.577349 -0.577349 0.577349 -0.301492 -0.301492 0.904508 0.301492 -0.301492 0.904508 0.301492 0.301492 0.904508 -0.577349 0.577349 0.577349 -0.577349 -0.577349 0.577349 -0.577349 -0.577349 0.577349 -0.577349 0.577349 0.577349 -0.577349 -0.577349 0.577349 -0.577349 -0.577349 0.577349 -0.577349 0.577349 0.577349 -0.577349 0.577349 0.577349 0.577349 0.577349 0.577349 0.301492 0.301492 0.904508 0.577349 -0.577349 0.577349 0.301492 -0.301492 0.904508 -0.577349 -0.577349 0.577349 -0.577349 -0.577349 0.577349 -0.577349 0.577349 0.577349 -0.577349 -0.577349 0.577349 " />
									<TextureCoordinate point="0.3750 0.0000 0.6250 0.0000 0.6250 0.2500 0.3750 0.2500 0.6250 0.5000 0.3750 0.5000 0.6250 0.7500 0.3750 0.7500 0.6250 1.0000 0.3750 1.0000 0.1250 0.5000 0.1250 0.7500 0.8332 0.5443 0.8750 0.5000 0.8750 0.7500 0.8332 0.7057 0.6718 0.7057 0.6718 0.5443 0.3903 0.0000 0.6250 0.0000 0.6250 0.2500 0.3903 0.2500 0.6250 0.5000 0.3903 0.5000 0.6250 0.7500 0.3903 0.7500 0.6250 1.0000 0.3903 1.0000 0.6739 0.7011 0.6739 0.5489 0.8261 0.5489 0.8750 0.7500 0.8261 0.7011 0.8750 0.5000 0.3914 0.0000 0.6250 0.0000 0.6250 0.2500 0.3914 0.2500 0.6250 0.5000 0.3914 0.5000 0.6250 0.7500 0.3914 0.7500 0.6250 1.0000 0.3914 1.0000 0.8750 0.5000 0.8750 0.7500 " />
								</IndexedTriangleSet>
							</Shape>
						</Group>
					</Transform>
				</Transform>
			</Transform>
			<Transform DEF="tail_TRANSFORM"
			           translation="0.000000 0.000000 0.021791"
			           scale="1.000000 1.000000 1.000000"
			           rotation="0.000000 1.000000 0.000000 0.000000"
			           >
				<Transform DEF="tail_ifs_TRANSFORM"
				           translation="0.000000 0.000000 0.000000"
				           scale="1.000000 1.000000 1.000000"
				           rotation="0.000000 1.000000 0.000000 0.000000"
				           >
					<Group DEF="group_ME_tail">
						<Shape>
							<Appearance>
								<Material USE="MA_Body" />
							</Appearance>
							<IndexedTriangleSet solid="false"
							                    normalPerVertex="true"
							                    index="0 1 2 0 2 3 3 2 4 3 4 5 5 4 6 5 6 7 7 6 8 7 8 9 10 5 7 10 7 11 12 13 14 12 14 15 "
							                    >
								<Coordinate point="-0.341497 0.341497 0.000000 -0.341497 0.341497 -0.295399 -0.341497 -0.341497 -0.295399 -0.341497 -0.341497 -0.000000 0.341497 -0.341497 -0.295399 0.341497 -0.341497 -0.000000 0.341497 0.341497 -0.295399 0.341497 0.341497 0.000000 -0.341497 0.341497 -0.295399 -0.341497 0.341497 0.000000 -0.341497 -0.341497 -0.000000 -0.341497 0.341497 0.000000 0.341497 -0.341497 -0.295399 -0.341497 -0.341497 -0.295399 -0.341497 0.341497 -0.295399 0.341497 0.341497 -0.295399 " />
								<Normal vector="-0.577349 0.577349 0.577349 -0.577349 0.577349 -0.577349 -0.577349 -0.577349 -0.577349 -0.577349 -0.577349 0.577349 0.577349 -0.577349 -0.577349 0.577349 -0.577349 0.577349 0.577349 0.577349 -0.577349 0.577349 0.577349 0.577349 -0.577349 0.577349 -0.577349 -0.577349 0.577349 0.577349 -0.577349 -0.577349 0.577349 -0.577349 0.577349 0.577349 0.577349 -0.577349 -0.577349 -0.577349 -0.577349 -0.577349 -0.577349 0.577349 -0.577349 0.577349 0.577349 -0.577349 " />
								<TextureCoordinate point="0.3750 0.0000 0.6250 0.0000 0.6250 0.2500 0.3750 0.2500 0.6250 0.5000 0.3750 0.5000 0.6250 0.7500 0.3750 0.7500 0.6250 1.0000 0.3750 1.0000 0.1250 0.5000 0.1250 0.7500 0.4297 0.1172 0.6797 0.1172 0.6797 0.3672 0.4297 0.3672 " />
							</IndexedTriangleSet>
						</Shape>
					</Group>
				</Transform>
				<Transform DEF="Cube_005_TRANSFORM"
				           translation="0.000000 -0.255630 -0.171694"
				           scale="1.000000 1.000000 1.000000"
				           rotation="0.000000 1.000000 0.000000 0.000000"
				           >
					<Transform DEF="Cube_005_ifs_TRANSFORM"
					           translation="0.000000 0.000000 0.000000"
					           scale="1.000000 1.000000 1.000000"
					           rotation="0.000000 1.000000 0.000000 0.000000"
					           >
						<Group DEF="group_ME_Cube_001">
							<Shape>
								<Appearance>
									<Material USE="MA_Body" />
								</Appearance>
								<IndexedTriangleSet solid="false"
								                    normalPerVertex="true"
								                    index="0 1 2 0 2 3 3 2 4 3 4 5 5 4 6 5 6 7 7 6 8 7 8 9 10 5 7 10 7 11 4 12 13 4 13 6 "
								                    >
									<Coordinate point="-0.321031 -0.801299 -0.461350 -0.321031 -0.016894 0.027129 -0.321031 0.016894 -0.027129 -0.321031 -0.767511 -0.515607 0.321031 0.016894 -0.027129 0.321031 -0.767511 -0.515607 0.321031 -0.016894 0.027129 0.321031 -0.801299 -0.461350 -0.321031 -0.016894 0.027129 -0.321031 -0.801299 -0.461350 -0.321031 -0.767511 -0.515607 -0.321031 -0.801299 -0.461350 -0.321031 0.016894 -0.027129 -0.321031 -0.016894 0.027129 " />
									<Normal vector="-0.577349 -0.795282 0.184881 -0.577349 0.184881 0.795282 -0.577349 0.795282 -0.184881 -0.577349 -0.184881 -0.795282 0.577349 0.795282 -0.184881 0.577349 -0.184881 -0.795282 0.577349 0.184881 0.795282 0.577349 -0.795282 0.184881 -0.577349 0.184881 0.795282 -0.577349 -0.795282 0.184881 -0.577349 -0.184881 -0.795282 -0.577349 -0.795282 0.184881 -0.577349 0.795282 -0.184881 -0.577349 0.184881 0.795282 " />
									<TextureCoordinate point="0.3750 0.0000 0.6250 0.0000 0.6250 0.2500 0.3750 0.2500 0.6250 0.5000 0.3750 0.5000 0.6250 0.7500 0.3750 0.7500 0.6250 1.0000 0.3750 1.0000 0.1250 0.5000 0.1250 0.7500 0.8750 0.5000 0.8750 0.7500 " />
								</IndexedTriangleSet>
							</Shape>
						</Group>
					</Transform>
				</Transform>
				<Transform DEF="Cube_010_TRANSFORM"
				           translation="0.482564 -0.016003 -0.343678"
				           scale="1.000000 1.000000 1.000000"
				           rotation="0.000000 1.000000 0.000000 0.000000"
				           >
					<Transform DEF="Cube_010_ifs_TRANSFORM"
					           translation="0.000000 0.000000 0.000000"
					           scale="1.000000 1.000000 1.000000"
					           rotation="0.000000 1.000000 0.000000 0.000000"
					           >
						<Group DEF="group_ME_Cube_007">
							<Shape>
								<Appearance>
									<Material USE="MA_Body" />
								</Appearance>
								<IndexedTriangleSet solid="false"
								                    normalPerVertex="true"
								                    index="0 1 2 0 2 3 3 2 4 3 4 5 5 4 6 5 6 7 7 6 8 7 8 9 10 5 7 10 7 11 4 12 13 4 13 6 "
								                    >
									<Coordinate point="0.486598 -0.221643 -0.229561 0.017090 -0.219903 0.032125 -0.010557 -0.221957 -0.017465 0.458950 -0.223697 -0.279150 -0.017090 0.219903 -0.032125 0.452418 0.218162 -0.293811 0.010557 0.221957 0.017465 0.480065 0.220216 -0.244221 0.017090 -0.219903 0.032125 0.486598 -0.221643 -0.229561 0.458950 -0.223697 -0.279150 0.486598 -0.221643 -0.229561 -0.010557 -0.221957 -0.017465 0.017090 -0.219903 0.032125 " />
									<Normal vector="0.793786 -0.557939 0.241981 -0.214789 -0.554216 0.804163 -0.776727 -0.595965 -0.203711 0.231849 -0.599689 -0.765862 -0.793786 0.557939 -0.241981 0.214789 0.554216 -0.804163 -0.231849 0.599689 0.765862 0.776727 0.595965 0.203711 -0.214789 -0.554216 0.804163 0.793786 -0.557939 0.241981 0.231849 -0.599689 -0.765862 0.793786 -0.557939 0.241981 -0.776727 -0.595965 -0.203711 -0.214789 -0.554216 0.804163 " />
									<TextureCoordinate point="0.3750 0.0000 0.6250 0.0000 0.6250 0.2500 0.3750 0.2500 0.6250 0.5000 0.3750 0.5000 0.6250 0.7500 0.3750 0.7500 0.6250 1.0000 0.3750 1.0000 0.1250 0.5000 0.1250 0.7500 0.8750 0.5000 0.8750 0.7500 " />
								</IndexedTriangleSet>
							</Shape>
						</Group>
					</Transform>
					<Transform DEF="Cube_007_TRANSFORM"
					           translation="-0.236231 -0.103757 0.171985"
					           scale="1.000000 1.000000 1.000000"
					           rotation="0.000000 1.000000 0.000000 0.000000"
					           >
						<Transform DEF="Cube_007_ifs_TRANSFORM"
						           translation="0.000000 0.000000 0.000000"
						           scale="1.000000 1.000000 1.000000"
						           rotation="0.000000 1.000000 0.000000 0.000000"
						           >
							<Group DEF="group_ME_Cube_003">
								<Shape>
									<Appearance>
										<Material USE="MA_Body" />
									</Appearance>
									<IndexedTriangleSet solid="false"
									                    normalPerVertex="true"
									                    index="0 1 2 0 2 3 3 2 4 3 4 5 5 4 6 5 6 7 7 6 8 7 8 9 10 5 7 10 7 11 4 12 13 4 13 6 "
									                    >
										<Coordinate point="0.545126 -0.652266 -0.461350 -0.129966 -0.252838 0.027129 -0.159045 -0.235633 -0.027129 0.516046 -0.635061 -0.515607 0.129966 0.252838 -0.027129 0.805057 -0.146589 -0.515607 0.159045 0.235633 0.027129 0.834137 -0.163794 -0.461350 -0.129966 -0.252838 0.027129 0.545126 -0.652266 -0.461350 0.516046 -0.635061 -0.515607 0.545126 -0.652266 -0.461350 -0.159045 -0.235633 -0.027129 -0.129966 -0.252838 0.027129 " />
										<Normal vector="0.390454 -0.901852 0.184881 -0.453108 -0.402722 0.795282 -0.978423 -0.091922 -0.184881 -0.134861 -0.591021 -0.795282 -0.390454 0.901852 -0.184881 0.453108 0.402722 -0.795282 0.134861 0.591021 0.795282 0.978423 0.091922 0.184881 -0.453108 -0.402722 0.795282 0.390454 -0.901852 0.184881 -0.134861 -0.591021 -0.795282 0.390454 -0.901852 0.184881 -0.978423 -0.091922 -0.184881 -0.453108 -0.402722 0.795282 " />
										<TextureCoordinate point="0.3750 0.0000 0.6250 0.0000 0.6250 0.2500 0.3750 0.2500 0.6250 0.5000 0.3750 0.5000 0.6250 0.7500 0.3750 0.7500 0.6250 1.0000 0.3750 1.0000 0.1250 0.5000 0.1250 0.7500 0.8750 0.5000 0.8750 0.7500 " />
									</IndexedTriangleSet>
								</Shape>
							</Group>
						</Transform>
						<Transform DEF="Cube_009_TRANSFORM"
						           translation="-0.017678 -0.196156 -0.098729"
						           scale="1.000000 1.000000 1.000000"
						           rotation="0.000000 1.000000 0.000000 0.000000"
						           >
							<Transform DEF="Cube_009_ifs_TRANSFORM"
							           translation="0.000000 0.000000 0.000000"
							           scale="1.000000 1.000000 1.000000"
							           rotation="0.000000 1.000000 0.000000 0.000000"
							           >
								<Group DEF="group_ME_Cube_006">
									<Shape>
										<Appearance>
											<Material USE="MA_Body" />
										</Appearance>
										<IndexedTriangleSet solid="false"
										                    normalPerVertex="true"
										                    index="0 1 2 0 2 3 3 2 4 3 4 5 5 4 6 5 6 7 7 6 8 7 8 9 10 5 7 10 7 11 4 12 13 4 13 6 "
										                    >
											<Coordinate point="0.071126 -0.632054 -0.332400 -0.205974 -0.131091 0.024113 -0.220510 -0.104812 -0.024113 0.056590 -0.605774 -0.380626 0.205974 0.131091 -0.024113 0.483074 -0.369871 -0.380626 0.220510 0.104812 0.024113 0.497610 -0.396151 -0.332400 -0.205974 -0.131091 0.024113 0.071126 -0.632054 -0.332400 0.056590 -0.605774 -0.380626 0.071126 -0.632054 -0.332400 -0.220510 -0.104812 -0.024113 -0.205974 -0.131091 0.024113 " />
											<Normal vector="-0.120273 -0.975341 0.184881 -0.594684 -0.117649 0.795282 -0.890133 0.416456 -0.184881 -0.415693 -0.441237 -0.795282 0.120273 0.975341 -0.184881 0.594684 0.117649 -0.795282 0.415693 0.441237 0.795282 0.890133 -0.416456 0.184881 -0.594684 -0.117649 0.795282 -0.120273 -0.975341 0.184881 -0.415693 -0.441237 -0.795282 -0.120273 -0.975341 0.184881 -0.890133 0.416456 -0.184881 -0.594684 -0.117649 0.795282 " />
											<TextureCoordinate point="0.3750 0.0000 0.6250 0.0000 0.6250 0.2500 0.3750 0.2500 0.6250 0.5000 0.3750 0.5000 0.6250 0.7500 0.3750 0.7500 0.6250 1.0000 0.3750 1.0000 0.1250 0.5000 0.1250 0.7500 0.8750 0.5000 0.8750 0.7500 " />
										</IndexedTriangleSet>
									</Shape>
								</Group>
							</Transform>
						</Transform>
					</Transform>
					<Transform DEF="Cube_008_TRANSFORM"
					           translation="-0.236231 0.100778 0.171985"
					           scale="1.000000 1.000000 1.000000"
					           rotation="0.000000 1.000000 0.000000 0.000000"
					           >
						<Transform DEF="Cube_008_ifs_TRANSFORM"
						           translation="0.000000 0.000000 0.000000"
						           scale="1.000000 1.000000 1.000000"
						           rotation="0.000000 1.000000 0.000000 0.000000"
						           >
							<Group DEF="group_ME_Cube_005">
								<Shape>
									<Appearance>
										<Material USE="MA_Body" />
									</Appearance>
									<IndexedTriangleSet solid="false"
									                    normalPerVertex="true"
									                    index="0 1 2 0 2 3 4 5 6 4 6 7 8 9 10 8 10 11 9 12 13 9 13 10 14 15 9 14 9 8 11 10 16 11 16 17 "
									                    >
										<Coordinate point="0.545126 0.652266 -0.461350 0.516046 0.635061 -0.515607 -0.159045 0.235633 -0.027129 -0.129966 0.252838 0.027129 0.516046 0.635061 -0.515607 0.805057 0.146589 -0.515607 0.129966 -0.252838 -0.027129 -0.159045 0.235633 -0.027129 0.805057 0.146589 -0.515607 0.834137 0.163794 -0.461350 0.159045 -0.235633 0.027129 0.129966 -0.252838 -0.027129 0.545126 0.652266 -0.461350 -0.129966 0.252838 0.027129 0.516046 0.635061 -0.515607 0.545126 0.652266 -0.461350 -0.129966 0.252838 0.027129 -0.159045 0.235633 -0.027129 " />
										<Normal vector="0.390454 0.901852 0.184881 -0.134861 0.591021 -0.795282 -0.978423 0.091922 -0.184881 -0.453108 0.402722 0.795282 -0.134861 0.591021 -0.795282 0.453108 -0.402722 -0.795282 -0.390454 -0.901852 -0.184881 -0.978423 0.091922 -0.184881 0.453108 -0.402722 -0.795282 0.978423 -0.091922 0.184881 0.134861 -0.591021 0.795282 -0.390454 -0.901852 -0.184881 0.390454 0.901852 0.184881 -0.453108 0.402722 0.795282 -0.134861 0.591021 -0.795282 0.390454 0.901852 0.184881 -0.453108 0.402722 0.795282 -0.978423 0.091922 -0.184881 " />
										<TextureCoordinate point="0.3750 0.0000 0.3750 0.2500 0.6250 0.2500 0.6250 0.0000 0.3353 0.1010 0.3353 0.4303 0.6647 0.4303 0.6647 0.1010 0.3750 0.5000 0.3750 0.7500 0.6250 0.7500 0.6250 0.5000 0.3750 1.0000 0.6250 1.0000 0.1250 0.5000 0.1250 0.7500 0.8750 0.7500 0.8750 0.5000 " />
									</IndexedTriangleSet>
								</Shape>
							</Group>
						</Transform>
						<Transform DEF="Cube_006_TRANSFORM"
						           translation="-0.017678 0.182813 -0.098729"
						           scale="1.000000 1.000000 1.000000"
						           rotation="0.000000 1.000000 0.000000 0.000000"
						           >
							<Transform DEF="Cube_006_ifs_TRANSFORM"
							           translation="0.000000 0.000000 0.000000"
							           scale="1.000000 1.000000 1.000000"
							           rotation="0.000000 1.000000 0.000000 0.000000"
							           >
								<Group DEF="group_ME_Cube_004">
									<Shape>
										<Appearance>
											<Material USE="MA_Body" />
										</Appearance>
										<IndexedTriangleSet solid="false"
										                    normalPerVertex="true"
										                    index="0 1 2 0 2 3 4 5 6 4 6 7 8 9 10 8 10 11 9 12 13 9 13 10 14 15 9 14 9 8 11 10 16 11 16 17 "
										                    >
											<Coordinate point="0.071126 0.632054 -0.332400 0.056590 0.605774 -0.380626 -0.220510 0.104812 -0.024113 -0.205974 0.131091 0.024113 0.056590 0.605774 -0.380626 0.483073 0.369871 -0.380626 0.205974 -0.131091 -0.024113 -0.220510 0.104812 -0.024113 0.483073 0.369871 -0.380626 0.497610 0.396151 -0.332400 0.220510 -0.104812 0.024113 0.205974 -0.131091 -0.024113 0.071126 0.632054 -0.332400 -0.205974 0.131091 0.024113 0.056590 0.605774 -0.380626 0.071126 0.632054 -0.332400 -0.205974 0.131091 0.024113 -0.220510 0.104812 -0.024113 " />
											<Normal vector="-0.120273 0.975341 0.184881 -0.415693 0.441237 -0.795282 -0.890133 -0.416456 -0.184881 -0.594684 0.117649 0.795282 -0.415693 0.441237 -0.795282 0.594684 -0.117649 -0.795282 0.120273 -0.975341 -0.184881 -0.890133 -0.416456 -0.184881 0.594684 -0.117649 -0.795282 0.890133 0.416456 0.184881 0.415693 -0.441237 0.795282 0.120273 -0.975341 -0.184881 -0.120273 0.975341 0.184881 -0.594684 0.117649 0.795282 -0.415693 0.441237 -0.795282 -0.120273 0.975341 0.184881 -0.594684 0.117649 0.795282 -0.890133 -0.416456 -0.184881 " />
											<TextureCoordinate point="0.3750 0.0000 0.3750 0.2500 0.6250 0.2500 0.6250 0.0000 0.3353 0.1010 0.3353 0.4303 0.6647 0.4303 0.6647 0.1010 0.3750 0.5000 0.3750 0.7500 0.6250 0.7500 0.6250 0.5000 0.3750 1.0000 0.6250 1.0000 0.1250 0.5000 0.1250 0.7500 0.8750 0.7500 0.8750 0.5000 " />
										</IndexedTriangleSet>
									</Shape>
								</Group>
							</Transform>
						</Transform>
					</Transform>
				</Transform>
				<Transform DEF="Cube_011_TRANSFORM"
				           translation="0.000000 0.230623 -0.171694"
				           scale="1.000000 1.000000 1.000000"
				           rotation="0.000000 1.000000 0.000000 0.000000"
				           >
					<Transform DEF="Cube_011_ifs_TRANSFORM"
					           translation="0.000000 0.000000 0.000000"
					           scale="1.000000 1.000000 1.000000"
					           rotation="0.000000 1.000000 0.000000 0.000000"
					           >
						<Group DEF="group_ME_Cube_008">
							<Shape>
								<Appearance>
									<Material USE="MA_Body" />
								</Appearance>
								<IndexedTriangleSet solid="false"
								                    normalPerVertex="true"
								                    index="0 1 2 0 2 3 1 4 5 1 5 2 4 6 7 4 7 5 6 8 9 6 9 7 10 11 6 10 6 4 5 7 12 5 12 13 "
								                    >
									<Coordinate point="-0.321031 0.801299 -0.461350 -0.321031 0.767511 -0.515607 -0.321031 -0.016894 -0.027129 -0.321031 0.016894 0.027129 0.321031 0.767511 -0.515607 0.321031 -0.016894 -0.027129 0.321031 0.801299 -0.461350 0.321031 0.016894 0.027129 -0.321031 0.801299 -0.461350 -0.321031 0.016894 0.027129 -0.321031 0.767511 -0.515607 -0.321031 0.801299 -0.461350 -0.321031 0.016894 0.027129 -0.321031 -0.016894 -0.027129 " />
									<Normal vector="-0.577349 0.795282 0.184881 -0.577349 0.184881 -0.795282 -0.577349 -0.795282 -0.184881 -0.577349 -0.184881 0.795282 0.577349 0.184881 -0.795282 0.577349 -0.795282 -0.184881 0.577349 0.795282 0.184881 0.577349 -0.184881 0.795282 -0.577349 0.795282 0.184881 -0.577349 -0.184881 0.795282 -0.577349 0.184881 -0.795282 -0.577349 0.795282 0.184881 -0.577349 -0.184881 0.795282 -0.577349 -0.795282 -0.184881 " />
									<TextureCoordinate point="0.3750 0.0000 0.3750 0.2500 0.6250 0.2500 0.6250 0.0000 0.3750 0.5000 0.6250 0.5000 0.3750 0.7500 0.6250 0.7500 0.3750 1.0000 0.6250 1.0000 0.1250 0.5000 0.1250 0.7500 0.8750 0.7500 0.8750 0.5000 " />
								</IndexedTriangleSet>
							</Shape>
						</Group>
					</Transform>
				</Transform>
				<Transform DEF="Cube_015_TRANSFORM"
				           translation="-0.482564 -0.016003 -0.343678"
				           scale="1.000000 1.000000 1.000000"
				           rotation="0.000000 1.000000 0.000000 0.000000"
				           >
					<Transform DEF="Cube_015_ifs_TRANSFORM"
					           translation="0.000000 0.000000 0.000000"
					           scale="1.000000 1.000000 1.000000"
					           rotation="0.000000 1.000000 0.000000 0.000000"
					           >
						<Group DEF="group_ME_Cube_016">
							<Shape>
								<Appearance>
									<Material USE="MA_Body" />
								</Appearance>
								<IndexedTriangleSet solid="false"
								                    normalPerVertex="true"
								                    index="0 1 2 0 2 3 1 4 5 1 5 2 4 6 7 4 7 5 6 8 9 6 9 7 10 11 6 10 6 4 5 7 12 5 12 13 "
								                    >
									<Coordinate point="-0.486598 -0.221643 -0.229561 -0.458950 -0.223697 -0.279150 0.010557 -0.221957 -0.017465 -0.017090 -0.219903 0.032125 -0.452418 0.218162 -0.293811 0.017090 0.219903 -0.032125 -0.480065 0.220216 -0.244221 -0.010557 0.221957 0.017465 -0.486598 -0.221643 -0.229561 -0.017090 -0.219903 0.032125 -0.458950 -0.223697 -0.279150 -0.486598 -0.221643 -0.229561 -0.017090 -0.219903 0.032125 0.010557 -0.221957 -0.017465 " />
									<Normal vector="-0.793786 -0.557939 0.241981 -0.231849 -0.599689 -0.765862 0.776727 -0.595965 -0.203711 0.214789 -0.554216 0.804163 -0.214789 0.554216 -0.804163 0.793786 0.557939 -0.241981 -0.776727 0.595965 0.203711 0.231849 0.599689 0.765862 -0.793786 -0.557939 0.241981 0.214789 -0.554216 0.804163 -0.231849 -0.599689 -0.765862 -0.793786 -0.557939 0.241981 0.214789 -0.554216 0.804163 0.776727 -0.595965 -0.203711 " />
									<TextureCoordinate point="0.3750 0.0000 0.3750 0.2500 0.6250 0.2500 0.6250 0.0000 0.3750 0.5000 0.6250 0.5000 0.3750 0.7500 0.6250 0.7500 0.3750 1.0000 0.6250 1.0000 0.1250 0.5000 0.1250 0.7500 0.8750 0.7500 0.8750 0.5000 " />
								</IndexedTriangleSet>
							</Shape>
						</Group>
					</Transform>
					<Transform DEF="Cube_012_TRANSFORM"
					           translation="0.236231 -0.103757 0.171985"
					           scale="1.000000 1.000000 1.000000"
					           rotation="0.000000 1.000000 0.000000 0.000000"
					           >
						<Transform DEF="Cube_012_ifs_TRANSFORM"
						           translation="0.000000 0.000000 0.000000"
						           scale="1.000000 1.000000 1.000000"
						           rotation="0.000000 1.000000 0.000000 0.000000"
						           >
							<Group DEF="group_ME_Cube_013">
								<Shape>
									<Appearance>
										<Material USE="MA_Body" />
									</Appearance>
									<IndexedTriangleSet solid="false"
									                    normalPerVertex="true"
									                    index="0 1 2 0 2 3 1 4 5 1 5 2 4 6 7 4 7 5 6 8 9 6 9 7 10 11 6 10 6 4 5 7 12 5 12 13 "
									                    >
										<Coordinate point="-0.545126 -0.652266 -0.461350 -0.516046 -0.635060 -0.515607 0.159045 -0.235633 -0.027129 0.129966 -0.252838 0.027129 -0.805057 -0.146589 -0.515607 -0.129966 0.252838 -0.027129 -0.834137 -0.163794 -0.461350 -0.159045 0.235633 0.027129 -0.545126 -0.652266 -0.461350 0.129966 -0.252838 0.027129 -0.516046 -0.635060 -0.515607 -0.545126 -0.652266 -0.461350 0.129966 -0.252838 0.027129 0.159045 -0.235633 -0.027129 " />
										<Normal vector="-0.390454 -0.901852 0.184881 0.134861 -0.591021 -0.795282 0.978423 -0.091922 -0.184881 0.453108 -0.402722 0.795282 -0.453108 0.402722 -0.795282 0.390454 0.901852 -0.184881 -0.978423 0.091922 0.184881 -0.134861 0.591021 0.795282 -0.390454 -0.901852 0.184881 0.453108 -0.402722 0.795282 0.134861 -0.591021 -0.795282 -0.390454 -0.901852 0.184881 0.453108 -0.402722 0.795282 0.978423 -0.091922 -0.184881 " />
										<TextureCoordinate point="0.3750 0.0000 0.3750 0.2500 0.6250 0.2500 0.6250 0.0000 0.3750 0.5000 0.6250 0.5000 0.3750 0.7500 0.6250 0.7500 0.3750 1.0000 0.6250 1.0000 0.1250 0.5000 0.1250 0.7500 0.8750 0.7500 0.8750 0.5000 " />
									</IndexedTriangleSet>
								</Shape>
							</Group>
						</Transform>
						<Transform DEF="Cube_014_TRANSFORM"
						           translation="0.017678 -0.196156 -0.098729"
						           scale="1.000000 1.000000 1.000000"
						           rotation="0.000000 1.000000 0.000000 0.000000"
						           >
							<Transform DEF="Cube_014_ifs_TRANSFORM"
							           translation="0.000000 0.000000 0.000000"
							           scale="1.000000 1.000000 1.000000"
							           rotation="0.000000 1.000000 0.000000 0.000000"
							           >
								<Group DEF="group_ME_Cube_015">
									<Shape>
										<Appearance>
											<Material USE="MA_Body" />
										</Appearance>
										<IndexedTriangleSet solid="false"
										                    normalPerVertex="true"
										                    index="0 1 2 0 2 3 1 4 5 1 5 2 4 6 7 4 7 5 6 8 9 6 9 7 10 11 6 10 6 4 5 7 12 5 12 13 "
										                    >
											<Coordinate point="-0.071126 -0.632054 -0.332400 -0.056590 -0.605774 -0.380626 0.220510 -0.104812 -0.024113 0.205974 -0.131091 0.024113 -0.483074 -0.369871 -0.380626 -0.205974 0.131091 -0.024113 -0.497610 -0.396151 -0.332400 -0.220510 0.104812 0.024113 -0.071126 -0.632054 -0.332400 0.205974 -0.131091 0.024113 -0.056590 -0.605774 -0.380626 -0.071126 -0.632054 -0.332400 0.205974 -0.131091 0.024113 0.220510 -0.104812 -0.024113 " />
											<Normal vector="0.120273 -0.975341 0.184881 0.415693 -0.441237 -0.795282 0.890133 0.416456 -0.184881 0.594684 -0.117649 0.795282 -0.594684 0.117649 -0.795282 -0.120273 0.975341 -0.184881 -0.890133 -0.416456 0.184881 -0.415693 0.441237 0.795282 0.120273 -0.975341 0.184881 0.594684 -0.117649 0.795282 0.415693 -0.441237 -0.795282 0.120273 -0.975341 0.184881 0.594684 -0.117649 0.795282 0.890133 0.416456 -0.184881 " />
											<TextureCoordinate point="0.3750 0.0000 0.3750 0.2500 0.6250 0.2500 0.6250 0.0000 0.3750 0.5000 0.6250 0.5000 0.3750 0.7500 0.6250 0.7500 0.3750 1.0000 0.6250 1.0000 0.1250 0.5000 0.1250 0.7500 0.8750 0.7500 0.8750 0.5000 " />
										</IndexedTriangleSet>
									</Shape>
								</Group>
							</Transform>
						</Transform>
					</Transform>
					<Transform DEF="Cube_013_TRANSFORM"
					           translation="0.236231 0.100778 0.171985"
					           scale="1.000000 1.000000 1.000000"
					           rotation="0.000000 1.000000 0.000000 0.000000"
					           >
						<Transform DEF="Cube_013_ifs_TRANSFORM"
						           translation="0.000000 0.000000 0.000000"
						           scale="1.000000 1.000000 1.000000"
						           rotation="0.000000 1.000000 0.000000 0.000000"
						           >
							<Group DEF="group_ME_Cube_014">
								<Shape>
									<Appearance>
										<Material USE="MA_Body" />
									</Appearance>
									<IndexedTriangleSet solid="false"
									                    normalPerVertex="true"
									                    index="0 1 2 0 2 3 4 5 6 4 6 7 8 9 10 8 10 11 11 10 12 11 12 13 14 8 11 14 11 15 9 16 17 9 17 10 "
									                    >
										<Coordinate point="-0.545126 0.652266 -0.461350 0.129966 0.252838 0.027129 0.159045 0.235633 -0.027129 -0.516046 0.635061 -0.515607 -0.516046 0.635061 -0.515607 0.159045 0.235633 -0.027129 -0.129966 -0.252838 -0.027129 -0.805057 0.146589 -0.515607 -0.805057 0.146589 -0.515607 -0.129966 -0.252838 -0.027129 -0.159045 -0.235633 0.027129 -0.834137 0.163794 -0.461350 0.129966 0.252838 0.027129 -0.545126 0.652266 -0.461350 -0.516046 0.635061 -0.515607 -0.545126 0.652266 -0.461350 0.159045 0.235633 -0.027129 0.129966 0.252838 0.027129 " />
										<Normal vector="-0.390454 0.901852 0.184881 0.453108 0.402722 0.795282 0.978423 0.091922 -0.184881 0.134861 0.591021 -0.795282 0.134861 0.591021 -0.795282 0.978423 0.091922 -0.184881 0.390454 -0.901852 -0.184881 -0.453108 -0.402722 -0.795282 -0.453108 -0.402722 -0.795282 0.390454 -0.901852 -0.184881 -0.134861 -0.591021 0.795282 -0.978423 -0.091922 0.184881 0.453108 0.402722 0.795282 -0.390454 0.901852 0.184881 0.134861 0.591021 -0.795282 -0.390454 0.901852 0.184881 0.978423 0.091922 -0.184881 0.453108 0.402722 0.795282 " />
										<TextureCoordinate point="0.3750 0.0000 0.6250 0.0000 0.6250 0.2500 0.3750 0.2500 0.3353 0.1010 0.6647 0.1010 0.6647 0.4303 0.3353 0.4303 0.3750 0.5000 0.6250 0.5000 0.6250 0.7500 0.3750 0.7500 0.6250 1.0000 0.3750 1.0000 0.1250 0.5000 0.1250 0.7500 0.8750 0.5000 0.8750 0.7500 " />
									</IndexedTriangleSet>
								</Shape>
							</Group>
						</Transform>
						<Transform DEF="Cube_016_TRANSFORM"
						           translation="0.017678 0.182813 -0.098729"
						           scale="1.000000 1.000000 1.000000"
						           rotation="0.000000 1.000000 0.000000 0.000000"
						           >
							<Transform DEF="Cube_016_ifs_TRANSFORM"
							           translation="0.000000 0.000000 0.000000"
							           scale="1.000000 1.000000 1.000000"
							           rotation="0.000000 1.000000 0.000000 0.000000"
							           >
								<Group DEF="group_ME_Cube_017">
									<Shape>
										<Appearance>
											<Material USE="MA_Body" />
										</Appearance>
										<IndexedTriangleSet solid="false"
										                    normalPerVertex="true"
										                    index="0 1 2 0 2 3 4 5 6 4 6 7 8 9 10 8 10 11 11 10 12 11 12 13 14 8 11 14 11 15 9 16 17 9 17 10 "
										                    >
											<Coordinate point="-0.071126 0.632054 -0.332400 0.205974 0.131091 0.024113 0.220510 0.104812 -0.024113 -0.056590 0.605774 -0.380626 -0.056590 0.605774 -0.380626 0.220510 0.104812 -0.024113 -0.205974 -0.131091 -0.024113 -0.483073 0.369871 -0.380626 -0.483073 0.369871 -0.380626 -0.205974 -0.131091 -0.024113 -0.220510 -0.104812 0.024113 -0.497610 0.396151 -0.332400 0.205974 0.131091 0.024113 -0.071126 0.632054 -0.332400 -0.056590 0.605774 -0.380626 -0.071126 0.632054 -0.332400 0.220510 0.104812 -0.024113 0.205974 0.131091 0.024113 " />
											<Normal vector="0.120273 0.975341 0.184881 0.594684 0.117649 0.795282 0.890133 -0.416456 -0.184881 0.415693 0.441237 -0.795282 0.415693 0.441237 -0.795282 0.890133 -0.416456 -0.184881 -0.120273 -0.975341 -0.184881 -0.594684 -0.117649 -0.795282 -0.594684 -0.117649 -0.795282 -0.120273 -0.975341 -0.184881 -0.415693 -0.441237 0.795282 -0.890133 0.416456 0.184881 0.594684 0.117649 0.795282 0.120273 0.975341 0.184881 0.415693 0.441237 -0.795282 0.120273 0.975341 0.184881 0.890133 -0.416456 -0.184881 0.594684 0.117649 0.795282 " />
											<TextureCoordinate point="0.3750 0.0000 0.6250 0.0000 0.6250 0.2500 0.3750 0.2500 0.3353 0.1010 0.6647 0.1010 0.6647 0.4303 0.3353 0.4303 0.3750 0.5000 0.6250 0.5000 0.6250 0.7500 0.3750 0.7500 0.6250 1.0000 0.3750 1.0000 0.1250 0.5000 0.1250 0.7500 0.8750 0.5000 0.8750 0.7500 " />
										</IndexedTriangleSet>
									</Shape>
								</Group>
							</Transform>
						</Transform>
					</Transform>
				</Transform>
			</Transform>
		</Transform>
	</Scene>
</X3D>