<?xml version="1.0" encoding="UTF-8"?>
<!DOCTYPE X3D PUBLIC "ISO//Web3D//DTD X3D 3.0//EN" "http://www.web3d.org/specifications/x3d-3.0.dtd">
<X3D version="3.0" profile="Immersive" xmlns:xsd="http://www.w3.org/2001/XMLSchema-instance" xsd:noNamespaceSchemaLocation="http://www.web3d.org/specifications/x3d-3.0.xsd">
	<head>
		<meta name="filename" content="skiploom.x3d" />
		<meta name="generator" content="Blender 2.93.18" />
	</head>
	<Scene>
		<NavigationInfo headlight="true"
		                visibilityLimit="0.0"
		                type='"EXAMINE", "ANY"'
		                avatarSize="0.25, 1.75, 0.75"
		                />
		<Background DEF="WO_World"
		            groundColor="0.051 0.051 0.051"
		            skyColor="0.051 0.051 0.051"
		            />
		<Transform DEF="body_TRANSFORM"
		           translation="0.000000 0.000000 0.390400"
		           scale="1.000000 1.000000 1.000000"
		           rotation="0.000000 0.000000 1.000000 3.141593"
		           >
			<Transform DEF="body_ifs_TRANSFORM"
			           translation="0.000000 0.000000 0.000000"
			           scale="1.000000 1.000000 1.000000"
			           rotation="0.000000 1.000000 0.000000 0.000000"
			           >
				<Group DEF="group_ME_body">
					<Shape>
						<Appearance>
							<Material DEF="MA_Body"
							          diffuseColor="0.800 0.800 0.800"
							          specularColor="0.401 0.401 0.401"
							          emissiveColor="0.000 0.000 0.000"
							          ambientIntensity="0.000"
							          shininess="0.500"
							          transparency="0.0"
							          />
						</Appearance>
						<IndexedTriangleSet solid="false"
						                    normalPerVertex="true"
						                    index="0 1 2 0 2 3 4 5 6 4 6 7 8 9 10 8 10 11 12 13 14 12 14 15 16 17 18 16 18 19 20 21 14 20 14 22 23 24 25 23 25 26 27 28 29 27 29 30 16 31 32 16 32 33 34 35 36 34 36 37 38 39 40 38 40 41 42 43 44 42 44 45 46 47 48 46 48 49 50 51 52 50 52 53 54 55 56 54 56 57 58 59 60 58 60 61 62 63 64 62 64 65 66 67 68 66 68 69 58 70 71 58 71 72 73 74 68 73 68 75 76 77 78 76 78 79 80 81 82 80 82 83 84 85 86 84 86 87 88 89 90 88 90 91 92 93 94 92 94 95 96 97 98 96 98 99 100 101 102 100 102 103 104 105 106 104 106 107 108 109 110 108 110 111 112 113 114 112 114 115 116 5 114 116 114 117 118 119 120 118 120 19 121 122 123 121 123 124 125 126 127 125 127 128 129 130 131 129 131 132 129 133 134 129 134 135 136 137 138 136 138 139 140 141 142 140 142 143 144 21 145 144 145 146 147 148 149 147 149 26 147 150 151 147 151 152 153 154 155 153 155 156 157 158 159 157 159 160 161 162 163 161 163 164 165 166 163 165 163 167 168 67 169 168 169 170 171 172 173 171 173 65 171 174 175 171 175 176 177 178 179 177 179 180 181 182 183 181 183 184 185 186 187 185 187 188 189 137 187 189 187 190 191 192 193 191 193 135 194 195 196 194 196 197 198 77 196 198 196 199 200 201 202 200 202 72 203 204 205 203 205 206 207 208 209 207 209 210 211 162 212 211 212 213 214 215 216 214 216 160 214 217 218 214 218 219 220 221 222 220 222 223 "
						                    >
							<Coordinate point="-1.606671 -1.553912 1.905859 -1.606671 -1.553912 2.280523 -1.606671 1.553912 2.280523 -1.606671 1.553912 1.905859 0.846289 1.553912 1.905859 0.846289 1.553912 2.280523 1.606671 1.553912 2.280523 1.606671 1.553912 1.905859 1.606671 1.553912 1.905859 1.606671 1.553912 2.280523 1.606671 -1.553912 2.280523 1.606671 -1.553912 1.905859 -0.846289 -1.553912 1.905859 -0.846289 -1.553912 2.280523 -1.606671 -1.553912 2.280523 -1.606671 -1.553912 1.905859 0.846289 1.553912 0.000000 1.606671 1.553912 0.000000 1.606671 -1.553912 0.000000 0.846289 -1.553912 0.000000 -0.846289 1.553912 2.280523 -1.606671 1.553912 2.280523 -0.846289 -1.553912 2.280523 -0.846289 -1.553912 0.000000 -0.846289 -1.553912 0.982489 -1.606671 -1.553912 0.982489 -1.606671 -1.553912 0.000000 1.606671 1.553912 0.000000 1.606671 1.553912 0.982489 1.606671 -1.553912 0.982489 1.606671 -1.553912 0.000000 0.846289 1.553912 0.982489 1.606671 1.553912 0.982489 1.606671 1.553912 0.000000 -1.606671 -1.553912 0.000000 -1.606671 -1.553912 0.982489 -1.606671 1.553912 0.982489 -1.606671 1.553912 0.000000 -0.846289 -1.553912 0.982489 -0.846289 -1.553912 1.523336 -1.606671 -1.553912 1.523336 -1.606671 -1.553912 0.982489 1.606671 1.553912 0.982489 1.606671 1.553912 1.523336 1.606671 -1.553912 1.523336 1.606671 -1.553912 0.982489 0.846289 1.553912 0.982489 0.846289 1.553912 1.523336 1.606671 1.553912 1.523336 1.606671 1.553912 0.982489 -1.606671 -1.553912 0.982489 -1.606671 -1.553912 1.523336 -1.606671 1.553912 1.523336 -1.606671 1.553912 0.982489 -0.483313 1.553912 0.982489 -0.483313 1.553912 1.523336 0.000000 1.553912 1.523336 0.000000 1.553912 0.982489 -0.483313 1.553912 0.000000 -0.483313 1.553912 0.982489 0.000000 1.553912 0.982489 0.000000 1.553912 0.000000 0.483313 -1.553912 0.000000 0.483313 -1.553912 0.982489 0.000000 -1.553912 0.982489 0.000000 -1.553912 0.000000 0.483313 1.553912 2.280523 0.000000 1.553912 2.280523 0.000000 -1.553912 2.280523 0.483313 -1.553912 2.280523 0.000000 1.553912 0.000000 0.000000 -1.553912 0.000000 -0.483313 -1.553912 0.000000 0.483313 -1.553912 1.905859 0.483313 -1.553912 2.280523 0.000000 -1.553912 1.905859 -0.483313 1.553912 1.905859 -0.483313 1.553912 2.280523 0.000000 1.553912 2.280523 0.000000 1.553912 1.905859 -0.483313 1.553912 1.523336 -0.483313 1.553912 1.905859 0.000000 1.553912 1.905859 0.000000 1.553912 1.523336 0.483313 -1.553912 1.523336 0.483313 -1.553912 1.905859 0.000000 -1.553912 1.905859 0.000000 -1.553912 1.523336 -0.846289 -1.553912 1.523336 -0.846289 -1.553912 1.905859 -1.606671 -1.553912 1.905859 -1.606671 -1.553912 1.523336 1.606671 1.553912 1.523336 1.606671 1.553912 1.905859 1.606671 -1.553912 1.905859 1.606671 -1.553912 1.523336 0.846289 1.553912 1.523336 0.846289 1.553912 1.905859 1.606671 1.553912 1.905859 1.606671 1.553912 1.523336 -1.606671 -1.553912 1.523336 -1.606671 -1.553912 1.905859 -1.606671 1.553912 1.905859 -1.606671 1.553912 1.523336 0.483313 1.553912 1.523336 0.483313 1.553912 1.905859 0.846289 1.553912 1.905859 0.846289 1.553912 1.523336 1.606671 -1.553912 1.523336 1.606671 -1.553912 1.905859 0.846289 -1.553912 1.905859 0.846289 -1.553912 1.523336 1.606671 -1.553912 1.905859 1.606671 -1.553912 2.280523 0.846289 -1.553912 2.280523 0.846289 -1.553912 1.905859 1.606671 1.553912 2.280523 1.606671 -1.553912 2.280523 1.606671 -1.553912 0.000000 1.606671 -1.553912 0.982489 0.846289 -1.553912 0.982489 1.606671 -1.553912 0.982489 1.606671 -1.553912 1.523336 0.846289 -1.553912 1.523336 0.846289 -1.553912 0.982489 0.483313 1.553912 0.982489 0.483313 1.553912 1.523336 0.846289 1.553912 1.523336 0.846289 1.553912 0.982489 0.483313 1.553912 0.000000 0.483313 1.553912 0.982489 0.846289 1.553912 0.982489 0.846289 1.553912 0.000000 0.846289 1.553912 0.000000 0.846289 -1.553912 0.000000 0.483313 -1.553912 0.000000 0.483313 1.553912 1.905859 0.483313 1.553912 2.280523 0.846289 1.553912 2.280523 0.846289 1.553912 1.905859 -1.606671 1.553912 1.523336 -1.606671 1.553912 1.905859 -0.846289 1.553912 1.905859 -0.846289 1.553912 1.523336 -1.606671 1.553912 1.905859 -0.846289 1.553912 2.280523 -0.846289 1.553912 1.905859 -1.606671 1.553912 0.000000 -0.846289 1.553912 0.000000 -0.846289 -1.553912 0.000000 -1.606671 1.553912 0.982489 -0.846289 1.553912 0.982489 -0.846289 1.553912 0.000000 -1.606671 1.553912 0.982489 -1.606671 1.553912 1.523336 -0.846289 1.553912 1.523336 -0.846289 1.553912 0.982489 -0.483313 -1.553912 0.000000 -0.483313 -1.553912 0.982489 -0.846289 -1.553912 0.982489 -0.846289 -1.553912 0.000000 -0.483313 1.553912 2.280523 -0.846289 1.553912 2.280523 -0.846289 -1.553912 2.280523 -0.483313 -1.553912 2.280523 -0.483313 -1.553912 1.905859 -0.483313 -1.553912 2.280523 -0.846289 -1.553912 1.905859 0.000000 1.553912 1.905859 0.483313 1.553912 2.280523 0.483313 1.553912 1.905859 0.000000 1.553912 0.000000 0.483313 1.553912 0.000000 0.483313 -1.553912 0.000000 0.000000 1.553912 0.982489 0.483313 1.553912 0.982489 0.483313 1.553912 0.000000 0.000000 1.553912 0.982489 0.000000 1.553912 1.523336 0.483313 1.553912 1.523336 0.483313 1.553912 0.982489 0.000000 1.553912 1.523336 0.000000 1.553912 1.905859 0.483313 1.553912 1.905859 0.483313 1.553912 1.523336 0.846289 -1.553912 1.905859 0.846289 -1.553912 2.280523 0.483313 -1.553912 2.280523 0.483313 -1.553912 1.905859 0.846289 1.553912 2.280523 0.846289 -1.553912 2.280523 0.846289 -1.553912 0.000000 0.846289 -1.553912 0.982489 0.483313 -1.553912 0.982489 0.000000 -1.553912 1.905859 0.000000 -1.553912 2.280523 -0.483313 -1.553912 2.280523 -0.483313 -1.553912 1.905859 0.000000 1.553912 2.280523 0.000000 -1.553912 2.280523 0.000000 -1.553912 0.000000 0.000000 -1.553912 0.982489 -0.483313 -1.553912 0.982489 0.000000 -1.553912 1.523336 0.000000 -1.553912 1.905859 -0.483313 -1.553912 1.905859 -0.483313 -1.553912 1.523336 -0.846289 1.553912 1.523336 -0.846289 1.553912 1.905859 -0.483313 1.553912 1.905859 -0.483313 1.553912 1.523336 -0.846289 1.553912 1.905859 -0.483313 1.553912 2.280523 -0.483313 1.553912 1.905859 -0.846289 1.553912 0.000000 -0.483313 1.553912 0.000000 -0.483313 -1.553912 0.000000 -0.846289 1.553912 0.982489 -0.483313 1.553912 0.982489 -0.483313 1.553912 0.000000 -0.846289 1.553912 0.982489 -0.846289 1.553912 1.523336 -0.483313 1.553912 1.523336 -0.483313 1.553912 0.982489 " />
							<Normal vector="-0.707083 -0.707083 0.000000 -0.577349 -0.577349 0.577349 -0.577349 0.577349 0.577349 -0.707083 0.707083 0.000000 0.000000 1.000000 0.000000 0.000000 0.707083 0.707083 0.577349 0.577349 0.577349 0.707083 0.707083 0.000000 0.707083 0.707083 0.000000 0.577349 0.577349 0.577349 0.577349 -0.577349 0.577349 0.707083 -0.707083 0.000000 0.000000 -1.000000 0.000000 0.000000 -0.707083 0.707083 -0.577349 -0.577349 0.577349 -0.707083 -0.707083 0.000000 0.000000 0.707083 -0.707083 0.577349 0.577349 -0.577349 0.577349 -0.577349 -0.577349 0.000000 -0.707083 -0.707083 0.000000 0.707083 0.707083 -0.577349 0.577349 0.577349 0.000000 -0.707083 0.707083 0.000000 -0.707083 -0.707083 0.000000 -1.000000 0.000000 -0.707083 -0.707083 0.000000 -0.577349 -0.577349 -0.577349 0.577349 0.577349 -0.577349 0.707083 0.707083 0.000000 0.707083 -0.707083 0.000000 0.577349 -0.577349 -0.577349 0.000000 1.000000 0.000000 0.707083 0.707083 0.000000 0.577349 0.577349 -0.577349 -0.577349 -0.577349 -0.577349 -0.707083 -0.707083 0.000000 -0.707083 0.707083 0.000000 -0.577349 0.577349 -0.577349 0.000000 -1.000000 0.000000 0.000000 -1.000000 0.000000 -0.707083 -0.707083 0.000000 -0.707083 -0.707083 0.000000 0.707083 0.707083 0.000000 0.707083 0.707083 0.000000 0.707083 -0.707083 0.000000 0.707083 -0.707083 0.000000 0.000000 1.000000 0.000000 0.000000 1.000000 0.000000 0.707083 0.707083 0.000000 0.707083 0.707083 0.000000 -0.707083 -0.707083 0.000000 -0.707083 -0.707083 0.000000 -0.707083 0.707083 0.000000 -0.707083 0.707083 0.000000 0.000000 1.000000 0.000000 0.000000 1.000000 0.000000 0.000000 1.000000 0.000000 0.000000 1.000000 0.000000 0.000000 0.707083 -0.707083 0.000000 1.000000 0.000000 0.000000 1.000000 0.000000 0.000000 0.707083 -0.707083 0.000000 -0.707083 -0.707083 0.000000 -1.000000 0.000000 0.000000 -1.000000 0.000000 0.000000 -0.707083 -0.707083 0.000000 0.707083 0.707083 0.000000 0.707083 0.707083 0.000000 -0.707083 0.707083 0.000000 -0.707083 0.707083 0.000000 0.707083 -0.707083 0.000000 -0.707083 -0.707083 0.000000 -0.707083 -0.707083 0.000000 -1.000000 0.000000 0.000000 -0.707083 0.707083 0.000000 -1.000000 0.000000 0.000000 1.000000 0.000000 0.000000 0.707083 0.707083 0.000000 0.707083 0.707083 0.000000 1.000000 0.000000 0.000000 1.000000 0.000000 0.000000 1.000000 0.000000 0.000000 1.000000 0.000000 0.000000 1.000000 0.000000 0.000000 -1.000000 0.000000 0.000000 -1.000000 0.000000 0.000000 -1.000000 0.000000 0.000000 -1.000000 0.000000 0.000000 -1.000000 0.000000 0.000000 -1.000000 0.000000 -0.707083 -0.707083 0.000000 -0.707083 -0.707083 0.000000 0.707083 0.707083 0.000000 0.707083 0.707083 0.000000 0.707083 -0.707083 0.000000 0.707083 -0.707083 0.000000 0.000000 1.000000 0.000000 0.000000 1.000000 0.000000 0.707083 0.707083 0.000000 0.707083 0.707083 0.000000 -0.707083 -0.707083 0.000000 -0.707083 -0.707083 0.000000 -0.707083 0.707083 0.000000 -0.707083 0.707083 0.000000 0.000000 1.000000 0.000000 0.000000 1.000000 0.000000 0.000000 1.000000 0.000000 0.000000 1.000000 0.000000 0.707083 -0.707083 0.000000 0.707083 -0.707083 0.000000 0.000000 -1.000000 0.000000 0.000000 -1.000000 0.000000 0.707083 -0.707083 0.000000 0.577349 -0.577349 0.577349 0.000000 -0.707083 0.707083 0.000000 -1.000000 0.000000 0.577349 0.577349 0.577349 0.577349 -0.577349 0.577349 0.577349 -0.577349 -0.577349 0.707083 -0.707083 0.000000 0.000000 -1.000000 0.000000 0.707083 -0.707083 0.000000 0.707083 -0.707083 0.000000 0.000000 -1.000000 0.000000 0.000000 -1.000000 0.000000 0.000000 1.000000 0.000000 0.000000 1.000000 0.000000 0.000000 1.000000 0.000000 0.000000 1.000000 0.000000 0.000000 0.707083 -0.707083 0.000000 1.000000 0.000000 0.000000 1.000000 0.000000 0.000000 0.707083 -0.707083 0.000000 0.707083 -0.707083 0.000000 -0.707083 -0.707083 0.000000 -0.707083 -0.707083 0.000000 1.000000 0.000000 0.000000 0.707083 0.707083 0.000000 0.707083 0.707083 0.000000 1.000000 0.000000 -0.707083 0.707083 0.000000 -0.707083 0.707083 0.000000 0.000000 1.000000 0.000000 0.000000 1.000000 0.000000 -0.707083 0.707083 0.000000 0.000000 0.707083 0.707083 0.000000 1.000000 0.000000 -0.577349 0.577349 -0.577349 0.000000 0.707083 -0.707083 0.000000 -0.707083 -0.707083 -0.707083 0.707083 0.000000 0.000000 1.000000 0.000000 0.000000 0.707083 -0.707083 -0.707083 0.707083 0.000000 -0.707083 0.707083 0.000000 0.000000 1.000000 0.000000 0.000000 1.000000 0.000000 0.000000 -0.707083 -0.707083 0.000000 -1.000000 0.000000 0.000000 -1.000000 0.000000 0.000000 -0.707083 -0.707083 0.000000 0.707083 0.707083 0.000000 0.707083 0.707083 0.000000 -0.707083 0.707083 0.000000 -0.707083 0.707083 0.000000 -1.000000 0.000000 0.000000 -0.707083 0.707083 0.000000 -1.000000 0.000000 0.000000 1.000000 0.000000 0.000000 0.707083 0.707083 0.000000 1.000000 0.000000 0.000000 0.707083 -0.707083 0.000000 0.707083 -0.707083 0.000000 -0.707083 -0.707083 0.000000 1.000000 0.000000 0.000000 1.000000 0.000000 0.000000 0.707083 -0.707083 0.000000 1.000000 0.000000 0.000000 1.000000 0.000000 0.000000 1.000000 0.000000 0.000000 1.000000 0.000000 0.000000 1.000000 0.000000 0.000000 1.000000 0.000000 0.000000 1.000000 0.000000 0.000000 1.000000 0.000000 0.000000 -1.000000 0.000000 0.000000 -0.707083 0.707083 0.000000 -0.707083 0.707083 0.000000 -1.000000 0.000000 0.000000 0.707083 0.707083 0.000000 -0.707083 0.707083 0.000000 -0.707083 -0.707083 0.000000 -1.000000 0.000000 0.000000 -1.000000 0.000000 0.000000 -1.000000 0.000000 0.000000 -0.707083 0.707083 0.000000 -0.707083 0.707083 0.000000 -1.000000 0.000000 0.000000 0.707083 0.707083 0.000000 -0.707083 0.707083 0.000000 -0.707083 -0.707083 0.000000 -1.000000 0.000000 0.000000 -1.000000 0.000000 0.000000 -1.000000 0.000000 0.000000 -1.000000 0.000000 0.000000 -1.000000 0.000000 0.000000 -1.000000 0.000000 0.000000 1.000000 0.000000 0.000000 1.000000 0.000000 0.000000 1.000000 0.000000 0.000000 1.000000 0.000000 0.000000 1.000000 0.000000 0.000000 0.707083 0.707083 0.000000 1.000000 0.000000 0.000000 0.707083 -0.707083 0.000000 0.707083 -0.707083 0.000000 -0.707083 -0.707083 0.000000 1.000000 0.000000 0.000000 1.000000 0.000000 0.000000 0.707083 -0.707083 0.000000 1.000000 0.000000 0.000000 1.000000 0.000000 0.000000 1.000000 0.000000 0.000000 1.000000 0.000000 " />
							<TextureCoordinate point="0.0537 0.5530 0.9463 0.5530 0.9463 0.9431 0.0537 0.9431 0.0537 0.5530 0.9463 0.5530 0.9463 0.9431 0.0537 0.9431 0.0537 0.5530 0.9463 0.5530 0.9463 0.9431 0.0537 0.9431 0.0537 0.5530 0.9463 0.5530 0.9463 0.9431 0.0537 0.9431 0.0537 0.5530 0.9463 0.5530 0.9463 0.9431 0.0537 0.9431 0.0537 0.5530 0.9463 0.5530 0.0537 0.9431 0.0537 0.5530 0.9463 0.5530 0.9463 0.9431 0.0537 0.9431 0.0537 0.5530 0.9463 0.5530 0.9463 0.9431 0.0537 0.9431 0.9463 0.5530 0.9463 0.9431 0.0537 0.9431 0.0537 0.5530 0.9463 0.5530 0.9463 0.9431 0.0537 0.9431 0.0537 0.5530 0.9463 0.5530 0.9463 0.9431 0.0537 0.9431 0.0537 0.5530 0.9463 0.5530 0.9463 0.9431 0.0537 0.9431 0.0537 0.5530 0.9463 0.5530 0.9463 0.9431 0.0537 0.9431 0.0537 0.5530 0.9463 0.5530 0.9463 0.9431 0.0537 0.9431 0.0537 0.5530 0.9463 0.5530 0.9463 0.9431 0.0537 0.9431 0.0537 0.5530 0.9463 0.5530 0.9463 0.9431 0.0537 0.9431 0.0537 0.5530 0.9463 0.5530 0.9463 0.9431 0.0537 0.9431 0.0537 0.5530 0.9463 0.5530 0.9463 0.9431 0.0537 0.9431 0.9463 0.5530 0.9463 0.9431 0.0537 0.9431 0.0537 0.5530 0.9463 0.5530 0.0537 0.9431 0.0537 0.5530 0.9463 0.5530 0.9463 0.9431 0.0537 0.9431 0.0537 0.5530 0.9463 0.5530 0.9463 0.9431 0.0537 0.9431 0.0537 0.5530 0.9463 0.5530 0.9463 0.9431 0.0537 0.9431 0.0537 0.5530 0.9463 0.5530 0.9463 0.9431 0.0537 0.9431 0.0537 0.5530 0.9463 0.5530 0.9463 0.9431 0.0537 0.9431 0.0537 0.5530 0.9463 0.5530 0.9463 0.9431 0.0537 0.9431 0.0537 0.5530 0.9463 0.5530 0.9463 0.9431 0.0537 0.9431 0.0537 0.5530 0.9463 0.5530 0.9463 0.9431 0.0537 0.9431 0.0537 0.5530 0.9463 0.5530 0.9463 0.9431 0.0537 0.9431 0.0537 0.5530 0.9463 0.5530 0.9463 0.9431 0.0537 0.9431 0.0537 0.5530 0.0537 0.9431 0.0537 0.5530 0.9463 0.5530 0.9463 0.9431 0.0537 0.5530 0.9463 0.5530 0.9463 0.9431 0.0537 0.9431 0.0537 0.5530 0.9463 0.5530 0.9463 0.9431 0.0537 0.9431 0.0537 0.5530 0.9463 0.5530 0.9463 0.9431 0.0537 0.9431 0.9463 0.5530 0.9463 0.9431 0.0537 0.9431 0.0537 0.5530 0.9463 0.5530 0.9463 0.9431 0.0537 0.9431 0.0537 0.5530 0.9463 0.5530 0.9463 0.9431 0.0537 0.9431 0.0537 0.5530 0.9463 0.9431 0.0537 0.9431 0.0537 0.5530 0.9463 0.5530 0.9463 0.9431 0.9463 0.5530 0.9463 0.9431 0.0537 0.9431 0.0537 0.5530 0.9463 0.5530 0.9463 0.9431 0.0537 0.9431 0.0537 0.5530 0.9463 0.5530 0.9463 0.9431 0.0537 0.9431 0.0537 0.5530 0.9463 0.5530 0.9463 0.9431 0.0537 0.9431 0.0537 0.5530 0.9463 0.5530 0.0537 0.9431 0.0537 0.5530 0.9463 0.9431 0.0537 0.9431 0.0537 0.5530 0.9463 0.5530 0.9463 0.9431 0.9463 0.5530 0.9463 0.9431 0.0537 0.9431 0.0537 0.5530 0.9463 0.5530 0.9463 0.9431 0.0537 0.9431 0.0537 0.5530 0.9463 0.5530 0.9463 0.9431 0.0537 0.9431 0.0537 0.5530 0.9463 0.5530 0.9463 0.9431 0.0537 0.9431 0.0537 0.5530 0.0537 0.9431 0.0537 0.5530 0.9463 0.5530 0.9463 0.9431 0.0537 0.5530 0.9463 0.5530 0.9463 0.9431 0.0537 0.9431 0.0537 0.5530 0.0537 0.9431 0.0537 0.5530 0.9463 0.5530 0.9463 0.9431 0.0537 0.5530 0.9463 0.5530 0.9463 0.9431 0.0537 0.9431 0.0537 0.5530 0.9463 0.5530 0.9463 0.9431 0.0537 0.9431 0.0537 0.5530 0.9463 0.9431 0.0537 0.9431 0.0537 0.5530 0.9463 0.5530 0.9463 0.9431 0.9463 0.5530 0.9463 0.9431 0.0537 0.9431 0.0537 0.5530 0.9463 0.5530 0.9463 0.9431 0.0537 0.9431 " />
						</IndexedTriangleSet>
					</Shape>
					<Shape>
						<Appearance>
							<Material DEF="MA_Face"
							          diffuseColor="0.800 0.800 0.800"
							          specularColor="0.401 0.401 0.401"
							          emissiveColor="0.000 0.000 0.000"
							          ambientIntensity="0.000"
							          shininess="0.500"
							          transparency="0.0"
							          />
						</Appearance>
						<IndexedTriangleSet solid="false"
						                    normalPerVertex="true"
						                    index="0 1 2 0 2 3 4 5 6 4 6 7 8 9 10 8 10 11 12 13 14 12 14 15 16 17 1 16 1 0 3 2 9 3 9 8 "
						                    >
							<Coordinate point="0.483313 -1.553912 0.982489 0.483313 -1.553912 1.523336 0.000000 -1.553912 1.523336 0.000000 -1.553912 0.982489 -0.483313 -1.553912 1.523336 -0.483313 -1.553912 1.905859 -0.846289 -1.553912 1.905859 -0.846289 -1.553912 1.523336 -0.483313 -1.553912 0.982489 -0.483313 -1.553912 1.523336 -0.846289 -1.553912 1.523336 -0.846289 -1.553912 0.982489 0.846289 -1.553912 1.523336 0.846289 -1.553912 1.905859 0.483313 -1.553912 1.905859 0.483313 -1.553912 1.523336 0.846289 -1.553912 0.982489 0.846289 -1.553912 1.523336 " />
							<Normal vector="0.000000 -1.000000 0.000000 0.000000 -1.000000 0.000000 0.000000 -1.000000 0.000000 0.000000 -1.000000 0.000000 0.000000 -1.000000 0.000000 0.000000 -1.000000 0.000000 0.000000 -1.000000 0.000000 0.000000 -1.000000 0.000000 0.000000 -1.000000 0.000000 0.000000 -1.000000 0.000000 0.000000 -1.000000 0.000000 0.000000 -1.000000 0.000000 0.000000 -1.000000 0.000000 0.000000 -1.000000 0.000000 0.000000 -1.000000 0.000000 0.000000 -1.000000 0.000000 0.000000 -1.000000 0.000000 0.000000 -1.000000 0.000000 " />
							<TextureCoordinate point="0.7124 0.5334 0.7124 0.9666 0.9828 0.9666 0.9828 0.5334 0.4649 0.5204 0.4649 0.9796 0.0429 0.9796 0.0429 0.5204 0.7124 0.5334 0.7124 0.9666 0.5094 0.9666 0.5094 0.5334 0.0429 0.5204 0.0429 0.9796 0.4649 0.9796 0.4649 0.5204 0.5094 0.5334 0.5094 0.9666 " />
						</IndexedTriangleSet>
					</Shape>
				</Group>
			</Transform>
			<Transform DEF="tail_TRANSFORM"
			           translation="0.000000 1.359709 0.558153"
			           scale="1.000000 1.000000 1.000000"
			           rotation="0.000000 1.000000 0.000000 0.000000"
			           >
				<Transform DEF="tail_ifs_TRANSFORM"
				           translation="0.000000 0.000000 0.000000"
				           scale="1.000000 1.000000 1.000000"
				           rotation="0.000000 1.000000 0.000000 0.000000"
				           >
					<Group DEF="group_ME_tail">
						<Shape>
							<Appearance>
								<Material USE="MA_Body" />
							</Appearance>
							<IndexedTriangleSet solid="false"
							                    normalPerVertex="true"
							                    index="0 1 2 0 2 3 4 5 6 4 6 7 8 9 10 8 10 11 12 13 14 12 14 15 4 16 17 4 17 15 18 5 14 18 14 19 "
							                    >
								<Coordinate point="-0.245322 -0.101004 -0.203499 -0.245322 0.101004 0.203499 -0.245322 0.703491 -0.095538 -0.245322 0.501484 -0.502535 -0.245322 0.501484 -0.502535 -0.245322 0.703491 -0.095538 0.245322 0.703491 -0.095538 0.245322 0.501484 -0.502535 0.245322 0.501484 -0.502535 0.245322 0.703491 -0.095538 0.245322 0.101004 0.203499 0.245322 -0.101004 -0.203499 0.245322 -0.101004 -0.203499 0.245322 0.101004 0.203499 -0.245322 0.101004 0.203499 -0.245322 -0.101004 -0.203499 0.245322 0.501484 -0.502535 0.245322 -0.101004 -0.203499 0.245322 0.703491 -0.095538 0.245322 0.101004 0.203499 " />
								<Normal vector="-0.577349 -0.773827 -0.260445 -0.577349 -0.260445 0.773827 -0.577349 0.773827 0.260445 -0.577349 0.260445 -0.773827 -0.577349 0.260445 -0.773827 -0.577349 0.773827 0.260445 0.577349 0.773827 0.260445 0.577349 0.260445 -0.773827 0.577349 0.260445 -0.773827 0.577349 0.773827 0.260445 0.577349 -0.260445 0.773827 0.577349 -0.773827 -0.260445 0.577349 -0.773827 -0.260445 0.577349 -0.260445 0.773827 -0.577349 -0.260445 0.773827 -0.577349 -0.773827 -0.260445 0.577349 0.260445 -0.773827 0.577349 -0.773827 -0.260445 0.577349 0.773827 0.260445 0.577349 -0.260445 0.773827 " />
								<TextureCoordinate point="0.0537 0.5530 0.9463 0.5530 0.9463 0.9431 0.0537 0.9431 0.0537 0.5530 0.9463 0.5530 0.9463 0.9431 0.0537 0.9431 0.0537 0.5530 0.9463 0.5530 0.9463 0.9431 0.0537 0.9431 0.0537 0.5530 0.9463 0.5530 0.9463 0.9431 0.0537 0.9431 0.9463 0.5530 0.9463 0.9431 0.0537 0.5530 0.0537 0.9431 " />
							</IndexedTriangleSet>
						</Shape>
					</Group>
				</Transform>
			</Transform>
			<Transform DEF="orl1_TRANSFORM"
			           translation="0.680529 0.280512 2.021039"
			           scale="1.000000 1.000000 1.000000"
			           rotation="0.000000 1.000000 0.000000 0.000000"
			           >
				<Transform DEF="orl1_ifs_TRANSFORM"
				           translation="0.000000 0.000000 0.000000"
				           scale="1.000000 1.000000 1.000000"
				           rotation="0.000000 1.000000 0.000000 0.000000"
				           >
					<Group DEF="group_ME_orl1">
						<Shape>
							<Appearance>
								<Material USE="MA_Body" />
							</Appearance>
							<IndexedTriangleSet solid="false"
							                    normalPerVertex="true"
							                    index="0 1 2 0 2 3 4 5 6 4 6 7 8 9 10 8 10 11 12 13 14 12 14 15 4 16 17 4 17 15 18 5 14 18 14 19 "
							                    >
								<Coordinate point="0.037798 -0.898607 -0.206795 0.037798 -0.885716 0.256449 -0.037798 0.898607 0.206795 -0.037798 0.885716 -0.256449 -0.037798 0.885716 -0.256449 -0.037798 0.898607 0.206795 1.226350 0.952124 0.205306 1.226350 0.939233 -0.257938 1.226350 0.939233 -0.257938 1.226350 0.952124 0.205306 1.301947 -0.832199 0.254959 1.301947 -0.845090 -0.208284 1.301947 -0.845090 -0.208284 1.301947 -0.832199 0.254959 0.037798 -0.885716 0.256449 0.037798 -0.898607 -0.206795 1.226350 0.939233 -0.257938 1.301947 -0.845090 -0.208284 1.226350 0.952124 0.205306 1.301947 -0.832199 0.254959 " />
								<Normal vector="-0.552385 -0.617084 -0.560381 -0.552385 -0.584948 0.593829 -0.601245 0.568224 0.561754 -0.601245 0.536119 -0.592486 -0.601245 0.536119 -0.592486 -0.601245 0.568224 0.561754 0.552385 0.617084 0.560381 0.552385 0.584948 -0.593829 0.552385 0.584948 -0.593829 0.552385 0.617084 0.560381 0.601245 -0.536119 0.592486 0.601245 -0.568224 -0.561754 0.601245 -0.568224 -0.561754 0.601245 -0.536119 0.592486 -0.552385 -0.584948 0.593829 -0.552385 -0.617084 -0.560381 0.552385 0.584948 -0.593829 0.601245 -0.568224 -0.561754 0.552385 0.617084 0.560381 0.601245 -0.536119 0.592486 " />
								<TextureCoordinate point="0.0537 0.5530 0.9463 0.5530 0.9463 0.9431 0.0537 0.9431 0.0537 0.5530 0.9463 0.5530 0.9463 0.9431 0.0537 0.9431 0.0537 0.5530 0.9463 0.5530 0.9463 0.9431 0.0537 0.9431 0.0537 0.5530 0.9463 0.5530 0.9463 0.9431 0.0537 0.9431 0.9463 0.5530 0.9463 0.9431 0.0537 0.5530 0.0537 0.9431 " />
							</IndexedTriangleSet>
						</Shape>
					</Group>
				</Transform>
				<Transform DEF="Cube_003_TRANSFORM"
				           translation="1.007806 0.104703 -0.002914"
				           scale="1.000000 1.000000 1.000000"
				           rotation="0.000000 1.000000 0.000000 0.000000"
				           >
					<Transform DEF="Cube_003_ifs_TRANSFORM"
					           translation="0.000000 0.000000 0.000000"
					           scale="1.000000 1.000000 1.000000"
					           rotation="0.000000 1.000000 0.000000 0.000000"
					           >
						<Group DEF="group_ME_Cube_004">
							<Shape>
								<Appearance>
									<Material USE="MA_Body" />
								</Appearance>
								<IndexedTriangleSet solid="false"
								                    normalPerVertex="true"
								                    index="0 1 2 0 2 3 4 5 6 4 6 7 8 9 10 8 10 11 12 13 14 12 14 15 4 16 17 4 17 15 18 5 14 18 14 19 "
								                    >
									<Coordinate point="0.091184 -1.026980 -0.242177 0.091184 -1.011923 0.298915 -0.091184 1.026980 0.242177 -0.091184 1.011923 -0.298915 -0.091184 1.011923 -0.298915 -0.091184 1.026980 0.242177 1.080535 1.131702 0.239263 1.080535 1.116645 -0.301829 1.080535 1.116645 -0.301829 1.080535 1.131702 0.239263 1.262902 -0.907200 0.296001 1.262902 -0.922258 -0.245091 1.262902 -0.922258 -0.245091 1.262902 -0.907200 0.296001 0.091184 -1.011923 0.298915 0.091184 -1.026980 -0.242177 1.080535 1.116645 -0.301829 1.262902 -0.922258 -0.245091 1.080535 1.131702 0.239263 1.262902 -0.907200 0.296001 " />
									<Normal vector="-0.523637 -0.642262 -0.559679 -0.523637 -0.610157 0.594531 -0.626453 0.539476 0.562548 -0.626453 0.507370 -0.591693 -0.626453 0.507370 -0.591693 -0.626453 0.539476 0.562548 0.523637 0.642262 0.559679 0.523637 0.610157 -0.594531 0.523637 0.610157 -0.594531 0.523637 0.642262 0.559679 0.626453 -0.507370 0.591693 0.626453 -0.539476 -0.562548 0.626453 -0.539476 -0.562548 0.626453 -0.507370 0.591693 -0.523637 -0.610157 0.594531 -0.523637 -0.642262 -0.559679 0.523637 0.610157 -0.594531 0.626453 -0.539476 -0.562548 0.523637 0.642262 0.559679 0.626453 -0.507370 0.591693 " />
									<TextureCoordinate point="0.0537 0.5530 0.9463 0.5530 0.9463 0.9431 0.0537 0.9431 0.0537 0.5530 0.9463 0.5530 0.9463 0.9431 0.0537 0.9431 0.0537 0.5530 0.9463 0.5530 0.9463 0.9431 0.0537 0.9431 0.0537 0.5530 0.9463 0.5530 0.9463 0.9431 0.0537 0.9431 0.9463 0.5530 0.9463 0.9431 0.0537 0.5530 0.0537 0.9431 " />
								</IndexedTriangleSet>
							</Shape>
						</Group>
					</Transform>
				</Transform>
			</Transform>
			<Transform DEF="flower_TRANSFORM"
			           translation="0.000000 0.069918 2.228157"
			           scale="1.000000 1.000000 1.000000"
			           rotation="0.000000 1.000000 0.000000 0.000000"
			           >
				<Transform DEF="flower_ifs_TRANSFORM"
				           translation="0.000000 0.000000 0.000000"
				           scale="1.000000 1.000000 1.000000"
				           rotation="0.000000 1.000000 0.000000 0.000000"
				           >
					<Group DEF="group_ME_flower">
						<Shape>
							<Appearance>
								<Material USE="MA_Body" />
							</Appearance>
							<IndexedTriangleSet solid="false"
							                    normalPerVertex="true"
							                    index="0 1 2 0 2 3 4 5 6 4 6 7 8 9 10 8 10 11 12 13 14 12 14 15 4 16 17 4 17 15 18 5 14 18 14 19 "
							                    >
								<Coordinate point="-0.428164 -0.428156 -0.002721 -0.428164 -0.430056 0.296342 -0.428164 0.426255 0.301783 -0.428164 0.428156 0.002721 -0.428164 0.428156 0.002721 -0.428164 0.426255 0.301783 0.428164 0.426255 0.301783 0.428164 0.428156 0.002721 0.428164 0.428156 0.002721 0.428164 0.426255 0.301783 0.428164 -0.430056 0.296342 0.428164 -0.428156 -0.002721 0.428164 -0.428156 -0.002721 0.428164 -0.430056 0.296342 -0.428164 -0.430056 0.296342 -0.428164 -0.428156 -0.002721 0.428164 0.428156 0.002721 0.428164 -0.428156 -0.002721 0.428164 0.426255 0.301783 0.428164 -0.430056 0.296342 " />
								<Normal vector="-0.577349 -0.573656 -0.580981 -0.577349 -0.580981 0.573656 -0.577349 0.573656 0.580981 -0.577349 0.580981 -0.573656 -0.577349 0.580981 -0.573656 -0.577349 0.573656 0.580981 0.577349 0.573656 0.580981 0.577349 0.580981 -0.573656 0.577349 0.580981 -0.573656 0.577349 0.573656 0.580981 0.577349 -0.580981 0.573656 0.577349 -0.573656 -0.580981 0.577349 -0.573656 -0.580981 0.577349 -0.580981 0.573656 -0.577349 -0.580981 0.573656 -0.577349 -0.573656 -0.580981 0.577349 0.580981 -0.573656 0.577349 -0.573656 -0.580981 0.577349 0.573656 0.580981 0.577349 -0.580981 0.573656 " />
								<TextureCoordinate point="0.5051 0.0520 0.9512 0.0520 0.9512 0.4421 0.5051 0.4421 0.5051 0.0520 0.9512 0.0520 0.9512 0.4421 0.5051 0.4421 0.5051 0.0520 0.9512 0.0520 0.9512 0.4421 0.5051 0.4421 0.5051 0.0520 0.9512 0.0520 0.9512 0.4421 0.5051 0.4421 0.9512 0.0520 0.9512 0.4421 0.5051 0.0520 0.5051 0.4421 " />
							</IndexedTriangleSet>
						</Shape>
					</Group>
				</Transform>
				<Transform DEF="Cube_005_TRANSFORM"
				           translation="0.000000 -0.069918 0.078285"
				           scale="1.000000 1.000000 1.000000"
				           rotation="0.000000 1.000000 0.000000 0.000000"
				           >
					<Transform DEF="Cube_005_ifs_TRANSFORM"
					           translation="0.000000 0.000000 0.000000"
					           scale="1.000000 1.000000 1.000000"
					           rotation="0.000000 1.000000 0.000000 0.000000"
					           >
						<Group DEF="group_ME_Cube_006">
							<Shape>
								<Appearance>
									<Material USE="MA_Body" />
								</Appearance>
								<IndexedTriangleSet solid="false"
								                    normalPerVertex="true"
								                    index="0 1 2 0 2 3 4 5 6 4 6 7 8 9 10 8 10 11 12 13 14 12 14 15 4 16 17 4 17 15 18 5 14 18 14 19 "
								                    >
									<Coordinate point="-0.543332 -1.647823 0.253641 -0.543332 -1.616493 0.408171 -0.543332 0.015665 0.077265 -0.543332 -0.015665 -0.077265 -0.543332 -0.015665 -0.077265 -0.543332 0.015665 0.077265 0.543332 0.015665 0.077265 0.543332 -0.015665 -0.077265 0.543332 -0.015665 -0.077265 0.543332 0.015665 0.077265 0.543332 -1.616493 0.408171 0.543332 -1.647823 0.253641 0.543332 -1.647823 0.253641 0.543332 -1.616493 0.408171 -0.543332 -1.616493 0.408171 -0.543332 -1.647823 0.253641 0.543332 -0.015665 -0.077265 0.543332 -1.647823 0.253641 0.543332 0.015665 0.077265 0.543332 -1.616493 0.408171 " />
									<Normal vector="-0.577349 -0.680532 -0.451094 -0.577349 -0.451094 0.680532 -0.577349 0.680532 0.451094 -0.577349 0.451094 -0.680532 -0.577349 0.451094 -0.680532 -0.577349 0.680532 0.451094 0.577349 0.680532 0.451094 0.577349 0.451094 -0.680532 0.577349 0.451094 -0.680532 0.577349 0.680532 0.451094 0.577349 -0.451094 0.680532 0.577349 -0.680532 -0.451094 0.577349 -0.680532 -0.451094 0.577349 -0.451094 0.680532 -0.577349 -0.451094 0.680532 -0.577349 -0.680532 -0.451094 0.577349 0.451094 -0.680532 0.577349 -0.680532 -0.451094 0.577349 0.680532 0.451094 0.577349 -0.451094 0.680532 " />
									<TextureCoordinate point="0.0426 0.0298 0.4117 0.0298 0.4117 0.4741 0.0426 0.4741 0.0426 0.0298 0.4117 0.0298 0.4117 0.4741 0.0426 0.4741 0.0426 0.0298 0.4117 0.0298 0.4117 0.4741 0.0426 0.4741 0.0426 0.0298 0.4117 0.0298 0.4117 0.4741 0.0426 0.4741 0.4117 0.0298 0.4117 0.4741 0.0426 0.0298 0.0426 0.4741 " />
								</IndexedTriangleSet>
							</Shape>
						</Group>
					</Transform>
				</Transform>
				<Transform DEF="Cube_006_TRANSFORM"
				           translation="0.071675 -0.132092 0.097522"
				           scale="1.000000 1.000000 1.000000"
				           rotation="0.000000 1.000000 0.000000 0.000000"
				           >
					<Transform DEF="Cube_006_ifs_TRANSFORM"
					           translation="0.000000 0.000000 0.000000"
					           scale="1.000000 1.000000 1.000000"
					           rotation="0.000000 1.000000 0.000000 0.000000"
					           >
						<Group DEF="group_ME_Cube_007">
							<Shape>
								<Appearance>
									<Material USE="MA_Body" />
								</Appearance>
								<IndexedTriangleSet solid="false"
								                    normalPerVertex="true"
								                    index="0 1 2 0 2 3 4 5 6 4 6 7 8 9 10 8 10 11 12 13 14 12 14 15 4 16 17 4 17 15 18 5 14 18 14 19 "
								                    >
									<Coordinate point="0.752175 -1.466556 0.242337 0.724816 -1.446664 0.396339 -0.386450 -0.385049 0.061798 -0.359091 -0.404941 -0.092204 -0.359091 -0.404941 -0.092204 -0.386450 -0.385049 0.061798 0.359091 0.404941 0.092204 0.386450 0.385049 -0.061798 0.386450 0.385049 -0.061798 0.359091 0.404941 0.092204 1.470357 -0.656674 0.426745 1.497715 -0.676566 0.272743 1.497715 -0.676566 0.272743 1.470357 -0.656674 0.426745 0.724816 -1.446664 0.396339 0.752175 -1.466556 0.242337 0.386450 0.385049 -0.061798 1.497715 -0.676566 0.272743 0.359091 0.404941 0.092204 1.470357 -0.656674 0.426745 " />
									<Normal vector="0.111972 -0.882229 -0.457259 -0.088351 -0.736564 0.670553 -0.904202 0.042787 0.424940 -0.703818 -0.102847 -0.702841 -0.703818 -0.102847 -0.702841 -0.904202 0.042787 0.424940 -0.111972 0.882229 0.457259 0.088351 0.736564 -0.670553 0.088351 0.736564 -0.670553 -0.111972 0.882229 0.457259 0.703818 0.102847 0.702841 0.904202 -0.042787 -0.424940 0.904202 -0.042787 -0.424940 0.703818 0.102847 0.702841 -0.088351 -0.736564 0.670553 0.111972 -0.882229 -0.457259 0.088351 0.736564 -0.670553 0.904202 -0.042787 -0.424940 -0.111972 0.882229 0.457259 0.703818 0.102847 0.702841 " />
									<TextureCoordinate point="0.0426 0.0298 0.4117 0.0298 0.4117 0.4741 0.0426 0.4741 0.0426 0.0298 0.4117 0.0298 0.4117 0.4741 0.0426 0.4741 0.0426 0.0298 0.4117 0.0298 0.4117 0.4741 0.0426 0.4741 0.0426 0.0298 0.4117 0.0298 0.4117 0.4741 0.0426 0.4741 0.4117 0.0298 0.4117 0.4741 0.0426 0.0298 0.0426 0.4741 " />
								</IndexedTriangleSet>
							</Shape>
						</Group>
					</Transform>
				</Transform>
				<Transform DEF="Cube_007_TRANSFORM"
				           translation="0.017669 -0.014223 0.000334"
				           scale="1.000000 1.000000 1.000000"
				           rotation="0.000000 1.000000 0.000000 0.000000"
				           >
					<Transform DEF="Cube_007_ifs_TRANSFORM"
					           translation="0.000000 0.000000 0.000000"
					           scale="1.000000 1.000000 1.000000"
					           rotation="0.000000 1.000000 0.000000 0.000000"
					           >
						<Group DEF="group_ME_Cube_008">
							<Shape>
								<Appearance>
									<Material USE="MA_Body" />
								</Appearance>
								<IndexedTriangleSet solid="false"
								                    normalPerVertex="true"
								                    index="0 1 2 0 2 3 4 5 6 4 6 7 8 9 10 8 10 11 12 13 14 12 14 15 4 16 17 4 17 15 18 5 14 18 14 19 "
								                    >
									<Coordinate point="1.716983 -0.538644 0.439253 1.668645 -0.547475 0.589074 -0.014996 -0.546895 0.045896 0.033343 -0.538064 -0.103924 0.033343 -0.538064 -0.103924 -0.014996 -0.546895 0.045896 -0.033343 0.538064 0.103924 0.014996 0.546895 -0.045896 0.014996 0.546895 -0.045896 -0.033343 0.538064 0.103924 1.650298 0.537484 0.647102 1.698636 0.546315 0.497281 1.698636 0.546315 0.497281 1.650298 0.537484 0.647102 1.668645 -0.547475 0.589074 1.716983 -0.538644 0.439253 0.014996 0.546895 -0.045896 1.698636 0.546315 0.497281 -0.033343 0.538064 0.103924 1.650298 0.537484 0.647102 " />
									<Normal vector="0.736198 -0.544298 -0.402142 0.382183 -0.608966 0.695029 -0.716697 -0.608570 0.340495 -0.362712 -0.543901 -0.756676 -0.362712 -0.543901 -0.756676 -0.716697 -0.608570 0.340495 -0.736198 0.544298 0.402142 -0.382183 0.608966 -0.695029 -0.382183 0.608966 -0.695029 -0.736198 0.544298 0.402142 0.362712 0.543901 0.756676 0.716697 0.608570 -0.340495 0.716697 0.608570 -0.340495 0.362712 0.543901 0.756676 0.382183 -0.608966 0.695029 0.736198 -0.544298 -0.402142 -0.382183 0.608966 -0.695029 0.716697 0.608570 -0.340495 -0.736198 0.544298 0.402142 0.362712 0.543901 0.756676 " />
									<TextureCoordinate point="0.0426 0.0298 0.4117 0.0298 0.4117 0.4741 0.0426 0.4741 0.0426 0.0298 0.4117 0.0298 0.4117 0.4741 0.0426 0.4741 0.0426 0.0298 0.4117 0.0298 0.4117 0.4741 0.0426 0.4741 0.0426 0.0298 0.4117 0.0298 0.4117 0.4741 0.0426 0.4741 0.4117 0.0298 0.4117 0.4741 0.0426 0.0298 0.0426 0.4741 " />
								</IndexedTriangleSet>
							</Shape>
						</Group>
					</Transform>
				</Transform>
				<Transform DEF="Cube_008_TRANSFORM"
				           translation="-0.071675 -0.132092 0.097522"
				           scale="1.000000 1.000000 1.000000"
				           rotation="0.000000 1.000000 0.000000 0.000000"
				           >
					<Transform DEF="Cube_008_ifs_TRANSFORM"
					           translation="0.000000 0.000000 0.000000"
					           scale="1.000000 1.000000 1.000000"
					           rotation="0.000000 1.000000 0.000000 0.000000"
					           >
						<Group DEF="group_ME_Cube_009">
							<Shape>
								<Appearance>
									<Material USE="MA_Body" />
								</Appearance>
								<IndexedTriangleSet solid="false"
								                    normalPerVertex="true"
								                    index="0 1 2 0 2 3 4 5 6 4 6 7 8 9 10 8 10 11 12 13 14 12 14 15 4 13 16 4 16 17 18 19 14 18 14 7 "
								                    >
									<Coordinate point="-0.752175 -1.466556 0.242337 0.359091 -0.404941 -0.092204 0.386450 -0.385049 0.061798 -0.724816 -1.446664 0.396339 0.359091 -0.404941 -0.092204 -0.386450 0.385049 -0.061798 -0.359091 0.404941 0.092204 0.386450 -0.385049 0.061798 -0.386450 0.385049 -0.061798 -1.497715 -0.676566 0.272743 -1.470357 -0.656674 0.426745 -0.359091 0.404941 0.092204 -1.497715 -0.676566 0.272743 -0.752175 -1.466556 0.242337 -0.724816 -1.446664 0.396339 -1.470357 -0.656674 0.426745 -1.497715 -0.676566 0.272743 -0.386450 0.385049 -0.061798 -0.359091 0.404941 0.092204 -1.470357 -0.656674 0.426745 " />
									<Normal vector="-0.111972 -0.882229 -0.457259 0.703818 -0.102847 -0.702841 0.904202 0.042787 0.424940 0.088351 -0.736564 0.670553 0.703818 -0.102847 -0.702841 -0.088351 0.736564 -0.670553 0.111972 0.882229 0.457259 0.904202 0.042787 0.424940 -0.088351 0.736564 -0.670553 -0.904202 -0.042787 -0.424940 -0.703818 0.102847 0.702841 0.111972 0.882229 0.457259 -0.904202 -0.042787 -0.424940 -0.111972 -0.882229 -0.457259 0.088351 -0.736564 0.670553 -0.703818 0.102847 0.702841 -0.904202 -0.042787 -0.424940 -0.088351 0.736564 -0.670553 0.111972 0.882229 0.457259 -0.703818 0.102847 0.702841 " />
									<TextureCoordinate point="0.0426 0.0298 0.0426 0.4741 0.4117 0.4741 0.4117 0.0298 0.0426 0.0298 0.0426 0.4741 0.4117 0.4741 0.4117 0.0298 0.0426 0.0298 0.0426 0.4741 0.4117 0.4741 0.4117 0.0298 0.0426 0.0298 0.0426 0.4741 0.4117 0.4741 0.4117 0.0298 0.4117 0.4741 0.4117 0.0298 0.0426 0.0298 0.0426 0.4741 " />
								</IndexedTriangleSet>
							</Shape>
						</Group>
					</Transform>
				</Transform>
				<Transform DEF="Cube_009_TRANSFORM"
				           translation="-0.017669 -0.014223 0.000334"
				           scale="1.000000 1.000000 1.000000"
				           rotation="0.000000 1.000000 0.000000 0.000000"
				           >
					<Transform DEF="Cube_009_ifs_TRANSFORM"
					           translation="0.000000 0.000000 0.000000"
					           scale="1.000000 1.000000 1.000000"
					           rotation="0.000000 1.000000 0.000000 0.000000"
					           >
						<Group DEF="group_ME_Cube_010">
							<Shape>
								<Appearance>
									<Material USE="MA_Body" />
								</Appearance>
								<IndexedTriangleSet solid="false"
								                    normalPerVertex="true"
								                    index="0 1 2 0 2 3 4 5 6 4 6 7 8 9 10 8 10 11 12 13 14 12 14 15 4 13 16 4 16 17 18 19 14 18 14 7 "
								                    >
									<Coordinate point="-1.716983 -0.538644 0.439253 -0.033343 -0.538064 -0.103924 0.014996 -0.546895 0.045896 -1.668645 -0.547475 0.589074 -0.033343 -0.538064 -0.103924 -0.014996 0.546895 -0.045896 0.033343 0.538064 0.103924 0.014996 -0.546895 0.045896 -0.014996 0.546895 -0.045896 -1.698636 0.546315 0.497281 -1.650298 0.537484 0.647102 0.033343 0.538064 0.103924 -1.698636 0.546315 0.497281 -1.716983 -0.538644 0.439253 -1.668645 -0.547475 0.589074 -1.650298 0.537484 0.647102 -1.698636 0.546315 0.497281 -0.014996 0.546895 -0.045896 0.033343 0.538064 0.103924 -1.650298 0.537484 0.647102 " />
									<Normal vector="-0.736198 -0.544298 -0.402142 0.362712 -0.543901 -0.756676 0.716697 -0.608570 0.340495 -0.382183 -0.608966 0.695029 0.362712 -0.543901 -0.756676 0.382183 0.608966 -0.695029 0.736198 0.544298 0.402142 0.716697 -0.608570 0.340495 0.382183 0.608966 -0.695029 -0.716697 0.608570 -0.340495 -0.362712 0.543901 0.756676 0.736198 0.544298 0.402142 -0.716697 0.608570 -0.340495 -0.736198 -0.544298 -0.402142 -0.382183 -0.608966 0.695029 -0.362712 0.543901 0.756676 -0.716697 0.608570 -0.340495 0.382183 0.608966 -0.695029 0.736198 0.544298 0.402142 -0.362712 0.543901 0.756676 " />
									<TextureCoordinate point="0.0426 0.0298 0.0426 0.4741 0.4117 0.4741 0.4117 0.0298 0.0426 0.0298 0.0426 0.4741 0.4117 0.4741 0.4117 0.0298 0.0426 0.0298 0.0426 0.4741 0.4117 0.4741 0.4117 0.0298 0.0426 0.0298 0.0426 0.4741 0.4117 0.4741 0.4117 0.0298 0.4117 0.4741 0.4117 0.0298 0.0426 0.0298 0.0426 0.4741 " />
								</IndexedTriangleSet>
							</Shape>
						</Group>
					</Transform>
				</Transform>
				<Transform DEF="Cube_001_TRANSFORM"
				           translation="0.000000 0.078987 0.072823"
				           scale="1.000000 1.000000 1.000000"
				           rotation="0.000000 1.000000 0.000000 0.000000"
				           >
					<Transform DEF="Cube_001_ifs_TRANSFORM"
					           translation="0.000000 0.000000 0.000000"
					           scale="1.000000 1.000000 1.000000"
					           rotation="0.000000 1.000000 0.000000 0.000000"
					           >
						<Group DEF="group_ME_Cube_001">
							<Shape>
								<Appearance>
									<Material USE="MA_Body" />
								</Appearance>
								<IndexedTriangleSet solid="false"
								                    normalPerVertex="true"
								                    index="0 1 2 0 2 3 4 5 6 4 6 7 8 9 10 8 10 11 12 13 14 12 14 15 4 13 16 4 16 17 18 19 14 18 14 7 "
								                    >
									<Coordinate point="-0.543332 1.598694 0.473109 -0.543332 0.025921 -0.074453 -0.543332 -0.025921 0.074453 -0.543332 1.546851 0.622016 -0.543332 0.025921 -0.074453 0.543332 0.025921 -0.074453 0.543332 -0.025921 0.074453 -0.543332 -0.025921 0.074453 0.543332 0.025921 -0.074453 0.543332 1.598694 0.473109 0.543332 1.546851 0.622016 0.543332 -0.025921 0.074453 0.543332 1.598694 0.473109 -0.543332 1.598694 0.473109 -0.543332 1.546851 0.622016 0.543332 1.546851 0.622016 0.543332 1.598694 0.473109 0.543332 0.025921 -0.074453 0.543332 -0.025921 0.074453 0.543332 1.546851 0.622016 " />
									<Normal vector="-0.577349 0.735069 -0.355419 -0.577349 -0.355419 -0.735069 -0.577349 -0.735069 0.355419 -0.577349 0.355419 0.735069 -0.577349 -0.355419 -0.735069 0.577349 -0.355419 -0.735069 0.577349 -0.735069 0.355419 -0.577349 -0.735069 0.355419 0.577349 -0.355419 -0.735069 0.577349 0.735069 -0.355419 0.577349 0.355419 0.735069 0.577349 -0.735069 0.355419 0.577349 0.735069 -0.355419 -0.577349 0.735069 -0.355419 -0.577349 0.355419 0.735069 0.577349 0.355419 0.735069 0.577349 0.735069 -0.355419 0.577349 -0.355419 -0.735069 0.577349 -0.735069 0.355419 0.577349 0.355419 0.735069 " />
									<TextureCoordinate point="0.0426 0.0298 0.0426 0.4741 0.4117 0.4741 0.4117 0.0298 0.0426 0.0298 0.0426 0.4741 0.4117 0.4741 0.4117 0.0298 0.0426 0.0298 0.0426 0.4741 0.4117 0.4741 0.4117 0.0298 0.0426 0.0298 0.0426 0.4741 0.4117 0.4741 0.4117 0.0298 0.4117 0.4741 0.4117 0.0298 0.0426 0.0298 0.0426 0.4741 " />
								</IndexedTriangleSet>
							</Shape>
						</Group>
					</Transform>
				</Transform>
				<Transform DEF="Cube_002_TRANSFORM"
				           translation="0.071675 0.138006 0.100253"
				           scale="1.000000 1.000000 1.000000"
				           rotation="0.000000 1.000000 0.000000 0.000000"
				           >
					<Transform DEF="Cube_002_ifs_TRANSFORM"
					           translation="0.000000 0.000000 0.000000"
					           scale="1.000000 1.000000 1.000000"
					           rotation="0.000000 1.000000 0.000000 0.000000"
					           >
						<Group DEF="group_ME_Cube_002">
							<Shape>
								<Appearance>
									<Material USE="MA_Body" />
								</Appearance>
								<IndexedTriangleSet solid="false"
								                    normalPerVertex="true"
								                    index="0 1 2 0 2 3 4 5 6 4 6 7 8 9 10 8 10 11 12 13 14 12 14 15 4 13 16 4 16 17 18 19 14 18 14 7 "
								                    >
									<Coordinate point="0.752175 1.420598 0.437511 -0.359091 0.413666 -0.036865 -0.386450 0.373229 0.113058 0.724816 1.380160 0.587435 -0.359091 0.413666 -0.036865 0.386450 -0.373229 -0.113058 0.359091 -0.413666 0.036865 -0.386450 0.373229 0.113058 0.386450 -0.373229 -0.113058 1.497715 0.633703 0.361318 1.470357 0.593265 0.511242 0.359091 -0.413666 0.036865 1.497715 0.633703 0.361318 0.752175 1.420598 0.437511 0.724816 1.380160 0.587435 1.470357 0.593265 0.511242 1.497715 0.633703 0.361318 0.386450 -0.373229 -0.113058 0.359091 -0.413666 0.036865 1.470357 0.593265 0.511242 " />
									<Normal vector="0.111972 0.935759 -0.334361 -0.703818 0.196509 -0.682607 -0.904202 -0.099582 0.415296 -0.088351 0.639607 0.763573 -0.703818 0.196509 -0.682607 0.088351 -0.639607 -0.763573 -0.111972 -0.935759 0.334361 -0.904202 -0.099582 0.415296 0.088351 -0.639607 -0.763573 0.904202 0.099582 -0.415296 0.703818 -0.196509 0.682607 -0.111972 -0.935759 0.334361 0.904202 0.099582 -0.415296 0.111972 0.935759 -0.334361 -0.088351 0.639607 0.763573 0.703818 -0.196509 0.682607 0.904202 0.099582 -0.415296 0.088351 -0.639607 -0.763573 -0.111972 -0.935759 0.334361 0.703818 -0.196509 0.682607 " />
									<TextureCoordinate point="0.0426 0.0298 0.0426 0.4741 0.4117 0.4741 0.4117 0.0298 0.0426 0.0298 0.0426 0.4741 0.4117 0.4741 0.4117 0.0298 0.0426 0.0298 0.0426 0.4741 0.4117 0.4741 0.4117 0.0298 0.0426 0.0298 0.0426 0.4741 0.4117 0.4741 0.4117 0.0298 0.4117 0.4741 0.4117 0.0298 0.0426 0.0298 0.0426 0.4741 " />
								</IndexedTriangleSet>
							</Shape>
						</Group>
					</Transform>
				</Transform>
				<Transform DEF="Cube_004_TRANSFORM"
				           translation="-0.071675 0.138006 0.100253"
				           scale="1.000000 1.000000 1.000000"
				           rotation="0.000000 1.000000 0.000000 0.000000"
				           >
					<Transform DEF="Cube_004_ifs_TRANSFORM"
					           translation="0.000000 0.000000 0.000000"
					           scale="1.000000 1.000000 1.000000"
					           rotation="0.000000 1.000000 0.000000 0.000000"
					           >
						<Group DEF="group_ME_Cube_005">
							<Shape>
								<Appearance>
									<Material USE="MA_Body" />
								</Appearance>
								<IndexedTriangleSet solid="false"
								                    normalPerVertex="true"
								                    index="0 1 2 0 2 3 4 5 6 4 6 7 8 9 10 8 10 11 12 13 14 12 14 15 4 16 17 4 17 15 18 5 14 18 14 19 "
								                    >
									<Coordinate point="-0.752175 1.420598 0.437511 -0.724816 1.380160 0.587435 0.386450 0.373229 0.113059 0.359091 0.413666 -0.036865 0.359091 0.413666 -0.036865 0.386450 0.373229 0.113059 -0.359091 -0.413666 0.036865 -0.386450 -0.373229 -0.113059 -0.386450 -0.373229 -0.113059 -0.359091 -0.413666 0.036865 -1.470357 0.593265 0.511242 -1.497715 0.633703 0.361318 -1.497715 0.633703 0.361318 -1.470357 0.593265 0.511242 -0.724816 1.380160 0.587435 -0.752175 1.420598 0.437511 -0.386450 -0.373229 -0.113059 -1.497715 0.633703 0.361318 -0.359091 -0.413666 0.036865 -1.470357 0.593265 0.511242 " />
									<Normal vector="-0.111972 0.935759 -0.334361 0.088351 0.639607 0.763573 0.904202 -0.099582 0.415296 0.703818 0.196509 -0.682607 0.703818 0.196509 -0.682607 0.904202 -0.099582 0.415296 0.111972 -0.935759 0.334361 -0.088351 -0.639607 -0.763573 -0.088351 -0.639607 -0.763573 0.111972 -0.935759 0.334361 -0.703818 -0.196509 0.682607 -0.904202 0.099582 -0.415296 -0.904202 0.099582 -0.415296 -0.703818 -0.196509 0.682607 0.088351 0.639607 0.763573 -0.111972 0.935759 -0.334361 -0.088351 -0.639607 -0.763573 -0.904202 0.099582 -0.415296 0.111972 -0.935759 0.334361 -0.703818 -0.196509 0.682607 " />
									<TextureCoordinate point="0.0426 0.0298 0.4117 0.0298 0.4117 0.4741 0.0426 0.4741 0.0426 0.0298 0.4117 0.0298 0.4117 0.4741 0.0426 0.4741 0.0426 0.0298 0.4117 0.0298 0.4117 0.4741 0.0426 0.4741 0.0426 0.0298 0.4117 0.0298 0.4117 0.4741 0.0426 0.4741 0.4117 0.0298 0.4117 0.4741 0.0426 0.0298 0.0426 0.4741 " />
								</IndexedTriangleSet>
							</Shape>
						</Group>
					</Transform>
				</Transform>
			</Transform>
			<Transform DEF="foot1_TRANSFORM"
			           translation="0.673176 0.151113 0.015870"
			           scale="1.000000 1.000000 1.000000"
			           rotation="0.000000 1.000000 0.000000 0.000000"
			           >
				<Transform DEF="foot1_ifs_TRANSFORM"
				           translation="0.000000 0.000000 0.000000"
				           scale="1.000000 1.000000 1.000000"
				           rotation="0.000000 1.000000 0.000000 0.000000"
				           >
					<Group DEF="group_ME_foot1">
						<Shape>
							<Appearance>
								<Material USE="MA_Body" />
							</Appearance>
							<IndexedTriangleSet solid="false"
							                    normalPerVertex="true"
							                    index="0 1 2 0 2 3 4 5 6 4 6 7 8 9 10 8 10 11 12 13 14 12 14 15 4 16 17 4 17 15 18 5 14 18 14 19 "
							                    >
								<Coordinate point="-0.346558 -0.566827 -0.400102 -0.346558 -0.566827 0.000000 -0.346558 0.366912 0.000000 -0.346558 0.366912 -0.400102 -0.346558 0.366912 -0.400102 -0.346558 0.366912 0.000000 0.346558 0.366912 0.000000 0.346558 0.366912 -0.400102 0.346558 0.366912 -0.400102 0.346558 0.366912 0.000000 0.346558 -0.566827 0.000000 0.346558 -0.566827 -0.400102 0.346558 -0.566827 -0.400102 0.346558 -0.566827 0.000000 -0.346558 -0.566827 0.000000 -0.346558 -0.566827 -0.400102 0.346558 0.366912 -0.400102 0.346558 -0.566827 -0.400102 0.346558 0.366912 0.000000 0.346558 -0.566827 0.000000 " />
								<Normal vector="-0.577349 -0.577349 -0.577349 -0.577349 -0.577349 0.577349 -0.577349 0.577349 0.577349 -0.577349 0.577349 -0.577349 -0.577349 0.577349 -0.577349 -0.577349 0.577349 0.577349 0.577349 0.577349 0.577349 0.577349 0.577349 -0.577349 0.577349 0.577349 -0.577349 0.577349 0.577349 0.577349 0.577349 -0.577349 0.577349 0.577349 -0.577349 -0.577349 0.577349 -0.577349 -0.577349 0.577349 -0.577349 0.577349 -0.577349 -0.577349 0.577349 -0.577349 -0.577349 -0.577349 0.577349 0.577349 -0.577349 0.577349 -0.577349 -0.577349 0.577349 0.577349 0.577349 0.577349 -0.577349 0.577349 " />
								<TextureCoordinate point="0.0537 0.5530 0.9463 0.5530 0.9463 0.9431 0.0537 0.9431 0.0537 0.5530 0.9463 0.5530 0.9463 0.9431 0.0537 0.9431 0.0537 0.5530 0.9463 0.5530 0.9463 0.9431 0.0537 0.9431 0.0537 0.5530 0.9463 0.5530 0.9463 0.9431 0.0537 0.9431 0.9463 0.5530 0.9463 0.9431 0.0537 0.5530 0.0537 0.9431 " />
							</IndexedTriangleSet>
						</Shape>
					</Group>
				</Transform>
			</Transform>
			<Transform DEF="arm1_TRANSFORM"
			           translation="1.164700 -1.379789 0.574926"
			           scale="1.000000 1.000000 1.000000"
			           rotation="0.000000 1.000000 0.000000 0.000000"
			           >
				<Transform DEF="arm1_ifs_TRANSFORM"
				           translation="0.000000 0.000000 0.000000"
				           scale="1.000000 1.000000 1.000000"
				           rotation="0.000000 1.000000 0.000000 0.000000"
				           >
					<Group DEF="group_ME_arm1">
						<Shape>
							<Appearance>
								<Material USE="MA_Body" />
							</Appearance>
							<IndexedTriangleSet solid="false"
							                    normalPerVertex="true"
							                    index="0 1 2 0 2 3 4 5 6 4 6 7 8 9 10 8 10 11 12 13 14 12 14 15 4 16 17 4 17 15 18 5 14 18 14 19 "
							                    >
								<Coordinate point="-0.105057 -0.539593 -0.247329 -0.092418 -0.587781 0.096653 -0.224386 -0.084601 0.171991 -0.237025 -0.036413 -0.171991 -0.237025 -0.036413 -0.171991 -0.224386 -0.084601 0.171991 0.237025 0.036413 0.171991 0.224386 0.084601 -0.171991 0.224386 0.084601 -0.171991 0.237025 0.036413 0.171991 0.368993 -0.466768 0.096653 0.356354 -0.418580 -0.247329 0.356354 -0.418580 -0.247329 0.368993 -0.466768 0.096653 -0.092418 -0.587781 0.096653 -0.105057 -0.539593 -0.247329 0.224386 0.084601 -0.171991 0.356354 -0.418580 -0.247329 0.237025 0.036413 0.171991 0.368993 -0.466768 0.096653 " />
								<Normal vector="-0.434492 -0.619098 -0.654134 -0.392499 -0.779199 0.488632 -0.682424 0.326182 0.654134 -0.724387 0.486251 -0.488632 -0.724387 0.486251 -0.488632 -0.682424 0.326182 0.654134 0.434492 0.619098 0.654134 0.392499 0.779199 -0.488632 0.392499 0.779199 -0.488632 0.434492 0.619098 0.654134 0.724387 -0.486251 0.488632 0.682424 -0.326182 -0.654134 0.682424 -0.326182 -0.654134 0.724387 -0.486251 0.488632 -0.392499 -0.779199 0.488632 -0.434492 -0.619098 -0.654134 0.392499 0.779199 -0.488632 0.682424 -0.326182 -0.654134 0.434492 0.619098 0.654134 0.724387 -0.486251 0.488632 " />
								<TextureCoordinate point="0.0537 0.5530 0.9463 0.5530 0.9463 0.9431 0.0537 0.9431 0.0537 0.5530 0.9463 0.5530 0.9463 0.9431 0.0537 0.9431 0.0537 0.5530 0.9463 0.5530 0.9463 0.9431 0.0537 0.9431 0.0537 0.5530 0.9463 0.5530 0.9463 0.9431 0.0537 0.9431 0.9463 0.5530 0.9463 0.9431 0.0537 0.5530 0.0537 0.9431 " />
							</IndexedTriangleSet>
						</Shape>
					</Group>
				</Transform>
			</Transform>
			<Transform DEF="orl2_TRANSFORM"
			           translation="-0.680529 0.280512 2.021039"
			           scale="1.000000 1.000000 1.000000"
			           rotation="0.000000 1.000000 0.000000 0.000000"
			           >
				<Transform DEF="orl2_ifs_TRANSFORM"
				           translation="0.000000 0.000000 0.000000"
				           scale="1.000000 1.000000 1.000000"
				           rotation="0.000000 1.000000 0.000000 0.000000"
				           >
					<Group DEF="group_ME_orl2">
						<Shape>
							<Appearance>
								<Material USE="MA_Body" />
							</Appearance>
							<IndexedTriangleSet solid="false"
							                    normalPerVertex="true"
							                    index="0 1 2 0 2 3 4 5 6 4 6 7 8 9 10 8 10 11 12 13 14 12 14 15 4 13 16 4 16 17 18 19 14 18 14 7 "
							                    >
								<Coordinate point="-0.037798 -0.898607 -0.206795 0.037798 0.885716 -0.256449 0.037798 0.898607 0.206795 -0.037798 -0.885716 0.256449 0.037798 0.885716 -0.256449 -1.226350 0.939233 -0.257938 -1.226350 0.952124 0.205306 0.037798 0.898607 0.206795 -1.226350 0.939233 -0.257938 -1.301947 -0.845090 -0.208284 -1.301947 -0.832199 0.254959 -1.226350 0.952124 0.205306 -1.301947 -0.845090 -0.208284 -0.037798 -0.898607 -0.206795 -0.037798 -0.885716 0.256449 -1.301947 -0.832199 0.254959 -1.301947 -0.845090 -0.208284 -1.226350 0.939233 -0.257938 -1.226350 0.952124 0.205306 -1.301947 -0.832199 0.254959 " />
								<Normal vector="0.552385 -0.617084 -0.560381 0.601245 0.536119 -0.592486 0.601245 0.568224 0.561754 0.552385 -0.584948 0.593829 0.601245 0.536119 -0.592486 -0.552385 0.584948 -0.593829 -0.552385 0.617084 0.560381 0.601245 0.568224 0.561754 -0.552385 0.584948 -0.593829 -0.601245 -0.568224 -0.561754 -0.601245 -0.536119 0.592486 -0.552385 0.617084 0.560381 -0.601245 -0.568224 -0.561754 0.552385 -0.617084 -0.560381 0.552385 -0.584948 0.593829 -0.601245 -0.536119 0.592486 -0.601245 -0.568224 -0.561754 -0.552385 0.584948 -0.593829 -0.552385 0.617084 0.560381 -0.601245 -0.536119 0.592486 " />
								<TextureCoordinate point="0.0537 0.5530 0.0537 0.9431 0.9463 0.9431 0.9463 0.5530 0.0537 0.5530 0.0537 0.9431 0.9463 0.9431 0.9463 0.5530 0.0537 0.5530 0.0537 0.9431 0.9463 0.9431 0.9463 0.5530 0.0537 0.5530 0.0537 0.9431 0.9463 0.9431 0.9463 0.5530 0.9463 0.9431 0.9463 0.5530 0.0537 0.5530 0.0537 0.9431 " />
							</IndexedTriangleSet>
						</Shape>
					</Group>
				</Transform>
				<Transform DEF="Cube_010_TRANSFORM"
				           translation="-1.007806 0.104703 -0.002914"
				           scale="1.000000 1.000000 1.000000"
				           rotation="0.000000 1.000000 0.000000 0.000000"
				           >
					<Transform DEF="Cube_010_ifs_TRANSFORM"
					           translation="0.000000 0.000000 0.000000"
					           scale="1.000000 1.000000 1.000000"
					           rotation="0.000000 1.000000 0.000000 0.000000"
					           >
						<Group DEF="group_ME_Cube_011">
							<Shape>
								<Appearance>
									<Material USE="MA_Body" />
								</Appearance>
								<IndexedTriangleSet solid="false"
								                    normalPerVertex="true"
								                    index="0 1 2 0 2 3 4 5 6 4 6 7 8 9 10 8 10 11 12 13 14 12 14 15 4 13 16 4 16 17 18 19 14 18 14 7 "
								                    >
									<Coordinate point="-0.091184 -1.026980 -0.242177 0.091184 1.011923 -0.298915 0.091184 1.026980 0.242177 -0.091184 -1.011923 0.298915 0.091184 1.011923 -0.298915 -1.080535 1.116645 -0.301829 -1.080535 1.131702 0.239263 0.091184 1.026980 0.242177 -1.080535 1.116645 -0.301829 -1.262902 -0.922258 -0.245091 -1.262902 -0.907200 0.296000 -1.080535 1.131702 0.239263 -1.262902 -0.922258 -0.245091 -0.091184 -1.026980 -0.242177 -0.091184 -1.011923 0.298915 -1.262902 -0.907200 0.296000 -1.262902 -0.922258 -0.245091 -1.080535 1.116645 -0.301829 -1.080535 1.131702 0.239263 -1.262902 -0.907200 0.296000 " />
									<Normal vector="0.523637 -0.642262 -0.559679 0.626453 0.507370 -0.591662 0.626453 0.539476 0.562548 0.523637 -0.610157 0.594531 0.626453 0.507370 -0.591662 -0.523637 0.610157 -0.594531 -0.523637 0.642262 0.559679 0.626453 0.539476 0.562548 -0.523637 0.610157 -0.594531 -0.626453 -0.539476 -0.562548 -0.626453 -0.507370 0.591662 -0.523637 0.642262 0.559679 -0.626453 -0.539476 -0.562548 0.523637 -0.642262 -0.559679 0.523637 -0.610157 0.594531 -0.626453 -0.507370 0.591662 -0.626453 -0.539476 -0.562548 -0.523637 0.610157 -0.594531 -0.523637 0.642262 0.559679 -0.626453 -0.507370 0.591662 " />
									<TextureCoordinate point="0.0537 0.5530 0.0537 0.9431 0.9463 0.9431 0.9463 0.5530 0.0537 0.5530 0.0537 0.9431 0.9463 0.9431 0.9463 0.5530 0.0537 0.5530 0.0537 0.9431 0.9463 0.9431 0.9463 0.5530 0.0537 0.5530 0.0537 0.9431 0.9463 0.9431 0.9463 0.5530 0.9463 0.9431 0.9463 0.5530 0.0537 0.5530 0.0537 0.9431 " />
								</IndexedTriangleSet>
							</Shape>
						</Group>
					</Transform>
				</Transform>
			</Transform>
			<Transform DEF="foot2_TRANSFORM"
			           translation="-0.673176 0.151113 0.015870"
			           scale="1.000000 1.000000 1.000000"
			           rotation="0.000000 1.000000 0.000000 0.000000"
			           >
				<Transform DEF="foot2_ifs_TRANSFORM"
				           translation="0.000000 0.000000 0.000000"
				           scale="1.000000 1.000000 1.000000"
				           rotation="0.000000 1.000000 0.000000 0.000000"
				           >
					<Group DEF="group_ME_foot2">
						<Shape>
							<Appearance>
								<Material USE="MA_Body" />
							</Appearance>
							<IndexedTriangleSet solid="false"
							                    normalPerVertex="true"
							                    index="0 1 2 0 2 3 4 5 6 4 6 7 8 9 10 8 10 11 12 13 14 12 14 15 4 13 16 4 16 17 18 19 14 18 14 7 "
							                    >
								<Coordinate point="0.346558 -0.566827 -0.400102 0.346558 0.366912 -0.400102 0.346558 0.366912 0.000000 0.346558 -0.566827 -0.000000 0.346558 0.366912 -0.400102 -0.346558 0.366912 -0.400102 -0.346558 0.366912 0.000000 0.346558 0.366912 0.000000 -0.346558 0.366912 -0.400102 -0.346558 -0.566827 -0.400102 -0.346558 -0.566827 -0.000000 -0.346558 0.366912 0.000000 -0.346558 -0.566827 -0.400102 0.346558 -0.566827 -0.400102 0.346558 -0.566827 -0.000000 -0.346558 -0.566827 -0.000000 -0.346558 -0.566827 -0.400102 -0.346558 0.366912 -0.400102 -0.346558 0.366912 0.000000 -0.346558 -0.566827 -0.000000 " />
								<Normal vector="0.577349 -0.577349 -0.577349 0.577349 0.577349 -0.577349 0.577349 0.577349 0.577349 0.577349 -0.577349 0.577349 0.577349 0.577349 -0.577349 -0.577349 0.577349 -0.577349 -0.577349 0.577349 0.577349 0.577349 0.577349 0.577349 -0.577349 0.577349 -0.577349 -0.577349 -0.577349 -0.577349 -0.577349 -0.577349 0.577349 -0.577349 0.577349 0.577349 -0.577349 -0.577349 -0.577349 0.577349 -0.577349 -0.577349 0.577349 -0.577349 0.577349 -0.577349 -0.577349 0.577349 -0.577349 -0.577349 -0.577349 -0.577349 0.577349 -0.577349 -0.577349 0.577349 0.577349 -0.577349 -0.577349 0.577349 " />
								<TextureCoordinate point="0.0537 0.5530 0.0537 0.9431 0.9463 0.9431 0.9463 0.5530 0.0537 0.5530 0.0537 0.9431 0.9463 0.9431 0.9463 0.5530 0.0537 0.5530 0.0537 0.9431 0.9463 0.9431 0.9463 0.5530 0.0537 0.5530 0.0537 0.9431 0.9463 0.9431 0.9463 0.5530 0.9463 0.9431 0.9463 0.5530 0.0537 0.5530 0.0537 0.9431 " />
							</IndexedTriangleSet>
						</Shape>
					</Group>
				</Transform>
			</Transform>
			<Transform DEF="arm2_TRANSFORM"
			           translation="-1.164700 -1.379789 0.574926"
			           scale="1.000000 1.000000 1.000000"
			           rotation="0.000000 1.000000 0.000000 0.000000"
			           >
				<Transform DEF="arm2_ifs_TRANSFORM"
				           translation="0.000000 0.000000 0.000000"
				           scale="1.000000 1.000000 1.000000"
				           rotation="0.000000 1.000000 0.000000 0.000000"
				           >
					<Group DEF="group_ME_arm2">
						<Shape>
							<Appearance>
								<Material USE="MA_Body" />
							</Appearance>
							<IndexedTriangleSet solid="false"
							                    normalPerVertex="true"
							                    index="0 1 2 0 2 3 4 5 6 4 6 7 8 9 10 8 10 11 12 13 14 12 14 15 4 13 16 4 16 17 18 19 14 18 14 7 "
							                    >
								<Coordinate point="0.105057 -0.539593 -0.247329 0.237025 -0.036413 -0.171991 0.224386 -0.084601 0.171991 0.092418 -0.587781 0.096653 0.237025 -0.036413 -0.171991 -0.224386 0.084601 -0.171991 -0.237025 0.036413 0.171991 0.224386 -0.084601 0.171991 -0.224386 0.084601 -0.171991 -0.356354 -0.418580 -0.247329 -0.368993 -0.466768 0.096653 -0.237025 0.036413 0.171991 -0.356354 -0.418580 -0.247329 0.105057 -0.539593 -0.247329 0.092418 -0.587781 0.096653 -0.368993 -0.466768 0.096653 -0.356354 -0.418580 -0.247329 -0.224386 0.084601 -0.171991 -0.237025 0.036413 0.171991 -0.368993 -0.466768 0.096653 " />
								<Normal vector="0.434492 -0.619098 -0.654134 0.724387 0.486251 -0.488632 0.682424 0.326182 0.654134 0.392499 -0.779199 0.488632 0.724387 0.486251 -0.488632 -0.392499 0.779199 -0.488632 -0.434492 0.619098 0.654134 0.682424 0.326182 0.654134 -0.392499 0.779199 -0.488632 -0.682424 -0.326182 -0.654134 -0.724387 -0.486251 0.488632 -0.434492 0.619098 0.654134 -0.682424 -0.326182 -0.654134 0.434492 -0.619098 -0.654134 0.392499 -0.779199 0.488632 -0.724387 -0.486251 0.488632 -0.682424 -0.326182 -0.654134 -0.392499 0.779199 -0.488632 -0.434492 0.619098 0.654134 -0.724387 -0.486251 0.488632 " />
								<TextureCoordinate point="0.0537 0.5530 0.0537 0.9431 0.9463 0.9431 0.9463 0.5530 0.0537 0.5530 0.0537 0.9431 0.9463 0.9431 0.9463 0.5530 0.0537 0.5530 0.0537 0.9431 0.9463 0.9431 0.9463 0.5530 0.0537 0.5530 0.0537 0.9431 0.9463 0.9431 0.9463 0.5530 0.9463 0.9431 0.9463 0.5530 0.0537 0.5530 0.0537 0.9431 " />
							</IndexedTriangleSet>
						</Shape>
					</Group>
				</Transform>
			</Transform>
		</Transform>
	</Scene>
</X3D>