<?xml version="1.0" encoding="UTF-8"?>
<!DOCTYPE X3D PUBLIC "ISO//Web3D//DTD X3D 3.0//EN" "http://www.web3d.org/specifications/x3d-3.0.dtd">
<X3D version="3.0" profile="Immersive" xmlns:xsd="http://www.w3.org/2001/XMLSchema-instance" xsd:noNamespaceSchemaLocation="http://www.web3d.org/specifications/x3d-3.0.xsd">
	<head>
		<meta name="filename" content="spheal.x3d" />
		<meta name="generator" content="Blender 2.93.18" />
	</head>
	<Scene>
		<NavigationInfo headlight="true"
		                visibilityLimit="0.0"
		                type='"EXAMINE", "ANY"'
		                avatarSize="0.25, 1.75, 0.75"
		                />
		<Background DEF="WO_World"
		            groundColor="0.051 0.051 0.051"
		            skyColor="0.051 0.051 0.051"
		            />
		<Transform DEF="body_TRANSFORM"
		           translation="0.000000 0.000000 1.100000"
		           scale="1.000000 1.000000 1.000000"
		           rotation="0.000000 0.000000 1.000000 3.141593"
		           >
			<Transform DEF="body_ifs_TRANSFORM"
			           translation="0.000000 0.000000 0.000000"
			           scale="1.000000 1.000000 1.000000"
			           rotation="0.000000 1.000000 0.000000 0.000000"
			           >
				<Group DEF="group_ME_body">
					<Shape>
						<Appearance>
							<Material DEF="MA_Body"
							          diffuseColor="0.800 0.800 0.800"
							          specularColor="0.401 0.401 0.401"
							          emissiveColor="0.000 0.000 0.000"
							          ambientIntensity="0.000"
							          shininess="0.500"
							          transparency="0.0"
							          />
						</Appearance>
						<IndexedTriangleSet solid="false"
						                    normalPerVertex="true"
						                    index="0 1 2 0 2 3 4 5 6 4 6 7 8 9 10 8 10 11 12 13 14 12 14 15 16 17 18 16 18 19 20 21 14 20 14 22 23 24 25 23 25 26 27 28 29 27 29 30 31 32 33 31 33 34 35 21 36 35 36 37 38 39 40 38 40 41 42 43 44 42 44 45 46 47 48 46 48 49 50 51 52 50 52 53 54 55 56 54 56 57 58 59 60 58 60 61 35 62 63 35 63 15 64 65 66 64 66 67 68 69 56 68 56 19 70 71 60 70 60 72 73 74 75 73 75 76 77 78 79 77 79 80 81 82 83 81 83 84 85 86 87 85 87 88 89 90 91 89 91 67 92 93 94 92 94 95 96 97 98 96 98 72 99 100 101 99 101 102 103 104 91 103 91 105 106 107 94 106 94 108 109 110 111 109 111 112 113 114 115 113 115 116 117 118 119 117 119 120 121 122 123 121 123 124 125 126 127 125 127 128 129 130 131 129 131 132 133 134 135 133 135 136 137 138 139 137 139 140 141 142 143 141 143 144 145 146 147 145 147 148 149 150 151 149 151 152 0 153 154 0 154 155 156 157 158 156 158 159 160 161 162 160 162 163 164 165 166 164 166 167 168 169 170 168 170 171 172 173 169 172 169 168 174 175 176 174 176 177 178 179 180 178 180 181 182 183 184 182 184 185 186 187 188 186 188 189 190 191 192 190 192 193 194 195 196 194 196 197 159 158 32 159 32 31 198 199 200 198 200 201 202 203 204 202 204 205 206 207 208 206 208 209 4 210 211 4 211 212 213 214 215 213 215 216 73 217 218 73 218 219 77 220 221 77 221 222 223 224 225 223 225 226 227 228 229 227 229 230 231 232 233 231 233 234 235 236 237 235 237 238 81 239 240 81 240 241 242 243 244 242 244 245 171 170 246 171 246 247 248 249 104 248 104 103 250 251 100 250 100 99 252 253 97 252 97 96 254 255 65 254 65 64 256 257 62 256 62 35 258 259 59 258 59 58 260 261 55 260 55 54 262 263 21 262 21 35 264 265 21 264 21 20 266 267 17 266 17 16 268 269 9 268 9 8 270 250 99 270 99 271 272 242 245 272 245 273 274 235 238 274 238 275 276 182 185 276 185 277 278 174 177 278 177 279 280 133 136 280 136 281 282 125 128 282 128 283 284 121 124 284 124 285 286 113 116 286 116 287 288 106 108 288 108 289 271 99 102 271 102 95 290 291 93 290 93 92 272 292 86 272 86 85 "
						                    >
							<Coordinate point="-1.079509 1.220397 -0.163717 -1.079509 -0.158659 1.221065 -1.079509 0.049314 1.428178 -1.079509 1.428370 0.043396 0.602964 1.428370 0.043396 0.602964 0.049314 1.428178 1.079509 0.049314 1.428178 1.079509 1.428370 0.043396 1.079509 0.052864 -1.326423 1.079509 -1.326192 0.058359 1.079509 -1.428370 -0.043396 1.079509 -0.049314 -1.428178 -0.602964 -0.049314 -1.428178 -0.602964 -1.428370 -0.043396 -1.079509 -1.428370 -0.043396 -1.079509 -0.049314 -1.428178 0.602964 0.052864 -1.326422 1.079509 0.052864 -1.326423 1.079509 -0.049314 -1.428178 0.602964 -0.049314 -1.428178 -0.602964 -1.326192 0.058359 -1.079509 -1.326192 0.058359 -0.602964 -1.428370 -0.043396 -0.602964 -0.783255 0.599052 -1.079509 -0.827111 0.555376 -1.079509 -1.010613 0.372633 -0.602964 -1.010613 0.372633 0.602964 0.551945 -0.829405 1.079509 0.551945 -0.829405 1.079509 0.368443 -1.012149 0.602964 0.368442 -1.012149 1.079509 0.551945 -0.829405 1.079509 -0.827111 0.555376 1.079509 -1.010613 0.372633 1.079509 0.368443 -1.012149 -1.079509 0.052864 -1.326423 -1.079509 -1.010613 0.372633 -1.079509 0.368443 -1.012149 -1.079509 0.551945 -0.829405 -0.602964 0.551945 -0.829405 -0.602964 0.368442 -1.012149 -1.079509 0.368443 -1.012149 0.251460 0.551945 -0.829405 0.602964 0.551945 -0.829405 0.602964 0.368442 -1.012149 0.251460 0.368442 -1.012149 1.079509 -0.827111 0.555376 0.602964 -0.783255 0.599052 0.602964 -1.010613 0.372633 1.079509 -1.010613 0.372633 -0.251460 -0.783255 0.599052 -0.602964 -0.783255 0.599052 -0.602964 -1.010613 0.372633 -0.432410 -1.010614 0.372633 1.079509 -1.326192 0.058359 0.602964 -1.326192 0.058359 0.602964 -1.428370 -0.043396 1.079509 -1.428370 -0.043396 -0.432410 -1.326192 0.058359 -0.602964 -1.326192 0.058359 -0.602964 -1.428370 -0.043396 -0.432410 -1.428370 -0.043396 -0.602964 0.052864 -1.326422 -0.602964 -0.049314 -1.428178 0.251460 0.052864 -1.326422 0.602964 0.052864 -1.326422 0.602964 -0.049314 -1.428178 0.251460 -0.049314 -1.428178 1.079509 -0.049314 -1.428178 1.079509 -1.428370 -0.043396 -0.251460 -0.049314 -1.428178 -0.432410 -1.428370 -0.043396 -0.602964 -0.049314 -1.428178 -1.079509 1.428370 0.043396 -1.079509 0.049314 1.428178 -0.602964 0.049314 1.428178 -0.602964 1.428370 0.043396 0.251460 1.428370 0.043396 0.251460 0.049314 1.428178 0.602964 0.049314 1.428178 0.602964 1.428370 0.043396 -0.602964 1.428370 0.043396 -0.602964 0.049314 1.428178 -0.251460 0.049314 1.428178 -0.251460 1.428370 0.043396 -0.000000 1.428370 0.043396 0.000000 0.049314 1.428178 0.251460 0.049314 1.428178 0.251460 1.428370 0.043396 0.602964 -0.049314 -1.428178 0.602964 -1.428370 -0.043396 0.432410 -1.428370 -0.043396 0.000000 -0.049314 -1.428178 -0.000000 -1.428370 -0.043396 -0.432410 -1.428370 -0.043396 -0.251460 -0.049314 -1.428178 -0.602964 0.052864 -1.326422 -0.251460 0.052864 -1.326422 -0.251460 -0.049314 -1.428178 0.000000 0.052864 -1.326422 0.251460 0.052864 -1.326422 0.251460 -0.049314 -1.428178 0.000000 -0.049314 -1.428178 0.602964 -1.326192 0.058359 0.432410 -1.326192 0.058359 0.602964 -1.428370 -0.043396 0.000000 -1.326192 0.058359 -0.432410 -1.326192 0.058359 -0.000000 -1.428370 -0.043396 0.602964 -0.783255 0.599052 0.251460 -0.783255 0.599052 0.432410 -1.010614 0.372633 0.602964 -1.010613 0.372633 0.000000 -0.783255 0.599052 -0.251460 -0.783255 0.599052 -0.432410 -1.010614 0.372633 0.000000 -1.010614 0.372633 -0.602964 0.551945 -0.829405 -0.251460 0.551945 -0.829405 -0.251460 0.368442 -1.012149 -0.602964 0.368442 -1.012149 -0.000000 0.551945 -0.829405 0.251460 0.551945 -0.829405 0.251460 0.368442 -1.012149 -0.000000 0.368442 -1.012149 -0.000000 1.220397 -0.163717 0.251460 1.220397 -0.163717 0.251460 0.755777 -0.626416 -0.000000 0.755777 -0.626416 -0.602964 1.220397 -0.163717 -0.251460 1.220397 -0.163717 -0.251460 0.755777 -0.626416 -0.602964 0.755777 -0.626416 0.000000 -0.158659 1.221065 -0.251460 -0.158659 1.221065 -0.251460 -0.550556 0.830788 0.000000 -0.550556 0.830788 0.602964 -0.158659 1.221065 0.251460 -0.158659 1.221065 0.251460 -0.550556 0.830788 0.602964 -0.550556 0.830788 -0.251460 -0.158659 1.221065 -0.602964 -0.158659 1.221065 -0.602964 -0.550556 0.830788 -0.251460 -0.550556 0.830788 1.079509 -0.158659 1.221065 0.602964 -0.158659 1.221065 0.602964 -0.550556 0.830788 1.079509 -0.623279 0.758365 0.251460 1.220397 -0.163717 0.602964 1.220397 -0.163717 0.602964 0.755777 -0.626416 0.251460 0.755777 -0.626416 -0.602964 1.220397 -0.163717 -0.602964 0.755777 -0.626416 -1.079509 0.755777 -0.626416 1.079509 1.220397 -0.163717 1.079509 -0.158659 1.221065 1.079509 -0.623279 0.758365 1.079509 0.755777 -0.626416 0.602964 1.220397 -0.163717 1.079509 1.220397 -0.163717 1.079509 0.755777 -0.626416 0.602964 0.755777 -0.626416 -0.602964 -0.158659 1.221065 -1.079509 -0.158659 1.221065 -1.079509 -0.623279 0.758365 -0.602964 -0.550556 0.830788 -1.079509 0.551945 -0.829405 -1.079509 -0.827111 0.555376 -1.079509 -0.623279 0.758365 -1.079509 0.755777 -0.626416 -1.079509 0.368443 -1.012149 -1.079509 -1.010613 0.372633 -0.000000 0.755777 -0.626416 0.251460 0.755777 -0.626416 0.251460 0.551945 -0.829405 -0.000000 0.551945 -0.829405 -0.602964 0.755777 -0.626416 -0.251460 0.755777 -0.626416 -0.251460 0.551945 -0.829405 -0.602964 0.551945 -0.829405 0.000000 -0.550556 0.830788 -0.251460 -0.550556 0.830788 -0.251460 -0.783255 0.599052 0.000000 -0.783255 0.599052 1.079509 -0.623279 0.758365 0.602964 -0.550556 0.830788 0.602964 -0.783255 0.599052 1.079509 -0.827111 0.555376 0.251460 0.755777 -0.626416 0.602964 0.755777 -0.626416 0.602964 0.551945 -0.829405 0.251460 0.551945 -0.829405 -1.079509 0.755777 -0.626416 -0.602964 0.755777 -0.626416 -0.602964 0.551945 -0.829405 -1.079509 0.551945 -0.829405 0.602964 0.755777 -0.626416 1.079509 0.755777 -0.626416 1.079509 0.551945 -0.829405 0.602964 0.551945 -0.829405 -0.602964 -0.550556 0.830788 -1.079509 -0.623279 0.758365 -1.079509 -0.827111 0.555376 -0.602964 -0.783255 0.599052 -0.602964 0.049314 1.428178 -1.079509 0.049314 1.428178 -1.079509 -0.158659 1.221065 -0.602964 -0.158659 1.221065 1.079509 1.428370 0.043396 1.079509 1.220397 -0.163717 0.602964 1.220397 -0.163717 1.079509 1.428370 0.043396 1.079509 0.049314 1.428178 1.079509 -0.158659 1.221065 1.079509 1.220397 -0.163717 -0.602964 1.428370 0.043396 -0.602964 1.220397 -0.163717 -1.079509 1.220397 -0.163717 0.602964 1.428370 0.043396 0.602964 1.220397 -0.163717 0.251460 1.220397 -0.163717 1.079509 0.049314 1.428178 0.602964 0.049314 1.428178 0.602964 -0.158659 1.221065 1.079509 -0.158659 1.221065 -0.251460 0.049314 1.428178 -0.602964 0.049314 1.428178 -0.602964 -0.158659 1.221065 -0.251460 -0.158659 1.221065 0.602964 0.049314 1.428178 0.251460 0.049314 1.428178 0.251460 -0.158659 1.221065 0.602964 -0.158659 1.221065 0.000000 0.049314 1.428178 -0.251460 0.049314 1.428178 -0.251460 -0.158659 1.221065 0.000000 -0.158659 1.221065 -0.251460 1.428370 0.043396 -0.251460 1.220397 -0.163717 -0.602964 1.220397 -0.163717 -0.000000 1.428370 0.043396 0.251460 1.428370 0.043396 0.251460 1.220397 -0.163717 -0.000000 1.220397 -0.163717 -1.079509 -0.158659 1.221065 -1.079509 1.220397 -0.163717 0.602964 -1.010613 0.372633 0.432410 -1.010614 0.372633 -0.000000 0.368442 -1.012149 0.251460 0.368442 -1.012149 -0.602964 0.368442 -1.012149 -0.251460 0.368442 -1.012149 0.251460 0.368442 -1.012149 0.602964 0.368442 -1.012149 -1.079509 0.368443 -1.012149 -0.602964 0.368442 -1.012149 -0.432410 -1.010614 0.372633 -0.602964 -1.010613 0.372633 1.079509 -1.010613 0.372633 0.602964 -1.010613 0.372633 -1.079509 -0.049314 -1.428178 -1.079509 -1.428370 -0.043396 -0.602964 -1.010613 0.372633 -1.079509 -1.010613 0.372633 0.602964 0.368442 -1.012149 1.079509 0.368443 -1.012149 1.079509 0.368443 -1.012149 1.079509 -1.010613 0.372633 -0.251460 0.368442 -1.012149 -0.251460 0.052864 -1.326422 -0.251460 1.428370 0.043396 -0.251460 1.220397 -0.163717 0.251460 0.049314 1.428178 0.251460 -0.158659 1.221065 0.251460 -0.550556 0.830788 0.251460 -0.783255 0.599052 -0.251460 0.755777 -0.626416 -0.251460 0.551945 -0.829405 0.251460 -0.158659 1.221065 0.251460 -0.550556 0.830788 -0.251460 1.220397 -0.163717 -0.251460 0.755777 -0.626416 -0.251460 0.551945 -0.829405 -0.251460 0.368442 -1.012149 0.251460 -0.783255 0.599052 0.432410 -1.010614 0.372633 0.432410 -1.326192 0.058359 0.432410 -1.428370 -0.043396 0.251460 -0.049314 -1.428178 0.432410 -1.428370 -0.043396 -0.251460 0.049314 1.428178 " />
							<Normal vector="-0.707083 0.498947 -0.501022 -0.707083 -0.498947 0.501022 -0.577349 0.001679 0.816492 -0.577349 0.816492 -0.001679 0.000000 0.999969 -0.002045 0.000000 0.002045 0.999969 0.577349 0.001679 0.816492 0.577349 0.816492 -0.001679 0.707083 0.498947 -0.501022 0.707083 -0.498947 0.501022 0.577349 -0.816492 0.001679 0.577349 -0.001679 -0.816492 0.000000 -0.002045 -0.999969 0.000000 -0.999969 0.002045 -0.577349 -0.816492 0.001679 -0.577349 -0.001679 -0.816492 0.000000 0.705618 -0.708548 0.707083 0.498947 -0.501022 0.577349 -0.001679 -0.816492 0.000000 -0.002045 -0.999969 0.000000 -0.705618 0.708548 -0.707083 -0.498947 0.501022 0.000000 -0.999969 0.002045 0.000000 -0.705618 0.708548 -0.707083 -0.498947 0.501022 -0.707083 -0.498947 0.501022 0.000000 -0.705618 0.708548 0.000000 0.705618 -0.708548 0.707083 0.498947 -0.501022 0.707083 0.498947 -0.501022 0.000000 0.705618 -0.708548 0.707083 0.498947 -0.501022 0.707083 -0.498947 0.501022 0.707083 -0.498947 0.501022 0.707083 0.498947 -0.501022 -0.707083 0.498947 -0.501022 -0.707083 -0.498947 0.501022 -0.707083 0.498947 -0.501022 -0.707083 0.498947 -0.501022 0.000000 0.705618 -0.708548 0.000000 0.705618 -0.708548 -0.707083 0.498947 -0.501022 0.000000 0.705618 -0.708548 0.000000 0.705618 -0.708548 0.000000 0.705618 -0.708548 0.000000 0.705618 -0.708548 0.707083 -0.498947 0.501022 0.000000 -0.705618 0.708548 0.000000 -0.705618 0.708548 0.707083 -0.498947 0.501022 0.000000 -0.705618 0.708548 0.000000 -0.705618 0.708548 0.000000 -0.705618 0.708548 0.000000 -0.705618 0.708548 0.707083 -0.498947 0.501022 0.000000 -0.705618 0.708548 0.000000 -0.999969 0.002045 0.577349 -0.816492 0.001679 0.000000 -0.705618 0.708548 0.000000 -0.705618 0.708548 0.000000 -0.999969 0.002045 0.000000 -0.999969 0.002045 0.000000 0.705618 -0.708548 0.000000 -0.002045 -0.999969 0.000000 0.705618 -0.708548 0.000000 0.705618 -0.708548 0.000000 -0.002045 -0.999969 0.000000 -0.002045 -0.999969 0.577349 -0.001679 -0.816492 0.577349 -0.816492 0.001679 0.000000 -0.002045 -0.999969 0.000000 -0.999969 0.002045 0.000000 -0.002045 -0.999969 -0.577349 0.816492 -0.001679 -0.577349 0.001679 0.816492 0.000000 0.002045 0.999969 0.000000 0.999969 -0.002045 0.000000 0.999969 -0.002045 0.000000 0.002045 0.999969 0.000000 0.002045 0.999969 0.000000 0.999969 -0.002045 0.000000 0.999969 -0.002045 0.000000 0.002045 0.999969 0.000000 0.002045 0.999969 0.000000 0.999969 -0.002045 0.000000 0.999969 -0.002045 0.000000 0.002045 0.999969 0.000000 0.002045 0.999969 0.000000 0.999969 -0.002045 0.000000 -0.002045 -0.999969 0.000000 -0.999969 0.002045 0.000000 -0.999969 0.002045 0.000000 -0.002045 -0.999969 0.000000 -0.999969 0.002045 0.000000 -0.999969 0.002045 0.000000 -0.002045 -0.999969 0.000000 0.705618 -0.708548 0.000000 0.705618 -0.708548 0.000000 -0.002045 -0.999969 0.000000 0.705618 -0.708548 0.000000 0.705618 -0.708548 0.000000 -0.002045 -0.999969 0.000000 -0.002045 -0.999969 0.000000 -0.705618 0.708548 0.000000 -0.705618 0.708548 0.000000 -0.999969 0.002045 0.000000 -0.705618 0.708548 0.000000 -0.705618 0.708548 0.000000 -0.999969 0.002045 0.000000 -0.705618 0.708548 0.000000 -0.705618 0.708548 0.000000 -0.705618 0.708548 0.000000 -0.705618 0.708548 0.000000 -0.705618 0.708548 0.000000 -0.705618 0.708548 0.000000 -0.705618 0.708548 0.000000 -0.705618 0.708548 0.000000 0.705618 -0.708548 0.000000 0.705618 -0.708548 0.000000 0.705618 -0.708548 0.000000 0.705618 -0.708548 0.000000 0.705618 -0.708548 0.000000 0.705618 -0.708548 0.000000 0.705618 -0.708548 0.000000 0.705618 -0.708548 0.000000 0.705618 -0.708548 0.000000 0.705618 -0.708548 0.000000 0.705618 -0.708548 0.000000 0.705618 -0.708548 0.000000 0.705618 -0.708548 0.000000 0.705618 -0.708548 0.000000 0.705618 -0.708548 0.000000 0.705618 -0.708548 0.000000 -0.705618 0.708548 0.000000 -0.705618 0.708548 0.000000 -0.705618 0.708548 0.000000 -0.705618 0.708548 0.000000 -0.705618 0.708548 0.000000 -0.705618 0.708548 0.000000 -0.705618 0.708548 0.000000 -0.705618 0.708548 0.000000 -0.705618 0.708548 0.000000 -0.705618 0.708548 0.000000 -0.705618 0.708548 0.000000 -0.705618 0.708548 0.707083 -0.498947 0.501022 0.000000 -0.705618 0.708548 0.000000 -0.705618 0.708548 0.707083 -0.498947 0.501022 0.000000 0.705618 -0.708548 0.000000 0.705618 -0.708548 0.000000 0.705618 -0.708548 0.000000 0.705618 -0.708548 0.000000 0.705618 -0.708548 0.000000 0.705618 -0.708548 -0.707083 0.498947 -0.501022 0.707083 0.498947 -0.501022 0.707083 -0.498947 0.501022 0.707083 -0.498947 0.501022 0.707083 0.498947 -0.501022 0.000000 0.705618 -0.708548 0.707083 0.498947 -0.501022 0.707083 0.498947 -0.501022 0.000000 0.705618 -0.708548 0.000000 -0.705618 0.708548 -0.707083 -0.498947 0.501022 -0.707083 -0.498947 0.501022 0.000000 -0.705618 0.708548 -0.707083 0.498947 -0.501022 -0.707083 -0.498947 0.501022 -0.707083 -0.498947 0.501022 -0.707083 0.498947 -0.501022 -0.707083 0.498947 -0.501022 -0.707083 -0.498947 0.501022 0.000000 0.705618 -0.708548 0.000000 0.705618 -0.708548 0.000000 0.705618 -0.708548 0.000000 0.705618 -0.708548 0.000000 0.705618 -0.708548 0.000000 0.705618 -0.708548 0.000000 0.705618 -0.708548 0.000000 0.705618 -0.708548 0.000000 -0.705618 0.708548 0.000000 -0.705618 0.708548 0.000000 -0.705618 0.708548 0.000000 -0.705618 0.708548 0.707083 -0.498947 0.501022 0.000000 -0.705618 0.708548 0.000000 -0.705618 0.708548 0.707083 -0.498947 0.501022 0.000000 0.705618 -0.708548 0.000000 0.705618 -0.708548 0.000000 0.705618 -0.708548 0.000000 0.705618 -0.708548 -0.707083 0.498947 -0.501022 0.000000 0.705618 -0.708548 0.000000 0.705618 -0.708548 -0.707083 0.498947 -0.501022 0.000000 0.705618 -0.708548 0.707083 0.498947 -0.501022 0.707083 0.498947 -0.501022 0.000000 0.705618 -0.708548 0.000000 -0.705618 0.708548 -0.707083 -0.498947 0.501022 -0.707083 -0.498947 0.501022 0.000000 -0.705618 0.708548 0.000000 0.002045 0.999969 -0.577349 0.001679 0.816492 -0.707083 -0.498947 0.501022 0.000000 -0.705618 0.708548 0.577349 0.816492 -0.001679 0.707083 0.498947 -0.501022 0.000000 0.705618 -0.708548 0.577349 0.816492 -0.001679 0.577349 0.001679 0.816492 0.707083 -0.498947 0.501022 0.707083 0.498947 -0.501022 0.000000 0.999969 -0.002045 0.000000 0.705618 -0.708548 -0.707083 0.498947 -0.501022 0.000000 0.999969 -0.002045 0.000000 0.705618 -0.708548 0.000000 0.705618 -0.708548 0.577349 0.001679 0.816492 0.000000 0.002045 0.999969 0.000000 -0.705618 0.708548 0.707083 -0.498947 0.501022 0.000000 0.002045 0.999969 0.000000 0.002045 0.999969 0.000000 -0.705618 0.708548 0.000000 -0.705618 0.708548 0.000000 0.002045 0.999969 0.000000 0.002045 0.999969 0.000000 -0.705618 0.708548 0.000000 -0.705618 0.708548 0.000000 0.002045 0.999969 0.000000 0.002045 0.999969 0.000000 -0.705618 0.708548 0.000000 -0.705618 0.708548 0.000000 0.999969 -0.002045 0.000000 0.705618 -0.708548 0.000000 0.705618 -0.708548 0.000000 0.999969 -0.002045 0.000000 0.999969 -0.002045 0.000000 0.705618 -0.708548 0.000000 0.705618 -0.708548 -0.707083 -0.498947 0.501022 -0.707083 0.498947 -0.501022 0.000000 -0.705618 0.708548 0.000000 -0.705618 0.708548 0.000000 0.705618 -0.708548 0.000000 0.705618 -0.708548 0.000000 0.705618 -0.708548 0.000000 0.705618 -0.708548 0.000000 0.705618 -0.708548 0.000000 0.705618 -0.708548 -0.707083 0.498947 -0.501022 0.000000 0.705618 -0.708548 0.000000 -0.705618 0.708548 0.000000 -0.705618 0.708548 0.707083 -0.498947 0.501022 0.000000 -0.705618 0.708548 -0.577349 -0.001679 -0.816492 -0.577349 -0.816492 0.001679 0.000000 -0.705618 0.708548 -0.707083 -0.498947 0.501022 0.000000 0.705618 -0.708548 0.707083 0.498947 -0.501022 0.707083 0.498947 -0.501022 0.707083 -0.498947 0.501022 0.000000 0.705618 -0.708548 0.000000 0.705618 -0.708548 0.000000 0.999969 -0.002045 0.000000 0.705618 -0.708548 0.000000 0.002045 0.999969 0.000000 -0.705618 0.708548 0.000000 -0.705618 0.708548 0.000000 -0.705618 0.708548 0.000000 0.705618 -0.708548 0.000000 0.705618 -0.708548 0.000000 -0.705618 0.708548 0.000000 -0.705618 0.708548 0.000000 0.705618 -0.708548 0.000000 0.705618 -0.708548 0.000000 0.705618 -0.708548 0.000000 0.705618 -0.708548 0.000000 -0.705618 0.708548 0.000000 -0.705618 0.708548 0.000000 -0.705618 0.708548 0.000000 -0.999969 0.002045 0.000000 -0.002045 -0.999969 0.000000 -0.999969 0.002045 0.000000 0.002045 0.999969 " />
							<TextureCoordinate point="0.0475 0.6100 0.2103 0.6100 0.2103 0.9213 0.0475 0.9213 0.0475 0.6100 0.2103 0.6100 0.2103 0.9213 0.0475 0.9213 0.2757 0.7500 0.3884 0.7500 0.3884 0.9499 0.2757 0.9499 0.2757 0.5501 0.3884 0.5501 0.3884 0.9499 0.2757 0.9499 0.2757 0.7500 0.3884 0.7500 0.3884 0.9499 0.2757 0.9499 0.2757 0.7500 0.3884 0.7500 0.2757 0.9499 0.0420 0.5983 0.2263 0.5983 0.2263 0.9473 0.0420 0.9473 0.0475 0.6100 0.2103 0.6100 0.2103 0.9213 0.0475 0.9213 0.9892 0.2566 0.4212 0.2566 0.4212 0.0292 0.9892 0.0292 0.2757 0.7500 0.3884 0.9499 0.2757 0.9499 0.0475 0.6100 0.2103 0.6100 0.2103 0.9213 0.0475 0.9213 0.0475 0.6100 0.2103 0.6100 0.2103 0.9213 0.0475 0.9213 0.0420 0.5983 0.2263 0.5983 0.2263 0.9473 0.0420 0.9473 0.0420 0.5983 0.2263 0.5983 0.2263 0.9473 0.0420 0.9473 0.2757 0.7500 0.3884 0.7500 0.3884 0.9499 0.2757 0.9499 0.2757 0.7500 0.3884 0.7500 0.3884 0.9499 0.2757 0.9499 0.3884 0.7500 0.3884 0.9499 0.2757 0.7500 0.3884 0.7500 0.3884 0.9499 0.2757 0.9499 0.2757 0.5501 0.3884 0.5501 0.2757 0.5501 0.3884 0.5501 0.2757 0.9499 0.0475 0.6100 0.2103 0.6100 0.2103 0.9213 0.0475 0.9213 0.0475 0.6100 0.2103 0.6100 0.2103 0.9213 0.0475 0.9213 0.0475 0.6100 0.2103 0.6100 0.2103 0.9213 0.0475 0.9213 0.0475 0.7656 0.2103 0.7656 0.2103 0.9213 0.0475 0.9213 0.2757 0.5501 0.3884 0.5501 0.3884 0.9499 0.2757 0.7500 0.3884 0.7500 0.3884 0.9499 0.2757 0.9499 0.2757 0.7500 0.3884 0.7500 0.3884 0.9499 0.3320 0.7500 0.3884 0.7500 0.3884 0.9499 0.3320 0.9499 0.2757 0.7500 0.3884 0.7500 0.2757 0.9499 0.3320 0.7500 0.3884 0.7500 0.3320 0.9499 0.0420 0.5983 0.2263 0.5983 0.2263 0.9473 0.0420 0.9473 0.1341 0.5983 0.2263 0.5983 0.2263 0.9473 0.1341 0.9473 0.0475 0.6100 0.2103 0.6100 0.2103 0.9213 0.0475 0.9213 0.1289 0.6100 0.2103 0.6100 0.2103 0.9213 0.1289 0.9213 0.1289 0.6100 0.2103 0.6100 0.2103 0.9213 0.1289 0.9213 0.0475 0.6100 0.2103 0.6100 0.2103 0.9213 0.0475 0.9213 0.1341 0.5983 0.2263 0.5983 0.2263 0.9473 0.1341 0.9473 0.0420 0.5983 0.2263 0.5983 0.2263 0.9473 0.0420 0.9473 0.0420 0.5983 0.2263 0.5983 0.2263 0.9473 0.0420 0.9473 0.0420 0.5983 0.2263 0.5983 0.2263 0.9473 0.0420 0.9473 0.0475 0.6100 0.2103 0.6100 0.2103 0.9213 0.0475 0.9213 0.2103 0.6100 0.2103 0.9213 0.0475 0.9213 0.9892 0.8527 0.4212 0.8527 0.4212 0.4376 0.9892 0.4376 0.0475 0.6100 0.2103 0.6100 0.2103 0.9213 0.0475 0.9213 0.0420 0.5983 0.2263 0.5983 0.2263 0.9473 0.0420 0.9473 0.9892 0.2566 0.4212 0.2566 0.4212 0.4376 0.9892 0.4376 0.9892 0.0292 0.4212 0.0292 0.1289 0.6100 0.2103 0.6100 0.2103 0.9213 0.1289 0.9213 0.0475 0.6100 0.2103 0.6100 0.2103 0.9213 0.0475 0.9213 0.1341 0.5983 0.2263 0.5983 0.2263 0.9473 0.1341 0.9473 0.0420 0.5983 0.2263 0.5983 0.2263 0.9473 0.0420 0.9473 0.0475 0.6100 0.2103 0.6100 0.2103 0.9213 0.0475 0.9213 0.0475 0.6100 0.2103 0.6100 0.2103 0.9213 0.0475 0.9213 0.0475 0.6100 0.2103 0.6100 0.2103 0.9213 0.0475 0.9213 0.0420 0.5983 0.2263 0.5983 0.2263 0.9473 0.0420 0.9473 0.0420 0.5983 0.2263 0.5983 0.2263 0.9473 0.0420 0.9473 0.2103 0.6100 0.2103 0.9213 0.0475 0.9213 0.0475 0.6100 0.2103 0.6100 0.2103 0.9213 0.0475 0.9213 0.2103 0.6100 0.2103 0.9213 0.0475 0.9213 0.2103 0.6100 0.2103 0.9213 0.0475 0.9213 0.0420 0.5983 0.2263 0.5983 0.2263 0.9473 0.0420 0.9473 0.0420 0.5983 0.2263 0.5983 0.2263 0.9473 0.0420 0.9473 0.0420 0.5983 0.2263 0.5983 0.2263 0.9473 0.0420 0.9473 0.1341 0.5983 0.2263 0.5983 0.2263 0.9473 0.1341 0.9473 0.2103 0.6100 0.2103 0.9213 0.0475 0.9213 0.1289 0.6100 0.2103 0.6100 0.2103 0.9213 0.1289 0.9213 0.4212 0.8527 0.9892 0.8527 0.2757 0.5501 0.3884 0.5501 0.3320 0.5501 0.3884 0.5501 0.2757 0.5501 0.3884 0.5501 0.2757 0.5501 0.3884 0.5501 0.2757 0.5501 0.3884 0.5501 0.2757 0.5501 0.3884 0.5501 0.2757 0.5501 0.3884 0.5501 0.2757 0.5501 0.3884 0.5501 0.2757 0.5501 0.3884 0.5501 0.2757 0.5501 0.3884 0.5501 0.2757 0.5501 0.3884 0.5501 0.2757 0.5501 0.2757 0.7500 0.0475 0.6100 0.0475 0.9213 0.0420 0.5983 0.0420 0.9473 0.0420 0.5983 0.0420 0.9473 0.0475 0.6100 0.0475 0.9213 0.0420 0.5983 0.0420 0.9473 0.0475 0.6100 0.0475 0.9213 0.0475 0.6100 0.0475 0.9213 0.0420 0.5983 0.0420 0.9473 0.2757 0.7500 0.2757 0.9499 0.2757 0.5501 0.3884 0.5501 0.2103 0.6100 " />
						</IndexedTriangleSet>
					</Shape>
					<Shape>
						<Appearance>
							<Material DEF="MA_Face"
							          diffuseColor="0.800 0.800 0.800"
							          specularColor="0.401 0.401 0.401"
							          emissiveColor="0.000 0.000 0.000"
							          ambientIntensity="0.000"
							          shininess="0.500"
							          transparency="0.0"
							          />
						</Appearance>
						<IndexedTriangleSet solid="false"
						                    normalPerVertex="true"
						                    index="0 1 2 0 2 3 4 5 6 4 6 7 8 9 10 8 10 11 12 8 11 12 11 13 "
						                    >
							<Coordinate point="0.602964 -0.550556 0.830788 0.251460 -0.550556 0.830788 0.251460 -0.783255 0.599052 0.602964 -0.783255 0.599052 -0.251460 -0.550556 0.830788 -0.602964 -0.550556 0.830788 -0.602964 -0.783255 0.599052 -0.251460 -0.783255 0.599052 0.000000 -1.010614 0.372633 -0.432410 -1.010614 0.372633 -0.432410 -1.326192 0.058359 0.000000 -1.326192 0.058359 0.432410 -1.010614 0.372633 0.432410 -1.326192 0.058359 " />
							<Normal vector="0.000000 -0.705618 0.708548 0.000000 -0.705618 0.708548 0.000000 -0.705618 0.708548 0.000000 -0.705618 0.708548 0.000000 -0.705618 0.708548 0.000000 -0.705618 0.708548 0.000000 -0.705618 0.708548 0.000000 -0.705618 0.708548 0.000000 -0.705618 0.708548 0.000000 -0.705618 0.708548 0.000000 -0.705618 0.708548 0.000000 -0.705618 0.708548 0.000000 -0.705618 0.708548 0.000000 -0.705618 0.708548 " />
							<TextureCoordinate point="0.4882 0.9873 0.0158 0.9873 0.0158 0.5149 0.4882 0.5149 0.0158 0.9873 0.4882 0.9873 0.4882 0.5149 0.0158 0.5149 0.9899 0.9907 0.5124 0.9907 0.5124 0.5132 0.9899 0.5132 0.5124 0.9907 0.5124 0.5132 " />
						</IndexedTriangleSet>
					</Shape>
				</Group>
			</Transform>
			<Transform DEF="Cube_001_TRANSFORM"
			           translation="0.253194 -0.820784 0.417892"
			           scale="1.000000 1.000000 1.000000"
			           rotation="0.000000 1.000000 0.000000 0.000000"
			           >
				<Transform DEF="Cube_001_ifs_TRANSFORM"
				           translation="0.000000 0.000000 0.000000"
				           scale="1.000000 1.000000 1.000000"
				           rotation="0.000000 1.000000 0.000000 0.000000"
				           >
					<Group DEF="group_ME_Cube_001">
						<Shape>
							<Appearance>
								<Material USE="MA_Body" />
							</Appearance>
							<IndexedTriangleSet solid="false"
							                    normalPerVertex="true"
							                    index="0 1 2 0 2 3 4 5 6 4 6 7 8 9 10 8 10 11 12 13 14 12 14 15 16 17 18 16 18 19 20 21 22 20 22 23 24 25 26 24 26 27 28 29 30 28 30 31 16 32 33 16 33 34 35 36 37 35 37 38 39 40 41 39 41 42 43 44 45 43 45 19 46 5 47 46 47 48 39 49 50 39 50 27 51 52 47 51 47 53 54 21 55 54 55 56 "
							                    >
								<Coordinate point="-0.193096 -0.380652 0.092707 -0.174258 -0.325744 0.281998 -0.251581 -0.008818 0.197762 -0.270420 -0.063726 0.008471 -0.063452 -0.021927 -0.024252 -0.044613 0.032981 0.165040 0.282540 0.099052 0.113316 0.263702 0.044144 -0.075976 0.263702 0.044144 -0.075976 0.282540 0.099052 0.113316 0.359864 -0.217874 0.197552 0.341026 -0.272782 0.008260 0.013872 -0.338854 0.059984 0.032711 -0.283946 0.249276 -0.174258 -0.325744 0.281998 -0.193096 -0.380652 0.092707 -0.075572 -0.057254 -0.146038 0.251581 0.008818 -0.197762 0.328905 -0.308109 -0.113526 0.001752 -0.374180 -0.061802 -0.044613 0.032981 0.165040 -0.251581 -0.008818 0.197762 -0.174258 -0.325744 0.281998 0.032711 -0.283946 0.249276 0.001752 -0.374180 -0.061802 0.013872 -0.338854 0.059984 -0.193096 -0.380652 0.092707 -0.205216 -0.415979 -0.029080 0.251581 0.008818 -0.197762 0.263702 0.044144 -0.075976 0.341026 -0.272782 0.008260 0.328905 -0.308109 -0.113526 -0.063452 -0.021927 -0.024252 0.263702 0.044144 -0.075976 0.251581 0.008818 -0.197762 -0.205216 -0.415979 -0.029080 -0.193096 -0.380652 0.092707 -0.270420 -0.063726 0.008471 -0.282540 -0.099052 -0.113316 -0.282540 -0.099052 -0.113316 -0.270420 -0.063726 0.008471 -0.063452 -0.021927 -0.024252 -0.075572 -0.057254 -0.146038 0.328905 -0.308109 -0.113526 0.341026 -0.272782 0.008260 0.013872 -0.338854 0.059984 0.282540 0.099052 0.113316 0.032711 -0.283946 0.249276 0.359864 -0.217874 0.197552 -0.075572 -0.057254 -0.146038 0.001752 -0.374180 -0.061802 0.341026 -0.272782 0.008260 0.359864 -0.217874 0.197552 0.013872 -0.338854 0.059984 -0.270420 -0.063726 0.008471 -0.044613 0.032981 0.165040 -0.063452 -0.021927 -0.024252 " />
								<Normal vector="-0.522629 -0.803461 0.285073 -0.371807 -0.495895 0.784722 -0.636799 0.590228 0.496048 -0.847194 0.526811 -0.068484 -0.229499 0.940642 -0.250008 -0.094974 0.861232 0.499222 0.481674 0.816126 0.319193 0.522629 0.803461 -0.285073 0.522629 0.803461 -0.285073 0.481674 0.816126 0.319193 0.746666 -0.269997 0.607898 0.847194 -0.526811 0.068484 0.229499 -0.940642 0.250008 0.229560 -0.469039 0.852809 -0.371807 -0.495895 0.784722 -0.522629 -0.803461 0.285073 -0.229560 0.469039 -0.852809 0.371807 0.495895 -0.784722 0.636799 -0.590228 -0.496048 0.094974 -0.861232 -0.499222 -0.094974 0.861232 0.499222 -0.636799 0.590228 0.496048 -0.371807 -0.495895 0.784722 0.229560 -0.469039 0.852809 0.094974 -0.861232 -0.499222 0.229499 -0.940642 0.250008 -0.522629 -0.803461 0.285073 -0.481674 -0.816126 -0.319193 0.371807 0.495895 -0.784722 0.522629 0.803461 -0.285073 0.847194 -0.526811 0.068484 0.636799 -0.590228 -0.496048 -0.229499 0.940642 -0.250008 0.522629 0.803461 -0.285073 0.371807 0.495895 -0.784722 -0.481674 -0.816126 -0.319193 -0.522629 -0.803461 0.285073 -0.847194 0.526811 -0.068484 -0.746666 0.269997 -0.607898 -0.746666 0.269997 -0.607898 -0.847194 0.526811 -0.068484 -0.229499 0.940642 -0.250008 -0.229560 0.469039 -0.852809 0.636799 -0.590228 -0.496048 0.847194 -0.526811 0.068484 0.229499 -0.940642 0.250008 0.481674 0.816126 0.319193 0.229560 -0.469039 0.852809 0.746666 -0.269997 0.607898 -0.229560 0.469039 -0.852809 0.094974 -0.861232 -0.499222 0.847194 -0.526811 0.068484 0.746666 -0.269997 0.607898 0.229499 -0.940642 0.250008 -0.847194 0.526811 -0.068484 -0.094974 0.861232 0.499222 -0.229499 0.940642 -0.250008 " />
								<TextureCoordinate point="0.0337 0.5408 0.2284 0.5408 0.2284 0.9429 0.0337 0.9429 0.0337 0.5408 0.2284 0.5408 0.2284 0.9429 0.0337 0.9429 0.0337 0.5408 0.2284 0.5408 0.2284 0.9429 0.0337 0.9429 0.2316 0.0413 0.2316 0.4306 0.0305 0.4306 0.0305 0.0413 0.0337 0.5408 0.2284 0.5408 0.2284 0.9429 0.0337 0.9429 0.0337 0.5408 0.2284 0.5408 0.2284 0.9429 0.0337 0.9429 0.0337 0.5408 0.2284 0.5408 0.2284 0.9429 0.0337 0.9429 0.0337 0.5408 0.2284 0.5408 0.2284 0.9429 0.0337 0.9429 0.2284 0.5408 0.2284 0.9429 0.0337 0.9429 0.0337 0.5408 0.2284 0.5408 0.2284 0.9429 0.0337 0.9429 0.0337 0.5408 0.2284 0.5408 0.2284 0.9429 0.0337 0.9429 0.0337 0.5408 0.2284 0.5408 0.2284 0.9429 0.0337 0.5408 0.2284 0.9429 0.0337 0.9429 0.2284 0.5408 0.2284 0.9429 0.0337 0.5408 0.2284 0.5408 0.0337 0.9429 0.0337 0.5408 0.2284 0.9429 0.0337 0.9429 " />
							</IndexedTriangleSet>
						</Shape>
					</Group>
				</Transform>
			</Transform>
			<Transform DEF="Cube_002_TRANSFORM"
			           translation="0.323339 -1.079282 0.369618"
			           scale="1.000000 1.000000 1.000000"
			           rotation="0.000000 1.000000 0.000000 0.000000"
			           >
				<Transform DEF="Cube_002_ifs_TRANSFORM"
				           translation="0.000000 0.000000 0.000000"
				           scale="1.000000 1.000000 1.000000"
				           rotation="0.000000 1.000000 0.000000 0.000000"
				           >
					<Group DEF="group_ME_Cube_002">
						<Shape>
							<Appearance>
								<Material USE="MA_Body" />
							</Appearance>
							<IndexedTriangleSet solid="false"
							                    normalPerVertex="true"
							                    index="0 1 2 0 2 3 4 5 6 4 6 7 8 9 10 8 10 11 12 13 14 12 14 15 4 16 17 4 17 15 18 5 14 18 14 19 "
							                    >
								<Coordinate point="-0.085846 -0.015237 -0.137137 -0.067644 -0.089841 -0.117308 -0.053990 -0.050044 0.019889 -0.072192 0.024560 0.000060 -0.072192 0.024560 0.000060 -0.053990 -0.050044 0.019889 0.072192 -0.024560 -0.000060 0.053990 0.050044 -0.019889 0.053990 0.050044 -0.019889 0.072192 -0.024560 -0.000060 0.058538 -0.064357 -0.137258 0.040336 0.010247 -0.157087 0.040336 0.010247 -0.157087 0.058538 -0.064357 -0.137258 -0.067644 -0.089841 -0.117308 -0.085846 -0.015237 -0.137137 0.053990 0.050044 -0.019889 0.040336 0.010247 -0.157087 0.072192 -0.024560 -0.000060 0.058538 -0.064357 -0.137258 " />
								<Normal vector="-0.746666 0.269997 -0.607898 -0.481674 -0.816126 -0.319193 -0.371807 -0.495895 0.784722 -0.636799 0.590228 0.496048 -0.636799 0.590228 0.496048 -0.371807 -0.495895 0.784722 0.746666 -0.269997 0.607898 0.481674 0.816126 0.319193 0.481674 0.816126 0.319193 0.746666 -0.269997 0.607898 0.636799 -0.590228 -0.496048 0.371807 0.495895 -0.784722 0.371807 0.495895 -0.784722 0.636799 -0.590228 -0.496048 -0.481674 -0.816126 -0.319193 -0.746666 0.269997 -0.607898 0.481674 0.816126 0.319193 0.371807 0.495895 -0.784722 0.746666 -0.269997 0.607898 0.636799 -0.590228 -0.496048 " />
								<TextureCoordinate point="0.2706 0.0477 0.3778 0.0477 0.3778 0.4289 0.2706 0.4289 0.2706 0.0477 0.3778 0.0477 0.3778 0.4289 0.2706 0.4289 0.2706 0.0477 0.3778 0.0477 0.3778 0.4289 0.2706 0.4289 0.2706 0.0477 0.3778 0.0477 0.3778 0.4289 0.2706 0.4289 0.3778 0.0477 0.3778 0.4289 0.2706 0.0477 0.2706 0.4289 " />
							</IndexedTriangleSet>
						</Shape>
					</Group>
				</Transform>
			</Transform>
			<Transform DEF="orl1_TRANSFORM"
			           translation="0.544036 -0.268686 0.938646"
			           scale="1.000000 1.000000 1.000000"
			           rotation="0.000000 1.000000 0.000000 0.000000"
			           >
				<Transform DEF="orl1_ifs_TRANSFORM"
				           translation="0.000000 0.000000 0.000000"
				           scale="1.000000 1.000000 1.000000"
				           rotation="0.000000 1.000000 0.000000 0.000000"
				           >
					<Group DEF="group_ME_orl1">
						<Shape>
							<Appearance>
								<Material USE="MA_Body" />
							</Appearance>
							<IndexedTriangleSet solid="false"
							                    normalPerVertex="true"
							                    index="0 1 2 0 2 3 4 5 6 4 6 7 8 9 10 8 10 11 12 13 14 12 14 15 4 16 17 4 17 15 18 5 14 18 14 19 "
							                    >
								<Coordinate point="-0.143593 -0.115292 0.331487 -0.104439 0.099468 0.350704 -0.158482 0.136710 0.044614 -0.197635 -0.078050 0.025397 -0.197635 -0.078050 0.025397 -0.158482 0.136710 0.044614 0.197635 0.078050 -0.025397 0.158482 -0.136710 -0.044614 0.158482 -0.136710 -0.044614 0.197635 0.078050 -0.025397 0.251677 0.040808 0.280692 0.212524 -0.173951 0.261475 0.212524 -0.173951 0.261475 0.251677 0.040808 0.280692 -0.104439 0.099468 0.350704 -0.143593 -0.115292 0.331487 0.158482 -0.136710 -0.044614 0.212524 -0.173951 0.261475 0.197635 0.078050 -0.025397 0.251677 0.040808 0.280692 " />
								<Normal vector="-0.562731 -0.542344 0.623829 -0.356426 0.589221 0.725089 -0.555742 0.726585 -0.403943 -0.762047 -0.404981 -0.505173 -0.762047 -0.404981 -0.505173 -0.555742 0.726585 -0.403943 0.562731 0.542344 -0.623829 0.356426 -0.589221 -0.725089 0.356426 -0.589221 -0.725089 0.562731 0.542344 -0.623829 0.762047 0.404981 0.505173 0.555742 -0.726585 0.403943 0.555742 -0.726585 0.403943 0.762047 0.404981 0.505173 -0.356426 0.589221 0.725089 -0.562731 -0.542344 0.623829 0.356426 -0.589221 -0.725089 0.555742 -0.726585 0.403943 0.562731 0.542344 -0.623829 0.762047 0.404981 0.505173 " />
								<TextureCoordinate point="0.0216 0.5419 0.2293 0.5419 0.2293 0.9659 0.0216 0.9659 0.0216 0.5419 0.2293 0.5419 0.2293 0.9659 0.0216 0.9659 0.0216 0.5419 0.2293 0.5419 0.2293 0.9659 0.0216 0.9659 0.0216 0.5419 0.2293 0.5419 0.2293 0.9659 0.0216 0.9659 0.2293 0.5419 0.2293 0.9659 0.0216 0.5419 0.0216 0.9659 " />
							</IndexedTriangleSet>
						</Shape>
					</Group>
				</Transform>
			</Transform>
			<Transform DEF="arm1_TRANSFORM"
			           translation="0.822814 -0.452853 -0.949844"
			           scale="1.000000 1.000000 1.000000"
			           rotation="0.000000 1.000000 0.000000 0.000000"
			           >
				<Transform DEF="arm1_ifs_TRANSFORM"
				           translation="0.000000 0.000000 0.000000"
				           scale="1.000000 1.000000 1.000000"
				           rotation="0.000000 1.000000 0.000000 0.000000"
				           >
					<Group DEF="group_ME_arm1">
						<Shape>
							<Appearance>
								<Material USE="MA_Body" />
							</Appearance>
							<IndexedTriangleSet solid="false"
							                    normalPerVertex="true"
							                    index="0 1 2 0 2 3 4 5 6 4 6 7 8 9 10 8 10 11 12 13 14 12 14 15 4 16 17 4 17 15 18 5 14 18 14 19 "
							                    >
								<Coordinate point="0.000000 -0.281043 0.117115 0.000000 -0.133672 0.273556 0.000000 0.281043 -0.117115 0.000000 0.133672 -0.273556 0.000000 0.133672 -0.273556 0.000000 0.281043 -0.117115 0.598734 0.281043 -0.117115 0.598734 0.133672 -0.273556 0.598734 0.133672 -0.273556 0.598734 0.281043 -0.117115 0.598734 -0.133672 0.273556 0.598734 -0.281043 0.117115 0.598734 -0.281043 0.117115 0.598734 -0.133672 0.273556 0.000000 -0.133672 0.273556 0.000000 -0.281043 0.117115 0.598734 0.133672 -0.273556 0.598734 -0.281043 0.117115 0.598734 0.281043 -0.117115 0.598734 -0.133672 0.273556 " />
								<Normal vector="-0.577349 -0.816126 -0.024354 -0.577349 -0.024354 0.816126 -0.577349 0.816126 0.024354 -0.577349 0.024354 -0.816126 -0.577349 0.024354 -0.816126 -0.577349 0.816126 0.024354 0.577349 0.816126 0.024354 0.577349 0.024354 -0.816126 0.577349 0.024354 -0.816126 0.577349 0.816126 0.024354 0.577349 -0.024354 0.816126 0.577349 -0.816126 -0.024354 0.577349 -0.816126 -0.024354 0.577349 -0.024354 0.816126 -0.577349 -0.024354 0.816126 -0.577349 -0.816126 -0.024354 0.577349 0.024354 -0.816126 0.577349 -0.816126 -0.024354 0.577349 0.816126 0.024354 0.577349 -0.024354 0.816126 " />
								<TextureCoordinate point="0.2878 0.5750 0.3763 0.5750 0.3763 0.9562 0.2878 0.9562 0.2878 0.5750 0.3763 0.5750 0.3763 0.9562 0.2878 0.9562 0.2878 0.5750 0.3763 0.5750 0.3763 0.9562 0.2878 0.9562 0.2878 0.5750 0.3763 0.5750 0.3763 0.9562 0.2878 0.9562 0.3763 0.5750 0.3763 0.9562 0.2878 0.5750 0.2878 0.9562 " />
							</IndexedTriangleSet>
						</Shape>
					</Group>
				</Transform>
			</Transform>
			<Transform DEF="tail_TRANSFORM"
			           translation="0.000000 0.445640 -0.857786"
			           scale="1.000000 1.000000 1.000000"
			           rotation="0.000000 1.000000 0.000000 0.000000"
			           >
				<Transform DEF="tail_ifs_TRANSFORM"
				           translation="0.000000 0.000000 0.000000"
				           scale="1.000000 1.000000 1.000000"
				           rotation="0.000000 1.000000 0.000000 0.000000"
				           >
					<Group DEF="group_ME_tail">
						<Shape>
							<Appearance>
								<Material USE="MA_Body" />
							</Appearance>
							<IndexedTriangleSet solid="false"
							                    normalPerVertex="true"
							                    index="0 1 2 0 2 3 4 5 6 4 6 7 8 9 10 8 10 11 12 13 14 12 14 15 4 16 17 4 17 15 18 5 14 18 14 19 "
							                    >
								<Coordinate point="-0.320198 -0.062558 -0.097173 -0.320198 0.062558 0.097173 -0.320198 1.088467 -0.563286 -0.320198 0.963351 -0.757632 -0.320198 0.963351 -0.757632 -0.320198 1.088467 -0.563286 0.320198 1.088467 -0.563286 0.320198 0.963351 -0.757632 0.320198 0.963351 -0.757632 0.320198 1.088467 -0.563286 0.320198 0.062558 0.097173 0.320198 -0.062558 -0.097173 0.320198 -0.062558 -0.097173 0.320198 0.062558 0.097173 -0.320198 0.062558 0.097173 -0.320198 -0.062558 -0.097173 0.320198 0.963351 -0.757632 0.320198 -0.062558 -0.097173 0.320198 1.088467 -0.563286 0.320198 0.062558 0.097173 " />
								<Normal vector="-0.577349 -0.797967 -0.172918 -0.577349 -0.172918 0.797967 -0.577349 0.797967 0.172918 -0.577349 0.172918 -0.797967 -0.577349 0.172918 -0.797967 -0.577349 0.797967 0.172918 0.577349 0.797967 0.172918 0.577349 0.172918 -0.797967 0.577349 0.172918 -0.797967 0.577349 0.797967 0.172918 0.577349 -0.172918 0.797967 0.577349 -0.797967 -0.172918 0.577349 -0.797967 -0.172918 0.577349 -0.172918 0.797967 -0.577349 -0.172918 0.797967 -0.577349 -0.797967 -0.172918 0.577349 0.172918 -0.797967 0.577349 -0.797967 -0.172918 0.577349 0.797967 0.172918 0.577349 -0.172918 0.797967 " />
								<TextureCoordinate point="0.0242 0.5750 0.2258 0.5750 0.2258 0.9562 0.0242 0.9562 0.0242 0.5750 0.2258 0.5750 0.2258 0.9562 0.0242 0.9562 0.0242 0.5750 0.2258 0.5750 0.2258 0.9562 0.0242 0.9562 0.0242 0.5750 0.2258 0.5750 0.2258 0.9562 0.0242 0.9562 0.2258 0.5750 0.2258 0.9562 0.0242 0.5750 0.0242 0.9562 " />
							</IndexedTriangleSet>
						</Shape>
					</Group>
				</Transform>
				<Transform DEF="Cube_006_TRANSFORM"
				           translation="0.000000 -0.000000 -0.000000"
				           scale="1.000000 1.000000 1.000000"
				           rotation="0.000000 1.000000 0.000000 0.000000"
				           >
					<Transform DEF="Cube_006_ifs_TRANSFORM"
					           translation="0.000000 0.000000 0.000000"
					           scale="1.000000 1.000000 1.000000"
					           rotation="0.000000 1.000000 0.000000 0.000000"
					           >
						<Group DEF="group_ME_Cube_006">
							<Shape>
								<Appearance>
									<Material USE="MA_Body" />
								</Appearance>
								<IndexedTriangleSet solid="false"
								                    normalPerVertex="true"
								                    index="0 1 2 0 2 3 4 5 6 4 6 7 8 9 10 8 10 11 12 13 14 12 14 15 4 16 17 4 17 15 18 5 14 18 14 19 "
								                    >
									<Coordinate point="-0.227813 0.060304 -0.163515 -0.227813 0.173810 0.012798 0.408412 1.049204 -0.550763 0.408412 0.935697 -0.727075 0.408412 0.935697 -0.727075 0.408412 1.049204 -0.550763 0.864038 0.815090 -0.400045 0.864038 0.701584 -0.576358 0.864038 0.701584 -0.576358 0.864038 0.815090 -0.400045 0.227813 -0.060304 0.163515 0.227813 -0.173810 -0.012798 0.227813 -0.173810 -0.012798 0.227813 -0.060304 0.163515 -0.227813 0.173810 0.012798 -0.227813 0.060304 -0.163515 0.864038 0.701584 -0.576358 0.227813 -0.173810 -0.012798 0.864038 0.815090 -0.400045 0.227813 -0.060304 0.163515 " />
									<Normal vector="-0.793695 -0.473586 -0.381726 -0.793695 0.151402 0.589129 -0.191565 0.979858 0.055788 -0.191565 0.354839 -0.915067 -0.191565 0.354839 -0.915067 -0.191565 0.979858 0.055788 0.793695 0.473586 0.381726 0.793695 -0.151402 -0.589129 0.793695 -0.151402 -0.589129 0.793695 0.473586 0.381726 0.191565 -0.354839 0.915067 0.191565 -0.979858 -0.055788 0.191565 -0.979858 -0.055788 0.191565 -0.354839 0.915067 -0.793695 0.151402 0.589129 -0.793695 -0.473586 -0.381726 0.793695 -0.151402 -0.589129 0.191565 -0.979858 -0.055788 0.793695 0.473586 0.381726 0.191565 -0.354839 0.915067 " />
									<TextureCoordinate point="0.0242 0.5750 0.2258 0.5750 0.2258 0.9562 0.0242 0.9562 0.0242 0.5750 0.2258 0.5750 0.2258 0.9562 0.0242 0.9562 0.0242 0.5750 0.2258 0.5750 0.2258 0.9562 0.0242 0.9562 0.0242 0.5750 0.2258 0.5750 0.2258 0.9562 0.0242 0.9562 0.2258 0.5750 0.2258 0.9562 0.0242 0.5750 0.0242 0.9562 " />
								</IndexedTriangleSet>
							</Shape>
						</Group>
					</Transform>
				</Transform>
				<Transform DEF="Cube_008_TRANSFORM"
				           translation="0.000000 -0.000000 0.000000"
				           scale="1.000000 1.000000 1.000000"
				           rotation="0.000000 1.000000 0.000000 0.000000"
				           >
					<Transform DEF="Cube_008_ifs_TRANSFORM"
					           translation="0.000000 0.000000 0.000000"
					           scale="1.000000 1.000000 1.000000"
					           rotation="0.000000 1.000000 0.000000 0.000000"
					           >
						<Group DEF="group_ME_Cube_011">
							<Shape>
								<Appearance>
									<Material USE="MA_Body" />
								</Appearance>
								<IndexedTriangleSet solid="false"
								                    normalPerVertex="true"
								                    index="0 1 2 0 2 3 4 5 6 4 6 7 8 9 10 8 10 11 12 13 14 12 14 15 4 13 16 4 16 17 18 19 14 18 14 7 "
								                    >
									<Coordinate point="0.227813 0.060304 -0.163515 -0.408412 0.935697 -0.727075 -0.408412 1.049204 -0.550763 0.227813 0.173810 0.012798 -0.408412 0.935697 -0.727075 -0.864038 0.701584 -0.576358 -0.864038 0.815090 -0.400045 -0.408412 1.049204 -0.550763 -0.864038 0.701584 -0.576358 -0.227813 -0.173810 -0.012798 -0.227813 -0.060304 0.163515 -0.864038 0.815090 -0.400045 -0.227813 -0.173810 -0.012798 0.227813 0.060304 -0.163515 0.227813 0.173810 0.012798 -0.227813 -0.060304 0.163515 -0.227813 -0.173810 -0.012798 -0.864038 0.701584 -0.576358 -0.864038 0.815090 -0.400045 -0.227813 -0.060304 0.163515 " />
									<Normal vector="0.793695 -0.473586 -0.381726 0.191565 0.354839 -0.915067 0.191565 0.979858 0.055788 0.793695 0.151402 0.589129 0.191565 0.354839 -0.915067 -0.793695 -0.151402 -0.589129 -0.793695 0.473586 0.381726 0.191565 0.979858 0.055788 -0.793695 -0.151402 -0.589129 -0.191565 -0.979858 -0.055788 -0.191565 -0.354839 0.915067 -0.793695 0.473586 0.381726 -0.191565 -0.979858 -0.055788 0.793695 -0.473586 -0.381726 0.793695 0.151402 0.589129 -0.191565 -0.354839 0.915067 -0.191565 -0.979858 -0.055788 -0.793695 -0.151402 -0.589129 -0.793695 0.473586 0.381726 -0.191565 -0.354839 0.915067 " />
									<TextureCoordinate point="0.0242 0.5750 0.0242 0.9562 0.2258 0.9562 0.2258 0.5750 0.0242 0.5750 0.0242 0.9562 0.2258 0.9562 0.2258 0.5750 0.0242 0.5750 0.0242 0.9562 0.2258 0.9562 0.2258 0.5750 0.0242 0.5750 0.0242 0.9562 0.2258 0.9562 0.2258 0.5750 0.2258 0.9562 0.2258 0.5750 0.0242 0.5750 0.0242 0.9562 " />
								</IndexedTriangleSet>
							</Shape>
						</Group>
					</Transform>
				</Transform>
			</Transform>
			<Transform DEF="Cube_004_TRANSFORM"
			           translation="-0.253194 -0.820784 0.417892"
			           scale="1.000000 1.000000 1.000000"
			           rotation="0.000000 1.000000 0.000000 0.000000"
			           >
				<Transform DEF="Cube_004_ifs_TRANSFORM"
				           translation="0.000000 0.000000 0.000000"
				           scale="1.000000 1.000000 1.000000"
				           rotation="0.000000 1.000000 0.000000 0.000000"
				           >
					<Group DEF="group_ME_Cube_007">
						<Shape>
							<Appearance>
								<Material USE="MA_Body" />
							</Appearance>
							<IndexedTriangleSet solid="false"
							                    normalPerVertex="true"
							                    index="0 1 2 0 2 3 4 5 6 4 6 7 8 9 10 8 10 11 12 13 14 12 14 15 16 17 18 16 18 19 20 21 22 20 22 23 24 25 26 24 26 27 28 29 30 28 30 31 16 32 33 16 33 34 35 36 37 35 37 38 39 40 41 39 41 42 43 17 44 43 44 45 46 47 48 46 48 7 39 25 49 39 49 50 51 52 48 51 48 53 54 55 56 54 56 23 "
							                    >
								<Coordinate point="0.193096 -0.380652 0.092706 0.270420 -0.063726 0.008471 0.251581 -0.008818 0.197762 0.174258 -0.325744 0.281998 0.063452 -0.021927 -0.024252 -0.263702 0.044144 -0.075976 -0.282540 0.099052 0.113316 0.044613 0.032981 0.165040 -0.263702 0.044144 -0.075976 -0.341026 -0.272782 0.008260 -0.359864 -0.217874 0.197552 -0.282540 0.099052 0.113316 -0.013872 -0.338854 0.059984 0.193096 -0.380652 0.092706 0.174258 -0.325744 0.281998 -0.032711 -0.283946 0.249276 0.075572 -0.057254 -0.146038 -0.001752 -0.374180 -0.061802 -0.328905 -0.308109 -0.113526 -0.251581 0.008818 -0.197762 0.044613 0.032981 0.165040 -0.032711 -0.283946 0.249276 0.174258 -0.325744 0.281998 0.251581 -0.008818 0.197762 -0.001752 -0.374180 -0.061802 0.205216 -0.415979 -0.029080 0.193096 -0.380652 0.092706 -0.013872 -0.338854 0.059984 -0.251581 0.008818 -0.197762 -0.328905 -0.308109 -0.113526 -0.341026 -0.272782 0.008260 -0.263702 0.044144 -0.075976 -0.251581 0.008818 -0.197762 -0.263702 0.044144 -0.075976 0.063452 -0.021927 -0.024252 0.205216 -0.415979 -0.029080 0.282540 -0.099052 -0.113316 0.270420 -0.063726 0.008471 0.193096 -0.380652 0.092706 0.282540 -0.099052 -0.113316 0.075572 -0.057254 -0.146038 0.063452 -0.021927 -0.024252 0.270420 -0.063726 0.008471 -0.328905 -0.308109 -0.113526 -0.013872 -0.338854 0.059984 -0.341026 -0.272782 0.008260 -0.282540 0.099052 0.113316 -0.359864 -0.217874 0.197552 -0.032711 -0.283946 0.249276 -0.001752 -0.374180 -0.061802 0.075572 -0.057254 -0.146038 -0.341026 -0.272782 0.008260 -0.013872 -0.338854 0.059984 -0.359864 -0.217874 0.197552 0.270420 -0.063726 0.008471 0.063452 -0.021927 -0.024252 0.044613 0.032981 0.165040 " />
								<Normal vector="0.522629 -0.803461 0.285073 0.847194 0.526811 -0.068484 0.636799 0.590228 0.496048 0.371807 -0.495895 0.784722 0.229499 0.940642 -0.250008 -0.522629 0.803461 -0.285073 -0.481674 0.816126 0.319193 0.094974 0.861232 0.499222 -0.522629 0.803461 -0.285073 -0.847194 -0.526811 0.068484 -0.746666 -0.269997 0.607898 -0.481674 0.816126 0.319193 -0.229499 -0.940642 0.250008 0.522629 -0.803461 0.285073 0.371807 -0.495895 0.784722 -0.229560 -0.469039 0.852809 0.229560 0.469039 -0.852809 -0.094974 -0.861232 -0.499222 -0.636799 -0.590228 -0.496048 -0.371807 0.495895 -0.784722 0.094974 0.861232 0.499222 -0.229560 -0.469039 0.852809 0.371807 -0.495895 0.784722 0.636799 0.590228 0.496048 -0.094974 -0.861232 -0.499222 0.481674 -0.816126 -0.319193 0.522629 -0.803461 0.285073 -0.229499 -0.940642 0.250008 -0.371807 0.495895 -0.784722 -0.636799 -0.590228 -0.496048 -0.847194 -0.526811 0.068484 -0.522629 0.803461 -0.285073 -0.371807 0.495895 -0.784722 -0.522629 0.803461 -0.285073 0.229499 0.940642 -0.250008 0.481674 -0.816126 -0.319193 0.746666 0.269997 -0.607898 0.847194 0.526811 -0.068484 0.522629 -0.803461 0.285073 0.746666 0.269997 -0.607898 0.229560 0.469039 -0.852809 0.229499 0.940642 -0.250008 0.847194 0.526811 -0.068484 -0.636799 -0.590228 -0.496048 -0.229499 -0.940642 0.250008 -0.847194 -0.526811 0.068484 -0.481674 0.816126 0.319193 -0.746666 -0.269997 0.607898 -0.229560 -0.469039 0.852809 -0.094974 -0.861232 -0.499222 0.229560 0.469039 -0.852809 -0.847194 -0.526811 0.068484 -0.229499 -0.940642 0.250008 -0.746666 -0.269997 0.607898 0.847194 0.526811 -0.068484 0.229499 0.940642 -0.250008 0.094974 0.861232 0.499222 " />
								<TextureCoordinate point="0.0337 0.5408 0.0337 0.9429 0.2284 0.9429 0.2284 0.5408 0.0337 0.5408 0.0337 0.9429 0.2284 0.9429 0.2284 0.5408 0.0337 0.5408 0.0337 0.9429 0.2284 0.9429 0.2284 0.5408 0.2316 0.0413 0.0305 0.0413 0.0305 0.4306 0.2316 0.4306 0.0337 0.5408 0.0337 0.9429 0.2284 0.9429 0.2284 0.5408 0.0337 0.5408 0.0337 0.9429 0.2284 0.9429 0.2284 0.5408 0.0337 0.5408 0.0337 0.9429 0.2284 0.9429 0.2284 0.5408 0.0337 0.5408 0.0337 0.9429 0.2284 0.9429 0.2284 0.5408 0.0337 0.9429 0.2284 0.9429 0.2284 0.5408 0.0337 0.5408 0.0337 0.9429 0.2284 0.9429 0.2284 0.5408 0.0337 0.5408 0.0337 0.9429 0.2284 0.9429 0.2284 0.5408 0.0337 0.5408 0.2284 0.9429 0.2284 0.5408 0.0337 0.5408 0.0337 0.9429 0.2284 0.9429 0.2284 0.9429 0.2284 0.5408 0.0337 0.5408 0.0337 0.9429 0.2284 0.5408 0.0337 0.5408 0.0337 0.9429 0.2284 0.9429 " />
							</IndexedTriangleSet>
						</Shape>
					</Group>
				</Transform>
			</Transform>
			<Transform DEF="Cube_005_TRANSFORM"
			           translation="-0.323339 -1.079282 0.369618"
			           scale="1.000000 1.000000 1.000000"
			           rotation="0.000000 1.000000 0.000000 0.000000"
			           >
				<Transform DEF="Cube_005_ifs_TRANSFORM"
				           translation="0.000000 0.000000 0.000000"
				           scale="1.000000 1.000000 1.000000"
				           rotation="0.000000 1.000000 0.000000 0.000000"
				           >
					<Group DEF="group_ME_Cube_008">
						<Shape>
							<Appearance>
								<Material USE="MA_Body" />
							</Appearance>
							<IndexedTriangleSet solid="false"
							                    normalPerVertex="true"
							                    index="0 1 2 0 2 3 4 5 6 4 6 7 8 9 10 8 10 11 12 13 14 12 14 15 4 13 16 4 16 17 18 19 14 18 14 7 "
							                    >
								<Coordinate point="0.085846 -0.015237 -0.137137 0.072192 0.024560 0.000060 0.053990 -0.050044 0.019889 0.067644 -0.089841 -0.117308 0.072192 0.024560 0.000060 -0.053990 0.050044 -0.019889 -0.072192 -0.024560 -0.000060 0.053990 -0.050044 0.019889 -0.053990 0.050044 -0.019889 -0.040336 0.010247 -0.157087 -0.058538 -0.064357 -0.137258 -0.072192 -0.024560 -0.000060 -0.040336 0.010247 -0.157087 0.085846 -0.015237 -0.137137 0.067644 -0.089841 -0.117308 -0.058538 -0.064357 -0.137258 -0.040336 0.010247 -0.157087 -0.053990 0.050044 -0.019889 -0.072192 -0.024560 -0.000060 -0.058538 -0.064357 -0.137258 " />
								<Normal vector="0.746666 0.269997 -0.607898 0.636799 0.590228 0.496048 0.371807 -0.495895 0.784722 0.481674 -0.816126 -0.319193 0.636799 0.590228 0.496048 -0.481674 0.816126 0.319193 -0.746666 -0.269997 0.607898 0.371807 -0.495895 0.784722 -0.481674 0.816126 0.319193 -0.371807 0.495895 -0.784722 -0.636799 -0.590228 -0.496048 -0.746666 -0.269997 0.607898 -0.371807 0.495895 -0.784722 0.746666 0.269997 -0.607898 0.481674 -0.816126 -0.319193 -0.636799 -0.590228 -0.496048 -0.371807 0.495895 -0.784722 -0.481674 0.816126 0.319193 -0.746666 -0.269997 0.607898 -0.636799 -0.590228 -0.496048 " />
								<TextureCoordinate point="0.2706 0.0477 0.2706 0.4289 0.3778 0.4289 0.3778 0.0477 0.2706 0.0477 0.2706 0.4289 0.3778 0.4289 0.3778 0.0477 0.2706 0.0477 0.2706 0.4289 0.3778 0.4289 0.3778 0.0477 0.2706 0.0477 0.2706 0.4289 0.3778 0.4289 0.3778 0.0477 0.3778 0.4289 0.3778 0.0477 0.2706 0.0477 0.2706 0.4289 " />
							</IndexedTriangleSet>
						</Shape>
					</Group>
				</Transform>
			</Transform>
			<Transform DEF="orl2_TRANSFORM"
			           translation="-0.544036 -0.268686 0.938646"
			           scale="1.000000 1.000000 1.000000"
			           rotation="0.000000 1.000000 0.000000 0.000000"
			           >
				<Transform DEF="orl2_ifs_TRANSFORM"
				           translation="0.000000 0.000000 0.000000"
				           scale="1.000000 1.000000 1.000000"
				           rotation="0.000000 1.000000 0.000000 0.000000"
				           >
					<Group DEF="group_ME_orl2">
						<Shape>
							<Appearance>
								<Material USE="MA_Body" />
							</Appearance>
							<IndexedTriangleSet solid="false"
							                    normalPerVertex="true"
							                    index="0 1 2 0 2 3 4 5 6 4 6 7 8 9 10 8 10 11 12 13 14 12 14 15 4 13 16 4 16 17 18 19 14 18 14 7 "
							                    >
								<Coordinate point="0.143593 -0.115292 0.331487 0.197635 -0.078050 0.025397 0.158482 0.136710 0.044614 0.104439 0.099468 0.350704 0.197635 -0.078050 0.025397 -0.158482 -0.136710 -0.044614 -0.197635 0.078050 -0.025397 0.158482 0.136710 0.044614 -0.158482 -0.136710 -0.044614 -0.212524 -0.173952 0.261475 -0.251677 0.040808 0.280692 -0.197635 0.078050 -0.025397 -0.212524 -0.173952 0.261475 0.143593 -0.115292 0.331487 0.104439 0.099468 0.350704 -0.251677 0.040808 0.280692 -0.212524 -0.173952 0.261475 -0.158482 -0.136710 -0.044614 -0.197635 0.078050 -0.025397 -0.251677 0.040808 0.280692 " />
								<Normal vector="0.562731 -0.542344 0.623829 0.762047 -0.404981 -0.505173 0.555742 0.726585 -0.403943 0.356426 0.589221 0.725089 0.762047 -0.404981 -0.505173 -0.356426 -0.589221 -0.725089 -0.562731 0.542344 -0.623829 0.555742 0.726585 -0.403943 -0.356426 -0.589221 -0.725089 -0.555742 -0.726585 0.403943 -0.762047 0.404981 0.505173 -0.562731 0.542344 -0.623829 -0.555742 -0.726585 0.403943 0.562731 -0.542344 0.623829 0.356426 0.589221 0.725089 -0.762047 0.404981 0.505173 -0.555742 -0.726585 0.403943 -0.356426 -0.589221 -0.725089 -0.562731 0.542344 -0.623829 -0.762047 0.404981 0.505173 " />
								<TextureCoordinate point="0.0216 0.5419 0.0216 0.9659 0.2293 0.9659 0.2293 0.5419 0.0216 0.5419 0.0216 0.9659 0.2293 0.9659 0.2293 0.5419 0.0216 0.5419 0.0216 0.9659 0.2293 0.9659 0.2293 0.5419 0.0216 0.5419 0.0216 0.9659 0.2293 0.9659 0.2293 0.5419 0.2293 0.9659 0.2293 0.5419 0.0216 0.5419 0.0216 0.9659 " />
							</IndexedTriangleSet>
						</Shape>
					</Group>
				</Transform>
			</Transform>
			<Transform DEF="arm2_TRANSFORM"
			           translation="-0.822814 -0.452853 -0.949844"
			           scale="1.000000 1.000000 1.000000"
			           rotation="0.000000 1.000000 0.000000 0.000000"
			           >
				<Transform DEF="arm2_ifs_TRANSFORM"
				           translation="0.000000 0.000000 0.000000"
				           scale="1.000000 1.000000 1.000000"
				           rotation="0.000000 1.000000 0.000000 0.000000"
				           >
					<Group DEF="group_ME_arm2">
						<Shape>
							<Appearance>
								<Material USE="MA_Body" />
							</Appearance>
							<IndexedTriangleSet solid="false"
							                    normalPerVertex="true"
							                    index="0 1 2 0 2 3 4 5 6 4 6 7 8 9 10 8 10 11 12 13 14 12 14 15 4 13 16 4 16 17 18 19 14 18 14 7 "
							                    >
								<Coordinate point="0.000000 -0.281043 0.117115 0.000000 0.133672 -0.273556 0.000000 0.281043 -0.117115 0.000000 -0.133672 0.273556 0.000000 0.133672 -0.273556 -0.598734 0.133672 -0.273556 -0.598734 0.281043 -0.117115 0.000000 0.281043 -0.117115 -0.598734 0.133672 -0.273556 -0.598734 -0.281043 0.117115 -0.598734 -0.133672 0.273556 -0.598734 0.281043 -0.117115 -0.598734 -0.281043 0.117115 0.000000 -0.281043 0.117115 0.000000 -0.133672 0.273556 -0.598734 -0.133672 0.273556 -0.598734 -0.281043 0.117115 -0.598734 0.133672 -0.273556 -0.598734 0.281043 -0.117115 -0.598734 -0.133672 0.273556 " />
								<Normal vector="0.577349 -0.816126 -0.024354 0.577349 0.024354 -0.816126 0.577349 0.816126 0.024354 0.577349 -0.024354 0.816126 0.577349 0.024354 -0.816126 -0.577349 0.024354 -0.816126 -0.577349 0.816126 0.024354 0.577349 0.816126 0.024354 -0.577349 0.024354 -0.816126 -0.577349 -0.816126 -0.024354 -0.577349 -0.024354 0.816126 -0.577349 0.816126 0.024354 -0.577349 -0.816126 -0.024354 0.577349 -0.816126 -0.024354 0.577349 -0.024354 0.816126 -0.577349 -0.024354 0.816126 -0.577349 -0.816126 -0.024354 -0.577349 0.024354 -0.816126 -0.577349 0.816126 0.024354 -0.577349 -0.024354 0.816126 " />
								<TextureCoordinate point="0.2878 0.5750 0.2878 0.9562 0.3763 0.9562 0.3763 0.5750 0.2878 0.5750 0.2878 0.9562 0.3763 0.9562 0.3763 0.5750 0.2878 0.5750 0.2878 0.9562 0.3763 0.9562 0.3763 0.5750 0.2878 0.5750 0.2878 0.9562 0.3763 0.9562 0.3763 0.5750 0.3763 0.9562 0.3763 0.5750 0.2878 0.5750 0.2878 0.9562 " />
							</IndexedTriangleSet>
						</Shape>
					</Group>
				</Transform>
			</Transform>
		</Transform>
	</Scene>
</X3D>