<?xml version="1.0" encoding="UTF-8"?>
<!DOCTYPE X3D PUBLIC "ISO//Web3D//DTD X3D 3.0//EN" "http://www.web3d.org/specifications/x3d-3.0.dtd">
<X3D version="3.0" profile="Immersive" xmlns:xsd="http://www.w3.org/2001/XMLSchema-instance" xsd:noNamespaceSchemaLocation="http://www.web3d.org/specifications/x3d-3.0.xsd">
	<head>
		<meta name="filename" content="spritzee.x3d" />
		<meta name="generator" content="Blender 2.93.18" />
	</head>
	<Scene>
		<NavigationInfo headlight="true"
		                visibilityLimit="0.0"
		                type='"EXAMINE", "ANY"'
		                avatarSize="0.25, 1.75, 0.75"
		                />
		<Background DEF="WO_World"
		            groundColor="0.051 0.051 0.051"
		            skyColor="0.051 0.051 0.051"
		            />
		<Transform DEF="body_TRANSFORM"
		           translation="0.000000 -0.059627 0.297219"
		           scale="1.000000 1.000000 1.000000"
		           rotation="0.000000 0.000000 1.000000 3.141593"
		           >
			<Transform DEF="body_ifs_TRANSFORM"
			           translation="0.000000 0.000000 0.000000"
			           scale="1.000000 1.000000 1.000000"
			           rotation="0.000000 1.000000 0.000000 0.000000"
			           >
				<Group DEF="group_ME_body">
					<Shape>
						<Appearance>
							<Material DEF="MA_Body"
							          diffuseColor="0.800 0.800 0.800"
							          specularColor="0.401 0.401 0.401"
							          emissiveColor="0.000 0.000 0.000"
							          ambientIntensity="0.000"
							          shininess="0.500"
							          transparency="0.0"
							          />
						</Appearance>
						<IndexedTriangleSet solid="false"
						                    normalPerVertex="true"
						                    index="0 1 2 0 2 3 4 5 6 4 6 7 8 9 10 8 10 11 12 13 14 12 14 15 4 16 17 4 17 15 18 5 14 18 14 19 "
						                    >
							<Coordinate point="-0.856823 -0.785179 0.052113 -0.856823 -0.675026 1.711777 -0.856823 0.895332 1.607551 -0.856823 0.785179 -0.052113 -0.856823 0.785179 -0.052113 -0.856823 0.895332 1.607551 0.856823 0.895332 1.607551 0.856823 0.785179 -0.052113 0.856823 0.785179 -0.052113 0.856823 0.895332 1.607551 0.856823 -0.675026 1.711777 0.856823 -0.785179 0.052113 0.856823 -0.785179 0.052113 0.856823 -0.675026 1.711777 -0.856823 -0.675026 1.711777 -0.856823 -0.785179 0.052113 0.856823 0.785179 -0.052113 0.856823 -0.785179 0.052113 0.856823 0.895332 1.607551 0.856823 -0.675026 1.711777 " />
							<Normal vector="-0.577349 -0.614307 -0.537828 -0.577349 -0.537828 0.614307 -0.577349 0.614307 0.537828 -0.577349 0.537828 -0.614307 -0.577349 0.537828 -0.614307 -0.577349 0.614307 0.537828 0.577349 0.614307 0.537828 0.577349 0.537828 -0.614307 0.577349 0.537828 -0.614307 0.577349 0.614307 0.537828 0.577349 -0.537828 0.614307 0.577349 -0.614307 -0.537828 0.577349 -0.614307 -0.537828 0.577349 -0.537828 0.614307 -0.577349 -0.537828 0.614307 -0.577349 -0.614307 -0.537828 0.577349 0.537828 -0.614307 0.577349 -0.614307 -0.537828 0.577349 0.614307 0.537828 0.577349 -0.537828 0.614307 " />
							<TextureCoordinate point="0.0248 0.0238 0.4729 0.0238 0.4729 0.9762 0.0248 0.9762 0.0248 0.0238 0.4729 0.0238 0.4729 0.9762 0.0248 0.9762 0.0248 0.0238 0.4729 0.0238 0.4729 0.9762 0.0248 0.9762 0.0248 0.0238 0.4729 0.0238 0.4729 0.9762 0.0248 0.9762 0.4729 0.0238 0.4729 0.9762 0.0248 0.0238 0.0248 0.9762 " />
						</IndexedTriangleSet>
					</Shape>
				</Group>
			</Transform>
			<Transform DEF="Cube_001_TRANSFORM"
			           translation="0.000000 -0.679359 0.955651"
			           scale="1.000000 1.000000 1.000000"
			           rotation="0.000000 1.000000 0.000000 0.000000"
			           >
				<Transform DEF="Cube_001_ifs_TRANSFORM"
				           translation="0.000000 0.000000 0.000000"
				           scale="1.000000 1.000000 1.000000"
				           rotation="0.000000 1.000000 0.000000 0.000000"
				           >
					<Group DEF="group_ME_Cube_002">
						<Shape>
							<Appearance>
								<Material USE="MA_Body" />
							</Appearance>
							<IndexedTriangleSet solid="false"
							                    normalPerVertex="true"
							                    index="0 1 2 0 2 3 4 5 6 4 6 7 8 9 10 8 10 11 12 13 14 12 14 15 4 16 17 4 17 15 18 5 14 18 14 19 "
							                    >
								<Coordinate point="-0.751677 -0.196580 -0.594447 -0.751677 -0.117638 0.614957 -0.751677 0.039471 0.604702 -0.751677 -0.039471 -0.604702 -0.751677 -0.039471 -0.604702 -0.751677 0.039471 0.604702 0.751677 0.039471 0.604702 0.751677 -0.039471 -0.604702 0.751677 -0.039471 -0.604702 0.751677 0.039471 0.604702 0.751677 -0.117638 0.614957 0.751677 -0.196580 -0.594447 0.751677 -0.196580 -0.594447 0.751677 -0.117638 0.614957 -0.751677 -0.117638 0.614957 -0.751677 -0.196580 -0.594447 0.751677 -0.039471 -0.604702 0.751677 -0.196580 -0.594447 0.751677 0.039471 0.604702 0.751677 -0.117638 0.614957 " />
								<Normal vector="-0.577349 -0.613727 -0.538499 -0.577349 -0.538499 0.613727 -0.577349 0.613727 0.538499 -0.577349 0.538499 -0.613727 -0.577349 0.538499 -0.613727 -0.577349 0.613727 0.538499 0.577349 0.613727 0.538499 0.577349 0.538499 -0.613727 0.577349 0.538499 -0.613727 0.577349 0.613727 0.538499 0.577349 -0.538499 0.613727 0.577349 -0.613727 -0.538499 0.577349 -0.613727 -0.538499 0.577349 -0.538499 0.613727 -0.577349 -0.538499 0.613727 -0.577349 -0.613727 -0.538499 0.577349 0.538499 -0.613727 0.577349 -0.613727 -0.538499 0.577349 0.613727 0.538499 0.577349 -0.538499 0.613727 " />
								<TextureCoordinate point="0.5388 0.5376 0.9635 0.5376 0.9635 0.9647 0.5388 0.9647 0.5388 0.5376 0.9635 0.5376 0.9635 0.9647 0.5388 0.9647 0.5388 0.5376 0.9635 0.5376 0.9635 0.9647 0.5388 0.9647 0.5388 0.5376 0.9635 0.5376 0.9635 0.9647 0.5388 0.9647 0.9635 0.5376 0.9635 0.9647 0.5388 0.5376 0.5388 0.9647 " />
							</IndexedTriangleSet>
						</Shape>
					</Group>
				</Transform>
				<Transform DEF="Cube_002_TRANSFORM"
				           translation="0.000000 0.079645 0.069120"
				           scale="1.000000 1.000000 1.000000"
				           rotation="0.000000 1.000000 0.000000 0.000000"
				           >
					<Transform DEF="Cube_002_ifs_TRANSFORM"
					           translation="0.000000 0.000000 0.000000"
					           scale="1.000000 1.000000 1.000000"
					           rotation="0.000000 1.000000 0.000000 0.000000"
					           >
						<Group DEF="group_ME_Cube_003">
							<Shape>
								<Appearance>
									<Material USE="MA_Body" />
								</Appearance>
								<IndexedTriangleSet solid="false"
								                    normalPerVertex="true"
								                    index="0 1 2 0 2 3 4 5 6 4 6 7 8 9 10 8 10 11 12 13 14 12 14 15 4 16 17 4 17 15 18 5 14 18 14 19 "
								                    >
									<Coordinate point="-0.347269 -0.431273 -0.527235 -0.347269 -0.512236 0.448985 -0.347269 -0.040482 0.488110 -0.347269 0.040482 -0.488110 -0.347269 0.040482 -0.488110 -0.347269 -0.040482 0.488110 0.347269 -0.040482 0.488110 0.347269 0.040482 -0.488110 0.347269 0.040482 -0.488110 0.347269 -0.040482 0.488110 0.347269 -0.512236 0.448985 0.347269 -0.431273 -0.527235 0.347269 -0.431273 -0.527235 0.347269 -0.512236 0.448985 -0.347269 -0.512236 0.448985 -0.347269 -0.431273 -0.527235 0.347269 0.040482 -0.488110 0.347269 -0.431273 -0.527235 0.347269 -0.040482 0.488110 0.347269 -0.512236 0.448985 " />
									<Normal vector="-0.577349 -0.527635 -0.623066 -0.577349 -0.623066 0.527635 -0.577349 0.527635 0.623066 -0.577349 0.623066 -0.527635 -0.577349 0.623066 -0.527635 -0.577349 0.527635 0.623066 0.577349 0.527635 0.623066 0.577349 0.623066 -0.527635 0.577349 0.623066 -0.527635 0.577349 0.527635 0.623066 0.577349 -0.623066 0.527635 0.577349 -0.527635 -0.623066 0.577349 -0.527635 -0.623066 0.577349 -0.623066 0.527635 -0.577349 -0.623066 0.527635 -0.577349 -0.527635 -0.623066 0.577349 0.623066 -0.527635 0.577349 -0.527635 -0.623066 0.577349 0.527635 0.623066 0.577349 -0.623066 0.527635 " />
									<TextureCoordinate point="0.5388 0.5376 0.9635 0.5376 0.9635 0.9647 0.5388 0.9647 0.5388 0.5376 0.9635 0.5376 0.9635 0.9647 0.5388 0.9647 0.5388 0.5376 0.9635 0.5376 0.9635 0.9647 0.5388 0.9647 0.5388 0.5376 0.9635 0.5376 0.9635 0.9647 0.5388 0.9647 0.9635 0.5376 0.9635 0.9647 0.5388 0.5376 0.5388 0.9647 " />
								</IndexedTriangleSet>
							</Shape>
						</Group>
					</Transform>
					<Transform DEF="Cube_003_TRANSFORM"
					           translation="0.000000 -0.283943 -0.002973"
					           scale="1.000000 1.000000 1.000000"
					           rotation="0.000000 1.000000 0.000000 0.000000"
					           >
						<Transform DEF="Cube_003_ifs_TRANSFORM"
						           translation="0.000000 0.000000 0.000000"
						           scale="1.000000 1.000000 1.000000"
						           rotation="0.000000 1.000000 0.000000 0.000000"
						           >
							<Group DEF="group_ME_Cube_004">
								<Shape>
									<Appearance>
										<Material USE="MA_Body" />
									</Appearance>
									<IndexedTriangleSet solid="false"
									                    normalPerVertex="true"
									                    index="0 1 2 0 2 3 4 5 6 4 6 7 8 9 10 8 10 11 12 13 14 12 14 15 4 16 17 4 17 15 18 5 14 18 14 19 "
									                    >
										<Coordinate point="-0.239065 -0.337979 -0.514341 -0.239065 -0.583918 0.194465 -0.239065 -0.122970 0.354403 -0.239065 0.122970 -0.354403 -0.239065 0.122970 -0.354403 -0.239065 -0.122970 0.354403 0.239065 -0.122970 0.354403 0.239065 0.122970 -0.354403 0.239065 0.122970 -0.354403 0.239065 -0.122970 0.354403 0.239065 -0.583918 0.194465 0.239065 -0.337979 -0.514341 0.239065 -0.337979 -0.514341 0.239065 -0.583918 0.194465 -0.239065 -0.583918 0.194465 -0.239065 -0.337979 -0.514341 0.239065 0.122970 -0.354403 0.239065 -0.337979 -0.514341 0.239065 -0.122970 0.354403 0.239065 -0.583918 0.194465 " />
										<Normal vector="-0.577349 -0.356182 -0.734703 -0.577349 -0.734703 0.356182 -0.577349 0.356182 0.734703 -0.577349 0.734703 -0.356182 -0.577349 0.734703 -0.356182 -0.577349 0.356182 0.734703 0.577349 0.356182 0.734703 0.577349 0.734703 -0.356182 0.577349 0.734703 -0.356182 0.577349 0.356182 0.734703 0.577349 -0.734703 0.356182 0.577349 -0.356182 -0.734703 0.577349 -0.356182 -0.734703 0.577349 -0.734703 0.356182 -0.577349 -0.734703 0.356182 -0.577349 -0.356182 -0.734703 0.577349 0.734703 -0.356182 0.577349 -0.356182 -0.734703 0.577349 0.356182 0.734703 0.577349 -0.734703 0.356182 " />
										<TextureCoordinate point="0.5388 0.5376 0.9635 0.5376 0.9635 0.9647 0.5388 0.9647 0.5388 0.5376 0.9635 0.5376 0.9635 0.9647 0.5388 0.9647 0.5388 0.5376 0.9635 0.5376 0.9635 0.9647 0.5388 0.9647 0.5388 0.5376 0.9635 0.5376 0.9635 0.9647 0.5388 0.9647 0.9635 0.5376 0.9635 0.9647 0.5388 0.5376 0.5388 0.9647 " />
									</IndexedTriangleSet>
								</Shape>
							</Group>
						</Transform>
						<Transform DEF="Cube_004_TRANSFORM"
						           translation="0.000000 -0.360676 -0.175503"
						           scale="1.000000 1.000000 1.000000"
						           rotation="0.000000 1.000000 0.000000 0.000000"
						           >
							<Transform DEF="Cube_004_ifs_TRANSFORM"
							           translation="0.000000 0.000000 0.000000"
							           scale="1.000000 1.000000 1.000000"
							           rotation="0.000000 1.000000 0.000000 0.000000"
							           >
								<Group DEF="group_ME_Cube_006">
									<Shape>
										<Appearance>
											<Material USE="MA_Body" />
										</Appearance>
										<IndexedTriangleSet solid="false"
										                    normalPerVertex="true"
										                    index="0 1 2 0 2 3 4 5 6 4 6 7 8 9 10 8 10 11 12 13 14 12 14 15 4 16 17 4 17 15 18 5 14 18 14 19 "
										                    >
											<Coordinate point="-0.152923 -0.185603 -0.388893 -0.152923 -0.430284 -0.023276 -0.152923 -0.122341 0.182809 -0.152923 0.122341 -0.182809 -0.152923 0.122341 -0.182809 -0.152923 -0.122341 0.182809 0.152923 -0.122341 0.182809 0.152923 0.122341 -0.182809 0.152923 0.122341 -0.182809 0.152923 -0.122341 0.182809 0.152923 -0.430284 -0.023276 0.152923 -0.185603 -0.388893 0.152923 -0.185603 -0.388893 0.152923 -0.430284 -0.023276 -0.152923 -0.430284 -0.023276 -0.152923 -0.185603 -0.388893 0.152923 0.122341 -0.182809 0.152923 -0.185603 -0.388893 0.152923 -0.122341 0.182809 0.152923 -0.430284 -0.023276 " />
											<Normal vector="-0.577349 -0.158696 -0.800897 -0.577349 -0.800897 0.158696 -0.577349 0.158696 0.800897 -0.577349 0.800897 -0.158696 -0.577349 0.800897 -0.158696 -0.577349 0.158696 0.800897 0.577349 0.158696 0.800897 0.577349 0.800897 -0.158696 0.577349 0.800897 -0.158696 0.577349 0.158696 0.800897 0.577349 -0.800897 0.158696 0.577349 -0.158696 -0.800897 0.577349 -0.158696 -0.800897 0.577349 -0.800897 0.158696 -0.577349 -0.800897 0.158696 -0.577349 -0.158696 -0.800897 0.577349 0.800897 -0.158696 0.577349 -0.158696 -0.800897 0.577349 0.158696 0.800897 0.577349 -0.800897 0.158696 " />
											<TextureCoordinate point="0.5388 0.5376 0.9635 0.5376 0.9635 0.9647 0.5388 0.9647 0.5388 0.5376 0.9635 0.5376 0.9635 0.9647 0.5388 0.9647 0.5388 0.5376 0.9635 0.5376 0.9635 0.9647 0.5388 0.9647 0.5388 0.5376 0.9635 0.5376 0.9635 0.9647 0.5388 0.9647 0.9635 0.5376 0.9635 0.9647 0.5388 0.5376 0.5388 0.9647 " />
										</IndexedTriangleSet>
									</Shape>
								</Group>
							</Transform>
						</Transform>
					</Transform>
				</Transform>
			</Transform>
			<Transform DEF="hair_TRANSFORM"
			           translation="0.009519 0.004848 1.616243"
			           scale="1.000000 1.000000 1.000000"
			           rotation="0.000000 1.000000 0.000000 0.000000"
			           >
				<Transform DEF="hair_ifs_TRANSFORM"
				           translation="0.000000 0.000000 0.000000"
				           scale="1.000000 1.000000 1.000000"
				           rotation="0.000000 1.000000 0.000000 0.000000"
				           >
					<Group DEF="group_ME_hair">
						<Shape>
							<Appearance>
								<Material USE="MA_Body" />
							</Appearance>
							<IndexedTriangleSet solid="false"
							                    normalPerVertex="true"
							                    index="0 1 2 0 2 3 4 5 6 4 6 7 8 9 10 8 10 11 12 13 14 12 14 15 4 16 17 4 17 15 18 5 14 18 14 19 "
							                    >
								<Coordinate point="-0.389360 -0.313937 -0.024809 -0.389360 -0.364181 0.610995 -0.276510 0.365969 0.668695 -0.276510 0.416213 0.032891 -0.276510 0.416213 0.032891 -0.276510 0.365969 0.668695 0.389360 0.263693 0.660613 0.389360 0.313937 0.024809 0.389360 0.313937 0.024809 0.389360 0.263693 0.660613 0.276510 -0.466458 0.602913 0.276510 -0.416213 -0.032891 0.276510 -0.416213 -0.032891 0.276510 -0.466458 0.602913 -0.389360 -0.364181 0.610995 -0.389360 -0.313937 -0.024809 0.389360 0.313937 0.024809 0.276510 -0.416213 -0.032891 0.389360 0.263693 0.660613 0.276510 -0.466458 0.602913 " />
								<Normal vector="-0.658528 -0.435713 -0.613575 -0.658528 -0.526658 0.537522 -0.482681 0.610981 0.627430 -0.482681 0.701956 -0.523667 -0.482681 0.701956 -0.523667 -0.482681 0.610981 0.627430 0.658528 0.435713 0.613575 0.658528 0.526658 -0.537522 0.658528 0.526658 -0.537522 0.658528 0.435713 0.613575 0.482681 -0.701956 0.523667 0.482681 -0.610981 -0.627430 0.482681 -0.610981 -0.627430 0.482681 -0.701956 0.523667 -0.658528 -0.526658 0.537522 -0.658528 -0.435713 -0.613575 0.658528 0.526658 -0.537522 0.482681 -0.610981 -0.627430 0.658528 0.435713 0.613575 0.482681 -0.701956 0.523667 " />
								<TextureCoordinate point="0.0248 0.0238 0.4729 0.0238 0.4729 0.9762 0.0248 0.9762 0.0248 0.0238 0.4729 0.0238 0.4729 0.9762 0.0248 0.9762 0.0248 0.0238 0.4729 0.0238 0.4729 0.9762 0.0248 0.9762 0.0248 0.0238 0.4729 0.0238 0.4729 0.9762 0.0248 0.9762 0.4729 0.0238 0.4729 0.9762 0.0248 0.0238 0.0248 0.9762 " />
							</IndexedTriangleSet>
						</Shape>
					</Group>
				</Transform>
				<Transform DEF="Cube_006_TRANSFORM"
				           translation="0.039717 0.205305 0.389355"
				           scale="1.000000 1.000000 1.000000"
				           rotation="0.000000 1.000000 0.000000 0.000000"
				           >
					<Transform DEF="Cube_006_ifs_TRANSFORM"
					           translation="0.000000 0.000000 0.000000"
					           scale="1.000000 1.000000 1.000000"
					           rotation="0.000000 1.000000 0.000000 0.000000"
					           >
						<Group DEF="group_ME_Cube_009">
							<Shape>
								<Appearance>
									<Material USE="MA_Body" />
								</Appearance>
								<IndexedTriangleSet solid="false"
								                    normalPerVertex="true"
								                    index="0 1 2 0 2 3 4 5 6 4 6 7 8 9 10 8 10 11 12 13 14 12 14 15 4 16 17 4 17 15 18 5 14 18 14 19 "
								                    >
									<Coordinate point="-0.217312 0.064731 -0.240240 -0.279580 -0.023059 0.174452 -0.253144 0.459797 0.280642 -0.190877 0.547587 -0.134051 -0.190877 0.547587 -0.134051 -0.253144 0.459797 0.280642 0.243748 0.418125 0.346429 0.306015 0.505915 -0.068263 0.306015 0.505915 -0.068263 0.243748 0.418125 0.346429 0.217312 -0.064731 0.240240 0.279580 0.023059 -0.174452 0.279580 0.023059 -0.174452 0.217312 -0.064731 0.240240 -0.279580 -0.023059 0.174452 -0.217312 0.064731 -0.240240 0.306015 0.505915 -0.068263 0.279580 0.023059 -0.174452 0.243748 0.418125 0.346429 0.217312 -0.064731 0.240240 " />
									<Normal vector="-0.517289 -0.396924 -0.758171 -0.685110 -0.633534 0.359478 -0.623463 0.492599 0.607135 -0.455641 0.729209 -0.510514 -0.455641 0.729209 -0.510514 -0.623463 0.492599 0.607135 0.517289 0.396924 0.758171 0.685110 0.633534 -0.359478 0.685110 0.633534 -0.359478 0.517289 0.396924 0.758171 0.455641 -0.729209 0.510514 0.623463 -0.492599 -0.607135 0.623463 -0.492599 -0.607135 0.455641 -0.729209 0.510514 -0.685110 -0.633534 0.359478 -0.517289 -0.396924 -0.758171 0.685110 0.633534 -0.359478 0.623463 -0.492599 -0.607135 0.517289 0.396924 0.758171 0.455641 -0.729209 0.510514 " />
									<TextureCoordinate point="0.0248 0.0238 0.4729 0.0238 0.4729 0.9762 0.0248 0.9762 0.0248 0.0238 0.4729 0.0238 0.4729 0.9762 0.0248 0.9762 0.0248 0.0238 0.4729 0.0238 0.4729 0.9762 0.0248 0.9762 0.0248 0.0238 0.4729 0.0238 0.4729 0.9762 0.0248 0.9762 0.4729 0.0238 0.4729 0.9762 0.0248 0.0238 0.0248 0.9762 " />
								</IndexedTriangleSet>
							</Shape>
						</Group>
					</Transform>
					<Transform DEF="Cube_007_TRANSFORM"
					           translation="0.026158 0.343517 0.020018"
					           scale="1.000000 1.000000 1.000000"
					           rotation="0.000000 1.000000 0.000000 0.000000"
					           >
						<Transform DEF="Cube_007_ifs_TRANSFORM"
						           translation="0.000000 0.000000 0.000000"
						           scale="1.000000 1.000000 1.000000"
						           rotation="0.000000 1.000000 0.000000 0.000000"
						           >
							<Group DEF="group_ME_Cube_010">
								<Shape>
									<Appearance>
										<Material USE="MA_Body" />
									</Appearance>
									<IndexedTriangleSet solid="false"
									                    normalPerVertex="true"
									                    index="0 1 2 0 2 3 4 5 6 4 6 7 8 9 10 8 10 11 12 13 14 12 14 15 4 16 17 4 17 15 18 5 14 18 14 19 "
									                    >
										<Coordinate point="-0.149841 0.148711 -0.138197 -0.195522 -0.159047 0.011883 -0.315245 0.011547 0.325266 -0.269564 0.319305 0.175185 -0.269564 0.319305 0.175185 -0.315245 0.011547 0.325266 0.030118 0.021883 0.451580 0.075798 0.329641 0.301499 0.075798 0.329641 0.301499 0.030118 0.021883 0.451580 0.149841 -0.148711 0.138197 0.195522 0.159047 -0.011883 0.195522 0.159047 -0.011883 0.149841 -0.148711 0.138197 -0.195522 -0.159047 0.011883 -0.149841 0.148711 -0.138197 0.075798 0.329641 0.301499 0.195522 0.159047 -0.011883 0.030118 0.021883 0.451580 0.149841 -0.148711 0.138197 " />
										<Normal vector="-0.281991 0.236427 -0.929807 -0.434675 -0.792291 -0.428114 -0.801996 -0.268868 0.533341 -0.649312 0.759850 0.031648 -0.649312 0.759850 0.031648 -0.801996 -0.268868 0.533341 0.281991 -0.236427 0.929807 0.434675 0.792291 0.428114 0.434675 0.792291 0.428114 0.281991 -0.236427 0.929807 0.649312 -0.759850 -0.031648 0.801996 0.268868 -0.533341 0.801996 0.268868 -0.533341 0.649312 -0.759850 -0.031648 -0.434675 -0.792291 -0.428114 -0.281991 0.236427 -0.929807 0.434675 0.792291 0.428114 0.801996 0.268868 -0.533341 0.281991 -0.236427 0.929807 0.649312 -0.759850 -0.031648 " />
										<TextureCoordinate point="0.0248 0.0238 0.4729 0.0238 0.4729 0.9762 0.0248 0.9762 0.0248 0.0238 0.4729 0.0238 0.4729 0.9762 0.0248 0.9762 0.0248 0.0238 0.4729 0.0238 0.4729 0.9762 0.0248 0.9762 0.0248 0.0238 0.4729 0.0238 0.4729 0.9762 0.0248 0.9762 0.4729 0.0238 0.4729 0.9762 0.0248 0.0238 0.0248 0.9762 " />
									</IndexedTriangleSet>
								</Shape>
							</Group>
						</Transform>
						<Transform DEF="Cube_008_TRANSFORM"
						           translation="-0.075467 0.161128 0.208345"
						           scale="1.000000 1.000000 1.000000"
						           rotation="0.000000 1.000000 0.000000 0.000000"
						           >
							<Transform DEF="Cube_008_ifs_TRANSFORM"
							           translation="0.000000 0.000000 0.000000"
							           scale="1.000000 1.000000 1.000000"
							           rotation="0.000000 1.000000 0.000000 0.000000"
							           >
								<Group DEF="group_ME_Cube_011">
									<Shape>
										<Appearance>
											<Material USE="MA_Body" />
										</Appearance>
										<IndexedTriangleSet solid="false"
										                    normalPerVertex="true"
										                    index="0 1 2 0 2 3 4 5 6 4 6 7 8 9 10 8 10 11 12 13 14 12 14 15 4 16 17 4 17 15 18 5 14 18 14 19 "
										                    >
											<Coordinate point="-0.104047 0.127570 -0.053053 -0.085592 -0.121763 -0.088105 -0.288908 -0.174904 0.182856 -0.307364 0.074428 0.217907 -0.307364 0.074428 0.217907 -0.288908 -0.174904 0.182856 -0.099269 -0.180711 0.324014 -0.117725 0.068621 0.359065 -0.117725 0.068621 0.359065 -0.099269 -0.180711 0.324014 0.104047 -0.127570 0.053053 0.085592 0.121763 0.088105 0.085592 0.121763 0.088105 0.104047 -0.127570 0.053053 -0.085592 -0.121763 -0.088105 -0.104047 0.127570 -0.053053 -0.117725 0.068621 0.359065 0.085592 0.121763 0.088105 -0.099269 -0.180711 0.324014 0.104047 -0.127570 0.053053 " />
											<Normal vector="-0.162847 0.673849 -0.720664 -0.078433 -0.466536 -0.881008 -0.763115 -0.645466 0.031404 -0.847499 0.494888 0.191748 -0.847499 0.494888 0.191748 -0.763115 -0.645466 0.031404 0.162847 -0.673849 0.720664 0.078433 0.466536 0.881008 0.078433 0.466536 0.881008 0.162847 -0.673849 0.720664 0.847499 -0.494888 -0.191748 0.763115 0.645466 -0.031404 0.763115 0.645466 -0.031404 0.847499 -0.494888 -0.191748 -0.078433 -0.466536 -0.881008 -0.162847 0.673849 -0.720664 0.078433 0.466536 0.881008 0.763115 0.645466 -0.031404 0.162847 -0.673849 0.720664 0.847499 -0.494888 -0.191748 " />
											<TextureCoordinate point="0.0248 0.0238 0.4729 0.0238 0.4729 0.9762 0.0248 0.9762 0.0248 0.0238 0.4729 0.0238 0.4729 0.9762 0.0248 0.9762 0.0248 0.0238 0.4729 0.0238 0.4729 0.9762 0.0248 0.9762 0.0248 0.0238 0.4729 0.0238 0.4729 0.9762 0.0248 0.9762 0.4729 0.0238 0.4729 0.9762 0.0248 0.0238 0.0248 0.9762 " />
										</IndexedTriangleSet>
									</Shape>
								</Group>
							</Transform>
							<Transform DEF="Cube_009_TRANSFORM"
							           translation="-0.148382 -0.004698 0.243705"
							           scale="1.000000 1.000000 1.000000"
							           rotation="0.000000 1.000000 0.000000 0.000000"
							           >
								<Transform DEF="Cube_009_ifs_TRANSFORM"
								           translation="0.000000 0.000000 0.000000"
								           scale="1.000000 1.000000 1.000000"
								           rotation="0.000000 1.000000 0.000000 0.000000"
								           >
									<Group DEF="group_ME_Cube_012">
										<Shape>
											<Appearance>
												<Material USE="MA_Body" />
											</Appearance>
											<IndexedTriangleSet solid="false"
											                    normalPerVertex="true"
											                    index="0 1 2 0 2 3 4 5 6 4 6 7 8 9 10 8 10 11 12 13 14 12 14 15 4 16 17 4 17 15 18 5 14 18 14 19 "
											                    >
												<Coordinate point="-0.072115 0.072948 0.016862 -0.020526 -0.006457 -0.101702 -0.265435 -0.263769 -0.035937 -0.317024 -0.184364 0.082627 -0.317024 -0.184364 0.082627 -0.265435 -0.263769 -0.035937 -0.172794 -0.330260 0.048903 -0.224383 -0.250855 0.167467 -0.224383 -0.250855 0.167467 -0.172794 -0.330260 0.048903 0.072115 -0.072948 -0.016862 0.020526 0.006457 0.101702 0.020526 0.006457 0.101702 0.072115 -0.072948 -0.016862 -0.020526 -0.006457 -0.101702 -0.072115 0.072948 0.016862 -0.224383 -0.250855 0.167467 0.020526 0.006457 0.101702 -0.172794 -0.330260 0.048903 0.072115 -0.072948 -0.016862 " />
												<Normal vector="-0.181188 0.983428 0.001373 0.211371 0.379162 -0.900845 -0.571398 -0.443251 -0.690634 -0.963988 0.160985 0.211585 -0.963988 0.160985 0.211585 -0.571398 -0.443251 -0.690634 0.181188 -0.983428 -0.001373 -0.211371 -0.379162 0.900845 -0.211371 -0.379162 0.900845 0.181188 -0.983428 -0.001373 0.963988 -0.160985 -0.211585 0.571398 0.443251 0.690634 0.571398 0.443251 0.690634 0.963988 -0.160985 -0.211585 0.211371 0.379162 -0.900845 -0.181188 0.983428 0.001373 -0.211371 -0.379162 0.900845 0.571398 0.443251 0.690634 0.181188 -0.983428 -0.001373 0.963988 -0.160985 -0.211585 " />
												<TextureCoordinate point="0.0248 0.0238 0.4729 0.0238 0.4729 0.9762 0.0248 0.9762 0.0248 0.0238 0.4729 0.0238 0.4729 0.9762 0.0248 0.9762 0.0248 0.0238 0.4729 0.0238 0.4729 0.9762 0.0248 0.9762 0.0248 0.0238 0.4729 0.0238 0.4729 0.9762 0.0248 0.9762 0.4729 0.0238 0.4729 0.9762 0.0248 0.0238 0.0248 0.9762 " />
											</IndexedTriangleSet>
										</Shape>
									</Group>
								</Transform>
							</Transform>
						</Transform>
					</Transform>
				</Transform>
				<Transform DEF="Cube_010_TRANSFORM"
				           translation="0.135711 0.263540 0.131144"
				           scale="1.000000 1.000000 1.000000"
				           rotation="0.000000 1.000000 0.000000 0.000000"
				           >
					<Transform DEF="Cube_010_ifs_TRANSFORM"
					           translation="0.000000 0.000000 0.000000"
					           scale="1.000000 1.000000 1.000000"
					           rotation="0.000000 1.000000 0.000000 0.000000"
					           >
						<Group DEF="group_ME_Cube_013">
							<Shape>
								<Appearance>
									<Material USE="MA_Body" />
								</Appearance>
								<IndexedTriangleSet solid="false"
								                    normalPerVertex="true"
								                    index="0 1 2 0 2 3 4 5 6 4 6 7 8 9 10 8 10 11 12 13 14 12 14 15 4 16 17 4 17 15 18 5 14 18 14 19 "
								                    >
									<Coordinate point="-0.123093 -0.017573 -0.106913 -0.147906 -0.042793 0.056424 -0.263926 0.431540 0.112038 -0.239113 0.456760 -0.051299 -0.239113 0.456760 -0.051299 -0.263926 0.431540 0.112038 0.007072 0.491906 0.162527 0.031885 0.517126 -0.000810 0.031885 0.517126 -0.000810 0.007072 0.491906 0.162527 0.123093 0.017573 0.106913 0.147906 0.042793 -0.056424 0.147906 0.042793 -0.056424 0.123093 0.017573 0.106913 -0.147906 -0.042793 0.056424 -0.123093 -0.017573 -0.106913 0.031885 0.517126 -0.000810 0.147906 0.042793 -0.056424 0.007072 0.491906 0.162527 0.123093 0.017573 0.106913 " />
									<Normal vector="-0.332408 -0.593585 -0.732871 -0.503861 -0.767815 0.395611 -0.776452 0.346568 0.526292 -0.604999 0.520829 -0.602222 -0.604999 0.520829 -0.602222 -0.776452 0.346568 0.526292 0.332408 0.593585 0.732871 0.503861 0.767815 -0.395611 0.503861 0.767815 -0.395611 0.332408 0.593585 0.732871 0.604999 -0.520829 0.602222 0.776452 -0.346568 -0.526292 0.776452 -0.346568 -0.526292 0.604999 -0.520829 0.602222 -0.503861 -0.767815 0.395611 -0.332408 -0.593585 -0.732871 0.503861 0.767815 -0.395611 0.776452 -0.346568 -0.526292 0.332408 0.593585 0.732871 0.604999 -0.520829 0.602222 " />
									<TextureCoordinate point="0.0248 0.0238 0.4729 0.0238 0.4729 0.9762 0.0248 0.9762 0.0248 0.0238 0.4729 0.0238 0.4729 0.9762 0.0248 0.9762 0.0248 0.0238 0.4729 0.0238 0.4729 0.9762 0.0248 0.9762 0.0248 0.0238 0.4729 0.0238 0.4729 0.9762 0.0248 0.9762 0.4729 0.0238 0.4729 0.9762 0.0248 0.0238 0.0248 0.9762 " />
								</IndexedTriangleSet>
							</Shape>
						</Group>
					</Transform>
				</Transform>
			</Transform>
			<Transform DEF="Cube_TRANSFORM"
			           translation="0.000000 -0.176758 0.056250"
			           scale="1.000000 1.000000 1.000000"
			           rotation="0.000000 1.000000 0.000000 0.000000"
			           >
				<Transform DEF="Cube_ifs_TRANSFORM"
				           translation="0.000000 0.000000 0.000000"
				           scale="1.000000 1.000000 1.000000"
				           rotation="0.000000 1.000000 0.000000 0.000000"
				           >
					<Group DEF="group_ME_Cube_014">
						<Shape>
							<Appearance>
								<Material USE="MA_Body" />
							</Appearance>
							<IndexedTriangleSet solid="false"
							                    normalPerVertex="true"
							                    index="0 1 2 0 2 3 4 5 6 4 6 7 8 9 10 8 10 11 12 13 14 12 14 15 4 16 17 4 17 15 18 5 14 18 14 19 "
							                    >
								<Coordinate point="-0.114881 -0.254215 -0.148665 -0.114881 -0.030159 0.036494 -0.114881 0.030159 -0.036494 -0.114881 -0.193898 -0.221653 -0.114881 -0.193898 -0.221653 -0.114881 0.030159 -0.036494 0.114881 0.030159 -0.036494 0.114881 -0.193898 -0.221653 0.114881 -0.193898 -0.221653 0.114881 0.030159 -0.036494 0.114881 -0.030159 0.036494 0.114881 -0.254215 -0.148665 0.114881 -0.254215 -0.148665 0.114881 -0.030159 0.036494 -0.114881 -0.030159 0.036494 -0.114881 -0.254215 -0.148665 0.114881 -0.193898 -0.221653 0.114881 -0.254215 -0.148665 0.114881 0.030159 -0.036494 0.114881 -0.030159 0.036494 " />
								<Normal vector="-0.577349 -0.812830 0.077242 -0.577349 0.077242 0.812830 -0.577349 0.812830 -0.077242 -0.577349 -0.077242 -0.812830 -0.577349 -0.077242 -0.812830 -0.577349 0.812830 -0.077242 0.577349 0.812830 -0.077242 0.577349 -0.077242 -0.812830 0.577349 -0.077242 -0.812830 0.577349 0.812830 -0.077242 0.577349 0.077242 0.812830 0.577349 -0.812830 0.077242 0.577349 -0.812830 0.077242 0.577349 0.077242 0.812830 -0.577349 0.077242 0.812830 -0.577349 -0.812830 0.077242 0.577349 -0.077242 -0.812830 0.577349 -0.812830 0.077242 0.577349 0.812830 -0.077242 0.577349 0.077242 0.812830 " />
								<TextureCoordinate point="0.0248 0.0238 0.4729 0.0238 0.4729 0.9762 0.0248 0.9762 0.0248 0.0238 0.4729 0.0238 0.4729 0.9762 0.0248 0.9762 0.0248 0.0238 0.4729 0.0238 0.4729 0.9762 0.0248 0.9762 0.0248 0.0238 0.4729 0.0238 0.4729 0.9762 0.0248 0.9762 0.4729 0.0238 0.4729 0.9762 0.0248 0.0238 0.0248 0.9762 " />
							</IndexedTriangleSet>
						</Shape>
					</Group>
				</Transform>
				<Transform DEF="Cube_005_TRANSFORM"
				           translation="0.000000 0.245963 -0.011920"
				           scale="1.000000 1.000000 1.000000"
				           rotation="0.000000 1.000000 0.000000 0.000000"
				           >
					<Transform DEF="Cube_005_ifs_TRANSFORM"
					           translation="0.000000 0.000000 0.000000"
					           scale="1.000000 1.000000 1.000000"
					           rotation="0.000000 1.000000 0.000000 0.000000"
					           >
						<Group DEF="group_ME_Cube_015">
							<Shape>
								<Appearance>
									<Material USE="MA_Body" />
								</Appearance>
								<IndexedTriangleSet solid="false"
								                    normalPerVertex="true"
								                    index="0 1 2 0 2 3 4 5 6 4 6 7 8 9 10 8 10 11 12 13 14 12 14 15 4 16 17 4 17 15 18 5 14 18 14 19 "
								                    >
									<Coordinate point="-0.097191 0.123578 -0.312103 -0.097191 -0.064846 -0.045899 -0.097191 0.064846 0.045899 -0.097191 0.253269 -0.220305 -0.097191 0.253269 -0.220305 -0.097191 0.064846 0.045899 0.097191 0.064846 0.045899 0.097191 0.253269 -0.220305 0.097191 0.253269 -0.220305 0.097191 0.064846 0.045899 0.097191 -0.064846 -0.045899 0.097191 0.123578 -0.312103 0.097191 0.123578 -0.312103 0.097191 -0.064846 -0.045899 -0.097191 -0.064846 -0.045899 -0.097191 0.123578 -0.312103 0.097191 0.253269 -0.220305 0.097191 0.123578 -0.312103 0.097191 0.064846 0.045899 0.097191 -0.064846 -0.045899 " />
									<Normal vector="-0.577349 -0.137669 -0.804773 -0.577349 -0.804773 0.137669 -0.577349 0.137669 0.804773 -0.577349 0.804773 -0.137669 -0.577349 0.804773 -0.137669 -0.577349 0.137669 0.804773 0.577349 0.137669 0.804773 0.577349 0.804773 -0.137669 0.577349 0.804773 -0.137669 0.577349 0.137669 0.804773 0.577349 -0.804773 0.137669 0.577349 -0.137669 -0.804773 0.577349 -0.137669 -0.804773 0.577349 -0.804773 0.137669 -0.577349 -0.804773 0.137669 -0.577349 -0.137669 -0.804773 0.577349 0.804773 -0.137669 0.577349 -0.137669 -0.804773 0.577349 0.137669 0.804773 0.577349 -0.804773 0.137669 " />
									<TextureCoordinate point="0.0248 0.0238 0.4729 0.0238 0.4729 0.9762 0.0248 0.9762 0.0248 0.0238 0.4729 0.0238 0.4729 0.9762 0.0248 0.9762 0.0248 0.0238 0.4729 0.0238 0.4729 0.9762 0.0248 0.9762 0.0248 0.0238 0.4729 0.0238 0.4729 0.9762 0.0248 0.9762 0.4729 0.0238 0.4729 0.9762 0.0248 0.0238 0.0248 0.9762 " />
								</IndexedTriangleSet>
							</Shape>
						</Group>
					</Transform>
				</Transform>
				<Transform DEF="Cube_011_TRANSFORM"
				           translation="0.093550 0.137103 0.023292"
				           scale="1.000000 1.000000 1.000000"
				           rotation="0.000000 1.000000 0.000000 0.000000"
				           >
					<Transform DEF="Cube_011_ifs_TRANSFORM"
					           translation="0.000000 0.000000 0.000000"
					           scale="1.000000 1.000000 1.000000"
					           rotation="0.000000 1.000000 0.000000 0.000000"
					           >
						<Group DEF="group_ME_Cube_016">
							<Shape>
								<Appearance>
									<Material USE="MA_Body" />
								</Appearance>
								<IndexedTriangleSet solid="false"
								                    normalPerVertex="true"
								                    index="0 1 2 0 2 3 4 5 6 4 6 7 8 9 10 8 10 11 12 13 14 12 14 15 4 16 17 4 17 15 18 5 14 18 14 19 "
								                    >
									<Coordinate point="0.378446 0.110723 -0.240757 0.098949 -0.083604 0.040558 0.022971 -0.119657 -0.059833 0.302468 0.074670 -0.341148 0.302468 0.074670 -0.341148 0.022971 -0.119657 -0.059833 -0.098949 0.083604 -0.040558 0.180548 0.277930 -0.321873 0.180548 0.277930 -0.321873 -0.098949 0.083604 -0.040558 -0.022971 0.119657 0.059833 0.256525 0.313983 -0.221482 0.256525 0.313983 -0.221482 -0.022971 0.119657 0.059833 0.098949 -0.083604 0.040558 0.378446 0.110723 -0.240757 0.180548 0.277930 -0.321873 0.256525 0.313983 -0.221482 -0.098949 0.083604 -0.040558 -0.022971 0.119657 0.059833 " />
									<Normal vector="0.996338 -0.080477 0.027985 0.265542 -0.588580 0.763543 -0.404340 -0.906461 -0.121586 0.326456 -0.398358 -0.857143 0.326456 -0.398358 -0.857143 -0.404340 -0.906461 -0.121586 -0.996338 0.080477 -0.027985 -0.265542 0.588580 -0.763543 -0.265542 0.588580 -0.763543 -0.996338 0.080477 -0.027985 -0.326456 0.398358 0.857143 0.404340 0.906461 0.121586 0.404340 0.906461 0.121586 -0.326456 0.398358 0.857143 0.265542 -0.588580 0.763543 0.996338 -0.080477 0.027985 -0.265542 0.588580 -0.763543 0.404340 0.906461 0.121586 -0.996338 0.080477 -0.027985 -0.326456 0.398358 0.857143 " />
									<TextureCoordinate point="0.0248 0.0238 0.4729 0.0238 0.4729 0.9762 0.0248 0.9762 0.0248 0.0238 0.4729 0.0238 0.4729 0.9762 0.0248 0.9762 0.0248 0.0238 0.4729 0.0238 0.4729 0.9762 0.0248 0.9762 0.0248 0.0238 0.4729 0.0238 0.4729 0.9762 0.0248 0.9762 0.4729 0.0238 0.4729 0.9762 0.0248 0.0238 0.0248 0.9762 " />
								</IndexedTriangleSet>
							</Shape>
						</Group>
					</Transform>
				</Transform>
				<Transform DEF="Cube_012_TRANSFORM"
				           translation="-0.093550 0.137103 0.023292"
				           scale="1.000000 1.000000 1.000000"
				           rotation="0.000000 1.000000 0.000000 0.000000"
				           >
					<Transform DEF="Cube_012_ifs_TRANSFORM"
					           translation="0.000000 0.000000 0.000000"
					           scale="1.000000 1.000000 1.000000"
					           rotation="0.000000 1.000000 0.000000 0.000000"
					           >
						<Group DEF="group_ME_Cube_001">
							<Shape>
								<Appearance>
									<Material USE="MA_Body" />
								</Appearance>
								<IndexedTriangleSet solid="false"
								                    normalPerVertex="true"
								                    index="0 1 2 0 2 3 4 5 6 4 6 7 8 9 10 8 10 11 12 13 14 12 14 15 4 13 16 4 16 17 18 19 14 18 14 7 "
								                    >
									<Coordinate point="-0.378446 0.110723 -0.240757 -0.302468 0.074670 -0.341148 -0.022971 -0.119657 -0.059833 -0.098949 -0.083604 0.040558 -0.302468 0.074670 -0.341148 -0.180548 0.277930 -0.321873 0.098949 0.083604 -0.040558 -0.022971 -0.119657 -0.059833 -0.180548 0.277930 -0.321873 -0.256525 0.313983 -0.221482 0.022971 0.119657 0.059833 0.098949 0.083604 -0.040558 -0.256525 0.313983 -0.221482 -0.378446 0.110723 -0.240757 -0.098949 -0.083604 0.040558 0.022971 0.119657 0.059833 -0.256525 0.313983 -0.221482 -0.180548 0.277930 -0.321873 0.098949 0.083604 -0.040558 0.022971 0.119657 0.059833 " />
									<Normal vector="-0.996338 -0.080477 0.027985 -0.326456 -0.398358 -0.857143 0.404340 -0.906461 -0.121586 -0.265542 -0.588580 0.763543 -0.326456 -0.398358 -0.857143 0.265542 0.588580 -0.763543 0.996338 0.080477 -0.027985 0.404340 -0.906461 -0.121586 0.265542 0.588580 -0.763543 -0.404340 0.906461 0.121586 0.326456 0.398358 0.857143 0.996338 0.080477 -0.027985 -0.404340 0.906461 0.121586 -0.996338 -0.080477 0.027985 -0.265542 -0.588580 0.763543 0.326456 0.398358 0.857143 -0.404340 0.906461 0.121586 0.265542 0.588580 -0.763543 0.996338 0.080477 -0.027985 0.326456 0.398358 0.857143 " />
									<TextureCoordinate point="0.0248 0.0238 0.0248 0.9762 0.4729 0.9762 0.4729 0.0238 0.0248 0.0238 0.0248 0.9762 0.4729 0.9762 0.4729 0.0238 0.0248 0.0238 0.0248 0.9762 0.4729 0.9762 0.4729 0.0238 0.0248 0.0238 0.0248 0.9762 0.4729 0.9762 0.4729 0.0238 0.4729 0.9762 0.4729 0.0238 0.0248 0.0238 0.0248 0.9762 " />
								</IndexedTriangleSet>
							</Shape>
						</Group>
					</Transform>
				</Transform>
			</Transform>
			<Transform DEF="foot1_TRANSFORM"
			           translation="0.000000 -0.059627 -0.061107"
			           scale="1.000000 1.000000 1.000000"
			           rotation="0.000000 1.000000 0.000000 0.000000"
			           >
				<Transform DEF="foot1_ifs_TRANSFORM"
				           translation="0.000000 0.000000 0.000000"
				           scale="1.000000 1.000000 1.000000"
				           rotation="0.000000 1.000000 0.000000 0.000000"
				           >
					<Group DEF="group_ME_foot1">
						<Shape>
							<Appearance>
								<Material USE="MA_Body" />
							</Appearance>
							<IndexedTriangleSet solid="false"
							                    normalPerVertex="true"
							                    index="0 1 2 0 2 3 4 5 6 4 6 7 8 9 10 8 10 11 12 13 14 12 14 15 4 16 17 4 17 15 18 5 14 18 14 19 20 21 22 20 22 23 24 25 26 24 26 27 28 29 30 28 30 31 32 33 34 32 34 35 24 36 37 24 37 35 38 25 34 38 34 39 "
							                    >
								<Coordinate point="0.001045 -0.373431 -0.243794 0.001045 -0.378619 -0.008342 0.001045 0.167774 0.003697 0.001045 0.172961 -0.231755 0.001045 0.172961 -0.231755 0.001045 0.167774 0.003697 0.292376 0.167774 0.003697 0.292376 0.172961 -0.231755 0.292376 0.172961 -0.231755 0.292376 0.167774 0.003697 0.292376 -0.378619 -0.008342 0.292376 -0.373431 -0.243794 0.292376 -0.373431 -0.243794 0.292376 -0.378619 -0.008342 0.001045 -0.378619 -0.008342 0.001045 -0.373431 -0.243794 0.292376 0.172961 -0.231755 0.292376 -0.373431 -0.243794 0.292376 0.167774 0.003697 0.292376 -0.378619 -0.008342 -0.294439 -0.373431 -0.243794 -0.294439 -0.378619 -0.008342 -0.294439 0.167774 0.003697 -0.294439 0.172961 -0.231755 -0.294439 0.172961 -0.231755 -0.294439 0.167774 0.003697 -0.003108 0.167774 0.003697 -0.003108 0.172961 -0.231755 -0.003108 0.172961 -0.231755 -0.003108 0.167774 0.003697 -0.003108 -0.378619 -0.008342 -0.003108 -0.373431 -0.243794 -0.003108 -0.373431 -0.243794 -0.003108 -0.378619 -0.008342 -0.294439 -0.378619 -0.008342 -0.294439 -0.373431 -0.243794 -0.003108 0.172961 -0.231755 -0.003108 -0.373431 -0.243794 -0.003108 0.167774 0.003697 -0.003108 -0.378619 -0.008342 " />
								<Normal vector="-0.577349 -0.564470 -0.589923 -0.577349 -0.589923 0.564470 -0.577349 0.564470 0.589923 -0.577349 0.589923 -0.564470 -0.577349 0.589923 -0.564470 -0.577349 0.564470 0.589923 0.577349 0.564470 0.589923 0.577349 0.589923 -0.564470 0.577349 0.589923 -0.564470 0.577349 0.564470 0.589923 0.577349 -0.589923 0.564470 0.577349 -0.564470 -0.589923 0.577349 -0.564470 -0.589923 0.577349 -0.589923 0.564470 -0.577349 -0.589923 0.564470 -0.577349 -0.564470 -0.589923 0.577349 0.589923 -0.564470 0.577349 -0.564470 -0.589923 0.577349 0.564470 0.589923 0.577349 -0.589923 0.564470 -0.577349 -0.564470 -0.589923 -0.577349 -0.589923 0.564470 -0.577349 0.564470 0.589923 -0.577349 0.589923 -0.564470 -0.577349 0.589923 -0.564470 -0.577349 0.564470 0.589923 0.577349 0.564470 0.589923 0.577349 0.589923 -0.564470 0.577349 0.589923 -0.564470 0.577349 0.564470 0.589923 0.577349 -0.589923 0.564470 0.577349 -0.564470 -0.589923 0.577349 -0.564470 -0.589923 0.577349 -0.589923 0.564470 -0.577349 -0.589923 0.564470 -0.577349 -0.564470 -0.589923 0.577349 0.589923 -0.564470 0.577349 -0.564470 -0.589923 0.577349 0.564470 0.589923 0.577349 -0.589923 0.564470 " />
								<TextureCoordinate point="0.5727 0.0704 0.9358 0.0704 0.9358 0.4335 0.5727 0.4335 0.5727 0.0704 0.9358 0.0704 0.9358 0.4335 0.5727 0.4335 0.5727 0.0704 0.9358 0.0704 0.9358 0.4335 0.5727 0.4335 0.5727 0.0704 0.9358 0.0704 0.9358 0.4335 0.5727 0.4335 0.9358 0.0704 0.9358 0.4335 0.5727 0.0704 0.5727 0.4335 0.5727 0.0704 0.9358 0.0704 0.9358 0.4335 0.5727 0.4335 0.5727 0.0704 0.9358 0.0704 0.9358 0.4335 0.5727 0.4335 0.5727 0.0704 0.9358 0.0704 0.9358 0.4335 0.5727 0.4335 0.5727 0.0704 0.9358 0.0704 0.9358 0.4335 0.5727 0.4335 0.9358 0.0704 0.9358 0.4335 0.5727 0.0704 0.5727 0.4335 " />
							</IndexedTriangleSet>
						</Shape>
					</Group>
				</Transform>
			</Transform>
			<Transform DEF="wing1_TRANSFORM"
			           translation="0.752439 -0.059627 0.410155"
			           scale="1.000000 1.000000 1.000000"
			           rotation="0.000000 1.000000 0.000000 0.000000"
			           >
				<Transform DEF="wing1_ifs_TRANSFORM"
				           translation="0.000000 0.000000 0.000000"
				           scale="1.000000 1.000000 1.000000"
				           rotation="0.000000 1.000000 0.000000 0.000000"
				           >
					<Group DEF="group_ME_wing1">
						<Shape>
							<Appearance>
								<Material USE="MA_Body" />
							</Appearance>
							<IndexedTriangleSet solid="false"
							                    normalPerVertex="true"
							                    index="0 1 2 0 2 3 4 5 6 4 6 7 8 9 10 8 10 11 12 13 14 12 14 15 4 16 17 4 17 15 18 5 14 18 14 19 "
							                    >
								<Coordinate point="0.071973 -0.118480 -0.288159 -0.071973 -0.118480 0.288159 -0.071973 0.118480 0.288159 0.071973 0.118480 -0.288159 0.071973 0.118480 -0.288159 -0.071973 0.118480 0.288159 0.479605 0.118480 0.425925 0.623551 0.118480 -0.150393 0.623551 0.118480 -0.150393 0.479605 0.118480 0.425925 0.479605 -0.118480 0.425925 0.623551 -0.118480 -0.150393 0.623551 -0.118480 -0.150393 0.479605 -0.118480 0.425925 -0.071973 -0.118480 0.288159 0.071973 -0.118480 -0.288159 0.623551 0.118480 -0.150393 0.623551 -0.118480 -0.150393 0.479605 0.118480 0.425925 0.479605 -0.118480 0.425925 " />
								<Normal vector="-0.420209 -0.577349 -0.700034 -0.700034 -0.577349 0.420209 -0.700034 0.577349 0.420209 -0.420209 0.577349 -0.700034 -0.420209 0.577349 -0.700034 -0.700034 0.577349 0.420209 0.420209 0.577349 0.700034 0.700034 0.577349 -0.420209 0.700034 0.577349 -0.420209 0.420209 0.577349 0.700034 0.420209 -0.577349 0.700034 0.700034 -0.577349 -0.420209 0.700034 -0.577349 -0.420209 0.420209 -0.577349 0.700034 -0.700034 -0.577349 0.420209 -0.420209 -0.577349 -0.700034 0.700034 0.577349 -0.420209 0.700034 -0.577349 -0.420209 0.420209 0.577349 0.700034 0.420209 -0.577349 0.700034 " />
								<TextureCoordinate point="0.0248 0.0238 0.4729 0.0238 0.4729 0.9762 0.0248 0.9762 0.0248 0.0238 0.4729 0.0238 0.4729 0.9762 0.0248 0.9762 0.0248 0.0238 0.4729 0.0238 0.4729 0.9762 0.0248 0.9762 0.0248 0.0238 0.4729 0.0238 0.4729 0.9762 0.0248 0.9762 0.4729 0.0238 0.4729 0.9762 0.0248 0.0238 0.0248 0.9762 " />
							</IndexedTriangleSet>
						</Shape>
					</Group>
				</Transform>
				<Transform DEF="Cube_014_TRANSFORM"
				           translation="0.479346 -0.000000 0.115263"
				           scale="1.000000 1.000000 1.000000"
				           rotation="0.000000 1.000000 0.000000 0.000000"
				           >
					<Transform DEF="Cube_014_ifs_TRANSFORM"
					           translation="0.000000 0.000000 0.000000"
					           scale="1.000000 1.000000 1.000000"
					           rotation="0.000000 1.000000 0.000000 0.000000"
					           >
						<Group DEF="group_ME_Cube_019">
							<Shape>
								<Appearance>
									<Material USE="MA_Body" />
								</Appearance>
								<IndexedTriangleSet solid="false"
								                    normalPerVertex="true"
								                    index="0 1 2 0 2 3 4 5 6 4 6 7 8 9 10 8 10 11 12 13 14 12 14 15 4 16 17 4 17 15 18 5 14 18 14 19 "
								                    >
									<Coordinate point="0.099276 -0.096171 -0.219699 -0.099276 -0.096171 0.219699 -0.099276 0.096171 0.219699 0.099276 0.096171 -0.219699 0.099276 0.096171 -0.219699 -0.099276 0.096171 0.219699 0.380264 0.096171 0.436390 0.578816 0.096171 -0.003008 0.578816 0.096171 -0.003008 0.380264 0.096171 0.436390 0.380264 -0.096171 0.436390 0.578816 -0.096171 -0.003008 0.578816 -0.096171 -0.003008 0.380264 -0.096171 0.436390 -0.099276 -0.096171 0.219699 0.099276 -0.096171 -0.219699 0.578816 0.096171 -0.003008 0.578816 -0.096171 -0.003008 0.380264 0.096171 0.436390 0.380264 -0.096171 0.436390 " />
									<Normal vector="-0.288369 -0.577349 -0.763848 -0.763848 -0.577349 0.288369 -0.763848 0.577349 0.288369 -0.288369 0.577349 -0.763848 -0.288369 0.577349 -0.763848 -0.763848 0.577349 0.288369 0.288369 0.577349 0.763848 0.763848 0.577349 -0.288369 0.763848 0.577349 -0.288369 0.288369 0.577349 0.763848 0.288369 -0.577349 0.763848 0.763848 -0.577349 -0.288369 0.763848 -0.577349 -0.288369 0.288369 -0.577349 0.763848 -0.763848 -0.577349 0.288369 -0.288369 -0.577349 -0.763848 0.763848 0.577349 -0.288369 0.763848 -0.577349 -0.288369 0.288369 0.577349 0.763848 0.288369 -0.577349 0.763848 " />
									<TextureCoordinate point="0.0248 0.0238 0.4729 0.0238 0.4729 0.9762 0.0248 0.9762 0.0248 0.0238 0.4729 0.0238 0.4729 0.9762 0.0248 0.9762 0.0248 0.0238 0.4729 0.0238 0.4729 0.9762 0.0248 0.9762 0.0248 0.0238 0.4729 0.0238 0.4729 0.9762 0.0248 0.9762 0.4729 0.0238 0.4729 0.9762 0.0248 0.0238 0.0248 0.9762 " />
								</IndexedTriangleSet>
							</Shape>
						</Group>
					</Transform>
				</Transform>
				<Transform DEF="Cube_015_TRANSFORM"
				           translation="0.071636 0.000000 -0.312874"
				           scale="1.000000 1.000000 1.000000"
				           rotation="0.000000 1.000000 0.000000 0.000000"
				           >
					<Transform DEF="Cube_015_ifs_TRANSFORM"
					           translation="0.000000 0.000000 0.000000"
					           scale="1.000000 1.000000 1.000000"
					           rotation="0.000000 1.000000 0.000000 0.000000"
					           >
						<Group DEF="group_ME_Cube_020">
							<Shape>
								<Appearance>
									<Material USE="MA_Body" />
								</Appearance>
								<IndexedTriangleSet solid="false"
								                    normalPerVertex="true"
								                    index="0 1 2 0 2 3 4 5 6 4 6 7 8 9 10 8 10 11 12 13 14 12 14 15 4 16 17 4 17 15 18 5 14 18 14 19 "
								                    >
									<Coordinate point="0.005577 -0.090676 -0.079699 -0.005577 -0.090676 0.079699 -0.005577 0.090676 0.079699 0.005577 0.090676 -0.079699 0.005577 0.090676 -0.079699 -0.005577 0.090676 0.079699 0.437852 0.090676 0.110729 0.449006 0.090676 -0.048670 0.449006 0.090676 -0.048670 0.437852 0.090676 0.110729 0.437852 -0.090676 0.110729 0.449006 -0.090676 -0.048670 0.449006 -0.090676 -0.048670 0.437852 -0.090676 0.110729 -0.005577 -0.090676 0.079699 0.005577 -0.090676 -0.079699 0.449006 0.090676 -0.048670 0.449006 -0.090676 -0.048670 0.437852 0.090676 0.110729 0.437852 -0.090676 0.110729 " />
									<Normal vector="-0.535630 -0.577349 -0.616230 -0.616230 -0.577349 0.535630 -0.616230 0.577349 0.535630 -0.535630 0.577349 -0.616230 -0.535630 0.577349 -0.616230 -0.616230 0.577349 0.535630 0.535630 0.577349 0.616230 0.616230 0.577349 -0.535630 0.616230 0.577349 -0.535630 0.535630 0.577349 0.616230 0.535630 -0.577349 0.616230 0.616230 -0.577349 -0.535630 0.616230 -0.577349 -0.535630 0.535630 -0.577349 0.616230 -0.616230 -0.577349 0.535630 -0.535630 -0.577349 -0.616230 0.616230 0.577349 -0.535630 0.616230 -0.577349 -0.535630 0.535630 0.577349 0.616230 0.535630 -0.577349 0.616230 " />
									<TextureCoordinate point="0.0248 0.0238 0.4729 0.0238 0.4729 0.9762 0.0248 0.9762 0.0248 0.0238 0.4729 0.0238 0.4729 0.9762 0.0248 0.9762 0.0248 0.0238 0.4729 0.0238 0.4729 0.9762 0.0248 0.9762 0.0248 0.0238 0.4729 0.0238 0.4729 0.9762 0.0248 0.9762 0.4729 0.0238 0.4729 0.9762 0.0248 0.0238 0.0248 0.9762 " />
								</IndexedTriangleSet>
							</Shape>
						</Group>
					</Transform>
				</Transform>
			</Transform>
			<Transform DEF="Cube_013_TRANSFORM"
			           translation="0.604056 0.396289 1.197712"
			           scale="1.000000 1.000000 1.000000"
			           rotation="0.000000 1.000000 0.000000 0.000000"
			           >
				<Transform DEF="Cube_013_ifs_TRANSFORM"
				           translation="0.000000 0.000000 0.000000"
				           scale="1.000000 1.000000 1.000000"
				           rotation="0.000000 1.000000 0.000000 0.000000"
				           >
					<Group DEF="group_ME_Cube_021">
						<Shape>
							<Appearance>
								<Material USE="MA_Body" />
							</Appearance>
							<IndexedTriangleSet solid="false"
							                    normalPerVertex="true"
							                    index="0 1 2 0 2 3 4 5 6 4 6 7 8 9 10 8 10 11 12 13 14 12 14 15 4 16 17 4 17 15 18 5 14 18 14 19 "
							                    >
								<Coordinate point="0.139893 -0.181653 -0.170431 0.139893 -0.181653 0.170431 -0.139893 0.181653 0.170431 -0.139893 0.181653 -0.170431 -0.139893 0.181653 -0.170431 -0.139893 0.181653 0.170431 0.156438 0.409861 0.170431 0.156438 0.409861 -0.170431 0.156438 0.409861 -0.170431 0.156438 0.409861 0.170431 0.436224 0.046554 0.170431 0.436224 0.046554 -0.170431 0.436224 0.046554 -0.170431 0.436224 0.046554 0.170431 0.139893 -0.181653 0.170431 0.139893 -0.181653 -0.170431 0.156438 0.409861 -0.170431 0.436224 0.046554 -0.170431 0.156438 0.409861 0.170431 0.436224 0.046554 0.170431 " />
								<Normal vector="-0.105136 -0.809687 -0.577349 -0.105136 -0.809687 0.577349 -0.809687 0.105136 0.577349 -0.809687 0.105136 -0.577349 -0.809687 0.105136 -0.577349 -0.809687 0.105136 0.577349 0.105136 0.809687 0.577349 0.105136 0.809687 -0.577349 0.105136 0.809687 -0.577349 0.105136 0.809687 0.577349 0.809687 -0.105136 0.577349 0.809687 -0.105136 -0.577349 0.809687 -0.105136 -0.577349 0.809687 -0.105136 0.577349 -0.105136 -0.809687 0.577349 -0.105136 -0.809687 -0.577349 0.105136 0.809687 -0.577349 0.809687 -0.105136 -0.577349 0.105136 0.809687 0.577349 0.809687 -0.105136 0.577349 " />
								<TextureCoordinate point="0.0248 0.0238 0.4729 0.0238 0.4729 0.9762 0.0248 0.9762 0.0248 0.0238 0.4729 0.0238 0.4729 0.9762 0.0248 0.9762 0.0248 0.0238 0.4729 0.0238 0.4729 0.9762 0.0248 0.9762 0.0248 0.0238 0.4729 0.0238 0.4729 0.9762 0.0248 0.9762 0.4729 0.0238 0.4729 0.9762 0.0248 0.0238 0.0248 0.9762 " />
							</IndexedTriangleSet>
						</Shape>
					</Group>
				</Transform>
				<Transform DEF="Cube_016_TRANSFORM"
				           translation="0.256253 0.158861 0.000000"
				           scale="1.000000 1.000000 1.000000"
				           rotation="0.000000 1.000000 0.000000 0.000000"
				           >
					<Transform DEF="Cube_016_ifs_TRANSFORM"
					           translation="0.000000 0.000000 0.000000"
					           scale="1.000000 1.000000 1.000000"
					           rotation="0.000000 1.000000 0.000000 0.000000"
					           >
						<Group DEF="group_ME_Cube_022">
							<Shape>
								<Appearance>
									<Material USE="MA_Body" />
								</Appearance>
								<IndexedTriangleSet solid="false"
								                    normalPerVertex="true"
								                    index="0 1 2 0 2 3 4 5 6 4 6 7 8 9 10 8 10 11 12 13 14 12 14 15 4 16 17 4 17 15 18 5 14 18 14 19 "
								                    >
									<Coordinate point="0.082842 -0.079036 -0.114501 0.005499 -0.128182 0.098789 -0.082842 0.079036 0.114501 -0.005499 0.128182 -0.098789 -0.005499 0.128182 -0.098789 -0.082842 0.079036 0.114501 0.119784 0.158461 0.206278 0.197127 0.207607 -0.007012 0.197127 0.207607 -0.007012 0.119784 0.158461 0.206278 0.208126 -0.048757 0.190566 0.285469 0.000389 -0.022724 0.285469 0.000389 -0.022724 0.208126 -0.048757 0.190566 0.005499 -0.128182 0.098789 0.082842 -0.079036 -0.114501 0.197127 0.207607 -0.007012 0.285469 0.000389 -0.022724 0.119784 0.158461 0.206278 0.208126 -0.048757 0.190566 " />
									<Normal vector="-0.077059 -0.601703 -0.794946 -0.461776 -0.846156 0.265938 -0.913511 0.213416 0.346294 -0.528794 0.457869 -0.714621 -0.528794 0.457869 -0.714621 -0.913511 0.213416 0.346294 0.077059 0.601703 0.794946 0.461776 0.846156 -0.265938 0.461776 0.846156 -0.265938 0.077059 0.601703 0.794946 0.528794 -0.457869 0.714621 0.913511 -0.213416 -0.346294 0.913511 -0.213416 -0.346294 0.528794 -0.457869 0.714621 -0.461776 -0.846156 0.265938 -0.077059 -0.601703 -0.794946 0.461776 0.846156 -0.265938 0.913511 -0.213416 -0.346294 0.077059 0.601703 0.794946 0.528794 -0.457869 0.714621 " />
									<TextureCoordinate point="0.0248 0.0238 0.4729 0.0238 0.4729 0.9762 0.0248 0.9762 0.0248 0.0238 0.4729 0.0238 0.4729 0.9762 0.0248 0.9762 0.0248 0.0238 0.4729 0.0238 0.4729 0.9762 0.0248 0.9762 0.0248 0.0238 0.4729 0.0238 0.4729 0.9762 0.0248 0.9762 0.4729 0.0238 0.4729 0.9762 0.0248 0.0238 0.0248 0.9762 " />
								</IndexedTriangleSet>
							</Shape>
						</Group>
					</Transform>
				</Transform>
				<Transform DEF="Cube_017_TRANSFORM"
				           translation="-0.021135 0.045034 -0.255894"
				           scale="1.000000 1.000000 1.000000"
				           rotation="0.000000 1.000000 0.000000 0.000000"
				           >
					<Transform DEF="Cube_017_ifs_TRANSFORM"
					           translation="0.000000 0.000000 0.000000"
					           scale="1.000000 1.000000 1.000000"
					           rotation="0.000000 1.000000 0.000000 0.000000"
					           >
						<Group DEF="group_ME_Cube_023">
							<Shape>
								<Appearance>
									<Material USE="MA_Body" />
								</Appearance>
								<IndexedTriangleSet solid="false"
								                    normalPerVertex="true"
								                    index="0 1 2 0 2 3 4 5 6 4 6 7 8 9 10 8 10 11 12 13 14 12 14 15 4 16 17 4 17 15 18 5 14 18 14 19 "
								                    >
									<Coordinate point="0.058397 -0.124430 -0.081825 0.058397 -0.124430 0.081825 -0.058397 0.124430 0.081825 -0.058397 0.124430 -0.081825 -0.058397 0.124430 -0.081825 -0.058397 0.124430 0.081825 0.187796 0.239972 0.081825 0.187796 0.239972 -0.081825 0.187796 0.239972 -0.081825 0.187796 0.239972 0.081825 0.304589 -0.008888 0.081825 0.304589 -0.008888 -0.081825 0.304589 -0.008888 -0.081825 0.304589 -0.008888 0.081825 0.058397 -0.124430 0.081825 0.058397 -0.124430 -0.081825 0.187796 0.239972 -0.081825 0.304589 -0.008888 -0.081825 0.187796 0.239972 0.081825 0.304589 -0.008888 0.081825 " />
									<Normal vector="-0.277352 -0.767937 -0.577349 -0.277352 -0.767937 0.577349 -0.767937 0.277352 0.577349 -0.767937 0.277352 -0.577349 -0.767937 0.277352 -0.577349 -0.767937 0.277352 0.577349 0.277352 0.767937 0.577349 0.277352 0.767937 -0.577349 0.277352 0.767937 -0.577349 0.277352 0.767937 0.577349 0.767937 -0.277352 0.577349 0.767937 -0.277352 -0.577349 0.767937 -0.277352 -0.577349 0.767937 -0.277352 0.577349 -0.277352 -0.767937 0.577349 -0.277352 -0.767937 -0.577349 0.277352 0.767937 -0.577349 0.767937 -0.277352 -0.577349 0.277352 0.767937 0.577349 0.767937 -0.277352 0.577349 " />
									<TextureCoordinate point="0.0248 0.0238 0.4729 0.0238 0.4729 0.9762 0.0248 0.9762 0.0248 0.0238 0.4729 0.0238 0.4729 0.9762 0.0248 0.9762 0.0248 0.0238 0.4729 0.0238 0.4729 0.9762 0.0248 0.9762 0.0248 0.0238 0.4729 0.0238 0.4729 0.9762 0.0248 0.9762 0.4729 0.0238 0.4729 0.9762 0.0248 0.0238 0.0248 0.9762 " />
								</IndexedTriangleSet>
							</Shape>
						</Group>
					</Transform>
					<Transform DEF="Cube_018_TRANSFORM"
					           translation="0.210417 0.098751 -0.019912"
					           scale="1.000000 1.000000 1.000000"
					           rotation="0.000000 1.000000 0.000000 0.000000"
					           >
						<Transform DEF="Cube_018_ifs_TRANSFORM"
						           translation="0.000000 0.000000 0.000000"
						           scale="1.000000 1.000000 1.000000"
						           rotation="0.000000 1.000000 0.000000 0.000000"
						           >
							<Group DEF="group_ME_Cube_024">
								<Shape>
									<Appearance>
										<Material USE="MA_Body" />
									</Appearance>
									<IndexedTriangleSet solid="false"
									                    normalPerVertex="true"
									                    index="0 1 2 0 2 3 4 5 6 4 6 7 8 9 10 8 10 11 12 13 14 12 14 15 4 16 17 4 17 15 18 5 14 18 14 19 "
									                    >
										<Coordinate point="0.054562 -0.064791 -0.053898 0.014972 -0.083371 0.053898 -0.054562 0.064791 0.053898 -0.014972 0.083371 -0.053898 -0.014972 0.083371 -0.053898 -0.054562 0.064791 0.053898 0.114964 0.144352 0.129873 0.154554 0.162932 0.022078 0.154554 0.162932 0.022078 0.114964 0.144352 0.129873 0.184499 -0.003810 0.129873 0.224089 0.014770 0.022078 0.224089 0.014770 0.022078 0.184499 -0.003810 0.129873 0.014972 -0.083371 0.053898 0.054562 -0.064791 -0.053898 0.154554 0.162932 0.022078 0.224089 0.014770 0.022078 0.114964 0.144352 0.129873 0.184499 -0.003810 0.129873 " />
										<Normal vector="-0.042512 -0.657704 -0.752037 -0.435499 -0.842158 0.317942 -0.926084 0.203131 0.317942 -0.533097 0.387555 -0.752037 -0.533097 0.387555 -0.752037 -0.926084 0.203131 0.317942 0.042512 0.657704 0.752037 0.435499 0.842158 -0.317942 0.435499 0.842158 -0.317942 0.042512 0.657704 0.752037 0.533097 -0.387555 0.752037 0.926084 -0.203131 -0.317942 0.926084 -0.203131 -0.317942 0.533097 -0.387555 0.752037 -0.435499 -0.842158 0.317942 -0.042512 -0.657704 -0.752037 0.435499 0.842158 -0.317942 0.926084 -0.203131 -0.317942 0.042512 0.657704 0.752037 0.533097 -0.387555 0.752037 " />
										<TextureCoordinate point="0.0248 0.0238 0.4729 0.0238 0.4729 0.9762 0.0248 0.9762 0.0248 0.0238 0.4729 0.0238 0.4729 0.9762 0.0248 0.9762 0.0248 0.0238 0.4729 0.0238 0.4729 0.9762 0.0248 0.9762 0.0248 0.0238 0.4729 0.0238 0.4729 0.9762 0.0248 0.9762 0.4729 0.0238 0.4729 0.9762 0.0248 0.0238 0.0248 0.9762 " />
									</IndexedTriangleSet>
								</Shape>
							</Group>
						</Transform>
					</Transform>
					<Transform DEF="Cube_023_TRANSFORM"
					           translation="-1.557836 0.098751 -0.019912"
					           scale="1.000000 1.000000 1.000000"
					           rotation="0.000000 1.000000 0.000000 0.000000"
					           >
						<Transform DEF="Cube_023_ifs_TRANSFORM"
						           translation="0.000000 0.000000 0.000000"
						           scale="1.000000 1.000000 1.000000"
						           rotation="0.000000 1.000000 0.000000 0.000000"
						           >
							<Group DEF="group_ME_Cube_018">
								<Shape>
									<Appearance>
										<Material USE="MA_Body" />
									</Appearance>
									<IndexedTriangleSet solid="false"
									                    normalPerVertex="true"
									                    index="0 1 2 0 2 3 4 5 6 4 6 7 8 9 10 8 10 11 12 13 14 12 14 15 4 13 16 4 16 17 18 19 14 18 14 7 "
									                    >
										<Coordinate point="-0.054562 -0.064791 -0.053898 0.014972 0.083371 -0.053898 0.054562 0.064791 0.053898 -0.014972 -0.083371 0.053898 0.014972 0.083371 -0.053898 -0.154554 0.162932 0.022078 -0.114964 0.144352 0.129873 0.054562 0.064791 0.053898 -0.154554 0.162932 0.022078 -0.224088 0.014770 0.022078 -0.184499 -0.003810 0.129873 -0.114964 0.144352 0.129873 -0.224088 0.014770 0.022078 -0.054562 -0.064791 -0.053898 -0.014972 -0.083371 0.053898 -0.184499 -0.003810 0.129873 -0.224088 0.014770 0.022078 -0.154554 0.162932 0.022078 -0.114964 0.144352 0.129873 -0.184499 -0.003810 0.129873 " />
										<Normal vector="0.042512 -0.657704 -0.752037 0.533097 0.387555 -0.752037 0.926084 0.203131 0.317942 0.435499 -0.842158 0.317942 0.533097 0.387555 -0.752037 -0.435499 0.842158 -0.317942 -0.042512 0.657704 0.752037 0.926084 0.203131 0.317942 -0.435499 0.842158 -0.317942 -0.926084 -0.203131 -0.317942 -0.533097 -0.387555 0.752037 -0.042512 0.657704 0.752037 -0.926084 -0.203131 -0.317942 0.042512 -0.657704 -0.752037 0.435499 -0.842158 0.317942 -0.533097 -0.387555 0.752037 -0.926084 -0.203131 -0.317942 -0.435499 0.842158 -0.317942 -0.042512 0.657704 0.752037 -0.533097 -0.387555 0.752037 " />
										<TextureCoordinate point="0.0248 0.0238 0.0248 0.9762 0.4729 0.9762 0.4729 0.0238 0.0248 0.0238 0.0248 0.9762 0.4729 0.9762 0.4729 0.0238 0.0248 0.0238 0.0248 0.9762 0.4729 0.9762 0.4729 0.0238 0.0248 0.0238 0.0248 0.9762 0.4729 0.9762 0.4729 0.0238 0.4729 0.9762 0.4729 0.0238 0.0248 0.0238 0.0248 0.9762 " />
									</IndexedTriangleSet>
								</Shape>
							</Group>
						</Transform>
					</Transform>
				</Transform>
			</Transform>
			<Transform DEF="Plane_TRANSFORM"
			           translation="0.331551 -0.834772 0.998087"
			           scale="1.000000 1.000000 1.000000"
			           rotation="0.000000 1.000000 0.000000 0.000000"
			           >
				<Transform DEF="Plane_ifs_TRANSFORM"
				           translation="0.000000 0.000000 0.000000"
				           scale="1.000000 1.000000 1.000000"
				           rotation="0.000000 1.000000 0.000000 0.000000"
				           >
					<Group DEF="group_ME_Plane">
						<Shape>
							<Appearance>
								<Material DEF="MA_Eye"
								          diffuseColor="0.800 0.800 0.800"
								          specularColor="0.401 0.401 0.401"
								          emissiveColor="0.000 0.000 0.000"
								          ambientIntensity="0.000"
								          shininess="0.500"
								          transparency="0.0"
								          />
							</Appearance>
							<IndexedTriangleSet solid="false"
							                    normalPerVertex="true"
							                    index="0 1 2 0 2 3 "
							                    >
								<Coordinate point="0.000000 -0.025089 -0.383749 0.765337 -0.025089 -0.383749 0.765337 0.025089 0.383749 0.000000 0.025089 0.383749 " />
								<Normal vector="0.000000 -0.997864 0.065218 0.000000 -0.997864 0.065218 0.000000 -0.997864 0.065218 0.000000 -0.997864 0.065218 " />
								<TextureCoordinate point="0.0000 0.5010 1.0000 0.5010 1.0000 0.9984 0.0000 0.9984 " />
							</IndexedTriangleSet>
						</Shape>
					</Group>
				</Transform>
			</Transform>
			<Transform DEF="wing2_TRANSFORM"
			           translation="-0.752439 -0.059627 0.410155"
			           scale="1.000000 1.000000 1.000000"
			           rotation="0.000000 1.000000 0.000000 0.000000"
			           >
				<Transform DEF="wing2_ifs_TRANSFORM"
				           translation="0.000000 0.000000 0.000000"
				           scale="1.000000 1.000000 1.000000"
				           rotation="0.000000 1.000000 0.000000 0.000000"
				           >
					<Group DEF="group_ME_wing2">
						<Shape>
							<Appearance>
								<Material USE="MA_Body" />
							</Appearance>
							<IndexedTriangleSet solid="false"
							                    normalPerVertex="true"
							                    index="0 1 2 0 2 3 4 5 6 4 6 7 8 9 10 8 10 11 12 13 14 12 14 15 4 13 16 4 16 17 18 19 14 18 14 7 "
							                    >
								<Coordinate point="-0.071973 -0.118480 -0.288159 -0.071973 0.118480 -0.288159 0.071973 0.118480 0.288159 0.071973 -0.118480 0.288159 -0.071973 0.118480 -0.288159 -0.623551 0.118480 -0.150393 -0.479605 0.118480 0.425925 0.071973 0.118480 0.288159 -0.623551 0.118480 -0.150393 -0.623551 -0.118480 -0.150393 -0.479605 -0.118480 0.425925 -0.479605 0.118480 0.425925 -0.623551 -0.118480 -0.150393 -0.071973 -0.118480 -0.288159 0.071973 -0.118480 0.288159 -0.479605 -0.118480 0.425925 -0.623551 -0.118480 -0.150393 -0.623551 0.118480 -0.150393 -0.479605 0.118480 0.425925 -0.479605 -0.118480 0.425925 " />
								<Normal vector="0.420209 -0.577349 -0.700034 0.420209 0.577349 -0.700034 0.700034 0.577349 0.420209 0.700034 -0.577349 0.420209 0.420209 0.577349 -0.700034 -0.700034 0.577349 -0.420209 -0.420209 0.577349 0.700034 0.700034 0.577349 0.420209 -0.700034 0.577349 -0.420209 -0.700034 -0.577349 -0.420209 -0.420209 -0.577349 0.700034 -0.420209 0.577349 0.700034 -0.700034 -0.577349 -0.420209 0.420209 -0.577349 -0.700034 0.700034 -0.577349 0.420209 -0.420209 -0.577349 0.700034 -0.700034 -0.577349 -0.420209 -0.700034 0.577349 -0.420209 -0.420209 0.577349 0.700034 -0.420209 -0.577349 0.700034 " />
								<TextureCoordinate point="0.0248 0.0238 0.0248 0.9762 0.4729 0.9762 0.4729 0.0238 0.0248 0.0238 0.0248 0.9762 0.4729 0.9762 0.4729 0.0238 0.0248 0.0238 0.0248 0.9762 0.4729 0.9762 0.4729 0.0238 0.0248 0.0238 0.0248 0.9762 0.4729 0.9762 0.4729 0.0238 0.4729 0.9762 0.4729 0.0238 0.0248 0.0238 0.0248 0.9762 " />
							</IndexedTriangleSet>
						</Shape>
					</Group>
				</Transform>
				<Transform DEF="Cube_019_TRANSFORM"
				           translation="-0.479346 -0.000000 0.115263"
				           scale="1.000000 1.000000 1.000000"
				           rotation="0.000000 1.000000 0.000000 0.000000"
				           >
					<Transform DEF="Cube_019_ifs_TRANSFORM"
					           translation="0.000000 0.000000 0.000000"
					           scale="1.000000 1.000000 1.000000"
					           rotation="0.000000 1.000000 0.000000 0.000000"
					           >
						<Group DEF="group_ME_Cube_005">
							<Shape>
								<Appearance>
									<Material USE="MA_Body" />
								</Appearance>
								<IndexedTriangleSet solid="false"
								                    normalPerVertex="true"
								                    index="0 1 2 0 2 3 4 5 6 4 6 7 8 9 10 8 10 11 12 13 14 12 14 15 4 13 16 4 16 17 18 19 14 18 14 7 "
								                    >
									<Coordinate point="-0.099276 -0.096171 -0.219699 -0.099276 0.096171 -0.219699 0.099276 0.096171 0.219699 0.099276 -0.096171 0.219699 -0.099276 0.096171 -0.219699 -0.578816 0.096171 -0.003008 -0.380264 0.096171 0.436390 0.099276 0.096171 0.219699 -0.578816 0.096171 -0.003008 -0.578816 -0.096171 -0.003008 -0.380264 -0.096171 0.436390 -0.380264 0.096171 0.436390 -0.578816 -0.096171 -0.003008 -0.099276 -0.096171 -0.219699 0.099276 -0.096171 0.219699 -0.380264 -0.096171 0.436390 -0.578816 -0.096171 -0.003008 -0.578816 0.096171 -0.003008 -0.380264 0.096171 0.436390 -0.380264 -0.096171 0.436390 " />
									<Normal vector="0.288369 -0.577349 -0.763848 0.288369 0.577349 -0.763848 0.763848 0.577349 0.288369 0.763848 -0.577349 0.288369 0.288369 0.577349 -0.763848 -0.763848 0.577349 -0.288369 -0.288369 0.577349 0.763848 0.763848 0.577349 0.288369 -0.763848 0.577349 -0.288369 -0.763848 -0.577349 -0.288369 -0.288369 -0.577349 0.763848 -0.288369 0.577349 0.763848 -0.763848 -0.577349 -0.288369 0.288369 -0.577349 -0.763848 0.763848 -0.577349 0.288369 -0.288369 -0.577349 0.763848 -0.763848 -0.577349 -0.288369 -0.763848 0.577349 -0.288369 -0.288369 0.577349 0.763848 -0.288369 -0.577349 0.763848 " />
									<TextureCoordinate point="0.0248 0.0238 0.0248 0.9762 0.4729 0.9762 0.4729 0.0238 0.0248 0.0238 0.0248 0.9762 0.4729 0.9762 0.4729 0.0238 0.0248 0.0238 0.0248 0.9762 0.4729 0.9762 0.4729 0.0238 0.0248 0.0238 0.0248 0.9762 0.4729 0.9762 0.4729 0.0238 0.4729 0.9762 0.4729 0.0238 0.0248 0.0238 0.0248 0.9762 " />
								</IndexedTriangleSet>
							</Shape>
						</Group>
					</Transform>
				</Transform>
				<Transform DEF="Cube_020_TRANSFORM"
				           translation="-0.071636 0.000000 -0.312874"
				           scale="1.000000 1.000000 1.000000"
				           rotation="0.000000 1.000000 0.000000 0.000000"
				           >
					<Transform DEF="Cube_020_ifs_TRANSFORM"
					           translation="0.000000 0.000000 0.000000"
					           scale="1.000000 1.000000 1.000000"
					           rotation="0.000000 1.000000 0.000000 0.000000"
					           >
						<Group DEF="group_ME_Cube_007">
							<Shape>
								<Appearance>
									<Material USE="MA_Body" />
								</Appearance>
								<IndexedTriangleSet solid="false"
								                    normalPerVertex="true"
								                    index="0 1 2 0 2 3 4 5 6 4 6 7 8 9 10 8 10 11 12 13 14 12 14 15 4 13 16 4 16 17 18 19 14 18 14 7 "
								                    >
									<Coordinate point="-0.005577 -0.090676 -0.079699 -0.005577 0.090676 -0.079699 0.005577 0.090676 0.079699 0.005577 -0.090676 0.079699 -0.005577 0.090676 -0.079699 -0.449006 0.090676 -0.048670 -0.437852 0.090676 0.110729 0.005577 0.090676 0.079699 -0.449006 0.090676 -0.048670 -0.449006 -0.090676 -0.048670 -0.437852 -0.090676 0.110729 -0.437852 0.090676 0.110729 -0.449006 -0.090676 -0.048670 -0.005577 -0.090676 -0.079699 0.005577 -0.090676 0.079699 -0.437852 -0.090676 0.110729 -0.449006 -0.090676 -0.048670 -0.449006 0.090676 -0.048670 -0.437852 0.090676 0.110729 -0.437852 -0.090676 0.110729 " />
									<Normal vector="0.535630 -0.577349 -0.616230 0.535630 0.577349 -0.616230 0.616230 0.577349 0.535630 0.616230 -0.577349 0.535630 0.535630 0.577349 -0.616230 -0.616230 0.577349 -0.535630 -0.535630 0.577349 0.616230 0.616230 0.577349 0.535630 -0.616230 0.577349 -0.535630 -0.616230 -0.577349 -0.535630 -0.535630 -0.577349 0.616230 -0.535630 0.577349 0.616230 -0.616230 -0.577349 -0.535630 0.535630 -0.577349 -0.616230 0.616230 -0.577349 0.535630 -0.535630 -0.577349 0.616230 -0.616230 -0.577349 -0.535630 -0.616230 0.577349 -0.535630 -0.535630 0.577349 0.616230 -0.535630 -0.577349 0.616230 " />
									<TextureCoordinate point="0.0248 0.0238 0.0248 0.9762 0.4729 0.9762 0.4729 0.0238 0.0248 0.0238 0.0248 0.9762 0.4729 0.9762 0.4729 0.0238 0.0248 0.0238 0.0248 0.9762 0.4729 0.9762 0.4729 0.0238 0.0248 0.0238 0.0248 0.9762 0.4729 0.9762 0.4729 0.0238 0.4729 0.9762 0.4729 0.0238 0.0248 0.0238 0.0248 0.9762 " />
								</IndexedTriangleSet>
							</Shape>
						</Group>
					</Transform>
				</Transform>
			</Transform>
			<Transform DEF="Cube_021_TRANSFORM"
			           translation="-0.604056 0.396289 1.197712"
			           scale="1.000000 1.000000 1.000000"
			           rotation="0.000000 1.000000 0.000000 0.000000"
			           >
				<Transform DEF="Cube_021_ifs_TRANSFORM"
				           translation="0.000000 0.000000 0.000000"
				           scale="1.000000 1.000000 1.000000"
				           rotation="0.000000 1.000000 0.000000 0.000000"
				           >
					<Group DEF="group_ME_Cube_008">
						<Shape>
							<Appearance>
								<Material USE="MA_Body" />
							</Appearance>
							<IndexedTriangleSet solid="false"
							                    normalPerVertex="true"
							                    index="0 1 2 0 2 3 4 5 6 4 6 7 8 9 10 8 10 11 12 13 14 12 14 15 4 13 16 4 16 17 18 19 14 18 14 7 "
							                    >
								<Coordinate point="-0.139893 -0.181653 -0.170431 0.139893 0.181653 -0.170431 0.139893 0.181653 0.170431 -0.139893 -0.181653 0.170431 0.139893 0.181653 -0.170431 -0.156438 0.409861 -0.170431 -0.156438 0.409861 0.170431 0.139893 0.181653 0.170431 -0.156438 0.409861 -0.170431 -0.436224 0.046554 -0.170431 -0.436224 0.046554 0.170431 -0.156438 0.409861 0.170431 -0.436224 0.046554 -0.170431 -0.139893 -0.181653 -0.170431 -0.139893 -0.181653 0.170431 -0.436224 0.046554 0.170431 -0.436224 0.046554 -0.170431 -0.156438 0.409861 -0.170431 -0.156438 0.409861 0.170431 -0.436224 0.046554 0.170431 " />
								<Normal vector="0.105136 -0.809687 -0.577349 0.809687 0.105136 -0.577349 0.809687 0.105136 0.577349 0.105136 -0.809687 0.577349 0.809687 0.105136 -0.577349 -0.105136 0.809687 -0.577349 -0.105136 0.809687 0.577349 0.809687 0.105136 0.577349 -0.105136 0.809687 -0.577349 -0.809687 -0.105136 -0.577349 -0.809687 -0.105136 0.577349 -0.105136 0.809687 0.577349 -0.809687 -0.105136 -0.577349 0.105136 -0.809687 -0.577349 0.105136 -0.809687 0.577349 -0.809687 -0.105136 0.577349 -0.809687 -0.105136 -0.577349 -0.105136 0.809687 -0.577349 -0.105136 0.809687 0.577349 -0.809687 -0.105136 0.577349 " />
								<TextureCoordinate point="0.0248 0.0238 0.0248 0.9762 0.4729 0.9762 0.4729 0.0238 0.0248 0.0238 0.0248 0.9762 0.4729 0.9762 0.4729 0.0238 0.0248 0.0238 0.0248 0.9762 0.4729 0.9762 0.4729 0.0238 0.0248 0.0238 0.0248 0.9762 0.4729 0.9762 0.4729 0.0238 0.4729 0.9762 0.4729 0.0238 0.0248 0.0238 0.0248 0.9762 " />
							</IndexedTriangleSet>
						</Shape>
					</Group>
				</Transform>
				<Transform DEF="Cube_022_TRANSFORM"
				           translation="-0.256253 0.158861 0.000000"
				           scale="1.000000 1.000000 1.000000"
				           rotation="0.000000 1.000000 0.000000 0.000000"
				           >
					<Transform DEF="Cube_022_ifs_TRANSFORM"
					           translation="0.000000 0.000000 0.000000"
					           scale="1.000000 1.000000 1.000000"
					           rotation="0.000000 1.000000 0.000000 0.000000"
					           >
						<Group DEF="group_ME_Cube_017">
							<Shape>
								<Appearance>
									<Material USE="MA_Body" />
								</Appearance>
								<IndexedTriangleSet solid="false"
								                    normalPerVertex="true"
								                    index="0 1 2 0 2 3 4 5 6 4 6 7 8 9 10 8 10 11 12 13 14 12 14 15 4 13 16 4 16 17 18 19 14 18 14 7 "
								                    >
									<Coordinate point="-0.082842 -0.079036 -0.114501 0.005499 0.128182 -0.098789 0.082842 0.079036 0.114501 -0.005499 -0.128182 0.098789 0.005499 0.128182 -0.098789 -0.197127 0.207607 -0.007012 -0.119784 0.158461 0.206278 0.082842 0.079036 0.114501 -0.197127 0.207607 -0.007012 -0.285469 0.000389 -0.022724 -0.208126 -0.048757 0.190566 -0.119784 0.158461 0.206278 -0.285469 0.000389 -0.022724 -0.082842 -0.079036 -0.114501 -0.005499 -0.128182 0.098789 -0.208126 -0.048757 0.190566 -0.285469 0.000389 -0.022724 -0.197127 0.207607 -0.007012 -0.119784 0.158461 0.206278 -0.208126 -0.048757 0.190566 " />
									<Normal vector="0.077059 -0.601703 -0.794946 0.528794 0.457869 -0.714621 0.913511 0.213416 0.346294 0.461776 -0.846156 0.265938 0.528794 0.457869 -0.714621 -0.461776 0.846156 -0.265938 -0.077059 0.601703 0.794946 0.913511 0.213416 0.346294 -0.461776 0.846156 -0.265938 -0.913511 -0.213416 -0.346294 -0.528794 -0.457869 0.714621 -0.077059 0.601703 0.794946 -0.913511 -0.213416 -0.346294 0.077059 -0.601703 -0.794946 0.461776 -0.846156 0.265938 -0.528794 -0.457869 0.714621 -0.913511 -0.213416 -0.346294 -0.461776 0.846156 -0.265938 -0.077059 0.601703 0.794946 -0.528794 -0.457869 0.714621 " />
									<TextureCoordinate point="0.0248 0.0238 0.0248 0.9762 0.4729 0.9762 0.4729 0.0238 0.0248 0.0238 0.0248 0.9762 0.4729 0.9762 0.4729 0.0238 0.0248 0.0238 0.0248 0.9762 0.4729 0.9762 0.4729 0.0238 0.0248 0.0238 0.0248 0.9762 0.4729 0.9762 0.4729 0.0238 0.4729 0.9762 0.4729 0.0238 0.0248 0.0238 0.0248 0.9762 " />
								</IndexedTriangleSet>
							</Shape>
						</Group>
					</Transform>
				</Transform>
			</Transform>
			<Transform DEF="Plane_001_TRANSFORM"
			           translation="-0.331551 -0.834772 0.998087"
			           scale="1.000000 1.000000 1.000000"
			           rotation="0.000000 1.000000 0.000000 0.000000"
			           >
				<Transform DEF="Plane_001_ifs_TRANSFORM"
				           translation="0.000000 0.000000 0.000000"
				           scale="1.000000 1.000000 1.000000"
				           rotation="0.000000 1.000000 0.000000 0.000000"
				           >
					<Group DEF="group_ME_Plane_001">
						<Shape>
							<Appearance>
								<Material USE="MA_Eye" />
							</Appearance>
							<IndexedTriangleSet solid="false"
							                    normalPerVertex="true"
							                    index="0 1 2 0 2 3 "
							                    >
								<Coordinate point="-0.000000 -0.025089 -0.383749 -0.000000 0.025089 0.383749 -0.765337 0.025089 0.383749 -0.765337 -0.025089 -0.383749 " />
								<Normal vector="0.000000 -0.997864 0.065218 0.000000 -0.997864 0.065218 0.000000 -0.997864 0.065218 0.000000 -0.997864 0.065218 " />
								<TextureCoordinate point="0.0000 0.5010 0.0000 0.9984 1.0000 0.9984 1.0000 0.5010 " />
							</IndexedTriangleSet>
						</Shape>
					</Group>
				</Transform>
			</Transform>
		</Transform>
	</Scene>
</X3D>