<?xml version="1.0" encoding="UTF-8"?>
<!DOCTYPE X3D PUBLIC "ISO//Web3D//DTD X3D 3.0//EN" "http://www.web3d.org/specifications/x3d-3.0.dtd">
<X3D version="3.0" profile="Immersive" xmlns:xsd="http://www.w3.org/2001/XMLSchema-instance" xsd:noNamespaceSchemaLocation="http://www.web3d.org/specifications/x3d-3.0.xsd">
	<head>
		<meta name="filename" content="starmie.x3d" />
		<meta name="generator" content="Blender 2.93.18" />
	</head>
	<Scene>
		<NavigationInfo headlight="true"
		                visibilityLimit="0.0"
		                type='"EXAMINE", "ANY"'
		                avatarSize="0.25, 1.75, 0.75"
		                />
		<Background DEF="WO_World"
		            groundColor="0.051 0.051 0.051"
		            skyColor="0.051 0.051 0.051"
		            />
		<Transform DEF="body_TRANSFORM"
		           translation="0.000000 0.061908 2.633491"
		           scale="1.000000 1.000000 1.000000"
		           rotation="0.000000 0.000000 1.000000 3.141593"
		           >
			<Transform DEF="body_ifs_TRANSFORM"
			           translation="0.000000 0.000000 0.000000"
			           scale="1.000000 1.000000 1.000000"
			           rotation="0.000000 1.000000 0.000000 0.000000"
			           >
				<Group DEF="group_ME_body">
					<Shape>
						<Appearance>
							<Material DEF="MA_Body"
							          diffuseColor="0.800 0.800 0.800"
							          specularColor="0.401 0.401 0.401"
							          emissiveColor="0.000 0.000 0.000"
							          ambientIntensity="0.000"
							          shininess="0.500"
							          transparency="0.0"
							          />
						</Appearance>
						<IndexedTriangleSet solid="false"
						                    normalPerVertex="true"
						                    index="0 1 2 0 2 3 4 5 6 4 6 7 8 9 10 8 10 11 12 13 14 12 14 15 4 16 17 4 17 15 18 5 14 18 14 19 "
						                    >
							<Coordinate point="-1.073354 -0.589947 -1.142779 -1.073354 -0.589947 1.142779 -1.073354 0.589947 1.142779 -1.073354 0.589947 -1.142779 -1.073354 0.589947 -1.142779 -1.073354 0.589947 1.142779 1.073354 0.589947 1.142779 1.073354 0.589947 -1.142779 1.073354 0.589947 -1.142779 1.073354 0.589947 1.142779 1.073354 -0.589947 1.142779 1.073354 -0.589947 -1.142779 1.073354 -0.589947 -1.142779 1.073354 -0.589947 1.142779 -1.073354 -0.589947 1.142779 -1.073354 -0.589947 -1.142779 1.073354 0.589947 -1.142779 1.073354 -0.589947 -1.142779 1.073354 0.589947 1.142779 1.073354 -0.589947 1.142779 " />
							<Normal vector="-0.577349 -0.577349 -0.577349 -0.577349 -0.577349 0.577349 -0.577349 0.577349 0.577349 -0.577349 0.577349 -0.577349 -0.577349 0.577349 -0.577349 -0.577349 0.577349 0.577349 0.577349 0.577349 0.577349 0.577349 0.577349 -0.577349 0.577349 0.577349 -0.577349 0.577349 0.577349 0.577349 0.577349 -0.577349 0.577349 0.577349 -0.577349 -0.577349 0.577349 -0.577349 -0.577349 0.577349 -0.577349 0.577349 -0.577349 -0.577349 0.577349 -0.577349 -0.577349 -0.577349 0.577349 0.577349 -0.577349 0.577349 -0.577349 -0.577349 0.577349 0.577349 0.577349 0.577349 -0.577349 0.577349 " />
							<TextureCoordinate point="0.0739 0.7491 0.9360 0.7491 0.9360 0.9743 0.0739 0.9743 0.0739 0.7491 0.9360 0.7491 0.9360 0.9743 0.0739 0.9743 0.0739 0.7491 0.9360 0.7491 0.9360 0.9743 0.0739 0.9743 0.0739 0.7491 0.9360 0.7491 0.9360 0.9743 0.0739 0.9743 0.9360 0.7491 0.9360 0.9743 0.0739 0.7491 0.0739 0.9743 " />
						</IndexedTriangleSet>
					</Shape>
				</Group>
			</Transform>
			<Transform DEF="body1_TRANSFORM"
			           translation="0.000000 0.928622 0.333272"
			           scale="1.000000 1.000000 1.000000"
			           rotation="0.000000 1.000000 0.000000 0.000000"
			           >
				<Transform DEF="body1_ifs_TRANSFORM"
				           translation="0.000000 0.000000 0.000000"
				           scale="1.000000 1.000000 1.000000"
				           rotation="0.000000 1.000000 0.000000 0.000000"
				           >
					<Group DEF="group_ME_body1">
						<Shape>
							<Appearance>
								<Material USE="MA_Body" />
							</Appearance>
							<IndexedTriangleSet solid="false"
							                    normalPerVertex="true"
							                    index="0 1 2 0 2 3 4 5 6 4 6 7 8 9 10 8 10 11 12 13 14 12 14 15 4 16 17 4 17 15 18 5 14 18 14 19 "
							                    >
								<Coordinate point="-1.142778 -0.584266 -1.142779 -1.142778 -0.584266 1.142779 -1.142778 0.584266 1.142779 -1.142778 0.584266 -1.142779 -1.142778 0.584266 -1.142779 -1.142778 0.584266 1.142779 1.142778 0.584266 1.142779 1.142778 0.584266 -1.142779 1.142778 0.584266 -1.142779 1.142778 0.584266 1.142779 1.142778 -0.584266 1.142779 1.142778 -0.584266 -1.142779 1.142778 -0.584266 -1.142779 1.142778 -0.584266 1.142779 -1.142778 -0.584266 1.142779 -1.142778 -0.584266 -1.142779 1.142778 0.584266 -1.142779 1.142778 -0.584266 -1.142779 1.142778 0.584266 1.142779 1.142778 -0.584266 1.142779 " />
								<Normal vector="-0.577349 -0.577349 -0.577349 -0.577349 -0.577349 0.577349 -0.577349 0.577349 0.577349 -0.577349 0.577349 -0.577349 -0.577349 0.577349 -0.577349 -0.577349 0.577349 0.577349 0.577349 0.577349 0.577349 0.577349 0.577349 -0.577349 0.577349 0.577349 -0.577349 0.577349 0.577349 0.577349 0.577349 -0.577349 0.577349 0.577349 -0.577349 -0.577349 0.577349 -0.577349 -0.577349 0.577349 -0.577349 0.577349 -0.577349 -0.577349 0.577349 -0.577349 -0.577349 -0.577349 0.577349 0.577349 -0.577349 0.577349 -0.577349 -0.577349 0.577349 0.577349 0.577349 0.577349 -0.577349 0.577349 " />
								<TextureCoordinate point="0.0739 0.7491 0.9360 0.7491 0.9360 0.9743 0.0739 0.9743 0.0739 0.7491 0.9360 0.7491 0.9360 0.9743 0.0739 0.9743 0.0739 0.7491 0.9360 0.7491 0.9360 0.9743 0.0739 0.9743 0.0739 0.7491 0.9360 0.7491 0.9360 0.9743 0.0739 0.9743 0.9360 0.7491 0.9360 0.9743 0.0739 0.7491 0.0739 0.9743 " />
							</IndexedTriangleSet>
						</Shape>
					</Group>
				</Transform>
				<Transform DEF="Cube_014_TRANSFORM"
				           translation="0.828865 -0.152363 -0.340520"
				           scale="1.000000 1.000000 1.000000"
				           rotation="0.000000 1.000000 0.000000 0.000000"
				           >
					<Transform DEF="Cube_014_ifs_TRANSFORM"
					           translation="0.000000 0.000000 0.000000"
					           scale="1.000000 1.000000 1.000000"
					           rotation="0.000000 1.000000 0.000000 0.000000"
					           >
						<Group DEF="group_ME_Cube_047">
							<Shape>
								<Appearance>
									<Material USE="MA_Body" />
								</Appearance>
								<IndexedTriangleSet solid="false"
								                    normalPerVertex="true"
								                    index="0 1 2 0 2 3 4 5 6 4 6 7 8 9 10 8 10 11 12 13 14 12 14 15 4 16 17 4 17 15 18 5 14 18 14 19 "
								                    >
									<Coordinate point="0.195374 -0.469908 0.757923 1.244945 -0.469908 0.487370 1.244945 0.469908 0.487370 0.195374 0.469908 0.757923 0.195374 0.469908 0.757923 1.244945 0.469908 0.487370 0.854198 0.469908 -1.028476 -0.195374 0.469908 -0.757923 -0.195374 0.469908 -0.757923 0.854198 0.469908 -1.028476 0.854198 -0.469908 -1.028476 -0.195374 -0.469908 -0.757923 -0.195374 -0.469908 -0.757923 0.854198 -0.469908 -1.028476 1.244945 -0.469908 0.487370 0.195374 -0.469908 0.757923 -0.195374 0.469908 -0.757923 -0.195374 -0.469908 -0.757923 0.854198 0.469908 -1.028476 0.854198 -0.469908 -1.028476 " />
									<Normal vector="-0.414930 -0.577349 0.703177 0.703177 -0.577349 0.414930 0.703177 0.577349 0.414930 -0.414930 0.577349 0.703177 -0.414930 0.577349 0.703177 0.703177 0.577349 0.414930 0.414930 0.577349 -0.703177 -0.703177 0.577349 -0.414930 -0.703177 0.577349 -0.414930 0.414930 0.577349 -0.703177 0.414930 -0.577349 -0.703177 -0.703177 -0.577349 -0.414930 -0.703177 -0.577349 -0.414930 0.414930 -0.577349 -0.703177 0.703177 -0.577349 0.414930 -0.414930 -0.577349 0.703177 -0.703177 0.577349 -0.414930 -0.703177 -0.577349 -0.414930 0.414930 0.577349 -0.703177 0.414930 -0.577349 -0.703177 " />
									<TextureCoordinate point="0.0739 0.7491 0.9360 0.7491 0.9360 0.9743 0.0739 0.9743 0.0739 0.7491 0.9360 0.7491 0.9360 0.9743 0.0739 0.9743 0.0739 0.7491 0.9360 0.7491 0.9360 0.9743 0.0739 0.9743 0.0739 0.7491 0.9360 0.7491 0.9360 0.9743 0.0739 0.9743 0.9360 0.7491 0.9360 0.9743 0.0739 0.7491 0.0739 0.9743 " />
								</IndexedTriangleSet>
							</Shape>
						</Group>
					</Transform>
					<Transform DEF="Cube_015_TRANSFORM"
					           translation="0.907969 0.000000 -0.234052"
					           scale="1.000000 1.000000 1.000000"
					           rotation="0.000000 1.000000 0.000000 0.000000"
					           >
						<Transform DEF="Cube_015_ifs_TRANSFORM"
						           translation="0.000000 0.000000 0.000000"
						           scale="1.000000 1.000000 1.000000"
						           rotation="0.000000 1.000000 0.000000 0.000000"
						           >
							<Group DEF="group_ME_Cube_048">
								<Shape>
									<Appearance>
										<Material USE="MA_Body" />
									</Appearance>
									<IndexedTriangleSet solid="false"
									                    normalPerVertex="true"
									                    index="0 1 2 0 2 3 4 5 6 4 6 7 8 9 10 8 10 11 12 13 14 12 14 15 4 16 17 4 17 15 18 5 14 18 14 19 "
									                    >
										<Coordinate point="0.140844 -0.361740 0.546384 1.411554 -0.361740 0.218827 1.411554 0.361740 0.218827 0.140844 0.361740 0.546384 0.140844 0.361740 0.546384 1.411554 0.361740 0.218827 1.129865 0.361740 -0.873942 -0.140844 0.361740 -0.546384 -0.140844 0.361740 -0.546384 1.129865 0.361740 -0.873942 1.129865 -0.361740 -0.873942 -0.140844 -0.361740 -0.546384 -0.140844 -0.361740 -0.546384 1.129865 -0.361740 -0.873942 1.411554 -0.361740 0.218827 0.140844 -0.361740 0.546384 -0.140844 0.361740 -0.546384 -0.140844 -0.361740 -0.546384 1.129865 0.361740 -0.873942 1.129865 -0.361740 -0.873942 " />
										<Normal vector="-0.414930 -0.577349 0.703177 0.703177 -0.577349 0.414930 0.703177 0.577349 0.414930 -0.414930 0.577349 0.703177 -0.414930 0.577349 0.703177 0.703177 0.577349 0.414930 0.414930 0.577349 -0.703177 -0.703177 0.577349 -0.414930 -0.703177 0.577349 -0.414930 0.414930 0.577349 -0.703177 0.414930 -0.577349 -0.703177 -0.703177 -0.577349 -0.414930 -0.703177 -0.577349 -0.414930 0.414930 -0.577349 -0.703177 0.703177 -0.577349 0.414930 -0.414930 -0.577349 0.703177 -0.703177 0.577349 -0.414930 -0.703177 -0.577349 -0.414930 0.414930 0.577349 -0.703177 0.414930 -0.577349 -0.703177 " />
										<TextureCoordinate point="0.0739 0.7491 0.9360 0.7491 0.9360 0.9743 0.0739 0.9743 0.0739 0.7491 0.9360 0.7491 0.9360 0.9743 0.0739 0.9743 0.0739 0.7491 0.9360 0.7491 0.9360 0.9743 0.0739 0.9743 0.0739 0.7491 0.9360 0.7491 0.9360 0.9743 0.0739 0.9743 0.9360 0.7491 0.9360 0.9743 0.0739 0.7491 0.0739 0.9743 " />
									</IndexedTriangleSet>
								</Shape>
							</Group>
						</Transform>
					</Transform>
				</Transform>
				<Transform DEF="Cube_016_TRANSFORM"
				           translation="0.482548 -0.152363 0.581698"
				           scale="1.000000 1.000000 1.000000"
				           rotation="0.000000 1.000000 0.000000 0.000000"
				           >
					<Transform DEF="Cube_016_ifs_TRANSFORM"
					           translation="0.000000 0.000000 0.000000"
					           scale="1.000000 1.000000 1.000000"
					           rotation="0.000000 1.000000 0.000000 0.000000"
					           >
						<Group DEF="group_ME_Cube_049">
							<Shape>
								<Appearance>
									<Material USE="MA_Body" />
								</Appearance>
								<IndexedTriangleSet solid="false"
								                    normalPerVertex="true"
								                    index="0 1 2 0 2 3 4 5 6 4 6 7 8 9 10 8 10 11 12 13 14 12 14 15 4 16 17 4 17 15 18 5 14 18 14 19 "
								                    >
									<Coordinate point="-0.677620 -0.469908 0.452002 -0.072281 -0.469908 1.359497 -0.072281 0.469908 1.359497 -0.677620 0.469908 0.452002 -0.677620 0.469908 0.452002 -0.072281 0.469908 1.359497 1.282959 0.469908 0.455492 0.677620 0.469908 -0.452002 0.677620 0.469908 -0.452002 1.282959 0.469908 0.455492 1.282959 -0.469908 0.455492 0.677620 -0.469908 -0.452002 0.677620 -0.469908 -0.452002 1.282959 -0.469908 0.455492 -0.072281 -0.469908 1.359497 -0.677620 -0.469908 0.452002 0.677620 0.469908 -0.452002 0.677620 -0.469908 -0.452002 1.282959 0.469908 0.455492 1.282959 -0.469908 0.455492 " />
									<Normal vector="-0.800653 -0.577349 -0.159917 -0.159917 -0.577349 0.800653 -0.159917 0.577349 0.800653 -0.800653 0.577349 -0.159917 -0.800653 0.577349 -0.159917 -0.159917 0.577349 0.800653 0.800653 0.577349 0.159917 0.159917 0.577349 -0.800653 0.159917 0.577349 -0.800653 0.800653 0.577349 0.159917 0.800653 -0.577349 0.159917 0.159917 -0.577349 -0.800653 0.159917 -0.577349 -0.800653 0.800653 -0.577349 0.159917 -0.159917 -0.577349 0.800653 -0.800653 -0.577349 -0.159917 0.159917 0.577349 -0.800653 0.159917 -0.577349 -0.800653 0.800653 0.577349 0.159917 0.800653 -0.577349 0.159917 " />
									<TextureCoordinate point="0.0739 0.7491 0.9360 0.7491 0.9360 0.9743 0.0739 0.9743 0.0739 0.7491 0.9360 0.7491 0.9360 0.9743 0.0739 0.9743 0.0739 0.7491 0.9360 0.7491 0.9360 0.9743 0.0739 0.9743 0.0739 0.7491 0.9360 0.7491 0.9360 0.9743 0.0739 0.9743 0.9360 0.7491 0.9360 0.9743 0.0739 0.7491 0.0739 0.9743 " />
								</IndexedTriangleSet>
							</Shape>
						</Group>
					</Transform>
					<Transform DEF="Cube_017_TRANSFORM"
					           translation="0.523670 0.000000 0.785060"
					           scale="1.000000 1.000000 1.000000"
					           rotation="0.000000 1.000000 0.000000 0.000000"
					           >
						<Transform DEF="Cube_017_ifs_TRANSFORM"
						           translation="0.000000 0.000000 0.000000"
						           scale="1.000000 1.000000 1.000000"
						           rotation="0.000000 1.000000 0.000000 0.000000"
						           >
							<Group DEF="group_ME_Cube_050">
								<Shape>
									<Appearance>
										<Material USE="MA_Body" />
									</Appearance>
									<IndexedTriangleSet solid="false"
									                    normalPerVertex="true"
									                    index="0 1 2 0 2 3 4 5 6 4 6 7 8 9 10 8 10 11 12 13 14 12 14 15 4 16 17 4 17 15 18 5 14 18 14 19 "
									                    >
										<Coordinate point="-0.488494 -0.361740 0.325847 0.244385 -0.361740 1.424545 0.244385 0.361740 1.424545 -0.488494 0.361740 0.325847 -0.488494 0.361740 0.325847 0.244385 0.361740 1.424545 1.221374 0.361740 0.772851 0.488494 0.361740 -0.325847 0.488494 0.361740 -0.325847 1.221374 0.361740 0.772851 1.221374 -0.361740 0.772851 0.488494 -0.361740 -0.325847 0.488494 -0.361740 -0.325847 1.221374 -0.361740 0.772851 0.244385 -0.361740 1.424545 -0.488494 -0.361740 0.325847 0.488494 0.361740 -0.325847 0.488494 -0.361740 -0.325847 1.221374 0.361740 0.772851 1.221374 -0.361740 0.772851 " />
										<Normal vector="-0.800653 -0.577349 -0.159917 -0.159917 -0.577349 0.800653 -0.159917 0.577349 0.800653 -0.800653 0.577349 -0.159917 -0.800653 0.577349 -0.159917 -0.159917 0.577349 0.800653 0.800653 0.577349 0.159917 0.159917 0.577349 -0.800653 0.159917 0.577349 -0.800653 0.800653 0.577349 0.159917 0.800653 -0.577349 0.159917 0.159917 -0.577349 -0.800653 0.159917 -0.577349 -0.800653 0.800653 -0.577349 0.159917 -0.159917 -0.577349 0.800653 -0.800653 -0.577349 -0.159917 0.159917 0.577349 -0.800653 0.159917 -0.577349 -0.800653 0.800653 0.577349 0.159917 0.800653 -0.577349 0.159917 " />
										<TextureCoordinate point="0.0739 0.7491 0.9360 0.7491 0.9360 0.9743 0.0739 0.9743 0.0739 0.7491 0.9360 0.7491 0.9360 0.9743 0.0739 0.9743 0.0739 0.7491 0.9360 0.7491 0.9360 0.9743 0.0739 0.9743 0.0739 0.7491 0.9360 0.7491 0.9360 0.9743 0.0739 0.9743 0.9360 0.7491 0.9360 0.9743 0.0739 0.7491 0.0739 0.9743 " />
									</IndexedTriangleSet>
								</Shape>
							</Group>
						</Transform>
					</Transform>
				</Transform>
				<Transform DEF="Cube_018_TRANSFORM"
				           translation="0.000000 -0.152363 -0.866954"
				           scale="1.000000 1.000000 1.000000"
				           rotation="0.000000 1.000000 0.000000 0.000000"
				           >
					<Transform DEF="Cube_018_ifs_TRANSFORM"
					           translation="0.000000 0.000000 0.000000"
					           scale="1.000000 1.000000 1.000000"
					           rotation="0.000000 1.000000 0.000000 0.000000"
					           >
						<Group DEF="group_ME_Cube_051">
							<Shape>
								<Appearance>
									<Material USE="MA_Body" />
								</Appearance>
								<IndexedTriangleSet solid="false"
								                    normalPerVertex="true"
								                    index="0 1 2 0 2 3 4 5 6 4 6 7 8 9 10 8 10 11 12 13 14 12 14 15 4 16 17 4 17 15 18 5 14 18 14 19 "
								                    >
									<Coordinate point="0.814540 -0.469908 0.000000 0.814540 -0.469908 -1.090862 0.814540 0.469908 -1.090862 0.814540 0.469908 0.000000 0.814540 0.469908 0.000000 0.814540 0.469908 -1.090862 -0.814539 0.469908 -1.090863 -0.814540 0.469908 -0.000000 -0.814540 0.469908 -0.000000 -0.814539 0.469908 -1.090863 -0.814539 -0.469908 -1.090863 -0.814540 -0.469908 -0.000000 -0.814540 -0.469908 -0.000000 -0.814539 -0.469908 -1.090863 0.814540 -0.469908 -1.090862 0.814540 -0.469908 0.000000 -0.814540 0.469908 -0.000000 -0.814540 -0.469908 -0.000000 -0.814539 0.469908 -1.090863 -0.814539 -0.469908 -1.090863 " />
									<Normal vector="0.577349 -0.577349 0.577349 0.577349 -0.577349 -0.577349 0.577349 0.577349 -0.577349 0.577349 0.577349 0.577349 0.577349 0.577349 0.577349 0.577349 0.577349 -0.577349 -0.577349 0.577349 -0.577349 -0.577349 0.577349 0.577349 -0.577349 0.577349 0.577349 -0.577349 0.577349 -0.577349 -0.577349 -0.577349 -0.577349 -0.577349 -0.577349 0.577349 -0.577349 -0.577349 0.577349 -0.577349 -0.577349 -0.577349 0.577349 -0.577349 -0.577349 0.577349 -0.577349 0.577349 -0.577349 0.577349 0.577349 -0.577349 -0.577349 0.577349 -0.577349 0.577349 -0.577349 -0.577349 -0.577349 -0.577349 " />
									<TextureCoordinate point="0.0739 0.7491 0.9360 0.7491 0.9360 0.9743 0.0739 0.9743 0.0739 0.7491 0.9360 0.7491 0.9360 0.9743 0.0739 0.9743 0.0739 0.7491 0.9360 0.7491 0.9360 0.9743 0.0739 0.9743 0.0739 0.7491 0.9360 0.7491 0.9360 0.9743 0.0739 0.9743 0.9360 0.7491 0.9360 0.9743 0.0739 0.7491 0.0739 0.9743 " />
								</IndexedTriangleSet>
							</Shape>
						</Group>
					</Transform>
					<Transform DEF="Cube_019_TRANSFORM"
					           translation="0.000000 0.000000 -0.943690"
					           scale="1.000000 1.000000 1.000000"
					           rotation="0.000000 1.000000 0.000000 0.000000"
					           >
						<Transform DEF="Cube_019_ifs_TRANSFORM"
						           translation="0.000000 0.000000 0.000000"
						           scale="1.000000 1.000000 1.000000"
						           rotation="0.000000 1.000000 0.000000 0.000000"
						           >
							<Group DEF="group_ME_Cube_052">
								<Shape>
									<Appearance>
										<Material USE="MA_Body" />
									</Appearance>
									<IndexedTriangleSet solid="false"
									                    normalPerVertex="true"
									                    index="0 1 2 0 2 3 4 5 6 4 6 7 8 9 10 8 10 11 12 13 14 12 14 15 4 16 17 4 17 15 18 5 14 18 14 19 "
									                    >
										<Coordinate point="0.587199 -0.361740 0.000000 0.587199 -0.361740 -1.320700 0.587199 0.361740 -1.320700 0.587199 0.361740 0.000000 0.587199 0.361740 0.000000 0.587199 0.361740 -1.320700 -0.587199 0.361740 -1.320700 -0.587199 0.361740 -0.000000 -0.587199 0.361740 -0.000000 -0.587199 0.361740 -1.320700 -0.587199 -0.361740 -1.320700 -0.587199 -0.361740 -0.000000 -0.587199 -0.361740 -0.000000 -0.587199 -0.361740 -1.320700 0.587199 -0.361740 -1.320700 0.587199 -0.361740 0.000000 -0.587199 0.361740 -0.000000 -0.587199 -0.361740 -0.000000 -0.587199 0.361740 -1.320700 -0.587199 -0.361740 -1.320700 " />
										<Normal vector="0.577349 -0.577349 0.577349 0.577349 -0.577349 -0.577349 0.577349 0.577349 -0.577349 0.577349 0.577349 0.577349 0.577349 0.577349 0.577349 0.577349 0.577349 -0.577349 -0.577349 0.577349 -0.577349 -0.577349 0.577349 0.577349 -0.577349 0.577349 0.577349 -0.577349 0.577349 -0.577349 -0.577349 -0.577349 -0.577349 -0.577349 -0.577349 0.577349 -0.577349 -0.577349 0.577349 -0.577349 -0.577349 -0.577349 0.577349 -0.577349 -0.577349 0.577349 -0.577349 0.577349 -0.577349 0.577349 0.577349 -0.577349 -0.577349 0.577349 -0.577349 0.577349 -0.577349 -0.577349 -0.577349 -0.577349 " />
										<TextureCoordinate point="0.0739 0.7491 0.9360 0.7491 0.9360 0.9743 0.0739 0.9743 0.0739 0.7491 0.9360 0.7491 0.9360 0.9743 0.0739 0.9743 0.0739 0.7491 0.9360 0.7491 0.9360 0.9743 0.0739 0.9743 0.0739 0.7491 0.9360 0.7491 0.9360 0.9743 0.0739 0.9743 0.9360 0.7491 0.9360 0.9743 0.0739 0.7491 0.0739 0.9743 " />
									</IndexedTriangleSet>
								</Shape>
							</Group>
						</Transform>
					</Transform>
				</Transform>
				<Transform DEF="Cube_028_TRANSFORM"
				           translation="-0.828865 -0.152363 -0.340520"
				           scale="1.000000 1.000000 1.000000"
				           rotation="0.000000 1.000000 0.000000 0.000000"
				           >
					<Transform DEF="Cube_028_ifs_TRANSFORM"
					           translation="0.000000 0.000000 0.000000"
					           scale="1.000000 1.000000 1.000000"
					           rotation="0.000000 1.000000 0.000000 0.000000"
					           >
						<Group DEF="group_ME_Cube_013">
							<Shape>
								<Appearance>
									<Material USE="MA_Body" />
								</Appearance>
								<IndexedTriangleSet solid="false"
								                    normalPerVertex="true"
								                    index="0 1 2 0 2 3 4 5 6 4 6 7 8 9 10 8 10 11 12 13 14 12 14 15 4 13 16 4 16 17 18 19 14 18 14 7 "
								                    >
									<Coordinate point="-0.195374 -0.469908 0.757923 -0.195374 0.469908 0.757923 -1.244945 0.469908 0.487370 -1.244945 -0.469908 0.487370 -0.195374 0.469908 0.757923 0.195374 0.469908 -0.757923 -0.854198 0.469908 -1.028476 -1.244945 0.469908 0.487370 0.195374 0.469908 -0.757923 0.195374 -0.469908 -0.757923 -0.854198 -0.469908 -1.028476 -0.854198 0.469908 -1.028476 0.195374 -0.469908 -0.757923 -0.195374 -0.469908 0.757923 -1.244945 -0.469908 0.487370 -0.854198 -0.469908 -1.028476 0.195374 -0.469908 -0.757923 0.195374 0.469908 -0.757923 -0.854198 0.469908 -1.028476 -0.854198 -0.469908 -1.028476 " />
									<Normal vector="0.414930 -0.577349 0.703177 0.414930 0.577349 0.703177 -0.703177 0.577349 0.414930 -0.703177 -0.577349 0.414930 0.414930 0.577349 0.703177 0.703177 0.577349 -0.414930 -0.414930 0.577349 -0.703177 -0.703177 0.577349 0.414930 0.703177 0.577349 -0.414930 0.703177 -0.577349 -0.414930 -0.414930 -0.577349 -0.703177 -0.414930 0.577349 -0.703177 0.703177 -0.577349 -0.414930 0.414930 -0.577349 0.703177 -0.703177 -0.577349 0.414930 -0.414930 -0.577349 -0.703177 0.703177 -0.577349 -0.414930 0.703177 0.577349 -0.414930 -0.414930 0.577349 -0.703177 -0.414930 -0.577349 -0.703177 " />
									<TextureCoordinate point="0.0739 0.7491 0.0739 0.9743 0.9360 0.9743 0.9360 0.7491 0.0739 0.7491 0.0739 0.9743 0.9360 0.9743 0.9360 0.7491 0.0739 0.7491 0.0739 0.9743 0.9360 0.9743 0.9360 0.7491 0.0739 0.7491 0.0739 0.9743 0.9360 0.9743 0.9360 0.7491 0.9360 0.9743 0.9360 0.7491 0.0739 0.7491 0.0739 0.9743 " />
								</IndexedTriangleSet>
							</Shape>
						</Group>
					</Transform>
					<Transform DEF="Cube_029_TRANSFORM"
					           translation="-0.907969 0.000000 -0.234052"
					           scale="1.000000 1.000000 1.000000"
					           rotation="0.000000 1.000000 0.000000 0.000000"
					           >
						<Transform DEF="Cube_029_ifs_TRANSFORM"
						           translation="0.000000 0.000000 0.000000"
						           scale="1.000000 1.000000 1.000000"
						           rotation="0.000000 1.000000 0.000000 0.000000"
						           >
							<Group DEF="group_ME_Cube_014">
								<Shape>
									<Appearance>
										<Material USE="MA_Body" />
									</Appearance>
									<IndexedTriangleSet solid="false"
									                    normalPerVertex="true"
									                    index="0 1 2 0 2 3 4 5 6 4 6 7 8 9 10 8 10 11 12 13 14 12 14 15 4 13 16 4 16 17 18 19 14 18 14 7 "
									                    >
										<Coordinate point="-0.140844 -0.361740 0.546384 -0.140844 0.361740 0.546384 -1.411554 0.361740 0.218827 -1.411554 -0.361740 0.218827 -0.140844 0.361740 0.546384 0.140844 0.361740 -0.546384 -1.129865 0.361740 -0.873942 -1.411554 0.361740 0.218827 0.140844 0.361740 -0.546384 0.140844 -0.361740 -0.546384 -1.129865 -0.361740 -0.873942 -1.129865 0.361740 -0.873942 0.140844 -0.361740 -0.546384 -0.140844 -0.361740 0.546384 -1.411554 -0.361740 0.218827 -1.129865 -0.361740 -0.873942 0.140844 -0.361740 -0.546384 0.140844 0.361740 -0.546384 -1.129865 0.361740 -0.873942 -1.129865 -0.361740 -0.873942 " />
										<Normal vector="0.414930 -0.577349 0.703177 0.414930 0.577349 0.703177 -0.703177 0.577349 0.414930 -0.703177 -0.577349 0.414930 0.414930 0.577349 0.703177 0.703177 0.577349 -0.414930 -0.414930 0.577349 -0.703177 -0.703177 0.577349 0.414930 0.703177 0.577349 -0.414930 0.703177 -0.577349 -0.414930 -0.414930 -0.577349 -0.703177 -0.414930 0.577349 -0.703177 0.703177 -0.577349 -0.414930 0.414930 -0.577349 0.703177 -0.703177 -0.577349 0.414930 -0.414930 -0.577349 -0.703177 0.703177 -0.577349 -0.414930 0.703177 0.577349 -0.414930 -0.414930 0.577349 -0.703177 -0.414930 -0.577349 -0.703177 " />
										<TextureCoordinate point="0.0739 0.7491 0.0739 0.9743 0.9360 0.9743 0.9360 0.7491 0.0739 0.7491 0.0739 0.9743 0.9360 0.9743 0.9360 0.7491 0.0739 0.7491 0.0739 0.9743 0.9360 0.9743 0.9360 0.7491 0.0739 0.7491 0.0739 0.9743 0.9360 0.9743 0.9360 0.7491 0.9360 0.9743 0.9360 0.7491 0.0739 0.7491 0.0739 0.9743 " />
									</IndexedTriangleSet>
								</Shape>
							</Group>
						</Transform>
					</Transform>
				</Transform>
				<Transform DEF="Cube_030_TRANSFORM"
				           translation="-0.482548 -0.152363 0.581698"
				           scale="1.000000 1.000000 1.000000"
				           rotation="0.000000 1.000000 0.000000 0.000000"
				           >
					<Transform DEF="Cube_030_ifs_TRANSFORM"
					           translation="0.000000 0.000000 0.000000"
					           scale="1.000000 1.000000 1.000000"
					           rotation="0.000000 1.000000 0.000000 0.000000"
					           >
						<Group DEF="group_ME_Cube_015">
							<Shape>
								<Appearance>
									<Material USE="MA_Body" />
								</Appearance>
								<IndexedTriangleSet solid="false"
								                    normalPerVertex="true"
								                    index="0 1 2 0 2 3 4 5 6 4 6 7 8 9 10 8 10 11 12 13 14 12 14 15 4 13 16 4 16 17 18 19 14 18 14 7 "
								                    >
									<Coordinate point="0.677620 -0.469908 0.452002 0.677620 0.469908 0.452002 0.072281 0.469908 1.359497 0.072281 -0.469908 1.359497 0.677620 0.469908 0.452002 -0.677620 0.469908 -0.452002 -1.282959 0.469908 0.455492 0.072281 0.469908 1.359497 -0.677620 0.469908 -0.452002 -0.677620 -0.469908 -0.452002 -1.282959 -0.469908 0.455492 -1.282959 0.469908 0.455492 -0.677620 -0.469908 -0.452002 0.677620 -0.469908 0.452002 0.072281 -0.469908 1.359497 -1.282959 -0.469908 0.455492 -0.677620 -0.469908 -0.452002 -0.677620 0.469908 -0.452002 -1.282959 0.469908 0.455492 -1.282959 -0.469908 0.455492 " />
									<Normal vector="0.800653 -0.577349 -0.159917 0.800653 0.577349 -0.159917 0.159917 0.577349 0.800653 0.159917 -0.577349 0.800653 0.800653 0.577349 -0.159917 -0.159917 0.577349 -0.800653 -0.800653 0.577349 0.159917 0.159917 0.577349 0.800653 -0.159917 0.577349 -0.800653 -0.159917 -0.577349 -0.800653 -0.800653 -0.577349 0.159917 -0.800653 0.577349 0.159917 -0.159917 -0.577349 -0.800653 0.800653 -0.577349 -0.159917 0.159917 -0.577349 0.800653 -0.800653 -0.577349 0.159917 -0.159917 -0.577349 -0.800653 -0.159917 0.577349 -0.800653 -0.800653 0.577349 0.159917 -0.800653 -0.577349 0.159917 " />
									<TextureCoordinate point="0.0739 0.7491 0.0739 0.9743 0.9360 0.9743 0.9360 0.7491 0.0739 0.7491 0.0739 0.9743 0.9360 0.9743 0.9360 0.7491 0.0739 0.7491 0.0739 0.9743 0.9360 0.9743 0.9360 0.7491 0.0739 0.7491 0.0739 0.9743 0.9360 0.9743 0.9360 0.7491 0.9360 0.9743 0.9360 0.7491 0.0739 0.7491 0.0739 0.9743 " />
								</IndexedTriangleSet>
							</Shape>
						</Group>
					</Transform>
					<Transform DEF="Cube_031_TRANSFORM"
					           translation="-0.523670 0.000000 0.785060"
					           scale="1.000000 1.000000 1.000000"
					           rotation="0.000000 1.000000 0.000000 0.000000"
					           >
						<Transform DEF="Cube_031_ifs_TRANSFORM"
						           translation="0.000000 0.000000 0.000000"
						           scale="1.000000 1.000000 1.000000"
						           rotation="0.000000 1.000000 0.000000 0.000000"
						           >
							<Group DEF="group_ME_Cube_016">
								<Shape>
									<Appearance>
										<Material USE="MA_Body" />
									</Appearance>
									<IndexedTriangleSet solid="false"
									                    normalPerVertex="true"
									                    index="0 1 2 0 2 3 4 5 6 4 6 7 8 9 10 8 10 11 12 13 14 12 14 15 4 13 16 4 16 17 18 19 14 18 14 7 "
									                    >
										<Coordinate point="0.488494 -0.361740 0.325847 0.488494 0.361740 0.325847 -0.244385 0.361740 1.424545 -0.244385 -0.361740 1.424545 0.488494 0.361740 0.325847 -0.488494 0.361740 -0.325847 -1.221374 0.361740 0.772851 -0.244385 0.361740 1.424545 -0.488494 0.361740 -0.325847 -0.488494 -0.361740 -0.325847 -1.221374 -0.361740 0.772850 -1.221374 0.361740 0.772851 -0.488494 -0.361740 -0.325847 0.488494 -0.361740 0.325847 -0.244385 -0.361740 1.424545 -1.221374 -0.361740 0.772850 -0.488494 -0.361740 -0.325847 -0.488494 0.361740 -0.325847 -1.221374 0.361740 0.772851 -1.221374 -0.361740 0.772850 " />
										<Normal vector="0.800653 -0.577349 -0.159917 0.800653 0.577349 -0.159917 0.159917 0.577349 0.800653 0.159917 -0.577349 0.800653 0.800653 0.577349 -0.159917 -0.159917 0.577349 -0.800653 -0.800653 0.577349 0.159917 0.159917 0.577349 0.800653 -0.159917 0.577349 -0.800653 -0.159917 -0.577349 -0.800653 -0.800653 -0.577349 0.159917 -0.800653 0.577349 0.159917 -0.159917 -0.577349 -0.800653 0.800653 -0.577349 -0.159917 0.159917 -0.577349 0.800653 -0.800653 -0.577349 0.159917 -0.159917 -0.577349 -0.800653 -0.159917 0.577349 -0.800653 -0.800653 0.577349 0.159917 -0.800653 -0.577349 0.159917 " />
										<TextureCoordinate point="0.0739 0.7491 0.0739 0.9743 0.9360 0.9743 0.9360 0.7491 0.0739 0.7491 0.0739 0.9743 0.9360 0.9743 0.9360 0.7491 0.0739 0.7491 0.0739 0.9743 0.9360 0.9743 0.9360 0.7491 0.0739 0.7491 0.0739 0.9743 0.9360 0.9743 0.9360 0.7491 0.9360 0.9743 0.9360 0.7491 0.0739 0.7491 0.0739 0.9743 " />
									</IndexedTriangleSet>
								</Shape>
							</Group>
						</Transform>
					</Transform>
				</Transform>
			</Transform>
			<Transform DEF="Cube_002_TRANSFORM"
			           translation="0.000000 -0.024763 1.006709"
			           scale="1.000000 1.000000 1.000000"
			           rotation="0.000000 1.000000 0.000000 0.000000"
			           >
				<Transform DEF="Cube_002_ifs_TRANSFORM"
				           translation="0.000000 0.000000 0.000000"
				           scale="1.000000 1.000000 1.000000"
				           rotation="0.000000 1.000000 0.000000 0.000000"
				           >
					<Group DEF="group_ME_Cube_007">
						<Shape>
							<Appearance>
								<Material USE="MA_Body" />
							</Appearance>
							<IndexedTriangleSet solid="false"
							                    normalPerVertex="true"
							                    index="0 1 2 0 2 3 4 5 6 4 6 7 8 9 10 8 10 11 12 13 14 12 14 15 4 16 17 4 17 15 18 5 14 18 14 19 "
							                    >
								<Coordinate point="-0.782699 -0.469908 0.000000 -0.782699 -0.469908 1.016195 -0.782699 0.469908 1.016195 -0.782699 0.469908 0.000000 -0.782699 0.469908 0.000000 -0.782699 0.469908 1.016195 0.782699 0.469908 1.016195 0.782699 0.469908 0.000000 0.782699 0.469908 0.000000 0.782699 0.469908 1.016195 0.782699 -0.469908 1.016195 0.782699 -0.469908 0.000000 0.782699 -0.469908 0.000000 0.782699 -0.469908 1.016195 -0.782699 -0.469908 1.016195 -0.782699 -0.469908 0.000000 0.782699 0.469908 0.000000 0.782699 -0.469908 0.000000 0.782699 0.469908 1.016195 0.782699 -0.469908 1.016195 " />
								<Normal vector="-0.577349 -0.577349 -0.577349 -0.577349 -0.577349 0.577349 -0.577349 0.577349 0.577349 -0.577349 0.577349 -0.577349 -0.577349 0.577349 -0.577349 -0.577349 0.577349 0.577349 0.577349 0.577349 0.577349 0.577349 0.577349 -0.577349 0.577349 0.577349 -0.577349 0.577349 0.577349 0.577349 0.577349 -0.577349 0.577349 0.577349 -0.577349 -0.577349 0.577349 -0.577349 -0.577349 0.577349 -0.577349 0.577349 -0.577349 -0.577349 0.577349 -0.577349 -0.577349 -0.577349 0.577349 0.577349 -0.577349 0.577349 -0.577349 -0.577349 0.577349 0.577349 0.577349 0.577349 -0.577349 0.577349 " />
								<TextureCoordinate point="0.0739 0.7491 0.9360 0.7491 0.9360 0.9743 0.0739 0.9743 0.0739 0.7491 0.9360 0.7491 0.9360 0.9743 0.0739 0.9743 0.0739 0.7491 0.9360 0.7491 0.9360 0.9743 0.0739 0.9743 0.0739 0.7491 0.9360 0.7491 0.9360 0.9743 0.0739 0.9743 0.9360 0.7491 0.9360 0.9743 0.0739 0.7491 0.0739 0.9743 " />
							</IndexedTriangleSet>
						</Shape>
					</Group>
				</Transform>
				<Transform DEF="Cube_003_TRANSFORM"
				           translation="0.000000 0.000000 0.879096"
				           scale="1.000000 1.000000 1.000000"
				           rotation="0.000000 1.000000 0.000000 0.000000"
				           >
					<Transform DEF="Cube_003_ifs_TRANSFORM"
					           translation="0.000000 0.000000 0.000000"
					           scale="1.000000 1.000000 1.000000"
					           rotation="0.000000 1.000000 0.000000 0.000000"
					           >
						<Group DEF="group_ME_Cube_010">
							<Shape>
								<Appearance>
									<Material USE="MA_Body" />
								</Appearance>
								<IndexedTriangleSet solid="false"
								                    normalPerVertex="true"
								                    index="0 1 2 0 2 3 4 5 6 4 6 7 8 9 10 8 10 11 12 13 14 12 14 15 4 16 17 4 17 15 18 5 14 18 14 19 "
								                    >
									<Coordinate point="-0.564246 -0.361740 0.000000 -0.564246 -0.361740 1.230301 -0.564246 0.361740 1.230301 -0.564246 0.361740 0.000000 -0.564246 0.361740 0.000000 -0.564246 0.361740 1.230301 0.564246 0.361740 1.230301 0.564246 0.361740 0.000000 0.564246 0.361740 0.000000 0.564246 0.361740 1.230301 0.564246 -0.361740 1.230301 0.564246 -0.361740 0.000000 0.564246 -0.361740 0.000000 0.564246 -0.361740 1.230301 -0.564246 -0.361740 1.230301 -0.564246 -0.361740 0.000000 0.564246 0.361740 0.000000 0.564246 -0.361740 0.000000 0.564246 0.361740 1.230301 0.564246 -0.361740 1.230301 " />
									<Normal vector="-0.577349 -0.577349 -0.577349 -0.577349 -0.577349 0.577349 -0.577349 0.577349 0.577349 -0.577349 0.577349 -0.577349 -0.577349 0.577349 -0.577349 -0.577349 0.577349 0.577349 0.577349 0.577349 0.577349 0.577349 0.577349 -0.577349 0.577349 0.577349 -0.577349 0.577349 0.577349 0.577349 0.577349 -0.577349 0.577349 0.577349 -0.577349 -0.577349 0.577349 -0.577349 -0.577349 0.577349 -0.577349 0.577349 -0.577349 -0.577349 0.577349 -0.577349 -0.577349 -0.577349 0.577349 0.577349 -0.577349 0.577349 -0.577349 -0.577349 0.577349 0.577349 0.577349 0.577349 -0.577349 0.577349 " />
									<TextureCoordinate point="0.0739 0.7491 0.9360 0.7491 0.9360 0.9743 0.0739 0.9743 0.0739 0.7491 0.9360 0.7491 0.9360 0.9743 0.0739 0.9743 0.0739 0.7491 0.9360 0.7491 0.9360 0.9743 0.0739 0.9743 0.0739 0.7491 0.9360 0.7491 0.9360 0.9743 0.0739 0.9743 0.9360 0.7491 0.9360 0.9743 0.0739 0.7491 0.0739 0.9743 " />
								</IndexedTriangleSet>
							</Shape>
						</Group>
					</Transform>
				</Transform>
			</Transform>
			<Transform DEF="Cube_004_TRANSFORM"
			           translation="0.978149 -0.024763 0.263811"
			           scale="1.000000 1.000000 1.000000"
			           rotation="0.000000 1.000000 0.000000 0.000000"
			           >
				<Transform DEF="Cube_004_ifs_TRANSFORM"
				           translation="0.000000 0.000000 0.000000"
				           scale="1.000000 1.000000 1.000000"
				           rotation="0.000000 1.000000 0.000000 0.000000"
				           >
					<Group DEF="group_ME_Cube_011">
						<Shape>
							<Appearance>
								<Material USE="MA_Body" />
							</Appearance>
							<IndexedTriangleSet solid="false"
							                    normalPerVertex="true"
							                    index="0 1 2 0 2 3 4 5 6 4 6 7 8 9 10 8 10 11 12 13 14 12 14 15 4 16 17 4 17 15 18 5 14 18 14 19 "
							                    >
								<Coordinate point="-0.253570 -0.469908 0.740487 0.707819 -0.469908 1.069702 0.707819 0.469908 1.069702 -0.253570 0.469908 0.740487 -0.253570 0.469908 0.740487 0.707819 0.469908 1.069702 1.214960 0.469908 -0.411271 0.253570 0.469908 -0.740487 0.253570 0.469908 -0.740487 1.214960 0.469908 -0.411271 1.214960 -0.469908 -0.411271 0.253570 -0.469908 -0.740487 0.253570 -0.469908 -0.740487 1.214960 -0.469908 -0.411271 0.707819 -0.469908 1.069702 -0.253570 -0.469908 0.740487 0.253570 0.469908 -0.740487 0.253570 -0.469908 -0.740487 1.214960 0.469908 -0.411271 1.214960 -0.469908 -0.411271 " />
								<Normal vector="-0.733238 -0.577349 0.359142 0.359142 -0.577349 0.733238 0.359142 0.577349 0.733238 -0.733238 0.577349 0.359142 -0.733238 0.577349 0.359142 0.359142 0.577349 0.733238 0.733238 0.577349 -0.359142 -0.359142 0.577349 -0.733238 -0.359142 0.577349 -0.733238 0.733238 0.577349 -0.359142 0.733238 -0.577349 -0.359142 -0.359142 -0.577349 -0.733238 -0.359142 -0.577349 -0.733238 0.733238 -0.577349 -0.359142 0.359142 -0.577349 0.733238 -0.733238 -0.577349 0.359142 -0.359142 0.577349 -0.733238 -0.359142 -0.577349 -0.733238 0.733238 0.577349 -0.359142 0.733238 -0.577349 -0.359142 " />
								<TextureCoordinate point="0.0739 0.7491 0.9360 0.7491 0.9360 0.9743 0.0739 0.9743 0.0739 0.7491 0.9360 0.7491 0.9360 0.9743 0.0739 0.9743 0.0739 0.7491 0.9360 0.7491 0.9360 0.9743 0.0739 0.9743 0.0739 0.7491 0.9360 0.7491 0.9360 0.9743 0.0739 0.9743 0.9360 0.7491 0.9360 0.9743 0.0739 0.7491 0.0739 0.9743 " />
							</IndexedTriangleSet>
						</Shape>
					</Group>
				</Transform>
				<Transform DEF="Cube_005_TRANSFORM"
				           translation="0.831685 0.000000 0.284800"
				           scale="1.000000 1.000000 1.000000"
				           rotation="0.000000 1.000000 0.000000 0.000000"
				           >
					<Transform DEF="Cube_005_ifs_TRANSFORM"
					           translation="0.000000 0.000000 0.000000"
					           scale="1.000000 1.000000 1.000000"
					           rotation="0.000000 1.000000 0.000000 0.000000"
					           >
						<Group DEF="group_ME_Cube_038">
							<Shape>
								<Appearance>
									<Material USE="MA_Body" />
								</Appearance>
								<IndexedTriangleSet solid="false"
								                    normalPerVertex="true"
								                    index="0 1 2 0 2 3 4 5 6 4 6 7 8 9 10 8 10 11 12 13 14 12 14 15 4 16 17 4 17 15 18 5 14 18 14 19 "
								                    >
									<Coordinate point="-0.182798 -0.361740 0.533814 0.981150 -0.361740 0.932394 0.981150 0.361740 0.932394 -0.182798 0.361740 0.533814 -0.182798 0.361740 0.533814 0.981150 0.361740 0.932394 1.346746 0.361740 -0.135235 0.182798 0.361740 -0.533814 0.182798 0.361740 -0.533814 1.346746 0.361740 -0.135235 1.346746 -0.361740 -0.135235 0.182798 -0.361740 -0.533814 0.182798 -0.361740 -0.533814 1.346746 -0.361740 -0.135235 0.981150 -0.361740 0.932394 -0.182798 -0.361740 0.533814 0.182798 0.361740 -0.533814 0.182798 -0.361740 -0.533814 1.346746 0.361740 -0.135235 1.346746 -0.361740 -0.135235 " />
									<Normal vector="-0.733238 -0.577349 0.359142 0.359142 -0.577349 0.733238 0.359142 0.577349 0.733238 -0.733238 0.577349 0.359142 -0.733238 0.577349 0.359142 0.359142 0.577349 0.733238 0.733238 0.577349 -0.359142 -0.359142 0.577349 -0.733238 -0.359142 0.577349 -0.733238 0.733238 0.577349 -0.359142 0.733238 -0.577349 -0.359142 -0.359142 -0.577349 -0.733238 -0.359142 -0.577349 -0.733238 0.733238 -0.577349 -0.359142 0.359142 -0.577349 0.733238 -0.733238 -0.577349 0.359142 -0.359142 0.577349 -0.733238 -0.359142 -0.577349 -0.733238 0.733238 0.577349 -0.359142 0.733238 -0.577349 -0.359142 " />
									<TextureCoordinate point="0.0739 0.7491 0.9360 0.7491 0.9360 0.9743 0.0739 0.9743 0.0739 0.7491 0.9360 0.7491 0.9360 0.9743 0.0739 0.9743 0.0739 0.7491 0.9360 0.7491 0.9360 0.9743 0.0739 0.9743 0.0739 0.7491 0.9360 0.7491 0.9360 0.9743 0.0739 0.9743 0.9360 0.7491 0.9360 0.9743 0.0739 0.7491 0.0739 0.9743 " />
								</IndexedTriangleSet>
							</Shape>
						</Group>
					</Transform>
				</Transform>
			</Transform>
			<Transform DEF="Cube_006_TRANSFORM"
			           translation="0.607513 -0.024763 -0.827998"
			           scale="1.000000 1.000000 1.000000"
			           rotation="0.000000 1.000000 0.000000 0.000000"
			           >
				<Transform DEF="Cube_006_ifs_TRANSFORM"
				           translation="0.000000 0.000000 0.000000"
				           scale="1.000000 1.000000 1.000000"
				           rotation="0.000000 1.000000 0.000000 0.000000"
				           >
					<Group DEF="group_ME_Cube_039">
						<Shape>
							<Appearance>
								<Material USE="MA_Body" />
							</Appearance>
							<IndexedTriangleSet solid="false"
							                    normalPerVertex="true"
							                    index="0 1 2 0 2 3 4 5 6 4 6 7 8 9 10 8 10 11 12 13 14 12 14 15 4 16 17 4 17 15 18 5 14 18 14 19 "
							                    >
								<Coordinate point="0.620246 -0.469908 0.477403 1.240068 -0.469908 -0.327875 1.240068 0.469908 -0.327875 0.620246 0.469908 0.477403 0.620246 0.469908 0.477403 1.240068 0.469908 -0.327875 -0.000423 0.469908 -1.282681 -0.620246 0.469908 -0.477403 -0.620246 0.469908 -0.477403 -0.000423 0.469908 -1.282681 -0.000423 -0.469908 -1.282681 -0.620246 -0.469908 -0.477403 -0.620246 -0.469908 -0.477403 -0.000423 -0.469908 -1.282681 1.240068 -0.469908 -0.327875 0.620246 -0.469908 0.477403 -0.620246 0.469908 -0.477403 -0.620246 -0.469908 -0.477403 -0.000423 0.469908 -1.282681 -0.000423 -0.469908 -1.282681 " />
								<Normal vector="0.105350 -0.577349 0.809656 0.809656 -0.577349 -0.105350 0.809656 0.577349 -0.105350 0.105350 0.577349 0.809656 0.105350 0.577349 0.809656 0.809656 0.577349 -0.105350 -0.105350 0.577349 -0.809656 -0.809656 0.577349 0.105350 -0.809656 0.577349 0.105350 -0.105350 0.577349 -0.809656 -0.105350 -0.577349 -0.809656 -0.809656 -0.577349 0.105350 -0.809656 -0.577349 0.105350 -0.105350 -0.577349 -0.809656 0.809656 -0.577349 -0.105350 0.105350 -0.577349 0.809656 -0.809656 0.577349 0.105350 -0.809656 -0.577349 0.105350 -0.105350 0.577349 -0.809656 -0.105350 -0.577349 -0.809656 " />
								<TextureCoordinate point="0.0739 0.7491 0.9360 0.7491 0.9360 0.9743 0.0739 0.9743 0.0739 0.7491 0.9360 0.7491 0.9360 0.9743 0.0739 0.9743 0.0739 0.7491 0.9360 0.7491 0.9360 0.9743 0.0739 0.9743 0.0739 0.7491 0.9360 0.7491 0.9360 0.9743 0.0739 0.9743 0.9360 0.7491 0.9360 0.9743 0.0739 0.7491 0.0739 0.9743 " />
							</IndexedTriangleSet>
						</Shape>
					</Group>
				</Transform>
				<Transform DEF="Cube_007_TRANSFORM"
				           translation="0.536200 0.000000 -0.696635"
				           scale="1.000000 1.000000 1.000000"
				           rotation="0.000000 1.000000 0.000000 0.000000"
				           >
					<Transform DEF="Cube_007_ifs_TRANSFORM"
					           translation="0.000000 0.000000 0.000000"
					           scale="1.000000 1.000000 1.000000"
					           rotation="0.000000 1.000000 0.000000 0.000000"
					           >
						<Group DEF="group_ME_Cube_040">
							<Shape>
								<Appearance>
									<Material USE="MA_Body" />
								</Appearance>
								<IndexedTriangleSet solid="false"
								                    normalPerVertex="true"
								                    index="0 1 2 0 2 3 4 5 6 4 6 7 8 9 10 8 10 11 12 13 14 12 14 15 4 16 17 4 17 15 18 5 14 18 14 19 "
								                    >
									<Coordinate point="0.447133 -0.361740 0.344158 1.197548 -0.361740 -0.630787 1.197548 0.361740 -0.630787 0.447133 0.361740 0.344158 0.447133 0.361740 0.344158 1.197548 0.361740 -0.630787 0.303282 0.361740 -1.319103 -0.447133 0.361740 -0.344158 -0.447133 0.361740 -0.344158 0.303282 0.361740 -1.319103 0.303282 -0.361740 -1.319103 -0.447133 -0.361740 -0.344158 -0.447133 -0.361740 -0.344158 0.303282 -0.361740 -1.319103 1.197548 -0.361740 -0.630787 0.447133 -0.361740 0.344158 -0.447133 0.361740 -0.344158 -0.447133 -0.361740 -0.344158 0.303282 0.361740 -1.319103 0.303282 -0.361740 -1.319103 " />
									<Normal vector="0.105350 -0.577349 0.809656 0.809656 -0.577349 -0.105350 0.809656 0.577349 -0.105350 0.105350 0.577349 0.809656 0.105350 0.577349 0.809656 0.809656 0.577349 -0.105350 -0.105350 0.577349 -0.809656 -0.809656 0.577349 0.105350 -0.809656 0.577349 0.105350 -0.105350 0.577349 -0.809656 -0.105350 -0.577349 -0.809656 -0.809656 -0.577349 0.105350 -0.809656 -0.577349 0.105350 -0.105350 -0.577349 -0.809656 0.809656 -0.577349 -0.105350 0.105350 -0.577349 0.809656 -0.809656 0.577349 0.105350 -0.809656 -0.577349 0.105350 -0.105350 0.577349 -0.809656 -0.105350 -0.577349 -0.809656 " />
									<TextureCoordinate point="0.0739 0.7491 0.9360 0.7491 0.9360 0.9743 0.0739 0.9743 0.0739 0.7491 0.9360 0.7491 0.9360 0.9743 0.0739 0.9743 0.0739 0.7491 0.9360 0.7491 0.9360 0.9743 0.0739 0.9743 0.0739 0.7491 0.9360 0.7491 0.9360 0.9743 0.0739 0.9743 0.9360 0.7491 0.9360 0.9743 0.0739 0.7491 0.0739 0.9743 " />
								</IndexedTriangleSet>
							</Shape>
						</Group>
					</Transform>
				</Transform>
			</Transform>
			<Transform DEF="Cube_008_TRANSFORM"
			           translation="0.000000 -0.470502 0.004829"
			           scale="1.000000 1.000000 1.000000"
			           rotation="0.000000 1.000000 0.000000 0.000000"
			           >
				<Transform DEF="Cube_008_ifs_TRANSFORM"
				           translation="0.000000 0.000000 0.000000"
				           scale="1.000000 1.000000 1.000000"
				           rotation="0.000000 1.000000 0.000000 0.000000"
				           >
					<Group DEF="group_ME_Cube_041">
						<Shape>
							<Appearance>
								<Material USE="MA_Body" />
							</Appearance>
							<IndexedTriangleSet solid="false"
							                    normalPerVertex="true"
							                    index="0 1 2 0 2 3 4 5 6 4 6 7 8 9 10 8 10 11 12 13 14 12 14 15 4 16 17 4 17 15 18 5 14 18 14 19 "
							                    >
								<Coordinate point="-1.234554 -0.301625 -1.259931 -1.234554 -0.301625 1.259931 -1.234554 0.000000 1.259931 -1.234554 0.000000 -1.259931 -1.234554 0.000000 -1.259931 -1.234554 0.000000 1.259931 1.234554 0.000000 1.259931 1.234554 0.000000 -1.259931 1.234554 0.000000 -1.259931 1.234554 0.000000 1.259931 1.234554 -0.301625 1.259931 1.234554 -0.301625 -1.259931 1.234554 -0.301625 -1.259931 1.234554 -0.301625 1.259931 -1.234554 -0.301625 1.259931 -1.234554 -0.301625 -1.259931 1.234554 0.000000 -1.259931 1.234554 -0.301625 -1.259931 1.234554 0.000000 1.259931 1.234554 -0.301625 1.259931 " />
								<Normal vector="-0.577349 -0.577349 -0.577349 -0.577349 -0.577349 0.577349 -0.577349 0.577349 0.577349 -0.577349 0.577349 -0.577349 -0.577349 0.577349 -0.577349 -0.577349 0.577349 0.577349 0.577349 0.577349 0.577349 0.577349 0.577349 -0.577349 0.577349 0.577349 -0.577349 0.577349 0.577349 0.577349 0.577349 -0.577349 0.577349 0.577349 -0.577349 -0.577349 0.577349 -0.577349 -0.577349 0.577349 -0.577349 0.577349 -0.577349 -0.577349 0.577349 -0.577349 -0.577349 -0.577349 0.577349 0.577349 -0.577349 0.577349 -0.577349 -0.577349 0.577349 0.577349 0.577349 0.577349 -0.577349 0.577349 " />
								<TextureCoordinate point="0.0309 0.4977 0.4572 0.4977 0.4572 0.6942 0.0309 0.6942 0.0309 0.4977 0.4572 0.4977 0.4572 0.6942 0.0309 0.6942 0.0309 0.4977 0.4572 0.4977 0.4572 0.6942 0.0309 0.6942 0.0309 0.4977 0.4572 0.4977 0.4572 0.6942 0.0309 0.6942 0.4572 0.4977 0.4572 0.6942 0.0309 0.4977 0.0309 0.6942 " />
							</IndexedTriangleSet>
						</Shape>
					</Group>
				</Transform>
				<Transform DEF="Cube_009_TRANSFORM"
				           translation="0.931919 -0.362448 -0.004895"
				           scale="1.000000 1.000000 1.000000"
				           rotation="0.000000 1.000000 0.000000 0.000000"
				           >
					<Transform DEF="Cube_009_ifs_TRANSFORM"
					           translation="0.000000 0.000000 0.000000"
					           scale="1.000000 1.000000 1.000000"
					           rotation="0.000000 1.000000 0.000000 0.000000"
					           >
						<Group DEF="group_ME_Cube_042">
							<Shape>
								<Appearance>
									<Material USE="MA_Body" />
								</Appearance>
								<IndexedTriangleSet solid="false"
								                    normalPerVertex="true"
								                    index="0 1 2 0 2 3 4 5 6 4 6 7 8 9 10 8 10 11 12 13 14 12 14 15 4 16 17 4 17 15 18 5 14 18 14 19 "
								                    >
									<Coordinate point="0.019163 -0.179108 -0.173103 0.019163 -0.179108 0.173103 -0.019163 0.179108 0.173103 -0.019163 0.179108 -0.173103 -0.019163 0.179108 -0.173103 -0.019163 0.179108 0.173103 0.880003 0.275309 0.173103 0.880003 0.275309 -0.173103 0.880003 0.275309 -0.173103 0.880003 0.275309 0.173103 0.918328 -0.082906 0.173103 0.918328 -0.082906 -0.173103 0.918328 -0.082906 -0.173103 0.918328 -0.082906 0.173103 0.019163 -0.179108 0.173103 0.019163 -0.179108 -0.173103 0.880003 0.275309 -0.173103 0.918328 -0.082906 -0.173103 0.880003 0.275309 0.173103 0.918328 -0.082906 0.173103 " />
									<Normal vector="-0.512650 -0.635487 -0.577349 -0.512650 -0.635487 0.577349 -0.635487 0.512650 0.577349 -0.635487 0.512650 -0.577349 -0.635487 0.512650 -0.577349 -0.635487 0.512650 0.577349 0.512650 0.635487 0.577349 0.512650 0.635487 -0.577349 0.512650 0.635487 -0.577349 0.512650 0.635487 0.577349 0.635487 -0.512650 0.577349 0.635487 -0.512650 -0.577349 0.635487 -0.512650 -0.577349 0.635487 -0.512650 0.577349 -0.512650 -0.635487 0.577349 -0.512650 -0.635487 -0.577349 0.512650 0.635487 -0.577349 0.635487 -0.512650 -0.577349 0.512650 0.635487 0.577349 0.635487 -0.512650 0.577349 " />
									<TextureCoordinate point="0.0309 0.4977 0.4572 0.4977 0.4572 0.6942 0.0309 0.6942 0.0309 0.4977 0.4572 0.4977 0.4572 0.6942 0.0309 0.6942 0.0309 0.4977 0.4572 0.4977 0.4572 0.6942 0.0309 0.6942 0.0309 0.4977 0.4572 0.4977 0.4572 0.6942 0.0309 0.6942 0.4572 0.4977 0.4572 0.6942 0.0309 0.4977 0.0309 0.6942 " />
								</IndexedTriangleSet>
							</Shape>
						</Group>
					</Transform>
				</Transform>
				<Transform DEF="Cube_010_TRANSFORM"
				           translation="0.649387 -0.362448 0.681195"
				           scale="1.000000 1.000000 1.000000"
				           rotation="0.000000 1.000000 0.000000 0.000000"
				           >
					<Transform DEF="Cube_010_ifs_TRANSFORM"
					           translation="0.000000 0.000000 0.000000"
					           scale="1.000000 1.000000 1.000000"
					           rotation="0.000000 1.000000 0.000000 0.000000"
					           >
						<Group DEF="group_ME_Cube_043">
							<Shape>
								<Appearance>
									<Material USE="MA_Body" />
								</Appearance>
								<IndexedTriangleSet solid="false"
								                    normalPerVertex="true"
								                    index="0 1 2 0 2 3 4 5 6 4 6 7 8 9 10 8 10 11 12 13 14 12 14 15 4 16 17 4 17 15 18 5 14 18 14 19 "
								                    >
									<Coordinate point="0.140364 -0.179040 -0.103219 -0.113451 -0.179040 0.132231 -0.140364 0.179040 0.103219 0.113451 0.179040 -0.132231 0.113451 0.179040 -0.132231 -0.140364 0.179040 0.103219 0.457413 0.276178 0.747622 0.711228 0.276178 0.512172 0.711228 0.276178 0.512172 0.457413 0.276178 0.747622 0.484325 -0.081902 0.776634 0.738140 -0.081902 0.541184 0.738140 -0.081902 0.541184 0.484325 -0.081902 0.776634 -0.113451 -0.179040 0.132231 0.140364 -0.179040 -0.103219 0.711228 0.276178 0.512172 0.738140 -0.081902 0.541184 0.457413 0.276178 0.747622 0.484325 -0.081902 0.776634 " />
									<Normal vector="0.076113 -0.637257 -0.766839 -0.770409 -0.637257 0.018403 -0.856655 0.510422 -0.074557 -0.010102 0.510422 -0.859828 -0.010102 0.510422 -0.859828 -0.856655 0.510422 -0.074557 -0.076113 0.637257 0.766839 0.770409 0.637257 -0.018403 0.770409 0.637257 -0.018403 -0.076113 0.637257 0.766839 0.010102 -0.510422 0.859828 0.856655 -0.510422 0.074557 0.856655 -0.510422 0.074557 0.010102 -0.510422 0.859828 -0.770409 -0.637257 0.018403 0.076113 -0.637257 -0.766839 0.770409 0.637257 -0.018403 0.856655 -0.510422 0.074557 -0.076113 0.637257 0.766839 0.010102 -0.510422 0.859828 " />
									<TextureCoordinate point="0.0309 0.4977 0.4572 0.4977 0.4572 0.6942 0.0309 0.6942 0.0309 0.4977 0.4572 0.4977 0.4572 0.6942 0.0309 0.6942 0.0309 0.4977 0.4572 0.4977 0.4572 0.6942 0.0309 0.6942 0.0309 0.4977 0.4572 0.4977 0.4572 0.6942 0.0309 0.6942 0.4572 0.4977 0.4572 0.6942 0.0309 0.4977 0.0309 0.6942 " />
								</IndexedTriangleSet>
							</Shape>
						</Group>
					</Transform>
				</Transform>
				<Transform DEF="Cube_011_TRANSFORM"
				           translation="0.000000 -0.237614 0.000000"
				           scale="1.000000 1.000000 1.000000"
				           rotation="0.000000 1.000000 0.000000 0.000000"
				           >
					<Transform DEF="Cube_011_ifs_TRANSFORM"
					           translation="0.000000 0.000000 0.000000"
					           scale="1.000000 1.000000 1.000000"
					           rotation="0.000000 1.000000 0.000000 0.000000"
					           >
						<Group DEF="group_ME_Cube_044">
							<Shape>
								<Appearance>
									<Material USE="MA_Body" />
								</Appearance>
								<IndexedTriangleSet solid="false"
								                    normalPerVertex="true"
								                    index="0 1 2 0 2 3 4 5 6 4 6 7 8 9 10 8 10 11 12 13 14 12 14 15 4 16 17 4 17 15 18 5 14 18 14 19 "
								                    >
									<Coordinate point="-1.071800 -0.240089 -1.093832 -1.071800 -0.240089 1.093832 -1.071800 0.000000 1.093832 -1.071800 0.000000 -1.093832 -1.071800 0.000000 -1.093832 -1.071800 0.000000 1.093832 1.071800 0.000000 1.093832 1.071800 0.000000 -1.093832 1.071800 0.000000 -1.093832 1.071800 0.000000 1.093832 1.071800 -0.240089 1.093832 1.071800 -0.240089 -1.093832 1.071800 -0.240089 -1.093832 1.071800 -0.240089 1.093832 -1.071800 -0.240089 1.093832 -1.071800 -0.240089 -1.093832 1.071800 0.000000 -1.093832 1.071800 -0.240089 -1.093832 1.071800 0.000000 1.093832 1.071800 -0.240089 1.093832 " />
									<Normal vector="-0.577349 -0.577349 -0.577349 -0.577349 -0.577349 0.577349 -0.577349 0.577349 0.577349 -0.577349 0.577349 -0.577349 -0.577349 0.577349 -0.577349 -0.577349 0.577349 0.577349 0.577349 0.577349 0.577349 0.577349 0.577349 -0.577349 0.577349 0.577349 -0.577349 0.577349 0.577349 0.577349 0.577349 -0.577349 0.577349 0.577349 -0.577349 -0.577349 0.577349 -0.577349 -0.577349 0.577349 -0.577349 0.577349 -0.577349 -0.577349 0.577349 -0.577349 -0.577349 -0.577349 0.577349 0.577349 -0.577349 0.577349 -0.577349 -0.577349 0.577349 0.577349 0.577349 0.577349 -0.577349 0.577349 " />
									<TextureCoordinate point="0.0309 0.4977 0.4572 0.4977 0.4572 0.6942 0.0309 0.6942 0.0309 0.4977 0.4572 0.4977 0.4572 0.6942 0.0309 0.6942 0.0309 0.4977 0.4572 0.4977 0.4572 0.6942 0.0309 0.6942 0.0309 0.4977 0.4572 0.4977 0.4572 0.6942 0.0309 0.6942 0.4572 0.4977 0.4572 0.6942 0.0309 0.4977 0.0309 0.6942 " />
								</IndexedTriangleSet>
							</Shape>
						</Group>
					</Transform>
				</Transform>
				<Transform DEF="Cube_012_TRANSFORM"
				           translation="0.000000 -0.362448 0.932326"
				           scale="1.000000 1.000000 1.000000"
				           rotation="0.000000 1.000000 0.000000 0.000000"
				           >
					<Transform DEF="Cube_012_ifs_TRANSFORM"
					           translation="0.000000 0.000000 0.000000"
					           scale="1.000000 1.000000 1.000000"
					           rotation="0.000000 1.000000 0.000000 0.000000"
					           >
						<Group DEF="group_ME_Cube_045">
							<Shape>
								<Appearance>
									<Material USE="MA_Body" />
								</Appearance>
								<IndexedTriangleSet solid="false"
								                    normalPerVertex="true"
								                    index="0 1 2 0 2 3 4 5 6 4 6 7 8 9 10 8 10 11 12 13 14 12 14 15 4 16 17 4 17 15 18 5 14 18 14 19 "
								                    >
									<Coordinate point="0.173103 -0.179108 0.019163 -0.173103 -0.179108 0.019163 -0.173103 0.179108 -0.019163 0.173103 0.179108 -0.019163 0.173103 0.179108 -0.019163 -0.173103 0.179108 -0.019163 -0.173103 0.275309 0.880003 0.173103 0.275309 0.880003 0.173103 0.275309 0.880003 -0.173103 0.275309 0.880003 -0.173103 -0.082907 0.918328 0.173103 -0.082907 0.918328 0.173103 -0.082907 0.918328 -0.173103 -0.082907 0.918328 -0.173103 -0.179108 0.019163 0.173103 -0.179108 0.019163 0.173103 0.275309 0.880003 0.173103 -0.082907 0.918328 -0.173103 0.275309 0.880003 -0.173103 -0.082907 0.918328 " />
									<Normal vector="0.577349 -0.635487 -0.512650 -0.577349 -0.635487 -0.512650 -0.577349 0.512650 -0.635487 0.577349 0.512650 -0.635487 0.577349 0.512650 -0.635487 -0.577349 0.512650 -0.635487 -0.577349 0.635487 0.512650 0.577349 0.635487 0.512650 0.577349 0.635487 0.512650 -0.577349 0.635487 0.512650 -0.577349 -0.512650 0.635487 0.577349 -0.512650 0.635487 0.577349 -0.512650 0.635487 -0.577349 -0.512650 0.635487 -0.577349 -0.635487 -0.512650 0.577349 -0.635487 -0.512650 0.577349 0.635487 0.512650 0.577349 -0.512650 0.635487 -0.577349 0.635487 0.512650 -0.577349 -0.512650 0.635487 " />
									<TextureCoordinate point="0.0309 0.4977 0.4572 0.4977 0.4572 0.6942 0.0309 0.6942 0.0309 0.4977 0.4572 0.4977 0.4572 0.6942 0.0309 0.6942 0.0309 0.4977 0.4572 0.4977 0.4572 0.6942 0.0309 0.6942 0.0309 0.4977 0.4572 0.4977 0.4572 0.6942 0.0309 0.6942 0.4572 0.4977 0.4572 0.6942 0.0309 0.4977 0.0309 0.6942 " />
								</IndexedTriangleSet>
							</Shape>
						</Group>
					</Transform>
				</Transform>
				<Transform DEF="Cube_013_TRANSFORM"
				           translation="0.000000 -0.426777 0.000000"
				           scale="1.000000 1.000000 1.000000"
				           rotation="0.000000 1.000000 0.000000 0.000000"
				           >
					<Transform DEF="Cube_013_ifs_TRANSFORM"
					           translation="0.000000 0.000000 0.000000"
					           scale="1.000000 1.000000 1.000000"
					           rotation="0.000000 1.000000 0.000000 0.000000"
					           >
						<Group DEF="group_ME_Cube_046">
							<Shape>
								<Appearance>
									<Material DEF="MA_Glow"
									          diffuseColor="0.800 0.800 0.800"
									          specularColor="0.401 0.401 0.401"
									          emissiveColor="0.000 0.000 0.000"
									          ambientIntensity="0.000"
									          shininess="0.500"
									          transparency="0.0"
									          />
								</Appearance>
								<IndexedTriangleSet solid="false"
								                    normalPerVertex="true"
								                    index="0 1 2 0 2 3 4 5 6 4 6 7 8 9 10 8 10 11 12 13 14 12 14 15 16 17 18 16 18 0 9 19 20 9 20 21 "
								                    >
									<Coordinate point="-0.817198 -0.406278 -0.833997 -0.817198 -0.406278 0.833997 -0.817198 0.000000 0.833997 -0.817198 0.000000 -0.833997 -0.817198 0.000000 -0.833997 -0.817198 0.000000 0.833997 0.817198 0.000000 0.833997 0.817198 0.000000 -0.833997 0.817198 0.000000 -0.833997 0.817198 0.000000 0.833997 0.817198 -0.406278 0.833997 0.817198 -0.406278 -0.833997 0.817198 -0.406278 -0.833997 0.817198 -0.406278 0.833997 -0.817198 -0.406278 0.833997 -0.817198 -0.406278 -0.833997 -0.817198 0.000000 -0.833997 0.817198 0.000000 -0.833997 0.817198 -0.406278 -0.833997 -0.817198 0.000000 0.833997 -0.817198 -0.406278 0.833997 0.817198 -0.406278 0.833997 " />
									<Normal vector="-0.577349 -0.577349 -0.577349 -0.577349 -0.577349 0.577349 -0.577349 0.577349 0.577349 -0.577349 0.577349 -0.577349 -0.577349 0.577349 -0.577349 -0.577349 0.577349 0.577349 0.577349 0.577349 0.577349 0.577349 0.577349 -0.577349 0.577349 0.577349 -0.577349 0.577349 0.577349 0.577349 0.577349 -0.577349 0.577349 0.577349 -0.577349 -0.577349 0.577349 -0.577349 -0.577349 0.577349 -0.577349 0.577349 -0.577349 -0.577349 0.577349 -0.577349 -0.577349 -0.577349 -0.577349 0.577349 -0.577349 0.577349 0.577349 -0.577349 0.577349 -0.577349 -0.577349 -0.577349 0.577349 0.577349 -0.577349 -0.577349 0.577349 0.577349 -0.577349 0.577349 " />
									<TextureCoordinate point="0.5922 0.5032 0.5922 0.6789 0.9394 0.6789 0.9394 0.5032 0.0230 0.0085 0.0230 0.4551 0.9770 0.4551 0.9770 0.0085 0.9394 0.5032 0.9394 0.6789 0.5922 0.6789 0.5922 0.5032 0.9770 0.0085 0.9770 0.4551 0.0230 0.4551 0.0230 0.0085 0.5922 0.6789 0.9394 0.6789 0.9394 0.5032 0.5922 0.6789 0.5922 0.5032 0.9394 0.5032 " />
								</IndexedTriangleSet>
							</Shape>
						</Group>
					</Transform>
				</Transform>
				<Transform DEF="Cube_001_TRANSFORM"
				           translation="0.649387 -0.362448 -0.673046"
				           scale="1.000000 1.000000 1.000000"
				           rotation="0.000000 1.000000 0.000000 0.000000"
				           >
					<Transform DEF="Cube_001_ifs_TRANSFORM"
					           translation="0.000000 0.000000 0.000000"
					           scale="1.000000 1.000000 1.000000"
					           rotation="0.000000 1.000000 0.000000 0.000000"
					           >
						<Group DEF="group_ME_Cube_001">
							<Shape>
								<Appearance>
									<Material USE="MA_Body" />
								</Appearance>
								<IndexedTriangleSet solid="false"
								                    normalPerVertex="true"
								                    index="0 1 2 0 2 3 4 5 6 4 6 7 8 9 10 8 10 11 12 13 14 12 14 15 4 13 16 4 16 17 18 19 14 18 14 7 "
								                    >
									<Coordinate point="0.140364 -0.179040 0.103219 0.113451 0.179040 0.132231 -0.140364 0.179040 -0.103219 -0.113451 -0.179040 -0.132231 0.113451 0.179040 0.132231 0.711228 0.276178 -0.512172 0.457413 0.276178 -0.747622 -0.140364 0.179040 -0.103219 0.711228 0.276178 -0.512172 0.738140 -0.081902 -0.541184 0.484325 -0.081902 -0.776634 0.457413 0.276178 -0.747622 0.738140 -0.081902 -0.541184 0.140364 -0.179040 0.103219 -0.113451 -0.179040 -0.132231 0.484325 -0.081902 -0.776634 0.738140 -0.081902 -0.541184 0.711228 0.276178 -0.512172 0.457413 0.276178 -0.747622 0.484325 -0.081902 -0.776634 " />
									<Normal vector="0.076113 -0.637257 0.766839 -0.010102 0.510422 0.859828 -0.856655 0.510422 0.074557 -0.770409 -0.637257 -0.018403 -0.010102 0.510422 0.859828 0.770409 0.637257 0.018403 -0.076113 0.637257 -0.766839 -0.856655 0.510422 0.074557 0.770409 0.637257 0.018403 0.856655 -0.510422 -0.074557 0.010102 -0.510422 -0.859828 -0.076113 0.637257 -0.766839 0.856655 -0.510422 -0.074557 0.076113 -0.637257 0.766839 -0.770409 -0.637257 -0.018403 0.010102 -0.510422 -0.859828 0.856655 -0.510422 -0.074557 0.770409 0.637257 0.018403 -0.076113 0.637257 -0.766839 0.010102 -0.510422 -0.859828 " />
									<TextureCoordinate point="0.0309 0.4977 0.0309 0.6942 0.4572 0.6942 0.4572 0.4977 0.0309 0.4977 0.0309 0.6942 0.4572 0.6942 0.4572 0.4977 0.0309 0.4977 0.0309 0.6942 0.4572 0.6942 0.4572 0.4977 0.0309 0.4977 0.0309 0.6942 0.4572 0.6942 0.4572 0.4977 0.4572 0.6942 0.4572 0.4977 0.0309 0.4977 0.0309 0.6942 " />
								</IndexedTriangleSet>
							</Shape>
						</Group>
					</Transform>
				</Transform>
				<Transform DEF="Cube_020_TRANSFORM"
				           translation="0.000000 -0.362448 -0.924919"
				           scale="1.000000 1.000000 1.000000"
				           rotation="0.000000 1.000000 0.000000 0.000000"
				           >
					<Transform DEF="Cube_020_ifs_TRANSFORM"
					           translation="0.000000 0.000000 0.000000"
					           scale="1.000000 1.000000 1.000000"
					           rotation="0.000000 1.000000 0.000000 0.000000"
					           >
						<Group DEF="group_ME_Cube_002">
							<Shape>
								<Appearance>
									<Material USE="MA_Body" />
								</Appearance>
								<IndexedTriangleSet solid="false"
								                    normalPerVertex="true"
								                    index="0 1 2 0 2 3 4 5 6 4 6 7 8 9 10 8 10 11 12 13 14 12 14 15 4 13 16 4 16 17 18 19 14 18 14 7 "
								                    >
									<Coordinate point="0.173103 -0.179108 -0.019163 0.173103 0.179108 0.019163 -0.173103 0.179108 0.019163 -0.173103 -0.179108 -0.019163 0.173103 0.179108 0.019163 0.173103 0.275309 -0.880003 -0.173103 0.275309 -0.880003 -0.173103 0.179108 0.019163 0.173103 0.275309 -0.880003 0.173103 -0.082907 -0.918328 -0.173103 -0.082907 -0.918328 -0.173103 0.275309 -0.880003 0.173103 -0.082907 -0.918328 0.173103 -0.179108 -0.019163 -0.173103 -0.179108 -0.019163 -0.173103 -0.082907 -0.918328 0.173103 -0.082907 -0.918328 0.173103 0.275309 -0.880003 -0.173103 0.275309 -0.880003 -0.173103 -0.082907 -0.918328 " />
									<Normal vector="0.577349 -0.635487 0.512650 0.577349 0.512650 0.635487 -0.577349 0.512650 0.635487 -0.577349 -0.635487 0.512650 0.577349 0.512650 0.635487 0.577349 0.635487 -0.512650 -0.577349 0.635487 -0.512650 -0.577349 0.512650 0.635487 0.577349 0.635487 -0.512650 0.577349 -0.512650 -0.635487 -0.577349 -0.512650 -0.635487 -0.577349 0.635487 -0.512650 0.577349 -0.512650 -0.635487 0.577349 -0.635487 0.512650 -0.577349 -0.635487 0.512650 -0.577349 -0.512650 -0.635487 0.577349 -0.512650 -0.635487 0.577349 0.635487 -0.512650 -0.577349 0.635487 -0.512650 -0.577349 -0.512650 -0.635487 " />
									<TextureCoordinate point="0.0309 0.4977 0.0309 0.6942 0.4572 0.6942 0.4572 0.4977 0.0309 0.4977 0.0309 0.6942 0.4572 0.6942 0.4572 0.4977 0.0309 0.4977 0.0309 0.6942 0.4572 0.6942 0.4572 0.4977 0.0309 0.4977 0.0309 0.6942 0.4572 0.6942 0.4572 0.4977 0.4572 0.6942 0.4572 0.4977 0.0309 0.4977 0.0309 0.6942 " />
								</IndexedTriangleSet>
							</Shape>
						</Group>
					</Transform>
				</Transform>
				<Transform DEF="Cube_025_TRANSFORM"
				           translation="-0.931919 -0.362448 -0.004895"
				           scale="1.000000 1.000000 1.000000"
				           rotation="0.000000 1.000000 0.000000 0.000000"
				           >
					<Transform DEF="Cube_025_ifs_TRANSFORM"
					           translation="0.000000 0.000000 0.000000"
					           scale="1.000000 1.000000 1.000000"
					           rotation="0.000000 1.000000 0.000000 0.000000"
					           >
						<Group DEF="group_ME_Cube_008">
							<Shape>
								<Appearance>
									<Material USE="MA_Body" />
								</Appearance>
								<IndexedTriangleSet solid="false"
								                    normalPerVertex="true"
								                    index="0 1 2 0 2 3 4 5 6 4 6 7 8 9 10 8 10 11 12 13 14 12 14 15 4 13 16 4 16 17 18 19 14 18 14 7 "
								                    >
									<Coordinate point="-0.019163 -0.179108 -0.173103 0.019163 0.179108 -0.173103 0.019163 0.179108 0.173103 -0.019163 -0.179108 0.173103 0.019163 0.179108 -0.173103 -0.880003 0.275309 -0.173103 -0.880003 0.275309 0.173103 0.019163 0.179108 0.173103 -0.880003 0.275309 -0.173103 -0.918328 -0.082906 -0.173103 -0.918328 -0.082906 0.173103 -0.880003 0.275309 0.173103 -0.918328 -0.082906 -0.173103 -0.019163 -0.179108 -0.173103 -0.019163 -0.179108 0.173103 -0.918328 -0.082906 0.173103 -0.918328 -0.082906 -0.173103 -0.880003 0.275309 -0.173103 -0.880003 0.275309 0.173103 -0.918328 -0.082906 0.173103 " />
									<Normal vector="0.512650 -0.635487 -0.577349 0.635487 0.512650 -0.577349 0.635487 0.512650 0.577349 0.512650 -0.635487 0.577349 0.635487 0.512650 -0.577349 -0.512650 0.635487 -0.577349 -0.512650 0.635487 0.577349 0.635487 0.512650 0.577349 -0.512650 0.635487 -0.577349 -0.635487 -0.512650 -0.577349 -0.635487 -0.512650 0.577349 -0.512650 0.635487 0.577349 -0.635487 -0.512650 -0.577349 0.512650 -0.635487 -0.577349 0.512650 -0.635487 0.577349 -0.635487 -0.512650 0.577349 -0.635487 -0.512650 -0.577349 -0.512650 0.635487 -0.577349 -0.512650 0.635487 0.577349 -0.635487 -0.512650 0.577349 " />
									<TextureCoordinate point="0.0309 0.4977 0.0309 0.6942 0.4572 0.6942 0.4572 0.4977 0.0309 0.4977 0.0309 0.6942 0.4572 0.6942 0.4572 0.4977 0.0309 0.4977 0.0309 0.6942 0.4572 0.6942 0.4572 0.4977 0.0309 0.4977 0.0309 0.6942 0.4572 0.6942 0.4572 0.4977 0.4572 0.6942 0.4572 0.4977 0.0309 0.4977 0.0309 0.6942 " />
								</IndexedTriangleSet>
							</Shape>
						</Group>
					</Transform>
				</Transform>
				<Transform DEF="Cube_026_TRANSFORM"
				           translation="-0.649387 -0.362448 0.681195"
				           scale="1.000000 1.000000 1.000000"
				           rotation="0.000000 1.000000 0.000000 0.000000"
				           >
					<Transform DEF="Cube_026_ifs_TRANSFORM"
					           translation="0.000000 0.000000 0.000000"
					           scale="1.000000 1.000000 1.000000"
					           rotation="0.000000 1.000000 0.000000 0.000000"
					           >
						<Group DEF="group_ME_Cube_009">
							<Shape>
								<Appearance>
									<Material USE="MA_Body" />
								</Appearance>
								<IndexedTriangleSet solid="false"
								                    normalPerVertex="true"
								                    index="0 1 2 0 2 3 4 5 6 4 6 7 8 9 10 8 10 11 12 13 14 12 14 15 4 13 16 4 16 17 18 19 14 18 14 7 "
								                    >
									<Coordinate point="-0.140364 -0.179040 -0.103219 -0.113451 0.179040 -0.132231 0.140364 0.179040 0.103219 0.113451 -0.179040 0.132231 -0.113451 0.179040 -0.132231 -0.711228 0.276178 0.512172 -0.457413 0.276178 0.747622 0.140364 0.179040 0.103219 -0.711228 0.276178 0.512172 -0.738140 -0.081902 0.541184 -0.484325 -0.081902 0.776634 -0.457413 0.276178 0.747622 -0.738140 -0.081902 0.541184 -0.140364 -0.179040 -0.103219 0.113451 -0.179040 0.132231 -0.484325 -0.081902 0.776634 -0.738140 -0.081902 0.541184 -0.711228 0.276178 0.512172 -0.457413 0.276178 0.747622 -0.484325 -0.081902 0.776634 " />
									<Normal vector="-0.076113 -0.637257 -0.766839 0.010102 0.510422 -0.859828 0.856655 0.510422 -0.074557 0.770409 -0.637257 0.018403 0.010102 0.510422 -0.859828 -0.770409 0.637257 -0.018403 0.076113 0.637257 0.766839 0.856655 0.510422 -0.074557 -0.770409 0.637257 -0.018403 -0.856655 -0.510422 0.074557 -0.010102 -0.510422 0.859828 0.076113 0.637257 0.766839 -0.856655 -0.510422 0.074557 -0.076113 -0.637257 -0.766839 0.770409 -0.637257 0.018403 -0.010102 -0.510422 0.859828 -0.856655 -0.510422 0.074557 -0.770409 0.637257 -0.018403 0.076113 0.637257 0.766839 -0.010102 -0.510422 0.859828 " />
									<TextureCoordinate point="0.0309 0.4977 0.0309 0.6942 0.4572 0.6942 0.4572 0.4977 0.0309 0.4977 0.0309 0.6942 0.4572 0.6942 0.4572 0.4977 0.0309 0.4977 0.0309 0.6942 0.4572 0.6942 0.4572 0.4977 0.0309 0.4977 0.0309 0.6942 0.4572 0.6942 0.4572 0.4977 0.4572 0.6942 0.4572 0.4977 0.0309 0.4977 0.0309 0.6942 " />
								</IndexedTriangleSet>
							</Shape>
						</Group>
					</Transform>
				</Transform>
				<Transform DEF="Cube_027_TRANSFORM"
				           translation="-0.649387 -0.362448 -0.673046"
				           scale="1.000000 1.000000 1.000000"
				           rotation="0.000000 1.000000 0.000000 0.000000"
				           >
					<Transform DEF="Cube_027_ifs_TRANSFORM"
					           translation="0.000000 0.000000 0.000000"
					           scale="1.000000 1.000000 1.000000"
					           rotation="0.000000 1.000000 0.000000 0.000000"
					           >
						<Group DEF="group_ME_Cube_012">
							<Shape>
								<Appearance>
									<Material USE="MA_Body" />
								</Appearance>
								<IndexedTriangleSet solid="false"
								                    normalPerVertex="true"
								                    index="0 1 2 0 2 3 4 5 6 4 6 7 8 9 10 8 10 11 12 13 14 12 14 15 4 16 17 4 17 15 18 5 14 18 14 19 "
								                    >
									<Coordinate point="-0.140364 -0.179040 0.103219 0.113451 -0.179040 -0.132231 0.140364 0.179040 -0.103219 -0.113451 0.179040 0.132231 -0.113451 0.179040 0.132231 0.140364 0.179040 -0.103219 -0.457413 0.276178 -0.747622 -0.711228 0.276178 -0.512172 -0.711228 0.276178 -0.512172 -0.457413 0.276178 -0.747622 -0.484325 -0.081902 -0.776634 -0.738140 -0.081902 -0.541184 -0.738140 -0.081902 -0.541184 -0.484325 -0.081902 -0.776634 0.113451 -0.179040 -0.132231 -0.140364 -0.179040 0.103219 -0.711228 0.276178 -0.512172 -0.738140 -0.081902 -0.541184 -0.457413 0.276178 -0.747622 -0.484325 -0.081902 -0.776634 " />
									<Normal vector="-0.076113 -0.637257 0.766839 0.770409 -0.637257 -0.018403 0.856655 0.510422 0.074557 0.010102 0.510422 0.859828 0.010102 0.510422 0.859828 0.856655 0.510422 0.074557 0.076113 0.637257 -0.766839 -0.770409 0.637257 0.018403 -0.770409 0.637257 0.018403 0.076113 0.637257 -0.766839 -0.010102 -0.510422 -0.859828 -0.856655 -0.510422 -0.074557 -0.856655 -0.510422 -0.074557 -0.010102 -0.510422 -0.859828 0.770409 -0.637257 -0.018403 -0.076113 -0.637257 0.766839 -0.770409 0.637257 0.018403 -0.856655 -0.510422 -0.074557 0.076113 0.637257 -0.766839 -0.010102 -0.510422 -0.859828 " />
									<TextureCoordinate point="0.0309 0.4977 0.4572 0.4977 0.4572 0.6942 0.0309 0.6942 0.0309 0.4977 0.4572 0.4977 0.4572 0.6942 0.0309 0.6942 0.0309 0.4977 0.4572 0.4977 0.4572 0.6942 0.0309 0.6942 0.0309 0.4977 0.4572 0.4977 0.4572 0.6942 0.0309 0.6942 0.4572 0.4977 0.4572 0.6942 0.0309 0.4977 0.0309 0.6942 " />
								</IndexedTriangleSet>
							</Shape>
						</Group>
					</Transform>
				</Transform>
			</Transform>
			<Transform DEF="Cube_021_TRANSFORM"
			           translation="-0.978149 -0.024763 0.263811"
			           scale="1.000000 1.000000 1.000000"
			           rotation="0.000000 1.000000 0.000000 0.000000"
			           >
				<Transform DEF="Cube_021_ifs_TRANSFORM"
				           translation="0.000000 0.000000 0.000000"
				           scale="1.000000 1.000000 1.000000"
				           rotation="0.000000 1.000000 0.000000 0.000000"
				           >
					<Group DEF="group_ME_Cube_003">
						<Shape>
							<Appearance>
								<Material USE="MA_Body" />
							</Appearance>
							<IndexedTriangleSet solid="false"
							                    normalPerVertex="true"
							                    index="0 1 2 0 2 3 4 5 6 4 6 7 8 9 10 8 10 11 12 13 14 12 14 15 4 13 16 4 16 17 18 19 14 18 14 7 "
							                    >
								<Coordinate point="0.253570 -0.469908 0.740486 0.253570 0.469908 0.740487 -0.707819 0.469908 1.069702 -0.707819 -0.469908 1.069702 0.253570 0.469908 0.740487 -0.253570 0.469908 -0.740486 -1.214960 0.469908 -0.411271 -0.707819 0.469908 1.069702 -0.253570 0.469908 -0.740486 -0.253570 -0.469908 -0.740487 -1.214960 -0.469908 -0.411271 -1.214960 0.469908 -0.411271 -0.253570 -0.469908 -0.740487 0.253570 -0.469908 0.740486 -0.707819 -0.469908 1.069702 -1.214960 -0.469908 -0.411271 -0.253570 -0.469908 -0.740487 -0.253570 0.469908 -0.740486 -1.214960 0.469908 -0.411271 -1.214960 -0.469908 -0.411271 " />
								<Normal vector="0.733238 -0.577349 0.359142 0.733238 0.577349 0.359142 -0.359142 0.577349 0.733238 -0.359142 -0.577349 0.733238 0.733238 0.577349 0.359142 0.359142 0.577349 -0.733238 -0.733238 0.577349 -0.359142 -0.359142 0.577349 0.733238 0.359142 0.577349 -0.733238 0.359142 -0.577349 -0.733238 -0.733238 -0.577349 -0.359142 -0.733238 0.577349 -0.359142 0.359142 -0.577349 -0.733238 0.733238 -0.577349 0.359142 -0.359142 -0.577349 0.733238 -0.733238 -0.577349 -0.359142 0.359142 -0.577349 -0.733238 0.359142 0.577349 -0.733238 -0.733238 0.577349 -0.359142 -0.733238 -0.577349 -0.359142 " />
								<TextureCoordinate point="0.0739 0.7491 0.0739 0.9743 0.9360 0.9743 0.9360 0.7491 0.0739 0.7491 0.0739 0.9743 0.9360 0.9743 0.9360 0.7491 0.0739 0.7491 0.0739 0.9743 0.9360 0.9743 0.9360 0.7491 0.0739 0.7491 0.0739 0.9743 0.9360 0.9743 0.9360 0.7491 0.9360 0.9743 0.9360 0.7491 0.0739 0.7491 0.0739 0.9743 " />
							</IndexedTriangleSet>
						</Shape>
					</Group>
				</Transform>
				<Transform DEF="Cube_022_TRANSFORM"
				           translation="-0.831685 0.000000 0.284800"
				           scale="1.000000 1.000000 1.000000"
				           rotation="0.000000 1.000000 0.000000 0.000000"
				           >
					<Transform DEF="Cube_022_ifs_TRANSFORM"
					           translation="0.000000 0.000000 0.000000"
					           scale="1.000000 1.000000 1.000000"
					           rotation="0.000000 1.000000 0.000000 0.000000"
					           >
						<Group DEF="group_ME_Cube_004">
							<Shape>
								<Appearance>
									<Material USE="MA_Body" />
								</Appearance>
								<IndexedTriangleSet solid="false"
								                    normalPerVertex="true"
								                    index="0 1 2 0 2 3 4 5 6 4 6 7 8 9 10 8 10 11 12 13 14 12 14 15 4 13 16 4 16 17 18 19 14 18 14 7 "
								                    >
									<Coordinate point="0.182798 -0.361740 0.533814 0.182798 0.361740 0.533814 -0.981150 0.361740 0.932394 -0.981150 -0.361740 0.932394 0.182798 0.361740 0.533814 -0.182798 0.361740 -0.533814 -1.346746 0.361740 -0.135235 -0.981150 0.361740 0.932394 -0.182798 0.361740 -0.533814 -0.182798 -0.361740 -0.533814 -1.346746 -0.361740 -0.135235 -1.346746 0.361740 -0.135235 -0.182798 -0.361740 -0.533814 0.182798 -0.361740 0.533814 -0.981150 -0.361740 0.932394 -1.346746 -0.361740 -0.135235 -0.182798 -0.361740 -0.533814 -0.182798 0.361740 -0.533814 -1.346746 0.361740 -0.135235 -1.346746 -0.361740 -0.135235 " />
									<Normal vector="0.733238 -0.577349 0.359142 0.733238 0.577349 0.359142 -0.359142 0.577349 0.733238 -0.359142 -0.577349 0.733238 0.733238 0.577349 0.359142 0.359142 0.577349 -0.733238 -0.733238 0.577349 -0.359142 -0.359142 0.577349 0.733238 0.359142 0.577349 -0.733238 0.359142 -0.577349 -0.733238 -0.733238 -0.577349 -0.359142 -0.733238 0.577349 -0.359142 0.359142 -0.577349 -0.733238 0.733238 -0.577349 0.359142 -0.359142 -0.577349 0.733238 -0.733238 -0.577349 -0.359142 0.359142 -0.577349 -0.733238 0.359142 0.577349 -0.733238 -0.733238 0.577349 -0.359142 -0.733238 -0.577349 -0.359142 " />
									<TextureCoordinate point="0.0739 0.7491 0.0739 0.9743 0.9360 0.9743 0.9360 0.7491 0.0739 0.7491 0.0739 0.9743 0.9360 0.9743 0.9360 0.7491 0.0739 0.7491 0.0739 0.9743 0.9360 0.9743 0.9360 0.7491 0.0739 0.7491 0.0739 0.9743 0.9360 0.9743 0.9360 0.7491 0.9360 0.9743 0.9360 0.7491 0.0739 0.7491 0.0739 0.9743 " />
								</IndexedTriangleSet>
							</Shape>
						</Group>
					</Transform>
				</Transform>
			</Transform>
			<Transform DEF="Cube_023_TRANSFORM"
			           translation="-0.607513 -0.024763 -0.827998"
			           scale="1.000000 1.000000 1.000000"
			           rotation="0.000000 1.000000 0.000000 0.000000"
			           >
				<Transform DEF="Cube_023_ifs_TRANSFORM"
				           translation="0.000000 0.000000 0.000000"
				           scale="1.000000 1.000000 1.000000"
				           rotation="0.000000 1.000000 0.000000 0.000000"
				           >
					<Group DEF="group_ME_Cube_005">
						<Shape>
							<Appearance>
								<Material USE="MA_Body" />
							</Appearance>
							<IndexedTriangleSet solid="false"
							                    normalPerVertex="true"
							                    index="0 1 2 0 2 3 4 5 6 4 6 7 8 9 10 8 10 11 12 13 14 12 14 15 4 13 16 4 16 17 18 19 14 18 14 7 "
							                    >
								<Coordinate point="-0.620246 -0.469908 0.477403 -0.620246 0.469908 0.477403 -1.240068 0.469908 -0.327875 -1.240068 -0.469908 -0.327875 -0.620246 0.469908 0.477403 0.620246 0.469908 -0.477403 0.000423 0.469908 -1.282681 -1.240068 0.469908 -0.327875 0.620246 0.469908 -0.477403 0.620246 -0.469908 -0.477403 0.000423 -0.469908 -1.282681 0.000423 0.469908 -1.282681 0.620246 -0.469908 -0.477403 -0.620246 -0.469908 0.477403 -1.240068 -0.469908 -0.327875 0.000423 -0.469908 -1.282681 0.620246 -0.469908 -0.477403 0.620246 0.469908 -0.477403 0.000423 0.469908 -1.282681 0.000423 -0.469908 -1.282681 " />
								<Normal vector="-0.105350 -0.577349 0.809656 -0.105350 0.577349 0.809656 -0.809656 0.577349 -0.105350 -0.809656 -0.577349 -0.105350 -0.105350 0.577349 0.809656 0.809656 0.577349 0.105350 0.105350 0.577349 -0.809656 -0.809656 0.577349 -0.105350 0.809656 0.577349 0.105350 0.809656 -0.577349 0.105350 0.105350 -0.577349 -0.809656 0.105350 0.577349 -0.809656 0.809656 -0.577349 0.105350 -0.105350 -0.577349 0.809656 -0.809656 -0.577349 -0.105350 0.105350 -0.577349 -0.809656 0.809656 -0.577349 0.105350 0.809656 0.577349 0.105350 0.105350 0.577349 -0.809656 0.105350 -0.577349 -0.809656 " />
								<TextureCoordinate point="0.0739 0.7491 0.0739 0.9743 0.9360 0.9743 0.9360 0.7491 0.0739 0.7491 0.0739 0.9743 0.9360 0.9743 0.9360 0.7491 0.0739 0.7491 0.0739 0.9743 0.9360 0.9743 0.9360 0.7491 0.0739 0.7491 0.0739 0.9743 0.9360 0.9743 0.9360 0.7491 0.9360 0.9743 0.9360 0.7491 0.0739 0.7491 0.0739 0.9743 " />
							</IndexedTriangleSet>
						</Shape>
					</Group>
				</Transform>
				<Transform DEF="Cube_024_TRANSFORM"
				           translation="-0.536200 0.000000 -0.696635"
				           scale="1.000000 1.000000 1.000000"
				           rotation="0.000000 1.000000 0.000000 0.000000"
				           >
					<Transform DEF="Cube_024_ifs_TRANSFORM"
					           translation="0.000000 0.000000 0.000000"
					           scale="1.000000 1.000000 1.000000"
					           rotation="0.000000 1.000000 0.000000 0.000000"
					           >
						<Group DEF="group_ME_Cube_006">
							<Shape>
								<Appearance>
									<Material USE="MA_Body" />
								</Appearance>
								<IndexedTriangleSet solid="false"
								                    normalPerVertex="true"
								                    index="0 1 2 0 2 3 4 5 6 4 6 7 8 9 10 8 10 11 12 13 14 12 14 15 4 13 16 4 16 17 18 19 14 18 14 7 "
								                    >
									<Coordinate point="-0.447133 -0.361740 0.344158 -0.447133 0.361740 0.344158 -1.197548 0.361740 -0.630787 -1.197548 -0.361740 -0.630787 -0.447133 0.361740 0.344158 0.447133 0.361740 -0.344158 -0.303282 0.361740 -1.319103 -1.197548 0.361740 -0.630787 0.447133 0.361740 -0.344158 0.447133 -0.361740 -0.344158 -0.303282 -0.361740 -1.319103 -0.303282 0.361740 -1.319103 0.447133 -0.361740 -0.344158 -0.447133 -0.361740 0.344158 -1.197548 -0.361740 -0.630787 -0.303282 -0.361740 -1.319103 0.447133 -0.361740 -0.344158 0.447133 0.361740 -0.344158 -0.303282 0.361740 -1.319103 -0.303282 -0.361740 -1.319103 " />
									<Normal vector="-0.105350 -0.577349 0.809656 -0.105350 0.577349 0.809656 -0.809656 0.577349 -0.105350 -0.809656 -0.577349 -0.105350 -0.105350 0.577349 0.809656 0.809656 0.577349 0.105350 0.105350 0.577349 -0.809656 -0.809656 0.577349 -0.105350 0.809656 0.577349 0.105350 0.809656 -0.577349 0.105350 0.105350 -0.577349 -0.809656 0.105350 0.577349 -0.809656 0.809656 -0.577349 0.105350 -0.105350 -0.577349 0.809656 -0.809656 -0.577349 -0.105350 0.105350 -0.577349 -0.809656 0.809656 -0.577349 0.105350 0.809656 0.577349 0.105350 0.105350 0.577349 -0.809656 0.105350 -0.577349 -0.809656 " />
									<TextureCoordinate point="0.0739 0.7491 0.0739 0.9743 0.9360 0.9743 0.9360 0.7491 0.0739 0.7491 0.0739 0.9743 0.9360 0.9743 0.9360 0.7491 0.0739 0.7491 0.0739 0.9743 0.9360 0.9743 0.9360 0.7491 0.0739 0.7491 0.0739 0.9743 0.9360 0.9743 0.9360 0.7491 0.9360 0.9743 0.9360 0.7491 0.0739 0.7491 0.0739 0.9743 " />
								</IndexedTriangleSet>
							</Shape>
						</Group>
					</Transform>
				</Transform>
			</Transform>
		</Transform>
	</Scene>
</X3D>