<?xml version="1.0" encoding="UTF-8"?>
<!DOCTYPE X3D PUBLIC "ISO//Web3D//DTD X3D 3.0//EN" "http://www.web3d.org/specifications/x3d-3.0.dtd">
<X3D version="3.0" profile="Immersive" xmlns:xsd="http://www.w3.org/2001/XMLSchema-instance" xsd:noNamespaceSchemaLocation="http://www.web3d.org/specifications/x3d-3.0.xsd">
	<head>
		<meta name="filename" content="starmie_mega.x3d" />
		<meta name="generator" content="Blender 2.93.18" />
	</head>
	<Scene>
		<NavigationInfo headlight="true"
		                visibilityLimit="0.0"
		                type='"EXAMINE", "ANY"'
		                avatarSize="0.25, 1.75, 0.75"
		                />
		<Background DEF="WO_World"
		            groundColor="0.051 0.051 0.051"
		            skyColor="0.051 0.051 0.051"
		            />
		<Transform DEF="body_TRANSFORM"
		           translation="0.000000 0.000000 4.780047"
		           scale="1.000000 1.000000 1.000000"
		           rotation="0.000000 0.000000 1.000000 3.141593"
		           >
			<Transform DEF="body_ifs_TRANSFORM"
			           translation="0.000000 0.000000 0.000000"
			           scale="1.000000 1.000000 1.000000"
			           rotation="0.000000 1.000000 0.000000 0.000000"
			           >
				<Group DEF="group_ME_body">
					<Shape>
						<Appearance>
							<Material DEF="MA_Body"
							          diffuseColor="0.800 0.800 0.800"
							          specularColor="0.401 0.401 0.401"
							          emissiveColor="0.000 0.000 0.000"
							          ambientIntensity="0.000"
							          shininess="0.500"
							          transparency="0.0"
							          />
						</Appearance>
						<IndexedTriangleSet solid="false"
						                    normalPerVertex="true"
						                    index="0 1 2 0 2 3 4 5 6 4 6 7 8 9 10 8 10 11 12 13 14 12 14 15 4 16 17 4 17 15 18 5 14 18 14 19 "
						                    >
							<Coordinate point="-1.186816 -0.824493 -1.114580 -1.186816 -0.824493 1.114580 -1.186816 0.824493 1.114580 -1.186816 0.824493 -1.114580 -1.186816 0.824493 -1.114580 -1.186816 0.824493 1.114580 1.186816 0.824493 1.114580 1.186816 0.824493 -1.114580 1.186816 0.824493 -1.114580 1.186816 0.824493 1.114580 1.186816 -0.824493 1.114580 1.186816 -0.824493 -1.114580 1.186816 -0.824493 -1.114580 1.186816 -0.824493 1.114580 -1.186816 -0.824493 1.114580 -1.186816 -0.824493 -1.114580 1.186816 0.824493 -1.114580 1.186816 -0.824493 -1.114580 1.186816 0.824493 1.114580 1.186816 -0.824493 1.114580 " />
							<Normal vector="-0.577349 -0.577349 -0.577349 -0.577349 -0.577349 0.577349 -0.577349 0.577349 0.577349 -0.577349 0.577349 -0.577349 -0.577349 0.577349 -0.577349 -0.577349 0.577349 0.577349 0.577349 0.577349 0.577349 0.577349 0.577349 -0.577349 0.577349 0.577349 -0.577349 0.577349 0.577349 0.577349 0.577349 -0.577349 0.577349 0.577349 -0.577349 -0.577349 0.577349 -0.577349 -0.577349 0.577349 -0.577349 0.577349 -0.577349 -0.577349 0.577349 -0.577349 -0.577349 -0.577349 0.577349 0.577349 -0.577349 0.577349 -0.577349 -0.577349 0.577349 0.577349 0.577349 0.577349 -0.577349 0.577349 " />
							<TextureCoordinate point="0.0622 0.7559 0.9575 0.7559 0.9575 0.9823 0.0622 0.9823 0.0622 0.7559 0.9575 0.7559 0.9575 0.9823 0.0622 0.9823 0.0622 0.7559 0.9575 0.7559 0.9575 0.9823 0.0622 0.9823 0.0622 0.7559 0.9575 0.7559 0.9575 0.9823 0.0622 0.9823 0.9575 0.7559 0.9575 0.9823 0.0622 0.7559 0.0622 0.9823 " />
						</IndexedTriangleSet>
					</Shape>
				</Group>
			</Transform>
			<Transform DEF="Cube_TRANSFORM"
			           translation="0.000000 0.000000 -0.877384"
			           scale="1.000000 1.000000 1.000000"
			           rotation="0.000000 1.000000 0.000000 0.000000"
			           >
				<Transform DEF="Cube_ifs_TRANSFORM"
				           translation="0.000000 0.000000 0.000000"
				           scale="1.000000 1.000000 1.000000"
				           rotation="0.000000 1.000000 0.000000 0.000000"
				           >
					<Group DEF="group_ME_Cube">
						<Shape>
							<Appearance>
								<Material USE="MA_Body" />
							</Appearance>
							<IndexedTriangleSet solid="false"
							                    normalPerVertex="true"
							                    index="0 1 2 0 2 3 4 5 6 4 6 7 8 9 10 8 10 11 12 13 14 12 14 15 4 16 17 4 17 15 18 5 14 18 14 19 "
							                    >
								<Coordinate point="-1.243250 -0.704808 -1.104274 -1.243250 -0.704808 0.000000 -1.243250 0.704808 0.000000 -1.243250 0.704808 -1.104274 -1.243250 0.704808 -1.104274 -1.243250 0.704808 0.000000 1.243250 0.704808 0.000000 1.243250 0.704808 -1.104274 1.243250 0.704808 -1.104274 1.243250 0.704808 0.000000 1.243250 -0.704808 0.000000 1.243250 -0.704808 -1.104274 1.243250 -0.704808 -1.104274 1.243250 -0.704808 0.000000 -1.243250 -0.704808 0.000000 -1.243250 -0.704808 -1.104274 1.243250 0.704808 -1.104274 1.243250 -0.704808 -1.104274 1.243250 0.704808 0.000000 1.243250 -0.704808 0.000000 " />
								<Normal vector="-0.577349 -0.577349 -0.577349 -0.577349 -0.577349 0.577349 -0.577349 0.577349 0.577349 -0.577349 0.577349 -0.577349 -0.577349 0.577349 -0.577349 -0.577349 0.577349 0.577349 0.577349 0.577349 0.577349 0.577349 0.577349 -0.577349 0.577349 0.577349 -0.577349 0.577349 0.577349 0.577349 0.577349 -0.577349 0.577349 0.577349 -0.577349 -0.577349 0.577349 -0.577349 -0.577349 0.577349 -0.577349 0.577349 -0.577349 -0.577349 0.577349 -0.577349 -0.577349 -0.577349 0.577349 0.577349 -0.577349 0.577349 -0.577349 -0.577349 0.577349 0.577349 0.577349 0.577349 -0.577349 0.577349 " />
								<TextureCoordinate point="0.0622 0.7559 0.9575 0.7559 0.9575 0.9823 0.0622 0.9823 0.0622 0.7559 0.9575 0.7559 0.9575 0.9823 0.0622 0.9823 0.0622 0.7559 0.9575 0.7559 0.9575 0.9823 0.0622 0.9823 0.0622 0.7559 0.9575 0.7559 0.9575 0.9823 0.0622 0.9823 0.9575 0.7559 0.9575 0.9823 0.0622 0.7559 0.0622 0.9823 " />
							</IndexedTriangleSet>
						</Shape>
					</Group>
				</Transform>
			</Transform>
			<Transform DEF="Cube_002_TRANSFORM"
			           translation="0.000000 0.000000 0.938140"
			           scale="1.000000 1.000000 1.000000"
			           rotation="0.000000 1.000000 0.000000 0.000000"
			           >
				<Transform DEF="Cube_002_ifs_TRANSFORM"
				           translation="0.000000 0.000000 0.000000"
				           scale="1.000000 1.000000 1.000000"
				           rotation="0.000000 1.000000 0.000000 0.000000"
				           >
					<Group DEF="group_ME_Cube_002">
						<Shape>
							<Appearance>
								<Material USE="MA_Body" />
							</Appearance>
							<IndexedTriangleSet solid="false"
							                    normalPerVertex="true"
							                    index="0 1 2 0 2 3 4 5 6 4 6 7 8 9 10 8 10 11 12 13 14 12 14 15 4 16 17 4 17 15 18 5 14 18 14 19 "
							                    >
								<Coordinate point="-0.656227 -0.565520 0.000000 -0.656227 -0.565520 0.990426 -0.656227 0.565520 0.990426 -0.656227 0.565520 0.000000 -0.656227 0.565520 0.000000 -0.656227 0.565520 0.990426 0.656227 0.565520 0.990426 0.656227 0.565520 0.000000 0.656227 0.565520 0.000000 0.656227 0.565520 0.990426 0.656227 -0.565520 0.990426 0.656227 -0.565520 0.000000 0.656227 -0.565520 0.000000 0.656227 -0.565520 0.990426 -0.656227 -0.565520 0.990426 -0.656227 -0.565520 0.000000 0.656227 0.565520 0.000000 0.656227 -0.565520 0.000000 0.656227 0.565520 0.990426 0.656227 -0.565520 0.990426 " />
								<Normal vector="-0.577349 -0.577349 -0.577349 -0.577349 -0.577349 0.577349 -0.577349 0.577349 0.577349 -0.577349 0.577349 -0.577349 -0.577349 0.577349 -0.577349 -0.577349 0.577349 0.577349 0.577349 0.577349 0.577349 0.577349 0.577349 -0.577349 0.577349 0.577349 -0.577349 0.577349 0.577349 0.577349 0.577349 -0.577349 0.577349 0.577349 -0.577349 -0.577349 0.577349 -0.577349 -0.577349 0.577349 -0.577349 0.577349 -0.577349 -0.577349 0.577349 -0.577349 -0.577349 -0.577349 0.577349 0.577349 -0.577349 0.577349 -0.577349 -0.577349 0.577349 0.577349 0.577349 0.577349 -0.577349 0.577349 " />
								<TextureCoordinate point="0.0622 0.7559 0.9575 0.7559 0.9575 0.9823 0.0622 0.9823 0.0622 0.7559 0.9575 0.7559 0.9575 0.9823 0.0622 0.9823 0.0622 0.7559 0.9575 0.7559 0.9575 0.9823 0.0622 0.9823 0.0622 0.7559 0.9575 0.7559 0.9575 0.9823 0.0622 0.9823 0.9575 0.7559 0.9575 0.9823 0.0622 0.7559 0.0622 0.9823 " />
							</IndexedTriangleSet>
						</Shape>
					</Group>
				</Transform>
				<Transform DEF="Cube_003_TRANSFORM"
				           translation="0.000000 0.000000 0.893466"
				           scale="1.000000 1.000000 1.000000"
				           rotation="0.000000 1.000000 0.000000 0.000000"
				           >
					<Transform DEF="Cube_003_ifs_TRANSFORM"
					           translation="0.000000 0.000000 0.000000"
					           scale="1.000000 1.000000 1.000000"
					           rotation="0.000000 1.000000 0.000000 0.000000"
					           >
						<Group DEF="group_ME_Cube_003">
							<Shape>
								<Appearance>
									<Material USE="MA_Body" />
								</Appearance>
								<IndexedTriangleSet solid="false"
								                    normalPerVertex="true"
								                    index="0 1 2 0 2 3 4 5 6 4 6 7 8 9 10 8 10 11 12 13 14 12 14 15 4 16 17 4 17 15 18 5 14 18 14 19 "
								                    >
									<Coordinate point="-0.391227 -0.325132 0.000000 -0.391227 -0.325132 1.035491 -0.391227 0.325132 1.035491 -0.391227 0.325132 0.000000 -0.391227 0.325132 0.000000 -0.391227 0.325132 1.035491 0.391227 0.325132 1.035491 0.391227 0.325132 0.000000 0.391227 0.325132 0.000000 0.391227 0.325132 1.035491 0.391227 -0.325132 1.035491 0.391227 -0.325132 0.000000 0.391227 -0.325132 0.000000 0.391227 -0.325132 1.035491 -0.391227 -0.325132 1.035491 -0.391227 -0.325132 0.000000 0.391227 0.325132 0.000000 0.391227 -0.325132 0.000000 0.391227 0.325132 1.035491 0.391227 -0.325132 1.035491 " />
									<Normal vector="-0.577349 -0.577349 -0.577349 -0.577349 -0.577349 0.577349 -0.577349 0.577349 0.577349 -0.577349 0.577349 -0.577349 -0.577349 0.577349 -0.577349 -0.577349 0.577349 0.577349 0.577349 0.577349 0.577349 0.577349 0.577349 -0.577349 0.577349 0.577349 -0.577349 0.577349 0.577349 0.577349 0.577349 -0.577349 0.577349 0.577349 -0.577349 -0.577349 0.577349 -0.577349 -0.577349 0.577349 -0.577349 0.577349 -0.577349 -0.577349 0.577349 -0.577349 -0.577349 -0.577349 0.577349 0.577349 -0.577349 0.577349 -0.577349 -0.577349 0.577349 0.577349 0.577349 0.577349 -0.577349 0.577349 " />
									<TextureCoordinate point="0.0622 0.7559 0.9575 0.7559 0.9575 0.9823 0.0622 0.9823 0.0622 0.7559 0.9575 0.7559 0.9575 0.9823 0.0622 0.9823 0.0622 0.7559 0.9575 0.7559 0.9575 0.9823 0.0622 0.9823 0.0622 0.7559 0.9575 0.7559 0.9575 0.9823 0.0622 0.9823 0.9575 0.7559 0.9575 0.9823 0.0622 0.7559 0.0622 0.9823 " />
								</IndexedTriangleSet>
							</Shape>
						</Group>
					</Transform>
				</Transform>
			</Transform>
			<Transform DEF="arm1_TRANSFORM"
			           translation="1.017560 0.000000 0.004963"
			           scale="1.000000 1.000000 1.000000"
			           rotation="0.000000 1.000000 0.000000 0.000000"
			           >
				<Transform DEF="arm1_ifs_TRANSFORM"
				           translation="0.000000 0.000000 0.000000"
				           scale="1.000000 1.000000 1.000000"
				           rotation="0.000000 1.000000 0.000000 0.000000"
				           >
					<Group DEF="group_ME_arm1">
						<Shape>
							<Appearance>
								<Material USE="MA_Body" />
							</Appearance>
							<IndexedTriangleSet solid="false"
							                    normalPerVertex="true"
							                    index="0 1 2 0 2 3 4 5 6 4 6 7 8 9 10 8 10 11 12 13 14 12 14 15 4 16 17 4 17 15 18 5 14 18 14 19 "
							                    >
								<Coordinate point="0.000000 -0.549352 -0.701695 0.000000 -0.549352 0.701695 0.000000 0.549352 0.701695 0.000000 0.549352 -0.701695 0.000000 0.549352 -0.701695 0.000000 0.549352 0.701695 1.029046 0.549352 0.701695 1.029046 0.549352 -0.701695 1.029046 0.549352 -0.701695 1.029046 0.549352 0.701695 1.029046 -0.549352 0.701695 1.029046 -0.549352 -0.701695 1.029046 -0.549352 -0.701695 1.029046 -0.549352 0.701695 0.000000 -0.549352 0.701695 0.000000 -0.549352 -0.701695 1.029046 0.549352 -0.701695 1.029046 -0.549352 -0.701695 1.029046 0.549352 0.701695 1.029046 -0.549352 0.701695 " />
								<Normal vector="-0.577349 -0.577349 -0.577349 -0.577349 -0.577349 0.577349 -0.577349 0.577349 0.577349 -0.577349 0.577349 -0.577349 -0.577349 0.577349 -0.577349 -0.577349 0.577349 0.577349 0.577349 0.577349 0.577349 0.577349 0.577349 -0.577349 0.577349 0.577349 -0.577349 0.577349 0.577349 0.577349 0.577349 -0.577349 0.577349 0.577349 -0.577349 -0.577349 0.577349 -0.577349 -0.577349 0.577349 -0.577349 0.577349 -0.577349 -0.577349 0.577349 -0.577349 -0.577349 -0.577349 0.577349 0.577349 -0.577349 0.577349 -0.577349 -0.577349 0.577349 0.577349 0.577349 0.577349 -0.577349 0.577349 " />
								<TextureCoordinate point="0.0622 0.7559 0.9575 0.7559 0.9575 0.9823 0.0622 0.9823 0.0622 0.7559 0.9575 0.7559 0.9575 0.9823 0.0622 0.9823 0.0622 0.7559 0.9575 0.7559 0.9575 0.9823 0.0622 0.9823 0.0622 0.7559 0.9575 0.7559 0.9575 0.9823 0.0622 0.9823 0.9575 0.7559 0.9575 0.9823 0.0622 0.7559 0.0622 0.9823 " />
							</IndexedTriangleSet>
						</Shape>
					</Group>
				</Transform>
				<Transform DEF="arm1_1_TRANSFORM"
				           translation="0.943104 0.000000 0.004963"
				           scale="1.000000 1.000000 1.000000"
				           rotation="0.000000 1.000000 0.000000 0.000000"
				           >
					<Transform DEF="arm1_1_ifs_TRANSFORM"
					           translation="0.000000 0.000000 0.000000"
					           scale="1.000000 1.000000 1.000000"
					           rotation="0.000000 1.000000 0.000000 0.000000"
					           >
						<Group DEF="group_ME_arm1_1">
							<Shape>
								<Appearance>
									<Material USE="MA_Body" />
								</Appearance>
								<IndexedTriangleSet solid="false"
								                    normalPerVertex="true"
								                    index="0 1 2 0 2 3 4 5 6 4 6 7 8 9 10 8 10 11 12 13 14 12 14 15 4 16 17 4 17 15 18 5 14 18 14 19 "
								                    >
									<Coordinate point="0.000000 -0.289286 -0.401738 0.000000 -0.289286 0.401738 0.000000 0.289286 0.401738 0.000000 0.289286 -0.401738 0.000000 0.289286 -0.401738 0.000000 0.289286 0.401738 1.172890 0.289286 0.401738 1.172890 0.289286 -0.401738 1.172890 0.289286 -0.401738 1.172890 0.289286 0.401738 1.172890 -0.289286 0.401738 1.172890 -0.289286 -0.401738 1.172890 -0.289286 -0.401738 1.172890 -0.289286 0.401738 0.000000 -0.289286 0.401738 0.000000 -0.289286 -0.401738 1.172890 0.289286 -0.401738 1.172890 -0.289286 -0.401738 1.172890 0.289286 0.401738 1.172890 -0.289286 0.401738 " />
									<Normal vector="-0.577349 -0.577349 -0.577349 -0.577349 -0.577349 0.577349 -0.577349 0.577349 0.577349 -0.577349 0.577349 -0.577349 -0.577349 0.577349 -0.577349 -0.577349 0.577349 0.577349 0.577349 0.577349 0.577349 0.577349 0.577349 -0.577349 0.577349 0.577349 -0.577349 0.577349 0.577349 0.577349 0.577349 -0.577349 0.577349 0.577349 -0.577349 -0.577349 0.577349 -0.577349 -0.577349 0.577349 -0.577349 0.577349 -0.577349 -0.577349 0.577349 -0.577349 -0.577349 -0.577349 0.577349 0.577349 -0.577349 0.577349 -0.577349 -0.577349 0.577349 0.577349 0.577349 0.577349 -0.577349 0.577349 " />
									<TextureCoordinate point="0.0622 0.7559 0.9575 0.7559 0.9575 0.9823 0.0622 0.9823 0.0622 0.7559 0.9575 0.7559 0.9575 0.9823 0.0622 0.9823 0.0622 0.7559 0.9575 0.7559 0.9575 0.9823 0.0622 0.9823 0.0622 0.7559 0.9575 0.7559 0.9575 0.9823 0.0622 0.9823 0.9575 0.7559 0.9575 0.9823 0.0622 0.7559 0.0622 0.9823 " />
								</IndexedTriangleSet>
							</Shape>
						</Group>
					</Transform>
				</Transform>
			</Transform>
			<Transform DEF="Cube_006_TRANSFORM"
			           translation="0.000000 0.000000 -1.870125"
			           scale="1.000000 1.000000 1.000000"
			           rotation="0.000000 1.000000 0.000000 0.000000"
			           >
				<Transform DEF="Cube_006_ifs_TRANSFORM"
				           translation="0.000000 0.000000 0.000000"
				           scale="1.000000 1.000000 1.000000"
				           rotation="0.000000 1.000000 0.000000 0.000000"
				           >
					<Group DEF="group_ME_Cube_006">
						<Shape>
							<Appearance>
								<Material USE="MA_Body" />
							</Appearance>
							<IndexedTriangleSet solid="false"
							                    normalPerVertex="true"
							                    index="0 1 2 0 2 3 4 5 6 4 6 7 8 9 10 8 10 11 12 13 14 12 14 15 4 16 17 4 17 15 18 5 14 18 14 19 "
							                    >
								<Coordinate point="-0.442372 -0.584630 -0.889102 -0.442372 -0.584630 0.000000 -0.442372 0.584630 0.000000 -0.442372 0.584630 -0.889102 -0.442372 0.584630 -0.889102 -0.442372 0.584630 0.000000 0.442372 0.584630 0.000000 0.442372 0.584630 -0.889102 0.442372 0.584630 -0.889102 0.442372 0.584630 0.000000 0.442372 -0.584630 0.000000 0.442372 -0.584630 -0.889102 0.442372 -0.584630 -0.889102 0.442372 -0.584630 0.000000 -0.442372 -0.584630 0.000000 -0.442372 -0.584630 -0.889102 0.442372 0.584630 -0.889102 0.442372 -0.584630 -0.889102 0.442372 0.584630 0.000000 0.442372 -0.584630 0.000000 " />
								<Normal vector="-0.577349 -0.577349 -0.577349 -0.577349 -0.577349 0.577349 -0.577349 0.577349 0.577349 -0.577349 0.577349 -0.577349 -0.577349 0.577349 -0.577349 -0.577349 0.577349 0.577349 0.577349 0.577349 0.577349 0.577349 0.577349 -0.577349 0.577349 0.577349 -0.577349 0.577349 0.577349 0.577349 0.577349 -0.577349 0.577349 0.577349 -0.577349 -0.577349 0.577349 -0.577349 -0.577349 0.577349 -0.577349 0.577349 -0.577349 -0.577349 0.577349 -0.577349 -0.577349 -0.577349 0.577349 0.577349 -0.577349 0.577349 -0.577349 -0.577349 0.577349 0.577349 0.577349 0.577349 -0.577349 0.577349 " />
								<TextureCoordinate point="0.0622 0.7559 0.9575 0.7559 0.9575 0.9823 0.0622 0.9823 0.0622 0.7559 0.9575 0.7559 0.9575 0.9823 0.0622 0.9823 0.0622 0.7559 0.9575 0.7559 0.9575 0.9823 0.0622 0.9823 0.0622 0.7559 0.9575 0.7559 0.9575 0.9823 0.0622 0.9823 0.9575 0.7559 0.9575 0.9823 0.0622 0.7559 0.0622 0.9823 " />
							</IndexedTriangleSet>
						</Shape>
					</Group>
				</Transform>
			</Transform>
			<Transform DEF="leg1_TRANSFORM"
			           translation="0.624012 0.030926 -1.750585"
			           scale="1.000000 1.000000 1.000000"
			           rotation="0.000000 1.000000 0.000000 0.000000"
			           >
				<Transform DEF="leg1_ifs_TRANSFORM"
				           translation="0.000000 0.000000 0.000000"
				           scale="1.000000 1.000000 1.000000"
				           rotation="0.000000 1.000000 0.000000 0.000000"
				           >
					<Group DEF="group_ME_leg1">
						<Shape>
							<Appearance>
								<Material USE="MA_Body" />
							</Appearance>
							<IndexedTriangleSet solid="false"
							                    normalPerVertex="true"
							                    index="0 1 2 0 2 3 4 5 6 4 6 7 8 9 10 8 10 11 12 13 14 12 14 15 4 16 17 4 17 15 18 5 14 18 14 19 "
							                    >
								<Coordinate point="-0.220688 -0.657475 -1.657970 -0.661731 -0.566152 -0.160354 -0.643020 0.566152 -0.223891 -0.201977 0.474830 -1.721507 -0.201977 0.474830 -1.721507 -0.643020 0.566152 -0.223891 0.661731 0.566152 0.160354 1.102774 0.474830 -1.337261 1.102774 0.474830 -1.337261 0.661731 0.566152 0.160354 0.643020 -0.566152 0.223891 1.084063 -0.657475 -1.273725 1.084063 -0.657475 -1.273725 0.643020 -0.566152 0.223891 -0.661731 -0.566152 -0.160354 -0.220688 -0.657475 -1.657970 1.102774 0.474830 -1.337261 1.084063 -0.657475 -1.273725 0.661731 0.566152 0.160354 0.643020 -0.566152 0.223891 " />
								<Normal vector="-0.400525 -0.610065 -0.683645 -0.726157 -0.542650 0.422101 -0.707114 0.610065 0.357433 -0.381481 0.542650 -0.748314 -0.381481 0.542650 -0.748314 -0.707114 0.610065 0.357433 0.400525 0.610065 0.683645 0.726157 0.542650 -0.422101 0.726157 0.542650 -0.422101 0.400525 0.610065 0.683645 0.381481 -0.542650 0.748314 0.707114 -0.610065 -0.357433 0.707114 -0.610065 -0.357433 0.381481 -0.542650 0.748314 -0.726157 -0.542650 0.422101 -0.400525 -0.610065 -0.683645 0.726157 0.542650 -0.422101 0.707114 -0.610065 -0.357433 0.400525 0.610065 0.683645 0.381481 -0.542650 0.748314 " />
								<TextureCoordinate point="0.0622 0.7559 0.9575 0.7559 0.9575 0.9823 0.0622 0.9823 0.0622 0.7559 0.9575 0.7559 0.9575 0.9823 0.0622 0.9823 0.0622 0.7559 0.9575 0.7559 0.9575 0.9823 0.0622 0.9823 0.0622 0.7559 0.9575 0.7559 0.9575 0.9823 0.0622 0.9823 0.9575 0.7559 0.9575 0.9823 0.0622 0.7559 0.0622 0.9823 " />
							</IndexedTriangleSet>
						</Shape>
					</Group>
				</Transform>
				<Transform DEF="leg1_1_TRANSFORM"
				           translation="0.422889 -0.086260 -1.412445"
				           scale="1.000000 1.000000 1.000000"
				           rotation="0.000000 1.000000 0.000000 0.000000"
				           >
					<Transform DEF="leg1_1_ifs_TRANSFORM"
					           translation="0.000000 0.000000 0.000000"
					           scale="1.000000 1.000000 1.000000"
					           rotation="0.000000 1.000000 0.000000 0.000000"
					           >
						<Group DEF="group_ME_leg1_1">
							<Shape>
								<Appearance>
									<Material USE="MA_Body" />
								</Appearance>
								<IndexedTriangleSet solid="false"
								                    normalPerVertex="true"
								                    index="0 1 2 0 2 3 4 5 6 4 6 7 8 9 10 8 10 11 12 13 14 12 14 15 4 16 17 4 17 15 18 5 14 18 14 19 "
								                    >
									<Coordinate point="-0.122465 -0.420296 -1.126248 -0.477813 -0.444226 -0.193410 -0.484675 0.445127 -0.173210 -0.129327 0.469057 -1.106047 -0.129327 0.469057 -1.106047 -0.484675 0.445127 -0.173210 0.477813 0.444226 0.193410 0.833161 0.468155 -0.739427 0.833161 0.468155 -0.739427 0.477813 0.444226 0.193410 0.484675 -0.445127 0.173210 0.840023 -0.421197 -0.759628 0.840023 -0.421197 -0.759628 0.484675 -0.445127 0.173210 -0.477813 -0.444226 -0.193410 -0.122465 -0.420296 -1.126248 0.833161 0.468155 -0.739427 0.840023 -0.421197 -0.759628 0.477813 0.444226 0.193410 0.484675 -0.445127 0.173210 " />
									<Normal vector="-0.329600 -0.562822 -0.757988 -0.740532 -0.590503 0.320750 -0.749443 0.563829 0.346965 -0.338511 0.591510 -0.731773 -0.338511 0.591510 -0.731773 -0.749443 0.563829 0.346965 0.329600 0.562822 0.757988 0.740532 0.590503 -0.320750 0.740532 0.590503 -0.320750 0.329600 0.562822 0.757988 0.338511 -0.591510 0.731773 0.749443 -0.563829 -0.346965 0.749443 -0.563829 -0.346965 0.338511 -0.591510 0.731773 -0.740532 -0.590503 0.320750 -0.329600 -0.562822 -0.757988 0.740532 0.590503 -0.320750 0.749443 -0.563829 -0.346965 0.329600 0.562822 0.757988 0.338511 -0.591510 0.731773 " />
									<TextureCoordinate point="0.0622 0.7559 0.9575 0.7559 0.9575 0.9823 0.0622 0.9823 0.0622 0.7559 0.9575 0.7559 0.9575 0.9823 0.0622 0.9823 0.0622 0.7559 0.9575 0.7559 0.9575 0.9823 0.0622 0.9823 0.0622 0.7559 0.9575 0.7559 0.9575 0.9823 0.0622 0.9823 0.9575 0.7559 0.9575 0.9823 0.0622 0.7559 0.0622 0.9823 " />
								</IndexedTriangleSet>
							</Shape>
						</Group>
					</Transform>
					<Transform DEF="Cube_009_TRANSFORM"
					           translation="0.316815 0.021335 -0.831684"
					           scale="1.000000 1.000000 1.000000"
					           rotation="0.000000 1.000000 0.000000 0.000000"
					           >
						<Transform DEF="Cube_009_ifs_TRANSFORM"
						           translation="0.000000 0.000000 0.000000"
						           scale="1.000000 1.000000 1.000000"
						           rotation="0.000000 1.000000 0.000000 0.000000"
						           >
							<Group DEF="group_ME_Cube_009">
								<Shape>
									<Appearance>
										<Material USE="MA_Body" />
									</Appearance>
									<IndexedTriangleSet solid="false"
									                    normalPerVertex="true"
									                    index="0 1 2 0 2 3 4 5 6 4 6 7 8 9 10 8 10 11 12 13 14 12 14 15 4 16 17 4 17 15 18 5 14 18 14 19 "
									                    >
										<Coordinate point="0.017894 -0.227061 -0.878054 -0.274362 -0.246742 -0.110843 -0.278173 0.247260 -0.099622 0.014082 0.266941 -0.866833 0.014082 0.266941 -0.866833 -0.278173 0.247260 -0.099622 0.274362 0.246742 0.110843 0.566617 0.266423 -0.656368 0.566617 0.266423 -0.656368 0.274362 0.246742 0.110843 0.278173 -0.247260 0.099622 0.570429 -0.227579 -0.667588 0.570429 -0.227579 -0.667588 0.278173 -0.247260 0.099622 -0.274362 -0.246742 -0.110843 0.017894 -0.227061 -0.878054 0.566617 0.266423 -0.656368 0.570429 -0.227579 -0.667588 0.274362 0.246742 0.110843 0.278173 -0.247260 0.099622 " />
										<Normal vector="-0.329600 -0.562822 -0.757988 -0.740532 -0.590503 0.320750 -0.749443 0.563829 0.346965 -0.338511 0.591510 -0.731773 -0.338511 0.591510 -0.731773 -0.749443 0.563829 0.346965 0.329600 0.562822 0.757988 0.740532 0.590503 -0.320750 0.740532 0.590503 -0.320750 0.329600 0.562822 0.757988 0.338511 -0.591510 0.731773 0.749443 -0.563829 -0.346965 0.749443 -0.563829 -0.346965 0.338511 -0.591510 0.731773 -0.740532 -0.590503 0.320750 -0.329600 -0.562822 -0.757988 0.740532 0.590503 -0.320750 0.749443 -0.563829 -0.346965 0.329600 0.562822 0.757988 0.338511 -0.591510 0.731773 " />
										<TextureCoordinate point="0.0622 0.7559 0.9575 0.7559 0.9575 0.9823 0.0622 0.9823 0.0622 0.7559 0.9575 0.7559 0.9575 0.9823 0.0622 0.9823 0.0622 0.7559 0.9575 0.7559 0.9575 0.9823 0.0622 0.9823 0.0622 0.7559 0.9575 0.7559 0.9575 0.9823 0.0622 0.9823 0.9575 0.7559 0.9575 0.9823 0.0622 0.7559 0.0622 0.9823 " />
									</IndexedTriangleSet>
								</Shape>
							</Group>
						</Transform>
					</Transform>
				</Transform>
			</Transform>
			<Transform DEF="body1_TRANSFORM"
			           translation="0.000000 1.090081 0.107669"
			           scale="1.000000 1.000000 1.000000"
			           rotation="0.000000 1.000000 0.000000 0.000000"
			           >
				<Transform DEF="body1_ifs_TRANSFORM"
				           translation="0.000000 0.000000 0.000000"
				           scale="1.000000 1.000000 1.000000"
				           rotation="0.000000 1.000000 0.000000 0.000000"
				           >
					<Group DEF="group_ME_body1">
						<Shape>
							<Appearance>
								<Material USE="MA_Body" />
							</Appearance>
							<IndexedTriangleSet solid="false"
							                    normalPerVertex="true"
							                    index="0 1 2 0 2 3 4 5 6 4 6 7 8 9 10 8 10 11 12 13 14 12 14 15 4 16 17 4 17 15 18 5 14 18 14 19 "
							                    >
								<Coordinate point="-1.036282 -0.529818 -1.036282 -1.036282 -0.529818 1.036282 -1.036282 0.529818 1.036282 -1.036282 0.529818 -1.036282 -1.036282 0.529818 -1.036282 -1.036282 0.529818 1.036282 1.036282 0.529818 1.036282 1.036282 0.529818 -1.036282 1.036282 0.529818 -1.036282 1.036282 0.529818 1.036282 1.036282 -0.529818 1.036282 1.036282 -0.529818 -1.036282 1.036282 -0.529818 -1.036282 1.036282 -0.529818 1.036282 -1.036282 -0.529818 1.036282 -1.036282 -0.529818 -1.036282 1.036282 0.529818 -1.036282 1.036282 -0.529818 -1.036282 1.036282 0.529818 1.036282 1.036282 -0.529818 1.036282 " />
								<Normal vector="-0.577349 -0.577349 -0.577349 -0.577349 -0.577349 0.577349 -0.577349 0.577349 0.577349 -0.577349 0.577349 -0.577349 -0.577349 0.577349 -0.577349 -0.577349 0.577349 0.577349 0.577349 0.577349 0.577349 0.577349 0.577349 -0.577349 0.577349 0.577349 -0.577349 0.577349 0.577349 0.577349 0.577349 -0.577349 0.577349 0.577349 -0.577349 -0.577349 0.577349 -0.577349 -0.577349 0.577349 -0.577349 0.577349 -0.577349 -0.577349 0.577349 -0.577349 -0.577349 -0.577349 0.577349 0.577349 -0.577349 0.577349 -0.577349 -0.577349 0.577349 0.577349 0.577349 0.577349 -0.577349 0.577349 " />
								<TextureCoordinate point="0.0739 0.7491 0.9360 0.7491 0.9360 0.9743 0.0739 0.9743 0.0739 0.7491 0.9360 0.7491 0.9360 0.9743 0.0739 0.9743 0.0739 0.7491 0.9360 0.7491 0.9360 0.9743 0.0739 0.9743 0.0739 0.7491 0.9360 0.7491 0.9360 0.9743 0.0739 0.9743 0.9360 0.7491 0.9360 0.9743 0.0739 0.7491 0.0739 0.9743 " />
							</IndexedTriangleSet>
						</Shape>
					</Group>
				</Transform>
				<Transform DEF="Cube_014_TRANSFORM"
				           translation="0.751622 -0.138164 -0.308786"
				           scale="1.000000 1.000000 1.000000"
				           rotation="0.000000 1.000000 0.000000 0.000000"
				           >
					<Transform DEF="Cube_014_ifs_TRANSFORM"
					           translation="0.000000 0.000000 0.000000"
					           scale="1.000000 1.000000 1.000000"
					           rotation="0.000000 1.000000 0.000000 0.000000"
					           >
						<Group DEF="group_ME_Cube_047">
							<Shape>
								<Appearance>
									<Material USE="MA_Body" />
								</Appearance>
								<IndexedTriangleSet solid="false"
								                    normalPerVertex="true"
								                    index="0 1 2 0 2 3 4 5 6 4 6 7 8 9 10 8 10 11 12 13 14 12 14 15 4 16 17 4 17 15 18 5 14 18 14 19 "
								                    >
									<Coordinate point="0.282501 -0.426117 0.651115 1.184165 -0.426117 0.259907 1.184165 0.426117 0.259907 0.282501 0.426117 0.651115 0.282501 0.426117 0.651115 1.184165 0.426117 0.259907 0.619162 0.426117 -1.042322 -0.282501 0.426117 -0.651115 -0.282501 0.426117 -0.651115 0.619162 0.426117 -1.042322 0.619162 -0.426117 -1.042322 -0.282501 -0.426117 -0.651115 -0.282501 -0.426117 -0.651115 0.619162 -0.426117 -1.042322 1.184165 -0.426117 0.259907 0.282501 -0.426117 0.651115 -0.282501 0.426117 -0.651115 -0.282501 -0.426117 -0.651115 0.619162 0.426117 -1.042322 0.619162 -0.426117 -1.042322 " />
									<Normal vector="-0.299844 -0.577349 0.759423 0.759423 -0.577349 0.299844 0.759423 0.577349 0.299844 -0.299844 0.577349 0.759423 -0.299844 0.577349 0.759423 0.759423 0.577349 0.299844 0.299844 0.577349 -0.759423 -0.759423 0.577349 -0.299844 -0.759423 0.577349 -0.299844 0.299844 0.577349 -0.759423 0.299844 -0.577349 -0.759423 -0.759423 -0.577349 -0.299844 -0.759423 -0.577349 -0.299844 0.299844 -0.577349 -0.759423 0.759423 -0.577349 0.299844 -0.299844 -0.577349 0.759423 -0.759423 0.577349 -0.299844 -0.759423 -0.577349 -0.299844 0.299844 0.577349 -0.759423 0.299844 -0.577349 -0.759423 " />
									<TextureCoordinate point="0.0739 0.7491 0.9360 0.7491 0.9360 0.9743 0.0739 0.9743 0.0739 0.7491 0.9360 0.7491 0.9360 0.9743 0.0739 0.9743 0.0739 0.7491 0.9360 0.7491 0.9360 0.9743 0.0739 0.9743 0.0739 0.7491 0.9360 0.7491 0.9360 0.9743 0.0739 0.9743 0.9360 0.7491 0.9360 0.9743 0.0739 0.7491 0.0739 0.9743 " />
								</IndexedTriangleSet>
							</Shape>
						</Group>
					</Transform>
					<Transform DEF="Cube_015_TRANSFORM"
					           translation="0.780016 0.000000 -0.338428"
					           scale="1.000000 1.000000 1.000000"
					           rotation="0.000000 1.000000 0.000000 0.000000"
					           >
						<Transform DEF="Cube_015_ifs_TRANSFORM"
						           translation="0.000000 0.000000 0.000000"
						           scale="1.000000 1.000000 1.000000"
						           rotation="0.000000 1.000000 0.000000 0.000000"
						           >
							<Group DEF="group_ME_Cube_048">
								<Shape>
									<Appearance>
										<Material USE="MA_Body" />
									</Appearance>
									<IndexedTriangleSet solid="false"
									                    normalPerVertex="true"
									                    index="0 1 2 0 2 3 4 5 6 4 6 7 8 9 10 8 10 11 12 13 14 12 14 15 4 16 17 4 17 15 18 5 14 18 14 19 "
									                    >
										<Coordinate point="0.203654 -0.328029 0.469386 1.295292 -0.328029 -0.004246 1.295292 0.328029 -0.004246 0.203654 0.328029 0.469386 0.203654 0.328029 0.469386 1.295292 0.328029 -0.004246 0.887984 0.328029 -0.943019 -0.203654 0.328029 -0.469386 -0.203654 0.328029 -0.469386 0.887984 0.328029 -0.943019 0.887984 -0.328029 -0.943019 -0.203654 -0.328029 -0.469386 -0.203654 -0.328029 -0.469386 0.887984 -0.328029 -0.943019 1.295292 -0.328029 -0.004246 0.203654 -0.328029 0.469386 -0.203654 0.328029 -0.469386 -0.203654 -0.328029 -0.469386 0.887984 0.328029 -0.943019 0.887984 -0.328029 -0.943019 " />
										<Normal vector="-0.299844 -0.577349 0.759423 0.759423 -0.577349 0.299844 0.759423 0.577349 0.299844 -0.299844 0.577349 0.759423 -0.299844 0.577349 0.759423 0.759423 0.577349 0.299844 0.299844 0.577349 -0.759423 -0.759423 0.577349 -0.299844 -0.759423 0.577349 -0.299844 0.299844 0.577349 -0.759423 0.299844 -0.577349 -0.759423 -0.759423 -0.577349 -0.299844 -0.759423 -0.577349 -0.299844 0.299844 -0.577349 -0.759423 0.759423 -0.577349 0.299844 -0.299844 -0.577349 0.759423 -0.759423 0.577349 -0.299844 -0.759423 -0.577349 -0.299844 0.299844 0.577349 -0.759423 0.299844 -0.577349 -0.759423 " />
										<TextureCoordinate point="0.0739 0.7491 0.9360 0.7491 0.9360 0.9743 0.0739 0.9743 0.0739 0.7491 0.9360 0.7491 0.9360 0.9743 0.0739 0.9743 0.0739 0.7491 0.9360 0.7491 0.9360 0.9743 0.0739 0.9743 0.0739 0.7491 0.9360 0.7491 0.9360 0.9743 0.0739 0.9743 0.9360 0.7491 0.9360 0.9743 0.0739 0.7491 0.0739 0.9743 " />
									</IndexedTriangleSet>
								</Shape>
							</Group>
						</Transform>
					</Transform>
				</Transform>
				<Transform DEF="Cube_016_TRANSFORM"
				           translation="0.437579 -0.138164 0.527489"
				           scale="1.000000 1.000000 1.000000"
				           rotation="0.000000 1.000000 0.000000 0.000000"
				           >
					<Transform DEF="Cube_016_ifs_TRANSFORM"
					           translation="0.000000 0.000000 0.000000"
					           scale="1.000000 1.000000 1.000000"
					           rotation="0.000000 1.000000 0.000000 0.000000"
					           >
						<Group DEF="group_ME_Cube_049">
							<Shape>
								<Appearance>
									<Material USE="MA_Body" />
								</Appearance>
								<IndexedTriangleSet solid="false"
								                    normalPerVertex="true"
								                    index="0 1 2 0 2 3 4 5 6 4 6 7 8 9 10 8 10 11 12 13 14 12 14 15 4 16 17 4 17 15 18 5 14 18 14 19 "
								                    >
									<Coordinate point="-0.614472 -0.426117 0.409880 -0.065545 -0.426117 1.232804 -0.065545 0.426117 1.232804 -0.614472 0.426117 0.409880 -0.614472 0.426117 0.409880 -0.065545 0.426117 1.232804 1.163398 0.426117 0.413044 0.614472 0.426117 -0.409880 0.614472 0.426117 -0.409880 1.163398 0.426117 0.413044 1.163398 -0.426117 0.413044 0.614472 -0.426117 -0.409880 0.614472 -0.426117 -0.409880 1.163398 -0.426117 0.413044 -0.065545 -0.426117 1.232804 -0.614472 -0.426117 0.409880 0.614472 0.426117 -0.409880 0.614472 -0.426117 -0.409880 1.163398 0.426117 0.413044 1.163398 -0.426117 0.413044 " />
									<Normal vector="-0.800653 -0.577349 -0.159917 -0.159917 -0.577349 0.800653 -0.159917 0.577349 0.800653 -0.800653 0.577349 -0.159917 -0.800653 0.577349 -0.159917 -0.159917 0.577349 0.800653 0.800653 0.577349 0.159917 0.159917 0.577349 -0.800653 0.159917 0.577349 -0.800653 0.800653 0.577349 0.159917 0.800653 -0.577349 0.159917 0.159917 -0.577349 -0.800653 0.159917 -0.577349 -0.800653 0.800653 -0.577349 0.159917 -0.159917 -0.577349 0.800653 -0.800653 -0.577349 -0.159917 0.159917 0.577349 -0.800653 0.159917 -0.577349 -0.800653 0.800653 0.577349 0.159917 0.800653 -0.577349 0.159917 " />
									<TextureCoordinate point="0.0739 0.7491 0.9360 0.7491 0.9360 0.9743 0.0739 0.9743 0.0739 0.7491 0.9360 0.7491 0.9360 0.9743 0.0739 0.9743 0.0739 0.7491 0.9360 0.7491 0.9360 0.9743 0.0739 0.9743 0.0739 0.7491 0.9360 0.7491 0.9360 0.9743 0.0739 0.9743 0.9360 0.7491 0.9360 0.9743 0.0739 0.7491 0.0739 0.9743 " />
								</IndexedTriangleSet>
							</Shape>
						</Group>
					</Transform>
					<Transform DEF="Cube_017_TRANSFORM"
					           translation="0.474869 0.000000 0.711900"
					           scale="1.000000 1.000000 1.000000"
					           rotation="0.000000 1.000000 0.000000 0.000000"
					           >
						<Transform DEF="Cube_017_ifs_TRANSFORM"
						           translation="0.000000 0.000000 0.000000"
						           scale="1.000000 1.000000 1.000000"
						           rotation="0.000000 1.000000 0.000000 0.000000"
						           >
							<Group DEF="group_ME_Cube_050">
								<Shape>
									<Appearance>
										<Material USE="MA_Body" />
									</Appearance>
									<IndexedTriangleSet solid="false"
									                    normalPerVertex="true"
									                    index="0 1 2 0 2 3 4 5 6 4 6 7 8 9 10 8 10 11 12 13 14 12 14 15 4 16 17 4 17 15 18 5 14 18 14 19 "
									                    >
										<Coordinate point="-0.442971 -0.328029 0.295481 0.221611 -0.328029 1.291790 0.221611 0.328029 1.291790 -0.442971 0.328029 0.295481 -0.442971 0.328029 0.295481 0.221611 0.328029 1.291790 1.107553 0.328029 0.700828 0.442971 0.328029 -0.295481 0.442971 0.328029 -0.295481 1.107553 0.328029 0.700828 1.107553 -0.328029 0.700828 0.442971 -0.328029 -0.295481 0.442971 -0.328029 -0.295481 1.107553 -0.328029 0.700828 0.221611 -0.328029 1.291790 -0.442971 -0.328029 0.295481 0.442971 0.328029 -0.295481 0.442971 -0.328029 -0.295481 1.107553 0.328029 0.700828 1.107553 -0.328029 0.700828 " />
										<Normal vector="-0.800653 -0.577349 -0.159917 -0.159917 -0.577349 0.800653 -0.159917 0.577349 0.800653 -0.800653 0.577349 -0.159917 -0.800653 0.577349 -0.159917 -0.159917 0.577349 0.800653 0.800653 0.577349 0.159917 0.159917 0.577349 -0.800653 0.159917 0.577349 -0.800653 0.800653 0.577349 0.159917 0.800653 -0.577349 0.159917 0.159917 -0.577349 -0.800653 0.159917 -0.577349 -0.800653 0.800653 -0.577349 0.159917 -0.159917 -0.577349 0.800653 -0.800653 -0.577349 -0.159917 0.159917 0.577349 -0.800653 0.159917 -0.577349 -0.800653 0.800653 0.577349 0.159917 0.800653 -0.577349 0.159917 " />
										<TextureCoordinate point="0.0739 0.7491 0.9360 0.7491 0.9360 0.9743 0.0739 0.9743 0.0739 0.7491 0.9360 0.7491 0.9360 0.9743 0.0739 0.9743 0.0739 0.7491 0.9360 0.7491 0.9360 0.9743 0.0739 0.9743 0.0739 0.7491 0.9360 0.7491 0.9360 0.9743 0.0739 0.9743 0.9360 0.7491 0.9360 0.9743 0.0739 0.7491 0.0739 0.9743 " />
									</IndexedTriangleSet>
								</Shape>
							</Group>
						</Transform>
					</Transform>
				</Transform>
				<Transform DEF="Cube_018_TRANSFORM"
				           translation="0.000000 -0.138164 -0.786161"
				           scale="1.000000 1.000000 1.000000"
				           rotation="0.000000 1.000000 0.000000 0.000000"
				           >
					<Transform DEF="Cube_018_ifs_TRANSFORM"
					           translation="0.000000 0.000000 0.000000"
					           scale="1.000000 1.000000 1.000000"
					           rotation="0.000000 1.000000 0.000000 0.000000"
					           >
						<Group DEF="group_ME_Cube_051">
							<Shape>
								<Appearance>
									<Material USE="MA_Body" />
								</Appearance>
								<IndexedTriangleSet solid="false"
								                    normalPerVertex="true"
								                    index="0 1 2 0 2 3 4 5 6 4 6 7 8 9 10 8 10 11 12 13 14 12 14 15 4 16 17 4 17 15 18 5 14 18 14 19 "
								                    >
									<Coordinate point="0.738632 -0.426117 0.000000 0.738632 -0.426117 -0.989204 0.738632 0.426117 -0.989204 0.738632 0.426117 0.000000 0.738632 0.426117 0.000000 0.738632 0.426117 -0.989204 -0.738632 0.426117 -0.989204 -0.738632 0.426117 -0.000000 -0.738632 0.426117 -0.000000 -0.738632 0.426117 -0.989204 -0.738632 -0.426117 -0.989204 -0.738632 -0.426117 -0.000000 -0.738632 -0.426117 -0.000000 -0.738632 -0.426117 -0.989204 0.738632 -0.426117 -0.989204 0.738632 -0.426117 0.000000 -0.738632 0.426117 -0.000000 -0.738632 -0.426117 -0.000000 -0.738632 0.426117 -0.989204 -0.738632 -0.426117 -0.989204 " />
									<Normal vector="0.577349 -0.577349 0.577349 0.577349 -0.577349 -0.577349 0.577349 0.577349 -0.577349 0.577349 0.577349 0.577349 0.577349 0.577349 0.577349 0.577349 0.577349 -0.577349 -0.577349 0.577349 -0.577349 -0.577349 0.577349 0.577349 -0.577349 0.577349 0.577349 -0.577349 0.577349 -0.577349 -0.577349 -0.577349 -0.577349 -0.577349 -0.577349 0.577349 -0.577349 -0.577349 0.577349 -0.577349 -0.577349 -0.577349 0.577349 -0.577349 -0.577349 0.577349 -0.577349 0.577349 -0.577349 0.577349 0.577349 -0.577349 -0.577349 0.577349 -0.577349 0.577349 -0.577349 -0.577349 -0.577349 -0.577349 " />
									<TextureCoordinate point="0.0739 0.7491 0.9360 0.7491 0.9360 0.9743 0.0739 0.9743 0.0739 0.7491 0.9360 0.7491 0.9360 0.9743 0.0739 0.9743 0.0739 0.7491 0.9360 0.7491 0.9360 0.9743 0.0739 0.9743 0.0739 0.7491 0.9360 0.7491 0.9360 0.9743 0.0739 0.9743 0.9360 0.7491 0.9360 0.9743 0.0739 0.7491 0.0739 0.9743 " />
								</IndexedTriangleSet>
							</Shape>
						</Group>
					</Transform>
					<Transform DEF="Cube_019_TRANSFORM"
					           translation="0.000000 0.000000 -0.855746"
					           scale="1.000000 1.000000 1.000000"
					           rotation="0.000000 1.000000 0.000000 0.000000"
					           >
						<Transform DEF="Cube_019_ifs_TRANSFORM"
						           translation="0.000000 0.000000 0.000000"
						           scale="1.000000 1.000000 1.000000"
						           rotation="0.000000 1.000000 0.000000 0.000000"
						           >
							<Group DEF="group_ME_Cube_052">
								<Shape>
									<Appearance>
										<Material USE="MA_Body" />
									</Appearance>
									<IndexedTriangleSet solid="false"
									                    normalPerVertex="true"
									                    index="0 1 2 0 2 3 4 5 6 4 6 7 8 9 10 8 10 11 12 13 14 12 14 15 4 16 17 4 17 15 18 5 14 18 14 19 "
									                    >
										<Coordinate point="0.532478 -0.328029 0.000000 0.532478 -0.328029 -1.197623 0.532478 0.328029 -1.197623 0.532478 0.328029 0.000000 0.532478 0.328029 0.000000 0.532478 0.328029 -1.197623 -0.532477 0.328029 -1.197623 -0.532478 0.328029 -0.000000 -0.532478 0.328029 -0.000000 -0.532477 0.328029 -1.197623 -0.532477 -0.328029 -1.197623 -0.532478 -0.328029 -0.000000 -0.532478 -0.328029 -0.000000 -0.532477 -0.328029 -1.197623 0.532478 -0.328029 -1.197623 0.532478 -0.328029 0.000000 -0.532478 0.328029 -0.000000 -0.532478 -0.328029 -0.000000 -0.532477 0.328029 -1.197623 -0.532477 -0.328029 -1.197623 " />
										<Normal vector="0.577349 -0.577349 0.577349 0.577349 -0.577349 -0.577349 0.577349 0.577349 -0.577349 0.577349 0.577349 0.577349 0.577349 0.577349 0.577349 0.577349 0.577349 -0.577349 -0.577349 0.577349 -0.577349 -0.577349 0.577349 0.577349 -0.577349 0.577349 0.577349 -0.577349 0.577349 -0.577349 -0.577349 -0.577349 -0.577349 -0.577349 -0.577349 0.577349 -0.577349 -0.577349 0.577349 -0.577349 -0.577349 -0.577349 0.577349 -0.577349 -0.577349 0.577349 -0.577349 0.577349 -0.577349 0.577349 0.577349 -0.577349 -0.577349 0.577349 -0.577349 0.577349 -0.577349 -0.577349 -0.577349 -0.577349 " />
										<TextureCoordinate point="0.0739 0.7491 0.9360 0.7491 0.9360 0.9743 0.0739 0.9743 0.0739 0.7491 0.9360 0.7491 0.9360 0.9743 0.0739 0.9743 0.0739 0.7491 0.9360 0.7491 0.9360 0.9743 0.0739 0.9743 0.0739 0.7491 0.9360 0.7491 0.9360 0.9743 0.0739 0.9743 0.9360 0.7491 0.9360 0.9743 0.0739 0.7491 0.0739 0.9743 " />
									</IndexedTriangleSet>
								</Shape>
							</Group>
						</Transform>
					</Transform>
				</Transform>
				<Transform DEF="Cube_028_TRANSFORM"
				           translation="-0.751622 -0.138164 -0.308786"
				           scale="1.000000 1.000000 1.000000"
				           rotation="0.000000 1.000000 0.000000 0.000000"
				           >
					<Transform DEF="Cube_028_ifs_TRANSFORM"
					           translation="0.000000 0.000000 0.000000"
					           scale="1.000000 1.000000 1.000000"
					           rotation="0.000000 1.000000 0.000000 0.000000"
					           >
						<Group DEF="group_ME_Cube_013">
							<Shape>
								<Appearance>
									<Material USE="MA_Body" />
								</Appearance>
								<IndexedTriangleSet solid="false"
								                    normalPerVertex="true"
								                    index="0 1 2 0 2 3 4 5 6 4 6 7 8 9 10 8 10 11 12 13 14 12 14 15 4 13 16 4 16 17 18 19 14 18 14 7 "
								                    >
									<Coordinate point="-0.282501 -0.426117 0.651115 -0.282501 0.426117 0.651115 -1.184165 0.426117 0.259907 -1.184165 -0.426117 0.259907 -0.282501 0.426117 0.651115 0.282501 0.426117 -0.651115 -0.619162 0.426117 -1.042322 -1.184165 0.426117 0.259907 0.282501 0.426117 -0.651115 0.282501 -0.426117 -0.651115 -0.619162 -0.426117 -1.042322 -0.619162 0.426117 -1.042322 0.282501 -0.426117 -0.651115 -0.282501 -0.426117 0.651115 -1.184165 -0.426117 0.259907 -0.619162 -0.426117 -1.042322 0.282501 -0.426117 -0.651115 0.282501 0.426117 -0.651115 -0.619162 0.426117 -1.042322 -0.619162 -0.426117 -1.042322 " />
									<Normal vector="0.299844 -0.577349 0.759423 0.299844 0.577349 0.759423 -0.759423 0.577349 0.299844 -0.759423 -0.577349 0.299844 0.299844 0.577349 0.759423 0.759423 0.577349 -0.299844 -0.299844 0.577349 -0.759423 -0.759423 0.577349 0.299844 0.759423 0.577349 -0.299844 0.759423 -0.577349 -0.299844 -0.299844 -0.577349 -0.759423 -0.299844 0.577349 -0.759423 0.759423 -0.577349 -0.299844 0.299844 -0.577349 0.759423 -0.759423 -0.577349 0.299844 -0.299844 -0.577349 -0.759423 0.759423 -0.577349 -0.299844 0.759423 0.577349 -0.299844 -0.299844 0.577349 -0.759423 -0.299844 -0.577349 -0.759423 " />
									<TextureCoordinate point="0.0739 0.7491 0.0739 0.9743 0.9360 0.9743 0.9360 0.7491 0.0739 0.7491 0.0739 0.9743 0.9360 0.9743 0.9360 0.7491 0.0739 0.7491 0.0739 0.9743 0.9360 0.9743 0.9360 0.7491 0.0739 0.7491 0.0739 0.9743 0.9360 0.9743 0.9360 0.7491 0.9360 0.9743 0.9360 0.7491 0.0739 0.7491 0.0739 0.9743 " />
								</IndexedTriangleSet>
							</Shape>
						</Group>
					</Transform>
					<Transform DEF="Cube_029_TRANSFORM"
					           translation="-0.780016 0.000000 -0.338428"
					           scale="1.000000 1.000000 1.000000"
					           rotation="0.000000 1.000000 0.000000 0.000000"
					           >
						<Transform DEF="Cube_029_ifs_TRANSFORM"
						           translation="0.000000 0.000000 0.000000"
						           scale="1.000000 1.000000 1.000000"
						           rotation="0.000000 1.000000 0.000000 0.000000"
						           >
							<Group DEF="group_ME_Cube_014">
								<Shape>
									<Appearance>
										<Material USE="MA_Body" />
									</Appearance>
									<IndexedTriangleSet solid="false"
									                    normalPerVertex="true"
									                    index="0 1 2 0 2 3 4 5 6 4 6 7 8 9 10 8 10 11 12 13 14 12 14 15 4 13 16 4 16 17 18 19 14 18 14 7 "
									                    >
										<Coordinate point="-0.203654 -0.328029 0.469386 -0.203654 0.328029 0.469387 -1.295292 0.328029 -0.004246 -1.295292 -0.328029 -0.004246 -0.203654 0.328029 0.469387 0.203654 0.328029 -0.469386 -0.887984 0.328029 -0.943019 -1.295292 0.328029 -0.004246 0.203654 0.328029 -0.469386 0.203654 -0.328029 -0.469387 -0.887984 -0.328029 -0.943019 -0.887984 0.328029 -0.943019 0.203654 -0.328029 -0.469387 -0.203654 -0.328029 0.469386 -1.295292 -0.328029 -0.004246 -0.887984 -0.328029 -0.943019 0.203654 -0.328029 -0.469387 0.203654 0.328029 -0.469386 -0.887984 0.328029 -0.943019 -0.887984 -0.328029 -0.943019 " />
										<Normal vector="0.299844 -0.577349 0.759423 0.299844 0.577349 0.759423 -0.759423 0.577349 0.299844 -0.759423 -0.577349 0.299844 0.299844 0.577349 0.759423 0.759423 0.577349 -0.299844 -0.299844 0.577349 -0.759423 -0.759423 0.577349 0.299844 0.759423 0.577349 -0.299844 0.759423 -0.577349 -0.299844 -0.299844 -0.577349 -0.759423 -0.299844 0.577349 -0.759423 0.759423 -0.577349 -0.299844 0.299844 -0.577349 0.759423 -0.759423 -0.577349 0.299844 -0.299844 -0.577349 -0.759423 0.759423 -0.577349 -0.299844 0.759423 0.577349 -0.299844 -0.299844 0.577349 -0.759423 -0.299844 -0.577349 -0.759423 " />
										<TextureCoordinate point="0.0739 0.7491 0.0739 0.9743 0.9360 0.9743 0.9360 0.7491 0.0739 0.7491 0.0739 0.9743 0.9360 0.9743 0.9360 0.7491 0.0739 0.7491 0.0739 0.9743 0.9360 0.9743 0.9360 0.7491 0.0739 0.7491 0.0739 0.9743 0.9360 0.9743 0.9360 0.7491 0.9360 0.9743 0.9360 0.7491 0.0739 0.7491 0.0739 0.9743 " />
									</IndexedTriangleSet>
								</Shape>
							</Group>
						</Transform>
					</Transform>
				</Transform>
				<Transform DEF="Cube_030_TRANSFORM"
				           translation="-0.437579 -0.138164 0.527489"
				           scale="1.000000 1.000000 1.000000"
				           rotation="0.000000 1.000000 0.000000 0.000000"
				           >
					<Transform DEF="Cube_030_ifs_TRANSFORM"
					           translation="0.000000 0.000000 0.000000"
					           scale="1.000000 1.000000 1.000000"
					           rotation="0.000000 1.000000 0.000000 0.000000"
					           >
						<Group DEF="group_ME_Cube_015">
							<Shape>
								<Appearance>
									<Material USE="MA_Body" />
								</Appearance>
								<IndexedTriangleSet solid="false"
								                    normalPerVertex="true"
								                    index="0 1 2 0 2 3 4 5 6 4 6 7 8 9 10 8 10 11 12 13 14 12 14 15 4 13 16 4 16 17 18 19 14 18 14 7 "
								                    >
									<Coordinate point="0.614472 -0.426117 0.409880 0.614472 0.426117 0.409880 0.065545 0.426117 1.232804 0.065545 -0.426117 1.232804 0.614472 0.426117 0.409880 -0.614472 0.426117 -0.409880 -1.163398 0.426117 0.413044 0.065545 0.426117 1.232804 -0.614472 0.426117 -0.409880 -0.614472 -0.426117 -0.409880 -1.163398 -0.426117 0.413044 -1.163398 0.426117 0.413044 -0.614472 -0.426117 -0.409880 0.614472 -0.426117 0.409880 0.065545 -0.426117 1.232804 -1.163398 -0.426117 0.413044 -0.614472 -0.426117 -0.409880 -0.614472 0.426117 -0.409880 -1.163398 0.426117 0.413044 -1.163398 -0.426117 0.413044 " />
									<Normal vector="0.800653 -0.577349 -0.159917 0.800653 0.577349 -0.159917 0.159917 0.577349 0.800653 0.159917 -0.577349 0.800653 0.800653 0.577349 -0.159917 -0.159917 0.577349 -0.800653 -0.800653 0.577349 0.159917 0.159917 0.577349 0.800653 -0.159917 0.577349 -0.800653 -0.159917 -0.577349 -0.800653 -0.800653 -0.577349 0.159917 -0.800653 0.577349 0.159917 -0.159917 -0.577349 -0.800653 0.800653 -0.577349 -0.159917 0.159917 -0.577349 0.800653 -0.800653 -0.577349 0.159917 -0.159917 -0.577349 -0.800653 -0.159917 0.577349 -0.800653 -0.800653 0.577349 0.159917 -0.800653 -0.577349 0.159917 " />
									<TextureCoordinate point="0.0739 0.7491 0.0739 0.9743 0.9360 0.9743 0.9360 0.7491 0.0739 0.7491 0.0739 0.9743 0.9360 0.9743 0.9360 0.7491 0.0739 0.7491 0.0739 0.9743 0.9360 0.9743 0.9360 0.7491 0.0739 0.7491 0.0739 0.9743 0.9360 0.9743 0.9360 0.7491 0.9360 0.9743 0.9360 0.7491 0.0739 0.7491 0.0739 0.9743 " />
								</IndexedTriangleSet>
							</Shape>
						</Group>
					</Transform>
					<Transform DEF="Cube_031_TRANSFORM"
					           translation="-0.474869 0.000000 0.711900"
					           scale="1.000000 1.000000 1.000000"
					           rotation="0.000000 1.000000 0.000000 0.000000"
					           >
						<Transform DEF="Cube_031_ifs_TRANSFORM"
						           translation="0.000000 0.000000 0.000000"
						           scale="1.000000 1.000000 1.000000"
						           rotation="0.000000 1.000000 0.000000 0.000000"
						           >
							<Group DEF="group_ME_Cube_016">
								<Shape>
									<Appearance>
										<Material USE="MA_Body" />
									</Appearance>
									<IndexedTriangleSet solid="false"
									                    normalPerVertex="true"
									                    index="0 1 2 0 2 3 4 5 6 4 6 7 8 9 10 8 10 11 12 13 14 12 14 15 4 13 16 4 16 17 18 19 14 18 14 7 "
									                    >
										<Coordinate point="0.442971 -0.328029 0.295481 0.442971 0.328029 0.295481 -0.221611 0.328029 1.291790 -0.221611 -0.328029 1.291790 0.442971 0.328029 0.295481 -0.442971 0.328029 -0.295481 -1.107553 0.328029 0.700828 -0.221611 0.328029 1.291790 -0.442971 0.328029 -0.295481 -0.442971 -0.328029 -0.295481 -1.107553 -0.328029 0.700828 -1.107553 0.328029 0.700828 -0.442971 -0.328029 -0.295481 0.442971 -0.328029 0.295481 -0.221611 -0.328029 1.291790 -1.107553 -0.328029 0.700828 -0.442971 -0.328029 -0.295481 -0.442971 0.328029 -0.295481 -1.107553 0.328029 0.700828 -1.107553 -0.328029 0.700828 " />
										<Normal vector="0.800653 -0.577349 -0.159917 0.800653 0.577349 -0.159917 0.159917 0.577349 0.800653 0.159917 -0.577349 0.800653 0.800653 0.577349 -0.159917 -0.159917 0.577349 -0.800653 -0.800653 0.577349 0.159917 0.159917 0.577349 0.800653 -0.159917 0.577349 -0.800653 -0.159917 -0.577349 -0.800653 -0.800653 -0.577349 0.159917 -0.800653 0.577349 0.159917 -0.159917 -0.577349 -0.800653 0.800653 -0.577349 -0.159917 0.159917 -0.577349 0.800653 -0.800653 -0.577349 0.159917 -0.159917 -0.577349 -0.800653 -0.159917 0.577349 -0.800653 -0.800653 0.577349 0.159917 -0.800653 -0.577349 0.159917 " />
										<TextureCoordinate point="0.0739 0.7491 0.0739 0.9743 0.9360 0.9743 0.9360 0.7491 0.0739 0.7491 0.0739 0.9743 0.9360 0.9743 0.9360 0.7491 0.0739 0.7491 0.0739 0.9743 0.9360 0.9743 0.9360 0.7491 0.0739 0.7491 0.0739 0.9743 0.9360 0.9743 0.9360 0.7491 0.9360 0.9743 0.9360 0.7491 0.0739 0.7491 0.0739 0.9743 " />
									</IndexedTriangleSet>
								</Shape>
							</Group>
						</Transform>
					</Transform>
				</Transform>
			</Transform>
			<Transform DEF="Cube_022_TRANSFORM"
			           translation="0.000000 -0.726305 0.054711"
			           scale="1.000000 1.000000 1.000000"
			           rotation="0.000000 1.000000 0.000000 0.000000"
			           >
				<Transform DEF="Cube_022_ifs_TRANSFORM"
				           translation="0.000000 0.000000 0.000000"
				           scale="1.000000 1.000000 1.000000"
				           rotation="0.000000 1.000000 0.000000 0.000000"
				           >
					<Group DEF="group_ME_Cube_041">
						<Shape>
							<Appearance>
								<Material USE="MA_Body" />
							</Appearance>
							<IndexedTriangleSet solid="false"
							                    normalPerVertex="true"
							                    index="0 1 2 0 2 3 4 5 6 4 6 7 8 9 10 8 10 11 12 13 14 12 14 15 4 16 17 4 17 15 18 5 14 18 14 19 "
							                    >
								<Coordinate point="-0.797253 -0.292826 -0.813641 -0.797253 -0.292826 0.813641 -0.797253 0.000000 0.813641 -0.797253 0.000000 -0.813641 -0.797253 0.000000 -0.813641 -0.797253 0.000000 0.813641 0.797253 0.000000 0.813641 0.797253 0.000000 -0.813641 0.797253 0.000000 -0.813641 0.797253 0.000000 0.813641 0.797253 -0.292826 0.813641 0.797253 -0.292826 -0.813641 0.797253 -0.292826 -0.813641 0.797253 -0.292826 0.813641 -0.797253 -0.292826 0.813641 -0.797253 -0.292826 -0.813641 0.797253 0.000000 -0.813641 0.797253 -0.292826 -0.813641 0.797253 0.000000 0.813641 0.797253 -0.292826 0.813641 " />
								<Normal vector="-0.577349 -0.577349 -0.577349 -0.577349 -0.577349 0.577349 -0.577349 0.577349 0.577349 -0.577349 0.577349 -0.577349 -0.577349 0.577349 -0.577349 -0.577349 0.577349 0.577349 0.577349 0.577349 0.577349 0.577349 0.577349 -0.577349 0.577349 0.577349 -0.577349 0.577349 0.577349 0.577349 0.577349 -0.577349 0.577349 0.577349 -0.577349 -0.577349 0.577349 -0.577349 -0.577349 0.577349 -0.577349 0.577349 -0.577349 -0.577349 0.577349 -0.577349 -0.577349 -0.577349 0.577349 0.577349 -0.577349 0.577349 -0.577349 -0.577349 0.577349 0.577349 0.577349 0.577349 -0.577349 0.577349 " />
								<TextureCoordinate point="0.0309 0.4977 0.4572 0.4977 0.4572 0.6942 0.0309 0.6942 0.0309 0.4977 0.4572 0.4977 0.4572 0.6942 0.0309 0.6942 0.0309 0.4977 0.4572 0.4977 0.4572 0.6942 0.0309 0.6942 0.0309 0.4977 0.4572 0.4977 0.4572 0.6942 0.0309 0.6942 0.4572 0.4977 0.4572 0.6942 0.0309 0.4977 0.0309 0.6942 " />
							</IndexedTriangleSet>
						</Shape>
					</Group>
				</Transform>
				<Transform DEF="Cube_021_TRANSFORM"
				           translation="0.538816 -0.243619 -0.003161"
				           scale="1.000000 1.000000 1.000000"
				           rotation="0.000000 1.000000 0.000000 0.000000"
				           >
					<Transform DEF="Cube_021_ifs_TRANSFORM"
					           translation="0.000000 0.000000 0.000000"
					           scale="1.000000 1.000000 1.000000"
					           rotation="0.000000 1.000000 0.000000 0.000000"
					           >
						<Group DEF="group_ME_Cube_042">
							<Shape>
								<Appearance>
									<Material USE="MA_Body" />
								</Appearance>
								<IndexedTriangleSet solid="false"
								                    normalPerVertex="true"
								                    index="0 1 2 0 2 3 4 5 6 4 6 7 8 9 10 8 10 11 12 13 14 12 14 15 4 16 17 4 17 15 18 5 14 18 14 19 "
								                    >
									<Coordinate point="0.027435 -0.113106 -0.111787 0.027435 -0.113106 0.111787 -0.027435 0.113106 0.111787 -0.027435 0.113106 -0.111787 -0.027435 0.113106 -0.111787 -0.027435 0.113106 0.111787 0.567094 0.251372 0.111787 0.567094 0.251372 -0.111787 0.567094 0.251372 -0.111787 0.567094 0.251372 0.111787 0.621965 0.025160 0.111787 0.621965 0.025160 -0.111787 0.621965 0.025160 -0.111787 0.621965 0.025160 0.111787 0.027435 -0.113106 0.111787 0.027435 -0.113106 -0.111787 0.567094 0.251372 -0.111787 0.621965 0.025160 -0.111787 0.567094 0.251372 0.111787 0.621965 0.025160 0.111787 " />
									<Normal vector="-0.428083 -0.694845 -0.577837 -0.428083 -0.694845 0.577837 -0.695456 0.428449 0.576830 -0.695456 0.428449 -0.576830 -0.695456 0.428449 -0.576830 -0.695456 0.428449 0.576830 0.428083 0.694845 0.577837 0.428083 0.694845 -0.577837 0.428083 0.694845 -0.577837 0.428083 0.694845 0.577837 0.695456 -0.428449 0.576830 0.695456 -0.428449 -0.576830 0.695456 -0.428449 -0.576830 0.695456 -0.428449 0.576830 -0.428083 -0.694845 0.577837 -0.428083 -0.694845 -0.577837 0.428083 0.694845 -0.577837 0.695456 -0.428449 -0.576830 0.428083 0.694845 0.577837 0.695456 -0.428449 0.576830 " />
									<TextureCoordinate point="0.0309 0.4977 0.4572 0.4977 0.4572 0.6942 0.0309 0.6942 0.0309 0.4977 0.4572 0.4977 0.4572 0.6942 0.0309 0.6942 0.0309 0.4977 0.4572 0.4977 0.4572 0.6942 0.0309 0.6942 0.0309 0.4977 0.4572 0.4977 0.4572 0.6942 0.0309 0.6942 0.4572 0.4977 0.4572 0.6942 0.0309 0.4977 0.0309 0.6942 " />
								</IndexedTriangleSet>
							</Shape>
						</Group>
					</Transform>
				</Transform>
				<Transform DEF="Cube_012_TRANSFORM"
				           translation="0.000000 -0.209514 0.602079"
				           scale="1.000000 1.000000 1.000000"
				           rotation="0.000000 1.000000 0.000000 0.000000"
				           >
					<Transform DEF="Cube_012_ifs_TRANSFORM"
					           translation="0.000000 0.000000 0.000000"
					           scale="1.000000 1.000000 1.000000"
					           rotation="0.000000 1.000000 0.000000 0.000000"
					           >
						<Group DEF="group_ME_Cube_045">
							<Shape>
								<Appearance>
									<Material USE="MA_Body" />
								</Appearance>
								<IndexedTriangleSet solid="false"
								                    normalPerVertex="true"
								                    index="0 1 2 0 2 3 4 5 6 4 6 7 8 9 10 8 10 11 12 13 14 12 14 15 4 16 17 4 17 15 18 5 14 18 14 19 "
								                    >
									<Coordinate point="0.111787 -0.115665 0.012375 -0.111787 -0.115665 0.012375 -0.111787 0.115665 -0.012375 0.111787 0.115665 -0.012375 0.111787 0.115665 -0.012375 -0.111787 0.115665 -0.012375 -0.111787 0.177790 0.568290 0.111787 0.177789 0.568290 0.111787 0.177789 0.568290 -0.111787 0.177790 0.568290 -0.111787 -0.053540 0.593040 0.111787 -0.053540 0.593040 0.111787 -0.053540 0.593040 -0.111787 -0.053540 0.593040 -0.111787 -0.115665 0.012375 0.111787 -0.115665 0.012375 0.111787 0.177789 0.568290 0.111787 -0.053540 0.593040 -0.111787 0.177790 0.568290 -0.111787 -0.053540 0.593040 " />
									<Normal vector="0.577349 -0.635487 -0.512650 -0.577349 -0.635487 -0.512650 -0.577349 0.512650 -0.635487 0.577349 0.512650 -0.635487 0.577349 0.512650 -0.635487 -0.577349 0.512650 -0.635487 -0.577349 0.635487 0.512650 0.577349 0.635487 0.512650 0.577349 0.635487 0.512650 -0.577349 0.635487 0.512650 -0.577349 -0.512650 0.635487 0.577349 -0.512650 0.635487 0.577349 -0.512650 0.635487 -0.577349 -0.512650 0.635487 -0.577349 -0.635487 -0.512650 0.577349 -0.635487 -0.512650 0.577349 0.635487 0.512650 0.577349 -0.512650 0.635487 -0.577349 0.635487 0.512650 -0.577349 -0.512650 0.635487 " />
									<TextureCoordinate point="0.0309 0.4977 0.4572 0.4977 0.4572 0.6942 0.0309 0.6942 0.0309 0.4977 0.4572 0.4977 0.4572 0.6942 0.0309 0.6942 0.0309 0.4977 0.4572 0.4977 0.4572 0.6942 0.0309 0.6942 0.0309 0.4977 0.4572 0.4977 0.4572 0.6942 0.0309 0.6942 0.4572 0.4977 0.4572 0.6942 0.0309 0.4977 0.0309 0.6942 " />
								</IndexedTriangleSet>
							</Shape>
						</Group>
					</Transform>
				</Transform>
				<Transform DEF="Cube_013_TRANSFORM"
				           translation="0.000000 -0.257451 0.000000"
				           scale="1.000000 1.000000 1.000000"
				           rotation="0.000000 1.000000 0.000000 0.000000"
				           >
					<Transform DEF="Cube_013_ifs_TRANSFORM"
					           translation="0.000000 0.000000 0.000000"
					           scale="1.000000 1.000000 1.000000"
					           rotation="0.000000 1.000000 0.000000 0.000000"
					           >
						<Group DEF="group_ME_Cube_046">
							<Shape>
								<Appearance>
									<Material DEF="MA_Glow"
									          diffuseColor="0.800 0.800 0.800"
									          specularColor="0.401 0.401 0.401"
									          emissiveColor="0.000 0.000 0.000"
									          ambientIntensity="0.000"
									          shininess="0.500"
									          transparency="0.0"
									          />
								</Appearance>
								<IndexedTriangleSet solid="false"
								                    normalPerVertex="true"
								                    index="0 1 2 0 2 3 4 5 6 4 6 7 8 9 10 8 10 11 12 13 14 12 14 15 16 17 18 16 18 0 9 19 20 9 20 21 "
								                    >
									<Coordinate point="-0.520878 -0.250583 -0.531585 -0.520878 -0.250583 0.531585 -0.520878 0.000000 0.531585 -0.520878 0.000000 -0.531585 -0.520878 0.000000 -0.531585 -0.520878 0.000000 0.531585 0.520878 0.000000 0.531585 0.520878 0.000000 -0.531585 0.520878 0.000000 -0.531585 0.520878 0.000000 0.531585 0.520878 -0.250583 0.531585 0.520878 -0.250583 -0.531585 0.520878 -0.250583 -0.531585 0.520878 -0.250583 0.531585 -0.520878 -0.250583 0.531585 -0.520878 -0.250583 -0.531585 -0.520878 0.000000 -0.531585 0.520878 0.000000 -0.531585 0.520878 -0.250583 -0.531585 -0.520878 0.000000 0.531585 -0.520878 -0.250583 0.531585 0.520878 -0.250583 0.531585 " />
									<Normal vector="-0.577349 -0.577349 -0.577349 -0.577349 -0.577349 0.577349 -0.577349 0.577349 0.577349 -0.577349 0.577349 -0.577349 -0.577349 0.577349 -0.577349 -0.577349 0.577349 0.577349 0.577349 0.577349 0.577349 0.577349 0.577349 -0.577349 0.577349 0.577349 -0.577349 0.577349 0.577349 0.577349 0.577349 -0.577349 0.577349 0.577349 -0.577349 -0.577349 0.577349 -0.577349 -0.577349 0.577349 -0.577349 0.577349 -0.577349 -0.577349 0.577349 -0.577349 -0.577349 -0.577349 -0.577349 0.577349 -0.577349 0.577349 0.577349 -0.577349 0.577349 -0.577349 -0.577349 -0.577349 0.577349 0.577349 -0.577349 -0.577349 0.577349 0.577349 -0.577349 0.577349 " />
									<TextureCoordinate point="0.5922 0.5032 0.5922 0.6789 0.9394 0.6789 0.9394 0.5032 0.0230 0.0085 0.0230 0.4551 0.9770 0.4551 0.9770 0.0085 0.9394 0.5032 0.9394 0.6789 0.5922 0.6789 0.5922 0.5032 0.9770 0.0085 0.9770 0.4551 0.0230 0.4551 0.0230 0.0085 0.5922 0.6789 0.9394 0.6789 0.9394 0.5032 0.5922 0.6789 0.5922 0.5032 0.9394 0.5032 " />
								</IndexedTriangleSet>
							</Shape>
						</Group>
					</Transform>
				</Transform>
				<Transform DEF="Cube_020_TRANSFORM"
				           translation="0.000000 -0.209514 -0.597296"
				           scale="1.000000 1.000000 1.000000"
				           rotation="0.000000 1.000000 0.000000 0.000000"
				           >
					<Transform DEF="Cube_020_ifs_TRANSFORM"
					           translation="0.000000 0.000000 0.000000"
					           scale="1.000000 1.000000 1.000000"
					           rotation="0.000000 1.000000 0.000000 0.000000"
					           >
						<Group DEF="group_ME_Cube_018">
							<Shape>
								<Appearance>
									<Material USE="MA_Body" />
								</Appearance>
								<IndexedTriangleSet solid="false"
								                    normalPerVertex="true"
								                    index="0 1 2 0 2 3 4 5 6 4 6 7 8 9 10 8 10 11 12 13 14 12 14 15 4 13 16 4 16 17 18 19 14 18 14 7 "
								                    >
									<Coordinate point="0.111787 -0.115665 -0.012375 0.111787 0.115665 0.012375 -0.111787 0.115665 0.012375 -0.111787 -0.115665 -0.012375 0.111787 0.115665 0.012375 0.111787 0.177790 -0.568290 -0.111787 0.177790 -0.568290 -0.111787 0.115665 0.012375 0.111787 0.177790 -0.568290 0.111787 -0.053540 -0.593040 -0.111787 -0.053540 -0.593040 -0.111787 0.177790 -0.568290 0.111787 -0.053540 -0.593040 0.111787 -0.115665 -0.012375 -0.111787 -0.115665 -0.012375 -0.111787 -0.053540 -0.593040 0.111787 -0.053540 -0.593040 0.111787 0.177790 -0.568290 -0.111787 0.177790 -0.568290 -0.111787 -0.053540 -0.593040 " />
									<Normal vector="0.577349 -0.635487 0.512650 0.577349 0.512650 0.635487 -0.577349 0.512650 0.635487 -0.577349 -0.635487 0.512650 0.577349 0.512650 0.635487 0.577349 0.635487 -0.512650 -0.577349 0.635487 -0.512650 -0.577349 0.512650 0.635487 0.577349 0.635487 -0.512650 0.577349 -0.512650 -0.635487 -0.577349 -0.512650 -0.635487 -0.577349 0.635487 -0.512650 0.577349 -0.512650 -0.635487 0.577349 -0.635487 0.512650 -0.577349 -0.635487 0.512650 -0.577349 -0.512650 -0.635487 0.577349 -0.512650 -0.635487 0.577349 0.635487 -0.512650 -0.577349 0.635487 -0.512650 -0.577349 -0.512650 -0.635487 " />
									<TextureCoordinate point="0.0309 0.4977 0.0309 0.6942 0.4572 0.6942 0.4572 0.4977 0.0309 0.4977 0.0309 0.6942 0.4572 0.6942 0.4572 0.4977 0.0309 0.4977 0.0309 0.6942 0.4572 0.6942 0.4572 0.4977 0.0309 0.4977 0.0309 0.6942 0.4572 0.6942 0.4572 0.4977 0.4572 0.6942 0.4572 0.4977 0.0309 0.4977 0.0309 0.6942 " />
								</IndexedTriangleSet>
							</Shape>
						</Group>
					</Transform>
				</Transform>
				<Transform DEF="Cube_001_TRANSFORM"
				           translation="0.460983 -0.230508 0.435108"
				           scale="1.000000 1.000000 1.000000"
				           rotation="0.000000 1.000000 0.000000 0.000000"
				           >
					<Transform DEF="Cube_001_ifs_TRANSFORM"
					           translation="0.000000 0.000000 0.000000"
					           scale="1.000000 1.000000 1.000000"
					           rotation="0.000000 1.000000 0.000000 0.000000"
					           >
						<Group DEF="group_ME_Cube_020">
							<Shape>
								<Appearance>
									<Material USE="MA_Body" />
								</Appearance>
								<IndexedTriangleSet solid="false"
								                    normalPerVertex="true"
								                    index="0 1 2 0 2 3 4 5 6 4 6 7 8 9 10 8 10 11 12 13 14 12 14 15 4 16 17 4 17 15 18 5 14 18 14 19 "
								                    >
									<Coordinate point="-0.073160 -0.131289 0.094859 0.495946 -0.021278 0.686042 0.471533 0.241301 0.660681 -0.097573 0.131289 0.069498 -0.097573 0.131289 0.069498 0.471533 0.241301 0.660681 0.642265 0.241301 0.496325 0.073160 0.131289 -0.094859 0.073160 0.131289 -0.094859 0.642265 0.241301 0.496325 0.666679 -0.021278 0.521685 0.097573 -0.131289 -0.069498 0.097573 -0.131289 -0.069498 0.666679 -0.021278 0.521685 0.495946 -0.021278 0.686042 -0.073160 -0.131289 0.094859 0.073160 0.131289 -0.094859 0.097573 -0.131289 -0.069498 0.642265 0.241301 0.496325 0.666679 -0.021278 0.521685 " />
									<Normal vector="-0.759575 -0.648946 0.043397 0.034120 -0.495499 0.867916 -0.072268 0.648946 0.757378 -0.865993 0.495499 -0.067110 -0.865993 0.495499 -0.067110 -0.072268 0.648946 0.757378 0.759575 0.648946 -0.043397 -0.034120 0.495499 -0.867916 -0.034120 0.495499 -0.867916 0.759575 0.648946 -0.043397 0.865993 -0.495499 0.067110 0.072268 -0.648946 -0.757378 0.072268 -0.648946 -0.757378 0.865993 -0.495499 0.067110 0.034120 -0.495499 0.867916 -0.759575 -0.648946 0.043397 -0.034120 0.495499 -0.867916 0.072268 -0.648946 -0.757378 0.759575 0.648946 -0.043397 0.865993 -0.495499 0.067110 " />
									<TextureCoordinate point="0.0545 0.4958 0.4534 0.4958 0.4534 0.6912 0.0545 0.6912 0.0545 0.4958 0.4534 0.4958 0.4534 0.6912 0.0545 0.6912 0.0545 0.4958 0.4534 0.4958 0.4534 0.6912 0.0545 0.6912 0.0545 0.4958 0.4534 0.4958 0.4534 0.6912 0.0545 0.6912 0.4534 0.4958 0.4534 0.6912 0.0545 0.4958 0.0545 0.6912 " />
								</IndexedTriangleSet>
							</Shape>
						</Group>
					</Transform>
				</Transform>
				<Transform DEF="Cube_004_TRANSFORM"
				           translation="0.460983 -0.230508 -0.438615"
				           scale="1.000000 1.000000 1.000000"
				           rotation="0.000000 1.000000 0.000000 0.000000"
				           >
					<Transform DEF="Cube_004_ifs_TRANSFORM"
					           translation="0.000000 0.000000 0.000000"
					           scale="1.000000 1.000000 1.000000"
					           rotation="0.000000 1.000000 0.000000 0.000000"
					           >
						<Group DEF="group_ME_Cube_021">
							<Shape>
								<Appearance>
									<Material USE="MA_Body" />
								</Appearance>
								<IndexedTriangleSet solid="false"
								                    normalPerVertex="true"
								                    index="0 1 2 0 2 3 4 5 6 4 6 7 8 9 10 8 10 11 12 13 14 12 14 15 4 13 16 4 16 17 18 19 14 18 14 7 "
								                    >
									<Coordinate point="-0.073160 -0.131289 -0.094859 -0.097573 0.131289 -0.069498 0.471533 0.241301 -0.660681 0.495946 -0.021278 -0.686042 -0.097573 0.131289 -0.069498 0.073160 0.131289 0.094859 0.642265 0.241301 -0.496324 0.471533 0.241301 -0.660681 0.073160 0.131289 0.094859 0.097573 -0.131289 0.069498 0.666679 -0.021278 -0.521685 0.642265 0.241301 -0.496324 0.097573 -0.131289 0.069498 -0.073160 -0.131289 -0.094859 0.495946 -0.021278 -0.686042 0.666679 -0.021278 -0.521685 0.097573 -0.131289 0.069498 0.073160 0.131289 0.094859 0.642265 0.241301 -0.496324 0.666679 -0.021278 -0.521685 " />
									<Normal vector="-0.759575 -0.648946 -0.043397 -0.865993 0.495499 0.067110 -0.072268 0.648946 -0.757378 0.034120 -0.495499 -0.867916 -0.865993 0.495499 0.067110 -0.034120 0.495499 0.867916 0.759575 0.648946 0.043397 -0.072268 0.648946 -0.757378 -0.034120 0.495499 0.867916 0.072268 -0.648946 0.757378 0.865993 -0.495499 -0.067110 0.759575 0.648946 0.043397 0.072268 -0.648946 0.757378 -0.759575 -0.648946 -0.043397 0.034120 -0.495499 -0.867916 0.865993 -0.495499 -0.067110 0.072268 -0.648946 0.757378 -0.034120 0.495499 0.867916 0.759575 0.648946 0.043397 0.865993 -0.495499 -0.067110 " />
									<TextureCoordinate point="0.0545 0.4958 0.0545 0.6912 0.4534 0.6912 0.4534 0.4958 0.0545 0.4958 0.0545 0.6912 0.4534 0.6912 0.4534 0.4958 0.0545 0.4958 0.0545 0.6912 0.4534 0.6912 0.4534 0.4958 0.0545 0.4958 0.0545 0.6912 0.4534 0.6912 0.4534 0.4958 0.4534 0.6912 0.4534 0.4958 0.0545 0.4958 0.0545 0.6912 " />
								</IndexedTriangleSet>
							</Shape>
						</Group>
					</Transform>
				</Transform>
				<Transform DEF="Cube_007_TRANSFORM"
				           translation="-0.538816 -0.243619 -0.003161"
				           scale="1.000000 1.000000 1.000000"
				           rotation="0.000000 1.000000 0.000000 0.000000"
				           >
					<Transform DEF="Cube_007_ifs_TRANSFORM"
					           translation="0.000000 0.000000 0.000000"
					           scale="1.000000 1.000000 1.000000"
					           rotation="0.000000 1.000000 0.000000 0.000000"
					           >
						<Group DEF="group_ME_Cube_004">
							<Shape>
								<Appearance>
									<Material USE="MA_Body" />
								</Appearance>
								<IndexedTriangleSet solid="false"
								                    normalPerVertex="true"
								                    index="0 1 2 0 2 3 4 5 6 4 6 7 8 9 10 8 10 11 12 13 14 12 14 15 4 13 16 4 16 17 18 19 14 18 14 7 "
								                    >
									<Coordinate point="-0.027435 -0.113106 -0.111787 0.027435 0.113106 -0.111787 0.027435 0.113106 0.111787 -0.027435 -0.113106 0.111787 0.027435 0.113106 -0.111787 -0.567094 0.251372 -0.111787 -0.567094 0.251372 0.111787 0.027435 0.113106 0.111787 -0.567094 0.251372 -0.111787 -0.621965 0.025160 -0.111787 -0.621965 0.025160 0.111787 -0.567094 0.251372 0.111787 -0.621965 0.025160 -0.111787 -0.027435 -0.113106 -0.111787 -0.027435 -0.113106 0.111787 -0.621965 0.025160 0.111787 -0.621965 0.025160 -0.111787 -0.567094 0.251372 -0.111787 -0.567094 0.251372 0.111787 -0.621965 0.025160 0.111787 " />
									<Normal vector="0.428083 -0.694845 -0.577837 0.695456 0.428449 -0.576830 0.695456 0.428449 0.576830 0.428083 -0.694845 0.577837 0.695456 0.428449 -0.576830 -0.428083 0.694845 -0.577837 -0.428083 0.694845 0.577837 0.695456 0.428449 0.576830 -0.428083 0.694845 -0.577837 -0.695456 -0.428449 -0.576830 -0.695456 -0.428449 0.576830 -0.428083 0.694845 0.577837 -0.695456 -0.428449 -0.576830 0.428083 -0.694845 -0.577837 0.428083 -0.694845 0.577837 -0.695456 -0.428449 0.576830 -0.695456 -0.428449 -0.576830 -0.428083 0.694845 -0.577837 -0.428083 0.694845 0.577837 -0.695456 -0.428449 0.576830 " />
									<TextureCoordinate point="0.0309 0.4977 0.0309 0.6942 0.4572 0.6942 0.4572 0.4977 0.0309 0.4977 0.0309 0.6942 0.4572 0.6942 0.4572 0.4977 0.0309 0.4977 0.0309 0.6942 0.4572 0.6942 0.4572 0.4977 0.0309 0.4977 0.0309 0.6942 0.4572 0.6942 0.4572 0.4977 0.4572 0.6942 0.4572 0.4977 0.0309 0.4977 0.0309 0.6942 " />
								</IndexedTriangleSet>
							</Shape>
						</Group>
					</Transform>
				</Transform>
				<Transform DEF="Cube_008_TRANSFORM"
				           translation="-0.460983 -0.230508 0.435108"
				           scale="1.000000 1.000000 1.000000"
				           rotation="0.000000 1.000000 0.000000 0.000000"
				           >
					<Transform DEF="Cube_008_ifs_TRANSFORM"
					           translation="0.000000 0.000000 0.000000"
					           scale="1.000000 1.000000 1.000000"
					           rotation="0.000000 1.000000 0.000000 0.000000"
					           >
						<Group DEF="group_ME_Cube_005">
							<Shape>
								<Appearance>
									<Material USE="MA_Body" />
								</Appearance>
								<IndexedTriangleSet solid="false"
								                    normalPerVertex="true"
								                    index="0 1 2 0 2 3 4 5 6 4 6 7 8 9 10 8 10 11 12 13 14 12 14 15 4 13 16 4 16 17 18 19 14 18 14 7 "
								                    >
									<Coordinate point="0.073160 -0.131289 0.094859 0.097573 0.131289 0.069498 -0.471533 0.241301 0.660681 -0.495946 -0.021278 0.686042 0.097573 0.131289 0.069498 -0.073160 0.131289 -0.094859 -0.642265 0.241301 0.496325 -0.471533 0.241301 0.660681 -0.073160 0.131289 -0.094859 -0.097573 -0.131289 -0.069498 -0.666679 -0.021278 0.521685 -0.642265 0.241301 0.496325 -0.097573 -0.131289 -0.069498 0.073160 -0.131289 0.094859 -0.495946 -0.021278 0.686042 -0.666679 -0.021278 0.521685 -0.097573 -0.131289 -0.069498 -0.073160 0.131289 -0.094859 -0.642265 0.241301 0.496325 -0.666679 -0.021278 0.521685 " />
									<Normal vector="0.759575 -0.648946 0.043397 0.865993 0.495499 -0.067110 0.072268 0.648946 0.757378 -0.034120 -0.495499 0.867916 0.865993 0.495499 -0.067110 0.034120 0.495499 -0.867916 -0.759575 0.648946 -0.043397 0.072268 0.648946 0.757378 0.034120 0.495499 -0.867916 -0.072268 -0.648946 -0.757378 -0.865993 -0.495499 0.067110 -0.759575 0.648946 -0.043397 -0.072268 -0.648946 -0.757378 0.759575 -0.648946 0.043397 -0.034120 -0.495499 0.867916 -0.865993 -0.495499 0.067110 -0.072268 -0.648946 -0.757378 0.034120 0.495499 -0.867916 -0.759575 0.648946 -0.043397 -0.865993 -0.495499 0.067110 " />
									<TextureCoordinate point="0.0545 0.4958 0.0545 0.6912 0.4534 0.6912 0.4534 0.4958 0.0545 0.4958 0.0545 0.6912 0.4534 0.6912 0.4534 0.4958 0.0545 0.4958 0.0545 0.6912 0.4534 0.6912 0.4534 0.4958 0.0545 0.4958 0.0545 0.6912 0.4534 0.6912 0.4534 0.4958 0.4534 0.6912 0.4534 0.4958 0.0545 0.4958 0.0545 0.6912 " />
								</IndexedTriangleSet>
							</Shape>
						</Group>
					</Transform>
				</Transform>
				<Transform DEF="Cube_010_TRANSFORM"
				           translation="-0.460983 -0.230508 -0.438615"
				           scale="1.000000 1.000000 1.000000"
				           rotation="0.000000 1.000000 0.000000 0.000000"
				           >
					<Transform DEF="Cube_010_ifs_TRANSFORM"
					           translation="0.000000 0.000000 0.000000"
					           scale="1.000000 1.000000 1.000000"
					           rotation="0.000000 1.000000 0.000000 0.000000"
					           >
						<Group DEF="group_ME_Cube_007">
							<Shape>
								<Appearance>
									<Material USE="MA_Body" />
								</Appearance>
								<IndexedTriangleSet solid="false"
								                    normalPerVertex="true"
								                    index="0 1 2 0 2 3 4 5 6 4 6 7 8 9 10 8 10 11 12 13 14 12 14 15 4 16 17 4 17 15 18 5 14 18 14 19 "
								                    >
									<Coordinate point="0.073160 -0.131289 -0.094859 -0.495946 -0.021278 -0.686042 -0.471533 0.241301 -0.660681 0.097573 0.131289 -0.069498 0.097573 0.131289 -0.069498 -0.471533 0.241301 -0.660681 -0.642265 0.241301 -0.496324 -0.073160 0.131289 0.094859 -0.073160 0.131289 0.094859 -0.642265 0.241301 -0.496324 -0.666679 -0.021278 -0.521685 -0.097573 -0.131289 0.069498 -0.097573 -0.131289 0.069498 -0.666679 -0.021278 -0.521685 -0.495946 -0.021278 -0.686042 0.073160 -0.131289 -0.094859 -0.073160 0.131289 0.094859 -0.097573 -0.131289 0.069498 -0.642265 0.241301 -0.496324 -0.666679 -0.021278 -0.521685 " />
									<Normal vector="0.759575 -0.648946 -0.043397 -0.034120 -0.495499 -0.867916 0.072268 0.648946 -0.757378 0.865993 0.495499 0.067110 0.865993 0.495499 0.067110 0.072268 0.648946 -0.757378 -0.759575 0.648946 0.043397 0.034120 0.495499 0.867916 0.034120 0.495499 0.867916 -0.759575 0.648946 0.043397 -0.865993 -0.495499 -0.067110 -0.072268 -0.648946 0.757378 -0.072268 -0.648946 0.757378 -0.865993 -0.495499 -0.067110 -0.034120 -0.495499 -0.867916 0.759575 -0.648946 -0.043397 0.034120 0.495499 0.867916 -0.072268 -0.648946 0.757378 -0.759575 0.648946 0.043397 -0.865993 -0.495499 -0.067110 " />
									<TextureCoordinate point="0.0545 0.4958 0.4534 0.4958 0.4534 0.6912 0.0545 0.6912 0.0545 0.4958 0.4534 0.4958 0.4534 0.6912 0.0545 0.6912 0.0545 0.4958 0.4534 0.4958 0.4534 0.6912 0.0545 0.6912 0.0545 0.4958 0.4534 0.4958 0.4534 0.6912 0.0545 0.6912 0.4534 0.4958 0.4534 0.6912 0.0545 0.4958 0.0545 0.6912 " />
								</IndexedTriangleSet>
							</Shape>
						</Group>
					</Transform>
				</Transform>
			</Transform>
			<Transform DEF="arm2_TRANSFORM"
			           translation="-1.017560 0.000000 0.004963"
			           scale="1.000000 1.000000 1.000000"
			           rotation="0.000000 1.000000 0.000000 0.000000"
			           >
				<Transform DEF="arm2_ifs_TRANSFORM"
				           translation="0.000000 0.000000 0.000000"
				           scale="1.000000 1.000000 1.000000"
				           rotation="0.000000 1.000000 0.000000 0.000000"
				           >
					<Group DEF="group_ME_arm2">
						<Shape>
							<Appearance>
								<Material USE="MA_Body" />
							</Appearance>
							<IndexedTriangleSet solid="false"
							                    normalPerVertex="true"
							                    index="0 1 2 0 2 3 4 5 6 4 6 7 8 9 10 8 10 11 12 13 14 12 14 15 4 13 16 4 16 17 18 19 14 18 14 7 "
							                    >
								<Coordinate point="0.000000 -0.549352 -0.701695 0.000000 0.549352 -0.701695 0.000000 0.549352 0.701695 0.000000 -0.549352 0.701695 0.000000 0.549352 -0.701695 -1.029046 0.549352 -0.701695 -1.029046 0.549352 0.701695 0.000000 0.549352 0.701695 -1.029046 0.549352 -0.701695 -1.029046 -0.549352 -0.701695 -1.029046 -0.549352 0.701695 -1.029046 0.549352 0.701695 -1.029046 -0.549352 -0.701695 0.000000 -0.549352 -0.701695 0.000000 -0.549352 0.701695 -1.029046 -0.549352 0.701695 -1.029046 -0.549352 -0.701695 -1.029046 0.549352 -0.701695 -1.029046 0.549352 0.701695 -1.029046 -0.549352 0.701695 " />
								<Normal vector="0.577349 -0.577349 -0.577349 0.577349 0.577349 -0.577349 0.577349 0.577349 0.577349 0.577349 -0.577349 0.577349 0.577349 0.577349 -0.577349 -0.577349 0.577349 -0.577349 -0.577349 0.577349 0.577349 0.577349 0.577349 0.577349 -0.577349 0.577349 -0.577349 -0.577349 -0.577349 -0.577349 -0.577349 -0.577349 0.577349 -0.577349 0.577349 0.577349 -0.577349 -0.577349 -0.577349 0.577349 -0.577349 -0.577349 0.577349 -0.577349 0.577349 -0.577349 -0.577349 0.577349 -0.577349 -0.577349 -0.577349 -0.577349 0.577349 -0.577349 -0.577349 0.577349 0.577349 -0.577349 -0.577349 0.577349 " />
								<TextureCoordinate point="0.0622 0.7559 0.0622 0.9823 0.9575 0.9823 0.9575 0.7559 0.0622 0.7559 0.0622 0.9823 0.9575 0.9823 0.9575 0.7559 0.0622 0.7559 0.0622 0.9823 0.9575 0.9823 0.9575 0.7559 0.0622 0.7559 0.0622 0.9823 0.9575 0.9823 0.9575 0.7559 0.9575 0.9823 0.9575 0.7559 0.0622 0.7559 0.0622 0.9823 " />
							</IndexedTriangleSet>
						</Shape>
					</Group>
				</Transform>
				<Transform DEF="arm2_1_TRANSFORM"
				           translation="-0.943104 0.000000 0.004963"
				           scale="1.000000 1.000000 1.000000"
				           rotation="0.000000 1.000000 0.000000 0.000000"
				           >
					<Transform DEF="arm2_1_ifs_TRANSFORM"
					           translation="0.000000 0.000000 0.000000"
					           scale="1.000000 1.000000 1.000000"
					           rotation="0.000000 1.000000 0.000000 0.000000"
					           >
						<Group DEF="group_ME_arm2_1">
							<Shape>
								<Appearance>
									<Material USE="MA_Body" />
								</Appearance>
								<IndexedTriangleSet solid="false"
								                    normalPerVertex="true"
								                    index="0 1 2 0 2 3 4 5 6 4 6 7 8 9 10 8 10 11 12 13 14 12 14 15 4 13 16 4 16 17 18 19 14 18 14 7 "
								                    >
									<Coordinate point="0.000000 -0.289286 -0.401738 0.000000 0.289286 -0.401738 0.000000 0.289286 0.401738 0.000000 -0.289286 0.401738 0.000000 0.289286 -0.401738 -1.172890 0.289286 -0.401738 -1.172890 0.289286 0.401738 0.000000 0.289286 0.401738 -1.172890 0.289286 -0.401738 -1.172890 -0.289286 -0.401738 -1.172890 -0.289286 0.401738 -1.172890 0.289286 0.401738 -1.172890 -0.289286 -0.401738 0.000000 -0.289286 -0.401738 0.000000 -0.289286 0.401738 -1.172890 -0.289286 0.401738 -1.172890 -0.289286 -0.401738 -1.172890 0.289286 -0.401738 -1.172890 0.289286 0.401738 -1.172890 -0.289286 0.401738 " />
									<Normal vector="0.577349 -0.577349 -0.577349 0.577349 0.577349 -0.577349 0.577349 0.577349 0.577349 0.577349 -0.577349 0.577349 0.577349 0.577349 -0.577349 -0.577349 0.577349 -0.577349 -0.577349 0.577349 0.577349 0.577349 0.577349 0.577349 -0.577349 0.577349 -0.577349 -0.577349 -0.577349 -0.577349 -0.577349 -0.577349 0.577349 -0.577349 0.577349 0.577349 -0.577349 -0.577349 -0.577349 0.577349 -0.577349 -0.577349 0.577349 -0.577349 0.577349 -0.577349 -0.577349 0.577349 -0.577349 -0.577349 -0.577349 -0.577349 0.577349 -0.577349 -0.577349 0.577349 0.577349 -0.577349 -0.577349 0.577349 " />
									<TextureCoordinate point="0.0622 0.7559 0.0622 0.9823 0.9575 0.9823 0.9575 0.7559 0.0622 0.7559 0.0622 0.9823 0.9575 0.9823 0.9575 0.7559 0.0622 0.7559 0.0622 0.9823 0.9575 0.9823 0.9575 0.7559 0.0622 0.7559 0.0622 0.9823 0.9575 0.9823 0.9575 0.7559 0.9575 0.9823 0.9575 0.7559 0.0622 0.7559 0.0622 0.9823 " />
								</IndexedTriangleSet>
							</Shape>
						</Group>
					</Transform>
				</Transform>
			</Transform>
			<Transform DEF="leg2_TRANSFORM"
			           translation="-0.624012 0.030926 -1.750585"
			           scale="1.000000 1.000000 1.000000"
			           rotation="0.000000 1.000000 0.000000 0.000000"
			           >
				<Transform DEF="leg2_ifs_TRANSFORM"
				           translation="0.000000 0.000000 0.000000"
				           scale="1.000000 1.000000 1.000000"
				           rotation="0.000000 1.000000 0.000000 0.000000"
				           >
					<Group DEF="group_ME_leg2">
						<Shape>
							<Appearance>
								<Material USE="MA_Body" />
							</Appearance>
							<IndexedTriangleSet solid="false"
							                    normalPerVertex="true"
							                    index="0 1 2 0 2 3 4 5 6 4 6 7 8 9 10 8 10 11 12 13 14 12 14 15 4 13 16 4 16 17 18 19 14 18 14 7 "
							                    >
								<Coordinate point="0.220688 -0.657475 -1.657970 0.201977 0.474830 -1.721507 0.643020 0.566152 -0.223891 0.661731 -0.566152 -0.160355 0.201977 0.474830 -1.721507 -1.102774 0.474830 -1.337261 -0.661731 0.566152 0.160355 0.643020 0.566152 -0.223891 -1.102774 0.474830 -1.337261 -1.084063 -0.657475 -1.273725 -0.643020 -0.566152 0.223891 -0.661731 0.566152 0.160355 -1.084063 -0.657475 -1.273725 0.220688 -0.657475 -1.657970 0.661731 -0.566152 -0.160355 -0.643020 -0.566152 0.223891 -1.084063 -0.657475 -1.273725 -1.102774 0.474830 -1.337261 -0.661731 0.566152 0.160355 -0.643020 -0.566152 0.223891 " />
								<Normal vector="0.400525 -0.610065 -0.683645 0.381481 0.542650 -0.748314 0.707114 0.610065 0.357433 0.726157 -0.542650 0.422101 0.381481 0.542650 -0.748314 -0.726157 0.542650 -0.422101 -0.400525 0.610065 0.683645 0.707114 0.610065 0.357433 -0.726157 0.542650 -0.422101 -0.707114 -0.610065 -0.357433 -0.381481 -0.542650 0.748314 -0.400525 0.610065 0.683645 -0.707114 -0.610065 -0.357433 0.400525 -0.610065 -0.683645 0.726157 -0.542650 0.422101 -0.381481 -0.542650 0.748314 -0.707114 -0.610065 -0.357433 -0.726157 0.542650 -0.422101 -0.400525 0.610065 0.683645 -0.381481 -0.542650 0.748314 " />
								<TextureCoordinate point="0.0622 0.7559 0.0622 0.9823 0.9575 0.9823 0.9575 0.7559 0.0622 0.7559 0.0622 0.9823 0.9575 0.9823 0.9575 0.7559 0.0622 0.7559 0.0622 0.9823 0.9575 0.9823 0.9575 0.7559 0.0622 0.7559 0.0622 0.9823 0.9575 0.9823 0.9575 0.7559 0.9575 0.9823 0.9575 0.7559 0.0622 0.7559 0.0622 0.9823 " />
							</IndexedTriangleSet>
						</Shape>
					</Group>
				</Transform>
				<Transform DEF="leg2_1_TRANSFORM"
				           translation="-0.422889 -0.086260 -1.412445"
				           scale="1.000000 1.000000 1.000000"
				           rotation="0.000000 1.000000 0.000000 0.000000"
				           >
					<Transform DEF="leg2_1_ifs_TRANSFORM"
					           translation="0.000000 0.000000 0.000000"
					           scale="1.000000 1.000000 1.000000"
					           rotation="0.000000 1.000000 0.000000 0.000000"
					           >
						<Group DEF="group_ME_leg2_1">
							<Shape>
								<Appearance>
									<Material USE="MA_Body" />
								</Appearance>
								<IndexedTriangleSet solid="false"
								                    normalPerVertex="true"
								                    index="0 1 2 0 2 3 4 5 6 4 6 7 8 9 10 8 10 11 12 13 14 12 14 15 4 13 16 4 16 17 18 19 14 18 14 7 "
								                    >
									<Coordinate point="0.122465 -0.420296 -1.126248 0.129327 0.469057 -1.106047 0.484675 0.445127 -0.173210 0.477813 -0.444225 -0.193410 0.129327 0.469057 -1.106047 -0.833161 0.468155 -0.739427 -0.477813 0.444225 0.193410 0.484675 0.445127 -0.173210 -0.833161 0.468155 -0.739427 -0.840023 -0.421197 -0.759628 -0.484675 -0.445127 0.173210 -0.477813 0.444225 0.193410 -0.840023 -0.421197 -0.759628 0.122465 -0.420296 -1.126248 0.477813 -0.444225 -0.193410 -0.484675 -0.445127 0.173210 -0.840023 -0.421197 -0.759628 -0.833161 0.468155 -0.739427 -0.477813 0.444225 0.193410 -0.484675 -0.445127 0.173210 " />
									<Normal vector="0.329600 -0.562822 -0.757988 0.338511 0.591510 -0.731773 0.749443 0.563829 0.346965 0.740532 -0.590503 0.320750 0.338511 0.591510 -0.731773 -0.740532 0.590503 -0.320750 -0.329600 0.562822 0.757988 0.749443 0.563829 0.346965 -0.740532 0.590503 -0.320750 -0.749443 -0.563829 -0.346965 -0.338511 -0.591510 0.731773 -0.329600 0.562822 0.757988 -0.749443 -0.563829 -0.346965 0.329600 -0.562822 -0.757988 0.740532 -0.590503 0.320750 -0.338511 -0.591510 0.731773 -0.749443 -0.563829 -0.346965 -0.740532 0.590503 -0.320750 -0.329600 0.562822 0.757988 -0.338511 -0.591510 0.731773 " />
									<TextureCoordinate point="0.0622 0.7559 0.0622 0.9823 0.9575 0.9823 0.9575 0.7559 0.0622 0.7559 0.0622 0.9823 0.9575 0.9823 0.9575 0.7559 0.0622 0.7559 0.0622 0.9823 0.9575 0.9823 0.9575 0.7559 0.0622 0.7559 0.0622 0.9823 0.9575 0.9823 0.9575 0.7559 0.9575 0.9823 0.9575 0.7559 0.0622 0.7559 0.0622 0.9823 " />
								</IndexedTriangleSet>
							</Shape>
						</Group>
					</Transform>
					<Transform DEF="Cube_005_TRANSFORM"
					           translation="-0.316815 0.021335 -0.831684"
					           scale="1.000000 1.000000 1.000000"
					           rotation="0.000000 1.000000 0.000000 0.000000"
					           >
						<Transform DEF="Cube_005_ifs_TRANSFORM"
						           translation="0.000000 0.000000 0.000000"
						           scale="1.000000 1.000000 1.000000"
						           rotation="0.000000 1.000000 0.000000 0.000000"
						           >
							<Group DEF="group_ME_Cube_001">
								<Shape>
									<Appearance>
										<Material USE="MA_Body" />
									</Appearance>
									<IndexedTriangleSet solid="false"
									                    normalPerVertex="true"
									                    index="0 1 2 0 2 3 4 5 6 4 6 7 8 9 10 8 10 11 12 13 14 12 14 15 4 13 16 4 16 17 18 19 14 18 14 7 "
									                    >
										<Coordinate point="-0.017894 -0.227061 -0.878054 -0.014082 0.266941 -0.866833 0.278173 0.247260 -0.099622 0.274362 -0.246742 -0.110843 -0.014082 0.266941 -0.866833 -0.566617 0.266423 -0.656368 -0.274362 0.246742 0.110843 0.278173 0.247260 -0.099622 -0.566617 0.266423 -0.656368 -0.570429 -0.227579 -0.667588 -0.278173 -0.247260 0.099622 -0.274362 0.246742 0.110843 -0.570429 -0.227579 -0.667588 -0.017894 -0.227061 -0.878054 0.274362 -0.246742 -0.110843 -0.278173 -0.247260 0.099622 -0.570429 -0.227579 -0.667588 -0.566617 0.266423 -0.656368 -0.274362 0.246742 0.110843 -0.278173 -0.247260 0.099622 " />
										<Normal vector="0.329600 -0.562822 -0.757988 0.338511 0.591510 -0.731773 0.749443 0.563829 0.346965 0.740532 -0.590503 0.320750 0.338511 0.591510 -0.731773 -0.740532 0.590503 -0.320750 -0.329600 0.562822 0.757988 0.749443 0.563829 0.346965 -0.740532 0.590503 -0.320750 -0.749443 -0.563829 -0.346965 -0.338511 -0.591510 0.731773 -0.329600 0.562822 0.757988 -0.749443 -0.563829 -0.346965 0.329600 -0.562822 -0.757988 0.740532 -0.590503 0.320750 -0.338511 -0.591510 0.731773 -0.749443 -0.563829 -0.346965 -0.740532 0.590503 -0.320750 -0.329600 0.562822 0.757988 -0.338511 -0.591510 0.731773 " />
										<TextureCoordinate point="0.0622 0.7559 0.0622 0.9823 0.9575 0.9823 0.9575 0.7559 0.0622 0.7559 0.0622 0.9823 0.9575 0.9823 0.9575 0.7559 0.0622 0.7559 0.0622 0.9823 0.9575 0.9823 0.9575 0.7559 0.0622 0.7559 0.0622 0.9823 0.9575 0.9823 0.9575 0.7559 0.9575 0.9823 0.9575 0.7559 0.0622 0.7559 0.0622 0.9823 " />
									</IndexedTriangleSet>
								</Shape>
							</Group>
						</Transform>
					</Transform>
				</Transform>
			</Transform>
		</Transform>
	</Scene>
</X3D>