<?xml version="1.0" encoding="UTF-8"?>
<!DOCTYPE X3D PUBLIC "ISO//Web3D//DTD X3D 3.0//EN" "http://www.web3d.org/specifications/x3d-3.0.dtd">
<X3D version="3.0" profile="Immersive" xmlns:xsd="http://www.w3.org/2001/XMLSchema-instance" xsd:noNamespaceSchemaLocation="http://www.web3d.org/specifications/x3d-3.0.xsd">
	<head>
		<meta name="filename" content="trubbesh.x3d" />
		<meta name="generator" content="Blender 2.93.18" />
	</head>
	<Scene>
		<NavigationInfo headlight="true"
		                visibilityLimit="0.0"
		                type='"EXAMINE", "ANY"'
		                avatarSize="0.25, 1.75, 0.75"
		                />
		<Background DEF="WO_World"
		            groundColor="0.051 0.051 0.051"
		            skyColor="0.051 0.051 0.051"
		            />
		<Transform DEF="body_TRANSFORM"
		           translation="0.000000 0.000000 0.097238"
		           scale="1.000000 1.000000 1.000000"
		           rotation="0.000000 0.000000 1.000000 3.141593"
		           >
			<Transform DEF="body_ifs_TRANSFORM"
			           translation="0.000000 0.000000 0.000000"
			           scale="1.000000 1.000000 1.000000"
			           rotation="0.000000 1.000000 0.000000 0.000000"
			           >
				<Group DEF="group_ME_body">
					<Shape>
						<Appearance>
							<Material DEF="MA_Body"
							          diffuseColor="0.800 0.800 0.800"
							          specularColor="0.401 0.401 0.401"
							          emissiveColor="0.000 0.000 0.000"
							          ambientIntensity="0.000"
							          shininess="0.500"
							          transparency="0.0"
							          />
						</Appearance>
						<IndexedTriangleSet solid="false"
						                    normalPerVertex="true"
						                    index="0 1 2 0 2 3 4 5 6 4 6 7 8 9 10 8 10 11 12 13 14 12 14 15 16 17 18 16 18 19 20 21 14 20 14 22 23 24 25 23 25 26 27 20 22 27 22 28 29 30 31 29 31 32 33 16 19 33 19 34 35 36 37 35 37 38 39 40 13 39 13 12 41 21 42 41 42 43 44 45 5 44 5 4 43 42 46 43 46 47 48 49 45 48 45 44 38 37 50 38 50 51 52 53 40 52 40 39 30 54 55 30 55 31 56 33 34 56 34 57 24 58 59 24 59 25 60 27 28 60 28 61 62 52 39 62 39 63 64 48 44 64 44 65 66 43 47 66 47 67 65 44 4 65 4 68 69 41 43 69 43 66 70 35 38 70 38 71 72 12 15 72 15 73 74 8 11 74 11 75 68 4 7 68 7 76 77 0 3 77 3 78 79 77 78 79 78 80 81 68 76 81 76 82 83 74 75 83 75 84 85 72 73 85 73 86 87 70 71 87 71 88 89 63 72 89 72 85 90 69 66 90 66 91 92 65 68 92 68 81 91 66 67 91 67 93 94 64 65 94 65 92 88 71 95 88 95 96 97 62 63 97 63 89 96 95 98 96 98 99 93 67 100 93 100 101 102 103 64 102 64 94 67 47 104 67 104 100 103 105 48 103 48 64 95 51 106 95 106 98 107 108 52 107 52 62 58 109 110 58 110 59 111 60 61 111 61 112 54 113 114 54 114 55 115 56 57 115 57 116 51 50 117 51 117 106 108 118 53 108 53 52 47 46 119 47 119 104 105 120 49 105 49 48 121 102 94 121 94 122 123 93 101 123 101 124 125 126 97 125 97 127 128 96 99 128 99 129 127 97 89 127 89 130 131 88 96 131 96 128 122 94 92 122 92 132 133 91 93 133 93 123 132 92 81 132 81 134 29 90 91 29 91 133 130 89 85 130 85 135 136 87 88 136 88 131 135 85 86 135 86 32 137 83 84 137 84 138 134 81 82 134 82 139 140 79 80 140 80 141 129 99 126 129 126 125 124 101 102 124 102 121 104 119 120 104 120 105 106 117 118 106 118 108 113 115 116 113 116 114 109 111 112 109 112 110 98 106 108 98 108 107 100 104 105 100 105 103 101 100 103 101 103 102 "
						                    >
							<Coordinate point="-0.789559 -1.000000 1.184705 -0.789559 -1.000000 1.261866 -0.789559 1.000000 1.261866 -0.789559 1.000000 1.184705 0.759451 1.000000 1.184705 0.759451 1.000000 1.261866 0.789559 1.000000 1.261866 0.789559 1.000000 1.184705 0.789559 1.000000 1.184705 0.789559 1.000000 1.261866 0.789559 -1.000000 1.261866 0.789559 -1.000000 1.184705 -0.759451 -1.000000 1.184705 -0.759451 -1.000000 1.261866 -0.789559 -1.000000 1.261866 -0.789559 -1.000000 1.184705 0.759451 1.000000 0.000000 0.789559 1.000000 0.000000 0.789559 -1.000000 0.000000 0.759451 -1.000000 0.000000 -0.759451 1.000000 1.261866 -0.789559 1.000000 1.261866 -0.759451 -1.000000 1.261866 0.789559 1.000000 1.261866 0.759451 1.000000 1.261866 0.759451 -1.000000 1.261866 0.789559 -1.000000 1.261866 -0.381992 1.000000 1.261866 -0.381992 -1.000000 1.261866 -0.789559 1.000000 0.000000 -0.759451 1.000000 0.000000 -0.759451 -1.000000 0.000000 -0.789559 -1.000000 0.000000 0.381992 1.000000 0.000000 0.381992 -1.000000 0.000000 0.789559 -1.000000 1.184705 0.789559 -1.000000 1.261866 0.759451 -1.000000 1.261866 0.759451 -1.000000 1.184705 -0.381992 -1.000000 1.184705 -0.381992 -1.000000 1.261866 -0.789559 1.000000 1.184705 -0.759451 1.000000 1.261866 -0.759451 1.000000 1.184705 0.381992 1.000000 1.184705 0.381992 1.000000 1.261866 -0.381992 1.000000 1.261866 -0.381992 1.000000 1.184705 0.354897 1.000000 1.184705 0.354897 1.000000 1.261866 0.381992 -1.000000 1.261866 0.381992 -1.000000 1.184705 -0.354897 -1.000000 1.184705 -0.354897 -1.000000 1.261866 -0.381992 1.000000 0.000000 -0.381992 -1.000000 0.000000 0.354897 1.000000 0.000000 0.354897 -1.000000 0.000000 0.381992 1.000000 1.261866 0.381992 -1.000000 1.261866 -0.354897 1.000000 1.261866 -0.354897 -1.000000 1.261866 -0.354897 -1.000000 0.806259 -0.381992 -1.000000 0.630855 0.354897 1.000000 0.630855 0.381992 1.000000 0.630855 -0.759451 1.000000 0.630855 -0.381992 1.000000 0.630855 0.759451 1.000000 0.630855 -0.789559 1.000000 0.630855 0.789559 -1.000000 0.630855 0.759451 -1.000000 0.630855 -0.759451 -1.000000 0.630855 -0.789559 -1.000000 0.630855 0.789559 1.000000 0.630855 0.789559 -1.000000 0.630855 0.789559 1.000000 0.630855 -0.789559 -1.000000 0.630855 -0.789559 1.000000 0.630855 -0.789559 -1.000000 0.203815 -0.789559 1.000000 0.203815 0.759451 1.000000 0.203815 0.789559 1.000000 0.203815 0.789559 1.000000 0.203815 0.789559 -1.000000 0.203815 -0.759451 -1.000000 0.203815 -0.789559 -1.000000 0.203815 0.789559 -1.000000 0.203815 0.759451 -1.000000 0.203815 -0.381992 -1.000000 0.203815 -0.789559 1.000000 0.203815 -0.759451 1.000000 0.203815 0.381992 1.000000 0.203815 -0.381992 1.000000 0.203815 0.354897 1.000000 0.203815 0.381992 -1.000000 0.630855 0.381992 -1.000000 0.203815 -0.354897 -1.000000 0.296717 0.354897 -1.000000 0.806259 0.354897 -1.000000 0.296717 -0.354897 1.000000 0.630855 -0.354897 1.000000 0.203815 0.000000 1.000000 0.203815 0.000000 1.000000 0.630855 -0.354897 1.000000 1.184705 0.000000 1.000000 1.184705 0.354897 -1.000000 1.184705 0.000000 -1.000000 0.806259 0.000000 -1.000000 1.184705 0.354897 1.000000 1.261866 0.354897 -1.000000 1.261866 0.000000 1.000000 1.261866 0.000000 -1.000000 1.261866 -0.354897 1.000000 0.000000 -0.354897 -1.000000 0.000000 0.000000 1.000000 0.000000 0.000000 -1.000000 0.000000 0.354897 -1.000000 1.261866 0.000000 -1.000000 1.261866 -0.354897 1.000000 1.261866 0.000000 1.000000 1.261866 0.000000 1.000000 0.000000 0.354897 1.000000 0.000000 -0.381992 1.000000 0.000000 -0.354897 1.000000 0.000000 0.000000 -1.000000 0.000000 0.000000 -1.000000 0.296717 -0.354897 -1.000000 0.000000 0.381992 -1.000000 0.000000 0.354897 -1.000000 0.000000 -0.381992 -1.000000 0.000000 0.759451 -1.000000 0.000000 0.381992 1.000000 0.000000 -0.759451 1.000000 0.000000 0.759451 1.000000 0.000000 -0.759451 -1.000000 0.000000 0.789559 -1.000000 0.000000 0.789559 1.000000 0.000000 0.789559 -1.000000 0.000000 0.789559 1.000000 0.000000 -0.789559 -1.000000 0.000000 -0.789559 1.000000 0.000000 " />
							<Normal vector="-0.707083 -0.707083 0.000000 -0.577349 -0.577349 0.577349 -0.577349 0.577349 0.577349 -0.707083 0.707083 0.000000 0.000000 1.000000 0.000000 0.000000 0.707083 0.707083 0.577349 0.577349 0.577349 0.707083 0.707083 0.000000 0.707083 0.707083 0.000000 0.577349 0.577349 0.577349 0.577349 -0.577349 0.577349 0.707083 -0.707083 0.000000 0.000000 -1.000000 0.000000 0.000000 -0.707083 0.707083 -0.577349 -0.577349 0.577349 -0.707083 -0.707083 0.000000 0.000000 0.707083 -0.707083 0.577349 0.577349 -0.577349 0.577349 -0.577349 -0.577349 0.000000 -0.707083 -0.707083 0.000000 0.707083 0.707083 -0.577349 0.577349 0.577349 0.000000 -0.707083 0.707083 0.577349 0.577349 0.577349 0.000000 0.707083 0.707083 0.000000 -0.707083 0.707083 0.577349 -0.577349 0.577349 0.000000 0.707083 0.707083 0.000000 -0.707083 0.707083 -0.577349 0.577349 -0.577349 0.000000 0.707083 -0.707083 0.000000 -0.707083 -0.707083 -0.577349 -0.577349 -0.577349 0.000000 0.707083 -0.707083 0.000000 -0.707083 -0.707083 0.707083 -0.707083 0.000000 0.577349 -0.577349 0.577349 0.000000 -0.707083 0.707083 0.000000 -1.000000 0.000000 0.000000 -1.000000 0.000000 0.000000 -0.707083 0.707083 -0.707083 0.707083 0.000000 0.000000 0.707083 0.707083 0.000000 1.000000 0.000000 0.000000 1.000000 0.000000 0.000000 0.707083 0.707083 0.000000 0.707083 0.707083 0.000000 1.000000 0.000000 0.000000 1.000000 0.000000 0.000000 0.707083 0.707083 0.000000 -0.707083 0.707083 0.000000 -1.000000 0.000000 0.000000 -1.000000 0.000000 0.000000 -0.707083 0.707083 0.000000 0.707083 -0.707083 0.000000 -0.707083 -0.707083 0.000000 0.707083 -0.707083 0.000000 -0.707083 -0.707083 0.000000 0.707083 0.707083 0.000000 -0.707083 0.707083 0.000000 0.707083 0.707083 0.000000 -0.707083 0.707083 0.000000 -1.000000 0.000000 0.000000 -1.000000 0.000000 0.000000 1.000000 0.000000 0.000000 1.000000 0.000000 0.000000 1.000000 0.000000 0.000000 1.000000 0.000000 0.000000 1.000000 0.000000 -0.707083 0.707083 0.000000 0.707083 -0.707083 0.000000 0.000000 -1.000000 0.000000 0.000000 -1.000000 0.000000 -0.707083 -0.707083 0.000000 0.707083 0.707083 0.000000 0.707083 -0.707083 0.000000 0.707083 0.707083 0.000000 -0.707083 -0.707083 0.000000 -0.707083 0.707083 0.000000 -0.707083 -0.707083 0.000000 -0.707083 0.707083 0.000000 0.000000 1.000000 0.000000 0.707083 0.707083 0.000000 0.707083 0.707083 0.000000 0.707083 -0.707083 0.000000 0.000000 -1.000000 0.000000 -0.707083 -0.707083 0.000000 0.707083 -0.707083 0.000000 0.000000 -1.000000 0.000000 0.000000 -1.000000 0.000000 -0.707083 0.707083 0.000000 0.000000 1.000000 0.000000 0.000000 1.000000 0.000000 0.000000 1.000000 0.000000 0.000000 1.000000 0.000000 0.000000 -1.000000 0.000000 0.000000 -1.000000 0.000000 0.000000 -1.000000 0.000000 0.000000 -1.000000 0.000000 0.000000 -1.000000 0.000000 0.000000 1.000000 0.000000 0.000000 1.000000 0.000000 0.000000 1.000000 0.000000 0.000000 1.000000 0.000000 0.000000 1.000000 0.000000 0.000000 1.000000 0.000000 0.000000 -1.000000 0.000000 0.000000 -1.000000 0.000000 0.000000 -1.000000 0.000000 0.000000 0.707083 0.707083 0.000000 -0.707083 0.707083 0.000000 0.707083 0.707083 0.000000 -0.707083 0.707083 0.000000 0.707083 -0.707083 0.000000 -0.707083 -0.707083 0.000000 0.707083 -0.707083 0.000000 -0.707083 -0.707083 0.000000 -0.707083 0.707083 0.000000 -0.707083 0.707083 0.000000 0.707083 0.707083 0.000000 0.707083 0.707083 0.000000 0.707083 -0.707083 0.000000 0.707083 -0.707083 0.000000 0.707083 -0.707083 0.000000 0.707083 -0.707083 0.000000 -0.707083 -0.707083 0.000000 -1.000000 0.000000 0.000000 -0.707083 -0.707083 0.000000 -0.707083 -0.707083 0.000000 -0.707083 -0.707083 0.000000 -0.707083 -0.707083 0.000000 -0.707083 -0.707083 0.000000 0.707083 -0.707083 0.000000 0.707083 -0.707083 0.000000 0.707083 -0.707083 0.000000 -0.707083 -0.707083 0.577349 -0.577349 -0.577349 0.577349 0.577349 -0.577349 0.577349 -0.577349 -0.577349 0.577349 0.577349 -0.577349 -0.577349 -0.577349 -0.577349 -0.577349 0.577349 -0.577349 " />
							<TextureCoordinate point="0.2490 0.5700 0.4399 0.5700 0.4399 0.9517 0.2490 0.9517 0.2490 0.8245 0.4399 0.8245 0.4399 0.9517 0.2490 0.9517 0.2490 0.5700 0.4399 0.5700 0.4399 0.9517 0.2490 0.9517 0.2490 0.8245 0.4399 0.8245 0.4399 0.9517 0.2490 0.9517 0.3126 0.5700 0.4399 0.5700 0.4399 0.9517 0.3126 0.9517 0.3126 0.5700 0.4399 0.5700 0.3126 0.9517 0.0581 0.5700 0.1854 0.5700 0.1854 0.9517 0.0581 0.9517 0.2702 0.5700 0.2702 0.9517 0.0581 0.5700 0.1854 0.5700 0.1854 0.9517 0.0581 0.9517 0.2702 0.5700 0.2702 0.9517 0.2490 0.5700 0.4399 0.5700 0.4399 0.6972 0.2490 0.6972 0.2490 0.7821 0.4399 0.7821 0.2490 0.5700 0.4399 0.6972 0.2490 0.6972 0.2490 0.7821 0.4399 0.7821 0.4399 0.7396 0.2490 0.7396 0.2490 0.7679 0.4399 0.7679 0.4399 0.7396 0.2490 0.7396 0.2490 0.7679 0.4399 0.7679 0.2278 0.5700 0.2278 0.9517 0.2561 0.5700 0.2561 0.9517 0.2278 0.5700 0.2278 0.9517 0.2561 0.5700 0.2561 0.9517 0.1536 0.7679 0.1536 0.7821 0.1536 0.7679 0.1536 0.7821 0.1536 0.6972 0.1536 0.7396 0.1536 0.8245 0.1536 0.5700 0.1536 0.5700 0.1536 0.6972 0.1536 0.8245 0.1536 0.9517 0.1536 0.5700 0.1536 0.9517 0.1536 0.9517 0.1536 0.5700 0.1536 0.9517 0.1059 0.5700 0.1059 0.9517 0.1059 0.8245 0.1059 0.9517 0.1059 0.5700 0.1059 0.9517 0.1059 0.8245 0.1059 0.9517 0.1059 0.5700 0.1059 0.6972 0.1059 0.7821 0.1059 0.5700 0.1059 0.6972 0.1059 0.7821 0.1059 0.7396 0.1059 0.7679 0.1536 0.7396 0.1059 0.7396 0.1059 0.7679 0.1536 0.7538 0.1059 0.7538 0.1536 0.7538 0.1059 0.7538 0.1059 0.7608 0.1536 0.7608 0.2490 0.7538 0.2490 0.7608 0.2490 0.7538 0.1536 0.7608 0.2490 0.7608 0.2419 0.5700 0.2419 0.9517 0.2490 0.5700 0.2490 0.9517 0.2419 0.5700 0.2419 0.9517 0.2490 0.5700 0.2490 0.9517 0.4399 0.7538 0.4399 0.7608 0.4399 0.7538 0.4399 0.7608 0.0581 0.7608 0.0581 0.7679 0.0581 0.7396 0.0581 0.7538 0.0581 0.7608 0.1059 0.7608 0.0581 0.7679 0.0581 0.7396 0.0581 0.7538 0.0581 0.7821 0.0581 0.6972 0.0581 0.7821 0.0581 0.6972 0.0581 0.8245 0.0581 0.8245 0.0581 0.5700 0.0581 0.5700 0.0581 0.9517 0.0581 0.9517 0.0581 0.5700 0.0581 0.9517 " />
						</IndexedTriangleSet>
					</Shape>
					<Shape>
						<Appearance>
							<Material DEF="MA_Face"
							          diffuseColor="0.800 0.800 0.800"
							          specularColor="0.401 0.401 0.401"
							          emissiveColor="0.000 0.000 0.000"
							          ambientIntensity="0.000"
							          shininess="0.500"
							          transparency="0.0"
							          />
						</Appearance>
						<IndexedTriangleSet solid="false"
						                    normalPerVertex="true"
						                    index="0 1 2 0 2 3 4 5 6 4 6 7 8 9 10 8 10 11 12 13 9 12 9 8 "
						                    >
							<Coordinate point="0.759451 -1.000000 0.630855 0.759451 -1.000000 1.184705 0.381992 -1.000000 1.184705 0.381992 -1.000000 0.630855 -0.381992 -1.000000 0.630855 -0.381992 -1.000000 1.184705 -0.759451 -1.000000 1.184705 -0.759451 -1.000000 0.630855 0.000000 -1.000000 0.296717 0.000000 -1.000000 0.806259 -0.354897 -1.000000 0.806259 -0.354897 -1.000000 0.296717 0.354897 -1.000000 0.296717 0.354897 -1.000000 0.806259 " />
							<Normal vector="0.000000 -1.000000 0.000000 0.000000 -1.000000 0.000000 0.000000 -1.000000 0.000000 0.000000 -1.000000 0.000000 0.000000 -1.000000 0.000000 0.000000 -1.000000 0.000000 0.000000 -1.000000 0.000000 0.000000 -1.000000 0.000000 0.000000 -1.000000 0.000000 0.000000 -1.000000 0.000000 0.000000 -1.000000 0.000000 0.000000 -1.000000 0.000000 0.000000 -1.000000 0.000000 0.000000 -1.000000 0.000000 " />
							<TextureCoordinate point="0.0574 0.5068 0.0574 0.9970 0.4486 0.9970 0.4486 0.5068 0.4486 0.5068 0.4486 0.9970 0.0574 0.9970 0.0574 0.5068 0.4932 0.0157 0.4932 0.4823 0.0147 0.4823 0.0147 0.0157 0.0147 0.0157 0.0147 0.4823 " />
						</IndexedTriangleSet>
					</Shape>
				</Group>
			</Transform>
			<Transform DEF="Cube_001_TRANSFORM"
			           translation="0.190301 0.070357 0.993893"
			           scale="1.000000 1.000000 1.000000"
			           rotation="0.000000 1.000000 0.000000 0.000000"
			           >
				<Transform DEF="Cube_001_ifs_TRANSFORM"
				           translation="0.000000 0.000000 0.000000"
				           scale="1.000000 1.000000 1.000000"
				           rotation="0.000000 1.000000 0.000000 0.000000"
				           >
					<Group DEF="group_ME_Cube_001">
						<Shape>
							<Appearance>
								<Material USE="MA_Body" />
							</Appearance>
							<IndexedTriangleSet solid="false"
							                    normalPerVertex="true"
							                    index="0 1 2 0 2 3 4 5 6 4 6 7 8 9 10 8 10 11 12 13 14 12 14 15 4 16 17 4 17 15 18 5 14 18 14 19 "
							                    >
								<Coordinate point="-0.501647 -0.761751 0.052337 -0.544604 -0.684675 0.762427 -0.534636 0.838827 0.597663 -0.491680 0.761751 -0.112428 -0.491680 0.761751 -0.112428 -0.534636 0.838827 0.597663 0.458690 0.838827 0.657754 0.501647 0.761751 -0.052337 0.501647 0.761751 -0.052337 0.458690 0.838827 0.657754 0.448723 -0.684675 0.822518 0.491680 -0.761751 0.112428 0.491680 -0.761751 0.112428 0.448723 -0.684675 0.822518 -0.544604 -0.684675 0.762427 -0.501647 -0.761751 0.052337 0.501647 0.761751 -0.052337 0.491680 -0.761751 0.112428 0.458690 0.838827 0.657754 0.448723 -0.684675 0.822518 " />
								<Normal vector="-0.545366 -0.636158 -0.545701 -0.614704 -0.511795 0.600146 -0.607196 0.636158 0.475997 -0.537858 0.511795 -0.669881 -0.537858 0.511795 -0.669881 -0.607196 0.636158 0.475997 0.545366 0.636158 0.545701 0.614704 0.511795 -0.600146 0.614704 0.511795 -0.600146 0.545366 0.636158 0.545701 0.537858 -0.511795 0.669881 0.607196 -0.636158 -0.475997 0.607196 -0.636158 -0.475997 0.537858 -0.511795 0.669881 -0.614704 -0.511795 0.600146 -0.545366 -0.636158 -0.545701 0.614704 0.511795 -0.600146 0.607196 -0.636158 -0.475997 0.545366 0.636158 0.545701 0.537858 -0.511795 0.669881 " />
								<TextureCoordinate point="0.0581 0.5700 0.4399 0.5700 0.4399 0.9517 0.0581 0.9517 0.0581 0.5700 0.4399 0.5700 0.4399 0.9517 0.0581 0.9517 0.0581 0.5700 0.4399 0.5700 0.4399 0.9517 0.0581 0.9517 0.0581 0.5700 0.4399 0.5700 0.4399 0.9517 0.0581 0.9517 0.4399 0.5700 0.4399 0.9517 0.0581 0.5700 0.0581 0.9517 " />
							</IndexedTriangleSet>
						</Shape>
					</Group>
				</Transform>
			</Transform>
			<Transform DEF="Cube_002_TRANSFORM"
			           translation="-0.478823 0.070357 0.993893"
			           scale="1.000000 1.000000 1.000000"
			           rotation="0.000000 1.000000 0.000000 0.000000"
			           >
				<Transform DEF="Cube_002_ifs_TRANSFORM"
				           translation="0.000000 0.000000 0.000000"
				           scale="1.000000 1.000000 1.000000"
				           rotation="0.000000 1.000000 0.000000 0.000000"
				           >
					<Group DEF="group_ME_Cube_002">
						<Shape>
							<Appearance>
								<Material USE="MA_Body" />
							</Appearance>
							<IndexedTriangleSet solid="false"
							                    normalPerVertex="true"
							                    index="0 1 2 0 2 3 4 5 6 4 6 7 8 9 10 8 10 11 12 13 14 12 14 15 4 16 17 4 17 15 18 5 14 18 14 19 "
							                    >
								<Coordinate point="-0.373446 -0.585994 -0.068386 -0.493792 -0.547878 0.262190 -0.450354 0.624110 0.142871 -0.330008 0.585994 -0.187705 -0.330008 0.585994 -0.187705 -0.450354 0.624110 0.142871 0.253100 0.624110 0.398962 0.373446 0.585994 0.068386 0.373446 0.585994 0.068386 0.253100 0.624110 0.398962 0.209662 -0.547878 0.518282 0.330008 -0.585994 0.187705 0.330008 -0.585994 0.187705 0.209662 -0.547878 0.518282 -0.493792 -0.547878 0.262190 -0.373446 -0.585994 -0.068386 0.373446 0.585994 0.068386 0.330008 -0.585994 0.187705 0.253100 0.624110 0.398962 0.209662 -0.547878 0.518282 " />
								<Normal vector="-0.367412 -0.636158 -0.678426 -0.760125 -0.511795 0.400281 -0.717582 0.636158 0.283395 -0.324870 0.511795 -0.795282 -0.324870 0.511795 -0.795282 -0.717582 0.636158 0.283395 0.367412 0.636158 0.678426 0.760125 0.511795 -0.400281 0.760125 0.511795 -0.400281 0.367412 0.636158 0.678426 0.324870 -0.511795 0.795282 0.717582 -0.636158 -0.283395 0.717582 -0.636158 -0.283395 0.324870 -0.511795 0.795282 -0.760125 -0.511795 0.400281 -0.367412 -0.636158 -0.678426 0.760125 0.511795 -0.400281 0.717582 -0.636158 -0.283395 0.367412 0.636158 0.678426 0.324870 -0.511795 0.795282 " />
								<TextureCoordinate point="0.0581 0.5700 0.4399 0.5700 0.4399 0.9517 0.0581 0.9517 0.0581 0.5700 0.4399 0.5700 0.4399 0.9517 0.0581 0.9517 0.0581 0.5700 0.4399 0.5700 0.4399 0.9517 0.0581 0.9517 0.0581 0.5700 0.4399 0.5700 0.4399 0.9517 0.0581 0.9517 0.4399 0.5700 0.4399 0.9517 0.0581 0.5700 0.0581 0.9517 " />
							</IndexedTriangleSet>
						</Shape>
					</Group>
				</Transform>
			</Transform>
			<Transform DEF="Cube_003_TRANSFORM"
			           translation="0.730512 0.000000 0.079804"
			           scale="1.000000 1.000000 1.000000"
			           rotation="0.000000 1.000000 0.000000 0.000000"
			           >
				<Transform DEF="Cube_003_ifs_TRANSFORM"
				           translation="0.000000 0.000000 0.000000"
				           scale="1.000000 1.000000 1.000000"
				           rotation="0.000000 1.000000 0.000000 0.000000"
				           >
					<Group DEF="group_ME_Cube_003">
						<Shape>
							<Appearance>
								<Material USE="MA_Body" />
							</Appearance>
							<IndexedTriangleSet solid="false"
							                    normalPerVertex="true"
							                    index="0 1 2 0 2 3 4 5 6 4 6 7 8 9 10 8 10 11 12 13 14 12 14 15 4 16 17 4 17 15 18 5 14 18 14 19 "
							                    >
								<Coordinate point="-0.233177 -0.694062 0.045014 -0.046230 -0.694062 1.013416 -0.046230 0.694062 1.013416 -0.233177 0.694062 0.045014 -0.233177 0.694062 0.045014 -0.046230 0.694062 1.013416 0.420123 0.694062 0.923388 0.233177 0.694062 -0.045014 0.233177 0.694062 -0.045014 0.420123 0.694062 0.923388 0.420123 -0.694062 0.923388 0.233177 -0.694062 -0.045014 0.233177 -0.694062 -0.045014 0.420123 -0.694062 0.923388 -0.046230 -0.694062 1.013416 -0.233177 -0.694062 0.045014 0.233177 0.694062 -0.045014 0.233177 -0.694062 -0.045014 0.420123 0.694062 0.923388 0.420123 -0.694062 0.923388 " />
								<Normal vector="-0.676290 -0.577349 -0.457442 -0.457442 -0.577349 0.676290 -0.457442 0.577349 0.676290 -0.676290 0.577349 -0.457442 -0.676290 0.577349 -0.457442 -0.457442 0.577349 0.676290 0.676290 0.577349 0.457442 0.457442 0.577349 -0.676290 0.457442 0.577349 -0.676290 0.676290 0.577349 0.457442 0.676290 -0.577349 0.457442 0.457442 -0.577349 -0.676290 0.457442 -0.577349 -0.676290 0.676290 -0.577349 0.457442 -0.457442 -0.577349 0.676290 -0.676290 -0.577349 -0.457442 0.457442 0.577349 -0.676290 0.457442 -0.577349 -0.676290 0.676290 0.577349 0.457442 0.676290 -0.577349 0.457442 " />
								<TextureCoordinate point="0.0581 0.5700 0.4399 0.5700 0.4399 0.9517 0.0581 0.9517 0.0581 0.5700 0.4399 0.5700 0.4399 0.9517 0.0581 0.9517 0.0581 0.5700 0.4399 0.5700 0.4399 0.9517 0.0581 0.9517 0.0581 0.5700 0.4399 0.5700 0.4399 0.9517 0.0581 0.9517 0.4399 0.5700 0.4399 0.9517 0.0581 0.5700 0.0581 0.9517 " />
							</IndexedTriangleSet>
						</Shape>
					</Group>
				</Transform>
			</Transform>
			<Transform DEF="Cube_004_TRANSFORM"
			           translation="-0.712096 -0.024555 0.153469"
			           scale="1.000000 1.000000 1.000000"
			           rotation="0.000000 1.000000 0.000000 0.000000"
			           >
				<Transform DEF="Cube_004_ifs_TRANSFORM"
				           translation="0.000000 0.000000 0.000000"
				           scale="1.000000 1.000000 1.000000"
				           rotation="0.000000 1.000000 0.000000 0.000000"
				           >
					<Group DEF="group_ME_Cube_004">
						<Shape>
							<Appearance>
								<Material USE="MA_Body" />
							</Appearance>
							<IndexedTriangleSet solid="false"
							                    normalPerVertex="true"
							                    index="0 1 2 0 2 3 4 5 6 4 6 7 8 9 10 8 10 11 12 13 14 12 14 15 4 16 17 4 17 15 18 5 14 18 14 19 "
							                    >
								<Coordinate point="-0.229179 -0.585836 -0.062246 -0.459335 -0.585836 0.785150 -0.459335 0.585836 0.785150 -0.229179 0.585836 -0.062246 -0.229179 0.585836 -0.062246 -0.459335 0.585836 0.785150 -0.000977 0.585836 0.909642 0.229179 0.585836 0.062246 0.229179 0.585836 0.062246 -0.000977 0.585836 0.909642 -0.000977 -0.585836 0.909642 0.229179 -0.585836 0.062246 0.229179 -0.585836 0.062246 -0.000977 -0.585836 0.909642 -0.459335 -0.585836 0.785150 -0.229179 -0.585836 -0.062246 0.229179 0.585836 0.062246 0.229179 -0.585836 0.062246 -0.000977 0.585836 0.909642 -0.000977 -0.585836 0.909642 " />
								<Normal vector="-0.405835 -0.577349 -0.708487 -0.708487 -0.577349 0.405835 -0.708487 0.577349 0.405835 -0.405835 0.577349 -0.708487 -0.405835 0.577349 -0.708487 -0.708487 0.577349 0.405835 0.405835 0.577349 0.708487 0.708487 0.577349 -0.405835 0.708487 0.577349 -0.405835 0.405835 0.577349 0.708487 0.405835 -0.577349 0.708487 0.708487 -0.577349 -0.405835 0.708487 -0.577349 -0.405835 0.405835 -0.577349 0.708487 -0.708487 -0.577349 0.405835 -0.405835 -0.577349 -0.708487 0.708487 0.577349 -0.405835 0.708487 -0.577349 -0.405835 0.405835 0.577349 0.708487 0.405835 -0.577349 0.708487 " />
								<TextureCoordinate point="0.0581 0.5700 0.4399 0.5700 0.4399 0.9517 0.0581 0.9517 0.0581 0.5700 0.4399 0.5700 0.4399 0.9517 0.0581 0.9517 0.0581 0.5700 0.4399 0.5700 0.4399 0.9517 0.0581 0.9517 0.0581 0.5700 0.4399 0.5700 0.4399 0.9517 0.0581 0.9517 0.4399 0.5700 0.4399 0.9517 0.0581 0.5700 0.0581 0.9517 " />
							</IndexedTriangleSet>
						</Shape>
					</Group>
				</Transform>
			</Transform>
			<Transform DEF="a1_TRANSFORM"
			           translation="0.412524 0.059820 1.716932"
			           scale="1.000000 1.000000 1.000000"
			           rotation="0.000000 1.000000 0.000000 0.000000"
			           >
				<Transform DEF="a1_ifs_TRANSFORM"
				           translation="0.000000 0.000000 0.000000"
				           scale="1.000000 1.000000 1.000000"
				           rotation="0.000000 1.000000 0.000000 0.000000"
				           >
					<Group DEF="group_ME_a1">
						<Shape>
							<Appearance>
								<Material USE="MA_Body" />
							</Appearance>
							<IndexedTriangleSet solid="false"
							                    normalPerVertex="true"
							                    index="0 1 2 0 2 3 4 5 6 4 6 7 8 9 10 8 10 11 12 13 14 12 14 15 4 16 17 4 17 15 18 5 14 18 14 19 "
							                    >
								<Coordinate point="-0.099986 -0.155017 0.008668 -0.099986 -0.096950 1.047134 -0.099986 0.213083 1.029799 -0.099986 0.155017 -0.008668 -0.099986 0.155017 -0.008668 -0.099986 0.213083 1.029799 0.099986 0.213083 1.029799 0.099986 0.155017 -0.008668 0.099986 0.155017 -0.008668 0.099986 0.213083 1.029799 0.099986 -0.096950 1.047134 0.099986 -0.155017 0.008668 0.099986 -0.155017 0.008668 0.099986 -0.096950 1.047134 -0.099986 -0.096950 1.047134 -0.099986 -0.155017 0.008668 0.099986 0.155017 -0.008668 0.099986 -0.155017 0.008668 0.099986 0.213083 1.029799 0.099986 -0.096950 1.047134 " />
								<Normal vector="-0.577349 -0.608661 -0.544206 -0.577349 -0.544206 0.608661 -0.577349 0.608661 0.544206 -0.577349 0.544206 -0.608661 -0.577349 0.544206 -0.608661 -0.577349 0.608661 0.544206 0.577349 0.608661 0.544206 0.577349 0.544206 -0.608661 0.577349 0.544206 -0.608661 0.577349 0.608661 0.544206 0.577349 -0.544206 0.608661 0.577349 -0.608661 -0.544206 0.577349 -0.608661 -0.544206 0.577349 -0.544206 0.608661 -0.577349 -0.544206 0.608661 -0.577349 -0.608661 -0.544206 0.577349 0.544206 -0.608661 0.577349 -0.608661 -0.544206 0.577349 0.608661 0.544206 0.577349 -0.544206 0.608661 " />
								<TextureCoordinate point="0.0581 0.5700 0.4399 0.5700 0.4399 0.9517 0.0581 0.9517 0.0581 0.5700 0.4399 0.5700 0.4399 0.9517 0.0581 0.9517 0.0581 0.5700 0.4399 0.5700 0.4399 0.9517 0.0581 0.9517 0.0581 0.5700 0.4399 0.5700 0.4399 0.9517 0.0581 0.9517 0.4399 0.5700 0.4399 0.9517 0.0581 0.5700 0.0581 0.9517 " />
							</IndexedTriangleSet>
						</Shape>
					</Group>
				</Transform>
			</Transform>
			<Transform DEF="a2_TRANSFORM"
			           translation="0.081032 0.059820 1.716932"
			           scale="1.000000 1.000000 1.000000"
			           rotation="0.000000 1.000000 0.000000 0.000000"
			           >
				<Transform DEF="a2_ifs_TRANSFORM"
				           translation="0.000000 0.000000 0.000000"
				           scale="1.000000 1.000000 1.000000"
				           rotation="0.000000 1.000000 0.000000 0.000000"
				           >
					<Group DEF="group_ME_a2">
						<Shape>
							<Appearance>
								<Material USE="MA_Body" />
							</Appearance>
							<IndexedTriangleSet solid="false"
							                    normalPerVertex="true"
							                    index="0 1 2 0 2 3 4 5 6 4 6 7 8 9 10 8 10 11 12 13 14 12 14 15 4 16 17 4 17 15 18 5 14 18 14 19 "
							                    >
								<Coordinate point="-0.099986 -0.155017 0.008668 -0.099986 -0.093247 1.113371 -0.099986 0.216787 1.096036 -0.099986 0.155017 -0.008668 -0.099986 0.155017 -0.008668 -0.099986 0.216787 1.096036 0.099986 0.216787 1.096036 0.099986 0.155017 -0.008668 0.099986 0.155017 -0.008668 0.099986 0.216787 1.096036 0.099986 -0.093247 1.113371 0.099986 -0.155017 0.008668 0.099986 -0.155017 0.008668 0.099986 -0.093247 1.113371 -0.099986 -0.093247 1.113371 -0.099986 -0.155017 0.008668 0.099986 0.155017 -0.008668 0.099986 -0.155017 0.008668 0.099986 0.216787 1.096036 0.099986 -0.093247 1.113371 " />
								<Normal vector="-0.577349 -0.608661 -0.544206 -0.577349 -0.544206 0.608661 -0.577349 0.608661 0.544206 -0.577349 0.544206 -0.608661 -0.577349 0.544206 -0.608661 -0.577349 0.608661 0.544206 0.577349 0.608661 0.544206 0.577349 0.544206 -0.608661 0.577349 0.544206 -0.608661 0.577349 0.608661 0.544206 0.577349 -0.544206 0.608661 0.577349 -0.608661 -0.544206 0.577349 -0.608661 -0.544206 0.577349 -0.544206 0.608661 -0.577349 -0.544206 0.608661 -0.577349 -0.608661 -0.544206 0.577349 0.544206 -0.608661 0.577349 -0.608661 -0.544206 0.577349 0.608661 0.544206 0.577349 -0.544206 0.608661 " />
								<TextureCoordinate point="0.0581 0.5700 0.4399 0.5700 0.4399 0.9517 0.0581 0.9517 0.0581 0.5700 0.4399 0.5700 0.4399 0.9517 0.0581 0.9517 0.0581 0.5700 0.4399 0.5700 0.4399 0.9517 0.0581 0.9517 0.0581 0.5700 0.4399 0.5700 0.4399 0.9517 0.0581 0.9517 0.4399 0.5700 0.4399 0.9517 0.0581 0.5700 0.0581 0.9517 " />
							</IndexedTriangleSet>
						</Shape>
					</Group>
				</Transform>
			</Transform>
			<Transform DEF="arm1_TRANSFORM"
			           translation="0.987112 0.082892 0.433151"
			           scale="1.000000 1.000000 1.000000"
			           rotation="0.000000 1.000000 0.000000 0.000000"
			           >
				<Transform DEF="arm1_ifs_TRANSFORM"
				           translation="0.000000 0.000000 0.000000"
				           scale="1.000000 1.000000 1.000000"
				           rotation="0.000000 1.000000 0.000000 0.000000"
				           >
					<Group DEF="group_ME_arm1">
						<Shape>
							<Appearance>
								<Material USE="MA_Body" />
							</Appearance>
							<IndexedTriangleSet solid="false"
							                    normalPerVertex="true"
							                    index="0 1 2 0 2 3 4 5 6 4 6 7 8 9 10 8 10 11 12 13 14 12 14 15 4 16 17 4 17 15 18 5 14 18 14 19 "
							                    >
								<Coordinate point="-0.020517 -0.152234 -0.181424 0.020517 -0.152234 0.181424 0.020517 0.152234 0.181424 -0.020517 0.152234 -0.181424 -0.020517 0.152234 -0.181424 0.020517 0.152234 0.181424 0.386156 0.152234 0.140074 0.345121 0.152234 -0.222774 0.345121 0.152234 -0.222774 0.386156 0.152234 0.140074 0.386156 -0.152234 0.140074 0.345121 -0.152234 -0.222774 0.345121 -0.152234 -0.222774 0.386156 -0.152234 0.140074 0.020517 -0.152234 0.181424 -0.020517 -0.152234 -0.181424 0.345121 0.152234 -0.222774 0.345121 -0.152234 -0.222774 0.386156 0.152234 0.140074 0.386156 -0.152234 0.140074 " />
								<Normal vector="-0.638569 -0.577349 -0.508805 -0.508805 -0.577349 0.638569 -0.508805 0.577349 0.638569 -0.638569 0.577349 -0.508805 -0.638569 0.577349 -0.508805 -0.508805 0.577349 0.638569 0.638569 0.577349 0.508805 0.508805 0.577349 -0.638569 0.508805 0.577349 -0.638569 0.638569 0.577349 0.508805 0.638569 -0.577349 0.508805 0.508805 -0.577349 -0.638569 0.508805 -0.577349 -0.638569 0.638569 -0.577349 0.508805 -0.508805 -0.577349 0.638569 -0.638569 -0.577349 -0.508805 0.508805 0.577349 -0.638569 0.508805 -0.577349 -0.638569 0.638569 0.577349 0.508805 0.638569 -0.577349 0.508805 " />
								<TextureCoordinate point="0.5568 0.5814 0.9255 0.5814 0.9255 0.9501 0.5568 0.9501 0.5568 0.5814 0.9255 0.5814 0.9255 0.9501 0.5568 0.9501 0.5568 0.5814 0.9255 0.5814 0.9255 0.9501 0.5568 0.9501 0.5568 0.5814 0.9255 0.5814 0.9255 0.9501 0.5568 0.9501 0.9255 0.5814 0.9255 0.9501 0.5568 0.5814 0.5568 0.9501 " />
							</IndexedTriangleSet>
						</Shape>
					</Group>
				</Transform>
				<Transform DEF="Cube_008_TRANSFORM"
				           translation="0.322178 -0.000000 -0.036435"
				           scale="1.000000 1.000000 1.000000"
				           rotation="0.000000 1.000000 0.000000 0.000000"
				           >
					<Transform DEF="Cube_008_ifs_TRANSFORM"
					           translation="0.000000 0.000000 0.000000"
					           scale="1.000000 1.000000 1.000000"
					           rotation="0.000000 1.000000 0.000000 0.000000"
					           >
						<Group DEF="group_ME_Cube_008">
							<Shape>
								<Appearance>
									<Material USE="MA_Body" />
								</Appearance>
								<IndexedTriangleSet solid="false"
								                    normalPerVertex="true"
								                    index="0 1 2 0 2 3 4 5 6 4 6 7 8 9 10 8 10 11 12 13 14 12 14 15 4 16 17 4 17 15 18 5 14 18 14 19 "
								                    >
									<Coordinate point="0.014218 -0.169291 -0.210513 -0.014218 -0.169291 0.210513 -0.014218 0.169291 0.210513 0.014218 0.169291 -0.210513 0.014218 0.169291 -0.210513 -0.014218 0.169291 0.210513 0.408351 0.169291 0.239054 0.436787 0.169291 -0.181973 0.436787 0.169291 -0.181973 0.408351 0.169291 0.239054 0.408351 -0.169291 0.239054 0.436787 -0.169291 -0.181973 0.436787 -0.169291 -0.181973 0.408351 -0.169291 0.239054 -0.014218 -0.169291 0.210513 0.014218 -0.169291 -0.210513 0.436787 0.169291 -0.181973 0.436787 -0.169291 -0.181973 0.408351 0.169291 0.239054 0.408351 -0.169291 0.239054 " />
									<Normal vector="-0.537126 -0.577349 -0.614917 -0.614917 -0.577349 0.537126 -0.614917 0.577349 0.537126 -0.537126 0.577349 -0.614917 -0.537126 0.577349 -0.614917 -0.614917 0.577349 0.537126 0.537126 0.577349 0.614917 0.614917 0.577349 -0.537126 0.614917 0.577349 -0.537126 0.537126 0.577349 0.614917 0.537126 -0.577349 0.614917 0.614917 -0.577349 -0.537126 0.614917 -0.577349 -0.537126 0.537126 -0.577349 0.614917 -0.614917 -0.577349 0.537126 -0.537126 -0.577349 -0.614917 0.614917 0.577349 -0.537126 0.614917 -0.577349 -0.537126 0.537126 0.577349 0.614917 0.537126 -0.577349 0.614917 " />
									<TextureCoordinate point="0.5568 0.5814 0.9255 0.5814 0.9255 0.9501 0.5568 0.9501 0.5568 0.5814 0.9255 0.5814 0.9255 0.9501 0.5568 0.9501 0.5568 0.5814 0.9255 0.5814 0.9255 0.9501 0.5568 0.9501 0.5568 0.5814 0.9255 0.5814 0.9255 0.9501 0.5568 0.9501 0.9255 0.5814 0.9255 0.9501 0.5568 0.5814 0.5568 0.9501 " />
								</IndexedTriangleSet>
							</Shape>
						</Group>
					</Transform>
				</Transform>
				<Transform DEF="arm1_1_TRANSFORM"
				           translation="0.624143 -0.000000 -0.016041"
				           scale="1.000000 1.000000 1.000000"
				           rotation="0.000000 1.000000 0.000000 0.000000"
				           >
					<Transform DEF="arm1_1_ifs_TRANSFORM"
					           translation="0.000000 0.000000 0.000000"
					           scale="1.000000 1.000000 1.000000"
					           rotation="0.000000 1.000000 0.000000 0.000000"
					           >
						<Group DEF="group_ME_arm1_1">
							<Shape>
								<Appearance>
									<Material USE="MA_Body" />
								</Appearance>
								<IndexedTriangleSet solid="false"
								                    normalPerVertex="true"
								                    index="0 1 2 0 2 3 4 5 6 4 6 7 8 9 10 8 10 11 12 13 14 12 14 15 4 16 17 4 17 15 18 5 14 18 14 19 "
								                    >
									<Coordinate point="0.021892 -0.228375 -0.230397 0.012697 -0.229070 0.230397 -0.021892 0.228375 0.230397 -0.012697 0.229070 -0.230397 -0.012697 0.229070 -0.230397 -0.021892 0.228375 0.230397 0.467535 0.265382 0.240219 0.476730 0.266077 -0.220574 0.476730 0.266077 -0.220574 0.467535 0.265382 0.240219 0.502124 -0.192063 0.240219 0.511319 -0.191368 -0.220574 0.511319 -0.191368 -0.220574 0.502124 -0.192063 0.240219 0.012697 -0.229070 0.230397 0.021892 -0.228375 -0.230397 0.476730 0.266077 -0.220574 0.511319 -0.191368 -0.220574 0.467535 0.265382 0.240219 0.502124 -0.192063 0.240219 " />
									<Normal vector="-0.520524 -0.618336 -0.588763 -0.543565 -0.620075 0.565661 -0.630634 0.531297 0.565661 -0.607593 0.533036 -0.588763 -0.607593 0.533036 -0.588763 -0.630634 0.531297 0.565661 0.520524 0.618336 0.588763 0.543565 0.620075 -0.565661 0.543565 0.620075 -0.565661 0.520524 0.618336 0.588763 0.607593 -0.533036 0.588763 0.630634 -0.531297 -0.565661 0.630634 -0.531297 -0.565661 0.607593 -0.533036 0.588763 -0.543565 -0.620075 0.565661 -0.520524 -0.618336 -0.588763 0.543565 0.620075 -0.565661 0.630634 -0.531297 -0.565661 0.520524 0.618336 0.588763 0.607593 -0.533036 0.588763 " />
									<TextureCoordinate point="0.5568 0.5814 0.9255 0.5814 0.9255 0.9501 0.5568 0.9501 0.5568 0.5814 0.9255 0.5814 0.9255 0.9501 0.5568 0.9501 0.5568 0.5814 0.9255 0.5814 0.9255 0.9501 0.5568 0.9501 0.5568 0.5814 0.9255 0.5814 0.9255 0.9501 0.5568 0.9501 0.9255 0.5814 0.9255 0.9501 0.5568 0.5814 0.5568 0.9501 " />
								</IndexedTriangleSet>
							</Shape>
						</Group>
					</Transform>
					<Transform DEF="Cube_010_TRANSFORM"
					           translation="0.440922 0.033339 -0.032597"
					           scale="1.000000 1.000000 1.000000"
					           rotation="0.000000 1.000000 0.000000 0.000000"
					           >
						<Transform DEF="Cube_010_ifs_TRANSFORM"
						           translation="0.000000 0.000000 0.000000"
						           scale="1.000000 1.000000 1.000000"
						           rotation="0.000000 1.000000 0.000000 0.000000"
						           >
							<Group DEF="group_ME_Cube_010">
								<Shape>
									<Appearance>
										<Material USE="MA_Body" />
									</Appearance>
									<IndexedTriangleSet solid="false"
									                    normalPerVertex="true"
									                    index="0 1 2 0 2 3 4 5 6 4 6 7 8 9 10 8 10 11 12 13 14 12 14 15 4 16 17 4 17 15 18 5 14 18 14 19 "
									                    >
										<Coordinate point="-0.014198 -0.177477 -0.139129 -0.019726 -0.177895 0.137916 0.014198 0.177477 0.139129 0.019726 0.177895 -0.137916 0.019726 0.177895 -0.137916 0.014198 0.177477 0.139129 0.557712 0.125555 0.149897 0.563240 0.125974 -0.127148 0.563240 0.125974 -0.127148 0.557712 0.125555 0.149897 0.523787 -0.229817 0.148683 0.529316 -0.229399 -0.128361 0.529316 -0.229399 -0.128361 0.523787 -0.229817 0.148683 -0.019726 -0.177895 0.137916 -0.014198 -0.177477 -0.139129 0.563240 0.125974 -0.127148 0.529316 -0.229399 -0.128361 0.557712 0.125555 0.149897 0.523787 -0.229817 0.148683 " />
										<Normal vector="-0.617939 -0.518967 -0.590564 -0.640980 -0.520707 0.563860 -0.531266 0.628742 0.567797 -0.508225 0.630482 -0.586627 -0.508225 0.630482 -0.586627 -0.531266 0.628742 0.567797 0.617939 0.518967 0.590564 0.640980 0.520707 -0.563860 0.640980 0.520707 -0.563860 0.617939 0.518967 0.590564 0.508225 -0.630482 0.586627 0.531266 -0.628742 -0.567797 0.531266 -0.628742 -0.567797 0.508225 -0.630482 0.586627 -0.640980 -0.520707 0.563860 -0.617939 -0.518967 -0.590564 0.640980 0.520707 -0.563860 0.531266 -0.628742 -0.567797 0.617939 0.518967 0.590564 0.508225 -0.630482 0.586627 " />
										<TextureCoordinate point="0.5568 0.5814 0.9255 0.5814 0.9255 0.9501 0.5568 0.9501 0.5568 0.5814 0.9255 0.5814 0.9255 0.9501 0.5568 0.9501 0.5568 0.5814 0.9255 0.5814 0.9255 0.9501 0.5568 0.9501 0.5568 0.5814 0.9255 0.5814 0.9255 0.9501 0.5568 0.9501 0.9255 0.5814 0.9255 0.9501 0.5568 0.5814 0.5568 0.9501 " />
									</IndexedTriangleSet>
								</Shape>
							</Group>
						</Transform>
					</Transform>
					<Transform DEF="Cube_016_TRANSFORM"
					           translation="0.543792 -0.035122 0.089623"
					           scale="1.000000 1.000000 1.000000"
					           rotation="0.000000 1.000000 0.000000 0.000000"
					           >
						<Transform DEF="Cube_016_ifs_TRANSFORM"
						           translation="0.000000 0.000000 0.000000"
						           scale="1.000000 1.000000 1.000000"
						           rotation="0.000000 1.000000 0.000000 0.000000"
						           >
							<Group DEF="group_ME_Cube_016">
								<Shape>
									<Appearance>
										<Material USE="MA_Body" />
									</Appearance>
									<IndexedTriangleSet solid="false"
									                    normalPerVertex="true"
									                    index="0 1 2 0 2 3 4 5 6 4 6 7 8 9 10 8 10 11 12 13 14 12 14 15 4 16 17 4 17 15 18 5 14 18 14 19 "
									                    >
										<Coordinate point="-0.091451 -0.137168 0.025102 -0.048331 -0.142148 0.154984 -0.106121 0.048620 0.181484 -0.149241 0.053600 0.051602 -0.149241 0.053600 0.051602 -0.106121 0.048620 0.181484 0.134571 0.132188 0.104780 0.091451 0.137168 -0.025102 0.091451 0.137168 -0.025102 0.134571 0.132188 0.104780 0.192361 -0.058580 0.078280 0.149241 -0.053600 -0.051602 0.149241 -0.053600 -0.051602 0.192361 -0.058580 0.078280 -0.048331 -0.142148 0.154984 -0.091451 -0.137168 0.025102 0.091451 0.137168 -0.025102 0.149241 -0.053600 -0.051602 0.134571 0.132188 0.104780 0.192361 -0.058580 0.078280 " />
										<Normal vector="-0.538102 -0.708060 -0.457228 -0.174535 -0.750053 0.637898 -0.506363 0.345408 0.790094 -0.869961 0.387402 -0.305032 -0.869961 0.387402 -0.305032 -0.506363 0.345408 0.790094 0.538102 0.708060 0.457228 0.174535 0.750053 -0.637898 0.174535 0.750053 -0.637898 0.538102 0.708060 0.457228 0.869961 -0.387402 0.305032 0.506363 -0.345408 -0.790094 0.506363 -0.345408 -0.790094 0.869961 -0.387402 0.305032 -0.174535 -0.750053 0.637898 -0.538102 -0.708060 -0.457228 0.174535 0.750053 -0.637898 0.506363 -0.345408 -0.790094 0.538102 0.708060 0.457228 0.869961 -0.387402 0.305032 " />
										<TextureCoordinate point="0.1142 0.0749 0.3838 0.0749 0.3838 0.3444 0.1142 0.3444 0.1142 0.0749 0.3838 0.0749 0.3838 0.3444 0.1142 0.3444 0.1142 0.0749 0.3838 0.0749 0.3838 0.3444 0.1142 0.3444 0.1142 0.0749 0.3838 0.0749 0.3838 0.3444 0.1142 0.3444 0.3838 0.0749 0.3838 0.3444 0.1142 0.0749 0.1142 0.3444 " />
									</IndexedTriangleSet>
								</Shape>
							</Group>
						</Transform>
					</Transform>
					<Transform DEF="Cube_017_TRANSFORM"
					           translation="0.225246 0.152460 -0.055984"
					           scale="1.000000 1.000000 1.000000"
					           rotation="0.000000 1.000000 0.000000 0.000000"
					           >
						<Transform DEF="Cube_017_ifs_TRANSFORM"
						           translation="0.000000 0.000000 0.000000"
						           scale="1.000000 1.000000 1.000000"
						           rotation="0.000000 1.000000 0.000000 0.000000"
						           >
							<Group DEF="group_ME_Cube_017">
								<Shape>
									<Appearance>
										<Material USE="MA_Body" />
									</Appearance>
									<IndexedTriangleSet solid="false"
									                    normalPerVertex="true"
									                    index="0 1 2 0 2 3 4 5 6 4 6 7 8 9 10 8 10 11 12 13 14 12 14 15 4 16 17 4 17 15 18 5 14 18 14 19 "
									                    >
										<Coordinate point="-0.119682 -0.011232 0.115580 -0.148933 0.121414 0.098181 -0.168251 0.091202 -0.099679 -0.139000 -0.041445 -0.082280 -0.139000 -0.041445 -0.082280 -0.168251 0.091202 -0.099679 0.090430 0.143879 -0.132978 0.119682 0.011232 -0.115580 0.119682 0.011232 -0.115580 0.090430 0.143879 -0.132978 0.109748 0.174091 0.064881 0.139000 0.041445 0.082280 0.139000 0.041445 0.082280 0.109748 0.174091 0.064881 -0.148933 0.121414 0.098181 -0.119682 -0.011232 0.115580 0.119682 0.011232 -0.115580 0.139000 0.041445 0.082280 0.090430 0.143879 -0.132978 0.109748 0.174091 0.064881 " />
										<Normal vector="-0.382488 -0.586779 0.713675 -0.629139 0.531663 0.566973 -0.740074 0.358165 -0.569170 -0.493423 -0.760277 -0.422468 -0.493423 -0.760277 -0.422468 -0.740074 0.358165 -0.569170 0.382488 0.586779 -0.713675 0.629139 -0.531663 -0.566973 0.629139 -0.531663 -0.566973 0.382488 0.586779 -0.713675 0.493423 0.760277 0.422468 0.740074 -0.358165 0.569170 0.740074 -0.358165 0.569170 0.493423 0.760277 0.422468 -0.629139 0.531663 0.566973 -0.382488 -0.586779 0.713675 0.629139 -0.531663 -0.566973 0.740074 -0.358165 0.569170 0.382488 0.586779 -0.713675 0.493423 0.760277 0.422468 " />
										<TextureCoordinate point="0.1142 0.0749 0.3838 0.0749 0.3838 0.3444 0.1142 0.3444 0.1142 0.0749 0.3838 0.0749 0.3838 0.3444 0.1142 0.3444 0.1142 0.0749 0.3838 0.0749 0.3838 0.3444 0.1142 0.3444 0.1142 0.0749 0.3838 0.0749 0.3838 0.3444 0.1142 0.3444 0.3838 0.0749 0.3838 0.3444 0.1142 0.0749 0.1142 0.3444 " />
									</IndexedTriangleSet>
								</Shape>
							</Group>
						</Transform>
					</Transform>
				</Transform>
				<Transform DEF="Cube_015_TRANSFORM"
				           translation="0.584409 -0.082892 0.015961"
				           scale="1.000000 1.000000 1.000000"
				           rotation="0.000000 1.000000 0.000000 0.000000"
				           >
					<Transform DEF="Cube_015_ifs_TRANSFORM"
					           translation="0.000000 0.000000 0.000000"
					           scale="1.000000 1.000000 1.000000"
					           rotation="0.000000 1.000000 0.000000 0.000000"
					           >
						<Group DEF="group_ME_Cube_015">
							<Shape>
								<Appearance>
									<Material USE="MA_Body" />
								</Appearance>
								<IndexedTriangleSet solid="false"
								                    normalPerVertex="true"
								                    index="0 1 2 0 2 3 4 5 6 4 6 7 8 9 10 8 10 11 12 13 14 12 14 15 4 16 17 4 17 15 18 5 14 18 14 19 "
								                    >
									<Coordinate point="-0.123865 0.022585 -0.109343 -0.161288 -0.108246 -0.093974 -0.169293 -0.082546 0.105299 -0.131870 0.048285 0.089930 -0.131870 0.048285 0.089930 -0.169293 -0.082546 0.105299 0.086442 -0.153416 0.124713 0.123865 -0.022585 0.109343 0.123865 -0.022585 0.109343 0.086442 -0.153416 0.124713 0.094447 -0.179116 -0.074561 0.131870 -0.048285 -0.089930 0.131870 -0.048285 -0.089930 0.094447 -0.179116 -0.074561 -0.161288 -0.108246 -0.093974 -0.123865 0.022585 -0.109343 0.123865 -0.022585 0.109343 0.131870 -0.048285 -0.089930 0.086442 -0.153416 0.124713 0.094447 -0.179116 -0.074561 " />
									<Normal vector="-0.374126 0.631550 -0.679067 -0.689688 -0.471572 -0.549455 -0.735649 -0.324015 0.594806 -0.420087 0.779138 0.465224 -0.420087 0.779138 0.465224 -0.735649 -0.324015 0.594806 0.374126 -0.631550 0.679067 0.689688 0.471572 0.549455 0.689688 0.471572 0.549455 0.374126 -0.631550 0.679067 0.420087 -0.779138 -0.465224 0.735649 0.324015 -0.594806 0.735649 0.324015 -0.594806 0.420087 -0.779138 -0.465224 -0.689688 -0.471572 -0.549455 -0.374126 0.631550 -0.679067 0.689688 0.471572 0.549455 0.735649 0.324015 -0.594806 0.374126 -0.631550 0.679067 0.420087 -0.779138 -0.465224 " />
									<TextureCoordinate point="0.5929 0.0859 0.9190 0.0859 0.9190 0.4121 0.5929 0.4121 0.5929 0.0859 0.9190 0.0859 0.9190 0.4121 0.5929 0.4121 0.5929 0.0859 0.9190 0.0859 0.9190 0.4121 0.5929 0.4121 0.5929 0.0859 0.9190 0.0859 0.9190 0.4121 0.5929 0.4121 0.9190 0.0859 0.9190 0.4121 0.5929 0.0859 0.5929 0.4121 " />
								</IndexedTriangleSet>
							</Shape>
						</Group>
					</Transform>
				</Transform>
				<Transform DEF="Cube_018_TRANSFORM"
				           translation="0.359575 0.033628 -0.136801"
				           scale="1.000000 1.000000 1.000000"
				           rotation="0.000000 1.000000 0.000000 0.000000"
				           >
					<Transform DEF="Cube_018_ifs_TRANSFORM"
					           translation="0.000000 0.000000 0.000000"
					           scale="1.000000 1.000000 1.000000"
					           rotation="0.000000 1.000000 0.000000 0.000000"
					           >
						<Group DEF="group_ME_Cube_018">
							<Shape>
								<Appearance>
									<Material USE="MA_Body" />
								</Appearance>
								<IndexedTriangleSet solid="false"
								                    normalPerVertex="true"
								                    index="0 1 2 0 2 3 4 5 6 4 6 7 8 9 10 8 10 11 12 13 14 12 14 15 4 16 17 4 17 15 18 5 14 18 14 19 "
								                    >
									<Coordinate point="-0.095255 0.055471 0.003737 -0.074249 0.100149 -0.123997 -0.052651 -0.028282 -0.165366 -0.073657 -0.072959 -0.037632 -0.073657 -0.072959 -0.037632 -0.052651 -0.028282 -0.165366 0.116261 -0.010794 -0.131472 0.095255 -0.055471 -0.003737 0.095255 -0.055471 -0.003737 0.116261 -0.010794 -0.131472 0.094663 0.117637 -0.090103 0.073657 0.072959 0.037632 0.073657 0.072959 0.037632 0.094663 0.117637 -0.090103 -0.074249 0.100149 -0.123997 -0.095255 0.055471 0.003737 0.095255 -0.055471 -0.003737 0.073657 0.072959 0.037632 0.116261 -0.010794 -0.131472 0.094663 0.117637 -0.090103 " />
									<Normal vector="-0.742973 0.295969 0.600299 -0.565844 0.672658 -0.476730 -0.383343 -0.412580 -0.826319 -0.560472 -0.789300 0.250710 -0.560472 -0.789300 0.250710 -0.383343 -0.412580 -0.826319 0.742973 -0.295969 -0.600299 0.565844 -0.672658 0.476730 0.565844 -0.672658 0.476730 0.742973 -0.295969 -0.600299 0.560472 0.789300 -0.250710 0.383343 0.412580 0.826319 0.383343 0.412580 0.826319 0.560472 0.789300 -0.250710 -0.565844 0.672658 -0.476730 -0.742973 0.295969 0.600299 0.565844 -0.672658 0.476730 0.383343 0.412580 0.826319 0.742973 -0.295969 -0.600299 0.560472 0.789300 -0.250710 " />
									<TextureCoordinate point="0.5929 0.0859 0.9190 0.0859 0.9190 0.4121 0.5929 0.4121 0.5929 0.0859 0.9190 0.0859 0.9190 0.4121 0.5929 0.4121 0.5929 0.0859 0.9190 0.0859 0.9190 0.4121 0.5929 0.4121 0.5929 0.0859 0.9190 0.0859 0.9190 0.4121 0.5929 0.4121 0.9190 0.0859 0.9190 0.4121 0.5929 0.0859 0.5929 0.4121 " />
								</IndexedTriangleSet>
							</Shape>
						</Group>
					</Transform>
				</Transform>
			</Transform>
			<Transform DEF="arm2_TRANSFORM"
			           translation="-1.037205 0.082892 0.433151"
			           scale="1.000000 1.000000 1.000000"
			           rotation="0.000000 1.000000 0.000000 0.000000"
			           >
				<Transform DEF="arm2_ifs_TRANSFORM"
				           translation="0.000000 0.000000 0.000000"
				           scale="1.000000 1.000000 1.000000"
				           rotation="0.000000 1.000000 0.000000 0.000000"
				           >
					<Group DEF="group_ME_arm2">
						<Shape>
							<Appearance>
								<Material USE="MA_Body" />
							</Appearance>
							<IndexedTriangleSet solid="false"
							                    normalPerVertex="true"
							                    index="0 1 2 0 2 3 4 5 6 4 6 7 8 9 10 8 10 11 12 13 14 12 14 15 4 16 17 4 17 15 18 5 14 18 14 19 "
							                    >
								<Coordinate point="0.020517 0.152234 -0.181424 -0.020517 0.152234 0.181424 -0.020517 -0.152234 0.181424 0.020517 -0.152234 -0.181424 0.020517 -0.152234 -0.181424 -0.020517 -0.152234 0.181424 -0.386156 -0.152234 0.140074 -0.345121 -0.152234 -0.222774 -0.345121 -0.152234 -0.222774 -0.386156 -0.152234 0.140074 -0.386156 0.152234 0.140074 -0.345121 0.152234 -0.222774 -0.345121 0.152234 -0.222774 -0.386156 0.152234 0.140074 -0.020517 0.152234 0.181424 0.020517 0.152234 -0.181424 -0.345121 -0.152234 -0.222774 -0.345121 0.152234 -0.222774 -0.386156 -0.152234 0.140074 -0.386156 0.152234 0.140074 " />
								<Normal vector="0.638569 0.577349 -0.508805 0.508805 0.577349 0.638569 0.508805 -0.577349 0.638569 0.638569 -0.577349 -0.508805 0.638569 -0.577349 -0.508805 0.508805 -0.577349 0.638569 -0.638569 -0.577349 0.508805 -0.508805 -0.577349 -0.638569 -0.508805 -0.577349 -0.638569 -0.638569 -0.577349 0.508805 -0.638569 0.577349 0.508805 -0.508805 0.577349 -0.638569 -0.508805 0.577349 -0.638569 -0.638569 0.577349 0.508805 0.508805 0.577349 0.638569 0.638569 0.577349 -0.508805 -0.508805 -0.577349 -0.638569 -0.508805 0.577349 -0.638569 -0.638569 -0.577349 0.508805 -0.638569 0.577349 0.508805 " />
								<TextureCoordinate point="0.5568 0.5814 0.9255 0.5814 0.9255 0.9501 0.5568 0.9501 0.5568 0.5814 0.9255 0.5814 0.9255 0.9501 0.5568 0.9501 0.5568 0.5814 0.9255 0.5814 0.9255 0.9501 0.5568 0.9501 0.5568 0.5814 0.9255 0.5814 0.9255 0.9501 0.5568 0.9501 0.9255 0.5814 0.9255 0.9501 0.5568 0.5814 0.5568 0.9501 " />
							</IndexedTriangleSet>
						</Shape>
					</Group>
				</Transform>
				<Transform DEF="Cube_012_TRANSFORM"
				           translation="-0.322178 -0.000000 -0.036435"
				           scale="1.000000 1.000000 1.000000"
				           rotation="0.000000 1.000000 0.000000 0.000000"
				           >
					<Transform DEF="Cube_012_ifs_TRANSFORM"
					           translation="0.000000 0.000000 0.000000"
					           scale="1.000000 1.000000 1.000000"
					           rotation="0.000000 1.000000 0.000000 0.000000"
					           >
						<Group DEF="group_ME_Cube_012">
							<Shape>
								<Appearance>
									<Material USE="MA_Body" />
								</Appearance>
								<IndexedTriangleSet solid="false"
								                    normalPerVertex="true"
								                    index="0 1 2 0 2 3 4 5 6 4 6 7 8 9 10 8 10 11 12 13 14 12 14 15 4 16 17 4 17 15 18 5 14 18 14 19 "
								                    >
									<Coordinate point="-0.014218 0.169291 -0.210513 0.014218 0.169291 0.210513 0.014218 -0.169291 0.210513 -0.014218 -0.169291 -0.210513 -0.014218 -0.169291 -0.210513 0.014218 -0.169291 0.210513 -0.408351 -0.169292 0.239054 -0.436787 -0.169292 -0.181973 -0.436787 -0.169292 -0.181973 -0.408351 -0.169292 0.239054 -0.408351 0.169291 0.239054 -0.436787 0.169291 -0.181973 -0.436787 0.169291 -0.181973 -0.408351 0.169291 0.239054 0.014218 0.169291 0.210513 -0.014218 0.169291 -0.210513 -0.436787 -0.169292 -0.181973 -0.436787 0.169291 -0.181973 -0.408351 -0.169292 0.239054 -0.408351 0.169291 0.239054 " />
									<Normal vector="0.537126 0.577349 -0.614917 0.614917 0.577349 0.537126 0.614917 -0.577349 0.537126 0.537126 -0.577349 -0.614917 0.537126 -0.577349 -0.614917 0.614917 -0.577349 0.537126 -0.537126 -0.577349 0.614917 -0.614917 -0.577349 -0.537126 -0.614917 -0.577349 -0.537126 -0.537126 -0.577349 0.614917 -0.537126 0.577349 0.614917 -0.614917 0.577349 -0.537126 -0.614917 0.577349 -0.537126 -0.537126 0.577349 0.614917 0.614917 0.577349 0.537126 0.537126 0.577349 -0.614917 -0.614917 -0.577349 -0.537126 -0.614917 0.577349 -0.537126 -0.537126 -0.577349 0.614917 -0.537126 0.577349 0.614917 " />
									<TextureCoordinate point="0.5568 0.5814 0.9255 0.5814 0.9255 0.9501 0.5568 0.9501 0.5568 0.5814 0.9255 0.5814 0.9255 0.9501 0.5568 0.9501 0.5568 0.5814 0.9255 0.5814 0.9255 0.9501 0.5568 0.9501 0.5568 0.5814 0.9255 0.5814 0.9255 0.9501 0.5568 0.9501 0.9255 0.5814 0.9255 0.9501 0.5568 0.5814 0.5568 0.9501 " />
								</IndexedTriangleSet>
							</Shape>
						</Group>
					</Transform>
				</Transform>
				<Transform DEF="arm2_1_TRANSFORM"
				           translation="-0.675309 0.010954 -0.016041"
				           scale="1.000000 1.000000 1.000000"
				           rotation="0.000000 1.000000 0.000000 0.000000"
				           >
					<Transform DEF="arm2_1_ifs_TRANSFORM"
					           translation="0.000000 0.000000 0.000000"
					           scale="1.000000 1.000000 1.000000"
					           rotation="0.000000 1.000000 0.000000 0.000000"
					           >
						<Group DEF="group_ME_arm2_1">
							<Shape>
								<Appearance>
									<Material USE="MA_Body" />
								</Appearance>
								<IndexedTriangleSet solid="false"
								                    normalPerVertex="true"
								                    index="0 1 2 0 2 3 4 5 6 4 6 7 8 9 10 8 10 11 12 13 14 12 14 15 4 16 17 4 17 15 18 5 14 18 14 19 "
								                    >
									<Coordinate point="0.001164 0.229419 -0.230397 0.010382 0.229187 0.230397 -0.001164 -0.229419 0.230397 -0.010382 -0.229187 -0.230397 -0.010382 -0.229187 -0.230397 -0.001164 -0.229419 0.230397 -0.491832 -0.217066 0.240219 -0.501051 -0.216834 -0.220574 -0.501051 -0.216834 -0.220574 -0.491832 -0.217066 0.240219 -0.480286 0.241540 0.240219 -0.489505 0.241772 -0.220574 -0.489505 0.241772 -0.220574 -0.480286 0.241540 0.240219 0.010382 0.229187 0.230397 0.001164 0.229419 -0.230397 -0.501051 -0.216834 -0.220574 -0.489505 0.241772 -0.220574 -0.491832 -0.217066 0.240219 -0.480286 0.241540 0.240219 " />
									<Normal vector="0.580004 0.562914 -0.588763 0.603107 0.562334 0.565661 0.574053 -0.591968 0.565661 0.550951 -0.591388 -0.588763 0.550951 -0.591388 -0.588763 0.574053 -0.591968 0.565661 -0.580004 -0.562914 0.588763 -0.603107 -0.562334 -0.565661 -0.603107 -0.562334 -0.565661 -0.580004 -0.562914 0.588763 -0.550951 0.591388 0.588763 -0.574053 0.591968 -0.565661 -0.574053 0.591968 -0.565661 -0.550951 0.591388 0.588763 0.603107 0.562334 0.565661 0.580004 0.562914 -0.588763 -0.603107 -0.562334 -0.565661 -0.574053 0.591968 -0.565661 -0.580004 -0.562914 0.588763 -0.550951 0.591388 0.588763 " />
									<TextureCoordinate point="0.5568 0.5814 0.9255 0.5814 0.9255 0.9501 0.5568 0.9501 0.5568 0.5814 0.9255 0.5814 0.9255 0.9501 0.5568 0.9501 0.5568 0.5814 0.9255 0.5814 0.9255 0.9501 0.5568 0.9501 0.5568 0.5814 0.9255 0.5814 0.9255 0.9501 0.5568 0.9501 0.9255 0.5814 0.9255 0.9501 0.5568 0.5814 0.5568 0.9501 " />
								</IndexedTriangleSet>
							</Shape>
						</Group>
					</Transform>
					<Transform DEF="Cube_014_TRANSFORM"
					           translation="-0.370978 0.000211 -0.034015"
					           scale="1.000000 1.000000 1.000000"
					           rotation="0.000000 1.000000 0.000000 0.000000"
					           >
						<Transform DEF="Cube_014_ifs_TRANSFORM"
						           translation="0.000000 0.000000 0.000000"
						           scale="1.000000 1.000000 1.000000"
						           rotation="0.000000 1.000000 0.000000 0.000000"
						           >
							<Group DEF="group_ME_Cube_014">
								<Shape>
									<Appearance>
										<Material USE="MA_Body" />
									</Appearance>
									<IndexedTriangleSet solid="false"
									                    normalPerVertex="true"
									                    index="0 1 2 0 2 3 4 5 6 4 6 7 8 9 10 8 10 11 12 13 14 12 14 15 4 16 17 4 17 15 18 5 14 18 14 19 "
									                    >
										<Coordinate point="0.002071 0.137635 -0.138670 0.007614 0.137736 0.138375 -0.002071 -0.137635 0.138670 -0.007614 -0.137736 -0.138375 -0.007614 -0.137736 -0.138375 -0.002071 -0.137635 0.138670 -0.547718 -0.118431 0.149580 -0.553262 -0.118533 -0.127464 -0.553262 -0.118533 -0.127464 -0.547718 -0.118431 0.149580 -0.538033 0.156940 0.149286 -0.543576 0.156839 -0.127759 -0.543576 0.156839 -0.127759 -0.538033 0.156940 0.149286 0.007614 0.137736 0.138375 0.002071 0.137635 -0.138670 -0.553262 -0.118533 -0.127464 -0.543576 0.156839 -0.127759 -0.547718 -0.118431 0.149580 -0.538033 0.156940 0.149286 " />
										<Normal vector="0.585620 0.556475 -0.589373 0.608692 0.556871 0.565081 0.568133 -0.597064 0.566301 0.545030 -0.597491 -0.588153 0.545030 -0.597491 -0.588153 0.568133 -0.597064 0.566301 -0.585620 -0.556475 0.589373 -0.608692 -0.556871 -0.565081 -0.608692 -0.556871 -0.565081 -0.585620 -0.556475 0.589373 -0.545030 0.597491 0.588153 -0.568133 0.597064 -0.566301 -0.568133 0.597064 -0.566301 -0.545030 0.597491 0.588153 0.608692 0.556871 0.565081 0.585620 0.556475 -0.589373 -0.608692 -0.556871 -0.565081 -0.568133 0.597064 -0.566301 -0.585620 -0.556475 0.589373 -0.545030 0.597491 0.588153 " />
										<TextureCoordinate point="0.5568 0.5814 0.9255 0.5814 0.9255 0.9501 0.5568 0.9501 0.5568 0.5814 0.9255 0.5814 0.9255 0.9501 0.5568 0.9501 0.5568 0.5814 0.9255 0.5814 0.9255 0.9501 0.5568 0.9501 0.5568 0.5814 0.9255 0.5814 0.9255 0.9501 0.5568 0.9501 0.9255 0.5814 0.9255 0.9501 0.5568 0.5814 0.5568 0.9501 " />
									</IndexedTriangleSet>
								</Shape>
							</Group>
						</Transform>
					</Transform>
					<Transform DEF="Cube_009_TRANSFORM"
					           translation="-0.122769 0.175315 -0.102228"
					           scale="1.000000 1.000000 1.000000"
					           rotation="0.000000 1.000000 0.000000 0.000000"
					           >
						<Transform DEF="Cube_009_ifs_TRANSFORM"
						           translation="0.000000 0.000000 0.000000"
						           scale="1.000000 1.000000 1.000000"
						           rotation="0.000000 1.000000 0.000000 0.000000"
						           >
							<Group DEF="group_ME_Cube_020">
								<Shape>
									<Appearance>
										<Material USE="MA_Body" />
									</Appearance>
									<IndexedTriangleSet solid="false"
									                    normalPerVertex="true"
									                    index="0 1 2 0 2 3 4 5 6 4 6 7 8 9 10 8 10 11 12 13 14 12 14 15 4 16 17 4 17 15 18 5 14 18 14 19 "
									                    >
										<Coordinate point="0.116049 0.056155 -0.114573 0.116049 0.113174 0.058923 0.116049 0.028510 0.086748 0.116049 -0.028510 -0.086748 0.116049 -0.028510 -0.086748 0.116049 0.028510 0.086748 -0.116049 0.028510 0.086748 -0.116049 -0.028510 -0.086748 -0.116049 -0.028510 -0.086748 -0.116049 0.028510 0.086748 -0.116049 0.113174 0.058923 -0.116049 0.056155 -0.114573 -0.116049 0.056155 -0.114573 -0.116049 0.113174 0.058923 0.116049 0.113174 0.058923 0.116049 0.056155 -0.114573 -0.116049 -0.028510 -0.086748 -0.116049 0.056155 -0.114573 -0.116049 0.028510 0.086748 -0.116049 0.113174 0.058923 " />
										<Normal vector="0.577349 0.368206 -0.728721 0.577349 0.728721 0.368206 0.577349 -0.368206 0.728721 0.577349 -0.728721 -0.368206 0.577349 -0.728721 -0.368206 0.577349 -0.368206 0.728721 -0.577349 -0.368206 0.728721 -0.577349 -0.728721 -0.368206 -0.577349 -0.728721 -0.368206 -0.577349 -0.368206 0.728721 -0.577349 0.728721 0.368206 -0.577349 0.368206 -0.728721 -0.577349 0.368206 -0.728721 -0.577349 0.728721 0.368206 0.577349 0.728721 0.368206 0.577349 0.368206 -0.728721 -0.577349 -0.728721 -0.368206 -0.577349 0.368206 -0.728721 -0.577349 -0.368206 0.728721 -0.577349 0.728721 0.368206 " />
										<TextureCoordinate point="0.1142 0.0749 0.3838 0.0749 0.3838 0.3444 0.1142 0.3444 0.1142 0.0749 0.3838 0.0749 0.3838 0.3444 0.1142 0.3444 0.1142 0.0749 0.3838 0.0749 0.3838 0.3444 0.1142 0.3444 0.1142 0.0749 0.3838 0.0749 0.3838 0.3444 0.1142 0.3444 0.3838 0.0749 0.3838 0.3444 0.1142 0.0749 0.1142 0.3444 " />
									</IndexedTriangleSet>
								</Shape>
							</Group>
						</Transform>
					</Transform>
					<Transform DEF="Cube_020_TRANSFORM"
					           translation="-0.467959 -0.063808 0.064128"
					           scale="1.000000 1.000000 1.000000"
					           rotation="0.000000 1.000000 0.000000 0.000000"
					           >
						<Transform DEF="Cube_020_ifs_TRANSFORM"
						           translation="0.000000 0.000000 0.000000"
						           scale="1.000000 1.000000 1.000000"
						           rotation="0.000000 1.000000 0.000000 0.000000"
						           >
							<Group DEF="group_ME_Cube_022">
								<Shape>
									<Appearance>
										<Material USE="MA_Body" />
									</Appearance>
									<IndexedTriangleSet solid="false"
									                    normalPerVertex="true"
									                    index="0 1 2 0 2 3 4 5 6 4 6 7 8 9 10 8 10 11 12 13 14 12 14 15 4 16 17 4 17 15 18 5 14 18 14 19 "
									                    >
										<Coordinate point="-0.104197 -0.077751 0.017130 -0.104197 0.043394 0.066751 -0.078451 0.071060 -0.000796 -0.078451 -0.050084 -0.050416 -0.078451 -0.050084 -0.050416 -0.078451 0.071060 -0.000796 0.078451 0.050084 0.050416 0.078451 -0.071060 0.000796 0.078451 -0.071060 0.000796 0.078451 0.050084 0.050416 0.052705 0.022417 0.117963 0.052705 -0.098727 0.068342 0.052705 -0.098727 0.068342 0.052705 0.022417 0.117963 -0.104197 0.043394 0.066751 -0.104197 -0.077751 0.017130 0.078451 -0.071060 0.000796 0.052705 -0.098727 0.068342 0.078451 0.050084 0.050416 0.052705 0.022417 0.117963 " />
										<Normal vector="-0.736503 -0.667837 0.107273 -0.736503 0.400678 0.544939 -0.352428 0.813410 -0.462722 -0.352428 -0.255104 -0.900388 -0.352428 -0.255104 -0.900388 -0.352428 0.813410 -0.462722 0.736503 0.667837 -0.107273 0.736503 -0.400678 -0.544939 0.736503 -0.400678 -0.544939 0.736503 0.667837 -0.107273 0.352428 0.255104 0.900388 0.352428 -0.813410 0.462722 0.352428 -0.813410 0.462722 0.352428 0.255104 0.900388 -0.736503 0.400678 0.544939 -0.736503 -0.667837 0.107273 0.736503 -0.400678 -0.544939 0.352428 -0.813410 0.462722 0.736503 0.667837 -0.107273 0.352428 0.255104 0.900388 " />
										<TextureCoordinate point="0.1142 0.0749 0.3838 0.0749 0.3838 0.3444 0.1142 0.3444 0.1142 0.0749 0.3838 0.0749 0.3838 0.3444 0.1142 0.3444 0.1142 0.0749 0.3838 0.0749 0.3838 0.3444 0.1142 0.3444 0.1142 0.0749 0.3838 0.0749 0.3838 0.3444 0.1142 0.3444 0.3838 0.0749 0.3838 0.3444 0.1142 0.0749 0.1142 0.3444 " />
									</IndexedTriangleSet>
								</Shape>
							</Group>
						</Transform>
					</Transform>
				</Transform>
				<Transform DEF="Cube_007_TRANSFORM"
				           translation="-0.525245 -0.116996 0.019667"
				           scale="1.000000 1.000000 1.000000"
				           rotation="0.000000 1.000000 0.000000 0.000000"
				           >
					<Transform DEF="Cube_007_ifs_TRANSFORM"
					           translation="0.000000 0.000000 0.000000"
					           scale="1.000000 1.000000 1.000000"
					           rotation="0.000000 1.000000 0.000000 0.000000"
					           >
						<Group DEF="group_ME_Cube_019">
							<Shape>
								<Appearance>
									<Material USE="MA_Body" />
								</Appearance>
								<IndexedTriangleSet solid="false"
								                    normalPerVertex="true"
								                    index="0 1 2 0 2 3 4 5 6 4 6 7 8 9 10 8 10 11 12 13 14 12 14 15 4 16 17 4 17 15 18 5 14 18 14 19 "
								                    >
									<Coordinate point="-0.116049 -0.131087 -0.053036 -0.116049 -0.074068 0.120460 -0.116049 0.028510 0.086748 -0.116049 -0.028510 -0.086748 -0.116049 -0.028510 -0.086748 -0.116049 0.028510 0.086748 0.116049 0.028510 0.086748 0.116049 -0.028510 -0.086748 0.116049 -0.028510 -0.086748 0.116049 0.028510 0.086748 0.116049 -0.074068 0.120460 0.116049 -0.131087 -0.053036 0.116049 -0.131087 -0.053036 0.116049 -0.074068 0.120460 -0.116049 -0.074068 0.120460 -0.116049 -0.131087 -0.053036 0.116049 -0.028510 -0.086748 0.116049 -0.131087 -0.053036 0.116049 0.028510 0.086748 0.116049 -0.074068 0.120460 " />
									<Normal vector="-0.577349 -0.728721 -0.368206 -0.577349 -0.368206 0.728721 -0.577349 0.728721 0.368206 -0.577349 0.368206 -0.728721 -0.577349 0.368206 -0.728721 -0.577349 0.728721 0.368206 0.577349 0.728721 0.368206 0.577349 0.368206 -0.728721 0.577349 0.368206 -0.728721 0.577349 0.728721 0.368206 0.577349 -0.368206 0.728721 0.577349 -0.728721 -0.368206 0.577349 -0.728721 -0.368206 0.577349 -0.368206 0.728721 -0.577349 -0.368206 0.728721 -0.577349 -0.728721 -0.368206 0.577349 0.368206 -0.728721 0.577349 -0.728721 -0.368206 0.577349 0.728721 0.368206 0.577349 -0.368206 0.728721 " />
									<TextureCoordinate point="0.5929 0.0859 0.9190 0.0859 0.9190 0.4121 0.5929 0.4121 0.5929 0.0859 0.9190 0.0859 0.9190 0.4121 0.5929 0.4121 0.5929 0.0859 0.9190 0.0859 0.9190 0.4121 0.5929 0.4121 0.5929 0.0859 0.9190 0.0859 0.9190 0.4121 0.5929 0.4121 0.9190 0.0859 0.9190 0.4121 0.5929 0.0859 0.5929 0.4121 " />
								</IndexedTriangleSet>
							</Shape>
						</Group>
					</Transform>
				</Transform>
				<Transform DEF="Cube_019_TRANSFORM"
				           translation="-0.312094 0.053680 -0.179176"
				           scale="1.000000 1.000000 1.000000"
				           rotation="0.000000 1.000000 0.000000 0.000000"
				           >
					<Transform DEF="Cube_019_ifs_TRANSFORM"
					           translation="0.000000 0.000000 0.000000"
					           scale="1.000000 1.000000 1.000000"
					           rotation="0.000000 1.000000 0.000000 0.000000"
					           >
						<Group DEF="group_ME_Cube_021">
							<Shape>
								<Appearance>
									<Material USE="MA_Body" />
								</Appearance>
								<IndexedTriangleSet solid="false"
								                    normalPerVertex="true"
								                    index="0 1 2 0 2 3 4 5 6 4 6 7 8 9 10 8 10 11 12 13 14 12 14 15 4 16 17 4 17 15 18 5 14 18 14 19 "
								                    >
									<Coordinate point="0.078409 -0.014518 -0.084978 0.078409 0.085306 -0.012448 0.078409 0.049912 0.036265 0.078409 -0.049912 -0.036265 0.078409 -0.049912 -0.036265 0.078409 0.049912 0.036265 -0.078409 0.049912 0.036265 -0.078409 -0.049912 -0.036265 -0.078409 -0.049912 -0.036265 -0.078409 0.049912 0.036265 -0.078409 0.085306 -0.012448 -0.078409 -0.014518 -0.084978 -0.078409 -0.014518 -0.084978 -0.078409 0.085306 -0.012448 0.078409 0.085306 -0.012448 0.078409 -0.014518 -0.084978 -0.078409 -0.049912 -0.036265 -0.078409 -0.014518 -0.084978 -0.078409 0.049912 0.036265 -0.078409 0.085306 -0.012448 " />
									<Normal vector="0.577349 -0.127689 -0.806421 0.577349 0.806421 -0.127689 0.577349 0.127689 0.806421 0.577349 -0.806421 0.127689 0.577349 -0.806421 0.127689 0.577349 0.127689 0.806421 -0.577349 0.127689 0.806421 -0.577349 -0.806421 0.127689 -0.577349 -0.806421 0.127689 -0.577349 0.127689 0.806421 -0.577349 0.806421 -0.127689 -0.577349 -0.127689 -0.806421 -0.577349 -0.127689 -0.806421 -0.577349 0.806421 -0.127689 0.577349 0.806421 -0.127689 0.577349 -0.127689 -0.806421 -0.577349 -0.806421 0.127689 -0.577349 -0.127689 -0.806421 -0.577349 0.127689 0.806421 -0.577349 0.806421 -0.127689 " />
									<TextureCoordinate point="0.5929 0.0859 0.9190 0.0859 0.9190 0.4121 0.5929 0.4121 0.5929 0.0859 0.9190 0.0859 0.9190 0.4121 0.5929 0.4121 0.5929 0.0859 0.9190 0.0859 0.9190 0.4121 0.5929 0.4121 0.5929 0.0859 0.9190 0.0859 0.9190 0.4121 0.5929 0.4121 0.9190 0.0859 0.9190 0.4121 0.5929 0.0859 0.5929 0.4121 " />
								</IndexedTriangleSet>
							</Shape>
						</Group>
					</Transform>
				</Transform>
			</Transform>
			<Transform DEF="Cube_011_TRANSFORM"
			           translation="0.958884 0.060053 0.447884"
			           scale="1.000000 1.000000 1.000000"
			           rotation="0.000000 1.000000 0.000000 0.000000"
			           >
				<Transform DEF="Cube_011_ifs_TRANSFORM"
				           translation="0.000000 0.000000 0.000000"
				           scale="1.000000 1.000000 1.000000"
				           rotation="0.000000 1.000000 0.000000 0.000000"
				           >
					<Group DEF="group_ME_Cube_023">
						<Shape>
							<Appearance>
								<Material USE="MA_Body" />
							</Appearance>
							<IndexedTriangleSet solid="false"
							                    normalPerVertex="true"
							                    index="0 1 2 0 2 3 4 5 6 4 6 7 8 9 10 8 10 11 4 12 13 4 13 11 14 5 10 14 10 15 "
							                    >
								<Coordinate point="-0.000670 -0.220468 -0.218085 0.044829 -0.215863 0.218085 0.000670 0.220468 0.218085 -0.044829 0.215863 -0.218085 -0.044829 0.215863 -0.218085 0.000670 0.220468 0.218085 0.274777 0.248209 0.189198 0.229278 0.243604 -0.246971 0.273438 -0.192727 -0.246971 0.318936 -0.188122 0.189198 0.044829 -0.215863 0.218085 -0.000670 -0.220468 -0.218085 0.229278 0.243604 -0.246971 0.273438 -0.192727 -0.246971 0.274777 0.248209 0.189198 0.318936 -0.188122 0.189198 " />
								<Normal vector="-0.573046 -0.638295 -0.513993 -0.453230 -0.626148 0.634388 -0.569506 0.522660 0.634388 -0.689291 0.510514 -0.513993 -0.689291 0.510514 -0.513993 -0.569506 0.522660 0.634388 0.002136 0.710929 0.703238 -0.144536 0.696066 -0.703238 -0.002136 -0.710929 -0.703238 0.144536 -0.696066 0.703238 -0.453230 -0.626148 0.634388 -0.573046 -0.638295 -0.513993 -0.144536 0.696066 -0.703238 -0.002136 -0.710929 -0.703238 0.002136 0.710929 0.703238 0.144536 -0.696066 0.703238 " />
								<TextureCoordinate point="0.0581 0.5700 0.4399 0.5700 0.4399 0.9517 0.0581 0.9517 0.0581 0.5700 0.4399 0.5700 0.4399 0.9517 0.0581 0.9517 0.0581 0.5700 0.4399 0.5700 0.4399 0.9517 0.0581 0.9517 0.4399 0.5700 0.4399 0.9517 0.0581 0.5700 0.0581 0.9517 " />
							</IndexedTriangleSet>
						</Shape>
					</Group>
				</Transform>
			</Transform>
			<Transform DEF="Cube_013_TRANSFORM"
			           translation="-0.974824 0.084636 0.466300"
			           scale="1.000000 1.000000 1.000000"
			           rotation="0.000000 1.000000 0.000000 0.000000"
			           >
				<Transform DEF="Cube_013_ifs_TRANSFORM"
				           translation="0.000000 0.000000 0.000000"
				           scale="1.000000 1.000000 1.000000"
				           rotation="0.000000 1.000000 0.000000 0.000000"
				           >
					<Group DEF="group_ME_Cube_024">
						<Shape>
							<Appearance>
								<Material USE="MA_Body" />
							</Appearance>
							<IndexedTriangleSet solid="false"
							                    normalPerVertex="true"
							                    index="0 1 2 0 2 3 4 5 6 4 6 7 8 9 10 8 10 11 4 9 12 4 12 13 14 15 10 14 10 7 "
							                    >
								<Coordinate point="0.048596 -0.219280 -0.213827 0.048596 0.219280 -0.213827 -0.048596 0.219280 0.213827 -0.048596 -0.219280 0.213827 0.048596 0.219280 -0.213827 -0.221533 0.219280 -0.275219 -0.318726 0.219280 0.152435 -0.048596 0.219280 0.213827 -0.221533 -0.219280 -0.275219 0.048596 -0.219280 -0.213827 -0.048596 -0.219280 0.213827 -0.318726 -0.219280 0.152435 -0.221533 -0.219280 -0.275219 -0.221533 0.219280 -0.275219 -0.318726 0.219280 0.152435 -0.318726 -0.219280 0.152435 " />
								<Normal vector="0.690939 -0.577349 -0.435041 0.690939 0.577349 -0.435041 0.435041 0.577349 0.690939 0.435041 -0.577349 0.690939 0.690939 0.577349 -0.435041 0.156682 0.707083 -0.689505 -0.156682 0.707083 0.689505 0.435041 0.577349 0.690939 0.156682 -0.707083 -0.689505 0.690939 -0.577349 -0.435041 0.435041 -0.577349 0.690939 -0.156682 -0.707083 0.689505 0.156682 -0.707083 -0.689505 0.156682 0.707083 -0.689505 -0.156682 0.707083 0.689505 -0.156682 -0.707083 0.689505 " />
								<TextureCoordinate point="0.0581 0.5700 0.0581 0.9517 0.4399 0.9517 0.4399 0.5700 0.0581 0.5700 0.0581 0.9517 0.4399 0.9517 0.4399 0.5700 0.0581 0.5700 0.0581 0.9517 0.4399 0.9517 0.4399 0.5700 0.4399 0.9517 0.4399 0.5700 0.0581 0.5700 0.0581 0.9517 " />
							</IndexedTriangleSet>
						</Shape>
					</Group>
				</Transform>
			</Transform>
			<Transform DEF="foot1_TRANSFORM"
			           translation="0.479590 0.000000 0.012653"
			           scale="1.000000 1.000000 1.000000"
			           rotation="0.000000 1.000000 0.000000 0.000000"
			           >
				<Transform DEF="foot1_ifs_TRANSFORM"
				           translation="0.000000 0.000000 0.000000"
				           scale="1.000000 1.000000 1.000000"
				           rotation="0.000000 1.000000 0.000000 0.000000"
				           >
					<Group DEF="group_ME_foot1">
						<Shape>
							<Appearance>
								<Material USE="MA_Body" />
							</Appearance>
							<IndexedTriangleSet solid="false"
							                    normalPerVertex="true"
							                    index="0 1 2 0 2 3 4 5 6 4 6 7 8 9 10 8 10 11 12 13 14 12 14 15 4 16 17 4 17 15 18 5 14 18 14 19 "
							                    >
								<Coordinate point="-0.159161 -0.410108 -0.107845 -0.159161 -0.410108 0.000000 -0.159161 0.257066 0.000000 -0.159161 0.257066 -0.107845 -0.159161 0.257066 -0.107845 -0.159161 0.257066 0.000000 0.159161 0.257066 0.000000 0.159161 0.257066 -0.107845 0.159161 0.257066 -0.107845 0.159161 0.257066 0.000000 0.159161 -0.410108 0.000000 0.159161 -0.410108 -0.107845 0.159161 -0.410108 -0.107845 0.159161 -0.410108 0.000000 -0.159161 -0.410108 0.000000 -0.159161 -0.410108 -0.107845 0.159161 0.257066 -0.107845 0.159161 -0.410108 -0.107845 0.159161 0.257066 0.000000 0.159161 -0.410108 0.000000 " />
								<Normal vector="-0.577349 -0.577349 -0.577349 -0.577349 -0.577349 0.577349 -0.577349 0.577349 0.577349 -0.577349 0.577349 -0.577349 -0.577349 0.577349 -0.577349 -0.577349 0.577349 0.577349 0.577349 0.577349 0.577349 0.577349 0.577349 -0.577349 0.577349 0.577349 -0.577349 0.577349 0.577349 0.577349 0.577349 -0.577349 0.577349 0.577349 -0.577349 -0.577349 0.577349 -0.577349 -0.577349 0.577349 -0.577349 0.577349 -0.577349 -0.577349 0.577349 -0.577349 -0.577349 -0.577349 0.577349 0.577349 -0.577349 0.577349 -0.577349 -0.577349 0.577349 0.577349 0.577349 0.577349 -0.577349 0.577349 " />
								<TextureCoordinate point="0.0581 0.5700 0.4399 0.5700 0.4399 0.9517 0.0581 0.9517 0.0581 0.5700 0.4399 0.5700 0.4399 0.9517 0.0581 0.9517 0.0581 0.5700 0.4399 0.5700 0.4399 0.9517 0.0581 0.9517 0.0581 0.5700 0.4399 0.5700 0.4399 0.9517 0.0581 0.9517 0.4399 0.5700 0.4399 0.9517 0.0581 0.5700 0.0581 0.9517 " />
							</IndexedTriangleSet>
						</Shape>
					</Group>
				</Transform>
			</Transform>
			<Transform DEF="foot2_TRANSFORM"
			           translation="-0.479590 0.000000 0.012653"
			           scale="1.000000 1.000000 1.000000"
			           rotation="0.000000 1.000000 0.000000 0.000000"
			           >
				<Transform DEF="foot2_ifs_TRANSFORM"
				           translation="0.000000 0.000000 0.000000"
				           scale="1.000000 1.000000 1.000000"
				           rotation="0.000000 1.000000 0.000000 0.000000"
				           >
					<Group DEF="group_ME_foot2">
						<Shape>
							<Appearance>
								<Material USE="MA_Body" />
							</Appearance>
							<IndexedTriangleSet solid="false"
							                    normalPerVertex="true"
							                    index="0 1 2 0 2 3 4 5 6 4 6 7 8 9 10 8 10 11 12 13 14 12 14 15 4 13 16 4 16 17 18 19 14 18 14 7 "
							                    >
								<Coordinate point="0.159161 -0.410108 -0.107845 0.159161 0.257066 -0.107845 0.159161 0.257066 0.000000 0.159161 -0.410108 -0.000000 0.159161 0.257066 -0.107845 -0.159161 0.257066 -0.107845 -0.159161 0.257066 0.000000 0.159161 0.257066 0.000000 -0.159161 0.257066 -0.107845 -0.159161 -0.410108 -0.107845 -0.159161 -0.410108 -0.000000 -0.159161 0.257066 0.000000 -0.159161 -0.410108 -0.107845 0.159161 -0.410108 -0.107845 0.159161 -0.410108 -0.000000 -0.159161 -0.410108 -0.000000 -0.159161 -0.410108 -0.107845 -0.159161 0.257066 -0.107845 -0.159161 0.257066 0.000000 -0.159161 -0.410108 -0.000000 " />
								<Normal vector="0.577349 -0.577349 -0.577349 0.577349 0.577349 -0.577349 0.577349 0.577349 0.577349 0.577349 -0.577349 0.577349 0.577349 0.577349 -0.577349 -0.577349 0.577349 -0.577349 -0.577349 0.577349 0.577349 0.577349 0.577349 0.577349 -0.577349 0.577349 -0.577349 -0.577349 -0.577349 -0.577349 -0.577349 -0.577349 0.577349 -0.577349 0.577349 0.577349 -0.577349 -0.577349 -0.577349 0.577349 -0.577349 -0.577349 0.577349 -0.577349 0.577349 -0.577349 -0.577349 0.577349 -0.577349 -0.577349 -0.577349 -0.577349 0.577349 -0.577349 -0.577349 0.577349 0.577349 -0.577349 -0.577349 0.577349 " />
								<TextureCoordinate point="0.0581 0.5700 0.0581 0.9517 0.4399 0.9517 0.4399 0.5700 0.0581 0.5700 0.0581 0.9517 0.4399 0.9517 0.4399 0.5700 0.0581 0.5700 0.0581 0.9517 0.4399 0.9517 0.4399 0.5700 0.0581 0.5700 0.0581 0.9517 0.4399 0.9517 0.4399 0.5700 0.4399 0.9517 0.4399 0.5700 0.0581 0.5700 0.0581 0.9517 " />
							</IndexedTriangleSet>
						</Shape>
					</Group>
				</Transform>
			</Transform>
		</Transform>
	</Scene>
</X3D>