<?xml version="1.0" encoding="UTF-8"?>
<!DOCTYPE X3D PUBLIC "ISO//Web3D//DTD X3D 3.0//EN" "http://www.web3d.org/specifications/x3d-3.0.dtd">
<X3D version="3.0" profile="Immersive" xmlns:xsd="http://www.w3.org/2001/XMLSchema-instance" xsd:noNamespaceSchemaLocation="http://www.web3d.org/specifications/x3d-3.0.xsd">
	<head>
		<meta name="filename" content="turtwig.x3d" />
		<meta name="generator" content="Blender 2.93.18" />
	</head>
	<Scene>
		<NavigationInfo headlight="true"
		                visibilityLimit="0.0"
		                type='"EXAMINE", "ANY"'
		                avatarSize="0.25, 1.75, 0.75"
		                />
		<Background DEF="WO_World"
		            groundColor="0.051 0.051 0.051"
		            skyColor="0.051 0.051 0.051"
		            />
		<Transform DEF="body_TRANSFORM"
		           translation="0.000000 -0.092127 0.325986"
		           scale="1.000000 1.000000 1.000000"
		           rotation="0.000000 0.000000 1.000000 3.141593"
		           >
			<Transform DEF="body_ifs_TRANSFORM"
			           translation="0.000000 0.000000 0.000000"
			           scale="1.000000 1.000000 1.000000"
			           rotation="0.000000 1.000000 0.000000 0.000000"
			           >
				<Group DEF="group_ME_body">
					<Shape>
						<Appearance>
							<Material DEF="MA_Body"
							          diffuseColor="0.800 0.800 0.800"
							          specularColor="0.401 0.401 0.401"
							          emissiveColor="0.000 0.000 0.000"
							          ambientIntensity="0.000"
							          shininess="0.500"
							          transparency="0.0"
							          />
						</Appearance>
						<IndexedTriangleSet solid="false"
						                    normalPerVertex="true"
						                    index="0 1 2 0 2 3 4 5 6 4 6 7 8 9 10 8 10 11 12 13 14 12 14 15 4 16 17 4 17 15 18 5 14 18 14 19 "
						                    >
							<Coordinate point="-0.919286 -1.265386 0.000000 -0.919286 -1.265386 0.888960 -0.919286 1.265386 0.888960 -0.919286 1.265386 0.000000 -0.919286 1.265386 0.000000 -0.919286 1.265386 0.888960 0.919286 1.265386 0.888960 0.919286 1.265386 0.000000 0.919286 1.265386 0.000000 0.919286 1.265386 0.888960 0.919286 -1.265386 0.888960 0.919286 -1.265386 0.000000 0.919286 -1.265386 0.000000 0.919286 -1.265386 0.888960 -0.919286 -1.265386 0.888960 -0.919286 -1.265386 0.000000 0.919286 1.265386 0.000000 0.919286 -1.265386 0.000000 0.919286 1.265386 0.888960 0.919286 -1.265386 0.888960 " />
							<Normal vector="-0.577349 -0.577349 -0.577349 -0.577349 -0.577349 0.577349 -0.577349 0.577349 0.577349 -0.577349 0.577349 -0.577349 -0.577349 0.577349 -0.577349 -0.577349 0.577349 0.577349 0.577349 0.577349 0.577349 0.577349 0.577349 -0.577349 0.577349 0.577349 -0.577349 0.577349 0.577349 0.577349 0.577349 -0.577349 0.577349 0.577349 -0.577349 -0.577349 0.577349 -0.577349 -0.577349 0.577349 -0.577349 0.577349 -0.577349 -0.577349 0.577349 -0.577349 -0.577349 -0.577349 0.577349 0.577349 -0.577349 0.577349 -0.577349 -0.577349 0.577349 0.577349 0.577349 0.577349 -0.577349 0.577349 " />
							<TextureCoordinate point="0.0242 0.7686 0.4772 0.7686 0.4772 0.9853 0.0242 0.9853 0.0242 0.7686 0.4772 0.7686 0.4772 0.9853 0.0242 0.9853 0.0242 0.7686 0.4772 0.7686 0.4772 0.9853 0.0242 0.9853 0.0242 0.7686 0.4772 0.7686 0.4772 0.9853 0.0242 0.9853 0.4772 0.7686 0.4772 0.9853 0.0242 0.7686 0.0242 0.9853 " />
						</IndexedTriangleSet>
					</Shape>
				</Group>
			</Transform>
			<Transform DEF="Cube_001_TRANSFORM"
			           translation="0.000000 0.187088 0.714336"
			           scale="1.000000 1.000000 1.000000"
			           rotation="0.000000 1.000000 0.000000 0.000000"
			           >
				<Transform DEF="Cube_001_ifs_TRANSFORM"
				           translation="0.000000 0.000000 0.000000"
				           scale="1.000000 1.000000 1.000000"
				           rotation="0.000000 1.000000 0.000000 0.000000"
				           >
					<Group DEF="group_ME_Cube_001">
						<Shape>
							<Appearance>
								<Material USE="MA_Body" />
							</Appearance>
							<IndexedTriangleSet solid="false"
							                    normalPerVertex="true"
							                    index="0 1 2 0 2 3 4 5 6 4 6 7 8 9 10 8 10 11 12 13 14 12 14 15 4 16 17 4 17 15 18 5 14 18 14 19 "
							                    >
								<Coordinate point="-1.149873 -1.166314 0.000000 -1.149873 -1.166314 0.352566 -1.149873 1.166314 0.352566 -1.149873 1.166314 0.000000 -1.149873 1.166314 0.000000 -1.149873 1.166314 0.352566 1.149873 1.166314 0.352566 1.149873 1.166314 0.000000 1.149873 1.166314 0.000000 1.149873 1.166314 0.352566 1.149873 -1.166314 0.352566 1.149873 -1.166314 0.000000 1.149873 -1.166314 0.000000 1.149873 -1.166314 0.352566 -1.149873 -1.166314 0.352566 -1.149873 -1.166314 0.000000 1.149873 1.166314 0.000000 1.149873 -1.166314 0.000000 1.149873 1.166314 0.352566 1.149873 -1.166314 0.352566 " />
								<Normal vector="-0.577349 -0.577349 -0.577349 -0.577349 -0.577349 0.577349 -0.577349 0.577349 0.577349 -0.577349 0.577349 -0.577349 -0.577349 0.577349 -0.577349 -0.577349 0.577349 0.577349 0.577349 0.577349 0.577349 0.577349 0.577349 -0.577349 0.577349 0.577349 -0.577349 0.577349 0.577349 0.577349 0.577349 -0.577349 0.577349 0.577349 -0.577349 -0.577349 0.577349 -0.577349 -0.577349 0.577349 -0.577349 0.577349 -0.577349 -0.577349 0.577349 -0.577349 -0.577349 -0.577349 0.577349 0.577349 -0.577349 0.577349 -0.577349 -0.577349 0.577349 0.577349 0.577349 0.577349 -0.577349 0.577349 " />
								<TextureCoordinate point="0.5262 0.5222 0.9792 0.5222 0.9792 0.6411 0.5262 0.6411 0.5262 0.5222 0.9792 0.5222 0.9792 0.6411 0.5262 0.6411 0.5262 0.5222 0.9792 0.5222 0.9792 0.6411 0.5262 0.6411 0.5262 0.5222 0.9792 0.5222 0.9792 0.6411 0.5262 0.6411 0.9792 0.5222 0.9792 0.6411 0.5262 0.5222 0.5262 0.6411 " />
							</IndexedTriangleSet>
						</Shape>
					</Group>
				</Transform>
				<Transform DEF="Cube_002_TRANSFORM"
				           translation="0.000000 -0.015709 0.269097"
				           scale="1.000000 1.000000 1.000000"
				           rotation="0.000000 1.000000 0.000000 0.000000"
				           >
					<Transform DEF="Cube_002_ifs_TRANSFORM"
					           translation="0.000000 0.000000 0.000000"
					           scale="1.000000 1.000000 1.000000"
					           rotation="0.000000 1.000000 0.000000 0.000000"
					           >
						<Group DEF="group_ME_Cube_002">
							<Shape>
								<Appearance>
									<Material USE="MA_Body" />
								</Appearance>
								<IndexedTriangleSet solid="false"
								                    normalPerVertex="true"
								                    index="0 1 2 0 2 3 4 5 6 4 6 7 8 9 10 8 10 11 12 13 14 12 14 15 4 16 17 4 17 15 18 5 14 18 14 19 "
								                    >
									<Coordinate point="-1.049586 -1.012112 0.000000 -1.049586 -1.012112 0.902605 -1.049586 1.012112 0.902605 -1.049586 1.012112 0.000000 -1.049586 1.012112 0.000000 -1.049586 1.012112 0.902605 1.049586 1.012112 0.902605 1.049586 1.012112 0.000000 1.049586 1.012112 0.000000 1.049586 1.012112 0.902605 1.049586 -1.012112 0.902605 1.049586 -1.012112 0.000000 1.049586 -1.012112 0.000000 1.049586 -1.012112 0.902605 -1.049586 -1.012112 0.902605 -1.049586 -1.012112 0.000000 1.049586 1.012112 0.000000 1.049586 -1.012112 0.000000 1.049586 1.012112 0.902605 1.049586 -1.012112 0.902605 " />
									<Normal vector="-0.577349 -0.577349 -0.577349 -0.577349 -0.577349 0.577349 -0.577349 0.577349 0.577349 -0.577349 0.577349 -0.577349 -0.577349 0.577349 -0.577349 -0.577349 0.577349 0.577349 0.577349 0.577349 0.577349 0.577349 0.577349 -0.577349 0.577349 0.577349 -0.577349 0.577349 0.577349 0.577349 0.577349 -0.577349 0.577349 0.577349 -0.577349 -0.577349 0.577349 -0.577349 -0.577349 0.577349 -0.577349 0.577349 -0.577349 -0.577349 0.577349 -0.577349 -0.577349 -0.577349 0.577349 0.577349 -0.577349 0.577349 -0.577349 -0.577349 0.577349 0.577349 0.577349 0.577349 -0.577349 0.577349 " />
									<TextureCoordinate point="0.0242 0.5176 0.4772 0.5176 0.4772 0.7343 0.0242 0.7343 0.0242 0.5176 0.4772 0.5176 0.4772 0.7343 0.0242 0.7343 0.0242 0.5176 0.4772 0.5176 0.4772 0.7343 0.0242 0.7343 0.0242 0.5176 0.4772 0.5176 0.4772 0.7343 0.0242 0.7343 0.4772 0.5176 0.4772 0.7343 0.0242 0.5176 0.0242 0.7343 " />
								</IndexedTriangleSet>
							</Shape>
						</Group>
					</Transform>
				</Transform>
				<Transform DEF="Cube_003_TRANSFORM"
				           translation="0.000000 -0.015709 0.269097"
				           scale="1.000000 1.000000 1.000000"
				           rotation="0.000000 1.000000 0.000000 0.000000"
				           >
					<Transform DEF="Cube_003_ifs_TRANSFORM"
					           translation="0.000000 0.000000 0.000000"
					           scale="1.000000 1.000000 1.000000"
					           rotation="0.000000 1.000000 0.000000 0.000000"
					           >
						<Group DEF="group_ME_Cube_003">
							<Shape>
								<Appearance>
									<Material USE="MA_Body" />
								</Appearance>
								<IndexedTriangleSet solid="false"
								                    normalPerVertex="true"
								                    index="0 1 2 0 2 3 4 5 6 4 6 7 8 9 10 8 10 11 12 13 14 12 14 15 4 16 17 4 17 15 18 5 14 18 14 19 "
								                    >
									<Coordinate point="-1.107159 -0.146414 0.000000 -1.107159 -0.146414 0.966293 -1.107159 0.146414 0.966293 -1.107159 0.146414 0.000000 -1.107159 0.146414 0.000000 -1.107159 0.146414 0.966293 1.107159 0.146414 0.966293 1.107159 0.146414 0.000000 1.107159 0.146414 0.000000 1.107159 0.146414 0.966293 1.107159 -0.146414 0.966293 1.107159 -0.146414 0.000000 1.107159 -0.146414 0.000000 1.107159 -0.146414 0.966293 -1.107159 -0.146414 0.966293 -1.107159 -0.146414 0.000000 1.107159 0.146414 0.000000 1.107159 -0.146414 0.000000 1.107159 0.146414 0.966293 1.107159 -0.146414 0.966293 " />
									<Normal vector="-0.577349 -0.577349 -0.577349 -0.577349 -0.577349 0.577349 -0.577349 0.577349 0.577349 -0.577349 0.577349 -0.577349 -0.577349 0.577349 -0.577349 -0.577349 0.577349 0.577349 0.577349 0.577349 0.577349 0.577349 0.577349 -0.577349 0.577349 0.577349 -0.577349 0.577349 0.577349 0.577349 0.577349 -0.577349 0.577349 0.577349 -0.577349 -0.577349 0.577349 -0.577349 -0.577349 0.577349 -0.577349 0.577349 -0.577349 -0.577349 0.577349 -0.577349 -0.577349 -0.577349 0.577349 0.577349 -0.577349 0.577349 -0.577349 -0.577349 0.577349 0.577349 0.577349 0.577349 -0.577349 0.577349 " />
									<TextureCoordinate point="0.5262 0.5222 0.9792 0.5222 0.9792 0.6411 0.5262 0.6411 0.5262 0.5222 0.9792 0.5222 0.9792 0.6411 0.5262 0.6411 0.5262 0.5222 0.9792 0.5222 0.9792 0.6411 0.5262 0.6411 0.5262 0.5222 0.9792 0.5222 0.9792 0.6411 0.5262 0.6411 0.9792 0.5222 0.9792 0.6411 0.5262 0.5222 0.5262 0.6411 " />
								</IndexedTriangleSet>
							</Shape>
						</Group>
					</Transform>
				</Transform>
			</Transform>
			<Transform DEF="Cube_004_TRANSFORM"
			           translation="0.000000 -0.840478 0.714336"
			           scale="1.000000 1.000000 1.000000"
			           rotation="0.000000 1.000000 0.000000 0.000000"
			           >
				<Transform DEF="Cube_004_ifs_TRANSFORM"
				           translation="0.000000 0.000000 0.000000"
				           scale="1.000000 1.000000 1.000000"
				           rotation="0.000000 1.000000 0.000000 0.000000"
				           >
					<Group DEF="group_ME_Cube_004">
						<Shape>
							<Appearance>
								<Material USE="MA_Body" />
							</Appearance>
							<IndexedTriangleSet solid="false"
							                    normalPerVertex="true"
							                    index="0 1 2 0 2 3 4 5 6 4 6 7 8 9 10 8 10 11 12 13 14 12 14 15 4 16 17 4 17 15 18 5 14 18 14 19 "
							                    >
								<Coordinate point="-0.948450 -0.171118 -0.012162 -0.948450 -0.234895 0.885186 -0.948450 0.107341 0.909510 -0.948450 0.171118 0.012162 -0.948450 0.171118 0.012162 -0.948450 0.107341 0.909510 0.948450 0.107341 0.909510 0.948450 0.171118 0.012162 0.948450 0.171118 0.012162 0.948450 0.107341 0.909510 0.948450 -0.234895 0.885186 0.948450 -0.171118 -0.012162 0.948450 -0.171118 -0.012162 0.948450 -0.234895 0.885186 -0.948450 -0.234895 0.885186 -0.948450 -0.171118 -0.012162 0.948450 0.171118 0.012162 0.948450 -0.171118 -0.012162 0.948450 0.107341 0.909510 0.948450 -0.234895 0.885186 " />
								<Normal vector="-0.577349 -0.534959 -0.616810 -0.577349 -0.616810 0.534959 -0.577349 0.534959 0.616810 -0.577349 0.616810 -0.534959 -0.577349 0.616810 -0.534959 -0.577349 0.534959 0.616810 0.577349 0.534959 0.616810 0.577349 0.616810 -0.534959 0.577349 0.616810 -0.534959 0.577349 0.534959 0.616810 0.577349 -0.616810 0.534959 0.577349 -0.534959 -0.616810 0.577349 -0.534959 -0.616810 0.577349 -0.616810 0.534959 -0.577349 -0.616810 0.534959 -0.577349 -0.534959 -0.616810 0.577349 0.616810 -0.534959 0.577349 -0.534959 -0.616810 0.577349 0.534959 0.616810 0.577349 -0.616810 0.534959 " />
								<TextureCoordinate point="0.5262 0.5222 0.9792 0.5222 0.9792 0.6411 0.5262 0.6411 0.5262 0.5222 0.9792 0.5222 0.9792 0.6411 0.5262 0.6411 0.5262 0.5222 0.9792 0.5222 0.9792 0.6411 0.5262 0.6411 0.5262 0.5222 0.9792 0.5222 0.9792 0.6411 0.5262 0.6411 0.9792 0.5222 0.9792 0.6411 0.5262 0.5222 0.5262 0.6411 " />
							</IndexedTriangleSet>
						</Shape>
					</Group>
				</Transform>
			</Transform>
			<Transform DEF="neck_TRANSFORM"
			           translation="0.000000 -0.859145 1.045265"
			           scale="1.000000 1.000000 1.000000"
			           rotation="0.000000 1.000000 0.000000 0.000000"
			           >
				<Transform DEF="neck_ifs_TRANSFORM"
				           translation="0.000000 0.000000 0.000000"
				           scale="1.000000 1.000000 1.000000"
				           rotation="0.000000 1.000000 0.000000 0.000000"
				           >
					<Group DEF="group_ME_neck">
						<Shape>
							<Appearance>
								<Material USE="MA_Body" />
							</Appearance>
							<IndexedTriangleSet solid="false"
							                    normalPerVertex="true"
							                    index="0 1 2 0 2 3 4 5 6 4 6 7 8 9 10 8 10 11 12 13 14 12 14 15 4 16 17 4 17 15 18 5 14 18 14 19 "
							                    >
								<Coordinate point="-0.519550 -0.716007 -0.351022 -0.519550 -0.455114 0.654793 -0.519550 0.130446 0.502908 -0.519550 -0.130446 -0.502908 -0.519550 -0.130446 -0.502908 -0.519550 0.130446 0.502908 0.519550 0.130446 0.502908 0.519550 -0.130446 -0.502908 0.519550 -0.130446 -0.502908 0.519550 0.130446 0.502908 0.519550 -0.455114 0.654793 0.519550 -0.716007 -0.351022 0.519550 -0.716007 -0.351022 0.519550 -0.455114 0.654793 -0.519550 -0.455114 0.654793 -0.519550 -0.716007 -0.351022 0.519550 -0.130446 -0.502908 0.519550 -0.716007 -0.351022 0.519550 0.130446 0.502908 0.519550 -0.455114 0.654793 " />
								<Normal vector="-0.577349 -0.703787 -0.413892 -0.577349 -0.413892 0.703787 -0.577349 0.703787 0.413892 -0.577349 0.413892 -0.703787 -0.577349 0.413892 -0.703787 -0.577349 0.703787 0.413892 0.577349 0.703787 0.413892 0.577349 0.413892 -0.703787 0.577349 0.413892 -0.703787 0.577349 0.703787 0.413892 0.577349 -0.413892 0.703787 0.577349 -0.703787 -0.413892 0.577349 -0.703787 -0.413892 0.577349 -0.413892 0.703787 -0.577349 -0.413892 0.703787 -0.577349 -0.703787 -0.413892 0.577349 0.413892 -0.703787 0.577349 -0.703787 -0.413892 0.577349 0.703787 0.413892 0.577349 -0.413892 0.703787 " />
								<TextureCoordinate point="0.0242 0.7686 0.4772 0.7686 0.4772 0.9853 0.0242 0.9853 0.0242 0.7686 0.4772 0.7686 0.4772 0.9853 0.0242 0.9853 0.0242 0.7686 0.4772 0.7686 0.4772 0.9853 0.0242 0.9853 0.0242 0.7686 0.4772 0.7686 0.4772 0.9853 0.0242 0.9853 0.4772 0.7686 0.4772 0.9853 0.0242 0.7686 0.0242 0.9853 " />
							</IndexedTriangleSet>
						</Shape>
					</Group>
				</Transform>
				<Transform DEF="head_TRANSFORM"
				           translation="0.000000 -0.088555 -0.171804"
				           scale="1.000000 1.000000 1.000000"
				           rotation="0.000000 1.000000 0.000000 0.000000"
				           >
					<Transform DEF="head_ifs_TRANSFORM"
					           translation="0.000000 0.000000 0.000000"
					           scale="1.000000 1.000000 1.000000"
					           rotation="0.000000 1.000000 0.000000 0.000000"
					           >
						<Group DEF="group_ME_head">
							<Shape>
								<Appearance>
									<Material USE="MA_Body" />
								</Appearance>
								<IndexedTriangleSet solid="false"
								                    normalPerVertex="true"
								                    index="0 1 2 0 2 3 4 5 6 4 6 7 8 9 10 8 10 11 12 13 14 12 14 15 16 17 18 16 18 19 20 1 14 20 14 21 22 23 24 22 24 25 26 27 28 26 28 29 30 31 32 30 32 33 34 35 36 34 36 37 31 4 7 31 7 32 35 0 3 35 3 36 38 39 8 38 8 27 40 41 35 40 35 34 42 38 27 42 27 26 43 44 1 43 1 20 45 46 17 45 17 16 39 47 9 39 9 8 48 49 1 48 1 0 50 51 52 50 52 34 51 45 16 51 16 52 53 54 55 53 55 56 54 43 20 54 20 55 57 58 59 57 59 60 60 59 4 60 4 31 61 62 12 61 12 23 50 57 60 50 60 63 63 60 31 63 31 30 64 65 61 64 61 66 66 61 23 66 23 22 56 55 67 56 67 68 55 20 21 55 21 67 34 52 69 34 69 25 52 16 19 52 19 69 70 71 72 70 72 62 62 72 13 62 13 12 58 44 73 58 73 59 59 73 5 59 5 4 "
								                    >
									<Coordinate point="-1.039498 -1.716321 1.443397 -1.039498 -1.663930 1.779508 -1.039498 0.231331 1.484085 -1.039498 0.178940 1.147974 0.531501 0.178940 1.147974 0.531501 0.231332 1.484085 1.039498 0.231331 1.484085 1.039498 0.178940 1.147974 1.039498 -1.716321 1.443397 1.039498 -1.663930 1.779508 1.039498 -2.042484 1.838515 1.039498 -2.094876 1.502404 -0.531501 -2.094876 1.502404 -0.531501 -2.042484 1.838515 -1.039498 -2.042484 1.838515 -1.039498 -2.094876 1.502404 0.531501 -1.895262 0.295424 1.039498 -1.895262 0.295424 1.039498 -2.273816 0.354431 0.531501 -2.273816 0.354431 -0.531501 -1.663930 1.779508 -0.531501 -2.042484 1.838515 -0.531501 -2.273816 0.354431 -0.531501 -2.261770 0.431707 -1.039498 -2.261770 0.431707 -1.039498 -2.273816 0.354431 1.039498 -1.895262 0.295424 1.039498 -1.883216 0.372700 1.039498 -2.261770 0.431707 1.039498 -2.273816 0.354431 0.531501 0.000000 -0.000000 0.531501 0.012046 0.077276 1.039498 0.012045 0.077276 1.039498 0.000000 0.000000 -1.039498 -1.895262 0.295424 -1.039498 -1.883216 0.372700 -1.039498 0.012045 0.077276 -1.039498 0.000000 0.000000 1.039498 0.012045 0.077276 1.039498 0.178940 1.147974 -1.039498 -2.273816 0.354431 -1.039498 -2.261770 0.431707 1.039498 0.000000 0.000000 -0.531501 0.231332 1.484085 -1.039498 0.231331 1.484085 0.531501 0.000000 -0.000000 1.039498 0.000000 0.000000 1.039498 0.231331 1.484085 -1.039498 -2.094876 1.502404 -1.039498 -2.042484 1.838515 -1.039498 0.000000 0.000000 -0.531501 0.000000 -0.000000 -0.531501 -1.895262 0.295424 1.039498 0.231331 1.484085 0.531501 0.231332 1.484085 0.531501 -1.663930 1.779508 1.039498 -1.663930 1.779508 -1.039498 0.012045 0.077276 -1.039498 0.178940 1.147974 -0.531501 0.178940 1.147974 -0.531501 0.012046 0.077276 0.531501 -2.261770 0.431707 0.531501 -2.094876 1.502404 -0.531501 0.000000 -0.000000 1.039498 -2.273816 0.354431 1.039498 -2.261770 0.431707 0.531501 -2.273816 0.354431 0.531501 -2.042484 1.838515 1.039498 -2.042484 1.838515 -0.531501 -2.273816 0.354431 1.039498 -2.094876 1.502404 1.039498 -2.042484 1.838515 0.531501 -2.042484 1.838515 -0.531501 0.231332 1.484085 " />
									<Normal vector="-1.000000 0.000000 0.000000 -0.707083 0.108890 0.698660 -0.577349 0.659352 0.481521 -0.707083 0.698660 -0.108890 0.000000 0.988067 -0.153996 0.000000 0.807550 0.589740 0.577349 0.659352 0.481521 0.707083 0.698660 -0.108890 1.000000 0.000000 0.000000 0.707083 0.108890 0.698660 0.577349 -0.481521 0.659352 0.707083 -0.698660 0.108890 0.000000 -0.988067 0.153996 0.000000 -0.589740 0.807550 -0.577349 -0.481521 0.659352 -0.707083 -0.698660 0.108890 0.000000 -0.153996 -0.988067 0.707083 -0.108890 -0.698660 0.577349 -0.659352 -0.481521 0.000000 -0.807550 -0.589740 0.000000 0.153996 0.988067 0.000000 -0.589740 0.807550 0.000000 -0.807550 -0.589740 0.000000 -0.988067 0.153996 -0.707083 -0.698660 0.108890 -0.577349 -0.659352 -0.481521 0.707083 -0.108890 -0.698660 1.000000 0.000000 0.000000 0.707083 -0.698660 0.108890 0.577349 -0.659352 -0.481521 0.000000 0.589740 -0.807550 0.000000 0.988067 -0.153996 0.707083 0.698660 -0.108890 0.577349 0.481521 -0.659352 -0.707083 -0.108890 -0.698660 -1.000000 0.000000 0.000000 -0.707083 0.698660 -0.108890 -0.577349 0.481521 -0.659352 0.707083 0.698660 -0.108890 0.707083 0.698660 -0.108890 -0.577349 -0.659352 -0.481521 -0.707083 -0.698660 0.108890 0.577349 0.481521 -0.659352 0.000000 0.807550 0.589740 -0.577349 0.659352 0.481521 0.000000 0.589740 -0.807550 0.577349 0.481521 -0.659352 0.577349 0.659352 0.481521 -0.707083 -0.698660 0.108890 -0.577349 -0.481521 0.659352 -0.577349 0.481521 -0.659352 0.000000 0.589740 -0.807550 0.000000 -0.153996 -0.988067 0.577349 0.659352 0.481521 0.000000 0.807550 0.589740 0.000000 0.153996 0.988067 0.707083 0.108890 0.698660 -0.707083 0.698660 -0.108890 -0.707083 0.698660 -0.108890 0.000000 0.988067 -0.153996 0.000000 0.988067 -0.153996 0.000000 -0.988067 0.153996 0.000000 -0.988067 0.153996 0.000000 0.589740 -0.807550 0.577349 -0.659352 -0.481521 0.707083 -0.698660 0.108890 0.000000 -0.807550 -0.589740 0.000000 -0.589740 0.807550 0.577349 -0.481521 0.659352 0.000000 -0.807550 -0.589740 0.707083 -0.698660 0.108890 0.577349 -0.481521 0.659352 0.000000 -0.589740 0.807550 0.000000 0.807550 0.589740 " />
									<TextureCoordinate point="0.3996 0.7994 0.4772 0.8770 0.4772 0.9853 0.3996 0.9853 0.3996 0.9131 0.4772 0.9131 0.4772 0.9853 0.3996 0.9853 0.3996 0.9546 0.4772 0.9546 0.4772 0.9853 0.3996 0.9853 0.3996 0.9131 0.4772 0.9131 0.4772 0.9853 0.3996 0.9853 0.3262 0.9287 0.4772 0.9546 0.4772 0.9853 0.3262 0.9853 0.3262 0.9028 0.3262 0.9853 0.0242 0.9131 0.1035 0.9131 0.1035 0.9853 0.0242 0.9853 0.0242 0.9546 0.1035 0.9546 0.1035 0.9853 0.0242 0.9853 0.0242 0.9131 0.1035 0.9131 0.1035 0.9853 0.0242 0.9853 0.0242 0.8770 0.1035 0.7994 0.1035 0.9853 0.0242 0.9853 0.1035 0.7686 0.3996 0.7686 0.0242 0.7686 0.1035 0.7686 0.0242 0.7686 0.3262 0.7686 0.4772 0.7686 0.3262 0.7686 0.4772 0.7686 0.4772 0.7686 0.3996 0.7686 0.4772 0.7686 0.0242 0.7686 0.1752 0.7686 0.1752 0.9028 0.0242 0.7686 0.1752 0.7686 0.1752 0.9287 0.0242 0.9546 0.1035 0.7686 0.3996 0.7686 0.3996 0.8408 0.1035 0.8408 0.1035 0.8408 0.3996 0.8408 0.0242 0.8408 0.0242 0.7686 0.1035 0.7686 0.0242 0.8408 0.1752 0.9853 0.0242 0.9853 0.1752 0.9853 0.3996 0.7686 0.4772 0.7686 0.4772 0.8408 0.4772 0.8408 " />
								</IndexedTriangleSet>
							</Shape>
							<Shape>
								<Appearance>
									<Material DEF="MA_Eye"
									          diffuseColor="0.800 0.800 0.800"
									          specularColor="0.401 0.401 0.401"
									          emissiveColor="0.000 0.000 0.000"
									          ambientIntensity="0.000"
									          shininess="0.500"
									          transparency="0.0"
									          />
								</Appearance>
								<IndexedTriangleSet solid="false"
								                    normalPerVertex="true"
								                    index="0 1 2 0 2 3 4 5 6 4 6 7 3 2 8 3 8 9 7 6 10 7 10 11 "
								                    >
									<Coordinate point="-0.531501 -2.261770 0.431707 -0.531501 -2.094876 1.502404 -1.039498 -2.094876 1.502404 -1.039498 -2.261770 0.431707 1.039498 -1.883216 0.372700 1.039498 -1.716321 1.443397 1.039498 -2.094876 1.502404 1.039498 -2.261770 0.431707 -1.039498 -1.716321 1.443397 -1.039498 -1.883216 0.372700 0.531501 -2.094876 1.502404 0.531501 -2.261770 0.431707 " />
									<Normal vector="0.000000 -0.988067 0.153996 0.000000 -0.988067 0.153996 -0.707083 -0.698660 0.108890 -0.707083 -0.698660 0.108890 1.000000 0.000000 0.000000 1.000000 0.000000 0.000000 0.707083 -0.698660 0.108890 0.707083 -0.698660 0.108890 -1.000000 0.000000 0.000000 -1.000000 0.000000 0.000000 0.000000 -0.988067 0.153996 0.000000 -0.988067 0.153996 " />
									<TextureCoordinate point="0.0700 0.0549 0.0700 0.9450 0.2910 0.9450 0.2910 0.0549 0.4298 0.0549 0.4298 0.9450 0.2910 0.9450 0.2910 0.0549 0.4298 0.9450 0.4298 0.0549 0.0700 0.9450 0.0700 0.0549 " />
								</IndexedTriangleSet>
							</Shape>
						</Group>
					</Transform>
					<Transform DEF="mouth_TRANSFORM"
					           translation="0.000000 -0.395116 0.456411"
					           scale="1.000000 1.000000 1.000000"
					           rotation="0.000000 1.000000 0.000000 0.000000"
					           >
						<Transform DEF="mouth_ifs_TRANSFORM"
						           translation="0.000000 0.000000 0.000000"
						           scale="1.000000 1.000000 1.000000"
						           rotation="0.000000 1.000000 0.000000 0.000000"
						           >
							<Group DEF="group_ME_mouth">
								<Shape>
									<Appearance>
										<Material USE="MA_Body" />
									</Appearance>
									<IndexedTriangleSet solid="false"
									                    normalPerVertex="true"
									                    index="0 1 2 0 2 3 4 5 6 4 6 7 8 9 10 8 10 11 12 13 14 12 14 15 4 16 17 4 17 15 18 5 14 18 14 19 "
									                    >
										<Coordinate point="-1.243509 -0.689350 -0.818862 -1.243509 -1.048539 0.215185 -1.243509 -0.179595 0.517023 -1.243509 0.179595 -0.517023 -1.243509 0.179595 -0.517023 -1.243509 -0.179595 0.517023 1.243509 -0.179595 0.517023 1.243509 0.179595 -0.517023 1.243509 0.179595 -0.517023 1.243509 -0.179595 0.517023 1.243509 -1.048539 0.215185 1.243509 -0.689350 -0.818862 1.243509 -0.689350 -0.818862 1.243509 -1.048539 0.215185 -1.243509 -1.048539 0.215185 -1.243509 -0.689350 -0.818862 1.243509 0.179595 -0.517023 1.243509 -0.689350 -0.818862 1.243509 -0.179595 0.517023 1.243509 -1.048539 0.215185 " />
										<Normal vector="-0.577349 -0.355937 -0.734825 -0.577349 -0.734825 0.355937 -0.577349 0.355937 0.734825 -0.577349 0.734825 -0.355937 -0.577349 0.734825 -0.355937 -0.577349 0.355937 0.734825 0.577349 0.355937 0.734825 0.577349 0.734825 -0.355937 0.577349 0.734825 -0.355937 0.577349 0.355937 0.734825 0.577349 -0.734825 0.355937 0.577349 -0.355937 -0.734825 0.577349 -0.355937 -0.734825 0.577349 -0.734825 0.355937 -0.577349 -0.734825 0.355937 -0.577349 -0.355937 -0.734825 0.577349 0.734825 -0.355937 0.577349 -0.355937 -0.734825 0.577349 0.355937 0.734825 0.577349 -0.734825 0.355937 " />
										<TextureCoordinate point="0.5262 0.7686 0.9792 0.7686 0.9792 0.9853 0.5262 0.9853 0.5262 0.7686 0.9792 0.7686 0.9792 0.9853 0.5262 0.9853 0.5262 0.7686 0.9792 0.7686 0.9792 0.9853 0.5262 0.9853 0.5262 0.7686 0.9792 0.7686 0.9792 0.9853 0.5262 0.9853 0.9792 0.7686 0.9792 0.9853 0.5262 0.7686 0.5262 0.9853 " />
									</IndexedTriangleSet>
								</Shape>
							</Group>
						</Transform>
						<Transform DEF="Cube_008_TRANSFORM"
						           translation="0.000000 -0.634561 -0.404676"
						           scale="1.000000 1.000000 1.000000"
						           rotation="0.000000 1.000000 0.000000 0.000000"
						           >
							<Transform DEF="Cube_008_ifs_TRANSFORM"
							           translation="0.000000 0.000000 0.000000"
							           scale="1.000000 1.000000 1.000000"
							           rotation="0.000000 1.000000 0.000000 0.000000"
							           >
								<Group DEF="group_ME_Cube_008">
									<Shape>
										<Appearance>
											<Material USE="MA_Body" />
										</Appearance>
										<IndexedTriangleSet solid="false"
										                    normalPerVertex="true"
										                    index="0 1 2 0 2 3 4 5 6 4 6 7 8 9 10 8 10 11 12 13 14 12 14 15 4 16 17 4 17 15 18 19 20 18 20 21 "
										                    >
											<Coordinate point="-1.035550 -0.906321 -0.321627 -1.035550 -0.905335 0.324393 -1.035550 0.000493 0.323010 -1.035550 -0.000493 -0.323010 -1.035550 -0.000493 -0.323010 -1.035550 0.000493 0.323010 1.035550 0.000493 0.323010 1.035550 -0.000493 -0.323010 1.035550 -0.000493 -0.323010 1.035550 0.000493 0.323010 1.035550 -0.905335 0.324393 1.035550 -0.906321 -0.321627 1.035550 -0.906321 -0.321627 1.035550 -0.905335 0.324393 -1.035550 -0.905335 0.324393 -1.035550 -0.906321 -0.321627 1.035550 -0.000493 -0.323010 1.035550 -0.906321 -0.321627 1.035550 0.000493 0.323010 -1.035550 0.000493 0.323010 -1.035550 -0.905335 0.324393 1.035550 -0.905335 0.324393 " />
											<Normal vector="-0.577349 -0.578204 -0.576464 -0.577349 -0.576464 0.578204 -0.577349 0.578204 0.576464 -0.577349 0.576464 -0.578204 -0.577349 0.576464 -0.578204 -0.577349 0.578204 0.576464 0.577349 0.578204 0.576464 0.577349 0.576464 -0.578204 0.577349 0.576464 -0.578204 0.577349 0.578204 0.576464 0.577349 -0.576464 0.578204 0.577349 -0.578204 -0.576464 0.577349 -0.578204 -0.576464 0.577349 -0.576464 0.578204 -0.577349 -0.576464 0.578204 -0.577349 -0.578204 -0.576464 0.577349 0.576464 -0.578204 0.577349 -0.578204 -0.576464 0.577349 0.578204 0.576464 -0.577349 0.578204 0.576464 -0.577349 -0.576464 0.578204 0.577349 -0.576464 0.578204 " />
											<TextureCoordinate point="0.5262 0.7686 0.9792 0.7686 0.9792 0.9853 0.5262 0.9853 0.5262 0.7686 0.9792 0.7686 0.9792 0.9853 0.5262 0.9853 0.5262 0.7686 0.9792 0.7686 0.9792 0.9853 0.5262 0.9853 0.5262 0.7686 0.9792 0.7686 0.9792 0.9853 0.5262 0.9853 0.9792 0.7686 0.9792 0.9853 0.5640 0.6648 0.7057 0.6648 0.7057 0.7326 0.5640 0.7326 " />
										</IndexedTriangleSet>
									</Shape>
								</Group>
							</Transform>
						</Transform>
					</Transform>
					<Transform DEF="Cube_009_TRANSFORM"
					           translation="0.000000 -2.071658 0.468202"
					           scale="1.000000 1.000000 1.000000"
					           rotation="0.000000 1.000000 0.000000 0.000000"
					           >
						<Transform DEF="Cube_009_ifs_TRANSFORM"
						           translation="0.000000 0.000000 0.000000"
						           scale="1.000000 1.000000 1.000000"
						           rotation="0.000000 1.000000 0.000000 0.000000"
						           >
							<Group DEF="group_ME_Cube_009">
								<Shape>
									<Appearance>
										<Material USE="MA_Body" />
									</Appearance>
									<IndexedTriangleSet solid="false"
									                    normalPerVertex="true"
									                    index="0 1 2 0 2 3 4 5 6 4 6 7 8 9 10 8 10 11 12 13 14 12 14 15 4 16 17 4 17 15 18 5 14 18 14 19 "
									                    >
										<Coordinate point="-0.580315 0.380275 -0.533547 -0.580315 0.094135 -0.648398 -0.580315 -0.143070 -0.057425 -0.580315 0.143070 0.057425 -0.580315 0.143070 0.057425 -0.580315 -0.143070 -0.057425 0.580315 -0.143070 -0.057425 0.580315 0.143070 0.057425 0.580315 0.143070 0.057425 0.580315 -0.143070 -0.057425 0.580315 0.094135 -0.648398 0.580315 0.380275 -0.533547 0.580315 0.380275 -0.533547 0.580315 0.094135 -0.648398 -0.580315 0.094135 -0.648398 -0.580315 0.380275 -0.533547 0.580315 0.143070 0.057425 0.580315 0.380275 -0.533547 0.580315 -0.143070 -0.057425 0.580315 0.094135 -0.648398 " />
										<Normal vector="-0.577349 0.750847 -0.320719 -0.577349 -0.320719 -0.750847 -0.577349 -0.750847 0.320719 -0.577349 0.320719 0.750847 -0.577349 0.320719 0.750847 -0.577349 -0.750847 0.320719 0.577349 -0.750847 0.320719 0.577349 0.320719 0.750847 0.577349 0.320719 0.750847 0.577349 -0.750847 0.320719 0.577349 -0.320719 -0.750847 0.577349 0.750847 -0.320719 0.577349 0.750847 -0.320719 0.577349 -0.320719 -0.750847 -0.577349 -0.320719 -0.750847 -0.577349 0.750847 -0.320719 0.577349 0.320719 0.750847 0.577349 0.750847 -0.320719 0.577349 -0.750847 0.320719 0.577349 -0.320719 -0.750847 " />
										<TextureCoordinate point="0.0242 0.7686 0.4772 0.7686 0.4772 0.9853 0.0242 0.9853 0.0242 0.7686 0.4772 0.7686 0.4772 0.9853 0.0242 0.9853 0.0242 0.7686 0.4772 0.7686 0.4772 0.9853 0.0242 0.9853 0.0242 0.7686 0.4772 0.7686 0.4772 0.9853 0.0242 0.9853 0.4772 0.7686 0.4772 0.9853 0.0242 0.7686 0.0242 0.9853 " />
									</IndexedTriangleSet>
								</Shape>
							</Group>
						</Transform>
					</Transform>
					<Transform DEF="Cube_010_TRANSFORM"
					           translation="0.000000 -0.835919 1.362476"
					           scale="1.000000 1.000000 1.000000"
					           rotation="0.000000 1.000000 0.000000 0.000000"
					           >
						<Transform DEF="Cube_010_ifs_TRANSFORM"
						           translation="0.000000 0.000000 0.000000"
						           scale="1.000000 1.000000 1.000000"
						           rotation="0.000000 1.000000 0.000000 0.000000"
						           >
							<Group DEF="group_ME_Cube_010">
								<Shape>
									<Appearance>
										<Material USE="MA_Body" />
									</Appearance>
									<IndexedTriangleSet solid="false"
									                    normalPerVertex="true"
									                    index="0 1 2 0 2 3 4 5 6 4 6 7 8 9 10 8 10 11 12 13 14 12 14 15 16 17 18 16 18 19 20 1 14 20 14 21 22 23 24 22 24 25 26 27 28 26 28 29 30 31 32 30 32 33 34 35 36 34 36 37 38 39 35 38 35 34 40 41 27 40 27 26 42 43 1 42 1 20 44 45 17 44 17 16 46 47 9 46 9 8 48 49 1 48 1 0 50 44 16 50 16 34 51 42 20 51 20 52 50 53 31 50 31 30 54 55 23 54 23 22 52 20 21 52 21 56 34 16 19 34 19 25 57 58 13 57 13 12 59 43 5 59 5 4 "
									                    >
										<Coordinate point="-0.775444 0.137968 0.497588 -0.775444 0.230772 0.832290 -0.775444 1.037209 0.608686 -0.775444 1.009302 0.508039 0.000000 0.944405 0.273984 0.000000 1.037209 0.608686 0.775444 1.037209 0.608686 0.775444 1.009302 0.508039 0.775444 0.137968 0.497588 0.775444 0.230772 0.832290 0.775444 -0.575665 1.055894 0.775444 -0.599395 0.970310 0.000000 -0.668469 0.721192 0.000000 -0.575665 1.055894 -0.775444 -0.575665 1.055894 -0.775444 -0.599395 0.970310 0.000000 0.000000 0.000000 0.775444 0.000000 0.000000 0.775444 -0.806437 0.223604 0.000000 -0.806437 0.223604 0.000000 0.230772 0.832290 0.000000 -0.575665 1.055894 0.000000 -0.806437 0.223604 0.000000 -0.668469 0.721192 -0.775444 -0.599395 0.970310 -0.775444 -0.806437 0.223604 0.775444 0.000000 0.000000 0.775444 0.137968 0.497588 0.775444 -0.599395 0.970310 0.775444 -0.806437 0.223604 0.000000 0.806437 -0.223604 0.000000 0.944405 0.273984 0.775444 1.009302 0.508039 0.775444 0.806437 -0.223604 -0.775444 0.000000 0.000000 -0.775444 0.137968 0.497588 -0.775444 1.009302 0.508039 -0.775444 0.806437 -0.223604 -0.775444 -0.806437 0.223604 -0.775444 -0.599395 0.970310 0.775444 0.806437 -0.223604 0.775444 1.009302 0.508039 0.000000 1.037209 0.608686 -0.775444 1.037209 0.608686 0.000000 0.806437 -0.223604 0.775444 0.806437 -0.223604 0.775444 1.009302 0.508039 0.775444 1.037209 0.608686 -0.775444 -0.599395 0.970310 -0.775444 -0.575665 1.055894 -0.775444 0.806437 -0.223604 0.775444 1.037209 0.608686 0.775444 0.230772 0.832290 -0.775444 1.009302 0.508039 0.775444 -0.806437 0.223604 0.775444 -0.599395 0.970310 0.775444 -0.575665 1.055894 0.775444 -0.599395 0.970310 0.775444 -0.575665 1.055894 -0.775444 1.009302 0.508039 " />
										<Normal vector="-1.000000 0.000000 0.000000 -0.707083 0.188910 0.681387 -0.577349 0.710593 0.402081 -0.707083 0.681387 -0.188910 0.000000 0.963622 -0.267190 0.000000 0.870327 0.492447 0.577349 0.710593 0.402081 0.707083 0.681387 -0.188910 1.000000 0.000000 0.000000 0.707083 0.188910 0.681387 0.577349 -0.402081 0.710624 0.707083 -0.681387 0.188910 0.000000 -0.963622 0.267190 0.000000 -0.492447 0.870327 -0.577349 -0.402081 0.710624 -0.707083 -0.681387 0.188910 0.000000 -0.267190 -0.963622 0.707083 -0.188910 -0.681387 0.577349 -0.710624 -0.402081 0.000000 -0.870327 -0.492447 0.000000 0.267190 0.963622 0.000000 -0.492447 0.870327 0.000000 -0.870327 -0.492447 0.000000 -0.963622 0.267190 -0.707083 -0.681387 0.188910 -0.577349 -0.710624 -0.402081 0.707083 -0.188910 -0.681387 1.000000 0.000000 0.000000 0.707083 -0.681387 0.188910 0.577349 -0.710624 -0.402081 0.000000 0.492447 -0.870327 0.000000 0.963622 -0.267190 0.707083 0.681387 -0.188910 0.577349 0.402081 -0.710624 -0.707083 -0.188910 -0.681387 -1.000000 0.000000 0.000000 -0.707083 0.681387 -0.188910 -0.577349 0.402081 -0.710624 -0.577349 -0.710624 -0.402081 -0.707083 -0.681387 0.188910 0.577349 0.402081 -0.710624 0.707083 0.681387 -0.188910 0.000000 0.870327 0.492447 -0.577349 0.710593 0.402081 0.000000 0.492447 -0.870327 0.577349 0.402081 -0.710624 0.707083 0.681387 -0.188910 0.577349 0.710593 0.402081 -0.707083 -0.681387 0.188910 -0.577349 -0.402081 0.710624 -0.577349 0.402081 -0.710624 0.577349 0.710593 0.402081 0.707083 0.188910 0.681387 -0.707083 0.681387 -0.188910 0.577349 -0.710624 -0.402081 0.707083 -0.681387 0.188910 0.577349 -0.402081 0.710624 0.707083 -0.681387 0.188910 0.577349 -0.402081 0.710624 -0.707083 0.681387 -0.188910 " />
										<TextureCoordinate point="0.0542 0.6251 0.4660 0.6251 0.4660 0.7247 0.0542 0.7247 0.0542 0.6251 0.4660 0.6251 0.4660 0.7247 0.0542 0.7247 0.0542 0.6251 0.4660 0.6251 0.4660 0.7247 0.0542 0.7247 0.0542 0.6251 0.4660 0.6251 0.4660 0.7247 0.0542 0.7247 0.2539 0.8716 0.4598 0.8716 0.4598 0.9712 0.2539 0.9712 0.2601 0.6251 0.2601 0.7247 0.0480 0.8716 0.4598 0.8716 0.4598 0.9712 0.0480 0.9712 0.0480 0.8716 0.4598 0.8716 0.4598 0.9712 0.0480 0.9712 0.0480 0.8716 0.4598 0.8716 0.4598 0.9712 0.0480 0.9712 0.0480 0.8716 0.4598 0.8716 0.4598 0.9712 0.0480 0.9712 0.0480 0.7720 0.4598 0.7720 0.0480 0.7720 0.4598 0.7720 0.2601 0.5255 0.4660 0.5255 0.2539 0.7720 0.4598 0.7720 0.0542 0.5255 0.4660 0.5255 0.0542 0.5255 0.4660 0.5255 0.0480 0.7720 0.0542 0.5255 0.0542 0.6251 0.4598 0.7720 0.0480 0.7720 0.4598 0.7720 0.0542 0.7247 0.0542 0.5255 0.4660 0.5255 0.0542 0.5255 " />
									</IndexedTriangleSet>
								</Shape>
							</Group>
						</Transform>
					</Transform>
					<Transform DEF="Cube_011_TRANSFORM"
					           translation="0.000000 -0.454799 2.081451"
					           scale="1.000000 1.000000 1.000000"
					           rotation="0.000000 1.000000 0.000000 0.000000"
					           >
						<Transform DEF="Cube_011_ifs_TRANSFORM"
						           translation="0.000000 0.000000 0.000000"
						           scale="1.000000 1.000000 1.000000"
						           rotation="0.000000 1.000000 0.000000 0.000000"
						           >
							<Group DEF="group_ME_Cube_011">
								<Shape>
									<Appearance>
										<Material USE="MA_Body" />
									</Appearance>
									<IndexedTriangleSet solid="false"
									                    normalPerVertex="true"
									                    index="0 1 2 0 2 3 4 5 6 4 6 7 8 9 10 8 10 11 12 13 14 12 14 15 4 16 17 4 17 15 18 5 14 18 14 19 "
									                    >
										<Coordinate point="-0.182861 -0.165304 0.053485 -0.182861 -0.099952 0.255468 -0.182861 0.230657 0.148498 -0.182861 0.165304 -0.053485 -0.182861 0.165304 -0.053485 -0.182861 0.230657 0.148498 0.182861 0.230657 0.148498 0.182861 0.165304 -0.053485 0.182861 0.165304 -0.053485 0.182861 0.230657 0.148498 0.182861 -0.099952 0.255468 0.182861 -0.165304 0.053485 0.182861 -0.165304 0.053485 0.182861 -0.099952 0.255468 -0.182861 -0.099952 0.255468 -0.182861 -0.165304 0.053485 0.182861 0.165304 -0.053485 0.182861 -0.165304 0.053485 0.182861 0.230657 0.148498 0.182861 -0.099952 0.255468 " />
										<Normal vector="-0.577349 -0.727042 -0.371563 -0.577349 -0.371563 0.727042 -0.577349 0.727042 0.371563 -0.577349 0.371563 -0.727042 -0.577349 0.371563 -0.727042 -0.577349 0.727042 0.371563 0.577349 0.727042 0.371563 0.577349 0.371563 -0.727042 0.577349 0.371563 -0.727042 0.577349 0.727042 0.371563 0.577349 -0.371563 0.727042 0.577349 -0.727042 -0.371563 0.577349 -0.727042 -0.371563 0.577349 -0.371563 0.727042 -0.577349 -0.371563 0.727042 -0.577349 -0.727042 -0.371563 0.577349 0.371563 -0.727042 0.577349 -0.727042 -0.371563 0.577349 0.727042 0.371563 0.577349 -0.371563 0.727042 " />
										<TextureCoordinate point="0.0193 0.5176 0.4723 0.5176 0.4723 0.7343 0.0193 0.7343 0.0193 0.5176 0.4723 0.5176 0.4723 0.7343 0.0193 0.7343 0.0193 0.5176 0.4723 0.5176 0.4723 0.7343 0.0193 0.7343 0.0193 0.5176 0.4723 0.5176 0.4723 0.7343 0.0193 0.7343 0.4723 0.5176 0.4723 0.7343 0.0193 0.5176 0.0193 0.7343 " />
									</IndexedTriangleSet>
								</Shape>
							</Group>
						</Transform>
						<Transform DEF="Cube_012_TRANSFORM"
						           translation="0.000000 0.068962 0.170387"
						           scale="1.000000 1.000000 1.000000"
						           rotation="0.000000 1.000000 0.000000 0.000000"
						           >
							<Transform DEF="Cube_012_ifs_TRANSFORM"
							           translation="0.000000 0.000000 0.000000"
							           scale="1.000000 1.000000 1.000000"
							           rotation="0.000000 1.000000 0.000000 0.000000"
							           >
								<Group DEF="group_ME_Cube_012">
									<Shape>
										<Appearance>
											<Material USE="MA_Body" />
										</Appearance>
										<IndexedTriangleSet solid="false"
										                    normalPerVertex="true"
										                    index="0 1 2 0 2 3 4 5 6 4 6 7 8 9 10 8 10 11 12 13 14 12 14 15 4 16 17 4 17 15 18 5 14 18 14 19 "
										                    >
											<Coordinate point="-0.128631 -0.114286 0.043305 -0.128631 -0.010943 0.316036 -0.128631 0.217630 0.229425 -0.128631 0.114286 -0.043305 -0.128631 0.114286 -0.043305 -0.128631 0.217630 0.229425 0.128631 0.217630 0.229425 0.128631 0.114286 -0.043305 0.128631 0.114286 -0.043305 0.128631 0.217630 0.229425 0.128631 -0.010943 0.316036 0.128631 -0.114286 0.043305 0.128631 -0.114286 0.043305 0.128631 -0.010943 0.316036 -0.128631 -0.010943 0.316036 -0.128631 -0.114286 0.043305 0.128631 0.114286 -0.043305 0.128631 -0.114286 0.043305 0.128631 0.217630 0.229425 0.128631 -0.010943 0.316036 " />
											<Normal vector="-0.577349 -0.744438 -0.335307 -0.577349 -0.335307 0.744438 -0.577349 0.744438 0.335307 -0.577349 0.335307 -0.744438 -0.577349 0.335307 -0.744438 -0.577349 0.744438 0.335307 0.577349 0.744438 0.335307 0.577349 0.335307 -0.744438 0.577349 0.335307 -0.744438 0.577349 0.744438 0.335307 0.577349 -0.335307 0.744438 0.577349 -0.744438 -0.335307 0.577349 -0.744438 -0.335307 0.577349 -0.335307 0.744438 -0.577349 -0.335307 0.744438 -0.577349 -0.744438 -0.335307 0.577349 0.335307 -0.744438 0.577349 -0.744438 -0.335307 0.577349 0.744438 0.335307 0.577349 -0.335307 0.744438 " />
											<TextureCoordinate point="0.0193 0.5176 0.4723 0.5176 0.4723 0.7343 0.0193 0.7343 0.0193 0.5176 0.4723 0.5176 0.4723 0.7343 0.0193 0.7343 0.0193 0.5176 0.4723 0.5176 0.4723 0.7343 0.0193 0.7343 0.0193 0.5176 0.4723 0.5176 0.4723 0.7343 0.0193 0.7343 0.4723 0.5176 0.4723 0.7343 0.0193 0.5176 0.0193 0.7343 " />
										</IndexedTriangleSet>
									</Shape>
								</Group>
							</Transform>
							<Transform DEF="Cube_013_TRANSFORM"
							           translation="0.000000 0.097031 0.256072"
							           scale="1.000000 1.000000 1.000000"
							           rotation="0.000000 1.000000 0.000000 0.000000"
							           >
								<Transform DEF="Cube_013_ifs_TRANSFORM"
								           translation="0.000000 0.000000 0.000000"
								           scale="1.000000 1.000000 1.000000"
								           rotation="0.000000 1.000000 0.000000 0.000000"
								           >
									<Group DEF="group_ME_Cube_013">
										<Shape>
											<Appearance>
												<Material USE="MA_Body" />
											</Appearance>
											<IndexedTriangleSet solid="false"
											                    normalPerVertex="true"
											                    index="0 1 2 0 2 3 4 5 6 4 6 7 8 9 10 8 10 11 12 13 14 12 14 15 4 16 17 4 17 15 18 5 14 18 14 19 "
											                    >
												<Coordinate point="-0.077791 -0.058539 0.024536 -0.077791 0.260116 0.784806 -0.077791 0.377195 0.735734 -0.077791 0.058539 -0.024536 -0.077791 0.058539 -0.024536 -0.077791 0.377195 0.735734 0.077791 0.377195 0.735734 0.077791 0.058539 -0.024536 0.077791 0.058539 -0.024536 0.077791 0.377195 0.735734 0.077791 0.260116 0.784806 0.077791 -0.058539 0.024536 0.077791 -0.058539 0.024536 0.077791 0.260116 0.784806 -0.077791 0.260116 0.784806 -0.077791 -0.058539 0.024536 0.077791 0.058539 -0.024536 0.077791 -0.058539 0.024536 0.077791 0.377195 0.735734 0.077791 0.260116 0.784806 " />
												<Normal vector="-0.577349 -0.755638 -0.309275 -0.577349 -0.309275 0.755638 -0.577349 0.755638 0.309275 -0.577349 0.309275 -0.755638 -0.577349 0.309275 -0.755638 -0.577349 0.755638 0.309275 0.577349 0.755638 0.309275 0.577349 0.309275 -0.755638 0.577349 0.309275 -0.755638 0.577349 0.755638 0.309275 0.577349 -0.309275 0.755638 0.577349 -0.755638 -0.309275 0.577349 -0.755638 -0.309275 0.577349 -0.309275 0.755638 -0.577349 -0.309275 0.755638 -0.577349 -0.755638 -0.309275 0.577349 0.309275 -0.755638 0.577349 -0.755638 -0.309275 0.577349 0.755638 0.309275 0.577349 -0.309275 0.755638 " />
												<TextureCoordinate point="0.0193 0.5176 0.4723 0.5176 0.4723 0.7343 0.0193 0.7343 0.0193 0.5176 0.4723 0.5176 0.4723 0.7343 0.0193 0.7343 0.0193 0.5176 0.4723 0.5176 0.4723 0.7343 0.0193 0.7343 0.0193 0.5176 0.4723 0.5176 0.4723 0.7343 0.0193 0.7343 0.4723 0.5176 0.4723 0.7343 0.0193 0.5176 0.0193 0.7343 " />
											</IndexedTriangleSet>
										</Shape>
									</Group>
								</Transform>
							</Transform>
						</Transform>
					</Transform>
					<Transform DEF="grass1_TRANSFORM"
					           translation="0.100429 -0.272462 2.566059"
					           scale="1.000000 1.000000 1.000000"
					           rotation="0.000000 1.000000 0.000000 0.000000"
					           >
						<Transform DEF="grass1_ifs_TRANSFORM"
						           translation="0.000000 0.000000 0.000000"
						           scale="1.000000 1.000000 1.000000"
						           rotation="0.000000 1.000000 0.000000 0.000000"
						           >
							<Group DEF="group_ME_grass1">
								<Shape>
									<Appearance>
										<Material USE="MA_Body" />
									</Appearance>
									<IndexedTriangleSet solid="false"
									                    normalPerVertex="true"
									                    index="0 1 2 0 2 3 "
									                    >
										<Coordinate point="0.268053 -0.101728 -0.228459 1.393354 0.388905 0.873400 0.857247 0.592360 1.330318 -0.268053 0.101728 0.228459 " />
										<Normal vector="0.000000 -0.913511 0.406751 0.000000 -0.913511 0.406751 0.000000 -0.913511 0.406751 0.000000 -0.913511 0.406751 " />
										<TextureCoordinate point="0.2229 0.4952 0.2229 0.0087 0.7706 0.0087 0.7706 0.4952 " />
									</IndexedTriangleSet>
								</Shape>
							</Group>
						</Transform>
					</Transform>
					<Transform DEF="grass2_TRANSFORM"
					           translation="-0.100429 -0.272462 2.566059"
					           scale="1.000000 1.000000 1.000000"
					           rotation="0.000000 1.000000 0.000000 0.000000"
					           >
						<Transform DEF="grass2_ifs_TRANSFORM"
						           translation="0.000000 0.000000 0.000000"
						           scale="1.000000 1.000000 1.000000"
						           rotation="0.000000 1.000000 0.000000 0.000000"
						           >
							<Group DEF="group_ME_grass2">
								<Shape>
									<Appearance>
										<Material USE="MA_Body" />
									</Appearance>
									<IndexedTriangleSet solid="false"
									                    normalPerVertex="true"
									                    index="0 1 2 0 2 3 "
									                    >
										<Coordinate point="-0.268053 -0.101728 -0.228459 0.268053 0.101728 0.228459 -0.857247 0.592360 1.330318 -1.393354 0.388905 0.873400 " />
										<Normal vector="0.000000 -0.913511 0.406751 0.000000 -0.913511 0.406751 0.000000 -0.913511 0.406751 0.000000 -0.913511 0.406751 " />
										<TextureCoordinate point="0.2229 0.4952 0.7706 0.4952 0.7706 0.0087 0.2229 0.0087 " />
									</IndexedTriangleSet>
								</Shape>
							</Group>
						</Transform>
					</Transform>
				</Transform>
			</Transform>
			<Transform DEF="leg1_TRANSFORM"
			           translation="0.850400 -0.867079 0.687962"
			           scale="1.000000 1.000000 1.000000"
			           rotation="0.000000 1.000000 0.000000 0.000000"
			           >
				<Transform DEF="leg1_ifs_TRANSFORM"
				           translation="0.000000 0.000000 0.000000"
				           scale="1.000000 1.000000 1.000000"
				           rotation="0.000000 1.000000 0.000000 0.000000"
				           >
					<Group DEF="group_ME_leg1">
						<Shape>
							<Appearance>
								<Material USE="MA_Body" />
							</Appearance>
							<IndexedTriangleSet solid="false"
							                    normalPerVertex="true"
							                    index="0 1 2 0 2 3 4 5 6 4 6 7 8 9 10 8 10 11 12 13 14 12 14 15 16 17 18 16 18 19 20 1 14 20 14 21 22 23 24 22 24 25 26 27 28 26 28 29 30 31 32 30 32 33 34 35 36 34 36 37 38 39 40 38 40 41 42 43 44 42 44 45 46 47 48 46 48 49 30 50 51 30 51 52 53 54 55 53 55 56 57 58 48 57 48 59 60 61 62 60 62 41 63 5 64 63 64 65 60 66 67 60 67 68 69 70 71 69 71 19 72 73 74 72 74 75 34 76 77 34 77 25 78 79 74 78 74 80 81 47 82 81 82 83 "
							                    >
								<Coordinate point="-0.388400 0.000000 -0.570805 -0.388400 0.000000 0.000000 -0.388400 0.388400 0.000000 -0.388400 0.388400 -0.808647 0.000000 0.388400 -0.570805 0.000000 0.388400 0.000000 0.388400 0.388400 0.000000 0.388400 0.388400 -0.808647 0.388400 0.000000 -0.570805 0.388400 0.000000 0.000000 0.388400 -0.388400 0.000000 0.388400 -0.388400 -0.808647 0.000000 -0.388400 -0.570805 0.000000 -0.388400 0.000000 -0.388400 -0.388400 0.000000 -0.388400 -0.388400 -0.808647 0.000000 0.000000 -1.016158 0.388400 0.000000 -1.016158 0.388400 -0.388400 -1.016158 0.000000 -0.388400 -1.016158 0.000000 0.000000 0.000000 0.000000 -0.388400 0.000000 0.000000 -0.388400 -1.016158 0.000000 -0.388400 -0.570805 -0.388400 -0.388400 -0.808647 -0.388400 -0.388400 -1.016158 0.388400 0.000000 -1.016158 0.388400 0.000000 -0.570805 0.388400 -0.388400 -0.808647 0.388400 -0.388400 -1.016158 0.000000 0.388400 -1.016158 0.000000 0.388400 -0.570805 0.388400 0.388400 -0.808647 0.388400 0.388400 -1.016158 -0.388400 0.000000 -1.016158 -0.388400 0.000000 -0.570805 -0.388400 0.388400 -0.808647 -0.388400 0.388400 -1.016158 -0.388400 -0.388400 -1.016158 -0.388400 -0.388400 -0.808647 -0.388400 0.000000 -0.570805 -0.388400 0.000000 -1.016158 0.388400 0.388400 -1.016158 0.388400 0.388400 -0.808647 0.388400 0.000000 -0.570805 0.388400 0.000000 -1.016158 0.000000 0.388400 0.000000 -0.388400 0.388400 0.000000 -0.388400 0.000000 0.000000 0.000000 0.000000 0.000000 0.388400 0.388400 -1.016158 0.388400 0.000000 -1.016158 0.000000 0.000000 -1.016158 0.388400 0.388400 -0.808647 0.388400 0.388400 0.000000 0.388400 0.000000 0.000000 0.388400 0.000000 -0.570805 -0.388400 -0.388400 -0.808647 -0.388400 -0.388400 0.000000 -0.388400 0.000000 -0.570805 -0.388400 0.388400 -1.016158 0.000000 0.388400 -1.016158 0.000000 0.000000 -1.016158 0.388400 0.388400 0.000000 0.000000 0.000000 0.000000 0.388400 0.000000 0.000000 -0.388400 0.388400 -0.808647 0.000000 0.388400 -0.570805 0.000000 0.388400 -1.016158 0.388400 -0.388400 -1.016158 0.388400 -0.388400 -0.808647 0.000000 -0.388400 -0.570805 0.388400 0.000000 0.000000 0.000000 0.000000 0.000000 0.000000 -0.388400 0.000000 0.388400 -0.388400 0.000000 0.000000 0.000000 -1.016158 0.000000 -0.388400 -1.016158 0.388400 -0.388400 -0.808647 0.388400 -0.388400 0.000000 0.000000 -0.388400 -0.570805 -0.388400 0.388400 -0.808647 0.000000 0.388400 0.000000 0.000000 0.388400 -0.570805 " />
								<Normal vector="-1.000000 0.000000 0.000000 -0.707083 0.000000 0.707083 -0.577349 0.577349 0.577349 -0.707083 0.707083 0.000000 0.000000 1.000000 0.000000 0.000000 0.707083 0.707083 0.577349 0.577349 0.577349 0.707083 0.707083 0.000000 1.000000 0.000000 0.000000 0.707083 0.000000 0.707083 0.577349 -0.577349 0.577349 0.707083 -0.707083 0.000000 0.000000 -1.000000 0.000000 0.000000 -0.707083 0.707083 -0.577349 -0.577349 0.577349 -0.707083 -0.707083 0.000000 0.000000 0.000000 -1.000000 0.707083 0.000000 -0.707083 0.577349 -0.577349 -0.577349 0.000000 -0.707083 -0.707083 0.000000 0.000000 1.000000 0.000000 -0.707083 0.707083 0.000000 -0.707083 -0.707083 0.000000 -1.000000 0.000000 -0.707083 -0.707083 0.000000 -0.577349 -0.577349 -0.577349 0.707083 0.000000 -0.707083 1.000000 0.000000 0.000000 0.707083 -0.707083 0.000000 0.577349 -0.577349 -0.577349 0.000000 0.707083 -0.707083 0.000000 1.000000 0.000000 0.707083 0.707083 0.000000 0.577349 0.577349 -0.577349 -0.707083 0.000000 -0.707083 -1.000000 0.000000 0.000000 -0.707083 0.707083 0.000000 -0.577349 0.577349 -0.577349 -0.577349 -0.577349 -0.577349 -0.707083 -0.707083 0.000000 -1.000000 0.000000 0.000000 -0.707083 0.000000 -0.707083 0.577349 0.577349 -0.577349 0.707083 0.707083 0.000000 1.000000 0.000000 0.000000 0.707083 0.000000 -0.707083 0.000000 0.707083 0.707083 -0.577349 0.577349 0.577349 -0.707083 0.000000 0.707083 0.000000 0.000000 1.000000 0.577349 0.577349 -0.577349 0.707083 0.000000 -0.707083 0.000000 0.000000 -1.000000 0.707083 0.707083 0.000000 0.577349 0.577349 0.577349 0.707083 0.000000 0.707083 1.000000 0.000000 0.000000 -0.707083 -0.707083 0.000000 -0.577349 -0.577349 0.577349 -1.000000 0.000000 0.000000 -0.577349 0.577349 -0.577349 0.000000 0.707083 -0.707083 0.000000 0.000000 -1.000000 0.577349 0.577349 0.577349 0.000000 0.000000 1.000000 0.707083 0.000000 0.707083 -0.707083 0.707083 0.000000 0.000000 1.000000 0.000000 0.000000 0.707083 -0.707083 0.577349 -0.577349 -0.577349 0.707083 -0.707083 0.000000 0.000000 -1.000000 0.000000 0.707083 0.000000 0.707083 0.000000 0.000000 1.000000 0.000000 -0.707083 0.707083 0.577349 -0.577349 0.577349 0.000000 0.000000 -1.000000 0.000000 -0.707083 -0.707083 0.707083 -0.707083 0.000000 0.577349 -0.577349 0.577349 0.000000 -1.000000 0.000000 -0.707083 0.707083 0.000000 0.000000 0.707083 0.707083 0.000000 1.000000 0.000000 " />
								<TextureCoordinate point="0.0352 0.7607 0.4501 0.7607 0.4501 0.9896 0.0352 0.9896 0.0352 0.7607 0.4501 0.7607 0.4501 0.9896 0.0352 0.9896 0.0352 0.7607 0.4501 0.7607 0.4501 0.9896 0.0352 0.9896 0.0352 0.7607 0.4501 0.7607 0.4501 0.9896 0.0352 0.9896 0.5352 0.7607 0.9795 0.7607 0.9795 0.9896 0.5352 0.9896 0.0352 0.7607 0.0352 0.9896 0.5352 0.7607 0.9795 0.7607 0.9795 0.9896 0.5352 0.9896 0.5352 0.7607 0.9795 0.7607 0.9795 0.9896 0.5352 0.9896 0.5352 0.7607 0.9795 0.7607 0.9795 0.9896 0.5352 0.9896 0.5352 0.7607 0.9795 0.7607 0.9795 0.9896 0.5352 0.9896 0.5352 0.7607 0.9795 0.7607 0.9795 0.9896 0.5352 0.9896 0.5352 0.7607 0.9795 0.7607 0.9795 0.9896 0.5352 0.9896 0.0352 0.7607 0.4501 0.7607 0.4501 0.9896 0.0352 0.9896 0.9795 0.7607 0.9795 0.9896 0.5352 0.9896 0.0352 0.7607 0.4501 0.7607 0.4501 0.9896 0.0352 0.9896 0.0352 0.7607 0.4501 0.7607 0.0352 0.9896 0.5352 0.7607 0.9795 0.7607 0.9795 0.9896 0.0352 0.7607 0.4501 0.9896 0.0352 0.9896 0.9795 0.7607 0.9795 0.9896 0.5352 0.9896 0.5352 0.7607 0.9795 0.7607 0.9795 0.9896 0.0352 0.7607 0.4501 0.7607 0.4501 0.9896 0.0352 0.9896 0.9795 0.7607 0.9795 0.9896 0.0352 0.7607 0.4501 0.7607 0.0352 0.9896 0.0352 0.7607 0.4501 0.9896 0.0352 0.9896 " />
							</IndexedTriangleSet>
						</Shape>
					</Group>
				</Transform>
			</Transform>
			<Transform DEF="tail_TRANSFORM"
			           translation="0.000000 1.166468 0.469402"
			           scale="1.000000 1.000000 1.000000"
			           rotation="0.000000 1.000000 0.000000 0.000000"
			           >
				<Transform DEF="tail_ifs_TRANSFORM"
				           translation="0.000000 0.000000 0.000000"
				           scale="1.000000 1.000000 1.000000"
				           rotation="0.000000 1.000000 0.000000 0.000000"
				           >
					<Group DEF="group_ME_tail">
						<Shape>
							<Appearance>
								<Material USE="MA_Body" />
							</Appearance>
							<IndexedTriangleSet solid="false"
							                    normalPerVertex="true"
							                    index="0 1 2 0 2 3 4 5 6 4 6 7 8 9 10 8 10 11 12 13 14 12 14 15 4 16 17 4 17 15 18 5 14 18 14 19 "
							                    >
								<Coordinate point="-0.152543 0.049764 -0.159093 -0.152543 -0.049764 0.159093 -0.152543 0.387943 0.296006 -0.152543 0.487470 -0.022180 -0.152543 0.487470 -0.022180 -0.152543 0.387943 0.296006 0.152543 0.387943 0.296006 0.152543 0.487470 -0.022180 0.152543 0.487470 -0.022180 0.152543 0.387943 0.296006 0.152543 -0.049764 0.159093 0.152543 0.049764 -0.159093 0.152543 0.049764 -0.159093 0.152543 -0.049764 0.159093 -0.152543 -0.049764 0.159093 -0.152543 0.049764 -0.159093 0.152543 0.487470 -0.022180 0.152543 0.049764 -0.159093 0.152543 0.387943 0.296006 0.152543 -0.049764 0.159093 " />
								<Normal vector="-0.577349 -0.378643 -0.723380 -0.577349 -0.723380 0.378643 -0.577349 0.378643 0.723380 -0.577349 0.723380 -0.378643 -0.577349 0.723380 -0.378643 -0.577349 0.378643 0.723380 0.577349 0.378643 0.723380 0.577349 0.723380 -0.378643 0.577349 0.723380 -0.378643 0.577349 0.378643 0.723380 0.577349 -0.723380 0.378643 0.577349 -0.378643 -0.723380 0.577349 -0.378643 -0.723380 0.577349 -0.723380 0.378643 -0.577349 -0.723380 0.378643 -0.577349 -0.378643 -0.723380 0.577349 0.723380 -0.378643 0.577349 -0.378643 -0.723380 0.577349 0.378643 0.723380 0.577349 -0.723380 0.378643 " />
								<TextureCoordinate point="0.0242 0.7686 0.4772 0.7686 0.4772 0.9853 0.0242 0.9853 0.0242 0.7686 0.4772 0.7686 0.4772 0.9853 0.0242 0.9853 0.0242 0.7686 0.4772 0.7686 0.4772 0.9853 0.0242 0.9853 0.0242 0.7686 0.4772 0.7686 0.4772 0.9853 0.0242 0.9853 0.4772 0.7686 0.4772 0.9853 0.0242 0.7686 0.0242 0.9853 " />
							</IndexedTriangleSet>
						</Shape>
					</Group>
				</Transform>
			</Transform>
			<Transform DEF="leg4_TRANSFORM"
			           translation="0.850400 0.819189 0.687962"
			           scale="1.000000 1.000000 1.000000"
			           rotation="0.000000 1.000000 0.000000 0.000000"
			           >
				<Transform DEF="leg4_ifs_TRANSFORM"
				           translation="0.000000 0.000000 0.000000"
				           scale="1.000000 1.000000 1.000000"
				           rotation="0.000000 1.000000 0.000000 0.000000"
				           >
					<Group DEF="group_ME_leg4">
						<Shape>
							<Appearance>
								<Material USE="MA_Body" />
							</Appearance>
							<IndexedTriangleSet solid="false"
							                    normalPerVertex="true"
							                    index="0 1 2 0 2 3 4 5 6 4 6 7 8 9 10 8 10 11 12 13 14 12 14 15 16 17 18 16 18 19 20 1 14 20 14 21 22 23 24 22 24 25 26 27 28 26 28 29 30 31 32 30 32 33 34 35 36 34 36 37 38 39 40 38 40 41 42 43 44 42 44 45 46 47 48 46 48 49 30 50 51 30 51 52 53 54 55 53 55 56 57 58 48 57 48 59 60 61 62 60 62 41 63 5 64 63 64 65 60 66 67 60 67 68 69 70 71 69 71 19 72 73 74 72 74 75 34 76 77 34 77 25 78 79 74 78 74 80 81 47 82 81 82 83 "
							                    >
								<Coordinate point="-0.388400 0.000000 -0.570805 -0.388400 0.000000 0.000000 -0.388400 0.388400 0.000000 -0.388400 0.388400 -0.808647 0.000000 0.388400 -0.570805 0.000000 0.388400 0.000000 0.388400 0.388400 0.000000 0.388400 0.388400 -0.808647 0.388400 0.000000 -0.570805 0.388400 0.000000 0.000000 0.388400 -0.388400 0.000000 0.388400 -0.388400 -0.808647 0.000000 -0.388400 -0.570805 0.000000 -0.388400 0.000000 -0.388400 -0.388400 0.000000 -0.388400 -0.388400 -0.808647 0.000000 0.000000 -1.016158 0.388400 0.000000 -1.016158 0.388400 -0.388400 -1.016158 0.000000 -0.388400 -1.016158 0.000000 0.000000 0.000000 0.000000 -0.388400 0.000000 0.000000 -0.388400 -1.016158 0.000000 -0.388400 -0.570805 -0.388400 -0.388400 -0.808647 -0.388400 -0.388400 -1.016158 0.388400 0.000000 -1.016158 0.388400 0.000000 -0.570805 0.388400 -0.388400 -0.808647 0.388400 -0.388400 -1.016158 0.000000 0.388400 -1.016158 0.000000 0.388400 -0.570805 0.388400 0.388400 -0.808647 0.388400 0.388400 -1.016158 -0.388400 0.000000 -1.016158 -0.388400 0.000000 -0.570805 -0.388400 0.388400 -0.808647 -0.388400 0.388400 -1.016158 -0.388400 -0.388400 -1.016158 -0.388400 -0.388400 -0.808647 -0.388400 0.000000 -0.570805 -0.388400 0.000000 -1.016158 0.388400 0.388400 -1.016158 0.388400 0.388400 -0.808647 0.388400 0.000000 -0.570805 0.388400 0.000000 -1.016158 0.000000 0.388400 0.000000 -0.388400 0.388400 0.000000 -0.388400 0.000000 0.000000 0.000000 0.000000 0.000000 0.388400 0.388400 -1.016158 0.388400 0.000000 -1.016158 0.000000 0.000000 -1.016158 0.388400 0.388400 -0.808647 0.388400 0.388400 0.000000 0.388400 0.000000 0.000000 0.388400 0.000000 -0.570805 -0.388400 -0.388400 -0.808647 -0.388400 -0.388400 0.000000 -0.388400 0.000000 -0.570805 -0.388400 0.388400 -1.016158 0.000000 0.388400 -1.016158 0.000000 0.000000 -1.016158 0.388400 0.388400 0.000000 0.000000 0.000000 0.000000 0.388400 0.000000 0.000000 -0.388400 0.388400 -0.808647 0.000000 0.388400 -0.570805 0.000000 0.388400 -1.016158 0.388400 -0.388400 -1.016158 0.388400 -0.388400 -0.808647 0.000000 -0.388400 -0.570805 0.388400 0.000000 0.000000 0.000000 0.000000 0.000000 0.000000 -0.388400 0.000000 0.388400 -0.388400 0.000000 0.000000 0.000000 -1.016158 0.000000 -0.388400 -1.016158 0.388400 -0.388400 -0.808647 0.388400 -0.388400 0.000000 0.000000 -0.388400 -0.570805 -0.388400 0.388400 -0.808647 0.000000 0.388400 0.000000 0.000000 0.388400 -0.570805 " />
								<Normal vector="-1.000000 0.000000 0.000000 -0.707083 0.000000 0.707083 -0.577349 0.577349 0.577349 -0.707083 0.707083 0.000000 0.000000 1.000000 0.000000 0.000000 0.707083 0.707083 0.577349 0.577349 0.577349 0.707083 0.707083 0.000000 1.000000 0.000000 0.000000 0.707083 0.000000 0.707083 0.577349 -0.577349 0.577349 0.707083 -0.707083 0.000000 0.000000 -1.000000 0.000000 0.000000 -0.707083 0.707083 -0.577349 -0.577349 0.577349 -0.707083 -0.707083 0.000000 0.000000 0.000000 -1.000000 0.707083 0.000000 -0.707083 0.577349 -0.577349 -0.577349 0.000000 -0.707083 -0.707083 0.000000 0.000000 1.000000 0.000000 -0.707083 0.707083 0.000000 -0.707083 -0.707083 0.000000 -1.000000 0.000000 -0.707083 -0.707083 0.000000 -0.577349 -0.577349 -0.577349 0.707083 0.000000 -0.707083 1.000000 0.000000 0.000000 0.707083 -0.707083 0.000000 0.577349 -0.577349 -0.577349 0.000000 0.707083 -0.707083 0.000000 1.000000 0.000000 0.707083 0.707083 0.000000 0.577349 0.577349 -0.577349 -0.707083 0.000000 -0.707083 -1.000000 0.000000 0.000000 -0.707083 0.707083 0.000000 -0.577349 0.577349 -0.577349 -0.577349 -0.577349 -0.577349 -0.707083 -0.707083 0.000000 -1.000000 0.000000 0.000000 -0.707083 0.000000 -0.707083 0.577349 0.577349 -0.577349 0.707083 0.707083 0.000000 1.000000 0.000000 0.000000 0.707083 0.000000 -0.707083 0.000000 0.707083 0.707083 -0.577349 0.577349 0.577349 -0.707083 0.000000 0.707083 0.000000 0.000000 1.000000 0.577349 0.577349 -0.577349 0.707083 0.000000 -0.707083 0.000000 0.000000 -1.000000 0.707083 0.707083 0.000000 0.577349 0.577349 0.577349 0.707083 0.000000 0.707083 1.000000 0.000000 0.000000 -0.707083 -0.707083 0.000000 -0.577349 -0.577349 0.577349 -1.000000 0.000000 0.000000 -0.577349 0.577349 -0.577349 0.000000 0.707083 -0.707083 0.000000 0.000000 -1.000000 0.577349 0.577349 0.577349 0.000000 0.000000 1.000000 0.707083 0.000000 0.707083 -0.707083 0.707083 0.000000 0.000000 1.000000 0.000000 0.000000 0.707083 -0.707083 0.577349 -0.577349 -0.577349 0.707083 -0.707083 0.000000 0.000000 -1.000000 0.000000 0.707083 0.000000 0.707083 0.000000 0.000000 1.000000 0.000000 -0.707083 0.707083 0.577349 -0.577349 0.577349 0.000000 0.000000 -1.000000 0.000000 -0.707083 -0.707083 0.707083 -0.707083 0.000000 0.577349 -0.577349 0.577349 0.000000 -1.000000 0.000000 -0.707083 0.707083 0.000000 0.000000 0.707083 0.707083 0.000000 1.000000 0.000000 " />
								<TextureCoordinate point="0.0352 0.7607 0.4501 0.7607 0.4501 0.9896 0.0352 0.9896 0.0352 0.7607 0.4501 0.7607 0.4501 0.9896 0.0352 0.9896 0.0352 0.7607 0.4501 0.7607 0.4501 0.9896 0.0352 0.9896 0.0352 0.7607 0.4501 0.7607 0.4501 0.9896 0.0352 0.9896 0.5352 0.7607 0.9795 0.7607 0.9795 0.9896 0.5352 0.9896 0.0352 0.7607 0.0352 0.9896 0.5352 0.7607 0.9795 0.7607 0.9795 0.9896 0.5352 0.9896 0.5352 0.7607 0.9795 0.7607 0.9795 0.9896 0.5352 0.9896 0.5352 0.7607 0.9795 0.7607 0.9795 0.9896 0.5352 0.9896 0.5352 0.7607 0.9795 0.7607 0.9795 0.9896 0.5352 0.9896 0.5352 0.7607 0.9795 0.7607 0.9795 0.9896 0.5352 0.9896 0.5352 0.7607 0.9795 0.7607 0.9795 0.9896 0.5352 0.9896 0.0352 0.7607 0.4501 0.7607 0.4501 0.9896 0.0352 0.9896 0.9795 0.7607 0.9795 0.9896 0.5352 0.9896 0.0352 0.7607 0.4501 0.7607 0.4501 0.9896 0.0352 0.9896 0.0352 0.7607 0.4501 0.7607 0.0352 0.9896 0.5352 0.7607 0.9795 0.7607 0.9795 0.9896 0.0352 0.7607 0.4501 0.9896 0.0352 0.9896 0.9795 0.7607 0.9795 0.9896 0.5352 0.9896 0.5352 0.7607 0.9795 0.7607 0.9795 0.9896 0.0352 0.7607 0.4501 0.7607 0.4501 0.9896 0.0352 0.9896 0.9795 0.7607 0.9795 0.9896 0.0352 0.7607 0.4501 0.7607 0.0352 0.9896 0.0352 0.7607 0.4501 0.9896 0.0352 0.9896 " />
							</IndexedTriangleSet>
						</Shape>
					</Group>
				</Transform>
			</Transform>
			<Transform DEF="leg2_TRANSFORM"
			           translation="-0.850400 -0.867079 0.687962"
			           scale="1.000000 1.000000 1.000000"
			           rotation="0.000000 1.000000 0.000000 0.000000"
			           >
				<Transform DEF="leg2_ifs_TRANSFORM"
				           translation="0.000000 0.000000 0.000000"
				           scale="1.000000 1.000000 1.000000"
				           rotation="0.000000 1.000000 0.000000 0.000000"
				           >
					<Group DEF="group_ME_leg2">
						<Shape>
							<Appearance>
								<Material USE="MA_Body" />
							</Appearance>
							<IndexedTriangleSet solid="false"
							                    normalPerVertex="true"
							                    index="0 1 2 0 2 3 4 5 6 4 6 7 8 9 10 8 10 11 12 13 14 12 14 15 16 17 18 16 18 19 20 1 14 20 14 21 22 23 24 22 24 25 26 27 28 26 28 29 30 31 32 30 32 33 34 35 36 34 36 37 38 39 40 38 40 41 42 43 44 42 44 45 46 47 48 46 48 49 30 50 51 30 51 52 53 54 55 53 55 56 57 58 48 57 48 59 60 61 62 60 62 41 63 5 64 63 64 65 60 66 67 60 67 68 69 70 71 69 71 19 72 73 74 72 74 75 34 76 77 34 77 25 78 79 74 78 74 80 81 47 82 81 82 83 "
							                    >
								<Coordinate point="-0.388400 0.000000 -0.570805 -0.388400 0.000000 0.000000 -0.388400 0.388400 0.000000 -0.388400 0.388400 -0.808647 0.000000 0.388400 -0.570805 0.000000 0.388400 0.000000 0.388400 0.388400 0.000000 0.388400 0.388400 -0.808647 0.388400 0.000000 -0.570805 0.388400 0.000000 0.000000 0.388400 -0.388400 0.000000 0.388400 -0.388400 -0.808647 0.000000 -0.388400 -0.570805 0.000000 -0.388400 0.000000 -0.388400 -0.388400 0.000000 -0.388400 -0.388400 -0.808647 0.000000 0.000000 -1.016158 0.388400 0.000000 -1.016158 0.388400 -0.388400 -1.016158 0.000000 -0.388400 -1.016158 0.000000 0.000000 0.000000 0.000000 -0.388400 0.000000 0.000000 -0.388400 -1.016158 0.000000 -0.388400 -0.570805 -0.388400 -0.388400 -0.808647 -0.388400 -0.388400 -1.016158 0.388400 0.000000 -1.016158 0.388400 0.000000 -0.570805 0.388400 -0.388400 -0.808647 0.388400 -0.388400 -1.016158 0.000000 0.388400 -1.016158 0.000000 0.388400 -0.570805 0.388400 0.388400 -0.808647 0.388400 0.388400 -1.016158 -0.388400 0.000000 -1.016158 -0.388400 0.000000 -0.570805 -0.388400 0.388400 -0.808647 -0.388400 0.388400 -1.016158 -0.388400 -0.388400 -1.016158 -0.388400 -0.388400 -0.808647 -0.388400 0.000000 -0.570805 -0.388400 0.000000 -1.016158 0.388400 0.388400 -1.016158 0.388400 0.388400 -0.808647 0.388400 0.000000 -0.570805 0.388400 0.000000 -1.016158 0.000000 0.388400 0.000000 -0.388400 0.388400 0.000000 -0.388400 0.000000 0.000000 0.000000 0.000000 0.000000 0.388400 0.388400 -1.016158 0.388400 0.000000 -1.016158 0.000000 0.000000 -1.016158 0.388400 0.388400 -0.808647 0.388400 0.388400 0.000000 0.388400 0.000000 0.000000 0.388400 0.000000 -0.570805 -0.388400 -0.388400 -0.808647 -0.388400 -0.388400 0.000000 -0.388400 0.000000 -0.570805 -0.388400 0.388400 -1.016158 0.000000 0.388400 -1.016158 0.000000 0.000000 -1.016158 0.388400 0.388400 0.000000 0.000000 0.000000 0.000000 0.388400 0.000000 0.000000 -0.388400 0.388400 -0.808647 0.000000 0.388400 -0.570805 0.000000 0.388400 -1.016158 0.388400 -0.388400 -1.016158 0.388400 -0.388400 -0.808647 0.000000 -0.388400 -0.570805 0.388400 0.000000 0.000000 0.000000 0.000000 0.000000 0.000000 -0.388400 0.000000 0.388400 -0.388400 0.000000 0.000000 0.000000 -1.016158 0.000000 -0.388400 -1.016158 0.388400 -0.388400 -0.808647 0.388400 -0.388400 0.000000 0.000000 -0.388400 -0.570805 -0.388400 0.388400 -0.808647 0.000000 0.388400 0.000000 0.000000 0.388400 -0.570805 " />
								<Normal vector="-1.000000 0.000000 0.000000 -0.707083 0.000000 0.707083 -0.577349 0.577349 0.577349 -0.707083 0.707083 0.000000 0.000000 1.000000 0.000000 0.000000 0.707083 0.707083 0.577349 0.577349 0.577349 0.707083 0.707083 0.000000 1.000000 0.000000 0.000000 0.707083 0.000000 0.707083 0.577349 -0.577349 0.577349 0.707083 -0.707083 0.000000 0.000000 -1.000000 0.000000 0.000000 -0.707083 0.707083 -0.577349 -0.577349 0.577349 -0.707083 -0.707083 0.000000 0.000000 0.000000 -1.000000 0.707083 0.000000 -0.707083 0.577349 -0.577349 -0.577349 0.000000 -0.707083 -0.707083 0.000000 0.000000 1.000000 0.000000 -0.707083 0.707083 0.000000 -0.707083 -0.707083 0.000000 -1.000000 0.000000 -0.707083 -0.707083 0.000000 -0.577349 -0.577349 -0.577349 0.707083 0.000000 -0.707083 1.000000 0.000000 0.000000 0.707083 -0.707083 0.000000 0.577349 -0.577349 -0.577349 0.000000 0.707083 -0.707083 0.000000 1.000000 0.000000 0.707083 0.707083 0.000000 0.577349 0.577349 -0.577349 -0.707083 0.000000 -0.707083 -1.000000 0.000000 0.000000 -0.707083 0.707083 0.000000 -0.577349 0.577349 -0.577349 -0.577349 -0.577349 -0.577349 -0.707083 -0.707083 0.000000 -1.000000 0.000000 0.000000 -0.707083 0.000000 -0.707083 0.577349 0.577349 -0.577349 0.707083 0.707083 0.000000 1.000000 0.000000 0.000000 0.707083 0.000000 -0.707083 0.000000 0.707083 0.707083 -0.577349 0.577349 0.577349 -0.707083 0.000000 0.707083 0.000000 0.000000 1.000000 0.577349 0.577349 -0.577349 0.707083 0.000000 -0.707083 0.000000 0.000000 -1.000000 0.707083 0.707083 0.000000 0.577349 0.577349 0.577349 0.707083 0.000000 0.707083 1.000000 0.000000 0.000000 -0.707083 -0.707083 0.000000 -0.577349 -0.577349 0.577349 -1.000000 0.000000 0.000000 -0.577349 0.577349 -0.577349 0.000000 0.707083 -0.707083 0.000000 0.000000 -1.000000 0.577349 0.577349 0.577349 0.000000 0.000000 1.000000 0.707083 0.000000 0.707083 -0.707083 0.707083 0.000000 0.000000 1.000000 0.000000 0.000000 0.707083 -0.707083 0.577349 -0.577349 -0.577349 0.707083 -0.707083 0.000000 0.000000 -1.000000 0.000000 0.707083 0.000000 0.707083 0.000000 0.000000 1.000000 0.000000 -0.707083 0.707083 0.577349 -0.577349 0.577349 0.000000 0.000000 -1.000000 0.000000 -0.707083 -0.707083 0.707083 -0.707083 0.000000 0.577349 -0.577349 0.577349 0.000000 -1.000000 0.000000 -0.707083 0.707083 0.000000 0.000000 0.707083 0.707083 0.000000 1.000000 0.000000 " />
								<TextureCoordinate point="0.0352 0.7607 0.4501 0.7607 0.4501 0.9896 0.0352 0.9896 0.0352 0.7607 0.4501 0.7607 0.4501 0.9896 0.0352 0.9896 0.0352 0.7607 0.4501 0.7607 0.4501 0.9896 0.0352 0.9896 0.0352 0.7607 0.4501 0.7607 0.4501 0.9896 0.0352 0.9896 0.5352 0.7607 0.9795 0.7607 0.9795 0.9896 0.5352 0.9896 0.0352 0.7607 0.0352 0.9896 0.5352 0.7607 0.9795 0.7607 0.9795 0.9896 0.5352 0.9896 0.5352 0.7607 0.9795 0.7607 0.9795 0.9896 0.5352 0.9896 0.5352 0.7607 0.9795 0.7607 0.9795 0.9896 0.5352 0.9896 0.5352 0.7607 0.9795 0.7607 0.9795 0.9896 0.5352 0.9896 0.5352 0.7607 0.9795 0.7607 0.9795 0.9896 0.5352 0.9896 0.5352 0.7607 0.9795 0.7607 0.9795 0.9896 0.5352 0.9896 0.0352 0.7607 0.4501 0.7607 0.4501 0.9896 0.0352 0.9896 0.9795 0.7607 0.9795 0.9896 0.5352 0.9896 0.0352 0.7607 0.4501 0.7607 0.4501 0.9896 0.0352 0.9896 0.0352 0.7607 0.4501 0.7607 0.0352 0.9896 0.5352 0.7607 0.9795 0.7607 0.9795 0.9896 0.0352 0.7607 0.4501 0.9896 0.0352 0.9896 0.9795 0.7607 0.9795 0.9896 0.5352 0.9896 0.5352 0.7607 0.9795 0.7607 0.9795 0.9896 0.0352 0.7607 0.4501 0.7607 0.4501 0.9896 0.0352 0.9896 0.9795 0.7607 0.9795 0.9896 0.0352 0.7607 0.4501 0.7607 0.0352 0.9896 0.0352 0.7607 0.4501 0.9896 0.0352 0.9896 " />
							</IndexedTriangleSet>
						</Shape>
					</Group>
				</Transform>
			</Transform>
			<Transform DEF="leg3_TRANSFORM"
			           translation="-0.850400 0.819189 0.687962"
			           scale="1.000000 1.000000 1.000000"
			           rotation="0.000000 1.000000 0.000000 0.000000"
			           >
				<Transform DEF="leg3_ifs_TRANSFORM"
				           translation="0.000000 0.000000 0.000000"
				           scale="1.000000 1.000000 1.000000"
				           rotation="0.000000 1.000000 0.000000 0.000000"
				           >
					<Group DEF="group_ME_leg3">
						<Shape>
							<Appearance>
								<Material USE="MA_Body" />
							</Appearance>
							<IndexedTriangleSet solid="false"
							                    normalPerVertex="true"
							                    index="0 1 2 0 2 3 4 5 6 4 6 7 8 9 10 8 10 11 12 13 14 12 14 15 16 17 18 16 18 19 20 1 14 20 14 21 22 23 24 22 24 25 26 27 28 26 28 29 30 31 32 30 32 33 34 35 36 34 36 37 38 39 40 38 40 41 42 43 44 42 44 45 46 47 48 46 48 49 30 50 51 30 51 52 53 54 55 53 55 56 57 58 48 57 48 59 60 61 62 60 62 41 63 5 64 63 64 65 60 66 67 60 67 68 69 70 71 69 71 19 72 73 74 72 74 75 34 76 77 34 77 25 78 79 74 78 74 80 81 47 82 81 82 83 "
							                    >
								<Coordinate point="-0.388400 0.000000 -0.570805 -0.388400 0.000000 0.000000 -0.388400 0.388400 0.000000 -0.388400 0.388400 -0.808647 0.000000 0.388400 -0.570805 0.000000 0.388400 0.000000 0.388400 0.388400 0.000000 0.388400 0.388400 -0.808647 0.388400 0.000000 -0.570805 0.388400 0.000000 0.000000 0.388400 -0.388400 0.000000 0.388400 -0.388400 -0.808647 0.000000 -0.388400 -0.570805 0.000000 -0.388400 0.000000 -0.388400 -0.388400 0.000000 -0.388400 -0.388400 -0.808647 0.000000 0.000000 -1.016158 0.388400 0.000000 -1.016158 0.388400 -0.388400 -1.016158 0.000000 -0.388400 -1.016158 0.000000 0.000000 0.000000 0.000000 -0.388400 0.000000 0.000000 -0.388400 -1.016158 0.000000 -0.388400 -0.570805 -0.388400 -0.388400 -0.808647 -0.388400 -0.388400 -1.016158 0.388400 0.000000 -1.016158 0.388400 0.000000 -0.570805 0.388400 -0.388400 -0.808647 0.388400 -0.388400 -1.016158 0.000000 0.388400 -1.016158 0.000000 0.388400 -0.570805 0.388400 0.388400 -0.808647 0.388400 0.388400 -1.016158 -0.388400 0.000000 -1.016158 -0.388400 0.000000 -0.570805 -0.388400 0.388400 -0.808647 -0.388400 0.388400 -1.016158 -0.388400 -0.388400 -1.016158 -0.388400 -0.388400 -0.808647 -0.388400 0.000000 -0.570805 -0.388400 0.000000 -1.016158 0.388400 0.388400 -1.016158 0.388400 0.388400 -0.808647 0.388400 0.000000 -0.570805 0.388400 0.000000 -1.016158 0.000000 0.388400 0.000000 -0.388400 0.388400 0.000000 -0.388400 0.000000 0.000000 0.000000 0.000000 0.000000 0.388400 0.388400 -1.016158 0.388400 0.000000 -1.016158 0.000000 0.000000 -1.016158 0.388400 0.388400 -0.808647 0.388400 0.388400 0.000000 0.388400 0.000000 0.000000 0.388400 0.000000 -0.570805 -0.388400 -0.388400 -0.808647 -0.388400 -0.388400 0.000000 -0.388400 0.000000 -0.570805 -0.388400 0.388400 -1.016158 0.000000 0.388400 -1.016158 0.000000 0.000000 -1.016158 0.388400 0.388400 0.000000 0.000000 0.000000 0.000000 0.388400 0.000000 0.000000 -0.388400 0.388400 -0.808647 0.000000 0.388400 -0.570805 0.000000 0.388400 -1.016158 0.388400 -0.388400 -1.016158 0.388400 -0.388400 -0.808647 0.000000 -0.388400 -0.570805 0.388400 0.000000 0.000000 0.000000 0.000000 0.000000 0.000000 -0.388400 0.000000 0.388400 -0.388400 0.000000 0.000000 0.000000 -1.016158 0.000000 -0.388400 -1.016158 0.388400 -0.388400 -0.808647 0.388400 -0.388400 0.000000 0.000000 -0.388400 -0.570805 -0.388400 0.388400 -0.808647 0.000000 0.388400 0.000000 0.000000 0.388400 -0.570805 " />
								<Normal vector="-1.000000 0.000000 0.000000 -0.707083 0.000000 0.707083 -0.577349 0.577349 0.577349 -0.707083 0.707083 0.000000 0.000000 1.000000 0.000000 0.000000 0.707083 0.707083 0.577349 0.577349 0.577349 0.707083 0.707083 0.000000 1.000000 0.000000 0.000000 0.707083 0.000000 0.707083 0.577349 -0.577349 0.577349 0.707083 -0.707083 0.000000 0.000000 -1.000000 0.000000 0.000000 -0.707083 0.707083 -0.577349 -0.577349 0.577349 -0.707083 -0.707083 0.000000 0.000000 0.000000 -1.000000 0.707083 0.000000 -0.707083 0.577349 -0.577349 -0.577349 0.000000 -0.707083 -0.707083 0.000000 0.000000 1.000000 0.000000 -0.707083 0.707083 0.000000 -0.707083 -0.707083 0.000000 -1.000000 0.000000 -0.707083 -0.707083 0.000000 -0.577349 -0.577349 -0.577349 0.707083 0.000000 -0.707083 1.000000 0.000000 0.000000 0.707083 -0.707083 0.000000 0.577349 -0.577349 -0.577349 0.000000 0.707083 -0.707083 0.000000 1.000000 0.000000 0.707083 0.707083 0.000000 0.577349 0.577349 -0.577349 -0.707083 0.000000 -0.707083 -1.000000 0.000000 0.000000 -0.707083 0.707083 0.000000 -0.577349 0.577349 -0.577349 -0.577349 -0.577349 -0.577349 -0.707083 -0.707083 0.000000 -1.000000 0.000000 0.000000 -0.707083 0.000000 -0.707083 0.577349 0.577349 -0.577349 0.707083 0.707083 0.000000 1.000000 0.000000 0.000000 0.707083 0.000000 -0.707083 0.000000 0.707083 0.707083 -0.577349 0.577349 0.577349 -0.707083 0.000000 0.707083 0.000000 0.000000 1.000000 0.577349 0.577349 -0.577349 0.707083 0.000000 -0.707083 0.000000 0.000000 -1.000000 0.707083 0.707083 0.000000 0.577349 0.577349 0.577349 0.707083 0.000000 0.707083 1.000000 0.000000 0.000000 -0.707083 -0.707083 0.000000 -0.577349 -0.577349 0.577349 -1.000000 0.000000 0.000000 -0.577349 0.577349 -0.577349 0.000000 0.707083 -0.707083 0.000000 0.000000 -1.000000 0.577349 0.577349 0.577349 0.000000 0.000000 1.000000 0.707083 0.000000 0.707083 -0.707083 0.707083 0.000000 0.000000 1.000000 0.000000 0.000000 0.707083 -0.707083 0.577349 -0.577349 -0.577349 0.707083 -0.707083 0.000000 0.000000 -1.000000 0.000000 0.707083 0.000000 0.707083 0.000000 0.000000 1.000000 0.000000 -0.707083 0.707083 0.577349 -0.577349 0.577349 0.000000 0.000000 -1.000000 0.000000 -0.707083 -0.707083 0.707083 -0.707083 0.000000 0.577349 -0.577349 0.577349 0.000000 -1.000000 0.000000 -0.707083 0.707083 0.000000 0.000000 0.707083 0.707083 0.000000 1.000000 0.000000 " />
								<TextureCoordinate point="0.0352 0.7607 0.4501 0.7607 0.4501 0.9896 0.0352 0.9896 0.0352 0.7607 0.4501 0.7607 0.4501 0.9896 0.0352 0.9896 0.0352 0.7607 0.4501 0.7607 0.4501 0.9896 0.0352 0.9896 0.0352 0.7607 0.4501 0.7607 0.4501 0.9896 0.0352 0.9896 0.5352 0.7607 0.9795 0.7607 0.9795 0.9896 0.5352 0.9896 0.0352 0.7607 0.0352 0.9896 0.5352 0.7607 0.9795 0.7607 0.9795 0.9896 0.5352 0.9896 0.5352 0.7607 0.9795 0.7607 0.9795 0.9896 0.5352 0.9896 0.5352 0.7607 0.9795 0.7607 0.9795 0.9896 0.5352 0.9896 0.5352 0.7607 0.9795 0.7607 0.9795 0.9896 0.5352 0.9896 0.5352 0.7607 0.9795 0.7607 0.9795 0.9896 0.5352 0.9896 0.5352 0.7607 0.9795 0.7607 0.9795 0.9896 0.5352 0.9896 0.0352 0.7607 0.4501 0.7607 0.4501 0.9896 0.0352 0.9896 0.9795 0.7607 0.9795 0.9896 0.5352 0.9896 0.0352 0.7607 0.4501 0.7607 0.4501 0.9896 0.0352 0.9896 0.0352 0.7607 0.4501 0.7607 0.0352 0.9896 0.5352 0.7607 0.9795 0.7607 0.9795 0.9896 0.0352 0.7607 0.4501 0.9896 0.0352 0.9896 0.9795 0.7607 0.9795 0.9896 0.5352 0.9896 0.5352 0.7607 0.9795 0.7607 0.9795 0.9896 0.0352 0.7607 0.4501 0.7607 0.4501 0.9896 0.0352 0.9896 0.9795 0.7607 0.9795 0.9896 0.0352 0.7607 0.4501 0.7607 0.0352 0.9896 0.0352 0.7607 0.4501 0.9896 0.0352 0.9896 " />
							</IndexedTriangleSet>
						</Shape>
					</Group>
				</Transform>
			</Transform>
		</Transform>
	</Scene>
</X3D>