<?xml version="1.0" encoding="UTF-8"?>
<!DOCTYPE X3D PUBLIC "ISO//Web3D//DTD X3D 3.0//EN" "http://www.web3d.org/specifications/x3d-3.0.dtd">
<X3D version="3.0" profile="Immersive" xmlns:xsd="http://www.w3.org/2001/XMLSchema-instance" xsd:noNamespaceSchemaLocation="http://www.web3d.org/specifications/x3d-3.0.xsd">
	<head>
		<meta name="filename" content="tympole.x3d" />
		<meta name="generator" content="Blender 2.93.18" />
	</head>
	<Scene>
		<NavigationInfo headlight="true"
		                visibilityLimit="0.0"
		                type='"EXAMINE", "ANY"'
		                avatarSize="0.25, 1.75, 0.75"
		                />
		<Background DEF="WO_World"
		            groundColor="0.051 0.051 0.051"
		            skyColor="0.051 0.051 0.051"
		            />
		<Transform DEF="body_TRANSFORM"
		           translation="0.000000 0.000000 0.715941"
		           scale="1.000000 1.000000 1.000000"
		           rotation="0.000000 0.000000 1.000000 3.141593"
		           >
			<Transform DEF="body_ifs_TRANSFORM"
			           translation="0.000000 0.000000 0.000000"
			           scale="1.000000 1.000000 1.000000"
			           rotation="0.000000 1.000000 0.000000 0.000000"
			           >
				<Group DEF="group_ME_body">
					<Shape>
						<Appearance>
							<Material DEF="MA_Body"
							          diffuseColor="0.800 0.800 0.800"
							          specularColor="0.401 0.401 0.401"
							          emissiveColor="0.000 0.000 0.000"
							          ambientIntensity="0.000"
							          shininess="0.500"
							          transparency="0.0"
							          />
						</Appearance>
						<IndexedTriangleSet solid="false"
						                    normalPerVertex="true"
						                    index="0 1 2 2 3 4 5 6 7 2 4 5 8 9 0 0 2 5 7 10 11 0 5 7 7 11 8 7 8 0 12 13 14 14 15 16 17 18 19 14 16 17 20 21 12 12 14 17 19 22 23 12 17 19 19 23 20 19 20 12 24 25 26 26 27 28 29 30 31 26 28 29 32 33 24 24 26 29 31 34 35 24 29 31 36 37 32 32 24 31 35 38 39 32 31 35 40 41 36 36 32 35 39 42 43 36 35 39 44 45 40 40 36 39 39 43 44 39 44 40 46 47 48 49 50 51 46 48 49 51 52 53 46 49 51 51 53 54 54 46 51 55 56 57 58 59 60 55 57 58 61 62 55 63 64 65 65 61 55 55 58 60 60 66 67 68 69 70 60 67 68 65 55 60 71 72 63 63 65 60 60 68 70 73 74 75 60 70 73 71 63 60 76 77 78 78 71 60 60 73 75 79 80 81 60 75 79 76 78 60 82 83 84 84 76 60 60 79 81 82 84 60 60 81 82 85 86 87 88 89 90 91 85 87 88 90 92 91 87 88 93 94 91 95 96 97 97 93 91 91 88 92 98 99 100 91 92 98 95 97 91 101 102 103 103 95 91 91 98 100 104 105 106 91 100 104 101 103 91 107 108 101 109 110 111 111 107 101 101 91 104 106 112 113 101 104 106 109 111 101 113 114 109 101 106 113 113 109 101 115 46 54 115 54 116 117 118 119 120 117 119 121 120 119 122 121 119 123 124 122 119 125 123 122 119 123 118 115 116 118 116 119 54 53 126 127 54 126 "
						                    >
							<Coordinate point="0.580302 0.661220 0.190809 0.580302 0.661220 0.456637 0.580302 0.661220 0.644024 0.580302 -0.379194 0.644024 0.580302 -0.379194 0.456637 0.580302 -0.379194 0.190809 0.580302 -0.379194 -0.167446 0.580302 -0.379194 -0.405735 0.580302 0.661220 -0.405735 0.580302 0.661220 -0.167446 0.580302 -0.379194 -0.644024 0.580302 0.661220 -0.644024 -0.580302 -0.379194 0.190809 -0.580302 -0.379194 0.456637 -0.580302 -0.379194 0.644024 -0.580302 0.661220 0.644024 -0.580302 0.661220 0.456637 -0.580302 0.661220 0.190809 -0.580302 0.661220 -0.167446 -0.580302 0.661220 -0.405735 -0.580302 -0.379194 -0.405735 -0.580302 -0.379194 -0.167446 -0.580302 0.661220 -0.644024 -0.580302 -0.379194 -0.644024 0.339225 0.661220 -0.644024 0.452499 0.661220 -0.644024 0.580302 0.661220 -0.644024 0.580302 -0.379194 -0.644024 0.452499 -0.379194 -0.644024 0.339225 -0.379194 -0.644024 0.225950 -0.379194 -0.644024 0.076301 -0.379194 -0.644024 0.076301 0.661220 -0.644024 0.225950 0.661220 -0.644024 0.000000 -0.379194 -0.644024 -0.076301 -0.379194 -0.644024 -0.076301 0.661220 -0.644024 -0.000000 0.661220 -0.644024 -0.225950 -0.379194 -0.644024 -0.339225 -0.379194 -0.644024 -0.339225 0.661220 -0.644024 -0.225950 0.661220 -0.644024 -0.452499 -0.379194 -0.644024 -0.580302 -0.379194 -0.644024 -0.580302 0.661220 -0.644024 -0.452499 0.661220 -0.644024 -0.580302 -0.379194 0.644024 -0.452499 -0.379194 0.644024 -0.339225 -0.379194 0.644024 -0.225950 -0.379194 0.644024 -0.076301 -0.379194 0.644024 -0.000000 -0.379194 0.644024 0.076301 -0.379194 0.644024 0.225950 -0.379194 0.644024 0.580302 -0.379194 0.644024 0.452499 0.661220 0.644024 0.580302 0.661220 0.644024 0.580302 0.661220 0.456637 0.580302 0.661220 0.190809 0.580302 0.661220 -0.167446 0.580302 0.661220 -0.405735 0.225950 0.661220 0.644024 0.339225 0.661220 0.644024 -0.076301 0.661220 0.644024 0.000000 0.661220 0.644024 0.076301 0.661220 0.644024 0.580302 0.661220 -0.644024 0.452499 0.661220 -0.644024 0.339225 0.661220 -0.644024 0.225950 0.661220 -0.644024 0.076301 0.661220 -0.644024 -0.339225 0.661220 0.644024 -0.225950 0.661220 0.644024 -0.000000 0.661220 -0.644024 -0.076301 0.661220 -0.644024 -0.225950 0.661220 -0.644024 -0.580302 0.661220 0.456637 -0.580302 0.661220 0.644024 -0.452499 0.661220 0.644024 -0.339225 0.661220 -0.644024 -0.452499 0.661220 -0.644024 -0.580302 0.661220 -0.644024 -0.580302 0.661220 -0.405735 -0.580302 0.661220 -0.167446 -0.580302 0.661220 0.190809 -0.580302 -0.379194 0.644024 -0.580302 -0.379194 0.456637 -0.580302 -0.379194 0.190809 -0.580302 -0.379194 -0.167446 -0.580302 -0.379194 -0.405735 -0.580302 -0.379194 -0.644024 -0.452499 -0.379194 0.644024 -0.452499 -0.379194 -0.644024 -0.225950 -0.379194 0.644024 -0.339225 -0.379194 0.644024 0.076301 -0.379194 0.644024 -0.000000 -0.379194 0.644024 -0.076301 -0.379194 0.644024 -0.339225 -0.379194 -0.644024 -0.225950 -0.379194 -0.644024 -0.076301 -0.379194 -0.644024 0.452499 -0.379194 0.644024 0.339225 -0.379194 0.644024 0.225950 -0.379194 0.644024 0.000000 -0.379194 -0.644024 0.076301 -0.379194 -0.644024 0.225950 -0.379194 -0.644024 0.580302 -0.379194 0.456637 0.580302 -0.379194 0.644024 0.580302 -0.379194 -0.405735 0.580302 -0.379194 -0.167446 0.580302 -0.379194 0.190809 0.339225 -0.379194 -0.644024 0.452499 -0.379194 -0.644024 0.580302 -0.379194 -0.644024 -0.580302 0.661220 0.644024 0.580302 0.661220 0.644024 -0.339225 0.661220 0.644024 -0.452499 0.661220 0.644024 0.452499 0.661220 0.644024 -0.225950 0.661220 0.644024 -0.076301 0.661220 0.644024 0.000000 0.661220 0.644024 0.225950 0.661220 0.644024 0.076301 0.661220 0.644024 0.339225 0.661220 0.644024 0.339225 -0.379194 0.644024 0.452499 -0.379194 0.644024 " />
							<Normal vector="0.707083 0.707083 0.000000 0.707083 0.707083 0.000000 0.577349 0.577349 0.577349 0.577349 -0.577349 0.577349 0.707083 -0.707083 0.000000 0.707083 -0.707083 0.000000 0.707083 -0.707083 0.000000 0.707083 -0.707083 0.000000 0.707083 0.707083 0.000000 0.707083 0.707083 0.000000 0.577349 -0.577349 -0.577349 0.577349 0.577349 -0.577349 -0.707083 -0.707083 0.000000 -0.707083 -0.707083 0.000000 -0.577349 -0.577349 0.577349 -0.577349 0.577349 0.577349 -0.707083 0.707083 0.000000 -0.707083 0.707083 0.000000 -0.707083 0.707083 0.000000 -0.707083 0.707083 0.000000 -0.707083 -0.707083 0.000000 -0.707083 -0.707083 0.000000 -0.577349 0.577349 -0.577349 -0.577349 -0.577349 -0.577349 0.000000 0.707083 -0.707083 0.000000 0.707083 -0.707083 0.577349 0.577349 -0.577349 0.577349 -0.577349 -0.577349 0.000000 -0.707083 -0.707083 0.000000 -0.707083 -0.707083 0.000000 -0.707083 -0.707083 0.000000 -0.707083 -0.707083 0.000000 0.707083 -0.707083 0.000000 0.707083 -0.707083 0.000000 -0.707083 -0.707083 0.000000 -0.707083 -0.707083 0.000000 0.707083 -0.707083 0.000000 0.707083 -0.707083 0.000000 -0.707083 -0.707083 0.000000 -0.707083 -0.707083 0.000000 0.707083 -0.707083 0.000000 0.707083 -0.707083 0.000000 -0.707083 -0.707083 -0.577349 -0.577349 -0.577349 -0.577349 0.577349 -0.577349 0.000000 0.707083 -0.707083 -0.577349 -0.577349 0.577349 0.000000 -0.846828 0.531816 0.000000 -0.846828 0.531816 0.000000 -0.846828 0.531816 0.000000 -0.846828 0.531816 0.000000 -0.846828 0.531816 0.000000 -0.846828 0.531816 0.000000 -0.846828 0.531816 0.577349 -0.577349 0.577349 0.000000 0.951079 -0.308878 0.577349 0.577349 0.577349 0.707083 0.707083 0.000000 0.707083 0.707083 0.000000 0.707083 0.707083 0.000000 0.707083 0.707083 0.000000 0.000000 0.000000 1.000000 0.000000 0.000000 0.999969 0.000000 0.981109 0.193274 0.000000 0.000000 0.999969 0.000000 0.000000 1.000000 0.577349 0.577349 -0.577349 0.000000 0.707083 -0.707083 0.000000 0.707083 -0.707083 0.000000 0.707083 -0.707083 0.000000 0.707083 -0.707083 0.000000 0.542070 0.840297 0.000000 0.686819 -0.726798 0.000000 0.707083 -0.707083 0.000000 0.707083 -0.707083 0.000000 0.707083 -0.707083 -0.707083 0.707083 0.000000 -0.577349 0.577349 0.577349 0.000000 0.951079 -0.308878 0.000000 0.707083 -0.707083 0.000000 0.707083 -0.707083 -0.577349 0.577349 -0.577349 -0.707083 0.707083 0.000000 -0.707083 0.707083 0.000000 -0.707083 0.707083 0.000000 -0.577349 -0.577349 0.577349 -0.707083 -0.707083 0.000000 -0.707083 -0.707083 0.000000 -0.707083 -0.707083 0.000000 -0.707083 -0.707083 0.000000 -0.577349 -0.577349 -0.577349 0.000000 -0.846828 0.531816 0.000000 -0.707083 -0.707083 0.000000 -0.846828 0.531816 0.000000 -0.846828 0.531816 0.000000 -0.846828 0.531816 0.000000 -0.846828 0.531816 0.000000 -0.846828 0.531816 0.000000 -0.707083 -0.707083 0.000000 -0.707083 -0.707083 0.000000 -0.707083 -0.707083 0.000000 -1.000000 0.000000 0.000000 -0.707083 -0.707083 0.000000 -0.846828 0.531816 0.000000 -0.707083 -0.707083 0.000000 -0.707083 -0.707083 0.000000 -0.707083 -0.707083 0.707083 -0.707083 0.000000 0.577349 -0.577349 0.577349 0.707083 -0.707083 0.000000 0.707083 -0.707083 0.000000 0.707083 -0.707083 0.000000 0.000000 -0.707083 -0.707083 0.000000 -0.707083 -0.707083 0.577349 -0.577349 -0.577349 -0.577349 0.577349 0.577349 0.577349 0.577349 0.577349 0.000000 0.542070 0.840297 0.000000 0.951079 -0.308878 0.000000 0.951079 -0.308878 0.000000 0.686819 -0.726798 0.000000 0.981109 0.193274 0.000000 0.000000 0.999969 0.000000 0.000000 1.000000 0.000000 0.000000 1.000000 0.000000 0.000000 0.999969 0.000000 -0.707083 -0.707083 0.000000 -1.000000 0.000000 " />
							<TextureCoordinate point="0.4490 0.6079 0.4490 0.6514 0.4490 0.6820 0.0276 0.6820 0.0276 0.6514 0.0276 0.6079 0.0276 0.5493 0.0276 0.5103 0.4490 0.5103 0.4490 0.5493 0.0276 0.4713 0.4490 0.4713 0.0276 0.6079 0.0276 0.6514 0.0276 0.6820 0.4490 0.6820 0.4490 0.6514 0.4490 0.6079 0.4490 0.5493 0.4490 0.5103 0.0276 0.5103 0.0276 0.5493 0.4490 0.4713 0.0276 0.4713 0.3615 0.6841 0.4026 0.6841 0.4490 0.6841 0.4490 0.4733 0.4026 0.4733 0.3615 0.4733 0.3203 0.4733 0.2660 0.4733 0.2660 0.6841 0.3203 0.6841 0.2383 0.4733 0.2106 0.4733 0.2106 0.6841 0.2383 0.6841 0.1562 0.4733 0.1151 0.4733 0.1151 0.6841 0.1562 0.6841 0.0740 0.4733 0.0276 0.4733 0.0276 0.6841 0.0740 0.6841 0.0276 0.4733 0.0740 0.4733 0.1151 0.4733 0.1562 0.4733 0.2106 0.4733 0.2383 0.4733 0.2660 0.4733 0.3203 0.4733 0.4490 0.4733 0.4026 0.6832 0.4490 0.6832 0.4490 0.6526 0.4490 0.6091 0.4490 0.5505 0.4490 0.5115 0.3203 0.6832 0.3615 0.6832 0.2106 0.6832 0.2383 0.6832 0.2660 0.6832 0.4490 0.4725 0.4026 0.4725 0.3615 0.4725 0.3203 0.4725 0.2660 0.4725 0.1151 0.6832 0.1562 0.6832 0.2383 0.4725 0.2106 0.4725 0.1562 0.4725 0.0276 0.6526 0.0276 0.6832 0.0740 0.6832 0.1151 0.4725 0.0740 0.4725 0.0276 0.4725 0.0276 0.5115 0.0276 0.5505 0.0276 0.6091 0.0307 0.6859 0.0307 0.6540 0.0307 0.6087 0.0307 0.5477 0.0307 0.5071 0.0307 0.4665 0.0790 0.6859 0.0790 0.4665 0.1646 0.6859 0.1218 0.6859 0.2788 0.6859 0.2500 0.6859 0.2212 0.6859 0.1218 0.4665 0.1646 0.4665 0.2212 0.4665 0.4210 0.6859 0.3782 0.6859 0.3354 0.6859 0.2500 0.4665 0.2788 0.4665 0.3354 0.4665 0.4693 0.6540 0.4693 0.6859 0.4693 0.5071 0.4693 0.5477 0.4693 0.6087 0.3782 0.4665 0.4210 0.4665 0.4693 0.4665 0.0276 0.6841 0.4490 0.6841 0.1151 0.6841 0.0740 0.6841 0.4026 0.6841 0.1562 0.6841 0.2106 0.6841 0.2383 0.6841 0.3203 0.6841 0.2660 0.6841 0.3615 0.6841 0.3615 0.4733 0.4026 0.4733 " />
						</IndexedTriangleSet>
					</Shape>
				</Group>
			</Transform>
			<Transform DEF="Cube_001_TRANSFORM"
			           translation="0.000000 0.000000 0.000000"
			           scale="1.000000 1.000000 1.000000"
			           rotation="0.000000 1.000000 0.000000 0.000000"
			           >
				<Transform DEF="Cube_001_ifs_TRANSFORM"
				           translation="0.000000 0.000000 0.000000"
				           scale="1.000000 1.000000 1.000000"
				           rotation="0.000000 1.000000 0.000000 0.000000"
				           >
					<Group DEF="group_ME_Cube_002">
						<Shape>
							<Appearance>
								<Material USE="MA_Body" />
							</Appearance>
							<IndexedTriangleSet solid="false"
							                    normalPerVertex="true"
							                    index="0 1 2 0 2 3 4 5 6 4 6 7 8 9 10 8 10 11 12 13 14 12 14 15 4 16 17 4 17 15 18 5 14 18 14 19 "
							                    >
								<Coordinate point="-0.810249 -0.362749 -0.362749 -0.810249 -0.362749 0.362749 -0.810249 0.362749 0.362749 -0.810249 0.362749 -0.362749 -0.810249 0.362749 -0.362749 -0.810249 0.362749 0.362749 0.810249 0.362749 0.362749 0.810249 0.362749 -0.362749 0.810249 0.362749 -0.362749 0.810249 0.362749 0.362749 0.810249 -0.362749 0.362749 0.810249 -0.362749 -0.362749 0.810249 -0.362749 -0.362749 0.810249 -0.362749 0.362749 -0.810249 -0.362749 0.362749 -0.810249 -0.362749 -0.362749 0.810249 0.362749 -0.362749 0.810249 -0.362749 -0.362749 0.810249 0.362749 0.362749 0.810249 -0.362749 0.362749 " />
								<Normal vector="-0.577349 -0.577349 -0.577349 -0.577349 -0.577349 0.577349 -0.577349 0.577349 0.577349 -0.577349 0.577349 -0.577349 -0.577349 0.577349 -0.577349 -0.577349 0.577349 0.577349 0.577349 0.577349 0.577349 0.577349 0.577349 -0.577349 0.577349 0.577349 -0.577349 0.577349 0.577349 0.577349 0.577349 -0.577349 0.577349 0.577349 -0.577349 -0.577349 0.577349 -0.577349 -0.577349 0.577349 -0.577349 0.577349 -0.577349 -0.577349 0.577349 -0.577349 -0.577349 -0.577349 0.577349 0.577349 -0.577349 0.577349 -0.577349 -0.577349 0.577349 0.577349 0.577349 0.577349 -0.577349 0.577349 " />
								<TextureCoordinate point="0.0573 0.4576 0.4430 0.4576 0.4430 0.7022 0.0573 0.7022 0.0573 0.4576 0.4430 0.4576 0.4430 0.7022 0.0573 0.7022 0.0573 0.4576 0.4430 0.4576 0.4430 0.7022 0.0573 0.7022 0.0573 0.4576 0.4430 0.4576 0.4430 0.7022 0.0573 0.7022 0.4430 0.4576 0.4430 0.7022 0.0573 0.4576 0.0573 0.7022 " />
							</IndexedTriangleSet>
						</Shape>
					</Group>
				</Transform>
			</Transform>
			<Transform DEF="Cube_002_TRANSFORM"
			           translation="0.000000 0.000000 0.000000"
			           scale="1.000000 1.000000 1.000000"
			           rotation="0.000000 1.000000 0.000000 0.000000"
			           >
				<Transform DEF="Cube_002_ifs_TRANSFORM"
				           translation="0.000000 0.000000 0.000000"
				           scale="1.000000 1.000000 1.000000"
				           rotation="0.000000 1.000000 0.000000 0.000000"
				           >
					<Group DEF="group_ME_Cube_003">
						<Shape>
							<Appearance>
								<Material USE="MA_Body" />
							</Appearance>
							<IndexedTriangleSet solid="false"
							                    normalPerVertex="true"
							                    index="0 1 2 0 2 3 4 5 6 4 6 7 8 9 10 8 10 11 12 13 14 12 14 15 4 16 17 4 17 15 18 5 14 18 14 19 "
							                    >
								<Coordinate point="-0.893935 -0.266583 -0.266583 -0.893935 -0.266583 0.266583 -0.893935 0.266583 0.266583 -0.893935 0.266583 -0.266583 -0.893935 0.266583 -0.266583 -0.893935 0.266583 0.266583 0.893935 0.266583 0.266583 0.893935 0.266583 -0.266583 0.893935 0.266583 -0.266583 0.893935 0.266583 0.266583 0.893935 -0.266583 0.266583 0.893935 -0.266583 -0.266583 0.893935 -0.266583 -0.266583 0.893935 -0.266583 0.266583 -0.893935 -0.266583 0.266583 -0.893935 -0.266583 -0.266583 0.893935 0.266583 -0.266583 0.893935 -0.266583 -0.266583 0.893935 0.266583 0.266583 0.893935 -0.266583 0.266583 " />
								<Normal vector="-0.577349 -0.577349 -0.577349 -0.577349 -0.577349 0.577349 -0.577349 0.577349 0.577349 -0.577349 0.577349 -0.577349 -0.577349 0.577349 -0.577349 -0.577349 0.577349 0.577349 0.577349 0.577349 0.577349 0.577349 0.577349 -0.577349 0.577349 0.577349 -0.577349 0.577349 0.577349 0.577349 0.577349 -0.577349 0.577349 0.577349 -0.577349 -0.577349 0.577349 -0.577349 -0.577349 0.577349 -0.577349 0.577349 -0.577349 -0.577349 0.577349 -0.577349 -0.577349 -0.577349 0.577349 0.577349 -0.577349 0.577349 -0.577349 -0.577349 0.577349 0.577349 0.577349 0.577349 -0.577349 0.577349 " />
								<TextureCoordinate point="0.1039 0.2507 0.4195 0.2507 0.4195 0.4280 0.1039 0.4280 0.1039 0.2507 0.4195 0.2507 0.4195 0.4280 0.1039 0.4280 0.1039 0.2507 0.4195 0.2507 0.4195 0.4280 0.1039 0.4280 0.1039 0.2507 0.4195 0.2507 0.4195 0.4280 0.1039 0.4280 0.4195 0.2507 0.4195 0.4280 0.1039 0.2507 0.1039 0.4280 " />
							</IndexedTriangleSet>
						</Shape>
					</Group>
				</Transform>
			</Transform>
			<Transform DEF="tail_TRANSFORM"
			           translation="0.000000 0.650854 -0.228697"
			           scale="1.000000 1.000000 1.000000"
			           rotation="0.000000 1.000000 0.000000 0.000000"
			           >
				<Transform DEF="tail_ifs_TRANSFORM"
				           translation="0.000000 0.000000 0.000000"
				           scale="1.000000 1.000000 1.000000"
				           rotation="0.000000 1.000000 0.000000 0.000000"
				           >
					<Group DEF="group_ME_tail">
						<Shape>
							<Appearance>
								<Material USE="MA_Body" />
							</Appearance>
							<IndexedTriangleSet solid="false"
							                    normalPerVertex="true"
							                    index="0 1 2 0 2 3 4 0 3 4 3 5 "
							                    >
								<Coordinate point="0.000000 0.000000 0.000000 0.603313 0.000000 0.000000 0.603313 2.000000 0.000000 0.000000 2.000000 0.000000 -0.603313 0.000000 0.000000 -0.603313 2.000000 0.000000 " />
								<Normal vector="0.000000 0.000000 1.000000 0.000000 0.000000 1.000000 0.000000 0.000000 1.000000 0.000000 0.000000 1.000000 0.000000 0.000000 1.000000 0.000000 0.000000 1.000000 " />
								<TextureCoordinate point="0.9823 0.0000 0.5177 0.0000 0.5177 1.0000 0.9823 1.0000 0.5177 0.0000 0.5177 1.0000 " />
							</IndexedTriangleSet>
						</Shape>
					</Group>
				</Transform>
			</Transform>
			<Transform DEF="Cube_003_TRANSFORM"
			           translation="0.000000 -0.526299 0.000000"
			           scale="1.000000 1.000000 1.000000"
			           rotation="0.000000 1.000000 0.000000 0.000000"
			           >
				<Transform DEF="Cube_003_ifs_TRANSFORM"
				           translation="0.000000 0.000000 0.000000"
				           scale="1.000000 1.000000 1.000000"
				           rotation="0.000000 1.000000 0.000000 0.000000"
				           >
					<Group DEF="group_ME_Cube_001">
						<Shape>
							<Appearance>
								<Material USE="MA_Body" />
							</Appearance>
							<IndexedTriangleSet solid="false"
							                    normalPerVertex="true"
							                    index="0 1 2 2 3 4 4 5 6 0 2 4 7 8 0 9 10 11 11 7 0 0 4 6 12 13 14 11 0 6 12 14 15 9 11 6 12 15 16 9 6 12 17 18 19 9 12 16 20 21 22 17 19 9 23 24 17 25 26 23 27 28 25 25 23 17 16 20 22 16 22 29 25 17 9 16 29 27 27 25 9 16 27 9 30 31 32 32 33 34 35 36 37 32 34 35 37 30 32 32 35 37 38 39 40 40 41 42 43 44 45 40 42 43 45 38 40 40 43 45 46 47 48 48 49 50 51 52 53 48 50 51 54 55 46 46 48 51 53 56 57 58 54 46 59 60 61 61 58 46 51 53 57 62 63 64 51 57 62 64 65 66 51 62 64 64 66 67 68 69 70 64 67 68 61 46 51 71 72 59 59 61 51 68 70 73 74 75 76 68 73 74 59 51 64 77 78 71 71 59 64 64 68 74 76 79 77 64 74 76 77 71 64 64 76 77 80 81 82 83 84 85 80 82 83 86 87 80 88 89 86 90 91 88 88 86 80 80 83 85 92 93 94 80 85 92 90 88 80 95 96 97 90 80 92 98 95 97 90 92 94 94 99 100 100 101 102 102 103 104 94 100 102 98 97 90 105 106 107 107 98 90 94 102 104 108 109 105 90 94 104 108 105 107 90 104 108 108 107 90 110 111 112 112 113 114 115 116 117 112 114 115 117 110 112 112 115 117 118 119 120 120 121 122 123 124 125 120 122 123 125 118 120 120 123 125 126 127 128 128 129 130 130 131 132 126 128 130 133 134 126 135 136 137 137 133 126 126 130 132 132 138 139 140 141 142 126 132 139 140 142 143 137 126 139 140 143 144 137 139 140 145 146 135 135 137 140 140 144 147 145 135 140 148 149 150 150 145 140 147 151 152 150 140 147 153 154 148 148 150 147 152 155 156 148 147 152 157 153 148 156 158 159 159 157 148 152 156 159 152 159 148 10 84 83 10 83 11 64 148 154 64 154 65 50 133 137 50 137 51 0 80 87 0 87 1 7 82 81 7 81 8 47 127 126 47 126 48 63 149 148 63 148 64 67 157 159 67 159 68 55 129 128 55 128 46 24 99 94 24 94 17 66 153 157 66 157 67 23 100 99 23 99 24 48 126 134 48 134 49 8 81 80 8 80 0 51 137 136 51 136 52 57 145 150 57 150 62 17 94 93 17 93 18 49 134 133 49 133 50 18 93 92 18 92 19 53 135 146 53 146 56 11 83 82 11 82 7 62 150 149 62 149 63 46 128 127 46 127 47 9 85 84 9 84 10 52 136 135 52 135 53 68 159 158 68 158 69 56 146 145 56 145 57 1 87 86 1 86 2 19 92 85 19 85 9 65 154 153 65 153 66 "
							                    >
								<Coordinate point="-0.424511 -0.018845 0.551857 -0.544409 -0.018845 0.551857 -0.544409 -0.018845 0.391287 -0.424511 -0.018845 0.391287 -0.318243 -0.018845 0.391287 -0.211974 -0.018845 0.391287 -0.071581 -0.018845 0.391287 -0.211974 -0.018845 0.551857 -0.318243 -0.018845 0.551857 0.071581 -0.018845 0.551857 -0.000000 -0.018845 0.551857 -0.071581 -0.018845 0.551857 -0.071581 -0.018845 0.163502 -0.211974 -0.018845 0.163502 -0.211974 -0.018845 -0.143483 -0.071581 -0.018845 -0.143483 -0.000000 -0.018845 -0.143483 0.424511 -0.018845 0.551857 0.318243 -0.018845 0.551857 0.211974 -0.018845 0.551857 0.071581 -0.018845 -0.143483 0.211974 -0.018845 -0.143483 0.211974 -0.018845 0.163502 0.544409 -0.018845 0.391287 0.544409 -0.018845 0.551857 0.318243 -0.018845 0.391287 0.424511 -0.018845 0.391287 0.071581 -0.018845 0.391287 0.211974 -0.018845 0.391287 0.071581 -0.018845 0.163502 -0.211974 -0.018845 0.391287 -0.318243 -0.018845 0.391287 -0.424511 -0.018845 0.391287 -0.424511 -0.018845 0.163502 -0.318243 -0.018845 0.163502 -0.211974 -0.018845 0.163502 -0.071581 -0.018845 0.163502 -0.071581 -0.018845 0.391287 0.424511 -0.018845 0.391287 0.318243 -0.018845 0.391287 0.211974 -0.018845 0.391287 0.071581 -0.018845 0.391287 0.071581 -0.018845 0.163502 0.211974 -0.018845 0.163502 0.318243 -0.018845 0.163502 0.424511 -0.018845 0.163502 -0.544409 -0.018845 0.163502 -0.544409 -0.018845 -0.143483 -0.544409 -0.018845 -0.347670 -0.544409 -0.018845 -0.551857 -0.424511 -0.018845 -0.551857 -0.318243 -0.018845 -0.551857 -0.211974 -0.018845 -0.551857 -0.071581 -0.018845 -0.551857 -0.424511 -0.018845 0.391287 -0.544409 -0.018845 0.391287 0.000000 -0.018845 -0.551857 0.071581 -0.018845 -0.551857 -0.424511 -0.018845 0.163502 -0.318243 -0.018845 -0.347670 -0.318243 -0.018845 -0.143483 -0.424511 -0.018845 -0.143483 0.211974 -0.018845 -0.551857 0.318243 -0.018845 -0.551857 0.424511 -0.018845 -0.551857 0.544409 -0.018845 -0.551857 0.544409 -0.018845 -0.347670 0.544409 -0.018845 -0.143483 0.544409 -0.018845 0.163502 0.544409 -0.018845 0.391287 0.424511 -0.018845 0.391287 -0.071581 -0.018845 -0.347670 -0.211974 -0.018845 -0.347670 0.424511 -0.018845 0.163502 0.424511 -0.018845 -0.143483 0.318243 -0.018845 -0.143483 0.318243 -0.018845 -0.347670 0.071581 -0.018845 -0.347670 -0.000000 -0.018845 -0.347670 0.211974 -0.018845 -0.347670 -0.424511 0.204776 0.551857 -0.318243 0.204776 0.551857 -0.211974 0.204776 0.551857 -0.071581 0.204776 0.551857 -0.000000 0.204776 0.551857 0.071581 0.204776 0.551857 -0.544409 0.204776 0.391287 -0.544409 0.204776 0.551857 -0.318243 0.204776 0.391287 -0.424511 0.204776 0.391287 -0.071581 0.204776 0.391287 -0.211974 0.204776 0.391287 0.211974 0.204776 0.551857 0.318243 0.204776 0.551857 0.424511 0.204776 0.551857 -0.211974 0.204776 -0.143483 -0.211974 0.204776 0.163502 -0.071581 0.204776 0.163502 -0.071581 0.204776 -0.143483 0.544409 0.204776 0.551857 0.544409 0.204776 0.391287 0.424511 0.204776 0.391287 0.318243 0.204776 0.391287 0.211974 0.204776 0.391287 0.071581 0.204776 0.391287 0.211974 0.204776 -0.143483 0.071581 0.204776 -0.143483 -0.000000 0.204776 -0.143483 0.071581 0.204776 0.163502 0.211974 0.204776 0.163502 -0.424511 0.204776 0.391287 -0.318243 0.204776 0.391287 -0.211974 0.204776 0.391287 -0.071581 0.204776 0.391287 -0.071581 0.204776 0.163502 -0.211974 0.204776 0.163502 -0.318243 0.204776 0.163502 -0.424511 0.204776 0.163502 0.211974 0.204776 0.391287 0.318243 0.204776 0.391287 0.424511 0.204776 0.391287 0.424511 0.204776 0.163502 0.318243 0.204776 0.163502 0.211974 0.204776 0.163502 0.071581 0.204776 0.163502 0.071581 0.204776 0.391287 -0.544409 0.204776 -0.347670 -0.544409 0.204776 -0.143483 -0.544409 0.204776 0.163502 -0.544409 0.204776 0.391287 -0.424511 0.204776 0.391287 -0.424511 0.204776 0.163502 -0.424511 0.204776 -0.143483 -0.424511 0.204776 -0.551857 -0.544409 0.204776 -0.551857 -0.071581 0.204776 -0.551857 -0.211974 0.204776 -0.551857 -0.318243 0.204776 -0.551857 -0.318243 0.204776 -0.143483 -0.318243 0.204776 -0.347670 -0.211974 0.204776 -0.347670 -0.071581 0.204776 -0.347670 -0.000000 0.204776 -0.347670 0.071581 0.204776 -0.347670 0.211974 0.204776 -0.347670 0.071581 0.204776 -0.551857 0.000000 0.204776 -0.551857 0.318243 0.204776 -0.347670 0.424511 0.204776 -0.551857 0.318243 0.204776 -0.551857 0.211974 0.204776 -0.551857 0.318243 0.204776 -0.143483 0.424511 0.204776 -0.143483 0.544409 0.204776 -0.347670 0.544409 0.204776 -0.551857 0.424511 0.204776 0.163502 0.424511 0.204776 0.391287 0.544409 0.204776 -0.143483 0.544409 0.204776 0.391287 0.544409 0.204776 0.163502 " />
								<Normal vector="0.000000 -0.707083 0.707083 -0.577349 -0.577349 0.577349 -0.707083 -0.707083 0.000000 0.000000 -0.999969 0.000000 0.000000 -1.000000 0.000000 0.000000 -1.000000 0.000000 0.000000 -1.000000 0.000000 0.000000 -0.707053 0.707144 0.000000 -0.707083 0.707083 0.000000 -0.707053 0.707144 0.000000 -0.707083 0.707083 0.000000 -0.707053 0.707144 0.000000 -1.000000 0.000000 0.000000 -1.000000 0.000000 0.000000 -1.000000 0.000000 0.000000 -1.000000 0.000000 0.000000 -1.000000 0.000000 0.000000 -0.707083 0.707083 0.000000 -0.707083 0.707083 0.000000 -0.707053 0.707144 0.000000 -1.000000 0.000000 0.000000 -1.000000 0.000000 0.000000 -1.000000 0.000000 0.707083 -0.707083 0.000000 0.577349 -0.577349 0.577349 0.000000 -1.000000 0.000000 0.000000 -0.999969 0.000000 0.000000 -1.000000 0.000000 0.000000 -1.000000 0.000000 0.000000 -1.000000 0.000000 0.000000 -1.000000 0.000000 0.000000 -1.000000 0.000000 0.000000 -0.999969 0.000000 0.000000 -1.000000 0.000000 0.000000 -1.000000 0.000000 0.000000 -1.000000 0.000000 0.000000 -1.000000 0.000000 0.000000 -1.000000 0.000000 0.000000 -0.999969 0.000000 0.000000 -1.000000 0.000000 0.000000 -1.000000 0.000000 0.000000 -1.000000 0.000000 0.000000 -1.000000 0.000000 0.000000 -1.000000 0.000000 0.000000 -1.000000 0.000000 0.000000 -1.000000 0.000000 -0.707083 -0.707083 0.000000 -0.707083 -0.707083 0.000000 -0.707083 -0.707083 0.000000 -0.577349 -0.577349 -0.577349 0.000000 -0.707083 -0.707083 0.000000 -0.707083 -0.707083 0.000000 -0.707053 -0.707144 0.000000 -0.707053 -0.707144 0.000000 -0.999969 0.000000 -0.707083 -0.707083 0.000000 0.000000 -0.707083 -0.707083 0.000000 -0.707053 -0.707144 0.000000 -1.000000 0.000000 0.000000 -1.000000 0.000000 0.000000 -1.000000 0.000000 0.000000 -1.000000 0.000000 0.000000 -0.707053 -0.707144 0.000000 -0.707083 -0.707083 0.000000 -0.707083 -0.707083 0.577349 -0.577349 -0.577349 0.707083 -0.707083 0.000000 0.707083 -0.707083 0.000000 0.707083 -0.707083 0.000000 0.707083 -0.707083 0.000000 0.000000 -0.999969 0.000000 0.000000 -1.000000 0.000000 0.000000 -1.000000 0.000000 0.000000 -1.000000 0.000000 0.000000 -1.000000 0.000000 0.000000 -1.000000 0.000000 0.000000 -1.000000 0.000000 0.000000 -1.000000 0.000000 0.000000 -1.000000 0.000000 0.000000 -1.000000 0.000000 0.000000 0.707083 0.707083 0.000000 0.707083 0.707083 0.000000 0.707053 0.707144 0.000000 0.707053 0.707144 0.000000 0.707083 0.707083 0.000000 0.707053 0.707144 -0.707083 0.707083 0.000000 -0.577349 0.577349 0.577349 0.000000 1.000000 0.000000 0.000000 0.999969 0.000000 0.000000 1.000000 0.000000 0.000000 1.000000 0.000000 0.000000 0.707053 0.707144 0.000000 0.707083 0.707083 0.000000 0.707083 0.707083 0.000000 1.000000 0.000000 0.000000 1.000000 0.000000 0.000000 1.000000 0.000000 0.000000 1.000000 0.000000 0.577349 0.577349 0.577349 0.707083 0.707083 0.000000 0.000000 0.999969 0.000000 0.000000 1.000000 0.000000 0.000000 1.000000 0.000000 0.000000 1.000000 0.000000 0.000000 1.000000 0.000000 0.000000 1.000000 0.000000 0.000000 1.000000 0.000000 0.000000 1.000000 0.000000 0.000000 1.000000 0.000000 0.000000 0.999969 0.000000 0.000000 1.000000 0.000000 0.000000 1.000000 0.000000 0.000000 1.000000 0.000000 0.000000 1.000000 0.000000 0.000000 1.000000 0.000000 0.000000 1.000000 0.000000 0.000000 1.000000 0.000000 0.000000 1.000000 0.000000 0.000000 1.000000 0.000000 0.000000 0.999969 0.000000 0.000000 1.000000 0.000000 0.000000 1.000000 0.000000 0.000000 1.000000 0.000000 0.000000 1.000000 0.000000 0.000000 1.000000 0.000000 -0.707083 0.707083 0.000000 -0.707083 0.707083 0.000000 -0.707083 0.707083 0.000000 -0.707083 0.707083 0.000000 0.000000 0.999969 0.000000 0.000000 1.000000 0.000000 0.000000 1.000000 0.000000 0.000000 0.707083 -0.707083 -0.577349 0.577349 -0.577349 0.000000 0.707053 -0.707144 0.000000 0.707053 -0.707144 0.000000 0.707083 -0.707083 0.000000 1.000000 0.000000 0.000000 1.000000 0.000000 0.000000 1.000000 0.000000 0.000000 1.000000 0.000000 0.000000 1.000000 0.000000 0.000000 1.000000 0.000000 0.000000 1.000000 0.000000 0.000000 0.707053 -0.707144 0.000000 0.707083 -0.707083 0.000000 1.000000 0.000000 0.000000 0.707083 -0.707083 0.000000 0.707083 -0.707083 0.000000 0.707053 -0.707144 0.000000 1.000000 0.000000 0.000000 1.000000 0.000000 0.707083 0.707083 0.000000 0.577349 0.577349 -0.577349 0.000000 1.000000 0.000000 0.000000 0.999969 0.000000 0.707083 0.707083 0.000000 0.707083 0.707083 0.000000 0.707083 0.707083 0.000000 " />
								<TextureCoordinate point="0.3516 0.7272 0.3516 0.9717 0.1070 0.9717 0.1070 0.9717 0.1070 0.8494 0.1070 0.9717 0.3516 0.9717 0.3516 0.7272 0.3516 0.8494 0.3516 0.7272 0.3516 0.8494 0.3516 0.7272 0.3516 0.7272 0.3516 0.9717 0.1070 0.9717 0.1070 0.9717 0.1070 0.8494 0.3516 0.7272 0.3516 0.8494 0.3516 0.7272 0.1070 0.9717 0.1070 0.7272 0.3516 0.7272 0.1070 0.7272 0.3516 0.7272 0.1070 0.8494 0.1070 0.9717 0.1070 0.9717 0.1070 0.9717 0.1070 0.7272 0.2050 0.2095 0.3461 0.2095 0.4873 0.2095 0.4873 0.0068 0.3461 0.0068 0.2050 0.0068 0.0185 0.0068 0.0185 0.2095 0.4888 0.2095 0.3477 0.2095 0.2065 0.2095 0.0200 0.2095 0.0200 0.0068 0.2065 0.0068 0.3477 0.0068 0.4888 0.0068 0.3516 0.9717 0.3516 0.9717 0.3516 0.9717 0.1070 0.9717 0.1070 0.9717 0.1070 0.8494 0.1070 0.9717 0.1070 0.9717 0.3516 0.7272 0.3516 0.9717 0.1070 0.8494 0.1070 0.9717 0.1070 0.7272 0.1070 0.8494 0.3516 0.8494 0.1070 0.7272 0.1070 0.9717 0.1070 0.8494 0.1070 0.9717 0.1070 0.7272 0.1070 0.7272 0.1070 0.7272 0.1070 0.7272 0.3516 0.7272 0.3516 0.9717 0.3516 0.7272 0.3516 0.7272 0.3516 0.9717 0.3516 0.7272 0.3516 0.8494 0.3516 0.8494 0.3516 0.7272 0.3516 0.8494 0.3516 0.7272 0.3516 0.7272 0.3516 0.8494 0.3516 0.7272 0.3516 0.7272 0.3516 0.8494 0.3516 0.7272 0.1070 0.9717 0.3516 0.9717 0.1070 0.8494 0.1070 0.9717 0.3516 0.9717 0.1070 0.9717 0.3516 0.7272 0.3516 0.8494 0.3516 0.7272 0.1070 0.9717 0.3516 0.9717 0.3516 0.7272 0.1070 0.9717 0.3516 0.7272 0.1070 0.7272 0.1070 0.9717 0.1070 0.8494 0.1070 0.9717 0.1070 0.9717 0.1070 0.7272 0.1070 0.9717 0.1070 0.8494 0.1070 0.7272 0.3516 0.7272 0.4873 0.2095 0.3461 0.2095 0.2050 0.2095 0.0185 0.2095 0.0185 0.0068 0.2050 0.0068 0.3461 0.0068 0.4873 0.0068 0.2065 0.2095 0.3477 0.2095 0.4888 0.2095 0.4888 0.0068 0.3477 0.0068 0.2065 0.0068 0.0200 0.0068 0.0200 0.2095 0.3516 0.9717 0.3516 0.9717 0.3516 0.9717 0.3516 0.9717 0.3516 0.7272 0.1070 0.7272 0.1070 0.7272 0.1070 0.9717 0.1070 0.9717 0.1070 0.9717 0.1070 0.9717 0.1070 0.8494 0.3516 0.8494 0.1070 0.8494 0.3516 0.7272 0.3516 0.7272 0.3516 0.8494 0.3516 0.7272 0.3516 0.7272 0.1070 0.9717 0.1070 0.8494 0.3516 0.8494 0.1070 0.9717 0.1070 0.8494 0.1070 0.9717 0.3516 0.8494 0.3516 0.7272 0.1070 0.7272 0.1070 0.7272 0.3516 0.9717 0.3516 0.9717 0.1070 0.7272 0.3516 0.7272 0.1070 0.7272 " />
							</IndexedTriangleSet>
						</Shape>
						<Shape>
							<Appearance>
								<Material DEF="MA_Face"
								          diffuseColor="0.800 0.800 0.800"
								          specularColor="0.401 0.401 0.401"
								          emissiveColor="0.000 0.000 0.000"
								          ambientIntensity="0.000"
								          shininess="0.500"
								          transparency="0.0"
								          />
							</Appearance>
							<IndexedTriangleSet solid="false"
							                    normalPerVertex="true"
							                    index="0 1 2 3 4 5 0 2 3 0 3 5 6 7 8 8 9 10 11 12 13 8 10 11 13 6 8 8 11 13 14 15 16 17 18 6 14 16 17 6 13 19 19 14 17 17 6 19 20 21 22 23 24 25 20 22 23 20 23 25 26 27 28 29 30 31 26 28 29 26 29 31 32 33 34 34 35 36 37 38 39 34 36 37 37 39 32 34 37 32 40 41 42 43 35 34 40 42 43 34 44 45 45 40 43 43 34 45 46 47 48 49 50 51 46 48 49 46 49 51 "
							                    >
								<Coordinate point="0.318243 -0.018845 0.163502 0.211974 -0.018845 0.163502 0.211974 -0.018845 -0.143483 0.318243 -0.018845 -0.143483 0.424511 -0.018845 -0.143483 0.424511 -0.018845 0.163502 -0.000000 -0.018845 -0.143483 -0.071581 -0.018845 -0.143483 -0.211974 -0.018845 -0.143483 -0.318243 -0.018845 -0.143483 -0.318243 -0.018845 -0.347670 -0.211974 -0.018845 -0.347670 -0.071581 -0.018845 -0.347670 -0.000000 -0.018845 -0.347670 0.211974 -0.018845 -0.347670 0.318243 -0.018845 -0.347670 0.318243 -0.018845 -0.143483 0.211974 -0.018845 -0.143483 0.071581 -0.018845 -0.143483 0.071581 -0.018845 -0.347670 -0.318243 -0.018845 0.163502 -0.424511 -0.018845 0.163502 -0.424511 -0.018845 -0.143483 -0.318243 -0.018845 -0.143483 -0.211974 -0.018845 -0.143483 -0.211974 -0.018845 0.163502 0.318243 0.204776 0.163502 0.424511 0.204776 0.163502 0.424511 0.204776 -0.143483 0.318243 0.204776 -0.143483 0.211974 0.204776 -0.143483 0.211974 0.204776 0.163502 -0.211974 0.204776 -0.143483 -0.071581 0.204776 -0.143483 -0.000000 0.204776 -0.143483 -0.000000 0.204776 -0.347670 -0.071581 0.204776 -0.347670 -0.211974 0.204776 -0.347670 -0.318243 0.204776 -0.347670 -0.318243 0.204776 -0.143483 0.318243 0.204776 -0.143483 0.318243 0.204776 -0.347670 0.211974 0.204776 -0.347670 0.071581 0.204776 -0.347670 0.071581 0.204776 -0.143483 0.211974 0.204776 -0.143483 -0.318243 0.204776 0.163502 -0.211974 0.204776 0.163502 -0.211974 0.204776 -0.143483 -0.318243 0.204776 -0.143483 -0.424511 0.204776 -0.143483 -0.424511 0.204776 0.163502 " />
								<Normal vector="0.000000 -1.000000 0.000000 0.000000 -1.000000 0.000000 0.000000 -1.000000 0.000000 0.000000 -1.000000 0.000000 0.000000 -1.000000 0.000000 0.000000 -1.000000 0.000000 0.000000 -1.000000 0.000000 0.000000 -1.000000 0.000000 0.000000 -1.000000 0.000000 0.000000 -1.000000 0.000000 0.000000 -1.000000 0.000000 0.000000 -1.000000 0.000000 0.000000 -1.000000 0.000000 0.000000 -1.000000 0.000000 0.000000 -1.000000 0.000000 0.000000 -1.000000 0.000000 0.000000 -1.000000 0.000000 0.000000 -1.000000 0.000000 0.000000 -1.000000 0.000000 0.000000 -1.000000 0.000000 0.000000 -1.000000 0.000000 0.000000 -1.000000 0.000000 0.000000 -1.000000 0.000000 0.000000 -1.000000 0.000000 0.000000 -1.000000 0.000000 0.000000 -1.000000 0.000000 0.000000 1.000000 0.000000 0.000000 1.000000 0.000000 0.000000 1.000000 0.000000 0.000000 1.000000 0.000000 0.000000 1.000000 0.000000 0.000000 1.000000 0.000000 0.000000 1.000000 0.000000 0.000000 1.000000 0.000000 0.000000 1.000000 0.000000 0.000000 1.000000 0.000000 0.000000 1.000000 0.000000 0.000000 1.000000 0.000000 0.000000 1.000000 0.000000 0.000000 1.000000 0.000000 0.000000 1.000000 0.000000 0.000000 1.000000 0.000000 0.000000 1.000000 0.000000 0.000000 1.000000 0.000000 0.000000 1.000000 0.000000 0.000000 1.000000 0.000000 0.000000 1.000000 0.000000 0.000000 1.000000 0.000000 0.000000 1.000000 0.000000 0.000000 1.000000 0.000000 0.000000 1.000000 0.000000 0.000000 1.000000 0.000000 " />
								<TextureCoordinate point="0.7489 0.9868 0.5654 0.9868 0.5654 0.5090 0.7489 0.5090 0.9323 0.5090 0.9323 0.9868 0.0095 0.9865 0.1106 0.9865 0.3091 0.9865 0.4593 0.9865 0.4593 0.5838 0.3091 0.5838 0.1106 0.5838 0.0095 0.5838 0.3091 0.5838 0.4593 0.5838 0.4593 0.9865 0.3091 0.9865 0.1106 0.9865 0.1106 0.5838 0.7489 0.9868 0.5654 0.9868 0.5654 0.5090 0.7489 0.5090 0.9323 0.5090 0.9323 0.9868 0.7489 0.9868 0.9323 0.9868 0.9323 0.5090 0.7489 0.5090 0.5654 0.5090 0.5654 0.9868 0.3091 0.9865 0.1106 0.9865 0.0095 0.9865 0.0095 0.5838 0.1106 0.5838 0.3091 0.5838 0.4593 0.5838 0.4593 0.9865 0.4593 0.9865 0.4593 0.5838 0.3091 0.5838 0.1106 0.5838 0.1106 0.9865 0.3091 0.9865 0.7489 0.9868 0.9323 0.9868 0.9323 0.5090 0.7489 0.5090 0.5654 0.5090 0.5654 0.9868 " />
							</IndexedTriangleSet>
						</Shape>
					</Group>
				</Transform>
			</Transform>
		</Transform>
	</Scene>
</X3D>