<?xml version="1.0" encoding="UTF-8"?>
<!DOCTYPE X3D PUBLIC "ISO//Web3D//DTD X3D 3.0//EN" "http://www.web3d.org/specifications/x3d-3.0.dtd">
<X3D version="3.0" profile="Immersive" xmlns:xsd="http://www.w3.org/2001/XMLSchema-instance" xsd:noNamespaceSchemaLocation="http://www.web3d.org/specifications/x3d-3.0.xsd">
	<head>
		<meta name="filename" content="tynamo.x3d" />
		<meta name="generator" content="Blender 2.93.18" />
	</head>
	<Scene>
		<NavigationInfo headlight="true"
		                visibilityLimit="0.0"
		                type='"EXAMINE", "ANY"'
		                avatarSize="0.25, 1.75, 0.75"
		                />
		<Background DEF="WO_World"
		            groundColor="0.051 0.051 0.051"
		            skyColor="0.051 0.051 0.051"
		            />
		<Transform DEF="body_TRANSFORM"
		           translation="0.000000 0.285035 1.039860"
		           scale="1.000000 1.000000 1.000000"
		           rotation="0.000000 0.000000 1.000000 3.141593"
		           >
			<Transform DEF="body_ifs_TRANSFORM"
			           translation="0.000000 0.000000 0.000000"
			           scale="1.000000 1.000000 1.000000"
			           rotation="0.000000 1.000000 0.000000 0.000000"
			           >
				<Group DEF="group_ME_body">
					<Shape>
						<Appearance>
							<Material DEF="MA_Body"
							          diffuseColor="0.800 0.800 0.800"
							          specularColor="0.401 0.401 0.401"
							          emissiveColor="0.000 0.000 0.000"
							          ambientIntensity="0.000"
							          shininess="0.500"
							          transparency="0.0"
							          />
						</Appearance>
						<IndexedTriangleSet solid="false"
						                    normalPerVertex="true"
						                    index="0 1 2 0 2 3 4 5 6 4 6 7 8 9 10 8 10 11 12 13 14 12 14 15 16 17 18 16 18 15 19 20 14 19 14 21 "
						                    >
							<Coordinate point="-0.378956 0.000000 -0.667193 -0.378956 0.000000 0.667193 -0.378956 0.911488 0.667193 -0.378956 0.911488 -0.667193 -0.378956 0.911488 -0.667193 -0.378956 0.911488 0.667193 0.378956 0.911488 0.667193 0.378956 0.911488 -0.667193 0.378956 0.911488 -0.667193 0.378956 0.911488 0.667193 0.378956 0.000000 0.667193 0.378956 0.000000 -0.667193 0.378956 0.000000 -0.667193 0.378956 0.000000 0.667193 -0.378956 0.000000 0.667193 -0.378956 0.000000 -0.667193 -0.378956 0.911488 -0.667193 0.378956 0.911488 -0.667193 0.378956 0.000000 -0.667193 0.378956 0.911488 0.667193 -0.378956 0.911488 0.667193 0.378956 0.000000 0.667193 " />
							<Normal vector="-0.577349 -0.577349 -0.577349 -0.577349 -0.577349 0.577349 -0.577349 0.577349 0.577349 -0.577349 0.577349 -0.577349 -0.577349 0.577349 -0.577349 -0.577349 0.577349 0.577349 0.577349 0.577349 0.577349 0.577349 0.577349 -0.577349 0.577349 0.577349 -0.577349 0.577349 0.577349 0.577349 0.577349 -0.577349 0.577349 0.577349 -0.577349 -0.577349 0.577349 -0.577349 -0.577349 0.577349 -0.577349 0.577349 -0.577349 -0.577349 0.577349 -0.577349 -0.577349 -0.577349 -0.577349 0.577349 -0.577349 0.577349 0.577349 -0.577349 0.577349 -0.577349 -0.577349 0.577349 0.577349 0.577349 -0.577349 0.577349 0.577349 0.577349 -0.577349 0.577349 " />
							<TextureCoordinate point="0.0145 0.5338 0.2042 0.5338 0.2042 0.9747 0.0145 0.9747 0.0145 0.0269 0.2042 0.0269 0.2042 0.4677 0.0145 0.4677 0.0145 0.5338 0.2042 0.5338 0.2042 0.9747 0.0145 0.9747 0.0145 0.5338 0.2042 0.5338 0.2042 0.9747 0.0145 0.9747 0.0145 0.5338 0.2042 0.5338 0.2042 0.9747 0.0145 0.5338 0.2042 0.5338 0.0145 0.9747 " />
						</IndexedTriangleSet>
					</Shape>
				</Group>
			</Transform>
			<Transform DEF="head_TRANSFORM"
			           translation="0.000000 0.050295 0.008541"
			           scale="1.000000 1.000000 1.000000"
			           rotation="0.000000 1.000000 0.000000 0.000000"
			           >
				<Transform DEF="head_ifs_TRANSFORM"
				           translation="0.000000 0.000000 0.000000"
				           scale="1.000000 1.000000 1.000000"
				           rotation="0.000000 1.000000 0.000000 0.000000"
				           >
					<Group DEF="group_ME_head">
						<Shape>
							<Appearance>
								<Material USE="MA_Body" />
							</Appearance>
							<IndexedTriangleSet solid="false"
							                    normalPerVertex="true"
							                    index="0 1 2 0 2 3 4 5 6 4 6 7 8 9 10 8 10 11 12 13 14 12 14 15 4 16 17 4 17 15 18 5 14 18 14 19 "
							                    >
								<Coordinate point="-0.350294 -0.861352 -0.700202 -0.350294 -0.861352 0.700202 -0.350294 0.000000 0.700202 -0.350294 0.000000 -0.700202 -0.350294 0.000000 -0.700202 -0.350294 0.000000 0.700202 0.350294 0.000000 0.700202 0.350294 0.000000 -0.700202 0.350294 0.000000 -0.700202 0.350294 0.000000 0.700202 0.350294 -0.861352 0.700202 0.350294 -0.861352 -0.700202 0.350294 -0.861352 -0.700202 0.350294 -0.861352 0.700202 -0.350294 -0.861352 0.700202 -0.350294 -0.861352 -0.700202 0.350294 0.000000 -0.700202 0.350294 -0.861352 -0.700202 0.350294 0.000000 0.700202 0.350294 -0.861352 0.700202 " />
								<Normal vector="-0.577349 -0.577349 -0.577349 -0.577349 -0.577349 0.577349 -0.577349 0.577349 0.577349 -0.577349 0.577349 -0.577349 -0.577349 0.577349 -0.577349 -0.577349 0.577349 0.577349 0.577349 0.577349 0.577349 0.577349 0.577349 -0.577349 0.577349 0.577349 -0.577349 0.577349 0.577349 0.577349 0.577349 -0.577349 0.577349 0.577349 -0.577349 -0.577349 0.577349 -0.577349 -0.577349 0.577349 -0.577349 0.577349 -0.577349 -0.577349 0.577349 -0.577349 -0.577349 -0.577349 0.577349 0.577349 -0.577349 0.577349 -0.577349 -0.577349 0.577349 0.577349 0.577349 0.577349 -0.577349 0.577349 " />
								<TextureCoordinate point="0.0145 0.5338 0.2042 0.5338 0.2042 0.9747 0.0145 0.9747 0.0145 0.5338 0.2042 0.5338 0.2042 0.9747 0.0145 0.9747 0.0145 0.5338 0.2042 0.5338 0.2042 0.9747 0.0145 0.9747 0.0145 0.5338 0.2042 0.5338 0.2042 0.9747 0.0145 0.9747 0.2042 0.5338 0.2042 0.9747 0.0145 0.5338 0.0145 0.9747 " />
							</IndexedTriangleSet>
						</Shape>
					</Group>
				</Transform>
				<Transform DEF="Cube_001_TRANSFORM"
				           translation="0.000000 -0.787918 0.000000"
				           scale="1.000000 1.000000 1.000000"
				           rotation="0.000000 1.000000 0.000000 0.000000"
				           >
					<Transform DEF="Cube_001_ifs_TRANSFORM"
					           translation="0.000000 0.000000 0.000000"
					           scale="1.000000 1.000000 1.000000"
					           rotation="0.000000 1.000000 0.000000 0.000000"
					           >
						<Group DEF="group_ME_Cube_001">
							<Shape>
								<Appearance>
									<Material USE="MA_Body" />
								</Appearance>
								<IndexedTriangleSet solid="false"
								                    normalPerVertex="true"
								                    index="0 1 2 0 2 3 4 5 6 4 6 7 8 9 10 8 10 11 12 13 14 12 14 15 16 17 18 16 18 19 20 21 14 20 14 22 23 24 25 23 25 26 24 12 15 24 15 25 27 28 29 27 29 30 28 8 11 28 11 29 31 32 33 31 33 34 32 4 7 32 7 33 35 36 37 35 37 38 36 0 3 36 3 37 39 40 41 39 41 42 42 41 4 42 4 32 43 39 42 43 42 44 44 42 32 44 32 31 45 46 47 45 47 48 49 45 48 49 48 50 50 48 24 50 24 23 51 52 53 51 53 54 52 20 22 52 22 53 43 55 56 43 56 26 55 16 19 55 19 56 46 57 58 46 58 47 47 58 13 47 13 12 40 21 59 40 59 41 41 59 5 41 5 4 "
								                    >
									<Coordinate point="-0.310981 -0.350758 0.212669 -0.310981 -0.350758 0.441257 -0.310981 0.000000 0.441257 -0.310981 -0.000000 0.212669 0.202761 -0.000000 0.212669 0.202761 -0.000000 0.441257 0.310981 0.000000 0.441257 0.310981 -0.000000 0.212669 0.310981 -0.000000 0.212669 0.310981 0.000000 0.441257 0.310981 -0.350758 0.441257 0.310981 -0.350758 0.212669 -0.202761 -0.350758 0.212669 -0.202761 -0.350758 0.441257 -0.310981 -0.350758 0.441257 -0.310981 -0.350758 0.212669 0.202761 -0.000000 -0.441257 0.310981 0.000000 -0.441257 0.310981 -0.350758 -0.441257 0.202761 -0.350758 -0.441257 -0.202761 -0.000000 0.441257 -0.310981 0.000000 0.441257 -0.202761 -0.350758 0.441257 -0.202761 -0.350758 -0.441257 -0.202761 -0.350758 -0.212669 -0.310981 -0.350758 -0.212669 -0.310981 -0.350758 -0.441257 0.310981 0.000000 -0.441257 0.310981 -0.000000 -0.212669 0.310981 -0.350758 -0.212669 0.310981 -0.350758 -0.441257 0.202761 -0.000000 -0.441257 0.202761 -0.000000 -0.212669 0.310981 -0.000000 -0.212669 0.310981 0.000000 -0.441257 -0.310981 -0.350758 -0.441257 -0.310981 -0.350758 -0.212669 -0.310981 -0.000000 -0.212669 -0.310981 0.000000 -0.441257 -0.310981 -0.000000 -0.212669 -0.310981 -0.000000 0.212669 -0.202761 -0.000000 0.212669 -0.202761 -0.000000 -0.212669 -0.310981 0.000000 -0.441257 -0.202761 -0.000000 -0.441257 0.310981 -0.350758 -0.212669 0.310981 -0.350758 0.212669 0.202761 -0.350758 0.212669 0.202761 -0.350758 -0.212669 0.310981 -0.350758 -0.441257 0.202761 -0.350758 -0.441257 0.310981 0.000000 0.441257 0.202761 -0.000000 0.441257 0.202761 -0.350758 0.441257 0.310981 -0.350758 0.441257 -0.202761 -0.000000 -0.441257 -0.202761 -0.350758 -0.441257 0.310981 -0.350758 0.441257 0.202761 -0.350758 0.441257 -0.202761 -0.000000 0.441257 " />
									<Normal vector="-0.707083 -0.707083 0.000000 -0.577349 -0.577349 0.577349 -0.577349 0.577349 0.577349 -0.707083 0.707083 0.000000 0.000000 1.000000 0.000000 0.000000 0.707083 0.707083 0.577349 0.577349 0.577349 0.707083 0.707083 0.000000 0.707083 0.707083 0.000000 0.577349 0.577349 0.577349 0.577349 -0.577349 0.577349 0.707083 -0.707083 0.000000 0.000000 -1.000000 0.000000 0.000000 -0.707083 0.707083 -0.577349 -0.577349 0.577349 -0.707083 -0.707083 0.000000 0.000000 0.707083 -0.707083 0.577349 0.577349 -0.577349 0.577349 -0.577349 -0.577349 0.000000 -0.707083 -0.707083 0.000000 0.707083 0.707083 -0.577349 0.577349 0.577349 0.000000 -0.707083 0.707083 0.000000 -0.707083 -0.707083 0.000000 -1.000000 0.000000 -0.707083 -0.707083 0.000000 -0.577349 -0.577349 -0.577349 0.577349 0.577349 -0.577349 0.707083 0.707083 0.000000 0.707083 -0.707083 0.000000 0.577349 -0.577349 -0.577349 0.000000 0.707083 -0.707083 0.000000 1.000000 0.000000 0.707083 0.707083 0.000000 0.577349 0.577349 -0.577349 -0.577349 -0.577349 -0.577349 -0.707083 -0.707083 0.000000 -0.707083 0.707083 0.000000 -0.577349 0.577349 -0.577349 -0.707083 0.707083 0.000000 -0.707083 0.707083 0.000000 0.000000 1.000000 0.000000 0.000000 1.000000 0.000000 -0.577349 0.577349 -0.577349 0.000000 0.707083 -0.707083 0.707083 -0.707083 0.000000 0.707083 -0.707083 0.000000 0.000000 -1.000000 0.000000 0.000000 -1.000000 0.000000 0.577349 -0.577349 -0.577349 0.000000 -0.707083 -0.707083 0.577349 0.577349 0.577349 0.000000 0.707083 0.707083 0.000000 -0.707083 0.707083 0.577349 -0.577349 0.577349 0.000000 0.707083 -0.707083 0.000000 -0.707083 -0.707083 0.577349 -0.577349 0.577349 0.000000 -0.707083 0.707083 0.000000 0.707083 0.707083 " />
									<TextureCoordinate point="0.1410 0.5338 0.2042 0.5338 0.2042 0.9747 0.1410 0.9747 0.1410 0.8277 0.2042 0.8277 0.2042 0.9747 0.1410 0.9747 0.1410 0.5338 0.2042 0.5338 0.2042 0.9747 0.1410 0.9747 0.1410 0.8277 0.2042 0.8277 0.2042 0.9747 0.1410 0.9747 0.1410 0.5338 0.2042 0.5338 0.2042 0.9747 0.1410 0.9747 0.1410 0.5338 0.2042 0.5338 0.1410 0.9747 0.0145 0.8277 0.0777 0.8277 0.0777 0.9747 0.0145 0.9747 0.0145 0.5338 0.0777 0.5338 0.0777 0.9747 0.0145 0.9747 0.0145 0.8277 0.0777 0.8277 0.0777 0.9747 0.0145 0.9747 0.0145 0.5338 0.0777 0.5338 0.0777 0.9747 0.0145 0.9747 0.0777 0.5338 0.1410 0.5338 0.1410 0.6808 0.0777 0.6808 0.0145 0.5338 0.0145 0.6808 0.0777 0.5338 0.1410 0.5338 0.1410 0.6808 0.0777 0.6808 0.0145 0.5338 0.0145 0.6808 0.0145 0.5338 0.0777 0.5338 0.0777 0.9747 0.0145 0.9747 0.0777 0.5338 0.0777 0.9747 0.2042 0.5338 0.2042 0.6808 0.2042 0.6808 " />
								</IndexedTriangleSet>
							</Shape>
							<Shape>
								<Appearance>
									<Material DEF="MA_Face"
									          diffuseColor="0.800 0.800 0.800"
									          specularColor="0.401 0.401 0.401"
									          emissiveColor="0.000 0.000 0.000"
									          ambientIntensity="0.000"
									          shininess="0.500"
									          transparency="0.0"
									          />
								</Appearance>
								<IndexedTriangleSet solid="false"
								                    normalPerVertex="true"
								                    index="0 1 2 0 2 3 "
								                    >
									<Coordinate point="0.202761 -0.350758 -0.212669 0.202761 -0.350758 0.212669 -0.202761 -0.350758 0.212669 -0.202761 -0.350758 -0.212669 " />
									<Normal vector="0.000000 -1.000000 0.000000 0.000000 -1.000000 0.000000 0.000000 -1.000000 0.000000 0.000000 -1.000000 0.000000 " />
									<TextureCoordinate point="0.9927 0.5085 0.9927 0.9952 0.5059 0.9952 0.5059 0.5085 " />
								</IndexedTriangleSet>
							</Shape>
						</Group>
					</Transform>
				</Transform>
				<Transform DEF="Cube_002_TRANSFORM"
				           translation="0.399264 0.000000 0.000000"
				           scale="1.000000 1.000000 1.000000"
				           rotation="0.000000 1.000000 0.000000 0.000000"
				           >
					<Transform DEF="Cube_002_ifs_TRANSFORM"
					           translation="0.000000 0.000000 0.000000"
					           scale="1.000000 1.000000 1.000000"
					           rotation="0.000000 1.000000 0.000000 0.000000"
					           >
						<Group DEF="group_ME_Cube_005">
							<Shape>
								<Appearance>
									<Material USE="MA_Body" />
								</Appearance>
								<IndexedTriangleSet solid="false"
								                    normalPerVertex="true"
								                    index="0 1 2 0 2 3 4 5 6 4 6 7 8 9 10 8 10 11 12 13 14 12 14 15 16 17 18 16 18 19 20 21 14 20 14 22 23 5 1 23 1 24 25 26 27 25 27 28 29 30 31 29 31 32 33 34 1 33 1 0 35 36 34 35 34 33 24 1 21 24 21 20 28 27 17 28 17 16 32 31 9 32 9 8 37 38 39 37 39 40 41 42 43 41 43 44 42 35 33 42 33 43 44 43 45 44 45 28 43 33 0 43 0 45 46 47 38 46 38 37 47 29 32 47 32 38 48 49 50 48 50 19 49 12 15 49 15 50 40 39 51 40 51 52 39 8 11 39 11 51 25 53 54 25 54 55 53 4 7 53 7 54 28 45 56 28 56 57 45 0 3 45 3 56 "
								                    >
									<Coordinate point="-0.229069 -0.333428 0.299407 -0.229069 -0.333428 0.385768 -0.149791 0.032456 0.385768 -0.149791 0.032456 0.299407 -0.149791 0.032456 0.299407 -0.149791 0.032456 0.385768 0.149791 -0.032456 0.385768 0.149791 -0.032456 0.299407 -0.022336 -0.826865 0.299407 -0.022336 -0.826865 0.385768 -0.055499 -0.979920 0.385768 -0.055499 -0.979920 0.299407 -0.055499 -0.979920 0.299407 -0.055499 -0.979920 0.385768 -0.355082 -0.915009 0.385768 -0.355082 -0.915009 0.299407 -0.321919 -0.761953 -0.385768 -0.022336 -0.826865 -0.385768 -0.055499 -0.979920 -0.385768 -0.355082 -0.915009 -0.385768 -0.022336 -0.826865 0.385768 -0.321919 -0.761953 0.385768 -0.055499 -0.979920 0.385768 0.149791 -0.032456 0.385768 0.070514 -0.398340 0.385768 -0.149791 0.032456 -0.385768 0.149791 -0.032456 -0.385768 0.070514 -0.398340 -0.385768 -0.229069 -0.333428 -0.385768 0.149791 -0.032456 0.299407 0.149791 -0.032456 0.385768 0.070514 -0.398340 0.385768 0.070514 -0.398340 0.299407 -0.321919 -0.761953 0.299407 -0.321919 -0.761953 0.385768 -0.355082 -0.915009 0.299407 -0.355082 -0.915009 0.385768 0.070514 -0.398340 -0.385768 0.070514 -0.398340 -0.305284 -0.022336 -0.826865 -0.305284 -0.022336 -0.826865 -0.385768 -0.355082 -0.915009 -0.385768 -0.355082 -0.915009 -0.305284 -0.321919 -0.761953 -0.305284 -0.321919 -0.761953 -0.385768 -0.229069 -0.333428 -0.305284 0.149791 -0.032456 -0.385768 0.149791 -0.032456 -0.305284 -0.055499 -0.979920 -0.385768 -0.055499 -0.979920 -0.305284 -0.355082 -0.915009 -0.305284 -0.055499 -0.979920 -0.305284 -0.055499 -0.979920 -0.385768 -0.149791 0.032456 -0.305284 0.149791 -0.032456 -0.305284 0.149791 -0.032456 -0.385768 -0.149791 0.032456 -0.305284 -0.149791 0.032456 -0.385768 " />
									<Normal vector="-0.977294 0.211737 0.000000 -0.691061 0.149724 0.707083 -0.441969 0.686514 0.577349 -0.541307 0.840785 0.000000 -0.541307 0.840785 0.000000 -0.441969 0.686514 0.577349 0.686514 0.441969 0.577349 0.840785 0.541307 0.000000 0.977294 -0.211737 0.000000 0.691061 -0.149724 0.707083 0.441969 -0.686514 0.577349 0.541307 -0.840785 0.000000 0.541307 -0.840785 0.000000 0.441969 -0.686514 0.577349 -0.686514 -0.441969 0.577349 -0.840785 -0.541307 0.000000 -0.691061 0.149724 -0.707083 0.691061 -0.149724 -0.707083 0.441969 -0.686514 -0.577349 -0.686514 -0.441969 -0.577349 0.691061 -0.149724 0.707083 -0.691061 0.149724 0.707083 0.441969 -0.686514 0.577349 0.686514 0.441969 0.577349 0.691061 -0.149724 0.707083 -0.441969 0.686514 -0.577349 0.686514 0.441969 -0.577349 0.691061 -0.149724 -0.707083 -0.691061 0.149724 -0.707083 0.840785 0.541307 0.000000 0.686514 0.441969 0.577349 0.691061 -0.149724 0.707083 0.977294 -0.211737 0.000000 -0.977294 0.211737 0.000000 -0.691061 0.149724 0.707083 -0.840785 -0.541307 0.000000 -0.686514 -0.441969 0.577349 0.691061 -0.149724 -0.707083 0.977294 -0.211737 0.000000 0.977294 -0.211737 0.000000 0.691061 -0.149724 -0.707083 -0.686514 -0.441969 -0.577349 -0.840785 -0.541307 0.000000 -0.977294 0.211737 0.000000 -0.691061 0.149724 -0.707083 -0.977294 0.211737 0.000000 0.686514 0.441969 -0.577349 0.840785 0.541307 0.000000 0.441969 -0.686514 -0.577349 0.541307 -0.840785 0.000000 -0.840785 -0.541307 0.000000 0.541307 -0.840785 0.000000 0.441969 -0.686514 -0.577349 -0.541307 0.840785 0.000000 0.840785 0.541307 0.000000 0.686514 0.441969 -0.577349 -0.541307 0.840785 0.000000 -0.441969 0.686514 -0.577349 " />
									<TextureCoordinate point="0.1410 0.7542 0.2042 0.7542 0.2042 0.9747 0.1410 0.9747 0.1410 0.5338 0.2042 0.5338 0.2042 0.9747 0.1410 0.9747 0.1410 0.8644 0.2042 0.8644 0.2042 0.9747 0.1410 0.9747 0.1410 0.5338 0.2042 0.5338 0.2042 0.9747 0.1410 0.9747 0.0145 0.8644 0.2042 0.8644 0.2042 0.9747 0.0145 0.9747 0.0145 0.8644 0.2042 0.8644 0.0145 0.9747 0.0145 0.5338 0.0145 0.7542 0.0145 0.5338 0.2042 0.5338 0.2042 0.7542 0.0145 0.7542 0.1410 0.5338 0.2042 0.5338 0.2042 0.7542 0.1410 0.7542 0.1410 0.6440 0.2042 0.6440 0.1410 0.5338 0.2042 0.5338 0.0145 0.7542 0.0777 0.7542 0.0777 0.8644 0.0145 0.8644 0.0145 0.5338 0.0777 0.5338 0.0777 0.6440 0.0145 0.6440 0.0777 0.7542 0.0145 0.5338 0.0777 0.5338 0.0145 0.5338 0.0777 0.5338 0.0777 0.9747 0.0777 0.9747 0.0145 0.9747 0.0777 0.5338 0.0777 0.9747 0.0145 0.9747 0.0777 0.9747 0.0145 0.9747 " />
								</IndexedTriangleSet>
							</Shape>
							<Shape>
								<Appearance>
									<Material USE="MA_Face" />
								</Appearance>
								<IndexedTriangleSet solid="false"
								                    normalPerVertex="true"
								                    index="0 1 2 0 2 3 "
								                    >
									<Coordinate point="0.070514 -0.398340 -0.305284 0.070514 -0.398340 0.299407 -0.022336 -0.826865 0.299407 -0.022336 -0.826865 -0.305284 " />
									<Normal vector="0.977294 -0.211737 0.000000 0.977294 -0.211737 0.000000 0.977294 -0.211737 0.000000 0.977294 -0.211737 0.000000 " />
									<TextureCoordinate point="0.4251 0.5214 0.4251 0.9809 0.0789 0.9809 0.0789 0.5214 " />
								</IndexedTriangleSet>
							</Shape>
						</Group>
					</Transform>
				</Transform>
				<Transform DEF="Cube_014_TRANSFORM"
				           translation="-0.399264 0.000000 0.000000"
				           scale="1.000000 1.000000 1.000000"
				           rotation="0.000000 1.000000 0.000000 0.000000"
				           >
					<Transform DEF="Cube_014_ifs_TRANSFORM"
					           translation="0.000000 0.000000 0.000000"
					           scale="1.000000 1.000000 1.000000"
					           rotation="0.000000 1.000000 0.000000 0.000000"
					           >
						<Group DEF="group_ME_Cube_006">
							<Shape>
								<Appearance>
									<Material USE="MA_Body" />
								</Appearance>
								<IndexedTriangleSet solid="false"
								                    normalPerVertex="true"
								                    index="0 1 2 0 2 3 4 5 6 4 6 7 8 9 10 8 10 11 12 13 14 12 14 15 16 17 18 16 18 19 20 21 14 20 14 22 23 24 3 23 3 7 25 26 27 25 27 28 29 30 31 29 31 32 33 0 3 33 3 34 35 33 34 35 34 36 24 20 22 24 22 3 26 16 19 26 19 27 30 8 11 30 11 31 37 38 39 37 39 40 41 42 43 41 43 44 44 43 33 44 33 35 42 26 45 42 45 43 43 45 0 43 0 33 46 37 40 46 40 47 47 40 30 47 30 29 48 17 49 48 49 50 50 49 13 50 13 12 38 51 52 38 52 39 39 52 9 39 9 8 25 53 54 25 54 55 55 54 5 55 5 4 26 56 57 26 57 45 45 57 1 45 1 0 "
								                    >
									<Coordinate point="0.229069 -0.333428 0.299407 0.149791 0.032456 0.299407 0.149791 0.032456 0.385768 0.229069 -0.333428 0.385768 0.149791 0.032456 0.299407 -0.149791 -0.032456 0.299407 -0.149791 -0.032456 0.385768 0.149791 0.032456 0.385768 0.022336 -0.826865 0.299407 0.055499 -0.979920 0.299407 0.055499 -0.979920 0.385768 0.022336 -0.826865 0.385768 0.055499 -0.979920 0.299407 0.355082 -0.915009 0.299407 0.355082 -0.915009 0.385768 0.055499 -0.979920 0.385768 0.321919 -0.761953 -0.385768 0.355082 -0.915009 -0.385768 0.055499 -0.979920 -0.385768 0.022336 -0.826865 -0.385768 0.022336 -0.826865 0.385768 0.055499 -0.979920 0.385768 0.321919 -0.761953 0.385768 -0.149791 -0.032456 0.385768 -0.070514 -0.398340 0.385768 0.149791 0.032456 -0.385768 0.229069 -0.333428 -0.385768 -0.070514 -0.398340 -0.385768 -0.149791 -0.032456 -0.385768 -0.149791 -0.032456 0.299407 -0.070514 -0.398340 0.299407 -0.070514 -0.398340 0.385768 -0.149791 -0.032456 0.385768 0.321919 -0.761953 0.299407 0.321919 -0.761953 0.385768 0.355082 -0.915009 0.299407 0.355082 -0.915009 0.385768 -0.070514 -0.398340 -0.385768 0.022336 -0.826865 -0.385768 0.022336 -0.826865 -0.305284 -0.070514 -0.398340 -0.305284 0.355082 -0.915009 -0.385768 0.321919 -0.761953 -0.385768 0.321919 -0.761953 -0.305284 0.355082 -0.915009 -0.305284 0.229069 -0.333428 -0.305284 -0.149791 -0.032456 -0.385768 -0.149791 -0.032456 -0.305284 0.055499 -0.979920 -0.385768 0.355082 -0.915009 -0.305284 0.055499 -0.979920 -0.305284 0.055499 -0.979920 -0.385768 0.055499 -0.979920 -0.305284 -0.149791 -0.032456 -0.385768 -0.149791 -0.032456 -0.305284 0.149791 0.032456 -0.305284 0.149791 0.032456 -0.385768 0.149791 0.032456 -0.305284 " />
									<Normal vector="0.977294 0.211737 0.000000 0.541307 0.840785 0.000000 0.441969 0.686514 0.577349 0.691061 0.149724 0.707083 0.541307 0.840785 0.000000 -0.840785 0.541307 0.000000 -0.686514 0.441969 0.577349 0.441969 0.686514 0.577349 -0.977294 -0.211737 0.000000 -0.541307 -0.840785 0.000000 -0.441969 -0.686514 0.577349 -0.691061 -0.149724 0.707083 -0.541307 -0.840785 0.000000 0.840785 -0.541307 0.000000 0.686514 -0.441969 0.577349 -0.441969 -0.686514 0.577349 0.691061 0.149724 -0.707083 0.686514 -0.441969 -0.577349 -0.441969 -0.686514 -0.577349 -0.691061 -0.149724 -0.707083 -0.691061 -0.149724 0.707083 -0.441969 -0.686514 0.577349 0.691061 0.149724 0.707083 -0.686514 0.441969 0.577349 -0.691061 -0.149724 0.707083 0.441969 0.686514 -0.577349 0.691061 0.149724 -0.707083 -0.691061 -0.149724 -0.707083 -0.686514 0.441969 -0.577349 -0.840785 0.541307 0.000000 -0.977294 -0.211737 0.000000 -0.691061 -0.149724 0.707083 -0.686514 0.441969 0.577349 0.977294 0.211737 0.000000 0.691061 0.149724 0.707083 0.840785 -0.541307 0.000000 0.686514 -0.441969 0.577349 -0.691061 -0.149724 -0.707083 -0.691061 -0.149724 -0.707083 -0.977294 -0.211737 0.000000 -0.977294 -0.211737 0.000000 0.686514 -0.441969 -0.577349 0.691061 0.149724 -0.707083 0.977294 0.211737 0.000000 0.840785 -0.541307 0.000000 0.977294 0.211737 0.000000 -0.686514 0.441969 -0.577349 -0.840785 0.541307 0.000000 -0.441969 -0.686514 -0.577349 0.840785 -0.541307 0.000000 -0.541307 -0.840785 0.000000 -0.441969 -0.686514 -0.577349 -0.541307 -0.840785 0.000000 -0.686514 0.441969 -0.577349 -0.840785 0.541307 0.000000 0.541307 0.840785 0.000000 0.441969 0.686514 -0.577349 0.541307 0.840785 0.000000 " />
									<TextureCoordinate point="0.1410 0.7542 0.1410 0.9747 0.2042 0.9747 0.2042 0.7542 0.1410 0.5338 0.1410 0.9747 0.2042 0.9747 0.2042 0.5338 0.1410 0.8644 0.1410 0.9747 0.2042 0.9747 0.2042 0.8644 0.1410 0.5338 0.1410 0.9747 0.2042 0.9747 0.2042 0.5338 0.0145 0.8644 0.0145 0.9747 0.2042 0.9747 0.2042 0.8644 0.0145 0.8644 0.0145 0.9747 0.2042 0.8644 0.0145 0.5338 0.0145 0.7542 0.0145 0.5338 0.0145 0.7542 0.2042 0.7542 0.2042 0.5338 0.1410 0.5338 0.1410 0.7542 0.2042 0.7542 0.2042 0.5338 0.1410 0.6440 0.2042 0.6440 0.1410 0.5338 0.2042 0.5338 0.0145 0.7542 0.0145 0.8644 0.0777 0.8644 0.0777 0.7542 0.0145 0.5338 0.0145 0.6440 0.0777 0.6440 0.0777 0.5338 0.0777 0.7542 0.0145 0.5338 0.0777 0.5338 0.0145 0.5338 0.0777 0.9747 0.0777 0.5338 0.0145 0.9747 0.0777 0.9747 0.0145 0.9747 0.0777 0.9747 0.0777 0.5338 0.0145 0.9747 0.0777 0.9747 " />
								</IndexedTriangleSet>
							</Shape>
							<Shape>
								<Appearance>
									<Material USE="MA_Face" />
								</Appearance>
								<IndexedTriangleSet solid="false"
								                    normalPerVertex="true"
								                    index="0 1 2 0 2 3 "
								                    >
									<Coordinate point="-0.070514 -0.398340 -0.305284 0.022336 -0.826865 -0.305284 0.022336 -0.826865 0.299407 -0.070514 -0.398340 0.299407 " />
									<Normal vector="-0.977294 -0.211737 0.000000 -0.977294 -0.211737 0.000000 -0.977294 -0.211737 0.000000 -0.977294 -0.211737 0.000000 " />
									<TextureCoordinate point="0.4251 0.5214 0.0789 0.5214 0.0789 0.9809 0.4251 0.9809 " />
								</IndexedTriangleSet>
							</Shape>
						</Group>
					</Transform>
				</Transform>
			</Transform>
			<Transform DEF="Cube_004_TRANSFORM"
			           translation="0.000000 0.861981 0.000000"
			           scale="1.000000 1.000000 1.000000"
			           rotation="0.000000 1.000000 0.000000 0.000000"
			           >
				<Transform DEF="Cube_004_ifs_TRANSFORM"
				           translation="0.000000 0.000000 0.000000"
				           scale="1.000000 1.000000 1.000000"
				           rotation="0.000000 1.000000 0.000000 0.000000"
				           >
					<Group DEF="group_ME_Cube_007">
						<Shape>
							<Appearance>
								<Material USE="MA_Body" />
							</Appearance>
							<IndexedTriangleSet solid="false"
							                    normalPerVertex="true"
							                    index="0 1 2 0 2 3 4 5 6 4 6 7 8 9 10 8 10 11 12 13 14 12 14 15 16 17 18 16 18 15 19 20 14 19 14 21 "
							                    >
								<Coordinate point="-0.314726 0.000000 -0.580424 -0.314726 0.000000 0.580424 -0.314726 0.910460 0.580424 -0.314726 0.910460 -0.580424 -0.314726 0.910460 -0.580424 -0.314726 0.910460 0.580424 0.314726 0.910460 0.580424 0.314726 0.910460 -0.580424 0.314726 0.910460 -0.580424 0.314726 0.910460 0.580424 0.314726 0.000000 0.580424 0.314726 0.000000 -0.580424 0.314726 0.000000 -0.580424 0.314726 0.000000 0.580424 -0.314726 0.000000 0.580424 -0.314726 0.000000 -0.580424 -0.314726 0.910460 -0.580424 0.314726 0.910460 -0.580424 0.314726 0.000000 -0.580424 0.314726 0.910460 0.580424 -0.314726 0.910460 0.580424 0.314726 0.000000 0.580424 " />
								<Normal vector="-0.577349 -0.577349 -0.577349 -0.577349 -0.577349 0.577349 -0.577349 0.577349 0.577349 -0.577349 0.577349 -0.577349 -0.577349 0.577349 -0.577349 -0.577349 0.577349 0.577349 0.577349 0.577349 0.577349 0.577349 0.577349 -0.577349 0.577349 0.577349 -0.577349 0.577349 0.577349 0.577349 0.577349 -0.577349 0.577349 0.577349 -0.577349 -0.577349 0.577349 -0.577349 -0.577349 0.577349 -0.577349 0.577349 -0.577349 -0.577349 0.577349 -0.577349 -0.577349 -0.577349 -0.577349 0.577349 -0.577349 0.577349 0.577349 -0.577349 0.577349 -0.577349 -0.577349 0.577349 0.577349 0.577349 -0.577349 0.577349 0.577349 0.577349 -0.577349 0.577349 " />
								<TextureCoordinate point="0.0145 0.5338 0.2042 0.5338 0.2042 0.9747 0.0145 0.9747 0.0145 0.0269 0.2042 0.0269 0.2042 0.4677 0.0145 0.4677 0.0145 0.5338 0.2042 0.5338 0.2042 0.9747 0.0145 0.9747 0.0145 0.5338 0.2042 0.5338 0.2042 0.9747 0.0145 0.9747 0.0145 0.5338 0.2042 0.5338 0.2042 0.9747 0.0145 0.5338 0.2042 0.5338 0.0145 0.9747 " />
							</IndexedTriangleSet>
						</Shape>
					</Group>
				</Transform>
				<Transform DEF="Cube_005_TRANSFORM"
				           translation="0.000000 0.845211 0.000000"
				           scale="1.000000 1.000000 1.000000"
				           rotation="0.000000 1.000000 0.000000 0.000000"
				           >
					<Transform DEF="Cube_005_ifs_TRANSFORM"
					           translation="0.000000 0.000000 0.000000"
					           scale="1.000000 1.000000 1.000000"
					           rotation="0.000000 1.000000 0.000000 0.000000"
					           >
						<Group DEF="group_ME_Cube_008">
							<Shape>
								<Appearance>
									<Material USE="MA_Body" />
								</Appearance>
								<IndexedTriangleSet solid="false"
								                    normalPerVertex="true"
								                    index="0 1 2 0 2 3 4 5 6 4 6 7 8 9 10 8 10 11 12 13 14 12 14 15 16 17 18 16 18 15 19 20 14 19 14 21 "
								                    >
									<Coordinate point="-0.220170 0.000000 -0.428343 -0.220170 0.000000 0.428343 -0.220170 0.593023 0.428343 -0.220170 0.593023 -0.428343 -0.220170 0.593023 -0.428343 -0.220170 0.593023 0.428343 0.220170 0.593023 0.428343 0.220170 0.593023 -0.428343 0.220170 0.593023 -0.428343 0.220170 0.593023 0.428343 0.220170 0.000000 0.428343 0.220170 0.000000 -0.428343 0.220170 0.000000 -0.428343 0.220170 0.000000 0.428343 -0.220170 0.000000 0.428343 -0.220170 0.000000 -0.428343 -0.220170 0.593023 -0.428343 0.220170 0.593023 -0.428343 0.220170 0.000000 -0.428343 0.220170 0.593023 0.428343 -0.220170 0.593023 0.428343 0.220170 0.000000 0.428343 " />
									<Normal vector="-0.577349 -0.577349 -0.577349 -0.577349 -0.577349 0.577349 -0.577349 0.577349 0.577349 -0.577349 0.577349 -0.577349 -0.577349 0.577349 -0.577349 -0.577349 0.577349 0.577349 0.577349 0.577349 0.577349 0.577349 0.577349 -0.577349 0.577349 0.577349 -0.577349 0.577349 0.577349 0.577349 0.577349 -0.577349 0.577349 0.577349 -0.577349 -0.577349 0.577349 -0.577349 -0.577349 0.577349 -0.577349 0.577349 -0.577349 -0.577349 0.577349 -0.577349 -0.577349 -0.577349 -0.577349 0.577349 -0.577349 0.577349 0.577349 -0.577349 0.577349 -0.577349 -0.577349 0.577349 0.577349 0.577349 -0.577349 0.577349 0.577349 0.577349 -0.577349 0.577349 " />
									<TextureCoordinate point="0.0145 0.5338 0.2042 0.5338 0.2042 0.9747 0.0145 0.9747 0.0145 0.0269 0.2042 0.0269 0.2042 0.4677 0.0145 0.4677 0.0145 0.5338 0.2042 0.5338 0.2042 0.9747 0.0145 0.9747 0.0145 0.5338 0.2042 0.5338 0.2042 0.9747 0.0145 0.9747 0.0145 0.5338 0.2042 0.5338 0.2042 0.9747 0.0145 0.5338 0.2042 0.5338 0.0145 0.9747 " />
								</IndexedTriangleSet>
							</Shape>
						</Group>
					</Transform>
					<Transform DEF="Cube_006_TRANSFORM"
					           translation="0.000000 0.543920 0.000000"
					           scale="1.000000 1.000000 1.000000"
					           rotation="0.000000 1.000000 0.000000 0.000000"
					           >
						<Transform DEF="Cube_006_ifs_TRANSFORM"
						           translation="0.000000 0.000000 0.000000"
						           scale="1.000000 1.000000 1.000000"
						           rotation="0.000000 1.000000 0.000000 0.000000"
						           >
							<Group DEF="group_ME_Cube_010">
								<Shape>
									<Appearance>
										<Material USE="MA_Body" />
									</Appearance>
									<IndexedTriangleSet solid="false"
									                    normalPerVertex="true"
									                    index="0 1 2 0 2 3 4 5 6 4 6 7 8 9 10 8 10 11 12 13 14 12 14 15 4 16 17 4 17 15 18 5 14 18 14 19 "
									                    >
										<Coordinate point="-0.116918 0.000000 -0.244434 -0.116918 0.000000 0.244434 -0.116918 0.565110 0.244434 -0.116918 0.565110 -0.244434 -0.116918 0.565110 -0.244434 -0.116918 0.565110 0.244434 0.116918 0.565110 0.244434 0.116918 0.565110 -0.244434 0.116918 0.565110 -0.244434 0.116918 0.565110 0.244434 0.116918 0.000000 0.244434 0.116918 0.000000 -0.244434 0.116918 0.000000 -0.244434 0.116918 0.000000 0.244434 -0.116918 0.000000 0.244434 -0.116918 0.000000 -0.244434 0.116918 0.565110 -0.244434 0.116918 0.000000 -0.244434 0.116918 0.565110 0.244434 0.116918 0.000000 0.244434 " />
										<Normal vector="-0.577349 -0.577349 -0.577349 -0.577349 -0.577349 0.577349 -0.577349 0.577349 0.577349 -0.577349 0.577349 -0.577349 -0.577349 0.577349 -0.577349 -0.577349 0.577349 0.577349 0.577349 0.577349 0.577349 0.577349 0.577349 -0.577349 0.577349 0.577349 -0.577349 0.577349 0.577349 0.577349 0.577349 -0.577349 0.577349 0.577349 -0.577349 -0.577349 0.577349 -0.577349 -0.577349 0.577349 -0.577349 0.577349 -0.577349 -0.577349 0.577349 -0.577349 -0.577349 -0.577349 0.577349 0.577349 -0.577349 0.577349 -0.577349 -0.577349 0.577349 0.577349 0.577349 0.577349 -0.577349 0.577349 " />
										<TextureCoordinate point="0.0145 0.5338 0.2042 0.5338 0.2042 0.9747 0.0145 0.9747 0.0145 0.5338 0.2042 0.5338 0.2042 0.9747 0.0145 0.9747 0.0145 0.5338 0.2042 0.5338 0.2042 0.9747 0.0145 0.9747 0.0145 0.5338 0.2042 0.5338 0.2042 0.9747 0.0145 0.9747 0.2042 0.5338 0.2042 0.9747 0.0145 0.5338 0.0145 0.9747 " />
									</IndexedTriangleSet>
								</Shape>
							</Group>
						</Transform>
					</Transform>
				</Transform>
			</Transform>
			<Transform DEF="Cube_007_TRANSFORM"
			           translation="0.000000 0.000000 0.000000"
			           scale="1.000000 1.000000 1.000000"
			           rotation="0.000000 1.000000 0.000000 0.000000"
			           >
				<Transform DEF="Cube_007_ifs_TRANSFORM"
				           translation="0.000000 0.000000 0.000000"
				           scale="1.000000 1.000000 1.000000"
				           rotation="0.000000 1.000000 0.000000 0.000000"
				           >
					<Group DEF="group_ME_Cube_011">
						<Shape>
							<Appearance>
								<Material USE="MA_Body" />
							</Appearance>
							<IndexedTriangleSet solid="false"
							                    normalPerVertex="true"
							                    index="0 1 2 0 2 3 4 5 6 4 6 7 8 9 10 8 10 11 12 13 14 12 14 15 4 16 17 4 17 15 18 5 14 18 14 19 "
							                    >
								<Coordinate point="-0.469012 0.000000 -0.438254 -0.469012 0.000000 0.438254 -0.469012 0.929682 0.438254 -0.469012 0.929682 -0.438254 -0.469012 0.929682 -0.438254 -0.469012 0.929682 0.438254 0.469012 0.929682 0.438254 0.469012 0.929682 -0.438254 0.469012 0.929682 -0.438254 0.469012 0.929682 0.438254 0.469012 0.000000 0.438254 0.469012 0.000000 -0.438254 0.469012 0.000000 -0.438254 0.469012 0.000000 0.438254 -0.469012 0.000000 0.438254 -0.469012 0.000000 -0.438254 0.469012 0.929682 -0.438254 0.469012 0.000000 -0.438254 0.469012 0.929682 0.438254 0.469012 0.000000 0.438254 " />
								<Normal vector="-0.577349 -0.577349 -0.577349 -0.577349 -0.577349 0.577349 -0.577349 0.577349 0.577349 -0.577349 0.577349 -0.577349 -0.577349 0.577349 -0.577349 -0.577349 0.577349 0.577349 0.577349 0.577349 0.577349 0.577349 0.577349 -0.577349 0.577349 0.577349 -0.577349 0.577349 0.577349 0.577349 0.577349 -0.577349 0.577349 0.577349 -0.577349 -0.577349 0.577349 -0.577349 -0.577349 0.577349 -0.577349 0.577349 -0.577349 -0.577349 0.577349 -0.577349 -0.577349 -0.577349 0.577349 0.577349 -0.577349 0.577349 -0.577349 -0.577349 0.577349 0.577349 0.577349 0.577349 -0.577349 0.577349 " />
								<TextureCoordinate point="0.0145 0.5338 0.2042 0.5338 0.2042 0.9747 0.0145 0.9747 0.0145 0.5338 0.2042 0.5338 0.2042 0.9747 0.0145 0.9747 0.0145 0.5338 0.2042 0.5338 0.2042 0.9747 0.0145 0.9747 0.0145 0.5338 0.2042 0.5338 0.2042 0.9747 0.0145 0.9747 0.2042 0.5338 0.2042 0.9747 0.0145 0.5338 0.0145 0.9747 " />
							</IndexedTriangleSet>
						</Shape>
					</Group>
				</Transform>
				<Transform DEF="Cube_008_TRANSFORM"
				           translation="0.000000 0.908880 0.000000"
				           scale="1.000000 1.000000 1.000000"
				           rotation="0.000000 1.000000 0.000000 0.000000"
				           >
					<Transform DEF="Cube_008_ifs_TRANSFORM"
					           translation="0.000000 0.000000 0.000000"
					           scale="1.000000 1.000000 1.000000"
					           rotation="0.000000 1.000000 0.000000 0.000000"
					           >
						<Group DEF="group_ME_Cube_012">
							<Shape>
								<Appearance>
									<Material USE="MA_Body" />
								</Appearance>
								<IndexedTriangleSet solid="false"
								                    normalPerVertex="true"
								                    index="0 1 2 0 2 3 4 5 6 4 6 7 8 9 10 8 10 11 12 13 14 12 14 15 4 16 17 4 17 15 18 5 14 18 14 19 "
								                    >
									<Coordinate point="-0.431616 0.000000 -0.403311 -0.431616 0.000000 0.403311 -0.431616 0.879069 0.403311 -0.431616 0.879069 -0.403311 -0.431616 0.879069 -0.403311 -0.431616 0.879069 0.403311 0.431616 0.879069 0.403311 0.431616 0.879069 -0.403311 0.431616 0.879069 -0.403311 0.431616 0.879069 0.403311 0.431616 0.000000 0.403311 0.431616 0.000000 -0.403311 0.431616 0.000000 -0.403311 0.431616 0.000000 0.403311 -0.431616 0.000000 0.403311 -0.431616 0.000000 -0.403311 0.431616 0.879069 -0.403311 0.431616 0.000000 -0.403311 0.431616 0.879069 0.403311 0.431616 0.000000 0.403311 " />
									<Normal vector="-0.577349 -0.577349 -0.577349 -0.577349 -0.577349 0.577349 -0.577349 0.577349 0.577349 -0.577349 0.577349 -0.577349 -0.577349 0.577349 -0.577349 -0.577349 0.577349 0.577349 0.577349 0.577349 0.577349 0.577349 0.577349 -0.577349 0.577349 0.577349 -0.577349 0.577349 0.577349 0.577349 0.577349 -0.577349 0.577349 0.577349 -0.577349 -0.577349 0.577349 -0.577349 -0.577349 0.577349 -0.577349 0.577349 -0.577349 -0.577349 0.577349 -0.577349 -0.577349 -0.577349 0.577349 0.577349 -0.577349 0.577349 -0.577349 -0.577349 0.577349 0.577349 0.577349 0.577349 -0.577349 0.577349 " />
									<TextureCoordinate point="0.0145 0.5338 0.2042 0.5338 0.2042 0.9747 0.0145 0.9747 0.0145 0.5338 0.2042 0.5338 0.2042 0.9747 0.0145 0.9747 0.0145 0.5338 0.2042 0.5338 0.2042 0.9747 0.0145 0.9747 0.0145 0.5338 0.2042 0.5338 0.2042 0.9747 0.0145 0.9747 0.2042 0.5338 0.2042 0.9747 0.0145 0.5338 0.0145 0.9747 " />
								</IndexedTriangleSet>
							</Shape>
						</Group>
					</Transform>
					<Transform DEF="Cube_009_TRANSFORM"
					           translation="0.000000 0.850454 0.000000"
					           scale="1.000000 1.000000 1.000000"
					           rotation="0.000000 1.000000 0.000000 0.000000"
					           >
						<Transform DEF="Cube_009_ifs_TRANSFORM"
						           translation="0.000000 0.000000 0.000000"
						           scale="1.000000 1.000000 1.000000"
						           rotation="0.000000 1.000000 0.000000 0.000000"
						           >
							<Group DEF="group_ME_Cube_013">
								<Shape>
									<Appearance>
										<Material USE="MA_Body" />
									</Appearance>
									<IndexedTriangleSet solid="false"
									                    normalPerVertex="true"
									                    index="0 1 2 0 2 3 4 5 6 4 6 7 8 9 10 8 10 11 12 13 14 12 14 15 4 16 17 4 17 15 18 5 14 18 14 19 "
									                    >
										<Coordinate point="-0.330740 0.000000 -0.279984 -0.330740 0.000000 0.279984 -0.330740 0.541681 0.279984 -0.330740 0.541681 -0.279984 -0.330740 0.541681 -0.279984 -0.330740 0.541681 0.279984 0.330740 0.541681 0.279984 0.330740 0.541681 -0.279984 0.330740 0.541681 -0.279984 0.330740 0.541681 0.279984 0.330740 0.000000 0.279984 0.330740 0.000000 -0.279984 0.330740 0.000000 -0.279984 0.330740 0.000000 0.279984 -0.330740 0.000000 0.279984 -0.330740 0.000000 -0.279984 0.330740 0.541681 -0.279984 0.330740 0.000000 -0.279984 0.330740 0.541681 0.279984 0.330740 0.000000 0.279984 " />
										<Normal vector="-0.577349 -0.577349 -0.577349 -0.577349 -0.577349 0.577349 -0.577349 0.577349 0.577349 -0.577349 0.577349 -0.577349 -0.577349 0.577349 -0.577349 -0.577349 0.577349 0.577349 0.577349 0.577349 0.577349 0.577349 0.577349 -0.577349 0.577349 0.577349 -0.577349 0.577349 0.577349 0.577349 0.577349 -0.577349 0.577349 0.577349 -0.577349 -0.577349 0.577349 -0.577349 -0.577349 0.577349 -0.577349 0.577349 -0.577349 -0.577349 0.577349 -0.577349 -0.577349 -0.577349 0.577349 0.577349 -0.577349 0.577349 -0.577349 -0.577349 0.577349 0.577349 0.577349 0.577349 -0.577349 0.577349 " />
										<TextureCoordinate point="0.0145 0.5338 0.2042 0.5338 0.2042 0.9747 0.0145 0.9747 0.0145 0.5338 0.2042 0.5338 0.2042 0.9747 0.0145 0.9747 0.0145 0.5338 0.2042 0.5338 0.2042 0.9747 0.0145 0.9747 0.0145 0.5338 0.2042 0.5338 0.2042 0.9747 0.0145 0.9747 0.2042 0.5338 0.2042 0.9747 0.0145 0.5338 0.0145 0.9747 " />
									</IndexedTriangleSet>
								</Shape>
							</Group>
						</Transform>
						<Transform DEF="Cube_010_TRANSFORM"
						           translation="0.000000 0.480525 0.000000"
						           scale="1.000000 1.000000 1.000000"
						           rotation="0.000000 1.000000 0.000000 0.000000"
						           >
							<Transform DEF="Cube_010_ifs_TRANSFORM"
							           translation="0.000000 0.000000 0.000000"
							           scale="1.000000 1.000000 1.000000"
							           rotation="0.000000 1.000000 0.000000 0.000000"
							           >
								<Group DEF="group_ME_Cube_014">
									<Shape>
										<Appearance>
											<Material USE="MA_Body" />
										</Appearance>
										<IndexedTriangleSet solid="false"
										                    normalPerVertex="true"
										                    index="0 1 2 0 2 3 4 5 6 4 6 7 8 9 10 8 10 11 12 13 14 12 14 15 4 16 17 4 17 15 18 5 14 18 14 19 "
										                    >
											<Coordinate point="-0.212998 0.000000 -0.159644 -0.212998 0.000000 0.159644 -0.212998 0.540919 0.159644 -0.212998 0.540919 -0.159644 -0.212998 0.540919 -0.159644 -0.212998 0.540919 0.159644 0.212998 0.540919 0.159644 0.212998 0.540919 -0.159644 0.212998 0.540919 -0.159644 0.212998 0.540919 0.159644 0.212998 0.000000 0.159644 0.212998 0.000000 -0.159644 0.212998 0.000000 -0.159644 0.212998 0.000000 0.159644 -0.212998 0.000000 0.159644 -0.212998 0.000000 -0.159644 0.212998 0.540919 -0.159644 0.212998 0.000000 -0.159644 0.212998 0.540919 0.159644 0.212998 0.000000 0.159644 " />
											<Normal vector="-0.577349 -0.577349 -0.577349 -0.577349 -0.577349 0.577349 -0.577349 0.577349 0.577349 -0.577349 0.577349 -0.577349 -0.577349 0.577349 -0.577349 -0.577349 0.577349 0.577349 0.577349 0.577349 0.577349 0.577349 0.577349 -0.577349 0.577349 0.577349 -0.577349 0.577349 0.577349 0.577349 0.577349 -0.577349 0.577349 0.577349 -0.577349 -0.577349 0.577349 -0.577349 -0.577349 0.577349 -0.577349 0.577349 -0.577349 -0.577349 0.577349 -0.577349 -0.577349 -0.577349 0.577349 0.577349 -0.577349 0.577349 -0.577349 -0.577349 0.577349 0.577349 0.577349 0.577349 -0.577349 0.577349 " />
											<TextureCoordinate point="0.0145 0.5338 0.2042 0.5338 0.2042 0.9747 0.0145 0.9747 0.0145 0.5338 0.2042 0.5338 0.2042 0.9747 0.0145 0.9747 0.0145 0.5338 0.2042 0.5338 0.2042 0.9747 0.0145 0.9747 0.0145 0.5338 0.2042 0.5338 0.2042 0.9747 0.0145 0.9747 0.2042 0.5338 0.2042 0.9747 0.0145 0.5338 0.0145 0.9747 " />
										</IndexedTriangleSet>
									</Shape>
								</Group>
							</Transform>
						</Transform>
					</Transform>
				</Transform>
			</Transform>
			<Transform DEF="tail_TRANSFORM"
			           translation="0.000000 0.078765 0.008541"
			           scale="1.000000 1.000000 1.000000"
			           rotation="0.000000 1.000000 0.000000 0.000000"
			           >
				<Transform DEF="tail_ifs_TRANSFORM"
				           translation="0.000000 0.000000 0.000000"
				           scale="1.000000 1.000000 1.000000"
				           rotation="0.000000 1.000000 0.000000 0.000000"
				           >
					<Group DEF="group_ME_tail">
						<Shape>
							<Appearance>
								<Material USE="MA_Body" />
							</Appearance>
							<IndexedTriangleSet solid="false"
							                    normalPerVertex="true"
							                    index="0 1 2 0 2 3 4 5 6 4 6 7 8 9 10 8 10 11 12 13 14 12 14 15 4 16 17 4 17 15 18 5 14 18 14 19 "
							                    >
								<Coordinate point="-0.054088 0.000000 -0.764041 -0.054088 0.000000 0.764041 -0.054088 0.759156 0.764041 -0.054088 0.759156 -0.764041 -0.054088 0.759156 -0.764041 -0.054088 0.759156 0.764041 0.054088 0.759156 0.764041 0.054088 0.759156 -0.764041 0.054088 0.759156 -0.764041 0.054088 0.759156 0.764041 0.054088 0.000000 0.764041 0.054088 0.000000 -0.764041 0.054088 0.000000 -0.764041 0.054088 0.000000 0.764041 -0.054088 0.000000 0.764041 -0.054088 0.000000 -0.764041 0.054088 0.759156 -0.764041 0.054088 0.000000 -0.764041 0.054088 0.759156 0.764041 0.054088 0.000000 0.764041 " />
								<Normal vector="-0.577349 -0.577349 -0.577349 -0.577349 -0.577349 0.577349 -0.577349 0.577349 0.577349 -0.577349 0.577349 -0.577349 -0.577349 0.577349 -0.577349 -0.577349 0.577349 0.577349 0.577349 0.577349 0.577349 0.577349 0.577349 -0.577349 0.577349 0.577349 -0.577349 0.577349 0.577349 0.577349 0.577349 -0.577349 0.577349 0.577349 -0.577349 -0.577349 0.577349 -0.577349 -0.577349 0.577349 -0.577349 0.577349 -0.577349 -0.577349 0.577349 -0.577349 -0.577349 -0.577349 0.577349 0.577349 -0.577349 0.577349 -0.577349 -0.577349 0.577349 0.577349 0.577349 0.577349 -0.577349 0.577349 " />
								<TextureCoordinate point="0.0145 0.0192 0.2042 0.0192 0.2042 0.4600 0.0145 0.4600 0.0145 0.0192 0.2042 0.0192 0.2042 0.4600 0.0145 0.4600 0.0145 0.0192 0.2042 0.0192 0.2042 0.4600 0.0145 0.4600 0.0145 0.0192 0.2042 0.0192 0.2042 0.4600 0.0145 0.4600 0.2042 0.0192 0.2042 0.4600 0.0145 0.0192 0.0145 0.4600 " />
							</IndexedTriangleSet>
						</Shape>
					</Group>
				</Transform>
				<Transform DEF="tail1_TRANSFORM"
				           translation="0.000000 0.648463 0.000000"
				           scale="1.000000 1.000000 1.000000"
				           rotation="0.000000 1.000000 0.000000 0.000000"
				           >
					<Transform DEF="tail1_ifs_TRANSFORM"
					           translation="0.000000 0.000000 0.000000"
					           scale="1.000000 1.000000 1.000000"
					           rotation="0.000000 1.000000 0.000000 0.000000"
					           >
						<Group DEF="group_ME_tail1">
							<Shape>
								<Appearance>
									<Material USE="MA_Body" />
								</Appearance>
								<IndexedTriangleSet solid="false"
								                    normalPerVertex="true"
								                    index="0 1 2 0 2 3 4 5 6 4 6 7 8 9 10 8 10 11 12 13 14 12 14 15 4 16 17 4 17 15 18 5 14 18 14 19 "
								                    >
									<Coordinate point="-0.056366 0.000000 -0.959674 -0.056366 0.000000 0.959674 -0.056366 1.550066 0.959674 -0.056366 1.550066 -0.959674 -0.056366 1.550066 -0.959674 -0.056366 1.550066 0.959674 0.056366 1.550066 0.959674 0.056366 1.550066 -0.959674 0.056366 1.550066 -0.959674 0.056366 1.550066 0.959674 0.056366 0.000000 0.959674 0.056366 0.000000 -0.959674 0.056366 0.000000 -0.959674 0.056366 0.000000 0.959674 -0.056366 0.000000 0.959674 -0.056366 0.000000 -0.959674 0.056366 1.550066 -0.959674 0.056366 0.000000 -0.959674 0.056366 1.550066 0.959674 0.056366 0.000000 0.959674 " />
									<Normal vector="-0.577349 -0.577349 -0.577349 -0.577349 -0.577349 0.577349 -0.577349 0.577349 0.577349 -0.577349 0.577349 -0.577349 -0.577349 0.577349 -0.577349 -0.577349 0.577349 0.577349 0.577349 0.577349 0.577349 0.577349 0.577349 -0.577349 0.577349 0.577349 -0.577349 0.577349 0.577349 0.577349 0.577349 -0.577349 0.577349 0.577349 -0.577349 -0.577349 0.577349 -0.577349 -0.577349 0.577349 -0.577349 0.577349 -0.577349 -0.577349 0.577349 -0.577349 -0.577349 -0.577349 0.577349 0.577349 -0.577349 0.577349 -0.577349 -0.577349 0.577349 0.577349 0.577349 0.577349 -0.577349 0.577349 " />
									<TextureCoordinate point="0.0145 0.0192 0.2042 0.0192 0.2042 0.4600 0.0145 0.4600 0.0145 0.0192 0.2042 0.0192 0.2042 0.4600 0.0145 0.4600 0.0145 0.0192 0.2042 0.0192 0.2042 0.4600 0.0145 0.4600 0.0145 0.0192 0.2042 0.0192 0.2042 0.4600 0.0145 0.4600 0.2042 0.0192 0.2042 0.4600 0.0145 0.0192 0.0145 0.4600 " />
								</IndexedTriangleSet>
							</Shape>
						</Group>
					</Transform>
					<Transform DEF="tail2_TRANSFORM"
					           translation="0.000000 1.470903 0.000000"
					           scale="1.000000 1.000000 1.000000"
					           rotation="0.000000 1.000000 0.000000 0.000000"
					           >
						<Transform DEF="tail2_ifs_TRANSFORM"
						           translation="0.000000 0.000000 0.000000"
						           scale="1.000000 1.000000 1.000000"
						           rotation="0.000000 1.000000 0.000000 0.000000"
						           >
							<Group DEF="group_ME_tail2">
								<Shape>
									<Appearance>
										<Material USE="MA_Body" />
									</Appearance>
									<IndexedTriangleSet solid="false"
									                    normalPerVertex="true"
									                    index="0 1 2 0 2 3 4 5 6 4 6 7 8 9 10 8 10 11 12 13 14 12 14 15 4 16 17 4 17 15 18 5 14 18 14 19 "
									                    >
										<Coordinate point="-0.050510 0.000000 -0.762566 -0.050510 0.000000 0.762566 -0.050510 0.445197 0.762566 -0.050510 0.445197 -0.762566 -0.050510 0.445197 -0.762566 -0.050510 0.445197 0.762566 0.050510 0.445197 0.762566 0.050510 0.445197 -0.762566 0.050510 0.445197 -0.762566 0.050510 0.445197 0.762566 0.050510 0.000000 0.762566 0.050510 0.000000 -0.762566 0.050510 0.000000 -0.762566 0.050510 0.000000 0.762566 -0.050510 0.000000 0.762566 -0.050510 0.000000 -0.762566 0.050510 0.445197 -0.762566 0.050510 0.000000 -0.762566 0.050510 0.445197 0.762566 0.050510 0.000000 0.762566 " />
										<Normal vector="-0.577349 -0.577349 -0.577349 -0.577349 -0.577349 0.577349 -0.577349 0.577349 0.577349 -0.577349 0.577349 -0.577349 -0.577349 0.577349 -0.577349 -0.577349 0.577349 0.577349 0.577349 0.577349 0.577349 0.577349 0.577349 -0.577349 0.577349 0.577349 -0.577349 0.577349 0.577349 0.577349 0.577349 -0.577349 0.577349 0.577349 -0.577349 -0.577349 0.577349 -0.577349 -0.577349 0.577349 -0.577349 0.577349 -0.577349 -0.577349 0.577349 -0.577349 -0.577349 -0.577349 0.577349 0.577349 -0.577349 0.577349 -0.577349 -0.577349 0.577349 0.577349 0.577349 0.577349 -0.577349 0.577349 " />
										<TextureCoordinate point="0.0145 0.0192 0.2042 0.0192 0.2042 0.4600 0.0145 0.4600 0.0145 0.0192 0.2042 0.0192 0.2042 0.4600 0.0145 0.4600 0.0145 0.0192 0.2042 0.0192 0.2042 0.4600 0.0145 0.4600 0.0145 0.0192 0.2042 0.0192 0.2042 0.4600 0.0145 0.4600 0.2042 0.0192 0.2042 0.4600 0.0145 0.0192 0.0145 0.4600 " />
									</IndexedTriangleSet>
								</Shape>
							</Group>
						</Transform>
						<Transform DEF="tail3_TRANSFORM"
						           translation="0.000000 0.417371 0.000000"
						           scale="1.000000 1.000000 1.000000"
						           rotation="0.000000 1.000000 0.000000 0.000000"
						           >
							<Transform DEF="tail3_ifs_TRANSFORM"
							           translation="0.000000 0.000000 0.000000"
							           scale="1.000000 1.000000 1.000000"
							           rotation="0.000000 1.000000 0.000000 0.000000"
							           >
								<Group DEF="group_ME_tail3">
									<Shape>
										<Appearance>
											<Material USE="MA_Body" />
										</Appearance>
										<IndexedTriangleSet solid="false"
										                    normalPerVertex="true"
										                    index="0 1 2 0 2 3 4 5 6 4 6 7 8 9 10 8 10 11 12 13 14 12 14 15 4 16 17 4 17 15 18 5 14 18 14 19 "
										                    >
											<Coordinate point="-0.044533 0.000000 -0.644322 -0.044533 0.000000 0.644322 -0.044533 0.804015 0.644322 -0.044533 0.804015 -0.644322 -0.044533 0.804015 -0.644322 -0.044533 0.804015 0.644322 0.044533 0.804015 0.644322 0.044533 0.804015 -0.644322 0.044533 0.804015 -0.644322 0.044533 0.804015 0.644322 0.044533 0.000000 0.644322 0.044533 0.000000 -0.644322 0.044533 0.000000 -0.644322 0.044533 0.000000 0.644322 -0.044533 0.000000 0.644322 -0.044533 0.000000 -0.644322 0.044533 0.804015 -0.644322 0.044533 0.000000 -0.644322 0.044533 0.804015 0.644322 0.044533 0.000000 0.644322 " />
											<Normal vector="-0.577349 -0.577349 -0.577349 -0.577349 -0.577349 0.577349 -0.577349 0.577349 0.577349 -0.577349 0.577349 -0.577349 -0.577349 0.577349 -0.577349 -0.577349 0.577349 0.577349 0.577349 0.577349 0.577349 0.577349 0.577349 -0.577349 0.577349 0.577349 -0.577349 0.577349 0.577349 0.577349 0.577349 -0.577349 0.577349 0.577349 -0.577349 -0.577349 0.577349 -0.577349 -0.577349 0.577349 -0.577349 0.577349 -0.577349 -0.577349 0.577349 -0.577349 -0.577349 -0.577349 0.577349 0.577349 -0.577349 0.577349 -0.577349 -0.577349 0.577349 0.577349 0.577349 0.577349 -0.577349 0.577349 " />
											<TextureCoordinate point="0.0145 0.0192 0.2042 0.0192 0.2042 0.4600 0.0145 0.4600 0.0145 0.0192 0.2042 0.0192 0.2042 0.4600 0.0145 0.4600 0.0145 0.0192 0.2042 0.0192 0.2042 0.4600 0.0145 0.4600 0.0145 0.0192 0.2042 0.0192 0.2042 0.4600 0.0145 0.4600 0.2042 0.0192 0.2042 0.4600 0.0145 0.0192 0.0145 0.4600 " />
										</IndexedTriangleSet>
									</Shape>
								</Group>
							</Transform>
							<Transform DEF="tail4_TRANSFORM"
							           translation="0.000000 0.724907 -0.000000"
							           scale="1.000000 1.000000 1.000000"
							           rotation="0.000000 1.000000 0.000000 0.000000"
							           >
								<Transform DEF="tail4_ifs_TRANSFORM"
								           translation="0.000000 0.000000 0.000000"
								           scale="1.000000 1.000000 1.000000"
								           rotation="0.000000 1.000000 0.000000 0.000000"
								           >
									<Group DEF="group_ME_tail4">
										<Shape>
											<Appearance>
												<Material USE="MA_Body" />
											</Appearance>
											<IndexedTriangleSet solid="false"
											                    normalPerVertex="true"
											                    index="0 1 2 0 2 3 4 5 6 4 6 7 8 9 10 8 10 11 12 13 14 12 14 15 4 16 17 4 17 15 18 5 14 18 14 19 "
											                    >
												<Coordinate point="-0.032795 0.000000 -0.362880 -0.032795 0.000000 0.362880 -0.032795 0.534900 0.362880 -0.032795 0.534900 -0.362880 -0.032795 0.534900 -0.362880 -0.032795 0.534900 0.362880 0.032795 0.534900 0.362880 0.032795 0.534900 -0.362880 0.032795 0.534900 -0.362880 0.032795 0.534900 0.362880 0.032795 0.000000 0.362880 0.032795 0.000000 -0.362880 0.032795 0.000000 -0.362880 0.032795 0.000000 0.362880 -0.032795 0.000000 0.362880 -0.032795 0.000000 -0.362880 0.032795 0.534900 -0.362880 0.032795 0.000000 -0.362880 0.032795 0.534900 0.362880 0.032795 0.000000 0.362880 " />
												<Normal vector="-0.577349 -0.577349 -0.577349 -0.577349 -0.577349 0.577349 -0.577349 0.577349 0.577349 -0.577349 0.577349 -0.577349 -0.577349 0.577349 -0.577349 -0.577349 0.577349 0.577349 0.577349 0.577349 0.577349 0.577349 0.577349 -0.577349 0.577349 0.577349 -0.577349 0.577349 0.577349 0.577349 0.577349 -0.577349 0.577349 0.577349 -0.577349 -0.577349 0.577349 -0.577349 -0.577349 0.577349 -0.577349 0.577349 -0.577349 -0.577349 0.577349 -0.577349 -0.577349 -0.577349 0.577349 0.577349 -0.577349 0.577349 -0.577349 -0.577349 0.577349 0.577349 0.577349 0.577349 -0.577349 0.577349 " />
												<TextureCoordinate point="0.0145 0.0192 0.2042 0.0192 0.2042 0.4600 0.0145 0.4600 0.0145 0.0192 0.2042 0.0192 0.2042 0.4600 0.0145 0.4600 0.0145 0.0192 0.2042 0.0192 0.2042 0.4600 0.0145 0.4600 0.0145 0.0192 0.2042 0.0192 0.2042 0.4600 0.0145 0.4600 0.2042 0.0192 0.2042 0.4600 0.0145 0.0192 0.0145 0.4600 " />
											</IndexedTriangleSet>
										</Shape>
									</Group>
								</Transform>
								<Transform DEF="tail5_TRANSFORM"
								           translation="0.000000 0.499747 0.000000"
								           scale="1.000000 1.000000 1.000000"
								           rotation="0.000000 1.000000 0.000000 0.000000"
								           >
									<Transform DEF="tail5_ifs_TRANSFORM"
									           translation="0.000000 0.000000 0.000000"
									           scale="1.000000 1.000000 1.000000"
									           rotation="0.000000 1.000000 0.000000 0.000000"
									           >
										<Group DEF="group_ME_tail5">
											<Shape>
												<Appearance>
													<Material USE="MA_Body" />
												</Appearance>
												<IndexedTriangleSet solid="false"
												                    normalPerVertex="true"
												                    index="0 1 2 0 2 3 4 5 6 4 6 7 8 9 10 8 10 11 12 13 14 12 14 15 4 16 17 4 17 15 18 5 14 18 14 19 "
												                    >
													<Coordinate point="-0.027055 0.000000 -0.299370 -0.027055 0.000000 0.299370 -0.027055 0.654949 0.299370 -0.027055 0.654949 -0.299370 -0.027055 0.654949 -0.299370 -0.027055 0.654949 0.299370 0.027055 0.654949 0.299370 0.027055 0.654949 -0.299370 0.027055 0.654949 -0.299370 0.027055 0.654949 0.299370 0.027055 0.000000 0.299370 0.027055 0.000000 -0.299370 0.027055 0.000000 -0.299370 0.027055 0.000000 0.299370 -0.027055 0.000000 0.299370 -0.027055 0.000000 -0.299370 0.027055 0.654949 -0.299370 0.027055 0.000000 -0.299370 0.027055 0.654949 0.299370 0.027055 0.000000 0.299370 " />
													<Normal vector="-0.577349 -0.577349 -0.577349 -0.577349 -0.577349 0.577349 -0.577349 0.577349 0.577349 -0.577349 0.577349 -0.577349 -0.577349 0.577349 -0.577349 -0.577349 0.577349 0.577349 0.577349 0.577349 0.577349 0.577349 0.577349 -0.577349 0.577349 0.577349 -0.577349 0.577349 0.577349 0.577349 0.577349 -0.577349 0.577349 0.577349 -0.577349 -0.577349 0.577349 -0.577349 -0.577349 0.577349 -0.577349 0.577349 -0.577349 -0.577349 0.577349 -0.577349 -0.577349 -0.577349 0.577349 0.577349 -0.577349 0.577349 -0.577349 -0.577349 0.577349 0.577349 0.577349 0.577349 -0.577349 0.577349 " />
													<TextureCoordinate point="0.0145 0.0192 0.2042 0.0192 0.2042 0.4600 0.0145 0.4600 0.0145 0.0192 0.2042 0.0192 0.2042 0.4600 0.0145 0.4600 0.0145 0.0192 0.2042 0.0192 0.2042 0.4600 0.0145 0.4600 0.0145 0.0192 0.2042 0.0192 0.2042 0.4600 0.0145 0.4600 0.2042 0.0192 0.2042 0.4600 0.0145 0.0192 0.0145 0.4600 " />
												</IndexedTriangleSet>
											</Shape>
										</Group>
									</Transform>
								</Transform>
							</Transform>
						</Transform>
					</Transform>
				</Transform>
			</Transform>
			<Transform DEF="Cube_003_TRANSFORM"
			           translation="0.000000 0.000000 0.000000"
			           scale="1.000000 1.000000 1.000000"
			           rotation="0.000000 1.000000 0.000000 0.000000"
			           >
				<Transform DEF="Cube_003_ifs_TRANSFORM"
				           translation="0.000000 0.000000 0.000000"
				           scale="1.000000 1.000000 1.000000"
				           rotation="0.000000 1.000000 0.000000 0.000000"
				           >
					<Group DEF="group_ME_Cube_002">
						<Shape>
							<Appearance>
								<Material DEF="MA_Glow"
								          diffuseColor="0.800 0.800 0.800"
								          specularColor="0.401 0.401 0.401"
								          emissiveColor="0.000 0.000 0.000"
								          ambientIntensity="0.000"
								          shininess="0.500"
								          transparency="0.0"
								          />
							</Appearance>
							<IndexedTriangleSet solid="false"
							                    normalPerVertex="true"
							                    index="0 1 2 0 2 3 4 5 6 4 6 7 8 9 10 8 10 11 "
							                    >
								<Coordinate point="-0.469125 0.000000 -0.438254 -0.469125 0.000000 0.438254 -0.469125 0.930246 0.438254 -0.469125 0.930246 -0.438254 -0.469125 0.930246 -0.438254 -0.469125 0.930246 0.438254 0.469125 0.930246 0.438254 0.469125 0.930246 -0.438254 0.469125 0.930246 -0.438254 0.469125 0.930246 0.438254 0.469125 0.000000 0.438254 0.469125 0.000000 -0.438254 " />
								<Normal vector="-1.000000 0.000000 0.000000 -1.000000 0.000000 0.000000 -0.707083 0.707083 0.000000 -0.707083 0.707083 0.000000 -0.707083 0.707083 0.000000 -0.707083 0.707083 0.000000 0.707083 0.707083 0.000000 0.707083 0.707083 0.000000 0.707083 0.707083 0.000000 0.707083 0.707083 0.000000 1.000000 0.000000 0.000000 1.000000 0.000000 0.000000 " />
								<TextureCoordinate point="0.2271 0.0354 0.2271 0.9646 0.4071 0.9646 0.4071 0.0354 0.4162 0.0319 0.4162 0.9681 0.3990 0.9681 0.3990 0.0319 0.4071 0.0354 0.4071 0.9646 0.2271 0.9646 0.2271 0.0354 " />
							</IndexedTriangleSet>
						</Shape>
					</Group>
				</Transform>
				<Transform DEF="Cube_011_TRANSFORM"
				           translation="0.000000 0.908880 0.000000"
				           scale="1.000000 1.000000 1.000000"
				           rotation="0.000000 1.000000 0.000000 0.000000"
				           >
					<Transform DEF="Cube_011_ifs_TRANSFORM"
					           translation="0.000000 0.000000 0.000000"
					           scale="1.000000 1.000000 1.000000"
					           rotation="0.000000 1.000000 0.000000 0.000000"
					           >
						<Group DEF="group_ME_Cube_003">
							<Shape>
								<Appearance>
									<Material USE="MA_Glow" />
								</Appearance>
								<IndexedTriangleSet solid="false"
								                    normalPerVertex="true"
								                    index="0 1 2 0 2 3 4 5 6 4 6 7 8 9 10 8 10 11 "
								                    >
									<Coordinate point="-0.431720 0.000000 -0.403311 -0.431720 0.000000 0.403311 -0.431720 0.879633 0.403311 -0.431720 0.879633 -0.403311 -0.431720 0.879633 -0.403311 -0.431720 0.879633 0.403311 0.431720 0.879633 0.403311 0.431720 0.879633 -0.403311 0.431720 0.879633 -0.403311 0.431720 0.879633 0.403311 0.431720 0.000000 0.403311 0.431720 0.000000 -0.403311 " />
									<Normal vector="-1.000000 0.000000 0.000000 -1.000000 0.000000 0.000000 -0.707083 0.707083 0.000000 -0.707083 0.707083 0.000000 -0.707083 0.707083 0.000000 -0.707083 0.707083 0.000000 0.707083 0.707083 0.000000 0.707083 0.707083 0.000000 0.707083 0.707083 0.000000 0.707083 0.707083 0.000000 1.000000 0.000000 0.000000 1.000000 0.000000 0.000000 " />
									<TextureCoordinate point="0.4106 0.0409 0.4106 0.9591 0.7816 0.9591 0.7816 0.0409 0.9241 0.0224 0.9241 0.9776 0.8262 0.9776 0.8262 0.0224 0.7816 0.0409 0.7816 0.9591 0.4106 0.9591 0.4106 0.0409 " />
								</IndexedTriangleSet>
							</Shape>
						</Group>
					</Transform>
					<Transform DEF="Cube_012_TRANSFORM"
					           translation="0.000000 0.850454 0.000000"
					           scale="1.000000 1.000000 1.000000"
					           rotation="0.000000 1.000000 0.000000 0.000000"
					           >
						<Transform DEF="Cube_012_ifs_TRANSFORM"
						           translation="0.000000 0.000000 0.000000"
						           scale="1.000000 1.000000 1.000000"
						           rotation="0.000000 1.000000 0.000000 0.000000"
						           >
							<Group DEF="group_ME_Cube_004">
								<Shape>
									<Appearance>
										<Material USE="MA_Glow" />
									</Appearance>
									<IndexedTriangleSet solid="false"
									                    normalPerVertex="true"
									                    index="0 1 2 0 2 3 4 5 6 4 6 7 8 9 10 8 10 11 "
									                    >
										<Coordinate point="-0.330819 0.000000 -0.279984 -0.330819 0.000000 0.279984 -0.330819 0.544986 0.279984 -0.330819 0.544986 -0.279984 -0.330819 0.544986 -0.279984 -0.330819 0.544986 0.279984 0.330819 0.544986 0.279984 0.330819 0.544986 -0.279984 0.330819 0.544986 -0.279984 0.330819 0.544986 0.279984 0.330819 0.000000 0.279984 0.330819 0.000000 -0.279984 " />
										<Normal vector="-1.000000 0.000000 0.000000 -1.000000 0.000000 0.000000 -0.707083 0.707083 0.000000 -0.707083 0.707083 0.000000 -0.707083 0.707083 0.000000 -0.707083 0.707083 0.000000 0.707083 0.707083 0.000000 0.707083 0.707083 0.000000 0.707083 0.707083 0.000000 0.707083 0.707083 0.000000 1.000000 0.000000 0.000000 1.000000 0.000000 0.000000 " />
										<TextureCoordinate point="0.9784 0.0121 0.9784 0.9879 0.7347 0.9879 0.7347 0.0121 0.9241 0.0224 0.9241 0.9776 0.8262 0.9776 0.8262 0.0224 0.9784 0.0121 0.9784 0.9879 0.7347 0.9879 0.7347 0.0121 " />
									</IndexedTriangleSet>
								</Shape>
							</Group>
						</Transform>
						<Transform DEF="Cube_013_TRANSFORM"
						           translation="0.000000 0.480525 0.000000"
						           scale="1.000000 1.000000 1.000000"
						           rotation="0.000000 1.000000 0.000000 0.000000"
						           >
							<Transform DEF="Cube_013_ifs_TRANSFORM"
							           translation="0.000000 0.000000 0.000000"
							           scale="1.000000 1.000000 1.000000"
							           rotation="0.000000 1.000000 0.000000 0.000000"
							           >
								<Group DEF="group_ME_Cube_009">
									<Shape>
										<Appearance>
											<Material USE="MA_Glow" />
										</Appearance>
										<IndexedTriangleSet solid="false"
										                    normalPerVertex="true"
										                    index="0 1 2 0 2 3 4 5 6 4 6 7 8 9 10 8 10 11 "
										                    >
											<Coordinate point="-0.213049 0.000000 -0.159644 -0.213049 0.000000 0.159644 -0.213049 0.541699 0.159644 -0.213049 0.541699 -0.159644 -0.213049 0.541699 -0.159644 -0.213049 0.541699 0.159644 0.213049 0.541699 0.159644 0.213049 0.541699 -0.159644 0.213049 0.541699 -0.159644 0.213049 0.541699 0.159644 0.213049 0.000000 0.159644 0.213049 0.000000 -0.159644 " />
											<Normal vector="-1.000000 0.000000 0.000000 -1.000000 0.000000 0.000000 -0.707083 0.707083 0.000000 -0.707083 0.707083 0.000000 -0.707083 0.707083 0.000000 -0.707083 0.707083 0.000000 0.707083 0.707083 0.000000 0.707083 0.707083 0.000000 0.707083 0.707083 0.000000 0.707083 0.707083 0.000000 1.000000 0.000000 0.000000 1.000000 0.000000 0.000000 " />
											<TextureCoordinate point="0.9784 0.0121 0.9784 0.9879 0.7347 0.9879 0.7347 0.0121 0.8935 0.0101 0.8935 0.9963 0.8312 0.9963 0.8312 0.0101 0.9784 0.0121 0.9784 0.9879 0.7347 0.9879 0.7347 0.0121 " />
										</IndexedTriangleSet>
									</Shape>
								</Group>
							</Transform>
						</Transform>
					</Transform>
				</Transform>
			</Transform>
		</Transform>
	</Scene>
</X3D>