<?xml version="1.0" encoding="UTF-8"?>
<!DOCTYPE X3D PUBLIC "ISO//Web3D//DTD X3D 3.0//EN" "http://www.web3d.org/specifications/x3d-3.0.dtd">
<X3D version="3.0" profile="Immersive" xmlns:xsd="http://www.w3.org/2001/XMLSchema-instance" xsd:noNamespaceSchemaLocation="http://www.web3d.org/specifications/x3d-3.0.xsd">
	<head>
		<meta name="filename" content="unow_s.x3d" />
		<meta name="generator" content="Blender 2.93.18" />
	</head>
	<Scene>
		<NavigationInfo headlight="true"
		                visibilityLimit="0.0"
		                type='"EXAMINE", "ANY"'
		                avatarSize="0.25, 1.75, 0.75"
		                />
		<Background DEF="WO_World"
		            groundColor="0.051 0.051 0.051"
		            skyColor="0.051 0.051 0.051"
		            />
		<Transform DEF="body_TRANSFORM"
		           translation="0.000000 0.000000 0.395978"
		           scale="1.000000 1.000000 1.000000"
		           rotation="0.000000 0.000000 1.000000 3.141593"
		           >
			<Transform DEF="body_ifs_TRANSFORM"
			           translation="0.000000 0.000000 0.000000"
			           scale="1.000000 1.000000 1.000000"
			           rotation="0.000000 1.000000 0.000000 0.000000"
			           >
				<Group DEF="group_ME_body">
					<Shape>
						<Appearance>
							<Material DEF="MA_Body"
							          diffuseColor="0.800 0.800 0.800"
							          specularColor="0.401 0.401 0.401"
							          emissiveColor="0.000 0.000 0.000"
							          ambientIntensity="0.000"
							          shininess="0.500"
							          transparency="0.0"
							          />
						</Appearance>
						<IndexedTriangleSet solid="false"
						                    normalPerVertex="true"
						                    index="0 1 2 0 2 3 4 5 6 4 6 7 8 9 10 8 10 11 4 12 13 4 13 14 15 5 16 15 16 17 "
						                    >
							<Coordinate point="-0.317941 -0.106747 0.000000 -0.317941 -0.106747 0.585070 -0.317941 0.106747 0.585070 -0.317941 0.106747 0.000000 -0.317941 0.106747 0.000000 -0.317941 0.106747 0.585070 0.317941 0.106747 0.585070 0.317941 0.106747 0.000000 0.317941 0.106747 0.000000 0.317941 0.106747 0.585070 0.317941 -0.106747 0.585070 0.317941 -0.106747 0.000000 0.317941 0.106747 0.000000 0.317941 -0.106747 0.000000 -0.317941 -0.106747 0.000000 0.317941 0.106747 0.585070 -0.317941 -0.106747 0.585070 0.317941 -0.106747 0.585070 " />
							<Normal vector="-0.577349 -0.577349 -0.577349 -0.577349 -0.577349 0.577349 -0.577349 0.577349 0.577349 -0.577349 0.577349 -0.577349 -0.577349 0.577349 -0.577349 -0.577349 0.577349 0.577349 0.577349 0.577349 0.577349 0.577349 0.577349 -0.577349 0.577349 0.577349 -0.577349 0.577349 0.577349 0.577349 0.577349 -0.577349 0.577349 0.577349 -0.577349 -0.577349 0.577349 0.577349 -0.577349 0.577349 -0.577349 -0.577349 -0.577349 -0.577349 -0.577349 0.577349 0.577349 0.577349 -0.577349 -0.577349 0.577349 0.577349 -0.577349 0.577349 " />
							<TextureCoordinate point="0.0000 0.0000 1.0000 0.0000 1.0000 1.0000 0.0000 1.0000 0.0000 0.0000 1.0000 0.0000 1.0000 1.0000 0.0000 1.0000 0.0000 0.0000 1.0000 0.0000 1.0000 1.0000 0.0000 1.0000 1.0000 0.0000 1.0000 1.0000 0.0000 1.0000 0.0000 0.0000 1.0000 1.0000 0.0000 1.0000 " />
						</IndexedTriangleSet>
					</Shape>
					<Shape>
						<Appearance>
							<Material DEF="MA_Eye"
							          diffuseColor="0.800 0.800 0.800"
							          specularColor="0.401 0.401 0.401"
							          emissiveColor="0.000 0.000 0.000"
							          ambientIntensity="0.000"
							          shininess="0.500"
							          transparency="0.0"
							          />
						</Appearance>
						<IndexedTriangleSet solid="false"
						                    normalPerVertex="true"
						                    index="0 1 2 0 2 3 "
						                    >
							<Coordinate point="0.317941 -0.106747 0.000000 0.317941 -0.106747 0.585070 -0.317941 -0.106747 0.585070 -0.317941 -0.106747 0.000000 " />
							<Normal vector="0.577349 -0.577349 -0.577349 0.577349 -0.577349 0.577349 -0.577349 -0.577349 0.577349 -0.577349 -0.577349 -0.577349 " />
							<TextureCoordinate point="0.9606 0.5189 0.9606 0.9795 0.0394 0.9795 0.0394 0.5189 " />
						</IndexedTriangleSet>
					</Shape>
				</Group>
			</Transform>
			<Transform DEF="Cube_002_TRANSFORM"
			           translation="-0.261832 0.000000 0.472376"
			           scale="1.000000 1.000000 1.000000"
			           rotation="0.000000 1.000000 0.000000 0.000000"
			           >
				<Transform DEF="Cube_002_ifs_TRANSFORM"
				           translation="0.000000 0.000000 0.000000"
				           scale="1.000000 1.000000 1.000000"
				           rotation="0.000000 1.000000 0.000000 0.000000"
				           >
					<Group DEF="group_ME_Cube_005">
						<Shape>
							<Appearance>
								<Material USE="MA_Body" />
							</Appearance>
							<IndexedTriangleSet solid="false"
							                    normalPerVertex="true"
							                    index="0 1 2 0 2 3 4 5 6 4 6 7 8 9 10 8 10 11 12 13 14 12 14 15 4 16 17 4 17 15 18 5 14 18 14 19 "
							                    >
								<Coordinate point="-0.034659 -0.054501 -0.048496 -0.279573 -0.054501 0.126537 -0.279573 0.054501 0.126537 -0.034659 0.054501 -0.048496 -0.034659 0.054501 -0.048496 -0.279573 0.054501 0.126537 -0.210255 0.054501 0.223529 0.034659 0.054501 0.048496 0.034659 0.054501 0.048496 -0.210255 0.054501 0.223529 -0.210255 -0.054501 0.223529 0.034659 -0.054501 0.048496 0.034659 -0.054501 0.048496 -0.210255 -0.054501 0.223529 -0.279573 -0.054501 0.126537 -0.034659 -0.054501 -0.048496 0.034659 0.054501 0.048496 0.034659 -0.054501 0.048496 -0.210255 0.054501 0.223529 -0.210255 -0.054501 0.223529 " />
								<Normal vector="0.134007 -0.577349 -0.805414 -0.805414 -0.577349 -0.134007 -0.805414 0.577349 -0.134007 0.134007 0.577349 -0.805414 0.134007 0.577349 -0.805414 -0.805414 0.577349 -0.134007 -0.134007 0.577349 0.805414 0.805414 0.577349 0.134007 0.805414 0.577349 0.134007 -0.134007 0.577349 0.805414 -0.134007 -0.577349 0.805414 0.805414 -0.577349 0.134007 0.805414 -0.577349 0.134007 -0.134007 -0.577349 0.805414 -0.805414 -0.577349 -0.134007 0.134007 -0.577349 -0.805414 0.805414 0.577349 0.134007 0.805414 -0.577349 0.134007 -0.134007 0.577349 0.805414 -0.134007 -0.577349 0.805414 " />
								<TextureCoordinate point="0.0000 0.0000 1.0000 0.0000 1.0000 1.0000 0.0000 1.0000 0.0000 0.0000 1.0000 0.0000 1.0000 1.0000 0.0000 1.0000 0.0000 0.0000 1.0000 0.0000 1.0000 1.0000 0.0000 1.0000 0.0000 0.0000 1.0000 0.0000 1.0000 1.0000 0.0000 1.0000 1.0000 0.0000 1.0000 1.0000 0.0000 0.0000 0.0000 1.0000 " />
							</IndexedTriangleSet>
						</Shape>
					</Group>
				</Transform>
				<Transform DEF="Cube_003_TRANSFORM"
				           translation="-0.173643 0.000000 0.164829"
				           scale="1.000000 1.000000 1.000000"
				           rotation="0.000000 1.000000 0.000000 0.000000"
				           >
					<Transform DEF="Cube_003_ifs_TRANSFORM"
					           translation="0.000000 0.000000 0.000000"
					           scale="1.000000 1.000000 1.000000"
					           rotation="0.000000 1.000000 0.000000 0.000000"
					           >
						<Group DEF="group_ME_Cube_006">
							<Shape>
								<Appearance>
									<Material USE="MA_Body" />
								</Appearance>
								<IndexedTriangleSet solid="false"
								                    normalPerVertex="true"
								                    index="0 1 2 0 2 3 4 5 6 4 6 7 8 9 10 8 10 11 12 13 14 12 14 15 4 16 17 4 17 15 18 5 14 18 14 19 "
								                    >
									<Coordinate point="-0.042619 -0.057257 0.041674 0.117288 -0.057257 0.205206 0.117288 0.057257 0.205206 -0.042619 0.057257 0.041674 -0.042619 0.057257 0.041674 0.117288 0.057257 0.205206 0.202526 0.057257 0.121857 0.042619 0.057257 -0.041674 0.042619 0.057257 -0.041674 0.202526 0.057257 0.121857 0.202526 -0.057257 0.121857 0.042619 -0.057257 -0.041674 0.042619 -0.057257 -0.041674 0.202526 -0.057257 0.121857 0.117288 -0.057257 0.205206 -0.042619 -0.057257 0.041674 0.042619 0.057257 -0.041674 0.042619 -0.057257 -0.041674 0.202526 0.057257 0.121857 0.202526 -0.057257 0.121857 " />
									<Normal vector="-0.816431 -0.577349 -0.009125 -0.009125 -0.577349 0.816431 -0.009125 0.577349 0.816431 -0.816431 0.577349 -0.009125 -0.816431 0.577349 -0.009125 -0.009125 0.577349 0.816431 0.816431 0.577349 0.009125 0.009125 0.577349 -0.816431 0.009125 0.577349 -0.816431 0.816431 0.577349 0.009125 0.816431 -0.577349 0.009125 0.009125 -0.577349 -0.816431 0.009125 -0.577349 -0.816431 0.816431 -0.577349 0.009125 -0.009125 -0.577349 0.816431 -0.816431 -0.577349 -0.009125 0.009125 0.577349 -0.816431 0.009125 -0.577349 -0.816431 0.816431 0.577349 0.009125 0.816431 -0.577349 0.009125 " />
									<TextureCoordinate point="0.0000 0.0000 1.0000 0.0000 1.0000 1.0000 0.0000 1.0000 0.0000 0.0000 1.0000 0.0000 1.0000 1.0000 0.0000 1.0000 0.0000 0.0000 1.0000 0.0000 1.0000 1.0000 0.0000 1.0000 0.0000 0.0000 1.0000 0.0000 1.0000 1.0000 0.0000 1.0000 1.0000 0.0000 1.0000 1.0000 0.0000 0.0000 0.0000 1.0000 " />
								</IndexedTriangleSet>
							</Shape>
						</Group>
					</Transform>
					<Transform DEF="Cube_004_TRANSFORM"
					           translation="0.143942 0.000000 0.140577"
					           scale="1.000000 1.000000 1.000000"
					           rotation="0.000000 1.000000 0.000000 0.000000"
					           >
						<Transform DEF="Cube_004_ifs_TRANSFORM"
						           translation="0.000000 0.000000 0.000000"
						           scale="1.000000 1.000000 1.000000"
						           rotation="0.000000 1.000000 0.000000 0.000000"
						           >
							<Group DEF="group_ME_Cube_007">
								<Shape>
									<Appearance>
										<Material USE="MA_Body" />
									</Appearance>
									<IndexedTriangleSet solid="false"
									                    normalPerVertex="true"
									                    index="0 1 2 0 2 3 4 5 6 4 6 7 8 9 10 8 10 11 12 13 14 12 14 15 4 16 17 4 17 15 18 5 14 18 14 19 "
									                    >
										<Coordinate point="-0.020013 -0.053003 0.056148 0.227795 -0.053003 0.144474 0.227795 0.053003 0.144474 -0.020013 0.053003 0.056148 -0.020013 0.053003 0.056148 0.227795 0.053003 0.144474 0.267820 0.053003 0.032178 0.020013 0.053003 -0.056148 0.020013 0.053003 -0.056148 0.267820 0.053003 0.032178 0.267820 -0.053003 0.032178 0.020013 -0.053003 -0.056148 0.020013 -0.053003 -0.056148 0.267820 -0.053003 0.032178 0.227795 -0.053003 0.144474 -0.020013 -0.053003 0.056148 0.020013 0.053003 -0.056148 0.020013 -0.053003 -0.056148 0.267820 0.053003 0.032178 0.267820 -0.053003 0.032178 " />
										<Normal vector="-0.737663 -0.577349 0.349986 0.349986 -0.577349 0.737663 0.349986 0.577349 0.737663 -0.737663 0.577349 0.349986 -0.737663 0.577349 0.349986 0.349986 0.577349 0.737663 0.737663 0.577349 -0.349986 -0.349986 0.577349 -0.737663 -0.349986 0.577349 -0.737663 0.737663 0.577349 -0.349986 0.737663 -0.577349 -0.349986 -0.349986 -0.577349 -0.737663 -0.349986 -0.577349 -0.737663 0.737663 -0.577349 -0.349986 0.349986 -0.577349 0.737663 -0.737663 -0.577349 0.349986 -0.349986 0.577349 -0.737663 -0.349986 -0.577349 -0.737663 0.737663 0.577349 -0.349986 0.737663 -0.577349 -0.349986 " />
										<TextureCoordinate point="0.0000 0.0000 1.0000 0.0000 1.0000 1.0000 0.0000 1.0000 0.0000 0.0000 1.0000 0.0000 1.0000 1.0000 0.0000 1.0000 0.0000 0.0000 1.0000 0.0000 1.0000 1.0000 0.0000 1.0000 0.0000 0.0000 1.0000 0.0000 1.0000 1.0000 0.0000 1.0000 1.0000 0.0000 1.0000 1.0000 0.0000 0.0000 0.0000 1.0000 " />
									</IndexedTriangleSet>
								</Shape>
							</Group>
						</Transform>
						<Transform DEF="Cube_001_TRANSFORM"
						           translation="0.227167 0.000000 0.101924"
						           scale="1.000000 1.000000 1.000000"
						           rotation="0.000000 1.000000 0.000000 0.000000"
						           >
							<Transform DEF="Cube_001_ifs_TRANSFORM"
							           translation="0.000000 0.000000 0.000000"
							           scale="1.000000 1.000000 1.000000"
							           rotation="0.000000 1.000000 0.000000 0.000000"
							           >
								<Group DEF="group_ME_Cube_001">
									<Shape>
										<Appearance>
											<Material USE="MA_Body" />
										</Appearance>
										<IndexedTriangleSet solid="false"
										                    normalPerVertex="true"
										                    index="0 1 2 0 2 3 4 5 6 4 6 7 8 9 10 8 10 11 12 13 14 12 14 15 4 16 17 4 17 15 18 5 14 18 14 19 "
										                    >
											<Coordinate point="-0.000000 -0.060294 0.103742 0.122602 -0.060294 0.103742 0.122602 0.060294 0.103742 -0.000000 0.060294 0.103742 -0.000000 0.060294 0.103742 0.122602 0.060294 0.103742 0.122602 0.060294 -0.103742 0.000000 0.060294 -0.103742 0.000000 0.060294 -0.103742 0.122602 0.060294 -0.103742 0.122602 -0.060294 -0.103742 0.000000 -0.060294 -0.103742 0.000000 -0.060294 -0.103742 0.122602 -0.060294 -0.103742 0.122602 -0.060294 0.103742 -0.000000 -0.060294 0.103742 0.000000 0.060294 -0.103742 0.000000 -0.060294 -0.103742 0.122602 0.060294 -0.103742 0.122602 -0.060294 -0.103742 " />
											<Normal vector="-0.577349 -0.577349 0.577349 0.577349 -0.577349 0.577349 0.577349 0.577349 0.577349 -0.577349 0.577349 0.577349 -0.577349 0.577349 0.577349 0.577349 0.577349 0.577349 0.577349 0.577349 -0.577349 -0.577349 0.577349 -0.577349 -0.577349 0.577349 -0.577349 0.577349 0.577349 -0.577349 0.577349 -0.577349 -0.577349 -0.577349 -0.577349 -0.577349 -0.577349 -0.577349 -0.577349 0.577349 -0.577349 -0.577349 0.577349 -0.577349 0.577349 -0.577349 -0.577349 0.577349 -0.577349 0.577349 -0.577349 -0.577349 -0.577349 -0.577349 0.577349 0.577349 -0.577349 0.577349 -0.577349 -0.577349 " />
											<TextureCoordinate point="0.0000 0.0000 1.0000 0.0000 1.0000 1.0000 0.0000 1.0000 0.0000 0.0000 1.0000 0.0000 1.0000 1.0000 0.0000 1.0000 0.0000 0.0000 1.0000 0.0000 1.0000 1.0000 0.0000 1.0000 0.0000 0.0000 1.0000 0.0000 1.0000 1.0000 0.0000 1.0000 1.0000 0.0000 1.0000 1.0000 0.0000 0.0000 0.0000 1.0000 " />
										</IndexedTriangleSet>
									</Shape>
								</Group>
							</Transform>
						</Transform>
					</Transform>
				</Transform>
			</Transform>
			<Transform DEF="Cube_006_TRANSFORM"
			           translation="0.259399 0.000000 0.125690"
			           scale="1.000000 1.000000 1.000000"
			           rotation="0.000000 1.000000 0.000000 0.000000"
			           >
				<Transform DEF="Cube_006_ifs_TRANSFORM"
				           translation="0.000000 0.000000 0.000000"
				           scale="1.000000 1.000000 1.000000"
				           rotation="0.000000 1.000000 0.000000 0.000000"
				           >
					<Group DEF="group_ME_Cube_009">
						<Shape>
							<Appearance>
								<Material USE="MA_Body" />
							</Appearance>
							<IndexedTriangleSet solid="false"
							                    normalPerVertex="true"
							                    index="0 1 2 0 2 3 4 5 6 4 6 7 8 9 10 8 10 11 12 13 14 12 14 15 4 16 17 4 17 15 18 5 14 18 14 19 "
							                    >
								<Coordinate point="0.034659 -0.054501 0.048496 0.279573 -0.054501 -0.126537 0.279573 0.054501 -0.126537 0.034659 0.054501 0.048496 0.034659 0.054501 0.048496 0.279573 0.054501 -0.126537 0.210255 0.054501 -0.223529 -0.034659 0.054501 -0.048496 -0.034659 0.054501 -0.048496 0.210255 0.054501 -0.223529 0.210255 -0.054501 -0.223529 -0.034659 -0.054501 -0.048496 -0.034659 -0.054501 -0.048496 0.210255 -0.054501 -0.223529 0.279573 -0.054501 -0.126537 0.034659 -0.054501 0.048496 -0.034659 0.054501 -0.048496 -0.034659 -0.054501 -0.048496 0.210255 0.054501 -0.223529 0.210255 -0.054501 -0.223529 " />
								<Normal vector="-0.134007 -0.577349 0.805414 0.805414 -0.577349 0.134007 0.805414 0.577349 0.134007 -0.134007 0.577349 0.805414 -0.134007 0.577349 0.805414 0.805414 0.577349 0.134007 0.134007 0.577349 -0.805414 -0.805414 0.577349 -0.134007 -0.805414 0.577349 -0.134007 0.134007 0.577349 -0.805414 0.134007 -0.577349 -0.805414 -0.805414 -0.577349 -0.134007 -0.805414 -0.577349 -0.134007 0.134007 -0.577349 -0.805414 0.805414 -0.577349 0.134007 -0.134007 -0.577349 0.805414 -0.805414 0.577349 -0.134007 -0.805414 -0.577349 -0.134007 0.134007 0.577349 -0.805414 0.134007 -0.577349 -0.805414 " />
								<TextureCoordinate point="0.0000 0.0000 1.0000 0.0000 1.0000 1.0000 0.0000 1.0000 0.0000 0.0000 1.0000 0.0000 1.0000 1.0000 0.0000 1.0000 0.0000 0.0000 1.0000 0.0000 1.0000 1.0000 0.0000 1.0000 0.0000 0.0000 1.0000 0.0000 1.0000 1.0000 0.0000 1.0000 1.0000 0.0000 1.0000 1.0000 0.0000 0.0000 0.0000 1.0000 " />
							</IndexedTriangleSet>
						</Shape>
					</Group>
				</Transform>
				<Transform DEF="Cube_007_TRANSFORM"
				           translation="0.173643 0.000000 -0.164829"
				           scale="1.000000 1.000000 1.000000"
				           rotation="0.000000 1.000000 0.000000 0.000000"
				           >
					<Transform DEF="Cube_007_ifs_TRANSFORM"
					           translation="0.000000 0.000000 0.000000"
					           scale="1.000000 1.000000 1.000000"
					           rotation="0.000000 1.000000 0.000000 0.000000"
					           >
						<Group DEF="group_ME_Cube_010">
							<Shape>
								<Appearance>
									<Material USE="MA_Body" />
								</Appearance>
								<IndexedTriangleSet solid="false"
								                    normalPerVertex="true"
								                    index="0 1 2 0 2 3 4 5 6 4 6 7 8 9 10 8 10 11 12 13 14 12 14 15 4 16 17 4 17 15 18 5 14 18 14 19 "
								                    >
									<Coordinate point="0.042619 -0.057257 -0.041674 -0.117288 -0.057257 -0.205206 -0.117288 0.057257 -0.205206 0.042619 0.057257 -0.041674 0.042619 0.057257 -0.041674 -0.117288 0.057257 -0.205206 -0.202526 0.057257 -0.121857 -0.042619 0.057257 0.041674 -0.042619 0.057257 0.041674 -0.202526 0.057257 -0.121857 -0.202526 -0.057257 -0.121857 -0.042619 -0.057257 0.041674 -0.042619 -0.057257 0.041674 -0.202526 -0.057257 -0.121857 -0.117288 -0.057257 -0.205206 0.042619 -0.057257 -0.041674 -0.042619 0.057257 0.041674 -0.042619 -0.057257 0.041674 -0.202526 0.057257 -0.121857 -0.202526 -0.057257 -0.121857 " />
									<Normal vector="0.816431 -0.577349 0.009125 0.009125 -0.577349 -0.816431 0.009125 0.577349 -0.816431 0.816431 0.577349 0.009125 0.816431 0.577349 0.009125 0.009125 0.577349 -0.816431 -0.816431 0.577349 -0.009125 -0.009125 0.577349 0.816431 -0.009125 0.577349 0.816431 -0.816431 0.577349 -0.009125 -0.816431 -0.577349 -0.009125 -0.009125 -0.577349 0.816431 -0.009125 -0.577349 0.816431 -0.816431 -0.577349 -0.009125 0.009125 -0.577349 -0.816431 0.816431 -0.577349 0.009125 -0.009125 0.577349 0.816431 -0.009125 -0.577349 0.816431 -0.816431 0.577349 -0.009125 -0.816431 -0.577349 -0.009125 " />
									<TextureCoordinate point="0.0000 0.0000 1.0000 0.0000 1.0000 1.0000 0.0000 1.0000 0.0000 0.0000 1.0000 0.0000 1.0000 1.0000 0.0000 1.0000 0.0000 0.0000 1.0000 0.0000 1.0000 1.0000 0.0000 1.0000 0.0000 0.0000 1.0000 0.0000 1.0000 1.0000 0.0000 1.0000 1.0000 0.0000 1.0000 1.0000 0.0000 0.0000 0.0000 1.0000 " />
								</IndexedTriangleSet>
							</Shape>
						</Group>
					</Transform>
					<Transform DEF="Cube_008_TRANSFORM"
					           translation="-0.143942 0.000000 -0.140577"
					           scale="1.000000 1.000000 1.000000"
					           rotation="0.000000 1.000000 0.000000 0.000000"
					           >
						<Transform DEF="Cube_008_ifs_TRANSFORM"
						           translation="0.000000 0.000000 0.000000"
						           scale="1.000000 1.000000 1.000000"
						           rotation="0.000000 1.000000 0.000000 0.000000"
						           >
							<Group DEF="group_ME_Cube_011">
								<Shape>
									<Appearance>
										<Material USE="MA_Body" />
									</Appearance>
									<IndexedTriangleSet solid="false"
									                    normalPerVertex="true"
									                    index="0 1 2 0 2 3 4 5 6 4 6 7 8 9 10 8 10 11 12 13 14 12 14 15 4 16 17 4 17 15 18 5 14 18 14 19 "
									                    >
										<Coordinate point="0.020013 -0.053003 -0.056148 -0.227795 -0.053003 -0.144474 -0.227795 0.053003 -0.144474 0.020013 0.053003 -0.056148 0.020013 0.053003 -0.056148 -0.227795 0.053003 -0.144474 -0.267820 0.053003 -0.032178 -0.020013 0.053003 0.056148 -0.020013 0.053003 0.056148 -0.267820 0.053003 -0.032178 -0.267820 -0.053003 -0.032178 -0.020013 -0.053003 0.056148 -0.020013 -0.053003 0.056148 -0.267820 -0.053003 -0.032178 -0.227795 -0.053003 -0.144474 0.020013 -0.053003 -0.056148 -0.020013 0.053003 0.056148 -0.020013 -0.053003 0.056148 -0.267820 0.053003 -0.032178 -0.267820 -0.053003 -0.032178 " />
										<Normal vector="0.737663 -0.577349 -0.349986 -0.349986 -0.577349 -0.737663 -0.349986 0.577349 -0.737663 0.737663 0.577349 -0.349986 0.737663 0.577349 -0.349986 -0.349986 0.577349 -0.737663 -0.737663 0.577349 0.349986 0.349986 0.577349 0.737663 0.349986 0.577349 0.737663 -0.737663 0.577349 0.349986 -0.737663 -0.577349 0.349986 0.349986 -0.577349 0.737663 0.349986 -0.577349 0.737663 -0.737663 -0.577349 0.349986 -0.349986 -0.577349 -0.737663 0.737663 -0.577349 -0.349986 0.349986 0.577349 0.737663 0.349986 -0.577349 0.737663 -0.737663 0.577349 0.349986 -0.737663 -0.577349 0.349986 " />
										<TextureCoordinate point="0.0000 0.0000 1.0000 0.0000 1.0000 1.0000 0.0000 1.0000 0.0000 0.0000 1.0000 0.0000 1.0000 1.0000 0.0000 1.0000 0.0000 0.0000 1.0000 0.0000 1.0000 1.0000 0.0000 1.0000 0.0000 0.0000 1.0000 0.0000 1.0000 1.0000 0.0000 1.0000 1.0000 0.0000 1.0000 1.0000 0.0000 0.0000 0.0000 1.0000 " />
									</IndexedTriangleSet>
								</Shape>
							</Group>
						</Transform>
						<Transform DEF="Cube_005_TRANSFORM"
						           translation="-0.227167 0.000000 -0.101924"
						           scale="1.000000 1.000000 1.000000"
						           rotation="0.000000 1.000000 0.000000 0.000000"
						           >
							<Transform DEF="Cube_005_ifs_TRANSFORM"
							           translation="0.000000 0.000000 0.000000"
							           scale="1.000000 1.000000 1.000000"
							           rotation="0.000000 1.000000 0.000000 0.000000"
							           >
								<Group DEF="group_ME_Cube_008">
									<Shape>
										<Appearance>
											<Material USE="MA_Body" />
										</Appearance>
										<IndexedTriangleSet solid="false"
										                    normalPerVertex="true"
										                    index="0 1 2 0 2 3 4 5 6 4 6 7 8 9 10 8 10 11 12 13 14 12 14 15 4 16 17 4 17 15 18 5 14 18 14 19 "
										                    >
											<Coordinate point="0.000000 -0.060294 -0.103742 -0.122602 -0.060294 -0.103742 -0.122602 0.060294 -0.103742 0.000000 0.060294 -0.103742 0.000000 0.060294 -0.103742 -0.122602 0.060294 -0.103742 -0.122602 0.060294 0.103742 -0.000000 0.060294 0.103742 -0.000000 0.060294 0.103742 -0.122602 0.060294 0.103742 -0.122602 -0.060294 0.103742 -0.000000 -0.060294 0.103742 -0.000000 -0.060294 0.103742 -0.122602 -0.060294 0.103742 -0.122602 -0.060294 -0.103742 0.000000 -0.060294 -0.103742 -0.000000 0.060294 0.103742 -0.000000 -0.060294 0.103742 -0.122602 0.060294 0.103742 -0.122602 -0.060294 0.103742 " />
											<Normal vector="0.577349 -0.577349 -0.577349 -0.577349 -0.577349 -0.577349 -0.577349 0.577349 -0.577349 0.577349 0.577349 -0.577349 0.577349 0.577349 -0.577349 -0.577349 0.577349 -0.577349 -0.577349 0.577349 0.577349 0.577349 0.577349 0.577349 0.577349 0.577349 0.577349 -0.577349 0.577349 0.577349 -0.577349 -0.577349 0.577349 0.577349 -0.577349 0.577349 0.577349 -0.577349 0.577349 -0.577349 -0.577349 0.577349 -0.577349 -0.577349 -0.577349 0.577349 -0.577349 -0.577349 0.577349 0.577349 0.577349 0.577349 -0.577349 0.577349 -0.577349 0.577349 0.577349 -0.577349 -0.577349 0.577349 " />
											<TextureCoordinate point="0.0000 0.0000 1.0000 0.0000 1.0000 1.0000 0.0000 1.0000 0.0000 0.0000 1.0000 0.0000 1.0000 1.0000 0.0000 1.0000 0.0000 0.0000 1.0000 0.0000 1.0000 1.0000 0.0000 1.0000 0.0000 0.0000 1.0000 0.0000 1.0000 1.0000 0.0000 1.0000 1.0000 0.0000 1.0000 1.0000 0.0000 0.0000 0.0000 1.0000 " />
										</IndexedTriangleSet>
									</Shape>
								</Group>
							</Transform>
						</Transform>
					</Transform>
				</Transform>
			</Transform>
		</Transform>
	</Scene>
</X3D>