<?xml version="1.0" encoding="UTF-8"?>
<!DOCTYPE X3D PUBLIC "ISO//Web3D//DTD X3D 3.0//EN" "http://www.web3d.org/specifications/x3d-3.0.dtd">
<X3D version="3.0" profile="Immersive" xmlns:xsd="http://www.w3.org/2001/XMLSchema-instance" xsd:noNamespaceSchemaLocation="http://www.web3d.org/specifications/x3d-3.0.xsd">
	<head>
		<meta name="filename" content="unow_f.x3d" />
		<meta name="generator" content="Blender 2.93.18" />
	</head>
	<Scene>
		<NavigationInfo headlight="true"
		                visibilityLimit="0.0"
		                type='"EXAMINE", "ANY"'
		                avatarSize="0.25, 1.75, 0.75"
		                />
		<Background DEF="WO_World"
		            groundColor="0.051 0.051 0.051"
		            skyColor="0.051 0.051 0.051"
		            />
		<Transform DEF="body_TRANSFORM"
		           translation="0.000000 0.000000 0.458612"
		           scale="1.000000 1.000000 1.000000"
		           rotation="0.000000 0.000000 1.000000 3.141593"
		           >
			<Transform DEF="body_ifs_TRANSFORM"
			           translation="0.000000 0.000000 0.000000"
			           scale="1.000000 1.000000 1.000000"
			           rotation="0.000000 1.000000 0.000000 0.000000"
			           >
				<Group DEF="group_ME_body">
					<Shape>
						<Appearance>
							<Material DEF="MA_Body"
							          diffuseColor="0.800 0.800 0.800"
							          specularColor="0.401 0.401 0.401"
							          emissiveColor="0.000 0.000 0.000"
							          ambientIntensity="0.000"
							          shininess="0.500"
							          transparency="0.0"
							          />
						</Appearance>
						<IndexedTriangleSet solid="false"
						                    normalPerVertex="true"
						                    index="0 1 2 0 2 3 4 5 6 4 6 7 8 9 10 8 10 11 4 12 13 4 13 14 15 5 16 15 16 17 "
						                    >
							<Coordinate point="-0.317941 -0.106747 0.000000 -0.317941 -0.106747 0.585070 -0.317941 0.106747 0.585070 -0.317941 0.106747 0.000000 -0.317941 0.106747 0.000000 -0.317941 0.106747 0.585070 0.317941 0.106747 0.585070 0.317941 0.106747 0.000000 0.317941 0.106747 0.000000 0.317941 0.106747 0.585070 0.317941 -0.106747 0.585070 0.317941 -0.106747 0.000000 0.317941 0.106747 0.000000 0.317941 -0.106747 0.000000 -0.317941 -0.106747 0.000000 0.317941 0.106747 0.585070 -0.317941 -0.106747 0.585070 0.317941 -0.106747 0.585070 " />
							<Normal vector="-0.577349 -0.577349 -0.577349 -0.577349 -0.577349 0.577349 -0.577349 0.577349 0.577349 -0.577349 0.577349 -0.577349 -0.577349 0.577349 -0.577349 -0.577349 0.577349 0.577349 0.577349 0.577349 0.577349 0.577349 0.577349 -0.577349 0.577349 0.577349 -0.577349 0.577349 0.577349 0.577349 0.577349 -0.577349 0.577349 0.577349 -0.577349 -0.577349 0.577349 0.577349 -0.577349 0.577349 -0.577349 -0.577349 -0.577349 -0.577349 -0.577349 0.577349 0.577349 0.577349 -0.577349 -0.577349 0.577349 0.577349 -0.577349 0.577349 " />
							<TextureCoordinate point="0.0000 0.0000 1.0000 0.0000 1.0000 1.0000 0.0000 1.0000 0.0000 0.0000 1.0000 0.0000 1.0000 1.0000 0.0000 1.0000 0.0000 0.0000 1.0000 0.0000 1.0000 1.0000 0.0000 1.0000 1.0000 0.0000 1.0000 1.0000 0.0000 1.0000 0.0000 0.0000 1.0000 1.0000 0.0000 1.0000 " />
						</IndexedTriangleSet>
					</Shape>
					<Shape>
						<Appearance>
							<Material DEF="MA_Eye"
							          diffuseColor="0.800 0.800 0.800"
							          specularColor="0.401 0.401 0.401"
							          emissiveColor="0.000 0.000 0.000"
							          ambientIntensity="0.000"
							          shininess="0.500"
							          transparency="0.0"
							          />
						</Appearance>
						<IndexedTriangleSet solid="false"
						                    normalPerVertex="true"
						                    index="0 1 2 0 2 3 "
						                    >
							<Coordinate point="0.317941 -0.106747 0.000000 0.317941 -0.106747 0.585070 -0.317941 -0.106747 0.585070 -0.317941 -0.106747 0.000000 " />
							<Normal vector="0.577349 -0.577349 -0.577349 0.577349 -0.577349 0.577349 -0.577349 -0.577349 0.577349 -0.577349 -0.577349 -0.577349 " />
							<TextureCoordinate point="0.9606 0.5189 0.9606 0.9795 0.0394 0.9795 0.0394 0.5189 " />
						</IndexedTriangleSet>
					</Shape>
				</Group>
			</Transform>
			<Transform DEF="Cube_001_TRANSFORM"
			           translation="0.000000 0.000000 0.022121"
			           scale="1.000000 1.000000 1.000000"
			           rotation="0.000000 1.000000 0.000000 0.000000"
			           >
				<Transform DEF="Cube_001_ifs_TRANSFORM"
				           translation="0.000000 0.000000 0.000000"
				           scale="1.000000 1.000000 1.000000"
				           rotation="0.000000 1.000000 0.000000 0.000000"
				           >
					<Group DEF="group_ME_Cube_001">
						<Shape>
							<Appearance>
								<Material USE="MA_Body" />
							</Appearance>
							<IndexedTriangleSet solid="false"
							                    normalPerVertex="true"
							                    index="0 1 2 0 2 3 4 5 6 4 6 7 8 9 10 8 10 11 12 13 14 12 14 15 4 16 17 4 17 15 18 5 14 18 14 19 "
							                    >
								<Coordinate point="0.057184 -0.055444 -0.000000 0.057184 -0.055444 -0.430266 0.057184 0.055444 -0.430266 0.057184 0.055444 -0.000000 0.057184 0.055444 -0.000000 0.057184 0.055444 -0.430266 -0.057185 0.055444 -0.430266 -0.057184 0.055444 0.000000 -0.057184 0.055444 0.000000 -0.057185 0.055444 -0.430266 -0.057185 -0.055444 -0.430266 -0.057184 -0.055444 0.000000 -0.057184 -0.055444 0.000000 -0.057185 -0.055444 -0.430266 0.057184 -0.055444 -0.430266 0.057184 -0.055444 -0.000000 -0.057184 0.055444 0.000000 -0.057184 -0.055444 0.000000 -0.057185 0.055444 -0.430266 -0.057185 -0.055444 -0.430266 " />
								<Normal vector="0.577349 -0.577349 0.577349 0.577349 -0.577349 -0.577349 0.577349 0.577349 -0.577349 0.577349 0.577349 0.577349 0.577349 0.577349 0.577349 0.577349 0.577349 -0.577349 -0.577349 0.577349 -0.577349 -0.577349 0.577349 0.577349 -0.577349 0.577349 0.577349 -0.577349 0.577349 -0.577349 -0.577349 -0.577349 -0.577349 -0.577349 -0.577349 0.577349 -0.577349 -0.577349 0.577349 -0.577349 -0.577349 -0.577349 0.577349 -0.577349 -0.577349 0.577349 -0.577349 0.577349 -0.577349 0.577349 0.577349 -0.577349 -0.577349 0.577349 -0.577349 0.577349 -0.577349 -0.577349 -0.577349 -0.577349 " />
								<TextureCoordinate point="0.0000 0.0000 1.0000 0.0000 1.0000 1.0000 0.0000 1.0000 0.0000 0.0000 1.0000 0.0000 1.0000 1.0000 0.0000 1.0000 0.0000 0.0000 1.0000 0.0000 1.0000 1.0000 0.0000 1.0000 0.0000 0.0000 1.0000 0.0000 1.0000 1.0000 0.0000 1.0000 1.0000 0.0000 1.0000 1.0000 0.0000 0.0000 0.0000 1.0000 " />
							</IndexedTriangleSet>
						</Shape>
					</Group>
				</Transform>
			</Transform>
			<Transform DEF="Cube_002_TRANSFORM"
			           translation="0.013584 0.000000 -0.346559"
			           scale="1.000000 1.000000 1.000000"
			           rotation="0.000000 1.000000 0.000000 0.000000"
			           >
				<Transform DEF="Cube_002_ifs_TRANSFORM"
				           translation="0.000000 0.000000 0.000000"
				           scale="1.000000 1.000000 1.000000"
				           rotation="0.000000 1.000000 0.000000 0.000000"
				           >
					<Group DEF="group_ME_Cube_005">
						<Shape>
							<Appearance>
								<Material USE="MA_Body" />
							</Appearance>
							<IndexedTriangleSet solid="false"
							                    normalPerVertex="true"
							                    index="0 1 2 0 2 3 4 5 6 4 6 7 8 9 10 8 10 11 12 13 14 12 14 15 4 16 17 4 17 15 18 5 14 18 14 19 "
							                    >
								<Coordinate point="0.028027 -0.053922 0.053932 0.175557 -0.053922 -0.022734 0.175557 0.053922 -0.022734 0.028027 0.053922 0.053932 0.028027 0.053922 0.053932 0.175557 0.053922 -0.022734 0.119503 0.053922 -0.130599 -0.028027 0.053922 -0.053932 -0.028027 0.053922 -0.053932 0.119503 0.053922 -0.130599 0.119503 -0.053922 -0.130599 -0.028027 -0.053922 -0.053932 -0.028027 -0.053922 -0.053932 0.119503 -0.053922 -0.130599 0.175557 -0.053922 -0.022734 0.028027 -0.053922 0.053932 -0.028027 0.053922 -0.053932 -0.028027 -0.053922 -0.053932 0.119503 0.053922 -0.130599 0.119503 -0.053922 -0.130599 " />
								<Normal vector="-0.246071 -0.577349 0.778527 0.778527 -0.577349 0.246071 0.778527 0.577349 0.246071 -0.246071 0.577349 0.778527 -0.246071 0.577349 0.778527 0.778527 0.577349 0.246071 0.246071 0.577349 -0.778527 -0.778527 0.577349 -0.246071 -0.778527 0.577349 -0.246071 0.246071 0.577349 -0.778527 0.246071 -0.577349 -0.778527 -0.778527 -0.577349 -0.246071 -0.778527 -0.577349 -0.246071 0.246071 -0.577349 -0.778527 0.778527 -0.577349 0.246071 -0.246071 -0.577349 0.778527 -0.778527 0.577349 -0.246071 -0.778527 -0.577349 -0.246071 0.246071 0.577349 -0.778527 0.246071 -0.577349 -0.778527 " />
								<TextureCoordinate point="0.0000 0.0000 1.0000 0.0000 1.0000 1.0000 0.0000 1.0000 0.0000 0.0000 1.0000 0.0000 1.0000 1.0000 0.0000 1.0000 0.0000 0.0000 1.0000 0.0000 1.0000 1.0000 0.0000 1.0000 0.0000 0.0000 1.0000 0.0000 1.0000 1.0000 0.0000 1.0000 1.0000 0.0000 1.0000 1.0000 0.0000 0.0000 0.0000 1.0000 " />
							</IndexedTriangleSet>
						</Shape>
					</Group>
				</Transform>
			</Transform>
			<Transform DEF="Cube_003_TRANSFORM"
			           translation="-0.013345 0.000000 -0.346559"
			           scale="1.000000 1.000000 1.000000"
			           rotation="0.000000 1.000000 0.000000 0.000000"
			           >
				<Transform DEF="Cube_003_ifs_TRANSFORM"
				           translation="0.000000 0.000000 0.000000"
				           scale="1.000000 1.000000 1.000000"
				           rotation="0.000000 1.000000 0.000000 0.000000"
				           >
					<Group DEF="group_ME_Cube_006">
						<Shape>
							<Appearance>
								<Material USE="MA_Body" />
							</Appearance>
							<IndexedTriangleSet solid="false"
							                    normalPerVertex="true"
							                    index="0 1 2 0 2 3 4 5 6 4 6 7 8 9 10 8 10 11 12 13 14 12 14 15 4 13 16 4 16 17 18 19 14 18 14 7 "
							                    >
								<Coordinate point="-0.028027 -0.053922 0.053932 -0.028027 0.053922 0.053932 -0.175557 0.053922 -0.022734 -0.175557 -0.053922 -0.022734 -0.028027 0.053922 0.053932 0.028027 0.053922 -0.053932 -0.119503 0.053922 -0.130598 -0.175557 0.053922 -0.022734 0.028027 0.053922 -0.053932 0.028027 -0.053922 -0.053932 -0.119503 -0.053922 -0.130598 -0.119503 0.053922 -0.130598 0.028027 -0.053922 -0.053932 -0.028027 -0.053922 0.053932 -0.175557 -0.053922 -0.022734 -0.119503 -0.053922 -0.130598 0.028027 -0.053922 -0.053932 0.028027 0.053922 -0.053932 -0.119503 0.053922 -0.130598 -0.119503 -0.053922 -0.130598 " />
								<Normal vector="0.246071 -0.577349 0.778527 0.246071 0.577349 0.778527 -0.778527 0.577349 0.246071 -0.778527 -0.577349 0.246071 0.246071 0.577349 0.778527 0.778527 0.577349 -0.246071 -0.246071 0.577349 -0.778527 -0.778527 0.577349 0.246071 0.778527 0.577349 -0.246071 0.778527 -0.577349 -0.246071 -0.246071 -0.577349 -0.778527 -0.246071 0.577349 -0.778527 0.778527 -0.577349 -0.246071 0.246071 -0.577349 0.778527 -0.778527 -0.577349 0.246071 -0.246071 -0.577349 -0.778527 0.778527 -0.577349 -0.246071 0.778527 0.577349 -0.246071 -0.246071 0.577349 -0.778527 -0.246071 -0.577349 -0.778527 " />
								<TextureCoordinate point="0.0000 0.0000 0.0000 1.0000 1.0000 1.0000 1.0000 0.0000 0.0000 0.0000 0.0000 1.0000 1.0000 1.0000 1.0000 0.0000 0.0000 0.0000 0.0000 1.0000 1.0000 1.0000 1.0000 0.0000 0.0000 0.0000 0.0000 1.0000 1.0000 1.0000 1.0000 0.0000 1.0000 1.0000 1.0000 0.0000 0.0000 0.0000 0.0000 1.0000 " />
							</IndexedTriangleSet>
						</Shape>
					</Group>
				</Transform>
			</Transform>
			<Transform DEF="Cube_004_TRANSFORM"
			           translation="0.291099 0.000000 0.355340"
			           scale="1.000000 1.000000 1.000000"
			           rotation="0.000000 1.000000 0.000000 0.000000"
			           >
				<Transform DEF="Cube_004_ifs_TRANSFORM"
				           translation="0.000000 0.000000 0.000000"
				           scale="1.000000 1.000000 1.000000"
				           rotation="0.000000 1.000000 0.000000 0.000000"
				           >
					<Group DEF="group_ME_Cube_007">
						<Shape>
							<Appearance>
								<Material USE="MA_Body" />
							</Appearance>
							<IndexedTriangleSet solid="false"
							                    normalPerVertex="true"
							                    index="0 1 2 0 2 3 4 5 6 4 6 7 8 9 10 8 10 11 12 13 14 12 14 15 4 16 17 4 17 15 18 5 14 18 14 19 "
							                    >
								<Coordinate point="-0.000000 -0.055444 0.052330 0.470907 -0.055444 0.052330 0.470907 0.055444 0.052330 -0.000000 0.055444 0.052330 -0.000000 0.055444 0.052330 0.470907 0.055444 0.052330 0.470907 0.055444 -0.052330 0.000000 0.055444 -0.052330 0.000000 0.055444 -0.052330 0.470907 0.055444 -0.052330 0.470907 -0.055444 -0.052330 0.000000 -0.055444 -0.052330 0.000000 -0.055444 -0.052330 0.470907 -0.055444 -0.052330 0.470907 -0.055444 0.052330 -0.000000 -0.055444 0.052330 0.000000 0.055444 -0.052330 0.000000 -0.055444 -0.052330 0.470907 0.055444 -0.052330 0.470907 -0.055444 -0.052330 " />
								<Normal vector="-0.577349 -0.577349 0.577349 0.577349 -0.577349 0.577349 0.577349 0.577349 0.577349 -0.577349 0.577349 0.577349 -0.577349 0.577349 0.577349 0.577349 0.577349 0.577349 0.577349 0.577349 -0.577349 -0.577349 0.577349 -0.577349 -0.577349 0.577349 -0.577349 0.577349 0.577349 -0.577349 0.577349 -0.577349 -0.577349 -0.577349 -0.577349 -0.577349 -0.577349 -0.577349 -0.577349 0.577349 -0.577349 -0.577349 0.577349 -0.577349 0.577349 -0.577349 -0.577349 0.577349 -0.577349 0.577349 -0.577349 -0.577349 -0.577349 -0.577349 0.577349 0.577349 -0.577349 0.577349 -0.577349 -0.577349 " />
								<TextureCoordinate point="0.0000 0.0000 1.0000 0.0000 1.0000 1.0000 0.0000 1.0000 0.0000 0.0000 1.0000 0.0000 1.0000 1.0000 0.0000 1.0000 0.0000 0.0000 1.0000 0.0000 1.0000 1.0000 0.0000 1.0000 0.0000 0.0000 1.0000 0.0000 1.0000 1.0000 0.0000 1.0000 1.0000 0.0000 1.0000 1.0000 0.0000 0.0000 0.0000 1.0000 " />
							</IndexedTriangleSet>
						</Shape>
					</Group>
				</Transform>
			</Transform>
			<Transform DEF="Cube_005_TRANSFORM"
			           translation="0.262467 0.000000 0.289121"
			           scale="1.000000 1.000000 1.000000"
			           rotation="0.000000 1.000000 0.000000 0.000000"
			           >
				<Transform DEF="Cube_005_ifs_TRANSFORM"
				           translation="0.000000 0.000000 0.000000"
				           scale="1.000000 1.000000 1.000000"
				           rotation="0.000000 1.000000 0.000000 0.000000"
				           >
					<Group DEF="group_ME_Cube_008">
						<Shape>
							<Appearance>
								<Material USE="MA_Body" />
							</Appearance>
							<IndexedTriangleSet solid="false"
							                    normalPerVertex="true"
							                    index="0 1 2 0 2 3 4 5 6 4 6 7 8 9 10 8 10 11 12 13 14 12 14 15 4 16 17 4 17 15 18 5 14 18 14 19 "
							                    >
								<Coordinate point="0.033672 -0.054449 0.040057 0.280402 -0.054449 -0.167342 0.280402 0.054449 -0.167342 0.033672 0.054449 0.040057 0.033672 0.054449 0.040057 0.280402 0.054449 -0.167342 0.213058 0.054449 -0.247457 -0.033672 0.054449 -0.040057 -0.033672 0.054449 -0.040057 0.213058 0.054449 -0.247457 0.213058 -0.054449 -0.247457 -0.033672 -0.054449 -0.040057 -0.033672 -0.054449 -0.040057 0.213058 -0.054449 -0.247457 0.280402 -0.054449 -0.167342 0.033672 -0.054449 0.040057 -0.033672 0.054449 -0.040057 -0.033672 -0.054449 -0.040057 0.213058 0.054449 -0.247457 0.213058 -0.054449 -0.247457 " />
								<Normal vector="-0.070437 -0.577349 0.813440 0.813440 -0.577349 0.070437 0.813440 0.577349 0.070437 -0.070437 0.577349 0.813440 -0.070437 0.577349 0.813440 0.813440 0.577349 0.070437 0.070437 0.577349 -0.813440 -0.813440 0.577349 -0.070437 -0.813440 0.577349 -0.070437 0.070437 0.577349 -0.813440 0.070437 -0.577349 -0.813440 -0.813440 -0.577349 -0.070437 -0.813440 -0.577349 -0.070437 0.070437 -0.577349 -0.813440 0.813440 -0.577349 0.070437 -0.070437 -0.577349 0.813440 -0.813440 0.577349 -0.070437 -0.813440 -0.577349 -0.070437 0.070437 0.577349 -0.813440 0.070437 -0.577349 -0.813440 " />
								<TextureCoordinate point="0.0000 0.0000 1.0000 0.0000 1.0000 1.0000 0.0000 1.0000 0.0000 0.0000 1.0000 0.0000 1.0000 1.0000 0.0000 1.0000 0.0000 0.0000 1.0000 0.0000 1.0000 1.0000 0.0000 1.0000 0.0000 0.0000 1.0000 0.0000 1.0000 1.0000 0.0000 1.0000 1.0000 0.0000 1.0000 1.0000 0.0000 0.0000 0.0000 1.0000 " />
							</IndexedTriangleSet>
						</Shape>
					</Group>
				</Transform>
			</Transform>
			<Transform DEF="Cube_006_TRANSFORM"
			           translation="0.448340 0.000000 0.077402"
			           scale="1.000000 1.000000 1.000000"
			           rotation="0.000000 1.000000 0.000000 0.000000"
			           >
				<Transform DEF="Cube_006_ifs_TRANSFORM"
				           translation="0.000000 0.000000 0.000000"
				           scale="1.000000 1.000000 1.000000"
				           rotation="0.000000 1.000000 0.000000 0.000000"
				           >
					<Group DEF="group_ME_Cube_009">
						<Shape>
							<Appearance>
								<Material USE="MA_Body" />
							</Appearance>
							<IndexedTriangleSet solid="false"
							                    normalPerVertex="true"
							                    index="0 1 2 0 2 3 4 5 6 4 6 7 8 9 10 8 10 11 12 13 14 12 14 15 4 16 17 4 17 15 18 5 14 18 14 19 "
							                    >
								<Coordinate point="-0.035810 -0.051649 0.038158 0.237700 -0.051649 0.294834 0.237700 0.051649 0.294834 -0.035810 0.051649 0.038158 -0.035810 0.051649 0.038158 0.237700 0.051649 0.294834 0.309320 0.051649 0.218518 0.035810 0.051649 -0.038158 0.035810 0.051649 -0.038158 0.309320 0.051649 0.218518 0.309320 -0.051649 0.218518 0.035810 -0.051649 -0.038158 0.035810 -0.051649 -0.038158 0.309320 -0.051649 0.218518 0.237700 -0.051649 0.294834 -0.035810 -0.051649 0.038158 0.035810 0.051649 -0.038158 0.035810 -0.051649 -0.038158 0.309320 0.051649 0.218518 0.309320 -0.051649 0.218518 " />
								<Normal vector="-0.816065 -0.577349 0.025910 0.025910 -0.577349 0.816065 0.025910 0.577349 0.816065 -0.816065 0.577349 0.025910 -0.816065 0.577349 0.025910 0.025910 0.577349 0.816065 0.816065 0.577349 -0.025910 -0.025910 0.577349 -0.816065 -0.025910 0.577349 -0.816065 0.816065 0.577349 -0.025910 0.816065 -0.577349 -0.025910 -0.025910 -0.577349 -0.816065 -0.025910 -0.577349 -0.816065 0.816065 -0.577349 -0.025910 0.025910 -0.577349 0.816065 -0.816065 -0.577349 0.025910 -0.025910 0.577349 -0.816065 -0.025910 -0.577349 -0.816065 0.816065 0.577349 -0.025910 0.816065 -0.577349 -0.025910 " />
								<TextureCoordinate point="0.0000 0.0000 1.0000 0.0000 1.0000 1.0000 0.0000 1.0000 0.0000 0.0000 1.0000 0.0000 1.0000 1.0000 0.0000 1.0000 0.0000 0.0000 1.0000 0.0000 1.0000 1.0000 0.0000 1.0000 0.0000 0.0000 1.0000 0.0000 1.0000 1.0000 0.0000 1.0000 1.0000 0.0000 1.0000 1.0000 0.0000 0.0000 0.0000 1.0000 " />
							</IndexedTriangleSet>
						</Shape>
					</Group>
				</Transform>
			</Transform>
			<Transform DEF="Cube_007_TRANSFORM"
			           translation="0.049710 0.000000 -0.132711"
			           scale="1.000000 1.000000 1.000000"
			           rotation="0.000000 1.000000 0.000000 0.000000"
			           >
				<Transform DEF="Cube_007_ifs_TRANSFORM"
				           translation="0.000000 0.000000 0.000000"
				           scale="1.000000 1.000000 1.000000"
				           rotation="0.000000 1.000000 0.000000 0.000000"
				           >
					<Group DEF="group_ME_Cube_010">
						<Shape>
							<Appearance>
								<Material USE="MA_Body" />
							</Appearance>
							<IndexedTriangleSet solid="false"
							                    normalPerVertex="true"
							                    index="0 1 2 0 2 3 4 5 6 4 6 7 8 9 10 8 10 11 12 13 14 12 14 15 4 16 17 4 17 15 18 5 14 18 14 19 "
							                    >
								<Coordinate point="-0.000000 -0.051927 0.053557 0.171146 -0.051927 0.053557 0.171146 0.051927 0.053557 -0.000000 0.051927 0.053557 -0.000000 0.051927 0.053557 0.171146 0.051927 0.053557 0.171146 0.051927 -0.053557 0.000000 0.051927 -0.053557 0.000000 0.051927 -0.053557 0.171146 0.051927 -0.053557 0.171146 -0.051927 -0.053557 0.000000 -0.051927 -0.053557 0.000000 -0.051927 -0.053557 0.171146 -0.051927 -0.053557 0.171146 -0.051927 0.053557 -0.000000 -0.051927 0.053557 0.000000 0.051927 -0.053557 0.000000 -0.051927 -0.053557 0.171146 0.051927 -0.053557 0.171146 -0.051927 -0.053557 " />
								<Normal vector="-0.577349 -0.577349 0.577349 0.577349 -0.577349 0.577349 0.577349 0.577349 0.577349 -0.577349 0.577349 0.577349 -0.577349 0.577349 0.577349 0.577349 0.577349 0.577349 0.577349 0.577349 -0.577349 -0.577349 0.577349 -0.577349 -0.577349 0.577349 -0.577349 0.577349 0.577349 -0.577349 0.577349 -0.577349 -0.577349 -0.577349 -0.577349 -0.577349 -0.577349 -0.577349 -0.577349 0.577349 -0.577349 -0.577349 0.577349 -0.577349 0.577349 -0.577349 -0.577349 0.577349 -0.577349 0.577349 -0.577349 -0.577349 -0.577349 -0.577349 0.577349 0.577349 -0.577349 0.577349 -0.577349 -0.577349 " />
								<TextureCoordinate point="0.0000 0.0000 1.0000 0.0000 1.0000 1.0000 0.0000 1.0000 0.0000 0.0000 1.0000 0.0000 1.0000 1.0000 0.0000 1.0000 0.0000 0.0000 1.0000 0.0000 1.0000 1.0000 0.0000 1.0000 0.0000 0.0000 1.0000 0.0000 1.0000 1.0000 0.0000 1.0000 1.0000 0.0000 1.0000 1.0000 0.0000 0.0000 0.0000 1.0000 " />
							</IndexedTriangleSet>
						</Shape>
					</Group>
				</Transform>
			</Transform>
		</Transform>
	</Scene>
</X3D>