<?xml version="1.0" encoding="UTF-8"?>
<!DOCTYPE X3D PUBLIC "ISO//Web3D//DTD X3D 3.0//EN" "http://www.web3d.org/specifications/x3d-3.0.dtd">
<X3D version="3.0" profile="Immersive" xmlns:xsd="http://www.w3.org/2001/XMLSchema-instance" xsd:noNamespaceSchemaLocation="http://www.web3d.org/specifications/x3d-3.0.xsd">
	<head>
		<meta name="filename" content="unow_g.x3d" />
		<meta name="generator" content="Blender 2.93.18" />
	</head>
	<Scene>
		<NavigationInfo headlight="true"
		                visibilityLimit="0.0"
		                type='"EXAMINE", "ANY"'
		                avatarSize="0.25, 1.75, 0.75"
		                />
		<Background DEF="WO_World"
		            groundColor="0.051 0.051 0.051"
		            skyColor="0.051 0.051 0.051"
		            />
		<Transform DEF="body_TRANSFORM"
		           translation="0.000000 0.000000 0.505570"
		           scale="1.000000 1.000000 1.000000"
		           rotation="0.000000 0.000000 1.000000 3.141593"
		           >
			<Transform DEF="body_ifs_TRANSFORM"
			           translation="0.000000 0.000000 0.000000"
			           scale="1.000000 1.000000 1.000000"
			           rotation="0.000000 1.000000 0.000000 0.000000"
			           >
				<Group DEF="group_ME_body">
					<Shape>
						<Appearance>
							<Material DEF="MA_Body"
							          diffuseColor="0.800 0.800 0.800"
							          specularColor="0.401 0.401 0.401"
							          emissiveColor="0.000 0.000 0.000"
							          ambientIntensity="0.000"
							          shininess="0.500"
							          transparency="0.0"
							          />
						</Appearance>
						<IndexedTriangleSet solid="false"
						                    normalPerVertex="true"
						                    index="0 1 2 0 2 3 4 5 6 4 6 7 8 9 10 8 10 11 4 12 13 4 13 14 15 5 16 15 16 17 "
						                    >
							<Coordinate point="-0.317941 -0.106747 0.000000 -0.317941 -0.106747 0.585070 -0.317941 0.106747 0.585070 -0.317941 0.106747 0.000000 -0.317941 0.106747 0.000000 -0.317941 0.106747 0.585070 0.317941 0.106747 0.585070 0.317941 0.106747 0.000000 0.317941 0.106747 0.000000 0.317941 0.106747 0.585070 0.317941 -0.106747 0.585070 0.317941 -0.106747 0.000000 0.317941 0.106747 0.000000 0.317941 -0.106747 0.000000 -0.317941 -0.106747 0.000000 0.317941 0.106747 0.585070 -0.317941 -0.106747 0.585070 0.317941 -0.106747 0.585070 " />
							<Normal vector="-0.577349 -0.577349 -0.577349 -0.577349 -0.577349 0.577349 -0.577349 0.577349 0.577349 -0.577349 0.577349 -0.577349 -0.577349 0.577349 -0.577349 -0.577349 0.577349 0.577349 0.577349 0.577349 0.577349 0.577349 0.577349 -0.577349 0.577349 0.577349 -0.577349 0.577349 0.577349 0.577349 0.577349 -0.577349 0.577349 0.577349 -0.577349 -0.577349 0.577349 0.577349 -0.577349 0.577349 -0.577349 -0.577349 -0.577349 -0.577349 -0.577349 0.577349 0.577349 0.577349 -0.577349 -0.577349 0.577349 0.577349 -0.577349 0.577349 " />
							<TextureCoordinate point="0.0000 0.0000 1.0000 0.0000 1.0000 1.0000 0.0000 1.0000 0.0000 0.0000 1.0000 0.0000 1.0000 1.0000 0.0000 1.0000 0.0000 0.0000 1.0000 0.0000 1.0000 1.0000 0.0000 1.0000 1.0000 0.0000 1.0000 1.0000 0.0000 1.0000 0.0000 0.0000 1.0000 1.0000 0.0000 1.0000 " />
						</IndexedTriangleSet>
					</Shape>
					<Shape>
						<Appearance>
							<Material DEF="MA_Eye"
							          diffuseColor="0.800 0.800 0.800"
							          specularColor="0.401 0.401 0.401"
							          emissiveColor="0.000 0.000 0.000"
							          ambientIntensity="0.000"
							          shininess="0.500"
							          transparency="0.0"
							          />
						</Appearance>
						<IndexedTriangleSet solid="false"
						                    normalPerVertex="true"
						                    index="0 1 2 0 2 3 "
						                    >
							<Coordinate point="0.317941 -0.106747 0.000000 0.317941 -0.106747 0.585070 -0.317941 -0.106747 0.585070 -0.317941 -0.106747 0.000000 " />
							<Normal vector="0.577349 -0.577349 -0.577349 0.577349 -0.577349 0.577349 -0.577349 -0.577349 0.577349 -0.577349 -0.577349 -0.577349 " />
							<TextureCoordinate point="0.9606 0.5189 0.9606 0.9795 0.0394 0.9795 0.0394 0.5189 " />
						</IndexedTriangleSet>
					</Shape>
				</Group>
			</Transform>
			<Transform DEF="Cube_001_TRANSFORM"
			           translation="0.000000 0.000000 0.808368"
			           scale="1.000000 1.000000 1.000000"
			           rotation="0.000000 1.000000 0.000000 0.000000"
			           >
				<Transform DEF="Cube_001_ifs_TRANSFORM"
				           translation="0.000000 0.000000 0.000000"
				           scale="1.000000 1.000000 1.000000"
				           rotation="0.000000 1.000000 0.000000 0.000000"
				           >
					<Group DEF="group_ME_Cube_001">
						<Shape>
							<Appearance>
								<Material USE="MA_Body" />
							</Appearance>
							<IndexedTriangleSet solid="false"
							                    normalPerVertex="true"
							                    index="0 1 2 0 2 3 4 5 6 4 6 7 8 9 10 8 10 11 12 13 14 12 14 15 4 16 17 4 17 15 18 5 14 18 14 19 "
							                    >
								<Coordinate point="-0.370363 -0.068323 0.000000 -0.370363 -0.068323 0.124676 -0.370363 0.068323 0.124676 -0.370363 0.068323 0.000000 -0.370363 0.068323 0.000000 -0.370363 0.068323 0.124676 0.370363 0.068323 0.124676 0.370363 0.068323 0.000000 0.370363 0.068323 0.000000 0.370363 0.068323 0.124676 0.370363 -0.068323 0.124676 0.370363 -0.068323 0.000000 0.370363 -0.068323 0.000000 0.370363 -0.068323 0.124676 -0.370363 -0.068323 0.124676 -0.370363 -0.068323 0.000000 0.370363 0.068323 0.000000 0.370363 -0.068323 0.000000 0.370363 0.068323 0.124676 0.370363 -0.068323 0.124676 " />
								<Normal vector="-0.577349 -0.577349 -0.577349 -0.577349 -0.577349 0.577349 -0.577349 0.577349 0.577349 -0.577349 0.577349 -0.577349 -0.577349 0.577349 -0.577349 -0.577349 0.577349 0.577349 0.577349 0.577349 0.577349 0.577349 0.577349 -0.577349 0.577349 0.577349 -0.577349 0.577349 0.577349 0.577349 0.577349 -0.577349 0.577349 0.577349 -0.577349 -0.577349 0.577349 -0.577349 -0.577349 0.577349 -0.577349 0.577349 -0.577349 -0.577349 0.577349 -0.577349 -0.577349 -0.577349 0.577349 0.577349 -0.577349 0.577349 -0.577349 -0.577349 0.577349 0.577349 0.577349 0.577349 -0.577349 0.577349 " />
								<TextureCoordinate point="0.0000 0.0000 1.0000 0.0000 1.0000 1.0000 0.0000 1.0000 0.0000 0.0000 1.0000 0.0000 1.0000 1.0000 0.0000 1.0000 0.0000 0.0000 1.0000 0.0000 1.0000 1.0000 0.0000 1.0000 0.0000 0.0000 1.0000 0.0000 1.0000 1.0000 0.0000 1.0000 1.0000 0.0000 1.0000 1.0000 0.0000 0.0000 0.0000 1.0000 " />
							</IndexedTriangleSet>
						</Shape>
					</Group>
				</Transform>
			</Transform>
			<Transform DEF="Cube_002_TRANSFORM"
			           translation="0.162586 0.000000 0.542704"
			           scale="1.000000 1.000000 1.000000"
			           rotation="0.000000 1.000000 0.000000 0.000000"
			           >
				<Transform DEF="Cube_002_ifs_TRANSFORM"
				           translation="0.000000 0.000000 0.000000"
				           scale="1.000000 1.000000 1.000000"
				           rotation="0.000000 1.000000 0.000000 0.000000"
				           >
					<Group DEF="group_ME_Cube_005">
						<Shape>
							<Appearance>
								<Material USE="MA_Body" />
							</Appearance>
							<IndexedTriangleSet solid="false"
							                    normalPerVertex="true"
							                    index="0 1 2 0 2 3 4 5 6 4 6 7 8 9 10 8 10 11 12 13 14 12 14 15 4 16 17 4 17 15 18 5 14 18 14 19 "
							                    >
								<Coordinate point="-0.048969 -0.063204 0.027017 0.119059 -0.063204 0.331569 0.119059 0.063204 0.331569 -0.048969 0.063204 0.027017 -0.048969 0.063204 0.027017 0.119059 0.063204 0.331569 0.216996 0.063204 0.277535 0.048969 0.063204 -0.027017 0.048969 0.063204 -0.027017 0.216996 0.063204 0.277535 0.216996 -0.063204 0.277535 0.048969 -0.063204 -0.027017 0.048969 -0.063204 -0.027017 0.216996 -0.063204 0.277535 0.119059 -0.063204 0.331569 -0.048969 -0.063204 0.027017 0.048969 0.063204 -0.027017 0.048969 -0.063204 -0.027017 0.216996 0.063204 0.277535 0.216996 -0.063204 0.277535 " />
								<Normal vector="-0.784417 -0.577349 -0.226600 -0.226600 -0.577349 0.784417 -0.226600 0.577349 0.784417 -0.784417 0.577349 -0.226600 -0.784417 0.577349 -0.226600 -0.226600 0.577349 0.784417 0.784417 0.577349 0.226600 0.226600 0.577349 -0.784417 0.226600 0.577349 -0.784417 0.784417 0.577349 0.226600 0.784417 -0.577349 0.226600 0.226600 -0.577349 -0.784417 0.226600 -0.577349 -0.784417 0.784417 -0.577349 0.226600 -0.226600 -0.577349 0.784417 -0.784417 -0.577349 -0.226600 0.226600 0.577349 -0.784417 0.226600 -0.577349 -0.784417 0.784417 0.577349 0.226600 0.784417 -0.577349 0.226600 " />
								<TextureCoordinate point="0.0000 0.0000 1.0000 0.0000 1.0000 1.0000 0.0000 1.0000 0.0000 0.0000 1.0000 0.0000 1.0000 1.0000 0.0000 1.0000 0.0000 0.0000 1.0000 0.0000 1.0000 1.0000 0.0000 1.0000 0.0000 0.0000 1.0000 0.0000 1.0000 1.0000 0.0000 1.0000 1.0000 0.0000 1.0000 1.0000 0.0000 0.0000 0.0000 1.0000 " />
							</IndexedTriangleSet>
						</Shape>
					</Group>
				</Transform>
			</Transform>
			<Transform DEF="Cube_003_TRANSFORM"
			           translation="0.083051 0.000000 0.001864"
			           scale="1.000000 1.000000 1.000000"
			           rotation="0.000000 1.000000 0.000000 0.000000"
			           >
				<Transform DEF="Cube_003_ifs_TRANSFORM"
				           translation="0.000000 0.000000 0.000000"
				           scale="1.000000 1.000000 1.000000"
				           rotation="0.000000 1.000000 0.000000 0.000000"
				           >
					<Group DEF="group_ME_Cube_006">
						<Shape>
							<Appearance>
								<Material USE="MA_Body" />
							</Appearance>
							<IndexedTriangleSet solid="false"
							                    normalPerVertex="true"
							                    index="0 1 2 0 2 3 4 5 6 4 6 7 8 9 10 8 10 11 12 13 14 12 14 15 4 16 17 4 17 15 18 5 14 18 14 19 "
							                    >
								<Coordinate point="0.030315 -0.061113 -0.046998 -0.335814 -0.061113 -0.283158 -0.335814 0.061113 -0.283158 0.030315 0.061113 -0.046998 0.030315 0.061113 -0.046998 -0.335814 0.061113 -0.283158 -0.396444 0.061113 -0.189162 -0.030315 0.061113 0.046998 -0.030315 0.061113 0.046998 -0.396444 0.061113 -0.189162 -0.396444 -0.061113 -0.189162 -0.030315 -0.061113 0.046998 -0.030315 -0.061113 0.046998 -0.396444 -0.061113 -0.189162 -0.335814 -0.061113 -0.283158 0.030315 -0.061113 -0.046998 -0.030315 0.061113 0.046998 -0.030315 -0.061113 0.046998 -0.396444 0.061113 -0.189162 -0.396444 -0.061113 -0.189162 " />
								<Normal vector="0.798120 -0.577349 -0.172216 -0.172216 -0.577349 -0.798120 -0.172216 0.577349 -0.798120 0.798120 0.577349 -0.172216 0.798120 0.577349 -0.172216 -0.172216 0.577349 -0.798120 -0.798120 0.577349 0.172216 0.172216 0.577349 0.798120 0.172216 0.577349 0.798120 -0.798120 0.577349 0.172216 -0.798120 -0.577349 0.172216 0.172216 -0.577349 0.798120 0.172216 -0.577349 0.798120 -0.798120 -0.577349 0.172216 -0.172216 -0.577349 -0.798120 0.798120 -0.577349 -0.172216 0.172216 0.577349 0.798120 0.172216 -0.577349 0.798120 -0.798120 0.577349 0.172216 -0.798120 -0.577349 0.172216 " />
								<TextureCoordinate point="0.0000 0.0000 1.0000 0.0000 1.0000 1.0000 0.0000 1.0000 0.0000 0.0000 1.0000 0.0000 1.0000 1.0000 0.0000 1.0000 0.0000 0.0000 1.0000 0.0000 1.0000 1.0000 0.0000 1.0000 0.0000 0.0000 1.0000 0.0000 1.0000 1.0000 0.0000 1.0000 1.0000 0.0000 1.0000 1.0000 0.0000 0.0000 0.0000 1.0000 " />
							</IndexedTriangleSet>
						</Shape>
					</Group>
				</Transform>
			</Transform>
			<Transform DEF="Cube_004_TRANSFORM"
			           translation="-0.232148 0.000000 -0.210667"
			           scale="1.000000 1.000000 1.000000"
			           rotation="0.000000 1.000000 0.000000 0.000000"
			           >
				<Transform DEF="Cube_004_ifs_TRANSFORM"
				           translation="0.000000 0.000000 0.000000"
				           scale="1.000000 1.000000 1.000000"
				           rotation="0.000000 1.000000 0.000000 0.000000"
				           >
					<Group DEF="group_ME_Cube_007">
						<Shape>
							<Appearance>
								<Material USE="MA_Body" />
							</Appearance>
							<IndexedTriangleSet solid="false"
							                    normalPerVertex="true"
							                    index="0 1 2 0 2 3 4 5 6 4 6 7 8 9 10 8 10 11 12 13 14 12 14 15 4 16 17 4 17 15 18 5 14 18 14 19 "
							                    >
								<Coordinate point="0.030791 -0.058024 0.046688 0.412683 -0.058024 -0.205173 0.412683 0.058024 -0.205173 0.030791 0.058024 0.046688 0.030791 0.058024 0.046688 0.412683 0.058024 -0.205173 0.351101 0.058024 -0.298549 -0.030791 0.058024 -0.046688 -0.030791 0.058024 -0.046688 0.351101 0.058024 -0.298549 0.351101 -0.058024 -0.298549 -0.030791 -0.058024 -0.046688 -0.030791 -0.058024 -0.046688 0.351101 -0.058024 -0.298549 0.412683 -0.058024 -0.205173 0.030791 -0.058024 0.046688 -0.030791 0.058024 -0.046688 -0.030791 -0.058024 -0.046688 0.351101 0.058024 -0.298549 0.351101 -0.058024 -0.298549 " />
								<Normal vector="-0.164098 -0.577349 0.799829 0.799829 -0.577349 0.164098 0.799829 0.577349 0.164098 -0.164098 0.577349 0.799829 -0.164098 0.577349 0.799829 0.799829 0.577349 0.164098 0.164098 0.577349 -0.799829 -0.799829 0.577349 -0.164098 -0.799829 0.577349 -0.164098 0.164098 0.577349 -0.799829 0.164098 -0.577349 -0.799829 -0.799829 -0.577349 -0.164098 -0.799829 -0.577349 -0.164098 0.164098 -0.577349 -0.799829 0.799829 -0.577349 0.164098 -0.164098 -0.577349 0.799829 -0.799829 0.577349 -0.164098 -0.799829 -0.577349 -0.164098 0.164098 0.577349 -0.799829 0.164098 -0.577349 -0.799829 " />
								<TextureCoordinate point="0.0000 0.0000 1.0000 0.0000 1.0000 1.0000 0.0000 1.0000 0.0000 0.0000 1.0000 0.0000 1.0000 1.0000 0.0000 1.0000 0.0000 0.0000 1.0000 0.0000 1.0000 1.0000 0.0000 1.0000 0.0000 0.0000 1.0000 0.0000 1.0000 1.0000 0.0000 1.0000 1.0000 0.0000 1.0000 1.0000 0.0000 0.0000 0.0000 1.0000 " />
							</IndexedTriangleSet>
						</Shape>
					</Group>
				</Transform>
			</Transform>
			<Transform DEF="Cube_005_TRANSFORM"
			           translation="-0.162586 0.000000 0.542704"
			           scale="1.000000 1.000000 1.000000"
			           rotation="0.000000 1.000000 0.000000 0.000000"
			           >
				<Transform DEF="Cube_005_ifs_TRANSFORM"
				           translation="0.000000 0.000000 0.000000"
				           scale="1.000000 1.000000 1.000000"
				           rotation="0.000000 1.000000 0.000000 0.000000"
				           >
					<Group DEF="group_ME_Cube_008">
						<Shape>
							<Appearance>
								<Material USE="MA_Body" />
							</Appearance>
							<IndexedTriangleSet solid="false"
							                    normalPerVertex="true"
							                    index="0 1 2 0 2 3 4 5 6 4 6 7 8 9 10 8 10 11 12 13 14 12 14 15 4 13 16 4 16 17 18 19 14 18 14 7 "
							                    >
								<Coordinate point="0.048969 -0.063204 0.027017 0.048969 0.063204 0.027017 -0.119059 0.063204 0.331569 -0.119059 -0.063204 0.331569 0.048969 0.063204 0.027017 -0.048969 0.063204 -0.027017 -0.216996 0.063204 0.277535 -0.119059 0.063204 0.331569 -0.048969 0.063204 -0.027017 -0.048969 -0.063204 -0.027017 -0.216996 -0.063204 0.277535 -0.216996 0.063204 0.277535 -0.048969 -0.063204 -0.027017 0.048969 -0.063204 0.027017 -0.119059 -0.063204 0.331569 -0.216996 -0.063204 0.277535 -0.048969 -0.063204 -0.027017 -0.048969 0.063204 -0.027017 -0.216996 0.063204 0.277535 -0.216996 -0.063204 0.277535 " />
								<Normal vector="0.784417 -0.577349 -0.226600 0.784417 0.577349 -0.226600 0.226600 0.577349 0.784417 0.226600 -0.577349 0.784417 0.784417 0.577349 -0.226600 -0.226600 0.577349 -0.784417 -0.784417 0.577349 0.226600 0.226600 0.577349 0.784417 -0.226600 0.577349 -0.784417 -0.226600 -0.577349 -0.784417 -0.784417 -0.577349 0.226600 -0.784417 0.577349 0.226600 -0.226600 -0.577349 -0.784417 0.784417 -0.577349 -0.226600 0.226600 -0.577349 0.784417 -0.784417 -0.577349 0.226600 -0.226600 -0.577349 -0.784417 -0.226600 0.577349 -0.784417 -0.784417 0.577349 0.226600 -0.784417 -0.577349 0.226600 " />
								<TextureCoordinate point="0.0000 0.0000 0.0000 1.0000 1.0000 1.0000 1.0000 0.0000 0.0000 0.0000 0.0000 1.0000 1.0000 1.0000 1.0000 0.0000 0.0000 0.0000 0.0000 1.0000 1.0000 1.0000 1.0000 0.0000 0.0000 0.0000 0.0000 1.0000 1.0000 1.0000 1.0000 0.0000 1.0000 1.0000 1.0000 0.0000 0.0000 0.0000 0.0000 1.0000 " />
							</IndexedTriangleSet>
						</Shape>
					</Group>
				</Transform>
			</Transform>
		</Transform>
	</Scene>
</X3D>