<?xml version="1.0" encoding="UTF-8"?>
<!DOCTYPE X3D PUBLIC "ISO//Web3D//DTD X3D 3.0//EN" "http://www.web3d.org/specifications/x3d-3.0.dtd">
<X3D version="3.0" profile="Immersive" xmlns:xsd="http://www.w3.org/2001/XMLSchema-instance" xsd:noNamespaceSchemaLocation="http://www.web3d.org/specifications/x3d-3.0.xsd">
	<head>
		<meta name="filename" content="unow_n.x3d" />
		<meta name="generator" content="Blender 2.93.18" />
	</head>
	<Scene>
		<NavigationInfo headlight="true"
		                visibilityLimit="0.0"
		                type='"EXAMINE", "ANY"'
		                avatarSize="0.25, 1.75, 0.75"
		                />
		<Background DEF="WO_World"
		            groundColor="0.051 0.051 0.051"
		            skyColor="0.051 0.051 0.051"
		            />
		<Transform DEF="body_TRANSFORM"
		           translation="0.000000 0.000000 0.255034"
		           scale="1.000000 1.000000 1.000000"
		           rotation="0.000000 0.000000 1.000000 3.141593"
		           >
			<Transform DEF="body_ifs_TRANSFORM"
			           translation="0.000000 0.000000 0.000000"
			           scale="1.000000 1.000000 1.000000"
			           rotation="0.000000 1.000000 0.000000 0.000000"
			           >
				<Group DEF="group_ME_body">
					<Shape>
						<Appearance>
							<Material DEF="MA_Body"
							          diffuseColor="0.800 0.800 0.800"
							          specularColor="0.401 0.401 0.401"
							          emissiveColor="0.000 0.000 0.000"
							          ambientIntensity="0.000"
							          shininess="0.500"
							          transparency="0.0"
							          />
						</Appearance>
						<IndexedTriangleSet solid="false"
						                    normalPerVertex="true"
						                    index="0 1 2 0 2 3 4 5 6 4 6 7 8 9 10 8 10 11 4 12 13 4 13 14 15 5 16 15 16 17 "
						                    >
							<Coordinate point="-0.317941 -0.106747 0.000000 -0.317941 -0.106747 0.585070 -0.317941 0.106747 0.585070 -0.317941 0.106747 0.000000 -0.317941 0.106747 0.000000 -0.317941 0.106747 0.585070 0.317941 0.106747 0.585070 0.317941 0.106747 0.000000 0.317941 0.106747 0.000000 0.317941 0.106747 0.585070 0.317941 -0.106747 0.585070 0.317941 -0.106747 0.000000 0.317941 0.106747 0.000000 0.317941 -0.106747 0.000000 -0.317941 -0.106747 0.000000 0.317941 0.106747 0.585070 -0.317941 -0.106747 0.585070 0.317941 -0.106747 0.585070 " />
							<Normal vector="-0.577349 -0.577349 -0.577349 -0.577349 -0.577349 0.577349 -0.577349 0.577349 0.577349 -0.577349 0.577349 -0.577349 -0.577349 0.577349 -0.577349 -0.577349 0.577349 0.577349 0.577349 0.577349 0.577349 0.577349 0.577349 -0.577349 0.577349 0.577349 -0.577349 0.577349 0.577349 0.577349 0.577349 -0.577349 0.577349 0.577349 -0.577349 -0.577349 0.577349 0.577349 -0.577349 0.577349 -0.577349 -0.577349 -0.577349 -0.577349 -0.577349 0.577349 0.577349 0.577349 -0.577349 -0.577349 0.577349 0.577349 -0.577349 0.577349 " />
							<TextureCoordinate point="0.0000 0.0000 1.0000 0.0000 1.0000 1.0000 0.0000 1.0000 0.0000 0.0000 1.0000 0.0000 1.0000 1.0000 0.0000 1.0000 0.0000 0.0000 1.0000 0.0000 1.0000 1.0000 0.0000 1.0000 1.0000 0.0000 1.0000 1.0000 0.0000 1.0000 0.0000 0.0000 1.0000 1.0000 0.0000 1.0000 " />
						</IndexedTriangleSet>
					</Shape>
					<Shape>
						<Appearance>
							<Material DEF="MA_Eye"
							          diffuseColor="0.800 0.800 0.800"
							          specularColor="0.401 0.401 0.401"
							          emissiveColor="0.000 0.000 0.000"
							          ambientIntensity="0.000"
							          shininess="0.500"
							          transparency="0.0"
							          />
						</Appearance>
						<IndexedTriangleSet solid="false"
						                    normalPerVertex="true"
						                    index="0 1 2 0 2 3 "
						                    >
							<Coordinate point="0.317941 -0.106747 0.000000 0.317941 -0.106747 0.585070 -0.317941 -0.106747 0.585070 -0.317941 -0.106747 0.000000 " />
							<Normal vector="0.577349 -0.577349 -0.577349 0.577349 -0.577349 0.577349 -0.577349 -0.577349 0.577349 -0.577349 -0.577349 -0.577349 " />
							<TextureCoordinate point="0.9606 0.5189 0.9606 0.9795 0.0394 0.9795 0.0394 0.5189 " />
						</IndexedTriangleSet>
					</Shape>
				</Group>
			</Transform>
			<Transform DEF="Cube_001_TRANSFORM"
			           translation="-0.240930 0.000000 0.537452"
			           scale="1.000000 1.000000 1.000000"
			           rotation="0.000000 1.000000 0.000000 0.000000"
			           >
				<Transform DEF="Cube_001_ifs_TRANSFORM"
				           translation="0.000000 0.000000 0.000000"
				           scale="1.000000 1.000000 1.000000"
				           rotation="0.000000 1.000000 0.000000 0.000000"
				           >
					<Group DEF="group_ME_Cube_001">
						<Shape>
							<Appearance>
								<Material USE="MA_Body" />
							</Appearance>
							<IndexedTriangleSet solid="false"
							                    normalPerVertex="true"
							                    index="0 1 2 0 2 3 4 5 6 4 6 7 8 9 10 8 10 11 12 13 14 12 14 15 4 16 17 4 17 15 18 5 14 18 14 19 "
							                    >
								<Coordinate point="-0.041791 -0.056683 -0.037232 -0.275938 -0.056683 0.225585 -0.275938 0.056683 0.225585 -0.041791 0.056683 -0.037232 -0.041791 0.056683 -0.037232 -0.275938 0.056683 0.225585 -0.192356 0.056683 0.300049 0.041791 0.056683 0.037232 0.041791 0.056683 0.037232 -0.192356 0.056683 0.300049 -0.192356 -0.056683 0.300049 0.041791 -0.056683 0.037232 0.041791 -0.056683 0.037232 -0.192356 -0.056683 0.300049 -0.275938 -0.056683 0.225585 -0.041791 -0.056683 -0.037232 0.041791 0.056683 0.037232 0.041791 -0.056683 0.037232 -0.192356 0.056683 0.300049 -0.192356 -0.056683 0.300049 " />
								<Normal vector="-0.046999 -0.577349 -0.815119 -0.815119 -0.577349 0.046999 -0.815119 0.577349 0.046999 -0.046999 0.577349 -0.815119 -0.046999 0.577349 -0.815119 -0.815119 0.577349 0.046999 0.046999 0.577349 0.815119 0.815119 0.577349 -0.046999 0.815119 0.577349 -0.046999 0.046999 0.577349 0.815119 0.046999 -0.577349 0.815119 0.815119 -0.577349 -0.046999 0.815119 -0.577349 -0.046999 0.046999 -0.577349 0.815119 -0.815119 -0.577349 0.046999 -0.046999 -0.577349 -0.815119 0.815119 0.577349 -0.046999 0.815119 -0.577349 -0.046999 0.046999 0.577349 0.815119 0.046999 -0.577349 0.815119 " />
								<TextureCoordinate point="0.0000 0.0000 1.0000 0.0000 1.0000 1.0000 0.0000 1.0000 0.0000 0.0000 1.0000 0.0000 1.0000 1.0000 0.0000 1.0000 0.0000 0.0000 1.0000 0.0000 1.0000 1.0000 0.0000 1.0000 0.0000 0.0000 1.0000 0.0000 1.0000 1.0000 0.0000 1.0000 1.0000 0.0000 1.0000 1.0000 0.0000 0.0000 0.0000 1.0000 " />
							</IndexedTriangleSet>
						</Shape>
					</Group>
				</Transform>
				<Transform DEF="Cube_002_TRANSFORM"
				           translation="-0.233869 0.000000 0.218277"
				           scale="1.000000 1.000000 1.000000"
				           rotation="0.000000 1.000000 0.000000 0.000000"
				           >
					<Transform DEF="Cube_002_ifs_TRANSFORM"
					           translation="0.000000 0.000000 0.000000"
					           scale="1.000000 1.000000 1.000000"
					           rotation="0.000000 1.000000 0.000000 0.000000"
					           >
						<Group DEF="group_ME_Cube_005">
							<Shape>
								<Appearance>
									<Material USE="MA_Body" />
								</Appearance>
								<IndexedTriangleSet solid="false"
								                    normalPerVertex="true"
								                    index="0 1 2 0 2 3 4 5 6 4 6 7 8 9 10 8 10 11 12 13 14 12 14 15 4 16 17 4 17 15 18 5 14 18 14 19 "
								                    >
									<Coordinate point="0.055969 -0.058237 -0.000495 0.047119 -0.058237 -1.000164 0.047119 0.058237 -1.000164 0.055969 0.058237 -0.000495 0.055969 0.058237 -0.000495 0.047119 0.058237 -1.000164 -0.064818 0.058237 -0.999173 -0.055969 0.058237 0.000495 -0.055969 0.058237 0.000495 -0.064818 0.058237 -0.999173 -0.064818 -0.058237 -0.999173 -0.055969 -0.058237 0.000495 -0.055969 -0.058237 0.000495 -0.064818 -0.058237 -0.999173 0.047119 -0.058237 -1.000164 0.055969 -0.058237 -0.000495 -0.055969 0.058237 0.000495 -0.055969 -0.058237 0.000495 -0.064818 0.058237 -0.999173 -0.064818 -0.058237 -0.999173 " />
									<Normal vector="0.582415 -0.577349 0.572192 0.572192 -0.577349 -0.582415 0.572192 0.577349 -0.582415 0.582415 0.577349 0.572192 0.582415 0.577349 0.572192 0.572192 0.577349 -0.582415 -0.582415 0.577349 -0.572192 -0.572192 0.577349 0.582415 -0.572192 0.577349 0.582415 -0.582415 0.577349 -0.572192 -0.582415 -0.577349 -0.572192 -0.572192 -0.577349 0.582415 -0.572192 -0.577349 0.582415 -0.582415 -0.577349 -0.572192 0.572192 -0.577349 -0.582415 0.582415 -0.577349 0.572192 -0.572192 0.577349 0.582415 -0.572192 -0.577349 0.582415 -0.582415 0.577349 -0.572192 -0.582415 -0.577349 -0.572192 " />
									<TextureCoordinate point="0.0000 0.0000 1.0000 0.0000 1.0000 1.0000 0.0000 1.0000 0.0000 0.0000 1.0000 0.0000 1.0000 1.0000 0.0000 1.0000 0.0000 0.0000 1.0000 0.0000 1.0000 1.0000 0.0000 1.0000 0.0000 0.0000 1.0000 0.0000 1.0000 1.0000 0.0000 1.0000 1.0000 0.0000 1.0000 1.0000 0.0000 0.0000 0.0000 1.0000 " />
								</IndexedTriangleSet>
							</Shape>
						</Group>
					</Transform>
				</Transform>
			</Transform>
			<Transform DEF="Cube_003_TRANSFORM"
			           translation="0.238191 0.000000 0.051650"
			           scale="1.000000 1.000000 1.000000"
			           rotation="0.000000 1.000000 0.000000 0.000000"
			           >
				<Transform DEF="Cube_003_ifs_TRANSFORM"
				           translation="0.000000 0.000000 0.000000"
				           scale="1.000000 1.000000 1.000000"
				           rotation="0.000000 1.000000 0.000000 0.000000"
				           >
					<Group DEF="group_ME_Cube_006">
						<Shape>
							<Appearance>
								<Material USE="MA_Body" />
							</Appearance>
							<IndexedTriangleSet solid="false"
							                    normalPerVertex="true"
							                    index="0 1 2 0 2 3 4 5 6 4 6 7 8 9 10 8 10 11 12 13 14 12 14 15 4 16 17 4 17 15 18 5 14 18 14 19 "
							                    >
								<Coordinate point="0.041791 -0.056683 0.037232 0.275938 -0.056683 -0.225585 0.275938 0.056683 -0.225585 0.041791 0.056683 0.037232 0.041791 0.056683 0.037232 0.275938 0.056683 -0.225585 0.192356 0.056683 -0.300049 -0.041791 0.056683 -0.037232 -0.041791 0.056683 -0.037232 0.192356 0.056683 -0.300049 0.192356 -0.056683 -0.300049 -0.041791 -0.056683 -0.037232 -0.041791 -0.056683 -0.037232 0.192356 -0.056683 -0.300049 0.275938 -0.056683 -0.225585 0.041791 -0.056683 0.037232 -0.041791 0.056683 -0.037232 -0.041791 -0.056683 -0.037232 0.192356 0.056683 -0.300049 0.192356 -0.056683 -0.300049 " />
								<Normal vector="0.046999 -0.577349 0.815119 0.815119 -0.577349 -0.046999 0.815119 0.577349 -0.046999 0.046999 0.577349 0.815119 0.046999 0.577349 0.815119 0.815119 0.577349 -0.046999 -0.046999 0.577349 -0.815119 -0.815119 0.577349 0.046999 -0.815119 0.577349 0.046999 -0.046999 0.577349 -0.815119 -0.046999 -0.577349 -0.815119 -0.815119 -0.577349 0.046999 -0.815119 -0.577349 0.046999 -0.046999 -0.577349 -0.815119 0.815119 -0.577349 -0.046999 0.046999 -0.577349 0.815119 -0.815119 0.577349 0.046999 -0.815119 -0.577349 0.046999 -0.046999 0.577349 -0.815119 -0.046999 -0.577349 -0.815119 " />
								<TextureCoordinate point="0.0000 0.0000 1.0000 0.0000 1.0000 1.0000 0.0000 1.0000 0.0000 0.0000 1.0000 0.0000 1.0000 1.0000 0.0000 1.0000 0.0000 0.0000 1.0000 0.0000 1.0000 1.0000 0.0000 1.0000 0.0000 0.0000 1.0000 0.0000 1.0000 1.0000 0.0000 1.0000 1.0000 0.0000 1.0000 1.0000 0.0000 0.0000 0.0000 1.0000 " />
							</IndexedTriangleSet>
						</Shape>
					</Group>
				</Transform>
				<Transform DEF="Cube_004_TRANSFORM"
				           translation="0.233869 0.000000 -0.218277"
				           scale="1.000000 1.000000 1.000000"
				           rotation="0.000000 1.000000 0.000000 0.000000"
				           >
					<Transform DEF="Cube_004_ifs_TRANSFORM"
					           translation="0.000000 0.000000 0.000000"
					           scale="1.000000 1.000000 1.000000"
					           rotation="0.000000 1.000000 0.000000 0.000000"
					           >
						<Group DEF="group_ME_Cube_007">
							<Shape>
								<Appearance>
									<Material USE="MA_Body" />
								</Appearance>
								<IndexedTriangleSet solid="false"
								                    normalPerVertex="true"
								                    index="0 1 2 0 2 3 4 5 6 4 6 7 8 9 10 8 10 11 12 13 14 12 14 15 4 16 17 4 17 15 18 5 14 18 14 19 "
								                    >
									<Coordinate point="-0.055969 -0.058237 0.000495 -0.047119 -0.058237 1.000164 -0.047119 0.058237 1.000164 -0.055969 0.058237 0.000495 -0.055969 0.058237 0.000495 -0.047119 0.058237 1.000164 0.064818 0.058237 0.999173 0.055969 0.058237 -0.000495 0.055969 0.058237 -0.000495 0.064818 0.058237 0.999173 0.064818 -0.058237 0.999173 0.055969 -0.058237 -0.000495 0.055969 -0.058237 -0.000495 0.064818 -0.058237 0.999173 -0.047119 -0.058237 1.000164 -0.055969 -0.058237 0.000495 0.055969 0.058237 -0.000495 0.055969 -0.058237 -0.000495 0.064818 0.058237 0.999173 0.064818 -0.058237 0.999173 " />
									<Normal vector="-0.582415 -0.577349 -0.572192 -0.572192 -0.577349 0.582415 -0.572192 0.577349 0.582415 -0.582415 0.577349 -0.572192 -0.582415 0.577349 -0.572192 -0.572192 0.577349 0.582415 0.582415 0.577349 0.572192 0.572192 0.577349 -0.582415 0.572192 0.577349 -0.582415 0.582415 0.577349 0.572192 0.582415 -0.577349 0.572192 0.572192 -0.577349 -0.582415 0.572192 -0.577349 -0.582415 0.582415 -0.577349 0.572192 -0.572192 -0.577349 0.582415 -0.582415 -0.577349 -0.572192 0.572192 0.577349 -0.582415 0.572192 -0.577349 -0.582415 0.582415 0.577349 0.572192 0.582415 -0.577349 0.572192 " />
									<TextureCoordinate point="0.0000 0.0000 1.0000 0.0000 1.0000 1.0000 0.0000 1.0000 0.0000 0.0000 1.0000 0.0000 1.0000 1.0000 0.0000 1.0000 0.0000 0.0000 1.0000 0.0000 1.0000 1.0000 0.0000 1.0000 0.0000 0.0000 1.0000 0.0000 1.0000 1.0000 0.0000 1.0000 1.0000 0.0000 1.0000 1.0000 0.0000 0.0000 0.0000 1.0000 " />
								</IndexedTriangleSet>
							</Shape>
						</Group>
					</Transform>
				</Transform>
			</Transform>
		</Transform>
	</Scene>
</X3D>