<?xml version="1.0" encoding="UTF-8"?>
<!DOCTYPE X3D PUBLIC "ISO//Web3D//DTD X3D 3.0//EN" "http://www.web3d.org/specifications/x3d-3.0.dtd">
<X3D version="3.0" profile="Immersive" xmlns:xsd="http://www.w3.org/2001/XMLSchema-instance" xsd:noNamespaceSchemaLocation="http://www.web3d.org/specifications/x3d-3.0.xsd">
	<head>
		<meta name="filename" content="unow_o.x3d" />
		<meta name="generator" content="Blender 2.93.18" />
	</head>
	<Scene>
		<NavigationInfo headlight="true"
		                visibilityLimit="0.0"
		                type='"EXAMINE", "ANY"'
		                avatarSize="0.25, 1.75, 0.75"
		                />
		<Background DEF="WO_World"
		            groundColor="0.051 0.051 0.051"
		            skyColor="0.051 0.051 0.051"
		            />
		<Transform DEF="body_TRANSFORM"
		           translation="0.000000 0.000000 0.322010"
		           scale="1.000000 1.000000 1.000000"
		           rotation="0.000000 0.000000 1.000000 3.141593"
		           >
			<Transform DEF="body_ifs_TRANSFORM"
			           translation="0.000000 0.000000 0.000000"
			           scale="1.000000 1.000000 1.000000"
			           rotation="0.000000 1.000000 0.000000 0.000000"
			           >
				<Group DEF="group_ME_body">
					<Shape>
						<Appearance>
							<Material DEF="MA_Body"
							          diffuseColor="0.800 0.800 0.800"
							          specularColor="0.401 0.401 0.401"
							          emissiveColor="0.000 0.000 0.000"
							          ambientIntensity="0.000"
							          shininess="0.500"
							          transparency="0.0"
							          />
						</Appearance>
						<IndexedTriangleSet solid="false"
						                    normalPerVertex="true"
						                    index="0 1 2 0 2 3 4 5 6 4 6 7 8 9 10 8 10 11 4 12 13 4 13 14 15 5 16 15 16 17 "
						                    >
							<Coordinate point="-0.317941 -0.106747 0.000000 -0.317941 -0.106747 0.585070 -0.317941 0.106747 0.585070 -0.317941 0.106747 0.000000 -0.317941 0.106747 0.000000 -0.317941 0.106747 0.585070 0.317941 0.106747 0.585070 0.317941 0.106747 0.000000 0.317941 0.106747 0.000000 0.317941 0.106747 0.585070 0.317941 -0.106747 0.585070 0.317941 -0.106747 0.000000 0.317941 0.106747 0.000000 0.317941 -0.106747 0.000000 -0.317941 -0.106747 0.000000 0.317941 0.106747 0.585070 -0.317941 -0.106747 0.585070 0.317941 -0.106747 0.585070 " />
							<Normal vector="-0.577349 -0.577349 -0.577349 -0.577349 -0.577349 0.577349 -0.577349 0.577349 0.577349 -0.577349 0.577349 -0.577349 -0.577349 0.577349 -0.577349 -0.577349 0.577349 0.577349 0.577349 0.577349 0.577349 0.577349 0.577349 -0.577349 0.577349 0.577349 -0.577349 0.577349 0.577349 0.577349 0.577349 -0.577349 0.577349 0.577349 -0.577349 -0.577349 0.577349 0.577349 -0.577349 0.577349 -0.577349 -0.577349 -0.577349 -0.577349 -0.577349 0.577349 0.577349 0.577349 -0.577349 -0.577349 0.577349 0.577349 -0.577349 0.577349 " />
							<TextureCoordinate point="0.0000 0.0000 1.0000 0.0000 1.0000 1.0000 0.0000 1.0000 0.0000 0.0000 1.0000 0.0000 1.0000 1.0000 0.0000 1.0000 0.0000 0.0000 1.0000 0.0000 1.0000 1.0000 0.0000 1.0000 1.0000 0.0000 1.0000 1.0000 0.0000 1.0000 0.0000 0.0000 1.0000 1.0000 0.0000 1.0000 " />
						</IndexedTriangleSet>
					</Shape>
					<Shape>
						<Appearance>
							<Material DEF="MA_Eye"
							          diffuseColor="0.800 0.800 0.800"
							          specularColor="0.401 0.401 0.401"
							          emissiveColor="0.000 0.000 0.000"
							          ambientIntensity="0.000"
							          shininess="0.500"
							          transparency="0.0"
							          />
						</Appearance>
						<IndexedTriangleSet solid="false"
						                    normalPerVertex="true"
						                    index="0 1 2 0 2 3 "
						                    >
							<Coordinate point="0.317941 -0.106747 0.000000 0.317941 -0.106747 0.585070 -0.317941 -0.106747 0.585070 -0.317941 -0.106747 0.000000 " />
							<Normal vector="0.577349 -0.577349 -0.577349 0.577349 -0.577349 0.577349 -0.577349 -0.577349 0.577349 -0.577349 -0.577349 -0.577349 " />
							<TextureCoordinate point="0.9606 0.5189 0.9606 0.9795 0.0394 0.9795 0.0394 0.5189 " />
						</IndexedTriangleSet>
					</Shape>
				</Group>
			</Transform>
			<Transform DEF="Cube_001_TRANSFORM"
			           translation="0.000000 0.000000 0.016394"
			           scale="1.000000 1.000000 1.000000"
			           rotation="0.000000 1.000000 0.000000 0.000000"
			           >
				<Transform DEF="Cube_001_ifs_TRANSFORM"
				           translation="0.000000 0.000000 0.000000"
				           scale="1.000000 1.000000 1.000000"
				           rotation="0.000000 1.000000 0.000000 0.000000"
				           >
					<Group DEF="group_ME_Cube_001">
						<Shape>
							<Appearance>
								<Material USE="MA_Body" />
							</Appearance>
							<IndexedTriangleSet solid="false"
							                    normalPerVertex="true"
							                    index="0 1 2 0 2 3 4 5 6 4 6 7 8 9 10 8 10 11 12 13 14 12 14 15 4 16 17 4 17 15 18 5 14 18 14 19 "
							                    >
								<Coordinate point="0.055546 -0.048014 -0.000000 0.055545 -0.048014 -0.262357 0.055545 0.048014 -0.262357 0.055546 0.048014 -0.000000 0.055546 0.048014 -0.000000 0.055545 0.048014 -0.262357 -0.055546 0.048014 -0.262357 -0.055546 0.048014 0.000000 -0.055546 0.048014 0.000000 -0.055546 0.048014 -0.262357 -0.055546 -0.048014 -0.262357 -0.055546 -0.048014 0.000000 -0.055546 -0.048014 0.000000 -0.055546 -0.048014 -0.262357 0.055545 -0.048014 -0.262357 0.055546 -0.048014 -0.000000 -0.055546 0.048014 0.000000 -0.055546 -0.048014 0.000000 -0.055546 0.048014 -0.262357 -0.055546 -0.048014 -0.262357 " />
								<Normal vector="0.577349 -0.577349 0.577349 0.577349 -0.577349 -0.577349 0.577349 0.577349 -0.577349 0.577349 0.577349 0.577349 0.577349 0.577349 0.577349 0.577349 0.577349 -0.577349 -0.577349 0.577349 -0.577349 -0.577349 0.577349 0.577349 -0.577349 0.577349 0.577349 -0.577349 0.577349 -0.577349 -0.577349 -0.577349 -0.577349 -0.577349 -0.577349 0.577349 -0.577349 -0.577349 0.577349 -0.577349 -0.577349 -0.577349 0.577349 -0.577349 -0.577349 0.577349 -0.577349 0.577349 -0.577349 0.577349 0.577349 -0.577349 -0.577349 0.577349 -0.577349 0.577349 -0.577349 -0.577349 -0.577349 -0.577349 " />
								<TextureCoordinate point="0.0000 0.0000 1.0000 0.0000 1.0000 1.0000 0.0000 1.0000 0.0000 0.0000 1.0000 0.0000 1.0000 1.0000 0.0000 1.0000 0.0000 0.0000 1.0000 0.0000 1.0000 1.0000 0.0000 1.0000 0.0000 0.0000 1.0000 0.0000 1.0000 1.0000 0.0000 1.0000 1.0000 0.0000 1.0000 1.0000 0.0000 0.0000 0.0000 1.0000 " />
							</IndexedTriangleSet>
						</Shape>
					</Group>
				</Transform>
			</Transform>
			<Transform DEF="Cube_TRANSFORM"
			           translation="0.000000 0.000000 0.296457"
			           scale="1.000000 1.000000 1.000000"
			           rotation="0.000000 1.000000 0.000000 0.000000"
			           >
				<Transform DEF="Cube_ifs_TRANSFORM"
				           translation="0.000000 0.000000 0.000000"
				           scale="1.000000 1.000000 1.000000"
				           rotation="0.000000 1.000000 0.000000 0.000000"
				           >
					<Group DEF="group_ME_Cube">
						<Shape>
							<Appearance>
								<Material USE="MA_Body" />
							</Appearance>
							<IndexedTriangleSet solid="false"
							                    normalPerVertex="true"
							                    index="0 1 2 0 2 3 4 5 6 4 6 7 8 9 10 11 12 13 11 13 14 15 8 10 11 14 15 10 11 15 16 17 18 16 18 19 20 21 22 23 24 25 23 25 26 20 22 27 23 26 20 27 23 20 28 29 30 28 30 31 32 5 33 32 33 34 4 35 36 4 36 37 38 39 40 38 40 31 41 42 6 41 6 43 44 45 46 44 46 47 48 42 49 48 49 31 "
							                    >
								<Coordinate point="-0.580597 -0.058045 -0.585371 -0.580597 -0.058045 0.585371 -0.580597 0.058045 0.585371 -0.580597 0.058045 -0.585371 0.580597 0.058045 0.585371 0.580597 0.058045 -0.585371 0.472154 0.058045 -0.476036 0.472154 0.058045 0.476036 0.472154 0.058045 -0.476036 0.580597 0.058045 -0.585371 -0.580597 0.058045 -0.585371 -0.580597 0.058045 0.585371 0.580597 0.058045 0.585371 0.472154 0.058045 0.476036 -0.472154 0.058045 0.476036 -0.472154 0.058045 -0.476036 0.580597 0.058045 -0.585371 0.580597 0.058045 0.585371 0.580597 -0.058045 0.585371 0.580597 -0.058045 -0.585371 0.472154 -0.058045 -0.476036 -0.472154 -0.058045 -0.476036 -0.580597 -0.058045 -0.585371 0.580597 -0.058045 0.585371 -0.580597 -0.058045 0.585371 -0.472154 -0.058045 0.476036 0.472154 -0.058045 0.476036 0.580597 -0.058045 -0.585371 -0.580597 -0.058045 0.585371 -0.580597 -0.058045 -0.585371 -0.472154 -0.058045 -0.476036 -0.472154 -0.058045 0.476036 -0.580597 0.058045 -0.585371 0.580597 -0.058045 -0.585371 -0.580597 -0.058045 -0.585371 -0.580597 0.058045 0.585371 -0.580597 -0.058045 0.585371 0.580597 -0.058045 0.585371 -0.472154 -0.058045 -0.476036 -0.472154 0.058045 -0.476036 -0.472154 0.058045 0.476036 0.472154 -0.058045 0.476036 0.472154 0.058045 0.476036 0.472154 -0.058045 -0.476036 0.472154 -0.058045 -0.476036 0.472154 0.058045 -0.476036 -0.472154 0.058045 -0.476036 -0.472154 -0.058045 -0.476036 -0.472154 0.058045 0.476036 0.472154 -0.058045 0.476036 " />
								<Normal vector="-0.577349 -0.577349 -0.577349 -0.577349 -0.577349 0.577349 -0.577349 0.577349 0.577349 -0.577349 0.577349 -0.577349 0.577349 0.577349 0.577349 0.577349 0.577349 -0.577349 -0.301492 0.904508 0.301492 -0.301492 0.904508 -0.301492 -0.301492 0.904508 0.301492 0.577349 0.577349 -0.577349 -0.577349 0.577349 -0.577349 -0.577349 0.577349 0.577349 0.577349 0.577349 0.577349 -0.301492 0.904508 -0.301492 0.577349 0.577349 -0.577349 0.577349 0.577349 0.577349 0.577349 0.577349 -0.577349 0.577349 0.577349 0.577349 0.577349 -0.577349 0.577349 0.577349 -0.577349 -0.577349 -0.577349 -0.577349 0.577349 0.301492 -0.904508 0.301492 -0.577349 -0.577349 -0.577349 0.577349 -0.577349 0.577349 -0.577349 -0.577349 0.577349 0.301492 -0.904508 -0.301492 -0.577349 -0.577349 -0.577349 0.577349 -0.577349 -0.577349 -0.577349 -0.577349 0.577349 -0.577349 -0.577349 -0.577349 0.301492 -0.904508 0.301492 0.301492 -0.904508 -0.301492 -0.577349 0.577349 -0.577349 0.577349 -0.577349 -0.577349 -0.577349 -0.577349 -0.577349 -0.577349 0.577349 0.577349 -0.577349 -0.577349 0.577349 0.577349 -0.577349 0.577349 0.301492 -0.904508 0.301492 0.577349 0.577349 0.577349 0.577349 0.577349 -0.577349 -0.577349 -0.577349 -0.577349 -0.301492 0.904508 -0.301492 -0.577349 -0.577349 0.577349 -0.577349 -0.577349 0.577349 -0.301492 0.904508 0.301492 0.577349 0.577349 0.577349 0.301492 -0.904508 0.301492 0.577349 0.577349 -0.577349 -0.577349 -0.577349 -0.577349 " />
								<TextureCoordinate point="0.0000 0.0000 1.0000 0.0000 1.0000 1.0000 0.0000 1.0000 0.0000 0.0000 1.0000 0.0000 1.0000 1.0000 0.0000 1.0000 0.1464 0.8536 0.5000 1.0000 0.8536 0.8536 1.0000 0.5000 0.8536 0.1464 0.5000 0.0000 0.1464 0.1464 0.0000 0.5000 0.0000 0.0000 1.0000 0.0000 1.0000 1.0000 0.0000 1.0000 0.1464 0.8536 0.5000 1.0000 0.8536 0.8536 0.8536 0.1464 0.5000 0.0000 0.1464 0.1464 0.0000 0.5000 1.0000 0.5000 0.0000 0.0000 1.0000 0.0000 1.0000 1.0000 0.0000 1.0000 0.0000 0.0000 1.0000 1.0000 0.0000 1.0000 1.0000 0.0000 1.0000 1.0000 0.0000 1.0000 0.0000 0.0000 1.0000 0.0000 1.0000 1.0000 0.0000 0.0000 1.0000 0.0000 0.0000 1.0000 0.0000 0.0000 1.0000 0.0000 1.0000 1.0000 0.0000 1.0000 0.0000 0.0000 1.0000 1.0000 " />
							</IndexedTriangleSet>
						</Shape>
					</Group>
				</Transform>
			</Transform>
		</Transform>
	</Scene>
</X3D>