<?xml version="1.0" encoding="UTF-8"?>
<!DOCTYPE X3D PUBLIC "ISO//Web3D//DTD X3D 3.0//EN" "http://www.web3d.org/specifications/x3d-3.0.dtd">
<X3D version="3.0" profile="Immersive" xmlns:xsd="http://www.w3.org/2001/XMLSchema-instance" xsd:noNamespaceSchemaLocation="http://www.web3d.org/specifications/x3d-3.0.xsd">
	<head>
		<meta name="filename" content="vibrava.x3d" />
		<meta name="generator" content="Blender 2.93.18" />
	</head>
	<Scene>
		<NavigationInfo headlight="true"
		                visibilityLimit="0.0"
		                type='"EXAMINE", "ANY"'
		                avatarSize="0.25, 1.75, 0.75"
		                />
		<Background DEF="WO_World"
		            groundColor="0.051 0.051 0.051"
		            skyColor="0.051 0.051 0.051"
		            />
		<Transform DEF="body_TRANSFORM"
		           translation="0.000000 0.248680 0.547761"
		           scale="1.000000 1.000000 1.000000"
		           rotation="0.000000 0.000000 1.000000 3.141593"
		           >
			<Transform DEF="body_ifs_TRANSFORM"
			           translation="0.000000 0.000000 0.000000"
			           scale="1.000000 1.000000 1.000000"
			           rotation="0.000000 1.000000 0.000000 0.000000"
			           >
				<Group DEF="group_ME_body">
					<Shape>
						<Appearance>
							<Material DEF="MA_Body"
							          diffuseColor="0.800 0.800 0.800"
							          specularColor="0.401 0.401 0.401"
							          emissiveColor="0.000 0.000 0.000"
							          ambientIntensity="0.000"
							          shininess="0.500"
							          transparency="0.0"
							          />
						</Appearance>
						<IndexedTriangleSet solid="false"
						                    normalPerVertex="true"
						                    index="0 1 2 0 2 3 4 5 6 4 6 7 8 9 10 8 10 11 12 13 14 12 14 15 4 16 17 4 17 15 18 5 14 18 14 19 "
						                    >
							<Coordinate point="-0.458492 -0.251337 0.000000 -0.458492 -0.251337 0.825400 -0.458492 0.251337 0.825400 -0.458492 0.251337 0.000000 -0.458492 0.251337 0.000000 -0.458492 0.251337 0.825400 0.458492 0.251337 0.825400 0.458492 0.251337 0.000000 0.458492 0.251337 0.000000 0.458492 0.251337 0.825400 0.458492 -0.251337 0.825400 0.458492 -0.251337 0.000000 0.458492 -0.251337 0.000000 0.458492 -0.251337 0.825400 -0.458492 -0.251337 0.825400 -0.458492 -0.251337 0.000000 0.458492 0.251337 0.000000 0.458492 -0.251337 0.000000 0.458492 0.251337 0.825400 0.458492 -0.251337 0.825400 " />
							<Normal vector="-0.577349 -0.577349 -0.577349 -0.577349 -0.577349 0.577349 -0.577349 0.577349 0.577349 -0.577349 0.577349 -0.577349 -0.577349 0.577349 -0.577349 -0.577349 0.577349 0.577349 0.577349 0.577349 0.577349 0.577349 0.577349 -0.577349 0.577349 0.577349 -0.577349 0.577349 0.577349 0.577349 0.577349 -0.577349 0.577349 0.577349 -0.577349 -0.577349 0.577349 -0.577349 -0.577349 0.577349 -0.577349 0.577349 -0.577349 -0.577349 0.577349 -0.577349 -0.577349 -0.577349 0.577349 0.577349 -0.577349 0.577349 -0.577349 -0.577349 0.577349 0.577349 0.577349 0.577349 -0.577349 0.577349 " />
							<TextureCoordinate point="0.0401 0.5139 0.4383 0.5139 0.4383 0.9685 0.0401 0.9685 0.0401 0.5139 0.4383 0.5139 0.4383 0.9685 0.0401 0.9685 0.0401 0.5139 0.4383 0.5139 0.4383 0.9685 0.0401 0.9685 0.0401 0.5139 0.4383 0.5139 0.4383 0.9685 0.0401 0.9685 0.4383 0.5139 0.4383 0.9685 0.0401 0.5139 0.0401 0.9685 " />
						</IndexedTriangleSet>
					</Shape>
				</Group>
			</Transform>
			<Transform DEF="Cube_001_TRANSFORM"
			           translation="0.000000 -0.183848 0.425213"
			           scale="1.000000 1.000000 1.000000"
			           rotation="0.000000 1.000000 0.000000 0.000000"
			           >
				<Transform DEF="Cube_001_ifs_TRANSFORM"
				           translation="0.000000 0.000000 0.000000"
				           scale="1.000000 1.000000 1.000000"
				           rotation="0.000000 1.000000 0.000000 0.000000"
				           >
					<Group DEF="group_ME_Cube_006">
						<Shape>
							<Appearance>
								<Material USE="MA_Body" />
							</Appearance>
							<IndexedTriangleSet solid="false"
							                    normalPerVertex="true"
							                    index="0 1 2 0 2 3 4 5 6 4 6 7 8 9 10 8 10 11 12 13 14 12 14 15 4 16 17 4 17 15 18 5 14 18 14 19 "
							                    >
								<Coordinate point="-0.415519 0.024632 -0.377069 -0.415519 -0.404073 -0.405074 -0.415519 -0.453337 0.349064 -0.415519 -0.024632 0.377069 -0.415519 -0.024632 0.377069 -0.415519 -0.453337 0.349064 0.415519 -0.453337 0.349064 0.415519 -0.024632 0.377069 0.415519 -0.024632 0.377069 0.415519 -0.453337 0.349064 0.415519 -0.404073 -0.405074 0.415519 0.024632 -0.377069 0.415519 0.024632 -0.377069 0.415519 -0.404073 -0.405074 -0.415519 -0.404073 -0.405074 -0.415519 0.024632 -0.377069 0.415519 -0.024632 0.377069 0.415519 0.024632 -0.377069 0.415519 -0.453337 0.349064 0.415519 -0.404073 -0.405074 " />
								<Normal vector="-0.577349 0.613727 -0.538469 -0.577349 -0.538469 -0.613727 -0.577349 -0.613727 0.538469 -0.577349 0.538469 0.613727 -0.577349 0.538469 0.613727 -0.577349 -0.613727 0.538469 0.577349 -0.613727 0.538469 0.577349 0.538469 0.613727 0.577349 0.538469 0.613727 0.577349 -0.613727 0.538469 0.577349 -0.538469 -0.613727 0.577349 0.613727 -0.538469 0.577349 0.613727 -0.538469 0.577349 -0.538469 -0.613727 -0.577349 -0.538469 -0.613727 -0.577349 0.613727 -0.538469 0.577349 0.538469 0.613727 0.577349 0.613727 -0.538469 0.577349 -0.613727 0.538469 0.577349 -0.538469 -0.613727 " />
								<TextureCoordinate point="0.0401 0.5139 0.4383 0.5139 0.4383 0.9685 0.0401 0.9685 0.0401 0.5139 0.4383 0.5139 0.4383 0.9685 0.0401 0.9685 0.0401 0.5139 0.4383 0.5139 0.4383 0.9685 0.0401 0.9685 0.0401 0.5139 0.4383 0.5139 0.4383 0.9685 0.0401 0.9685 0.4383 0.5139 0.4383 0.9685 0.0401 0.5139 0.0401 0.9685 " />
							</IndexedTriangleSet>
						</Shape>
					</Group>
				</Transform>
			</Transform>
			<Transform DEF="head_TRANSFORM"
			           translation="0.000000 -0.609721 0.451517"
			           scale="1.000000 1.000000 1.000000"
			           rotation="0.000000 1.000000 0.000000 0.000000"
			           >
				<Transform DEF="head_ifs_TRANSFORM"
				           translation="0.000000 0.000000 0.000000"
				           scale="1.000000 1.000000 1.000000"
				           rotation="0.000000 1.000000 0.000000 0.000000"
				           >
					<Group DEF="group_ME_head">
						<Shape>
							<Appearance>
								<Material USE="MA_Body" />
							</Appearance>
							<IndexedTriangleSet solid="false"
							                    normalPerVertex="true"
							                    index="0 1 2 0 2 3 4 5 6 4 6 7 8 9 10 8 10 11 12 13 14 12 14 15 16 17 18 16 18 19 20 21 14 20 14 22 23 24 25 23 25 26 27 20 22 27 22 28 29 30 31 29 31 15 32 16 19 32 19 33 34 35 36 34 36 37 38 39 13 38 13 12 40 41 42 40 42 43 44 45 5 44 5 4 46 47 48 46 48 49 40 50 51 40 51 52 52 51 30 52 30 29 53 54 55 53 55 56 56 55 20 56 20 27 57 58 59 57 59 60 60 59 24 60 24 23 54 41 61 54 61 55 55 61 21 55 21 20 47 62 63 47 63 48 48 63 17 48 17 16 64 65 66 64 66 67 67 66 9 67 9 8 68 69 70 68 70 71 71 70 1 71 1 0 59 56 27 59 27 24 58 53 56 58 56 59 50 46 49 50 49 51 43 42 45 43 45 44 37 36 39 37 39 38 30 32 33 30 33 31 24 27 28 24 28 25 "
							                    >
								<Coordinate point="-0.439884 -0.186984 -0.469451 -0.439884 -0.224981 0.452472 -0.439884 -0.018998 0.460961 -0.439884 0.018998 -0.460961 0.282585 0.018998 -0.460961 0.282585 -0.018998 0.460961 0.439884 -0.018998 0.460961 0.439884 0.018998 -0.460961 0.439884 -0.467120 -0.480997 0.439884 -0.505116 0.440926 0.439884 -0.859406 0.426324 0.439884 -0.821409 -0.495598 -0.282585 -0.821409 -0.495598 -0.282585 -0.859406 0.426324 -0.439884 -0.859406 0.426324 -0.439884 -0.821409 -0.495598 0.282585 -0.467120 -0.480996 0.439884 -0.467120 -0.480997 0.439884 -0.821409 -0.495598 0.282585 -0.821409 -0.495598 -0.282585 -0.505116 0.440926 -0.439884 -0.505116 0.440926 -0.282585 -0.859406 0.426324 0.439884 -0.505116 0.440926 0.282585 -0.505116 0.440926 0.282585 -0.859406 0.426324 0.439884 -0.859406 0.426324 0.000000 -0.505116 0.440926 0.000000 -0.859406 0.426324 -0.439884 -0.467120 -0.480997 -0.282585 -0.467120 -0.480996 -0.282585 -0.821409 -0.495598 0.000000 -0.467120 -0.480996 0.000000 -0.821409 -0.495598 0.439884 -0.821409 -0.495598 0.439884 -0.859406 0.426324 0.282585 -0.859406 0.426324 0.282585 -0.821409 -0.495598 0.000000 -0.821409 -0.495598 0.000000 -0.859406 0.426324 -0.439884 0.018998 -0.460961 -0.439884 -0.018998 0.460961 -0.282585 -0.018998 0.460961 -0.282585 0.018998 -0.460961 0.000000 0.018998 -0.460961 0.000000 -0.018998 0.460961 0.000000 0.018998 -0.460961 0.282585 0.018998 -0.460961 0.282585 -0.186984 -0.469451 0.000000 -0.186984 -0.469451 -0.282585 0.018998 -0.460961 -0.282585 -0.186984 -0.469451 -0.439884 -0.186984 -0.469451 0.000000 -0.018998 0.460961 -0.282585 -0.018998 0.460961 -0.282585 -0.224981 0.452472 0.000000 -0.224981 0.452472 0.439884 -0.018998 0.460961 0.282585 -0.018998 0.460961 0.282585 -0.224981 0.452472 0.439884 -0.224981 0.452472 -0.439884 -0.224981 0.452472 0.439884 0.018998 -0.460961 0.439884 -0.186984 -0.469451 0.439884 0.018998 -0.460961 0.439884 -0.018998 0.460961 0.439884 -0.224981 0.452472 0.439884 -0.186984 -0.469451 -0.439884 -0.821409 -0.495598 -0.439884 -0.859406 0.426324 -0.439884 -0.505116 0.440926 -0.439884 -0.467120 -0.480997 " />
								<Normal vector="-0.707083 0.029115 -0.706504 -0.707083 -0.029115 0.706504 -0.577349 0.553056 0.600635 -0.577349 0.600635 -0.553056 0.000000 0.735618 -0.677358 0.000000 0.677358 0.735618 0.577349 0.553056 0.600635 0.577349 0.600635 -0.553056 0.707083 0.029115 -0.706504 0.707083 -0.029115 0.706504 0.577349 -0.600635 0.553056 0.577349 -0.553056 -0.600635 0.000000 -0.677358 -0.735618 0.000000 -0.735618 0.677358 -0.577349 -0.600635 0.553056 -0.577349 -0.553056 -0.600635 0.000000 0.041169 -0.999146 0.707083 0.029115 -0.706504 0.577349 -0.553056 -0.600635 0.000000 -0.677358 -0.735618 0.000000 -0.041169 0.999146 -0.707083 -0.029115 0.706504 0.000000 -0.735618 0.677358 0.707083 -0.029115 0.706504 0.000000 -0.041169 0.999146 0.000000 -0.735618 0.677358 0.577349 -0.600635 0.553056 0.000000 -0.041169 0.999146 0.000000 -0.735618 0.677358 -0.707083 0.029115 -0.706504 0.000000 0.041169 -0.999146 0.000000 -0.677358 -0.735618 0.000000 0.041169 -0.999146 0.000000 -0.677358 -0.735618 0.577349 -0.553056 -0.600635 0.577349 -0.600635 0.553056 0.000000 -0.735618 0.677358 0.000000 -0.677358 -0.735618 0.000000 -0.677358 -0.735618 0.000000 -0.735618 0.677358 -0.577349 0.600635 -0.553056 -0.577349 0.553056 0.600635 0.000000 0.677358 0.735618 0.000000 0.735618 -0.677358 0.000000 0.735618 -0.677358 0.000000 0.677358 0.735618 0.000000 0.735618 -0.677358 0.000000 0.735618 -0.677358 0.000000 0.041169 -0.999146 0.000000 0.041169 -0.999146 0.000000 0.735618 -0.677358 0.000000 0.041169 -0.999146 -0.707083 0.029115 -0.706504 0.000000 0.677358 0.735618 0.000000 0.677358 0.735618 0.000000 -0.041169 0.999146 0.000000 -0.041169 0.999146 0.577349 0.553056 0.600635 0.000000 0.677358 0.735618 0.000000 -0.041169 0.999146 0.707083 -0.029115 0.706504 -0.707083 -0.029115 0.706504 0.577349 0.600635 -0.553056 0.707083 0.029115 -0.706504 0.577349 0.600635 -0.553056 0.577349 0.553056 0.600635 0.707083 -0.029115 0.706504 0.707083 0.029115 -0.706504 -0.577349 -0.553056 -0.600635 -0.577349 -0.600635 0.553056 -0.707083 -0.029115 0.706504 -0.707083 0.029115 -0.706504 " />
								<TextureCoordinate point="0.0398 0.8107 0.4287 0.8107 0.4287 0.9596 0.0398 0.9596 0.0398 0.8107 0.4287 0.8107 0.4287 0.9596 0.0398 0.9596 0.0398 0.8107 0.4287 0.8107 0.4287 0.9596 0.0398 0.9596 0.0398 0.8107 0.4287 0.8107 0.4287 0.9596 0.0398 0.9596 0.2990 0.8107 0.4287 0.8107 0.4287 0.9596 0.2990 0.9596 0.2990 0.8107 0.4287 0.8107 0.2990 0.9596 0.0398 0.8107 0.1694 0.8107 0.1694 0.9596 0.0398 0.9596 0.2342 0.8107 0.2342 0.9596 0.0398 0.8107 0.1694 0.8107 0.1694 0.9596 0.2342 0.8107 0.2342 0.9596 0.0398 0.5129 0.4287 0.5129 0.4287 0.6618 0.0398 0.6618 0.0398 0.7362 0.4287 0.7362 0.0398 0.5129 0.4287 0.5129 0.4287 0.6618 0.0398 0.6618 0.0398 0.7362 0.4287 0.7362 0.2342 0.5129 0.2990 0.5129 0.2990 0.6618 0.2342 0.6618 0.1694 0.5129 0.1694 0.6618 0.0398 0.6618 0.2342 0.5129 0.2990 0.5129 0.2990 0.6618 0.2342 0.6618 0.0398 0.5129 0.1694 0.5129 0.1694 0.6618 0.0398 0.6618 0.4287 0.6618 0.4287 0.5129 0.4287 0.6618 0.0398 0.5129 0.4287 0.5129 0.4287 0.6618 0.0398 0.6618 0.0398 0.5129 0.4287 0.5129 0.4287 0.6618 0.0398 0.6618 " />
							</IndexedTriangleSet>
						</Shape>
						<Shape>
							<Appearance>
								<Material DEF="MA_Mouth"
								          diffuseColor="0.800 0.800 0.800"
								          specularColor="0.401 0.401 0.401"
								          emissiveColor="0.000 0.000 0.000"
								          ambientIntensity="0.000"
								          shininess="0.500"
								          transparency="0.0"
								          />
							</Appearance>
							<IndexedTriangleSet solid="false"
							                    normalPerVertex="true"
							                    index="0 1 2 0 2 3 4 0 3 4 3 5 "
							                    >
								<Coordinate point="0.000000 -0.186984 -0.469451 0.282585 -0.186984 -0.469451 0.282585 -0.467120 -0.480996 0.000000 -0.467120 -0.480996 -0.282585 -0.186984 -0.469451 -0.282585 -0.467120 -0.480996 " />
								<Normal vector="0.000000 0.041169 -0.999146 0.000000 0.041169 -0.999146 0.000000 0.041169 -0.999146 0.000000 0.041169 -0.999146 0.000000 0.041169 -0.999146 0.000000 0.041169 -0.999146 " />
								<TextureCoordinate point="0.9818 0.4883 0.0182 0.4883 0.0182 0.9883 0.9818 0.9883 0.0182 0.4883 0.0182 0.9883 " />
							</IndexedTriangleSet>
						</Shape>
					</Group>
				</Transform>
				<Transform DEF="Cube_004_TRANSFORM"
				           translation="0.392277 -0.404743 -0.012539"
				           scale="1.000000 1.000000 1.000000"
				           rotation="0.000000 1.000000 0.000000 0.000000"
				           >
					<Transform DEF="Cube_004_ifs_TRANSFORM"
					           translation="0.000000 0.000000 0.000000"
					           scale="1.000000 1.000000 1.000000"
					           rotation="0.000000 1.000000 0.000000 0.000000"
					           >
						<Group DEF="group_ME_Cube_014">
							<Shape>
								<Appearance>
									<Material DEF="MA_Eye"
									          diffuseColor="0.800 0.800 0.800"
									          specularColor="0.401 0.401 0.401"
									          emissiveColor="0.000 0.000 0.000"
									          ambientIntensity="0.000"
									          shininess="0.500"
									          transparency="0.0"
									          />
								</Appearance>
								<IndexedTriangleSet solid="false"
								                    normalPerVertex="true"
								                    index="0 1 2 0 2 3 4 5 6 4 6 7 8 9 10 8 10 11 12 13 14 12 14 15 4 16 17 4 17 15 18 5 14 18 14 19 "
								                    >
									<Coordinate point="-0.040236 -0.218613 -0.269902 -0.053814 -0.271123 0.214135 0.041000 0.223110 0.270411 0.054578 0.275621 -0.213625 0.054578 0.275621 -0.213625 0.041000 0.223110 0.270411 0.188847 0.196401 0.271661 0.202425 0.248911 -0.212376 0.202425 0.248911 -0.212376 0.188847 0.196401 0.271661 0.094032 -0.297832 0.215385 0.107610 -0.245322 -0.268652 0.107610 -0.245322 -0.268652 0.094032 -0.297832 0.215385 -0.053814 -0.271123 0.214135 -0.040236 -0.218613 -0.269902 0.202425 0.248911 -0.212376 0.107610 -0.245322 -0.268652 0.188847 0.196401 0.271661 0.094032 -0.297832 0.215385 " />
									<Normal vector="-0.656575 -0.396252 -0.641743 -0.688742 -0.520615 0.504532 -0.478591 0.607379 0.634022 -0.446364 0.731986 -0.514664 -0.446364 0.731986 -0.514664 -0.478591 0.607379 0.634022 0.656575 0.396252 0.641743 0.688742 0.520615 -0.504532 0.688742 0.520615 -0.504532 0.656575 0.396252 0.641743 0.446364 -0.731986 0.514664 0.478591 -0.607379 -0.634022 0.478591 -0.607379 -0.634022 0.446364 -0.731986 0.514664 -0.688742 -0.520615 0.504532 -0.656575 -0.396252 -0.641743 0.688742 0.520615 -0.504532 0.478591 -0.607379 -0.634022 0.656575 0.396252 0.641743 0.446364 -0.731986 0.514664 " />
									<TextureCoordinate point="0.8294 0.9127 0.9675 0.9127 0.9675 0.9779 0.8294 0.9779 0.8294 0.9127 0.9675 0.9127 0.9675 0.9779 0.8294 0.9779 1.0000 0.4961 1.0000 0.9961 0.0000 0.9961 0.0000 0.4961 0.8294 0.9127 0.9675 0.9127 0.9675 0.9779 0.8294 0.9779 0.9675 0.9127 0.9675 0.9779 0.8294 0.9127 0.8294 0.9779 " />
								</IndexedTriangleSet>
							</Shape>
						</Group>
					</Transform>
					<Transform DEF="Cube_003_TRANSFORM"
					           translation="0.000000 -0.000000 0.000000"
					           scale="1.000000 1.000000 1.000000"
					           rotation="0.000000 1.000000 0.000000 0.000000"
					           >
						<Transform DEF="Cube_003_ifs_TRANSFORM"
						           translation="0.000000 0.000000 0.000000"
						           scale="1.000000 1.000000 1.000000"
						           rotation="0.000000 1.000000 0.000000 0.000000"
						           >
							<Group DEF="group_ME_Cube_011">
								<Shape>
									<Appearance>
										<Material DEF="MA_Glass"
										          diffuseColor="0.800 0.800 0.800"
										          specularColor="0.401 0.401 0.401"
										          emissiveColor="0.000 0.000 0.000"
										          ambientIntensity="0.000"
										          shininess="0.500"
										          transparency="0.0"
										          />
									</Appearance>
									<IndexedTriangleSet solid="false"
									                    normalPerVertex="true"
									                    index="0 1 2 0 2 3 4 5 6 4 6 7 8 9 10 8 10 11 12 13 14 12 14 15 4 16 17 4 17 15 18 5 14 18 14 19 "
									                    >
										<Coordinate point="0.007718 -0.256296 -0.306161 -0.007718 -0.315988 0.244077 -0.007718 0.256296 0.306161 0.007718 0.315988 -0.244077 0.007718 0.315988 -0.244077 -0.007718 0.256296 0.306161 0.213222 0.255631 0.312287 0.228657 0.315323 -0.237952 0.228657 0.315323 -0.237952 0.213222 0.255631 0.312287 0.213222 -0.316652 0.250203 0.228657 -0.256960 -0.300036 0.228657 -0.256960 -0.300036 0.213222 -0.316652 0.250203 -0.007718 -0.315988 0.244077 0.007718 -0.256296 -0.306161 0.228657 0.315323 -0.237952 0.228657 -0.256960 -0.300036 0.213222 0.255631 0.312287 0.213222 -0.316652 0.250203 " />
										<Normal vector="-0.561022 -0.509995 -0.652028 -0.593219 -0.634480 0.495468 -0.593219 0.513474 0.620014 -0.561022 0.637959 -0.527482 -0.561022 0.637959 -0.527482 -0.593219 0.513474 0.620014 0.561022 0.509995 0.652028 0.593219 0.634480 -0.495468 0.593219 0.634480 -0.495468 0.561022 0.509995 0.652028 0.561022 -0.637959 0.527482 0.593219 -0.513474 -0.620014 0.593219 -0.513474 -0.620014 0.561022 -0.637959 0.527482 -0.593219 -0.634480 0.495468 -0.561022 -0.509995 -0.652028 0.593219 0.634480 -0.495468 0.593219 -0.513474 -0.620014 0.561022 0.509995 0.652028 0.561022 -0.637959 0.527482 " />
										<TextureCoordinate point="0.2342 0.2687 0.4557 0.2687 0.4557 0.4508 0.2342 0.4508 0.2342 0.2687 0.4557 0.2687 0.4557 0.4508 0.2342 0.4508 0.2342 0.2687 0.4557 0.2687 0.4557 0.4508 0.2342 0.4508 0.2342 0.2687 0.4557 0.2687 0.4557 0.4508 0.2342 0.4508 0.4557 0.2687 0.4557 0.4508 0.2342 0.2687 0.2342 0.4508 " />
									</IndexedTriangleSet>
								</Shape>
							</Group>
						</Transform>
					</Transform>
				</Transform>
				<Transform DEF="Cube_005_TRANSFORM"
				           translation="0.172896 -0.826029 0.247462"
				           scale="1.000000 1.000000 1.000000"
				           rotation="0.000000 1.000000 0.000000 0.000000"
				           >
					<Transform DEF="Cube_005_ifs_TRANSFORM"
					           translation="0.000000 0.000000 0.000000"
					           scale="1.000000 1.000000 1.000000"
					           rotation="0.000000 1.000000 0.000000 0.000000"
					           >
						<Group DEF="group_ME_Cube_015">
							<Shape>
								<Appearance>
									<Material USE="MA_Body" />
								</Appearance>
								<IndexedTriangleSet solid="false"
								                    normalPerVertex="true"
								                    index="0 1 2 0 2 3 4 5 6 4 6 7 8 9 10 8 10 11 12 13 14 12 14 15 4 16 17 4 17 15 18 5 14 18 14 19 "
								                    >
									<Coordinate point="-0.102153 -0.426433 -0.082681 -0.102153 -0.412533 0.136005 -0.102153 0.006950 0.109343 -0.102153 -0.006950 -0.109343 -0.102153 -0.006950 -0.109343 -0.102153 0.006950 0.109343 0.102153 0.006950 0.109343 0.102153 -0.006950 -0.109343 0.102153 -0.006950 -0.109343 0.102153 0.006950 0.109343 0.102153 -0.412533 0.136005 0.102153 -0.426433 -0.082681 0.102153 -0.426433 -0.082681 0.102153 -0.412533 0.136005 -0.102153 -0.412533 0.136005 -0.102153 -0.426433 -0.082681 0.102153 -0.006950 -0.109343 0.102153 -0.426433 -0.082681 0.102153 0.006950 0.109343 0.102153 -0.412533 0.136005 " />
									<Normal vector="-0.577349 -0.612781 -0.539537 -0.577349 -0.539537 0.612781 -0.577349 0.612781 0.539537 -0.577349 0.539537 -0.612781 -0.577349 0.539537 -0.612781 -0.577349 0.612781 0.539537 0.577349 0.612781 0.539537 0.577349 0.539537 -0.612781 0.577349 0.539537 -0.612781 0.577349 0.612781 0.539537 0.577349 -0.539537 0.612781 0.577349 -0.612781 -0.539537 0.577349 -0.612781 -0.539537 0.577349 -0.539537 0.612781 -0.577349 -0.539537 0.612781 -0.577349 -0.612781 -0.539537 0.577349 0.539537 -0.612781 0.577349 -0.612781 -0.539537 0.577349 0.612781 0.539537 0.577349 -0.539537 0.612781 " />
									<TextureCoordinate point="0.1067 0.6223 0.3855 0.6223 0.3855 0.9011 0.1067 0.9011 0.1067 0.6223 0.3855 0.6223 0.3855 0.9011 0.1067 0.9011 0.1067 0.6223 0.3855 0.6223 0.3855 0.9011 0.1067 0.9011 0.1067 0.6223 0.3855 0.6223 0.3855 0.9011 0.1067 0.9011 0.3855 0.6223 0.3855 0.9011 0.1067 0.6223 0.1067 0.9011 " />
								</IndexedTriangleSet>
							</Shape>
						</Group>
					</Transform>
					<Transform DEF="Cube_006_TRANSFORM"
					           translation="-0.000000 -0.398730 0.025343"
					           scale="1.000000 1.000000 1.000000"
					           rotation="0.000000 1.000000 0.000000 0.000000"
					           >
						<Transform DEF="Cube_006_ifs_TRANSFORM"
						           translation="0.000000 0.000000 0.000000"
						           scale="1.000000 1.000000 1.000000"
						           rotation="0.000000 1.000000 0.000000 0.000000"
						           >
							<Group DEF="group_ME_Cube_017">
								<Shape>
									<Appearance>
										<Material USE="MA_Body" />
									</Appearance>
									<IndexedTriangleSet solid="false"
									                    normalPerVertex="true"
									                    index="0 1 2 0 2 3 4 5 6 4 6 7 8 9 10 8 10 11 12 13 14 12 14 15 4 16 17 4 17 15 18 5 14 18 14 19 "
									                    >
										<Coordinate point="-0.081992 -0.419981 -0.042756 -0.081992 -0.400954 0.132092 -0.081992 0.009514 0.087424 -0.081992 -0.009514 -0.087424 -0.081992 -0.009514 -0.087424 -0.081992 0.009514 0.087424 0.081992 0.009514 0.087424 0.081992 -0.009514 -0.087424 0.081992 -0.009514 -0.087424 0.081992 0.009514 0.087424 0.081992 -0.400954 0.132092 0.081992 -0.419981 -0.042756 0.081992 -0.419981 -0.042756 0.081992 -0.400954 0.132092 -0.081992 -0.400954 0.132092 -0.081992 -0.419981 -0.042756 0.081992 -0.009514 -0.087424 0.081992 -0.419981 -0.042756 0.081992 0.009514 0.087424 0.081992 -0.400954 0.132092 " />
										<Normal vector="-0.577349 -0.636402 -0.511490 -0.577349 -0.511490 0.636402 -0.577349 0.636402 0.511490 -0.577349 0.511490 -0.636402 -0.577349 0.511490 -0.636402 -0.577349 0.636402 0.511490 0.577349 0.636402 0.511490 0.577349 0.511490 -0.636402 0.577349 0.511490 -0.636402 0.577349 0.636402 0.511490 0.577349 -0.511490 0.636402 0.577349 -0.636402 -0.511490 0.577349 -0.636402 -0.511490 0.577349 -0.511490 0.636402 -0.577349 -0.511490 0.636402 -0.577349 -0.636402 -0.511490 0.577349 0.511490 -0.636402 0.577349 -0.636402 -0.511490 0.577349 0.636402 0.511490 0.577349 -0.511490 0.636402 " />
										<TextureCoordinate point="0.1067 0.6223 0.3855 0.6223 0.3855 0.9011 0.1067 0.9011 0.1067 0.6223 0.3855 0.6223 0.3855 0.9011 0.1067 0.9011 0.1067 0.6223 0.3855 0.6223 0.3855 0.9011 0.1067 0.9011 0.1067 0.6223 0.3855 0.6223 0.3855 0.9011 0.1067 0.9011 0.3855 0.6223 0.3855 0.9011 0.1067 0.6223 0.1067 0.9011 " />
									</IndexedTriangleSet>
								</Shape>
							</Group>
						</Transform>
						<Transform DEF="Cube_007_TRANSFORM"
						           translation="0.002293 -0.386093 0.044468"
						           scale="1.000000 1.000000 1.000000"
						           rotation="0.000000 1.000000 0.000000 0.000000"
						           >
							<Transform DEF="Cube_007_ifs_TRANSFORM"
							           translation="0.000000 0.000000 0.000000"
							           scale="1.000000 1.000000 1.000000"
							           rotation="0.000000 1.000000 0.000000 0.000000"
							           >
								<Group DEF="group_ME_Cube_018">
									<Shape>
										<Appearance>
											<Material USE="MA_Body" />
										</Appearance>
										<IndexedTriangleSet solid="false"
										                    normalPerVertex="true"
										                    index="0 1 2 0 2 3 4 5 6 4 6 7 8 9 10 8 10 11 12 13 14 12 14 15 4 16 17 4 17 15 18 5 14 18 14 19 "
										                    >
											<Coordinate point="-0.049820 -0.383679 0.021762 -0.049820 -0.358710 0.137880 -0.049820 0.012485 0.058059 -0.049820 -0.012485 -0.058059 -0.049820 -0.012485 -0.058059 -0.049820 0.012485 0.058059 0.049820 0.012485 0.058059 0.049820 -0.012485 -0.058059 0.049820 -0.012485 -0.058059 0.049820 0.012485 0.058059 0.049820 -0.358710 0.137880 0.049820 -0.383679 0.021762 0.049820 -0.383679 0.021762 0.049820 -0.358710 0.137880 -0.049820 -0.358710 0.137880 -0.049820 -0.383679 0.021762 0.049820 -0.012485 -0.058059 0.049820 -0.383679 0.021762 0.049820 0.012485 0.058059 0.049820 -0.358710 0.137880 " />
											<Normal vector="-0.577349 -0.685812 -0.443068 -0.577349 -0.443068 0.685812 -0.577349 0.685812 0.443068 -0.577349 0.443068 -0.685812 -0.577349 0.443068 -0.685812 -0.577349 0.685812 0.443068 0.577349 0.685812 0.443068 0.577349 0.443068 -0.685812 0.577349 0.443068 -0.685812 0.577349 0.685812 0.443068 0.577349 -0.443068 0.685812 0.577349 -0.685812 -0.443068 0.577349 -0.685812 -0.443068 0.577349 -0.443068 0.685812 -0.577349 -0.443068 0.685812 -0.577349 -0.685812 -0.443068 0.577349 0.443068 -0.685812 0.577349 -0.685812 -0.443068 0.577349 0.685812 0.443068 0.577349 -0.443068 0.685812 " />
											<TextureCoordinate point="0.1067 0.6223 0.3855 0.6223 0.3855 0.9011 0.1067 0.9011 0.1067 0.6223 0.3855 0.6223 0.3855 0.9011 0.1067 0.9011 0.1067 0.6223 0.3855 0.6223 0.3855 0.9011 0.1067 0.9011 0.1067 0.6223 0.3855 0.6223 0.3855 0.9011 0.1067 0.9011 0.3855 0.6223 0.3855 0.9011 0.1067 0.6223 0.1067 0.9011 " />
										</IndexedTriangleSet>
									</Shape>
								</Group>
							</Transform>
						</Transform>
					</Transform>
				</Transform>
				<Transform DEF="Cube_008_TRANSFORM"
				           translation="0.353313 -0.344508 -0.449071"
				           scale="1.000000 1.000000 1.000000"
				           rotation="0.000000 1.000000 0.000000 0.000000"
				           >
					<Transform DEF="Cube_008_ifs_TRANSFORM"
					           translation="0.000000 0.000000 0.000000"
					           scale="1.000000 1.000000 1.000000"
					           rotation="0.000000 1.000000 0.000000 0.000000"
					           >
						<Group DEF="group_ME_Cube_019">
							<Shape>
								<Appearance>
									<Material USE="MA_Body" />
								</Appearance>
								<IndexedTriangleSet solid="false"
								                    normalPerVertex="true"
								                    index="0 1 2 0 2 3 4 5 6 4 6 7 8 9 10 8 10 11 12 13 14 12 14 15 4 16 17 4 17 15 18 5 14 18 14 19 "
								                    >
									<Coordinate point="-0.142716 0.042404 -0.099278 -0.163940 0.042404 -0.057860 -0.010612 0.042404 0.020709 0.010612 0.042404 -0.020709 0.010612 0.042404 -0.020709 -0.010612 0.042404 0.020709 -0.010612 -0.042404 0.020709 0.010612 -0.042404 -0.020709 0.010612 -0.042404 -0.020709 -0.010612 -0.042404 0.020709 -0.163940 -0.042404 -0.057860 -0.142716 -0.042404 -0.099278 -0.142716 -0.042404 -0.099278 -0.163940 -0.042404 -0.057860 -0.163940 0.042404 -0.057860 -0.142716 0.042404 -0.099278 0.010612 -0.042404 -0.020709 -0.142716 -0.042404 -0.099278 -0.010612 -0.042404 0.020709 -0.163940 -0.042404 -0.057860 " />
									<Normal vector="-0.250496 0.577349 -0.777093 -0.777093 0.577349 0.250496 0.250496 0.577349 0.777093 0.777093 0.577349 -0.250496 0.777093 0.577349 -0.250496 0.250496 0.577349 0.777093 0.250496 -0.577349 0.777093 0.777093 -0.577349 -0.250496 0.777093 -0.577349 -0.250496 0.250496 -0.577349 0.777093 -0.777093 -0.577349 0.250496 -0.250496 -0.577349 -0.777093 -0.250496 -0.577349 -0.777093 -0.777093 -0.577349 0.250496 -0.777093 0.577349 0.250496 -0.250496 0.577349 -0.777093 0.777093 -0.577349 -0.250496 -0.250496 -0.577349 -0.777093 0.250496 -0.577349 0.777093 -0.777093 -0.577349 0.250496 " />
									<TextureCoordinate point="0.0676 0.0319 0.3811 0.0319 0.3811 0.2102 0.0676 0.2102 0.0676 0.0319 0.3811 0.0319 0.3811 0.2102 0.0676 0.2102 0.0676 0.0319 0.3811 0.0319 0.3811 0.2102 0.0676 0.2102 0.0676 0.0319 0.3811 0.0319 0.3811 0.2102 0.0676 0.2102 0.3811 0.0319 0.3811 0.2102 0.0676 0.0319 0.0676 0.2102 " />
								</IndexedTriangleSet>
							</Shape>
						</Group>
					</Transform>
				</Transform>
				<Transform DEF="Cube_009_TRANSFORM"
				           translation="-0.392277 -0.404743 -0.012539"
				           scale="1.000000 1.000000 1.000000"
				           rotation="0.000000 1.000000 0.000000 0.000000"
				           >
					<Transform DEF="Cube_009_ifs_TRANSFORM"
					           translation="0.000000 0.000000 0.000000"
					           scale="1.000000 1.000000 1.000000"
					           rotation="0.000000 1.000000 0.000000 0.000000"
					           >
						<Group DEF="group_ME_Cube_009">
							<Shape>
								<Appearance>
									<Material USE="MA_Eye" />
								</Appearance>
								<IndexedTriangleSet solid="false"
								                    normalPerVertex="true"
								                    index="0 1 2 0 2 3 4 5 6 4 6 7 8 9 10 8 10 11 12 13 14 12 14 15 4 13 16 4 16 17 18 19 14 18 14 7 "
								                    >
									<Coordinate point="0.040236 -0.218612 -0.269902 -0.054578 0.275621 -0.213625 -0.041000 0.223110 0.270411 0.053814 -0.271123 0.214135 -0.054578 0.275621 -0.213625 -0.202425 0.248911 -0.212376 -0.188847 0.196401 0.271661 -0.041000 0.223110 0.270411 -0.202425 0.248911 -0.212376 -0.107610 -0.245322 -0.268652 -0.094032 -0.297833 0.215385 -0.188847 0.196401 0.271661 -0.107610 -0.245322 -0.268652 0.040236 -0.218612 -0.269902 0.053814 -0.271123 0.214135 -0.094032 -0.297833 0.215385 -0.107610 -0.245322 -0.268652 -0.202425 0.248911 -0.212376 -0.188847 0.196401 0.271661 -0.094032 -0.297833 0.215385 " />
									<Normal vector="0.656575 -0.396252 -0.641743 0.446364 0.731986 -0.514664 0.478591 0.607379 0.634022 0.688742 -0.520615 0.504532 0.446364 0.731986 -0.514664 -0.688742 0.520615 -0.504532 -0.656575 0.396252 0.641743 0.478591 0.607379 0.634022 -0.688742 0.520615 -0.504532 -0.478591 -0.607379 -0.634022 -0.446364 -0.731986 0.514664 -0.656575 0.396252 0.641743 -0.478591 -0.607379 -0.634022 0.656575 -0.396252 -0.641743 0.688742 -0.520615 0.504532 -0.446364 -0.731986 0.514664 -0.478591 -0.607379 -0.634022 -0.688742 0.520615 -0.504532 -0.656575 0.396252 0.641743 -0.446364 -0.731986 0.514664 " />
									<TextureCoordinate point="0.8294 0.9127 0.8294 0.9779 0.9675 0.9779 0.9675 0.9127 0.8294 0.9127 0.8294 0.9779 0.9675 0.9779 0.9675 0.9127 1.0000 0.4961 0.0000 0.4961 0.0000 0.9961 1.0000 0.9961 0.8294 0.9127 0.8294 0.9779 0.9675 0.9779 0.9675 0.9127 0.9675 0.9779 0.9675 0.9127 0.8294 0.9127 0.8294 0.9779 " />
								</IndexedTriangleSet>
							</Shape>
						</Group>
					</Transform>
					<Transform DEF="Cube_002_TRANSFORM"
					           translation="0.000000 -0.000000 0.000000"
					           scale="1.000000 1.000000 1.000000"
					           rotation="0.000000 1.000000 0.000000 0.000000"
					           >
						<Transform DEF="Cube_002_ifs_TRANSFORM"
						           translation="0.000000 0.000000 0.000000"
						           scale="1.000000 1.000000 1.000000"
						           rotation="0.000000 1.000000 0.000000 0.000000"
						           >
							<Group DEF="group_ME_Cube_005">
								<Shape>
									<Appearance>
										<Material USE="MA_Glass" />
									</Appearance>
									<IndexedTriangleSet solid="false"
									                    normalPerVertex="true"
									                    index="0 1 2 0 2 3 4 5 6 4 6 7 8 9 10 8 10 11 12 13 14 12 14 15 4 13 16 4 16 17 18 19 14 18 14 7 "
									                    >
										<Coordinate point="-0.007718 -0.256296 -0.306161 -0.007718 0.315988 -0.244077 0.007718 0.256296 0.306161 0.007718 -0.315988 0.244077 -0.007718 0.315988 -0.244077 -0.228657 0.315323 -0.237952 -0.213222 0.255631 0.312287 0.007718 0.256296 0.306161 -0.228657 0.315323 -0.237952 -0.228657 -0.256960 -0.300036 -0.213222 -0.316653 0.250203 -0.213222 0.255631 0.312287 -0.228657 -0.256960 -0.300036 -0.007718 -0.256296 -0.306161 0.007718 -0.315988 0.244077 -0.213222 -0.316653 0.250203 -0.228657 -0.256960 -0.300036 -0.228657 0.315323 -0.237952 -0.213222 0.255631 0.312287 -0.213222 -0.316653 0.250203 " />
										<Normal vector="0.561022 -0.509995 -0.652028 0.561022 0.637959 -0.527482 0.593219 0.513474 0.620014 0.593219 -0.634480 0.495468 0.561022 0.637959 -0.527482 -0.593219 0.634480 -0.495468 -0.561022 0.509995 0.652028 0.593219 0.513474 0.620014 -0.593219 0.634480 -0.495468 -0.593219 -0.513474 -0.620014 -0.561022 -0.637959 0.527482 -0.561022 0.509995 0.652028 -0.593219 -0.513474 -0.620014 0.561022 -0.509995 -0.652028 0.593219 -0.634480 0.495468 -0.561022 -0.637959 0.527482 -0.593219 -0.513474 -0.620014 -0.593219 0.634480 -0.495468 -0.561022 0.509995 0.652028 -0.561022 -0.637959 0.527482 " />
										<TextureCoordinate point="0.2342 0.2687 0.2342 0.4508 0.4557 0.4508 0.4557 0.2687 0.2342 0.2687 0.2342 0.4508 0.4557 0.4508 0.4557 0.2687 0.2342 0.2687 0.2342 0.4508 0.4557 0.4508 0.4557 0.2687 0.2342 0.2687 0.2342 0.4508 0.4557 0.4508 0.4557 0.2687 0.4557 0.4508 0.4557 0.2687 0.2342 0.2687 0.2342 0.4508 " />
									</IndexedTriangleSet>
								</Shape>
							</Group>
						</Transform>
					</Transform>
				</Transform>
				<Transform DEF="Cube_010_TRANSFORM"
				           translation="-0.172896 -0.826029 0.247462"
				           scale="1.000000 1.000000 1.000000"
				           rotation="0.000000 1.000000 0.000000 0.000000"
				           >
					<Transform DEF="Cube_010_ifs_TRANSFORM"
					           translation="0.000000 0.000000 0.000000"
					           scale="1.000000 1.000000 1.000000"
					           rotation="0.000000 1.000000 0.000000 0.000000"
					           >
						<Group DEF="group_ME_Cube_020">
							<Shape>
								<Appearance>
									<Material USE="MA_Body" />
								</Appearance>
								<IndexedTriangleSet solid="false"
								                    normalPerVertex="true"
								                    index="0 1 2 0 2 3 4 5 6 4 6 7 8 9 10 8 10 11 12 13 14 12 14 15 4 13 16 4 16 17 18 19 14 18 14 7 "
								                    >
									<Coordinate point="0.102153 -0.426433 -0.082681 0.102153 -0.006950 -0.109343 0.102153 0.006950 0.109343 0.102153 -0.412533 0.136005 0.102153 -0.006950 -0.109343 -0.102153 -0.006950 -0.109343 -0.102153 0.006950 0.109343 0.102153 0.006950 0.109343 -0.102153 -0.006950 -0.109343 -0.102153 -0.426433 -0.082681 -0.102153 -0.412533 0.136005 -0.102153 0.006950 0.109343 -0.102153 -0.426433 -0.082681 0.102153 -0.426433 -0.082681 0.102153 -0.412533 0.136005 -0.102153 -0.412533 0.136005 -0.102153 -0.426433 -0.082681 -0.102153 -0.006950 -0.109343 -0.102153 0.006950 0.109343 -0.102153 -0.412533 0.136005 " />
									<Normal vector="0.577349 -0.612781 -0.539537 0.577349 0.539537 -0.612781 0.577349 0.612781 0.539537 0.577349 -0.539537 0.612781 0.577349 0.539537 -0.612781 -0.577349 0.539537 -0.612781 -0.577349 0.612781 0.539537 0.577349 0.612781 0.539537 -0.577349 0.539537 -0.612781 -0.577349 -0.612781 -0.539537 -0.577349 -0.539537 0.612781 -0.577349 0.612781 0.539537 -0.577349 -0.612781 -0.539537 0.577349 -0.612781 -0.539537 0.577349 -0.539537 0.612781 -0.577349 -0.539537 0.612781 -0.577349 -0.612781 -0.539537 -0.577349 0.539537 -0.612781 -0.577349 0.612781 0.539537 -0.577349 -0.539537 0.612781 " />
									<TextureCoordinate point="0.1067 0.6223 0.1067 0.9011 0.3855 0.9011 0.3855 0.6223 0.1067 0.6223 0.1067 0.9011 0.3855 0.9011 0.3855 0.6223 0.1067 0.6223 0.1067 0.9011 0.3855 0.9011 0.3855 0.6223 0.1067 0.6223 0.1067 0.9011 0.3855 0.9011 0.3855 0.6223 0.3855 0.9011 0.3855 0.6223 0.1067 0.6223 0.1067 0.9011 " />
								</IndexedTriangleSet>
							</Shape>
						</Group>
					</Transform>
					<Transform DEF="Cube_011_TRANSFORM"
					           translation="0.000000 -0.398730 0.025343"
					           scale="1.000000 1.000000 1.000000"
					           rotation="0.000000 1.000000 0.000000 0.000000"
					           >
						<Transform DEF="Cube_011_ifs_TRANSFORM"
						           translation="0.000000 0.000000 0.000000"
						           scale="1.000000 1.000000 1.000000"
						           rotation="0.000000 1.000000 0.000000 0.000000"
						           >
							<Group DEF="group_ME_Cube_021">
								<Shape>
									<Appearance>
										<Material USE="MA_Body" />
									</Appearance>
									<IndexedTriangleSet solid="false"
									                    normalPerVertex="true"
									                    index="0 1 2 0 2 3 4 5 6 4 6 7 8 9 10 8 10 11 12 13 14 12 14 15 4 13 16 4 16 17 18 19 14 18 14 7 "
									                    >
										<Coordinate point="0.081992 -0.419981 -0.042756 0.081992 -0.009514 -0.087424 0.081992 0.009514 0.087424 0.081992 -0.400954 0.132092 0.081992 -0.009514 -0.087424 -0.081992 -0.009514 -0.087424 -0.081992 0.009514 0.087424 0.081992 0.009514 0.087424 -0.081992 -0.009514 -0.087424 -0.081992 -0.419981 -0.042756 -0.081992 -0.400954 0.132092 -0.081992 0.009514 0.087424 -0.081992 -0.419981 -0.042756 0.081992 -0.419981 -0.042756 0.081992 -0.400954 0.132092 -0.081992 -0.400954 0.132092 -0.081992 -0.419981 -0.042756 -0.081992 -0.009514 -0.087424 -0.081992 0.009514 0.087424 -0.081992 -0.400954 0.132092 " />
										<Normal vector="0.577349 -0.636402 -0.511490 0.577349 0.511490 -0.636402 0.577349 0.636402 0.511490 0.577349 -0.511490 0.636402 0.577349 0.511490 -0.636402 -0.577349 0.511490 -0.636402 -0.577349 0.636402 0.511490 0.577349 0.636402 0.511490 -0.577349 0.511490 -0.636402 -0.577349 -0.636402 -0.511490 -0.577349 -0.511490 0.636402 -0.577349 0.636402 0.511490 -0.577349 -0.636402 -0.511490 0.577349 -0.636402 -0.511490 0.577349 -0.511490 0.636402 -0.577349 -0.511490 0.636402 -0.577349 -0.636402 -0.511490 -0.577349 0.511490 -0.636402 -0.577349 0.636402 0.511490 -0.577349 -0.511490 0.636402 " />
										<TextureCoordinate point="0.1067 0.6223 0.1067 0.9011 0.3855 0.9011 0.3855 0.6223 0.1067 0.6223 0.1067 0.9011 0.3855 0.9011 0.3855 0.6223 0.1067 0.6223 0.1067 0.9011 0.3855 0.9011 0.3855 0.6223 0.1067 0.6223 0.1067 0.9011 0.3855 0.9011 0.3855 0.6223 0.3855 0.9011 0.3855 0.6223 0.1067 0.6223 0.1067 0.9011 " />
									</IndexedTriangleSet>
								</Shape>
							</Group>
						</Transform>
						<Transform DEF="Cube_012_TRANSFORM"
						           translation="-0.002293 -0.386093 0.044468"
						           scale="1.000000 1.000000 1.000000"
						           rotation="0.000000 1.000000 0.000000 0.000000"
						           >
							<Transform DEF="Cube_012_ifs_TRANSFORM"
							           translation="0.000000 0.000000 0.000000"
							           scale="1.000000 1.000000 1.000000"
							           rotation="0.000000 1.000000 0.000000 0.000000"
							           >
								<Group DEF="group_ME_Cube_022">
									<Shape>
										<Appearance>
											<Material USE="MA_Body" />
										</Appearance>
										<IndexedTriangleSet solid="false"
										                    normalPerVertex="true"
										                    index="0 1 2 0 2 3 4 5 6 4 6 7 8 9 10 8 10 11 12 13 14 12 14 15 4 13 16 4 16 17 18 19 14 18 14 7 "
										                    >
											<Coordinate point="0.049820 -0.383679 0.021762 0.049820 -0.012485 -0.058059 0.049820 0.012485 0.058059 0.049820 -0.358710 0.137880 0.049820 -0.012485 -0.058059 -0.049820 -0.012485 -0.058059 -0.049820 0.012485 0.058059 0.049820 0.012485 0.058059 -0.049820 -0.012485 -0.058059 -0.049820 -0.383679 0.021762 -0.049820 -0.358710 0.137880 -0.049820 0.012485 0.058059 -0.049820 -0.383679 0.021762 0.049820 -0.383679 0.021762 0.049820 -0.358710 0.137880 -0.049820 -0.358710 0.137880 -0.049820 -0.383679 0.021762 -0.049820 -0.012485 -0.058059 -0.049820 0.012485 0.058059 -0.049820 -0.358710 0.137880 " />
											<Normal vector="0.577349 -0.685812 -0.443068 0.577349 0.443068 -0.685812 0.577349 0.685812 0.443068 0.577349 -0.443068 0.685812 0.577349 0.443068 -0.685812 -0.577349 0.443068 -0.685812 -0.577349 0.685812 0.443068 0.577349 0.685812 0.443068 -0.577349 0.443068 -0.685812 -0.577349 -0.685812 -0.443068 -0.577349 -0.443068 0.685812 -0.577349 0.685812 0.443068 -0.577349 -0.685812 -0.443068 0.577349 -0.685812 -0.443068 0.577349 -0.443068 0.685812 -0.577349 -0.443068 0.685812 -0.577349 -0.685812 -0.443068 -0.577349 0.443068 -0.685812 -0.577349 0.685812 0.443068 -0.577349 -0.443068 0.685812 " />
											<TextureCoordinate point="0.1067 0.6223 0.1067 0.9011 0.3855 0.9011 0.3855 0.6223 0.1067 0.6223 0.1067 0.9011 0.3855 0.9011 0.3855 0.6223 0.1067 0.6223 0.1067 0.9011 0.3855 0.9011 0.3855 0.6223 0.1067 0.6223 0.1067 0.9011 0.3855 0.9011 0.3855 0.6223 0.3855 0.9011 0.3855 0.6223 0.1067 0.6223 0.1067 0.9011 " />
										</IndexedTriangleSet>
									</Shape>
								</Group>
							</Transform>
						</Transform>
					</Transform>
				</Transform>
				<Transform DEF="Cube_013_TRANSFORM"
				           translation="-0.353313 -0.344508 -0.449071"
				           scale="1.000000 1.000000 1.000000"
				           rotation="0.000000 1.000000 0.000000 0.000000"
				           >
					<Transform DEF="Cube_013_ifs_TRANSFORM"
					           translation="0.000000 0.000000 0.000000"
					           scale="1.000000 1.000000 1.000000"
					           rotation="0.000000 1.000000 0.000000 0.000000"
					           >
						<Group DEF="group_ME_Cube_023">
							<Shape>
								<Appearance>
									<Material USE="MA_Body" />
								</Appearance>
								<IndexedTriangleSet solid="false"
								                    normalPerVertex="true"
								                    index="0 1 2 0 2 3 4 5 6 4 6 7 8 9 10 8 10 11 12 13 14 12 14 15 4 13 16 4 16 17 18 19 14 18 14 7 "
								                    >
									<Coordinate point="0.142716 0.042404 -0.099278 -0.010612 0.042404 -0.020709 0.010612 0.042404 0.020709 0.163940 0.042404 -0.057860 -0.010612 0.042404 -0.020709 -0.010612 -0.042404 -0.020709 0.010612 -0.042404 0.020709 0.010612 0.042404 0.020709 -0.010612 -0.042404 -0.020709 0.142716 -0.042404 -0.099278 0.163940 -0.042404 -0.057860 0.010612 -0.042404 0.020709 0.142716 -0.042404 -0.099278 0.142716 0.042404 -0.099278 0.163940 0.042404 -0.057860 0.163940 -0.042404 -0.057860 0.142716 -0.042404 -0.099278 -0.010612 -0.042404 -0.020709 0.010612 -0.042404 0.020709 0.163940 -0.042404 -0.057860 " />
									<Normal vector="0.250496 0.577349 -0.777093 -0.777093 0.577349 -0.250496 -0.250496 0.577349 0.777093 0.777093 0.577349 0.250496 -0.777093 0.577349 -0.250496 -0.777093 -0.577349 -0.250496 -0.250496 -0.577349 0.777093 -0.250496 0.577349 0.777093 -0.777093 -0.577349 -0.250496 0.250496 -0.577349 -0.777093 0.777093 -0.577349 0.250496 -0.250496 -0.577349 0.777093 0.250496 -0.577349 -0.777093 0.250496 0.577349 -0.777093 0.777093 0.577349 0.250496 0.777093 -0.577349 0.250496 0.250496 -0.577349 -0.777093 -0.777093 -0.577349 -0.250496 -0.250496 -0.577349 0.777093 0.777093 -0.577349 0.250496 " />
									<TextureCoordinate point="0.0676 0.0319 0.0676 0.2102 0.3811 0.2102 0.3811 0.0319 0.0676 0.0319 0.0676 0.2102 0.3811 0.2102 0.3811 0.0319 0.0676 0.0319 0.0676 0.2102 0.3811 0.2102 0.3811 0.0319 0.0676 0.0319 0.0676 0.2102 0.3811 0.2102 0.3811 0.0319 0.3811 0.2102 0.3811 0.0319 0.0676 0.0319 0.0676 0.2102 " />
								</IndexedTriangleSet>
							</Shape>
						</Group>
					</Transform>
				</Transform>
			</Transform>
			<Transform DEF="leg4_TRANSFORM"
			           translation="0.433301 0.037050 0.288849"
			           scale="1.000000 1.000000 1.000000"
			           rotation="0.000000 1.000000 0.000000 0.000000"
			           >
				<Transform DEF="leg4_ifs_TRANSFORM"
				           translation="0.000000 0.000000 0.000000"
				           scale="1.000000 1.000000 1.000000"
				           rotation="0.000000 1.000000 0.000000 0.000000"
				           >
					<Group DEF="group_ME_leg4">
						<Shape>
							<Appearance>
								<Material USE="MA_Body" />
							</Appearance>
							<IndexedTriangleSet solid="false"
							                    normalPerVertex="true"
							                    index="0 1 2 0 2 3 4 5 6 4 6 7 8 9 10 8 10 11 12 13 14 12 14 15 4 16 17 4 17 15 18 5 14 18 14 19 "
							                    >
								<Coordinate point="0.000000 -0.060538 -0.051483 0.000000 -0.060538 0.051483 0.000000 0.060538 0.051483 0.000000 0.060538 -0.051483 0.000000 0.060538 -0.051483 0.000000 0.060538 0.051483 0.549445 0.060538 0.051483 0.549445 0.060538 -0.051483 0.549445 0.060538 -0.051483 0.549445 0.060538 0.051483 0.549445 -0.060538 0.051483 0.549445 -0.060538 -0.051483 0.549445 -0.060538 -0.051483 0.549445 -0.060538 0.051483 0.000000 -0.060538 0.051483 0.000000 -0.060538 -0.051483 0.549445 0.060538 -0.051483 0.549445 -0.060538 -0.051483 0.549445 0.060538 0.051483 0.549445 -0.060538 0.051483 " />
								<Normal vector="-0.577349 -0.577349 -0.577349 -0.577349 -0.577349 0.577349 -0.577349 0.577349 0.577349 -0.577349 0.577349 -0.577349 -0.577349 0.577349 -0.577349 -0.577349 0.577349 0.577349 0.577349 0.577349 0.577349 0.577349 0.577349 -0.577349 0.577349 0.577349 -0.577349 0.577349 0.577349 0.577349 0.577349 -0.577349 0.577349 0.577349 -0.577349 -0.577349 0.577349 -0.577349 -0.577349 0.577349 -0.577349 0.577349 -0.577349 -0.577349 0.577349 -0.577349 -0.577349 -0.577349 0.577349 0.577349 -0.577349 0.577349 -0.577349 -0.577349 0.577349 0.577349 0.577349 0.577349 -0.577349 0.577349 " />
								<TextureCoordinate point="0.0354 0.2815 0.1968 0.2815 0.1968 0.4429 0.0354 0.4429 0.0354 0.2815 0.1968 0.2815 0.1968 0.4429 0.0354 0.4429 0.0354 0.2815 0.1968 0.2815 0.1968 0.4429 0.0354 0.4429 0.0354 0.2815 0.1968 0.2815 0.1968 0.4429 0.0354 0.4429 0.1968 0.2815 0.1968 0.4429 0.0354 0.2815 0.0354 0.4429 " />
							</IndexedTriangleSet>
						</Shape>
					</Group>
				</Transform>
				<Transform DEF="leg4_1_TRANSFORM"
				           translation="0.542414 -0.000000 0.004326"
				           scale="1.000000 1.000000 1.000000"
				           rotation="0.000000 1.000000 0.000000 0.000000"
				           >
					<Transform DEF="leg4_1_ifs_TRANSFORM"
					           translation="0.000000 0.000000 0.000000"
					           scale="1.000000 1.000000 1.000000"
					           rotation="0.000000 1.000000 0.000000 0.000000"
					           >
						<Group DEF="group_ME_leg4_1">
							<Shape>
								<Appearance>
									<Material USE="MA_Body" />
								</Appearance>
								<IndexedTriangleSet solid="false"
								                    normalPerVertex="true"
								                    index="0 1 2 0 2 3 4 5 6 4 6 7 8 9 10 8 10 11 12 13 14 12 14 15 4 16 17 4 17 15 18 5 14 18 14 19 "
								                    >
									<Coordinate point="-0.064453 -0.056417 -0.012169 0.064453 -0.056417 0.012169 0.064453 0.056417 0.012169 -0.064453 0.056417 -0.012169 -0.064453 0.056417 -0.012169 0.064453 0.056417 0.012169 0.201830 0.056417 -0.715428 0.072924 0.056417 -0.739766 0.072924 0.056417 -0.739766 0.201830 0.056417 -0.715428 0.201830 -0.056417 -0.715428 0.072924 -0.056417 -0.739766 0.072924 -0.056417 -0.739766 0.201830 -0.056417 -0.715428 0.064453 -0.056417 0.012169 -0.064453 -0.056417 -0.012169 0.072924 0.056417 -0.739766 0.072924 -0.056417 -0.739766 0.201830 0.056417 -0.715428 0.201830 -0.056417 -0.715428 " />
									<Normal vector="-0.674429 -0.577349 0.460189 0.460189 -0.577349 0.674429 0.460189 0.577349 0.674429 -0.674429 0.577349 0.460189 -0.674429 0.577349 0.460189 0.460189 0.577349 0.674429 0.674429 0.577349 -0.460189 -0.460189 0.577349 -0.674429 -0.460189 0.577349 -0.674429 0.674429 0.577349 -0.460189 0.674429 -0.577349 -0.460189 -0.460189 -0.577349 -0.674429 -0.460189 -0.577349 -0.674429 0.674429 -0.577349 -0.460189 0.460189 -0.577349 0.674429 -0.674429 -0.577349 0.460189 -0.460189 0.577349 -0.674429 -0.460189 -0.577349 -0.674429 0.674429 0.577349 -0.460189 0.674429 -0.577349 -0.460189 " />
									<TextureCoordinate point="0.0354 0.2815 0.1968 0.2815 0.1968 0.4429 0.0354 0.4429 0.0354 0.2815 0.1968 0.2815 0.1968 0.4429 0.0354 0.4429 0.0354 0.2815 0.1968 0.2815 0.1968 0.4429 0.0354 0.4429 0.0354 0.2815 0.1968 0.2815 0.1968 0.4429 0.0354 0.4429 0.1968 0.2815 0.1968 0.4429 0.0354 0.2815 0.0354 0.4429 " />
								</IndexedTriangleSet>
							</Shape>
						</Group>
					</Transform>
					<Transform DEF="foot4_TRANSFORM"
					           translation="0.124747 0.000510 -0.704826"
					           scale="1.000000 1.000000 1.000000"
					           rotation="0.000000 1.000000 0.000000 0.000000"
					           >
						<Transform DEF="foot4_ifs_TRANSFORM"
						           translation="0.000000 0.000000 0.000000"
						           scale="1.000000 1.000000 1.000000"
						           rotation="0.000000 1.000000 0.000000 0.000000"
						           >
							<Group DEF="group_ME_foot4">
								<Shape>
									<Appearance>
										<Material USE="MA_Body" />
									</Appearance>
									<IndexedTriangleSet solid="false"
									                    normalPerVertex="true"
									                    index="0 1 2 0 2 3 4 5 6 4 6 7 8 9 10 8 10 11 12 13 14 12 14 15 4 16 17 4 17 15 18 5 14 18 14 19 "
									                    >
										<Coordinate point="-0.384800 -0.065989 -0.000807 0.385067 -0.064386 -0.002024 0.384800 0.065989 0.000807 -0.385067 0.064386 0.002024 -0.385067 0.064386 0.002024 0.384800 0.065989 0.000807 0.384630 0.068254 -0.103540 -0.385237 0.066651 -0.102323 -0.385237 0.066651 -0.102323 0.384630 0.068254 -0.103540 0.384897 -0.062122 -0.106370 -0.384970 -0.063724 -0.105153 -0.384970 -0.063724 -0.105153 0.384897 -0.062122 -0.106370 0.385067 -0.064386 -0.002024 -0.384800 -0.065989 -0.000807 -0.385237 0.066651 -0.102323 -0.384970 -0.063724 -0.105153 0.384630 0.068254 -0.103540 0.384897 -0.062122 -0.106370 " />
										<Normal vector="-0.575213 -0.590930 0.565569 0.579455 -0.588519 0.563768 0.577105 0.565874 0.588824 -0.577563 0.563463 0.590655 -0.577563 0.563463 0.590655 0.577105 0.565874 0.588824 0.575213 0.590930 -0.565569 -0.579455 0.588519 -0.563768 -0.579455 0.588519 -0.563768 0.575213 0.590930 -0.565569 0.577563 -0.563463 -0.590655 -0.577105 -0.565874 -0.588824 -0.577105 -0.565874 -0.588824 0.577563 -0.563463 -0.590655 0.579455 -0.588519 0.563768 -0.575213 -0.590930 0.565569 -0.579455 0.588519 -0.563768 -0.577105 -0.565874 -0.588824 0.575213 0.590930 -0.565569 0.577563 -0.563463 -0.590655 " />
										<TextureCoordinate point="0.0354 0.2815 0.1968 0.2815 0.1968 0.4429 0.0354 0.4429 0.0354 0.2815 0.1968 0.2815 0.1968 0.4429 0.0354 0.4429 0.0354 0.2815 0.1968 0.2815 0.1968 0.4429 0.0354 0.4429 0.0354 0.2815 0.1968 0.2815 0.1968 0.4429 0.0354 0.4429 0.1968 0.2815 0.1968 0.4429 0.0354 0.2815 0.0354 0.4429 " />
									</IndexedTriangleSet>
								</Shape>
							</Group>
						</Transform>
					</Transform>
				</Transform>
			</Transform>
			<Transform DEF="tail_TRANSFORM"
			           translation="0.000000 0.205391 0.415011"
			           scale="1.000000 1.000000 1.000000"
			           rotation="0.000000 1.000000 0.000000 0.000000"
			           >
				<Transform DEF="tail_ifs_TRANSFORM"
				           translation="0.000000 0.000000 0.000000"
				           scale="1.000000 1.000000 1.000000"
				           rotation="0.000000 1.000000 0.000000 0.000000"
				           >
					<Group DEF="group_ME_tail">
						<Shape>
							<Appearance>
								<Material USE="MA_Body" />
							</Appearance>
							<IndexedTriangleSet solid="false"
							                    normalPerVertex="true"
							                    index="0 1 2 0 2 3 4 5 6 4 6 7 8 9 10 8 10 11 12 13 14 12 14 15 4 16 17 4 17 15 18 5 14 18 14 19 "
							                    >
								<Coordinate point="-0.418867 -0.008447 0.356097 -0.418867 0.559103 0.369561 -0.418867 0.575998 -0.342634 -0.418867 0.008447 -0.356097 -0.418867 0.008447 -0.356097 -0.418867 0.575998 -0.342634 0.418867 0.575998 -0.342634 0.418867 0.008447 -0.356097 0.418867 0.008447 -0.356097 0.418867 0.575998 -0.342634 0.418867 0.559103 0.369561 0.418867 -0.008447 0.356097 0.418867 -0.008447 0.356097 0.418867 0.559103 0.369561 -0.418867 0.559103 0.369561 -0.418867 -0.008447 0.356097 0.418867 0.008447 -0.356097 0.418867 -0.008447 0.356097 0.418867 0.575998 -0.342634 0.418867 0.559103 0.369561 " />
								<Normal vector="-0.577349 -0.590869 0.563494 -0.577349 0.563494 0.590869 -0.577349 0.590869 -0.563494 -0.577349 -0.563494 -0.590869 -0.577349 -0.563494 -0.590869 -0.577349 0.590869 -0.563494 0.577349 0.590869 -0.563494 0.577349 -0.563494 -0.590869 0.577349 -0.563494 -0.590869 0.577349 0.590869 -0.563494 0.577349 0.563494 0.590869 0.577349 -0.590869 0.563494 0.577349 -0.590869 0.563494 0.577349 0.563494 0.590869 -0.577349 0.563494 0.590869 -0.577349 -0.590869 0.563494 0.577349 -0.563494 -0.590869 0.577349 -0.590869 0.563494 0.577349 0.590869 -0.563494 0.577349 0.563494 0.590869 " />
								<TextureCoordinate point="0.0401 0.5139 0.4383 0.5139 0.4383 0.9685 0.0401 0.9685 0.0401 0.5139 0.4383 0.5139 0.4383 0.9685 0.0401 0.9685 0.0401 0.5139 0.4383 0.5139 0.4383 0.9685 0.0401 0.9685 0.0401 0.5139 0.4383 0.5139 0.4383 0.9685 0.0401 0.9685 0.4383 0.5139 0.4383 0.9685 0.0401 0.5139 0.0401 0.9685 " />
							</IndexedTriangleSet>
						</Shape>
					</Group>
				</Transform>
				<Transform DEF="tail1_TRANSFORM"
				           translation="0.000000 0.522788 0.026468"
				           scale="1.000000 1.000000 1.000000"
				           rotation="0.000000 1.000000 0.000000 0.000000"
				           >
					<Transform DEF="tail1_ifs_TRANSFORM"
					           translation="0.000000 0.000000 0.000000"
					           scale="1.000000 1.000000 1.000000"
					           rotation="0.000000 1.000000 0.000000 0.000000"
					           >
						<Group DEF="group_ME_tail1">
							<Shape>
								<Appearance>
									<Material USE="MA_Body" />
								</Appearance>
								<IndexedTriangleSet solid="false"
								                    normalPerVertex="true"
								                    index="0 1 2 0 2 3 4 5 6 4 6 7 8 9 10 8 10 11 12 13 14 12 14 15 4 16 17 4 17 15 18 5 14 18 14 19 "
								                    >
									<Coordinate point="-0.352407 -0.011123 0.299475 -0.352407 0.611315 0.322594 -0.352407 0.633562 -0.276355 -0.352407 0.011123 -0.299475 -0.352407 0.011123 -0.299475 -0.352407 0.633562 -0.276355 0.352407 0.633562 -0.276355 0.352407 0.011123 -0.299475 0.352407 0.011123 -0.299475 0.352407 0.633562 -0.276355 0.352407 0.611315 0.322594 0.352407 -0.011123 0.299475 0.352407 -0.011123 0.299475 0.352407 0.611315 0.322594 -0.352407 0.611315 0.322594 -0.352407 -0.011123 0.299475 0.352407 0.011123 -0.299475 0.352407 -0.011123 0.299475 0.352407 0.633562 -0.276355 0.352407 0.611315 0.322594 " />
									<Normal vector="-0.577349 -0.598376 0.555498 -0.577349 0.555498 0.598376 -0.577349 0.598376 -0.555498 -0.577349 -0.555498 -0.598376 -0.577349 -0.555498 -0.598376 -0.577349 0.598376 -0.555498 0.577349 0.598376 -0.555498 0.577349 -0.555498 -0.598376 0.577349 -0.555498 -0.598376 0.577349 0.598376 -0.555498 0.577349 0.555498 0.598376 0.577349 -0.598376 0.555498 0.577349 -0.598376 0.555498 0.577349 0.555498 0.598376 -0.577349 0.555498 0.598376 -0.577349 -0.598376 0.555498 0.577349 -0.555498 -0.598376 0.577349 -0.598376 0.555498 0.577349 0.598376 -0.555498 0.577349 0.555498 0.598376 " />
									<TextureCoordinate point="0.0401 0.5139 0.4383 0.5139 0.4383 0.9685 0.0401 0.9685 0.0401 0.5139 0.4383 0.5139 0.4383 0.9685 0.0401 0.9685 0.0401 0.5139 0.4383 0.5139 0.4383 0.9685 0.0401 0.9685 0.0401 0.5139 0.4383 0.5139 0.4383 0.9685 0.0401 0.9685 0.4383 0.5139 0.4383 0.9685 0.0401 0.5139 0.0401 0.9685 " />
								</IndexedTriangleSet>
							</Shape>
						</Group>
					</Transform>
					<Transform DEF="tail2_TRANSFORM"
					           translation="0.000000 0.574547 0.064134"
					           scale="1.000000 1.000000 1.000000"
					           rotation="0.000000 1.000000 0.000000 0.000000"
					           >
						<Transform DEF="tail2_ifs_TRANSFORM"
						           translation="0.000000 0.000000 0.000000"
						           scale="1.000000 1.000000 1.000000"
						           rotation="0.000000 1.000000 0.000000 0.000000"
						           >
							<Group DEF="group_ME_tail2">
								<Shape>
									<Appearance>
										<Material USE="MA_Body" />
									</Appearance>
									<IndexedTriangleSet solid="false"
									                    normalPerVertex="true"
									                    index="0 1 2 0 2 3 4 5 6 4 6 7 8 9 10 8 10 11 12 13 14 12 14 15 4 16 17 4 17 15 18 5 14 18 14 19 "
									                    >
										<Coordinate point="-0.284236 -0.013414 0.241337 -0.284236 0.561867 0.273312 -0.284236 0.588694 -0.209362 -0.284236 0.013414 -0.241337 -0.284236 0.013414 -0.241337 -0.284236 0.588694 -0.209362 0.284236 0.588694 -0.209362 0.284236 0.013414 -0.241337 0.284236 0.013414 -0.241337 0.284236 0.588694 -0.209362 0.284236 0.561867 0.273312 0.284236 -0.013414 0.241337 0.284236 -0.013414 0.241337 0.284236 0.561867 0.273312 -0.284236 0.561867 0.273312 -0.284236 -0.013414 0.241337 0.284236 0.013414 -0.241337 0.284236 -0.013414 0.241337 0.284236 0.588694 -0.209362 0.284236 0.561867 0.273312 " />
										<Normal vector="-0.577349 -0.608478 0.544420 -0.577349 0.544420 0.608478 -0.577349 0.608478 -0.544420 -0.577349 -0.544420 -0.608478 -0.577349 -0.544420 -0.608478 -0.577349 0.608478 -0.544420 0.577349 0.608478 -0.544420 0.577349 -0.544420 -0.608478 0.577349 -0.544420 -0.608478 0.577349 0.608478 -0.544420 0.577349 0.544420 0.608478 0.577349 -0.608478 0.544420 0.577349 -0.608478 0.544420 0.577349 0.544420 0.608478 -0.577349 0.544420 0.608478 -0.577349 -0.608478 0.544420 0.577349 -0.544420 -0.608478 0.577349 -0.608478 0.544420 0.577349 0.608478 -0.544420 0.577349 0.544420 0.608478 " />
										<TextureCoordinate point="0.0401 0.5139 0.4383 0.5139 0.4383 0.9685 0.0401 0.9685 0.0401 0.5139 0.4383 0.5139 0.4383 0.9685 0.0401 0.9685 0.0401 0.5139 0.4383 0.5139 0.4383 0.9685 0.0401 0.9685 0.0401 0.5139 0.4383 0.5139 0.4383 0.9685 0.0401 0.9685 0.4383 0.5139 0.4383 0.9685 0.0401 0.5139 0.0401 0.9685 " />
									</IndexedTriangleSet>
								</Shape>
							</Group>
						</Transform>
						<Transform DEF="tail3_TRANSFORM"
						           translation="0.000000 0.522543 0.050989"
						           scale="1.000000 1.000000 1.000000"
						           rotation="0.000000 1.000000 0.000000 0.000000"
						           >
							<Transform DEF="tail3_ifs_TRANSFORM"
							           translation="0.000000 0.000000 0.000000"
							           scale="1.000000 1.000000 1.000000"
							           rotation="0.000000 1.000000 0.000000 0.000000"
							           >
								<Group DEF="group_ME_tail3">
									<Shape>
										<Appearance>
											<Material USE="MA_Body" />
										</Appearance>
										<IndexedTriangleSet solid="false"
										                    normalPerVertex="true"
										                    index="0 1 2 0 2 3 4 5 6 4 6 7 8 9 10 8 10 11 12 13 14 12 14 15 4 16 17 4 17 15 18 5 14 18 14 19 "
										                    >
											<Coordinate point="-0.213721 -0.016271 0.181015 -0.213721 0.489613 0.226488 -0.213721 0.522155 -0.135542 -0.213721 0.016271 -0.181015 -0.213721 0.016271 -0.181015 -0.213721 0.522155 -0.135542 0.213721 0.522155 -0.135542 0.213721 0.016271 -0.181015 0.213721 0.016271 -0.181015 0.213721 0.522155 -0.135542 0.213721 0.489613 0.226488 0.213721 -0.016271 0.181015 0.213721 -0.016271 0.181015 0.213721 0.489613 0.226488 -0.213721 0.489613 0.226488 -0.213721 -0.016271 0.181015 0.213721 0.016271 -0.181015 0.213721 -0.016271 0.181015 0.213721 0.522155 -0.135542 0.213721 0.489613 0.226488 " />
											<Normal vector="-0.577349 -0.626698 0.523331 -0.577349 0.523331 0.626698 -0.577349 0.626698 -0.523331 -0.577349 -0.523331 -0.626698 -0.577349 -0.523331 -0.626698 -0.577349 0.626698 -0.523331 0.577349 0.626698 -0.523331 0.577349 -0.523331 -0.626698 0.577349 -0.523331 -0.626698 0.577349 0.626698 -0.523331 0.577349 0.523331 0.626698 0.577349 -0.626698 0.523331 0.577349 -0.626698 0.523331 0.577349 0.523331 0.626698 -0.577349 0.523331 0.626698 -0.577349 -0.626698 0.523331 0.577349 -0.523331 -0.626698 0.577349 -0.626698 0.523331 0.577349 0.626698 -0.523331 0.577349 0.523331 0.626698 " />
											<TextureCoordinate point="0.0401 0.5139 0.4383 0.5139 0.4383 0.9685 0.0401 0.9685 0.0401 0.5139 0.4383 0.5139 0.4383 0.9685 0.0401 0.9685 0.0401 0.5139 0.4383 0.5139 0.4383 0.9685 0.0401 0.9685 0.0401 0.5139 0.4383 0.5139 0.4383 0.9685 0.0401 0.9685 0.4383 0.5139 0.4383 0.9685 0.0401 0.5139 0.0401 0.9685 " />
										</IndexedTriangleSet>
									</Shape>
								</Group>
							</Transform>
							<Transform DEF="tail4_TRANSFORM"
							           translation="0.000000 0.453752 0.050693"
							           scale="1.000000 1.000000 1.000000"
							           rotation="0.000000 1.000000 0.000000 0.000000"
							           >
								<Transform DEF="tail4_ifs_TRANSFORM"
								           translation="0.000000 0.000000 0.000000"
								           scale="1.000000 1.000000 1.000000"
								           rotation="0.000000 1.000000 0.000000 0.000000"
								           >
									<Group DEF="group_ME_tail4">
										<Shape>
											<Appearance>
												<Material USE="MA_Body" />
											</Appearance>
											<IndexedTriangleSet solid="false"
											                    normalPerVertex="true"
											                    index="0 1 2 0 2 3 4 5 6 4 6 7 8 9 10 8 10 11 12 13 14 12 14 15 4 16 17 4 17 15 18 5 14 18 14 19 "
											                    >
												<Coordinate point="-0.128226 -0.011297 0.125681 -0.128226 0.536128 0.174888 -0.128226 0.558723 -0.076474 -0.128226 0.011297 -0.125681 -0.128226 0.011297 -0.125681 -0.128226 0.558723 -0.076474 0.128226 0.558723 -0.076474 0.128226 0.011297 -0.125681 0.128226 0.011297 -0.125681 0.128226 0.558723 -0.076474 0.128226 0.536128 0.174888 0.128226 -0.011297 0.125681 0.128226 -0.011297 0.125681 0.128226 0.536128 0.174888 -0.128226 0.536128 0.174888 -0.128226 -0.011297 0.125681 0.128226 0.011297 -0.125681 0.128226 -0.011297 0.125681 0.128226 0.558723 -0.076474 0.128226 0.536128 0.174888 " />
												<Normal vector="-0.577349 -0.626698 0.523331 -0.577349 0.523331 0.626698 -0.577349 0.626698 -0.523331 -0.577349 -0.523331 -0.626698 -0.577349 -0.523331 -0.626698 -0.577349 0.626698 -0.523331 0.577349 0.626698 -0.523331 0.577349 -0.523331 -0.626698 0.577349 -0.523331 -0.626698 0.577349 0.626698 -0.523331 0.577349 0.523331 0.626698 0.577349 -0.626698 0.523331 0.577349 -0.626698 0.523331 0.577349 0.523331 0.626698 -0.577349 0.523331 0.626698 -0.577349 -0.626698 0.523331 0.577349 -0.523331 -0.626698 0.577349 -0.626698 0.523331 0.577349 0.626698 -0.523331 0.577349 0.523331 0.626698 " />
												<TextureCoordinate point="0.0401 0.5139 0.4383 0.5139 0.4383 0.9685 0.0401 0.9685 0.0401 0.5139 0.4383 0.5139 0.4383 0.9685 0.0401 0.9685 0.0401 0.5139 0.4383 0.5139 0.4383 0.9685 0.0401 0.9685 0.0401 0.5139 0.4383 0.5139 0.4383 0.9685 0.0401 0.9685 0.4383 0.5139 0.4383 0.9685 0.0401 0.5139 0.0401 0.9685 " />
											</IndexedTriangleSet>
										</Shape>
									</Group>
								</Transform>
								<Transform DEF="w1_t_TRANSFORM"
								           translation="0.090159 0.237998 0.038646"
								           scale="1.000000 1.000000 1.000000"
								           rotation="0.000000 1.000000 0.000000 0.000000"
								           >
									<Transform DEF="w1_t_ifs_TRANSFORM"
									           translation="0.000000 0.000000 0.000000"
									           scale="1.000000 1.000000 1.000000"
									           rotation="0.000000 1.000000 0.000000 0.000000"
									           >
										<Group DEF="group_ME_w1_t">
											<Shape>
												<Appearance>
													<Material USE="MA_Body" />
												</Appearance>
												<IndexedTriangleSet solid="false"
												                    normalPerVertex="true"
												                    index="0 1 2 0 2 3 4 0 3 4 3 5 "
												                    >
													<Coordinate point="0.773383 0.385903 -0.000000 1.242490 1.003080 -0.000000 0.633938 1.465631 -0.000000 0.164831 0.848453 -0.000000 0.304276 -0.231275 -0.000000 -0.304276 0.231275 0.000000 " />
													<Normal vector="0.000000 0.000000 1.000000 0.000000 0.000000 0.999969 0.000000 0.000000 1.000000 0.000000 0.000000 1.000000 0.000000 0.000000 1.000000 0.000000 0.000000 1.000000 " />
													<TextureCoordinate point="0.4830 0.0072 0.4830 0.9928 0.9882 0.9928 0.9882 0.0072 0.4830 0.9928 0.9882 0.9928 " />
												</IndexedTriangleSet>
											</Shape>
										</Group>
									</Transform>
								</Transform>
								<Transform DEF="w2_t_TRANSFORM"
								           translation="-0.090159 0.237998 0.038646"
								           scale="1.000000 1.000000 1.000000"
								           rotation="0.000000 1.000000 0.000000 0.000000"
								           >
									<Transform DEF="w2_t_ifs_TRANSFORM"
									           translation="0.000000 0.000000 0.000000"
									           scale="1.000000 1.000000 1.000000"
									           rotation="0.000000 1.000000 0.000000 0.000000"
									           >
										<Group DEF="group_ME_w2_t">
											<Shape>
												<Appearance>
													<Material USE="MA_Body" />
												</Appearance>
												<IndexedTriangleSet solid="false"
												                    normalPerVertex="true"
												                    index="0 1 2 0 2 3 4 5 1 4 1 0 "
												                    >
													<Coordinate point="-0.773383 0.385903 0.000000 -0.164831 0.848453 0.000000 -0.633938 1.465631 0.000000 -1.242490 1.003080 0.000000 -0.304276 -0.231275 -0.000000 0.304276 0.231275 0.000000 " />
													<Normal vector="0.000000 0.000000 1.000000 0.000000 0.000000 1.000000 0.000000 0.000000 1.000000 0.000000 0.000000 0.999969 0.000000 0.000000 1.000000 0.000000 0.000000 1.000000 " />
													<TextureCoordinate point="0.4830 0.0072 0.9882 0.0072 0.9882 0.9928 0.4830 0.9928 0.4830 0.9928 0.9882 0.9928 " />
												</IndexedTriangleSet>
											</Shape>
										</Group>
									</Transform>
								</Transform>
							</Transform>
						</Transform>
					</Transform>
				</Transform>
			</Transform>
			<Transform DEF="Object_001_TRANSFORM"
			           translation="0.139358 -0.530384 0.819445"
			           scale="1.000000 1.000000 1.000000"
			           rotation="0.000000 1.000000 0.000000 0.000000"
			           >
				<Transform DEF="Object_001_ifs_TRANSFORM"
				           translation="0.000000 0.000000 0.000000"
				           scale="1.000000 1.000000 1.000000"
				           rotation="0.000000 1.000000 0.000000 0.000000"
				           >
					<Group DEF="group_ME_tail5">
						<Shape>
							<Appearance>
								<Material USE="MA_Body" />
							</Appearance>
							<IndexedTriangleSet solid="false"
							                    normalPerVertex="true"
							                    index="0 1 2 0 2 3 4 5 6 4 6 7 8 9 10 8 10 11 12 13 14 12 14 15 4 16 17 4 17 15 18 5 14 18 14 19 "
							                    >
								<Coordinate point="-0.123151 0.065441 -0.093165 -0.129629 0.050916 0.093446 0.077960 0.501788 0.135746 0.084438 0.516313 -0.050865 0.084438 0.516313 -0.050865 0.077960 0.501788 0.135746 0.330740 0.385431 0.135465 0.337218 0.399956 -0.051146 0.337218 0.399956 -0.051146 0.330740 0.385431 0.135465 0.123151 -0.065441 0.093165 0.129629 -0.050916 -0.093446 0.129629 -0.050916 -0.093446 0.123151 -0.065441 0.093165 -0.129629 0.050916 0.093446 -0.123151 0.065441 -0.093165 0.337218 0.399956 -0.051146 0.129629 -0.050916 -0.093446 0.330740 0.385431 0.135465 0.123151 -0.065441 0.093165 " />
								<Normal vector="-0.745048 -0.236335 -0.623676 -0.784997 -0.325877 0.526811 -0.303812 0.719169 0.624866 -0.263894 0.808710 -0.525651 -0.263894 0.808710 -0.525651 -0.303812 0.719169 0.624866 0.745048 0.236335 0.623676 0.784997 0.325877 -0.526811 0.784997 0.325877 -0.526811 0.745048 0.236335 0.623676 0.263894 -0.808710 0.525651 0.303812 -0.719169 -0.624866 0.303812 -0.719169 -0.624866 0.263894 -0.808710 0.525651 -0.784997 -0.325877 0.526811 -0.745048 -0.236335 -0.623676 0.784997 0.325877 -0.526811 0.303812 -0.719169 -0.624866 0.745048 0.236335 0.623676 0.263894 -0.808710 0.525651 " />
								<TextureCoordinate point="0.0286 0.0305 0.4202 0.0305 0.4202 0.2313 0.0286 0.2313 0.0286 0.0305 0.4202 0.0305 0.4202 0.2313 0.0286 0.2313 0.0286 0.0305 0.4202 0.0305 0.4202 0.2313 0.0286 0.2313 0.0286 0.0305 0.4202 0.0305 0.4202 0.2313 0.0286 0.2313 0.4202 0.0305 0.4202 0.2313 0.0286 0.0305 0.0286 0.2313 " />
							</IndexedTriangleSet>
						</Shape>
					</Group>
				</Transform>
			</Transform>
			<Transform DEF="wing1_TRANSFORM"
			           translation="0.338775 -0.111906 0.863872"
			           scale="1.000000 1.000000 1.000000"
			           rotation="0.000000 1.000000 0.000000 0.000000"
			           >
				<Transform DEF="wing1_ifs_TRANSFORM"
				           translation="0.000000 0.000000 0.000000"
				           scale="1.000000 1.000000 1.000000"
				           rotation="0.000000 1.000000 0.000000 0.000000"
				           >
					<Group DEF="group_ME_wing1">
						<Shape>
							<Appearance>
								<Material USE="MA_Body" />
							</Appearance>
							<IndexedTriangleSet solid="false"
							                    normalPerVertex="true"
							                    index="0 1 2 0 2 3 4 0 3 4 3 5 "
							                    >
								<Coordinate point="1.617829 -0.790280 0.000000 3.232751 -0.784384 0.000000 3.226937 0.807968 0.000000 1.612015 0.802072 0.000000 0.002907 -0.796176 0.000000 -0.002907 0.796176 0.000000 " />
								<Normal vector="0.000000 0.000000 1.000000 0.000000 0.000000 1.000000 0.000000 0.000000 1.000000 0.000000 0.000000 1.000000 0.000000 0.000000 1.000000 0.000000 0.000000 1.000000 " />
								<TextureCoordinate point="0.4830 0.0072 0.4830 0.9928 0.9882 0.9928 0.9882 0.0072 0.4830 0.9928 0.9882 0.9928 " />
							</IndexedTriangleSet>
						</Shape>
					</Group>
				</Transform>
			</Transform>
			<Transform DEF="wing2_TRANSFORM"
			           translation="0.338775 -0.111906 0.829399"
			           scale="1.000000 1.000000 1.000000"
			           rotation="0.000000 1.000000 0.000000 0.000000"
			           >
				<Transform DEF="wing2_ifs_TRANSFORM"
				           translation="0.000000 0.000000 0.000000"
				           scale="1.000000 1.000000 1.000000"
				           rotation="0.000000 1.000000 0.000000 0.000000"
				           >
					<Group DEF="group_ME_wing2">
						<Shape>
							<Appearance>
								<Material USE="MA_Body" />
							</Appearance>
							<IndexedTriangleSet solid="false"
							                    normalPerVertex="true"
							                    index="0 1 2 0 2 3 4 0 3 4 3 5 "
							                    >
								<Coordinate point="1.617829 -0.790280 0.000000 3.232751 -0.784384 0.000000 3.226937 0.807968 0.000000 1.612015 0.802072 0.000000 0.002907 -0.796176 0.000000 -0.002907 0.796176 0.000000 " />
								<Normal vector="0.000000 0.000000 1.000000 0.000000 0.000000 1.000000 0.000000 0.000000 1.000000 0.000000 0.000000 1.000000 0.000000 0.000000 1.000000 0.000000 0.000000 1.000000 " />
								<TextureCoordinate point="0.4830 0.0072 0.4830 0.9928 0.9882 0.9928 0.9882 0.0072 0.4830 0.9928 0.9882 0.9928 " />
							</IndexedTriangleSet>
						</Shape>
					</Group>
				</Transform>
			</Transform>
			<Transform DEF="leg1_TRANSFORM"
			           translation="0.433301 -0.384612 0.288849"
			           scale="1.000000 1.000000 1.000000"
			           rotation="0.000000 1.000000 0.000000 0.000000"
			           >
				<Transform DEF="leg1_ifs_TRANSFORM"
				           translation="0.000000 0.000000 0.000000"
				           scale="1.000000 1.000000 1.000000"
				           rotation="0.000000 1.000000 0.000000 0.000000"
				           >
					<Group DEF="group_ME_leg1">
						<Shape>
							<Appearance>
								<Material USE="MA_Body" />
							</Appearance>
							<IndexedTriangleSet solid="false"
							                    normalPerVertex="true"
							                    index="0 1 2 0 2 3 4 5 6 4 6 7 8 9 10 8 10 11 12 13 14 12 14 15 4 16 17 4 17 15 18 5 14 18 14 19 "
							                    >
								<Coordinate point="0.000000 -0.060538 -0.051483 0.000000 -0.060538 0.051483 0.000000 0.060538 0.051483 0.000000 0.060538 -0.051483 0.000000 0.060538 -0.051483 0.000000 0.060538 0.051483 0.549445 0.060538 0.051483 0.549445 0.060538 -0.051483 0.549445 0.060538 -0.051483 0.549445 0.060538 0.051483 0.549445 -0.060538 0.051483 0.549445 -0.060538 -0.051483 0.549445 -0.060538 -0.051483 0.549445 -0.060538 0.051483 0.000000 -0.060538 0.051483 0.000000 -0.060538 -0.051483 0.549445 0.060538 -0.051483 0.549445 -0.060538 -0.051483 0.549445 0.060538 0.051483 0.549445 -0.060538 0.051483 " />
								<Normal vector="-0.577349 -0.577349 -0.577349 -0.577349 -0.577349 0.577349 -0.577349 0.577349 0.577349 -0.577349 0.577349 -0.577349 -0.577349 0.577349 -0.577349 -0.577349 0.577349 0.577349 0.577349 0.577349 0.577349 0.577349 0.577349 -0.577349 0.577349 0.577349 -0.577349 0.577349 0.577349 0.577349 0.577349 -0.577349 0.577349 0.577349 -0.577349 -0.577349 0.577349 -0.577349 -0.577349 0.577349 -0.577349 0.577349 -0.577349 -0.577349 0.577349 -0.577349 -0.577349 -0.577349 0.577349 0.577349 -0.577349 0.577349 -0.577349 -0.577349 0.577349 0.577349 0.577349 0.577349 -0.577349 0.577349 " />
								<TextureCoordinate point="0.0354 0.2815 0.1968 0.2815 0.1968 0.4429 0.0354 0.4429 0.0354 0.2815 0.1968 0.2815 0.1968 0.4429 0.0354 0.4429 0.0354 0.2815 0.1968 0.2815 0.1968 0.4429 0.0354 0.4429 0.0354 0.2815 0.1968 0.2815 0.1968 0.4429 0.0354 0.4429 0.1968 0.2815 0.1968 0.4429 0.0354 0.2815 0.0354 0.4429 " />
							</IndexedTriangleSet>
						</Shape>
					</Group>
				</Transform>
				<Transform DEF="leg1_1_TRANSFORM"
				           translation="0.542414 0.000000 0.004326"
				           scale="1.000000 1.000000 1.000000"
				           rotation="0.000000 1.000000 0.000000 0.000000"
				           >
					<Transform DEF="leg1_1_ifs_TRANSFORM"
					           translation="0.000000 0.000000 0.000000"
					           scale="1.000000 1.000000 1.000000"
					           rotation="0.000000 1.000000 0.000000 0.000000"
					           >
						<Group DEF="group_ME_leg1_1">
							<Shape>
								<Appearance>
									<Material USE="MA_Body" />
								</Appearance>
								<IndexedTriangleSet solid="false"
								                    normalPerVertex="true"
								                    index="0 1 2 0 2 3 4 5 6 4 6 7 8 9 10 8 10 11 12 13 14 12 14 15 4 16 17 4 17 15 18 5 14 18 14 19 "
								                    >
									<Coordinate point="-0.064453 -0.056417 -0.012169 0.064453 -0.056417 0.012169 0.064453 0.056417 0.012169 -0.064453 0.056417 -0.012169 -0.064453 0.056417 -0.012169 0.064453 0.056417 0.012169 0.201830 0.056417 -0.715428 0.072924 0.056417 -0.739766 0.072924 0.056417 -0.739766 0.201830 0.056417 -0.715428 0.201830 -0.056417 -0.715428 0.072924 -0.056417 -0.739766 0.072924 -0.056417 -0.739766 0.201830 -0.056417 -0.715428 0.064453 -0.056417 0.012169 -0.064453 -0.056417 -0.012169 0.072924 0.056417 -0.739766 0.072924 -0.056417 -0.739766 0.201830 0.056417 -0.715428 0.201830 -0.056417 -0.715428 " />
									<Normal vector="-0.674429 -0.577349 0.460189 0.460189 -0.577349 0.674429 0.460189 0.577349 0.674429 -0.674429 0.577349 0.460189 -0.674429 0.577349 0.460189 0.460189 0.577349 0.674429 0.674429 0.577349 -0.460189 -0.460189 0.577349 -0.674429 -0.460189 0.577349 -0.674429 0.674429 0.577349 -0.460189 0.674429 -0.577349 -0.460189 -0.460189 -0.577349 -0.674429 -0.460189 -0.577349 -0.674429 0.674429 -0.577349 -0.460189 0.460189 -0.577349 0.674429 -0.674429 -0.577349 0.460189 -0.460189 0.577349 -0.674429 -0.460189 -0.577349 -0.674429 0.674429 0.577349 -0.460189 0.674429 -0.577349 -0.460189 " />
									<TextureCoordinate point="0.0354 0.2815 0.1968 0.2815 0.1968 0.4429 0.0354 0.4429 0.0354 0.2815 0.1968 0.2815 0.1968 0.4429 0.0354 0.4429 0.0354 0.2815 0.1968 0.2815 0.1968 0.4429 0.0354 0.4429 0.0354 0.2815 0.1968 0.2815 0.1968 0.4429 0.0354 0.4429 0.1968 0.2815 0.1968 0.4429 0.0354 0.2815 0.0354 0.4429 " />
								</IndexedTriangleSet>
							</Shape>
						</Group>
					</Transform>
					<Transform DEF="foot1_TRANSFORM"
					           translation="0.124747 0.000510 -0.704826"
					           scale="1.000000 1.000000 1.000000"
					           rotation="0.000000 1.000000 0.000000 0.000000"
					           >
						<Transform DEF="foot1_ifs_TRANSFORM"
						           translation="0.000000 0.000000 0.000000"
						           scale="1.000000 1.000000 1.000000"
						           rotation="0.000000 1.000000 0.000000 0.000000"
						           >
							<Group DEF="group_ME_foot1">
								<Shape>
									<Appearance>
										<Material USE="MA_Body" />
									</Appearance>
									<IndexedTriangleSet solid="false"
									                    normalPerVertex="true"
									                    index="0 1 2 0 2 3 4 5 6 4 6 7 8 9 10 8 10 11 12 13 14 12 14 15 4 16 17 4 17 15 18 5 14 18 14 19 "
									                    >
										<Coordinate point="-0.384800 -0.065989 -0.000807 0.385067 -0.064386 -0.002024 0.384800 0.065989 0.000807 -0.385067 0.064386 0.002024 -0.385067 0.064386 0.002024 0.384800 0.065989 0.000807 0.384630 0.068254 -0.103540 -0.385237 0.066651 -0.102323 -0.385237 0.066651 -0.102323 0.384630 0.068254 -0.103540 0.384897 -0.062122 -0.106370 -0.384970 -0.063724 -0.105153 -0.384970 -0.063724 -0.105153 0.384897 -0.062122 -0.106370 0.385067 -0.064386 -0.002024 -0.384800 -0.065989 -0.000807 -0.385237 0.066651 -0.102323 -0.384970 -0.063724 -0.105153 0.384630 0.068254 -0.103540 0.384897 -0.062122 -0.106370 " />
										<Normal vector="-0.575213 -0.590930 0.565569 0.579455 -0.588519 0.563768 0.577105 0.565874 0.588824 -0.577563 0.563463 0.590655 -0.577563 0.563463 0.590655 0.577105 0.565874 0.588824 0.575213 0.590930 -0.565569 -0.579455 0.588519 -0.563768 -0.579455 0.588519 -0.563768 0.575213 0.590930 -0.565569 0.577563 -0.563463 -0.590655 -0.577105 -0.565874 -0.588824 -0.577105 -0.565874 -0.588824 0.577563 -0.563463 -0.590655 0.579455 -0.588519 0.563768 -0.575213 -0.590930 0.565569 -0.579455 0.588519 -0.563768 -0.577105 -0.565874 -0.588824 0.575213 0.590930 -0.565569 0.577563 -0.563463 -0.590655 " />
										<TextureCoordinate point="0.0354 0.2815 0.1968 0.2815 0.1968 0.4429 0.0354 0.4429 0.0354 0.2815 0.1968 0.2815 0.1968 0.4429 0.0354 0.4429 0.0354 0.2815 0.1968 0.2815 0.1968 0.4429 0.0354 0.4429 0.0354 0.2815 0.1968 0.2815 0.1968 0.4429 0.0354 0.4429 0.1968 0.2815 0.1968 0.4429 0.0354 0.2815 0.0354 0.4429 " />
									</IndexedTriangleSet>
								</Shape>
							</Group>
						</Transform>
					</Transform>
				</Transform>
			</Transform>
			<Transform DEF="leg3_TRANSFORM"
			           translation="-0.433301 0.037050 0.288849"
			           scale="1.000000 1.000000 1.000000"
			           rotation="0.000000 1.000000 0.000000 0.000000"
			           >
				<Transform DEF="leg3_ifs_TRANSFORM"
				           translation="0.000000 0.000000 0.000000"
				           scale="1.000000 1.000000 1.000000"
				           rotation="0.000000 1.000000 0.000000 0.000000"
				           >
					<Group DEF="group_ME_leg3">
						<Shape>
							<Appearance>
								<Material USE="MA_Body" />
							</Appearance>
							<IndexedTriangleSet solid="false"
							                    normalPerVertex="true"
							                    index="0 1 2 0 2 3 4 5 6 4 6 7 8 9 10 8 10 11 12 13 14 12 14 15 4 13 16 4 16 17 18 19 14 18 14 7 "
							                    >
								<Coordinate point="0.000000 -0.060538 -0.051483 0.000000 0.060538 -0.051483 0.000000 0.060538 0.051483 0.000000 -0.060538 0.051483 0.000000 0.060538 -0.051483 -0.549445 0.060538 -0.051483 -0.549445 0.060538 0.051483 0.000000 0.060538 0.051483 -0.549445 0.060538 -0.051483 -0.549445 -0.060538 -0.051483 -0.549445 -0.060538 0.051483 -0.549445 0.060538 0.051483 -0.549445 -0.060538 -0.051483 0.000000 -0.060538 -0.051483 0.000000 -0.060538 0.051483 -0.549445 -0.060538 0.051483 -0.549445 -0.060538 -0.051483 -0.549445 0.060538 -0.051483 -0.549445 0.060538 0.051483 -0.549445 -0.060538 0.051483 " />
								<Normal vector="0.577349 -0.577349 -0.577349 0.577349 0.577349 -0.577349 0.577349 0.577349 0.577349 0.577349 -0.577349 0.577349 0.577349 0.577349 -0.577349 -0.577349 0.577349 -0.577349 -0.577349 0.577349 0.577349 0.577349 0.577349 0.577349 -0.577349 0.577349 -0.577349 -0.577349 -0.577349 -0.577349 -0.577349 -0.577349 0.577349 -0.577349 0.577349 0.577349 -0.577349 -0.577349 -0.577349 0.577349 -0.577349 -0.577349 0.577349 -0.577349 0.577349 -0.577349 -0.577349 0.577349 -0.577349 -0.577349 -0.577349 -0.577349 0.577349 -0.577349 -0.577349 0.577349 0.577349 -0.577349 -0.577349 0.577349 " />
								<TextureCoordinate point="0.0354 0.2815 0.0354 0.4429 0.1968 0.4429 0.1968 0.2815 0.0354 0.2815 0.0354 0.4429 0.1968 0.4429 0.1968 0.2815 0.0354 0.2815 0.0354 0.4429 0.1968 0.4429 0.1968 0.2815 0.0354 0.2815 0.0354 0.4429 0.1968 0.4429 0.1968 0.2815 0.1968 0.4429 0.1968 0.2815 0.0354 0.2815 0.0354 0.4429 " />
							</IndexedTriangleSet>
						</Shape>
					</Group>
				</Transform>
				<Transform DEF="leg3_1_TRANSFORM"
				           translation="-0.542414 -0.000000 0.004326"
				           scale="1.000000 1.000000 1.000000"
				           rotation="0.000000 1.000000 0.000000 0.000000"
				           >
					<Transform DEF="leg3_1_ifs_TRANSFORM"
					           translation="0.000000 0.000000 0.000000"
					           scale="1.000000 1.000000 1.000000"
					           rotation="0.000000 1.000000 0.000000 0.000000"
					           >
						<Group DEF="group_ME_leg3_1">
							<Shape>
								<Appearance>
									<Material USE="MA_Body" />
								</Appearance>
								<IndexedTriangleSet solid="false"
								                    normalPerVertex="true"
								                    index="0 1 2 0 2 3 4 5 6 4 6 7 8 9 10 8 10 11 12 13 14 12 14 15 4 13 16 4 16 17 18 19 14 18 14 7 "
								                    >
									<Coordinate point="0.064453 -0.056417 -0.012169 0.064453 0.056417 -0.012169 -0.064453 0.056417 0.012169 -0.064453 -0.056417 0.012169 0.064453 0.056417 -0.012169 -0.072924 0.056417 -0.739766 -0.201830 0.056417 -0.715428 -0.064453 0.056417 0.012169 -0.072924 0.056417 -0.739766 -0.072924 -0.056417 -0.739766 -0.201830 -0.056417 -0.715428 -0.201830 0.056417 -0.715428 -0.072924 -0.056417 -0.739766 0.064453 -0.056417 -0.012169 -0.064453 -0.056417 0.012169 -0.201830 -0.056417 -0.715428 -0.072924 -0.056417 -0.739766 -0.072924 0.056417 -0.739766 -0.201830 0.056417 -0.715428 -0.201830 -0.056417 -0.715428 " />
									<Normal vector="0.674429 -0.577349 0.460189 0.674429 0.577349 0.460189 -0.460189 0.577349 0.674429 -0.460189 -0.577349 0.674429 0.674429 0.577349 0.460189 0.460189 0.577349 -0.674429 -0.674429 0.577349 -0.460189 -0.460189 0.577349 0.674429 0.460189 0.577349 -0.674429 0.460189 -0.577349 -0.674429 -0.674429 -0.577349 -0.460189 -0.674429 0.577349 -0.460189 0.460189 -0.577349 -0.674429 0.674429 -0.577349 0.460189 -0.460189 -0.577349 0.674429 -0.674429 -0.577349 -0.460189 0.460189 -0.577349 -0.674429 0.460189 0.577349 -0.674429 -0.674429 0.577349 -0.460189 -0.674429 -0.577349 -0.460189 " />
									<TextureCoordinate point="0.0354 0.2815 0.0354 0.4429 0.1968 0.4429 0.1968 0.2815 0.0354 0.2815 0.0354 0.4429 0.1968 0.4429 0.1968 0.2815 0.0354 0.2815 0.0354 0.4429 0.1968 0.4429 0.1968 0.2815 0.0354 0.2815 0.0354 0.4429 0.1968 0.4429 0.1968 0.2815 0.1968 0.4429 0.1968 0.2815 0.0354 0.2815 0.0354 0.4429 " />
								</IndexedTriangleSet>
							</Shape>
						</Group>
					</Transform>
					<Transform DEF="foot3_TRANSFORM"
					           translation="-0.124747 0.000510 -0.704826"
					           scale="1.000000 1.000000 1.000000"
					           rotation="0.000000 1.000000 0.000000 0.000000"
					           >
						<Transform DEF="foot3_ifs_TRANSFORM"
						           translation="0.000000 0.000000 0.000000"
						           scale="1.000000 1.000000 1.000000"
						           rotation="0.000000 1.000000 0.000000 0.000000"
						           >
							<Group DEF="group_ME_foot3">
								<Shape>
									<Appearance>
										<Material USE="MA_Body" />
									</Appearance>
									<IndexedTriangleSet solid="false"
									                    normalPerVertex="true"
									                    index="0 1 2 0 2 3 4 5 6 4 6 7 8 9 10 8 10 11 12 13 14 12 14 15 4 13 16 4 16 17 18 19 14 18 14 7 "
									                    >
										<Coordinate point="0.384800 -0.065989 -0.000807 0.385067 0.064386 0.002024 -0.384800 0.065989 0.000807 -0.385067 -0.064386 -0.002024 0.385067 0.064386 0.002024 0.385237 0.066651 -0.102323 -0.384630 0.068254 -0.103540 -0.384800 0.065989 0.000807 0.385237 0.066651 -0.102323 0.384970 -0.063724 -0.105153 -0.384897 -0.062122 -0.106370 -0.384630 0.068254 -0.103540 0.384970 -0.063724 -0.105153 0.384800 -0.065989 -0.000807 -0.385067 -0.064386 -0.002024 -0.384897 -0.062122 -0.106370 0.384970 -0.063724 -0.105153 0.385237 0.066651 -0.102323 -0.384630 0.068254 -0.103540 -0.384897 -0.062122 -0.106370 " />
										<Normal vector="0.575213 -0.590930 0.565569 0.577563 0.563463 0.590655 -0.577105 0.565874 0.588824 -0.579455 -0.588519 0.563768 0.577563 0.563463 0.590655 0.579455 0.588519 -0.563768 -0.575213 0.590930 -0.565569 -0.577105 0.565874 0.588824 0.579455 0.588519 -0.563768 0.577105 -0.565874 -0.588824 -0.577563 -0.563463 -0.590655 -0.575213 0.590930 -0.565569 0.577105 -0.565874 -0.588824 0.575213 -0.590930 0.565569 -0.579455 -0.588519 0.563768 -0.577563 -0.563463 -0.590655 0.577105 -0.565874 -0.588824 0.579455 0.588519 -0.563768 -0.575213 0.590930 -0.565569 -0.577563 -0.563463 -0.590655 " />
										<TextureCoordinate point="0.0354 0.2815 0.0354 0.4429 0.1968 0.4429 0.1968 0.2815 0.0354 0.2815 0.0354 0.4429 0.1968 0.4429 0.1968 0.2815 0.0354 0.2815 0.0354 0.4429 0.1968 0.4429 0.1968 0.2815 0.0354 0.2815 0.0354 0.4429 0.1968 0.4429 0.1968 0.2815 0.1968 0.4429 0.1968 0.2815 0.0354 0.2815 0.0354 0.4429 " />
									</IndexedTriangleSet>
								</Shape>
							</Group>
						</Transform>
					</Transform>
				</Transform>
			</Transform>
			<Transform DEF="Object_TRANSFORM"
			           translation="-0.139358 -0.530384 0.819445"
			           scale="1.000000 1.000000 1.000000"
			           rotation="0.000000 1.000000 0.000000 0.000000"
			           >
				<Transform DEF="Object_ifs_TRANSFORM"
				           translation="0.000000 0.000000 0.000000"
				           scale="1.000000 1.000000 1.000000"
				           rotation="0.000000 1.000000 0.000000 0.000000"
				           >
					<Group DEF="group_ME_tail5_001">
						<Shape>
							<Appearance>
								<Material USE="MA_Body" />
							</Appearance>
							<IndexedTriangleSet solid="false"
							                    normalPerVertex="true"
							                    index="0 1 2 0 2 3 4 5 6 4 6 7 8 9 10 8 10 11 12 13 14 12 14 15 4 13 16 4 16 17 18 19 14 18 14 7 "
							                    >
								<Coordinate point="0.123151 0.065441 -0.093165 -0.084438 0.516313 -0.050865 -0.077960 0.501788 0.135747 0.129629 0.050916 0.093446 -0.084438 0.516313 -0.050865 -0.337218 0.399956 -0.051146 -0.330740 0.385431 0.135465 -0.077960 0.501788 0.135747 -0.337218 0.399956 -0.051146 -0.129629 -0.050916 -0.093446 -0.123151 -0.065441 0.093165 -0.330740 0.385431 0.135465 -0.129629 -0.050916 -0.093446 0.123151 0.065441 -0.093165 0.129629 0.050916 0.093446 -0.123151 -0.065441 0.093165 -0.129629 -0.050916 -0.093446 -0.337218 0.399956 -0.051146 -0.330740 0.385431 0.135465 -0.123151 -0.065441 0.093165 " />
								<Normal vector="0.745048 -0.236335 -0.623676 0.263894 0.808710 -0.525651 0.303812 0.719169 0.624866 0.784997 -0.325877 0.526811 0.263894 0.808710 -0.525651 -0.784997 0.325877 -0.526811 -0.745048 0.236335 0.623676 0.303812 0.719169 0.624866 -0.784997 0.325877 -0.526811 -0.303812 -0.719169 -0.624866 -0.263894 -0.808710 0.525651 -0.745048 0.236335 0.623676 -0.303812 -0.719169 -0.624866 0.745048 -0.236335 -0.623676 0.784997 -0.325877 0.526811 -0.263894 -0.808710 0.525651 -0.303812 -0.719169 -0.624866 -0.784997 0.325877 -0.526811 -0.745048 0.236335 0.623676 -0.263894 -0.808710 0.525651 " />
								<TextureCoordinate point="0.0286 0.0305 0.0286 0.2313 0.4202 0.2313 0.4202 0.0305 0.0286 0.0305 0.0286 0.2313 0.4202 0.2313 0.4202 0.0305 0.0286 0.0305 0.0286 0.2313 0.4202 0.2313 0.4202 0.0305 0.0286 0.0305 0.0286 0.2313 0.4202 0.2313 0.4202 0.0305 0.4202 0.2313 0.4202 0.0305 0.0286 0.0305 0.0286 0.2313 " />
							</IndexedTriangleSet>
						</Shape>
					</Group>
				</Transform>
			</Transform>
			<Transform DEF="wing3_TRANSFORM"
			           translation="-0.338775 -0.111906 0.863872"
			           scale="1.000000 1.000000 1.000000"
			           rotation="0.000000 1.000000 0.000000 0.000000"
			           >
				<Transform DEF="wing3_ifs_TRANSFORM"
				           translation="0.000000 0.000000 0.000000"
				           scale="1.000000 1.000000 1.000000"
				           rotation="0.000000 1.000000 0.000000 0.000000"
				           >
					<Group DEF="group_ME_wing3">
						<Shape>
							<Appearance>
								<Material USE="MA_Body" />
							</Appearance>
							<IndexedTriangleSet solid="false"
							                    normalPerVertex="true"
							                    index="0 1 2 0 2 3 4 5 1 4 1 0 "
							                    >
								<Coordinate point="-1.617829 -0.790280 -0.000000 -1.612015 0.802072 0.000000 -3.226937 0.807968 0.000000 -3.232751 -0.784384 -0.000000 -0.002907 -0.796176 -0.000000 0.002907 0.796176 0.000000 " />
								<Normal vector="0.000000 0.000000 1.000000 0.000000 0.000000 1.000000 0.000000 0.000000 1.000000 0.000000 0.000000 1.000000 0.000000 0.000000 1.000000 0.000000 0.000000 1.000000 " />
								<TextureCoordinate point="0.4830 0.0072 0.9882 0.0072 0.9882 0.9928 0.4830 0.9928 0.4830 0.9928 0.9882 0.9928 " />
							</IndexedTriangleSet>
						</Shape>
					</Group>
				</Transform>
			</Transform>
			<Transform DEF="wing4_TRANSFORM"
			           translation="-0.338775 -0.111906 0.829399"
			           scale="1.000000 1.000000 1.000000"
			           rotation="0.000000 1.000000 0.000000 0.000000"
			           >
				<Transform DEF="wing4_ifs_TRANSFORM"
				           translation="0.000000 0.000000 0.000000"
				           scale="1.000000 1.000000 1.000000"
				           rotation="0.000000 1.000000 0.000000 0.000000"
				           >
					<Group DEF="group_ME_wing4">
						<Shape>
							<Appearance>
								<Material USE="MA_Body" />
							</Appearance>
							<IndexedTriangleSet solid="false"
							                    normalPerVertex="true"
							                    index="0 1 2 0 2 3 4 5 1 4 1 0 "
							                    >
								<Coordinate point="-1.617829 -0.790280 -0.000000 -1.612015 0.802072 0.000000 -3.226937 0.807968 0.000000 -3.232751 -0.784384 -0.000000 -0.002907 -0.796176 -0.000000 0.002907 0.796176 0.000000 " />
								<Normal vector="0.000000 0.000000 1.000000 0.000000 0.000000 1.000000 0.000000 0.000000 1.000000 0.000000 0.000000 1.000000 0.000000 0.000000 1.000000 0.000000 0.000000 1.000000 " />
								<TextureCoordinate point="0.4830 0.0072 0.9882 0.0072 0.9882 0.9928 0.4830 0.9928 0.4830 0.9928 0.9882 0.9928 " />
							</IndexedTriangleSet>
						</Shape>
					</Group>
				</Transform>
			</Transform>
			<Transform DEF="leg2_TRANSFORM"
			           translation="-0.433301 -0.384612 0.288849"
			           scale="1.000000 1.000000 1.000000"
			           rotation="0.000000 1.000000 0.000000 0.000000"
			           >
				<Transform DEF="leg2_ifs_TRANSFORM"
				           translation="0.000000 0.000000 0.000000"
				           scale="1.000000 1.000000 1.000000"
				           rotation="0.000000 1.000000 0.000000 0.000000"
				           >
					<Group DEF="group_ME_leg2">
						<Shape>
							<Appearance>
								<Material USE="MA_Body" />
							</Appearance>
							<IndexedTriangleSet solid="false"
							                    normalPerVertex="true"
							                    index="0 1 2 0 2 3 4 5 6 4 6 7 8 9 10 8 10 11 12 13 14 12 14 15 4 13 16 4 16 17 18 19 14 18 14 7 "
							                    >
								<Coordinate point="0.000000 -0.060538 -0.051483 0.000000 0.060538 -0.051483 0.000000 0.060538 0.051483 0.000000 -0.060538 0.051483 0.000000 0.060538 -0.051483 -0.549445 0.060538 -0.051483 -0.549445 0.060538 0.051483 0.000000 0.060538 0.051483 -0.549445 0.060538 -0.051483 -0.549445 -0.060538 -0.051483 -0.549445 -0.060538 0.051483 -0.549445 0.060538 0.051483 -0.549445 -0.060538 -0.051483 0.000000 -0.060538 -0.051483 0.000000 -0.060538 0.051483 -0.549445 -0.060538 0.051483 -0.549445 -0.060538 -0.051483 -0.549445 0.060538 -0.051483 -0.549445 0.060538 0.051483 -0.549445 -0.060538 0.051483 " />
								<Normal vector="0.577349 -0.577349 -0.577349 0.577349 0.577349 -0.577349 0.577349 0.577349 0.577349 0.577349 -0.577349 0.577349 0.577349 0.577349 -0.577349 -0.577349 0.577349 -0.577349 -0.577349 0.577349 0.577349 0.577349 0.577349 0.577349 -0.577349 0.577349 -0.577349 -0.577349 -0.577349 -0.577349 -0.577349 -0.577349 0.577349 -0.577349 0.577349 0.577349 -0.577349 -0.577349 -0.577349 0.577349 -0.577349 -0.577349 0.577349 -0.577349 0.577349 -0.577349 -0.577349 0.577349 -0.577349 -0.577349 -0.577349 -0.577349 0.577349 -0.577349 -0.577349 0.577349 0.577349 -0.577349 -0.577349 0.577349 " />
								<TextureCoordinate point="0.0354 0.2815 0.0354 0.4429 0.1968 0.4429 0.1968 0.2815 0.0354 0.2815 0.0354 0.4429 0.1968 0.4429 0.1968 0.2815 0.0354 0.2815 0.0354 0.4429 0.1968 0.4429 0.1968 0.2815 0.0354 0.2815 0.0354 0.4429 0.1968 0.4429 0.1968 0.2815 0.1968 0.4429 0.1968 0.2815 0.0354 0.2815 0.0354 0.4429 " />
							</IndexedTriangleSet>
						</Shape>
					</Group>
				</Transform>
				<Transform DEF="leg2_1_TRANSFORM"
				           translation="-0.542414 0.000000 0.004326"
				           scale="1.000000 1.000000 1.000000"
				           rotation="0.000000 1.000000 0.000000 0.000000"
				           >
					<Transform DEF="leg2_1_ifs_TRANSFORM"
					           translation="0.000000 0.000000 0.000000"
					           scale="1.000000 1.000000 1.000000"
					           rotation="0.000000 1.000000 0.000000 0.000000"
					           >
						<Group DEF="group_ME_leg2_1">
							<Shape>
								<Appearance>
									<Material USE="MA_Body" />
								</Appearance>
								<IndexedTriangleSet solid="false"
								                    normalPerVertex="true"
								                    index="0 1 2 0 2 3 4 5 6 4 6 7 8 9 10 8 10 11 12 13 14 12 14 15 4 13 16 4 16 17 18 19 14 18 14 7 "
								                    >
									<Coordinate point="0.064453 -0.056417 -0.012169 0.064453 0.056417 -0.012169 -0.064453 0.056417 0.012169 -0.064453 -0.056417 0.012169 0.064453 0.056417 -0.012169 -0.072924 0.056417 -0.739766 -0.201830 0.056417 -0.715428 -0.064453 0.056417 0.012169 -0.072924 0.056417 -0.739766 -0.072924 -0.056417 -0.739766 -0.201830 -0.056417 -0.715428 -0.201830 0.056417 -0.715428 -0.072924 -0.056417 -0.739766 0.064453 -0.056417 -0.012169 -0.064453 -0.056417 0.012169 -0.201830 -0.056417 -0.715428 -0.072924 -0.056417 -0.739766 -0.072924 0.056417 -0.739766 -0.201830 0.056417 -0.715428 -0.201830 -0.056417 -0.715428 " />
									<Normal vector="0.674429 -0.577349 0.460189 0.674429 0.577349 0.460189 -0.460189 0.577349 0.674429 -0.460189 -0.577349 0.674429 0.674429 0.577349 0.460189 0.460189 0.577349 -0.674429 -0.674429 0.577349 -0.460189 -0.460189 0.577349 0.674429 0.460189 0.577349 -0.674429 0.460189 -0.577349 -0.674429 -0.674429 -0.577349 -0.460189 -0.674429 0.577349 -0.460189 0.460189 -0.577349 -0.674429 0.674429 -0.577349 0.460189 -0.460189 -0.577349 0.674429 -0.674429 -0.577349 -0.460189 0.460189 -0.577349 -0.674429 0.460189 0.577349 -0.674429 -0.674429 0.577349 -0.460189 -0.674429 -0.577349 -0.460189 " />
									<TextureCoordinate point="0.0354 0.2815 0.0354 0.4429 0.1968 0.4429 0.1968 0.2815 0.0354 0.2815 0.0354 0.4429 0.1968 0.4429 0.1968 0.2815 0.0354 0.2815 0.0354 0.4429 0.1968 0.4429 0.1968 0.2815 0.0354 0.2815 0.0354 0.4429 0.1968 0.4429 0.1968 0.2815 0.1968 0.4429 0.1968 0.2815 0.0354 0.2815 0.0354 0.4429 " />
								</IndexedTriangleSet>
							</Shape>
						</Group>
					</Transform>
					<Transform DEF="foot2_TRANSFORM"
					           translation="-0.124747 0.000510 -0.704826"
					           scale="1.000000 1.000000 1.000000"
					           rotation="0.000000 1.000000 0.000000 0.000000"
					           >
						<Transform DEF="foot2_ifs_TRANSFORM"
						           translation="0.000000 0.000000 0.000000"
						           scale="1.000000 1.000000 1.000000"
						           rotation="0.000000 1.000000 0.000000 0.000000"
						           >
							<Group DEF="group_ME_foot2">
								<Shape>
									<Appearance>
										<Material USE="MA_Body" />
									</Appearance>
									<IndexedTriangleSet solid="false"
									                    normalPerVertex="true"
									                    index="0 1 2 0 2 3 4 5 6 4 6 7 8 9 10 8 10 11 12 13 14 12 14 15 4 13 16 4 16 17 18 19 14 18 14 7 "
									                    >
										<Coordinate point="0.384800 -0.065989 -0.000807 0.385067 0.064386 0.002024 -0.384800 0.065989 0.000807 -0.385067 -0.064386 -0.002024 0.385067 0.064386 0.002024 0.385237 0.066651 -0.102323 -0.384630 0.068254 -0.103540 -0.384800 0.065989 0.000807 0.385237 0.066651 -0.102323 0.384970 -0.063724 -0.105153 -0.384897 -0.062122 -0.106370 -0.384630 0.068254 -0.103540 0.384970 -0.063724 -0.105153 0.384800 -0.065989 -0.000807 -0.385067 -0.064386 -0.002024 -0.384897 -0.062122 -0.106370 0.384970 -0.063724 -0.105153 0.385237 0.066651 -0.102323 -0.384630 0.068254 -0.103540 -0.384897 -0.062122 -0.106370 " />
										<Normal vector="0.575213 -0.590930 0.565569 0.577563 0.563463 0.590655 -0.577105 0.565874 0.588824 -0.579455 -0.588519 0.563768 0.577563 0.563463 0.590655 0.579455 0.588519 -0.563768 -0.575213 0.590930 -0.565569 -0.577105 0.565874 0.588824 0.579455 0.588519 -0.563768 0.577105 -0.565874 -0.588824 -0.577563 -0.563463 -0.590655 -0.575213 0.590930 -0.565569 0.577105 -0.565874 -0.588824 0.575213 -0.590930 0.565569 -0.579455 -0.588519 0.563768 -0.577563 -0.563463 -0.590655 0.577105 -0.565874 -0.588824 0.579455 0.588519 -0.563768 -0.575213 0.590930 -0.565569 -0.577563 -0.563463 -0.590655 " />
										<TextureCoordinate point="0.0354 0.2815 0.0354 0.4429 0.1968 0.4429 0.1968 0.2815 0.0354 0.2815 0.0354 0.4429 0.1968 0.4429 0.1968 0.2815 0.0354 0.2815 0.0354 0.4429 0.1968 0.4429 0.1968 0.2815 0.0354 0.2815 0.0354 0.4429 0.1968 0.4429 0.1968 0.2815 0.1968 0.4429 0.1968 0.2815 0.0354 0.2815 0.0354 0.4429 " />
									</IndexedTriangleSet>
								</Shape>
							</Group>
						</Transform>
					</Transform>
				</Transform>
			</Transform>
		</Transform>
	</Scene>
</X3D>