<?xml version="1.0" encoding="UTF-8"?>
<!DOCTYPE X3D PUBLIC "ISO//Web3D//DTD X3D 3.0//EN" "http://www.web3d.org/specifications/x3d-3.0.dtd">
<X3D version="3.0" profile="Immersive" xmlns:xsd="http://www.w3.org/2001/XMLSchema-instance" xsd:noNamespaceSchemaLocation="http://www.web3d.org/specifications/x3d-3.0.xsd">
	<head>
		<meta name="filename" content="weedle.x3d" />
		<meta name="generator" content="Blender 2.93.18" />
	</head>
	<Scene>
		<NavigationInfo headlight="true"
		                visibilityLimit="0.0"
		                type='"EXAMINE", "ANY"'
		                avatarSize="0.25, 1.75, 0.75"
		                />
		<Background DEF="WO_World"
		            groundColor="0.051 0.051 0.051"
		            skyColor="0.051 0.051 0.051"
		            />
		<Transform DEF="body_TRANSFORM"
		           translation="0.000000 0.000000 0.742118"
		           scale="1.000000 1.000000 1.000000"
		           rotation="0.000000 0.000000 1.000000 3.141593"
		           >
			<Transform DEF="body_ifs_TRANSFORM"
			           translation="0.000000 0.000000 0.000000"
			           scale="1.000000 1.000000 1.000000"
			           rotation="0.000000 1.000000 0.000000 0.000000"
			           >
				<Group DEF="group_ME_body">
					<Shape>
						<Appearance>
							<Material DEF="MA_Body"
							          diffuseColor="0.800 0.800 0.800"
							          specularColor="0.401 0.401 0.401"
							          emissiveColor="0.000 0.000 0.000"
							          ambientIntensity="0.000"
							          shininess="0.500"
							          transparency="0.0"
							          />
						</Appearance>
						<IndexedTriangleSet solid="false"
						                    normalPerVertex="true"
						                    index="0 1 2 0 2 3 4 5 6 4 6 7 8 9 10 8 10 11 12 13 14 12 14 15 4 16 17 4 17 15 18 5 14 18 14 19 "
						                    >
							<Coordinate point="-2.001616 -2.080483 0.013429 -2.001616 -2.062506 2.792446 -2.001616 2.071717 2.765702 -2.001616 2.053740 -0.013315 -2.001616 2.053740 -0.013315 -2.001616 2.071717 2.765702 2.001616 2.071717 2.765702 2.001616 2.053740 -0.013315 2.001616 2.053740 -0.013315 2.001616 2.071717 2.765702 2.001616 -2.062506 2.792446 2.001616 -2.080483 0.013429 2.001616 -2.080483 0.013429 2.001616 -2.062506 2.792446 -2.001616 -2.062506 2.792446 -2.001616 -2.080483 0.013429 2.001616 2.053740 -0.013315 2.001616 -2.080483 0.013429 2.001616 2.071717 2.765702 2.001616 -2.062506 2.792446 " />
							<Normal vector="-0.577349 -0.581072 -0.573595 -0.577349 -0.573595 0.581072 -0.577349 0.581072 0.573595 -0.577349 0.573595 -0.581072 -0.577349 0.573595 -0.581072 -0.577349 0.581072 0.573595 0.577349 0.581072 0.573595 0.577349 0.573595 -0.581072 0.577349 0.573595 -0.581072 0.577349 0.581072 0.573595 0.577349 -0.573595 0.581072 0.577349 -0.581072 -0.573595 0.577349 -0.581072 -0.573595 0.577349 -0.573595 0.581072 -0.577349 -0.573595 0.581072 -0.577349 -0.581072 -0.573595 0.577349 0.573595 -0.581072 0.577349 -0.581072 -0.573595 0.577349 0.581072 0.573595 0.577349 -0.573595 0.581072 " />
							<TextureCoordinate point="0.0267 0.5228 0.4733 0.5228 0.4733 0.9694 0.0267 0.9694 0.0267 0.5228 0.4733 0.5228 0.4733 0.9694 0.0267 0.9694 0.0267 0.5228 0.4733 0.5228 0.4733 0.9694 0.0267 0.9694 0.0267 0.5228 0.4733 0.5228 0.4733 0.9694 0.0267 0.9694 0.4733 0.5228 0.4733 0.9694 0.0267 0.5228 0.0267 0.9694 " />
						</IndexedTriangleSet>
					</Shape>
				</Group>
			</Transform>
			<Transform DEF="body1_TRANSFORM"
			           translation="-0.000000 -0.000000 2.797212"
			           scale="1.000000 1.000000 1.000000"
			           rotation="0.000000 1.000000 0.000000 0.000000"
			           >
				<Transform DEF="body1_ifs_TRANSFORM"
				           translation="0.000000 0.000000 0.000000"
				           scale="1.000000 1.000000 1.000000"
				           rotation="0.000000 1.000000 0.000000 0.000000"
				           >
					<Group DEF="group_ME_body1">
						<Shape>
							<Appearance>
								<Material USE="MA_Body" />
							</Appearance>
							<IndexedTriangleSet solid="false"
							                    normalPerVertex="true"
							                    index="0 1 2 0 2 3 4 5 6 4 6 7 8 9 10 8 10 11 12 13 14 12 14 15 4 16 17 4 17 15 18 5 14 18 14 19 "
							                    >
								<Coordinate point="-2.194201 -2.263341 0.014610 -2.194201 -2.243784 3.037879 -2.194201 2.253804 3.008784 -2.194201 2.234247 -0.014485 -2.194201 2.234247 -0.014485 -2.194201 2.253804 3.008784 2.194201 2.253804 3.008784 2.194201 2.234247 -0.014485 2.194201 2.234247 -0.014485 2.194201 2.253804 3.008784 2.194201 -2.243784 3.037879 2.194201 -2.263341 0.014610 2.194201 -2.263341 0.014610 2.194201 -2.243784 3.037879 -2.194201 -2.243784 3.037879 -2.194201 -2.263341 0.014610 2.194201 2.234247 -0.014485 2.194201 -2.263341 0.014610 2.194201 2.253804 3.008784 2.194201 -2.243784 3.037879 " />
								<Normal vector="-0.577349 -0.581072 -0.573595 -0.577349 -0.573595 0.581072 -0.577349 0.581072 0.573595 -0.577349 0.573595 -0.581072 -0.577349 0.573595 -0.581072 -0.577349 0.581072 0.573595 0.577349 0.581072 0.573595 0.577349 0.573595 -0.581072 0.577349 0.573595 -0.581072 0.577349 0.581072 0.573595 0.577349 -0.573595 0.581072 0.577349 -0.581072 -0.573595 0.577349 -0.581072 -0.573595 0.577349 -0.573595 0.581072 -0.577349 -0.573595 0.581072 -0.577349 -0.581072 -0.573595 0.577349 0.573595 -0.581072 0.577349 -0.581072 -0.573595 0.577349 0.581072 0.573595 0.577349 -0.573595 0.581072 " />
								<TextureCoordinate point="0.0267 0.5228 0.4733 0.5228 0.4733 0.9694 0.0267 0.9694 0.0267 0.5228 0.4733 0.5228 0.4733 0.9694 0.0267 0.9694 0.0267 0.5228 0.4733 0.5228 0.4733 0.9694 0.0267 0.9694 0.0267 0.5228 0.4733 0.5228 0.4733 0.9694 0.0267 0.9694 0.4733 0.5228 0.4733 0.9694 0.0267 0.5228 0.0267 0.9694 " />
							</IndexedTriangleSet>
						</Shape>
					</Group>
				</Transform>
				<Transform DEF="body2_TRANSFORM"
				           translation="-0.000000 -0.000000 2.939926"
				           scale="1.000000 1.000000 1.000000"
				           rotation="0.000000 1.000000 0.000000 0.000000"
				           >
					<Transform DEF="body2_ifs_TRANSFORM"
					           translation="0.000000 0.000000 0.000000"
					           scale="1.000000 1.000000 1.000000"
					           rotation="0.000000 1.000000 0.000000 0.000000"
					           >
						<Group DEF="group_ME_body2">
							<Shape>
								<Appearance>
									<Material USE="MA_Body" />
								</Appearance>
								<IndexedTriangleSet solid="false"
								                    normalPerVertex="true"
								                    index="0 1 2 0 2 3 4 5 6 4 6 7 8 9 10 8 10 11 12 13 14 12 14 15 4 16 17 4 17 15 18 5 14 18 14 19 "
								                    >
									<Coordinate point="-2.479066 -2.549541 0.016460 -2.479066 -2.529444 3.123176 -2.479066 2.536864 3.090403 -2.479066 2.516767 -0.016313 -2.479066 2.516767 -0.016313 -2.479066 2.536864 3.090403 2.479066 2.536864 3.090403 2.479066 2.516767 -0.016313 2.479066 2.516767 -0.016313 2.479066 2.536864 3.090403 2.479066 -2.529444 3.123176 2.479066 -2.549541 0.016460 2.479066 -2.549541 0.016460 2.479066 -2.529444 3.123176 -2.479066 -2.529444 3.123176 -2.479066 -2.549541 0.016460 2.479066 2.516767 -0.016313 2.479066 -2.549541 0.016460 2.479066 2.536864 3.090403 2.479066 -2.529444 3.123176 " />
									<Normal vector="-0.577349 -0.581072 -0.573595 -0.577349 -0.573595 0.581072 -0.577349 0.581072 0.573595 -0.577349 0.573595 -0.581072 -0.577349 0.573595 -0.581072 -0.577349 0.581072 0.573595 0.577349 0.581072 0.573595 0.577349 0.573595 -0.581072 0.577349 0.573595 -0.581072 0.577349 0.581072 0.573595 0.577349 -0.573595 0.581072 0.577349 -0.581072 -0.573595 0.577349 -0.581072 -0.573595 0.577349 -0.573595 0.581072 -0.577349 -0.573595 0.581072 -0.577349 -0.581072 -0.573595 0.577349 0.573595 -0.581072 0.577349 -0.581072 -0.573595 0.577349 0.581072 0.573595 0.577349 -0.573595 0.581072 " />
									<TextureCoordinate point="0.0267 0.5228 0.4733 0.5228 0.4733 0.9694 0.0267 0.9694 0.0267 0.5228 0.4733 0.5228 0.4733 0.9694 0.0267 0.9694 0.0267 0.5228 0.4733 0.5228 0.4733 0.9694 0.0267 0.9694 0.0267 0.5228 0.4733 0.5228 0.4733 0.9694 0.0267 0.9694 0.4733 0.5228 0.4733 0.9694 0.0267 0.5228 0.0267 0.9694 " />
								</IndexedTriangleSet>
							</Shape>
						</Group>
					</Transform>
					<Transform DEF="head_TRANSFORM"
					           translation="-0.000000 -0.328815 3.000438"
					           scale="1.000000 1.000000 1.000000"
					           rotation="0.000000 1.000000 0.000000 0.000000"
					           >
						<Transform DEF="head_ifs_TRANSFORM"
						           translation="0.000000 0.000000 0.000000"
						           scale="1.000000 1.000000 1.000000"
						           rotation="0.000000 1.000000 0.000000 0.000000"
						           >
							<Group DEF="group_ME_head">
								<Shape>
									<Appearance>
										<Material USE="MA_Body" />
									</Appearance>
									<IndexedTriangleSet solid="false"
									                    normalPerVertex="true"
									                    index="0 1 2 0 2 3 4 5 6 4 6 7 8 9 10 8 10 11 12 13 14 12 14 15 16 17 18 16 18 19 20 21 14 20 14 22 23 24 25 23 25 26 27 28 29 27 29 30 31 32 33 31 33 34 35 36 37 35 37 38 24 12 15 24 15 25 28 8 11 28 11 29 32 4 7 32 7 33 36 0 3 36 3 37 39 40 41 39 41 42 43 44 4 43 4 32 45 46 47 45 47 48 49 39 42 49 42 50 51 43 32 51 32 31 52 45 48 52 48 53 54 55 24 54 24 23 56 57 58 56 58 59 60 20 22 60 22 61 49 62 63 49 63 26 64 16 19 64 19 65 46 66 67 46 67 47 68 69 13 68 13 12 40 21 70 40 70 41 44 71 5 44 5 4 41 70 72 41 72 73 73 72 71 73 71 44 47 67 74 47 74 75 75 74 69 75 69 68 62 76 77 62 77 63 76 64 65 76 65 77 57 78 79 57 79 58 78 60 61 78 61 79 53 48 80 53 80 81 81 80 55 81 55 54 50 42 82 50 82 83 83 82 43 83 43 51 80 75 68 80 68 55 42 41 73 42 73 82 82 73 44 82 44 43 "
									                    >
										<Coordinate point="-4.405156 -4.123398 6.658155 -4.405156 -4.118509 7.790692 -4.405156 4.165368 7.737105 -4.405156 4.160479 6.604568 3.598551 4.160479 6.604568 3.598551 4.165368 7.737105 4.405156 4.165368 7.737105 4.405156 4.160479 6.604568 4.405156 4.160479 6.604568 4.405156 4.165368 7.737105 4.405156 -4.118509 7.790692 4.405156 -4.123398 6.658155 -3.598551 -4.123398 6.658155 -3.598551 -4.118509 7.790692 -4.405156 -4.118509 7.790692 -4.405156 -4.123398 6.658155 3.598551 4.115145 -0.026701 4.405156 4.115145 -0.026702 4.405156 -4.168733 0.026886 3.598551 -4.168733 0.026886 -3.598551 4.165368 7.737105 -4.405156 4.165368 7.737105 -3.598551 -4.118509 7.790692 -3.598551 -4.168733 0.026886 -3.598551 -4.138510 5.178433 -4.405156 -4.138510 5.178433 -4.405156 -4.168733 0.026886 4.405156 4.115145 -0.026702 4.405156 4.145368 5.124846 4.405156 -4.138510 5.178433 4.405156 -4.168733 0.026886 3.598551 4.115145 -0.026701 3.598551 4.145368 5.124846 4.405156 4.145368 5.124846 4.405156 4.115145 -0.026702 -4.405156 -4.168733 0.026886 -4.405156 -4.138510 5.178433 -4.405156 4.145368 5.124846 -4.405156 4.115145 -0.026702 -4.405156 4.145368 5.124846 -4.405156 4.160479 6.604568 -3.598551 4.160479 6.604568 -3.598551 4.145368 5.124846 1.989209 4.145368 5.124846 1.989209 4.160479 6.604568 4.405156 -4.138510 5.178433 4.405156 -4.123398 6.658155 3.598551 -4.123398 6.658155 3.598551 -4.138510 5.178433 -4.405156 4.115145 -0.026702 -3.598551 4.115145 -0.026701 1.989208 4.115145 -0.026701 4.405156 -4.168733 0.026886 3.598551 -4.168733 0.026886 -1.989208 -4.168733 0.026886 -1.989209 -4.138510 5.178433 4.405156 4.165368 7.737105 3.598551 4.165368 7.737105 3.598551 -4.118509 7.790692 4.405156 -4.118509 7.790692 -1.989208 4.165368 7.737105 -1.989209 -4.118509 7.790692 -3.598551 4.115145 -0.026701 -3.598551 -4.168733 0.026886 1.989208 4.115145 -0.026701 1.989209 -4.168733 0.026886 4.405156 -4.118509 7.790692 3.598551 -4.118509 7.790692 -1.989209 -4.123398 6.658155 -1.989209 -4.118509 7.790692 -3.598551 4.165368 7.737105 1.989209 4.165368 7.737105 -1.989208 4.165368 7.737105 -1.989208 4.160479 6.604568 1.989208 -4.118509 7.790692 1.989208 -4.123398 6.658155 -1.989209 4.115145 -0.026701 -1.989208 -4.168733 0.026886 1.989209 4.165368 7.737105 1.989208 -4.118509 7.790692 1.989208 -4.138510 5.178433 1.989209 -4.168733 0.026886 -1.989208 4.145368 5.124846 -1.989209 4.115145 -0.026701 " />
										<Normal vector="-0.707755 -0.706412 0.005127 -0.577227 -0.574267 0.580493 -0.577441 0.580370 0.574145 -0.706442 0.707724 -0.005127 0.000000 0.999969 -0.007263 0.000000 0.710898 0.703269 0.577441 0.580370 0.574145 0.706442 0.707724 -0.005127 0.706442 0.707724 -0.005127 0.577441 0.580370 0.574145 0.577227 -0.574267 0.580493 0.707755 -0.706412 0.005127 0.000000 -0.999969 0.007263 0.000000 -0.703269 0.710898 -0.577227 -0.574267 0.580493 -0.707755 -0.706412 0.005127 0.000000 0.702719 -0.711447 0.577288 0.573779 -0.580889 0.577380 -0.580859 -0.573748 0.000000 -0.711447 -0.702719 0.000000 0.710898 0.703269 -0.577441 0.580370 0.574145 0.000000 -0.703269 0.710898 0.000000 -0.711447 -0.702719 0.000000 -0.999939 0.008026 -0.706595 -0.707572 0.005676 -0.577380 -0.580859 -0.573748 0.577288 0.573779 -0.580889 0.707572 0.706565 -0.005676 0.706595 -0.707572 0.005676 0.577380 -0.580859 -0.573748 0.000000 0.702719 -0.711447 0.000000 0.999939 -0.008026 0.707572 0.706565 -0.005676 0.577288 0.573779 -0.580889 -0.577380 -0.580859 -0.573748 -0.706595 -0.707572 0.005676 -0.707572 0.706565 -0.005676 -0.577288 0.573779 -0.580889 -0.707572 0.706565 -0.005676 -0.706442 0.707724 -0.005127 0.000000 0.999969 -0.007263 0.000000 0.999939 -0.008026 0.000000 0.999939 -0.008026 0.000000 0.999969 -0.007263 0.706595 -0.707572 0.005676 0.707755 -0.706412 0.005127 0.000000 -0.999969 0.007263 0.000000 -0.999939 0.008026 -0.577288 0.573779 -0.580889 0.000000 0.702719 -0.711447 0.000000 0.702719 -0.711447 0.577380 -0.580859 -0.573748 0.000000 -0.711447 -0.702719 0.000000 -0.711447 -0.702719 0.000000 -0.999939 0.008026 0.577441 0.580370 0.574145 0.000000 0.710898 0.703269 0.000000 -0.703269 0.710898 0.577227 -0.574267 0.580493 0.000000 0.710898 0.703269 0.000000 -0.703269 0.710898 0.000000 0.702719 -0.711447 0.000000 -0.711447 -0.702719 0.000000 0.702719 -0.711447 0.000000 -0.711447 -0.702719 0.577227 -0.574267 0.580493 0.000000 -0.703269 0.710898 0.000000 -0.999969 0.007263 0.000000 -0.703269 0.710898 0.000000 0.710898 0.703269 0.000000 0.710898 0.703269 0.000000 0.710898 0.703269 0.000000 0.999969 -0.007263 0.000000 -0.703269 0.710898 0.000000 -0.999969 0.007263 0.000000 0.702719 -0.711447 0.000000 -0.711447 -0.702719 0.000000 0.710898 0.703269 0.000000 -0.703269 0.710898 0.000000 -0.999939 0.008026 0.000000 -0.711447 -0.702719 0.000000 0.999939 -0.008026 0.000000 0.702719 -0.711447 " />
										<TextureCoordinate point="0.3616 0.5228 0.4733 0.5228 0.4733 0.9694 0.3616 0.9694 0.3616 0.8205 0.4733 0.8205 0.4733 0.9694 0.3616 0.9694 0.3616 0.5228 0.4733 0.5228 0.4733 0.9694 0.3616 0.9694 0.3616 0.8205 0.4733 0.8205 0.4733 0.9694 0.3616 0.9694 0.3244 0.5228 0.4733 0.5228 0.4733 0.9694 0.3244 0.9694 0.3244 0.5228 0.4733 0.5228 0.3244 0.9694 0.0267 0.8205 0.2500 0.8205 0.2500 0.9694 0.0267 0.9694 0.0267 0.5228 0.2500 0.5228 0.2500 0.9694 0.0267 0.9694 0.0267 0.8205 0.2500 0.8205 0.2500 0.9694 0.0267 0.9694 0.0267 0.5228 0.2500 0.5228 0.2500 0.9694 0.0267 0.9694 0.2500 0.5228 0.3616 0.5228 0.3616 0.6717 0.2500 0.6717 0.2500 0.7709 0.3616 0.7709 0.2500 0.5228 0.3616 0.5228 0.3616 0.6717 0.2500 0.6717 0.0267 0.5228 0.0267 0.6717 0.0267 0.7709 0.0267 0.5228 0.0267 0.6717 0.0267 0.7709 0.2500 0.7709 0.0267 0.5228 0.1756 0.5228 0.1756 0.9694 0.0267 0.9694 0.2748 0.5228 0.2748 0.9694 0.1756 0.5228 0.1756 0.9694 0.2748 0.5228 0.2748 0.9694 0.4733 0.5228 0.4733 0.6717 0.3616 0.7709 0.4733 0.7709 0.4733 0.6717 0.4733 0.7709 0.4733 0.7213 0.3616 0.7213 0.4733 0.7213 0.3616 0.7213 0.2252 0.5228 0.2252 0.9694 0.2252 0.5228 0.2252 0.9694 0.2500 0.7213 0.0267 0.7213 0.2500 0.7213 0.0267 0.7213 " />
									</IndexedTriangleSet>
								</Shape>
								<Shape>
									<Appearance>
										<Material DEF="MA_Eye"
										          diffuseColor="0.800 0.800 0.800"
										          specularColor="0.401 0.401 0.401"
										          emissiveColor="0.000 0.000 0.000"
										          ambientIntensity="0.000"
										          shininess="0.500"
										          transparency="0.0"
										          />
									</Appearance>
									<IndexedTriangleSet solid="false"
									                    normalPerVertex="true"
									                    index="0 1 2 0 2 3 4 5 6 4 6 7 "
									                    >
										<Coordinate point="-1.989209 -4.138510 5.178433 -1.989209 -4.123398 6.658155 -3.598551 -4.123398 6.658155 -3.598551 -4.138510 5.178433 3.598551 -4.138510 5.178433 3.598551 -4.123398 6.658155 1.989208 -4.123398 6.658155 1.989208 -4.138510 5.178433 " />
										<Normal vector="0.000000 -0.999939 0.008026 0.000000 -0.999969 0.007263 0.000000 -0.999969 0.007263 0.000000 -0.999939 0.008026 0.000000 -0.999939 0.008026 0.000000 -0.999969 0.007263 0.000000 -0.999969 0.007263 0.000000 -0.999939 0.008026 " />
										<TextureCoordinate point="0.0224 0.0324 0.0224 0.9676 0.4756 0.9676 0.4756 0.0324 0.4756 0.0324 0.4756 0.9676 0.0224 0.9676 0.0224 0.0324 " />
									</IndexedTriangleSet>
								</Shape>
							</Group>
						</Transform>
						<Transform DEF="Cube_012_TRANSFORM"
						           translation="0.000000 -3.926425 3.938243"
						           scale="1.000000 1.000000 1.000000"
						           rotation="0.000000 1.000000 0.000000 0.000000"
						           >
							<Transform DEF="Cube_012_ifs_TRANSFORM"
							           translation="0.000000 0.000000 0.000000"
							           scale="1.000000 1.000000 1.000000"
							           rotation="0.000000 1.000000 0.000000 0.000000"
							           >
								<Group DEF="group_ME_Cube_022">
									<Shape>
										<Appearance>
											<Material USE="MA_Body" />
										</Appearance>
										<IndexedTriangleSet solid="false"
										                    normalPerVertex="true"
										                    index="0 1 2 0 2 3 4 5 6 4 6 7 8 9 10 8 10 11 12 13 14 12 14 15 4 16 17 4 17 15 18 5 14 18 14 19 "
										                    >
											<Coordinate point="-1.762090 -0.077547 -1.411916 -1.762090 -2.619038 -1.272281 -1.762090 -2.464888 1.533399 -1.762090 0.076603 1.393764 -1.762090 0.076603 1.393764 -1.762090 -2.464888 1.533399 1.762090 -2.464888 1.533399 1.762090 0.076603 1.393764 1.762090 0.076603 1.393764 1.762090 -2.464888 1.533399 1.762090 -2.619038 -1.272281 1.762090 -0.077547 -1.411916 1.762090 -0.077547 -1.411916 1.762090 -2.619038 -1.272281 -1.762090 -2.619038 -1.272281 -1.762090 -0.077547 -1.411916 1.762090 0.076603 1.393764 1.762090 -0.077547 -1.411916 1.762090 -2.464888 1.533399 1.762090 -2.619038 -1.272281 " />
											<Normal vector="-0.577349 0.544786 -0.608142 -0.577349 -0.608142 -0.544786 -0.577349 -0.544786 0.608142 -0.577349 0.608142 0.544786 -0.577349 0.608142 0.544786 -0.577349 -0.544786 0.608142 0.577349 -0.544786 0.608142 0.577349 0.608142 0.544786 0.577349 0.608142 0.544786 0.577349 -0.544786 0.608142 0.577349 -0.608142 -0.544786 0.577349 0.544786 -0.608142 0.577349 0.544786 -0.608142 0.577349 -0.608142 -0.544786 -0.577349 -0.608142 -0.544786 -0.577349 0.544786 -0.608142 0.577349 0.608142 0.544786 0.577349 0.544786 -0.608142 0.577349 -0.544786 0.608142 0.577349 -0.608142 -0.544786 " />
											<TextureCoordinate point="0.5537 0.5459 0.9619 0.5459 0.9619 0.9541 0.5537 0.9541 0.5537 0.5459 0.9619 0.5459 0.9619 0.9541 0.5537 0.9541 0.5537 0.5459 0.9619 0.5459 0.9619 0.9541 0.5537 0.9541 0.5537 0.5459 0.9619 0.5459 0.9619 0.9541 0.5537 0.9541 0.9619 0.5459 0.9619 0.9541 0.5537 0.5459 0.5537 0.9541 " />
										</IndexedTriangleSet>
									</Shape>
								</Group>
							</Transform>
						</Transform>
						<Transform DEF="Cube_013_TRANSFORM"
						           translation="-0.000000 -0.127872 7.617554"
						           scale="1.000000 1.000000 1.000000"
						           rotation="0.000000 1.000000 0.000000 0.000000"
						           >
							<Transform DEF="Cube_013_ifs_TRANSFORM"
							           translation="0.000000 0.000000 0.000000"
							           scale="1.000000 1.000000 1.000000"
							           rotation="0.000000 1.000000 0.000000 0.000000"
							           >
								<Group DEF="group_ME_Cube_023">
									<Shape>
										<Appearance>
											<Material USE="MA_Body" />
										</Appearance>
										<IndexedTriangleSet solid="false"
										                    normalPerVertex="true"
										                    index="0 1 2 0 2 3 4 5 6 4 6 7 8 9 10 8 10 11 12 13 14 12 14 15 4 16 17 4 17 15 18 5 14 18 14 19 "
										                    >
											<Coordinate point="-0.017207 -1.752171 0.007920 -0.024043 -1.745335 1.502289 -1.747855 -0.021523 1.486519 -1.741019 -0.028358 -0.007850 -1.741019 -0.028358 -0.007850 -1.747855 -0.021523 1.486519 0.021523 1.747855 1.486519 0.028358 1.741019 -0.007850 0.028358 1.741019 -0.007850 0.021523 1.747855 1.486519 1.745335 0.024043 1.502289 1.752171 0.017207 0.007920 1.752171 0.017207 0.007920 1.745335 0.024043 1.502289 -0.024043 -1.745335 1.502289 -0.017207 -1.752171 0.007920 0.028358 1.741019 -0.007850 1.752171 0.017207 0.007920 0.021523 1.747855 1.486519 1.745335 0.024043 1.502289 " />
											<Normal vector="0.002625 -0.819117 -0.573595 -0.002625 -0.813837 0.581072 -0.819117 0.002625 0.573595 -0.813837 -0.002625 -0.581072 -0.813837 -0.002625 -0.581072 -0.819117 0.002625 0.573595 -0.002625 0.819117 0.573595 0.002625 0.813837 -0.581072 0.002625 0.813837 -0.581072 -0.002625 0.819117 0.573595 0.813837 0.002625 0.581072 0.819117 -0.002625 -0.573595 0.819117 -0.002625 -0.573595 0.813837 0.002625 0.581072 -0.002625 -0.813837 0.581072 0.002625 -0.819117 -0.573595 0.002625 0.813837 -0.581072 0.819117 -0.002625 -0.573595 -0.002625 0.819117 0.573595 0.813837 0.002625 0.581072 " />
											<TextureCoordinate point="0.5498 0.0498 0.9580 0.0498 0.9580 0.4580 0.5498 0.4580 0.5498 0.0498 0.9580 0.0498 0.9580 0.4580 0.5498 0.4580 0.5498 0.0498 0.9580 0.0498 0.9580 0.4580 0.5498 0.4580 0.5498 0.0498 0.9580 0.0498 0.9580 0.4580 0.5498 0.4580 0.9580 0.0498 0.9580 0.4580 0.5498 0.0498 0.5498 0.4580 " />
										</IndexedTriangleSet>
									</Shape>
								</Group>
							</Transform>
							<Transform DEF="Cube_014_TRANSFORM"
							           translation="-0.006267 0.006267 1.370064"
							           scale="1.000000 1.000000 1.000000"
							           rotation="0.000000 1.000000 0.000000 0.000000"
							           >
								<Transform DEF="Cube_014_ifs_TRANSFORM"
								           translation="0.000000 0.000000 0.000000"
								           scale="1.000000 1.000000 1.000000"
								           rotation="0.000000 1.000000 0.000000 0.000000"
								           >
									<Group DEF="group_ME_Cube_024">
										<Shape>
											<Appearance>
												<Material USE="MA_Body" />
											</Appearance>
											<IndexedTriangleSet solid="false"
											                    normalPerVertex="true"
											                    index="0 1 2 0 2 3 4 5 6 4 6 7 8 9 10 8 10 11 12 13 14 12 14 15 4 16 17 4 17 15 18 5 14 18 14 19 "
											                    >
												<Coordinate point="-0.011154 -1.135826 0.005130 -0.017396 -1.129585 1.369563 -1.134839 -0.012142 1.359340 -1.128598 -0.018383 -0.005093 -1.128598 -0.018383 -0.005093 -1.134839 -0.012142 1.359340 0.012142 1.134839 1.359340 0.018383 1.128598 -0.005093 0.018383 1.128598 -0.005093 0.012142 1.134839 1.359340 1.129585 0.017395 1.369563 1.135827 0.011154 0.005130 1.135827 0.011154 0.005130 1.129585 0.017395 1.369563 -0.017396 -1.129585 1.369563 -0.011154 -1.135826 0.005130 0.018383 1.128598 -0.005093 1.135827 0.011154 0.005130 0.012142 1.134839 1.359340 1.129585 0.017395 1.369563 " />
												<Normal vector="0.002625 -0.819117 -0.573595 -0.002625 -0.813837 0.581072 -0.819117 0.002625 0.573595 -0.813837 -0.002625 -0.581072 -0.813837 -0.002625 -0.581072 -0.819117 0.002625 0.573595 -0.002625 0.819117 0.573595 0.002625 0.813837 -0.581072 0.002625 0.813837 -0.581072 -0.002625 0.819117 0.573595 0.813837 0.002625 0.581072 0.819117 -0.002625 -0.573595 0.819117 -0.002625 -0.573595 0.813837 0.002625 0.581072 -0.002625 -0.813837 0.581072 0.002625 -0.819117 -0.573595 0.002625 0.813837 -0.581072 0.819117 -0.002625 -0.573595 -0.002625 0.819117 0.573595 0.813837 0.002625 0.581072 " />
												<TextureCoordinate point="0.5498 0.0498 0.9580 0.0498 0.9580 0.4580 0.5498 0.4580 0.5498 0.0498 0.9580 0.0498 0.9580 0.4580 0.5498 0.4580 0.5498 0.0498 0.9580 0.0498 0.9580 0.4580 0.5498 0.4580 0.5498 0.0498 0.9580 0.0498 0.9580 0.4580 0.5498 0.4580 0.9580 0.0498 0.9580 0.4580 0.5498 0.0498 0.5498 0.4580 " />
											</IndexedTriangleSet>
										</Shape>
									</Group>
								</Transform>
								<Transform DEF="Cube_015_TRANSFORM"
								           translation="-0.005745 0.005745 1.255894"
								           scale="1.000000 1.000000 1.000000"
								           rotation="0.000000 1.000000 0.000000 0.000000"
								           >
									<Transform DEF="Cube_015_ifs_TRANSFORM"
									           translation="0.000000 0.000000 0.000000"
									           scale="1.000000 1.000000 1.000000"
									           rotation="0.000000 1.000000 0.000000 0.000000"
									           >
										<Group DEF="group_ME_Cube_025">
											<Shape>
												<Appearance>
													<Material USE="MA_Body" />
												</Appearance>
												<IndexedTriangleSet solid="false"
												                    normalPerVertex="true"
												                    index="0 1 2 0 2 3 4 5 6 4 6 7 8 9 10 8 10 11 12 13 14 12 14 15 4 16 17 4 17 15 18 5 14 18 14 19 "
												                    >
													<Coordinate point="-0.005528 -0.562953 0.002535 -0.011864 -0.556617 1.387577 -0.565706 -0.002776 1.382510 -0.559370 -0.009111 -0.002531 -0.559370 -0.009111 -0.002531 -0.565706 -0.002776 1.382510 0.002776 0.565706 1.382510 0.009111 0.559370 -0.002531 0.009111 0.559370 -0.002531 0.002776 0.565706 1.382510 0.556617 0.011864 1.387577 0.562953 0.005528 0.002535 0.562953 0.005528 0.002535 0.556617 0.011864 1.387577 -0.011864 -0.556617 1.387577 -0.005528 -0.562953 0.002535 0.009111 0.559370 -0.002531 0.562953 0.005528 0.002535 0.002776 0.565706 1.382510 0.556617 0.011864 1.387577 " />
													<Normal vector="0.002625 -0.819117 -0.573595 -0.002625 -0.813837 0.581072 -0.819117 0.002625 0.573595 -0.813837 -0.002625 -0.581072 -0.813837 -0.002625 -0.581072 -0.819117 0.002625 0.573595 -0.002625 0.819117 0.573595 0.002625 0.813837 -0.581072 0.002625 0.813837 -0.581072 -0.002625 0.819117 0.573595 0.813837 0.002625 0.581072 0.819117 -0.002625 -0.573595 0.819117 -0.002625 -0.573595 0.813837 0.002625 0.581072 -0.002625 -0.813837 0.581072 0.002625 -0.819117 -0.573595 0.002625 0.813837 -0.581072 0.819117 -0.002625 -0.573595 -0.002625 0.819117 0.573595 0.813837 0.002625 0.581072 " />
													<TextureCoordinate point="0.5498 0.0498 0.9580 0.0498 0.9580 0.4580 0.5498 0.4580 0.5498 0.0498 0.9580 0.0498 0.9580 0.4580 0.5498 0.4580 0.5498 0.0498 0.9580 0.0498 0.9580 0.4580 0.5498 0.4580 0.5498 0.0498 0.9580 0.0498 0.9580 0.4580 0.5498 0.4580 0.9580 0.0498 0.9580 0.4580 0.5498 0.0498 0.5498 0.4580 " />
												</IndexedTriangleSet>
											</Shape>
										</Group>
									</Transform>
								</Transform>
							</Transform>
						</Transform>
					</Transform>
					<Transform DEF="arm1_TRANSFORM"
					           translation="-0.000000 0.028543 1.650327"
					           scale="1.000000 1.000000 1.000000"
					           rotation="0.000000 1.000000 0.000000 0.000000"
					           >
						<Transform DEF="arm1_ifs_TRANSFORM"
						           translation="0.000000 0.000000 0.000000"
						           scale="1.000000 1.000000 1.000000"
						           rotation="0.000000 1.000000 0.000000 0.000000"
						           >
							<Group DEF="group_ME_arm1">
								<Shape>
									<Appearance>
										<Material USE="MA_Body" />
									</Appearance>
									<IndexedTriangleSet solid="false"
									                    normalPerVertex="true"
									                    index="0 1 2 0 2 3 4 5 6 4 6 7 8 9 10 8 10 11 12 13 14 12 14 15 4 13 16 4 16 17 18 19 14 18 14 7 20 21 22 20 22 23 24 25 26 24 26 27 28 29 30 28 30 31 32 33 34 32 34 35 24 36 37 24 37 35 38 25 34 38 34 39 "
									                    >
										<Coordinate point="-2.193748 -0.648497 -0.681741 -2.193748 0.682910 -0.681741 -2.193748 0.682910 0.601446 -2.193748 -0.648497 0.601446 -2.193748 0.682910 -0.681741 -3.265429 0.682910 -0.681741 -3.265429 0.682910 0.601446 -2.193748 0.682910 0.601446 -3.265429 0.682910 -0.681741 -3.265429 -0.648497 -0.681741 -3.265429 -0.648497 0.601446 -3.265429 0.682910 0.601446 -3.265429 -0.648497 -0.681741 -2.193748 -0.648497 -0.681741 -2.193748 -0.648497 0.601446 -3.265429 -0.648497 0.601446 -3.265429 -0.648497 -0.681741 -3.265429 0.682910 -0.681741 -3.265429 0.682910 0.601446 -3.265429 -0.648497 0.601446 2.193748 -0.648497 -0.681741 2.193748 -0.648497 0.601446 2.193748 0.682910 0.601446 2.193748 0.682910 -0.681741 2.193748 0.682910 -0.681741 2.193748 0.682910 0.601446 3.265429 0.682910 0.601446 3.265429 0.682910 -0.681741 3.265429 0.682910 -0.681741 3.265429 0.682910 0.601446 3.265429 -0.648497 0.601446 3.265429 -0.648497 -0.681741 3.265429 -0.648497 -0.681741 3.265429 -0.648497 0.601446 2.193748 -0.648497 0.601446 2.193748 -0.648497 -0.681741 3.265429 0.682910 -0.681741 3.265429 -0.648497 -0.681741 3.265429 0.682910 0.601446 3.265429 -0.648497 0.601446 " />
										<Normal vector="0.577349 -0.577349 -0.577349 0.577349 0.577349 -0.577349 0.577349 0.577349 0.577349 0.577349 -0.577349 0.577349 0.577349 0.577349 -0.577349 -0.577349 0.577349 -0.577349 -0.577349 0.577349 0.577349 0.577349 0.577349 0.577349 -0.577349 0.577349 -0.577349 -0.577349 -0.577349 -0.577349 -0.577349 -0.577349 0.577349 -0.577349 0.577349 0.577349 -0.577349 -0.577349 -0.577349 0.577349 -0.577349 -0.577349 0.577349 -0.577349 0.577349 -0.577349 -0.577349 0.577349 -0.577349 -0.577349 -0.577349 -0.577349 0.577349 -0.577349 -0.577349 0.577349 0.577349 -0.577349 -0.577349 0.577349 -0.577349 -0.577349 -0.577349 -0.577349 -0.577349 0.577349 -0.577349 0.577349 0.577349 -0.577349 0.577349 -0.577349 -0.577349 0.577349 -0.577349 -0.577349 0.577349 0.577349 0.577349 0.577349 0.577349 0.577349 0.577349 -0.577349 0.577349 0.577349 -0.577349 0.577349 0.577349 0.577349 0.577349 -0.577349 0.577349 0.577349 -0.577349 -0.577349 0.577349 -0.577349 -0.577349 0.577349 -0.577349 0.577349 -0.577349 -0.577349 0.577349 -0.577349 -0.577349 -0.577349 0.577349 0.577349 -0.577349 0.577349 -0.577349 -0.577349 0.577349 0.577349 0.577349 0.577349 -0.577349 0.577349 " />
										<TextureCoordinate point="0.5377 0.5299 0.5377 0.9623 0.9701 0.9623 0.9701 0.5299 0.5377 0.5299 0.5377 0.9623 0.9701 0.9623 0.9701 0.5299 0.5377 0.5299 0.5377 0.9623 0.9701 0.9623 0.9701 0.5299 0.5377 0.5299 0.5377 0.9623 0.9701 0.9623 0.9701 0.5299 0.9701 0.9623 0.9701 0.5299 0.5377 0.5299 0.5377 0.9623 0.5377 0.5299 0.5377 0.9623 0.9701 0.9623 0.9701 0.5299 0.5377 0.5299 0.5377 0.9623 0.9701 0.9623 0.9701 0.5299 0.5377 0.5299 0.5377 0.9623 0.9701 0.9623 0.9701 0.5299 0.5377 0.5299 0.5377 0.9623 0.9701 0.9623 0.9701 0.5299 0.5377 0.9623 0.9701 0.9623 0.5377 0.5299 0.9701 0.5299 " />
									</IndexedTriangleSet>
								</Shape>
							</Group>
						</Transform>
					</Transform>
				</Transform>
				<Transform DEF="arm2_TRANSFORM"
				           translation="-0.000000 0.028543 1.606711"
				           scale="1.000000 1.000000 1.000000"
				           rotation="0.000000 1.000000 0.000000 0.000000"
				           >
					<Transform DEF="arm2_ifs_TRANSFORM"
					           translation="0.000000 0.000000 0.000000"
					           scale="1.000000 1.000000 1.000000"
					           rotation="0.000000 1.000000 0.000000 0.000000"
					           >
						<Group DEF="group_ME_arm2">
							<Shape>
								<Appearance>
									<Material USE="MA_Body" />
								</Appearance>
								<IndexedTriangleSet solid="false"
								                    normalPerVertex="true"
								                    index="0 1 2 0 2 3 4 5 6 4 6 7 8 9 10 8 10 11 12 13 14 12 14 15 4 16 17 4 17 15 18 5 14 18 14 19 20 21 22 20 22 23 24 25 26 24 26 27 28 29 30 28 30 31 32 33 34 32 34 35 24 33 36 24 36 37 38 39 34 38 34 27 "
								                    >
									<Coordinate point="2.046526 -0.609087 -0.643758 2.046526 -0.609087 0.563463 2.046526 0.643499 0.563463 2.046526 0.643499 -0.643758 2.046526 0.643499 -0.643758 2.046526 0.643499 0.563463 3.054761 0.643499 0.563463 3.054761 0.643499 -0.643758 3.054761 0.643499 -0.643758 3.054761 0.643499 0.563463 3.054761 -0.609087 0.563463 3.054761 -0.609087 -0.643758 3.054761 -0.609087 -0.643758 3.054761 -0.609087 0.563463 2.046526 -0.609087 0.563463 2.046526 -0.609087 -0.643758 3.054761 0.643499 -0.643758 3.054761 -0.609087 -0.643758 3.054761 0.643499 0.563463 3.054761 -0.609087 0.563463 -2.046526 -0.609087 -0.643758 -2.046526 0.643499 -0.643758 -2.046526 0.643499 0.563463 -2.046526 -0.609087 0.563463 -2.046526 0.643499 -0.643758 -3.054761 0.643499 -0.643758 -3.054761 0.643499 0.563463 -2.046526 0.643499 0.563463 -3.054761 0.643499 -0.643758 -3.054761 -0.609087 -0.643758 -3.054761 -0.609087 0.563463 -3.054761 0.643499 0.563463 -3.054761 -0.609087 -0.643758 -2.046526 -0.609087 -0.643758 -2.046526 -0.609087 0.563463 -3.054761 -0.609087 0.563463 -3.054761 -0.609087 -0.643758 -3.054761 0.643499 -0.643758 -3.054761 0.643499 0.563463 -3.054761 -0.609087 0.563463 " />
									<Normal vector="-0.577349 -0.577349 -0.577349 -0.577349 -0.577349 0.577349 -0.577349 0.577349 0.577349 -0.577349 0.577349 -0.577349 -0.577349 0.577349 -0.577349 -0.577349 0.577349 0.577349 0.577349 0.577349 0.577349 0.577349 0.577349 -0.577349 0.577349 0.577349 -0.577349 0.577349 0.577349 0.577349 0.577349 -0.577349 0.577349 0.577349 -0.577349 -0.577349 0.577349 -0.577349 -0.577349 0.577349 -0.577349 0.577349 -0.577349 -0.577349 0.577349 -0.577349 -0.577349 -0.577349 0.577349 0.577349 -0.577349 0.577349 -0.577349 -0.577349 0.577349 0.577349 0.577349 0.577349 -0.577349 0.577349 0.577349 -0.577349 -0.577349 0.577349 0.577349 -0.577349 0.577349 0.577349 0.577349 0.577349 -0.577349 0.577349 0.577349 0.577349 -0.577349 -0.577349 0.577349 -0.577349 -0.577349 0.577349 0.577349 0.577349 0.577349 0.577349 -0.577349 0.577349 -0.577349 -0.577349 -0.577349 -0.577349 -0.577349 -0.577349 0.577349 -0.577349 0.577349 0.577349 -0.577349 -0.577349 -0.577349 0.577349 -0.577349 -0.577349 0.577349 -0.577349 0.577349 -0.577349 -0.577349 0.577349 -0.577349 -0.577349 -0.577349 -0.577349 0.577349 -0.577349 -0.577349 0.577349 0.577349 -0.577349 -0.577349 0.577349 " />
									<TextureCoordinate point="0.5377 0.5299 0.9701 0.5299 0.9701 0.9623 0.5377 0.9623 0.5377 0.5299 0.9701 0.5299 0.9701 0.9623 0.5377 0.9623 0.5377 0.5299 0.9701 0.5299 0.9701 0.9623 0.5377 0.9623 0.5377 0.5299 0.9701 0.5299 0.9701 0.9623 0.5377 0.9623 0.9701 0.5299 0.9701 0.9623 0.5377 0.5299 0.5377 0.9623 0.5377 0.5299 0.9701 0.5299 0.9701 0.9623 0.5377 0.9623 0.5377 0.5299 0.9701 0.5299 0.9701 0.9623 0.5377 0.9623 0.5377 0.5299 0.9701 0.5299 0.9701 0.9623 0.5377 0.9623 0.5377 0.5299 0.9701 0.5299 0.9701 0.9623 0.5377 0.9623 0.9701 0.9623 0.5377 0.9623 0.5377 0.5299 0.9701 0.5299 " />
								</IndexedTriangleSet>
							</Shape>
						</Group>
					</Transform>
				</Transform>
			</Transform>
			<Transform DEF="tail_TRANSFORM"
			           translation="-0.000000 0.019029 0.079286"
			           scale="1.000000 1.000000 1.000000"
			           rotation="0.000000 1.000000 0.000000 0.000000"
			           >
				<Transform DEF="tail_ifs_TRANSFORM"
				           translation="0.000000 0.000000 0.000000"
				           scale="1.000000 1.000000 1.000000"
				           rotation="0.000000 1.000000 0.000000 0.000000"
				           >
					<Group DEF="group_ME_tail">
						<Shape>
							<Appearance>
								<Material USE="MA_Body" />
							</Appearance>
							<IndexedTriangleSet solid="false"
							                    normalPerVertex="true"
							                    index="0 1 2 0 2 3 4 5 6 4 6 7 8 9 10 8 10 11 12 13 14 12 14 15 4 16 17 4 17 15 18 5 14 18 14 19 "
							                    >
								<Coordinate point="-1.794670 1.865389 -0.012039 -1.794670 1.848133 -2.679682 -1.794670 -1.858667 -2.655704 -1.794670 -1.841411 0.011940 -1.794670 -1.841411 0.011940 -1.794670 -1.858667 -2.655704 1.794670 -1.858667 -2.655704 1.794670 -1.841411 0.011940 1.794670 -1.841411 0.011940 1.794670 -1.858667 -2.655704 1.794670 1.848133 -2.679682 1.794670 1.865389 -0.012039 1.794670 1.865389 -0.012039 1.794670 1.848133 -2.679682 -1.794670 1.848133 -2.679682 -1.794670 1.865389 -0.012039 1.794670 -1.841411 0.011940 1.794670 1.865389 -0.012039 1.794670 -1.858667 -2.655704 1.794670 1.848133 -2.679682 " />
								<Normal vector="-0.577349 0.581072 0.573595 -0.577349 0.573595 -0.581072 -0.577349 -0.581072 -0.573595 -0.577349 -0.573595 0.581072 -0.577349 -0.573595 0.581072 -0.577349 -0.581072 -0.573595 0.577349 -0.581072 -0.573595 0.577349 -0.573595 0.581072 0.577349 -0.573595 0.581072 0.577349 -0.581072 -0.573595 0.577349 0.573595 -0.581072 0.577349 0.581072 0.573595 0.577349 0.581072 0.573595 0.577349 0.573595 -0.581072 -0.577349 0.573595 -0.581072 -0.577349 0.581072 0.573595 0.577349 -0.573595 0.581072 0.577349 0.581072 0.573595 0.577349 -0.581072 -0.573595 0.577349 0.573595 -0.581072 " />
								<TextureCoordinate point="0.0267 0.5228 0.4733 0.5228 0.4733 0.9694 0.0267 0.9694 0.0267 0.5228 0.4733 0.5228 0.4733 0.9694 0.0267 0.9694 0.0267 0.5228 0.4733 0.5228 0.4733 0.9694 0.0267 0.9694 0.0267 0.5228 0.4733 0.5228 0.4733 0.9694 0.0267 0.9694 0.4733 0.5228 0.4733 0.9694 0.0267 0.5228 0.0267 0.9694 " />
							</IndexedTriangleSet>
						</Shape>
					</Group>
				</Transform>
				<Transform DEF="tail1_TRANSFORM"
				           translation="0.000000 -0.000000 -2.616440"
				           scale="1.000000 1.000000 1.000000"
				           rotation="0.000000 1.000000 0.000000 0.000000"
				           >
					<Transform DEF="tail1_ifs_TRANSFORM"
					           translation="0.000000 0.000000 0.000000"
					           scale="1.000000 1.000000 1.000000"
					           rotation="0.000000 1.000000 0.000000 0.000000"
					           >
						<Group DEF="group_ME_tail1">
							<Shape>
								<Appearance>
									<Material USE="MA_Body" />
								</Appearance>
								<IndexedTriangleSet solid="false"
								                    normalPerVertex="true"
								                    index="0 1 2 0 2 3 4 5 6 4 6 7 8 9 10 8 10 11 12 13 14 12 14 15 4 16 17 4 17 15 18 5 14 18 14 19 "
								                    >
									<Coordinate point="-1.657045 1.713474 -0.011058 -1.657045 1.697623 -2.461452 -1.657045 -1.707299 -2.439427 -1.657045 -1.691448 0.010967 -1.657045 -1.691448 0.010967 -1.657045 -1.707299 -2.439427 1.657045 -1.707299 -2.439427 1.657045 -1.691448 0.010967 1.657045 -1.691448 0.010967 1.657045 -1.707299 -2.439427 1.657045 1.697623 -2.461452 1.657045 1.713474 -0.011058 1.657045 1.713474 -0.011058 1.657045 1.697623 -2.461452 -1.657045 1.697623 -2.461452 -1.657045 1.713474 -0.011058 1.657045 -1.691448 0.010967 1.657045 1.713474 -0.011058 1.657045 -1.707299 -2.439427 1.657045 1.697623 -2.461452 " />
									<Normal vector="-0.577349 0.581072 0.573595 -0.577349 0.573595 -0.581072 -0.577349 -0.581072 -0.573595 -0.577349 -0.573595 0.581072 -0.577349 -0.573595 0.581072 -0.577349 -0.581072 -0.573595 0.577349 -0.581072 -0.573595 0.577349 -0.573595 0.581072 0.577349 -0.573595 0.581072 0.577349 -0.581072 -0.573595 0.577349 0.573595 -0.581072 0.577349 0.581072 0.573595 0.577349 0.581072 0.573595 0.577349 0.573595 -0.581072 -0.577349 0.573595 -0.581072 -0.577349 0.581072 0.573595 0.577349 -0.573595 0.581072 0.577349 0.581072 0.573595 0.577349 -0.581072 -0.573595 0.577349 0.573595 -0.581072 " />
									<TextureCoordinate point="0.0267 0.5228 0.4733 0.5228 0.4733 0.9694 0.0267 0.9694 0.0267 0.5228 0.4733 0.5228 0.4733 0.9694 0.0267 0.9694 0.0267 0.5228 0.4733 0.5228 0.4733 0.9694 0.0267 0.9694 0.0267 0.5228 0.4733 0.5228 0.4733 0.9694 0.0267 0.9694 0.4733 0.5228 0.4733 0.9694 0.0267 0.5228 0.0267 0.9694 " />
								</IndexedTriangleSet>
							</Shape>
						</Group>
					</Transform>
					<Transform DEF="tail2_TRANSFORM"
					           translation="-0.000000 0.000000 -2.418225"
					           scale="1.000000 1.000000 1.000000"
					           rotation="0.000000 1.000000 0.000000 0.000000"
					           >
						<Transform DEF="tail2_ifs_TRANSFORM"
						           translation="0.000000 0.000000 0.000000"
						           scale="1.000000 1.000000 1.000000"
						           rotation="0.000000 1.000000 0.000000 0.000000"
						           >
							<Group DEF="group_ME_tail2">
								<Shape>
									<Appearance>
										<Material USE="MA_Body" />
									</Appearance>
									<IndexedTriangleSet solid="false"
									                    normalPerVertex="true"
									                    index="0 1 2 0 2 3 4 5 6 4 6 7 8 9 10 8 10 11 12 13 14 12 14 15 4 16 17 4 17 15 18 5 14 18 14 19 "
									                    >
										<Coordinate point="-1.440881 1.524381 -0.009837 -1.440881 1.509396 -2.326388 -1.440881 -1.519771 -2.306793 -1.440881 -1.504786 0.009758 -1.440881 -1.504786 0.009758 -1.440881 -1.519771 -2.306793 1.440881 -1.519771 -2.306793 1.440881 -1.504786 0.009758 1.440881 -1.504786 0.009758 1.440881 -1.519771 -2.306793 1.440881 1.509396 -2.326388 1.440881 1.524381 -0.009837 1.440881 1.524381 -0.009837 1.440881 1.509396 -2.326388 -1.440881 1.509396 -2.326388 -1.440881 1.524381 -0.009837 1.440881 -1.504786 0.009758 1.440881 1.524381 -0.009837 1.440881 -1.519771 -2.306793 1.440881 1.509396 -2.326388 " />
										<Normal vector="-0.577349 0.581072 0.573595 -0.577349 0.573595 -0.581072 -0.577349 -0.581072 -0.573595 -0.577349 -0.573595 0.581072 -0.577349 -0.573595 0.581072 -0.577349 -0.581072 -0.573595 0.577349 -0.581072 -0.573595 0.577349 -0.573595 0.581072 0.577349 -0.573595 0.581072 0.577349 -0.581072 -0.573595 0.577349 0.573595 -0.581072 0.577349 0.581072 0.573595 0.577349 0.581072 0.573595 0.577349 0.573595 -0.581072 -0.577349 0.573595 -0.581072 -0.577349 0.581072 0.573595 0.577349 -0.573595 0.581072 0.577349 0.581072 0.573595 0.577349 -0.581072 -0.573595 0.577349 0.573595 -0.581072 " />
										<TextureCoordinate point="0.0267 0.5228 0.4733 0.5228 0.4733 0.9694 0.0267 0.9694 0.0267 0.5228 0.4733 0.5228 0.4733 0.9694 0.0267 0.9694 0.0267 0.5228 0.4733 0.5228 0.4733 0.9694 0.0267 0.9694 0.0267 0.5228 0.4733 0.5228 0.4733 0.9694 0.0267 0.9694 0.4733 0.5228 0.4733 0.9694 0.0267 0.5228 0.0267 0.9694 " />
									</IndexedTriangleSet>
								</Shape>
							</Group>
						</Transform>
						<Transform DEF="tail3_TRANSFORM"
						           translation="0.000000 -0.000000 -2.295991"
						           scale="1.000000 1.000000 1.000000"
						           rotation="0.000000 1.000000 0.000000 0.000000"
						           >
							<Transform DEF="tail3_ifs_TRANSFORM"
							           translation="0.000000 0.000000 0.000000"
							           scale="1.000000 1.000000 1.000000"
							           rotation="0.000000 1.000000 0.000000 0.000000"
							           >
								<Group DEF="group_ME_tail3">
									<Shape>
										<Appearance>
											<Material USE="MA_Body" />
										</Appearance>
										<IndexedTriangleSet solid="false"
										                    normalPerVertex="true"
										                    index="0 1 2 0 2 3 4 5 6 4 6 7 8 9 10 8 10 11 12 13 14 12 14 15 4 16 17 4 17 15 18 5 14 18 14 19 "
										                    >
											<Coordinate point="-1.266642 1.401934 -0.009044 -1.266642 1.386683 -2.366643 -1.266642 -1.399163 -2.348622 -1.266642 -1.383913 0.008977 -1.266642 -1.383913 0.008977 -1.266642 -1.399163 -2.348622 1.266642 -1.399163 -2.348622 1.266642 -1.383913 0.008977 1.266642 -1.383913 0.008977 1.266642 -1.399163 -2.348622 1.266642 1.386683 -2.366643 1.266642 1.401934 -0.009044 1.266642 1.401934 -0.009044 1.266642 1.386683 -2.366643 -1.266642 1.386683 -2.366643 -1.266642 1.401934 -0.009044 1.266642 -1.383913 0.008977 1.266642 1.401934 -0.009044 1.266642 -1.399163 -2.348622 1.266642 1.386683 -2.366643 " />
											<Normal vector="-0.577349 0.581072 0.573595 -0.577349 0.573595 -0.581072 -0.577349 -0.581072 -0.573595 -0.577349 -0.573595 0.581072 -0.577349 -0.573595 0.581072 -0.577349 -0.581072 -0.573595 0.577349 -0.581072 -0.573595 0.577349 -0.573595 0.581072 0.577349 -0.573595 0.581072 0.577349 -0.581072 -0.573595 0.577349 0.573595 -0.581072 0.577349 0.581072 0.573595 0.577349 0.581072 0.573595 0.577349 0.573595 -0.581072 -0.577349 0.573595 -0.581072 -0.577349 0.581072 0.573595 0.577349 -0.573595 0.581072 0.577349 0.581072 0.573595 0.577349 -0.581072 -0.573595 0.577349 0.573595 -0.581072 " />
											<TextureCoordinate point="0.0267 0.5228 0.4733 0.5228 0.4733 0.9694 0.0267 0.9694 0.0267 0.5228 0.4733 0.5228 0.4733 0.9694 0.0267 0.9694 0.0267 0.5228 0.4733 0.5228 0.4733 0.9694 0.0267 0.9694 0.0267 0.5228 0.4733 0.5228 0.4733 0.9694 0.0267 0.9694 0.4733 0.5228 0.4733 0.9694 0.0267 0.5228 0.0267 0.9694 " />
										</IndexedTriangleSet>
									</Shape>
								</Group>
							</Transform>
							<Transform DEF="tail4_TRANSFORM"
							           translation="0.000000 0.000000 -2.203001"
							           scale="1.000000 1.000000 1.000000"
							           rotation="0.000000 1.000000 0.000000 0.000000"
							           >
								<Transform DEF="tail4_ifs_TRANSFORM"
								           translation="0.000000 0.000000 0.000000"
								           scale="1.000000 1.000000 1.000000"
								           rotation="0.000000 1.000000 0.000000 0.000000"
								           >
									<Group DEF="group_ME_tail4">
										<Shape>
											<Appearance>
												<Material USE="MA_Body" />
											</Appearance>
											<IndexedTriangleSet solid="false"
											                    normalPerVertex="true"
											                    index="0 1 2 0 2 3 4 5 6 4 6 7 8 9 10 8 10 11 12 13 14 12 14 15 4 16 17 4 17 15 18 5 14 18 14 19 "
											                    >
												<Coordinate point="-0.437904 0.365922 -0.002360 -0.437904 0.361568 -0.675507 -0.437904 -0.365573 -0.670803 -0.437904 -0.361218 0.002344 -0.437904 -0.361218 0.002344 -0.437904 -0.365573 -0.670803 0.437904 -0.365573 -0.670803 0.437904 -0.361218 0.002344 0.437904 -0.361218 0.002344 0.437904 -0.365573 -0.670803 0.437904 0.361568 -0.675507 0.437904 0.365922 -0.002360 0.437904 0.365922 -0.002360 0.437904 0.361568 -0.675507 -0.437904 0.361568 -0.675507 -0.437904 0.365922 -0.002360 0.437904 -0.361218 0.002344 0.437904 0.365922 -0.002360 0.437904 -0.365573 -0.670803 0.437904 0.361568 -0.675507 " />
												<Normal vector="-0.577349 0.581072 0.573595 -0.577349 0.573595 -0.581072 -0.577349 -0.581072 -0.573595 -0.577349 -0.573595 0.581072 -0.577349 -0.573595 0.581072 -0.577349 -0.581072 -0.573595 0.577349 -0.581072 -0.573595 0.577349 -0.573595 0.581072 0.577349 -0.573595 0.581072 0.577349 -0.581072 -0.573595 0.577349 0.573595 -0.581072 0.577349 0.581072 0.573595 0.577349 0.581072 0.573595 0.577349 0.573595 -0.581072 -0.577349 0.573595 -0.581072 -0.577349 0.581072 0.573595 0.577349 -0.573595 0.581072 0.577349 0.581072 0.573595 0.577349 -0.581072 -0.573595 0.577349 0.573595 -0.581072 " />
												<TextureCoordinate point="0.0573 0.0612 0.4427 0.0612 0.4427 0.4466 0.0573 0.4466 0.0573 0.0612 0.4427 0.0612 0.4427 0.4466 0.0573 0.4466 0.0573 0.0612 0.4427 0.0612 0.4427 0.4466 0.0573 0.4466 0.0573 0.0612 0.4427 0.0612 0.4427 0.4466 0.0573 0.4466 0.4427 0.0612 0.4427 0.4466 0.0573 0.0612 0.0573 0.4466 " />
											</IndexedTriangleSet>
										</Shape>
									</Group>
								</Transform>
								<Transform DEF="Cube_009_TRANSFORM"
								           translation="-0.000000 -0.006407 -0.401718"
								           scale="1.000000 1.000000 1.000000"
								           rotation="0.000000 1.000000 0.000000 0.000000"
								           >
									<Transform DEF="Cube_009_ifs_TRANSFORM"
									           translation="0.000000 0.000000 0.000000"
									           scale="1.000000 1.000000 1.000000"
									           rotation="0.000000 1.000000 0.000000 0.000000"
									           >
										<Group DEF="group_ME_Cube_019">
											<Shape>
												<Appearance>
													<Material USE="MA_Body" />
												</Appearance>
												<IndexedTriangleSet solid="false"
												                    normalPerVertex="true"
												                    index="0 1 2 0 2 3 4 5 6 4 6 7 8 9 10 8 10 11 12 13 14 12 14 15 4 16 17 4 17 15 18 5 14 18 14 19 "
												                    >
													<Coordinate point="-0.857825 0.871550 0.064202 -0.857825 0.985539 -1.483598 -0.857825 -0.746360 -1.611145 -0.857825 -0.860349 -0.063345 -0.857825 -0.860349 -0.063345 -0.857825 -0.746360 -1.611145 0.857825 -0.746360 -1.611145 0.857825 -0.860349 -0.063345 0.857825 -0.860349 -0.063345 0.857825 -0.746360 -1.611145 0.857825 0.985539 -1.483598 0.857825 0.871550 0.064202 0.857825 0.871550 0.064202 0.857825 0.985539 -1.483598 -0.857825 0.985539 -1.483598 -0.857825 0.871550 0.064202 0.857825 -0.860349 -0.063345 0.857825 0.871550 0.064202 0.857825 -0.746360 -1.611145 0.857825 0.985539 -1.483598 " />
													<Normal vector="-0.577349 0.533372 0.618183 -0.577349 0.618183 -0.533372 -0.577349 -0.533372 -0.618183 -0.577349 -0.618183 0.533372 -0.577349 -0.618183 0.533372 -0.577349 -0.533372 -0.618183 0.577349 -0.533372 -0.618183 0.577349 -0.618183 0.533372 0.577349 -0.618183 0.533372 0.577349 -0.533372 -0.618183 0.577349 0.618183 -0.533372 0.577349 0.533372 0.618183 0.577349 0.533372 0.618183 0.577349 0.618183 -0.533372 -0.577349 0.618183 -0.533372 -0.577349 0.533372 0.618183 0.577349 -0.618183 0.533372 0.577349 0.533372 0.618183 0.577349 -0.533372 -0.618183 0.577349 0.618183 -0.533372 " />
													<TextureCoordinate point="0.5498 0.0498 0.9580 0.0498 0.9580 0.4580 0.5498 0.4580 0.5498 0.0498 0.9580 0.0498 0.9580 0.4580 0.5498 0.4580 0.5498 0.0498 0.9580 0.0498 0.9580 0.4580 0.5498 0.4580 0.5498 0.0498 0.9580 0.0498 0.9580 0.4580 0.5498 0.4580 0.9580 0.0498 0.9580 0.4580 0.5498 0.0498 0.5498 0.4580 " />
												</IndexedTriangleSet>
											</Shape>
										</Group>
									</Transform>
									<Transform DEF="Cube_010_TRANSFORM"
									           translation="-0.000000 0.095616 -1.373888"
									           scale="1.000000 1.000000 1.000000"
									           rotation="0.000000 1.000000 0.000000 0.000000"
									           >
										<Transform DEF="Cube_010_ifs_TRANSFORM"
										           translation="0.000000 0.000000 0.000000"
										           scale="1.000000 1.000000 1.000000"
										           rotation="0.000000 1.000000 0.000000 0.000000"
										           >
											<Group DEF="group_ME_Cube_020">
												<Shape>
													<Appearance>
														<Material USE="MA_Body" />
													</Appearance>
													<IndexedTriangleSet solid="false"
													                    normalPerVertex="true"
													                    index="0 1 2 0 2 3 4 5 6 4 6 7 8 9 10 8 10 11 12 13 14 12 14 15 4 16 17 4 17 15 18 5 14 18 14 19 "
													                    >
														<Coordinate point="-0.648016 0.724815 0.156240 -0.648016 0.927224 -0.782824 -0.648016 -0.513093 -1.093275 -0.648016 -0.715502 -0.154212 -0.648016 -0.715502 -0.154212 -0.648016 -0.513093 -1.093275 0.648016 -0.513093 -1.093275 0.648016 -0.715502 -0.154212 0.648016 -0.715502 -0.154212 0.648016 -0.513093 -1.093275 0.648016 0.927224 -0.782824 0.648016 0.724815 0.156240 0.648016 0.724815 0.156240 0.648016 0.927224 -0.782824 -0.648016 0.927224 -0.782824 -0.648016 0.724815 0.156240 0.648016 -0.715502 -0.154212 0.648016 0.724815 0.156240 0.648016 -0.513093 -1.093275 0.648016 0.927224 -0.782824 " />
														<Normal vector="-0.577349 0.442732 0.686026 -0.577349 0.686026 -0.442732 -0.577349 -0.442732 -0.686026 -0.577349 -0.686026 0.442732 -0.577349 -0.686026 0.442732 -0.577349 -0.442732 -0.686026 0.577349 -0.442732 -0.686026 0.577349 -0.686026 0.442732 0.577349 -0.686026 0.442732 0.577349 -0.442732 -0.686026 0.577349 0.686026 -0.442732 0.577349 0.442732 0.686026 0.577349 0.442732 0.686026 0.577349 0.686026 -0.442732 -0.577349 0.686026 -0.442732 -0.577349 0.442732 0.686026 0.577349 -0.686026 0.442732 0.577349 0.442732 0.686026 0.577349 -0.442732 -0.686026 0.577349 0.686026 -0.442732 " />
														<TextureCoordinate point="0.5498 0.0498 0.9580 0.0498 0.9580 0.4580 0.5498 0.4580 0.5498 0.0498 0.9580 0.0498 0.9580 0.4580 0.5498 0.4580 0.5498 0.0498 0.9580 0.0498 0.9580 0.4580 0.5498 0.4580 0.5498 0.0498 0.9580 0.0498 0.9580 0.4580 0.5498 0.4580 0.9580 0.0498 0.9580 0.4580 0.5498 0.0498 0.5498 0.4580 " />
													</IndexedTriangleSet>
												</Shape>
											</Group>
										</Transform>
										<Transform DEF="Cube_011_TRANSFORM"
										           translation="-0.000000 0.138210 -0.742848"
										           scale="1.000000 1.000000 1.000000"
										           rotation="0.000000 1.000000 0.000000 0.000000"
										           >
											<Transform DEF="Cube_011_ifs_TRANSFORM"
											           translation="0.000000 0.000000 0.000000"
											           scale="1.000000 1.000000 1.000000"
											           rotation="0.000000 1.000000 0.000000 0.000000"
											           >
												<Group DEF="group_ME_Cube_021">
													<Shape>
														<Appearance>
															<Material USE="MA_Body" />
														</Appearance>
														<IndexedTriangleSet solid="false"
														                    normalPerVertex="true"
														                    index="0 1 2 0 2 3 4 5 6 4 6 7 8 9 10 8 10 11 12 13 14 12 14 15 4 16 17 4 17 15 18 5 14 18 14 19 "
														                    >
															<Coordinate point="-0.437181 0.417624 0.216635 -0.437181 1.015292 -0.935621 -0.437181 0.185400 -1.366081 -0.437181 -0.412268 -0.213826 -0.437181 -0.412268 -0.213826 -0.437181 0.185400 -1.366081 0.437181 0.185400 -1.366081 0.437181 -0.412268 -0.213826 0.437181 -0.412268 -0.213826 0.437181 0.185400 -1.366081 0.437181 1.015292 -0.935621 0.437181 0.417624 0.216635 0.437181 0.417624 0.216635 0.437181 1.015292 -0.935621 -0.437181 1.015292 -0.935621 -0.437181 0.417624 0.216635 0.437181 -0.412268 -0.213826 0.437181 0.417624 0.216635 0.437181 0.185400 -1.366081 0.437181 1.015292 -0.935621 " />
															<Normal vector="-0.577349 0.246651 0.778314 -0.577349 0.778314 -0.246651 -0.577349 -0.246651 -0.778314 -0.577349 -0.778314 0.246651 -0.577349 -0.778314 0.246651 -0.577349 -0.246651 -0.778314 0.577349 -0.246651 -0.778314 0.577349 -0.778314 0.246651 0.577349 -0.778314 0.246651 0.577349 -0.246651 -0.778314 0.577349 0.778314 -0.246651 0.577349 0.246651 0.778314 0.577349 0.246651 0.778314 0.577349 0.778314 -0.246651 -0.577349 0.778314 -0.246651 -0.577349 0.246651 0.778314 0.577349 -0.778314 0.246651 0.577349 0.246651 0.778314 0.577349 -0.246651 -0.778314 0.577349 0.778314 -0.246651 " />
															<TextureCoordinate point="0.5498 0.0498 0.9580 0.0498 0.9580 0.4580 0.5498 0.4580 0.5498 0.0498 0.9580 0.0498 0.9580 0.4580 0.5498 0.4580 0.5498 0.0498 0.9580 0.0498 0.9580 0.4580 0.5498 0.4580 0.5498 0.0498 0.9580 0.0498 0.9580 0.4580 0.5498 0.4580 0.9580 0.0498 0.9580 0.4580 0.5498 0.0498 0.5498 0.4580 " />
														</IndexedTriangleSet>
													</Shape>
												</Group>
											</Transform>
										</Transform>
									</Transform>
								</Transform>
							</Transform>
							<Transform DEF="arm7_TRANSFORM"
							           translation="0.000000 0.009515 -1.015177"
							           scale="1.000000 1.000000 1.000000"
							           rotation="0.000000 1.000000 0.000000 0.000000"
							           >
								<Transform DEF="arm7_ifs_TRANSFORM"
								           translation="0.000000 0.000000 0.000000"
								           scale="1.000000 1.000000 1.000000"
								           rotation="0.000000 1.000000 0.000000 0.000000"
								           >
									<Group DEF="group_ME_arm7">
										<Shape>
											<Appearance>
												<Material USE="MA_Body" />
											</Appearance>
											<IndexedTriangleSet solid="false"
											                    normalPerVertex="true"
											                    index="0 1 2 0 2 3 4 5 6 4 6 7 8 9 10 8 10 11 12 13 14 12 14 15 4 16 17 4 17 15 18 5 14 18 14 19 20 21 22 20 22 23 24 25 26 24 26 27 28 29 30 28 30 31 32 33 34 32 34 35 24 33 36 24 36 37 38 39 34 38 34 27 "
											                    >
												<Coordinate point="1.149084 -0.551449 -0.564185 1.149084 -0.551449 0.566479 1.149084 0.585862 0.566479 1.149084 0.585862 -0.564185 1.149084 0.585862 -0.564185 1.149084 0.585862 0.566479 2.012815 0.585862 0.566479 2.012815 0.585862 -0.564185 2.012815 0.585862 -0.564185 2.012815 0.585862 0.566479 2.012815 -0.551449 0.566479 2.012815 -0.551449 -0.564185 2.012815 -0.551449 -0.564185 2.012815 -0.551449 0.566479 1.149084 -0.551449 0.566479 1.149084 -0.551449 -0.564185 2.012815 0.585862 -0.564185 2.012815 -0.551449 -0.564185 2.012815 0.585862 0.566479 2.012815 -0.551449 0.566479 -1.149084 -0.551449 -0.564185 -1.149084 0.585862 -0.564185 -1.149084 0.585862 0.566479 -1.149084 -0.551449 0.566479 -1.149084 0.585862 -0.564185 -2.012815 0.585862 -0.564185 -2.012815 0.585862 0.566479 -1.149084 0.585862 0.566479 -2.012815 0.585862 -0.564185 -2.012815 -0.551449 -0.564185 -2.012815 -0.551449 0.566479 -2.012815 0.585862 0.566479 -2.012815 -0.551449 -0.564185 -1.149084 -0.551449 -0.564185 -1.149084 -0.551449 0.566479 -2.012815 -0.551449 0.566479 -2.012815 -0.551449 -0.564185 -2.012815 0.585862 -0.564185 -2.012815 0.585862 0.566479 -2.012815 -0.551449 0.566479 " />
												<Normal vector="-0.577349 -0.577349 -0.577349 -0.577349 -0.577349 0.577349 -0.577349 0.577349 0.577349 -0.577349 0.577349 -0.577349 -0.577349 0.577349 -0.577349 -0.577349 0.577349 0.577349 0.577349 0.577349 0.577349 0.577349 0.577349 -0.577349 0.577349 0.577349 -0.577349 0.577349 0.577349 0.577349 0.577349 -0.577349 0.577349 0.577349 -0.577349 -0.577349 0.577349 -0.577349 -0.577349 0.577349 -0.577349 0.577349 -0.577349 -0.577349 0.577349 -0.577349 -0.577349 -0.577349 0.577349 0.577349 -0.577349 0.577349 -0.577349 -0.577349 0.577349 0.577349 0.577349 0.577349 -0.577349 0.577349 0.577349 -0.577349 -0.577349 0.577349 0.577349 -0.577349 0.577349 0.577349 0.577349 0.577349 -0.577349 0.577349 0.577349 0.577349 -0.577349 -0.577349 0.577349 -0.577349 -0.577349 0.577349 0.577349 0.577349 0.577349 0.577349 -0.577349 0.577349 -0.577349 -0.577349 -0.577349 -0.577349 -0.577349 -0.577349 0.577349 -0.577349 0.577349 0.577349 -0.577349 -0.577349 -0.577349 0.577349 -0.577349 -0.577349 0.577349 -0.577349 0.577349 -0.577349 -0.577349 0.577349 -0.577349 -0.577349 -0.577349 -0.577349 0.577349 -0.577349 -0.577349 0.577349 0.577349 -0.577349 -0.577349 0.577349 " />
												<TextureCoordinate point="0.5377 0.5299 0.9701 0.5299 0.9701 0.9623 0.5377 0.9623 0.5377 0.5299 0.9701 0.5299 0.9701 0.9623 0.5377 0.9623 0.5377 0.5299 0.9701 0.5299 0.9701 0.9623 0.5377 0.9623 0.5377 0.5299 0.9701 0.5299 0.9701 0.9623 0.5377 0.9623 0.9701 0.5299 0.9701 0.9623 0.5377 0.5299 0.5377 0.9623 0.5377 0.5299 0.9701 0.5299 0.9701 0.9623 0.5377 0.9623 0.5377 0.5299 0.9701 0.5299 0.9701 0.9623 0.5377 0.9623 0.5377 0.5299 0.9701 0.5299 0.9701 0.9623 0.5377 0.9623 0.5377 0.5299 0.9701 0.5299 0.9701 0.9623 0.5377 0.9623 0.9701 0.9623 0.5377 0.9623 0.5377 0.5299 0.9701 0.5299 " />
											</IndexedTriangleSet>
										</Shape>
									</Group>
								</Transform>
							</Transform>
						</Transform>
						<Transform DEF="arm6_TRANSFORM"
						           translation="0.000000 0.009514 -1.103043"
						           scale="1.000000 1.000000 1.000000"
						           rotation="0.000000 1.000000 0.000000 0.000000"
						           >
							<Transform DEF="arm6_ifs_TRANSFORM"
							           translation="0.000000 0.000000 0.000000"
							           scale="1.000000 1.000000 1.000000"
							           rotation="0.000000 1.000000 0.000000 0.000000"
							           >
								<Group DEF="group_ME_arm6">
									<Shape>
										<Appearance>
											<Material USE="MA_Body" />
										</Appearance>
										<IndexedTriangleSet solid="false"
										                    normalPerVertex="true"
										                    index="0 1 2 0 2 3 4 5 6 4 6 7 8 9 10 8 10 11 12 13 14 12 14 15 4 16 17 4 17 15 18 5 14 18 14 19 20 21 22 20 22 23 24 25 26 24 26 27 28 29 30 28 30 31 32 33 34 32 34 35 24 33 36 24 36 37 38 39 34 38 34 27 "
										                    >
											<Coordinate point="1.349823 -0.609087 -0.602463 1.349823 -0.609087 0.604758 1.349823 0.643499 0.604758 1.349823 0.643499 -0.602463 1.349823 0.643499 -0.602463 1.349823 0.643499 0.604758 2.213554 0.643499 0.604758 2.213554 0.643499 -0.602463 2.213554 0.643499 -0.602463 2.213554 0.643499 0.604758 2.213554 -0.609087 0.604758 2.213554 -0.609087 -0.602463 2.213554 -0.609087 -0.602463 2.213554 -0.609087 0.604758 1.349823 -0.609087 0.604758 1.349823 -0.609087 -0.602463 2.213554 0.643499 -0.602463 2.213554 -0.609087 -0.602463 2.213554 0.643499 0.604758 2.213554 -0.609087 0.604758 -1.349823 -0.609087 -0.602463 -1.349823 0.643499 -0.602463 -1.349823 0.643499 0.604758 -1.349823 -0.609087 0.604758 -1.349823 0.643499 -0.602463 -2.213554 0.643499 -0.602463 -2.213554 0.643499 0.604758 -1.349823 0.643499 0.604758 -2.213554 0.643499 -0.602463 -2.213554 -0.609087 -0.602463 -2.213554 -0.609087 0.604758 -2.213554 0.643499 0.604758 -2.213554 -0.609087 -0.602463 -1.349823 -0.609087 -0.602463 -1.349823 -0.609087 0.604758 -2.213554 -0.609087 0.604758 -2.213554 -0.609087 -0.602463 -2.213554 0.643499 -0.602463 -2.213554 0.643499 0.604758 -2.213554 -0.609087 0.604758 " />
											<Normal vector="-0.577349 -0.577349 -0.577349 -0.577349 -0.577349 0.577349 -0.577349 0.577349 0.577349 -0.577349 0.577349 -0.577349 -0.577349 0.577349 -0.577349 -0.577349 0.577349 0.577349 0.577349 0.577349 0.577349 0.577349 0.577349 -0.577349 0.577349 0.577349 -0.577349 0.577349 0.577349 0.577349 0.577349 -0.577349 0.577349 0.577349 -0.577349 -0.577349 0.577349 -0.577349 -0.577349 0.577349 -0.577349 0.577349 -0.577349 -0.577349 0.577349 -0.577349 -0.577349 -0.577349 0.577349 0.577349 -0.577349 0.577349 -0.577349 -0.577349 0.577349 0.577349 0.577349 0.577349 -0.577349 0.577349 0.577349 -0.577349 -0.577349 0.577349 0.577349 -0.577349 0.577349 0.577349 0.577349 0.577349 -0.577349 0.577349 0.577349 0.577349 -0.577349 -0.577349 0.577349 -0.577349 -0.577349 0.577349 0.577349 0.577349 0.577349 0.577349 -0.577349 0.577349 -0.577349 -0.577349 -0.577349 -0.577349 -0.577349 -0.577349 0.577349 -0.577349 0.577349 0.577349 -0.577349 -0.577349 -0.577349 0.577349 -0.577349 -0.577349 0.577349 -0.577349 0.577349 -0.577349 -0.577349 0.577349 -0.577349 -0.577349 -0.577349 -0.577349 0.577349 -0.577349 -0.577349 0.577349 0.577349 -0.577349 -0.577349 0.577349 " />
											<TextureCoordinate point="0.5377 0.5299 0.9701 0.5299 0.9701 0.9623 0.5377 0.9623 0.5377 0.5299 0.9701 0.5299 0.9701 0.9623 0.5377 0.9623 0.5377 0.5299 0.9701 0.5299 0.9701 0.9623 0.5377 0.9623 0.5377 0.5299 0.9701 0.5299 0.9701 0.9623 0.5377 0.9623 0.9701 0.5299 0.9701 0.9623 0.5377 0.5299 0.5377 0.9623 0.5377 0.5299 0.9701 0.5299 0.9701 0.9623 0.5377 0.9623 0.5377 0.5299 0.9701 0.5299 0.9701 0.9623 0.5377 0.9623 0.5377 0.5299 0.9701 0.5299 0.9701 0.9623 0.5377 0.9623 0.5377 0.5299 0.9701 0.5299 0.9701 0.9623 0.5377 0.9623 0.9701 0.9623 0.5377 0.9623 0.5377 0.5299 0.9701 0.5299 " />
										</IndexedTriangleSet>
									</Shape>
								</Group>
							</Transform>
						</Transform>
					</Transform>
					<Transform DEF="arm5_TRANSFORM"
					           translation="-0.000000 0.009515 -1.136302"
					           scale="1.000000 1.000000 1.000000"
					           rotation="0.000000 1.000000 0.000000 0.000000"
					           >
						<Transform DEF="arm5_ifs_TRANSFORM"
						           translation="0.000000 0.000000 0.000000"
						           scale="1.000000 1.000000 1.000000"
						           rotation="0.000000 1.000000 0.000000 0.000000"
						           >
							<Group DEF="group_ME_arm5">
								<Shape>
									<Appearance>
										<Material USE="MA_Body" />
									</Appearance>
									<IndexedTriangleSet solid="false"
									                    normalPerVertex="true"
									                    index="0 1 2 0 2 3 4 5 6 4 6 7 8 9 10 8 10 11 12 13 14 12 14 15 4 16 17 4 17 15 18 5 14 18 14 19 20 21 22 20 22 23 24 25 26 24 26 27 28 29 30 28 30 31 32 33 34 32 34 35 24 33 36 24 36 37 38 39 34 38 34 27 "
									                    >
										<Coordinate point="1.586339 -0.609087 -0.602463 1.586339 -0.609087 0.604758 1.586339 0.643499 0.604758 1.586339 0.643499 -0.602463 1.586339 0.643499 -0.602463 1.586339 0.643499 0.604758 2.378515 0.643499 0.604758 2.378515 0.643499 -0.602463 2.378515 0.643499 -0.602463 2.378515 0.643499 0.604758 2.378515 -0.609087 0.604758 2.378515 -0.609087 -0.602463 2.378515 -0.609087 -0.602463 2.378515 -0.609087 0.604758 1.586339 -0.609087 0.604758 1.586339 -0.609087 -0.602463 2.378515 0.643499 -0.602463 2.378515 -0.609087 -0.602463 2.378515 0.643499 0.604758 2.378515 -0.609087 0.604758 -1.586339 -0.609087 -0.602463 -1.586339 0.643499 -0.602463 -1.586339 0.643499 0.604758 -1.586339 -0.609087 0.604758 -1.586339 0.643499 -0.602463 -2.378515 0.643499 -0.602463 -2.378515 0.643499 0.604758 -1.586339 0.643499 0.604758 -2.378515 0.643499 -0.602463 -2.378515 -0.609087 -0.602463 -2.378515 -0.609087 0.604758 -2.378515 0.643499 0.604758 -2.378515 -0.609087 -0.602463 -1.586339 -0.609087 -0.602463 -1.586339 -0.609087 0.604758 -2.378515 -0.609087 0.604758 -2.378515 -0.609087 -0.602463 -2.378515 0.643499 -0.602463 -2.378515 0.643499 0.604758 -2.378515 -0.609087 0.604758 " />
										<Normal vector="-0.577349 -0.577349 -0.577349 -0.577349 -0.577349 0.577349 -0.577349 0.577349 0.577349 -0.577349 0.577349 -0.577349 -0.577349 0.577349 -0.577349 -0.577349 0.577349 0.577349 0.577349 0.577349 0.577349 0.577349 0.577349 -0.577349 0.577349 0.577349 -0.577349 0.577349 0.577349 0.577349 0.577349 -0.577349 0.577349 0.577349 -0.577349 -0.577349 0.577349 -0.577349 -0.577349 0.577349 -0.577349 0.577349 -0.577349 -0.577349 0.577349 -0.577349 -0.577349 -0.577349 0.577349 0.577349 -0.577349 0.577349 -0.577349 -0.577349 0.577349 0.577349 0.577349 0.577349 -0.577349 0.577349 0.577349 -0.577349 -0.577349 0.577349 0.577349 -0.577349 0.577349 0.577349 0.577349 0.577349 -0.577349 0.577349 0.577349 0.577349 -0.577349 -0.577349 0.577349 -0.577349 -0.577349 0.577349 0.577349 0.577349 0.577349 0.577349 -0.577349 0.577349 -0.577349 -0.577349 -0.577349 -0.577349 -0.577349 -0.577349 0.577349 -0.577349 0.577349 0.577349 -0.577349 -0.577349 -0.577349 0.577349 -0.577349 -0.577349 0.577349 -0.577349 0.577349 -0.577349 -0.577349 0.577349 -0.577349 -0.577349 -0.577349 -0.577349 0.577349 -0.577349 -0.577349 0.577349 0.577349 -0.577349 -0.577349 0.577349 " />
										<TextureCoordinate point="0.5377 0.5299 0.9701 0.5299 0.9701 0.9623 0.5377 0.9623 0.5377 0.5299 0.9701 0.5299 0.9701 0.9623 0.5377 0.9623 0.5377 0.5299 0.9701 0.5299 0.9701 0.9623 0.5377 0.9623 0.5377 0.5299 0.9701 0.5299 0.9701 0.9623 0.5377 0.9623 0.9701 0.5299 0.9701 0.9623 0.5377 0.5299 0.5377 0.9623 0.5377 0.5299 0.9701 0.5299 0.9701 0.9623 0.5377 0.9623 0.5377 0.5299 0.9701 0.5299 0.9701 0.9623 0.5377 0.9623 0.5377 0.5299 0.9701 0.5299 0.9701 0.9623 0.5377 0.9623 0.5377 0.5299 0.9701 0.5299 0.9701 0.9623 0.5377 0.9623 0.9701 0.9623 0.5377 0.9623 0.5377 0.5299 0.9701 0.5299 " />
									</IndexedTriangleSet>
								</Shape>
							</Group>
						</Transform>
					</Transform>
				</Transform>
				<Transform DEF="arm4_TRANSFORM"
				           translation="-0.000000 0.009514 -1.192463"
				           scale="1.000000 1.000000 1.000000"
				           rotation="0.000000 1.000000 0.000000 0.000000"
				           >
					<Transform DEF="arm4_ifs_TRANSFORM"
					           translation="0.000000 0.000000 0.000000"
					           scale="1.000000 1.000000 1.000000"
					           rotation="0.000000 1.000000 0.000000 0.000000"
					           >
						<Group DEF="group_ME_arm4">
							<Shape>
								<Appearance>
									<Material USE="MA_Body" />
								</Appearance>
								<IndexedTriangleSet solid="false"
								                    normalPerVertex="true"
								                    index="0 1 2 0 2 3 4 5 6 4 6 7 8 9 10 8 10 11 12 13 14 12 14 15 4 16 17 4 17 15 18 5 14 18 14 19 20 21 22 20 22 23 24 25 26 24 26 27 28 29 30 28 30 31 32 33 34 32 34 35 24 33 36 24 36 37 38 39 34 38 34 27 "
								                    >
									<Coordinate point="1.602194 -0.609087 -0.643758 1.602194 -0.609087 0.563463 1.602194 0.643499 0.563463 1.602194 0.643499 -0.643758 1.602194 0.643499 -0.643758 1.602194 0.643499 0.563463 2.610430 0.643499 0.563463 2.610430 0.643499 -0.643758 2.610430 0.643499 -0.643758 2.610430 0.643499 0.563463 2.610430 -0.609087 0.563463 2.610430 -0.609087 -0.643758 2.610430 -0.609087 -0.643758 2.610430 -0.609087 0.563463 1.602194 -0.609087 0.563463 1.602194 -0.609087 -0.643758 2.610430 0.643499 -0.643758 2.610430 -0.609087 -0.643758 2.610430 0.643499 0.563463 2.610430 -0.609087 0.563463 -1.602194 -0.609087 -0.643758 -1.602194 0.643499 -0.643758 -1.602194 0.643499 0.563463 -1.602194 -0.609087 0.563463 -1.602194 0.643499 -0.643758 -2.610430 0.643499 -0.643758 -2.610430 0.643499 0.563463 -1.602194 0.643499 0.563463 -2.610430 0.643499 -0.643758 -2.610430 -0.609087 -0.643758 -2.610430 -0.609087 0.563463 -2.610430 0.643499 0.563463 -2.610430 -0.609087 -0.643758 -1.602194 -0.609087 -0.643758 -1.602194 -0.609087 0.563463 -2.610430 -0.609087 0.563463 -2.610430 -0.609087 -0.643758 -2.610430 0.643499 -0.643758 -2.610430 0.643499 0.563463 -2.610430 -0.609087 0.563463 " />
									<Normal vector="-0.577349 -0.577349 -0.577349 -0.577349 -0.577349 0.577349 -0.577349 0.577349 0.577349 -0.577349 0.577349 -0.577349 -0.577349 0.577349 -0.577349 -0.577349 0.577349 0.577349 0.577349 0.577349 0.577349 0.577349 0.577349 -0.577349 0.577349 0.577349 -0.577349 0.577349 0.577349 0.577349 0.577349 -0.577349 0.577349 0.577349 -0.577349 -0.577349 0.577349 -0.577349 -0.577349 0.577349 -0.577349 0.577349 -0.577349 -0.577349 0.577349 -0.577349 -0.577349 -0.577349 0.577349 0.577349 -0.577349 0.577349 -0.577349 -0.577349 0.577349 0.577349 0.577349 0.577349 -0.577349 0.577349 0.577349 -0.577349 -0.577349 0.577349 0.577349 -0.577349 0.577349 0.577349 0.577349 0.577349 -0.577349 0.577349 0.577349 0.577349 -0.577349 -0.577349 0.577349 -0.577349 -0.577349 0.577349 0.577349 0.577349 0.577349 0.577349 -0.577349 0.577349 -0.577349 -0.577349 -0.577349 -0.577349 -0.577349 -0.577349 0.577349 -0.577349 0.577349 0.577349 -0.577349 -0.577349 -0.577349 0.577349 -0.577349 -0.577349 0.577349 -0.577349 0.577349 -0.577349 -0.577349 0.577349 -0.577349 -0.577349 -0.577349 -0.577349 0.577349 -0.577349 -0.577349 0.577349 0.577349 -0.577349 -0.577349 0.577349 " />
									<TextureCoordinate point="0.5377 0.5299 0.9701 0.5299 0.9701 0.9623 0.5377 0.9623 0.5377 0.5299 0.9701 0.5299 0.9701 0.9623 0.5377 0.9623 0.5377 0.5299 0.9701 0.5299 0.9701 0.9623 0.5377 0.9623 0.5377 0.5299 0.9701 0.5299 0.9701 0.9623 0.5377 0.9623 0.9701 0.5299 0.9701 0.9623 0.5377 0.5299 0.5377 0.9623 0.5377 0.5299 0.9701 0.5299 0.9701 0.9623 0.5377 0.9623 0.5377 0.5299 0.9701 0.5299 0.9701 0.9623 0.5377 0.9623 0.5377 0.5299 0.9701 0.5299 0.9701 0.9623 0.5377 0.9623 0.5377 0.5299 0.9701 0.5299 0.9701 0.9623 0.5377 0.9623 0.9701 0.9623 0.5377 0.9623 0.5377 0.5299 0.9701 0.5299 " />
								</IndexedTriangleSet>
							</Shape>
						</Group>
					</Transform>
				</Transform>
			</Transform>
			<Transform DEF="arm3_TRANSFORM"
			           translation="-0.000000 0.028543 1.565481"
			           scale="1.000000 1.000000 1.000000"
			           rotation="0.000000 1.000000 0.000000 0.000000"
			           >
				<Transform DEF="arm3_ifs_TRANSFORM"
				           translation="0.000000 0.000000 0.000000"
				           scale="1.000000 1.000000 1.000000"
				           rotation="0.000000 1.000000 0.000000 0.000000"
				           >
					<Group DEF="group_ME_arm3">
						<Shape>
							<Appearance>
								<Material USE="MA_Body" />
							</Appearance>
							<IndexedTriangleSet solid="false"
							                    normalPerVertex="true"
							                    index="0 1 2 0 2 3 4 5 6 4 6 7 8 9 10 8 10 11 12 13 14 12 14 15 4 16 17 4 17 15 18 5 14 18 14 19 20 21 22 20 22 23 24 25 26 24 26 27 28 29 30 28 30 31 32 33 34 32 34 35 24 33 36 24 36 37 38 39 34 38 34 27 "
							                    >
								<Coordinate point="1.808668 -0.609087 -0.643758 1.808668 -0.609087 0.563463 1.808668 0.643499 0.563463 1.808668 0.643499 -0.643758 1.808668 0.643499 -0.643758 1.808668 0.643499 0.563463 2.816904 0.643499 0.563463 2.816904 0.643499 -0.643758 2.816904 0.643499 -0.643758 2.816904 0.643499 0.563463 2.816904 -0.609087 0.563463 2.816904 -0.609087 -0.643758 2.816904 -0.609087 -0.643758 2.816904 -0.609087 0.563463 1.808668 -0.609087 0.563463 1.808668 -0.609087 -0.643758 2.816904 0.643499 -0.643758 2.816904 -0.609087 -0.643758 2.816904 0.643499 0.563463 2.816904 -0.609087 0.563463 -1.808668 -0.609087 -0.643758 -1.808668 0.643499 -0.643758 -1.808668 0.643499 0.563463 -1.808668 -0.609087 0.563463 -1.808668 0.643499 -0.643758 -2.816904 0.643499 -0.643758 -2.816904 0.643499 0.563463 -1.808668 0.643499 0.563463 -2.816904 0.643499 -0.643758 -2.816904 -0.609087 -0.643758 -2.816904 -0.609087 0.563463 -2.816904 0.643499 0.563463 -2.816904 -0.609087 -0.643758 -1.808668 -0.609087 -0.643758 -1.808668 -0.609087 0.563463 -2.816904 -0.609087 0.563463 -2.816904 -0.609087 -0.643758 -2.816904 0.643499 -0.643758 -2.816904 0.643499 0.563463 -2.816904 -0.609087 0.563463 " />
								<Normal vector="-0.577349 -0.577349 -0.577349 -0.577349 -0.577349 0.577349 -0.577349 0.577349 0.577349 -0.577349 0.577349 -0.577349 -0.577349 0.577349 -0.577349 -0.577349 0.577349 0.577349 0.577349 0.577349 0.577349 0.577349 0.577349 -0.577349 0.577349 0.577349 -0.577349 0.577349 0.577349 0.577349 0.577349 -0.577349 0.577349 0.577349 -0.577349 -0.577349 0.577349 -0.577349 -0.577349 0.577349 -0.577349 0.577349 -0.577349 -0.577349 0.577349 -0.577349 -0.577349 -0.577349 0.577349 0.577349 -0.577349 0.577349 -0.577349 -0.577349 0.577349 0.577349 0.577349 0.577349 -0.577349 0.577349 0.577349 -0.577349 -0.577349 0.577349 0.577349 -0.577349 0.577349 0.577349 0.577349 0.577349 -0.577349 0.577349 0.577349 0.577349 -0.577349 -0.577349 0.577349 -0.577349 -0.577349 0.577349 0.577349 0.577349 0.577349 0.577349 -0.577349 0.577349 -0.577349 -0.577349 -0.577349 -0.577349 -0.577349 -0.577349 0.577349 -0.577349 0.577349 0.577349 -0.577349 -0.577349 -0.577349 0.577349 -0.577349 -0.577349 0.577349 -0.577349 0.577349 -0.577349 -0.577349 0.577349 -0.577349 -0.577349 -0.577349 -0.577349 0.577349 -0.577349 -0.577349 0.577349 0.577349 -0.577349 -0.577349 0.577349 " />
								<TextureCoordinate point="0.5377 0.5299 0.9701 0.5299 0.9701 0.9623 0.5377 0.9623 0.5377 0.5299 0.9701 0.5299 0.9701 0.9623 0.5377 0.9623 0.5377 0.5299 0.9701 0.5299 0.9701 0.9623 0.5377 0.9623 0.5377 0.5299 0.9701 0.5299 0.9701 0.9623 0.5377 0.9623 0.9701 0.5299 0.9701 0.9623 0.5377 0.5299 0.5377 0.9623 0.5377 0.5299 0.9701 0.5299 0.9701 0.9623 0.5377 0.9623 0.5377 0.5299 0.9701 0.5299 0.9701 0.9623 0.5377 0.9623 0.5377 0.5299 0.9701 0.5299 0.9701 0.9623 0.5377 0.9623 0.5377 0.5299 0.9701 0.5299 0.9701 0.9623 0.5377 0.9623 0.9701 0.9623 0.5377 0.9623 0.5377 0.5299 0.9701 0.5299 " />
							</IndexedTriangleSet>
						</Shape>
					</Group>
				</Transform>
			</Transform>
		</Transform>
	</Scene>
</X3D>